<?xml version="1.0" encoding="utf-8" ?>
<svg xmlns="http://www.w3.org/2000/svg" xmlns:cc="http://creativecommons.org/ns" xmlns:dc="http://purl.org/dc/elements/1.1/" xmlns:ev="http://www.w3.org/2001/xml-events" xmlns:inkscape="http://www.inkscape.org/namespaces/inkscape" xmlns:rdf="http://www.w3.org/1999/02/22-rdf-syntax-ns" xmlns:sodipodi="http://sodipodi.sourceforge.net/DTD/sodipodi-0.dtd" xmlns:xlink="http://www.w3.org/1999/xlink" baseProfile="tiny" height="9.9cm" version="1.2" viewBox="0 0 793.7007874015749 374.1732283464567" width="21.0cm">
  <metadata>
    <rdf:RDF>
      <cc:Work>
        <dc:format>image/svg+xml</dc:format>
        <dc:source>vpype eval 'cell=10;width=210;height=99' eval 'nCols=20;nRows=9' eval 'cells=[0,1,2,3,8,9,10,11,12,14,22,24,28,33,34,35,36,37,38,42,44,45,46,47,48,49,50,51,52,54,60,62,64,68,74,75,76,77,78,79,80,82,84,86,87,88,89,90,91,92,93,94,100,101,102,103,104,105,108,112,114,118,120,122,125,128,131,132,133,134,135,136,137,138,141,142,143,144,145,146,147,148,149,152,154,158,162,165,168,170,171,172,178]' eval 'chars=[&quot;K&quot;,&quot;O&quot;,&quot;U&quot;,&quot;S&quot;,&quot;M&quot;,&quot;A&quot;,&quot;R&quot;,&quot;I&quot;,&quot;A&quot;,&quot;P&quot;,&quot;I&quot;,&quot;G&quot;,&quot;A&quot;,&quot;L&quot;,&quot;A&quot;,&quot;D&quot;,&quot;D&quot;,&quot;E&quot;,&quot;R&quot;,&quot;T&quot;,&quot;R&quot;,&quot;E&quot;,&quot;G&quot;,&quot;E&quot;,&quot;N&quot;,&quot;B&quot;,&quot;O&quot;,&quot;O&quot;,&quot;G&quot;,&quot;R&quot;,&quot;F&quot;,&quot;L&quot;,&quot;O&quot;,&quot;D&quot;,&quot;K&quot;,&quot;I&quot;,&quot;E&quot;,&quot;M&quot;,&quot;E&quot;,&quot;N&quot;,&quot;I&quot;,&quot;I&quot;,&quot;E&quot;,&quot;K&quot;,&quot;L&quot;,&quot;A&quot;,&quot;V&quot;,&quot;E&quot;,&quot;R&quot;,&quot;T&quot;,&quot;J&quot;,&quot;E&quot;,&quot;L&quot;,&quot;A&quot;,&quot;K&quot;,&quot;E&quot;,&quot;N&quot;,&quot;S&quot;,&quot;R&quot;,&quot;R&quot;,&quot;R&quot;,&quot;P&quot;,&quot;E&quot;,&quot;K&quot;,&quot;T&quot;,&quot;I&quot;,&quot;R&quot;,&quot;E&quot;,&quot;G&quot;,&quot;E&quot;,&quot;N&quot;,&quot;B&quot;,&quot;U&quot;,&quot;I&quot;,&quot;R&quot;,&quot;E&quot;,&quot;K&quot;,&quot;K&quot;,&quot;E&quot;,&quot;R&quot;,&quot;T&quot;,&quot;J&quot;,&quot;E&quot;,&quot;I&quot;,&quot;N&quot;,&quot;P&quot;,&quot;N&quot;,&quot;R&quot;,&quot;N&quot;,&quot;Z&quot;,&quot;O&quot;,&quot;N&quot;,&quot;I&quot;]' eval 'numbers=[0,2,8,14,24,33,44,60,74,86,92,100,105,118,131,141,170]' eval counter=1 eval charIndex=0 begin grid -o '%cell*mm%' '%cell*mm%' %nCols% %nRows% eval '%isCell=_i in cells%' eval '%number=_i in numbers%' eval '%size=10 if isCell else 0%' rect 0 0 '%size*mm%' '%size*mm%' text -s 10 -p 0.5mm 1.5mm '%counter if number else '&quot;'&quot;''&quot;'&quot;'%' text -s 20 -p 5mm 5mm -a center '%chars[charIndex] if isCell else '&quot;'&quot;''&quot;'&quot;'%' eval '%if number: counter+=1 %' eval '%if isCell: charIndex+=1 %' end splitall deduplicate linemerge --tolerance 0.1mm write -m none --page-size '%width*mm%x%height*mm%' --center ./svgs/solution/263bce.svg
</dc:source>
        <dc:date>2023-12-23T22:30:06.095893</dc:date>
      </cc:Work>
    </rdf:RDF>
  </metadata>
  <defs/>
  <g fill="none" id="layer1" inkscape:groupmode="layer" inkscape:label="1" stroke="#000000" style="display:inline">
    <polygon points="18.8976,17.0079 18.8976,54.8031 18.8976,54.8031 56.6929,54.8031 56.6929,54.8031 56.6929,17.0079 56.6929,17.0079"/>
    <polyline points="22.6624,20.1772 23.2874,19.8647 23.2874,19.8647 24.2249,18.9272 24.2249,18.9272 24.2249,25.4897"/>
    <line x1="35.9203" x2="35.9203" y1="28.4055" y2="41.5305"/>
    <line x1="44.6703" x2="35.9203" y1="28.4055" y2="37.1555"/>
    <line x1="39.0453" x2="44.6703" y1="34.0305" y2="41.5305"/>
    <polyline points="56.6929,54.8031 94.4882,54.8031 94.4882,54.8031 132.2835,54.8031 132.2835,54.8031 170.0787,54.8031 170.0787,54.8031 170.0787,17.0079 170.0787,17.0079 132.2835,17.0079 132.2835,17.0079 94.4882,17.0079 94.4882,17.0079 56.6929,17.0079"/>
    <polyline points="132.2835,17.0079 132.2835,54.8031 132.2835,54.8031 132.2835,92.5984 132.2835,92.5984 94.4882,92.5984 94.4882,92.5984 94.4882,54.8031 94.4882,54.8031 94.4882,17.0079"/>
    <polygon points="76.2156,28.4055 74.9656,29.0305 74.9656,29.0305 73.7156,30.2805 73.7156,30.2805 73.0906,31.5305 73.0906,31.5305 72.4656,33.4055 72.4656,33.4055 72.4656,36.5305 72.4656,36.5305 73.0906,38.4055 73.0906,38.4055 73.7156,39.6555 73.7156,39.6555 74.9656,40.9055 74.9656,40.9055 76.2156,41.5305 76.2156,41.5305 78.7156,41.5305 78.7156,41.5305 79.9656,40.9055 79.9656,40.9055 81.2156,39.6555 81.2156,39.6555 81.8406,38.4055 81.8406,38.4055 82.4656,36.5305 82.4656,36.5305 82.4656,33.4055 82.4656,33.4055 81.8406,31.5305 81.8406,31.5305 81.2156,30.2805 81.2156,30.2805 79.9656,29.0305 79.9656,29.0305 78.7156,28.4055 78.7156,28.4055"/>
    <polyline points="97.628,20.4897 97.628,20.1772 97.628,20.1772 97.9405,19.5522 97.9405,19.5522 98.253,19.2397 98.253,19.2397 98.878,18.9272 98.878,18.9272 100.128,18.9272 100.128,18.9272 100.753,19.2397 100.753,19.2397 101.0655,19.5522 101.0655,19.5522 101.378,20.1772 101.378,20.1772 101.378,20.8022 101.378,20.8022 101.0655,21.4272 101.0655,21.4272 100.4405,22.3647 100.4405,22.3647 97.3155,25.4897 97.3155,25.4897 101.6905,25.4897"/>
    <polyline points="111.5108,28.4055 111.5108,37.7805 111.5108,37.7805 112.1358,39.6555 112.1358,39.6555 113.3858,40.9055 113.3858,40.9055 115.2608,41.5305 115.2608,41.5305 116.5108,41.5305 116.5108,41.5305 118.3858,40.9055 118.3858,40.9055 119.6358,39.6555 119.6358,39.6555 120.2608,37.7805 120.2608,37.7805 120.2608,28.4055"/>
    <polyline points="157.4311,30.2805 156.1811,29.0305 156.1811,29.0305 154.3061,28.4055 154.3061,28.4055 151.8061,28.4055 151.8061,28.4055 149.9311,29.0305 149.9311,29.0305 148.6811,30.2805 148.6811,30.2805 148.6811,31.5305 148.6811,31.5305 149.3061,32.7805 149.3061,32.7805 149.9311,33.4055 149.9311,33.4055 151.1811,34.0305 151.1811,34.0305 154.9311,35.2805 154.9311,35.2805 156.1811,35.9055 156.1811,35.9055 156.8061,36.5305 156.8061,36.5305 157.4311,37.7805 157.4311,37.7805 157.4311,39.6555 157.4311,39.6555 156.1811,40.9055 156.1811,40.9055 154.3061,41.5305 154.3061,41.5305 151.8061,41.5305 151.8061,41.5305 149.9311,40.9055 149.9311,40.9055 148.6811,39.6555"/>
    <polygon points="321.2598,17.0079 321.2598,54.8031 321.2598,54.8031 359.0551,54.8031 359.0551,54.8031 396.8504,54.8031 396.8504,54.8031 396.8504,17.0079 396.8504,17.0079 359.0551,17.0079 359.0551,17.0079"/>
    <polyline points="396.8504,92.5984 434.6457,92.5984 434.6457,92.5984 434.6457,130.3937 434.6457,130.3937 396.8504,130.3937 396.8504,130.3937 396.8504,92.5984 396.8504,92.5984 359.0551,92.5984 359.0551,92.5984 359.0551,54.8031 359.0551,54.8031 359.0551,17.0079"/>
    <polyline points="324.7121,18.9272 328.1496,18.9272 328.1496,18.9272 326.2746,21.4272 326.2746,21.4272 327.2121,21.4272 327.2121,21.4272 327.8371,21.7397 327.8371,21.7397 328.1496,22.0522 328.1496,22.0522 328.4621,22.9897 328.4621,22.9897 328.4621,23.6147 328.4621,23.6147 328.1496,24.5522 328.1496,24.5522 327.5246,25.1772 327.5246,25.1772 326.5871,25.4897 326.5871,25.4897 325.6496,25.4897 325.6496,25.4897 324.7121,25.1772 324.7121,25.1772 324.3996,24.8647 324.3996,24.8647 324.0871,24.2397"/>
    <polyline points="347.6575,41.5305 347.6575,28.4055 347.6575,28.4055 342.6575,41.5305 342.6575,41.5305 337.6575,28.4055 337.6575,28.4055 337.6575,41.5305"/>
    <polyline points="383.5778,41.5305 378.5778,28.4055 378.5778,28.4055 373.5778,41.5305"/>
    <line x1="375.4528" x2="381.7028" y1="37.1555" y2="37.1555"/>
    <polyline points="396.8504,54.8031 434.6457,54.8031 434.6457,54.8031 434.6457,17.0079 434.6457,17.0079 396.8504,17.0079"/>
    <polyline points="413.873,34.6555 419.498,34.6555 419.498,34.6555 421.373,34.0305 421.373,34.0305 421.998,33.4055 421.998,33.4055 422.623,32.1555 422.623,32.1555 422.623,30.9055 422.623,30.9055 421.998,29.6555 421.998,29.6555 421.373,29.0305 421.373,29.0305 419.498,28.4055 419.498,28.4055 413.873,28.4055 413.873,28.4055 413.873,41.5305"/>
    <line x1="418.248" x2="422.623" y1="34.6555" y2="41.5305"/>
    <polyline points="434.6457,54.8031 472.4409,54.8031 472.4409,54.8031 472.4409,17.0079 472.4409,17.0079 434.6457,17.0079"/>
    <line x1="456.0433" x2="456.0433" y1="28.4055" y2="41.5305"/>
    <polyline points="472.4409,54.8031 510.2362,54.8031 510.2362,54.8031 510.2362,17.0079 510.2362,17.0079 472.4409,17.0079"/>
    <polyline points="496.9636,41.5305 491.9636,28.4055 491.9636,28.4055 486.9636,41.5305"/>
    <line x1="488.8386" x2="495.0886" y1="37.1555" y2="37.1555"/>
    <polygon points="548.0315,17.0079 548.0315,54.8031 548.0315,54.8031 585.8268,54.8031 585.8268,54.8031 585.8268,17.0079 585.8268,17.0079"/>
    <polyline points="553.9838,25.4897 553.9838,18.9272 553.9838,18.9272 550.8588,23.3022 550.8588,23.3022 555.5463,23.3022"/>
    <polyline points="565.0541,35.2805 570.6791,35.2805 570.6791,35.2805 572.5541,34.6555 572.5541,34.6555 573.1791,34.0305 573.1791,34.0305 573.8041,32.7805 573.8041,32.7805 573.8041,30.9055 573.8041,30.9055 573.1791,29.6555 573.1791,29.6555 572.5541,29.0305 572.5541,29.0305 570.6791,28.4055 570.6791,28.4055 565.0541,28.4055 565.0541,28.4055 565.0541,41.5305"/>
    <line x1="115.8858" x2="115.8858" y1="66.2008" y2="79.3258"/>
    <polygon points="170.0787,54.8031 170.0787,92.5984 170.0787,92.5984 170.0787,130.3937 170.0787,130.3937 207.874,130.3937 207.874,130.3937 207.874,92.5984 207.874,92.5984 207.874,54.8031 207.874,54.8031"/>
    <polyline points="170.0787,92.5984 207.874,92.5984 207.874,92.5984 245.6693,92.5984 245.6693,92.5984 245.6693,130.3937 245.6693,130.3937 207.874,130.3937 207.874,130.3937 207.874,168.189 207.874,168.189 207.874,205.9843 207.874,205.9843 245.6693,205.9843 245.6693,205.9843 245.6693,243.7795 245.6693,243.7795 207.874,243.7795 207.874,243.7795 207.874,205.9843 207.874,205.9843 170.0787,205.9843 170.0787,205.9843 132.2835,205.9843 132.2835,205.9843 132.2835,168.189 132.2835,168.189 132.2835,130.3937 132.2835,130.3937 132.2835,92.5984"/>
    <polyline points="176.656,56.7224 173.531,56.7224 173.531,56.7224 173.2185,59.5349 173.2185,59.5349 173.531,59.2224 173.531,59.2224 174.4685,58.9099 174.4685,58.9099 175.406,58.9099 175.406,58.9099 176.3435,59.2224 176.3435,59.2224 176.9685,59.8474 176.9685,59.8474 177.281,60.7849 177.281,60.7849 177.281,61.4099 177.281,61.4099 176.9685,62.3474 176.9685,62.3474 176.3435,62.9724 176.3435,62.9724 175.406,63.2849 175.406,63.2849 174.4685,63.2849 174.4685,63.2849 173.531,62.9724 173.531,62.9724 173.2185,62.6599 173.2185,62.6599 172.906,62.0349"/>
    <polyline points="195.5389,69.3258 194.9139,68.0758 194.9139,68.0758 193.6639,66.8258 193.6639,66.8258 192.4139,66.2008 192.4139,66.2008 189.9139,66.2008 189.9139,66.2008 188.6639,66.8258 188.6639,66.8258 187.4139,68.0758 187.4139,68.0758 186.7889,69.3258 186.7889,69.3258 186.1639,71.2008 186.1639,71.2008 186.1639,74.3258 186.1639,74.3258 186.7889,76.2008 186.7889,76.2008 187.4139,77.4508 187.4139,77.4508 188.6639,78.7008 188.6639,78.7008 189.9139,79.3258 189.9139,79.3258 192.4139,79.3258 192.4139,79.3258 193.6639,78.7008 193.6639,78.7008 194.9139,77.4508 194.9139,77.4508 195.5389,76.2008 195.5389,76.2008 195.5389,74.3258 195.5389,74.3258 192.4139,74.3258"/>
    <polyline points="321.2598,54.8031 321.2598,92.5984 321.2598,92.5984 359.0551,92.5984 359.0551,92.5984 359.0551,130.3937 359.0551,130.3937 396.8504,130.3937"/>
    <polyline points="345.7825,79.3258 340.7825,66.2008 340.7825,66.2008 335.7825,79.3258"/>
    <line x1="337.6575" x2="343.9075" y1="74.9508" y2="74.9508"/>
    <polyline points="661.4173,54.8031 699.2126,54.8031 699.2126,54.8031 699.2126,92.5984 699.2126,92.5984 661.4173,92.5984 661.4173,92.5984 661.4173,54.8031 661.4173,54.8031 623.622,54.8031 623.622,54.8031 585.8268,54.8031 585.8268,54.8031 585.8268,92.5984 585.8268,92.5984 585.8268,130.3937 585.8268,130.3937 548.0315,130.3937 548.0315,130.3937 548.0315,92.5984 548.0315,92.5984 548.0315,54.8031 548.0315,54.8031 510.2362,54.8031 510.2362,54.8031 510.2362,92.5984 510.2362,92.5984 472.4409,92.5984 472.4409,92.5984 434.6457,92.5984"/>
    <polyline points="472.4409,92.5984 472.4409,130.3937 472.4409,130.3937 510.2362,130.3937 510.2362,130.3937 510.2362,92.5984 510.2362,92.5984 548.0315,92.5984 548.0315,92.5984 585.8268,92.5984 585.8268,92.5984 623.622,92.5984 623.622,92.5984 661.4173,92.5984"/>
    <polyline points="517.126,57.6599 516.8135,57.0349 516.8135,57.0349 515.876,56.7224 515.876,56.7224 515.251,56.7224 515.251,56.7224 514.3135,57.0349 514.3135,57.0349 513.6885,57.9724 513.6885,57.9724 513.376,59.5349 513.376,59.5349 513.376,61.0974 513.376,61.0974 513.6885,62.3474 513.6885,62.3474 514.3135,62.9724 514.3135,62.9724 515.251,63.2849 515.251,63.2849 515.5635,63.2849 515.5635,63.2849 516.501,62.9724 516.501,62.9724 517.126,62.3474 517.126,62.3474 517.4385,61.4099 517.4385,61.4099 517.4385,61.0974 517.4385,61.0974 517.126,60.1599 517.126,60.1599 516.501,59.5349 516.501,59.5349 515.5635,59.2224 515.5635,59.2224 515.251,59.2224 515.251,59.2224 514.3135,59.5349 514.3135,59.5349 513.6885,60.1599 513.6885,60.1599 513.376,61.0974"/>
    <polyline points="527.8839,66.2008 527.8839,79.3258 527.8839,79.3258 535.3839,79.3258"/>
    <polyline points="572.5541,79.3258 567.5541,66.2008 567.5541,66.2008 562.5541,79.3258"/>
    <line x1="564.4291" x2="570.6791" y1="74.9508" y2="74.9508"/>
    <line x1="623.622" x2="623.622" y1="92.5984" y2="54.8031"/>
    <polygon points="602.8494,66.2008 602.8494,79.3258 602.8494,79.3258 607.2244,79.3258 607.2244,79.3258 609.0994,78.7008 609.0994,78.7008 610.3494,77.4508 610.3494,77.4508 610.9744,76.2008 610.9744,76.2008 611.5994,74.3258 611.5994,74.3258 611.5994,71.2008 611.5994,71.2008 610.9744,69.3258 610.9744,69.3258 610.3494,68.0758 610.3494,68.0758 609.0994,66.8258 609.0994,66.8258 607.2244,66.2008 607.2244,66.2008"/>
    <polygon points="640.6447,66.2008 640.6447,79.3258 640.6447,79.3258 645.0197,79.3258 645.0197,79.3258 646.8947,78.7008 646.8947,78.7008 648.1447,77.4508 648.1447,77.4508 648.7697,76.2008 648.7697,76.2008 649.3947,74.3258 649.3947,74.3258 649.3947,71.2008 649.3947,71.2008 648.7697,69.3258 648.7697,69.3258 648.1447,68.0758 648.1447,68.0758 646.8947,66.8258 646.8947,66.8258 645.0197,66.2008 645.0197,66.2008"/>
    <polyline points="686.8775,66.2008 678.7525,66.2008 678.7525,66.2008 678.7525,79.3258 678.7525,79.3258 686.8775,79.3258"/>
    <line x1="678.7525" x2="683.7525" y1="72.4508" y2="72.4508"/>
    <polyline points="699.2126,92.5984 737.0079,92.5984 737.0079,92.5984 737.0079,54.8031 737.0079,54.8031 699.2126,54.8031"/>
    <polyline points="716.2352,72.4508 721.8602,72.4508 721.8602,72.4508 723.7352,71.8258 723.7352,71.8258 724.3602,71.2008 724.3602,71.2008 724.9852,69.9508 724.9852,69.9508 724.9852,68.7008 724.9852,68.7008 724.3602,67.4508 724.3602,67.4508 723.7352,66.8258 723.7352,66.8258 721.8602,66.2008 721.8602,66.2008 716.2352,66.2008 716.2352,66.2008 716.2352,79.3258"/>
    <line x1="720.6102" x2="724.9852" y1="72.4508" y2="79.3258"/>
    <polyline points="94.4882,92.5984 94.4882,130.3937 94.4882,130.3937 94.4882,168.189 94.4882,168.189 132.2835,168.189"/>
    <line x1="94.4882" x2="132.2835" y1="130.3937" y2="130.3937"/>
    <line x1="114.0108" x2="114.0108" y1="103.9961" y2="117.1211"/>
    <line x1="109.6358" x2="118.3858" y1="103.9961" y2="103.9961"/>
    <polyline points="172.906,94.5177 177.281,94.5177 177.281,94.5177 174.156,101.0802"/>
    <polyline points="187.1014,110.2461 192.7264,110.2461 192.7264,110.2461 194.6014,109.6211 194.6014,109.6211 195.2264,108.9961 195.2264,108.9961 195.8514,107.7461 195.8514,107.7461 195.8514,106.4961 195.8514,106.4961 195.2264,105.2461 195.2264,105.2461 194.6014,104.6211 194.6014,104.6211 192.7264,103.9961 192.7264,103.9961 187.1014,103.9961 187.1014,103.9961 187.1014,117.1211"/>
    <line x1="191.4764" x2="195.8514" y1="110.2461" y2="117.1211"/>
    <polyline points="233.3342,103.9961 225.2092,103.9961 225.2092,103.9961 225.2092,117.1211 225.2092,117.1211 233.3342,117.1211"/>
    <line x1="225.2092" x2="230.2092" y1="110.2461" y2="110.2461"/>
    <polyline points="245.6693,130.3937 283.4646,130.3937 283.4646,130.3937 321.2598,130.3937 321.2598,130.3937 359.0551,130.3937 359.0551,130.3937 359.0551,168.189 359.0551,168.189 396.8504,168.189 396.8504,168.189 396.8504,205.9843 396.8504,205.9843 434.6457,205.9843 434.6457,205.9843 434.6457,168.189 434.6457,168.189 396.8504,168.189"/>
    <polyline points="283.4646,130.3937 283.4646,92.5984 283.4646,92.5984 245.6693,92.5984"/>
    <polyline points="271.1294,107.1211 270.5044,105.8711 270.5044,105.8711 269.2544,104.6211 269.2544,104.6211 268.0044,103.9961 268.0044,103.9961 265.5044,103.9961 265.5044,103.9961 264.2544,104.6211 264.2544,104.6211 263.0044,105.8711 263.0044,105.8711 262.3794,107.1211 262.3794,107.1211 261.7544,108.9961 261.7544,108.9961 261.7544,112.1211 261.7544,112.1211 262.3794,113.9961 262.3794,113.9961 263.0044,115.2461 263.0044,115.2461 264.2544,116.4961 264.2544,116.4961 265.5044,117.1211 265.5044,117.1211 268.0044,117.1211 268.0044,117.1211 269.2544,116.4961 269.2544,116.4961 270.5044,115.2461 270.5044,115.2461 271.1294,113.9961 271.1294,113.9961 271.1294,112.1211 271.1294,112.1211 268.0044,112.1211"/>
    <polyline points="396.8504,205.9843 359.0551,205.9843 359.0551,205.9843 321.2598,205.9843 321.2598,205.9843 321.2598,168.189 321.2598,168.189 359.0551,168.189 359.0551,168.189 359.0551,205.9843 359.0551,205.9843 359.0551,243.7795 359.0551,243.7795 321.2598,243.7795 321.2598,243.7795 321.2598,205.9843 321.2598,205.9843 283.4646,205.9843 283.4646,205.9843 245.6693,205.9843 245.6693,205.9843 245.6693,168.189 245.6693,168.189 283.4646,168.189 283.4646,168.189 321.2598,168.189 321.2598,168.189 321.2598,130.3937 321.2598,130.3937 321.2598,92.5984 321.2598,92.5984 283.4646,92.5984"/>
    <polyline points="308.9247,103.9961 300.7997,103.9961 300.7997,103.9961 300.7997,117.1211 300.7997,117.1211 308.9247,117.1211"/>
    <line x1="300.7997" x2="305.7997" y1="110.2461" y2="110.2461"/>
    <polyline points="347.0325,103.9961 347.0325,117.1211 347.0325,117.1211 338.2825,103.9961 338.2825,103.9961 338.2825,117.1211"/>
    <polygon points="376.0778,103.9961 376.0778,117.1211 376.0778,117.1211 381.7028,117.1211 381.7028,117.1211 383.5778,116.4961 383.5778,116.4961 384.2028,115.8711 384.2028,115.8711 384.8278,114.6211 384.8278,114.6211 384.8278,112.7461 384.8278,112.7461 384.2028,111.4961 384.2028,111.4961 383.5778,110.8711 383.5778,110.8711 381.7028,110.2461 381.7028,110.2461 383.5778,109.6211 383.5778,109.6211 384.2028,108.9961 384.2028,108.9961 384.8278,107.7461 384.8278,107.7461 384.8278,106.4961 384.8278,106.4961 384.2028,105.2461 384.2028,105.2461 383.5778,104.6211 383.5778,104.6211 381.7028,103.9961 381.7028,103.9961"/>
    <line x1="376.0778" x2="381.7028" y1="110.2461" y2="110.2461"/>
    <polygon points="416.373,103.9961 415.123,104.6211 415.123,104.6211 413.873,105.8711 413.873,105.8711 413.248,107.1211 413.248,107.1211 412.623,108.9961 412.623,108.9961 412.623,112.1211 412.623,112.1211 413.248,113.9961 413.248,113.9961 413.873,115.2461 413.873,115.2461 415.123,116.4961 415.123,116.4961 416.373,117.1211 416.373,117.1211 418.873,117.1211 418.873,117.1211 420.123,116.4961 420.123,116.4961 421.373,115.2461 421.373,115.2461 421.998,113.9961 421.998,113.9961 422.623,112.1211 422.623,112.1211 422.623,108.9961 422.623,108.9961 421.998,107.1211 421.998,107.1211 421.373,105.8711 421.373,105.8711 420.123,104.6211 420.123,104.6211 418.873,103.9961 418.873,103.9961"/>
    <line x1="434.6457" x2="472.4409" y1="130.3937" y2="130.3937"/>
    <polygon points="454.1683,103.9961 452.9183,104.6211 452.9183,104.6211 451.6683,105.8711 451.6683,105.8711 451.0433,107.1211 451.0433,107.1211 450.4183,108.9961 450.4183,108.9961 450.4183,112.1211 450.4183,112.1211 451.0433,113.9961 451.0433,113.9961 451.6683,115.2461 451.6683,115.2461 452.9183,116.4961 452.9183,116.4961 454.1683,117.1211 454.1683,117.1211 456.6683,117.1211 456.6683,117.1211 457.9183,116.4961 457.9183,116.4961 459.1683,115.2461 459.1683,115.2461 459.7933,113.9961 459.7933,113.9961 460.4183,112.1211 460.4183,112.1211 460.4183,108.9961 460.4183,108.9961 459.7933,107.1211 459.7933,107.1211 459.1683,105.8711 459.1683,105.8711 457.9183,104.6211 457.9183,104.6211 456.6683,103.9961 456.6683,103.9961"/>
    <polyline points="497.9011,107.1211 497.2761,105.8711 497.2761,105.8711 496.0261,104.6211 496.0261,104.6211 494.7761,103.9961 494.7761,103.9961 492.2761,103.9961 492.2761,103.9961 491.0261,104.6211 491.0261,104.6211 489.7761,105.8711 489.7761,105.8711 489.1511,107.1211 489.1511,107.1211 488.5261,108.9961 488.5261,108.9961 488.5261,112.1211 488.5261,112.1211 489.1511,113.9961 489.1511,113.9961 489.7761,115.2461 489.7761,115.2461 491.0261,116.4961 491.0261,116.4961 492.2761,117.1211 492.2761,117.1211 494.7761,117.1211 494.7761,117.1211 496.0261,116.4961 496.0261,116.4961 497.2761,115.2461 497.2761,115.2461 497.9011,113.9961 497.9011,113.9961 497.9011,112.1211 497.9011,112.1211 494.7761,112.1211"/>
    <polyline points="565.0541,110.2461 570.6791,110.2461 570.6791,110.2461 572.5541,109.6211 572.5541,109.6211 573.1791,108.9961 573.1791,108.9961 573.8041,107.7461 573.8041,107.7461 573.8041,106.4961 573.8041,106.4961 573.1791,105.2461 573.1791,105.2461 572.5541,104.6211 572.5541,104.6211 570.6791,103.9961 570.6791,103.9961 565.0541,103.9961 565.0541,103.9961 565.0541,117.1211"/>
    <line x1="569.4291" x2="573.8041" y1="110.2461" y2="117.1211"/>
    <polygon points="18.8976,130.3937 18.8976,168.189 18.8976,168.189 18.8976,205.9843 18.8976,205.9843 56.6929,205.9843 56.6929,205.9843 56.6929,168.189 56.6929,168.189 56.6929,130.3937 56.6929,130.3937"/>
    <line x1="18.8976" x2="56.6929" y1="168.189" y2="168.189"/>
    <polygon points="23.2874,132.313 22.3499,132.6255 22.3499,132.6255 22.0374,133.2505 22.0374,133.2505 22.0374,133.8755 22.0374,133.8755 22.3499,134.5005 22.3499,134.5005 22.9749,134.813 22.9749,134.813 24.2249,135.1255 24.2249,135.1255 25.1624,135.438 25.1624,135.438 25.7874,136.063 25.7874,136.063 26.0999,136.688 26.0999,136.688 26.0999,137.6255 26.0999,137.6255 25.7874,138.2505 25.7874,138.2505 25.4749,138.563 25.4749,138.563 24.5374,138.8755 24.5374,138.8755 23.2874,138.8755 23.2874,138.8755 22.3499,138.563 22.3499,138.563 22.0374,138.2505 22.0374,138.2505 21.7249,137.6255 21.7249,137.6255 21.7249,136.688 21.7249,136.688 22.0374,136.063 22.0374,136.063 22.6624,135.438 22.6624,135.438 23.5999,135.1255 23.5999,135.1255 24.8499,134.813 24.8499,134.813 25.4749,134.5005 25.4749,134.5005 25.7874,133.8755 25.7874,133.8755 25.7874,133.2505 25.7874,133.2505 25.4749,132.6255 25.4749,132.6255 24.5374,132.313 24.5374,132.313"/>
    <polyline points="44.3578,141.7913 36.2328,141.7913 36.2328,141.7913 36.2328,154.9163"/>
    <line x1="36.2328" x2="41.2328" y1="148.0413" y2="148.0413"/>
    <polyline points="112.1358,141.7913 112.1358,154.9163 112.1358,154.9163 119.6358,154.9163"/>
    <polyline points="170.0787,130.3937 170.0787,168.189 170.0787,168.189 207.874,168.189"/>
    <polygon points="189.6014,141.7913 188.3514,142.4163 188.3514,142.4163 187.1014,143.6663 187.1014,143.6663 186.4764,144.9163 186.4764,144.9163 185.8514,146.7913 185.8514,146.7913 185.8514,149.9163 185.8514,149.9163 186.4764,151.7913 186.4764,151.7913 187.1014,153.0413 187.1014,153.0413 188.3514,154.2913 188.3514,154.2913 189.6014,154.9163 189.6014,154.9163 192.1014,154.9163 192.1014,154.9163 193.3514,154.2913 193.3514,154.2913 194.6014,153.0413 194.6014,153.0413 195.2264,151.7913 195.2264,151.7913 195.8514,149.9163 195.8514,149.9163 195.8514,146.7913 195.8514,146.7913 195.2264,144.9163 195.2264,144.9163 194.6014,143.6663 194.6014,143.6663 193.3514,142.4163 193.3514,142.4163 192.1014,141.7913 192.1014,141.7913"/>
    <polygon points="338.2825,141.7913 338.2825,154.9163 338.2825,154.9163 342.6575,154.9163 342.6575,154.9163 344.5325,154.2913 344.5325,154.2913 345.7825,153.0413 345.7825,153.0413 346.4075,151.7913 346.4075,151.7913 347.0325,149.9163 347.0325,149.9163 347.0325,146.7913 347.0325,146.7913 346.4075,144.9163 346.4075,144.9163 345.7825,143.6663 345.7825,143.6663 344.5325,142.4163 344.5325,142.4163 342.6575,141.7913 342.6575,141.7913"/>
    <polyline points="548.0315,130.3937 548.0315,168.189 548.0315,168.189 510.2362,168.189 510.2362,168.189 472.4409,168.189 472.4409,168.189 434.6457,168.189"/>
    <polyline points="661.4173,168.189 623.622,168.189 623.622,168.189 585.8268,168.189 585.8268,168.189 585.8268,205.9843 585.8268,205.9843 585.8268,243.7795 585.8268,243.7795 548.0315,243.7795 548.0315,243.7795 548.0315,205.9843 548.0315,205.9843 548.0315,168.189 548.0315,168.189 585.8268,168.189 585.8268,168.189 585.8268,130.3937 585.8268,130.3937 623.622,130.3937 623.622,130.3937 661.4173,130.3937 661.4173,130.3937 661.4173,168.189 661.4173,168.189 699.2126,168.189 699.2126,168.189 699.2126,130.3937 699.2126,130.3937 661.4173,130.3937"/>
    <polyline points="554.9213,134.5005 554.6088,135.438 554.6088,135.438 553.9838,136.063 553.9838,136.063 553.0463,136.3755 553.0463,136.3755 552.7338,136.3755 552.7338,136.3755 551.7963,136.063 551.7963,136.063 551.1713,135.438 551.1713,135.438 550.8588,134.5005 550.8588,134.5005 550.8588,134.188 550.8588,134.188 551.1713,133.2505 551.1713,133.2505 551.7963,132.6255 551.7963,132.6255 552.7338,132.313 552.7338,132.313 553.0463,132.313 553.0463,132.313 553.9838,132.6255 553.9838,132.6255 554.6088,133.2505 554.6088,133.2505 554.9213,134.5005 554.9213,134.5005 554.9213,136.063 554.9213,136.063 554.6088,137.6255 554.6088,137.6255 553.9838,138.563 553.9838,138.563 553.0463,138.8755 553.0463,138.8755 552.4213,138.8755 552.4213,138.8755 551.4838,138.563 551.4838,138.563 551.1713,137.938"/>
    <line x1="565.0541" x2="565.0541" y1="141.7913" y2="154.9163"/>
    <line x1="573.8041" x2="565.0541" y1="141.7913" y2="150.5413"/>
    <line x1="568.1791" x2="573.8041" y1="147.4163" y2="154.9163"/>
    <line x1="623.622" x2="623.622" y1="168.189" y2="130.3937"/>
    <line x1="607.2244" x2="607.2244" y1="141.7913" y2="154.9163"/>
    <polyline points="649.0822,141.7913 640.9572,141.7913 640.9572,141.7913 640.9572,154.9163 640.9572,154.9163 649.0822,154.9163"/>
    <line x1="640.9572" x2="645.9572" y1="148.0413" y2="148.0413"/>
    <polyline points="687.815,154.9163 687.815,141.7913 687.815,141.7913 682.815,154.9163 682.815,154.9163 677.815,141.7913 677.815,141.7913 677.815,154.9163"/>
    <polyline points="699.2126,168.189 737.0079,168.189 737.0079,168.189 774.8031,168.189 774.8031,168.189 774.8031,130.3937 774.8031,130.3937 737.0079,130.3937 737.0079,130.3937 699.2126,130.3937"/>
    <line x1="737.0079" x2="737.0079" y1="168.189" y2="130.3937"/>
    <polyline points="724.6727,141.7913 716.5477,141.7913 716.5477,141.7913 716.5477,154.9163 716.5477,154.9163 724.6727,154.9163"/>
    <line x1="716.5477" x2="721.5477" y1="148.0413" y2="148.0413"/>
    <polyline points="762.7805,141.7913 762.7805,154.9163 762.7805,154.9163 754.0305,141.7913 754.0305,141.7913 754.0305,154.9163"/>
    <line x1="40.2953" x2="40.2953" y1="179.5866" y2="192.7116"/>
    <polyline points="94.4882,168.189 94.4882,205.9843 94.4882,205.9843 132.2835,205.9843 132.2835,205.9843 132.2835,243.7795 132.2835,243.7795 170.0787,243.7795 170.0787,243.7795 170.0787,205.9843 170.0787,205.9843 170.0787,168.189"/>
    <line x1="115.8858" x2="115.8858" y1="179.5866" y2="192.7116"/>
    <polyline points="195.5389,179.5866 187.4139,179.5866 187.4139,179.5866 187.4139,192.7116 187.4139,192.7116 195.5389,192.7116"/>
    <line x1="187.4139" x2="192.4139" y1="185.8366" y2="185.8366"/>
    <line x1="283.4646" x2="283.4646" y1="205.9843" y2="168.189"/>
    <polyline points="249.4341,171.3583 250.0591,171.0458 250.0591,171.0458 250.9966,170.1083 250.9966,170.1083 250.9966,176.6708"/>
    <polygon points="256.6216,170.1083 255.6841,170.4208 255.6841,170.4208 255.0591,171.3583 255.0591,171.3583 254.7466,172.9208 254.7466,172.9208 254.7466,173.8583 254.7466,173.8583 255.0591,175.4208 255.0591,175.4208 255.6841,176.3583 255.6841,176.3583 256.6216,176.6708 256.6216,176.6708 257.2466,176.6708 257.2466,176.6708 258.1841,176.3583 258.1841,176.3583 258.8091,175.4208 258.8091,175.4208 259.1216,173.8583 259.1216,173.8583 259.1216,172.9208 259.1216,172.9208 258.8091,171.3583 258.8091,171.3583 258.1841,170.4208 258.1841,170.4208 257.2466,170.1083 257.2466,170.1083"/>
    <line x1="262.6919" x2="262.6919" y1="179.5866" y2="192.7116"/>
    <line x1="271.4419" x2="262.6919" y1="179.5866" y2="188.3366"/>
    <line x1="265.8169" x2="271.4419" y1="185.2116" y2="192.7116"/>
    <polyline points="301.1122,179.5866 301.1122,192.7116 301.1122,192.7116 308.6122,192.7116"/>
    <polyline points="345.7825,192.7116 340.7825,179.5866 340.7825,179.5866 335.7825,192.7116"/>
    <line x1="337.6575" x2="343.9075" y1="188.3366" y2="188.3366"/>
    <polyline points="373.5778,179.5866 378.5778,192.7116 378.5778,192.7116 383.5778,179.5866"/>
    <polyline points="422.3105,179.5866 414.1855,179.5866 414.1855,179.5866 414.1855,192.7116 414.1855,192.7116 422.3105,192.7116"/>
    <line x1="414.1855" x2="419.1855" y1="185.8366" y2="185.8366"/>
    <polyline points="434.6457,205.9843 472.4409,205.9843 472.4409,205.9843 472.4409,243.7795 472.4409,243.7795 510.2362,243.7795 510.2362,243.7795 510.2362,205.9843 510.2362,205.9843 510.2362,168.189"/>
    <polyline points="585.8268,205.9843 548.0315,205.9843 548.0315,205.9843 510.2362,205.9843 510.2362,205.9843 472.4409,205.9843 472.4409,205.9843 472.4409,168.189"/>
    <polyline points="451.6683,185.8366 457.2933,185.8366 457.2933,185.8366 459.1683,185.2116 459.1683,185.2116 459.7933,184.5866 459.7933,184.5866 460.4183,183.3366 460.4183,183.3366 460.4183,182.0866 460.4183,182.0866 459.7933,180.8366 459.7933,180.8366 459.1683,180.2116 459.1683,180.2116 457.2933,179.5866 457.2933,179.5866 451.6683,179.5866 451.6683,179.5866 451.6683,192.7116"/>
    <line x1="456.0433" x2="460.4183" y1="185.8366" y2="192.7116"/>
    <polyline points="476.2057,171.3583 476.8307,171.0458 476.8307,171.0458 477.7682,170.1083 477.7682,170.1083 477.7682,176.6708"/>
    <polyline points="482.4557,171.3583 483.0807,171.0458 483.0807,171.0458 484.0182,170.1083 484.0182,170.1083 484.0182,176.6708"/>
    <line x1="491.9636" x2="491.9636" y1="179.5866" y2="192.7116"/>
    <line x1="487.5886" x2="496.3386" y1="179.5866" y2="179.5866"/>
    <polyline points="533.5089,179.5866 533.5089,189.5866 533.5089,189.5866 532.8839,191.4616 532.8839,191.4616 532.2589,192.0866 532.2589,192.0866 531.0089,192.7116 531.0089,192.7116 529.7589,192.7116 529.7589,192.7116 528.5089,192.0866 528.5089,192.0866 527.8839,191.4616 527.8839,191.4616 527.2589,189.5866 527.2589,189.5866 527.2589,188.3366"/>
    <polyline points="573.4916,179.5866 565.3666,179.5866 565.3666,179.5866 565.3666,192.7116 565.3666,192.7116 573.4916,192.7116"/>
    <line x1="565.3666" x2="570.3666" y1="185.8366" y2="185.8366"/>
    <polyline points="18.8976,205.9843 18.8976,243.7795 18.8976,243.7795 56.6929,243.7795 56.6929,243.7795 56.6929,205.9843 56.6929,205.9843 94.4882,205.9843 94.4882,205.9843 94.4882,243.7795 94.4882,243.7795 132.2835,243.7795 132.2835,243.7795 132.2835,281.5748 132.2835,281.5748 132.2835,319.3701 132.2835,319.3701 170.0787,319.3701 170.0787,319.3701 207.874,319.3701 207.874,319.3701 207.874,281.5748 207.874,281.5748 170.0787,281.5748 170.0787,281.5748 132.2835,281.5748 132.2835,281.5748 94.4882,281.5748 94.4882,281.5748 56.6929,281.5748 56.6929,281.5748 56.6929,319.3701 56.6929,319.3701 94.4882,319.3701 94.4882,319.3701 94.4882,357.1654 94.4882,357.1654 132.2835,357.1654 132.2835,357.1654 132.2835,319.3701 132.2835,319.3701 94.4882,319.3701 94.4882,319.3701 94.4882,281.5748 94.4882,281.5748 94.4882,243.7795 94.4882,243.7795 56.6929,243.7795 56.6929,243.7795 56.6929,281.5748 56.6929,281.5748 18.8976,281.5748 18.8976,281.5748 18.8976,243.7795"/>
    <polyline points="22.6624,209.1535 23.2874,208.841 23.2874,208.841 24.2249,207.9035 24.2249,207.9035 24.2249,214.466"/>
    <polyline points="28.2874,209.466 28.2874,209.1535 28.2874,209.1535 28.5999,208.5285 28.5999,208.5285 28.9124,208.216 28.9124,208.216 29.5374,207.9035 29.5374,207.9035 30.7874,207.9035 30.7874,207.9035 31.4124,208.216 31.4124,208.216 31.7249,208.5285 31.7249,208.5285 32.0374,209.1535 32.0374,209.1535 32.0374,209.7785 32.0374,209.7785 31.7249,210.4035 31.7249,210.4035 31.0999,211.341 31.0999,211.341 27.9749,214.466 27.9749,214.466 32.3499,214.466"/>
    <polyline points="36.5453,217.3819 36.5453,230.5069 36.5453,230.5069 44.0453,230.5069"/>
    <polyline points="81.2156,230.5069 76.2156,217.3819 76.2156,217.3819 71.2156,230.5069"/>
    <line x1="73.0906" x2="79.3406" y1="226.1319" y2="226.1319"/>
    <line x1="111.5108" x2="111.5108" y1="217.3819" y2="230.5069"/>
    <line x1="120.2608" x2="111.5108" y1="217.3819" y2="226.1319"/>
    <line x1="114.6358" x2="120.2608" y1="223.0069" y2="230.5069"/>
    <polyline points="157.7436,217.3819 149.6186,217.3819 149.6186,217.3819 149.6186,230.5069 149.6186,230.5069 157.7436,230.5069"/>
    <line x1="149.6186" x2="154.6186" y1="223.6319" y2="223.6319"/>
    <polyline points="170.0787,243.7795 207.874,243.7795 207.874,243.7795 207.874,281.5748 207.874,281.5748 245.6693,281.5748 245.6693,281.5748 245.6693,243.7795"/>
    <polyline points="195.8514,217.3819 195.8514,230.5069 195.8514,230.5069 187.1014,217.3819 187.1014,217.3819 187.1014,230.5069"/>
    <polyline points="211.6388,209.1535 212.2638,208.841 212.2638,208.841 213.2013,207.9035 213.2013,207.9035 213.2013,214.466"/>
    <polyline points="217.5763,207.9035 221.0138,207.9035 221.0138,207.9035 219.1388,210.4035 219.1388,210.4035 220.0763,210.4035 220.0763,210.4035 220.7013,210.716 220.7013,210.716 221.0138,211.0285 221.0138,211.0285 221.3263,211.966 221.3263,211.966 221.3263,212.591 221.3263,212.591 221.0138,213.5285 221.0138,213.5285 220.3888,214.1535 220.3888,214.1535 219.4513,214.466 219.4513,214.466 218.5138,214.466 218.5138,214.466 217.5763,214.1535 217.5763,214.1535 217.2638,213.841 217.2638,213.841 216.9513,213.216"/>
    <polyline points="233.0217,219.2569 231.7717,218.0069 231.7717,218.0069 229.8967,217.3819 229.8967,217.3819 227.3967,217.3819 227.3967,217.3819 225.5217,218.0069 225.5217,218.0069 224.2717,219.2569 224.2717,219.2569 224.2717,220.5069 224.2717,220.5069 224.8967,221.7569 224.8967,221.7569 225.5217,222.3819 225.5217,222.3819 226.7717,223.0069 226.7717,223.0069 230.5217,224.2569 230.5217,224.2569 231.7717,224.8819 231.7717,224.8819 232.3967,225.5069 232.3967,225.5069 233.0217,226.7569 233.0217,226.7569 233.0217,228.6319 233.0217,228.6319 231.7717,229.8819 231.7717,229.8819 229.8967,230.5069 229.8967,230.5069 227.3967,230.5069 227.3967,230.5069 225.5217,229.8819 225.5217,229.8819 224.2717,228.6319"/>
    <polyline points="338.2825,223.6319 343.9075,223.6319 343.9075,223.6319 345.7825,223.0069 345.7825,223.0069 346.4075,222.3819 346.4075,222.3819 347.0325,221.1319 347.0325,221.1319 347.0325,219.8819 347.0325,219.8819 346.4075,218.6319 346.4075,218.6319 345.7825,218.0069 345.7825,218.0069 343.9075,217.3819 343.9075,217.3819 338.2825,217.3819 338.2825,217.3819 338.2825,230.5069"/>
    <line x1="342.6575" x2="347.0325" y1="223.6319" y2="230.5069"/>
    <polyline points="489.4636,223.6319 495.0886,223.6319 495.0886,223.6319 496.9636,223.0069 496.9636,223.0069 497.5886,222.3819 497.5886,222.3819 498.2136,221.1319 498.2136,221.1319 498.2136,219.8819 498.2136,219.8819 497.5886,218.6319 497.5886,218.6319 496.9636,218.0069 496.9636,218.0069 495.0886,217.3819 495.0886,217.3819 489.4636,217.3819 489.4636,217.3819 489.4636,230.5069"/>
    <line x1="493.8386" x2="498.2136" y1="223.6319" y2="230.5069"/>
    <polyline points="565.0541,223.6319 570.6791,223.6319 570.6791,223.6319 572.5541,223.0069 572.5541,223.0069 573.1791,222.3819 573.1791,222.3819 573.8041,221.1319 573.8041,221.1319 573.8041,219.8819 573.8041,219.8819 573.1791,218.6319 573.1791,218.6319 572.5541,218.0069 572.5541,218.0069 570.6791,217.3819 570.6791,217.3819 565.0541,217.3819 565.0541,217.3819 565.0541,230.5069"/>
    <line x1="569.4291" x2="573.8041" y1="223.6319" y2="230.5069"/>
    <polygon points="699.2126,205.9843 699.2126,243.7795 699.2126,243.7795 737.0079,243.7795 737.0079,243.7795 737.0079,205.9843 737.0079,205.9843"/>
    <polyline points="702.9774,209.1535 703.6024,208.841 703.6024,208.841 704.5399,207.9035 704.5399,207.9035 704.5399,214.466"/>
    <polyline points="711.4149,214.466 711.4149,207.9035 711.4149,207.9035 708.2899,212.2785 708.2899,212.2785 712.9774,212.2785"/>
    <polyline points="716.2352,224.2569 721.8602,224.2569 721.8602,224.2569 723.7352,223.6319 723.7352,223.6319 724.3602,223.0069 724.3602,223.0069 724.9852,221.7569 724.9852,221.7569 724.9852,219.8819 724.9852,219.8819 724.3602,218.6319 724.3602,218.6319 723.7352,218.0069 723.7352,218.0069 721.8602,217.3819 721.8602,217.3819 716.2352,217.3819 716.2352,217.3819 716.2352,230.5069"/>
    <polyline points="44.3578,255.1772 36.2328,255.1772 36.2328,255.1772 36.2328,268.3022 36.2328,268.3022 44.3578,268.3022"/>
    <line x1="36.2328" x2="41.2328" y1="261.4272" y2="261.4272"/>
    <line x1="111.5108" x2="111.5108" y1="255.1772" y2="268.3022"/>
    <line x1="120.2608" x2="111.5108" y1="255.1772" y2="263.9272"/>
    <line x1="114.6358" x2="120.2608" y1="260.8022" y2="268.3022"/>
    <line x1="227.3967" x2="227.3967" y1="255.1772" y2="268.3022"/>
    <line x1="223.0217" x2="231.7717" y1="255.1772" y2="255.1772"/>
    <polyline points="321.2598,243.7795 321.2598,281.5748 321.2598,281.5748 359.0551,281.5748 359.0551,281.5748 359.0551,243.7795"/>
    <line x1="342.6575" x2="342.6575" y1="255.1772" y2="268.3022"/>
    <polygon points="434.6457,243.7795 434.6457,281.5748 434.6457,281.5748 472.4409,281.5748 472.4409,281.5748 472.4409,243.7795 472.4409,243.7795"/>
    <polyline points="438.4104,246.9488 439.0354,246.6363 439.0354,246.6363 439.9729,245.6988 439.9729,245.6988 439.9729,252.2613"/>
    <polyline points="447.4729,245.6988 444.3479,245.6988 444.3479,245.6988 444.0354,248.5113 444.0354,248.5113 444.3479,248.1988 444.3479,248.1988 445.2854,247.8863 445.2854,247.8863 446.2229,247.8863 446.2229,247.8863 447.1604,248.1988 447.1604,248.1988 447.7854,248.8238 447.7854,248.8238 448.0979,249.7613 448.0979,249.7613 448.0979,250.3863 448.0979,250.3863 447.7854,251.3238 447.7854,251.3238 447.1604,251.9488 447.1604,251.9488 446.2229,252.2613 446.2229,252.2613 445.2854,252.2613 445.2854,252.2613 444.3479,251.9488 444.3479,251.9488 444.0354,251.6363 444.0354,251.6363 443.7229,251.0113"/>
    <polyline points="451.6683,261.4272 457.2933,261.4272 457.2933,261.4272 459.1683,260.8022 459.1683,260.8022 459.7933,260.1772 459.7933,260.1772 460.4183,258.9272 460.4183,258.9272 460.4183,257.6772 460.4183,257.6772 459.7933,256.4272 459.7933,256.4272 459.1683,255.8022 459.1683,255.8022 457.2933,255.1772 457.2933,255.1772 451.6683,255.1772 451.6683,255.1772 451.6683,268.3022"/>
    <line x1="456.0433" x2="460.4183" y1="261.4272" y2="268.3022"/>
    <polyline points="510.2362,319.3701 510.2362,357.1654 510.2362,357.1654 472.4409,357.1654 472.4409,357.1654 472.4409,319.3701 472.4409,319.3701 472.4409,281.5748 472.4409,281.5748 510.2362,281.5748 510.2362,281.5748 548.0315,281.5748 548.0315,281.5748 548.0315,243.7795 548.0315,243.7795 510.2362,243.7795 510.2362,243.7795 510.2362,281.5748 510.2362,281.5748 510.2362,319.3701 510.2362,319.3701 472.4409,319.3701 472.4409,319.3701 434.6457,319.3701 434.6457,319.3701 396.8504,319.3701 396.8504,319.3701 396.8504,281.5748 396.8504,281.5748 359.0551,281.5748 359.0551,281.5748 359.0551,319.3701 359.0551,319.3701 396.8504,319.3701 396.8504,319.3701 396.8504,357.1654 396.8504,357.1654 434.6457,357.1654 434.6457,357.1654 434.6457,319.3701"/>
    <polyline points="497.9011,255.1772 489.7761,255.1772 489.7761,255.1772 489.7761,268.3022 489.7761,268.3022 497.9011,268.3022"/>
    <line x1="489.7761" x2="494.7761" y1="261.4272" y2="261.4272"/>
    <polyline points="535.6964,258.3022 535.0714,257.0522 535.0714,257.0522 533.8214,255.8022 533.8214,255.8022 532.5714,255.1772 532.5714,255.1772 530.0714,255.1772 530.0714,255.1772 528.8214,255.8022 528.8214,255.8022 527.5714,257.0522 527.5714,257.0522 526.9464,258.3022 526.9464,258.3022 526.3214,260.1772 526.3214,260.1772 526.3214,263.3022 526.3214,263.3022 526.9464,265.1772 526.9464,265.1772 527.5714,266.4272 527.5714,266.4272 528.8214,267.6772 528.8214,267.6772 530.0714,268.3022 530.0714,268.3022 532.5714,268.3022 532.5714,268.3022 533.8214,267.6772 533.8214,267.6772 535.0714,266.4272 535.0714,266.4272 535.6964,265.1772 535.6964,265.1772 535.6964,263.3022 535.6964,263.3022 532.5714,263.3022"/>
    <polyline points="623.622,281.5748 585.8268,281.5748 585.8268,281.5748 585.8268,319.3701 585.8268,319.3701 548.0315,319.3701 548.0315,319.3701 548.0315,281.5748 548.0315,281.5748 585.8268,281.5748 585.8268,281.5748 585.8268,243.7795 585.8268,243.7795 623.622,243.7795 623.622,243.7795 623.622,281.5748 623.622,281.5748 661.4173,281.5748 661.4173,281.5748 699.2126,281.5748 699.2126,281.5748 699.2126,243.7795 699.2126,243.7795 661.4173,243.7795 661.4173,243.7795 623.622,243.7795"/>
    <polyline points="573.4916,255.1772 565.3666,255.1772 565.3666,255.1772 565.3666,268.3022 565.3666,268.3022 573.4916,268.3022"/>
    <line x1="565.3666" x2="570.3666" y1="261.4272" y2="261.4272"/>
    <polyline points="611.5994,255.1772 611.5994,268.3022 611.5994,268.3022 602.8494,255.1772 602.8494,255.1772 602.8494,268.3022"/>
    <line x1="661.4173" x2="661.4173" y1="281.5748" y2="243.7795"/>
    <polyline points="646.2697,261.4272 648.1447,260.8022 648.1447,260.8022 648.7697,260.1772 648.7697,260.1772 649.3947,258.9272 649.3947,258.9272 649.3947,257.6772 649.3947,257.6772 648.7697,256.4272 648.7697,256.4272 648.1447,255.8022 648.1447,255.8022 646.2697,255.1772 646.2697,255.1772 640.6447,255.1772 640.6447,255.1772 640.6447,268.3022 640.6447,268.3022 646.2697,268.3022 646.2697,268.3022 648.1447,267.6772 648.1447,267.6772 648.7697,267.0522 648.7697,267.0522 649.3947,265.8022 649.3947,265.8022 649.3947,263.9272 649.3947,263.9272 648.7697,262.6772 648.7697,262.6772 648.1447,262.0522 648.1447,262.0522 646.2697,261.4272 646.2697,261.4272 640.6447,261.4272"/>
    <polyline points="678.44,255.1772 678.44,264.5522 678.44,264.5522 679.065,266.4272 679.065,266.4272 680.315,267.6772 680.315,267.6772 682.19,268.3022 682.19,268.3022 683.44,268.3022 683.44,268.3022 685.315,267.6772 685.315,267.6772 686.565,266.4272 686.565,266.4272 687.19,264.5522 687.19,264.5522 687.19,255.1772"/>
    <polyline points="737.0079,281.5748 737.0079,319.3701 737.0079,319.3701 699.2126,319.3701 699.2126,319.3701 699.2126,281.5748 699.2126,281.5748 737.0079,281.5748 737.0079,281.5748 737.0079,243.7795"/>
    <line x1="720.6102" x2="720.6102" y1="255.1772" y2="268.3022"/>
    <polyline points="60.4577,284.7441 61.0827,284.4316 61.0827,284.4316 62.0202,283.4941 62.0202,283.4941 62.0202,290.0566"/>
    <polyline points="69.8327,284.4316 69.5202,283.8066 69.5202,283.8066 68.5827,283.4941 68.5827,283.4941 67.9577,283.4941 67.9577,283.4941 67.0202,283.8066 67.0202,283.8066 66.3952,284.7441 66.3952,284.7441 66.0827,286.3066 66.0827,286.3066 66.0827,287.8691 66.0827,287.8691 66.3952,289.1191 66.3952,289.1191 67.0202,289.7441 67.0202,289.7441 67.9577,290.0566 67.9577,290.0566 68.2702,290.0566 68.2702,290.0566 69.2077,289.7441 69.2077,289.7441 69.8327,289.1191 69.8327,289.1191 70.1452,288.1816 70.1452,288.1816 70.1452,287.8691 70.1452,287.8691 69.8327,286.9316 69.8327,286.9316 69.2077,286.3066 69.2077,286.3066 68.2702,285.9941 68.2702,285.9941 67.9577,285.9941 67.9577,285.9941 67.0202,286.3066 67.0202,286.3066 66.3952,286.9316 66.3952,286.9316 66.0827,287.8691"/>
    <polyline points="73.7156,299.2224 79.3406,299.2224 79.3406,299.2224 81.2156,298.5974 81.2156,298.5974 81.8406,297.9724 81.8406,297.9724 82.4656,296.7224 82.4656,296.7224 82.4656,295.4724 82.4656,295.4724 81.8406,294.2224 81.8406,294.2224 81.2156,293.5974 81.2156,293.5974 79.3406,292.9724 79.3406,292.9724 73.7156,292.9724 73.7156,292.9724 73.7156,306.0974"/>
    <line x1="78.0906" x2="82.4656" y1="299.2224" y2="306.0974"/>
    <polyline points="119.9483,292.9724 111.8233,292.9724 111.8233,292.9724 111.8233,306.0974 111.8233,306.0974 119.9483,306.0974"/>
    <line x1="111.8233" x2="116.8233" y1="299.2224" y2="299.2224"/>
    <line x1="170.0787" x2="170.0787" y1="319.3701" y2="281.5748"/>
    <line x1="149.3061" x2="149.3061" y1="292.9724" y2="306.0974"/>
    <line x1="158.0561" x2="149.3061" y1="292.9724" y2="301.7224"/>
    <line x1="152.4311" x2="158.0561" y1="298.5974" y2="306.0974"/>
    <line x1="187.1014" x2="187.1014" y1="292.9724" y2="306.0974"/>
    <line x1="195.8514" x2="187.1014" y1="292.9724" y2="301.7224"/>
    <line x1="190.2264" x2="195.8514" y1="298.5974" y2="306.0974"/>
    <polyline points="283.4646,319.3701 245.6693,319.3701 245.6693,319.3701 245.6693,357.1654 245.6693,357.1654 207.874,357.1654 207.874,357.1654 207.874,319.3701 207.874,319.3701 245.6693,319.3701 245.6693,319.3701 245.6693,281.5748 245.6693,281.5748 283.4646,281.5748 283.4646,281.5748 321.2598,281.5748 321.2598,281.5748 321.2598,319.3701 321.2598,319.3701 321.2598,357.1654 321.2598,357.1654 359.0551,357.1654 359.0551,357.1654 359.0551,319.3701 359.0551,319.3701 321.2598,319.3701 321.2598,319.3701 283.4646,319.3701 283.4646,319.3701 283.4646,281.5748"/>
    <polyline points="233.3342,292.9724 225.2092,292.9724 225.2092,292.9724 225.2092,306.0974 225.2092,306.0974 233.3342,306.0974"/>
    <line x1="225.2092" x2="230.2092" y1="299.2224" y2="299.2224"/>
    <polyline points="262.6919,299.2224 268.3169,299.2224 268.3169,299.2224 270.1919,298.5974 270.1919,298.5974 270.8169,297.9724 270.8169,297.9724 271.4419,296.7224 271.4419,296.7224 271.4419,295.4724 271.4419,295.4724 270.8169,294.2224 270.8169,294.2224 270.1919,293.5974 270.1919,293.5974 268.3169,292.9724 268.3169,292.9724 262.6919,292.9724 262.6919,292.9724 262.6919,306.0974"/>
    <line x1="267.0669" x2="271.4419" y1="299.2224" y2="306.0974"/>
    <line x1="302.9872" x2="302.9872" y1="292.9724" y2="306.0974"/>
    <line x1="298.6122" x2="307.3622" y1="292.9724" y2="292.9724"/>
    <polyline points="344.5325,292.9724 344.5325,302.9724 344.5325,302.9724 343.9075,304.8474 343.9075,304.8474 343.2825,305.4724 343.2825,305.4724 342.0325,306.0974 342.0325,306.0974 340.7825,306.0974 340.7825,306.0974 339.5325,305.4724 339.5325,305.4724 338.9075,304.8474 338.9075,304.8474 338.2825,302.9724 338.2825,302.9724 338.2825,301.7224"/>
    <polyline points="384.5153,292.9724 376.3903,292.9724 376.3903,292.9724 376.3903,306.0974 376.3903,306.0974 384.5153,306.0974"/>
    <line x1="376.3903" x2="381.3903" y1="299.2224" y2="299.2224"/>
    <line x1="493.8386" x2="493.8386" y1="292.9724" y2="306.0974"/>
    <polyline points="573.8041,292.9724 573.8041,306.0974 573.8041,306.0974 565.0541,292.9724 565.0541,292.9724 565.0541,306.0974"/>
    <polyline points="716.2352,299.8474 721.8602,299.8474 721.8602,299.8474 723.7352,299.2224 723.7352,299.2224 724.3602,298.5974 724.3602,298.5974 724.9852,297.3474 724.9852,297.3474 724.9852,295.4724 724.9852,295.4724 724.3602,294.2224 724.3602,294.2224 723.7352,293.5974 723.7352,293.5974 721.8602,292.9724 721.8602,292.9724 716.2352,292.9724 716.2352,292.9724 716.2352,306.0974"/>
    <polyline points="120.2608,330.7677 120.2608,343.8927 120.2608,343.8927 111.5108,330.7677 111.5108,330.7677 111.5108,343.8927"/>
    <polyline points="224.8967,337.0177 230.5217,337.0177 230.5217,337.0177 232.3967,336.3927 232.3967,336.3927 233.0217,335.7677 233.0217,335.7677 233.6467,334.5177 233.6467,334.5177 233.6467,333.2677 233.6467,333.2677 233.0217,332.0177 233.0217,332.0177 232.3967,331.3927 232.3967,331.3927 230.5217,330.7677 230.5217,330.7677 224.8967,330.7677 224.8967,330.7677 224.8967,343.8927"/>
    <line x1="229.2717" x2="233.6467" y1="337.0177" y2="343.8927"/>
    <polyline points="347.0325,330.7677 347.0325,343.8927 347.0325,343.8927 338.2825,330.7677 338.2825,330.7677 338.2825,343.8927"/>
    <polyline points="400.6152,322.5394 401.2402,322.2269 401.2402,322.2269 402.1777,321.2894 402.1777,321.2894 402.1777,327.8519"/>
    <polyline points="405.9277,321.2894 410.3027,321.2894 410.3027,321.2894 407.1777,327.8519"/>
    <polyline points="413.248,330.7677 421.998,330.7677 421.998,330.7677 413.248,343.8927 413.248,343.8927 421.998,343.8927"/>
    <line x1="434.6457" x2="472.4409" y1="357.1654" y2="357.1654"/>
    <polygon points="454.1683,330.7677 452.9183,331.3927 452.9183,331.3927 451.6683,332.6427 451.6683,332.6427 451.0433,333.8927 451.0433,333.8927 450.4183,335.7677 450.4183,335.7677 450.4183,338.8927 450.4183,338.8927 451.0433,340.7677 451.0433,340.7677 451.6683,342.0177 451.6683,342.0177 452.9183,343.2677 452.9183,343.2677 454.1683,343.8927 454.1683,343.8927 456.6683,343.8927 456.6683,343.8927 457.9183,343.2677 457.9183,343.2677 459.1683,342.0177 459.1683,342.0177 459.7933,340.7677 459.7933,340.7677 460.4183,338.8927 460.4183,338.8927 460.4183,335.7677 460.4183,335.7677 459.7933,333.8927 459.7933,333.8927 459.1683,332.6427 459.1683,332.6427 457.9183,331.3927 457.9183,331.3927 456.6683,330.7677 456.6683,330.7677"/>
    <polyline points="498.2136,330.7677 498.2136,343.8927 498.2136,343.8927 489.4636,330.7677 489.4636,330.7677 489.4636,343.8927"/>
    <polyline points="699.2126,319.3701 699.2126,357.1654 699.2126,357.1654 737.0079,357.1654 737.0079,357.1654 737.0079,319.3701"/>
    <line x1="720.6102" x2="720.6102" y1="330.7677" y2="343.8927"/>
  </g>
</svg>
