<?xml version="1.0" encoding="utf-8" ?>
<svg xmlns="http://www.w3.org/2000/svg" xmlns:cc="http://creativecommons.org/ns" xmlns:dc="http://purl.org/dc/elements/1.1/" xmlns:ev="http://www.w3.org/2001/xml-events" xmlns:inkscape="http://www.inkscape.org/namespaces/inkscape" xmlns:rdf="http://www.w3.org/1999/02/22-rdf-syntax-ns" xmlns:sodipodi="http://sodipodi.sourceforge.net/DTD/sodipodi-0.dtd" xmlns:xlink="http://www.w3.org/1999/xlink" baseProfile="tiny" height="9.9cm" version="1.2" viewBox="0 0 793.7007874015749 374.1732283464567" width="21.0cm">
  <metadata>
    <rdf:RDF>
      <cc:Work>
        <dc:format>image/svg+xml</dc:format>
        <dc:source>vpype eval 'cell=10;width=210;height=99' eval 'nCols=20;nRows=9' eval 'cells=[3,4,5,6,9,10,11,13,14,15,16,17,18,19,21,25,31,35,37,39,40,41,42,43,45,47,48,49,50,51,52,53,54,55,59,61,65,71,75,79,81,85,88,89,90,91,92,95,99,100,101,102,103,104,105,106,108,111,115,117,119,121,125,128,131,135,137,139,141,144,145,146,147,148,149,150,151,152,154,155,156,157,165,168,171,177]' eval 'chars=[&quot;K&quot;,&quot;O&quot;,&quot;U&quot;,&quot;S&quot;,&quot;T&quot;,&quot;O&quot;,&quot;M&quot;,&quot;O&quot;,&quot;O&quot;,&quot;R&quot;,&quot;T&quot;,&quot;J&quot;,&quot;E&quot;,&quot;S&quot;,&quot;P&quot;,&quot;I&quot;,&quot;A&quot;,&quot;E&quot;,&quot;A&quot;,&quot;T&quot;,&quot;L&quot;,&quot;I&quot;,&quot;F&quot;,&quot;T&quot;,&quot;T&quot;,&quot;R&quot;,&quot;E&quot;,&quot;G&quot;,&quot;E&quot;,&quot;N&quot;,&quot;B&quot;,&quot;O&quot;,&quot;O&quot;,&quot;G&quot;,&quot;E&quot;,&quot;N&quot;,&quot;L&quot;,&quot;D&quot;,&quot;E&quot;,&quot;F&quot;,&quot;K&quot;,&quot;I&quot;,&quot;G&quot;,&quot;R&quot;,&quot;A&quot;,&quot;A&quot;,&quot;T&quot;,&quot;N&quot;,&quot;A&quot;,&quot;V&quot;,&quot;E&quot;,&quot;L&quot;,&quot;L&quot;,&quot;E&quot;,&quot;K&quot;,&quot;E&quot;,&quot;R&quot;,&quot;R&quot;,&quot;B&quot;,&quot;A&quot;,&quot;A&quot;,&quot;R&quot;,&quot;K&quot;,&quot;O&quot;,&quot;I&quot;,&quot;U&quot;,&quot;R&quot;,&quot;N&quot;,&quot;S&quot;,&quot;R&quot;,&quot;E&quot;,&quot;K&quot;,&quot;K&quot;,&quot;E&quot;,&quot;R&quot;,&quot;T&quot;,&quot;J&quot;,&quot;E&quot;,&quot;P&quot;,&quot;I&quot;,&quot;P&quot;,&quot;I&quot;,&quot;N&quot;,&quot;N&quot;,&quot;N&quot;,&quot;A&quot;]' eval 'numbers=[3,5,9,11,13,15,17,19,21,40,47,88,100,117,144,154]' eval counter=1 eval charIndex=0 begin grid -o '%cell*mm%' '%cell*mm%' %nCols% %nRows% eval '%isCell=_i in cells%' eval '%number=_i in numbers%' eval '%size=10 if isCell else 0%' rect 0 0 '%size*mm%' '%size*mm%' text -s 10 -p 0.5mm 1.5mm '%counter if number else '&quot;'&quot;''&quot;'&quot;'%' text -s 20 -p 5mm 5mm -a center '%chars[charIndex] if isCell else '&quot;'&quot;''&quot;'&quot;'%' eval '%if number: counter+=1 %' eval '%if isCell: charIndex+=1 %' end splitall deduplicate linemerge --tolerance 0.1mm write -m none --page-size '%width*mm%x%height*mm%' --center ./svgs/solution/27f969.svg
</dc:source>
        <dc:date>2023-12-23T22:30:06.336956</dc:date>
      </cc:Work>
    </rdf:RDF>
  </metadata>
  <defs/>
  <g fill="none" id="layer1" inkscape:groupmode="layer" inkscape:label="1" stroke="#000000" style="display:inline">
    <polygon points="132.2835,17.0079 132.2835,54.8031 132.2835,54.8031 170.0787,54.8031 170.0787,54.8031 207.874,54.8031 207.874,54.8031 207.874,17.0079 207.874,17.0079 170.0787,17.0079 170.0787,17.0079"/>
    <line x1="170.0787" x2="170.0787" y1="54.8031" y2="17.0079"/>
    <polyline points="136.0482,20.1772 136.6732,19.8647 136.6732,19.8647 137.6107,18.9272 137.6107,18.9272 137.6107,25.4897"/>
    <line x1="149.3061" x2="149.3061" y1="28.4055" y2="41.5305"/>
    <line x1="158.0561" x2="149.3061" y1="28.4055" y2="37.1555"/>
    <line x1="152.4311" x2="158.0561" y1="34.0305" y2="41.5305"/>
    <polygon points="189.6014,28.4055 188.3514,29.0305 188.3514,29.0305 187.1014,30.2805 187.1014,30.2805 186.4764,31.5305 186.4764,31.5305 185.8514,33.4055 185.8514,33.4055 185.8514,36.5305 185.8514,36.5305 186.4764,38.4055 186.4764,38.4055 187.1014,39.6555 187.1014,39.6555 188.3514,40.9055 188.3514,40.9055 189.6014,41.5305 189.6014,41.5305 192.1014,41.5305 192.1014,41.5305 193.3514,40.9055 193.3514,40.9055 194.6014,39.6555 194.6014,39.6555 195.2264,38.4055 195.2264,38.4055 195.8514,36.5305 195.8514,36.5305 195.8514,33.4055 195.8514,33.4055 195.2264,31.5305 195.2264,31.5305 194.6014,30.2805 194.6014,30.2805 193.3514,29.0305 193.3514,29.0305 192.1014,28.4055 192.1014,28.4055"/>
    <polyline points="245.6693,17.0079 283.4646,17.0079 283.4646,17.0079 283.4646,54.8031 283.4646,54.8031 245.6693,54.8031 245.6693,54.8031 245.6693,92.5984 245.6693,92.5984 207.874,92.5984 207.874,92.5984 207.874,54.8031 207.874,54.8031 245.6693,54.8031 245.6693,54.8031 245.6693,17.0079 245.6693,17.0079 207.874,17.0079"/>
    <polyline points="211.0138,20.4897 211.0138,20.1772 211.0138,20.1772 211.3263,19.5522 211.3263,19.5522 211.6388,19.2397 211.6388,19.2397 212.2638,18.9272 212.2638,18.9272 213.5138,18.9272 213.5138,18.9272 214.1388,19.2397 214.1388,19.2397 214.4513,19.5522 214.4513,19.5522 214.7638,20.1772 214.7638,20.1772 214.7638,20.8022 214.7638,20.8022 214.4513,21.4272 214.4513,21.4272 213.8263,22.3647 213.8263,22.3647 210.7013,25.4897 210.7013,25.4897 215.0763,25.4897"/>
    <polyline points="224.8967,28.4055 224.8967,37.7805 224.8967,37.7805 225.5217,39.6555 225.5217,39.6555 226.7717,40.9055 226.7717,40.9055 228.6467,41.5305 228.6467,41.5305 229.8967,41.5305 229.8967,41.5305 231.7717,40.9055 231.7717,40.9055 233.0217,39.6555 233.0217,39.6555 233.6467,37.7805 233.6467,37.7805 233.6467,28.4055"/>
    <polyline points="270.8169,30.2805 269.5669,29.0305 269.5669,29.0305 267.6919,28.4055 267.6919,28.4055 265.1919,28.4055 265.1919,28.4055 263.3169,29.0305 263.3169,29.0305 262.0669,30.2805 262.0669,30.2805 262.0669,31.5305 262.0669,31.5305 262.6919,32.7805 262.6919,32.7805 263.3169,33.4055 263.3169,33.4055 264.5669,34.0305 264.5669,34.0305 268.3169,35.2805 268.3169,35.2805 269.5669,35.9055 269.5669,35.9055 270.1919,36.5305 270.1919,36.5305 270.8169,37.7805 270.8169,37.7805 270.8169,39.6555 270.8169,39.6555 269.5669,40.9055 269.5669,40.9055 267.6919,41.5305 267.6919,41.5305 265.1919,41.5305 265.1919,41.5305 263.3169,40.9055 263.3169,40.9055 262.0669,39.6555"/>
    <polygon points="359.0551,17.0079 359.0551,54.8031 359.0551,54.8031 396.8504,54.8031 396.8504,54.8031 434.6457,54.8031 434.6457,54.8031 434.6457,17.0079 434.6457,17.0079 396.8504,17.0079 396.8504,17.0079"/>
    <line x1="396.8504" x2="396.8504" y1="54.8031" y2="17.0079"/>
    <polyline points="362.5074,18.9272 365.9449,18.9272 365.9449,18.9272 364.0699,21.4272 364.0699,21.4272 365.0074,21.4272 365.0074,21.4272 365.6324,21.7397 365.6324,21.7397 365.9449,22.0522 365.9449,22.0522 366.2574,22.9897 366.2574,22.9897 366.2574,23.6147 366.2574,23.6147 365.9449,24.5522 365.9449,24.5522 365.3199,25.1772 365.3199,25.1772 364.3824,25.4897 364.3824,25.4897 363.4449,25.4897 363.4449,25.4897 362.5074,25.1772 362.5074,25.1772 362.1949,24.8647 362.1949,24.8647 361.8824,24.2397"/>
    <line x1="378.5778" x2="378.5778" y1="28.4055" y2="41.5305"/>
    <line x1="374.2028" x2="382.9528" y1="28.4055" y2="28.4055"/>
    <polygon points="416.373,28.4055 415.123,29.0305 415.123,29.0305 413.873,30.2805 413.873,30.2805 413.248,31.5305 413.248,31.5305 412.623,33.4055 412.623,33.4055 412.623,36.5305 412.623,36.5305 413.248,38.4055 413.248,38.4055 413.873,39.6555 413.873,39.6555 415.123,40.9055 415.123,40.9055 416.373,41.5305 416.373,41.5305 418.873,41.5305 418.873,41.5305 420.123,40.9055 420.123,40.9055 421.373,39.6555 421.373,39.6555 421.998,38.4055 421.998,38.4055 422.623,36.5305 422.623,36.5305 422.623,33.4055 422.623,33.4055 421.998,31.5305 421.998,31.5305 421.373,30.2805 421.373,30.2805 420.123,29.0305 420.123,29.0305 418.873,28.4055 418.873,28.4055"/>
    <polyline points="472.4409,54.8031 472.4409,92.5984 472.4409,92.5984 434.6457,92.5984 434.6457,92.5984 434.6457,54.8031 434.6457,54.8031 472.4409,54.8031 472.4409,54.8031 472.4409,17.0079 472.4409,17.0079 434.6457,17.0079"/>
    <polyline points="440.5979,25.4897 440.5979,18.9272 440.5979,18.9272 437.4729,23.3022 437.4729,23.3022 442.1604,23.3022"/>
    <polyline points="461.0433,41.5305 461.0433,28.4055 461.0433,28.4055 456.0433,41.5305 456.0433,41.5305 451.0433,28.4055 451.0433,28.4055 451.0433,41.5305"/>
    <polygon points="510.2362,17.0079 510.2362,54.8031 510.2362,54.8031 548.0315,54.8031 548.0315,54.8031 585.8268,54.8031 585.8268,54.8031 585.8268,17.0079 585.8268,17.0079 548.0315,17.0079 548.0315,17.0079"/>
    <line x1="548.0315" x2="548.0315" y1="54.8031" y2="17.0079"/>
    <polyline points="516.8135,18.9272 513.6885,18.9272 513.6885,18.9272 513.376,21.7397 513.376,21.7397 513.6885,21.4272 513.6885,21.4272 514.626,21.1147 514.626,21.1147 515.5635,21.1147 515.5635,21.1147 516.501,21.4272 516.501,21.4272 517.126,22.0522 517.126,22.0522 517.4385,22.9897 517.4385,22.9897 517.4385,23.6147 517.4385,23.6147 517.126,24.5522 517.126,24.5522 516.501,25.1772 516.501,25.1772 515.5635,25.4897 515.5635,25.4897 514.626,25.4897 514.626,25.4897 513.6885,25.1772 513.6885,25.1772 513.376,24.8647 513.376,24.8647 513.0635,24.2397"/>
    <polygon points="529.7589,28.4055 528.5089,29.0305 528.5089,29.0305 527.2589,30.2805 527.2589,30.2805 526.6339,31.5305 526.6339,31.5305 526.0089,33.4055 526.0089,33.4055 526.0089,36.5305 526.0089,36.5305 526.6339,38.4055 526.6339,38.4055 527.2589,39.6555 527.2589,39.6555 528.5089,40.9055 528.5089,40.9055 529.7589,41.5305 529.7589,41.5305 532.2589,41.5305 532.2589,41.5305 533.5089,40.9055 533.5089,40.9055 534.7589,39.6555 534.7589,39.6555 535.3839,38.4055 535.3839,38.4055 536.0089,36.5305 536.0089,36.5305 536.0089,33.4055 536.0089,33.4055 535.3839,31.5305 535.3839,31.5305 534.7589,30.2805 534.7589,30.2805 533.5089,29.0305 533.5089,29.0305 532.2589,28.4055 532.2589,28.4055"/>
    <polygon points="567.5541,28.4055 566.3041,29.0305 566.3041,29.0305 565.0541,30.2805 565.0541,30.2805 564.4291,31.5305 564.4291,31.5305 563.8041,33.4055 563.8041,33.4055 563.8041,36.5305 563.8041,36.5305 564.4291,38.4055 564.4291,38.4055 565.0541,39.6555 565.0541,39.6555 566.3041,40.9055 566.3041,40.9055 567.5541,41.5305 567.5541,41.5305 570.0541,41.5305 570.0541,41.5305 571.3041,40.9055 571.3041,40.9055 572.5541,39.6555 572.5541,39.6555 573.1791,38.4055 573.1791,38.4055 573.8041,36.5305 573.8041,36.5305 573.8041,33.4055 573.8041,33.4055 573.1791,31.5305 573.1791,31.5305 572.5541,30.2805 572.5541,30.2805 571.3041,29.0305 571.3041,29.0305 570.0541,28.4055 570.0541,28.4055"/>
    <polyline points="623.622,17.0079 661.4173,17.0079 661.4173,17.0079 699.2126,17.0079 699.2126,17.0079 699.2126,54.8031 699.2126,54.8031 699.2126,92.5984 699.2126,92.5984 661.4173,92.5984 661.4173,92.5984 661.4173,54.8031 661.4173,54.8031 623.622,54.8031 623.622,54.8031 623.622,92.5984 623.622,92.5984 585.8268,92.5984 585.8268,92.5984 585.8268,54.8031 585.8268,54.8031 623.622,54.8031 623.622,54.8031 623.622,17.0079 623.622,17.0079 585.8268,17.0079"/>
    <polyline points="592.7165,19.8647 592.404,19.2397 592.404,19.2397 591.4665,18.9272 591.4665,18.9272 590.8415,18.9272 590.8415,18.9272 589.904,19.2397 589.904,19.2397 589.279,20.1772 589.279,20.1772 588.9665,21.7397 588.9665,21.7397 588.9665,23.3022 588.9665,23.3022 589.279,24.5522 589.279,24.5522 589.904,25.1772 589.904,25.1772 590.8415,25.4897 590.8415,25.4897 591.154,25.4897 591.154,25.4897 592.0915,25.1772 592.0915,25.1772 592.7165,24.5522 592.7165,24.5522 593.029,23.6147 593.029,23.6147 593.029,23.3022 593.029,23.3022 592.7165,22.3647 592.7165,22.3647 592.0915,21.7397 592.0915,21.7397 591.154,21.4272 591.154,21.4272 590.8415,21.4272 590.8415,21.4272 589.904,21.7397 589.904,21.7397 589.279,22.3647 589.279,22.3647 588.9665,23.3022"/>
    <polyline points="602.8494,34.6555 608.4744,34.6555 608.4744,34.6555 610.3494,34.0305 610.3494,34.0305 610.9744,33.4055 610.9744,33.4055 611.5994,32.1555 611.5994,32.1555 611.5994,30.9055 611.5994,30.9055 610.9744,29.6555 610.9744,29.6555 610.3494,29.0305 610.3494,29.0305 608.4744,28.4055 608.4744,28.4055 602.8494,28.4055 602.8494,28.4055 602.8494,41.5305"/>
    <line x1="607.2244" x2="611.5994" y1="34.6555" y2="41.5305"/>
    <polyline points="699.2126,17.0079 737.0079,17.0079 737.0079,17.0079 774.8031,17.0079 774.8031,17.0079 774.8031,54.8031 774.8031,54.8031 774.8031,92.5984 774.8031,92.5984 774.8031,130.3937 774.8031,130.3937 737.0079,130.3937 737.0079,130.3937 737.0079,92.5984 737.0079,92.5984 737.0079,54.8031 737.0079,54.8031 699.2126,54.8031 699.2126,54.8031 661.4173,54.8031 661.4173,54.8031 661.4173,17.0079"/>
    <line x1="643.1447" x2="643.1447" y1="28.4055" y2="41.5305"/>
    <line x1="638.7697" x2="647.5197" y1="28.4055" y2="28.4055"/>
    <polyline points="664.2446,18.9272 668.6196,18.9272 668.6196,18.9272 665.4946,25.4897"/>
    <polyline points="684.69,28.4055 684.69,38.4055 684.69,38.4055 684.065,40.2805 684.065,40.2805 683.44,40.9055 683.44,40.9055 682.19,41.5305 682.19,41.5305 680.94,41.5305 680.94,41.5305 679.69,40.9055 679.69,40.9055 679.065,40.2805 679.065,40.2805 678.44,38.4055 678.44,38.4055 678.44,37.1555"/>
    <polyline points="774.8031,54.8031 737.0079,54.8031 737.0079,54.8031 737.0079,17.0079"/>
    <polyline points="724.6727,28.4055 716.5477,28.4055 716.5477,28.4055 716.5477,41.5305 716.5477,41.5305 724.6727,41.5305"/>
    <line x1="716.5477" x2="721.5477" y1="34.6555" y2="34.6555"/>
    <polygon points="741.3976,18.9272 740.4601,19.2397 740.4601,19.2397 740.1476,19.8647 740.1476,19.8647 740.1476,20.4897 740.1476,20.4897 740.4601,21.1147 740.4601,21.1147 741.0851,21.4272 741.0851,21.4272 742.3351,21.7397 742.3351,21.7397 743.2726,22.0522 743.2726,22.0522 743.8976,22.6772 743.8976,22.6772 744.2101,23.3022 744.2101,23.3022 744.2101,24.2397 744.2101,24.2397 743.8976,24.8647 743.8976,24.8647 743.5851,25.1772 743.5851,25.1772 742.6476,25.4897 742.6476,25.4897 741.3976,25.4897 741.3976,25.4897 740.4601,25.1772 740.4601,25.1772 740.1476,24.8647 740.1476,24.8647 739.8351,24.2397 739.8351,24.2397 739.8351,23.3022 739.8351,23.3022 740.1476,22.6772 740.1476,22.6772 740.7726,22.0522 740.7726,22.0522 741.7101,21.7397 741.7101,21.7397 742.9601,21.4272 742.9601,21.4272 743.5851,21.1147 743.5851,21.1147 743.8976,20.4897 743.8976,20.4897 743.8976,19.8647 743.8976,19.8647 743.5851,19.2397 743.5851,19.2397 742.6476,18.9272 742.6476,18.9272"/>
    <polyline points="762.1555,30.2805 760.9055,29.0305 760.9055,29.0305 759.0305,28.4055 759.0305,28.4055 756.5305,28.4055 756.5305,28.4055 754.6555,29.0305 754.6555,29.0305 753.4055,30.2805 753.4055,30.2805 753.4055,31.5305 753.4055,31.5305 754.0305,32.7805 754.0305,32.7805 754.6555,33.4055 754.6555,33.4055 755.9055,34.0305 755.9055,34.0305 759.6555,35.2805 759.6555,35.2805 760.9055,35.9055 760.9055,35.9055 761.5305,36.5305 761.5305,36.5305 762.1555,37.7805 762.1555,37.7805 762.1555,39.6555 762.1555,39.6555 760.9055,40.9055 760.9055,40.9055 759.0305,41.5305 759.0305,41.5305 756.5305,41.5305 756.5305,41.5305 754.6555,40.9055 754.6555,40.9055 753.4055,39.6555"/>
    <polygon points="56.6929,54.8031 56.6929,92.5984 56.6929,92.5984 18.8976,92.5984 18.8976,92.5984 18.8976,130.3937 18.8976,130.3937 56.6929,130.3937 56.6929,130.3937 94.4882,130.3937 94.4882,130.3937 132.2835,130.3937 132.2835,130.3937 132.2835,92.5984 132.2835,92.5984 94.4882,92.5984 94.4882,92.5984 94.4882,54.8031 94.4882,54.8031"/>
    <polyline points="132.2835,243.7795 94.4882,243.7795 94.4882,243.7795 94.4882,205.9843 94.4882,205.9843 56.6929,205.9843 56.6929,205.9843 56.6929,243.7795 56.6929,243.7795 18.8976,243.7795 18.8976,243.7795 18.8976,205.9843 18.8976,205.9843 56.6929,205.9843 56.6929,205.9843 56.6929,168.189 56.6929,168.189 56.6929,130.3937 56.6929,130.3937 56.6929,92.5984 56.6929,92.5984 94.4882,92.5984 94.4882,92.5984 94.4882,130.3937 94.4882,130.3937 94.4882,168.189 94.4882,168.189 94.4882,205.9843 94.4882,205.9843 132.2835,205.9843 132.2835,205.9843 132.2835,243.7795 132.2835,243.7795 170.0787,243.7795 170.0787,243.7795 207.874,243.7795 207.874,243.7795 245.6693,243.7795 245.6693,243.7795 245.6693,205.9843 245.6693,205.9843 245.6693,168.189 245.6693,168.189 245.6693,130.3937 245.6693,130.3937 245.6693,92.5984"/>
    <polyline points="63.5827,58.9099 63.2702,59.8474 63.2702,59.8474 62.6452,60.4724 62.6452,60.4724 61.7077,60.7849 61.7077,60.7849 61.3952,60.7849 61.3952,60.7849 60.4577,60.4724 60.4577,60.4724 59.8327,59.8474 59.8327,59.8474 59.5202,58.9099 59.5202,58.9099 59.5202,58.5974 59.5202,58.5974 59.8327,57.6599 59.8327,57.6599 60.4577,57.0349 60.4577,57.0349 61.3952,56.7224 61.3952,56.7224 61.7077,56.7224 61.7077,56.7224 62.6452,57.0349 62.6452,57.0349 63.2702,57.6599 63.2702,57.6599 63.5827,58.9099 63.5827,58.9099 63.5827,60.4724 63.5827,60.4724 63.2702,62.0349 63.2702,62.0349 62.6452,62.9724 62.6452,62.9724 61.7077,63.2849 61.7077,63.2849 61.0827,63.2849 61.0827,63.2849 60.1452,62.9724 60.1452,62.9724 59.8327,62.3474"/>
    <polyline points="73.7156,73.0758 79.3406,73.0758 79.3406,73.0758 81.2156,72.4508 81.2156,72.4508 81.8406,71.8258 81.8406,71.8258 82.4656,70.5758 82.4656,70.5758 82.4656,68.7008 82.4656,68.7008 81.8406,67.4508 81.8406,67.4508 81.2156,66.8258 81.2156,66.8258 79.3406,66.2008 79.3406,66.2008 73.7156,66.2008 73.7156,66.2008 73.7156,79.3258"/>
    <line x1="229.2717" x2="229.2717" y1="66.2008" y2="79.3258"/>
    <polyline points="459.1683,79.3258 454.1683,66.2008 454.1683,66.2008 449.1683,79.3258"/>
    <line x1="451.0433" x2="457.2933" y1="74.9508" y2="74.9508"/>
    <polyline points="611.2869,66.2008 603.1619,66.2008 603.1619,66.2008 603.1619,79.3258 603.1619,79.3258 611.2869,79.3258"/>
    <line x1="603.1619" x2="608.1619" y1="72.4508" y2="72.4508"/>
    <polyline points="685.94,79.3258 680.94,66.2008 680.94,66.2008 675.94,79.3258"/>
    <line x1="677.815" x2="684.065" y1="74.9508" y2="74.9508"/>
    <line x1="737.0079" x2="774.8031" y1="92.5984" y2="92.5984"/>
    <line x1="756.5305" x2="756.5305" y1="66.2008" y2="79.3258"/>
    <line x1="752.1555" x2="760.9055" y1="66.2008" y2="66.2008"/>
    <polyline points="22.6624,95.7677 23.2874,95.4552 23.2874,95.4552 24.2249,94.5177 24.2249,94.5177 24.2249,101.0802"/>
    <polygon points="29.8499,94.5177 28.9124,94.8302 28.9124,94.8302 28.2874,95.7677 28.2874,95.7677 27.9749,97.3302 27.9749,97.3302 27.9749,98.2677 27.9749,98.2677 28.2874,99.8302 28.2874,99.8302 28.9124,100.7677 28.9124,100.7677 29.8499,101.0802 29.8499,101.0802 30.4749,101.0802 30.4749,101.0802 31.4124,100.7677 31.4124,100.7677 32.0374,99.8302 32.0374,99.8302 32.3499,98.2677 32.3499,98.2677 32.3499,97.3302 32.3499,97.3302 32.0374,95.7677 32.0374,95.7677 31.4124,94.8302 31.4124,94.8302 30.4749,94.5177 30.4749,94.5177"/>
    <polyline points="36.5453,103.9961 36.5453,117.1211 36.5453,117.1211 44.0453,117.1211"/>
    <line x1="78.0906" x2="78.0906" y1="103.9961" y2="117.1211"/>
    <polyline points="119.9483,103.9961 111.8233,103.9961 111.8233,103.9961 111.8233,117.1211"/>
    <line x1="111.8233" x2="116.8233" y1="110.2461" y2="110.2461"/>
    <polyline points="132.2835,130.3937 170.0787,130.3937 170.0787,130.3937 170.0787,92.5984 170.0787,92.5984 132.2835,92.5984"/>
    <line x1="151.8061" x2="151.8061" y1="103.9961" y2="117.1211"/>
    <line x1="147.4311" x2="156.1811" y1="103.9961" y2="103.9961"/>
    <polyline points="207.874,92.5984 207.874,130.3937 207.874,130.3937 245.6693,130.3937"/>
    <line x1="227.3967" x2="227.3967" y1="103.9961" y2="117.1211"/>
    <line x1="223.0217" x2="231.7717" y1="103.9961" y2="103.9961"/>
    <polygon points="283.4646,92.5984 283.4646,130.3937 283.4646,130.3937 321.2598,130.3937 321.2598,130.3937 359.0551,130.3937 359.0551,130.3937 359.0551,92.5984 359.0551,92.5984 321.2598,92.5984 321.2598,92.5984"/>
    <line x1="321.2598" x2="321.2598" y1="130.3937" y2="92.5984"/>
    <polyline points="287.2293,95.7677 287.8543,95.4552 287.8543,95.4552 288.7918,94.5177 288.7918,94.5177 288.7918,101.0802"/>
    <polyline points="293.4793,95.7677 294.1043,95.4552 294.1043,95.4552 295.0418,94.5177 295.0418,94.5177 295.0418,101.0802"/>
    <polyline points="300.4872,110.2461 306.1122,110.2461 306.1122,110.2461 307.9872,109.6211 307.9872,109.6211 308.6122,108.9961 308.6122,108.9961 309.2372,107.7461 309.2372,107.7461 309.2372,106.4961 309.2372,106.4961 308.6122,105.2461 308.6122,105.2461 307.9872,104.6211 307.9872,104.6211 306.1122,103.9961 306.1122,103.9961 300.4872,103.9961 300.4872,103.9961 300.4872,117.1211"/>
    <line x1="304.8622" x2="309.2372" y1="110.2461" y2="117.1211"/>
    <polyline points="346.72,103.9961 338.595,103.9961 338.595,103.9961 338.595,117.1211 338.595,117.1211 346.72,117.1211"/>
    <line x1="338.595" x2="343.595" y1="110.2461" y2="110.2461"/>
    <polyline points="359.0551,130.3937 396.8504,130.3937 396.8504,130.3937 434.6457,130.3937 434.6457,130.3937 434.6457,92.5984 434.6457,92.5984 396.8504,92.5984 396.8504,92.5984 359.0551,92.5984"/>
    <line x1="396.8504" x2="396.8504" y1="130.3937" y2="92.5984"/>
    <polyline points="384.5153,107.1211 383.8903,105.8711 383.8903,105.8711 382.6403,104.6211 382.6403,104.6211 381.3903,103.9961 381.3903,103.9961 378.8903,103.9961 378.8903,103.9961 377.6403,104.6211 377.6403,104.6211 376.3903,105.8711 376.3903,105.8711 375.7653,107.1211 375.7653,107.1211 375.1403,108.9961 375.1403,108.9961 375.1403,112.1211 375.1403,112.1211 375.7653,113.9961 375.7653,113.9961 376.3903,115.2461 376.3903,115.2461 377.6403,116.4961 377.6403,116.4961 378.8903,117.1211 378.8903,117.1211 381.3903,117.1211 381.3903,117.1211 382.6403,116.4961 382.6403,116.4961 383.8903,115.2461 383.8903,115.2461 384.5153,113.9961 384.5153,113.9961 384.5153,112.1211 384.5153,112.1211 381.3903,112.1211"/>
    <polyline points="422.3105,103.9961 414.1855,103.9961 414.1855,103.9961 414.1855,117.1211 414.1855,117.1211 422.3105,117.1211"/>
    <line x1="414.1855" x2="419.1855" y1="110.2461" y2="110.2461"/>
    <polyline points="510.2362,130.3937 472.4409,130.3937 472.4409,130.3937 472.4409,168.189 472.4409,168.189 434.6457,168.189 434.6457,168.189 434.6457,130.3937 434.6457,130.3937 472.4409,130.3937 472.4409,130.3937 472.4409,92.5984 472.4409,92.5984 510.2362,92.5984 510.2362,92.5984 510.2362,130.3937 510.2362,130.3937 548.0315,130.3937 548.0315,130.3937 585.8268,130.3937 585.8268,130.3937 585.8268,92.5984 585.8268,92.5984 548.0315,92.5984 548.0315,92.5984 510.2362,92.5984"/>
    <polyline points="460.4183,103.9961 460.4183,117.1211 460.4183,117.1211 451.6683,103.9961 451.6683,103.9961 451.6683,117.1211"/>
    <polygon points="489.4636,103.9961 489.4636,117.1211 489.4636,117.1211 495.0886,117.1211 495.0886,117.1211 496.9636,116.4961 496.9636,116.4961 497.5886,115.8711 497.5886,115.8711 498.2136,114.6211 498.2136,114.6211 498.2136,112.7461 498.2136,112.7461 497.5886,111.4961 497.5886,111.4961 496.9636,110.8711 496.9636,110.8711 495.0886,110.2461 495.0886,110.2461 496.9636,109.6211 496.9636,109.6211 497.5886,108.9961 497.5886,108.9961 498.2136,107.7461 498.2136,107.7461 498.2136,106.4961 498.2136,106.4961 497.5886,105.2461 497.5886,105.2461 496.9636,104.6211 496.9636,104.6211 495.0886,103.9961 495.0886,103.9961"/>
    <line x1="489.4636" x2="495.0886" y1="110.2461" y2="110.2461"/>
    <line x1="548.0315" x2="548.0315" y1="130.3937" y2="92.5984"/>
    <polygon points="529.7589,103.9961 528.5089,104.6211 528.5089,104.6211 527.2589,105.8711 527.2589,105.8711 526.6339,107.1211 526.6339,107.1211 526.0089,108.9961 526.0089,108.9961 526.0089,112.1211 526.0089,112.1211 526.6339,113.9961 526.6339,113.9961 527.2589,115.2461 527.2589,115.2461 528.5089,116.4961 528.5089,116.4961 529.7589,117.1211 529.7589,117.1211 532.2589,117.1211 532.2589,117.1211 533.5089,116.4961 533.5089,116.4961 534.7589,115.2461 534.7589,115.2461 535.3839,113.9961 535.3839,113.9961 536.0089,112.1211 536.0089,112.1211 536.0089,108.9961 536.0089,108.9961 535.3839,107.1211 535.3839,107.1211 534.7589,105.8711 534.7589,105.8711 533.5089,104.6211 533.5089,104.6211 532.2589,103.9961 532.2589,103.9961"/>
    <polygon points="567.5541,103.9961 566.3041,104.6211 566.3041,104.6211 565.0541,105.8711 565.0541,105.8711 564.4291,107.1211 564.4291,107.1211 563.8041,108.9961 563.8041,108.9961 563.8041,112.1211 563.8041,112.1211 564.4291,113.9961 564.4291,113.9961 565.0541,115.2461 565.0541,115.2461 566.3041,116.4961 566.3041,116.4961 567.5541,117.1211 567.5541,117.1211 570.0541,117.1211 570.0541,117.1211 571.3041,116.4961 571.3041,116.4961 572.5541,115.2461 572.5541,115.2461 573.1791,113.9961 573.1791,113.9961 573.8041,112.1211 573.8041,112.1211 573.8041,108.9961 573.8041,108.9961 573.1791,107.1211 573.1791,107.1211 572.5541,105.8711 572.5541,105.8711 571.3041,104.6211 571.3041,104.6211 570.0541,103.9961 570.0541,103.9961"/>
    <polyline points="623.622,130.3937 623.622,168.189 623.622,168.189 585.8268,168.189 585.8268,168.189 585.8268,130.3937 585.8268,130.3937 623.622,130.3937 623.622,130.3937 623.622,92.5984"/>
    <polyline points="611.2869,107.1211 610.6619,105.8711 610.6619,105.8711 609.4119,104.6211 609.4119,104.6211 608.1619,103.9961 608.1619,103.9961 605.6619,103.9961 605.6619,103.9961 604.4119,104.6211 604.4119,104.6211 603.1619,105.8711 603.1619,105.8711 602.5369,107.1211 602.5369,107.1211 601.9119,108.9961 601.9119,108.9961 601.9119,112.1211 601.9119,112.1211 602.5369,113.9961 602.5369,113.9961 603.1619,115.2461 603.1619,115.2461 604.4119,116.4961 604.4119,116.4961 605.6619,117.1211 605.6619,117.1211 608.1619,117.1211 608.1619,117.1211 609.4119,116.4961 609.4119,116.4961 610.6619,115.2461 610.6619,115.2461 611.2869,113.9961 611.2869,113.9961 611.2869,112.1211 611.2869,112.1211 608.1619,112.1211"/>
    <polyline points="762.468,103.9961 754.343,103.9961 754.343,103.9961 754.343,117.1211 754.343,117.1211 762.468,117.1211"/>
    <line x1="754.343" x2="759.343" y1="110.2461" y2="110.2461"/>
    <line x1="56.6929" x2="94.4882" y1="168.189" y2="168.189"/>
    <polyline points="82.4656,141.7913 82.4656,154.9163 82.4656,154.9163 73.7156,141.7913 73.7156,141.7913 73.7156,154.9163"/>
    <polyline points="207.874,130.3937 207.874,168.189 207.874,168.189 245.6693,168.189"/>
    <polyline points="225.5217,141.7913 225.5217,154.9163 225.5217,154.9163 233.0217,154.9163"/>
    <polygon points="451.6683,141.7913 451.6683,154.9163 451.6683,154.9163 456.0433,154.9163 456.0433,154.9163 457.9183,154.2913 457.9183,154.2913 459.1683,153.0413 459.1683,153.0413 459.7933,151.7913 459.7933,151.7913 460.4183,149.9163 460.4183,149.9163 460.4183,146.7913 460.4183,146.7913 459.7933,144.9163 459.7933,144.9163 459.1683,143.6663 459.1683,143.6663 457.9183,142.4163 457.9183,142.4163 456.0433,141.7913 456.0433,141.7913"/>
    <polyline points="611.2869,141.7913 603.1619,141.7913 603.1619,141.7913 603.1619,154.9163 603.1619,154.9163 611.2869,154.9163"/>
    <line x1="603.1619" x2="608.1619" y1="148.0413" y2="148.0413"/>
    <polyline points="737.0079,130.3937 737.0079,168.189 737.0079,168.189 774.8031,168.189 774.8031,168.189 774.8031,130.3937"/>
    <polyline points="762.468,141.7913 754.343,141.7913 754.343,141.7913 754.343,154.9163"/>
    <line x1="754.343" x2="759.343" y1="148.0413" y2="148.0413"/>
    <line x1="73.7156" x2="73.7156" y1="179.5866" y2="192.7116"/>
    <line x1="82.4656" x2="73.7156" y1="179.5866" y2="188.3366"/>
    <line x1="76.8406" x2="82.4656" y1="185.2116" y2="192.7116"/>
    <polyline points="207.874,168.189 207.874,205.9843 207.874,205.9843 170.0787,205.9843 170.0787,205.9843 132.2835,205.9843"/>
    <polyline points="283.4646,319.3701 245.6693,319.3701 245.6693,319.3701 245.6693,357.1654 245.6693,357.1654 207.874,357.1654 207.874,357.1654 207.874,319.3701 207.874,319.3701 207.874,281.5748 207.874,281.5748 207.874,243.7795 207.874,243.7795 207.874,205.9843 207.874,205.9843 245.6693,205.9843 245.6693,205.9843 283.4646,205.9843 283.4646,205.9843 283.4646,243.7795 283.4646,243.7795 245.6693,243.7795 245.6693,243.7795 245.6693,281.5748 245.6693,281.5748 207.874,281.5748 207.874,281.5748 170.0787,281.5748 170.0787,281.5748 170.0787,319.3701 170.0787,319.3701 207.874,319.3701 207.874,319.3701 245.6693,319.3701 245.6693,319.3701 245.6693,281.5748 245.6693,281.5748 283.4646,281.5748 283.4646,281.5748 283.4646,319.3701 283.4646,319.3701 321.2598,319.3701 321.2598,319.3701 321.2598,281.5748 321.2598,281.5748 359.0551,281.5748 359.0551,281.5748 359.0551,243.7795 359.0551,243.7795 359.0551,205.9843 359.0551,205.9843 396.8504,205.9843 396.8504,205.9843 434.6457,205.9843 434.6457,205.9843 434.6457,168.189 434.6457,168.189 396.8504,168.189 396.8504,168.189 359.0551,168.189 359.0551,168.189 321.2598,168.189 321.2598,168.189 321.2598,205.9843 321.2598,205.9843 359.0551,205.9843 359.0551,205.9843 359.0551,168.189"/>
    <line x1="229.2717" x2="229.2717" y1="179.5866" y2="192.7116"/>
    <polyline points="325.0246,171.3583 325.6496,171.0458 325.6496,171.0458 326.5871,170.1083 326.5871,170.1083 326.5871,176.6708"/>
    <polyline points="330.6496,171.6708 330.6496,171.3583 330.6496,171.3583 330.9621,170.7333 330.9621,170.7333 331.2746,170.4208 331.2746,170.4208 331.8996,170.1083 331.8996,170.1083 333.1496,170.1083 333.1496,170.1083 333.7746,170.4208 333.7746,170.4208 334.0871,170.7333 334.0871,170.7333 334.3996,171.3583 334.3996,171.3583 334.3996,171.9833 334.3996,171.9833 334.0871,172.6083 334.0871,172.6083 333.4621,173.5458 333.4621,173.5458 330.3371,176.6708 330.3371,176.6708 334.7121,176.6708"/>
    <polyline points="346.72,182.7116 346.095,181.4616 346.095,181.4616 344.845,180.2116 344.845,180.2116 343.595,179.5866 343.595,179.5866 341.095,179.5866 341.095,179.5866 339.845,180.2116 339.845,180.2116 338.595,181.4616 338.595,181.4616 337.97,182.7116 337.97,182.7116 337.345,184.5866 337.345,184.5866 337.345,187.7116 337.345,187.7116 337.97,189.5866 337.97,189.5866 338.595,190.8366 338.595,190.8366 339.845,192.0866 339.845,192.0866 341.095,192.7116 341.095,192.7116 343.595,192.7116 343.595,192.7116 344.845,192.0866 344.845,192.0866 346.095,190.8366 346.095,190.8366 346.72,189.5866 346.72,189.5866 346.72,187.7116 346.72,187.7116 343.595,187.7116"/>
    <line x1="396.8504" x2="396.8504" y1="205.9843" y2="168.189"/>
    <polyline points="376.0778,185.8366 381.7028,185.8366 381.7028,185.8366 383.5778,185.2116 383.5778,185.2116 384.2028,184.5866 384.2028,184.5866 384.8278,183.3366 384.8278,183.3366 384.8278,182.0866 384.8278,182.0866 384.2028,180.8366 384.2028,180.8366 383.5778,180.2116 383.5778,180.2116 381.7028,179.5866 381.7028,179.5866 376.0778,179.5866 376.0778,179.5866 376.0778,192.7116"/>
    <line x1="380.4528" x2="384.8278" y1="185.8366" y2="192.7116"/>
    <polyline points="421.373,192.7116 416.373,179.5866 416.373,179.5866 411.373,192.7116"/>
    <line x1="413.248" x2="419.498" y1="188.3366" y2="188.3366"/>
    <polygon points="434.6457,205.9843 472.4409,205.9843 472.4409,205.9843 510.2362,205.9843 510.2362,205.9843 510.2362,168.189 510.2362,168.189 472.4409,168.189 472.4409,168.189 472.4409,205.9843 472.4409,205.9843 472.4409,243.7795 472.4409,243.7795 434.6457,243.7795 434.6457,243.7795"/>
    <polyline points="459.1683,192.7116 454.1683,179.5866 454.1683,179.5866 449.1683,192.7116"/>
    <line x1="451.0433" x2="457.2933" y1="188.3366" y2="188.3366"/>
    <line x1="491.9636" x2="491.9636" y1="179.5866" y2="192.7116"/>
    <line x1="487.5886" x2="496.3386" y1="179.5866" y2="179.5866"/>
    <polyline points="585.8268,168.189 585.8268,205.9843 585.8268,205.9843 585.8268,243.7795 585.8268,243.7795 623.622,243.7795 623.622,243.7795 623.622,205.9843 623.622,205.9843 623.622,168.189"/>
    <line x1="585.8268" x2="623.622" y1="205.9843" y2="205.9843"/>
    <polyline points="611.5994,179.5866 611.5994,192.7116 611.5994,192.7116 602.8494,179.5866 602.8494,179.5866 602.8494,192.7116"/>
    <polyline points="737.0079,168.189 737.0079,205.9843 737.0079,205.9843 737.0079,243.7795 737.0079,243.7795 774.8031,243.7795 774.8031,243.7795 774.8031,205.9843 774.8031,205.9843 774.8031,168.189"/>
    <line x1="737.0079" x2="774.8031" y1="205.9843" y2="205.9843"/>
    <polyline points="761.5305,192.7116 756.5305,179.5866 756.5305,179.5866 751.5305,192.7116"/>
    <line x1="753.4055" x2="759.6555" y1="188.3366" y2="188.3366"/>
    <polyline points="22.6624,209.1535 23.2874,208.841 23.2874,208.841 24.2249,207.9035 24.2249,207.9035 24.2249,214.466"/>
    <polyline points="28.5999,207.9035 32.0374,207.9035 32.0374,207.9035 30.1624,210.4035 30.1624,210.4035 31.0999,210.4035 31.0999,210.4035 31.7249,210.716 31.7249,210.716 32.0374,211.0285 32.0374,211.0285 32.3499,211.966 32.3499,211.966 32.3499,212.591 32.3499,212.591 32.0374,213.5285 32.0374,213.5285 31.4124,214.1535 31.4124,214.1535 30.4749,214.466 30.4749,214.466 29.5374,214.466 29.5374,214.466 28.5999,214.1535 28.5999,214.1535 28.2874,213.841 28.2874,213.841 27.9749,213.216"/>
    <polyline points="33.4203,217.3819 38.4203,230.5069 38.4203,230.5069 43.4203,217.3819"/>
    <polyline points="56.6929,281.5748 56.6929,243.7795 56.6929,243.7795 94.4882,243.7795 94.4882,243.7795 94.4882,281.5748 94.4882,281.5748 94.4882,319.3701 94.4882,319.3701 56.6929,319.3701 56.6929,319.3701 56.6929,281.5748 56.6929,281.5748 94.4882,281.5748"/>
    <polyline points="82.1531,217.3819 74.0281,217.3819 74.0281,217.3819 74.0281,230.5069 74.0281,230.5069 82.1531,230.5069"/>
    <line x1="74.0281" x2="79.0281" y1="223.6319" y2="223.6319"/>
    <polyline points="112.1358,217.3819 112.1358,230.5069 112.1358,230.5069 119.6358,230.5069"/>
    <line x1="170.0787" x2="170.0787" y1="243.7795" y2="205.9843"/>
    <polyline points="149.9311,217.3819 149.9311,230.5069 149.9311,230.5069 157.4311,230.5069"/>
    <polyline points="195.5389,217.3819 187.4139,217.3819 187.4139,217.3819 187.4139,230.5069 187.4139,230.5069 195.5389,230.5069"/>
    <line x1="187.4139" x2="192.4139" y1="223.6319" y2="223.6319"/>
    <line x1="224.8967" x2="224.8967" y1="217.3819" y2="230.5069"/>
    <line x1="233.6467" x2="224.8967" y1="217.3819" y2="226.1319"/>
    <line x1="228.0217" x2="233.6467" y1="223.0069" y2="230.5069"/>
    <polyline points="271.1294,217.3819 263.0044,217.3819 263.0044,217.3819 263.0044,230.5069 263.0044,230.5069 271.1294,230.5069"/>
    <line x1="263.0044" x2="268.0044" y1="223.6319" y2="223.6319"/>
    <polyline points="321.2598,205.9843 321.2598,243.7795 321.2598,243.7795 359.0551,243.7795"/>
    <polyline points="338.2825,223.6319 343.9075,223.6319 343.9075,223.6319 345.7825,223.0069 345.7825,223.0069 346.4075,222.3819 346.4075,222.3819 347.0325,221.1319 347.0325,221.1319 347.0325,219.8819 347.0325,219.8819 346.4075,218.6319 346.4075,218.6319 345.7825,218.0069 345.7825,218.0069 343.9075,217.3819 343.9075,217.3819 338.2825,217.3819 338.2825,217.3819 338.2825,230.5069"/>
    <line x1="342.6575" x2="347.0325" y1="223.6319" y2="230.5069"/>
    <polyline points="451.6683,223.6319 457.2933,223.6319 457.2933,223.6319 459.1683,223.0069 459.1683,223.0069 459.7933,222.3819 459.7933,222.3819 460.4183,221.1319 460.4183,221.1319 460.4183,219.8819 460.4183,219.8819 459.7933,218.6319 459.7933,218.6319 459.1683,218.0069 459.1683,218.0069 457.2933,217.3819 457.2933,217.3819 451.6683,217.3819 451.6683,217.3819 451.6683,230.5069"/>
    <line x1="456.0433" x2="460.4183" y1="223.6319" y2="230.5069"/>
    <polygon points="602.8494,217.3819 602.8494,230.5069 602.8494,230.5069 608.4744,230.5069 608.4744,230.5069 610.3494,229.8819 610.3494,229.8819 610.9744,229.2569 610.9744,229.2569 611.5994,228.0069 611.5994,228.0069 611.5994,226.1319 611.5994,226.1319 610.9744,224.8819 610.9744,224.8819 610.3494,224.2569 610.3494,224.2569 608.4744,223.6319 608.4744,223.6319 610.3494,223.0069 610.3494,223.0069 610.9744,222.3819 610.9744,222.3819 611.5994,221.1319 611.5994,221.1319 611.5994,219.8819 611.5994,219.8819 610.9744,218.6319 610.9744,218.6319 610.3494,218.0069 610.3494,218.0069 608.4744,217.3819 608.4744,217.3819"/>
    <line x1="602.8494" x2="608.4744" y1="223.6319" y2="223.6319"/>
    <polygon points="661.4173,205.9843 661.4173,243.7795 661.4173,243.7795 699.2126,243.7795 699.2126,243.7795 699.2126,205.9843 699.2126,205.9843"/>
    <polyline points="665.1821,209.1535 665.8071,208.841 665.8071,208.841 666.7446,207.9035 666.7446,207.9035 666.7446,214.466"/>
    <polyline points="673.6196,214.466 673.6196,207.9035 673.6196,207.9035 670.4946,212.2785 670.4946,212.2785 675.1821,212.2785"/>
    <polyline points="685.94,230.5069 680.94,217.3819 680.94,217.3819 675.94,230.5069"/>
    <line x1="677.815" x2="684.065" y1="226.1319" y2="226.1319"/>
    <polyline points="761.5305,230.5069 756.5305,217.3819 756.5305,217.3819 751.5305,230.5069"/>
    <line x1="753.4055" x2="759.6555" y1="226.1319" y2="226.1319"/>
    <polyline points="73.7156,261.4272 79.3406,261.4272 79.3406,261.4272 81.2156,260.8022 81.2156,260.8022 81.8406,260.1772 81.8406,260.1772 82.4656,258.9272 82.4656,258.9272 82.4656,257.6772 82.4656,257.6772 81.8406,256.4272 81.8406,256.4272 81.2156,255.8022 81.2156,255.8022 79.3406,255.1772 79.3406,255.1772 73.7156,255.1772 73.7156,255.1772 73.7156,268.3022"/>
    <line x1="78.0906" x2="82.4656" y1="261.4272" y2="268.3022"/>
    <line x1="224.8967" x2="224.8967" y1="255.1772" y2="268.3022"/>
    <line x1="233.6467" x2="224.8967" y1="255.1772" y2="263.9272"/>
    <line x1="228.0217" x2="233.6467" y1="260.8022" y2="268.3022"/>
    <polyline points="321.2598,243.7795 321.2598,281.5748 321.2598,281.5748 283.4646,281.5748"/>
    <polygon points="340.7825,255.1772 339.5325,255.8022 339.5325,255.8022 338.2825,257.0522 338.2825,257.0522 337.6575,258.3022 337.6575,258.3022 337.0325,260.1772 337.0325,260.1772 337.0325,263.3022 337.0325,263.3022 337.6575,265.1772 337.6575,265.1772 338.2825,266.4272 338.2825,266.4272 339.5325,267.6772 339.5325,267.6772 340.7825,268.3022 340.7825,268.3022 343.2825,268.3022 343.2825,268.3022 344.5325,267.6772 344.5325,267.6772 345.7825,266.4272 345.7825,266.4272 346.4075,265.1772 346.4075,265.1772 347.0325,263.3022 347.0325,263.3022 347.0325,260.1772 347.0325,260.1772 346.4075,258.3022 346.4075,258.3022 345.7825,257.0522 345.7825,257.0522 344.5325,255.8022 344.5325,255.8022 343.2825,255.1772 343.2825,255.1772"/>
    <polyline points="434.6457,243.7795 434.6457,281.5748 434.6457,281.5748 472.4409,281.5748 472.4409,281.5748 472.4409,243.7795"/>
    <line x1="456.0433" x2="456.0433" y1="255.1772" y2="268.3022"/>
    <polyline points="585.8268,243.7795 585.8268,281.5748 585.8268,281.5748 623.622,281.5748 623.622,281.5748 623.622,243.7795"/>
    <polyline points="602.8494,255.1772 602.8494,264.5522 602.8494,264.5522 603.4744,266.4272 603.4744,266.4272 604.7244,267.6772 604.7244,267.6772 606.5994,268.3022 606.5994,268.3022 607.8494,268.3022 607.8494,268.3022 609.7244,267.6772 609.7244,267.6772 610.9744,266.4272 610.9744,266.4272 611.5994,264.5522 611.5994,264.5522 611.5994,255.1772"/>
    <polyline points="661.4173,243.7795 661.4173,281.5748 661.4173,281.5748 623.622,281.5748 623.622,281.5748 623.622,319.3701 623.622,319.3701 661.4173,319.3701 661.4173,319.3701 661.4173,357.1654 661.4173,357.1654 699.2126,357.1654 699.2126,357.1654 699.2126,319.3701 699.2126,319.3701 699.2126,281.5748 699.2126,281.5748 699.2126,243.7795"/>
    <polyline points="699.2126,319.3701 661.4173,319.3701 661.4173,319.3701 661.4173,281.5748 661.4173,281.5748 699.2126,281.5748"/>
    <polyline points="678.44,261.4272 684.065,261.4272 684.065,261.4272 685.94,260.8022 685.94,260.8022 686.565,260.1772 686.565,260.1772 687.19,258.9272 687.19,258.9272 687.19,257.6772 687.19,257.6772 686.565,256.4272 686.565,256.4272 685.94,255.8022 685.94,255.8022 684.065,255.1772 684.065,255.1772 678.44,255.1772 678.44,255.1772 678.44,268.3022"/>
    <line x1="682.815" x2="687.19" y1="261.4272" y2="268.3022"/>
    <polyline points="737.0079,243.7795 737.0079,281.5748 737.0079,281.5748 774.8031,281.5748 774.8031,281.5748 774.8031,243.7795"/>
    <polyline points="762.7805,255.1772 762.7805,268.3022 762.7805,268.3022 754.0305,255.1772 754.0305,255.1772 754.0305,268.3022"/>
    <polyline points="81.8406,294.8474 80.5906,293.5974 80.5906,293.5974 78.7156,292.9724 78.7156,292.9724 76.2156,292.9724 76.2156,292.9724 74.3406,293.5974 74.3406,293.5974 73.0906,294.8474 73.0906,294.8474 73.0906,296.0974 73.0906,296.0974 73.7156,297.3474 73.7156,297.3474 74.3406,297.9724 74.3406,297.9724 75.5906,298.5974 75.5906,298.5974 79.3406,299.8474 79.3406,299.8474 80.5906,300.4724 80.5906,300.4724 81.2156,301.0974 81.2156,301.0974 81.8406,302.3474 81.8406,302.3474 81.8406,304.2224 81.8406,304.2224 80.5906,305.4724 80.5906,305.4724 78.7156,306.0974 78.7156,306.0974 76.2156,306.0974 76.2156,306.0974 74.3406,305.4724 74.3406,305.4724 73.0906,304.2224"/>
    <polyline points="173.8435,284.7441 174.4685,284.4316 174.4685,284.4316 175.406,283.4941 175.406,283.4941 175.406,290.0566"/>
    <polyline points="182.906,283.4941 179.781,283.4941 179.781,283.4941 179.4685,286.3066 179.4685,286.3066 179.781,285.9941 179.781,285.9941 180.7185,285.6816 180.7185,285.6816 181.656,285.6816 181.656,285.6816 182.5935,285.9941 182.5935,285.9941 183.2185,286.6191 183.2185,286.6191 183.531,287.5566 183.531,287.5566 183.531,288.1816 183.531,288.1816 183.2185,289.1191 183.2185,289.1191 182.5935,289.7441 182.5935,289.7441 181.656,290.0566 181.656,290.0566 180.7185,290.0566 180.7185,290.0566 179.781,289.7441 179.781,289.7441 179.4685,289.4316 179.4685,289.4316 179.156,288.8066"/>
    <polyline points="187.1014,299.2224 192.7264,299.2224 192.7264,299.2224 194.6014,298.5974 194.6014,298.5974 195.2264,297.9724 195.2264,297.9724 195.8514,296.7224 195.8514,296.7224 195.8514,295.4724 195.8514,295.4724 195.2264,294.2224 195.2264,294.2224 194.6014,293.5974 194.6014,293.5974 192.7264,292.9724 192.7264,292.9724 187.1014,292.9724 187.1014,292.9724 187.1014,306.0974"/>
    <line x1="191.4764" x2="195.8514" y1="299.2224" y2="306.0974"/>
    <polyline points="233.3342,292.9724 225.2092,292.9724 225.2092,292.9724 225.2092,306.0974 225.2092,306.0974 233.3342,306.0974"/>
    <line x1="225.2092" x2="230.2092" y1="299.2224" y2="299.2224"/>
    <line x1="262.6919" x2="262.6919" y1="292.9724" y2="306.0974"/>
    <line x1="271.4419" x2="262.6919" y1="292.9724" y2="301.7224"/>
    <line x1="265.8169" x2="271.4419" y1="298.5974" y2="306.0974"/>
    <line x1="300.4872" x2="300.4872" y1="292.9724" y2="306.0974"/>
    <line x1="309.2372" x2="300.4872" y1="292.9724" y2="301.7224"/>
    <line x1="303.6122" x2="309.2372" y1="298.5974" y2="306.0974"/>
    <polyline points="396.8504,319.3701 359.0551,319.3701 359.0551,319.3701 359.0551,357.1654 359.0551,357.1654 321.2598,357.1654 321.2598,357.1654 321.2598,319.3701 321.2598,319.3701 359.0551,319.3701 359.0551,319.3701 359.0551,281.5748 359.0551,281.5748 396.8504,281.5748 396.8504,281.5748 396.8504,319.3701 396.8504,319.3701 434.6457,319.3701 434.6457,319.3701 434.6457,281.5748 434.6457,281.5748 396.8504,281.5748"/>
    <polyline points="346.72,292.9724 338.595,292.9724 338.595,292.9724 338.595,306.0974 338.595,306.0974 346.72,306.0974"/>
    <line x1="338.595" x2="343.595" y1="299.2224" y2="299.2224"/>
    <polyline points="376.0778,299.2224 381.7028,299.2224 381.7028,299.2224 383.5778,298.5974 383.5778,298.5974 384.2028,297.9724 384.2028,297.9724 384.8278,296.7224 384.8278,296.7224 384.8278,295.4724 384.8278,295.4724 384.2028,294.2224 384.2028,294.2224 383.5778,293.5974 383.5778,293.5974 381.7028,292.9724 381.7028,292.9724 376.0778,292.9724 376.0778,292.9724 376.0778,306.0974"/>
    <line x1="380.4528" x2="384.8278" y1="299.2224" y2="306.0974"/>
    <line x1="416.373" x2="416.373" y1="292.9724" y2="306.0974"/>
    <line x1="411.998" x2="420.748" y1="292.9724" y2="292.9724"/>
    <polygon points="434.6457,319.3701 472.4409,319.3701 472.4409,319.3701 472.4409,281.5748 472.4409,281.5748 510.2362,281.5748 510.2362,281.5748 510.2362,319.3701 510.2362,319.3701 472.4409,319.3701 472.4409,319.3701 472.4409,357.1654 472.4409,357.1654 434.6457,357.1654 434.6457,357.1654"/>
    <polyline points="457.9183,292.9724 457.9183,302.9724 457.9183,302.9724 457.2933,304.8474 457.2933,304.8474 456.6683,305.4724 456.6683,305.4724 455.4183,306.0974 455.4183,306.0974 454.1683,306.0974 454.1683,306.0974 452.9183,305.4724 452.9183,305.4724 452.2933,304.8474 452.2933,304.8474 451.6683,302.9724 451.6683,302.9724 451.6683,301.7224"/>
    <polyline points="497.9011,292.9724 489.7761,292.9724 489.7761,292.9724 489.7761,306.0974 489.7761,306.0974 497.9011,306.0974"/>
    <line x1="489.7761" x2="494.7761" y1="299.2224" y2="299.2224"/>
    <polygon points="548.0315,281.5748 548.0315,319.3701 548.0315,319.3701 585.8268,319.3701 585.8268,319.3701 585.8268,281.5748 585.8268,281.5748"/>
    <polyline points="551.7963,284.7441 552.4213,284.4316 552.4213,284.4316 553.3588,283.4941 553.3588,283.4941 553.3588,290.0566"/>
    <polyline points="561.1713,284.4316 560.8588,283.8066 560.8588,283.8066 559.9213,283.4941 559.9213,283.4941 559.2963,283.4941 559.2963,283.4941 558.3588,283.8066 558.3588,283.8066 557.7338,284.7441 557.7338,284.7441 557.4213,286.3066 557.4213,286.3066 557.4213,287.8691 557.4213,287.8691 557.7338,289.1191 557.7338,289.1191 558.3588,289.7441 558.3588,289.7441 559.2963,290.0566 559.2963,290.0566 559.6088,290.0566 559.6088,290.0566 560.5463,289.7441 560.5463,289.7441 561.1713,289.1191 561.1713,289.1191 561.4838,288.1816 561.4838,288.1816 561.4838,287.8691 561.4838,287.8691 561.1713,286.9316 561.1713,286.9316 560.5463,286.3066 560.5463,286.3066 559.6088,285.9941 559.6088,285.9941 559.2963,285.9941 559.2963,285.9941 558.3588,286.3066 558.3588,286.3066 557.7338,286.9316 557.7338,286.9316 557.4213,287.8691"/>
    <polyline points="565.0541,299.8474 570.6791,299.8474 570.6791,299.8474 572.5541,299.2224 572.5541,299.2224 573.1791,298.5974 573.1791,298.5974 573.8041,297.3474 573.8041,297.3474 573.8041,295.4724 573.8041,295.4724 573.1791,294.2224 573.1791,294.2224 572.5541,293.5974 572.5541,293.5974 570.6791,292.9724 570.6791,292.9724 565.0541,292.9724 565.0541,292.9724 565.0541,306.0974"/>
    <line x1="585.8268" x2="623.622" y1="319.3701" y2="319.3701"/>
    <line x1="607.2244" x2="607.2244" y1="292.9724" y2="306.0974"/>
    <polyline points="640.6447,299.8474 646.2697,299.8474 646.2697,299.8474 648.1447,299.2224 648.1447,299.2224 648.7697,298.5974 648.7697,298.5974 649.3947,297.3474 649.3947,297.3474 649.3947,295.4724 649.3947,295.4724 648.7697,294.2224 648.7697,294.2224 648.1447,293.5974 648.1447,293.5974 646.2697,292.9724 646.2697,292.9724 640.6447,292.9724 640.6447,292.9724 640.6447,306.0974"/>
    <line x1="682.815" x2="682.815" y1="292.9724" y2="306.0974"/>
    <polyline points="233.6467,330.7677 233.6467,343.8927 233.6467,343.8927 224.8967,330.7677 224.8967,330.7677 224.8967,343.8927"/>
    <polyline points="347.0325,330.7677 347.0325,343.8927 347.0325,343.8927 338.2825,330.7677 338.2825,330.7677 338.2825,343.8927"/>
    <polyline points="460.4183,330.7677 460.4183,343.8927 460.4183,343.8927 451.6683,330.7677 451.6683,330.7677 451.6683,343.8927"/>
    <polyline points="685.94,343.8927 680.94,330.7677 680.94,330.7677 675.94,343.8927"/>
    <line x1="677.815" x2="684.065" y1="339.5177" y2="339.5177"/>
  </g>
</svg>
