<?xml version="1.0" encoding="utf-8" ?>
<svg xmlns="http://www.w3.org/2000/svg" xmlns:cc="http://creativecommons.org/ns" xmlns:dc="http://purl.org/dc/elements/1.1/" xmlns:ev="http://www.w3.org/2001/xml-events" xmlns:inkscape="http://www.inkscape.org/namespaces/inkscape" xmlns:rdf="http://www.w3.org/1999/02/22-rdf-syntax-ns" xmlns:sodipodi="http://sodipodi.sourceforge.net/DTD/sodipodi-0.dtd" xmlns:xlink="http://www.w3.org/1999/xlink" baseProfile="tiny" height="9.0cm" version="1.2" viewBox="0 0 793.7007874015749 340.15748031496065" width="21.0cm">
  <metadata>
    <rdf:RDF>
      <cc:Work>
        <dc:format>image/svg+xml</dc:format>
        <dc:source>vpype eval 'cell=10;width=210;height=99' eval 'nCols=21;nRows=9' eval 'cells=[2,3,4,5,6,7,10,13,14,15,16,17,18,19,24,30,32,34,36,41,44,46,47,48,49,50,51,52,53,54,57,59,60,61,62,63,64,65,70,72,74,77,79,81,84,88,89,90,91,94,97,99,100,101,102,103,104,105,106,107,110,114,117,119,121,124,130,134,137,139,141,143,144,145,146,147,148,149,150,151,153,154,155,156,157,158,159,164,170,177]' eval 'chars=[&quot;S&quot;,&quot;T&quot;,&quot;U&quot;,&quot;A&quot;,&quot;R&quot;,&quot;T&quot;,&quot;M&quot;,&quot;V&quot;,&quot;R&quot;,&quot;I&quot;,&quot;J&quot;,&quot;D&quot;,&quot;A&quot;,&quot;G&quot;,&quot;I&quot;,&quot;A&quot;,&quot;Z&quot;,&quot;E&quot;,&quot;A&quot;,&quot;T&quot;,&quot;T&quot;,&quot;R&quot;,&quot;E&quot;,&quot;G&quot;,&quot;E&quot;,&quot;N&quot;,&quot;B&quot;,&quot;O&quot;,&quot;O&quot;,&quot;G&quot;,&quot;R&quot;,&quot;L&quot;,&quot;V&quot;,&quot;E&quot;,&quot;E&quot;,&quot;R&quot;,&quot;L&quot;,&quot;E&quot;,&quot;D&quot;,&quot;N&quot;,&quot;E&quot;,&quot;E&quot;,&quot;A&quot;,&quot;R&quot;,&quot;I&quot;,&quot;G&quot;,&quot;R&quot;,&quot;A&quot;,&quot;S&quot;,&quot;N&quot;,&quot;S&quot;,&quot;K&quot;,&quot;B&quot;,&quot;R&quot;,&quot;O&quot;,&quot;E&quot;,&quot;K&quot;,&quot;Z&quot;,&quot;A&quot;,&quot;K&quot;,&quot;R&quot;,&quot;B&quot;,&quot;T&quot;,&quot;E&quot;,&quot;A&quot;,&quot;K&quot;,&quot;I&quot;,&quot;U&quot;,&quot;J&quot;,&quot;N&quot;,&quot;S&quot;,&quot;R&quot;,&quot;E&quot;,&quot;K&quot;,&quot;K&quot;,&quot;E&quot;,&quot;R&quot;,&quot;T&quot;,&quot;J&quot;,&quot;E&quot;,&quot;P&quot;,&quot;I&quot;,&quot;N&quot;,&quot;K&quot;,&quot;E&quot;,&quot;R&quot;,&quot;S&quot;,&quot;N&quot;,&quot;N&quot;,&quot;S&quot;]' eval 'numbers=[2,4,10,13,14,16,32,41,46,57,59,60,88,100,143,153]' eval counter=1 eval charIndex=0 begin grid -o '%cell*mm%' '%cell*mm%' %nCols% %nRows% eval '%isCell=_i in cells%' eval '%number=_i in numbers%' eval '%size=10 if isCell else 0%' rect 0 0 '%size*mm%' '%size*mm%' text -s 8 -p 0.5mm 1.5mm '%counter if number else '&quot;'&quot;''&quot;'&quot;'%' text -s 20 -p 5mm 5mm -a center '%chars[charIndex] if isCell else '&quot;'&quot;''&quot;'&quot;'%' eval '%if number: counter+=1 %' eval '%if isCell: charIndex+=1 %' end write ./svgs/solution/29329c.svg
</dc:source>
        <dc:date>2023-12-20T21:39:18.422390</dc:date>
      </cc:Work>
    </rdf:RDF>
  </metadata>
  <defs/>
  <g fill="none" id="layer1" inkscape:groupmode="layer" inkscape:label="1" stroke="#0000ff" style="display:inline">
    <polygon points="0.0,0.0 0.0,0.0 0.0,0.0 0.0,0.0"/>
    <polygon points="37.7953,0.0 37.7953,0.0 37.7953,0.0 37.7953,0.0"/>
    <polygon points="75.5906,0.0 75.5906,37.7953 113.3858,37.7953 113.3858,0.0"/>
    <polyline points="78.9803,3.6693 79.4803,3.4193 80.2303,2.6693 80.2303,7.9193"/>
    <polyline points="100.7382,13.2726 99.4882,12.0226 97.6132,11.3976 95.1132,11.3976 93.2382,12.0226 91.9882,13.2726 91.9882,14.5226 92.6132,15.7726 93.2382,16.3976 94.4882,17.0226 98.2382,18.2726 99.4882,18.8976 100.1132,19.5226 100.7382,20.7726 100.7382,22.6476 99.4882,23.8976 97.6132,24.5226 95.1132,24.5226 93.2382,23.8976 91.9882,22.6476"/>
    <polygon points="113.3858,0.0 113.3858,37.7953 151.1811,37.7953 151.1811,0.0"/>
    <line x1="132.9085" x2="132.9085" y1="11.3976" y2="24.5226"/>
    <line x1="128.5335" x2="137.2835" y1="11.3976" y2="11.3976"/>
    <polygon points="151.1811,0.0 151.1811,37.7953 188.9764,37.7953 188.9764,0.0"/>
    <polyline points="154.0709,3.9193 154.0709,3.6693 154.3209,3.1693 154.5709,2.9193 155.0709,2.6693 156.0709,2.6693 156.5709,2.9193 156.8209,3.1693 157.0709,3.6693 157.0709,4.1693 156.8209,4.6693 156.3209,5.4193 153.8209,7.9193 157.3209,7.9193"/>
    <polyline points="168.2037,11.3976 168.2037,20.7726 168.8287,22.6476 170.0787,23.8976 171.9537,24.5226 173.2037,24.5226 175.0787,23.8976 176.3287,22.6476 176.9537,20.7726 176.9537,11.3976"/>
    <polygon points="188.9764,0.0 188.9764,37.7953 226.7717,37.7953 226.7717,0.0"/>
    <line x1="208.499" x2="203.499" y1="11.3976" y2="24.5226"/>
    <line x1="208.499" x2="213.499" y1="11.3976" y2="24.5226"/>
    <line x1="205.374" x2="211.624" y1="20.1476" y2="20.1476"/>
    <polygon points="226.7717,0.0 226.7717,37.7953 264.5669,37.7953 264.5669,0.0"/>
    <line x1="243.7943" x2="243.7943" y1="11.3976" y2="24.5226"/>
    <polyline points="243.7943,11.3976 249.4193,11.3976 251.2943,12.0226 251.9193,12.6476 252.5443,13.8976 252.5443,15.1476 251.9193,16.3976 251.2943,17.0226 249.4193,17.6476 243.7943,17.6476"/>
    <line x1="248.1693" x2="252.5443" y1="17.6476" y2="24.5226"/>
    <polygon points="264.5669,0.0 264.5669,37.7953 302.3622,37.7953 302.3622,0.0"/>
    <line x1="284.0896" x2="284.0896" y1="11.3976" y2="24.5226"/>
    <line x1="279.7146" x2="288.4646" y1="11.3976" y2="11.3976"/>
    <polygon points="302.3622,0.0 302.3622,0.0 302.3622,0.0 302.3622,0.0"/>
    <polygon points="340.1575,0.0 340.1575,0.0 340.1575,0.0 340.1575,0.0"/>
    <polygon points="377.9528,0.0 377.9528,37.7953 415.748,37.7953 415.748,0.0"/>
    <polyline points="381.0925,2.6693 383.8425,2.6693 382.3425,4.6693 383.0925,4.6693 383.5925,4.9193 383.8425,5.1693 384.0925,5.9193 384.0925,6.4193 383.8425,7.1693 383.3425,7.6693 382.5925,7.9193 381.8425,7.9193 381.0925,7.6693 380.8425,7.4193 380.5925,6.9193"/>
    <line x1="394.3504" x2="394.3504" y1="11.3976" y2="24.5226"/>
    <line x1="394.3504" x2="399.3504" y1="11.3976" y2="24.5226"/>
    <line x1="404.3504" x2="399.3504" y1="11.3976" y2="24.5226"/>
    <line x1="404.3504" x2="404.3504" y1="11.3976" y2="24.5226"/>
    <polygon points="415.748,0.0 415.748,0.0 415.748,0.0 415.748,0.0"/>
    <polygon points="453.5433,0.0 453.5433,0.0 453.5433,0.0 453.5433,0.0"/>
    <polygon points="491.3386,0.0 491.3386,37.7953 529.1339,37.7953 529.1339,0.0"/>
    <polyline points="496.4783,2.6693 493.9783,6.1693 497.7283,6.1693"/>
    <line x1="496.4783" x2="496.4783" y1="2.6693" y2="7.9193"/>
    <line x1="505.8612" x2="510.8612" y1="11.3976" y2="24.5226"/>
    <line x1="515.8612" x2="510.8612" y1="11.3976" y2="24.5226"/>
    <polygon points="529.1339,0.0 529.1339,37.7953 566.9291,37.7953 566.9291,0.0"/>
    <polyline points="534.7736,2.6693 532.2736,2.6693 532.0236,4.9193 532.2736,4.6693 533.0236,4.4193 533.7736,4.4193 534.5236,4.6693 535.0236,5.1693 535.2736,5.9193 535.2736,6.4193 535.0236,7.1693 534.5236,7.6693 533.7736,7.9193 533.0236,7.9193 532.2736,7.6693 532.0236,7.4193 531.7736,6.9193"/>
    <line x1="546.1565" x2="546.1565" y1="11.3976" y2="24.5226"/>
    <polyline points="546.1565,11.3976 551.7815,11.3976 553.6565,12.0226 554.2815,12.6476 554.9065,13.8976 554.9065,15.1476 554.2815,16.3976 553.6565,17.0226 551.7815,17.6476 546.1565,17.6476"/>
    <line x1="550.5315" x2="554.9065" y1="17.6476" y2="24.5226"/>
    <polygon points="566.9291,0.0 566.9291,37.7953 604.7244,37.7953 604.7244,0.0"/>
    <line x1="588.3268" x2="588.3268" y1="11.3976" y2="24.5226"/>
    <polygon points="604.7244,0.0 604.7244,37.7953 642.5197,37.7953 642.5197,0.0"/>
    <polyline points="610.6142,3.4193 610.3642,2.9193 609.6142,2.6693 609.1142,2.6693 608.3642,2.9193 607.8642,3.6693 607.6142,4.9193 607.6142,6.1693 607.8642,7.1693 608.3642,7.6693 609.1142,7.9193 609.3642,7.9193 610.1142,7.6693 610.6142,7.1693 610.8642,6.4193 610.8642,6.1693 610.6142,5.4193 610.1142,4.9193 609.3642,4.6693 609.1142,4.6693 608.3642,4.9193 607.8642,5.4193 607.6142,6.1693"/>
    <polyline points="627.997,11.3976 627.997,21.3976 627.372,23.2726 626.747,23.8976 625.497,24.5226 624.247,24.5226 622.997,23.8976 622.372,23.2726 621.747,21.3976 621.747,20.1476"/>
    <polygon points="642.5197,0.0 642.5197,37.7953 680.315,37.7953 680.315,0.0"/>
    <line x1="659.5423" x2="659.5423" y1="11.3976" y2="24.5226"/>
    <polyline points="659.5423,11.3976 663.9173,11.3976 665.7923,12.0226 667.0423,13.2726 667.6673,14.5226 668.2923,16.3976 668.2923,19.5226 667.6673,21.3976 667.0423,22.6476 665.7923,23.8976 663.9173,24.5226 659.5423,24.5226"/>
    <polygon points="680.315,0.0 680.315,37.7953 718.1102,37.7953 718.1102,0.0"/>
    <line x1="699.8376" x2="694.8376" y1="11.3976" y2="24.5226"/>
    <line x1="699.8376" x2="704.8376" y1="11.3976" y2="24.5226"/>
    <line x1="696.7126" x2="702.9626" y1="20.1476" y2="20.1476"/>
    <polygon points="718.1102,0.0 718.1102,37.7953 755.9055,37.7953 755.9055,0.0"/>
    <polyline points="743.5704,14.5226 742.9454,13.2726 741.6954,12.0226 740.4454,11.3976 737.9454,11.3976 736.6954,12.0226 735.4454,13.2726 734.8204,14.5226 734.1954,16.3976 734.1954,19.5226 734.8204,21.3976 735.4454,22.6476 736.6954,23.8976 737.9454,24.5226 740.4454,24.5226 741.6954,23.8976 742.9454,22.6476 743.5704,21.3976 743.5704,19.5226"/>
    <line x1="740.4454" x2="743.5704" y1="19.5226" y2="19.5226"/>
    <polygon points="755.9055,0.0 755.9055,0.0 755.9055,0.0 755.9055,0.0"/>
    <polygon points="0.0,37.7953 0.0,37.7953 0.0,37.7953 0.0,37.7953"/>
    <polygon points="37.7953,37.7953 37.7953,37.7953 37.7953,37.7953 37.7953,37.7953"/>
    <polygon points="75.5906,37.7953 75.5906,37.7953 75.5906,37.7953 75.5906,37.7953"/>
    <polygon points="113.3858,37.7953 113.3858,75.5906 151.1811,75.5906 151.1811,37.7953"/>
    <line x1="134.7835" x2="134.7835" y1="49.1929" y2="62.3179"/>
    <polygon points="151.1811,37.7953 151.1811,37.7953 151.1811,37.7953 151.1811,37.7953"/>
    <polygon points="188.9764,37.7953 188.9764,37.7953 188.9764,37.7953 188.9764,37.7953"/>
    <polygon points="226.7717,37.7953 226.7717,37.7953 226.7717,37.7953 226.7717,37.7953"/>
    <polygon points="264.5669,37.7953 264.5669,37.7953 264.5669,37.7953 264.5669,37.7953"/>
    <polygon points="302.3622,37.7953 302.3622,37.7953 302.3622,37.7953 302.3622,37.7953"/>
    <polygon points="340.1575,37.7953 340.1575,75.5906 377.9528,75.5906 377.9528,37.7953"/>
    <line x1="359.6801" x2="354.6801" y1="49.1929" y2="62.3179"/>
    <line x1="359.6801" x2="364.6801" y1="49.1929" y2="62.3179"/>
    <line x1="356.5551" x2="362.8051" y1="57.9429" y2="57.9429"/>
    <polygon points="377.9528,37.7953 377.9528,37.7953 377.9528,37.7953 377.9528,37.7953"/>
    <polygon points="415.748,37.7953 415.748,75.5906 453.5433,75.5906 453.5433,37.7953"/>
    <line x1="421.8878" x2="419.3878" y1="40.4646" y2="45.7146"/>
    <line x1="418.3878" x2="421.8878" y1="40.4646" y2="40.4646"/>
    <line x1="440.8957" x2="432.1457" y1="49.1929" y2="62.3179"/>
    <line x1="432.1457" x2="440.8957" y1="49.1929" y2="49.1929"/>
    <line x1="432.1457" x2="440.8957" y1="62.3179" y2="62.3179"/>
    <polygon points="453.5433,37.7953 453.5433,37.7953 453.5433,37.7953 453.5433,37.7953"/>
    <polygon points="491.3386,37.7953 491.3386,75.5906 529.1339,75.5906 529.1339,37.7953"/>
    <line x1="508.6737" x2="508.6737" y1="49.1929" y2="62.3179"/>
    <line x1="508.6737" x2="516.7987" y1="49.1929" y2="49.1929"/>
    <line x1="508.6737" x2="513.6737" y1="55.4429" y2="55.4429"/>
    <line x1="508.6737" x2="516.7987" y1="62.3179" y2="62.3179"/>
    <polygon points="529.1339,37.7953 529.1339,37.7953 529.1339,37.7953 529.1339,37.7953"/>
    <polygon points="566.9291,37.7953 566.9291,75.5906 604.7244,75.5906 604.7244,37.7953"/>
    <line x1="586.4518" x2="581.4518" y1="49.1929" y2="62.3179"/>
    <line x1="586.4518" x2="591.4518" y1="49.1929" y2="62.3179"/>
    <line x1="583.3268" x2="589.5768" y1="57.9429" y2="57.9429"/>
    <polygon points="604.7244,37.7953 604.7244,37.7953 604.7244,37.7953 604.7244,37.7953"/>
    <polygon points="642.5197,37.7953 642.5197,37.7953 642.5197,37.7953 642.5197,37.7953"/>
    <polygon points="680.315,37.7953 680.315,37.7953 680.315,37.7953 680.315,37.7953"/>
    <polygon points="718.1102,37.7953 718.1102,37.7953 718.1102,37.7953 718.1102,37.7953"/>
    <polygon points="755.9055,37.7953 755.9055,75.5906 793.7008,75.5906 793.7008,37.7953"/>
    <polygon points="759.7953,40.4646 759.0453,40.7146 758.7953,41.2146 758.7953,41.7146 759.0453,42.2146 759.5453,42.4646 760.5453,42.7146 761.2953,42.9646 761.7953,43.4646 762.0453,43.9646 762.0453,44.7146 761.7953,45.2146 761.5453,45.4646 760.7953,45.7146 759.7953,45.7146 759.0453,45.4646 758.7953,45.2146 758.5453,44.7146 758.5453,43.9646 758.7953,43.4646 759.2953,42.9646 760.0453,42.7146 761.0453,42.4646 761.5453,42.2146 761.7953,41.7146 761.7953,41.2146 761.5453,40.7146 760.7953,40.4646"/>
    <line x1="775.4281" x2="775.4281" y1="49.1929" y2="62.3179"/>
    <line x1="771.0531" x2="779.8031" y1="49.1929" y2="49.1929"/>
    <polygon points="0.0,75.5906 0.0,75.5906 0.0,75.5906 0.0,75.5906"/>
    <polygon points="37.7953,75.5906 37.7953,75.5906 37.7953,75.5906 37.7953,75.5906"/>
    <polygon points="75.5906,75.5906 75.5906,113.3858 113.3858,113.3858 113.3858,75.5906"/>
    <line x1="95.1132" x2="95.1132" y1="86.9882" y2="100.1132"/>
    <line x1="90.7382" x2="99.4882" y1="86.9882" y2="86.9882"/>
    <polygon points="113.3858,75.5906 113.3858,75.5906 113.3858,75.5906 113.3858,75.5906"/>
    <polygon points="151.1811,75.5906 151.1811,113.3858 188.9764,113.3858 188.9764,75.5906"/>
    <polyline points="157.0709,80.0098 156.8209,80.7598 156.3209,81.2598 155.5709,81.5098 155.3209,81.5098 154.5709,81.2598 154.0709,80.7598 153.8209,80.0098 153.8209,79.7598 154.0709,79.0098 154.5709,78.5098 155.3209,78.2598 155.5709,78.2598 156.3209,78.5098 156.8209,79.0098 157.0709,80.0098 157.0709,81.2598 156.8209,82.5098 156.3209,83.2598 155.5709,83.5098 155.0709,83.5098 154.3209,83.2598 154.0709,82.7598"/>
    <line x1="168.2037" x2="168.2037" y1="86.9882" y2="100.1132"/>
    <polyline points="168.2037,86.9882 173.8287,86.9882 175.7037,87.6132 176.3287,88.2382 176.9537,89.4882 176.9537,90.7382 176.3287,91.9882 175.7037,92.6132 173.8287,93.2382 168.2037,93.2382"/>
    <line x1="172.5787" x2="176.9537" y1="93.2382" y2="100.1132"/>
    <polygon points="188.9764,75.5906 188.9764,113.3858 226.7717,113.3858 226.7717,75.5906"/>
    <line x1="206.3115" x2="206.3115" y1="86.9882" y2="100.1132"/>
    <line x1="206.3115" x2="214.4365" y1="86.9882" y2="86.9882"/>
    <line x1="206.3115" x2="211.3115" y1="93.2382" y2="93.2382"/>
    <line x1="206.3115" x2="214.4365" y1="100.1132" y2="100.1132"/>
    <polygon points="226.7717,75.5906 226.7717,113.3858 264.5669,113.3858 264.5669,75.5906"/>
    <polyline points="252.2318,90.1132 251.6068,88.8632 250.3568,87.6132 249.1068,86.9882 246.6068,86.9882 245.3568,87.6132 244.1068,88.8632 243.4818,90.1132 242.8568,91.9882 242.8568,95.1132 243.4818,96.9882 244.1068,98.2382 245.3568,99.4882 246.6068,100.1132 249.1068,100.1132 250.3568,99.4882 251.6068,98.2382 252.2318,96.9882 252.2318,95.1132"/>
    <line x1="249.1068" x2="252.2318" y1="95.1132" y2="95.1132"/>
    <polygon points="264.5669,75.5906 264.5669,113.3858 302.3622,113.3858 302.3622,75.5906"/>
    <line x1="281.9021" x2="281.9021" y1="86.9882" y2="100.1132"/>
    <line x1="281.9021" x2="290.0271" y1="86.9882" y2="86.9882"/>
    <line x1="281.9021" x2="286.9021" y1="93.2382" y2="93.2382"/>
    <line x1="281.9021" x2="290.0271" y1="100.1132" y2="100.1132"/>
    <polygon points="302.3622,75.5906 302.3622,113.3858 340.1575,113.3858 340.1575,75.5906"/>
    <line x1="319.3848" x2="319.3848" y1="86.9882" y2="100.1132"/>
    <line x1="319.3848" x2="328.1348" y1="86.9882" y2="100.1132"/>
    <line x1="328.1348" x2="328.1348" y1="86.9882" y2="100.1132"/>
    <polygon points="340.1575,75.5906 340.1575,113.3858 377.9528,113.3858 377.9528,75.5906"/>
    <line x1="357.1801" x2="357.1801" y1="86.9882" y2="100.1132"/>
    <polyline points="357.1801,86.9882 362.8051,86.9882 364.6801,87.6132 365.3051,88.2382 365.9301,89.4882 365.9301,90.7382 365.3051,91.9882 364.6801,92.6132 362.8051,93.2382"/>
    <polyline points="357.1801,93.2382 362.8051,93.2382 364.6801,93.8632 365.3051,94.4882 365.9301,95.7382 365.9301,97.6132 365.3051,98.8632 364.6801,99.4882 362.8051,100.1132 357.1801,100.1132"/>
    <polygon points="377.9528,75.5906 377.9528,113.3858 415.748,113.3858 415.748,75.5906"/>
    <polygon points="397.4754,86.9882 396.2254,87.6132 394.9754,88.8632 394.3504,90.1132 393.7254,91.9882 393.7254,95.1132 394.3504,96.9882 394.9754,98.2382 396.2254,99.4882 397.4754,100.1132 399.9754,100.1132 401.2254,99.4882 402.4754,98.2382 403.1004,96.9882 403.7254,95.1132 403.7254,91.9882 403.1004,90.1132 402.4754,88.8632 401.2254,87.6132 399.9754,86.9882"/>
    <polygon points="415.748,75.5906 415.748,113.3858 453.5433,113.3858 453.5433,75.5906"/>
    <polygon points="435.2707,86.9882 434.0207,87.6132 432.7707,88.8632 432.1457,90.1132 431.5207,91.9882 431.5207,95.1132 432.1457,96.9882 432.7707,98.2382 434.0207,99.4882 435.2707,100.1132 437.7707,100.1132 439.0207,99.4882 440.2707,98.2382 440.8957,96.9882 441.5207,95.1132 441.5207,91.9882 440.8957,90.1132 440.2707,88.8632 439.0207,87.6132 437.7707,86.9882"/>
    <polygon points="453.5433,75.5906 453.5433,113.3858 491.3386,113.3858 491.3386,75.5906"/>
    <polyline points="479.0034,90.1132 478.3784,88.8632 477.1284,87.6132 475.8784,86.9882 473.3784,86.9882 472.1284,87.6132 470.8784,88.8632 470.2534,90.1132 469.6284,91.9882 469.6284,95.1132 470.2534,96.9882 470.8784,98.2382 472.1284,99.4882 473.3784,100.1132 475.8784,100.1132 477.1284,99.4882 478.3784,98.2382 479.0034,96.9882 479.0034,95.1132"/>
    <line x1="475.8784" x2="479.0034" y1="95.1132" y2="95.1132"/>
    <polygon points="491.3386,75.5906 491.3386,75.5906 491.3386,75.5906 491.3386,75.5906"/>
    <polygon points="529.1339,75.5906 529.1339,75.5906 529.1339,75.5906 529.1339,75.5906"/>
    <polygon points="566.9291,75.5906 566.9291,113.3858 604.7244,113.3858 604.7244,75.5906"/>
    <polyline points="570.3189,79.2598 570.8189,79.0098 571.5689,78.2598 571.5689,83.5098"/>
    <polygon points="576.0689,78.2598 575.3189,78.5098 574.8189,79.2598 574.5689,80.5098 574.5689,81.2598 574.8189,82.5098 575.3189,83.2598 576.0689,83.5098 576.5689,83.5098 577.3189,83.2598 577.8189,82.5098 578.0689,81.2598 578.0689,80.5098 577.8189,79.2598 577.3189,78.5098 576.5689,78.2598"/>
    <line x1="583.9518" x2="583.9518" y1="86.9882" y2="100.1132"/>
    <polyline points="583.9518,86.9882 589.5768,86.9882 591.4518,87.6132 592.0768,88.2382 592.7018,89.4882 592.7018,90.7382 592.0768,91.9882 591.4518,92.6132 589.5768,93.2382 583.9518,93.2382"/>
    <line x1="588.3268" x2="592.7018" y1="93.2382" y2="100.1132"/>
    <polygon points="604.7244,75.5906 604.7244,75.5906 604.7244,75.5906 604.7244,75.5906"/>
    <polygon points="642.5197,75.5906 642.5197,113.3858 680.315,113.3858 680.315,75.5906"/>
    <polyline points="645.9094,79.2598 646.4094,79.0098 647.1594,78.2598 647.1594,83.5098"/>
    <polyline points="650.9094,79.2598 651.4094,79.0098 652.1594,78.2598 652.1594,83.5098"/>
    <line x1="660.1673" x2="660.1673" y1="86.9882" y2="100.1132"/>
    <line x1="660.1673" x2="667.6673" y1="100.1132" y2="100.1132"/>
    <polygon points="680.315,75.5906 680.315,113.3858 718.1102,113.3858 718.1102,75.5906"/>
    <polyline points="683.7047,79.2598 684.2047,79.0098 684.9547,78.2598 684.9547,83.5098"/>
    <polyline points="688.2047,79.5098 688.2047,79.2598 688.4547,78.7598 688.7047,78.5098 689.2047,78.2598 690.2047,78.2598 690.7047,78.5098 690.9547,78.7598 691.2047,79.2598 691.2047,79.7598 690.9547,80.2598 690.4547,81.0098 687.9547,83.5098 691.4547,83.5098"/>
    <line x1="694.8376" x2="699.8376" y1="86.9882" y2="100.1132"/>
    <line x1="704.8376" x2="699.8376" y1="86.9882" y2="100.1132"/>
    <polygon points="718.1102,75.5906 718.1102,113.3858 755.9055,113.3858 755.9055,75.5906"/>
    <line x1="735.4454" x2="735.4454" y1="86.9882" y2="100.1132"/>
    <line x1="735.4454" x2="743.5704" y1="86.9882" y2="86.9882"/>
    <line x1="735.4454" x2="740.4454" y1="93.2382" y2="93.2382"/>
    <line x1="735.4454" x2="743.5704" y1="100.1132" y2="100.1132"/>
    <polygon points="755.9055,75.5906 755.9055,113.3858 793.7008,113.3858 793.7008,75.5906"/>
    <line x1="773.2406" x2="773.2406" y1="86.9882" y2="100.1132"/>
    <line x1="773.2406" x2="781.3656" y1="86.9882" y2="86.9882"/>
    <line x1="773.2406" x2="778.2406" y1="93.2382" y2="93.2382"/>
    <line x1="773.2406" x2="781.3656" y1="100.1132" y2="100.1132"/>
    <polygon points="0.0,113.3858 0.0,151.1811 37.7953,151.1811 37.7953,113.3858"/>
    <line x1="17.0226" x2="17.0226" y1="124.7835" y2="137.9085"/>
    <polyline points="17.0226,124.7835 22.6476,124.7835 24.5226,125.4085 25.1476,126.0335 25.7726,127.2835 25.7726,128.5335 25.1476,129.7835 24.5226,130.4085 22.6476,131.0335 17.0226,131.0335"/>
    <line x1="21.3976" x2="25.7726" y1="131.0335" y2="137.9085"/>
    <polygon points="37.7953,113.3858 37.7953,151.1811 75.5906,151.1811 75.5906,113.3858"/>
    <line x1="55.4429" x2="55.4429" y1="124.7835" y2="137.9085"/>
    <line x1="55.4429" x2="62.9429" y1="137.9085" y2="137.9085"/>
    <polygon points="75.5906,113.3858 75.5906,151.1811 113.3858,151.1811 113.3858,113.3858"/>
    <line x1="92.9257" x2="92.9257" y1="124.7835" y2="137.9085"/>
    <line x1="92.9257" x2="101.0507" y1="124.7835" y2="124.7835"/>
    <line x1="92.9257" x2="97.9257" y1="131.0335" y2="131.0335"/>
    <line x1="92.9257" x2="101.0507" y1="137.9085" y2="137.9085"/>
    <polygon points="113.3858,113.3858 113.3858,113.3858 113.3858,113.3858 113.3858,113.3858"/>
    <polygon points="151.1811,113.3858 151.1811,113.3858 151.1811,113.3858 151.1811,113.3858"/>
    <polygon points="188.9764,113.3858 188.9764,113.3858 188.9764,113.3858 188.9764,113.3858"/>
    <polygon points="226.7717,113.3858 226.7717,113.3858 226.7717,113.3858 226.7717,113.3858"/>
    <polygon points="264.5669,113.3858 264.5669,151.1811 302.3622,151.1811 302.3622,113.3858"/>
    <line x1="281.5896" x2="281.5896" y1="124.7835" y2="137.9085"/>
    <polyline points="281.5896,124.7835 285.9646,124.7835 287.8396,125.4085 289.0896,126.6585 289.7146,127.9085 290.3396,129.7835 290.3396,132.9085 289.7146,134.7835 289.0896,136.0335 287.8396,137.2835 285.9646,137.9085 281.5896,137.9085"/>
    <polygon points="302.3622,113.3858 302.3622,113.3858 302.3622,113.3858 302.3622,113.3858"/>
    <polygon points="340.1575,113.3858 340.1575,151.1811 377.9528,151.1811 377.9528,113.3858"/>
    <line x1="357.1801" x2="357.1801" y1="124.7835" y2="137.9085"/>
    <line x1="357.1801" x2="365.9301" y1="124.7835" y2="137.9085"/>
    <line x1="365.9301" x2="365.9301" y1="124.7835" y2="137.9085"/>
    <polygon points="377.9528,113.3858 377.9528,113.3858 377.9528,113.3858 377.9528,113.3858"/>
    <polygon points="415.748,113.3858 415.748,151.1811 453.5433,151.1811 453.5433,113.3858"/>
    <line x1="433.0832" x2="433.0832" y1="124.7835" y2="137.9085"/>
    <line x1="433.0832" x2="441.2082" y1="124.7835" y2="124.7835"/>
    <line x1="433.0832" x2="438.0832" y1="131.0335" y2="131.0335"/>
    <line x1="433.0832" x2="441.2082" y1="137.9085" y2="137.9085"/>
    <polygon points="453.5433,113.3858 453.5433,113.3858 453.5433,113.3858 453.5433,113.3858"/>
    <polygon points="491.3386,113.3858 491.3386,113.3858 491.3386,113.3858 491.3386,113.3858"/>
    <polygon points="529.1339,113.3858 529.1339,151.1811 566.9291,151.1811 566.9291,113.3858"/>
    <line x1="546.469" x2="546.469" y1="124.7835" y2="137.9085"/>
    <line x1="546.469" x2="554.594" y1="124.7835" y2="124.7835"/>
    <line x1="546.469" x2="551.469" y1="131.0335" y2="131.0335"/>
    <line x1="546.469" x2="554.594" y1="137.9085" y2="137.9085"/>
    <polygon points="566.9291,113.3858 566.9291,113.3858 566.9291,113.3858 566.9291,113.3858"/>
    <polygon points="604.7244,113.3858 604.7244,151.1811 642.5197,151.1811 642.5197,113.3858"/>
    <line x1="624.247" x2="619.247" y1="124.7835" y2="137.9085"/>
    <line x1="624.247" x2="629.247" y1="124.7835" y2="137.9085"/>
    <line x1="621.122" x2="627.372" y1="133.5335" y2="133.5335"/>
    <polygon points="642.5197,113.3858 642.5197,113.3858 642.5197,113.3858 642.5197,113.3858"/>
    <polygon points="680.315,113.3858 680.315,151.1811 718.1102,151.1811 718.1102,113.3858"/>
    <line x1="697.3376" x2="697.3376" y1="124.7835" y2="137.9085"/>
    <polyline points="697.3376,124.7835 702.9626,124.7835 704.8376,125.4085 705.4626,126.0335 706.0876,127.2835 706.0876,128.5335 705.4626,129.7835 704.8376,130.4085 702.9626,131.0335 697.3376,131.0335"/>
    <line x1="701.7126" x2="706.0876" y1="131.0335" y2="137.9085"/>
    <polygon points="718.1102,113.3858 718.1102,113.3858 718.1102,113.3858 718.1102,113.3858"/>
    <polygon points="755.9055,113.3858 755.9055,113.3858 755.9055,113.3858 755.9055,113.3858"/>
    <polygon points="0.0,151.1811 0.0,188.9764 37.7953,188.9764 37.7953,151.1811"/>
    <line x1="21.3976" x2="21.3976" y1="162.5787" y2="175.7037"/>
    <polygon points="37.7953,151.1811 37.7953,151.1811 37.7953,151.1811 37.7953,151.1811"/>
    <polygon points="75.5906,151.1811 75.5906,151.1811 75.5906,151.1811 75.5906,151.1811"/>
    <polygon points="113.3858,151.1811 113.3858,151.1811 113.3858,151.1811 113.3858,151.1811"/>
    <polygon points="151.1811,151.1811 151.1811,188.9764 188.9764,188.9764 188.9764,151.1811"/>
    <polyline points="154.5709,154.8504 155.0709,154.6004 155.8209,153.8504 155.8209,159.1004"/>
    <polyline points="159.3209,153.8504 162.0709,153.8504 160.5709,155.8504 161.3209,155.8504 161.8209,156.1004 162.0709,156.3504 162.3209,157.1004 162.3209,157.6004 162.0709,158.3504 161.5709,158.8504 160.8209,159.1004 160.0709,159.1004 159.3209,158.8504 159.0709,158.6004 158.8209,158.1004"/>
    <polyline points="176.6412,165.7037 176.0162,164.4537 174.7662,163.2037 173.5162,162.5787 171.0162,162.5787 169.7662,163.2037 168.5162,164.4537 167.8912,165.7037 167.2662,167.5787 167.2662,170.7037 167.8912,172.5787 168.5162,173.8287 169.7662,175.0787 171.0162,175.7037 173.5162,175.7037 174.7662,175.0787 176.0162,173.8287 176.6412,172.5787 176.6412,170.7037"/>
    <line x1="173.5162" x2="176.6412" y1="170.7037" y2="170.7037"/>
    <polygon points="188.9764,151.1811 188.9764,188.9764 226.7717,188.9764 226.7717,151.1811"/>
    <line x1="205.999" x2="205.999" y1="162.5787" y2="175.7037"/>
    <polyline points="205.999,162.5787 211.624,162.5787 213.499,163.2037 214.124,163.8287 214.749,165.0787 214.749,166.3287 214.124,167.5787 213.499,168.2037 211.624,168.8287 205.999,168.8287"/>
    <line x1="210.374" x2="214.749" y1="168.8287" y2="175.7037"/>
    <polygon points="226.7717,151.1811 226.7717,188.9764 264.5669,188.9764 264.5669,151.1811"/>
    <line x1="246.2943" x2="241.2943" y1="162.5787" y2="175.7037"/>
    <line x1="246.2943" x2="251.2943" y1="162.5787" y2="175.7037"/>
    <line x1="243.1693" x2="249.4193" y1="171.3287" y2="171.3287"/>
    <polygon points="264.5669,151.1811 264.5669,188.9764 302.3622,188.9764 302.3622,151.1811"/>
    <polyline points="289.7146,164.4537 288.4646,163.2037 286.5896,162.5787 284.0896,162.5787 282.2146,163.2037 280.9646,164.4537 280.9646,165.7037 281.5896,166.9537 282.2146,167.5787 283.4646,168.2037 287.2146,169.4537 288.4646,170.0787 289.0896,170.7037 289.7146,171.9537 289.7146,173.8287 288.4646,175.0787 286.5896,175.7037 284.0896,175.7037 282.2146,175.0787 280.9646,173.8287"/>
    <polygon points="302.3622,151.1811 302.3622,151.1811 302.3622,151.1811 302.3622,151.1811"/>
    <polygon points="340.1575,151.1811 340.1575,151.1811 340.1575,151.1811 340.1575,151.1811"/>
    <polygon points="377.9528,151.1811 377.9528,188.9764 415.748,188.9764 415.748,151.1811"/>
    <line x1="394.9754" x2="394.9754" y1="162.5787" y2="175.7037"/>
    <line x1="394.9754" x2="403.7254" y1="162.5787" y2="175.7037"/>
    <line x1="403.7254" x2="403.7254" y1="162.5787" y2="175.7037"/>
    <polygon points="415.748,151.1811 415.748,151.1811 415.748,151.1811 415.748,151.1811"/>
    <polygon points="453.5433,151.1811 453.5433,151.1811 453.5433,151.1811 453.5433,151.1811"/>
    <polygon points="491.3386,151.1811 491.3386,188.9764 529.1339,188.9764 529.1339,151.1811"/>
    <polyline points="516.4862,164.4537 515.2362,163.2037 513.3612,162.5787 510.8612,162.5787 508.9862,163.2037 507.7362,164.4537 507.7362,165.7037 508.3612,166.9537 508.9862,167.5787 510.2362,168.2037 513.9862,169.4537 515.2362,170.0787 515.8612,170.7037 516.4862,171.9537 516.4862,173.8287 515.2362,175.0787 513.3612,175.7037 510.8612,175.7037 508.9862,175.0787 507.7362,173.8287"/>
    <polygon points="529.1339,151.1811 529.1339,151.1811 529.1339,151.1811 529.1339,151.1811"/>
    <polygon points="566.9291,151.1811 566.9291,188.9764 604.7244,188.9764 604.7244,151.1811"/>
    <line x1="583.9518" x2="583.9518" y1="162.5787" y2="175.7037"/>
    <line x1="592.7018" x2="583.9518" y1="162.5787" y2="171.3287"/>
    <line x1="587.0768" x2="592.7018" y1="168.2037" y2="175.7037"/>
    <polygon points="604.7244,151.1811 604.7244,188.9764 642.5197,188.9764 642.5197,151.1811"/>
    <polyline points="608.1142,154.8504 608.6142,154.6004 609.3642,153.8504 609.3642,159.1004"/>
    <polyline points="614.8642,153.8504 612.3642,157.3504 616.1142,157.3504"/>
    <line x1="614.8642" x2="614.8642" y1="153.8504" y2="159.1004"/>
    <line x1="621.747" x2="621.747" y1="162.5787" y2="175.7037"/>
    <polyline points="621.747,162.5787 627.372,162.5787 629.247,163.2037 629.872,163.8287 630.497,165.0787 630.497,166.3287 629.872,167.5787 629.247,168.2037 627.372,168.8287"/>
    <polyline points="621.747,168.8287 627.372,168.8287 629.247,169.4537 629.872,170.0787 630.497,171.3287 630.497,173.2037 629.872,174.4537 629.247,175.0787 627.372,175.7037 621.747,175.7037"/>
    <polygon points="642.5197,151.1811 642.5197,188.9764 680.315,188.9764 680.315,151.1811"/>
    <line x1="659.5423" x2="659.5423" y1="162.5787" y2="175.7037"/>
    <polyline points="659.5423,162.5787 665.1673,162.5787 667.0423,163.2037 667.6673,163.8287 668.2923,165.0787 668.2923,166.3287 667.6673,167.5787 667.0423,168.2037 665.1673,168.8287 659.5423,168.8287"/>
    <line x1="663.9173" x2="668.2923" y1="168.8287" y2="175.7037"/>
    <polygon points="680.315,151.1811 680.315,188.9764 718.1102,188.9764 718.1102,151.1811"/>
    <polygon points="699.8376,162.5787 698.5876,163.2037 697.3376,164.4537 696.7126,165.7037 696.0876,167.5787 696.0876,170.7037 696.7126,172.5787 697.3376,173.8287 698.5876,175.0787 699.8376,175.7037 702.3376,175.7037 703.5876,175.0787 704.8376,173.8287 705.4626,172.5787 706.0876,170.7037 706.0876,167.5787 705.4626,165.7037 704.8376,164.4537 703.5876,163.2037 702.3376,162.5787"/>
    <polygon points="718.1102,151.1811 718.1102,188.9764 755.9055,188.9764 755.9055,151.1811"/>
    <line x1="735.4454" x2="735.4454" y1="162.5787" y2="175.7037"/>
    <line x1="735.4454" x2="743.5704" y1="162.5787" y2="162.5787"/>
    <line x1="735.4454" x2="740.4454" y1="168.8287" y2="168.8287"/>
    <line x1="735.4454" x2="743.5704" y1="175.7037" y2="175.7037"/>
    <polygon points="755.9055,151.1811 755.9055,188.9764 793.7008,188.9764 793.7008,151.1811"/>
    <line x1="772.9281" x2="772.9281" y1="162.5787" y2="175.7037"/>
    <line x1="781.6781" x2="772.9281" y1="162.5787" y2="171.3287"/>
    <line x1="776.0531" x2="781.6781" y1="168.2037" y2="175.7037"/>
    <polygon points="0.0,188.9764 0.0,226.7717 37.7953,226.7717 37.7953,188.9764"/>
    <line x1="25.1476" x2="16.3976" y1="200.374" y2="213.499"/>
    <line x1="16.3976" x2="25.1476" y1="200.374" y2="200.374"/>
    <line x1="16.3976" x2="25.1476" y1="213.499" y2="213.499"/>
    <polygon points="37.7953,188.9764 37.7953,226.7717 75.5906,226.7717 75.5906,188.9764"/>
    <line x1="57.3179" x2="52.3179" y1="200.374" y2="213.499"/>
    <line x1="57.3179" x2="62.3179" y1="200.374" y2="213.499"/>
    <line x1="54.1929" x2="60.4429" y1="209.124" y2="209.124"/>
    <polygon points="75.5906,188.9764 75.5906,226.7717 113.3858,226.7717 113.3858,188.9764"/>
    <line x1="92.6132" x2="92.6132" y1="200.374" y2="213.499"/>
    <line x1="101.3632" x2="92.6132" y1="200.374" y2="209.124"/>
    <line x1="95.7382" x2="101.3632" y1="205.999" y2="213.499"/>
    <polygon points="113.3858,188.9764 113.3858,188.9764 113.3858,188.9764 113.3858,188.9764"/>
    <polygon points="151.1811,188.9764 151.1811,188.9764 151.1811,188.9764 151.1811,188.9764"/>
    <polygon points="188.9764,188.9764 188.9764,226.7717 226.7717,226.7717 226.7717,188.9764"/>
    <line x1="205.999" x2="205.999" y1="200.374" y2="213.499"/>
    <polyline points="205.999,200.374 211.624,200.374 213.499,200.999 214.124,201.624 214.749,202.874 214.749,204.124 214.124,205.374 213.499,205.999 211.624,206.624 205.999,206.624"/>
    <line x1="210.374" x2="214.749" y1="206.624" y2="213.499"/>
    <polygon points="226.7717,188.9764 226.7717,188.9764 226.7717,188.9764 226.7717,188.9764"/>
    <polygon points="264.5669,188.9764 264.5669,188.9764 264.5669,188.9764 264.5669,188.9764"/>
    <polygon points="302.3622,188.9764 302.3622,188.9764 302.3622,188.9764 302.3622,188.9764"/>
    <polygon points="340.1575,188.9764 340.1575,226.7717 377.9528,226.7717 377.9528,188.9764"/>
    <line x1="357.1801" x2="357.1801" y1="200.374" y2="213.499"/>
    <polyline points="357.1801,200.374 362.8051,200.374 364.6801,200.999 365.3051,201.624 365.9301,202.874 365.9301,204.124 365.3051,205.374 364.6801,205.999 362.8051,206.624"/>
    <polyline points="357.1801,206.624 362.8051,206.624 364.6801,207.249 365.3051,207.874 365.9301,209.124 365.9301,210.999 365.3051,212.249 364.6801,212.874 362.8051,213.499 357.1801,213.499"/>
    <polygon points="377.9528,188.9764 377.9528,188.9764 377.9528,188.9764 377.9528,188.9764"/>
    <polygon points="415.748,188.9764 415.748,188.9764 415.748,188.9764 415.748,188.9764"/>
    <polygon points="453.5433,188.9764 453.5433,226.7717 491.3386,226.7717 491.3386,188.9764"/>
    <line x1="473.0659" x2="473.0659" y1="200.374" y2="213.499"/>
    <line x1="468.6909" x2="477.4409" y1="200.374" y2="200.374"/>
    <polygon points="491.3386,188.9764 491.3386,188.9764 491.3386,188.9764 491.3386,188.9764"/>
    <polygon points="529.1339,188.9764 529.1339,226.7717 566.9291,226.7717 566.9291,188.9764"/>
    <line x1="546.469" x2="546.469" y1="200.374" y2="213.499"/>
    <line x1="546.469" x2="554.594" y1="200.374" y2="200.374"/>
    <line x1="546.469" x2="551.469" y1="206.624" y2="206.624"/>
    <line x1="546.469" x2="554.594" y1="213.499" y2="213.499"/>
    <polygon points="566.9291,188.9764 566.9291,188.9764 566.9291,188.9764 566.9291,188.9764"/>
    <polygon points="604.7244,188.9764 604.7244,226.7717 642.5197,226.7717 642.5197,188.9764"/>
    <line x1="624.247" x2="619.247" y1="200.374" y2="213.499"/>
    <line x1="624.247" x2="629.247" y1="200.374" y2="213.499"/>
    <line x1="621.122" x2="627.372" y1="209.124" y2="209.124"/>
    <polygon points="642.5197,188.9764 642.5197,188.9764 642.5197,188.9764 642.5197,188.9764"/>
    <polygon points="680.315,188.9764 680.315,188.9764 680.315,188.9764 680.315,188.9764"/>
    <polygon points="718.1102,188.9764 718.1102,226.7717 755.9055,226.7717 755.9055,188.9764"/>
    <line x1="735.1329" x2="735.1329" y1="200.374" y2="213.499"/>
    <line x1="743.8829" x2="735.1329" y1="200.374" y2="209.124"/>
    <line x1="738.2579" x2="743.8829" y1="205.999" y2="213.499"/>
    <polygon points="755.9055,188.9764 755.9055,188.9764 755.9055,188.9764 755.9055,188.9764"/>
    <polygon points="0.0,226.7717 0.0,226.7717 0.0,226.7717 0.0,226.7717"/>
    <polygon points="37.7953,226.7717 37.7953,226.7717 37.7953,226.7717 37.7953,226.7717"/>
    <polygon points="75.5906,226.7717 75.5906,226.7717 75.5906,226.7717 75.5906,226.7717"/>
    <polygon points="113.3858,226.7717 113.3858,226.7717 113.3858,226.7717 113.3858,226.7717"/>
    <polygon points="151.1811,226.7717 151.1811,264.5669 188.9764,264.5669 188.9764,226.7717"/>
    <line x1="172.5787" x2="172.5787" y1="238.1693" y2="251.2943"/>
    <polygon points="188.9764,226.7717 188.9764,226.7717 188.9764,226.7717 188.9764,226.7717"/>
    <polygon points="226.7717,226.7717 226.7717,226.7717 226.7717,226.7717 226.7717,226.7717"/>
    <polygon points="264.5669,226.7717 264.5669,226.7717 264.5669,226.7717 264.5669,226.7717"/>
    <polygon points="302.3622,226.7717 302.3622,264.5669 340.1575,264.5669 340.1575,226.7717"/>
    <polyline points="319.3848,238.1693 319.3848,247.5443 320.0098,249.4193 321.2598,250.6693 323.1348,251.2943 324.3848,251.2943 326.2598,250.6693 327.5098,249.4193 328.1348,247.5443 328.1348,238.1693"/>
    <polygon points="340.1575,226.7717 340.1575,226.7717 340.1575,226.7717 340.1575,226.7717"/>
    <polygon points="377.9528,226.7717 377.9528,226.7717 377.9528,226.7717 377.9528,226.7717"/>
    <polygon points="415.748,226.7717 415.748,264.5669 453.5433,264.5669 453.5433,226.7717"/>
    <polyline points="439.0207,238.1693 439.0207,248.1693 438.3957,250.0443 437.7707,250.6693 436.5207,251.2943 435.2707,251.2943 434.0207,250.6693 433.3957,250.0443 432.7707,248.1693 432.7707,246.9193"/>
    <polygon points="453.5433,226.7717 453.5433,226.7717 453.5433,226.7717 453.5433,226.7717"/>
    <polygon points="491.3386,226.7717 491.3386,264.5669 529.1339,264.5669 529.1339,226.7717"/>
    <line x1="508.3612" x2="508.3612" y1="238.1693" y2="251.2943"/>
    <line x1="508.3612" x2="517.1112" y1="238.1693" y2="251.2943"/>
    <line x1="517.1112" x2="517.1112" y1="238.1693" y2="251.2943"/>
    <polygon points="529.1339,226.7717 529.1339,226.7717 529.1339,226.7717 529.1339,226.7717"/>
    <polygon points="566.9291,226.7717 566.9291,264.5669 604.7244,264.5669 604.7244,226.7717"/>
    <polyline points="592.0768,240.0443 590.8268,238.7943 588.9518,238.1693 586.4518,238.1693 584.5768,238.7943 583.3268,240.0443 583.3268,241.2943 583.9518,242.5443 584.5768,243.1693 585.8268,243.7943 589.5768,245.0443 590.8268,245.6693 591.4518,246.2943 592.0768,247.5443 592.0768,249.4193 590.8268,250.6693 588.9518,251.2943 586.4518,251.2943 584.5768,250.6693 583.3268,249.4193"/>
    <polygon points="604.7244,226.7717 604.7244,226.7717 604.7244,226.7717 604.7244,226.7717"/>
    <polygon points="642.5197,226.7717 642.5197,264.5669 680.315,264.5669 680.315,226.7717"/>
    <polyline points="645.9094,230.4409 646.4094,230.1909 647.1594,229.4409 647.1594,234.6909"/>
    <polyline points="653.1594,229.4409 650.6594,229.4409 650.4094,231.6909 650.6594,231.4409 651.4094,231.1909 652.1594,231.1909 652.9094,231.4409 653.4094,231.9409 653.6594,232.6909 653.6594,233.1909 653.4094,233.9409 652.9094,234.4409 652.1594,234.6909 651.4094,234.6909 650.6594,234.4409 650.4094,234.1909 650.1594,233.6909"/>
    <line x1="659.5423" x2="659.5423" y1="238.1693" y2="251.2943"/>
    <polyline points="659.5423,238.1693 665.1673,238.1693 667.0423,238.7943 667.6673,239.4193 668.2923,240.6693 668.2923,241.9193 667.6673,243.1693 667.0423,243.7943 665.1673,244.4193 659.5423,244.4193"/>
    <line x1="663.9173" x2="668.2923" y1="244.4193" y2="251.2943"/>
    <polygon points="680.315,226.7717 680.315,264.5669 718.1102,264.5669 718.1102,226.7717"/>
    <line x1="697.6501" x2="697.6501" y1="238.1693" y2="251.2943"/>
    <line x1="697.6501" x2="705.7751" y1="238.1693" y2="238.1693"/>
    <line x1="697.6501" x2="702.6501" y1="244.4193" y2="244.4193"/>
    <line x1="697.6501" x2="705.7751" y1="251.2943" y2="251.2943"/>
    <polygon points="718.1102,226.7717 718.1102,264.5669 755.9055,264.5669 755.9055,226.7717"/>
    <line x1="735.1329" x2="735.1329" y1="238.1693" y2="251.2943"/>
    <line x1="743.8829" x2="735.1329" y1="238.1693" y2="246.9193"/>
    <line x1="738.2579" x2="743.8829" y1="243.7943" y2="251.2943"/>
    <polygon points="755.9055,226.7717 755.9055,264.5669 793.7008,264.5669 793.7008,226.7717"/>
    <line x1="772.9281" x2="772.9281" y1="238.1693" y2="251.2943"/>
    <line x1="781.6781" x2="772.9281" y1="238.1693" y2="246.9193"/>
    <line x1="776.0531" x2="781.6781" y1="243.7943" y2="251.2943"/>
    <polygon points="0.0,264.5669 0.0,302.3622 37.7953,302.3622 37.7953,264.5669"/>
    <line x1="17.3351" x2="17.3351" y1="275.9646" y2="289.0896"/>
    <line x1="17.3351" x2="25.4601" y1="275.9646" y2="275.9646"/>
    <line x1="17.3351" x2="22.3351" y1="282.2146" y2="282.2146"/>
    <line x1="17.3351" x2="25.4601" y1="289.0896" y2="289.0896"/>
    <polygon points="37.7953,264.5669 37.7953,302.3622 75.5906,302.3622 75.5906,264.5669"/>
    <line x1="54.8179" x2="54.8179" y1="275.9646" y2="289.0896"/>
    <polyline points="54.8179,275.9646 60.4429,275.9646 62.3179,276.5896 62.9429,277.2146 63.5679,278.4646 63.5679,279.7146 62.9429,280.9646 62.3179,281.5896 60.4429,282.2146 54.8179,282.2146"/>
    <line x1="59.1929" x2="63.5679" y1="282.2146" y2="289.0896"/>
    <polygon points="75.5906,264.5669 75.5906,302.3622 113.3858,302.3622 113.3858,264.5669"/>
    <line x1="95.1132" x2="95.1132" y1="275.9646" y2="289.0896"/>
    <line x1="90.7382" x2="99.4882" y1="275.9646" y2="275.9646"/>
    <polygon points="113.3858,264.5669 113.3858,302.3622 151.1811,302.3622 151.1811,264.5669"/>
    <polyline points="136.6585,275.9646 136.6585,285.9646 136.0335,287.8396 135.4085,288.4646 134.1585,289.0896 132.9085,289.0896 131.6585,288.4646 131.0335,287.8396 130.4085,285.9646 130.4085,284.7146"/>
    <polygon points="151.1811,264.5669 151.1811,302.3622 188.9764,302.3622 188.9764,264.5669"/>
    <line x1="168.5162" x2="168.5162" y1="275.9646" y2="289.0896"/>
    <line x1="168.5162" x2="176.6412" y1="275.9646" y2="275.9646"/>
    <line x1="168.5162" x2="173.5162" y1="282.2146" y2="282.2146"/>
    <line x1="168.5162" x2="176.6412" y1="289.0896" y2="289.0896"/>
    <polygon points="188.9764,264.5669 188.9764,264.5669 188.9764,264.5669 188.9764,264.5669"/>
    <polygon points="226.7717,264.5669 226.7717,302.3622 264.5669,302.3622 264.5669,264.5669"/>
    <polyline points="230.1614,268.2362 230.6614,267.9862 231.4114,267.2362 231.4114,272.4862"/>
    <polyline points="237.6614,267.9862 237.4114,267.4862 236.6614,267.2362 236.1614,267.2362 235.4114,267.4862 234.9114,268.2362 234.6614,269.4862 234.6614,270.7362 234.9114,271.7362 235.4114,272.2362 236.1614,272.4862 236.4114,272.4862 237.1614,272.2362 237.6614,271.7362 237.9114,270.9862 237.9114,270.7362 237.6614,269.9862 237.1614,269.4862 236.4114,269.2362 236.1614,269.2362 235.4114,269.4862 234.9114,269.9862 234.6614,270.7362"/>
    <line x1="243.7943" x2="243.7943" y1="275.9646" y2="289.0896"/>
    <polyline points="243.7943,275.9646 249.4193,275.9646 251.2943,276.5896 251.9193,277.2146 252.5443,278.4646 252.5443,280.3396 251.9193,281.5896 251.2943,282.2146 249.4193,282.8396 243.7943,282.8396"/>
    <polygon points="264.5669,264.5669 264.5669,302.3622 302.3622,302.3622 302.3622,264.5669"/>
    <line x1="285.9646" x2="285.9646" y1="275.9646" y2="289.0896"/>
    <polygon points="302.3622,264.5669 302.3622,302.3622 340.1575,302.3622 340.1575,264.5669"/>
    <line x1="319.3848" x2="319.3848" y1="275.9646" y2="289.0896"/>
    <line x1="319.3848" x2="328.1348" y1="275.9646" y2="289.0896"/>
    <line x1="328.1348" x2="328.1348" y1="275.9646" y2="289.0896"/>
    <polygon points="340.1575,264.5669 340.1575,302.3622 377.9528,302.3622 377.9528,264.5669"/>
    <line x1="357.1801" x2="357.1801" y1="275.9646" y2="289.0896"/>
    <line x1="365.9301" x2="357.1801" y1="275.9646" y2="284.7146"/>
    <line x1="360.3051" x2="365.9301" y1="281.5896" y2="289.0896"/>
    <polygon points="377.9528,264.5669 377.9528,302.3622 415.748,302.3622 415.748,264.5669"/>
    <line x1="395.2879" x2="395.2879" y1="275.9646" y2="289.0896"/>
    <line x1="395.2879" x2="403.4129" y1="275.9646" y2="275.9646"/>
    <line x1="395.2879" x2="400.2879" y1="282.2146" y2="282.2146"/>
    <line x1="395.2879" x2="403.4129" y1="289.0896" y2="289.0896"/>
    <polygon points="415.748,264.5669 415.748,302.3622 453.5433,302.3622 453.5433,264.5669"/>
    <line x1="432.7707" x2="432.7707" y1="275.9646" y2="289.0896"/>
    <polyline points="432.7707,275.9646 438.3957,275.9646 440.2707,276.5896 440.8957,277.2146 441.5207,278.4646 441.5207,279.7146 440.8957,280.9646 440.2707,281.5896 438.3957,282.2146 432.7707,282.2146"/>
    <line x1="437.1457" x2="441.5207" y1="282.2146" y2="289.0896"/>
    <polygon points="453.5433,264.5669 453.5433,302.3622 491.3386,302.3622 491.3386,264.5669"/>
    <polyline points="478.6909,277.8396 477.4409,276.5896 475.5659,275.9646 473.0659,275.9646 471.1909,276.5896 469.9409,277.8396 469.9409,279.0896 470.5659,280.3396 471.1909,280.9646 472.4409,281.5896 476.1909,282.8396 477.4409,283.4646 478.0659,284.0896 478.6909,285.3396 478.6909,287.2146 477.4409,288.4646 475.5659,289.0896 473.0659,289.0896 471.1909,288.4646 469.9409,287.2146"/>
    <polygon points="491.3386,264.5669 491.3386,264.5669 491.3386,264.5669 491.3386,264.5669"/>
    <polygon points="529.1339,264.5669 529.1339,264.5669 529.1339,264.5669 529.1339,264.5669"/>
    <polygon points="566.9291,264.5669 566.9291,264.5669 566.9291,264.5669 566.9291,264.5669"/>
    <polygon points="604.7244,264.5669 604.7244,264.5669 604.7244,264.5669 604.7244,264.5669"/>
    <polygon points="642.5197,264.5669 642.5197,302.3622 680.315,302.3622 680.315,264.5669"/>
    <line x1="659.5423" x2="659.5423" y1="275.9646" y2="289.0896"/>
    <line x1="659.5423" x2="668.2923" y1="275.9646" y2="289.0896"/>
    <line x1="668.2923" x2="668.2923" y1="275.9646" y2="289.0896"/>
    <polygon points="680.315,264.5669 680.315,264.5669 680.315,264.5669 680.315,264.5669"/>
    <polygon points="718.1102,264.5669 718.1102,264.5669 718.1102,264.5669 718.1102,264.5669"/>
    <polygon points="755.9055,264.5669 755.9055,264.5669 755.9055,264.5669 755.9055,264.5669"/>
    <polygon points="0.0,302.3622 0.0,302.3622 0.0,302.3622 0.0,302.3622"/>
    <polygon points="37.7953,302.3622 37.7953,302.3622 37.7953,302.3622 37.7953,302.3622"/>
    <polygon points="75.5906,302.3622 75.5906,340.1575 113.3858,340.1575 113.3858,302.3622"/>
    <line x1="92.6132" x2="92.6132" y1="313.7598" y2="326.8848"/>
    <line x1="92.6132" x2="101.3632" y1="313.7598" y2="326.8848"/>
    <line x1="101.3632" x2="101.3632" y1="313.7598" y2="326.8848"/>
    <polygon points="113.3858,302.3622 113.3858,302.3622 113.3858,302.3622 113.3858,302.3622"/>
    <polygon points="151.1811,302.3622 151.1811,302.3622 151.1811,302.3622 151.1811,302.3622"/>
    <polygon points="188.9764,302.3622 188.9764,302.3622 188.9764,302.3622 188.9764,302.3622"/>
    <polygon points="226.7717,302.3622 226.7717,302.3622 226.7717,302.3622 226.7717,302.3622"/>
    <polygon points="264.5669,302.3622 264.5669,302.3622 264.5669,302.3622 264.5669,302.3622"/>
    <polygon points="302.3622,302.3622 302.3622,302.3622 302.3622,302.3622 302.3622,302.3622"/>
    <polygon points="340.1575,302.3622 340.1575,340.1575 377.9528,340.1575 377.9528,302.3622"/>
    <polyline points="365.3051,315.6348 364.0551,314.3848 362.1801,313.7598 359.6801,313.7598 357.8051,314.3848 356.5551,315.6348 356.5551,316.8848 357.1801,318.1348 357.8051,318.7598 359.0551,319.3848 362.8051,320.6348 364.0551,321.2598 364.6801,321.8848 365.3051,323.1348 365.3051,325.0098 364.0551,326.2598 362.1801,326.8848 359.6801,326.8848 357.8051,326.2598 356.5551,325.0098"/>
    <polygon points="377.9528,302.3622 377.9528,302.3622 377.9528,302.3622 377.9528,302.3622"/>
    <polygon points="415.748,302.3622 415.748,302.3622 415.748,302.3622 415.748,302.3622"/>
    <polygon points="453.5433,302.3622 453.5433,302.3622 453.5433,302.3622 453.5433,302.3622"/>
    <polygon points="491.3386,302.3622 491.3386,302.3622 491.3386,302.3622 491.3386,302.3622"/>
    <polygon points="529.1339,302.3622 529.1339,302.3622 529.1339,302.3622 529.1339,302.3622"/>
    <polygon points="566.9291,302.3622 566.9291,302.3622 566.9291,302.3622 566.9291,302.3622"/>
    <polygon points="604.7244,302.3622 604.7244,302.3622 604.7244,302.3622 604.7244,302.3622"/>
    <polygon points="642.5197,302.3622 642.5197,302.3622 642.5197,302.3622 642.5197,302.3622"/>
    <polygon points="680.315,302.3622 680.315,302.3622 680.315,302.3622 680.315,302.3622"/>
    <polygon points="718.1102,302.3622 718.1102,302.3622 718.1102,302.3622 718.1102,302.3622"/>
    <polygon points="755.9055,302.3622 755.9055,302.3622 755.9055,302.3622 755.9055,302.3622"/>
  </g>
</svg>
