<?xml version="1.0" encoding="utf-8" ?>
<svg xmlns="http://www.w3.org/2000/svg" xmlns:cc="http://creativecommons.org/ns" xmlns:dc="http://purl.org/dc/elements/1.1/" xmlns:ev="http://www.w3.org/2001/xml-events" xmlns:inkscape="http://www.inkscape.org/namespaces/inkscape" xmlns:rdf="http://www.w3.org/1999/02/22-rdf-syntax-ns" xmlns:sodipodi="http://sodipodi.sourceforge.net/DTD/sodipodi-0.dtd" xmlns:xlink="http://www.w3.org/1999/xlink" baseProfile="tiny" height="9.9cm" version="1.2" viewBox="0 0 793.7007874015749 374.1732283464567" width="21.0cm">
  <metadata>
    <rdf:RDF>
      <cc:Work>
        <dc:format>image/svg+xml</dc:format>
        <dc:source>vpype eval 'cell=10;width=210;height=99' eval 'nCols=20;nRows=9' eval 'cells=[2,6,7,8,9,10,11,12,13,14,17,19,21,22,23,24,25,28,32,35,37,39,42,46,47,48,49,51,52,53,54,55,56,57,58,59,60,61,62,63,64,65,68,72,75,77,79,82,84,86,87,88,89,90,91,92,93,95,97,99,101,104,112,115,117,119,120,121,122,123,124,127,128,129,130,131,132,135,137,139,141,144,152,153,155,157,159,161,164,165,166,167,168,169,170,171,172,175]' eval 'chars=[&quot;G&quot;,&quot;U&quot;,&quot;I&quot;,&quot;T&quot;,&quot;L&quot;,&quot;I&quot;,&quot;K&quot;,&quot;K&quot;,&quot;E&quot;,&quot;N&quot;,&quot;F&quot;,&quot;K&quot;,&quot;B&quot;,&quot;R&quot;,&quot;O&quot;,&quot;O&quot;,&quot;D&quot;,&quot;R&quot;,&quot;L&quot;,&quot;P&quot;,&quot;R&quot;,&quot;I&quot;,&quot;O&quot;,&quot;S&quot;,&quot;T&quot;,&quot;E&quot;,&quot;R&quot;,&quot;M&quot;,&quot;A&quot;,&quot;N&quot;,&quot;D&quot;,&quot;A&quot;,&quot;R&quot;,&quot;I&quot;,&quot;J&quot;,&quot;N&quot;,&quot;V&quot;,&quot;E&quot;,&quot;E&quot;,&quot;R&quot;,&quot;L&quot;,&quot;E&quot;,&quot;I&quot;,&quot;V&quot;,&quot;R&quot;,&quot;E&quot;,&quot;D&quot;,&quot;N&quot;,&quot;A&quot;,&quot;H&quot;,&quot;A&quot;,&quot;N&quot;,&quot;D&quot;,&quot;D&quot;,&quot;O&quot;,&quot;E&quot;,&quot;K&quot;,&quot;K&quot;,&quot;T&quot;,&quot;E&quot;,&quot;K&quot;,&quot;D&quot;,&quot;R&quot;,&quot;E&quot;,&quot;J&quot;,&quot;R&quot;,&quot;H&quot;,&quot;O&quot;,&quot;O&quot;,&quot;F&quot;,&quot;D&quot;,&quot;S&quot;,&quot;T&quot;,&quot;U&quot;,&quot;A&quot;,&quot;R&quot;,&quot;T&quot;,&quot;R&quot;,&quot;E&quot;,&quot;E&quot;,&quot;U&quot;,&quot;E&quot;,&quot;J&quot;,&quot;A&quot;,&quot;E&quot;,&quot;S&quot;,&quot;N&quot;,&quot;S&quot;,&quot;R&quot;,&quot;E&quot;,&quot;K&quot;,&quot;K&quot;,&quot;E&quot;,&quot;R&quot;,&quot;T&quot;,&quot;J&quot;,&quot;E&quot;,&quot;N&quot;]' eval 'numbers=[2,6,8,12,17,19,21,35,46,51,60,64,86,101,120,127,152,164]' eval counter=1 eval charIndex=0 begin grid -o '%cell*mm%' '%cell*mm%' %nCols% %nRows% eval '%isCell=_i in cells%' eval '%number=_i in numbers%' eval '%size=10 if isCell else 0%' rect 0 0 '%size*mm%' '%size*mm%' text -s 10 -p 0.5mm 1.5mm '%counter if number else '&quot;'&quot;''&quot;'&quot;'%' text -s 20 -p 5mm 5mm -a center '%chars[charIndex] if isCell else '&quot;'&quot;''&quot;'&quot;'%' eval '%if number: counter+=1 %' eval '%if isCell: charIndex+=1 %' end splitall deduplicate linemerge --tolerance 0.1mm write -m none --page-size '%width*mm%x%height*mm%' --center ./svgs/solution/29329c.svg
</dc:source>
        <dc:date>2023-12-23T07:44:51.129196</dc:date>
      </cc:Work>
    </rdf:RDF>
  </metadata>
  <defs/>
  <g fill="none" id="layer1" inkscape:groupmode="layer" inkscape:label="1" stroke="#000000" style="display:inline">
    <polygon points="94.4882,17.0079 94.4882,54.8031 94.4882,54.8031 56.6929,54.8031 56.6929,54.8031 56.6929,92.5984 56.6929,92.5984 94.4882,92.5984 94.4882,92.5984 94.4882,54.8031 94.4882,54.8031 132.2835,54.8031 132.2835,54.8031 132.2835,17.0079 132.2835,17.0079"/>
    <polyline points="98.253,20.1772 98.878,19.8647 98.878,19.8647 99.8155,18.9272 99.8155,18.9272 99.8155,25.4897"/>
    <polyline points="119.9483,31.5305 119.3233,30.2805 119.3233,30.2805 118.0733,29.0305 118.0733,29.0305 116.8233,28.4055 116.8233,28.4055 114.3233,28.4055 114.3233,28.4055 113.0733,29.0305 113.0733,29.0305 111.8233,30.2805 111.8233,30.2805 111.1983,31.5305 111.1983,31.5305 110.5733,33.4055 110.5733,33.4055 110.5733,36.5305 110.5733,36.5305 111.1983,38.4055 111.1983,38.4055 111.8233,39.6555 111.8233,39.6555 113.0733,40.9055 113.0733,40.9055 114.3233,41.5305 114.3233,41.5305 116.8233,41.5305 116.8233,41.5305 118.0733,40.9055 118.0733,40.9055 119.3233,39.6555 119.3233,39.6555 119.9483,38.4055 119.9483,38.4055 119.9483,36.5305 119.9483,36.5305 116.8233,36.5305"/>
    <polygon points="245.6693,17.0079 245.6693,54.8031 245.6693,54.8031 283.4646,54.8031 283.4646,54.8031 321.2598,54.8031 321.2598,54.8031 321.2598,17.0079 321.2598,17.0079 283.4646,17.0079 283.4646,17.0079"/>
    <line x1="283.4646" x2="283.4646" y1="54.8031" y2="17.0079"/>
    <polyline points="248.8091,20.4897 248.8091,20.1772 248.8091,20.1772 249.1216,19.5522 249.1216,19.5522 249.4341,19.2397 249.4341,19.2397 250.0591,18.9272 250.0591,18.9272 251.3091,18.9272 251.3091,18.9272 251.9341,19.2397 251.9341,19.2397 252.2466,19.5522 252.2466,19.5522 252.5591,20.1772 252.5591,20.1772 252.5591,20.8022 252.5591,20.8022 252.2466,21.4272 252.2466,21.4272 251.6216,22.3647 251.6216,22.3647 248.4966,25.4897 248.4966,25.4897 252.8716,25.4897"/>
    <polyline points="262.6919,28.4055 262.6919,37.7805 262.6919,37.7805 263.3169,39.6555 263.3169,39.6555 264.5669,40.9055 264.5669,40.9055 266.4419,41.5305 266.4419,41.5305 267.6919,41.5305 267.6919,41.5305 269.5669,40.9055 269.5669,40.9055 270.8169,39.6555 270.8169,39.6555 271.4419,37.7805 271.4419,37.7805 271.4419,28.4055"/>
    <line x1="304.8622" x2="304.8622" y1="28.4055" y2="41.5305"/>
    <polyline points="359.0551,17.0079 359.0551,54.8031 359.0551,54.8031 359.0551,92.5984 359.0551,92.5984 321.2598,92.5984 321.2598,92.5984 321.2598,130.3937 321.2598,130.3937 283.4646,130.3937 283.4646,130.3937 245.6693,130.3937 245.6693,130.3937 245.6693,92.5984 245.6693,92.5984 283.4646,92.5984 283.4646,92.5984 321.2598,92.5984 321.2598,92.5984 321.2598,54.8031 321.2598,54.8031 359.0551,54.8031 359.0551,54.8031 396.8504,54.8031 396.8504,54.8031 434.6457,54.8031 434.6457,54.8031 434.6457,17.0079 434.6457,17.0079 396.8504,17.0079 396.8504,17.0079 359.0551,17.0079 359.0551,17.0079 321.2598,17.0079"/>
    <polyline points="324.7121,18.9272 328.1496,18.9272 328.1496,18.9272 326.2746,21.4272 326.2746,21.4272 327.2121,21.4272 327.2121,21.4272 327.8371,21.7397 327.8371,21.7397 328.1496,22.0522 328.1496,22.0522 328.4621,22.9897 328.4621,22.9897 328.4621,23.6147 328.4621,23.6147 328.1496,24.5522 328.1496,24.5522 327.5246,25.1772 327.5246,25.1772 326.5871,25.4897 326.5871,25.4897 325.6496,25.4897 325.6496,25.4897 324.7121,25.1772 324.7121,25.1772 324.3996,24.8647 324.3996,24.8647 324.0871,24.2397"/>
    <line x1="340.7825" x2="340.7825" y1="28.4055" y2="41.5305"/>
    <line x1="336.4075" x2="345.1575" y1="28.4055" y2="28.4055"/>
    <line x1="396.8504" x2="396.8504" y1="54.8031" y2="17.0079"/>
    <polyline points="376.7028,28.4055 376.7028,41.5305 376.7028,41.5305 384.2028,41.5305"/>
    <line x1="418.248" x2="418.248" y1="28.4055" y2="41.5305"/>
    <polyline points="434.6457,54.8031 472.4409,54.8031 472.4409,54.8031 472.4409,92.5984 472.4409,92.5984 434.6457,92.5984 434.6457,92.5984 434.6457,130.3937 434.6457,130.3937 472.4409,130.3937 472.4409,130.3937 510.2362,130.3937 510.2362,130.3937 510.2362,92.5984 510.2362,92.5984 510.2362,54.8031 510.2362,54.8031 548.0315,54.8031 548.0315,54.8031 548.0315,17.0079 548.0315,17.0079 510.2362,17.0079 510.2362,17.0079 472.4409,17.0079 472.4409,17.0079 434.6457,17.0079"/>
    <polyline points="510.2362,17.0079 510.2362,54.8031 510.2362,54.8031 472.4409,54.8031 472.4409,54.8031 472.4409,17.0079"/>
    <line x1="451.6683" x2="451.6683" y1="28.4055" y2="41.5305"/>
    <line x1="460.4183" x2="451.6683" y1="28.4055" y2="37.1555"/>
    <line x1="454.7933" x2="460.4183" y1="34.0305" y2="41.5305"/>
    <polyline points="478.3932,25.4897 478.3932,18.9272 478.3932,18.9272 475.2682,23.3022 475.2682,23.3022 479.9557,23.3022"/>
    <line x1="489.4636" x2="489.4636" y1="28.4055" y2="41.5305"/>
    <line x1="498.2136" x2="489.4636" y1="28.4055" y2="37.1555"/>
    <line x1="492.5886" x2="498.2136" y1="34.0305" y2="41.5305"/>
    <polyline points="535.6964,28.4055 527.5714,28.4055 527.5714,28.4055 527.5714,41.5305 527.5714,41.5305 535.6964,41.5305"/>
    <line x1="527.5714" x2="532.5714" y1="34.6555" y2="34.6555"/>
    <polyline points="548.0315,54.8031 585.8268,54.8031 585.8268,54.8031 585.8268,17.0079 585.8268,17.0079 548.0315,17.0079"/>
    <polyline points="573.8041,28.4055 573.8041,41.5305 573.8041,41.5305 565.0541,28.4055 565.0541,28.4055 565.0541,41.5305"/>
    <polygon points="661.4173,17.0079 661.4173,54.8031 661.4173,54.8031 661.4173,92.5984 661.4173,92.5984 623.622,92.5984 623.622,92.5984 623.622,54.8031 623.622,54.8031 585.8268,54.8031 585.8268,54.8031 585.8268,92.5984 585.8268,92.5984 623.622,92.5984 623.622,92.5984 623.622,130.3937 623.622,130.3937 661.4173,130.3937 661.4173,130.3937 699.2126,130.3937 699.2126,130.3937 699.2126,92.5984 699.2126,92.5984 699.2126,54.8031 699.2126,54.8031 699.2126,17.0079 699.2126,17.0079"/>
    <line x1="661.4173" x2="699.2126" y1="54.8031" y2="54.8031"/>
    <polyline points="667.9946,18.9272 664.8696,18.9272 664.8696,18.9272 664.5571,21.7397 664.5571,21.7397 664.8696,21.4272 664.8696,21.4272 665.8071,21.1147 665.8071,21.1147 666.7446,21.1147 666.7446,21.1147 667.6821,21.4272 667.6821,21.4272 668.3071,22.0522 668.3071,22.0522 668.6196,22.9897 668.6196,22.9897 668.6196,23.6147 668.6196,23.6147 668.3071,24.5522 668.3071,24.5522 667.6821,25.1772 667.6821,25.1772 666.7446,25.4897 666.7446,25.4897 665.8071,25.4897 665.8071,25.4897 664.8696,25.1772 664.8696,25.1772 664.5571,24.8647 664.5571,24.8647 664.2446,24.2397"/>
    <polyline points="686.8775,28.4055 678.7525,28.4055 678.7525,28.4055 678.7525,41.5305"/>
    <line x1="678.7525" x2="683.7525" y1="34.6555" y2="34.6555"/>
    <polygon points="737.0079,17.0079 737.0079,54.8031 737.0079,54.8031 774.8031,54.8031 774.8031,54.8031 774.8031,17.0079 774.8031,17.0079"/>
    <polyline points="743.8976,19.8647 743.5851,19.2397 743.5851,19.2397 742.6476,18.9272 742.6476,18.9272 742.0226,18.9272 742.0226,18.9272 741.0851,19.2397 741.0851,19.2397 740.4601,20.1772 740.4601,20.1772 740.1476,21.7397 740.1476,21.7397 740.1476,23.3022 740.1476,23.3022 740.4601,24.5522 740.4601,24.5522 741.0851,25.1772 741.0851,25.1772 742.0226,25.4897 742.0226,25.4897 742.3351,25.4897 742.3351,25.4897 743.2726,25.1772 743.2726,25.1772 743.8976,24.5522 743.8976,24.5522 744.2101,23.6147 744.2101,23.6147 744.2101,23.3022 744.2101,23.3022 743.8976,22.3647 743.8976,22.3647 743.2726,21.7397 743.2726,21.7397 742.3351,21.4272 742.3351,21.4272 742.0226,21.4272 742.0226,21.4272 741.0851,21.7397 741.0851,21.7397 740.4601,22.3647 740.4601,22.3647 740.1476,23.3022"/>
    <line x1="754.0305" x2="754.0305" y1="28.4055" y2="41.5305"/>
    <line x1="762.7805" x2="754.0305" y1="28.4055" y2="37.1555"/>
    <line x1="757.1555" x2="762.7805" y1="34.0305" y2="41.5305"/>
    <polyline points="59.5202,56.7224 63.8952,56.7224 63.8952,56.7224 60.7702,63.2849"/>
    <polygon points="73.7156,66.2008 73.7156,79.3258 73.7156,79.3258 79.3406,79.3258 79.3406,79.3258 81.2156,78.7008 81.2156,78.7008 81.8406,78.0758 81.8406,78.0758 82.4656,76.8258 82.4656,76.8258 82.4656,74.9508 82.4656,74.9508 81.8406,73.7008 81.8406,73.7008 81.2156,73.0758 81.2156,73.0758 79.3406,72.4508 79.3406,72.4508 81.2156,71.8258 81.2156,71.8258 81.8406,71.2008 81.8406,71.2008 82.4656,69.9508 82.4656,69.9508 82.4656,68.7008 82.4656,68.7008 81.8406,67.4508 81.8406,67.4508 81.2156,66.8258 81.2156,66.8258 79.3406,66.2008 79.3406,66.2008"/>
    <line x1="73.7156" x2="79.3406" y1="72.4508" y2="72.4508"/>
    <polygon points="94.4882,92.5984 132.2835,92.5984 132.2835,92.5984 170.0787,92.5984 170.0787,92.5984 170.0787,54.8031 170.0787,54.8031 132.2835,54.8031 132.2835,54.8031 132.2835,92.5984 132.2835,92.5984 132.2835,130.3937 132.2835,130.3937 132.2835,168.189 132.2835,168.189 170.0787,168.189 170.0787,168.189 207.874,168.189 207.874,168.189 207.874,130.3937 207.874,130.3937 170.0787,130.3937 170.0787,130.3937 132.2835,130.3937 132.2835,130.3937 94.4882,130.3937 94.4882,130.3937 56.6929,130.3937 56.6929,130.3937 18.8976,130.3937 18.8976,130.3937 18.8976,168.189 18.8976,168.189 56.6929,168.189 56.6929,168.189 94.4882,168.189 94.4882,168.189 94.4882,130.3937 94.4882,130.3937"/>
    <polyline points="111.5108,72.4508 117.1358,72.4508 117.1358,72.4508 119.0108,71.8258 119.0108,71.8258 119.6358,71.2008 119.6358,71.2008 120.2608,69.9508 120.2608,69.9508 120.2608,68.7008 120.2608,68.7008 119.6358,67.4508 119.6358,67.4508 119.0108,66.8258 119.0108,66.8258 117.1358,66.2008 117.1358,66.2008 111.5108,66.2008 111.5108,66.2008 111.5108,79.3258"/>
    <line x1="115.8858" x2="120.2608" y1="72.4508" y2="79.3258"/>
    <polygon points="151.8061,66.2008 150.5561,66.8258 150.5561,66.8258 149.3061,68.0758 149.3061,68.0758 148.6811,69.3258 148.6811,69.3258 148.0561,71.2008 148.0561,71.2008 148.0561,74.3258 148.0561,74.3258 148.6811,76.2008 148.6811,76.2008 149.3061,77.4508 149.3061,77.4508 150.5561,78.7008 150.5561,78.7008 151.8061,79.3258 151.8061,79.3258 154.3061,79.3258 154.3061,79.3258 155.5561,78.7008 155.5561,78.7008 156.8061,77.4508 156.8061,77.4508 157.4311,76.2008 157.4311,76.2008 158.0561,74.3258 158.0561,74.3258 158.0561,71.2008 158.0561,71.2008 157.4311,69.3258 157.4311,69.3258 156.8061,68.0758 156.8061,68.0758 155.5561,66.8258 155.5561,66.8258 154.3061,66.2008 154.3061,66.2008"/>
    <polyline points="170.0787,92.5984 207.874,92.5984 207.874,92.5984 207.874,54.8031 207.874,54.8031 170.0787,54.8031"/>
    <polygon points="189.6014,66.2008 188.3514,66.8258 188.3514,66.8258 187.1014,68.0758 187.1014,68.0758 186.4764,69.3258 186.4764,69.3258 185.8514,71.2008 185.8514,71.2008 185.8514,74.3258 185.8514,74.3258 186.4764,76.2008 186.4764,76.2008 187.1014,77.4508 187.1014,77.4508 188.3514,78.7008 188.3514,78.7008 189.6014,79.3258 189.6014,79.3258 192.1014,79.3258 192.1014,79.3258 193.3514,78.7008 193.3514,78.7008 194.6014,77.4508 194.6014,77.4508 195.2264,76.2008 195.2264,76.2008 195.8514,74.3258 195.8514,74.3258 195.8514,71.2008 195.8514,71.2008 195.2264,69.3258 195.2264,69.3258 194.6014,68.0758 194.6014,68.0758 193.3514,66.8258 193.3514,66.8258 192.1014,66.2008 192.1014,66.2008"/>
    <polyline points="207.874,92.5984 245.6693,92.5984 245.6693,92.5984 245.6693,54.8031 245.6693,54.8031 207.874,54.8031"/>
    <polygon points="224.8967,66.2008 224.8967,79.3258 224.8967,79.3258 229.2717,79.3258 229.2717,79.3258 231.1467,78.7008 231.1467,78.7008 232.3967,77.4508 232.3967,77.4508 233.0217,76.2008 233.0217,76.2008 233.6467,74.3258 233.6467,74.3258 233.6467,71.2008 233.6467,71.2008 233.0217,69.3258 233.0217,69.3258 232.3967,68.0758 232.3967,68.0758 231.1467,66.8258 231.1467,66.8258 229.2717,66.2008 229.2717,66.2008"/>
    <polyline points="338.2825,72.4508 343.9075,72.4508 343.9075,72.4508 345.7825,71.8258 345.7825,71.8258 346.4075,71.2008 346.4075,71.2008 347.0325,69.9508 347.0325,69.9508 347.0325,68.7008 347.0325,68.7008 346.4075,67.4508 346.4075,67.4508 345.7825,66.8258 345.7825,66.8258 343.9075,66.2008 343.9075,66.2008 338.2825,66.2008 338.2825,66.2008 338.2825,79.3258"/>
    <line x1="342.6575" x2="347.0325" y1="72.4508" y2="79.3258"/>
    <polyline points="548.0315,130.3937 510.2362,130.3937 510.2362,130.3937 510.2362,168.189 510.2362,168.189 472.4409,168.189 472.4409,168.189 472.4409,130.3937 472.4409,130.3937 472.4409,92.5984 472.4409,92.5984 510.2362,92.5984 510.2362,92.5984 548.0315,92.5984 548.0315,92.5984 548.0315,130.3937 548.0315,130.3937 585.8268,130.3937 585.8268,130.3937 585.8268,92.5984 585.8268,92.5984 548.0315,92.5984"/>
    <polyline points="490.0886,66.2008 490.0886,79.3258 490.0886,79.3258 497.5886,79.3258"/>
    <polygon points="590.2165,56.7224 589.279,57.0349 589.279,57.0349 588.9665,57.6599 588.9665,57.6599 588.9665,58.2849 588.9665,58.2849 589.279,58.9099 589.279,58.9099 589.904,59.2224 589.904,59.2224 591.154,59.5349 591.154,59.5349 592.0915,59.8474 592.0915,59.8474 592.7165,60.4724 592.7165,60.4724 593.029,61.0974 593.029,61.0974 593.029,62.0349 593.029,62.0349 592.7165,62.6599 592.7165,62.6599 592.404,62.9724 592.404,62.9724 591.4665,63.2849 591.4665,63.2849 590.2165,63.2849 590.2165,63.2849 589.279,62.9724 589.279,62.9724 588.9665,62.6599 588.9665,62.6599 588.654,62.0349 588.654,62.0349 588.654,61.0974 588.654,61.0974 588.9665,60.4724 588.9665,60.4724 589.5915,59.8474 589.5915,59.8474 590.529,59.5349 590.529,59.5349 591.779,59.2224 591.779,59.2224 592.404,58.9099 592.404,58.9099 592.7165,58.2849 592.7165,58.2849 592.7165,57.6599 592.7165,57.6599 592.404,57.0349 592.404,57.0349 591.4665,56.7224 591.4665,56.7224"/>
    <polyline points="602.8494,73.0758 608.4744,73.0758 608.4744,73.0758 610.3494,72.4508 610.3494,72.4508 610.9744,71.8258 610.9744,71.8258 611.5994,70.5758 611.5994,70.5758 611.5994,68.7008 611.5994,68.7008 610.9744,67.4508 610.9744,67.4508 610.3494,66.8258 610.3494,66.8258 608.4744,66.2008 608.4744,66.2008 602.8494,66.2008 602.8494,66.2008 602.8494,79.3258"/>
    <polyline points="774.8031,92.5984 774.8031,130.3937 774.8031,130.3937 737.0079,130.3937 737.0079,130.3937 699.2126,130.3937 699.2126,130.3937 699.2126,168.189 699.2126,168.189 699.2126,205.9843 699.2126,205.9843 661.4173,205.9843 661.4173,205.9843 661.4173,168.189 661.4173,168.189 661.4173,130.3937 661.4173,130.3937 661.4173,92.5984 661.4173,92.5984 699.2126,92.5984 699.2126,92.5984 737.0079,92.5984 737.0079,92.5984 774.8031,92.5984 774.8031,92.5984 774.8031,54.8031"/>
    <polyline points="678.44,72.4508 684.065,72.4508 684.065,72.4508 685.94,71.8258 685.94,71.8258 686.565,71.2008 686.565,71.2008 687.19,69.9508 687.19,69.9508 687.19,68.7008 687.19,68.7008 686.565,67.4508 686.565,67.4508 685.94,66.8258 685.94,66.8258 684.065,66.2008 684.065,66.2008 678.44,66.2008 678.44,66.2008 678.44,79.3258"/>
    <line x1="682.815" x2="687.19" y1="72.4508" y2="79.3258"/>
    <polyline points="737.0079,54.8031 737.0079,92.5984 737.0079,92.5984 737.0079,130.3937 737.0079,130.3937 737.0079,168.189 737.0079,168.189 774.8031,168.189 774.8031,168.189 774.8031,130.3937"/>
    <line x1="758.4055" x2="758.4055" y1="66.2008" y2="79.3258"/>
    <polygon points="114.0108,103.9961 112.7608,104.6211 112.7608,104.6211 111.5108,105.8711 111.5108,105.8711 110.8858,107.1211 110.8858,107.1211 110.2608,108.9961 110.2608,108.9961 110.2608,112.1211 110.2608,112.1211 110.8858,113.9961 110.8858,113.9961 111.5108,115.2461 111.5108,115.2461 112.7608,116.4961 112.7608,116.4961 114.0108,117.1211 114.0108,117.1211 116.5108,117.1211 116.5108,117.1211 117.7608,116.4961 117.7608,116.4961 119.0108,115.2461 119.0108,115.2461 119.6358,113.9961 119.6358,113.9961 120.2608,112.1211 120.2608,112.1211 120.2608,108.9961 120.2608,108.9961 119.6358,107.1211 119.6358,107.1211 119.0108,105.8711 119.0108,105.8711 117.7608,104.6211 117.7608,104.6211 116.5108,103.9961 116.5108,103.9961"/>
    <line x1="283.4646" x2="283.4646" y1="130.3937" y2="92.5984"/>
    <polyline points="252.5591,96.7052 252.2466,97.6427 252.2466,97.6427 251.6216,98.2677 251.6216,98.2677 250.6841,98.5802 250.6841,98.5802 250.3716,98.5802 250.3716,98.5802 249.4341,98.2677 249.4341,98.2677 248.8091,97.6427 248.8091,97.6427 248.4966,96.7052 248.4966,96.7052 248.4966,96.3927 248.4966,96.3927 248.8091,95.4552 248.8091,95.4552 249.4341,94.8302 249.4341,94.8302 250.3716,94.5177 250.3716,94.5177 250.6841,94.5177 250.6841,94.5177 251.6216,94.8302 251.6216,94.8302 252.2466,95.4552 252.2466,95.4552 252.5591,96.7052 252.5591,96.7052 252.5591,98.2677 252.5591,98.2677 252.2466,99.8302 252.2466,99.8302 251.6216,100.7677 251.6216,100.7677 250.6841,101.0802 250.6841,101.0802 250.0591,101.0802 250.0591,101.0802 249.1216,100.7677 249.1216,100.7677 248.8091,100.1427"/>
    <polyline points="270.8169,105.8711 269.5669,104.6211 269.5669,104.6211 267.6919,103.9961 267.6919,103.9961 265.1919,103.9961 265.1919,103.9961 263.3169,104.6211 263.3169,104.6211 262.0669,105.8711 262.0669,105.8711 262.0669,107.1211 262.0669,107.1211 262.6919,108.3711 262.6919,108.3711 263.3169,108.9961 263.3169,108.9961 264.5669,109.6211 264.5669,109.6211 268.3169,110.8711 268.3169,110.8711 269.5669,111.4961 269.5669,111.4961 270.1919,112.1211 270.1919,112.1211 270.8169,113.3711 270.8169,113.3711 270.8169,115.2461 270.8169,115.2461 269.5669,116.4961 269.5669,116.4961 267.6919,117.1211 267.6919,117.1211 265.1919,117.1211 265.1919,117.1211 263.3169,116.4961 263.3169,116.4961 262.0669,115.2461"/>
    <line x1="302.9872" x2="302.9872" y1="103.9961" y2="117.1211"/>
    <line x1="298.6122" x2="307.3622" y1="103.9961" y2="103.9961"/>
    <polyline points="359.0551,205.9843 359.0551,168.189 359.0551,168.189 396.8504,168.189 396.8504,168.189 396.8504,205.9843 396.8504,205.9843 359.0551,205.9843 359.0551,205.9843 321.2598,205.9843 321.2598,205.9843 321.2598,168.189 321.2598,168.189 321.2598,130.3937 321.2598,130.3937 359.0551,130.3937 359.0551,130.3937 359.0551,92.5984 359.0551,92.5984 396.8504,92.5984 396.8504,92.5984 396.8504,130.3937 396.8504,130.3937 359.0551,130.3937 359.0551,130.3937 359.0551,168.189 359.0551,168.189 321.2598,168.189 321.2598,168.189 283.4646,168.189 283.4646,168.189 245.6693,168.189 245.6693,168.189 245.6693,205.9843 245.6693,205.9843 283.4646,205.9843 283.4646,205.9843 283.4646,168.189"/>
    <polyline points="346.72,103.9961 338.595,103.9961 338.595,103.9961 338.595,117.1211 338.595,117.1211 346.72,117.1211"/>
    <line x1="338.595" x2="343.595" y1="110.2461" y2="110.2461"/>
    <polyline points="376.0778,110.2461 381.7028,110.2461 381.7028,110.2461 383.5778,109.6211 383.5778,109.6211 384.2028,108.9961 384.2028,108.9961 384.8278,107.7461 384.8278,107.7461 384.8278,106.4961 384.8278,106.4961 384.2028,105.2461 384.2028,105.2461 383.5778,104.6211 383.5778,104.6211 381.7028,103.9961 381.7028,103.9961 376.0778,103.9961 376.0778,103.9961 376.0778,117.1211"/>
    <line x1="380.4528" x2="384.8278" y1="110.2461" y2="117.1211"/>
    <polyline points="438.4104,95.7677 439.0354,95.4552 439.0354,95.4552 439.9729,94.5177 439.9729,94.5177 439.9729,101.0802"/>
    <polygon points="445.5979,94.5177 444.6604,94.8302 444.6604,94.8302 444.0354,95.7677 444.0354,95.7677 443.7229,97.3302 443.7229,97.3302 443.7229,98.2677 443.7229,98.2677 444.0354,99.8302 444.0354,99.8302 444.6604,100.7677 444.6604,100.7677 445.5979,101.0802 445.5979,101.0802 446.2229,101.0802 446.2229,101.0802 447.1604,100.7677 447.1604,100.7677 447.7854,99.8302 447.7854,99.8302 448.0979,98.2677 448.0979,98.2677 448.0979,97.3302 448.0979,97.3302 447.7854,95.7677 447.7854,95.7677 447.1604,94.8302 447.1604,94.8302 446.2229,94.5177 446.2229,94.5177"/>
    <polyline points="461.0433,117.1211 461.0433,103.9961 461.0433,103.9961 456.0433,117.1211 456.0433,117.1211 451.0433,103.9961 451.0433,103.9961 451.0433,117.1211"/>
    <polyline points="496.9636,117.1211 491.9636,103.9961 491.9636,103.9961 486.9636,117.1211"/>
    <line x1="488.8386" x2="495.0886" y1="112.7461" y2="112.7461"/>
    <polyline points="536.0089,103.9961 536.0089,117.1211 536.0089,117.1211 527.2589,103.9961 527.2589,103.9961 527.2589,117.1211"/>
    <polygon points="565.0541,103.9961 565.0541,117.1211 565.0541,117.1211 569.4291,117.1211 569.4291,117.1211 571.3041,116.4961 571.3041,116.4961 572.5541,115.2461 572.5541,115.2461 573.1791,113.9961 573.1791,113.9961 573.8041,112.1211 573.8041,112.1211 573.8041,108.9961 573.8041,108.9961 573.1791,107.1211 573.1791,107.1211 572.5541,105.8711 572.5541,105.8711 571.3041,104.6211 571.3041,104.6211 569.4291,103.9961 569.4291,103.9961"/>
    <polyline points="585.8268,168.189 585.8268,130.3937 585.8268,130.3937 623.622,130.3937 623.622,130.3937 623.622,168.189 623.622,168.189 585.8268,168.189 585.8268,168.189 585.8268,205.9843 585.8268,205.9843 623.622,205.9843 623.622,205.9843 623.622,168.189"/>
    <polyline points="610.3494,117.1211 605.3494,103.9961 605.3494,103.9961 600.3494,117.1211"/>
    <line x1="602.2244" x2="608.4744" y1="112.7461" y2="112.7461"/>
    <polyline points="640.6447,110.2461 646.2697,110.2461 646.2697,110.2461 648.1447,109.6211 648.1447,109.6211 648.7697,108.9961 648.7697,108.9961 649.3947,107.7461 649.3947,107.7461 649.3947,106.4961 649.3947,106.4961 648.7697,105.2461 648.7697,105.2461 648.1447,104.6211 648.1447,104.6211 646.2697,103.9961 646.2697,103.9961 640.6447,103.9961 640.6447,103.9961 640.6447,117.1211"/>
    <line x1="645.0197" x2="649.3947" y1="110.2461" y2="117.1211"/>
    <line x1="682.815" x2="682.815" y1="103.9961" y2="117.1211"/>
    <polyline points="722.4852,103.9961 722.4852,113.9961 722.4852,113.9961 721.8602,115.8711 721.8602,115.8711 721.2352,116.4961 721.2352,116.4961 719.9852,117.1211 719.9852,117.1211 718.7352,117.1211 718.7352,117.1211 717.4852,116.4961 717.4852,116.4961 716.8602,115.8711 716.8602,115.8711 716.2352,113.9961 716.2352,113.9961 716.2352,112.7461"/>
    <polyline points="762.7805,103.9961 762.7805,117.1211 762.7805,117.1211 754.0305,103.9961 754.0305,103.9961 754.0305,117.1211"/>
    <line x1="56.6929" x2="56.6929" y1="168.189" y2="130.3937"/>
    <polyline points="22.6624,133.563 23.2874,133.2505 23.2874,133.2505 24.2249,132.313 24.2249,132.313 24.2249,138.8755"/>
    <polyline points="28.9124,133.563 29.5374,133.2505 29.5374,133.2505 30.4749,132.313 30.4749,132.313 30.4749,138.8755"/>
    <polyline points="33.4203,141.7913 38.4203,154.9163 38.4203,154.9163 43.4203,141.7913"/>
    <polyline points="82.1531,141.7913 74.0281,141.7913 74.0281,141.7913 74.0281,154.9163 74.0281,154.9163 82.1531,154.9163"/>
    <line x1="74.0281" x2="79.0281" y1="148.0413" y2="148.0413"/>
    <polygon points="94.4882,168.189 132.2835,168.189 132.2835,168.189 132.2835,205.9843 132.2835,205.9843 94.4882,205.9843 94.4882,205.9843 56.6929,205.9843 56.6929,205.9843 56.6929,243.7795 56.6929,243.7795 94.4882,243.7795 94.4882,243.7795 94.4882,205.9843 94.4882,205.9843"/>
    <polyline points="119.9483,141.7913 111.8233,141.7913 111.8233,141.7913 111.8233,154.9163 111.8233,154.9163 119.9483,154.9163"/>
    <line x1="111.8233" x2="116.8233" y1="148.0413" y2="148.0413"/>
    <polyline points="207.874,130.3937 245.6693,130.3937 245.6693,130.3937 245.6693,168.189 245.6693,168.189 207.874,168.189 207.874,168.189 207.874,205.9843 207.874,205.9843 207.874,243.7795 207.874,243.7795 170.0787,243.7795 170.0787,243.7795 170.0787,205.9843 170.0787,205.9843 170.0787,168.189 170.0787,168.189 170.0787,130.3937"/>
    <polyline points="149.3061,148.0413 154.9311,148.0413 154.9311,148.0413 156.8061,147.4163 156.8061,147.4163 157.4311,146.7913 157.4311,146.7913 158.0561,145.5413 158.0561,145.5413 158.0561,144.2913 158.0561,144.2913 157.4311,143.0413 157.4311,143.0413 156.8061,142.4163 156.8061,142.4163 154.9311,141.7913 154.9311,141.7913 149.3061,141.7913 149.3061,141.7913 149.3061,154.9163"/>
    <line x1="153.6811" x2="158.0561" y1="148.0413" y2="154.9163"/>
    <polyline points="173.8435,133.563 174.4685,133.2505 174.4685,133.2505 175.406,132.313 175.406,132.313 175.406,138.8755"/>
    <polyline points="179.4685,133.8755 179.4685,133.563 179.4685,133.563 179.781,132.938 179.781,132.938 180.0935,132.6255 180.0935,132.6255 180.7185,132.313 180.7185,132.313 181.9685,132.313 181.9685,132.313 182.5935,132.6255 182.5935,132.6255 182.906,132.938 182.906,132.938 183.2185,133.563 183.2185,133.563 183.2185,134.188 183.2185,134.188 182.906,134.813 182.906,134.813 182.281,135.7505 182.281,135.7505 179.156,138.8755 179.156,138.8755 183.531,138.8755"/>
    <polyline points="187.7264,141.7913 187.7264,154.9163 187.7264,154.9163 195.2264,154.9163"/>
    <polyline points="233.3342,141.7913 225.2092,141.7913 225.2092,141.7913 225.2092,154.9163 225.2092,154.9163 233.3342,154.9163"/>
    <line x1="225.2092" x2="230.2092" y1="148.0413" y2="148.0413"/>
    <line x1="342.6575" x2="342.6575" y1="141.7913" y2="154.9163"/>
    <polyline points="486.9636,141.7913 491.9636,154.9163 491.9636,154.9163 496.9636,141.7913"/>
    <polyline points="602.8494,148.0413 608.4744,148.0413 608.4744,148.0413 610.3494,147.4163 610.3494,147.4163 610.9744,146.7913 610.9744,146.7913 611.5994,145.5413 611.5994,145.5413 611.5994,144.2913 611.5994,144.2913 610.9744,143.0413 610.9744,143.0413 610.3494,142.4163 610.3494,142.4163 608.4744,141.7913 608.4744,141.7913 602.8494,141.7913 602.8494,141.7913 602.8494,154.9163"/>
    <line x1="607.2244" x2="611.5994" y1="148.0413" y2="154.9163"/>
    <line x1="661.4173" x2="699.2126" y1="168.189" y2="168.189"/>
    <polyline points="686.8775,141.7913 678.7525,141.7913 678.7525,141.7913 678.7525,154.9163 678.7525,154.9163 686.8775,154.9163"/>
    <line x1="678.7525" x2="683.7525" y1="148.0413" y2="148.0413"/>
    <polygon points="754.0305,141.7913 754.0305,154.9163 754.0305,154.9163 758.4055,154.9163 758.4055,154.9163 760.2805,154.2913 760.2805,154.2913 761.5305,153.0413 761.5305,153.0413 762.1555,151.7913 762.1555,151.7913 762.7805,149.9163 762.7805,149.9163 762.7805,146.7913 762.7805,146.7913 762.1555,144.9163 762.1555,144.9163 761.5305,143.6663 761.5305,143.6663 760.2805,142.4163 760.2805,142.4163 758.4055,141.7913 758.4055,141.7913"/>
    <polyline points="120.2608,179.5866 120.2608,192.7116 120.2608,192.7116 111.5108,179.5866 111.5108,179.5866 111.5108,192.7116"/>
    <line x1="170.0787" x2="207.874" y1="205.9843" y2="205.9843"/>
    <polyline points="194.6014,192.7116 189.6014,179.5866 189.6014,179.5866 184.6014,192.7116"/>
    <line x1="186.4764" x2="192.7264" y1="188.3366" y2="188.3366"/>
    <polyline points="249.4341,171.3583 250.0591,171.0458 250.0591,171.0458 250.9966,170.1083 250.9966,170.1083 250.9966,176.6708"/>
    <polyline points="255.3716,170.1083 258.8091,170.1083 258.8091,170.1083 256.9341,172.6083 256.9341,172.6083 257.8716,172.6083 257.8716,172.6083 258.4966,172.9208 258.4966,172.9208 258.8091,173.2333 258.8091,173.2333 259.1216,174.1708 259.1216,174.1708 259.1216,174.7958 259.1216,174.7958 258.8091,175.7333 258.8091,175.7333 258.1841,176.3583 258.1841,176.3583 257.2466,176.6708 257.2466,176.6708 256.3091,176.6708 256.3091,176.6708 255.3716,176.3583 255.3716,176.3583 255.0591,176.0458 255.0591,176.0458 254.7466,175.4208"/>
    <line x1="262.6919" x2="262.6919" y1="179.5866" y2="192.7116"/>
    <line x1="271.4419" x2="271.4419" y1="179.5866" y2="192.7116"/>
    <line x1="262.6919" x2="271.4419" y1="185.8366" y2="185.8366"/>
    <line x1="283.4646" x2="321.2598" y1="205.9843" y2="205.9843"/>
    <polyline points="307.9872,192.7116 302.9872,179.5866 302.9872,179.5866 297.9872,192.7116"/>
    <line x1="299.8622" x2="306.1122" y1="188.3366" y2="188.3366"/>
    <polyline points="347.0325,179.5866 347.0325,192.7116 347.0325,192.7116 338.2825,179.5866 338.2825,179.5866 338.2825,192.7116"/>
    <polygon points="376.0778,179.5866 376.0778,192.7116 376.0778,192.7116 380.4528,192.7116 380.4528,192.7116 382.3278,192.0866 382.3278,192.0866 383.5778,190.8366 383.5778,190.8366 384.2028,189.5866 384.2028,189.5866 384.8278,187.7116 384.8278,187.7116 384.8278,184.5866 384.8278,184.5866 384.2028,182.7116 384.2028,182.7116 383.5778,181.4616 383.5778,181.4616 382.3278,180.2116 382.3278,180.2116 380.4528,179.5866 380.4528,179.5866"/>
    <polyline points="396.8504,205.9843 434.6457,205.9843 434.6457,205.9843 434.6457,168.189 434.6457,168.189 396.8504,168.189"/>
    <polygon points="413.873,179.5866 413.873,192.7116 413.873,192.7116 418.248,192.7116 418.248,192.7116 420.123,192.0866 420.123,192.0866 421.373,190.8366 421.373,190.8366 421.998,189.5866 421.998,189.5866 422.623,187.7116 422.623,187.7116 422.623,184.5866 422.623,184.5866 421.998,182.7116 421.998,182.7116 421.373,181.4616 421.373,181.4616 420.123,180.2116 420.123,180.2116 418.248,179.5866 418.248,179.5866"/>
    <polyline points="434.6457,205.9843 472.4409,205.9843 472.4409,205.9843 472.4409,243.7795 472.4409,243.7795 510.2362,243.7795 510.2362,243.7795 510.2362,205.9843 510.2362,205.9843 510.2362,168.189 510.2362,168.189 548.0315,168.189 548.0315,168.189 548.0315,205.9843 548.0315,205.9843 510.2362,205.9843 510.2362,205.9843 472.4409,205.9843 472.4409,205.9843 472.4409,168.189 472.4409,168.189 434.6457,168.189"/>
    <polygon points="454.1683,179.5866 452.9183,180.2116 452.9183,180.2116 451.6683,181.4616 451.6683,181.4616 451.0433,182.7116 451.0433,182.7116 450.4183,184.5866 450.4183,184.5866 450.4183,187.7116 450.4183,187.7116 451.0433,189.5866 451.0433,189.5866 451.6683,190.8366 451.6683,190.8366 452.9183,192.0866 452.9183,192.0866 454.1683,192.7116 454.1683,192.7116 456.6683,192.7116 456.6683,192.7116 457.9183,192.0866 457.9183,192.0866 459.1683,190.8366 459.1683,190.8366 459.7933,189.5866 459.7933,189.5866 460.4183,187.7116 460.4183,187.7116 460.4183,184.5866 460.4183,184.5866 459.7933,182.7116 459.7933,182.7116 459.1683,181.4616 459.1683,181.4616 457.9183,180.2116 457.9183,180.2116 456.6683,179.5866 456.6683,179.5866"/>
    <polyline points="497.9011,179.5866 489.7761,179.5866 489.7761,179.5866 489.7761,192.7116 489.7761,192.7116 497.9011,192.7116"/>
    <line x1="489.7761" x2="494.7761" y1="185.8366" y2="185.8366"/>
    <line x1="527.2589" x2="527.2589" y1="179.5866" y2="192.7116"/>
    <line x1="536.0089" x2="527.2589" y1="179.5866" y2="188.3366"/>
    <line x1="530.3839" x2="536.0089" y1="185.2116" y2="192.7116"/>
    <line x1="602.8494" x2="602.8494" y1="179.5866" y2="192.7116"/>
    <line x1="611.5994" x2="602.8494" y1="179.5866" y2="188.3366"/>
    <line x1="605.9744" x2="611.5994" y1="185.2116" y2="192.7116"/>
    <line x1="680.94" x2="680.94" y1="179.5866" y2="192.7116"/>
    <line x1="676.565" x2="685.315" y1="179.5866" y2="179.5866"/>
    <polyline points="737.0079,168.189 737.0079,205.9843 737.0079,205.9843 737.0079,243.7795 737.0079,243.7795 774.8031,243.7795 774.8031,243.7795 774.8031,205.9843 774.8031,205.9843 774.8031,168.189"/>
    <line x1="737.0079" x2="774.8031" y1="205.9843" y2="205.9843"/>
    <polyline points="762.468,179.5866 754.343,179.5866 754.343,179.5866 754.343,192.7116 754.343,192.7116 762.468,192.7116"/>
    <line x1="754.343" x2="759.343" y1="185.8366" y2="185.8366"/>
    <polyline points="60.4577,209.1535 61.0827,208.841 61.0827,208.841 62.0202,207.9035 62.0202,207.9035 62.0202,214.466"/>
    <polyline points="68.8952,214.466 68.8952,207.9035 68.8952,207.9035 65.7702,212.2785 65.7702,212.2785 70.4577,212.2785"/>
    <line x1="73.7156" x2="73.7156" y1="217.3819" y2="230.5069"/>
    <line x1="82.4656" x2="73.7156" y1="217.3819" y2="226.1319"/>
    <line x1="76.8406" x2="82.4656" y1="223.0069" y2="230.5069"/>
    <polygon points="187.1014,217.3819 187.1014,230.5069 187.1014,230.5069 191.4764,230.5069 191.4764,230.5069 193.3514,229.8819 193.3514,229.8819 194.6014,228.6319 194.6014,228.6319 195.2264,227.3819 195.2264,227.3819 195.8514,225.5069 195.8514,225.5069 195.8514,222.3819 195.8514,222.3819 195.2264,220.5069 195.2264,220.5069 194.6014,219.2569 194.6014,219.2569 193.3514,218.0069 193.3514,218.0069 191.4764,217.3819 191.4764,217.3819"/>
    <polyline points="489.4636,223.6319 495.0886,223.6319 495.0886,223.6319 496.9636,223.0069 496.9636,223.0069 497.5886,222.3819 497.5886,222.3819 498.2136,221.1319 498.2136,221.1319 498.2136,219.8819 498.2136,219.8819 497.5886,218.6319 497.5886,218.6319 496.9636,218.0069 496.9636,218.0069 495.0886,217.3819 495.0886,217.3819 489.4636,217.3819 489.4636,217.3819 489.4636,230.5069"/>
    <line x1="493.8386" x2="498.2136" y1="223.6319" y2="230.5069"/>
    <polyline points="585.8268,205.9843 585.8268,243.7795 585.8268,243.7795 623.622,243.7795 623.622,243.7795 623.622,205.9843"/>
    <polyline points="611.2869,217.3819 603.1619,217.3819 603.1619,217.3819 603.1619,230.5069 603.1619,230.5069 611.2869,230.5069"/>
    <line x1="603.1619" x2="608.1619" y1="223.6319" y2="223.6319"/>
    <polyline points="661.4173,205.9843 661.4173,243.7795 661.4173,243.7795 699.2126,243.7795 699.2126,243.7795 699.2126,205.9843"/>
    <polyline points="684.69,217.3819 684.69,227.3819 684.69,227.3819 684.065,229.2569 684.065,229.2569 683.44,229.8819 683.44,229.8819 682.19,230.5069 682.19,230.5069 680.94,230.5069 680.94,230.5069 679.69,229.8819 679.69,229.8819 679.065,229.2569 679.065,229.2569 678.44,227.3819 678.44,227.3819 678.44,226.1319"/>
    <polyline points="754.0305,223.6319 759.6555,223.6319 759.6555,223.6319 761.5305,223.0069 761.5305,223.0069 762.1555,222.3819 762.1555,222.3819 762.7805,221.1319 762.7805,221.1319 762.7805,219.8819 762.7805,219.8819 762.1555,218.6319 762.1555,218.6319 761.5305,218.0069 761.5305,218.0069 759.6555,217.3819 759.6555,217.3819 754.0305,217.3819 754.0305,217.3819 754.0305,230.5069"/>
    <line x1="758.4055" x2="762.7805" y1="223.6319" y2="230.5069"/>
    <polygon points="18.8976,243.7795 18.8976,281.5748 18.8976,281.5748 56.6929,281.5748 56.6929,281.5748 56.6929,243.7795 56.6929,243.7795"/>
    <polyline points="22.6624,246.9488 23.2874,246.6363 23.2874,246.6363 24.2249,245.6988 24.2249,245.6988 24.2249,252.2613"/>
    <polyline points="31.7249,245.6988 28.5999,245.6988 28.5999,245.6988 28.2874,248.5113 28.2874,248.5113 28.5999,248.1988 28.5999,248.1988 29.5374,247.8863 29.5374,247.8863 30.4749,247.8863 30.4749,247.8863 31.4124,248.1988 31.4124,248.1988 32.0374,248.8238 32.0374,248.8238 32.3499,249.7613 32.3499,249.7613 32.3499,250.3863 32.3499,250.3863 32.0374,251.3238 32.0374,251.3238 31.4124,251.9488 31.4124,251.9488 30.4749,252.2613 30.4749,252.2613 29.5374,252.2613 29.5374,252.2613 28.5999,251.9488 28.5999,251.9488 28.2874,251.6363 28.2874,251.6363 27.9749,251.0113"/>
    <line x1="35.9203" x2="35.9203" y1="255.1772" y2="268.3022"/>
    <line x1="44.6703" x2="44.6703" y1="255.1772" y2="268.3022"/>
    <line x1="35.9203" x2="44.6703" y1="261.4272" y2="261.4272"/>
    <polyline points="132.2835,281.5748 94.4882,281.5748 94.4882,281.5748 94.4882,319.3701 94.4882,319.3701 94.4882,357.1654 94.4882,357.1654 56.6929,357.1654 56.6929,357.1654 56.6929,319.3701 56.6929,319.3701 56.6929,281.5748 56.6929,281.5748 94.4882,281.5748 94.4882,281.5748 94.4882,243.7795 94.4882,243.7795 132.2835,243.7795 132.2835,243.7795 132.2835,281.5748 132.2835,281.5748 170.0787,281.5748 170.0787,281.5748 207.874,281.5748 207.874,281.5748 207.874,243.7795"/>
    <polygon points="76.2156,255.1772 74.9656,255.8022 74.9656,255.8022 73.7156,257.0522 73.7156,257.0522 73.0906,258.3022 73.0906,258.3022 72.4656,260.1772 72.4656,260.1772 72.4656,263.3022 72.4656,263.3022 73.0906,265.1772 73.0906,265.1772 73.7156,266.4272 73.7156,266.4272 74.9656,267.6772 74.9656,267.6772 76.2156,268.3022 76.2156,268.3022 78.7156,268.3022 78.7156,268.3022 79.9656,267.6772 79.9656,267.6772 81.2156,266.4272 81.2156,266.4272 81.8406,265.1772 81.8406,265.1772 82.4656,263.3022 82.4656,263.3022 82.4656,260.1772 82.4656,260.1772 81.8406,258.3022 81.8406,258.3022 81.2156,257.0522 81.2156,257.0522 79.9656,255.8022 79.9656,255.8022 78.7156,255.1772 78.7156,255.1772"/>
    <polygon points="114.0108,255.1772 112.7608,255.8022 112.7608,255.8022 111.5108,257.0522 111.5108,257.0522 110.8858,258.3022 110.8858,258.3022 110.2608,260.1772 110.2608,260.1772 110.2608,263.3022 110.2608,263.3022 110.8858,265.1772 110.8858,265.1772 111.5108,266.4272 111.5108,266.4272 112.7608,267.6772 112.7608,267.6772 114.0108,268.3022 114.0108,268.3022 116.5108,268.3022 116.5108,268.3022 117.7608,267.6772 117.7608,267.6772 119.0108,266.4272 119.0108,266.4272 119.6358,265.1772 119.6358,265.1772 120.2608,263.3022 120.2608,263.3022 120.2608,260.1772 120.2608,260.1772 119.6358,258.3022 119.6358,258.3022 119.0108,257.0522 119.0108,257.0522 117.7608,255.8022 117.7608,255.8022 116.5108,255.1772 116.5108,255.1772"/>
    <polyline points="207.874,281.5748 207.874,319.3701 207.874,319.3701 170.0787,319.3701 170.0787,319.3701 170.0787,281.5748 170.0787,281.5748 170.0787,243.7795 170.0787,243.7795 132.2835,243.7795"/>
    <polyline points="157.7436,255.1772 149.6186,255.1772 149.6186,255.1772 149.6186,268.3022"/>
    <line x1="149.6186" x2="154.6186" y1="261.4272" y2="261.4272"/>
    <polygon points="187.1014,255.1772 187.1014,268.3022 187.1014,268.3022 191.4764,268.3022 191.4764,268.3022 193.3514,267.6772 193.3514,267.6772 194.6014,266.4272 194.6014,266.4272 195.2264,265.1772 195.2264,265.1772 195.8514,263.3022 195.8514,263.3022 195.8514,260.1772 195.8514,260.1772 195.2264,258.3022 195.2264,258.3022 194.6014,257.0522 194.6014,257.0522 193.3514,255.8022 193.3514,255.8022 191.4764,255.1772 191.4764,255.1772"/>
    <polygon points="283.4646,243.7795 283.4646,281.5748 283.4646,281.5748 321.2598,281.5748 321.2598,281.5748 359.0551,281.5748 359.0551,281.5748 359.0551,243.7795 359.0551,243.7795 321.2598,243.7795 321.2598,243.7795"/>
    <line x1="321.2598" x2="321.2598" y1="281.5748" y2="243.7795"/>
    <polyline points="287.2293,246.9488 287.8543,246.6363 287.8543,246.6363 288.7918,245.6988 288.7918,245.6988 288.7918,252.2613"/>
    <polyline points="296.6043,246.6363 296.2918,246.0113 296.2918,246.0113 295.3543,245.6988 295.3543,245.6988 294.7293,245.6988 294.7293,245.6988 293.7918,246.0113 293.7918,246.0113 293.1668,246.9488 293.1668,246.9488 292.8543,248.5113 292.8543,248.5113 292.8543,250.0738 292.8543,250.0738 293.1668,251.3238 293.1668,251.3238 293.7918,251.9488 293.7918,251.9488 294.7293,252.2613 294.7293,252.2613 295.0418,252.2613 295.0418,252.2613 295.9793,251.9488 295.9793,251.9488 296.6043,251.3238 296.6043,251.3238 296.9168,250.3863 296.9168,250.3863 296.9168,250.0738 296.9168,250.0738 296.6043,249.1363 296.6043,249.1363 295.9793,248.5113 295.9793,248.5113 295.0418,248.1988 295.0418,248.1988 294.7293,248.1988 294.7293,248.1988 293.7918,248.5113 293.7918,248.5113 293.1668,249.1363 293.1668,249.1363 292.8543,250.0738"/>
    <polyline points="308.6122,257.0522 307.3622,255.8022 307.3622,255.8022 305.4872,255.1772 305.4872,255.1772 302.9872,255.1772 302.9872,255.1772 301.1122,255.8022 301.1122,255.8022 299.8622,257.0522 299.8622,257.0522 299.8622,258.3022 299.8622,258.3022 300.4872,259.5522 300.4872,259.5522 301.1122,260.1772 301.1122,260.1772 302.3622,260.8022 302.3622,260.8022 306.1122,262.0522 306.1122,262.0522 307.3622,262.6772 307.3622,262.6772 307.9872,263.3022 307.9872,263.3022 308.6122,264.5522 308.6122,264.5522 308.6122,266.4272 308.6122,266.4272 307.3622,267.6772 307.3622,267.6772 305.4872,268.3022 305.4872,268.3022 302.9872,268.3022 302.9872,268.3022 301.1122,267.6772 301.1122,267.6772 299.8622,266.4272"/>
    <line x1="340.7825" x2="340.7825" y1="255.1772" y2="268.3022"/>
    <line x1="336.4075" x2="345.1575" y1="255.1772" y2="255.1772"/>
    <polyline points="359.0551,281.5748 396.8504,281.5748 396.8504,281.5748 396.8504,243.7795 396.8504,243.7795 359.0551,243.7795"/>
    <polyline points="376.0778,255.1772 376.0778,264.5522 376.0778,264.5522 376.7028,266.4272 376.7028,266.4272 377.9528,267.6772 377.9528,267.6772 379.8278,268.3022 379.8278,268.3022 381.0778,268.3022 381.0778,268.3022 382.9528,267.6772 382.9528,267.6772 384.2028,266.4272 384.2028,266.4272 384.8278,264.5522 384.8278,264.5522 384.8278,255.1772"/>
    <polyline points="396.8504,281.5748 434.6457,281.5748 434.6457,281.5748 434.6457,243.7795 434.6457,243.7795 396.8504,243.7795"/>
    <polyline points="421.373,268.3022 416.373,255.1772 416.373,255.1772 411.373,268.3022"/>
    <line x1="413.248" x2="419.498" y1="263.9272" y2="263.9272"/>
    <polyline points="434.6457,281.5748 472.4409,281.5748 472.4409,281.5748 510.2362,281.5748 510.2362,281.5748 510.2362,243.7795"/>
    <polyline points="245.6693,319.3701 245.6693,357.1654 245.6693,357.1654 207.874,357.1654 207.874,357.1654 207.874,319.3701 207.874,319.3701 245.6693,319.3701 245.6693,319.3701 283.4646,319.3701 283.4646,319.3701 321.2598,319.3701 321.2598,319.3701 359.0551,319.3701 359.0551,319.3701 396.8504,319.3701 396.8504,319.3701 434.6457,319.3701 434.6457,319.3701 472.4409,319.3701 472.4409,319.3701 472.4409,281.5748 472.4409,281.5748 472.4409,243.7795 472.4409,243.7795 434.6457,243.7795"/>
    <polyline points="451.6683,261.4272 457.2933,261.4272 457.2933,261.4272 459.1683,260.8022 459.1683,260.8022 459.7933,260.1772 459.7933,260.1772 460.4183,258.9272 460.4183,258.9272 460.4183,257.6772 460.4183,257.6772 459.7933,256.4272 459.7933,256.4272 459.1683,255.8022 459.1683,255.8022 457.2933,255.1772 457.2933,255.1772 451.6683,255.1772 451.6683,255.1772 451.6683,268.3022"/>
    <line x1="456.0433" x2="460.4183" y1="261.4272" y2="268.3022"/>
    <line x1="491.9636" x2="491.9636" y1="255.1772" y2="268.3022"/>
    <line x1="487.5886" x2="496.3386" y1="255.1772" y2="255.1772"/>
    <polyline points="585.8268,243.7795 585.8268,281.5748 585.8268,281.5748 585.8268,319.3701 585.8268,319.3701 623.622,319.3701 623.622,319.3701 623.622,281.5748 623.622,281.5748 623.622,243.7795"/>
    <line x1="585.8268" x2="623.622" y1="281.5748" y2="281.5748"/>
    <polyline points="602.8494,261.4272 608.4744,261.4272 608.4744,261.4272 610.3494,260.8022 610.3494,260.8022 610.9744,260.1772 610.9744,260.1772 611.5994,258.9272 611.5994,258.9272 611.5994,257.6772 611.5994,257.6772 610.9744,256.4272 610.9744,256.4272 610.3494,255.8022 610.3494,255.8022 608.4744,255.1772 608.4744,255.1772 602.8494,255.1772 602.8494,255.1772 602.8494,268.3022"/>
    <line x1="607.2244" x2="611.5994" y1="261.4272" y2="268.3022"/>
    <polyline points="661.4173,243.7795 661.4173,281.5748 661.4173,281.5748 661.4173,319.3701 661.4173,319.3701 699.2126,319.3701 699.2126,319.3701 699.2126,281.5748 699.2126,281.5748 699.2126,243.7795"/>
    <line x1="661.4173" x2="699.2126" y1="281.5748" y2="281.5748"/>
    <polyline points="686.8775,255.1772 678.7525,255.1772 678.7525,255.1772 678.7525,268.3022 678.7525,268.3022 686.8775,268.3022"/>
    <line x1="678.7525" x2="683.7525" y1="261.4272" y2="261.4272"/>
    <polyline points="737.0079,243.7795 737.0079,281.5748 737.0079,281.5748 737.0079,319.3701 737.0079,319.3701 774.8031,319.3701 774.8031,319.3701 774.8031,281.5748 774.8031,281.5748 774.8031,243.7795"/>
    <line x1="737.0079" x2="774.8031" y1="281.5748" y2="281.5748"/>
    <polyline points="762.468,255.1772 754.343,255.1772 754.343,255.1772 754.343,268.3022 754.343,268.3022 762.468,268.3022"/>
    <line x1="754.343" x2="759.343" y1="261.4272" y2="261.4272"/>
    <line x1="56.6929" x2="94.4882" y1="319.3701" y2="319.3701"/>
    <polyline points="73.7156,292.9724 73.7156,302.3474 73.7156,302.3474 74.3406,304.2224 74.3406,304.2224 75.5906,305.4724 75.5906,305.4724 77.4656,306.0974 77.4656,306.0974 78.7156,306.0974 78.7156,306.0974 80.5906,305.4724 80.5906,305.4724 81.8406,304.2224 81.8406,304.2224 82.4656,302.3474 82.4656,302.3474 82.4656,292.9724"/>
    <polyline points="195.5389,292.9724 187.4139,292.9724 187.4139,292.9724 187.4139,306.0974 187.4139,306.0974 195.5389,306.0974"/>
    <line x1="187.4139" x2="192.4139" y1="299.2224" y2="299.2224"/>
    <polygon points="472.4409,319.3701 510.2362,319.3701 510.2362,319.3701 548.0315,319.3701 548.0315,319.3701 548.0315,281.5748 548.0315,281.5748 510.2362,281.5748 510.2362,281.5748 510.2362,319.3701 510.2362,319.3701 510.2362,357.1654 510.2362,357.1654 472.4409,357.1654 472.4409,357.1654"/>
    <polyline points="476.2057,284.7441 476.8307,284.4316 476.8307,284.4316 477.7682,283.4941 477.7682,283.4941 477.7682,290.0566"/>
    <polyline points="481.5182,283.4941 485.8932,283.4941 485.8932,283.4941 482.7682,290.0566"/>
    <polyline points="495.7136,292.9724 495.7136,302.9724 495.7136,302.9724 495.0886,304.8474 495.0886,304.8474 494.4636,305.4724 494.4636,305.4724 493.2136,306.0974 493.2136,306.0974 491.9636,306.0974 491.9636,306.0974 490.7136,305.4724 490.7136,305.4724 490.0886,304.8474 490.0886,304.8474 489.4636,302.9724 489.4636,302.9724 489.4636,301.7224"/>
    <polyline points="534.7589,306.0974 529.7589,292.9724 529.7589,292.9724 524.7589,306.0974"/>
    <line x1="526.6339" x2="532.8839" y1="301.7224" y2="301.7224"/>
    <polyline points="611.2869,292.9724 603.1619,292.9724 603.1619,292.9724 603.1619,306.0974 603.1619,306.0974 611.2869,306.0974"/>
    <line x1="603.1619" x2="608.1619" y1="299.2224" y2="299.2224"/>
    <polyline points="686.565,294.8474 685.315,293.5974 685.315,293.5974 683.44,292.9724 683.44,292.9724 680.94,292.9724 680.94,292.9724 679.065,293.5974 679.065,293.5974 677.815,294.8474 677.815,294.8474 677.815,296.0974 677.815,296.0974 678.44,297.3474 678.44,297.3474 679.065,297.9724 679.065,297.9724 680.315,298.5974 680.315,298.5974 684.065,299.8474 684.065,299.8474 685.315,300.4724 685.315,300.4724 685.94,301.0974 685.94,301.0974 686.565,302.3474 686.565,302.3474 686.565,304.2224 686.565,304.2224 685.315,305.4724 685.315,305.4724 683.44,306.0974 683.44,306.0974 680.94,306.0974 680.94,306.0974 679.065,305.4724 679.065,305.4724 677.815,304.2224"/>
    <polyline points="762.7805,292.9724 762.7805,306.0974 762.7805,306.0974 754.0305,292.9724 754.0305,292.9724 754.0305,306.0974"/>
    <polyline points="81.8406,332.6427 80.5906,331.3927 80.5906,331.3927 78.7156,330.7677 78.7156,330.7677 76.2156,330.7677 76.2156,330.7677 74.3406,331.3927 74.3406,331.3927 73.0906,332.6427 73.0906,332.6427 73.0906,333.8927 73.0906,333.8927 73.7156,335.1427 73.7156,335.1427 74.3406,335.7677 74.3406,335.7677 75.5906,336.3927 75.5906,336.3927 79.3406,337.6427 79.3406,337.6427 80.5906,338.2677 80.5906,338.2677 81.2156,338.8927 81.2156,338.8927 81.8406,340.1427 81.8406,340.1427 81.8406,342.0177 81.8406,342.0177 80.5906,343.2677 80.5906,343.2677 78.7156,343.8927 78.7156,343.8927 76.2156,343.8927 76.2156,343.8927 74.3406,343.2677 74.3406,343.2677 73.0906,342.0177"/>
    <polyline points="170.0787,319.3701 170.0787,357.1654 170.0787,357.1654 207.874,357.1654"/>
    <polyline points="173.8435,322.5394 174.4685,322.2269 174.4685,322.2269 175.406,321.2894 175.406,321.2894 175.406,327.8519"/>
    <polygon points="180.7185,321.2894 179.781,321.6019 179.781,321.6019 179.4685,322.2269 179.4685,322.2269 179.4685,322.8519 179.4685,322.8519 179.781,323.4769 179.781,323.4769 180.406,323.7894 180.406,323.7894 181.656,324.1019 181.656,324.1019 182.5935,324.4144 182.5935,324.4144 183.2185,325.0394 183.2185,325.0394 183.531,325.6644 183.531,325.6644 183.531,326.6019 183.531,326.6019 183.2185,327.2269 183.2185,327.2269 182.906,327.5394 182.906,327.5394 181.9685,327.8519 181.9685,327.8519 180.7185,327.8519 180.7185,327.8519 179.781,327.5394 179.781,327.5394 179.4685,327.2269 179.4685,327.2269 179.156,326.6019 179.156,326.6019 179.156,325.6644 179.156,325.6644 179.4685,325.0394 179.4685,325.0394 180.0935,324.4144 180.0935,324.4144 181.031,324.1019 181.031,324.1019 182.281,323.7894 182.281,323.7894 182.906,323.4769 182.906,323.4769 183.2185,322.8519 183.2185,322.8519 183.2185,322.2269 183.2185,322.2269 182.906,321.6019 182.906,321.6019 181.9685,321.2894 181.9685,321.2894"/>
    <polyline points="187.1014,337.0177 192.7264,337.0177 192.7264,337.0177 194.6014,336.3927 194.6014,336.3927 195.2264,335.7677 195.2264,335.7677 195.8514,334.5177 195.8514,334.5177 195.8514,333.2677 195.8514,333.2677 195.2264,332.0177 195.2264,332.0177 194.6014,331.3927 194.6014,331.3927 192.7264,330.7677 192.7264,330.7677 187.1014,330.7677 187.1014,330.7677 187.1014,343.8927"/>
    <line x1="191.4764" x2="195.8514" y1="337.0177" y2="343.8927"/>
    <polyline points="233.3342,330.7677 225.2092,330.7677 225.2092,330.7677 225.2092,343.8927 225.2092,343.8927 233.3342,343.8927"/>
    <line x1="225.2092" x2="230.2092" y1="337.0177" y2="337.0177"/>
    <polyline points="245.6693,357.1654 283.4646,357.1654 283.4646,357.1654 321.2598,357.1654 321.2598,357.1654 321.2598,319.3701"/>
    <line x1="283.4646" x2="283.4646" y1="357.1654" y2="319.3701"/>
    <line x1="262.6919" x2="262.6919" y1="330.7677" y2="343.8927"/>
    <line x1="271.4419" x2="262.6919" y1="330.7677" y2="339.5177"/>
    <line x1="265.8169" x2="271.4419" y1="336.3927" y2="343.8927"/>
    <line x1="300.4872" x2="300.4872" y1="330.7677" y2="343.8927"/>
    <line x1="309.2372" x2="300.4872" y1="330.7677" y2="339.5177"/>
    <line x1="303.6122" x2="309.2372" y1="336.3927" y2="343.8927"/>
    <polyline points="321.2598,357.1654 359.0551,357.1654 359.0551,357.1654 396.8504,357.1654 396.8504,357.1654 396.8504,319.3701"/>
    <line x1="359.0551" x2="359.0551" y1="357.1654" y2="319.3701"/>
    <polyline points="346.72,330.7677 338.595,330.7677 338.595,330.7677 338.595,343.8927 338.595,343.8927 346.72,343.8927"/>
    <line x1="338.595" x2="343.595" y1="337.0177" y2="337.0177"/>
    <polyline points="376.0778,337.0177 381.7028,337.0177 381.7028,337.0177 383.5778,336.3927 383.5778,336.3927 384.2028,335.7677 384.2028,335.7677 384.8278,334.5177 384.8278,334.5177 384.8278,333.2677 384.8278,333.2677 384.2028,332.0177 384.2028,332.0177 383.5778,331.3927 383.5778,331.3927 381.7028,330.7677 381.7028,330.7677 376.0778,330.7677 376.0778,330.7677 376.0778,343.8927"/>
    <line x1="380.4528" x2="384.8278" y1="337.0177" y2="343.8927"/>
    <polyline points="396.8504,357.1654 434.6457,357.1654 434.6457,357.1654 434.6457,319.3701"/>
    <line x1="416.373" x2="416.373" y1="330.7677" y2="343.8927"/>
    <line x1="411.998" x2="420.748" y1="330.7677" y2="330.7677"/>
    <line x1="434.6457" x2="472.4409" y1="357.1654" y2="357.1654"/>
    <polyline points="457.9183,330.7677 457.9183,340.7677 457.9183,340.7677 457.2933,342.6427 457.2933,342.6427 456.6683,343.2677 456.6683,343.2677 455.4183,343.8927 455.4183,343.8927 454.1683,343.8927 454.1683,343.8927 452.9183,343.2677 452.9183,343.2677 452.2933,342.6427 452.2933,342.6427 451.6683,340.7677 451.6683,340.7677 451.6683,339.5177"/>
    <polyline points="497.9011,330.7677 489.7761,330.7677 489.7761,330.7677 489.7761,343.8927 489.7761,343.8927 497.9011,343.8927"/>
    <line x1="489.7761" x2="494.7761" y1="337.0177" y2="337.0177"/>
    <polyline points="585.8268,319.3701 585.8268,357.1654 585.8268,357.1654 623.622,357.1654 623.622,357.1654 623.622,319.3701"/>
    <polyline points="611.5994,330.7677 611.5994,343.8927 611.5994,343.8927 602.8494,330.7677 602.8494,330.7677 602.8494,343.8927"/>
  </g>
</svg>
