<?xml version="1.0" encoding="utf-8" ?>
<svg xmlns="http://www.w3.org/2000/svg" xmlns:cc="http://creativecommons.org/ns" xmlns:dc="http://purl.org/dc/elements/1.1/" xmlns:ev="http://www.w3.org/2001/xml-events" xmlns:inkscape="http://www.inkscape.org/namespaces/inkscape" xmlns:rdf="http://www.w3.org/1999/02/22-rdf-syntax-ns" xmlns:sodipodi="http://sodipodi.sourceforge.net/DTD/sodipodi-0.dtd" xmlns:xlink="http://www.w3.org/1999/xlink" baseProfile="tiny" height="9.9cm" version="1.2" viewBox="0 0 793.7007874015749 374.1732283464567" width="21.0cm">
  <metadata>
    <rdf:RDF>
      <cc:Work>
        <dc:format>image/svg+xml</dc:format>
        <dc:source>vpype eval 'cell=10;width=210;height=99' eval 'nCols=20;nRows=9' eval 'cells=[1,5,6,7,8,9,11,12,13,14,15,16,17,18,19,21,23,25,30,37,40,41,42,43,44,45,46,47,49,50,51,52,53,54,55,56,57,58,59,61,63,65,68,70,77,81,83,85,88,90,94,95,96,97,98,99,102,103,104,105,106,107,108,109,110,111,112,113,117,119,123,128,130,134,135,136,137,138,139,143,148,157,159,160,161,162,163,164,165,166,167,169,170,171,172,173,174,175,176,177]' eval 'chars=[&quot;G&quot;,&quot;T&quot;,&quot;R&quot;,&quot;E&quot;,&quot;I&quot;,&quot;N&quot;,&quot;U&quot;,&quot;I&quot;,&quot;T&quot;,&quot;L&quot;,&quot;I&quot;,&quot;K&quot;,&quot;K&quot;,&quot;E&quot;,&quot;N&quot;,&quot;R&quot;,&quot;S&quot;,&quot;E&quot;,&quot;K&quot;,&quot;L&quot;,&quot;P&quot;,&quot;A&quot;,&quot;R&quot;,&quot;K&quot;,&quot;E&quot;,&quot;R&quot;,&quot;E&quot;,&quot;N&quot;,&quot;M&quot;,&quot;I&quot;,&quot;S&quot;,&quot;V&quot;,&quot;E&quot;,&quot;R&quot;,&quot;S&quot;,&quot;T&quot;,&quot;A&quot;,&quot;N&quot;,&quot;D&quot;,&quot;A&quot;,&quot;E&quot;,&quot;R&quot;,&quot;W&quot;,&quot;E&quot;,&quot;V&quot;,&quot;T&quot;,&quot;L&quot;,&quot;A&quot;,&quot;E&quot;,&quot;M&quot;,&quot;L&quot;,&quot;A&quot;,&quot;K&quot;,&quot;E&quot;,&quot;N&quot;,&quot;S&quot;,&quot;F&quot;,&quot;L&quot;,&quot;E&quot;,&quot;S&quot;,&quot;S&quot;,&quot;E&quot;,&quot;N&quot;,&quot;G&quot;,&quot;E&quot;,&quot;L&quot;,&quot;U&quot;,&quot;K&quot;,&quot;R&quot;,&quot;T&quot;,&quot;E&quot;,&quot;D&quot;,&quot;N&quot;,&quot;C&quot;,&quot;E&quot;,&quot;N&quot;,&quot;T&quot;,&quot;J&quot;,&quot;E&quot;,&quot;K&quot;,&quot;Y&quot;,&quot;J&quot;,&quot;R&quot;,&quot;R&quot;,&quot;E&quot;,&quot;G&quot;,&quot;E&quot;,&quot;N&quot;,&quot;B&quot;,&quot;U&quot;,&quot;I&quot;,&quot;R&quot;,&quot;E&quot;,&quot;K&quot;,&quot;K&quot;,&quot;E&quot;,&quot;R&quot;,&quot;T&quot;,&quot;J&quot;,&quot;E&quot;]' eval 'numbers=[1,5,11,17,23,30,40,49,68,94,99,102,134,160,169]' eval counter=1 eval charIndex=0 begin grid -o '%cell*mm%' '%cell*mm%' %nCols% %nRows% eval '%isCell=_i in cells%' eval '%number=_i in numbers%' eval '%size=10 if isCell else 0%' rect 0 0 '%size*mm%' '%size*mm%' text -s 10 -p 0.5mm 1.5mm '%counter if number else '&quot;'&quot;''&quot;'&quot;'%' text -s 20 -p 5mm 5mm -a center '%chars[charIndex] if isCell else '&quot;'&quot;''&quot;'&quot;'%' eval '%if number: counter+=1 %' eval '%if isCell: charIndex+=1 %' end splitall deduplicate linemerge --tolerance 0.1mm write -m none --page-size '%width*mm%x%height*mm%' --center ./svgs/solution/2cff3e.svg
</dc:source>
        <dc:date>2023-12-23T22:30:06.172705</dc:date>
      </cc:Work>
    </rdf:RDF>
  </metadata>
  <defs/>
  <g fill="none" id="layer1" inkscape:groupmode="layer" inkscape:label="1" stroke="#000000" style="display:inline">
    <polygon points="56.6929,17.0079 56.6929,54.8031 56.6929,54.8031 56.6929,92.5984 56.6929,92.5984 18.8976,92.5984 18.8976,92.5984 18.8976,130.3937 18.8976,130.3937 56.6929,130.3937 56.6929,130.3937 94.4882,130.3937 94.4882,130.3937 94.4882,92.5984 94.4882,92.5984 94.4882,54.8031 94.4882,54.8031 94.4882,17.0079 94.4882,17.0079"/>
    <line x1="56.6929" x2="94.4882" y1="54.8031" y2="54.8031"/>
    <polyline points="60.4577,20.1772 61.0827,19.8647 61.0827,19.8647 62.0202,18.9272 62.0202,18.9272 62.0202,25.4897"/>
    <polyline points="82.1531,31.5305 81.5281,30.2805 81.5281,30.2805 80.2781,29.0305 80.2781,29.0305 79.0281,28.4055 79.0281,28.4055 76.5281,28.4055 76.5281,28.4055 75.2781,29.0305 75.2781,29.0305 74.0281,30.2805 74.0281,30.2805 73.4031,31.5305 73.4031,31.5305 72.7781,33.4055 72.7781,33.4055 72.7781,36.5305 72.7781,36.5305 73.4031,38.4055 73.4031,38.4055 74.0281,39.6555 74.0281,39.6555 75.2781,40.9055 75.2781,40.9055 76.5281,41.5305 76.5281,41.5305 79.0281,41.5305 79.0281,41.5305 80.2781,40.9055 80.2781,40.9055 81.5281,39.6555 81.5281,39.6555 82.1531,38.4055 82.1531,38.4055 82.1531,36.5305 82.1531,36.5305 79.0281,36.5305"/>
    <polyline points="207.874,54.8031 245.6693,54.8031 245.6693,54.8031 245.6693,17.0079 245.6693,17.0079 207.874,17.0079 207.874,17.0079 207.874,54.8031 207.874,54.8031 207.874,92.5984 207.874,92.5984 170.0787,92.5984 170.0787,92.5984 170.0787,54.8031 170.0787,54.8031 132.2835,54.8031 132.2835,54.8031 132.2835,92.5984 132.2835,92.5984 94.4882,92.5984 94.4882,92.5984 56.6929,92.5984 56.6929,92.5984 56.6929,130.3937 56.6929,130.3937 56.6929,168.189 56.6929,168.189 94.4882,168.189 94.4882,168.189 94.4882,130.3937 94.4882,130.3937 132.2835,130.3937 132.2835,130.3937 132.2835,168.189 132.2835,168.189 132.2835,205.9843 132.2835,205.9843 94.4882,205.9843 94.4882,205.9843 94.4882,168.189"/>
    <polyline points="211.0138,20.4897 211.0138,20.1772 211.0138,20.1772 211.3263,19.5522 211.3263,19.5522 211.6388,19.2397 211.6388,19.2397 212.2638,18.9272 212.2638,18.9272 213.5138,18.9272 213.5138,18.9272 214.1388,19.2397 214.1388,19.2397 214.4513,19.5522 214.4513,19.5522 214.7638,20.1772 214.7638,20.1772 214.7638,20.8022 214.7638,20.8022 214.4513,21.4272 214.4513,21.4272 213.8263,22.3647 213.8263,22.3647 210.7013,25.4897 210.7013,25.4897 215.0763,25.4897"/>
    <line x1="227.3967" x2="227.3967" y1="28.4055" y2="41.5305"/>
    <line x1="223.0217" x2="231.7717" y1="28.4055" y2="28.4055"/>
    <polyline points="132.2835,168.189 170.0787,168.189 170.0787,168.189 170.0787,130.3937 170.0787,130.3937 132.2835,130.3937 132.2835,130.3937 132.2835,92.5984 132.2835,92.5984 170.0787,92.5984 170.0787,92.5984 170.0787,130.3937 170.0787,130.3937 207.874,130.3937 207.874,130.3937 207.874,92.5984 207.874,92.5984 245.6693,92.5984 245.6693,92.5984 283.4646,92.5984 283.4646,92.5984 321.2598,92.5984 321.2598,92.5984 321.2598,130.3937 321.2598,130.3937 359.0551,130.3937 359.0551,130.3937 359.0551,92.5984 359.0551,92.5984 396.8504,92.5984 396.8504,92.5984 396.8504,54.8031 396.8504,54.8031 434.6457,54.8031 434.6457,54.8031 434.6457,92.5984 434.6457,92.5984 396.8504,92.5984 396.8504,92.5984 396.8504,130.3937 396.8504,130.3937 359.0551,130.3937 359.0551,130.3937 359.0551,168.189 359.0551,168.189 359.0551,205.9843 359.0551,205.9843 321.2598,205.9843 321.2598,205.9843 321.2598,168.189 321.2598,168.189 321.2598,130.3937 321.2598,130.3937 283.4646,130.3937 283.4646,130.3937 245.6693,130.3937 245.6693,130.3937 245.6693,168.189 245.6693,168.189 207.874,168.189 207.874,168.189 207.874,130.3937 207.874,130.3937 245.6693,130.3937 245.6693,130.3937 245.6693,92.5984 245.6693,92.5984 245.6693,54.8031 245.6693,54.8031 283.4646,54.8031 283.4646,54.8031 283.4646,17.0079 283.4646,17.0079 245.6693,17.0079"/>
    <polyline points="262.6919,34.6555 268.3169,34.6555 268.3169,34.6555 270.1919,34.0305 270.1919,34.0305 270.8169,33.4055 270.8169,33.4055 271.4419,32.1555 271.4419,32.1555 271.4419,30.9055 271.4419,30.9055 270.8169,29.6555 270.8169,29.6555 270.1919,29.0305 270.1919,29.0305 268.3169,28.4055 268.3169,28.4055 262.6919,28.4055 262.6919,28.4055 262.6919,41.5305"/>
    <line x1="267.0669" x2="271.4419" y1="34.6555" y2="41.5305"/>
    <polyline points="283.4646,54.8031 321.2598,54.8031 321.2598,54.8031 359.0551,54.8031 359.0551,54.8031 359.0551,17.0079 359.0551,17.0079 321.2598,17.0079 321.2598,17.0079 283.4646,17.0079"/>
    <line x1="321.2598" x2="321.2598" y1="54.8031" y2="17.0079"/>
    <polyline points="308.9247,28.4055 300.7997,28.4055 300.7997,28.4055 300.7997,41.5305 300.7997,41.5305 308.9247,41.5305"/>
    <line x1="300.7997" x2="305.7997" y1="34.6555" y2="34.6555"/>
    <line x1="342.6575" x2="342.6575" y1="28.4055" y2="41.5305"/>
    <polyline points="359.0551,54.8031 396.8504,54.8031 396.8504,54.8031 396.8504,17.0079 396.8504,17.0079 359.0551,17.0079"/>
    <polyline points="384.8278,28.4055 384.8278,41.5305 384.8278,41.5305 376.0778,28.4055 376.0778,28.4055 376.0778,41.5305"/>
    <polygon points="434.6457,17.0079 434.6457,54.8031 434.6457,54.8031 472.4409,54.8031 472.4409,54.8031 472.4409,17.0079 472.4409,17.0079"/>
    <polyline points="438.0979,18.9272 441.5354,18.9272 441.5354,18.9272 439.6604,21.4272 439.6604,21.4272 440.5979,21.4272 440.5979,21.4272 441.2229,21.7397 441.2229,21.7397 441.5354,22.0522 441.5354,22.0522 441.8479,22.9897 441.8479,22.9897 441.8479,23.6147 441.8479,23.6147 441.5354,24.5522 441.5354,24.5522 440.9104,25.1772 440.9104,25.1772 439.9729,25.4897 439.9729,25.4897 439.0354,25.4897 439.0354,25.4897 438.0979,25.1772 438.0979,25.1772 437.7854,24.8647 437.7854,24.8647 437.4729,24.2397"/>
    <polyline points="451.6683,28.4055 451.6683,37.7805 451.6683,37.7805 452.2933,39.6555 452.2933,39.6555 453.5433,40.9055 453.5433,40.9055 455.4183,41.5305 455.4183,41.5305 456.6683,41.5305 456.6683,41.5305 458.5433,40.9055 458.5433,40.9055 459.7933,39.6555 459.7933,39.6555 460.4183,37.7805 460.4183,37.7805 460.4183,28.4055"/>
    <polyline points="472.4409,54.8031 510.2362,54.8031 510.2362,54.8031 510.2362,17.0079 510.2362,17.0079 472.4409,17.0079"/>
    <line x1="493.8386" x2="493.8386" y1="28.4055" y2="41.5305"/>
    <polyline points="510.2362,54.8031 548.0315,54.8031 548.0315,54.8031 548.0315,17.0079 548.0315,17.0079 510.2362,17.0079"/>
    <line x1="529.7589" x2="529.7589" y1="28.4055" y2="41.5305"/>
    <line x1="525.3839" x2="534.1339" y1="28.4055" y2="28.4055"/>
    <polyline points="548.0315,54.8031 585.8268,54.8031 585.8268,54.8031 585.8268,17.0079 585.8268,17.0079 548.0315,17.0079"/>
    <polyline points="565.6791,28.4055 565.6791,41.5305 565.6791,41.5305 573.1791,41.5305"/>
    <polyline points="585.8268,54.8031 623.622,54.8031 623.622,54.8031 661.4173,54.8031 661.4173,54.8031 661.4173,92.5984 661.4173,92.5984 699.2126,92.5984 699.2126,92.5984 699.2126,54.8031 699.2126,54.8031 699.2126,17.0079 699.2126,17.0079 661.4173,17.0079 661.4173,17.0079 623.622,17.0079 623.622,17.0079 585.8268,17.0079"/>
    <line x1="623.622" x2="623.622" y1="54.8031" y2="17.0079"/>
    <line x1="607.2244" x2="607.2244" y1="28.4055" y2="41.5305"/>
    <polyline points="699.2126,17.0079 737.0079,17.0079 737.0079,17.0079 737.0079,54.8031 737.0079,54.8031 699.2126,54.8031 699.2126,54.8031 661.4173,54.8031 661.4173,54.8031 661.4173,17.0079"/>
    <line x1="640.6447" x2="640.6447" y1="28.4055" y2="41.5305"/>
    <line x1="649.3947" x2="640.6447" y1="28.4055" y2="37.1555"/>
    <line x1="643.7697" x2="649.3947" y1="34.0305" y2="41.5305"/>
    <polyline points="667.3696,25.4897 667.3696,18.9272 667.3696,18.9272 664.2446,23.3022 664.2446,23.3022 668.9321,23.3022"/>
    <line x1="678.44" x2="678.44" y1="28.4055" y2="41.5305"/>
    <line x1="687.19" x2="678.44" y1="28.4055" y2="37.1555"/>
    <line x1="681.565" x2="687.19" y1="34.0305" y2="41.5305"/>
    <polyline points="724.6727,28.4055 716.5477,28.4055 716.5477,28.4055 716.5477,41.5305 716.5477,41.5305 724.6727,41.5305"/>
    <line x1="716.5477" x2="721.5477" y1="34.6555" y2="34.6555"/>
    <polyline points="737.0079,54.8031 774.8031,54.8031 774.8031,54.8031 774.8031,17.0079 774.8031,17.0079 737.0079,17.0079"/>
    <polyline points="762.7805,28.4055 762.7805,41.5305 762.7805,41.5305 754.0305,28.4055 754.0305,28.4055 754.0305,41.5305"/>
    <polyline points="73.7156,72.4508 79.3406,72.4508 79.3406,72.4508 81.2156,71.8258 81.2156,71.8258 81.8406,71.2008 81.8406,71.2008 82.4656,69.9508 82.4656,69.9508 82.4656,68.7008 82.4656,68.7008 81.8406,67.4508 81.8406,67.4508 81.2156,66.8258 81.2156,66.8258 79.3406,66.2008 79.3406,66.2008 73.7156,66.2008 73.7156,66.2008 73.7156,79.3258"/>
    <line x1="78.0906" x2="82.4656" y1="72.4508" y2="79.3258"/>
    <polyline points="138.8607,56.7224 135.7357,56.7224 135.7357,56.7224 135.4232,59.5349 135.4232,59.5349 135.7357,59.2224 135.7357,59.2224 136.6732,58.9099 136.6732,58.9099 137.6107,58.9099 137.6107,58.9099 138.5482,59.2224 138.5482,59.2224 139.1732,59.8474 139.1732,59.8474 139.4857,60.7849 139.4857,60.7849 139.4857,61.4099 139.4857,61.4099 139.1732,62.3474 139.1732,62.3474 138.5482,62.9724 138.5482,62.9724 137.6107,63.2849 137.6107,63.2849 136.6732,63.2849 136.6732,63.2849 135.7357,62.9724 135.7357,62.9724 135.4232,62.6599 135.4232,62.6599 135.1107,62.0349"/>
    <polyline points="157.4311,68.0758 156.1811,66.8258 156.1811,66.8258 154.3061,66.2008 154.3061,66.2008 151.8061,66.2008 151.8061,66.2008 149.9311,66.8258 149.9311,66.8258 148.6811,68.0758 148.6811,68.0758 148.6811,69.3258 148.6811,69.3258 149.3061,70.5758 149.3061,70.5758 149.9311,71.2008 149.9311,71.2008 151.1811,71.8258 151.1811,71.8258 154.9311,73.0758 154.9311,73.0758 156.1811,73.7008 156.1811,73.7008 156.8061,74.3258 156.8061,74.3258 157.4311,75.5758 157.4311,75.5758 157.4311,77.4508 157.4311,77.4508 156.1811,78.7008 156.1811,78.7008 154.3061,79.3258 154.3061,79.3258 151.8061,79.3258 151.8061,79.3258 149.9311,78.7008 149.9311,78.7008 148.6811,77.4508"/>
    <polyline points="233.3342,66.2008 225.2092,66.2008 225.2092,66.2008 225.2092,79.3258 225.2092,79.3258 233.3342,79.3258"/>
    <line x1="225.2092" x2="230.2092" y1="72.4508" y2="72.4508"/>
    <polyline points="403.7402,57.6599 403.4277,57.0349 403.4277,57.0349 402.4902,56.7224 402.4902,56.7224 401.8652,56.7224 401.8652,56.7224 400.9277,57.0349 400.9277,57.0349 400.3027,57.9724 400.3027,57.9724 399.9902,59.5349 399.9902,59.5349 399.9902,61.0974 399.9902,61.0974 400.3027,62.3474 400.3027,62.3474 400.9277,62.9724 400.9277,62.9724 401.8652,63.2849 401.8652,63.2849 402.1777,63.2849 402.1777,63.2849 403.1152,62.9724 403.1152,62.9724 403.7402,62.3474 403.7402,62.3474 404.0527,61.4099 404.0527,61.4099 404.0527,61.0974 404.0527,61.0974 403.7402,60.1599 403.7402,60.1599 403.1152,59.5349 403.1152,59.5349 402.1777,59.2224 402.1777,59.2224 401.8652,59.2224 401.8652,59.2224 400.9277,59.5349 400.9277,59.5349 400.3027,60.1599 400.3027,60.1599 399.9902,61.0974"/>
    <line x1="413.873" x2="413.873" y1="66.2008" y2="79.3258"/>
    <line x1="422.623" x2="413.873" y1="66.2008" y2="74.9508"/>
    <line x1="416.998" x2="422.623" y1="71.8258" y2="79.3258"/>
    <polyline points="679.065,66.2008 679.065,79.3258 679.065,79.3258 686.565,79.3258"/>
    <polyline points="21.7249,94.5177 26.0999,94.5177 26.0999,94.5177 22.9749,101.0802"/>
    <polyline points="35.9203,110.8711 41.5453,110.8711 41.5453,110.8711 43.4203,110.2461 43.4203,110.2461 44.0453,109.6211 44.0453,109.6211 44.6703,108.3711 44.6703,108.3711 44.6703,106.4961 44.6703,106.4961 44.0453,105.2461 44.0453,105.2461 43.4203,104.6211 43.4203,104.6211 41.5453,103.9961 41.5453,103.9961 35.9203,103.9961 35.9203,103.9961 35.9203,117.1211"/>
    <polyline points="81.2156,117.1211 76.2156,103.9961 76.2156,103.9961 71.2156,117.1211"/>
    <line x1="73.0906" x2="79.3406" y1="112.7461" y2="112.7461"/>
    <polyline points="111.5108,110.2461 117.1358,110.2461 117.1358,110.2461 119.0108,109.6211 119.0108,109.6211 119.6358,108.9961 119.6358,108.9961 120.2608,107.7461 120.2608,107.7461 120.2608,106.4961 120.2608,106.4961 119.6358,105.2461 119.6358,105.2461 119.0108,104.6211 119.0108,104.6211 117.1358,103.9961 117.1358,103.9961 111.5108,103.9961 111.5108,103.9961 111.5108,117.1211"/>
    <line x1="115.8858" x2="120.2608" y1="110.2461" y2="117.1211"/>
    <line x1="149.3061" x2="149.3061" y1="103.9961" y2="117.1211"/>
    <line x1="158.0561" x2="149.3061" y1="103.9961" y2="112.7461"/>
    <line x1="152.4311" x2="158.0561" y1="109.6211" y2="117.1211"/>
    <polyline points="195.5389,103.9961 187.4139,103.9961 187.4139,103.9961 187.4139,117.1211 187.4139,117.1211 195.5389,117.1211"/>
    <line x1="187.4139" x2="192.4139" y1="110.2461" y2="110.2461"/>
    <polyline points="224.8967,110.2461 230.5217,110.2461 230.5217,110.2461 232.3967,109.6211 232.3967,109.6211 233.0217,108.9961 233.0217,108.9961 233.6467,107.7461 233.6467,107.7461 233.6467,106.4961 233.6467,106.4961 233.0217,105.2461 233.0217,105.2461 232.3967,104.6211 232.3967,104.6211 230.5217,103.9961 230.5217,103.9961 224.8967,103.9961 224.8967,103.9961 224.8967,117.1211"/>
    <line x1="229.2717" x2="233.6467" y1="110.2461" y2="117.1211"/>
    <line x1="283.4646" x2="283.4646" y1="130.3937" y2="92.5984"/>
    <polyline points="271.1294,103.9961 263.0044,103.9961 263.0044,103.9961 263.0044,117.1211 263.0044,117.1211 271.1294,117.1211"/>
    <line x1="263.0044" x2="268.0044" y1="110.2461" y2="110.2461"/>
    <polyline points="309.2372,103.9961 309.2372,117.1211 309.2372,117.1211 300.4872,103.9961 300.4872,103.9961 300.4872,117.1211"/>
    <polygon points="363.4449,94.5177 362.5074,94.8302 362.5074,94.8302 362.1949,95.4552 362.1949,95.4552 362.1949,96.0802 362.1949,96.0802 362.5074,96.7052 362.5074,96.7052 363.1324,97.0177 363.1324,97.0177 364.3824,97.3302 364.3824,97.3302 365.3199,97.6427 365.3199,97.6427 365.9449,98.2677 365.9449,98.2677 366.2574,98.8927 366.2574,98.8927 366.2574,99.8302 366.2574,99.8302 365.9449,100.4552 365.9449,100.4552 365.6324,100.7677 365.6324,100.7677 364.6949,101.0802 364.6949,101.0802 363.4449,101.0802 363.4449,101.0802 362.5074,100.7677 362.5074,100.7677 362.1949,100.4552 362.1949,100.4552 361.8824,99.8302 361.8824,99.8302 361.8824,98.8927 361.8824,98.8927 362.1949,98.2677 362.1949,98.2677 362.8199,97.6427 362.8199,97.6427 363.7574,97.3302 363.7574,97.3302 365.0074,97.0177 365.0074,97.0177 365.6324,96.7052 365.6324,96.7052 365.9449,96.0802 365.9449,96.0802 365.9449,95.4552 365.9449,95.4552 365.6324,94.8302 365.6324,94.8302 364.6949,94.5177 364.6949,94.5177"/>
    <polyline points="385.4528,117.1211 385.4528,103.9961 385.4528,103.9961 380.4528,117.1211 380.4528,117.1211 375.4528,103.9961 375.4528,103.9961 375.4528,117.1211"/>
    <polyline points="548.0315,130.3937 510.2362,130.3937 510.2362,130.3937 472.4409,130.3937 472.4409,130.3937 434.6457,130.3937 434.6457,130.3937 434.6457,168.189 434.6457,168.189 396.8504,168.189 396.8504,168.189 396.8504,130.3937 396.8504,130.3937 434.6457,130.3937 434.6457,130.3937 434.6457,92.5984 434.6457,92.5984 472.4409,92.5984 472.4409,92.5984 510.2362,92.5984 510.2362,92.5984 548.0315,92.5984 548.0315,92.5984 548.0315,130.3937 548.0315,130.3937 585.8268,130.3937 585.8268,130.3937 585.8268,92.5984 585.8268,92.5984 548.0315,92.5984"/>
    <line x1="418.248" x2="418.248" y1="103.9961" y2="117.1211"/>
    <line x1="472.4409" x2="472.4409" y1="130.3937" y2="92.5984"/>
    <polyline points="459.7933,105.8711 458.5433,104.6211 458.5433,104.6211 456.6683,103.9961 456.6683,103.9961 454.1683,103.9961 454.1683,103.9961 452.2933,104.6211 452.2933,104.6211 451.0433,105.8711 451.0433,105.8711 451.0433,107.1211 451.0433,107.1211 451.6683,108.3711 451.6683,108.3711 452.2933,108.9961 452.2933,108.9961 453.5433,109.6211 453.5433,109.6211 457.2933,110.8711 457.2933,110.8711 458.5433,111.4961 458.5433,111.4961 459.1683,112.1211 459.1683,112.1211 459.7933,113.3711 459.7933,113.3711 459.7933,115.2461 459.7933,115.2461 458.5433,116.4961 458.5433,116.4961 456.6683,117.1211 456.6683,117.1211 454.1683,117.1211 454.1683,117.1211 452.2933,116.4961 452.2933,116.4961 451.0433,115.2461"/>
    <line x1="510.2362" x2="510.2362" y1="130.3937" y2="92.5984"/>
    <polyline points="486.9636,103.9961 491.9636,117.1211 491.9636,117.1211 496.9636,103.9961"/>
    <polyline points="535.6964,103.9961 527.5714,103.9961 527.5714,103.9961 527.5714,117.1211 527.5714,117.1211 535.6964,117.1211"/>
    <line x1="527.5714" x2="532.5714" y1="110.2461" y2="110.2461"/>
    <polyline points="565.0541,110.2461 570.6791,110.2461 570.6791,110.2461 572.5541,109.6211 572.5541,109.6211 573.1791,108.9961 573.1791,108.9961 573.8041,107.7461 573.8041,107.7461 573.8041,106.4961 573.8041,106.4961 573.1791,105.2461 573.1791,105.2461 572.5541,104.6211 572.5541,104.6211 570.6791,103.9961 570.6791,103.9961 565.0541,103.9961 565.0541,103.9961 565.0541,117.1211"/>
    <line x1="569.4291" x2="573.8041" y1="110.2461" y2="117.1211"/>
    <polyline points="585.8268,130.3937 623.622,130.3937 623.622,130.3937 661.4173,130.3937 661.4173,130.3937 661.4173,168.189 661.4173,168.189 699.2126,168.189 699.2126,168.189 699.2126,130.3937 699.2126,130.3937 699.2126,92.5984 699.2126,92.5984 737.0079,92.5984 737.0079,92.5984 774.8031,92.5984 774.8031,92.5984 774.8031,130.3937 774.8031,130.3937 737.0079,130.3937 737.0079,130.3937 737.0079,92.5984"/>
    <polyline points="623.622,130.3937 623.622,92.5984 623.622,92.5984 585.8268,92.5984"/>
    <polyline points="610.9744,105.8711 609.7244,104.6211 609.7244,104.6211 607.8494,103.9961 607.8494,103.9961 605.3494,103.9961 605.3494,103.9961 603.4744,104.6211 603.4744,104.6211 602.2244,105.8711 602.2244,105.8711 602.2244,107.1211 602.2244,107.1211 602.8494,108.3711 602.8494,108.3711 603.4744,108.9961 603.4744,108.9961 604.7244,109.6211 604.7244,109.6211 608.4744,110.8711 608.4744,110.8711 609.7244,111.4961 609.7244,111.4961 610.3494,112.1211 610.3494,112.1211 610.9744,113.3711 610.9744,113.3711 610.9744,115.2461 610.9744,115.2461 609.7244,116.4961 609.7244,116.4961 607.8494,117.1211 607.8494,117.1211 605.3494,117.1211 605.3494,117.1211 603.4744,116.4961 603.4744,116.4961 602.2244,115.2461"/>
    <polyline points="737.0079,130.3937 699.2126,130.3937 699.2126,130.3937 661.4173,130.3937 661.4173,130.3937 661.4173,92.5984 661.4173,92.5984 623.622,92.5984"/>
    <line x1="643.1447" x2="643.1447" y1="103.9961" y2="117.1211"/>
    <line x1="638.7697" x2="647.5197" y1="103.9961" y2="103.9961"/>
    <polyline points="685.94,117.1211 680.94,103.9961 680.94,103.9961 675.94,117.1211"/>
    <line x1="677.815" x2="684.065" y1="112.7461" y2="112.7461"/>
    <polyline points="724.9852,103.9961 724.9852,117.1211 724.9852,117.1211 716.2352,103.9961 716.2352,103.9961 716.2352,117.1211"/>
    <polygon points="754.0305,103.9961 754.0305,117.1211 754.0305,117.1211 758.4055,117.1211 758.4055,117.1211 760.2805,116.4961 760.2805,116.4961 761.5305,115.2461 761.5305,115.2461 762.1555,113.9961 762.1555,113.9961 762.7805,112.1211 762.7805,112.1211 762.7805,108.9961 762.7805,108.9961 762.1555,107.1211 762.1555,107.1211 761.5305,105.8711 761.5305,105.8711 760.2805,104.6211 760.2805,104.6211 758.4055,103.9961 758.4055,103.9961"/>
    <polyline points="81.2156,154.9163 76.2156,141.7913 76.2156,141.7913 71.2156,154.9163"/>
    <line x1="73.0906" x2="79.3406" y1="150.5413" y2="150.5413"/>
    <polyline points="157.7436,141.7913 149.6186,141.7913 149.6186,141.7913 149.6186,154.9163 149.6186,154.9163 157.7436,154.9163"/>
    <line x1="149.6186" x2="154.6186" y1="148.0413" y2="148.0413"/>
    <polyline points="224.8967,148.0413 230.5217,148.0413 230.5217,148.0413 232.3967,147.4163 232.3967,147.4163 233.0217,146.7913 233.0217,146.7913 233.6467,145.5413 233.6467,145.5413 233.6467,144.2913 233.6467,144.2913 233.0217,143.0413 233.0217,143.0413 232.3967,142.4163 232.3967,142.4163 230.5217,141.7913 230.5217,141.7913 224.8967,141.7913 224.8967,141.7913 224.8967,154.9163"/>
    <line x1="229.2717" x2="233.6467" y1="148.0413" y2="154.9163"/>
    <line x1="321.2598" x2="359.0551" y1="168.189" y2="168.189"/>
    <polyline points="328.1496,134.5005 327.8371,135.438 327.8371,135.438 327.2121,136.063 327.2121,136.063 326.2746,136.3755 326.2746,136.3755 325.9621,136.3755 325.9621,136.3755 325.0246,136.063 325.0246,136.063 324.3996,135.438 324.3996,135.438 324.0871,134.5005 324.0871,134.5005 324.0871,134.188 324.0871,134.188 324.3996,133.2505 324.3996,133.2505 325.0246,132.6255 325.0246,132.6255 325.9621,132.313 325.9621,132.313 326.2746,132.313 326.2746,132.313 327.2121,132.6255 327.2121,132.6255 327.8371,133.2505 327.8371,133.2505 328.1496,134.5005 328.1496,134.5005 328.1496,136.063 328.1496,136.063 327.8371,137.6255 327.8371,137.6255 327.2121,138.563 327.2121,138.563 326.2746,138.8755 326.2746,138.8755 325.6496,138.8755 325.6496,138.8755 324.7121,138.563 324.7121,138.563 324.3996,137.938"/>
    <polyline points="335.1575,141.7913 338.2825,154.9163 338.2825,154.9163 341.4075,141.7913 341.4075,141.7913 344.5325,154.9163 344.5325,154.9163 347.6575,141.7913"/>
    <polyline points="422.3105,141.7913 414.1855,141.7913 414.1855,141.7913 414.1855,154.9163 414.1855,154.9163 422.3105,154.9163"/>
    <line x1="414.1855" x2="419.1855" y1="148.0413" y2="148.0413"/>
    <polyline points="675.94,141.7913 680.94,154.9163 680.94,154.9163 685.94,141.7913"/>
    <polyline points="56.6929,168.189 56.6929,205.9843 56.6929,205.9843 94.4882,205.9843 94.4882,205.9843 94.4882,243.7795 94.4882,243.7795 132.2835,243.7795 132.2835,243.7795 132.2835,205.9843 132.2835,205.9843 170.0787,205.9843 170.0787,205.9843 170.0787,168.189"/>
    <line x1="76.2156" x2="76.2156" y1="179.5866" y2="192.7116"/>
    <line x1="71.8406" x2="80.5906" y1="179.5866" y2="179.5866"/>
    <polyline points="149.9311,179.5866 149.9311,192.7116 149.9311,192.7116 157.4311,192.7116"/>
    <polyline points="207.874,168.189 207.874,205.9843 207.874,205.9843 170.0787,205.9843 170.0787,205.9843 170.0787,243.7795 170.0787,243.7795 207.874,243.7795 207.874,243.7795 207.874,205.9843 207.874,205.9843 245.6693,205.9843 245.6693,205.9843 245.6693,168.189"/>
    <polyline points="232.3967,192.7116 227.3967,179.5866 227.3967,179.5866 222.3967,192.7116"/>
    <line x1="224.2717" x2="230.5217" y1="188.3366" y2="188.3366"/>
    <polyline points="346.72,179.5866 338.595,179.5866 338.595,179.5866 338.595,192.7116 338.595,192.7116 346.72,192.7116"/>
    <line x1="338.595" x2="343.595" y1="185.8366" y2="185.8366"/>
    <polyline points="396.8504,168.189 396.8504,205.9843 396.8504,205.9843 434.6457,205.9843 434.6457,205.9843 434.6457,168.189"/>
    <polyline points="423.248,192.7116 423.248,179.5866 423.248,179.5866 418.248,192.7116 418.248,192.7116 413.248,179.5866 413.248,179.5866 413.248,192.7116"/>
    <polygon points="548.0315,168.189 548.0315,205.9843 548.0315,205.9843 585.8268,205.9843 585.8268,205.9843 585.8268,168.189 585.8268,168.189"/>
    <polyline points="551.7963,171.3583 552.4213,171.0458 552.4213,171.0458 553.3588,170.1083 553.3588,170.1083 553.3588,176.6708"/>
    <polygon points="558.9838,170.1083 558.0463,170.4208 558.0463,170.4208 557.4213,171.3583 557.4213,171.3583 557.1088,172.9208 557.1088,172.9208 557.1088,173.8583 557.1088,173.8583 557.4213,175.4208 557.4213,175.4208 558.0463,176.3583 558.0463,176.3583 558.9838,176.6708 558.9838,176.6708 559.6088,176.6708 559.6088,176.6708 560.5463,176.3583 560.5463,176.3583 561.1713,175.4208 561.1713,175.4208 561.4838,173.8583 561.4838,173.8583 561.4838,172.9208 561.4838,172.9208 561.1713,171.3583 561.1713,171.3583 560.5463,170.4208 560.5463,170.4208 559.6088,170.1083 559.6088,170.1083"/>
    <polyline points="565.6791,179.5866 565.6791,192.7116 565.6791,192.7116 573.1791,192.7116"/>
    <polyline points="585.8268,205.9843 623.622,205.9843 623.622,205.9843 661.4173,205.9843 661.4173,205.9843 699.2126,205.9843 699.2126,205.9843 699.2126,168.189 699.2126,168.189 737.0079,168.189 737.0079,168.189 737.0079,205.9843 737.0079,205.9843 737.0079,243.7795 737.0079,243.7795 774.8031,243.7795 774.8031,243.7795 774.8031,205.9843 774.8031,205.9843 774.8031,168.189 774.8031,168.189 737.0079,168.189"/>
    <polyline points="623.622,205.9843 623.622,168.189 623.622,168.189 585.8268,168.189"/>
    <polyline points="610.3494,192.7116 605.3494,179.5866 605.3494,179.5866 600.3494,192.7116"/>
    <line x1="602.2244" x2="608.4744" y1="188.3366" y2="188.3366"/>
    <polyline points="774.8031,205.9843 737.0079,205.9843 737.0079,205.9843 699.2126,205.9843 699.2126,205.9843 699.2126,243.7795 699.2126,243.7795 661.4173,243.7795 661.4173,243.7795 661.4173,205.9843 661.4173,205.9843 661.4173,168.189 661.4173,168.189 623.622,168.189"/>
    <line x1="640.6447" x2="640.6447" y1="179.5866" y2="192.7116"/>
    <line x1="649.3947" x2="640.6447" y1="179.5866" y2="188.3366"/>
    <line x1="643.7697" x2="649.3947" y1="185.2116" y2="192.7116"/>
    <polyline points="686.8775,179.5866 678.7525,179.5866 678.7525,179.5866 678.7525,192.7116 678.7525,192.7116 686.8775,192.7116"/>
    <line x1="678.7525" x2="683.7525" y1="185.8366" y2="185.8366"/>
    <polyline points="724.9852,179.5866 724.9852,192.7116 724.9852,192.7116 716.2352,179.5866 716.2352,179.5866 716.2352,192.7116"/>
    <polyline points="740.7726,171.3583 741.3976,171.0458 741.3976,171.0458 742.3351,170.1083 742.3351,170.1083 742.3351,176.6708"/>
    <polyline points="747.0226,171.3583 747.6476,171.0458 747.6476,171.0458 748.5851,170.1083 748.5851,170.1083 748.5851,176.6708"/>
    <polyline points="762.1555,181.4616 760.9055,180.2116 760.9055,180.2116 759.0305,179.5866 759.0305,179.5866 756.5305,179.5866 756.5305,179.5866 754.6555,180.2116 754.6555,180.2116 753.4055,181.4616 753.4055,181.4616 753.4055,182.7116 753.4055,182.7116 754.0305,183.9616 754.0305,183.9616 754.6555,184.5866 754.6555,184.5866 755.9055,185.2116 755.9055,185.2116 759.6555,186.4616 759.6555,186.4616 760.9055,187.0866 760.9055,187.0866 761.5305,187.7116 761.5305,187.7116 762.1555,188.9616 762.1555,188.9616 762.1555,190.8366 762.1555,190.8366 760.9055,192.0866 760.9055,192.0866 759.0305,192.7116 759.0305,192.7116 756.5305,192.7116 756.5305,192.7116 754.6555,192.0866 754.6555,192.0866 753.4055,190.8366"/>
    <polyline points="98.253,209.1535 98.878,208.841 98.878,208.841 99.8155,207.9035 99.8155,207.9035 99.8155,214.466"/>
    <polyline points="103.878,209.466 103.878,209.1535 103.878,209.1535 104.1905,208.5285 104.1905,208.5285 104.503,208.216 104.503,208.216 105.128,207.9035 105.128,207.9035 106.378,207.9035 106.378,207.9035 107.003,208.216 107.003,208.216 107.3155,208.5285 107.3155,208.5285 107.628,209.1535 107.628,209.1535 107.628,209.7785 107.628,209.7785 107.3155,210.4035 107.3155,210.4035 106.6905,211.341 106.6905,211.341 103.5655,214.466 103.5655,214.466 107.9405,214.466"/>
    <polyline points="119.9483,217.3819 111.8233,217.3819 111.8233,217.3819 111.8233,230.5069"/>
    <line x1="111.8233" x2="116.8233" y1="223.6319" y2="223.6319"/>
    <polyline points="207.874,357.1654 170.0787,357.1654 170.0787,357.1654 170.0787,319.3701 170.0787,319.3701 132.2835,319.3701 132.2835,319.3701 132.2835,281.5748 132.2835,281.5748 132.2835,243.7795 132.2835,243.7795 170.0787,243.7795 170.0787,243.7795 170.0787,281.5748 170.0787,281.5748 170.0787,319.3701 170.0787,319.3701 207.874,319.3701 207.874,319.3701 207.874,357.1654 207.874,357.1654 245.6693,357.1654 245.6693,357.1654 245.6693,319.3701 245.6693,319.3701 207.874,319.3701"/>
    <polyline points="149.9311,217.3819 149.9311,230.5069 149.9311,230.5069 157.4311,230.5069"/>
    <polyline points="195.5389,217.3819 187.4139,217.3819 187.4139,217.3819 187.4139,230.5069 187.4139,230.5069 195.5389,230.5069"/>
    <line x1="187.4139" x2="192.4139" y1="223.6319" y2="223.6319"/>
    <polyline points="207.874,243.7795 245.6693,243.7795 245.6693,243.7795 245.6693,205.9843 245.6693,205.9843 283.4646,205.9843 283.4646,205.9843 283.4646,243.7795 283.4646,243.7795 321.2598,243.7795 321.2598,243.7795 359.0551,243.7795 359.0551,243.7795 359.0551,205.9843 359.0551,205.9843 396.8504,205.9843 396.8504,205.9843 396.8504,243.7795 396.8504,243.7795 434.6457,243.7795 434.6457,243.7795 434.6457,205.9843 434.6457,205.9843 472.4409,205.9843 472.4409,205.9843 472.4409,243.7795 472.4409,243.7795 510.2362,243.7795 510.2362,243.7795 548.0315,243.7795 548.0315,243.7795 548.0315,205.9843 548.0315,205.9843 510.2362,205.9843 510.2362,205.9843 472.4409,205.9843"/>
    <polyline points="233.0217,219.2569 231.7717,218.0069 231.7717,218.0069 229.8967,217.3819 229.8967,217.3819 227.3967,217.3819 227.3967,217.3819 225.5217,218.0069 225.5217,218.0069 224.2717,219.2569 224.2717,219.2569 224.2717,220.5069 224.2717,220.5069 224.8967,221.7569 224.8967,221.7569 225.5217,222.3819 225.5217,222.3819 226.7717,223.0069 226.7717,223.0069 230.5217,224.2569 230.5217,224.2569 231.7717,224.8819 231.7717,224.8819 232.3967,225.5069 232.3967,225.5069 233.0217,226.7569 233.0217,226.7569 233.0217,228.6319 233.0217,228.6319 231.7717,229.8819 231.7717,229.8819 229.8967,230.5069 229.8967,230.5069 227.3967,230.5069 227.3967,230.5069 225.5217,229.8819 225.5217,229.8819 224.2717,228.6319"/>
    <line x1="245.6693" x2="283.4646" y1="243.7795" y2="243.7795"/>
    <polyline points="270.8169,219.2569 269.5669,218.0069 269.5669,218.0069 267.6919,217.3819 267.6919,217.3819 265.1919,217.3819 265.1919,217.3819 263.3169,218.0069 263.3169,218.0069 262.0669,219.2569 262.0669,219.2569 262.0669,220.5069 262.0669,220.5069 262.6919,221.7569 262.6919,221.7569 263.3169,222.3819 263.3169,222.3819 264.5669,223.0069 264.5669,223.0069 268.3169,224.2569 268.3169,224.2569 269.5669,224.8819 269.5669,224.8819 270.1919,225.5069 270.1919,225.5069 270.8169,226.7569 270.8169,226.7569 270.8169,228.6319 270.8169,228.6319 269.5669,229.8819 269.5669,229.8819 267.6919,230.5069 267.6919,230.5069 265.1919,230.5069 265.1919,230.5069 263.3169,229.8819 263.3169,229.8819 262.0669,228.6319"/>
    <polyline points="472.4409,243.7795 434.6457,243.7795 434.6457,243.7795 434.6457,281.5748 434.6457,281.5748 396.8504,281.5748 396.8504,281.5748 396.8504,243.7795 396.8504,243.7795 359.0551,243.7795 359.0551,243.7795 359.0551,281.5748 359.0551,281.5748 321.2598,281.5748 321.2598,281.5748 321.2598,243.7795 321.2598,243.7795 321.2598,205.9843 321.2598,205.9843 283.4646,205.9843"/>
    <polyline points="308.9247,217.3819 300.7997,217.3819 300.7997,217.3819 300.7997,230.5069 300.7997,230.5069 308.9247,230.5069"/>
    <line x1="300.7997" x2="305.7997" y1="223.6319" y2="223.6319"/>
    <polyline points="347.0325,217.3819 347.0325,230.5069 347.0325,230.5069 338.2825,217.3819 338.2825,217.3819 338.2825,230.5069"/>
    <polyline points="384.5153,220.5069 383.8903,219.2569 383.8903,219.2569 382.6403,218.0069 382.6403,218.0069 381.3903,217.3819 381.3903,217.3819 378.8903,217.3819 378.8903,217.3819 377.6403,218.0069 377.6403,218.0069 376.3903,219.2569 376.3903,219.2569 375.7653,220.5069 375.7653,220.5069 375.1403,222.3819 375.1403,222.3819 375.1403,225.5069 375.1403,225.5069 375.7653,227.3819 375.7653,227.3819 376.3903,228.6319 376.3903,228.6319 377.6403,229.8819 377.6403,229.8819 378.8903,230.5069 378.8903,230.5069 381.3903,230.5069 381.3903,230.5069 382.6403,229.8819 382.6403,229.8819 383.8903,228.6319 383.8903,228.6319 384.5153,227.3819 384.5153,227.3819 384.5153,225.5069 384.5153,225.5069 381.3903,225.5069"/>
    <polyline points="422.3105,217.3819 414.1855,217.3819 414.1855,217.3819 414.1855,230.5069 414.1855,230.5069 422.3105,230.5069"/>
    <line x1="414.1855" x2="419.1855" y1="223.6319" y2="223.6319"/>
    <polyline points="452.2933,217.3819 452.2933,230.5069 452.2933,230.5069 459.7933,230.5069"/>
    <line x1="510.2362" x2="510.2362" y1="243.7795" y2="205.9843"/>
    <polyline points="489.4636,217.3819 489.4636,226.7569 489.4636,226.7569 490.0886,228.6319 490.0886,228.6319 491.3386,229.8819 491.3386,229.8819 493.2136,230.5069 493.2136,230.5069 494.4636,230.5069 494.4636,230.5069 496.3386,229.8819 496.3386,229.8819 497.5886,228.6319 497.5886,228.6319 498.2136,226.7569 498.2136,226.7569 498.2136,217.3819"/>
    <line x1="527.2589" x2="527.2589" y1="217.3819" y2="230.5069"/>
    <line x1="536.0089" x2="527.2589" y1="217.3819" y2="226.1319"/>
    <line x1="530.3839" x2="536.0089" y1="223.0069" y2="230.5069"/>
    <polyline points="678.44,223.6319 684.065,223.6319 684.065,223.6319 685.94,223.0069 685.94,223.0069 686.565,222.3819 686.565,222.3819 687.19,221.1319 687.19,221.1319 687.19,219.8819 687.19,219.8819 686.565,218.6319 686.565,218.6319 685.94,218.0069 685.94,218.0069 684.065,217.3819 684.065,217.3819 678.44,217.3819 678.44,217.3819 678.44,230.5069"/>
    <line x1="682.815" x2="687.19" y1="223.6319" y2="230.5069"/>
    <line x1="756.5305" x2="756.5305" y1="217.3819" y2="230.5069"/>
    <line x1="752.1555" x2="760.9055" y1="217.3819" y2="217.3819"/>
    <line x1="132.2835" x2="170.0787" y1="281.5748" y2="281.5748"/>
    <polyline points="157.7436,255.1772 149.6186,255.1772 149.6186,255.1772 149.6186,268.3022 149.6186,268.3022 157.7436,268.3022"/>
    <line x1="149.6186" x2="154.6186" y1="261.4272" y2="261.4272"/>
    <polygon points="338.2825,255.1772 338.2825,268.3022 338.2825,268.3022 342.6575,268.3022 342.6575,268.3022 344.5325,267.6772 344.5325,267.6772 345.7825,266.4272 345.7825,266.4272 346.4075,265.1772 346.4075,265.1772 347.0325,263.3022 347.0325,263.3022 347.0325,260.1772 347.0325,260.1772 346.4075,258.3022 346.4075,258.3022 345.7825,257.0522 345.7825,257.0522 344.5325,255.8022 344.5325,255.8022 342.6575,255.1772 342.6575,255.1772"/>
    <polyline points="422.623,255.1772 422.623,268.3022 422.623,268.3022 413.873,255.1772 413.873,255.1772 413.873,268.3022"/>
    <polygon points="548.0315,243.7795 548.0315,281.5748 548.0315,281.5748 585.8268,281.5748 585.8268,281.5748 585.8268,243.7795 585.8268,243.7795"/>
    <polyline points="551.7963,246.9488 552.4213,246.6363 552.4213,246.6363 553.3588,245.6988 553.3588,245.6988 553.3588,252.2613"/>
    <polyline points="557.7338,245.6988 561.1713,245.6988 561.1713,245.6988 559.2963,248.1988 559.2963,248.1988 560.2338,248.1988 560.2338,248.1988 560.8588,248.5113 560.8588,248.5113 561.1713,248.8238 561.1713,248.8238 561.4838,249.7613 561.4838,249.7613 561.4838,250.3863 561.4838,250.3863 561.1713,251.3238 561.1713,251.3238 560.5463,251.9488 560.5463,251.9488 559.6088,252.2613 559.6088,252.2613 558.6713,252.2613 558.6713,252.2613 557.7338,251.9488 557.7338,251.9488 557.4213,251.6363 557.4213,251.6363 557.1088,251.0113"/>
    <polyline points="573.4916,258.3022 572.8666,257.0522 572.8666,257.0522 571.6166,255.8022 571.6166,255.8022 570.3666,255.1772 570.3666,255.1772 567.8666,255.1772 567.8666,255.1772 566.6166,255.8022 566.6166,255.8022 565.3666,257.0522 565.3666,257.0522 564.7416,258.3022 564.7416,258.3022 564.1166,260.1772 564.1166,260.1772 564.1166,263.3022 564.1166,263.3022 564.7416,265.1772 564.7416,265.1772 565.3666,266.4272 565.3666,266.4272 566.6166,267.6772 566.6166,267.6772 567.8666,268.3022 567.8666,268.3022 570.3666,268.3022 570.3666,268.3022 571.6166,267.6772 571.6166,267.6772 572.8666,266.4272 572.8666,266.4272 573.4916,265.1772"/>
    <polyline points="585.8268,281.5748 623.622,281.5748 623.622,281.5748 623.622,243.7795 623.622,243.7795 585.8268,243.7795"/>
    <polyline points="611.2869,255.1772 603.1619,255.1772 603.1619,255.1772 603.1619,268.3022 603.1619,268.3022 611.2869,268.3022"/>
    <line x1="603.1619" x2="608.1619" y1="261.4272" y2="261.4272"/>
    <polyline points="623.622,281.5748 661.4173,281.5748 661.4173,281.5748 699.2126,281.5748 699.2126,281.5748 699.2126,243.7795 699.2126,243.7795 737.0079,243.7795 737.0079,243.7795 737.0079,281.5748 737.0079,281.5748 737.0079,319.3701 737.0079,319.3701 774.8031,319.3701 774.8031,319.3701 774.8031,281.5748 774.8031,281.5748 774.8031,243.7795"/>
    <polyline points="774.8031,281.5748 737.0079,281.5748 737.0079,281.5748 699.2126,281.5748 699.2126,281.5748 699.2126,319.3701 699.2126,319.3701 661.4173,319.3701 661.4173,319.3701 661.4173,281.5748 661.4173,281.5748 661.4173,243.7795 661.4173,243.7795 623.622,243.7795"/>
    <polyline points="649.3947,255.1772 649.3947,268.3022 649.3947,268.3022 640.6447,255.1772 640.6447,255.1772 640.6447,268.3022"/>
    <line x1="680.94" x2="680.94" y1="255.1772" y2="268.3022"/>
    <line x1="676.565" x2="685.315" y1="255.1772" y2="255.1772"/>
    <polyline points="722.4852,255.1772 722.4852,265.1772 722.4852,265.1772 721.8602,267.0522 721.8602,267.0522 721.2352,267.6772 721.2352,267.6772 719.9852,268.3022 719.9852,268.3022 718.7352,268.3022 718.7352,268.3022 717.4852,267.6772 717.4852,267.6772 716.8602,267.0522 716.8602,267.0522 716.2352,265.1772 716.2352,265.1772 716.2352,263.9272"/>
    <polyline points="762.468,255.1772 754.343,255.1772 754.343,255.1772 754.343,268.3022 754.343,268.3022 762.468,268.3022"/>
    <line x1="754.343" x2="759.343" y1="261.4272" y2="261.4272"/>
    <line x1="149.3061" x2="149.3061" y1="292.9724" y2="306.0974"/>
    <line x1="158.0561" x2="149.3061" y1="292.9724" y2="301.7224"/>
    <line x1="152.4311" x2="158.0561" y1="298.5974" y2="306.0974"/>
    <polyline points="321.2598,281.5748 321.2598,319.3701 321.2598,319.3701 283.4646,319.3701 283.4646,319.3701 245.6693,319.3701"/>
    <polyline points="283.4646,319.3701 283.4646,357.1654 283.4646,357.1654 321.2598,357.1654 321.2598,357.1654 321.2598,319.3701 321.2598,319.3701 359.0551,319.3701 359.0551,319.3701 359.0551,281.5748"/>
    <polyline points="335.7825,292.9724 340.7825,299.2224 340.7825,299.2224 340.7825,306.0974"/>
    <line x1="345.7825" x2="340.7825" y1="292.9724" y2="299.2224"/>
    <polyline points="684.69,292.9724 684.69,302.9724 684.69,302.9724 684.065,304.8474 684.065,304.8474 683.44,305.4724 683.44,305.4724 682.19,306.0974 682.19,306.0974 680.94,306.0974 680.94,306.0974 679.69,305.4724 679.69,305.4724 679.065,304.8474 679.065,304.8474 678.44,302.9724 678.44,302.9724 678.44,301.7224"/>
    <polyline points="754.0305,299.2224 759.6555,299.2224 759.6555,299.2224 761.5305,298.5974 761.5305,298.5974 762.1555,297.9724 762.1555,297.9724 762.7805,296.7224 762.7805,296.7224 762.7805,295.4724 762.7805,295.4724 762.1555,294.2224 762.1555,294.2224 761.5305,293.5974 761.5305,293.5974 759.6555,292.9724 759.6555,292.9724 754.0305,292.9724 754.0305,292.9724 754.0305,306.0974"/>
    <line x1="758.4055" x2="762.7805" y1="299.2224" y2="306.0974"/>
    <polygon points="18.8976,319.3701 18.8976,357.1654 18.8976,357.1654 56.6929,357.1654 56.6929,357.1654 56.6929,319.3701 56.6929,319.3701"/>
    <polyline points="22.6624,322.5394 23.2874,322.2269 23.2874,322.2269 24.2249,321.2894 24.2249,321.2894 24.2249,327.8519"/>
    <polyline points="31.0999,327.8519 31.0999,321.2894 31.0999,321.2894 27.9749,325.6644 27.9749,325.6644 32.6624,325.6644"/>
    <polyline points="35.9203,337.0177 41.5453,337.0177 41.5453,337.0177 43.4203,336.3927 43.4203,336.3927 44.0453,335.7677 44.0453,335.7677 44.6703,334.5177 44.6703,334.5177 44.6703,333.2677 44.6703,333.2677 44.0453,332.0177 44.0453,332.0177 43.4203,331.3927 43.4203,331.3927 41.5453,330.7677 41.5453,330.7677 35.9203,330.7677 35.9203,330.7677 35.9203,343.8927"/>
    <line x1="40.2953" x2="44.6703" y1="337.0177" y2="343.8927"/>
    <polyline points="56.6929,357.1654 94.4882,357.1654 94.4882,357.1654 94.4882,319.3701 94.4882,319.3701 56.6929,319.3701"/>
    <polyline points="82.1531,330.7677 74.0281,330.7677 74.0281,330.7677 74.0281,343.8927 74.0281,343.8927 82.1531,343.8927"/>
    <line x1="74.0281" x2="79.0281" y1="337.0177" y2="337.0177"/>
    <polyline points="94.4882,357.1654 132.2835,357.1654 132.2835,357.1654 170.0787,357.1654"/>
    <polyline points="132.2835,357.1654 132.2835,319.3701 132.2835,319.3701 94.4882,319.3701"/>
    <polyline points="119.9483,333.8927 119.3233,332.6427 119.3233,332.6427 118.0733,331.3927 118.0733,331.3927 116.8233,330.7677 116.8233,330.7677 114.3233,330.7677 114.3233,330.7677 113.0733,331.3927 113.0733,331.3927 111.8233,332.6427 111.8233,332.6427 111.1983,333.8927 111.1983,333.8927 110.5733,335.7677 110.5733,335.7677 110.5733,338.8927 110.5733,338.8927 111.1983,340.7677 111.1983,340.7677 111.8233,342.0177 111.8233,342.0177 113.0733,343.2677 113.0733,343.2677 114.3233,343.8927 114.3233,343.8927 116.8233,343.8927 116.8233,343.8927 118.0733,343.2677 118.0733,343.2677 119.3233,342.0177 119.3233,342.0177 119.9483,340.7677 119.9483,340.7677 119.9483,338.8927 119.9483,338.8927 116.8233,338.8927"/>
    <polyline points="157.7436,330.7677 149.6186,330.7677 149.6186,330.7677 149.6186,343.8927 149.6186,343.8927 157.7436,343.8927"/>
    <line x1="149.6186" x2="154.6186" y1="337.0177" y2="337.0177"/>
    <polyline points="195.8514,330.7677 195.8514,343.8927 195.8514,343.8927 187.1014,330.7677 187.1014,330.7677 187.1014,343.8927"/>
    <polyline points="230.5217,337.0177 232.3967,336.3927 232.3967,336.3927 233.0217,335.7677 233.0217,335.7677 233.6467,334.5177 233.6467,334.5177 233.6467,333.2677 233.6467,333.2677 233.0217,332.0177 233.0217,332.0177 232.3967,331.3927 232.3967,331.3927 230.5217,330.7677 230.5217,330.7677 224.8967,330.7677 224.8967,330.7677 224.8967,343.8927 224.8967,343.8927 230.5217,343.8927 230.5217,343.8927 232.3967,343.2677 232.3967,343.2677 233.0217,342.6427 233.0217,342.6427 233.6467,341.3927 233.6467,341.3927 233.6467,339.5177 233.6467,339.5177 233.0217,338.2677 233.0217,338.2677 232.3967,337.6427 232.3967,337.6427 230.5217,337.0177 230.5217,337.0177 224.8967,337.0177"/>
    <line x1="245.6693" x2="283.4646" y1="357.1654" y2="357.1654"/>
    <polyline points="262.6919,330.7677 262.6919,340.1427 262.6919,340.1427 263.3169,342.0177 263.3169,342.0177 264.5669,343.2677 264.5669,343.2677 266.4419,343.8927 266.4419,343.8927 267.6919,343.8927 267.6919,343.8927 269.5669,343.2677 269.5669,343.2677 270.8169,342.0177 270.8169,342.0177 271.4419,340.1427 271.4419,340.1427 271.4419,330.7677"/>
    <line x1="304.8622" x2="304.8622" y1="330.7677" y2="343.8927"/>
    <polygon points="359.0551,319.3701 359.0551,357.1654 359.0551,357.1654 396.8504,357.1654 396.8504,357.1654 396.8504,319.3701 396.8504,319.3701"/>
    <polyline points="362.8199,322.5394 363.4449,322.2269 363.4449,322.2269 364.3824,321.2894 364.3824,321.2894 364.3824,327.8519"/>
    <polyline points="371.8824,321.2894 368.7574,321.2894 368.7574,321.2894 368.4449,324.1019 368.4449,324.1019 368.7574,323.7894 368.7574,323.7894 369.6949,323.4769 369.6949,323.4769 370.6324,323.4769 370.6324,323.4769 371.5699,323.7894 371.5699,323.7894 372.1949,324.4144 372.1949,324.4144 372.5074,325.3519 372.5074,325.3519 372.5074,325.9769 372.5074,325.9769 372.1949,326.9144 372.1949,326.9144 371.5699,327.5394 371.5699,327.5394 370.6324,327.8519 370.6324,327.8519 369.6949,327.8519 369.6949,327.8519 368.7574,327.5394 368.7574,327.5394 368.4449,327.2269 368.4449,327.2269 368.1324,326.6019"/>
    <polyline points="376.0778,337.0177 381.7028,337.0177 381.7028,337.0177 383.5778,336.3927 383.5778,336.3927 384.2028,335.7677 384.2028,335.7677 384.8278,334.5177 384.8278,334.5177 384.8278,333.2677 384.8278,333.2677 384.2028,332.0177 384.2028,332.0177 383.5778,331.3927 383.5778,331.3927 381.7028,330.7677 381.7028,330.7677 376.0778,330.7677 376.0778,330.7677 376.0778,343.8927"/>
    <line x1="380.4528" x2="384.8278" y1="337.0177" y2="343.8927"/>
    <polyline points="396.8504,357.1654 434.6457,357.1654 434.6457,357.1654 434.6457,319.3701 434.6457,319.3701 396.8504,319.3701"/>
    <polyline points="422.3105,330.7677 414.1855,330.7677 414.1855,330.7677 414.1855,343.8927 414.1855,343.8927 422.3105,343.8927"/>
    <line x1="414.1855" x2="419.1855" y1="337.0177" y2="337.0177"/>
    <polyline points="434.6457,357.1654 472.4409,357.1654 472.4409,357.1654 472.4409,319.3701 472.4409,319.3701 434.6457,319.3701"/>
    <line x1="451.6683" x2="451.6683" y1="330.7677" y2="343.8927"/>
    <line x1="460.4183" x2="451.6683" y1="330.7677" y2="339.5177"/>
    <line x1="454.7933" x2="460.4183" y1="336.3927" y2="343.8927"/>
    <polyline points="472.4409,357.1654 510.2362,357.1654 510.2362,357.1654 510.2362,319.3701 510.2362,319.3701 472.4409,319.3701"/>
    <line x1="489.4636" x2="489.4636" y1="330.7677" y2="343.8927"/>
    <line x1="498.2136" x2="489.4636" y1="330.7677" y2="339.5177"/>
    <line x1="492.5886" x2="498.2136" y1="336.3927" y2="343.8927"/>
    <polyline points="510.2362,357.1654 548.0315,357.1654 548.0315,357.1654 548.0315,319.3701 548.0315,319.3701 510.2362,319.3701"/>
    <polyline points="535.6964,330.7677 527.5714,330.7677 527.5714,330.7677 527.5714,343.8927 527.5714,343.8927 535.6964,343.8927"/>
    <line x1="527.5714" x2="532.5714" y1="337.0177" y2="337.0177"/>
    <polyline points="548.0315,357.1654 585.8268,357.1654 585.8268,357.1654 585.8268,319.3701 585.8268,319.3701 548.0315,319.3701"/>
    <polyline points="565.0541,337.0177 570.6791,337.0177 570.6791,337.0177 572.5541,336.3927 572.5541,336.3927 573.1791,335.7677 573.1791,335.7677 573.8041,334.5177 573.8041,334.5177 573.8041,333.2677 573.8041,333.2677 573.1791,332.0177 573.1791,332.0177 572.5541,331.3927 572.5541,331.3927 570.6791,330.7677 570.6791,330.7677 565.0541,330.7677 565.0541,330.7677 565.0541,343.8927"/>
    <line x1="569.4291" x2="573.8041" y1="337.0177" y2="343.8927"/>
    <polyline points="585.8268,357.1654 623.622,357.1654 623.622,357.1654 623.622,319.3701 623.622,319.3701 585.8268,319.3701"/>
    <line x1="605.3494" x2="605.3494" y1="330.7677" y2="343.8927"/>
    <line x1="600.9744" x2="609.7244" y1="330.7677" y2="330.7677"/>
    <polyline points="623.622,357.1654 661.4173,357.1654 661.4173,357.1654 699.2126,357.1654 699.2126,357.1654 699.2126,319.3701"/>
    <polyline points="661.4173,357.1654 661.4173,319.3701 661.4173,319.3701 623.622,319.3701"/>
    <polyline points="646.8947,330.7677 646.8947,340.7677 646.8947,340.7677 646.2697,342.6427 646.2697,342.6427 645.6447,343.2677 645.6447,343.2677 644.3947,343.8927 644.3947,343.8927 643.1447,343.8927 643.1447,343.8927 641.8947,343.2677 641.8947,343.2677 641.2697,342.6427 641.2697,342.6427 640.6447,340.7677 640.6447,340.7677 640.6447,339.5177"/>
    <polyline points="686.8775,330.7677 678.7525,330.7677 678.7525,330.7677 678.7525,343.8927 678.7525,343.8927 686.8775,343.8927"/>
    <line x1="678.7525" x2="683.7525" y1="337.0177" y2="337.0177"/>
  </g>
</svg>
