<?xml version="1.0" encoding="utf-8" ?>
<svg xmlns="http://www.w3.org/2000/svg" xmlns:cc="http://creativecommons.org/ns" xmlns:dc="http://purl.org/dc/elements/1.1/" xmlns:ev="http://www.w3.org/2001/xml-events" xmlns:inkscape="http://www.inkscape.org/namespaces/inkscape" xmlns:rdf="http://www.w3.org/1999/02/22-rdf-syntax-ns" xmlns:sodipodi="http://sodipodi.sourceforge.net/DTD/sodipodi-0.dtd" xmlns:xlink="http://www.w3.org/1999/xlink" baseProfile="tiny" height="9.9cm" version="1.2" viewBox="0 0 793.7007874015749 374.1732283464567" width="21.0cm">
  <metadata>
    <rdf:RDF>
      <cc:Work>
        <dc:format>image/svg+xml</dc:format>
        <dc:source>vpype eval 'cell=10;width=210;height=99' eval 'nCols=20;nRows=9' eval 'cells=[2,3,4,5,6,7,13,14,15,16,17,22,30,36,40,41,42,43,44,45,46,48,49,50,51,52,53,54,55,56,60,62,70,76,78,80,82,83,84,85,86,87,88,89,90,91,92,93,95,96,97,98,99,100,102,108,110,116,118,120,122,124,125,126,127,128,129,130,131,132,133,134,136,138,140,142,148,153,156,158,160,165,166,167,168,172,173]' eval 'chars=[&quot;T&quot;,&quot;E&quot;,&quot;R&quot;,&quot;R&quot;,&quot;A&quot;,&quot;S&quot;,&quot;K&quot;,&quot;A&quot;,&quot;S&quot;,&quot;S&quot;,&quot;A&quot;,&quot;E&quot;,&quot;L&quot;,&quot;K&quot;,&quot;V&quot;,&quot;E&quot;,&quot;L&quot;,&quot;L&quot;,&quot;E&quot;,&quot;K&quot;,&quot;E&quot;,&quot;K&quot;,&quot;L&quot;,&quot;A&quot;,&quot;V&quot;,&quot;E&quot;,&quot;R&quot;,&quot;T&quot;,&quot;J&quot;,&quot;E&quot;,&quot;R&quot;,&quot;E&quot;,&quot;K&quot;,&quot;L&quot;,&quot;A&quot;,&quot;I&quot;,&quot;F&quot;,&quot;L&quot;,&quot;E&quot;,&quot;S&quot;,&quot;S&quot;,&quot;E&quot;,&quot;N&quot;,&quot;G&quot;,&quot;E&quot;,&quot;L&quot;,&quot;U&quot;,&quot;K&quot;,&quot;E&quot;,&quot;L&quot;,&quot;I&quot;,&quot;S&quot;,&quot;E&quot;,&quot;J&quot;,&quot;O&quot;,&quot;I&quot;,&quot;N&quot;,&quot;E&quot;,&quot;T&quot;,&quot;D&quot;,&quot;O&quot;,&quot;M&quot;,&quot;I&quot;,&quot;S&quot;,&quot;V&quot;,&quot;E&quot;,&quot;R&quot;,&quot;S&quot;,&quot;T&quot;,&quot;A&quot;,&quot;N&quot;,&quot;D&quot;,&quot;K&quot;,&quot;E&quot;,&quot;A&quot;,&quot;N&quot;,&quot;L&quot;,&quot;O&quot;,&quot;E&quot;,&quot;R&quot;,&quot;G&quot;,&quot;G&quot;,&quot;R&quot;,&quot;A&quot;,&quot;S&quot;,&quot;J&quot;,&quot;A&quot;]' eval 'numbers=[2,13,16,30,40,48,78,82,88,95,124,133,165,172]' eval counter=1 eval charIndex=0 begin grid -o '%cell*mm%' '%cell*mm%' %nCols% %nRows% eval '%isCell=_i in cells%' eval '%number=_i in numbers%' eval '%size=10 if isCell else 0%' rect 0 0 '%size*mm%' '%size*mm%' text -s 10 -p 0.5mm 1.5mm '%counter if number else '&quot;'&quot;''&quot;'&quot;'%' text -s 20 -p 5mm 5mm -a center '%chars[charIndex] if isCell else '&quot;'&quot;''&quot;'&quot;'%' eval '%if number: counter+=1 %' eval '%if isCell: charIndex+=1 %' end splitall deduplicate linemerge --tolerance 0.1mm write -m none --page-size '%width*mm%x%height*mm%' --center ./svgs/solution/2da7c8.svg
</dc:source>
        <dc:date>2023-12-29T10:02:44.708257</dc:date>
      </cc:Work>
    </rdf:RDF>
  </metadata>
  <defs/>
  <g fill="none" id="layer1" inkscape:groupmode="layer" inkscape:label="1" stroke="#000000" style="display:inline">
    <polygon points="94.4882,17.0079 94.4882,54.8031 94.4882,54.8031 94.4882,92.5984 94.4882,92.5984 132.2835,92.5984 132.2835,92.5984 132.2835,54.8031 132.2835,54.8031 132.2835,17.0079 132.2835,17.0079"/>
    <polyline points="94.4882,54.8031 132.2835,54.8031 132.2835,54.8031 170.0787,54.8031 170.0787,54.8031 170.0787,17.0079 170.0787,17.0079 132.2835,17.0079"/>
    <polyline points="98.253,20.1772 98.878,19.8647 98.878,19.8647 99.8155,18.9272 99.8155,18.9272 99.8155,25.4897"/>
    <line x1="114.0108" x2="114.0108" y1="28.4055" y2="41.5305"/>
    <line x1="109.6358" x2="118.3858" y1="28.4055" y2="28.4055"/>
    <polyline points="157.7436,28.4055 149.6186,28.4055 149.6186,28.4055 149.6186,41.5305 149.6186,41.5305 157.7436,41.5305"/>
    <line x1="149.6186" x2="154.6186" y1="34.6555" y2="34.6555"/>
    <polyline points="170.0787,54.8031 207.874,54.8031 207.874,54.8031 245.6693,54.8031 245.6693,54.8031 245.6693,17.0079 245.6693,17.0079 207.874,17.0079 207.874,17.0079 170.0787,17.0079"/>
    <line x1="207.874" x2="207.874" y1="54.8031" y2="17.0079"/>
    <polyline points="187.1014,34.6555 192.7264,34.6555 192.7264,34.6555 194.6014,34.0305 194.6014,34.0305 195.2264,33.4055 195.2264,33.4055 195.8514,32.1555 195.8514,32.1555 195.8514,30.9055 195.8514,30.9055 195.2264,29.6555 195.2264,29.6555 194.6014,29.0305 194.6014,29.0305 192.7264,28.4055 192.7264,28.4055 187.1014,28.4055 187.1014,28.4055 187.1014,41.5305"/>
    <line x1="191.4764" x2="195.8514" y1="34.6555" y2="41.5305"/>
    <polyline points="224.8967,34.6555 230.5217,34.6555 230.5217,34.6555 232.3967,34.0305 232.3967,34.0305 233.0217,33.4055 233.0217,33.4055 233.6467,32.1555 233.6467,32.1555 233.6467,30.9055 233.6467,30.9055 233.0217,29.6555 233.0217,29.6555 232.3967,29.0305 232.3967,29.0305 230.5217,28.4055 230.5217,28.4055 224.8967,28.4055 224.8967,28.4055 224.8967,41.5305"/>
    <line x1="229.2717" x2="233.6467" y1="34.6555" y2="41.5305"/>
    <polyline points="245.6693,54.8031 283.4646,54.8031 283.4646,54.8031 321.2598,54.8031 321.2598,54.8031 321.2598,17.0079 321.2598,17.0079 283.4646,17.0079 283.4646,17.0079 245.6693,17.0079"/>
    <line x1="283.4646" x2="283.4646" y1="54.8031" y2="17.0079"/>
    <polyline points="270.1919,41.5305 265.1919,28.4055 265.1919,28.4055 260.1919,41.5305"/>
    <line x1="262.0669" x2="268.3169" y1="37.1555" y2="37.1555"/>
    <polyline points="308.6122,30.2805 307.3622,29.0305 307.3622,29.0305 305.4872,28.4055 305.4872,28.4055 302.9872,28.4055 302.9872,28.4055 301.1122,29.0305 301.1122,29.0305 299.8622,30.2805 299.8622,30.2805 299.8622,31.5305 299.8622,31.5305 300.4872,32.7805 300.4872,32.7805 301.1122,33.4055 301.1122,33.4055 302.3622,34.0305 302.3622,34.0305 306.1122,35.2805 306.1122,35.2805 307.3622,35.9055 307.3622,35.9055 307.9872,36.5305 307.9872,36.5305 308.6122,37.7805 308.6122,37.7805 308.6122,39.6555 308.6122,39.6555 307.3622,40.9055 307.3622,40.9055 305.4872,41.5305 305.4872,41.5305 302.9872,41.5305 302.9872,41.5305 301.1122,40.9055 301.1122,40.9055 299.8622,39.6555"/>
    <polygon points="510.2362,17.0079 510.2362,54.8031 510.2362,54.8031 548.0315,54.8031 548.0315,54.8031 548.0315,17.0079 548.0315,17.0079"/>
    <polyline points="513.376,20.4897 513.376,20.1772 513.376,20.1772 513.6885,19.5522 513.6885,19.5522 514.001,19.2397 514.001,19.2397 514.626,18.9272 514.626,18.9272 515.876,18.9272 515.876,18.9272 516.501,19.2397 516.501,19.2397 516.8135,19.5522 516.8135,19.5522 517.126,20.1772 517.126,20.1772 517.126,20.8022 517.126,20.8022 516.8135,21.4272 516.8135,21.4272 516.1885,22.3647 516.1885,22.3647 513.0635,25.4897 513.0635,25.4897 517.4385,25.4897"/>
    <line x1="527.2589" x2="527.2589" y1="28.4055" y2="41.5305"/>
    <line x1="536.0089" x2="527.2589" y1="28.4055" y2="37.1555"/>
    <line x1="530.3839" x2="536.0089" y1="34.0305" y2="41.5305"/>
    <polyline points="548.0315,54.8031 585.8268,54.8031 585.8268,54.8031 585.8268,17.0079 585.8268,17.0079 548.0315,17.0079"/>
    <polyline points="572.5541,41.5305 567.5541,28.4055 567.5541,28.4055 562.5541,41.5305"/>
    <line x1="564.4291" x2="570.6791" y1="37.1555" y2="37.1555"/>
    <polyline points="585.8268,54.8031 623.622,54.8031 623.622,54.8031 623.622,92.5984 623.622,92.5984 585.8268,92.5984 585.8268,92.5984 548.0315,92.5984 548.0315,92.5984 510.2362,92.5984 510.2362,92.5984 472.4409,92.5984 472.4409,92.5984 434.6457,92.5984 434.6457,92.5984 434.6457,54.8031 434.6457,54.8031 396.8504,54.8031 396.8504,54.8031 396.8504,92.5984 396.8504,92.5984 434.6457,92.5984 434.6457,92.5984 434.6457,130.3937 434.6457,130.3937 396.8504,130.3937 396.8504,130.3937 396.8504,92.5984 396.8504,92.5984 359.0551,92.5984 359.0551,92.5984 321.2598,92.5984 321.2598,92.5984 321.2598,130.3937 321.2598,130.3937 359.0551,130.3937 359.0551,130.3937 359.0551,92.5984"/>
    <polyline points="623.622,17.0079 661.4173,17.0079 661.4173,17.0079 699.2126,17.0079 699.2126,17.0079 699.2126,54.8031 699.2126,54.8031 661.4173,54.8031 661.4173,54.8031 623.622,54.8031 623.622,54.8031 623.622,17.0079 623.622,17.0079 585.8268,17.0079"/>
    <polyline points="610.9744,30.2805 609.7244,29.0305 609.7244,29.0305 607.8494,28.4055 607.8494,28.4055 605.3494,28.4055 605.3494,28.4055 603.4744,29.0305 603.4744,29.0305 602.2244,30.2805 602.2244,30.2805 602.2244,31.5305 602.2244,31.5305 602.8494,32.7805 602.8494,32.7805 603.4744,33.4055 603.4744,33.4055 604.7244,34.0305 604.7244,34.0305 608.4744,35.2805 608.4744,35.2805 609.7244,35.9055 609.7244,35.9055 610.3494,36.5305 610.3494,36.5305 610.9744,37.7805 610.9744,37.7805 610.9744,39.6555 610.9744,39.6555 609.7244,40.9055 609.7244,40.9055 607.8494,41.5305 607.8494,41.5305 605.3494,41.5305 605.3494,41.5305 603.4744,40.9055 603.4744,40.9055 602.2244,39.6555"/>
    <polyline points="661.4173,92.5984 661.4173,130.3937 661.4173,130.3937 623.622,130.3937 623.622,130.3937 623.622,92.5984 623.622,92.5984 661.4173,92.5984 661.4173,92.5984 661.4173,54.8031 661.4173,54.8031 661.4173,17.0079"/>
    <polyline points="627.0743,18.9272 630.5118,18.9272 630.5118,18.9272 628.6368,21.4272 628.6368,21.4272 629.5743,21.4272 629.5743,21.4272 630.1993,21.7397 630.1993,21.7397 630.5118,22.0522 630.5118,22.0522 630.8243,22.9897 630.8243,22.9897 630.8243,23.6147 630.8243,23.6147 630.5118,24.5522 630.5118,24.5522 629.8868,25.1772 629.8868,25.1772 628.9493,25.4897 628.9493,25.4897 628.0118,25.4897 628.0118,25.4897 627.0743,25.1772 627.0743,25.1772 626.7618,24.8647 626.7618,24.8647 626.4493,24.2397"/>
    <polyline points="648.7697,30.2805 647.5197,29.0305 647.5197,29.0305 645.6447,28.4055 645.6447,28.4055 643.1447,28.4055 643.1447,28.4055 641.2697,29.0305 641.2697,29.0305 640.0197,30.2805 640.0197,30.2805 640.0197,31.5305 640.0197,31.5305 640.6447,32.7805 640.6447,32.7805 641.2697,33.4055 641.2697,33.4055 642.5197,34.0305 642.5197,34.0305 646.2697,35.2805 646.2697,35.2805 647.5197,35.9055 647.5197,35.9055 648.1447,36.5305 648.1447,36.5305 648.7697,37.7805 648.7697,37.7805 648.7697,39.6555 648.7697,39.6555 647.5197,40.9055 647.5197,40.9055 645.6447,41.5305 645.6447,41.5305 643.1447,41.5305 643.1447,41.5305 641.2697,40.9055 641.2697,40.9055 640.0197,39.6555"/>
    <polyline points="685.94,41.5305 680.94,28.4055 680.94,28.4055 675.94,41.5305"/>
    <line x1="677.815" x2="684.065" y1="37.1555" y2="37.1555"/>
    <polyline points="119.9483,66.2008 111.8233,66.2008 111.8233,66.2008 111.8233,79.3258 111.8233,79.3258 119.9483,79.3258"/>
    <line x1="111.8233" x2="116.8233" y1="72.4508" y2="72.4508"/>
    <polyline points="402.8027,63.2849 402.8027,56.7224 402.8027,56.7224 399.6777,61.0974 399.6777,61.0974 404.3652,61.0974"/>
    <polyline points="414.498,66.2008 414.498,79.3258 414.498,79.3258 421.998,79.3258"/>
    <line x1="640.6447" x2="640.6447" y1="66.2008" y2="79.3258"/>
    <line x1="649.3947" x2="640.6447" y1="66.2008" y2="74.9508"/>
    <line x1="643.7697" x2="649.3947" y1="71.8258" y2="79.3258"/>
    <polyline points="170.0787,92.5984 170.0787,130.3937 170.0787,130.3937 132.2835,130.3937 132.2835,130.3937 94.4882,130.3937 94.4882,130.3937 94.4882,92.5984 94.4882,92.5984 56.6929,92.5984 56.6929,92.5984 18.8976,92.5984 18.8976,92.5984 18.8976,130.3937 18.8976,130.3937 18.8976,168.189 18.8976,168.189 56.6929,168.189 56.6929,168.189 56.6929,130.3937 56.6929,130.3937 94.4882,130.3937 94.4882,130.3937 94.4882,168.189 94.4882,168.189 132.2835,168.189 132.2835,168.189 132.2835,130.3937 132.2835,130.3937 132.2835,92.5984 132.2835,92.5984 170.0787,92.5984 170.0787,92.5984 207.874,92.5984 207.874,92.5984 207.874,130.3937 207.874,130.3937 245.6693,130.3937 245.6693,130.3937 245.6693,92.5984 245.6693,92.5984 207.874,92.5984"/>
    <polyline points="18.8976,130.3937 56.6929,130.3937 56.6929,130.3937 56.6929,92.5984"/>
    <polyline points="25.4749,94.5177 22.3499,94.5177 22.3499,94.5177 22.0374,97.3302 22.0374,97.3302 22.3499,97.0177 22.3499,97.0177 23.2874,96.7052 23.2874,96.7052 24.2249,96.7052 24.2249,96.7052 25.1624,97.0177 25.1624,97.0177 25.7874,97.6427 25.7874,97.6427 26.0999,98.5802 26.0999,98.5802 26.0999,99.2052 26.0999,99.2052 25.7874,100.1427 25.7874,100.1427 25.1624,100.7677 25.1624,100.7677 24.2249,101.0802 24.2249,101.0802 23.2874,101.0802 23.2874,101.0802 22.3499,100.7677 22.3499,100.7677 22.0374,100.4552 22.0374,100.4552 21.7249,99.8302"/>
    <polyline points="33.4203,103.9961 38.4203,117.1211 38.4203,117.1211 43.4203,103.9961"/>
    <polyline points="82.1531,103.9961 74.0281,103.9961 74.0281,103.9961 74.0281,117.1211 74.0281,117.1211 82.1531,117.1211"/>
    <line x1="74.0281" x2="79.0281" y1="110.2461" y2="110.2461"/>
    <polyline points="112.1358,103.9961 112.1358,117.1211 112.1358,117.1211 119.6358,117.1211"/>
    <polyline points="149.9311,103.9961 149.9311,117.1211 149.9311,117.1211 157.4311,117.1211"/>
    <line x1="170.0787" x2="207.874" y1="130.3937" y2="130.3937"/>
    <polyline points="195.5389,103.9961 187.4139,103.9961 187.4139,103.9961 187.4139,117.1211 187.4139,117.1211 195.5389,117.1211"/>
    <line x1="187.4139" x2="192.4139" y1="110.2461" y2="110.2461"/>
    <line x1="224.8967" x2="224.8967" y1="103.9961" y2="117.1211"/>
    <line x1="233.6467" x2="224.8967" y1="103.9961" y2="112.7461"/>
    <line x1="228.0217" x2="233.6467" y1="109.6211" y2="117.1211"/>
    <polyline points="245.6693,130.3937 283.4646,130.3937 283.4646,130.3937 283.4646,92.5984 283.4646,92.5984 245.6693,92.5984"/>
    <polyline points="271.1294,103.9961 263.0044,103.9961 263.0044,103.9961 263.0044,117.1211 263.0044,117.1211 271.1294,117.1211"/>
    <line x1="263.0044" x2="268.0044" y1="110.2461" y2="110.2461"/>
    <polyline points="328.1496,95.4552 327.8371,94.8302 327.8371,94.8302 326.8996,94.5177 326.8996,94.5177 326.2746,94.5177 326.2746,94.5177 325.3371,94.8302 325.3371,94.8302 324.7121,95.7677 324.7121,95.7677 324.3996,97.3302 324.3996,97.3302 324.3996,98.8927 324.3996,98.8927 324.7121,100.1427 324.7121,100.1427 325.3371,100.7677 325.3371,100.7677 326.2746,101.0802 326.2746,101.0802 326.5871,101.0802 326.5871,101.0802 327.5246,100.7677 327.5246,100.7677 328.1496,100.1427 328.1496,100.1427 328.4621,99.2052 328.4621,99.2052 328.4621,98.8927 328.4621,98.8927 328.1496,97.9552 328.1496,97.9552 327.5246,97.3302 327.5246,97.3302 326.5871,97.0177 326.5871,97.0177 326.2746,97.0177 326.2746,97.0177 325.3371,97.3302 325.3371,97.3302 324.7121,97.9552 324.7121,97.9552 324.3996,98.8927"/>
    <line x1="338.2825" x2="338.2825" y1="103.9961" y2="117.1211"/>
    <line x1="347.0325" x2="338.2825" y1="103.9961" y2="112.7461"/>
    <line x1="341.4075" x2="347.0325" y1="109.6211" y2="117.1211"/>
    <polyline points="359.0551,130.3937 396.8504,130.3937 396.8504,130.3937 396.8504,168.189 396.8504,168.189 434.6457,168.189 434.6457,168.189 434.6457,130.3937 434.6457,130.3937 472.4409,130.3937 472.4409,130.3937 510.2362,130.3937 510.2362,130.3937 548.0315,130.3937 548.0315,130.3937 585.8268,130.3937 585.8268,130.3937 585.8268,92.5984"/>
    <polyline points="376.7028,103.9961 376.7028,117.1211 376.7028,117.1211 384.2028,117.1211"/>
    <polyline points="421.373,117.1211 416.373,103.9961 416.373,103.9961 411.373,117.1211"/>
    <line x1="413.248" x2="419.498" y1="112.7461" y2="112.7461"/>
    <line x1="472.4409" x2="472.4409" y1="130.3937" y2="92.5984"/>
    <polyline points="449.1683,103.9961 454.1683,117.1211 454.1683,117.1211 459.1683,103.9961"/>
    <line x1="510.2362" x2="510.2362" y1="130.3937" y2="92.5984"/>
    <polyline points="497.9011,103.9961 489.7761,103.9961 489.7761,103.9961 489.7761,117.1211 489.7761,117.1211 497.9011,117.1211"/>
    <line x1="489.7761" x2="494.7761" y1="110.2461" y2="110.2461"/>
    <line x1="548.0315" x2="548.0315" y1="130.3937" y2="92.5984"/>
    <polyline points="527.2589,110.2461 532.8839,110.2461 532.8839,110.2461 534.7589,109.6211 534.7589,109.6211 535.3839,108.9961 535.3839,108.9961 536.0089,107.7461 536.0089,107.7461 536.0089,106.4961 536.0089,106.4961 535.3839,105.2461 535.3839,105.2461 534.7589,104.6211 534.7589,104.6211 532.8839,103.9961 532.8839,103.9961 527.2589,103.9961 527.2589,103.9961 527.2589,117.1211"/>
    <line x1="531.6339" x2="536.0089" y1="110.2461" y2="117.1211"/>
    <line x1="567.5541" x2="567.5541" y1="103.9961" y2="117.1211"/>
    <line x1="563.1791" x2="571.9291" y1="103.9961" y2="103.9961"/>
    <polyline points="585.8268,130.3937 623.622,130.3937 623.622,130.3937 623.622,168.189 623.622,168.189 661.4173,168.189 661.4173,168.189 661.4173,130.3937"/>
    <polyline points="609.0994,103.9961 609.0994,113.9961 609.0994,113.9961 608.4744,115.8711 608.4744,115.8711 607.8494,116.4961 607.8494,116.4961 606.5994,117.1211 606.5994,117.1211 605.3494,117.1211 605.3494,117.1211 604.0994,116.4961 604.0994,116.4961 603.4744,115.8711 603.4744,115.8711 602.8494,113.9961 602.8494,113.9961 602.8494,112.7461"/>
    <polyline points="649.0822,103.9961 640.9572,103.9961 640.9572,103.9961 640.9572,117.1211 640.9572,117.1211 649.0822,117.1211"/>
    <line x1="640.9572" x2="645.9572" y1="110.2461" y2="110.2461"/>
    <polyline points="35.9203,148.0413 41.5453,148.0413 41.5453,148.0413 43.4203,147.4163 43.4203,147.4163 44.0453,146.7913 44.0453,146.7913 44.6703,145.5413 44.6703,145.5413 44.6703,144.2913 44.6703,144.2913 44.0453,143.0413 44.0453,143.0413 43.4203,142.4163 43.4203,142.4163 41.5453,141.7913 41.5453,141.7913 35.9203,141.7913 35.9203,141.7913 35.9203,154.9163"/>
    <line x1="40.2953" x2="44.6703" y1="148.0413" y2="154.9163"/>
    <polyline points="119.9483,141.7913 111.8233,141.7913 111.8233,141.7913 111.8233,154.9163 111.8233,154.9163 119.9483,154.9163"/>
    <line x1="111.8233" x2="116.8233" y1="148.0413" y2="148.0413"/>
    <line x1="413.873" x2="413.873" y1="141.7913" y2="154.9163"/>
    <line x1="422.623" x2="413.873" y1="141.7913" y2="150.5413"/>
    <line x1="416.998" x2="422.623" y1="147.4163" y2="154.9163"/>
    <polyline points="641.2697,141.7913 641.2697,154.9163 641.2697,154.9163 648.7697,154.9163"/>
    <polygon points="699.2126,130.3937 699.2126,168.189 699.2126,168.189 737.0079,168.189 737.0079,168.189 737.0079,130.3937 737.0079,130.3937"/>
    <polyline points="702.0399,132.313 706.4149,132.313 706.4149,132.313 703.2899,138.8755"/>
    <polyline points="723.7352,154.9163 718.7352,141.7913 718.7352,141.7913 713.7352,154.9163"/>
    <line x1="715.6102" x2="721.8602" y1="150.5413" y2="150.5413"/>
    <polyline points="18.8976,168.189 18.8976,205.9843 18.8976,205.9843 56.6929,205.9843 56.6929,205.9843 56.6929,168.189"/>
    <line x1="40.2953" x2="40.2953" y1="179.5866" y2="192.7116"/>
    <polyline points="94.4882,168.189 94.4882,205.9843 94.4882,205.9843 94.4882,243.7795 94.4882,243.7795 132.2835,243.7795 132.2835,243.7795 132.2835,205.9843 132.2835,205.9843 132.2835,168.189 132.2835,168.189 170.0787,168.189 170.0787,168.189 170.0787,205.9843 170.0787,205.9843 207.874,205.9843 207.874,205.9843 245.6693,205.9843 245.6693,205.9843 245.6693,168.189 245.6693,168.189 207.874,168.189 207.874,168.189 170.0787,168.189"/>
    <polyline points="94.4882,205.9843 132.2835,205.9843 132.2835,205.9843 170.0787,205.9843"/>
    <polygon points="98.878,170.1083 97.9405,170.4208 97.9405,170.4208 97.628,171.0458 97.628,171.0458 97.628,171.6708 97.628,171.6708 97.9405,172.2958 97.9405,172.2958 98.5655,172.6083 98.5655,172.6083 99.8155,172.9208 99.8155,172.9208 100.753,173.2333 100.753,173.2333 101.378,173.8583 101.378,173.8583 101.6905,174.4833 101.6905,174.4833 101.6905,175.4208 101.6905,175.4208 101.378,176.0458 101.378,176.0458 101.0655,176.3583 101.0655,176.3583 100.128,176.6708 100.128,176.6708 98.878,176.6708 98.878,176.6708 97.9405,176.3583 97.9405,176.3583 97.628,176.0458 97.628,176.0458 97.3155,175.4208 97.3155,175.4208 97.3155,174.4833 97.3155,174.4833 97.628,173.8583 97.628,173.8583 98.253,173.2333 98.253,173.2333 99.1905,172.9208 99.1905,172.9208 100.4405,172.6083 100.4405,172.6083 101.0655,172.2958 101.0655,172.2958 101.378,171.6708 101.378,171.6708 101.378,171.0458 101.378,171.0458 101.0655,170.4208 101.0655,170.4208 100.128,170.1083 100.128,170.1083"/>
    <polyline points="119.9483,179.5866 111.8233,179.5866 111.8233,179.5866 111.8233,192.7116"/>
    <line x1="111.8233" x2="116.8233" y1="185.8366" y2="185.8366"/>
    <polyline points="149.9311,179.5866 149.9311,192.7116 149.9311,192.7116 157.4311,192.7116"/>
    <line x1="207.874" x2="207.874" y1="205.9843" y2="168.189"/>
    <polyline points="195.5389,179.5866 187.4139,179.5866 187.4139,179.5866 187.4139,192.7116 187.4139,192.7116 195.5389,192.7116"/>
    <line x1="187.4139" x2="192.4139" y1="185.8366" y2="185.8366"/>
    <polyline points="233.0217,181.4616 231.7717,180.2116 231.7717,180.2116 229.8967,179.5866 229.8967,179.5866 227.3967,179.5866 227.3967,179.5866 225.5217,180.2116 225.5217,180.2116 224.2717,181.4616 224.2717,181.4616 224.2717,182.7116 224.2717,182.7116 224.8967,183.9616 224.8967,183.9616 225.5217,184.5866 225.5217,184.5866 226.7717,185.2116 226.7717,185.2116 230.5217,186.4616 230.5217,186.4616 231.7717,187.0866 231.7717,187.0866 232.3967,187.7116 232.3967,187.7116 233.0217,188.9616 233.0217,188.9616 233.0217,190.8366 233.0217,190.8366 231.7717,192.0866 231.7717,192.0866 229.8967,192.7116 229.8967,192.7116 227.3967,192.7116 227.3967,192.7116 225.5217,192.0866 225.5217,192.0866 224.2717,190.8366"/>
    <polyline points="245.6693,205.9843 283.4646,205.9843 283.4646,205.9843 283.4646,168.189 283.4646,168.189 245.6693,168.189"/>
    <polyline points="270.8169,181.4616 269.5669,180.2116 269.5669,180.2116 267.6919,179.5866 267.6919,179.5866 265.1919,179.5866 265.1919,179.5866 263.3169,180.2116 263.3169,180.2116 262.0669,181.4616 262.0669,181.4616 262.0669,182.7116 262.0669,182.7116 262.6919,183.9616 262.6919,183.9616 263.3169,184.5866 263.3169,184.5866 264.5669,185.2116 264.5669,185.2116 268.3169,186.4616 268.3169,186.4616 269.5669,187.0866 269.5669,187.0866 270.1919,187.7116 270.1919,187.7116 270.8169,188.9616 270.8169,188.9616 270.8169,190.8366 270.8169,190.8366 269.5669,192.0866 269.5669,192.0866 267.6919,192.7116 267.6919,192.7116 265.1919,192.7116 265.1919,192.7116 263.3169,192.0866 263.3169,192.0866 262.0669,190.8366"/>
    <polyline points="283.4646,205.9843 321.2598,205.9843 321.2598,205.9843 321.2598,168.189 321.2598,168.189 283.4646,168.189"/>
    <polyline points="308.9247,179.5866 300.7997,179.5866 300.7997,179.5866 300.7997,192.7116 300.7997,192.7116 308.9247,192.7116"/>
    <line x1="300.7997" x2="305.7997" y1="185.8366" y2="185.8366"/>
    <polyline points="359.0551,168.189 396.8504,168.189 396.8504,168.189 396.8504,205.9843 396.8504,205.9843 359.0551,205.9843 359.0551,205.9843 359.0551,243.7795 359.0551,243.7795 321.2598,243.7795 321.2598,243.7795 321.2598,205.9843 321.2598,205.9843 359.0551,205.9843 359.0551,205.9843 359.0551,168.189 359.0551,168.189 321.2598,168.189"/>
    <polyline points="328.1496,172.2958 327.8371,173.2333 327.8371,173.2333 327.2121,173.8583 327.2121,173.8583 326.2746,174.1708 326.2746,174.1708 325.9621,174.1708 325.9621,174.1708 325.0246,173.8583 325.0246,173.8583 324.3996,173.2333 324.3996,173.2333 324.0871,172.2958 324.0871,172.2958 324.0871,171.9833 324.0871,171.9833 324.3996,171.0458 324.3996,171.0458 325.0246,170.4208 325.0246,170.4208 325.9621,170.1083 325.9621,170.1083 326.2746,170.1083 326.2746,170.1083 327.2121,170.4208 327.2121,170.4208 327.8371,171.0458 327.8371,171.0458 328.1496,172.2958 328.1496,172.2958 328.1496,173.8583 328.1496,173.8583 327.8371,175.4208 327.8371,175.4208 327.2121,176.3583 327.2121,176.3583 326.2746,176.6708 326.2746,176.6708 325.6496,176.6708 325.6496,176.6708 324.7121,176.3583 324.7121,176.3583 324.3996,175.7333"/>
    <polyline points="347.0325,179.5866 347.0325,192.7116 347.0325,192.7116 338.2825,179.5866 338.2825,179.5866 338.2825,192.7116"/>
    <polyline points="384.5153,182.7116 383.8903,181.4616 383.8903,181.4616 382.6403,180.2116 382.6403,180.2116 381.3903,179.5866 381.3903,179.5866 378.8903,179.5866 378.8903,179.5866 377.6403,180.2116 377.6403,180.2116 376.3903,181.4616 376.3903,181.4616 375.7653,182.7116 375.7653,182.7116 375.1403,184.5866 375.1403,184.5866 375.1403,187.7116 375.1403,187.7116 375.7653,189.5866 375.7653,189.5866 376.3903,190.8366 376.3903,190.8366 377.6403,192.0866 377.6403,192.0866 378.8903,192.7116 378.8903,192.7116 381.3903,192.7116 381.3903,192.7116 382.6403,192.0866 382.6403,192.0866 383.8903,190.8366 383.8903,190.8366 384.5153,189.5866 384.5153,189.5866 384.5153,187.7116 384.5153,187.7116 381.3903,187.7116"/>
    <polyline points="510.2362,205.9843 472.4409,205.9843 472.4409,205.9843 434.6457,205.9843 434.6457,205.9843 434.6457,243.7795 434.6457,243.7795 396.8504,243.7795 396.8504,243.7795 396.8504,205.9843 396.8504,205.9843 434.6457,205.9843 434.6457,205.9843 434.6457,168.189 434.6457,168.189 472.4409,168.189 472.4409,168.189 510.2362,168.189 510.2362,168.189 548.0315,168.189 548.0315,168.189 548.0315,205.9843 548.0315,205.9843 510.2362,205.9843 510.2362,205.9843 510.2362,168.189"/>
    <polyline points="422.3105,179.5866 414.1855,179.5866 414.1855,179.5866 414.1855,192.7116 414.1855,192.7116 422.3105,192.7116"/>
    <line x1="414.1855" x2="419.1855" y1="185.8366" y2="185.8366"/>
    <line x1="472.4409" x2="472.4409" y1="205.9843" y2="168.189"/>
    <polyline points="452.2933,179.5866 452.2933,192.7116 452.2933,192.7116 459.7933,192.7116"/>
    <polyline points="489.4636,179.5866 489.4636,188.9616 489.4636,188.9616 490.0886,190.8366 490.0886,190.8366 491.3386,192.0866 491.3386,192.0866 493.2136,192.7116 493.2136,192.7116 494.4636,192.7116 494.4636,192.7116 496.3386,192.0866 496.3386,192.0866 497.5886,190.8366 497.5886,190.8366 498.2136,188.9616 498.2136,188.9616 498.2136,179.5866"/>
    <line x1="527.2589" x2="527.2589" y1="179.5866" y2="192.7116"/>
    <line x1="536.0089" x2="527.2589" y1="179.5866" y2="188.3366"/>
    <line x1="530.3839" x2="536.0089" y1="185.2116" y2="192.7116"/>
    <polygon points="585.8268,168.189 585.8268,205.9843 585.8268,205.9843 623.622,205.9843 623.622,205.9843 661.4173,205.9843 661.4173,205.9843 661.4173,168.189 661.4173,168.189 699.2126,168.189 699.2126,168.189 699.2126,205.9843 699.2126,205.9843 661.4173,205.9843 661.4173,205.9843 661.4173,243.7795 661.4173,243.7795 623.622,243.7795 623.622,243.7795 623.622,205.9843 623.622,205.9843 623.622,168.189 623.622,168.189"/>
    <polyline points="589.5915,171.3583 590.2165,171.0458 590.2165,171.0458 591.154,170.1083 591.154,170.1083 591.154,176.6708"/>
    <polygon points="596.779,170.1083 595.8415,170.4208 595.8415,170.4208 595.2165,171.3583 595.2165,171.3583 594.904,172.9208 594.904,172.9208 594.904,173.8583 594.904,173.8583 595.2165,175.4208 595.2165,175.4208 595.8415,176.3583 595.8415,176.3583 596.779,176.6708 596.779,176.6708 597.404,176.6708 597.404,176.6708 598.3415,176.3583 598.3415,176.3583 598.9665,175.4208 598.9665,175.4208 599.279,173.8583 599.279,173.8583 599.279,172.9208 599.279,172.9208 598.9665,171.3583 598.9665,171.3583 598.3415,170.4208 598.3415,170.4208 597.404,170.1083 597.404,170.1083"/>
    <polyline points="611.2869,179.5866 603.1619,179.5866 603.1619,179.5866 603.1619,192.7116 603.1619,192.7116 611.2869,192.7116"/>
    <line x1="603.1619" x2="608.1619" y1="185.8366" y2="185.8366"/>
    <polyline points="641.2697,179.5866 641.2697,192.7116 641.2697,192.7116 648.7697,192.7116"/>
    <line x1="682.815" x2="682.815" y1="179.5866" y2="192.7116"/>
    <polygon points="699.2126,205.9843 737.0079,205.9843 737.0079,205.9843 774.8031,205.9843 774.8031,205.9843 774.8031,168.189 774.8031,168.189 737.0079,168.189 737.0079,168.189 737.0079,205.9843 737.0079,205.9843 737.0079,243.7795 737.0079,243.7795 699.2126,243.7795 699.2126,243.7795"/>
    <polyline points="724.3602,181.4616 723.1102,180.2116 723.1102,180.2116 721.2352,179.5866 721.2352,179.5866 718.7352,179.5866 718.7352,179.5866 716.8602,180.2116 716.8602,180.2116 715.6102,181.4616 715.6102,181.4616 715.6102,182.7116 715.6102,182.7116 716.2352,183.9616 716.2352,183.9616 716.8602,184.5866 716.8602,184.5866 718.1102,185.2116 718.1102,185.2116 721.8602,186.4616 721.8602,186.4616 723.1102,187.0866 723.1102,187.0866 723.7352,187.7116 723.7352,187.7116 724.3602,188.9616 724.3602,188.9616 724.3602,190.8366 724.3602,190.8366 723.1102,192.0866 723.1102,192.0866 721.2352,192.7116 721.2352,192.7116 718.7352,192.7116 718.7352,192.7116 716.8602,192.0866 716.8602,192.0866 715.6102,190.8366"/>
    <polyline points="762.468,179.5866 754.343,179.5866 754.343,179.5866 754.343,192.7116 754.343,192.7116 762.468,192.7116"/>
    <line x1="754.343" x2="759.343" y1="185.8366" y2="185.8366"/>
    <polyline points="18.8976,205.9843 18.8976,243.7795 18.8976,243.7795 56.6929,243.7795 56.6929,243.7795 56.6929,205.9843"/>
    <polyline points="42.1703,217.3819 42.1703,227.3819 42.1703,227.3819 41.5453,229.2569 41.5453,229.2569 40.9203,229.8819 40.9203,229.8819 39.6703,230.5069 39.6703,230.5069 38.4203,230.5069 38.4203,230.5069 37.1703,229.8819 37.1703,229.8819 36.5453,229.2569 36.5453,229.2569 35.9203,227.3819 35.9203,227.3819 35.9203,226.1319"/>
    <polygon points="114.0108,217.3819 112.7608,218.0069 112.7608,218.0069 111.5108,219.2569 111.5108,219.2569 110.8858,220.5069 110.8858,220.5069 110.2608,222.3819 110.2608,222.3819 110.2608,225.5069 110.2608,225.5069 110.8858,227.3819 110.8858,227.3819 111.5108,228.6319 111.5108,228.6319 112.7608,229.8819 112.7608,229.8819 114.0108,230.5069 114.0108,230.5069 116.5108,230.5069 116.5108,230.5069 117.7608,229.8819 117.7608,229.8819 119.0108,228.6319 119.0108,228.6319 119.6358,227.3819 119.6358,227.3819 120.2608,225.5069 120.2608,225.5069 120.2608,222.3819 120.2608,222.3819 119.6358,220.5069 119.6358,220.5069 119.0108,219.2569 119.0108,219.2569 117.7608,218.0069 117.7608,218.0069 116.5108,217.3819 116.5108,217.3819"/>
    <line x1="342.6575" x2="342.6575" y1="217.3819" y2="230.5069"/>
    <polyline points="422.623,217.3819 422.623,230.5069 422.623,230.5069 413.873,217.3819 413.873,217.3819 413.873,230.5069"/>
    <polyline points="649.0822,217.3819 640.9572,217.3819 640.9572,217.3819 640.9572,230.5069 640.9572,230.5069 649.0822,230.5069"/>
    <line x1="640.9572" x2="645.9572" y1="223.6319" y2="223.6319"/>
    <line x1="718.7352" x2="718.7352" y1="217.3819" y2="230.5069"/>
    <line x1="714.3602" x2="723.1102" y1="217.3819" y2="217.3819"/>
    <polyline points="18.8976,243.7795 18.8976,281.5748 18.8976,281.5748 18.8976,319.3701 18.8976,319.3701 56.6929,319.3701 56.6929,319.3701 56.6929,281.5748 56.6929,281.5748 56.6929,243.7795"/>
    <line x1="18.8976" x2="56.6929" y1="281.5748" y2="281.5748"/>
    <polygon points="35.9203,255.1772 35.9203,268.3022 35.9203,268.3022 40.2953,268.3022 40.2953,268.3022 42.1703,267.6772 42.1703,267.6772 43.4203,266.4272 43.4203,266.4272 44.0453,265.1772 44.0453,265.1772 44.6703,263.3022 44.6703,263.3022 44.6703,260.1772 44.6703,260.1772 44.0453,258.3022 44.0453,258.3022 43.4203,257.0522 43.4203,257.0522 42.1703,255.8022 42.1703,255.8022 40.2953,255.1772 40.2953,255.1772"/>
    <polyline points="94.4882,243.7795 94.4882,281.5748 94.4882,281.5748 94.4882,319.3701 94.4882,319.3701 132.2835,319.3701 132.2835,319.3701 132.2835,281.5748 132.2835,281.5748 132.2835,243.7795"/>
    <line x1="94.4882" x2="132.2835" y1="281.5748" y2="281.5748"/>
    <polygon points="114.0108,255.1772 112.7608,255.8022 112.7608,255.8022 111.5108,257.0522 111.5108,257.0522 110.8858,258.3022 110.8858,258.3022 110.2608,260.1772 110.2608,260.1772 110.2608,263.3022 110.2608,263.3022 110.8858,265.1772 110.8858,265.1772 111.5108,266.4272 111.5108,266.4272 112.7608,267.6772 112.7608,267.6772 114.0108,268.3022 114.0108,268.3022 116.5108,268.3022 116.5108,268.3022 117.7608,267.6772 117.7608,267.6772 119.0108,266.4272 119.0108,266.4272 119.6358,265.1772 119.6358,265.1772 120.2608,263.3022 120.2608,263.3022 120.2608,260.1772 120.2608,260.1772 119.6358,258.3022 119.6358,258.3022 119.0108,257.0522 119.0108,257.0522 117.7608,255.8022 117.7608,255.8022 116.5108,255.1772 116.5108,255.1772"/>
    <polygon points="170.0787,243.7795 170.0787,281.5748 170.0787,281.5748 207.874,281.5748 207.874,281.5748 207.874,243.7795 207.874,243.7795"/>
    <polyline points="173.8435,246.9488 174.4685,246.6363 174.4685,246.6363 175.406,245.6988 175.406,245.6988 175.406,252.2613"/>
    <polyline points="180.0935,246.9488 180.7185,246.6363 180.7185,246.6363 181.656,245.6988 181.656,245.6988 181.656,252.2613"/>
    <polyline points="196.4764,268.3022 196.4764,255.1772 196.4764,255.1772 191.4764,268.3022 191.4764,268.3022 186.4764,255.1772 186.4764,255.1772 186.4764,268.3022"/>
    <polyline points="207.874,281.5748 245.6693,281.5748 245.6693,281.5748 245.6693,243.7795 245.6693,243.7795 207.874,243.7795"/>
    <line x1="229.2717" x2="229.2717" y1="255.1772" y2="268.3022"/>
    <polyline points="245.6693,281.5748 283.4646,281.5748 283.4646,281.5748 321.2598,281.5748 321.2598,281.5748 321.2598,243.7795 321.2598,243.7795 283.4646,243.7795 283.4646,243.7795 245.6693,243.7795"/>
    <line x1="283.4646" x2="283.4646" y1="281.5748" y2="243.7795"/>
    <polyline points="270.8169,257.0522 269.5669,255.8022 269.5669,255.8022 267.6919,255.1772 267.6919,255.1772 265.1919,255.1772 265.1919,255.1772 263.3169,255.8022 263.3169,255.8022 262.0669,257.0522 262.0669,257.0522 262.0669,258.3022 262.0669,258.3022 262.6919,259.5522 262.6919,259.5522 263.3169,260.1772 263.3169,260.1772 264.5669,260.8022 264.5669,260.8022 268.3169,262.0522 268.3169,262.0522 269.5669,262.6772 269.5669,262.6772 270.1919,263.3022 270.1919,263.3022 270.8169,264.5522 270.8169,264.5522 270.8169,266.4272 270.8169,266.4272 269.5669,267.6772 269.5669,267.6772 267.6919,268.3022 267.6919,268.3022 265.1919,268.3022 265.1919,268.3022 263.3169,267.6772 263.3169,267.6772 262.0669,266.4272"/>
    <polyline points="297.9872,255.1772 302.9872,268.3022 302.9872,268.3022 307.9872,255.1772"/>
    <polyline points="245.6693,319.3701 245.6693,357.1654 245.6693,357.1654 207.874,357.1654 207.874,357.1654 207.874,319.3701 207.874,319.3701 245.6693,319.3701 245.6693,319.3701 283.4646,319.3701 283.4646,319.3701 321.2598,319.3701 321.2598,319.3701 321.2598,281.5748 321.2598,281.5748 359.0551,281.5748 359.0551,281.5748 359.0551,243.7795 359.0551,243.7795 396.8504,243.7795 396.8504,243.7795 396.8504,281.5748 396.8504,281.5748 434.6457,281.5748 434.6457,281.5748 434.6457,243.7795 434.6457,243.7795 472.4409,243.7795 472.4409,243.7795 510.2362,243.7795 510.2362,243.7795 510.2362,281.5748 510.2362,281.5748 548.0315,281.5748 548.0315,281.5748 585.8268,281.5748 585.8268,281.5748 585.8268,243.7795 585.8268,243.7795 548.0315,243.7795 548.0315,243.7795 510.2362,243.7795"/>
    <polyline points="346.72,255.1772 338.595,255.1772 338.595,255.1772 338.595,268.3022 338.595,268.3022 346.72,268.3022"/>
    <line x1="338.595" x2="343.595" y1="261.4272" y2="261.4272"/>
    <polyline points="359.0551,319.3701 359.0551,357.1654 359.0551,357.1654 321.2598,357.1654 321.2598,357.1654 321.2598,319.3701 321.2598,319.3701 359.0551,319.3701 359.0551,319.3701 359.0551,281.5748 359.0551,281.5748 396.8504,281.5748"/>
    <polyline points="376.0778,261.4272 381.7028,261.4272 381.7028,261.4272 383.5778,260.8022 383.5778,260.8022 384.2028,260.1772 384.2028,260.1772 384.8278,258.9272 384.8278,258.9272 384.8278,257.6772 384.8278,257.6772 384.2028,256.4272 384.2028,256.4272 383.5778,255.8022 383.5778,255.8022 381.7028,255.1772 381.7028,255.1772 376.0778,255.1772 376.0778,255.1772 376.0778,268.3022"/>
    <line x1="380.4528" x2="384.8278" y1="261.4272" y2="268.3022"/>
    <polyline points="421.998,257.0522 420.748,255.8022 420.748,255.8022 418.873,255.1772 418.873,255.1772 416.373,255.1772 416.373,255.1772 414.498,255.8022 414.498,255.8022 413.248,257.0522 413.248,257.0522 413.248,258.3022 413.248,258.3022 413.873,259.5522 413.873,259.5522 414.498,260.1772 414.498,260.1772 415.748,260.8022 415.748,260.8022 419.498,262.0522 419.498,262.0522 420.748,262.6772 420.748,262.6772 421.373,263.3022 421.373,263.3022 421.998,264.5522 421.998,264.5522 421.998,266.4272 421.998,266.4272 420.748,267.6772 420.748,267.6772 418.873,268.3022 418.873,268.3022 416.373,268.3022 416.373,268.3022 414.498,267.6772 414.498,267.6772 413.248,266.4272"/>
    <polyline points="434.6457,281.5748 472.4409,281.5748 472.4409,281.5748 510.2362,281.5748 510.2362,281.5748 510.2362,319.3701 510.2362,319.3701 472.4409,319.3701 472.4409,319.3701 472.4409,357.1654 472.4409,357.1654 510.2362,357.1654 510.2362,357.1654 510.2362,319.3701 510.2362,319.3701 548.0315,319.3701 548.0315,319.3701 548.0315,281.5748 548.0315,281.5748 548.0315,243.7795"/>
    <line x1="472.4409" x2="472.4409" y1="281.5748" y2="243.7795"/>
    <line x1="454.1683" x2="454.1683" y1="255.1772" y2="268.3022"/>
    <line x1="449.7933" x2="458.5433" y1="255.1772" y2="255.1772"/>
    <polyline points="496.9636,268.3022 491.9636,255.1772 491.9636,255.1772 486.9636,268.3022"/>
    <line x1="488.8386" x2="495.0886" y1="263.9272" y2="263.9272"/>
    <polyline points="514.001,246.9488 514.626,246.6363 514.626,246.6363 515.5635,245.6988 515.5635,245.6988 515.5635,252.2613"/>
    <polyline points="519.626,247.2613 519.626,246.9488 519.626,246.9488 519.9385,246.3238 519.9385,246.3238 520.251,246.0113 520.251,246.0113 520.876,245.6988 520.876,245.6988 522.126,245.6988 522.126,245.6988 522.751,246.0113 522.751,246.0113 523.0635,246.3238 523.0635,246.3238 523.376,246.9488 523.376,246.9488 523.376,247.5738 523.376,247.5738 523.0635,248.1988 523.0635,248.1988 522.4385,249.1363 522.4385,249.1363 519.3135,252.2613 519.3135,252.2613 523.6885,252.2613"/>
    <polyline points="536.0089,255.1772 536.0089,268.3022 536.0089,268.3022 527.2589,255.1772 527.2589,255.1772 527.2589,268.3022"/>
    <polygon points="565.0541,255.1772 565.0541,268.3022 565.0541,268.3022 569.4291,268.3022 569.4291,268.3022 571.3041,267.6772 571.3041,267.6772 572.5541,266.4272 572.5541,266.4272 573.1791,265.1772 573.1791,265.1772 573.8041,263.3022 573.8041,263.3022 573.8041,260.1772 573.8041,260.1772 573.1791,258.3022 573.1791,258.3022 572.5541,257.0522 572.5541,257.0522 571.3041,255.8022 571.3041,255.8022 569.4291,255.1772 569.4291,255.1772"/>
    <polyline points="623.622,243.7795 623.622,281.5748 623.622,281.5748 623.622,319.3701 623.622,319.3701 661.4173,319.3701 661.4173,319.3701 661.4173,281.5748 661.4173,281.5748 661.4173,243.7795"/>
    <line x1="623.622" x2="661.4173" y1="281.5748" y2="281.5748"/>
    <line x1="640.6447" x2="640.6447" y1="255.1772" y2="268.3022"/>
    <line x1="649.3947" x2="640.6447" y1="255.1772" y2="263.9272"/>
    <line x1="643.7697" x2="649.3947" y1="260.8022" y2="268.3022"/>
    <polyline points="699.2126,243.7795 699.2126,281.5748 699.2126,281.5748 737.0079,281.5748 737.0079,281.5748 737.0079,243.7795"/>
    <polyline points="724.6727,255.1772 716.5477,255.1772 716.5477,255.1772 716.5477,268.3022 716.5477,268.3022 724.6727,268.3022"/>
    <line x1="716.5477" x2="721.5477" y1="261.4272" y2="261.4272"/>
    <polyline points="43.4203,306.0974 38.4203,292.9724 38.4203,292.9724 33.4203,306.0974"/>
    <line x1="35.2953" x2="41.5453" y1="301.7224" y2="301.7224"/>
    <polyline points="120.2608,292.9724 120.2608,306.0974 120.2608,306.0974 111.5108,292.9724 111.5108,292.9724 111.5108,306.0974"/>
    <polyline points="338.9075,292.9724 338.9075,306.0974 338.9075,306.0974 346.4075,306.0974"/>
    <polygon points="529.7589,292.9724 528.5089,293.5974 528.5089,293.5974 527.2589,294.8474 527.2589,294.8474 526.6339,296.0974 526.6339,296.0974 526.0089,297.9724 526.0089,297.9724 526.0089,301.0974 526.0089,301.0974 526.6339,302.9724 526.6339,302.9724 527.2589,304.2224 527.2589,304.2224 528.5089,305.4724 528.5089,305.4724 529.7589,306.0974 529.7589,306.0974 532.2589,306.0974 532.2589,306.0974 533.5089,305.4724 533.5089,305.4724 534.7589,304.2224 534.7589,304.2224 535.3839,302.9724 535.3839,302.9724 536.0089,301.0974 536.0089,301.0974 536.0089,297.9724 536.0089,297.9724 535.3839,296.0974 535.3839,296.0974 534.7589,294.8474 534.7589,294.8474 533.5089,293.5974 533.5089,293.5974 532.2589,292.9724 532.2589,292.9724"/>
    <polyline points="649.0822,292.9724 640.9572,292.9724 640.9572,292.9724 640.9572,306.0974 640.9572,306.0974 649.0822,306.0974"/>
    <line x1="640.9572" x2="645.9572" y1="299.2224" y2="299.2224"/>
    <polyline points="699.2126,281.5748 699.2126,319.3701 699.2126,319.3701 737.0079,319.3701 737.0079,319.3701 737.0079,281.5748"/>
    <polyline points="716.2352,299.2224 721.8602,299.2224 721.8602,299.2224 723.7352,298.5974 723.7352,298.5974 724.3602,297.9724 724.3602,297.9724 724.9852,296.7224 724.9852,296.7224 724.9852,295.4724 724.9852,295.4724 724.3602,294.2224 724.3602,294.2224 723.7352,293.5974 723.7352,293.5974 721.8602,292.9724 721.8602,292.9724 716.2352,292.9724 716.2352,292.9724 716.2352,306.0974"/>
    <line x1="720.6102" x2="724.9852" y1="299.2224" y2="306.0974"/>
    <polyline points="18.8976,319.3701 18.8976,357.1654 18.8976,357.1654 56.6929,357.1654 56.6929,357.1654 56.6929,319.3701"/>
    <polyline points="44.3578,333.8927 43.7328,332.6427 43.7328,332.6427 42.4828,331.3927 42.4828,331.3927 41.2328,330.7677 41.2328,330.7677 38.7328,330.7677 38.7328,330.7677 37.4828,331.3927 37.4828,331.3927 36.2328,332.6427 36.2328,332.6427 35.6078,333.8927 35.6078,333.8927 34.9828,335.7677 34.9828,335.7677 34.9828,338.8927 34.9828,338.8927 35.6078,340.7677 35.6078,340.7677 36.2328,342.0177 36.2328,342.0177 37.4828,343.2677 37.4828,343.2677 38.7328,343.8927 38.7328,343.8927 41.2328,343.8927 41.2328,343.8927 42.4828,343.2677 42.4828,343.2677 43.7328,342.0177 43.7328,342.0177 44.3578,340.7677 44.3578,340.7677 44.3578,338.8927 44.3578,338.8927 41.2328,338.8927"/>
    <polyline points="211.6388,322.5394 212.2638,322.2269 212.2638,322.2269 213.2013,321.2894 213.2013,321.2894 213.2013,327.8519"/>
    <polyline points="217.5763,321.2894 221.0138,321.2894 221.0138,321.2894 219.1388,323.7894 219.1388,323.7894 220.0763,323.7894 220.0763,323.7894 220.7013,324.1019 220.7013,324.1019 221.0138,324.4144 221.0138,324.4144 221.3263,325.3519 221.3263,325.3519 221.3263,325.9769 221.3263,325.9769 221.0138,326.9144 221.0138,326.9144 220.3888,327.5394 220.3888,327.5394 219.4513,327.8519 219.4513,327.8519 218.5138,327.8519 218.5138,327.8519 217.5763,327.5394 217.5763,327.5394 217.2638,327.2269 217.2638,327.2269 216.9513,326.6019"/>
    <polyline points="233.3342,333.8927 232.7092,332.6427 232.7092,332.6427 231.4592,331.3927 231.4592,331.3927 230.2092,330.7677 230.2092,330.7677 227.7092,330.7677 227.7092,330.7677 226.4592,331.3927 226.4592,331.3927 225.2092,332.6427 225.2092,332.6427 224.5842,333.8927 224.5842,333.8927 223.9592,335.7677 223.9592,335.7677 223.9592,338.8927 223.9592,338.8927 224.5842,340.7677 224.5842,340.7677 225.2092,342.0177 225.2092,342.0177 226.4592,343.2677 226.4592,343.2677 227.7092,343.8927 227.7092,343.8927 230.2092,343.8927 230.2092,343.8927 231.4592,343.2677 231.4592,343.2677 232.7092,342.0177 232.7092,342.0177 233.3342,340.7677 233.3342,340.7677 233.3342,338.8927 233.3342,338.8927 230.2092,338.8927"/>
    <polyline points="245.6693,357.1654 283.4646,357.1654 283.4646,357.1654 321.2598,357.1654"/>
    <line x1="283.4646" x2="283.4646" y1="357.1654" y2="319.3701"/>
    <polyline points="262.6919,337.0177 268.3169,337.0177 268.3169,337.0177 270.1919,336.3927 270.1919,336.3927 270.8169,335.7677 270.8169,335.7677 271.4419,334.5177 271.4419,334.5177 271.4419,333.2677 271.4419,333.2677 270.8169,332.0177 270.8169,332.0177 270.1919,331.3927 270.1919,331.3927 268.3169,330.7677 268.3169,330.7677 262.6919,330.7677 262.6919,330.7677 262.6919,343.8927"/>
    <line x1="267.0669" x2="271.4419" y1="337.0177" y2="343.8927"/>
    <polyline points="307.9872,343.8927 302.9872,330.7677 302.9872,330.7677 297.9872,343.8927"/>
    <line x1="299.8622" x2="306.1122" y1="339.5177" y2="339.5177"/>
    <polyline points="346.4075,332.6427 345.1575,331.3927 345.1575,331.3927 343.2825,330.7677 343.2825,330.7677 340.7825,330.7677 340.7825,330.7677 338.9075,331.3927 338.9075,331.3927 337.6575,332.6427 337.6575,332.6427 337.6575,333.8927 337.6575,333.8927 338.2825,335.1427 338.2825,335.1427 338.9075,335.7677 338.9075,335.7677 340.1575,336.3927 340.1575,336.3927 343.9075,337.6427 343.9075,337.6427 345.1575,338.2677 345.1575,338.2677 345.7825,338.8927 345.7825,338.8927 346.4075,340.1427 346.4075,340.1427 346.4075,342.0177 346.4075,342.0177 345.1575,343.2677 345.1575,343.2677 343.2825,343.8927 343.2825,343.8927 340.7825,343.8927 340.7825,343.8927 338.9075,343.2677 338.9075,343.2677 337.6575,342.0177"/>
    <polyline points="476.2057,322.5394 476.8307,322.2269 476.8307,322.2269 477.7682,321.2894 477.7682,321.2894 477.7682,327.8519"/>
    <polyline points="484.6432,327.8519 484.6432,321.2894 484.6432,321.2894 481.5182,325.6644 481.5182,325.6644 486.2057,325.6644"/>
    <polyline points="495.7136,330.7677 495.7136,340.7677 495.7136,340.7677 495.0886,342.6427 495.0886,342.6427 494.4636,343.2677 494.4636,343.2677 493.2136,343.8927 493.2136,343.8927 491.9636,343.8927 491.9636,343.8927 490.7136,343.2677 490.7136,343.2677 490.0886,342.6427 490.0886,342.6427 489.4636,340.7677 489.4636,340.7677 489.4636,339.5177"/>
    <polyline points="510.2362,357.1654 548.0315,357.1654 548.0315,357.1654 548.0315,319.3701"/>
    <polyline points="534.7589,343.8927 529.7589,330.7677 529.7589,330.7677 524.7589,343.8927"/>
    <line x1="526.6339" x2="532.8839" y1="339.5177" y2="339.5177"/>
  </g>
</svg>
