<?xml version="1.0" encoding="utf-8" ?>
<svg xmlns="http://www.w3.org/2000/svg" xmlns:cc="http://creativecommons.org/ns" xmlns:dc="http://purl.org/dc/elements/1.1/" xmlns:ev="http://www.w3.org/2001/xml-events" xmlns:inkscape="http://www.inkscape.org/namespaces/inkscape" xmlns:rdf="http://www.w3.org/1999/02/22-rdf-syntax-ns" xmlns:sodipodi="http://sodipodi.sourceforge.net/DTD/sodipodi-0.dtd" xmlns:xlink="http://www.w3.org/1999/xlink" baseProfile="tiny" height="9.9cm" version="1.2" viewBox="0 0 793.7007874015749 374.1732283464567" width="21.0cm">
  <metadata>
    <rdf:RDF>
      <cc:Work>
        <dc:format>image/svg+xml</dc:format>
        <dc:source>vpype eval 'cell=10;width=210;height=99' eval 'nCols=20;nRows=9' eval 'cells=[2,8,14,16,21,22,23,24,25,26,27,28,29,31,32,33,34,35,36,37,38,42,48,51,54,56,59,60,61,62,63,64,65,68,71,74,77,79,80,82,86,87,88,89,90,91,92,93,94,97,99,100,102,104,108,111,114,117,119,120,122,124,128,131,134,137,139,140,143,144,145,146,147,148,149,150,152,153,154,155,156,157,158,159,160,164,168,177]' eval 'chars=[&quot;P&quot;,&quot;R&quot;,&quot;R&quot;,&quot;Z&quot;,&quot;U&quot;,&quot;I&quot;,&quot;T&quot;,&quot;L&quot;,&quot;I&quot;,&quot;K&quot;,&quot;K&quot;,&quot;E&quot;,&quot;N&quot;,&quot;T&quot;,&quot;E&quot;,&quot;L&quot;,&quot;E&quot;,&quot;F&quot;,&quot;O&quot;,&quot;O&quot;,&quot;N&quot;,&quot;N&quot;,&quot;G&quot;,&quot;E&quot;,&quot;G&quot;,&quot;N&quot;,&quot;H&quot;,&quot;L&quot;,&quot;A&quot;,&quot;K&quot;,&quot;E&quot;,&quot;N&quot;,&quot;S&quot;,&quot;E&quot;,&quot;R&quot;,&quot;E&quot;,&quot;C&quot;,&quot;A&quot;,&quot;A&quot;,&quot;E&quot;,&quot;M&quot;,&quot;A&quot;,&quot;N&quot;,&quot;D&quot;,&quot;A&quot;,&quot;R&quot;,&quot;I&quot;,&quot;J&quot;,&quot;N&quot;,&quot;E&quot;,&quot;N&quot;,&quot;D&quot;,&quot;R&quot;,&quot;G&quot;,&quot;B&quot;,&quot;A&quot;,&quot;B&quot;,&quot;N&quot;,&quot;N&quot;,&quot;D&quot;,&quot;S&quot;,&quot;R&quot;,&quot;O&quot;,&quot;S&quot;,&quot;U&quot;,&quot;T&quot;,&quot;E&quot;,&quot;E&quot;,&quot;H&quot;,&quot;A&quot;,&quot;N&quot;,&quot;D&quot;,&quot;D&quot;,&quot;O&quot;,&quot;E&quot;,&quot;K&quot;,&quot;F&quot;,&quot;R&quot;,&quot;I&quot;,&quot;E&quot;,&quot;T&quot;,&quot;J&quot;,&quot;E&quot;,&quot;S&quot;,&quot;R&quot;,&quot;S&quot;,&quot;G&quot;,&quot;E&quot;]' eval 'numbers=[2,8,14,16,21,31,59,60,77,86,104,143,152]' eval counter=1 eval charIndex=0 begin grid -o '%cell*mm%' '%cell*mm%' %nCols% %nRows% eval '%isCell=_i in cells%' eval '%number=_i in numbers%' eval '%size=10 if isCell else 0%' rect 0 0 '%size*mm%' '%size*mm%' text -s 10 -p 0.5mm 1.5mm '%counter if number else '&quot;'&quot;''&quot;'&quot;'%' text -s 20 -p 5mm 5mm -a center '%chars[charIndex] if isCell else '&quot;'&quot;''&quot;'&quot;'%' eval '%if number: counter+=1 %' eval '%if isCell: charIndex+=1 %' end splitall deduplicate linemerge --tolerance 0.1mm write -m none --page-size '%width*mm%x%height*mm%' --center ./svgs/solution/2e3483.svg
</dc:source>
        <dc:date>2023-12-24T14:36:21.459908</dc:date>
      </cc:Work>
    </rdf:RDF>
  </metadata>
  <defs/>
  <g fill="none" id="layer1" inkscape:groupmode="layer" inkscape:label="1" stroke="#000000" style="display:inline">
    <polygon points="94.4882,17.0079 94.4882,54.8031 94.4882,54.8031 56.6929,54.8031 56.6929,54.8031 56.6929,92.5984 56.6929,92.5984 94.4882,92.5984 94.4882,92.5984 132.2835,92.5984 132.2835,92.5984 170.0787,92.5984 170.0787,92.5984 170.0787,54.8031 170.0787,54.8031 132.2835,54.8031 132.2835,54.8031 132.2835,17.0079 132.2835,17.0079"/>
    <polygon points="94.4882,54.8031 132.2835,54.8031 132.2835,54.8031 132.2835,92.5984 132.2835,92.5984 132.2835,130.3937 132.2835,130.3937 132.2835,168.189 132.2835,168.189 170.0787,168.189 170.0787,168.189 207.874,168.189 207.874,168.189 207.874,130.3937 207.874,130.3937 170.0787,130.3937 170.0787,130.3937 132.2835,130.3937 132.2835,130.3937 94.4882,130.3937 94.4882,130.3937 56.6929,130.3937 56.6929,130.3937 18.8976,130.3937 18.8976,130.3937 18.8976,168.189 18.8976,168.189 56.6929,168.189 56.6929,168.189 94.4882,168.189 94.4882,168.189 94.4882,130.3937 94.4882,130.3937 94.4882,92.5984 94.4882,92.5984"/>
    <polyline points="98.253,20.1772 98.878,19.8647 98.878,19.8647 99.8155,18.9272 99.8155,18.9272 99.8155,25.4897"/>
    <polyline points="111.5108,35.2805 117.1358,35.2805 117.1358,35.2805 119.0108,34.6555 119.0108,34.6555 119.6358,34.0305 119.6358,34.0305 120.2608,32.7805 120.2608,32.7805 120.2608,30.9055 120.2608,30.9055 119.6358,29.6555 119.6358,29.6555 119.0108,29.0305 119.0108,29.0305 117.1358,28.4055 117.1358,28.4055 111.5108,28.4055 111.5108,28.4055 111.5108,41.5305"/>
    <polygon points="321.2598,17.0079 321.2598,54.8031 321.2598,54.8031 359.0551,54.8031 359.0551,54.8031 359.0551,17.0079 359.0551,17.0079"/>
    <polyline points="324.3996,20.4897 324.3996,20.1772 324.3996,20.1772 324.7121,19.5522 324.7121,19.5522 325.0246,19.2397 325.0246,19.2397 325.6496,18.9272 325.6496,18.9272 326.8996,18.9272 326.8996,18.9272 327.5246,19.2397 327.5246,19.2397 327.8371,19.5522 327.8371,19.5522 328.1496,20.1772 328.1496,20.1772 328.1496,20.8022 328.1496,20.8022 327.8371,21.4272 327.8371,21.4272 327.2121,22.3647 327.2121,22.3647 324.0871,25.4897 324.0871,25.4897 328.4621,25.4897"/>
    <polyline points="338.2825,34.6555 343.9075,34.6555 343.9075,34.6555 345.7825,34.0305 345.7825,34.0305 346.4075,33.4055 346.4075,33.4055 347.0325,32.1555 347.0325,32.1555 347.0325,30.9055 347.0325,30.9055 346.4075,29.6555 346.4075,29.6555 345.7825,29.0305 345.7825,29.0305 343.9075,28.4055 343.9075,28.4055 338.2825,28.4055 338.2825,28.4055 338.2825,41.5305"/>
    <line x1="342.6575" x2="347.0325" y1="34.6555" y2="41.5305"/>
    <polyline points="548.0315,130.3937 585.8268,130.3937 585.8268,130.3937 585.8268,92.5984 585.8268,92.5984 623.622,92.5984 623.622,92.5984 623.622,130.3937 623.622,130.3937 661.4173,130.3937 661.4173,130.3937 699.2126,130.3937 699.2126,130.3937 699.2126,168.189 699.2126,168.189 661.4173,168.189 661.4173,168.189 661.4173,130.3937 661.4173,130.3937 661.4173,92.5984 661.4173,92.5984 699.2126,92.5984 699.2126,92.5984 699.2126,54.8031 699.2126,54.8031 661.4173,54.8031 661.4173,54.8031 661.4173,92.5984 661.4173,92.5984 623.622,92.5984 623.622,92.5984 623.622,54.8031 623.622,54.8031 623.622,17.0079 623.622,17.0079 661.4173,17.0079 661.4173,17.0079 661.4173,54.8031 661.4173,54.8031 623.622,54.8031 623.622,54.8031 585.8268,54.8031 585.8268,54.8031 585.8268,92.5984 585.8268,92.5984 548.0315,92.5984 548.0315,92.5984 548.0315,54.8031 548.0315,54.8031 585.8268,54.8031 585.8268,54.8031 585.8268,17.0079 585.8268,17.0079 548.0315,17.0079 548.0315,17.0079 548.0315,54.8031 548.0315,54.8031 510.2362,54.8031 510.2362,54.8031 472.4409,54.8031 472.4409,54.8031 434.6457,54.8031 434.6457,54.8031 434.6457,92.5984 434.6457,92.5984 472.4409,92.5984 472.4409,92.5984 510.2362,92.5984 510.2362,92.5984 548.0315,92.5984 548.0315,92.5984 548.0315,130.3937 548.0315,130.3937 548.0315,168.189 548.0315,168.189 510.2362,168.189 510.2362,168.189 472.4409,168.189 472.4409,168.189 472.4409,130.3937 472.4409,130.3937 472.4409,92.5984 472.4409,92.5984 472.4409,54.8031"/>
    <polyline points="551.4838,18.9272 554.9213,18.9272 554.9213,18.9272 553.0463,21.4272 553.0463,21.4272 553.9838,21.4272 553.9838,21.4272 554.6088,21.7397 554.6088,21.7397 554.9213,22.0522 554.9213,22.0522 555.2338,22.9897 555.2338,22.9897 555.2338,23.6147 555.2338,23.6147 554.9213,24.5522 554.9213,24.5522 554.2963,25.1772 554.2963,25.1772 553.3588,25.4897 553.3588,25.4897 552.4213,25.4897 552.4213,25.4897 551.4838,25.1772 551.4838,25.1772 551.1713,24.8647 551.1713,24.8647 550.8588,24.2397"/>
    <polyline points="565.0541,34.6555 570.6791,34.6555 570.6791,34.6555 572.5541,34.0305 572.5541,34.0305 573.1791,33.4055 573.1791,33.4055 573.8041,32.1555 573.8041,32.1555 573.8041,30.9055 573.8041,30.9055 573.1791,29.6555 573.1791,29.6555 572.5541,29.0305 572.5541,29.0305 570.6791,28.4055 570.6791,28.4055 565.0541,28.4055 565.0541,28.4055 565.0541,41.5305"/>
    <line x1="569.4291" x2="573.8041" y1="34.6555" y2="41.5305"/>
    <polyline points="629.5743,25.4897 629.5743,18.9272 629.5743,18.9272 626.4493,23.3022 626.4493,23.3022 631.1368,23.3022"/>
    <polyline points="640.0197,28.4055 648.7697,28.4055 648.7697,28.4055 640.0197,41.5305 640.0197,41.5305 648.7697,41.5305"/>
    <polyline points="63.2702,56.7224 60.1452,56.7224 60.1452,56.7224 59.8327,59.5349 59.8327,59.5349 60.1452,59.2224 60.1452,59.2224 61.0827,58.9099 61.0827,58.9099 62.0202,58.9099 62.0202,58.9099 62.9577,59.2224 62.9577,59.2224 63.5827,59.8474 63.5827,59.8474 63.8952,60.7849 63.8952,60.7849 63.8952,61.4099 63.8952,61.4099 63.5827,62.3474 63.5827,62.3474 62.9577,62.9724 62.9577,62.9724 62.0202,63.2849 62.0202,63.2849 61.0827,63.2849 61.0827,63.2849 60.1452,62.9724 60.1452,62.9724 59.8327,62.6599 59.8327,62.6599 59.5202,62.0349"/>
    <polyline points="73.7156,66.2008 73.7156,75.5758 73.7156,75.5758 74.3406,77.4508 74.3406,77.4508 75.5906,78.7008 75.5906,78.7008 77.4656,79.3258 77.4656,79.3258 78.7156,79.3258 78.7156,79.3258 80.5906,78.7008 80.5906,78.7008 81.8406,77.4508 81.8406,77.4508 82.4656,75.5758 82.4656,75.5758 82.4656,66.2008"/>
    <line x1="115.8858" x2="115.8858" y1="66.2008" y2="79.3258"/>
    <line x1="151.8061" x2="151.8061" y1="66.2008" y2="79.3258"/>
    <line x1="147.4311" x2="156.1811" y1="66.2008" y2="66.2008"/>
    <polyline points="170.0787,92.5984 207.874,92.5984 207.874,92.5984 245.6693,92.5984 245.6693,92.5984 245.6693,54.8031 245.6693,54.8031 207.874,54.8031 207.874,54.8031 170.0787,54.8031"/>
    <line x1="207.874" x2="207.874" y1="92.5984" y2="54.8031"/>
    <polyline points="187.7264,66.2008 187.7264,79.3258 187.7264,79.3258 195.2264,79.3258"/>
    <line x1="229.2717" x2="229.2717" y1="66.2008" y2="79.3258"/>
    <polyline points="245.6693,92.5984 283.4646,92.5984 283.4646,92.5984 321.2598,92.5984 321.2598,92.5984 321.2598,130.3937 321.2598,130.3937 359.0551,130.3937 359.0551,130.3937 359.0551,92.5984 359.0551,92.5984 396.8504,92.5984 396.8504,92.5984 396.8504,54.8031 396.8504,54.8031 359.0551,54.8031 359.0551,54.8031 359.0551,92.5984 359.0551,92.5984 321.2598,92.5984 321.2598,92.5984 321.2598,54.8031 321.2598,54.8031 283.4646,54.8031 283.4646,54.8031 245.6693,54.8031"/>
    <line x1="283.4646" x2="283.4646" y1="92.5984" y2="54.8031"/>
    <line x1="262.6919" x2="262.6919" y1="66.2008" y2="79.3258"/>
    <line x1="271.4419" x2="262.6919" y1="66.2008" y2="74.9508"/>
    <line x1="265.8169" x2="271.4419" y1="71.8258" y2="79.3258"/>
    <line x1="300.4872" x2="300.4872" y1="66.2008" y2="79.3258"/>
    <line x1="309.2372" x2="300.4872" y1="66.2008" y2="74.9508"/>
    <line x1="303.6122" x2="309.2372" y1="71.8258" y2="79.3258"/>
    <polyline points="346.72,66.2008 338.595,66.2008 338.595,66.2008 338.595,79.3258 338.595,79.3258 346.72,79.3258"/>
    <line x1="338.595" x2="343.595" y1="72.4508" y2="72.4508"/>
    <polyline points="384.8278,66.2008 384.8278,79.3258 384.8278,79.3258 376.0778,66.2008 376.0778,66.2008 376.0778,79.3258"/>
    <polyline points="441.5354,57.6599 441.2229,57.0349 441.2229,57.0349 440.2854,56.7224 440.2854,56.7224 439.6604,56.7224 439.6604,56.7224 438.7229,57.0349 438.7229,57.0349 438.0979,57.9724 438.0979,57.9724 437.7854,59.5349 437.7854,59.5349 437.7854,61.0974 437.7854,61.0974 438.0979,62.3474 438.0979,62.3474 438.7229,62.9724 438.7229,62.9724 439.6604,63.2849 439.6604,63.2849 439.9729,63.2849 439.9729,63.2849 440.9104,62.9724 440.9104,62.9724 441.5354,62.3474 441.5354,62.3474 441.8479,61.4099 441.8479,61.4099 441.8479,61.0974 441.8479,61.0974 441.5354,60.1599 441.5354,60.1599 440.9104,59.5349 440.9104,59.5349 439.9729,59.2224 439.9729,59.2224 439.6604,59.2224 439.6604,59.2224 438.7229,59.5349 438.7229,59.5349 438.0979,60.1599 438.0979,60.1599 437.7854,61.0974"/>
    <line x1="454.1683" x2="454.1683" y1="66.2008" y2="79.3258"/>
    <line x1="449.7933" x2="458.5433" y1="66.2008" y2="66.2008"/>
    <line x1="510.2362" x2="510.2362" y1="92.5984" y2="54.8031"/>
    <polyline points="497.9011,66.2008 489.7761,66.2008 489.7761,66.2008 489.7761,79.3258 489.7761,79.3258 497.9011,79.3258"/>
    <line x1="489.7761" x2="494.7761" y1="72.4508" y2="72.4508"/>
    <polyline points="527.8839,66.2008 527.8839,79.3258 527.8839,79.3258 535.3839,79.3258"/>
    <polyline points="573.4916,66.2008 565.3666,66.2008 565.3666,66.2008 565.3666,79.3258 565.3666,79.3258 573.4916,79.3258"/>
    <line x1="565.3666" x2="570.3666" y1="72.4508" y2="72.4508"/>
    <polyline points="611.2869,66.2008 603.1619,66.2008 603.1619,66.2008 603.1619,79.3258"/>
    <line x1="603.1619" x2="608.1619" y1="72.4508" y2="72.4508"/>
    <polygon points="643.1447,66.2008 641.8947,66.8258 641.8947,66.8258 640.6447,68.0758 640.6447,68.0758 640.0197,69.3258 640.0197,69.3258 639.3947,71.2008 639.3947,71.2008 639.3947,74.3258 639.3947,74.3258 640.0197,76.2008 640.0197,76.2008 640.6447,77.4508 640.6447,77.4508 641.8947,78.7008 641.8947,78.7008 643.1447,79.3258 643.1447,79.3258 645.6447,79.3258 645.6447,79.3258 646.8947,78.7008 646.8947,78.7008 648.1447,77.4508 648.1447,77.4508 648.7697,76.2008 648.7697,76.2008 649.3947,74.3258 649.3947,74.3258 649.3947,71.2008 649.3947,71.2008 648.7697,69.3258 648.7697,69.3258 648.1447,68.0758 648.1447,68.0758 646.8947,66.8258 646.8947,66.8258 645.6447,66.2008 645.6447,66.2008"/>
    <polygon points="680.94,66.2008 679.69,66.8258 679.69,66.8258 678.44,68.0758 678.44,68.0758 677.815,69.3258 677.815,69.3258 677.19,71.2008 677.19,71.2008 677.19,74.3258 677.19,74.3258 677.815,76.2008 677.815,76.2008 678.44,77.4508 678.44,77.4508 679.69,78.7008 679.69,78.7008 680.94,79.3258 680.94,79.3258 683.44,79.3258 683.44,79.3258 684.69,78.7008 684.69,78.7008 685.94,77.4508 685.94,77.4508 686.565,76.2008 686.565,76.2008 687.19,74.3258 687.19,74.3258 687.19,71.2008 687.19,71.2008 686.565,69.3258 686.565,69.3258 685.94,68.0758 685.94,68.0758 684.69,66.8258 684.69,66.8258 683.44,66.2008 683.44,66.2008"/>
    <polyline points="699.2126,92.5984 737.0079,92.5984 737.0079,92.5984 737.0079,54.8031 737.0079,54.8031 699.2126,54.8031"/>
    <polyline points="724.9852,66.2008 724.9852,79.3258 724.9852,79.3258 716.2352,66.2008 716.2352,66.2008 716.2352,79.3258"/>
    <polyline points="120.2608,103.9961 120.2608,117.1211 120.2608,117.1211 111.5108,103.9961 111.5108,103.9961 111.5108,117.1211"/>
    <polyline points="346.72,107.1211 346.095,105.8711 346.095,105.8711 344.845,104.6211 344.845,104.6211 343.595,103.9961 343.595,103.9961 341.095,103.9961 341.095,103.9961 339.845,104.6211 339.845,104.6211 338.595,105.8711 338.595,105.8711 337.97,107.1211 337.97,107.1211 337.345,108.9961 337.345,108.9961 337.345,112.1211 337.345,112.1211 337.97,113.9961 337.97,113.9961 338.595,115.2461 338.595,115.2461 339.845,116.4961 339.845,116.4961 341.095,117.1211 341.095,117.1211 343.595,117.1211 343.595,117.1211 344.845,116.4961 344.845,116.4961 346.095,115.2461 346.095,115.2461 346.72,113.9961 346.72,113.9961 346.72,112.1211 346.72,112.1211 343.595,112.1211"/>
    <polyline points="434.6457,92.5984 434.6457,130.3937 434.6457,130.3937 434.6457,168.189 434.6457,168.189 472.4409,168.189 472.4409,168.189 472.4409,205.9843 472.4409,205.9843 510.2362,205.9843 510.2362,205.9843 548.0315,205.9843 548.0315,205.9843 548.0315,168.189 548.0315,168.189 585.8268,168.189 585.8268,168.189 585.8268,130.3937"/>
    <line x1="434.6457" x2="472.4409" y1="130.3937" y2="130.3937"/>
    <polyline points="460.1058,103.9961 451.9808,103.9961 451.9808,103.9961 451.9808,117.1211 451.9808,117.1211 460.1058,117.1211"/>
    <line x1="451.9808" x2="456.9808" y1="110.2461" y2="110.2461"/>
    <polyline points="573.4916,107.1211 572.8666,105.8711 572.8666,105.8711 571.6166,104.6211 571.6166,104.6211 570.3666,103.9961 570.3666,103.9961 567.8666,103.9961 567.8666,103.9961 566.6166,104.6211 566.6166,104.6211 565.3666,105.8711 565.3666,105.8711 564.7416,107.1211 564.7416,107.1211 564.1166,108.9961 564.1166,108.9961 564.1166,112.1211 564.1166,112.1211 564.7416,113.9961 564.7416,113.9961 565.3666,115.2461 565.3666,115.2461 566.6166,116.4961 566.6166,116.4961 567.8666,117.1211 567.8666,117.1211 570.3666,117.1211 570.3666,117.1211 571.6166,116.4961 571.6166,116.4961 572.8666,115.2461 572.8666,115.2461 573.4916,113.9961 573.4916,113.9961 573.4916,112.1211 573.4916,112.1211 570.3666,112.1211"/>
    <polyline points="649.3947,103.9961 649.3947,117.1211 649.3947,117.1211 640.6447,103.9961 640.6447,103.9961 640.6447,117.1211"/>
    <polygon points="737.0079,92.5984 737.0079,130.3937 737.0079,130.3937 737.0079,168.189 737.0079,168.189 774.8031,168.189 774.8031,168.189 774.8031,130.3937 774.8031,130.3937 774.8031,92.5984 774.8031,92.5984"/>
    <line x1="737.0079" x2="774.8031" y1="130.3937" y2="130.3937"/>
    <polyline points="739.8351,94.5177 744.2101,94.5177 744.2101,94.5177 741.0851,101.0802"/>
    <line x1="754.0305" x2="754.0305" y1="103.9961" y2="117.1211"/>
    <line x1="762.7805" x2="762.7805" y1="103.9961" y2="117.1211"/>
    <line x1="754.0305" x2="762.7805" y1="110.2461" y2="110.2461"/>
    <polyline points="56.6929,205.9843 56.6929,243.7795 56.6929,243.7795 18.8976,243.7795 18.8976,243.7795 18.8976,205.9843 18.8976,205.9843 56.6929,205.9843 56.6929,205.9843 56.6929,168.189 56.6929,168.189 56.6929,130.3937"/>
    <polygon points="23.2874,132.313 22.3499,132.6255 22.3499,132.6255 22.0374,133.2505 22.0374,133.2505 22.0374,133.8755 22.0374,133.8755 22.3499,134.5005 22.3499,134.5005 22.9749,134.813 22.9749,134.813 24.2249,135.1255 24.2249,135.1255 25.1624,135.438 25.1624,135.438 25.7874,136.063 25.7874,136.063 26.0999,136.688 26.0999,136.688 26.0999,137.6255 26.0999,137.6255 25.7874,138.2505 25.7874,138.2505 25.4749,138.563 25.4749,138.563 24.5374,138.8755 24.5374,138.8755 23.2874,138.8755 23.2874,138.8755 22.3499,138.563 22.3499,138.563 22.0374,138.2505 22.0374,138.2505 21.7249,137.6255 21.7249,137.6255 21.7249,136.688 21.7249,136.688 22.0374,136.063 22.0374,136.063 22.6624,135.438 22.6624,135.438 23.5999,135.1255 23.5999,135.1255 24.8499,134.813 24.8499,134.813 25.4749,134.5005 25.4749,134.5005 25.7874,133.8755 25.7874,133.8755 25.7874,133.2505 25.7874,133.2505 25.4749,132.6255 25.4749,132.6255 24.5374,132.313 24.5374,132.313"/>
    <polyline points="36.5453,141.7913 36.5453,154.9163 36.5453,154.9163 44.0453,154.9163"/>
    <polyline points="81.2156,154.9163 76.2156,141.7913 76.2156,141.7913 71.2156,154.9163"/>
    <line x1="73.0906" x2="79.3406" y1="150.5413" y2="150.5413"/>
    <polyline points="94.4882,205.9843 94.4882,168.189 94.4882,168.189 132.2835,168.189 132.2835,168.189 132.2835,205.9843 132.2835,205.9843 94.4882,205.9843 94.4882,205.9843 94.4882,243.7795 94.4882,243.7795 132.2835,243.7795 132.2835,243.7795 132.2835,205.9843"/>
    <line x1="111.5108" x2="111.5108" y1="141.7913" y2="154.9163"/>
    <line x1="120.2608" x2="111.5108" y1="141.7913" y2="150.5413"/>
    <line x1="114.6358" x2="120.2608" y1="147.4163" y2="154.9163"/>
    <line x1="170.0787" x2="170.0787" y1="168.189" y2="130.3937"/>
    <polyline points="157.7436,141.7913 149.6186,141.7913 149.6186,141.7913 149.6186,154.9163 149.6186,154.9163 157.7436,154.9163"/>
    <line x1="149.6186" x2="154.6186" y1="148.0413" y2="148.0413"/>
    <polyline points="195.8514,141.7913 195.8514,154.9163 195.8514,154.9163 187.1014,141.7913 187.1014,141.7913 187.1014,154.9163"/>
    <polyline points="207.874,168.189 245.6693,168.189 245.6693,168.189 245.6693,130.3937 245.6693,130.3937 207.874,130.3937"/>
    <polyline points="233.0217,143.6663 231.7717,142.4163 231.7717,142.4163 229.8967,141.7913 229.8967,141.7913 227.3967,141.7913 227.3967,141.7913 225.5217,142.4163 225.5217,142.4163 224.2717,143.6663 224.2717,143.6663 224.2717,144.9163 224.2717,144.9163 224.8967,146.1663 224.8967,146.1663 225.5217,146.7913 225.5217,146.7913 226.7717,147.4163 226.7717,147.4163 230.5217,148.6663 230.5217,148.6663 231.7717,149.2913 231.7717,149.2913 232.3967,149.9163 232.3967,149.9163 233.0217,151.1663 233.0217,151.1663 233.0217,153.0413 233.0217,153.0413 231.7717,154.2913 231.7717,154.2913 229.8967,154.9163 229.8967,154.9163 227.3967,154.9163 227.3967,154.9163 225.5217,154.2913 225.5217,154.2913 224.2717,153.0413"/>
    <polyline points="321.2598,130.3937 321.2598,168.189 321.2598,168.189 283.4646,168.189 283.4646,168.189 245.6693,168.189 245.6693,168.189 245.6693,205.9843 245.6693,205.9843 283.4646,205.9843 283.4646,205.9843 321.2598,205.9843 321.2598,205.9843 321.2598,243.7795 321.2598,243.7795 359.0551,243.7795 359.0551,243.7795 359.0551,205.9843 359.0551,205.9843 396.8504,205.9843 396.8504,205.9843 396.8504,168.189 396.8504,168.189 359.0551,168.189 359.0551,168.189 359.0551,130.3937"/>
    <polygon points="321.2598,168.189 359.0551,168.189 359.0551,168.189 359.0551,205.9843 359.0551,205.9843 321.2598,205.9843 321.2598,205.9843"/>
    <polyline points="346.72,141.7913 338.595,141.7913 338.595,141.7913 338.595,154.9163 338.595,154.9163 346.72,154.9163"/>
    <line x1="338.595" x2="343.595" y1="148.0413" y2="148.0413"/>
    <polyline points="451.6683,148.0413 457.2933,148.0413 457.2933,148.0413 459.1683,147.4163 459.1683,147.4163 459.7933,146.7913 459.7933,146.7913 460.4183,145.5413 460.4183,145.5413 460.4183,144.2913 460.4183,144.2913 459.7933,143.0413 459.7933,143.0413 459.1683,142.4163 459.1683,142.4163 457.2933,141.7913 457.2933,141.7913 451.6683,141.7913 451.6683,141.7913 451.6683,154.9163"/>
    <line x1="456.0433" x2="460.4183" y1="148.0413" y2="154.9163"/>
    <polyline points="573.4916,141.7913 565.3666,141.7913 565.3666,141.7913 565.3666,154.9163 565.3666,154.9163 573.4916,154.9163"/>
    <line x1="565.3666" x2="570.3666" y1="148.0413" y2="148.0413"/>
    <polyline points="668.3071,134.5005 667.9946,135.438 667.9946,135.438 667.3696,136.063 667.3696,136.063 666.4321,136.3755 666.4321,136.3755 666.1196,136.3755 666.1196,136.3755 665.1821,136.063 665.1821,136.063 664.5571,135.438 664.5571,135.438 664.2446,134.5005 664.2446,134.5005 664.2446,134.188 664.2446,134.188 664.5571,133.2505 664.5571,133.2505 665.1821,132.6255 665.1821,132.6255 666.1196,132.313 666.1196,132.313 666.4321,132.313 666.4321,132.313 667.3696,132.6255 667.3696,132.6255 667.9946,133.2505 667.9946,133.2505 668.3071,134.5005 668.3071,134.5005 668.3071,136.063 668.3071,136.063 667.9946,137.6255 667.9946,137.6255 667.3696,138.563 667.3696,138.563 666.4321,138.8755 666.4321,138.8755 665.8071,138.8755 665.8071,138.8755 664.8696,138.563 664.8696,138.563 664.5571,137.938"/>
    <polyline points="686.8775,144.9163 686.2525,143.6663 686.2525,143.6663 685.0025,142.4163 685.0025,142.4163 683.7525,141.7913 683.7525,141.7913 681.2525,141.7913 681.2525,141.7913 680.0025,142.4163 680.0025,142.4163 678.7525,143.6663 678.7525,143.6663 678.1275,144.9163 678.1275,144.9163 677.5025,146.7913 677.5025,146.7913 677.5025,149.9163 677.5025,149.9163 678.1275,151.7913 678.1275,151.7913 678.7525,153.0413 678.7525,153.0413 680.0025,154.2913 680.0025,154.2913 681.2525,154.9163 681.2525,154.9163 683.7525,154.9163 683.7525,154.9163 685.0025,154.2913 685.0025,154.2913 686.2525,153.0413 686.2525,153.0413 686.8775,151.7913"/>
    <polyline points="761.5305,154.9163 756.5305,141.7913 756.5305,141.7913 751.5305,154.9163"/>
    <line x1="753.4055" x2="759.6555" y1="150.5413" y2="150.5413"/>
    <line x1="18.8976" x2="18.8976" y1="168.189" y2="205.9843"/>
    <polyline points="43.4203,192.7116 38.4203,179.5866 38.4203,179.5866 33.4203,192.7116"/>
    <line x1="35.2953" x2="41.5453" y1="188.3366" y2="188.3366"/>
    <polyline points="119.9483,179.5866 111.8233,179.5866 111.8233,179.5866 111.8233,192.7116 111.8233,192.7116 119.9483,192.7116"/>
    <line x1="111.8233" x2="116.8233" y1="185.8366" y2="185.8366"/>
    <line x1="283.4646" x2="283.4646" y1="205.9843" y2="168.189"/>
    <polyline points="249.4341,171.3583 250.0591,171.0458 250.0591,171.0458 250.9966,170.1083 250.9966,170.1083 250.9966,176.6708"/>
    <polygon points="256.6216,170.1083 255.6841,170.4208 255.6841,170.4208 255.0591,171.3583 255.0591,171.3583 254.7466,172.9208 254.7466,172.9208 254.7466,173.8583 254.7466,173.8583 255.0591,175.4208 255.0591,175.4208 255.6841,176.3583 255.6841,176.3583 256.6216,176.6708 256.6216,176.6708 257.2466,176.6708 257.2466,176.6708 258.1841,176.3583 258.1841,176.3583 258.8091,175.4208 258.8091,175.4208 259.1216,173.8583 259.1216,173.8583 259.1216,172.9208 259.1216,172.9208 258.8091,171.3583 258.8091,171.3583 258.1841,170.4208 258.1841,170.4208 257.2466,170.1083 257.2466,170.1083"/>
    <polyline points="272.0669,192.7116 272.0669,179.5866 272.0669,179.5866 267.0669,192.7116 267.0669,192.7116 262.0669,179.5866 262.0669,179.5866 262.0669,192.7116"/>
    <polyline points="307.9872,192.7116 302.9872,179.5866 302.9872,179.5866 297.9872,192.7116"/>
    <line x1="299.8622" x2="306.1122" y1="188.3366" y2="188.3366"/>
    <polyline points="347.0325,179.5866 347.0325,192.7116 347.0325,192.7116 338.2825,179.5866 338.2825,179.5866 338.2825,192.7116"/>
    <polygon points="376.0778,179.5866 376.0778,192.7116 376.0778,192.7116 380.4528,192.7116 380.4528,192.7116 382.3278,192.0866 382.3278,192.0866 383.5778,190.8366 383.5778,190.8366 384.2028,189.5866 384.2028,189.5866 384.8278,187.7116 384.8278,187.7116 384.8278,184.5866 384.8278,184.5866 384.2028,182.7116 384.2028,182.7116 383.5778,181.4616 383.5778,181.4616 382.3278,180.2116 382.3278,180.2116 380.4528,179.5866 380.4528,179.5866"/>
    <polyline points="396.8504,205.9843 434.6457,205.9843 434.6457,205.9843 434.6457,168.189 434.6457,168.189 396.8504,168.189"/>
    <polyline points="421.373,192.7116 416.373,179.5866 416.373,179.5866 411.373,192.7116"/>
    <line x1="413.248" x2="419.498" y1="188.3366" y2="188.3366"/>
    <polygon points="434.6457,205.9843 472.4409,205.9843 472.4409,205.9843 472.4409,243.7795 472.4409,243.7795 434.6457,243.7795 434.6457,243.7795"/>
    <polyline points="451.6683,185.8366 457.2933,185.8366 457.2933,185.8366 459.1683,185.2116 459.1683,185.2116 459.7933,184.5866 459.7933,184.5866 460.4183,183.3366 460.4183,183.3366 460.4183,182.0866 460.4183,182.0866 459.7933,180.8366 459.7933,180.8366 459.1683,180.2116 459.1683,180.2116 457.2933,179.5866 457.2933,179.5866 451.6683,179.5866 451.6683,179.5866 451.6683,192.7116"/>
    <line x1="456.0433" x2="460.4183" y1="185.8366" y2="192.7116"/>
    <line x1="510.2362" x2="510.2362" y1="205.9843" y2="168.189"/>
    <line x1="493.8386" x2="493.8386" y1="179.5866" y2="192.7116"/>
    <polyline points="533.5089,179.5866 533.5089,189.5866 533.5089,189.5866 532.8839,191.4616 532.8839,191.4616 532.2589,192.0866 532.2589,192.0866 531.0089,192.7116 531.0089,192.7116 529.7589,192.7116 529.7589,192.7116 528.5089,192.0866 528.5089,192.0866 527.8839,191.4616 527.8839,191.4616 527.2589,189.5866 527.2589,189.5866 527.2589,188.3366"/>
    <polyline points="585.8268,205.9843 585.8268,243.7795 585.8268,243.7795 548.0315,243.7795 548.0315,243.7795 548.0315,205.9843 548.0315,205.9843 585.8268,205.9843 585.8268,205.9843 585.8268,168.189"/>
    <polyline points="573.8041,179.5866 573.8041,192.7116 573.8041,192.7116 565.0541,179.5866 565.0541,179.5866 565.0541,192.7116"/>
    <polyline points="661.4173,168.189 661.4173,205.9843 661.4173,205.9843 699.2126,205.9843 699.2126,205.9843 699.2126,168.189"/>
    <polyline points="686.8775,179.5866 678.7525,179.5866 678.7525,179.5866 678.7525,192.7116 678.7525,192.7116 686.8775,192.7116"/>
    <line x1="678.7525" x2="683.7525" y1="185.8366" y2="185.8366"/>
    <polyline points="737.0079,168.189 737.0079,205.9843 737.0079,205.9843 774.8031,205.9843 774.8031,205.9843 774.8031,168.189"/>
    <polyline points="762.7805,179.5866 762.7805,192.7116 762.7805,192.7116 754.0305,179.5866 754.0305,179.5866 754.0305,192.7116"/>
    <polygon points="35.9203,217.3819 35.9203,230.5069 35.9203,230.5069 40.2953,230.5069 40.2953,230.5069 42.1703,229.8819 42.1703,229.8819 43.4203,228.6319 43.4203,228.6319 44.0453,227.3819 44.0453,227.3819 44.6703,225.5069 44.6703,225.5069 44.6703,222.3819 44.6703,222.3819 44.0453,220.5069 44.0453,220.5069 43.4203,219.2569 43.4203,219.2569 42.1703,218.0069 42.1703,218.0069 40.2953,217.3819 40.2953,217.3819"/>
    <polyline points="111.5108,223.6319 117.1358,223.6319 117.1358,223.6319 119.0108,223.0069 119.0108,223.0069 119.6358,222.3819 119.6358,222.3819 120.2608,221.1319 120.2608,221.1319 120.2608,219.8819 120.2608,219.8819 119.6358,218.6319 119.6358,218.6319 119.0108,218.0069 119.0108,218.0069 117.1358,217.3819 117.1358,217.3819 111.5108,217.3819 111.5108,217.3819 111.5108,230.5069"/>
    <line x1="115.8858" x2="120.2608" y1="223.6319" y2="230.5069"/>
    <polygon points="170.0787,205.9843 170.0787,243.7795 170.0787,243.7795 207.874,243.7795 207.874,243.7795 207.874,205.9843 207.874,205.9843"/>
    <polyline points="173.8435,209.1535 174.4685,208.841 174.4685,208.841 175.406,207.9035 175.406,207.9035 175.406,214.466"/>
    <polyline points="180.0935,209.1535 180.7185,208.841 180.7185,208.841 181.656,207.9035 181.656,207.9035 181.656,214.466"/>
    <polyline points="195.5389,220.5069 194.9139,219.2569 194.9139,219.2569 193.6639,218.0069 193.6639,218.0069 192.4139,217.3819 192.4139,217.3819 189.9139,217.3819 189.9139,217.3819 188.6639,218.0069 188.6639,218.0069 187.4139,219.2569 187.4139,219.2569 186.7889,220.5069 186.7889,220.5069 186.1639,222.3819 186.1639,222.3819 186.1639,225.5069 186.1639,225.5069 186.7889,227.3819 186.7889,227.3819 187.4139,228.6319 187.4139,228.6319 188.6639,229.8819 188.6639,229.8819 189.9139,230.5069 189.9139,230.5069 192.4139,230.5069 192.4139,230.5069 193.6639,229.8819 193.6639,229.8819 194.9139,228.6319 194.9139,228.6319 195.5389,227.3819 195.5389,227.3819 195.5389,225.5069 195.5389,225.5069 192.4139,225.5069"/>
    <polygon points="338.2825,217.3819 338.2825,230.5069 338.2825,230.5069 343.9075,230.5069 343.9075,230.5069 345.7825,229.8819 345.7825,229.8819 346.4075,229.2569 346.4075,229.2569 347.0325,228.0069 347.0325,228.0069 347.0325,226.1319 347.0325,226.1319 346.4075,224.8819 346.4075,224.8819 345.7825,224.2569 345.7825,224.2569 343.9075,223.6319 343.9075,223.6319 345.7825,223.0069 345.7825,223.0069 346.4075,222.3819 346.4075,222.3819 347.0325,221.1319 347.0325,221.1319 347.0325,219.8819 347.0325,219.8819 346.4075,218.6319 346.4075,218.6319 345.7825,218.0069 345.7825,218.0069 343.9075,217.3819 343.9075,217.3819"/>
    <line x1="338.2825" x2="343.9075" y1="223.6319" y2="223.6319"/>
    <polyline points="459.1683,230.5069 454.1683,217.3819 454.1683,217.3819 449.1683,230.5069"/>
    <line x1="451.0433" x2="457.2933" y1="226.1319" y2="226.1319"/>
    <polyline points="570.6791,223.6319 572.5541,223.0069 572.5541,223.0069 573.1791,222.3819 573.1791,222.3819 573.8041,221.1319 573.8041,221.1319 573.8041,219.8819 573.8041,219.8819 573.1791,218.6319 573.1791,218.6319 572.5541,218.0069 572.5541,218.0069 570.6791,217.3819 570.6791,217.3819 565.0541,217.3819 565.0541,217.3819 565.0541,230.5069 565.0541,230.5069 570.6791,230.5069 570.6791,230.5069 572.5541,229.8819 572.5541,229.8819 573.1791,229.2569 573.1791,229.2569 573.8041,228.0069 573.8041,228.0069 573.8041,226.1319 573.8041,226.1319 573.1791,224.8819 573.1791,224.8819 572.5541,224.2569 572.5541,224.2569 570.6791,223.6319 570.6791,223.6319 565.0541,223.6319"/>
    <polyline points="661.4173,205.9843 661.4173,243.7795 661.4173,243.7795 699.2126,243.7795 699.2126,243.7795 699.2126,205.9843"/>
    <polyline points="687.19,217.3819 687.19,230.5069 687.19,230.5069 678.44,217.3819 678.44,217.3819 678.44,230.5069"/>
    <polyline points="737.0079,205.9843 737.0079,243.7795 737.0079,243.7795 774.8031,243.7795 774.8031,243.7795 774.8031,205.9843"/>
    <polyline points="762.7805,217.3819 762.7805,230.5069 762.7805,230.5069 754.0305,217.3819 754.0305,217.3819 754.0305,230.5069"/>
    <polyline points="18.8976,243.7795 18.8976,281.5748 18.8976,281.5748 18.8976,319.3701 18.8976,319.3701 56.6929,319.3701 56.6929,319.3701 56.6929,281.5748 56.6929,281.5748 56.6929,243.7795"/>
    <line x1="18.8976" x2="56.6929" y1="281.5748" y2="281.5748"/>
    <polygon points="35.9203,255.1772 35.9203,268.3022 35.9203,268.3022 40.2953,268.3022 40.2953,268.3022 42.1703,267.6772 42.1703,267.6772 43.4203,266.4272 43.4203,266.4272 44.0453,265.1772 44.0453,265.1772 44.6703,263.3022 44.6703,263.3022 44.6703,260.1772 44.6703,260.1772 44.0453,258.3022 44.0453,258.3022 43.4203,257.0522 43.4203,257.0522 42.1703,255.8022 42.1703,255.8022 40.2953,255.1772 40.2953,255.1772"/>
    <polyline points="94.4882,243.7795 94.4882,281.5748 94.4882,281.5748 132.2835,281.5748 132.2835,281.5748 132.2835,243.7795"/>
    <polyline points="119.6358,257.0522 118.3858,255.8022 118.3858,255.8022 116.5108,255.1772 116.5108,255.1772 114.0108,255.1772 114.0108,255.1772 112.1358,255.8022 112.1358,255.8022 110.8858,257.0522 110.8858,257.0522 110.8858,258.3022 110.8858,258.3022 111.5108,259.5522 111.5108,259.5522 112.1358,260.1772 112.1358,260.1772 113.3858,260.8022 113.3858,260.8022 117.1358,262.0522 117.1358,262.0522 118.3858,262.6772 118.3858,262.6772 119.0108,263.3022 119.0108,263.3022 119.6358,264.5522 119.6358,264.5522 119.6358,266.4272 119.6358,266.4272 118.3858,267.6772 118.3858,267.6772 116.5108,268.3022 116.5108,268.3022 114.0108,268.3022 114.0108,268.3022 112.1358,267.6772 112.1358,267.6772 110.8858,266.4272"/>
    <polyline points="170.0787,243.7795 170.0787,281.5748 170.0787,281.5748 132.2835,281.5748 132.2835,281.5748 132.2835,319.3701 132.2835,319.3701 170.0787,319.3701 170.0787,319.3701 170.0787,357.1654 170.0787,357.1654 207.874,357.1654 207.874,357.1654 207.874,319.3701 207.874,319.3701 245.6693,319.3701 245.6693,319.3701 245.6693,281.5748 245.6693,281.5748 207.874,281.5748 207.874,281.5748 207.874,243.7795"/>
    <polygon points="170.0787,281.5748 207.874,281.5748 207.874,281.5748 207.874,319.3701 207.874,319.3701 170.0787,319.3701 170.0787,319.3701"/>
    <polyline points="187.1014,261.4272 192.7264,261.4272 192.7264,261.4272 194.6014,260.8022 194.6014,260.8022 195.2264,260.1772 195.2264,260.1772 195.8514,258.9272 195.8514,258.9272 195.8514,257.6772 195.8514,257.6772 195.2264,256.4272 195.2264,256.4272 194.6014,255.8022 194.6014,255.8022 192.7264,255.1772 192.7264,255.1772 187.1014,255.1772 187.1014,255.1772 187.1014,268.3022"/>
    <line x1="191.4764" x2="195.8514" y1="261.4272" y2="268.3022"/>
    <polyline points="321.2598,243.7795 321.2598,281.5748 321.2598,281.5748 283.4646,281.5748 283.4646,281.5748 245.6693,281.5748"/>
    <polyline points="396.8504,281.5748 396.8504,319.3701 396.8504,319.3701 434.6457,319.3701 434.6457,319.3701 434.6457,281.5748 434.6457,281.5748 396.8504,281.5748 396.8504,281.5748 359.0551,281.5748 359.0551,281.5748 359.0551,319.3701 359.0551,319.3701 321.2598,319.3701 321.2598,319.3701 321.2598,281.5748 321.2598,281.5748 359.0551,281.5748 359.0551,281.5748 359.0551,243.7795"/>
    <polygon points="340.7825,255.1772 339.5325,255.8022 339.5325,255.8022 338.2825,257.0522 338.2825,257.0522 337.6575,258.3022 337.6575,258.3022 337.0325,260.1772 337.0325,260.1772 337.0325,263.3022 337.0325,263.3022 337.6575,265.1772 337.6575,265.1772 338.2825,266.4272 338.2825,266.4272 339.5325,267.6772 339.5325,267.6772 340.7825,268.3022 340.7825,268.3022 343.2825,268.3022 343.2825,268.3022 344.5325,267.6772 344.5325,267.6772 345.7825,266.4272 345.7825,266.4272 346.4075,265.1772 346.4075,265.1772 347.0325,263.3022 347.0325,263.3022 347.0325,260.1772 347.0325,260.1772 346.4075,258.3022 346.4075,258.3022 345.7825,257.0522 345.7825,257.0522 344.5325,255.8022 344.5325,255.8022 343.2825,255.1772 343.2825,255.1772"/>
    <polyline points="434.6457,243.7795 434.6457,281.5748 434.6457,281.5748 472.4409,281.5748 472.4409,281.5748 472.4409,319.3701 472.4409,319.3701 510.2362,319.3701 510.2362,319.3701 548.0315,319.3701 548.0315,319.3701 585.8268,319.3701 585.8268,319.3701 585.8268,281.5748 585.8268,281.5748 585.8268,243.7795"/>
    <polyline points="510.2362,319.3701 510.2362,281.5748 510.2362,281.5748 472.4409,281.5748 472.4409,281.5748 472.4409,243.7795"/>
    <polyline points="459.7933,257.0522 458.5433,255.8022 458.5433,255.8022 456.6683,255.1772 456.6683,255.1772 454.1683,255.1772 454.1683,255.1772 452.2933,255.8022 452.2933,255.8022 451.0433,257.0522 451.0433,257.0522 451.0433,258.3022 451.0433,258.3022 451.6683,259.5522 451.6683,259.5522 452.2933,260.1772 452.2933,260.1772 453.5433,260.8022 453.5433,260.8022 457.2933,262.0522 457.2933,262.0522 458.5433,262.6772 458.5433,262.6772 459.1683,263.3022 459.1683,263.3022 459.7933,264.5522 459.7933,264.5522 459.7933,266.4272 459.7933,266.4272 458.5433,267.6772 458.5433,267.6772 456.6683,268.3022 456.6683,268.3022 454.1683,268.3022 454.1683,268.3022 452.2933,267.6772 452.2933,267.6772 451.0433,266.4272"/>
    <polyline points="548.0315,243.7795 548.0315,281.5748 548.0315,281.5748 585.8268,281.5748 585.8268,281.5748 623.622,281.5748 623.622,281.5748 623.622,319.3701 623.622,319.3701 661.4173,319.3701 661.4173,319.3701 661.4173,281.5748 661.4173,281.5748 699.2126,281.5748 699.2126,281.5748 699.2126,243.7795"/>
    <polyline points="565.0541,255.1772 565.0541,264.5522 565.0541,264.5522 565.6791,266.4272 565.6791,266.4272 566.9291,267.6772 566.9291,267.6772 568.8041,268.3022 568.8041,268.3022 570.0541,268.3022 570.0541,268.3022 571.9291,267.6772 571.9291,267.6772 573.1791,266.4272 573.1791,266.4272 573.8041,264.5522 573.8041,264.5522 573.8041,255.1772"/>
    <polyline points="661.4173,243.7795 661.4173,281.5748 661.4173,281.5748 623.622,281.5748"/>
    <line x1="680.94" x2="680.94" y1="255.1772" y2="268.3022"/>
    <line x1="676.565" x2="685.315" y1="255.1772" y2="255.1772"/>
    <polyline points="737.0079,243.7795 737.0079,281.5748 737.0079,281.5748 774.8031,281.5748 774.8031,281.5748 774.8031,243.7795"/>
    <polyline points="762.468,255.1772 754.343,255.1772 754.343,255.1772 754.343,268.3022 754.343,268.3022 762.468,268.3022"/>
    <line x1="754.343" x2="759.343" y1="261.4272" y2="261.4272"/>
    <polyline points="44.3578,292.9724 36.2328,292.9724 36.2328,292.9724 36.2328,306.0974 36.2328,306.0974 44.3578,306.0974"/>
    <line x1="36.2328" x2="41.2328" y1="299.2224" y2="299.2224"/>
    <polyline points="136.0482,284.7441 136.6732,284.4316 136.6732,284.4316 137.6107,283.4941 137.6107,283.4941 137.6107,290.0566"/>
    <polyline points="141.6732,285.0566 141.6732,284.7441 141.6732,284.7441 141.9857,284.1191 141.9857,284.1191 142.2982,283.8066 142.2982,283.8066 142.9232,283.4941 142.9232,283.4941 144.1732,283.4941 144.1732,283.4941 144.7982,283.8066 144.7982,283.8066 145.1107,284.1191 145.1107,284.1191 145.4232,284.7441 145.4232,284.7441 145.4232,285.3691 145.4232,285.3691 145.1107,285.9941 145.1107,285.9941 144.4857,286.9316 144.4857,286.9316 141.3607,290.0566 141.3607,290.0566 145.7357,290.0566"/>
    <line x1="149.3061" x2="149.3061" y1="292.9724" y2="306.0974"/>
    <line x1="158.0561" x2="158.0561" y1="292.9724" y2="306.0974"/>
    <line x1="149.3061" x2="158.0561" y1="299.2224" y2="299.2224"/>
    <polyline points="194.6014,306.0974 189.6014,292.9724 189.6014,292.9724 184.6014,306.0974"/>
    <line x1="186.4764" x2="192.7264" y1="301.7224" y2="301.7224"/>
    <polyline points="233.6467,292.9724 233.6467,306.0974 233.6467,306.0974 224.8967,292.9724 224.8967,292.9724 224.8967,306.0974"/>
    <polyline points="245.6693,319.3701 283.4646,319.3701 283.4646,319.3701 321.2598,319.3701 321.2598,319.3701 321.2598,357.1654 321.2598,357.1654 359.0551,357.1654 359.0551,357.1654 359.0551,319.3701 359.0551,319.3701 396.8504,319.3701"/>
    <line x1="283.4646" x2="283.4646" y1="319.3701" y2="281.5748"/>
    <polygon points="262.6919,292.9724 262.6919,306.0974 262.6919,306.0974 267.0669,306.0974 267.0669,306.0974 268.9419,305.4724 268.9419,305.4724 270.1919,304.2224 270.1919,304.2224 270.8169,302.9724 270.8169,302.9724 271.4419,301.0974 271.4419,301.0974 271.4419,297.9724 271.4419,297.9724 270.8169,296.0974 270.8169,296.0974 270.1919,294.8474 270.1919,294.8474 268.9419,293.5974 268.9419,293.5974 267.0669,292.9724 267.0669,292.9724"/>
    <polygon points="300.4872,292.9724 300.4872,306.0974 300.4872,306.0974 304.8622,306.0974 304.8622,306.0974 306.7372,305.4724 306.7372,305.4724 307.9872,304.2224 307.9872,304.2224 308.6122,302.9724 308.6122,302.9724 309.2372,301.0974 309.2372,301.0974 309.2372,297.9724 309.2372,297.9724 308.6122,296.0974 308.6122,296.0974 307.9872,294.8474 307.9872,294.8474 306.7372,293.5974 306.7372,293.5974 304.8622,292.9724 304.8622,292.9724"/>
    <polygon points="340.7825,292.9724 339.5325,293.5974 339.5325,293.5974 338.2825,294.8474 338.2825,294.8474 337.6575,296.0974 337.6575,296.0974 337.0325,297.9724 337.0325,297.9724 337.0325,301.0974 337.0325,301.0974 337.6575,302.9724 337.6575,302.9724 338.2825,304.2224 338.2825,304.2224 339.5325,305.4724 339.5325,305.4724 340.7825,306.0974 340.7825,306.0974 343.2825,306.0974 343.2825,306.0974 344.5325,305.4724 344.5325,305.4724 345.7825,304.2224 345.7825,304.2224 346.4075,302.9724 346.4075,302.9724 347.0325,301.0974 347.0325,301.0974 347.0325,297.9724 347.0325,297.9724 346.4075,296.0974 346.4075,296.0974 345.7825,294.8474 345.7825,294.8474 344.5325,293.5974 344.5325,293.5974 343.2825,292.9724 343.2825,292.9724"/>
    <polyline points="384.5153,292.9724 376.3903,292.9724 376.3903,292.9724 376.3903,306.0974 376.3903,306.0974 384.5153,306.0974"/>
    <line x1="376.3903" x2="381.3903" y1="299.2224" y2="299.2224"/>
    <line x1="413.873" x2="413.873" y1="292.9724" y2="306.0974"/>
    <line x1="422.623" x2="413.873" y1="292.9724" y2="301.7224"/>
    <line x1="416.998" x2="422.623" y1="298.5974" y2="306.0974"/>
    <polyline points="476.2057,284.7441 476.8307,284.4316 476.8307,284.4316 477.7682,283.4941 477.7682,283.4941 477.7682,290.0566"/>
    <polyline points="482.1432,283.4941 485.5807,283.4941 485.5807,283.4941 483.7057,285.9941 483.7057,285.9941 484.6432,285.9941 484.6432,285.9941 485.2682,286.3066 485.2682,286.3066 485.5807,286.6191 485.5807,286.6191 485.8932,287.5566 485.8932,287.5566 485.8932,288.1816 485.8932,288.1816 485.5807,289.1191 485.5807,289.1191 484.9557,289.7441 484.9557,289.7441 484.0182,290.0566 484.0182,290.0566 483.0807,290.0566 483.0807,290.0566 482.1432,289.7441 482.1432,289.7441 481.8307,289.4316 481.8307,289.4316 481.5182,288.8066"/>
    <polyline points="497.9011,292.9724 489.7761,292.9724 489.7761,292.9724 489.7761,306.0974"/>
    <line x1="489.7761" x2="494.7761" y1="299.2224" y2="299.2224"/>
    <polyline points="548.0315,319.3701 548.0315,281.5748 548.0315,281.5748 510.2362,281.5748"/>
    <polyline points="527.2589,299.2224 532.8839,299.2224 532.8839,299.2224 534.7589,298.5974 534.7589,298.5974 535.3839,297.9724 535.3839,297.9724 536.0089,296.7224 536.0089,296.7224 536.0089,295.4724 536.0089,295.4724 535.3839,294.2224 535.3839,294.2224 534.7589,293.5974 534.7589,293.5974 532.8839,292.9724 532.8839,292.9724 527.2589,292.9724 527.2589,292.9724 527.2589,306.0974"/>
    <line x1="531.6339" x2="536.0089" y1="299.2224" y2="306.0974"/>
    <line x1="569.4291" x2="569.4291" y1="292.9724" y2="306.0974"/>
    <line x1="585.8268" x2="623.622" y1="319.3701" y2="319.3701"/>
    <polyline points="611.2869,292.9724 603.1619,292.9724 603.1619,292.9724 603.1619,306.0974 603.1619,306.0974 611.2869,306.0974"/>
    <line x1="603.1619" x2="608.1619" y1="299.2224" y2="299.2224"/>
    <line x1="643.1447" x2="643.1447" y1="292.9724" y2="306.0974"/>
    <line x1="638.7697" x2="647.5197" y1="292.9724" y2="292.9724"/>
    <polyline points="737.0079,319.3701 699.2126,319.3701 699.2126,319.3701 699.2126,357.1654 699.2126,357.1654 661.4173,357.1654 661.4173,357.1654 661.4173,319.3701 661.4173,319.3701 699.2126,319.3701 699.2126,319.3701 699.2126,281.5748 699.2126,281.5748 737.0079,281.5748 737.0079,281.5748 737.0079,319.3701 737.0079,319.3701 774.8031,319.3701 774.8031,319.3701 774.8031,281.5748"/>
    <polyline points="684.69,292.9724 684.69,302.9724 684.69,302.9724 684.065,304.8474 684.065,304.8474 683.44,305.4724 683.44,305.4724 682.19,306.0974 682.19,306.0974 680.94,306.0974 680.94,306.0974 679.69,305.4724 679.69,305.4724 679.065,304.8474 679.065,304.8474 678.44,302.9724 678.44,302.9724 678.44,301.7224"/>
    <polyline points="724.6727,292.9724 716.5477,292.9724 716.5477,292.9724 716.5477,306.0974 716.5477,306.0974 724.6727,306.0974"/>
    <line x1="716.5477" x2="721.5477" y1="299.2224" y2="299.2224"/>
    <polyline points="762.1555,294.8474 760.9055,293.5974 760.9055,293.5974 759.0305,292.9724 759.0305,292.9724 756.5305,292.9724 756.5305,292.9724 754.6555,293.5974 754.6555,293.5974 753.4055,294.8474 753.4055,294.8474 753.4055,296.0974 753.4055,296.0974 754.0305,297.3474 754.0305,297.3474 754.6555,297.9724 754.6555,297.9724 755.9055,298.5974 755.9055,298.5974 759.6555,299.8474 759.6555,299.8474 760.9055,300.4724 760.9055,300.4724 761.5305,301.0974 761.5305,301.0974 762.1555,302.3474 762.1555,302.3474 762.1555,304.2224 762.1555,304.2224 760.9055,305.4724 760.9055,305.4724 759.0305,306.0974 759.0305,306.0974 756.5305,306.0974 756.5305,306.0974 754.6555,305.4724 754.6555,305.4724 753.4055,304.2224"/>
    <polyline points="18.8976,319.3701 18.8976,357.1654 18.8976,357.1654 56.6929,357.1654 56.6929,357.1654 56.6929,319.3701"/>
    <polyline points="35.9203,337.0177 41.5453,337.0177 41.5453,337.0177 43.4203,336.3927 43.4203,336.3927 44.0453,335.7677 44.0453,335.7677 44.6703,334.5177 44.6703,334.5177 44.6703,333.2677 44.6703,333.2677 44.0453,332.0177 44.0453,332.0177 43.4203,331.3927 43.4203,331.3927 41.5453,330.7677 41.5453,330.7677 35.9203,330.7677 35.9203,330.7677 35.9203,343.8927"/>
    <line x1="40.2953" x2="44.6703" y1="337.0177" y2="343.8927"/>
    <polyline points="195.2264,332.6427 193.9764,331.3927 193.9764,331.3927 192.1014,330.7677 192.1014,330.7677 189.6014,330.7677 189.6014,330.7677 187.7264,331.3927 187.7264,331.3927 186.4764,332.6427 186.4764,332.6427 186.4764,333.8927 186.4764,333.8927 187.1014,335.1427 187.1014,335.1427 187.7264,335.7677 187.7264,335.7677 188.9764,336.3927 188.9764,336.3927 192.7264,337.6427 192.7264,337.6427 193.9764,338.2677 193.9764,338.2677 194.6014,338.8927 194.6014,338.8927 195.2264,340.1427 195.2264,340.1427 195.2264,342.0177 195.2264,342.0177 193.9764,343.2677 193.9764,343.2677 192.1014,343.8927 192.1014,343.8927 189.6014,343.8927 189.6014,343.8927 187.7264,343.2677 187.7264,343.2677 186.4764,342.0177"/>
    <polyline points="346.72,333.8927 346.095,332.6427 346.095,332.6427 344.845,331.3927 344.845,331.3927 343.595,330.7677 343.595,330.7677 341.095,330.7677 341.095,330.7677 339.845,331.3927 339.845,331.3927 338.595,332.6427 338.595,332.6427 337.97,333.8927 337.97,333.8927 337.345,335.7677 337.345,335.7677 337.345,338.8927 337.345,338.8927 337.97,340.7677 337.97,340.7677 338.595,342.0177 338.595,342.0177 339.845,343.2677 339.845,343.2677 341.095,343.8927 341.095,343.8927 343.595,343.8927 343.595,343.8927 344.845,343.2677 344.845,343.2677 346.095,342.0177 346.095,342.0177 346.72,340.7677 346.72,340.7677 346.72,338.8927 346.72,338.8927 343.595,338.8927"/>
    <polyline points="686.8775,330.7677 678.7525,330.7677 678.7525,330.7677 678.7525,343.8927 678.7525,343.8927 686.8775,343.8927"/>
    <line x1="678.7525" x2="683.7525" y1="337.0177" y2="337.0177"/>
  </g>
</svg>
