<?xml version="1.0" encoding="utf-8" ?>
<svg xmlns="http://www.w3.org/2000/svg" xmlns:cc="http://creativecommons.org/ns" xmlns:dc="http://purl.org/dc/elements/1.1/" xmlns:ev="http://www.w3.org/2001/xml-events" xmlns:inkscape="http://www.inkscape.org/namespaces/inkscape" xmlns:rdf="http://www.w3.org/1999/02/22-rdf-syntax-ns" xmlns:sodipodi="http://sodipodi.sourceforge.net/DTD/sodipodi-0.dtd" xmlns:xlink="http://www.w3.org/1999/xlink" baseProfile="tiny" height="9.9cm" version="1.2" viewBox="0 0 793.7007874015749 374.1732283464567" width="21.0cm">
  <metadata>
    <rdf:RDF>
      <cc:Work>
        <dc:format>image/svg+xml</dc:format>
        <dc:source>vpype eval 'cell=10;width=210;height=99' eval 'nCols=20;nRows=9' eval 'cells=[1,3,4,5,6,7,9,10,11,12,13,14,15,16,20,21,22,24,30,36,41,44,46,47,48,49,50,51,52,53,54,56,57,58,59,61,64,70,73,76,81,84,88,89,90,91,94,95,96,97,100,101,102,103,104,105,106,107,110,114,121,124,130,134,143,144,145,146,147,148,149,150,151,154,155,156,164,170]' eval 'chars=[&quot;P&quot;,&quot;J&quot;,&quot;U&quot;,&quot;T&quot;,&quot;T&quot;,&quot;A&quot;,&quot;S&quot;,&quot;K&quot;,&quot;E&quot;,&quot;L&quot;,&quot;L&quot;,&quot;E&quot;,&quot;K&quot;,&quot;E&quot;,&quot;W&quot;,&quot;I&quot;,&quot;M&quot;,&quot;I&quot;,&quot;L&quot;,&quot;L&quot;,&quot;N&quot;,&quot;T&quot;,&quot;M&quot;,&quot;A&quot;,&quot;N&quot;,&quot;D&quot;,&quot;A&quot;,&quot;R&quot;,&quot;I&quot;,&quot;J&quot;,&quot;N&quot;,&quot;L&quot;,&quot;I&quot;,&quot;F&quot;,&quot;T&quot;,&quot;K&quot;,&quot;L&quot;,&quot;V&quot;,&quot;A&quot;,&quot;I&quot;,&quot;E&quot;,&quot;I&quot;,&quot;L&quot;,&quot;I&quot;,&quot;E&quot;,&quot;N&quot;,&quot;S&quot;,&quot;T&quot;,&quot;E&quot;,&quot;R&quot;,&quot;B&quot;,&quot;R&quot;,&quot;O&quot;,&quot;E&quot;,&quot;K&quot;,&quot;Z&quot;,&quot;A&quot;,&quot;K&quot;,&quot;R&quot;,&quot;I&quot;,&quot;S&quot;,&quot;K&quot;,&quot;T&quot;,&quot;E&quot;,&quot;R&quot;,&quot;E&quot;,&quot;K&quot;,&quot;K&quot;,&quot;E&quot;,&quot;R&quot;,&quot;T&quot;,&quot;J&quot;,&quot;E&quot;,&quot;M&quot;,&quot;O&quot;,&quot;P&quot;,&quot;N&quot;,&quot;E&quot;]' eval 'numbers=[1,3,4,9,10,16,20,46,53,56,88,94,100,143,154]' eval counter=1 eval charIndex=0 begin grid -o '%cell*mm%' '%cell*mm%' %nCols% %nRows% eval '%isCell=_i in cells%' eval '%number=_i in numbers%' eval '%size=10 if isCell else 0%' rect 0 0 '%size*mm%' '%size*mm%' text -s 10 -p 0.5mm 1.5mm '%counter if number else '&quot;'&quot;''&quot;'&quot;'%' text -s 20 -p 5mm 5mm -a center '%chars[charIndex] if isCell else '&quot;'&quot;''&quot;'&quot;'%' eval '%if number: counter+=1 %' eval '%if isCell: charIndex+=1 %' end splitall deduplicate linemerge --tolerance 0.1mm write -m none --page-size '%width*mm%x%height*mm%' --center ./svgs/solution/352fe2.svg
</dc:source>
        <dc:date>2023-12-23T22:30:04.568185</dc:date>
      </cc:Work>
    </rdf:RDF>
  </metadata>
  <defs/>
  <g fill="none" id="layer1" inkscape:groupmode="layer" inkscape:label="1" stroke="#000000" style="display:inline">
    <polygon points="56.6929,17.0079 56.6929,54.8031 56.6929,54.8031 94.4882,54.8031 94.4882,54.8031 94.4882,17.0079 94.4882,17.0079"/>
    <polyline points="60.4577,20.1772 61.0827,19.8647 61.0827,19.8647 62.0202,18.9272 62.0202,18.9272 62.0202,25.4897"/>
    <polyline points="73.7156,35.2805 79.3406,35.2805 79.3406,35.2805 81.2156,34.6555 81.2156,34.6555 81.8406,34.0305 81.8406,34.0305 82.4656,32.7805 82.4656,32.7805 82.4656,30.9055 82.4656,30.9055 81.8406,29.6555 81.8406,29.6555 81.2156,29.0305 81.2156,29.0305 79.3406,28.4055 79.3406,28.4055 73.7156,28.4055 73.7156,28.4055 73.7156,41.5305"/>
    <polyline points="170.0787,17.0079 207.874,17.0079 207.874,17.0079 245.6693,17.0079 245.6693,17.0079 245.6693,54.8031 245.6693,54.8031 207.874,54.8031 207.874,54.8031 170.0787,54.8031 170.0787,54.8031 170.0787,17.0079 170.0787,17.0079 132.2835,17.0079 132.2835,17.0079 132.2835,54.8031 132.2835,54.8031 170.0787,54.8031 170.0787,54.8031 170.0787,92.5984 170.0787,92.5984 170.0787,130.3937 170.0787,130.3937 170.0787,168.189 170.0787,168.189 170.0787,205.9843 170.0787,205.9843 132.2835,205.9843 132.2835,205.9843 94.4882,205.9843 94.4882,205.9843 94.4882,168.189 94.4882,168.189 94.4882,130.3937 94.4882,130.3937 94.4882,92.5984 94.4882,92.5984 94.4882,54.8031 94.4882,54.8031 132.2835,54.8031 132.2835,54.8031 132.2835,92.5984 132.2835,92.5984 94.4882,92.5984 94.4882,92.5984 56.6929,92.5984 56.6929,92.5984 56.6929,130.3937 56.6929,130.3937 56.6929,168.189 56.6929,168.189 94.4882,168.189"/>
    <polyline points="135.4232,20.4897 135.4232,20.1772 135.4232,20.1772 135.7357,19.5522 135.7357,19.5522 136.0482,19.2397 136.0482,19.2397 136.6732,18.9272 136.6732,18.9272 137.9232,18.9272 137.9232,18.9272 138.5482,19.2397 138.5482,19.2397 138.8607,19.5522 138.8607,19.5522 139.1732,20.1772 139.1732,20.1772 139.1732,20.8022 139.1732,20.8022 138.8607,21.4272 138.8607,21.4272 138.2357,22.3647 138.2357,22.3647 135.1107,25.4897 135.1107,25.4897 139.4857,25.4897"/>
    <polyline points="155.5561,28.4055 155.5561,38.4055 155.5561,38.4055 154.9311,40.2805 154.9311,40.2805 154.3061,40.9055 154.3061,40.9055 153.0561,41.5305 153.0561,41.5305 151.8061,41.5305 151.8061,41.5305 150.5561,40.9055 150.5561,40.9055 149.9311,40.2805 149.9311,40.2805 149.3061,38.4055 149.3061,38.4055 149.3061,37.1555"/>
    <polyline points="170.0787,92.5984 207.874,92.5984 207.874,92.5984 207.874,54.8031 207.874,54.8031 207.874,17.0079"/>
    <polyline points="173.531,18.9272 176.9685,18.9272 176.9685,18.9272 175.0935,21.4272 175.0935,21.4272 176.031,21.4272 176.031,21.4272 176.656,21.7397 176.656,21.7397 176.9685,22.0522 176.9685,22.0522 177.281,22.9897 177.281,22.9897 177.281,23.6147 177.281,23.6147 176.9685,24.5522 176.9685,24.5522 176.3435,25.1772 176.3435,25.1772 175.406,25.4897 175.406,25.4897 174.4685,25.4897 174.4685,25.4897 173.531,25.1772 173.531,25.1772 173.2185,24.8647 173.2185,24.8647 172.906,24.2397"/>
    <polyline points="187.1014,28.4055 187.1014,37.7805 187.1014,37.7805 187.7264,39.6555 187.7264,39.6555 188.9764,40.9055 188.9764,40.9055 190.8514,41.5305 190.8514,41.5305 192.1014,41.5305 192.1014,41.5305 193.9764,40.9055 193.9764,40.9055 195.2264,39.6555 195.2264,39.6555 195.8514,37.7805 195.8514,37.7805 195.8514,28.4055"/>
    <line x1="227.3967" x2="227.3967" y1="28.4055" y2="41.5305"/>
    <line x1="223.0217" x2="231.7717" y1="28.4055" y2="28.4055"/>
    <polyline points="245.6693,54.8031 283.4646,54.8031 283.4646,54.8031 321.2598,54.8031 321.2598,54.8031 321.2598,17.0079 321.2598,17.0079 283.4646,17.0079 283.4646,17.0079 245.6693,17.0079"/>
    <line x1="283.4646" x2="283.4646" y1="54.8031" y2="17.0079"/>
    <line x1="265.1919" x2="265.1919" y1="28.4055" y2="41.5305"/>
    <line x1="260.8169" x2="269.5669" y1="28.4055" y2="28.4055"/>
    <polyline points="307.9872,41.5305 302.9872,28.4055 302.9872,28.4055 297.9872,41.5305"/>
    <line x1="299.8622" x2="306.1122" y1="37.1555" y2="37.1555"/>
    <polygon points="359.0551,17.0079 359.0551,54.8031 359.0551,54.8031 396.8504,54.8031 396.8504,54.8031 434.6457,54.8031 434.6457,54.8031 434.6457,17.0079 434.6457,17.0079 396.8504,17.0079 396.8504,17.0079"/>
    <polyline points="321.2598,92.5984 321.2598,130.3937 321.2598,130.3937 283.4646,130.3937 283.4646,130.3937 245.6693,130.3937 245.6693,130.3937 245.6693,92.5984 245.6693,92.5984 283.4646,92.5984 283.4646,92.5984 321.2598,92.5984 321.2598,92.5984 359.0551,92.5984 359.0551,92.5984 396.8504,92.5984 396.8504,92.5984 396.8504,54.8031 396.8504,54.8031 396.8504,17.0079"/>
    <polyline points="365.0074,25.4897 365.0074,18.9272 365.0074,18.9272 361.8824,23.3022 361.8824,23.3022 366.5699,23.3022"/>
    <polyline points="384.2028,30.2805 382.9528,29.0305 382.9528,29.0305 381.0778,28.4055 381.0778,28.4055 378.5778,28.4055 378.5778,28.4055 376.7028,29.0305 376.7028,29.0305 375.4528,30.2805 375.4528,30.2805 375.4528,31.5305 375.4528,31.5305 376.0778,32.7805 376.0778,32.7805 376.7028,33.4055 376.7028,33.4055 377.9528,34.0305 377.9528,34.0305 381.7028,35.2805 381.7028,35.2805 382.9528,35.9055 382.9528,35.9055 383.5778,36.5305 383.5778,36.5305 384.2028,37.7805 384.2028,37.7805 384.2028,39.6555 384.2028,39.6555 382.9528,40.9055 382.9528,40.9055 381.0778,41.5305 381.0778,41.5305 378.5778,41.5305 378.5778,41.5305 376.7028,40.9055 376.7028,40.9055 375.4528,39.6555"/>
    <polyline points="403.4277,18.9272 400.3027,18.9272 400.3027,18.9272 399.9902,21.7397 399.9902,21.7397 400.3027,21.4272 400.3027,21.4272 401.2402,21.1147 401.2402,21.1147 402.1777,21.1147 402.1777,21.1147 403.1152,21.4272 403.1152,21.4272 403.7402,22.0522 403.7402,22.0522 404.0527,22.9897 404.0527,22.9897 404.0527,23.6147 404.0527,23.6147 403.7402,24.5522 403.7402,24.5522 403.1152,25.1772 403.1152,25.1772 402.1777,25.4897 402.1777,25.4897 401.2402,25.4897 401.2402,25.4897 400.3027,25.1772 400.3027,25.1772 399.9902,24.8647 399.9902,24.8647 399.6777,24.2397"/>
    <line x1="413.873" x2="413.873" y1="28.4055" y2="41.5305"/>
    <line x1="422.623" x2="413.873" y1="28.4055" y2="37.1555"/>
    <line x1="416.998" x2="422.623" y1="34.0305" y2="41.5305"/>
    <polyline points="207.874,92.5984 207.874,130.3937 207.874,130.3937 207.874,168.189 207.874,168.189 207.874,205.9843 207.874,205.9843 245.6693,205.9843 245.6693,205.9843 283.4646,205.9843 283.4646,205.9843 321.2598,205.9843 321.2598,205.9843 321.2598,168.189 321.2598,168.189 359.0551,168.189 359.0551,168.189 359.0551,205.9843 359.0551,205.9843 396.8504,205.9843 396.8504,205.9843 434.6457,205.9843 434.6457,205.9843 472.4409,205.9843 472.4409,205.9843 472.4409,168.189 472.4409,168.189 434.6457,168.189 434.6457,168.189 396.8504,168.189 396.8504,168.189 396.8504,205.9843 396.8504,205.9843 396.8504,243.7795 396.8504,243.7795 434.6457,243.7795 434.6457,243.7795 434.6457,205.9843 434.6457,205.9843 434.6457,168.189 434.6457,168.189 434.6457,130.3937 434.6457,130.3937 434.6457,92.5984 434.6457,92.5984 434.6457,54.8031 434.6457,54.8031 472.4409,54.8031 472.4409,54.8031 510.2362,54.8031 510.2362,54.8031 548.0315,54.8031 548.0315,54.8031 548.0315,17.0079 548.0315,17.0079 510.2362,17.0079 510.2362,17.0079 472.4409,17.0079 472.4409,17.0079 434.6457,17.0079"/>
    <line x1="472.4409" x2="472.4409" y1="54.8031" y2="17.0079"/>
    <polyline points="460.1058,28.4055 451.9808,28.4055 451.9808,28.4055 451.9808,41.5305 451.9808,41.5305 460.1058,41.5305"/>
    <line x1="451.9808" x2="456.9808" y1="34.6555" y2="34.6555"/>
    <line x1="510.2362" x2="510.2362" y1="54.8031" y2="17.0079"/>
    <polyline points="490.0886,28.4055 490.0886,41.5305 490.0886,41.5305 497.5886,41.5305"/>
    <polyline points="527.8839,28.4055 527.8839,41.5305 527.8839,41.5305 535.3839,41.5305"/>
    <polyline points="548.0315,54.8031 585.8268,54.8031 585.8268,54.8031 585.8268,17.0079 585.8268,17.0079 548.0315,17.0079"/>
    <polyline points="573.4916,28.4055 565.3666,28.4055 565.3666,28.4055 565.3666,41.5305 565.3666,41.5305 573.4916,41.5305"/>
    <line x1="565.3666" x2="570.3666" y1="34.6555" y2="34.6555"/>
    <polyline points="585.8268,54.8031 623.622,54.8031 623.622,54.8031 623.622,17.0079 623.622,17.0079 585.8268,17.0079"/>
    <line x1="602.8494" x2="602.8494" y1="28.4055" y2="41.5305"/>
    <line x1="611.5994" x2="602.8494" y1="28.4055" y2="37.1555"/>
    <line x1="605.9744" x2="611.5994" y1="34.0305" y2="41.5305"/>
    <polyline points="661.4173,54.8031 661.4173,92.5984 661.4173,92.5984 699.2126,92.5984 699.2126,92.5984 699.2126,130.3937 699.2126,130.3937 661.4173,130.3937 661.4173,130.3937 661.4173,168.189 661.4173,168.189 623.622,168.189 623.622,168.189 623.622,130.3937 623.622,130.3937 623.622,92.5984 623.622,92.5984 623.622,54.8031 623.622,54.8031 661.4173,54.8031 661.4173,54.8031 661.4173,17.0079 661.4173,17.0079 623.622,17.0079"/>
    <polyline points="630.5118,19.8647 630.1993,19.2397 630.1993,19.2397 629.2618,18.9272 629.2618,18.9272 628.6368,18.9272 628.6368,18.9272 627.6993,19.2397 627.6993,19.2397 627.0743,20.1772 627.0743,20.1772 626.7618,21.7397 626.7618,21.7397 626.7618,23.3022 626.7618,23.3022 627.0743,24.5522 627.0743,24.5522 627.6993,25.1772 627.6993,25.1772 628.6368,25.4897 628.6368,25.4897 628.9493,25.4897 628.9493,25.4897 629.8868,25.1772 629.8868,25.1772 630.5118,24.5522 630.5118,24.5522 630.8243,23.6147 630.8243,23.6147 630.8243,23.3022 630.8243,23.3022 630.5118,22.3647 630.5118,22.3647 629.8868,21.7397 629.8868,21.7397 628.9493,21.4272 628.9493,21.4272 628.6368,21.4272 628.6368,21.4272 627.6993,21.7397 627.6993,21.7397 627.0743,22.3647 627.0743,22.3647 626.7618,23.3022"/>
    <polyline points="649.0822,28.4055 640.9572,28.4055 640.9572,28.4055 640.9572,41.5305 640.9572,41.5305 649.0822,41.5305"/>
    <line x1="640.9572" x2="645.9572" y1="34.6555" y2="34.6555"/>
    <polygon points="18.8976,54.8031 18.8976,92.5984 18.8976,92.5984 56.6929,92.5984 56.6929,92.5984 56.6929,54.8031 56.6929,54.8031"/>
    <polyline points="21.7249,56.7224 26.0999,56.7224 26.0999,56.7224 22.9749,63.2849"/>
    <polyline points="32.7953,66.2008 35.9203,79.3258 35.9203,79.3258 39.0453,66.2008 39.0453,66.2008 42.1703,79.3258 42.1703,79.3258 45.2953,66.2008"/>
    <line x1="78.0906" x2="78.0906" y1="66.2008" y2="79.3258"/>
    <polyline points="120.8858,79.3258 120.8858,66.2008 120.8858,66.2008 115.8858,79.3258 115.8858,79.3258 110.8858,66.2008 110.8858,66.2008 110.8858,79.3258"/>
    <line x1="191.4764" x2="191.4764" y1="66.2008" y2="79.3258"/>
    <polyline points="359.0551,168.189 396.8504,168.189 396.8504,168.189 396.8504,130.3937 396.8504,130.3937 396.8504,92.5984 396.8504,92.5984 434.6457,92.5984 434.6457,92.5984 472.4409,92.5984 472.4409,92.5984 510.2362,92.5984 510.2362,92.5984 510.2362,130.3937 510.2362,130.3937 510.2362,168.189 510.2362,168.189 548.0315,168.189 548.0315,168.189 548.0315,205.9843 548.0315,205.9843 548.0315,243.7795 548.0315,243.7795 585.8268,243.7795 585.8268,243.7795 585.8268,205.9843 585.8268,205.9843 585.8268,168.189 585.8268,168.189 548.0315,168.189 548.0315,168.189 548.0315,130.3937 548.0315,130.3937 548.0315,92.5984 548.0315,92.5984 510.2362,92.5984"/>
    <polyline points="414.498,66.2008 414.498,79.3258 414.498,79.3258 421.998,79.3258"/>
    <polyline points="623.622,92.5984 661.4173,92.5984 661.4173,92.5984 661.4173,130.3937 661.4173,130.3937 623.622,130.3937"/>
    <polyline points="641.2697,66.2008 641.2697,79.3258 641.2697,79.3258 648.7697,79.3258"/>
    <line x1="56.6929" x2="94.4882" y1="130.3937" y2="130.3937"/>
    <polyline points="82.4656,103.9961 82.4656,117.1211 82.4656,117.1211 73.7156,103.9961 73.7156,103.9961 73.7156,117.1211"/>
    <line x1="170.0787" x2="207.874" y1="130.3937" y2="130.3937"/>
    <line x1="189.6014" x2="189.6014" y1="103.9961" y2="117.1211"/>
    <line x1="185.2264" x2="193.9764" y1="103.9961" y2="103.9961"/>
    <line x1="283.4646" x2="283.4646" y1="130.3937" y2="92.5984"/>
    <polygon points="250.0591,94.5177 249.1216,94.8302 249.1216,94.8302 248.8091,95.4552 248.8091,95.4552 248.8091,96.0802 248.8091,96.0802 249.1216,96.7052 249.1216,96.7052 249.7466,97.0177 249.7466,97.0177 250.9966,97.3302 250.9966,97.3302 251.9341,97.6427 251.9341,97.6427 252.5591,98.2677 252.5591,98.2677 252.8716,98.8927 252.8716,98.8927 252.8716,99.8302 252.8716,99.8302 252.5591,100.4552 252.5591,100.4552 252.2466,100.7677 252.2466,100.7677 251.3091,101.0802 251.3091,101.0802 250.0591,101.0802 250.0591,101.0802 249.1216,100.7677 249.1216,100.7677 248.8091,100.4552 248.8091,100.4552 248.4966,99.8302 248.4966,99.8302 248.4966,98.8927 248.4966,98.8927 248.8091,98.2677 248.8091,98.2677 249.4341,97.6427 249.4341,97.6427 250.3716,97.3302 250.3716,97.3302 251.6216,97.0177 251.6216,97.0177 252.2466,96.7052 252.2466,96.7052 252.5591,96.0802 252.5591,96.0802 252.5591,95.4552 252.5591,95.4552 252.2466,94.8302 252.2466,94.8302 251.3091,94.5177 251.3091,94.5177"/>
    <polyline points="272.0669,117.1211 272.0669,103.9961 272.0669,103.9961 267.0669,117.1211 267.0669,117.1211 262.0669,103.9961 262.0669,103.9961 262.0669,117.1211"/>
    <polyline points="307.9872,117.1211 302.9872,103.9961 302.9872,103.9961 297.9872,117.1211"/>
    <line x1="299.8622" x2="306.1122" y1="112.7461" y2="112.7461"/>
    <polyline points="321.2598,130.3937 359.0551,130.3937 359.0551,130.3937 359.0551,92.5984"/>
    <polyline points="347.0325,103.9961 347.0325,117.1211 347.0325,117.1211 338.2825,103.9961 338.2825,103.9961 338.2825,117.1211"/>
    <polyline points="359.0551,130.3937 396.8504,130.3937 396.8504,130.3937 434.6457,130.3937 434.6457,130.3937 472.4409,130.3937 472.4409,130.3937 510.2362,130.3937 510.2362,130.3937 548.0315,130.3937 548.0315,130.3937 585.8268,130.3937 585.8268,130.3937 585.8268,92.5984 585.8268,92.5984 548.0315,92.5984"/>
    <polygon points="376.0778,103.9961 376.0778,117.1211 376.0778,117.1211 380.4528,117.1211 380.4528,117.1211 382.3278,116.4961 382.3278,116.4961 383.5778,115.2461 383.5778,115.2461 384.2028,113.9961 384.2028,113.9961 384.8278,112.1211 384.8278,112.1211 384.8278,108.9961 384.8278,108.9961 384.2028,107.1211 384.2028,107.1211 383.5778,105.8711 383.5778,105.8711 382.3278,104.6211 382.3278,104.6211 380.4528,103.9961 380.4528,103.9961"/>
    <polyline points="421.373,117.1211 416.373,103.9961 416.373,103.9961 411.373,117.1211"/>
    <line x1="413.248" x2="419.498" y1="112.7461" y2="112.7461"/>
    <line x1="472.4409" x2="472.4409" y1="130.3937" y2="92.5984"/>
    <polyline points="451.6683,110.2461 457.2933,110.2461 457.2933,110.2461 459.1683,109.6211 459.1683,109.6211 459.7933,108.9961 459.7933,108.9961 460.4183,107.7461 460.4183,107.7461 460.4183,106.4961 460.4183,106.4961 459.7933,105.2461 459.7933,105.2461 459.1683,104.6211 459.1683,104.6211 457.2933,103.9961 457.2933,103.9961 451.6683,103.9961 451.6683,103.9961 451.6683,117.1211"/>
    <line x1="456.0433" x2="460.4183" y1="110.2461" y2="117.1211"/>
    <line x1="493.8386" x2="493.8386" y1="103.9961" y2="117.1211"/>
    <polyline points="517.126,96.7052 516.8135,97.6427 516.8135,97.6427 516.1885,98.2677 516.1885,98.2677 515.251,98.5802 515.251,98.5802 514.9385,98.5802 514.9385,98.5802 514.001,98.2677 514.001,98.2677 513.376,97.6427 513.376,97.6427 513.0635,96.7052 513.0635,96.7052 513.0635,96.3927 513.0635,96.3927 513.376,95.4552 513.376,95.4552 514.001,94.8302 514.001,94.8302 514.9385,94.5177 514.9385,94.5177 515.251,94.5177 515.251,94.5177 516.1885,94.8302 516.1885,94.8302 516.8135,95.4552 516.8135,95.4552 517.126,96.7052 517.126,96.7052 517.126,98.2677 517.126,98.2677 516.8135,99.8302 516.8135,99.8302 516.1885,100.7677 516.1885,100.7677 515.251,101.0802 515.251,101.0802 514.626,101.0802 514.626,101.0802 513.6885,100.7677 513.6885,100.7677 513.376,100.1427"/>
    <polyline points="533.5089,103.9961 533.5089,113.9961 533.5089,113.9961 532.8839,115.8711 532.8839,115.8711 532.2589,116.4961 532.2589,116.4961 531.0089,117.1211 531.0089,117.1211 529.7589,117.1211 529.7589,117.1211 528.5089,116.4961 528.5089,116.4961 527.8839,115.8711 527.8839,115.8711 527.2589,113.9961 527.2589,113.9961 527.2589,112.7461"/>
    <polyline points="573.8041,103.9961 573.8041,117.1211 573.8041,117.1211 565.0541,103.9961 565.0541,103.9961 565.0541,117.1211"/>
    <polyline points="627.3868,95.7677 628.0118,95.4552 628.0118,95.4552 628.9493,94.5177 628.9493,94.5177 628.9493,101.0802"/>
    <polygon points="634.5743,94.5177 633.6368,94.8302 633.6368,94.8302 633.0118,95.7677 633.0118,95.7677 632.6993,97.3302 632.6993,97.3302 632.6993,98.2677 632.6993,98.2677 633.0118,99.8302 633.0118,99.8302 633.6368,100.7677 633.6368,100.7677 634.5743,101.0802 634.5743,101.0802 635.1993,101.0802 635.1993,101.0802 636.1368,100.7677 636.1368,100.7677 636.7618,99.8302 636.7618,99.8302 637.0743,98.2677 637.0743,98.2677 637.0743,97.3302 637.0743,97.3302 636.7618,95.7677 636.7618,95.7677 636.1368,94.8302 636.1368,94.8302 635.1993,94.5177 635.1993,94.5177"/>
    <polyline points="641.2697,103.9961 641.2697,117.1211 641.2697,117.1211 648.7697,117.1211"/>
    <line x1="682.815" x2="682.815" y1="103.9961" y2="117.1211"/>
    <polyline points="699.2126,130.3937 737.0079,130.3937 737.0079,130.3937 774.8031,130.3937 774.8031,130.3937 774.8031,92.5984 774.8031,92.5984 737.0079,92.5984 737.0079,92.5984 699.2126,92.5984"/>
    <line x1="737.0079" x2="737.0079" y1="130.3937" y2="92.5984"/>
    <polyline points="724.6727,103.9961 716.5477,103.9961 716.5477,103.9961 716.5477,117.1211"/>
    <line x1="716.5477" x2="721.5477" y1="110.2461" y2="110.2461"/>
    <line x1="756.5305" x2="756.5305" y1="103.9961" y2="117.1211"/>
    <line x1="752.1555" x2="760.9055" y1="103.9961" y2="103.9961"/>
    <line x1="73.7156" x2="73.7156" y1="141.7913" y2="154.9163"/>
    <line x1="82.4656" x2="73.7156" y1="141.7913" y2="150.5413"/>
    <line x1="76.8406" x2="82.4656" y1="147.4163" y2="154.9163"/>
    <line x1="170.0787" x2="207.874" y1="168.189" y2="168.189"/>
    <polyline points="187.7264,141.7913 187.7264,154.9163 187.7264,154.9163 195.2264,154.9163"/>
    <polyline points="411.373,141.7913 416.373,154.9163 416.373,154.9163 421.373,141.7913"/>
    <polyline points="534.7589,154.9163 529.7589,141.7913 529.7589,141.7913 524.7589,154.9163"/>
    <line x1="526.6339" x2="532.8839" y1="150.5413" y2="150.5413"/>
    <line x1="645.0197" x2="645.0197" y1="141.7913" y2="154.9163"/>
    <polyline points="56.6929,168.189 56.6929,205.9843 56.6929,205.9843 94.4882,205.9843 94.4882,205.9843 94.4882,243.7795 94.4882,243.7795 132.2835,243.7795 132.2835,243.7795 170.0787,243.7795 170.0787,243.7795 207.874,243.7795 207.874,243.7795 207.874,205.9843 207.874,205.9843 170.0787,205.9843 170.0787,205.9843 170.0787,243.7795 170.0787,243.7795 170.0787,281.5748 170.0787,281.5748 207.874,281.5748 207.874,281.5748 207.874,243.7795 207.874,243.7795 245.6693,243.7795 245.6693,243.7795 245.6693,205.9843"/>
    <polyline points="82.1531,179.5866 74.0281,179.5866 74.0281,179.5866 74.0281,192.7116 74.0281,192.7116 82.1531,192.7116"/>
    <line x1="74.0281" x2="79.0281" y1="185.8366" y2="185.8366"/>
    <line x1="191.4764" x2="191.4764" y1="179.5866" y2="192.7116"/>
    <polyline points="283.4646,205.9843 283.4646,243.7795 283.4646,243.7795 321.2598,243.7795 321.2598,243.7795 321.2598,205.9843 321.2598,205.9843 359.0551,205.9843"/>
    <polyline points="325.0246,171.3583 325.6496,171.0458 325.6496,171.0458 326.5871,170.1083 326.5871,170.1083 326.5871,176.6708"/>
    <polyline points="331.2746,171.3583 331.8996,171.0458 331.8996,171.0458 332.8371,170.1083 332.8371,170.1083 332.8371,176.6708"/>
    <polyline points="338.9075,179.5866 338.9075,192.7116 338.9075,192.7116 346.4075,192.7116"/>
    <line x1="380.4528" x2="380.4528" y1="179.5866" y2="192.7116"/>
    <polyline points="422.3105,179.5866 414.1855,179.5866 414.1855,179.5866 414.1855,192.7116 414.1855,192.7116 422.3105,192.7116"/>
    <line x1="414.1855" x2="419.1855" y1="185.8366" y2="185.8366"/>
    <polyline points="460.4183,179.5866 460.4183,192.7116 460.4183,192.7116 451.6683,179.5866 451.6683,179.5866 451.6683,192.7116"/>
    <polyline points="548.0315,205.9843 585.8268,205.9843 585.8268,205.9843 623.622,205.9843 623.622,205.9843 623.622,168.189 623.622,168.189 585.8268,168.189"/>
    <polyline points="551.7963,171.3583 552.4213,171.0458 552.4213,171.0458 553.3588,170.1083 553.3588,170.1083 553.3588,176.6708"/>
    <polyline points="557.4213,171.6708 557.4213,171.3583 557.4213,171.3583 557.7338,170.7333 557.7338,170.7333 558.0463,170.4208 558.0463,170.4208 558.6713,170.1083 558.6713,170.1083 559.9213,170.1083 559.9213,170.1083 560.5463,170.4208 560.5463,170.4208 560.8588,170.7333 560.8588,170.7333 561.1713,171.3583 561.1713,171.3583 561.1713,171.9833 561.1713,171.9833 560.8588,172.6083 560.8588,172.6083 560.2338,173.5458 560.2338,173.5458 557.1088,176.6708 557.1088,176.6708 561.4838,176.6708"/>
    <polyline points="573.1791,181.4616 571.9291,180.2116 571.9291,180.2116 570.0541,179.5866 570.0541,179.5866 567.5541,179.5866 567.5541,179.5866 565.6791,180.2116 565.6791,180.2116 564.4291,181.4616 564.4291,181.4616 564.4291,182.7116 564.4291,182.7116 565.0541,183.9616 565.0541,183.9616 565.6791,184.5866 565.6791,184.5866 566.9291,185.2116 566.9291,185.2116 570.6791,186.4616 570.6791,186.4616 571.9291,187.0866 571.9291,187.0866 572.5541,187.7116 572.5541,187.7116 573.1791,188.9616 573.1791,188.9616 573.1791,190.8366 573.1791,190.8366 571.9291,192.0866 571.9291,192.0866 570.0541,192.7116 570.0541,192.7116 567.5541,192.7116 567.5541,192.7116 565.6791,192.0866 565.6791,192.0866 564.4291,190.8366"/>
    <line x1="605.3494" x2="605.3494" y1="179.5866" y2="192.7116"/>
    <line x1="600.9744" x2="609.7244" y1="179.5866" y2="179.5866"/>
    <polyline points="623.622,205.9843 661.4173,205.9843 661.4173,205.9843 661.4173,168.189 661.4173,168.189 699.2126,168.189 699.2126,168.189 699.2126,205.9843 699.2126,205.9843 661.4173,205.9843"/>
    <polyline points="649.0822,179.5866 640.9572,179.5866 640.9572,179.5866 640.9572,192.7116 640.9572,192.7116 649.0822,192.7116"/>
    <line x1="640.9572" x2="645.9572" y1="185.8366" y2="185.8366"/>
    <polyline points="678.44,185.8366 684.065,185.8366 684.065,185.8366 685.94,185.2116 685.94,185.2116 686.565,184.5866 686.565,184.5866 687.19,183.3366 687.19,183.3366 687.19,182.0866 687.19,182.0866 686.565,180.8366 686.565,180.8366 685.94,180.2116 685.94,180.2116 684.065,179.5866 684.065,179.5866 678.44,179.5866 678.44,179.5866 678.44,192.7116"/>
    <line x1="682.815" x2="687.19" y1="185.8366" y2="192.7116"/>
    <polygon points="18.8976,205.9843 18.8976,243.7795 18.8976,243.7795 56.6929,243.7795 56.6929,243.7795 94.4882,243.7795 94.4882,243.7795 94.4882,281.5748 94.4882,281.5748 56.6929,281.5748 56.6929,281.5748 56.6929,243.7795 56.6929,243.7795 56.6929,205.9843 56.6929,205.9843"/>
    <polyline points="22.6624,209.1535 23.2874,208.841 23.2874,208.841 24.2249,207.9035 24.2249,207.9035 24.2249,214.466"/>
    <polyline points="28.5999,207.9035 32.0374,207.9035 32.0374,207.9035 30.1624,210.4035 30.1624,210.4035 31.0999,210.4035 31.0999,210.4035 31.7249,210.716 31.7249,210.716 32.0374,211.0285 32.0374,211.0285 32.3499,211.966 32.3499,211.966 32.3499,212.591 32.3499,212.591 32.0374,213.5285 32.0374,213.5285 31.4124,214.1535 31.4124,214.1535 30.4749,214.466 30.4749,214.466 29.5374,214.466 29.5374,214.466 28.5999,214.1535 28.5999,214.1535 28.2874,213.841 28.2874,213.841 27.9749,213.216"/>
    <polyline points="41.5453,223.6319 43.4203,223.0069 43.4203,223.0069 44.0453,222.3819 44.0453,222.3819 44.6703,221.1319 44.6703,221.1319 44.6703,219.8819 44.6703,219.8819 44.0453,218.6319 44.0453,218.6319 43.4203,218.0069 43.4203,218.0069 41.5453,217.3819 41.5453,217.3819 35.9203,217.3819 35.9203,217.3819 35.9203,230.5069 35.9203,230.5069 41.5453,230.5069 41.5453,230.5069 43.4203,229.8819 43.4203,229.8819 44.0453,229.2569 44.0453,229.2569 44.6703,228.0069 44.6703,228.0069 44.6703,226.1319 44.6703,226.1319 44.0453,224.8819 44.0453,224.8819 43.4203,224.2569 43.4203,224.2569 41.5453,223.6319 41.5453,223.6319 35.9203,223.6319"/>
    <polyline points="73.7156,223.6319 79.3406,223.6319 79.3406,223.6319 81.2156,223.0069 81.2156,223.0069 81.8406,222.3819 81.8406,222.3819 82.4656,221.1319 82.4656,221.1319 82.4656,219.8819 82.4656,219.8819 81.8406,218.6319 81.8406,218.6319 81.2156,218.0069 81.2156,218.0069 79.3406,217.3819 79.3406,217.3819 73.7156,217.3819 73.7156,217.3819 73.7156,230.5069"/>
    <line x1="78.0906" x2="82.4656" y1="223.6319" y2="230.5069"/>
    <line x1="132.2835" x2="132.2835" y1="243.7795" y2="205.9843"/>
    <polygon points="114.0108,217.3819 112.7608,218.0069 112.7608,218.0069 111.5108,219.2569 111.5108,219.2569 110.8858,220.5069 110.8858,220.5069 110.2608,222.3819 110.2608,222.3819 110.2608,225.5069 110.2608,225.5069 110.8858,227.3819 110.8858,227.3819 111.5108,228.6319 111.5108,228.6319 112.7608,229.8819 112.7608,229.8819 114.0108,230.5069 114.0108,230.5069 116.5108,230.5069 116.5108,230.5069 117.7608,229.8819 117.7608,229.8819 119.0108,228.6319 119.0108,228.6319 119.6358,227.3819 119.6358,227.3819 120.2608,225.5069 120.2608,225.5069 120.2608,222.3819 120.2608,222.3819 119.6358,220.5069 119.6358,220.5069 119.0108,219.2569 119.0108,219.2569 117.7608,218.0069 117.7608,218.0069 116.5108,217.3819 116.5108,217.3819"/>
    <polyline points="157.7436,217.3819 149.6186,217.3819 149.6186,217.3819 149.6186,230.5069 149.6186,230.5069 157.7436,230.5069"/>
    <line x1="149.6186" x2="154.6186" y1="223.6319" y2="223.6319"/>
    <line x1="187.1014" x2="187.1014" y1="217.3819" y2="230.5069"/>
    <line x1="195.8514" x2="187.1014" y1="217.3819" y2="226.1319"/>
    <line x1="190.2264" x2="195.8514" y1="223.0069" y2="230.5069"/>
    <polyline points="224.2717,217.3819 233.0217,217.3819 233.0217,217.3819 224.2717,230.5069 224.2717,230.5069 233.0217,230.5069"/>
    <line x1="245.6693" x2="283.4646" y1="243.7795" y2="243.7795"/>
    <polyline points="270.1919,230.5069 265.1919,217.3819 265.1919,217.3819 260.1919,230.5069"/>
    <line x1="262.0669" x2="268.3169" y1="226.1319" y2="226.1319"/>
    <line x1="300.4872" x2="300.4872" y1="217.3819" y2="230.5069"/>
    <line x1="309.2372" x2="300.4872" y1="217.3819" y2="226.1319"/>
    <line x1="303.6122" x2="309.2372" y1="223.0069" y2="230.5069"/>
    <polyline points="413.873,223.6319 419.498,223.6319 419.498,223.6319 421.373,223.0069 421.373,223.0069 421.998,222.3819 421.998,222.3819 422.623,221.1319 422.623,221.1319 422.623,219.8819 422.623,219.8819 421.998,218.6319 421.998,218.6319 421.373,218.0069 421.373,218.0069 419.498,217.3819 419.498,217.3819 413.873,217.3819 413.873,217.3819 413.873,230.5069"/>
    <line x1="418.248" x2="422.623" y1="223.6319" y2="230.5069"/>
    <line x1="569.4291" x2="569.4291" y1="217.3819" y2="230.5069"/>
    <polyline points="81.8406,257.0522 80.5906,255.8022 80.5906,255.8022 78.7156,255.1772 78.7156,255.1772 76.2156,255.1772 76.2156,255.1772 74.3406,255.8022 74.3406,255.8022 73.0906,257.0522 73.0906,257.0522 73.0906,258.3022 73.0906,258.3022 73.7156,259.5522 73.7156,259.5522 74.3406,260.1772 74.3406,260.1772 75.5906,260.8022 75.5906,260.8022 79.3406,262.0522 79.3406,262.0522 80.5906,262.6772 80.5906,262.6772 81.2156,263.3022 81.2156,263.3022 81.8406,264.5522 81.8406,264.5522 81.8406,266.4272 81.8406,266.4272 80.5906,267.6772 80.5906,267.6772 78.7156,268.3022 78.7156,268.3022 76.2156,268.3022 76.2156,268.3022 74.3406,267.6772 74.3406,267.6772 73.0906,266.4272"/>
    <line x1="187.1014" x2="187.1014" y1="255.1772" y2="268.3022"/>
    <line x1="195.8514" x2="187.1014" y1="255.1772" y2="263.9272"/>
    <line x1="190.2264" x2="195.8514" y1="260.8022" y2="268.3022"/>
    <polyline points="396.8504,243.7795 396.8504,281.5748 396.8504,281.5748 434.6457,281.5748 434.6457,281.5748 434.6457,243.7795"/>
    <line x1="416.373" x2="416.373" y1="255.1772" y2="268.3022"/>
    <line x1="411.998" x2="420.748" y1="255.1772" y2="255.1772"/>
    <polyline points="548.0315,243.7795 548.0315,281.5748 548.0315,281.5748 585.8268,281.5748 585.8268,281.5748 585.8268,243.7795"/>
    <polyline points="573.4916,255.1772 565.3666,255.1772 565.3666,255.1772 565.3666,268.3022 565.3666,268.3022 573.4916,268.3022"/>
    <line x1="565.3666" x2="570.3666" y1="261.4272" y2="261.4272"/>
    <polygon points="132.2835,281.5748 132.2835,319.3701 132.2835,319.3701 170.0787,319.3701 170.0787,319.3701 207.874,319.3701 207.874,319.3701 245.6693,319.3701 245.6693,319.3701 245.6693,281.5748 245.6693,281.5748 207.874,281.5748 207.874,281.5748 207.874,319.3701 207.874,319.3701 207.874,357.1654 207.874,357.1654 170.0787,357.1654 170.0787,357.1654 170.0787,319.3701 170.0787,319.3701 170.0787,281.5748 170.0787,281.5748"/>
    <polyline points="136.0482,284.7441 136.6732,284.4316 136.6732,284.4316 137.6107,283.4941 137.6107,283.4941 137.6107,290.0566"/>
    <polyline points="144.4857,290.0566 144.4857,283.4941 144.4857,283.4941 141.3607,287.8691 141.3607,287.8691 146.0482,287.8691"/>
    <polyline points="149.3061,299.2224 154.9311,299.2224 154.9311,299.2224 156.8061,298.5974 156.8061,298.5974 157.4311,297.9724 157.4311,297.9724 158.0561,296.7224 158.0561,296.7224 158.0561,295.4724 158.0561,295.4724 157.4311,294.2224 157.4311,294.2224 156.8061,293.5974 156.8061,293.5974 154.9311,292.9724 154.9311,292.9724 149.3061,292.9724 149.3061,292.9724 149.3061,306.0974"/>
    <line x1="153.6811" x2="158.0561" y1="299.2224" y2="306.0974"/>
    <polyline points="195.5389,292.9724 187.4139,292.9724 187.4139,292.9724 187.4139,306.0974 187.4139,306.0974 195.5389,306.0974"/>
    <line x1="187.4139" x2="192.4139" y1="299.2224" y2="299.2224"/>
    <line x1="224.8967" x2="224.8967" y1="292.9724" y2="306.0974"/>
    <line x1="233.6467" x2="224.8967" y1="292.9724" y2="301.7224"/>
    <line x1="228.0217" x2="233.6467" y1="298.5974" y2="306.0974"/>
    <polyline points="245.6693,319.3701 283.4646,319.3701 283.4646,319.3701 283.4646,281.5748 283.4646,281.5748 245.6693,281.5748"/>
    <line x1="262.6919" x2="262.6919" y1="292.9724" y2="306.0974"/>
    <line x1="271.4419" x2="262.6919" y1="292.9724" y2="301.7224"/>
    <line x1="265.8169" x2="271.4419" y1="298.5974" y2="306.0974"/>
    <polyline points="283.4646,319.3701 321.2598,319.3701 321.2598,319.3701 321.2598,281.5748 321.2598,281.5748 283.4646,281.5748"/>
    <polyline points="308.9247,292.9724 300.7997,292.9724 300.7997,292.9724 300.7997,306.0974 300.7997,306.0974 308.9247,306.0974"/>
    <line x1="300.7997" x2="305.7997" y1="299.2224" y2="299.2224"/>
    <polyline points="321.2598,319.3701 359.0551,319.3701 359.0551,319.3701 396.8504,319.3701 396.8504,319.3701 396.8504,281.5748 396.8504,281.5748 359.0551,281.5748 359.0551,281.5748 321.2598,281.5748"/>
    <line x1="359.0551" x2="359.0551" y1="319.3701" y2="281.5748"/>
    <polyline points="338.2825,299.2224 343.9075,299.2224 343.9075,299.2224 345.7825,298.5974 345.7825,298.5974 346.4075,297.9724 346.4075,297.9724 347.0325,296.7224 347.0325,296.7224 347.0325,295.4724 347.0325,295.4724 346.4075,294.2224 346.4075,294.2224 345.7825,293.5974 345.7825,293.5974 343.9075,292.9724 343.9075,292.9724 338.2825,292.9724 338.2825,292.9724 338.2825,306.0974"/>
    <line x1="342.6575" x2="347.0325" y1="299.2224" y2="306.0974"/>
    <line x1="378.5778" x2="378.5778" y1="292.9724" y2="306.0974"/>
    <line x1="374.2028" x2="382.9528" y1="292.9724" y2="292.9724"/>
    <polygon points="396.8504,319.3701 434.6457,319.3701 434.6457,319.3701 434.6457,281.5748 434.6457,281.5748 472.4409,281.5748 472.4409,281.5748 472.4409,319.3701 472.4409,319.3701 434.6457,319.3701 434.6457,319.3701 434.6457,357.1654 434.6457,357.1654 396.8504,357.1654 396.8504,357.1654"/>
    <polyline points="420.123,292.9724 420.123,302.9724 420.123,302.9724 419.498,304.8474 419.498,304.8474 418.873,305.4724 418.873,305.4724 417.623,306.0974 417.623,306.0974 416.373,306.0974 416.373,306.0974 415.123,305.4724 415.123,305.4724 414.498,304.8474 414.498,304.8474 413.873,302.9724 413.873,302.9724 413.873,301.7224"/>
    <polyline points="460.1058,292.9724 451.9808,292.9724 451.9808,292.9724 451.9808,306.0974 451.9808,306.0974 460.1058,306.0974"/>
    <line x1="451.9808" x2="456.9808" y1="299.2224" y2="299.2224"/>
    <polyline points="548.0315,281.5748 548.0315,319.3701 548.0315,319.3701 585.8268,319.3701 585.8268,319.3701 585.8268,281.5748 585.8268,281.5748 623.622,281.5748 623.622,281.5748 661.4173,281.5748 661.4173,281.5748 661.4173,319.3701 661.4173,319.3701 623.622,319.3701 623.622,319.3701 623.622,281.5748"/>
    <polyline points="551.7963,284.7441 552.4213,284.4316 552.4213,284.4316 553.3588,283.4941 553.3588,283.4941 553.3588,290.0566"/>
    <polyline points="560.8588,283.4941 557.7338,283.4941 557.7338,283.4941 557.4213,286.3066 557.4213,286.3066 557.7338,285.9941 557.7338,285.9941 558.6713,285.6816 558.6713,285.6816 559.6088,285.6816 559.6088,285.6816 560.5463,285.9941 560.5463,285.9941 561.1713,286.6191 561.1713,286.6191 561.4838,287.5566 561.4838,287.5566 561.4838,288.1816 561.4838,288.1816 561.1713,289.1191 561.1713,289.1191 560.5463,289.7441 560.5463,289.7441 559.6088,290.0566 559.6088,290.0566 558.6713,290.0566 558.6713,290.0566 557.7338,289.7441 557.7338,289.7441 557.4213,289.4316 557.4213,289.4316 557.1088,288.8066"/>
    <polyline points="574.4291,306.0974 574.4291,292.9724 574.4291,292.9724 569.4291,306.0974 569.4291,306.0974 564.4291,292.9724 564.4291,292.9724 564.4291,306.0974"/>
    <line x1="585.8268" x2="623.622" y1="319.3701" y2="319.3701"/>
    <polygon points="605.3494,292.9724 604.0994,293.5974 604.0994,293.5974 602.8494,294.8474 602.8494,294.8474 602.2244,296.0974 602.2244,296.0974 601.5994,297.9724 601.5994,297.9724 601.5994,301.0974 601.5994,301.0974 602.2244,302.9724 602.2244,302.9724 602.8494,304.2224 602.8494,304.2224 604.0994,305.4724 604.0994,305.4724 605.3494,306.0974 605.3494,306.0974 607.8494,306.0974 607.8494,306.0974 609.0994,305.4724 609.0994,305.4724 610.3494,304.2224 610.3494,304.2224 610.9744,302.9724 610.9744,302.9724 611.5994,301.0974 611.5994,301.0974 611.5994,297.9724 611.5994,297.9724 610.9744,296.0974 610.9744,296.0974 610.3494,294.8474 610.3494,294.8474 609.0994,293.5974 609.0994,293.5974 607.8494,292.9724 607.8494,292.9724"/>
    <polyline points="640.6447,299.8474 646.2697,299.8474 646.2697,299.8474 648.1447,299.2224 648.1447,299.2224 648.7697,298.5974 648.7697,298.5974 649.3947,297.3474 649.3947,297.3474 649.3947,295.4724 649.3947,295.4724 648.7697,294.2224 648.7697,294.2224 648.1447,293.5974 648.1447,293.5974 646.2697,292.9724 646.2697,292.9724 640.6447,292.9724 640.6447,292.9724 640.6447,306.0974"/>
    <polyline points="195.8514,330.7677 195.8514,343.8927 195.8514,343.8927 187.1014,330.7677 187.1014,330.7677 187.1014,343.8927"/>
    <polyline points="422.3105,330.7677 414.1855,330.7677 414.1855,330.7677 414.1855,343.8927 414.1855,343.8927 422.3105,343.8927"/>
    <line x1="414.1855" x2="419.1855" y1="337.0177" y2="337.0177"/>
  </g>
</svg>
