<?xml version="1.0" encoding="utf-8" ?>
<svg xmlns="http://www.w3.org/2000/svg" xmlns:cc="http://creativecommons.org/ns" xmlns:dc="http://purl.org/dc/elements/1.1/" xmlns:ev="http://www.w3.org/2001/xml-events" xmlns:inkscape="http://www.inkscape.org/namespaces/inkscape" xmlns:rdf="http://www.w3.org/1999/02/22-rdf-syntax-ns" xmlns:sodipodi="http://sodipodi.sourceforge.net/DTD/sodipodi-0.dtd" xmlns:xlink="http://www.w3.org/1999/xlink" baseProfile="tiny" height="9.9cm" version="1.2" viewBox="0 0 793.7007874015749 374.1732283464567" width="21.0cm">
  <metadata>
    <rdf:RDF>
      <cc:Work>
        <dc:format>image/svg+xml</dc:format>
        <dc:source>vpype eval 'cell=10;width=210;height=99' eval 'nCols=20;nRows=9' eval 'cells=[2,3,4,5,6,7,10,14,21,26,29,30,31,32,33,34,35,36,41,43,46,50,54,58,60,61,62,63,66,70,73,74,75,76,77,78,79,81,83,86,89,90,91,94,96,98,101,102,103,104,105,106,107,108,110,112,114,116,118,121,123,126,130,132,134,136,138,139,141,143,145,146,147,148,149,150,151,152,154,156,158,161,163,170,172,176,178]' eval 'chars=[&quot;M&quot;,&quot;A&quot;,&quot;R&quot;,&quot;T&quot;,&quot;H&quot;,&quot;E&quot;,&quot;U&quot;,&quot;B&quot;,&quot;F&quot;,&quot;A&quot;,&quot;K&quot;,&quot;I&quot;,&quot;N&quot;,&quot;D&quot;,&quot;E&quot;,&quot;R&quot;,&quot;E&quot;,&quot;N&quot;,&quot;R&quot;,&quot;V&quot;,&quot;N&quot;,&quot;T&quot;,&quot;O&quot;,&quot;G&quot;,&quot;F&quot;,&quot;I&quot;,&quot;L&quot;,&quot;E&quot;,&quot;D&quot;,&quot;L&quot;,&quot;R&quot;,&quot;E&quot;,&quot;S&quot;,&quot;T&quot;,&quot;J&quot;,&quot;E&quot;,&quot;S&quot;,&quot;E&quot;,&quot;L&quot;,&quot;D&quot;,&quot;V&quot;,&quot;I&quot;,&quot;C&quot;,&quot;K&quot;,&quot;E&quot;,&quot;R&quot;,&quot;T&quot;,&quot;E&quot;,&quot;L&quot;,&quot;E&quot;,&quot;F&quot;,&quot;O&quot;,&quot;O&quot;,&quot;N&quot;,&quot;K&quot;,&quot;S&quot;,&quot;Z&quot;,&quot;R&quot;,&quot;T&quot;,&quot;J&quot;,&quot;E&quot;,&quot;E&quot;,&quot;K&quot;,&quot;T&quot;,&quot;A&quot;,&quot;R&quot;,&quot;J&quot;,&quot;A&quot;,&quot;E&quot;,&quot;K&quot;,&quot;S&quot;,&quot;K&quot;,&quot;E&quot;,&quot;L&quot;,&quot;L&quot;,&quot;E&quot;,&quot;K&quot;,&quot;E&quot;,&quot;K&quot;,&quot;A&quot;,&quot;A&quot;,&quot;S&quot;,&quot;E&quot;,&quot;N&quot;,&quot;R&quot;,&quot;S&quot;,&quot;N&quot;]' eval 'numbers=[2,6,10,14,21,29,43,58,60,73,76,89,101,112,138,145]' eval counter=1 eval charIndex=0 begin grid -o '%cell*mm%' '%cell*mm%' %nCols% %nRows% eval '%isCell=_i in cells%' eval '%number=_i in numbers%' eval '%size=10 if isCell else 0%' rect 0 0 '%size*mm%' '%size*mm%' text -s 10 -p 0.5mm 1.5mm '%counter if number else '&quot;'&quot;''&quot;'&quot;'%' text -s 20 -p 5mm 5mm -a center '%chars[charIndex] if isCell else '&quot;'&quot;''&quot;'&quot;'%' eval '%if number: counter+=1 %' eval '%if isCell: charIndex+=1 %' end splitall deduplicate linemerge --tolerance 0.1mm write -m none --page-size '%width*mm%x%height*mm%' --center ./svgs/solution/363bb7.svg
</dc:source>
        <dc:date>2023-12-23T22:30:05.881532</dc:date>
      </cc:Work>
    </rdf:RDF>
  </metadata>
  <defs/>
  <g fill="none" id="layer1" inkscape:groupmode="layer" inkscape:label="1" stroke="#000000" style="display:inline">
    <polygon points="94.4882,17.0079 94.4882,54.8031 94.4882,54.8031 132.2835,54.8031 132.2835,54.8031 132.2835,17.0079 132.2835,17.0079"/>
    <polyline points="98.253,20.1772 98.878,19.8647 98.878,19.8647 99.8155,18.9272 99.8155,18.9272 99.8155,25.4897"/>
    <polyline points="120.8858,41.5305 120.8858,28.4055 120.8858,28.4055 115.8858,41.5305 115.8858,41.5305 110.8858,28.4055 110.8858,28.4055 110.8858,41.5305"/>
    <polyline points="132.2835,54.8031 170.0787,54.8031 170.0787,54.8031 207.874,54.8031 207.874,54.8031 245.6693,54.8031 245.6693,54.8031 245.6693,17.0079 245.6693,17.0079 207.874,17.0079 207.874,17.0079 170.0787,17.0079 170.0787,17.0079 132.2835,17.0079"/>
    <line x1="170.0787" x2="170.0787" y1="54.8031" y2="17.0079"/>
    <polyline points="156.8061,41.5305 151.8061,28.4055 151.8061,28.4055 146.8061,41.5305"/>
    <line x1="148.6811" x2="154.9311" y1="37.1555" y2="37.1555"/>
    <line x1="207.874" x2="207.874" y1="54.8031" y2="17.0079"/>
    <polyline points="187.1014,34.6555 192.7264,34.6555 192.7264,34.6555 194.6014,34.0305 194.6014,34.0305 195.2264,33.4055 195.2264,33.4055 195.8514,32.1555 195.8514,32.1555 195.8514,30.9055 195.8514,30.9055 195.2264,29.6555 195.2264,29.6555 194.6014,29.0305 194.6014,29.0305 192.7264,28.4055 192.7264,28.4055 187.1014,28.4055 187.1014,28.4055 187.1014,41.5305"/>
    <line x1="191.4764" x2="195.8514" y1="34.6555" y2="41.5305"/>
    <line x1="227.3967" x2="227.3967" y1="28.4055" y2="41.5305"/>
    <line x1="223.0217" x2="231.7717" y1="28.4055" y2="28.4055"/>
    <polyline points="283.4646,17.0079 283.4646,54.8031 283.4646,54.8031 283.4646,92.5984 283.4646,92.5984 283.4646,130.3937 283.4646,130.3937 283.4646,168.189 283.4646,168.189 245.6693,168.189 245.6693,168.189 245.6693,130.3937 245.6693,130.3937 245.6693,92.5984 245.6693,92.5984 245.6693,54.8031 245.6693,54.8031 283.4646,54.8031 283.4646,54.8031 321.2598,54.8031 321.2598,54.8031 321.2598,17.0079 321.2598,17.0079 283.4646,17.0079 283.4646,17.0079 245.6693,17.0079"/>
    <polyline points="248.8091,20.4897 248.8091,20.1772 248.8091,20.1772 249.1216,19.5522 249.1216,19.5522 249.4341,19.2397 249.4341,19.2397 250.0591,18.9272 250.0591,18.9272 251.3091,18.9272 251.3091,18.9272 251.9341,19.2397 251.9341,19.2397 252.2466,19.5522 252.2466,19.5522 252.5591,20.1772 252.5591,20.1772 252.5591,20.8022 252.5591,20.8022 252.2466,21.4272 252.2466,21.4272 251.6216,22.3647 251.6216,22.3647 248.4966,25.4897 248.4966,25.4897 252.8716,25.4897"/>
    <line x1="262.6919" x2="262.6919" y1="28.4055" y2="41.5305"/>
    <line x1="271.4419" x2="271.4419" y1="28.4055" y2="41.5305"/>
    <line x1="262.6919" x2="271.4419" y1="34.6555" y2="34.6555"/>
    <polyline points="308.9247,28.4055 300.7997,28.4055 300.7997,28.4055 300.7997,41.5305 300.7997,41.5305 308.9247,41.5305"/>
    <line x1="300.7997" x2="305.7997" y1="34.6555" y2="34.6555"/>
    <polygon points="396.8504,17.0079 396.8504,54.8031 396.8504,54.8031 434.6457,54.8031 434.6457,54.8031 434.6457,17.0079 434.6457,17.0079"/>
    <polyline points="400.3027,18.9272 403.7402,18.9272 403.7402,18.9272 401.8652,21.4272 401.8652,21.4272 402.8027,21.4272 402.8027,21.4272 403.4277,21.7397 403.4277,21.7397 403.7402,22.0522 403.7402,22.0522 404.0527,22.9897 404.0527,22.9897 404.0527,23.6147 404.0527,23.6147 403.7402,24.5522 403.7402,24.5522 403.1152,25.1772 403.1152,25.1772 402.1777,25.4897 402.1777,25.4897 401.2402,25.4897 401.2402,25.4897 400.3027,25.1772 400.3027,25.1772 399.9902,24.8647 399.9902,24.8647 399.6777,24.2397"/>
    <polyline points="413.873,28.4055 413.873,37.7805 413.873,37.7805 414.498,39.6555 414.498,39.6555 415.748,40.9055 415.748,40.9055 417.623,41.5305 417.623,41.5305 418.873,41.5305 418.873,41.5305 420.748,40.9055 420.748,40.9055 421.998,39.6555 421.998,39.6555 422.623,37.7805 422.623,37.7805 422.623,28.4055"/>
    <polyline points="623.622,54.8031 623.622,92.5984 623.622,92.5984 661.4173,92.5984 661.4173,92.5984 661.4173,54.8031 661.4173,54.8031 623.622,54.8031 623.622,54.8031 585.8268,54.8031 585.8268,54.8031 585.8268,92.5984 585.8268,92.5984 585.8268,130.3937 585.8268,130.3937 548.0315,130.3937 548.0315,130.3937 548.0315,92.5984 548.0315,92.5984 548.0315,54.8031 548.0315,54.8031 585.8268,54.8031 585.8268,54.8031 585.8268,17.0079 585.8268,17.0079 548.0315,17.0079 548.0315,17.0079 548.0315,54.8031 548.0315,54.8031 510.2362,54.8031 510.2362,54.8031 472.4409,54.8031 472.4409,54.8031 434.6457,54.8031 434.6457,54.8031 434.6457,92.5984 434.6457,92.5984 396.8504,92.5984 396.8504,92.5984 396.8504,130.3937 396.8504,130.3937 434.6457,130.3937 434.6457,130.3937 434.6457,92.5984 434.6457,92.5984 472.4409,92.5984 472.4409,92.5984 510.2362,92.5984 510.2362,92.5984 510.2362,54.8031"/>
    <polyline points="553.9838,25.4897 553.9838,18.9272 553.9838,18.9272 550.8588,23.3022 550.8588,23.3022 555.5463,23.3022"/>
    <polyline points="570.6791,34.6555 572.5541,34.0305 572.5541,34.0305 573.1791,33.4055 573.1791,33.4055 573.8041,32.1555 573.8041,32.1555 573.8041,30.9055 573.8041,30.9055 573.1791,29.6555 573.1791,29.6555 572.5541,29.0305 572.5541,29.0305 570.6791,28.4055 570.6791,28.4055 565.0541,28.4055 565.0541,28.4055 565.0541,41.5305 565.0541,41.5305 570.6791,41.5305 570.6791,41.5305 572.5541,40.9055 572.5541,40.9055 573.1791,40.2805 573.1791,40.2805 573.8041,39.0305 573.8041,39.0305 573.8041,37.1555 573.8041,37.1555 573.1791,35.9055 573.1791,35.9055 572.5541,35.2805 572.5541,35.2805 570.6791,34.6555 570.6791,34.6555 565.0541,34.6555"/>
    <polygon points="56.6929,54.8031 56.6929,92.5984 56.6929,92.5984 56.6929,130.3937 56.6929,130.3937 18.8976,130.3937 18.8976,130.3937 18.8976,168.189 18.8976,168.189 56.6929,168.189 56.6929,168.189 56.6929,130.3937 56.6929,130.3937 94.4882,130.3937 94.4882,130.3937 94.4882,92.5984 94.4882,92.5984 94.4882,54.8031 94.4882,54.8031"/>
    <line x1="56.6929" x2="94.4882" y1="92.5984" y2="92.5984"/>
    <polyline points="63.2702,56.7224 60.1452,56.7224 60.1452,56.7224 59.8327,59.5349 59.8327,59.5349 60.1452,59.2224 60.1452,59.2224 61.0827,58.9099 61.0827,58.9099 62.0202,58.9099 62.0202,58.9099 62.9577,59.2224 62.9577,59.2224 63.5827,59.8474 63.5827,59.8474 63.8952,60.7849 63.8952,60.7849 63.8952,61.4099 63.8952,61.4099 63.5827,62.3474 63.5827,62.3474 62.9577,62.9724 62.9577,62.9724 62.0202,63.2849 62.0202,63.2849 61.0827,63.2849 61.0827,63.2849 60.1452,62.9724 60.1452,62.9724 59.8327,62.6599 59.8327,62.6599 59.5202,62.0349"/>
    <polyline points="82.1531,66.2008 74.0281,66.2008 74.0281,66.2008 74.0281,79.3258"/>
    <line x1="74.0281" x2="79.0281" y1="72.4508" y2="72.4508"/>
    <line x1="245.6693" x2="283.4646" y1="92.5984" y2="92.5984"/>
    <polyline points="270.1919,79.3258 265.1919,66.2008 265.1919,66.2008 260.1919,79.3258"/>
    <line x1="262.0669" x2="268.3169" y1="74.9508" y2="74.9508"/>
    <polygon points="359.0551,54.8031 359.0551,92.5984 359.0551,92.5984 396.8504,92.5984 396.8504,92.5984 396.8504,54.8031 396.8504,54.8031"/>
    <polyline points="365.9449,57.6599 365.6324,57.0349 365.6324,57.0349 364.6949,56.7224 364.6949,56.7224 364.0699,56.7224 364.0699,56.7224 363.1324,57.0349 363.1324,57.0349 362.5074,57.9724 362.5074,57.9724 362.1949,59.5349 362.1949,59.5349 362.1949,61.0974 362.1949,61.0974 362.5074,62.3474 362.5074,62.3474 363.1324,62.9724 363.1324,62.9724 364.0699,63.2849 364.0699,63.2849 364.3824,63.2849 364.3824,63.2849 365.3199,62.9724 365.3199,62.9724 365.9449,62.3474 365.9449,62.3474 366.2574,61.4099 366.2574,61.4099 366.2574,61.0974 366.2574,61.0974 365.9449,60.1599 365.9449,60.1599 365.3199,59.5349 365.3199,59.5349 364.3824,59.2224 364.3824,59.2224 364.0699,59.2224 364.0699,59.2224 363.1324,59.5349 363.1324,59.5349 362.5074,60.1599 362.5074,60.1599 362.1949,61.0974"/>
    <line x1="376.0778" x2="376.0778" y1="66.2008" y2="79.3258"/>
    <line x1="384.8278" x2="376.0778" y1="66.2008" y2="74.9508"/>
    <line x1="379.2028" x2="384.8278" y1="71.8258" y2="79.3258"/>
    <line x1="418.248" x2="418.248" y1="66.2008" y2="79.3258"/>
    <line x1="472.4409" x2="472.4409" y1="92.5984" y2="54.8031"/>
    <polyline points="460.4183,66.2008 460.4183,79.3258 460.4183,79.3258 451.6683,66.2008 451.6683,66.2008 451.6683,79.3258"/>
    <polygon points="489.4636,66.2008 489.4636,79.3258 489.4636,79.3258 493.8386,79.3258 493.8386,79.3258 495.7136,78.7008 495.7136,78.7008 496.9636,77.4508 496.9636,77.4508 497.5886,76.2008 497.5886,76.2008 498.2136,74.3258 498.2136,74.3258 498.2136,71.2008 498.2136,71.2008 497.5886,69.3258 497.5886,69.3258 496.9636,68.0758 496.9636,68.0758 495.7136,66.8258 495.7136,66.8258 493.8386,66.2008 493.8386,66.2008"/>
    <polyline points="510.2362,92.5984 548.0315,92.5984 548.0315,92.5984 585.8268,92.5984 585.8268,92.5984 623.622,92.5984"/>
    <polyline points="535.6964,66.2008 527.5714,66.2008 527.5714,66.2008 527.5714,79.3258 527.5714,79.3258 535.6964,79.3258"/>
    <line x1="527.5714" x2="532.5714" y1="72.4508" y2="72.4508"/>
    <polyline points="565.0541,72.4508 570.6791,72.4508 570.6791,72.4508 572.5541,71.8258 572.5541,71.8258 573.1791,71.2008 573.1791,71.2008 573.8041,69.9508 573.8041,69.9508 573.8041,68.7008 573.8041,68.7008 573.1791,67.4508 573.1791,67.4508 572.5541,66.8258 572.5541,66.8258 570.6791,66.2008 570.6791,66.2008 565.0541,66.2008 565.0541,66.2008 565.0541,79.3258"/>
    <line x1="569.4291" x2="573.8041" y1="72.4508" y2="79.3258"/>
    <polyline points="611.2869,66.2008 603.1619,66.2008 603.1619,66.2008 603.1619,79.3258 603.1619,79.3258 611.2869,79.3258"/>
    <line x1="603.1619" x2="608.1619" y1="72.4508" y2="72.4508"/>
    <polyline points="649.3947,66.2008 649.3947,79.3258 649.3947,79.3258 640.6447,66.2008 640.6447,66.2008 640.6447,79.3258"/>
    <polyline points="73.7156,110.2461 79.3406,110.2461 79.3406,110.2461 81.2156,109.6211 81.2156,109.6211 81.8406,108.9961 81.8406,108.9961 82.4656,107.7461 82.4656,107.7461 82.4656,106.4961 82.4656,106.4961 81.8406,105.2461 81.8406,105.2461 81.2156,104.6211 81.2156,104.6211 79.3406,103.9961 79.3406,103.9961 73.7156,103.9961 73.7156,103.9961 73.7156,117.1211"/>
    <line x1="78.0906" x2="82.4656" y1="110.2461" y2="117.1211"/>
    <polygon points="132.2835,92.5984 132.2835,130.3937 132.2835,130.3937 170.0787,130.3937 170.0787,130.3937 170.0787,92.5984 170.0787,92.5984"/>
    <polyline points="135.1107,94.5177 139.4857,94.5177 139.4857,94.5177 136.3607,101.0802"/>
    <polyline points="146.8061,103.9961 151.8061,117.1211 151.8061,117.1211 156.8061,103.9961"/>
    <line x1="245.6693" x2="283.4646" y1="130.3937" y2="130.3937"/>
    <polyline points="271.4419,103.9961 271.4419,117.1211 271.4419,117.1211 262.6919,103.9961 262.6919,103.9961 262.6919,117.1211"/>
    <line x1="416.373" x2="416.373" y1="103.9961" y2="117.1211"/>
    <line x1="411.998" x2="420.748" y1="103.9961" y2="103.9961"/>
    <polygon points="567.5541,103.9961 566.3041,104.6211 566.3041,104.6211 565.0541,105.8711 565.0541,105.8711 564.4291,107.1211 564.4291,107.1211 563.8041,108.9961 563.8041,108.9961 563.8041,112.1211 563.8041,112.1211 564.4291,113.9961 564.4291,113.9961 565.0541,115.2461 565.0541,115.2461 566.3041,116.4961 566.3041,116.4961 567.5541,117.1211 567.5541,117.1211 570.0541,117.1211 570.0541,117.1211 571.3041,116.4961 571.3041,116.4961 572.5541,115.2461 572.5541,115.2461 573.1791,113.9961 573.1791,113.9961 573.8041,112.1211 573.8041,112.1211 573.8041,108.9961 573.8041,108.9961 573.1791,107.1211 573.1791,107.1211 572.5541,105.8711 572.5541,105.8711 571.3041,104.6211 571.3041,104.6211 570.0541,103.9961 570.0541,103.9961"/>
    <polygon points="699.2126,92.5984 699.2126,130.3937 699.2126,130.3937 737.0079,130.3937 737.0079,130.3937 737.0079,92.5984 737.0079,92.5984"/>
    <polygon points="703.6024,94.5177 702.6649,94.8302 702.6649,94.8302 702.3524,95.4552 702.3524,95.4552 702.3524,96.0802 702.3524,96.0802 702.6649,96.7052 702.6649,96.7052 703.2899,97.0177 703.2899,97.0177 704.5399,97.3302 704.5399,97.3302 705.4774,97.6427 705.4774,97.6427 706.1024,98.2677 706.1024,98.2677 706.4149,98.8927 706.4149,98.8927 706.4149,99.8302 706.4149,99.8302 706.1024,100.4552 706.1024,100.4552 705.7899,100.7677 705.7899,100.7677 704.8524,101.0802 704.8524,101.0802 703.6024,101.0802 703.6024,101.0802 702.6649,100.7677 702.6649,100.7677 702.3524,100.4552 702.3524,100.4552 702.0399,99.8302 702.0399,99.8302 702.0399,98.8927 702.0399,98.8927 702.3524,98.2677 702.3524,98.2677 702.9774,97.6427 702.9774,97.6427 703.9149,97.3302 703.9149,97.3302 705.1649,97.0177 705.1649,97.0177 705.7899,96.7052 705.7899,96.7052 706.1024,96.0802 706.1024,96.0802 706.1024,95.4552 706.1024,95.4552 705.7899,94.8302 705.7899,94.8302 704.8524,94.5177 704.8524,94.5177"/>
    <polyline points="724.6727,107.1211 724.0477,105.8711 724.0477,105.8711 722.7977,104.6211 722.7977,104.6211 721.5477,103.9961 721.5477,103.9961 719.0477,103.9961 719.0477,103.9961 717.7977,104.6211 717.7977,104.6211 716.5477,105.8711 716.5477,105.8711 715.9227,107.1211 715.9227,107.1211 715.2977,108.9961 715.2977,108.9961 715.2977,112.1211 715.2977,112.1211 715.9227,113.9961 715.9227,113.9961 716.5477,115.2461 716.5477,115.2461 717.7977,116.4961 717.7977,116.4961 719.0477,117.1211 719.0477,117.1211 721.5477,117.1211 721.5477,117.1211 722.7977,116.4961 722.7977,116.4961 724.0477,115.2461 724.0477,115.2461 724.6727,113.9961 724.6727,113.9961 724.6727,112.1211 724.6727,112.1211 721.5477,112.1211"/>
    <polyline points="25.7874,134.5005 25.4749,135.438 25.4749,135.438 24.8499,136.063 24.8499,136.063 23.9124,136.3755 23.9124,136.3755 23.5999,136.3755 23.5999,136.3755 22.6624,136.063 22.6624,136.063 22.0374,135.438 22.0374,135.438 21.7249,134.5005 21.7249,134.5005 21.7249,134.188 21.7249,134.188 22.0374,133.2505 22.0374,133.2505 22.6624,132.6255 22.6624,132.6255 23.5999,132.313 23.5999,132.313 23.9124,132.313 23.9124,132.313 24.8499,132.6255 24.8499,132.6255 25.4749,133.2505 25.4749,133.2505 25.7874,134.5005 25.7874,134.5005 25.7874,136.063 25.7874,136.063 25.4749,137.6255 25.4749,137.6255 24.8499,138.563 24.8499,138.563 23.9124,138.8755 23.9124,138.8755 23.2874,138.8755 23.2874,138.8755 22.3499,138.563 22.3499,138.563 22.0374,137.938"/>
    <polyline points="44.3578,141.7913 36.2328,141.7913 36.2328,141.7913 36.2328,154.9163"/>
    <line x1="36.2328" x2="41.2328" y1="148.0413" y2="148.0413"/>
    <polyline points="170.0787,168.189 132.2835,168.189 132.2835,168.189 132.2835,205.9843 132.2835,205.9843 132.2835,243.7795 132.2835,243.7795 94.4882,243.7795 94.4882,243.7795 94.4882,205.9843 94.4882,205.9843 56.6929,205.9843 56.6929,205.9843 56.6929,168.189 56.6929,168.189 94.4882,168.189 94.4882,168.189 132.2835,168.189 132.2835,168.189 132.2835,130.3937 132.2835,130.3937 94.4882,130.3937 94.4882,130.3937 94.4882,168.189 94.4882,168.189 94.4882,205.9843 94.4882,205.9843 132.2835,205.9843 132.2835,205.9843 170.0787,205.9843 170.0787,205.9843 170.0787,168.189 170.0787,168.189 170.0787,130.3937"/>
    <line x1="78.0906" x2="78.0906" y1="141.7913" y2="154.9163"/>
    <polyline points="112.1358,141.7913 112.1358,154.9163 112.1358,154.9163 119.6358,154.9163"/>
    <polyline points="157.7436,141.7913 149.6186,141.7913 149.6186,141.7913 149.6186,154.9163 149.6186,154.9163 157.7436,154.9163"/>
    <line x1="149.6186" x2="154.6186" y1="148.0413" y2="148.0413"/>
    <polygon points="262.6919,141.7913 262.6919,154.9163 262.6919,154.9163 267.0669,154.9163 267.0669,154.9163 268.9419,154.2913 268.9419,154.2913 270.1919,153.0413 270.1919,153.0413 270.8169,151.7913 270.8169,151.7913 271.4419,149.9163 271.4419,149.9163 271.4419,146.7913 271.4419,146.7913 270.8169,144.9163 270.8169,144.9163 270.1919,143.6663 270.1919,143.6663 268.9419,142.4163 268.9419,142.4163 267.0669,141.7913 267.0669,141.7913"/>
    <polyline points="396.8504,130.3937 396.8504,168.189 396.8504,168.189 434.6457,168.189 434.6457,168.189 434.6457,130.3937"/>
    <polyline points="414.498,141.7913 414.498,154.9163 414.498,154.9163 421.998,154.9163"/>
    <polygon points="510.2362,130.3937 510.2362,168.189 510.2362,168.189 548.0315,168.189 548.0315,168.189 548.0315,130.3937 548.0315,130.3937"/>
    <polyline points="514.001,133.563 514.626,133.2505 514.626,133.2505 515.5635,132.313 515.5635,132.313 515.5635,138.8755"/>
    <polygon points="521.1885,132.313 520.251,132.6255 520.251,132.6255 519.626,133.563 519.626,133.563 519.3135,135.1255 519.3135,135.1255 519.3135,136.063 519.3135,136.063 519.626,137.6255 519.626,137.6255 520.251,138.563 520.251,138.563 521.1885,138.8755 521.1885,138.8755 521.8135,138.8755 521.8135,138.8755 522.751,138.563 522.751,138.563 523.376,137.6255 523.376,137.6255 523.6885,136.063 523.6885,136.063 523.6885,135.1255 523.6885,135.1255 523.376,133.563 523.376,133.563 522.751,132.6255 522.751,132.6255 521.8135,132.313 521.8135,132.313"/>
    <polyline points="527.2589,148.0413 532.8839,148.0413 532.8839,148.0413 534.7589,147.4163 534.7589,147.4163 535.3839,146.7913 535.3839,146.7913 536.0089,145.5413 536.0089,145.5413 536.0089,144.2913 536.0089,144.2913 535.3839,143.0413 535.3839,143.0413 534.7589,142.4163 534.7589,142.4163 532.8839,141.7913 532.8839,141.7913 527.2589,141.7913 527.2589,141.7913 527.2589,154.9163"/>
    <line x1="531.6339" x2="536.0089" y1="148.0413" y2="154.9163"/>
    <polyline points="661.4173,130.3937 661.4173,168.189 661.4173,168.189 661.4173,205.9843 661.4173,205.9843 661.4173,243.7795 661.4173,243.7795 623.622,243.7795 623.622,243.7795 623.622,205.9843 623.622,205.9843 623.622,168.189 623.622,168.189 585.8268,168.189 585.8268,168.189 585.8268,205.9843 585.8268,205.9843 548.0315,205.9843 548.0315,205.9843 548.0315,168.189 548.0315,168.189 585.8268,168.189 585.8268,168.189 585.8268,130.3937 585.8268,130.3937 623.622,130.3937 623.622,130.3937 623.622,168.189 623.622,168.189 661.4173,168.189 661.4173,168.189 699.2126,168.189 699.2126,168.189 699.2126,130.3937 699.2126,130.3937 661.4173,130.3937 661.4173,130.3937 623.622,130.3937"/>
    <polyline points="573.4916,141.7913 565.3666,141.7913 565.3666,141.7913 565.3666,154.9163 565.3666,154.9163 573.4916,154.9163"/>
    <line x1="565.3666" x2="570.3666" y1="148.0413" y2="148.0413"/>
    <polyline points="610.9744,143.6663 609.7244,142.4163 609.7244,142.4163 607.8494,141.7913 607.8494,141.7913 605.3494,141.7913 605.3494,141.7913 603.4744,142.4163 603.4744,142.4163 602.2244,143.6663 602.2244,143.6663 602.2244,144.9163 602.2244,144.9163 602.8494,146.1663 602.8494,146.1663 603.4744,146.7913 603.4744,146.7913 604.7244,147.4163 604.7244,147.4163 608.4744,148.6663 608.4744,148.6663 609.7244,149.2913 609.7244,149.2913 610.3494,149.9163 610.3494,149.9163 610.9744,151.1663 610.9744,151.1663 610.9744,153.0413 610.9744,153.0413 609.7244,154.2913 609.7244,154.2913 607.8494,154.9163 607.8494,154.9163 605.3494,154.9163 605.3494,154.9163 603.4744,154.2913 603.4744,154.2913 602.2244,153.0413"/>
    <polyline points="627.3868,133.563 628.0118,133.2505 628.0118,133.2505 628.9493,132.313 628.9493,132.313 628.9493,138.8755"/>
    <polyline points="633.6368,133.563 634.2618,133.2505 634.2618,133.2505 635.1993,132.313 635.1993,132.313 635.1993,138.8755"/>
    <line x1="643.1447" x2="643.1447" y1="141.7913" y2="154.9163"/>
    <line x1="638.7697" x2="647.5197" y1="141.7913" y2="141.7913"/>
    <polyline points="684.69,141.7913 684.69,151.7913 684.69,151.7913 684.065,153.6663 684.065,153.6663 683.44,154.2913 683.44,154.2913 682.19,154.9163 682.19,154.9163 680.94,154.9163 680.94,154.9163 679.69,154.2913 679.69,154.2913 679.065,153.6663 679.065,153.6663 678.44,151.7913 678.44,151.7913 678.44,150.5413"/>
    <polyline points="699.2126,205.9843 699.2126,168.189 699.2126,168.189 737.0079,168.189 737.0079,168.189 737.0079,130.3937 737.0079,130.3937 774.8031,130.3937 774.8031,130.3937 774.8031,168.189 774.8031,168.189 737.0079,168.189 737.0079,168.189 737.0079,205.9843 737.0079,205.9843 699.2126,205.9843 699.2126,205.9843 699.2126,243.7795 699.2126,243.7795 737.0079,243.7795 737.0079,243.7795 737.0079,205.9843"/>
    <polyline points="724.6727,141.7913 716.5477,141.7913 716.5477,141.7913 716.5477,154.9163 716.5477,154.9163 724.6727,154.9163"/>
    <line x1="716.5477" x2="721.5477" y1="148.0413" y2="148.0413"/>
    <polyline points="762.1555,143.6663 760.9055,142.4163 760.9055,142.4163 759.0305,141.7913 759.0305,141.7913 756.5305,141.7913 756.5305,141.7913 754.6555,142.4163 754.6555,142.4163 753.4055,143.6663 753.4055,143.6663 753.4055,144.9163 753.4055,144.9163 754.0305,146.1663 754.0305,146.1663 754.6555,146.7913 754.6555,146.7913 755.9055,147.4163 755.9055,147.4163 759.6555,148.6663 759.6555,148.6663 760.9055,149.2913 760.9055,149.2913 761.5305,149.9163 761.5305,149.9163 762.1555,151.1663 762.1555,151.1663 762.1555,153.0413 762.1555,153.0413 760.9055,154.2913 760.9055,154.2913 759.0305,154.9163 759.0305,154.9163 756.5305,154.9163 756.5305,154.9163 754.6555,154.2913 754.6555,154.2913 753.4055,153.0413"/>
    <polyline points="82.1531,179.5866 74.0281,179.5866 74.0281,179.5866 74.0281,192.7116 74.0281,192.7116 82.1531,192.7116"/>
    <line x1="74.0281" x2="79.0281" y1="185.8366" y2="185.8366"/>
    <polyline points="149.9311,179.5866 149.9311,192.7116 149.9311,192.7116 157.4311,192.7116"/>
    <polyline points="245.6693,168.189 245.6693,205.9843 245.6693,205.9843 283.4646,205.9843 283.4646,205.9843 283.4646,168.189"/>
    <polygon points="262.6919,179.5866 262.6919,192.7116 262.6919,192.7116 267.0669,192.7116 267.0669,192.7116 268.9419,192.0866 268.9419,192.0866 270.1919,190.8366 270.1919,190.8366 270.8169,189.5866 270.8169,189.5866 271.4419,187.7116 271.4419,187.7116 271.4419,184.5866 271.4419,184.5866 270.8169,182.7116 270.8169,182.7116 270.1919,181.4616 270.1919,181.4616 268.9419,180.2116 268.9419,180.2116 267.0669,179.5866 267.0669,179.5866"/>
    <polygon points="359.0551,168.189 359.0551,205.9843 359.0551,205.9843 321.2598,205.9843 321.2598,205.9843 283.4646,205.9843 283.4646,205.9843 283.4646,243.7795 283.4646,243.7795 321.2598,243.7795 321.2598,243.7795 359.0551,243.7795 359.0551,243.7795 359.0551,205.9843 359.0551,205.9843 396.8504,205.9843 396.8504,205.9843 434.6457,205.9843 434.6457,205.9843 434.6457,168.189 434.6457,168.189 472.4409,168.189 472.4409,168.189 472.4409,205.9843 472.4409,205.9843 472.4409,243.7795 472.4409,243.7795 510.2362,243.7795 510.2362,243.7795 510.2362,205.9843 510.2362,205.9843 472.4409,205.9843 472.4409,205.9843 434.6457,205.9843 434.6457,205.9843 434.6457,243.7795 434.6457,243.7795 396.8504,243.7795 396.8504,243.7795 396.8504,205.9843 396.8504,205.9843 396.8504,168.189 396.8504,168.189"/>
    <polyline points="362.8199,171.3583 363.4449,171.0458 363.4449,171.0458 364.3824,170.1083 364.3824,170.1083 364.3824,176.6708"/>
    <polyline points="368.4449,171.6708 368.4449,171.3583 368.4449,171.3583 368.7574,170.7333 368.7574,170.7333 369.0699,170.4208 369.0699,170.4208 369.6949,170.1083 369.6949,170.1083 370.9449,170.1083 370.9449,170.1083 371.5699,170.4208 371.5699,170.4208 371.8824,170.7333 371.8824,170.7333 372.1949,171.3583 372.1949,171.3583 372.1949,171.9833 372.1949,171.9833 371.8824,172.6083 371.8824,172.6083 371.2574,173.5458 371.2574,173.5458 368.1324,176.6708 368.1324,176.6708 372.5074,176.6708"/>
    <polyline points="373.5778,179.5866 378.5778,192.7116 378.5778,192.7116 383.5778,179.5866"/>
    <line x1="418.248" x2="418.248" y1="179.5866" y2="192.7116"/>
    <polyline points="460.1058,182.7116 459.4808,181.4616 459.4808,181.4616 458.2308,180.2116 458.2308,180.2116 456.9808,179.5866 456.9808,179.5866 454.4808,179.5866 454.4808,179.5866 453.2308,180.2116 453.2308,180.2116 451.9808,181.4616 451.9808,181.4616 451.3558,182.7116 451.3558,182.7116 450.7308,184.5866 450.7308,184.5866 450.7308,187.7116 450.7308,187.7116 451.3558,189.5866 451.3558,189.5866 451.9808,190.8366 451.9808,190.8366 453.2308,192.0866 453.2308,192.0866 454.4808,192.7116 454.4808,192.7116 456.9808,192.7116 456.9808,192.7116 458.2308,192.0866 458.2308,192.0866 459.4808,190.8366 459.4808,190.8366 460.1058,189.5866"/>
    <line x1="565.0541" x2="565.0541" y1="179.5866" y2="192.7116"/>
    <line x1="573.8041" x2="565.0541" y1="179.5866" y2="188.3366"/>
    <line x1="568.1791" x2="573.8041" y1="185.2116" y2="192.7116"/>
    <line x1="623.622" x2="661.4173" y1="205.9843" y2="205.9843"/>
    <polyline points="649.0822,179.5866 640.9572,179.5866 640.9572,179.5866 640.9572,192.7116 640.9572,192.7116 649.0822,192.7116"/>
    <line x1="640.9572" x2="645.9572" y1="185.8366" y2="185.8366"/>
    <polyline points="716.2352,185.8366 721.8602,185.8366 721.8602,185.8366 723.7352,185.2116 723.7352,185.2116 724.3602,184.5866 724.3602,184.5866 724.9852,183.3366 724.9852,183.3366 724.9852,182.0866 724.9852,182.0866 724.3602,180.8366 724.3602,180.8366 723.7352,180.2116 723.7352,180.2116 721.8602,179.5866 721.8602,179.5866 716.2352,179.5866 716.2352,179.5866 716.2352,192.7116"/>
    <line x1="720.6102" x2="724.9852" y1="185.8366" y2="192.7116"/>
    <polyline points="56.6929,205.9843 56.6929,243.7795 56.6929,243.7795 94.4882,243.7795 94.4882,243.7795 94.4882,281.5748 94.4882,281.5748 56.6929,281.5748 56.6929,281.5748 56.6929,319.3701 56.6929,319.3701 56.6929,357.1654 56.6929,357.1654 94.4882,357.1654 94.4882,357.1654 94.4882,319.3701 94.4882,319.3701 94.4882,281.5748"/>
    <polyline points="60.4577,209.1535 61.0827,208.841 61.0827,208.841 62.0202,207.9035 62.0202,207.9035 62.0202,214.466"/>
    <polyline points="66.3952,207.9035 69.8327,207.9035 69.8327,207.9035 67.9577,210.4035 67.9577,210.4035 68.8952,210.4035 68.8952,210.4035 69.5202,210.716 69.5202,210.716 69.8327,211.0285 69.8327,211.0285 70.1452,211.966 70.1452,211.966 70.1452,212.591 70.1452,212.591 69.8327,213.5285 69.8327,213.5285 69.2077,214.1535 69.2077,214.1535 68.2702,214.466 68.2702,214.466 67.3327,214.466 67.3327,214.466 66.3952,214.1535 66.3952,214.1535 66.0827,213.841 66.0827,213.841 65.7702,213.216"/>
    <line x1="76.2156" x2="76.2156" y1="217.3819" y2="230.5069"/>
    <line x1="71.8406" x2="80.5906" y1="217.3819" y2="217.3819"/>
    <polyline points="119.9483,217.3819 111.8233,217.3819 111.8233,217.3819 111.8233,230.5069 111.8233,230.5069 119.9483,230.5069"/>
    <line x1="111.8233" x2="116.8233" y1="223.6319" y2="223.6319"/>
    <polyline points="132.2835,281.5748 132.2835,243.7795 132.2835,243.7795 170.0787,243.7795 170.0787,243.7795 207.874,243.7795 207.874,243.7795 245.6693,243.7795 245.6693,243.7795 245.6693,205.9843 245.6693,205.9843 207.874,205.9843 207.874,205.9843 170.0787,205.9843 170.0787,205.9843 170.0787,243.7795 170.0787,243.7795 170.0787,281.5748 170.0787,281.5748 132.2835,281.5748 132.2835,281.5748 132.2835,319.3701 132.2835,319.3701 170.0787,319.3701 170.0787,319.3701 170.0787,281.5748"/>
    <polyline points="149.9311,217.3819 149.9311,230.5069 149.9311,230.5069 157.4311,230.5069"/>
    <line x1="207.874" x2="207.874" y1="243.7795" y2="205.9843"/>
    <polyline points="195.5389,217.3819 187.4139,217.3819 187.4139,217.3819 187.4139,230.5069 187.4139,230.5069 195.5389,230.5069"/>
    <line x1="187.4139" x2="192.4139" y1="223.6319" y2="223.6319"/>
    <polyline points="233.3342,217.3819 225.2092,217.3819 225.2092,217.3819 225.2092,230.5069"/>
    <line x1="225.2092" x2="230.2092" y1="223.6319" y2="223.6319"/>
    <polyline points="245.6693,243.7795 283.4646,243.7795 283.4646,243.7795 283.4646,281.5748 283.4646,281.5748 245.6693,281.5748 245.6693,281.5748 245.6693,243.7795"/>
    <polygon points="265.1919,217.3819 263.9419,218.0069 263.9419,218.0069 262.6919,219.2569 262.6919,219.2569 262.0669,220.5069 262.0669,220.5069 261.4419,222.3819 261.4419,222.3819 261.4419,225.5069 261.4419,225.5069 262.0669,227.3819 262.0669,227.3819 262.6919,228.6319 262.6919,228.6319 263.9419,229.8819 263.9419,229.8819 265.1919,230.5069 265.1919,230.5069 267.6919,230.5069 267.6919,230.5069 268.9419,229.8819 268.9419,229.8819 270.1919,228.6319 270.1919,228.6319 270.8169,227.3819 270.8169,227.3819 271.4419,225.5069 271.4419,225.5069 271.4419,222.3819 271.4419,222.3819 270.8169,220.5069 270.8169,220.5069 270.1919,219.2569 270.1919,219.2569 268.9419,218.0069 268.9419,218.0069 267.6919,217.3819 267.6919,217.3819"/>
    <line x1="321.2598" x2="321.2598" y1="243.7795" y2="205.9843"/>
    <polygon points="302.9872,217.3819 301.7372,218.0069 301.7372,218.0069 300.4872,219.2569 300.4872,219.2569 299.8622,220.5069 299.8622,220.5069 299.2372,222.3819 299.2372,222.3819 299.2372,225.5069 299.2372,225.5069 299.8622,227.3819 299.8622,227.3819 300.4872,228.6319 300.4872,228.6319 301.7372,229.8819 301.7372,229.8819 302.9872,230.5069 302.9872,230.5069 305.4872,230.5069 305.4872,230.5069 306.7372,229.8819 306.7372,229.8819 307.9872,228.6319 307.9872,228.6319 308.6122,227.3819 308.6122,227.3819 309.2372,225.5069 309.2372,225.5069 309.2372,222.3819 309.2372,222.3819 308.6122,220.5069 308.6122,220.5069 307.9872,219.2569 307.9872,219.2569 306.7372,218.0069 306.7372,218.0069 305.4872,217.3819 305.4872,217.3819"/>
    <polyline points="347.0325,217.3819 347.0325,230.5069 347.0325,230.5069 338.2825,217.3819 338.2825,217.3819 338.2825,230.5069"/>
    <line x1="413.873" x2="413.873" y1="217.3819" y2="230.5069"/>
    <line x1="422.623" x2="413.873" y1="217.3819" y2="226.1319"/>
    <line x1="416.998" x2="422.623" y1="223.0069" y2="230.5069"/>
    <polyline points="476.2057,209.1535 476.8307,208.841 476.8307,208.841 477.7682,207.9035 477.7682,207.9035 477.7682,214.466"/>
    <polyline points="484.6432,214.466 484.6432,207.9035 484.6432,207.9035 481.5182,212.2785 481.5182,212.2785 486.2057,212.2785"/>
    <polyline points="497.5886,219.2569 496.3386,218.0069 496.3386,218.0069 494.4636,217.3819 494.4636,217.3819 491.9636,217.3819 491.9636,217.3819 490.0886,218.0069 490.0886,218.0069 488.8386,219.2569 488.8386,219.2569 488.8386,220.5069 488.8386,220.5069 489.4636,221.7569 489.4636,221.7569 490.0886,222.3819 490.0886,222.3819 491.3386,223.0069 491.3386,223.0069 495.0886,224.2569 495.0886,224.2569 496.3386,224.8819 496.3386,224.8819 496.9636,225.5069 496.9636,225.5069 497.5886,226.7569 497.5886,226.7569 497.5886,228.6319 497.5886,228.6319 496.3386,229.8819 496.3386,229.8819 494.4636,230.5069 494.4636,230.5069 491.9636,230.5069 491.9636,230.5069 490.0886,229.8819 490.0886,229.8819 488.8386,228.6319"/>
    <polyline points="548.0315,205.9843 548.0315,243.7795 548.0315,243.7795 585.8268,243.7795 585.8268,243.7795 585.8268,205.9843"/>
    <polyline points="564.4291,217.3819 573.1791,217.3819 573.1791,217.3819 564.4291,230.5069 564.4291,230.5069 573.1791,230.5069"/>
    <polyline points="640.6447,223.6319 646.2697,223.6319 646.2697,223.6319 648.1447,223.0069 648.1447,223.0069 648.7697,222.3819 648.7697,222.3819 649.3947,221.1319 649.3947,221.1319 649.3947,219.8819 649.3947,219.8819 648.7697,218.6319 648.7697,218.6319 648.1447,218.0069 648.1447,218.0069 646.2697,217.3819 646.2697,217.3819 640.6447,217.3819 640.6447,217.3819 640.6447,230.5069"/>
    <line x1="645.0197" x2="649.3947" y1="223.6319" y2="230.5069"/>
    <line x1="718.7352" x2="718.7352" y1="217.3819" y2="230.5069"/>
    <line x1="714.3602" x2="723.1102" y1="217.3819" y2="217.3819"/>
    <line x1="56.6929" x2="56.6929" y1="243.7795" y2="281.5748"/>
    <polyline points="79.9656,255.1772 79.9656,265.1772 79.9656,265.1772 79.3406,267.0522 79.3406,267.0522 78.7156,267.6772 78.7156,267.6772 77.4656,268.3022 77.4656,268.3022 76.2156,268.3022 76.2156,268.3022 74.9656,267.6772 74.9656,267.6772 74.3406,267.0522 74.3406,267.0522 73.7156,265.1772 73.7156,265.1772 73.7156,263.9272"/>
    <polyline points="157.7436,255.1772 149.6186,255.1772 149.6186,255.1772 149.6186,268.3022 149.6186,268.3022 157.7436,268.3022"/>
    <line x1="149.6186" x2="154.6186" y1="261.4272" y2="261.4272"/>
    <polyline points="271.1294,255.1772 263.0044,255.1772 263.0044,255.1772 263.0044,268.3022 263.0044,268.3022 271.1294,268.3022"/>
    <line x1="263.0044" x2="268.0044" y1="261.4272" y2="261.4272"/>
    <polyline points="396.8504,243.7795 396.8504,281.5748 396.8504,281.5748 434.6457,281.5748 434.6457,281.5748 434.6457,243.7795"/>
    <line x1="413.873" x2="413.873" y1="255.1772" y2="268.3022"/>
    <line x1="422.623" x2="413.873" y1="255.1772" y2="263.9272"/>
    <line x1="416.998" x2="422.623" y1="260.8022" y2="268.3022"/>
    <polyline points="472.4409,243.7795 472.4409,281.5748 472.4409,281.5748 510.2362,281.5748 510.2362,281.5748 510.2362,243.7795"/>
    <line x1="491.9636" x2="491.9636" y1="255.1772" y2="268.3022"/>
    <line x1="487.5886" x2="496.3386" y1="255.1772" y2="255.1772"/>
    <polyline points="548.0315,243.7795 548.0315,281.5748 548.0315,281.5748 585.8268,281.5748 585.8268,281.5748 585.8268,243.7795"/>
    <polyline points="572.5541,268.3022 567.5541,255.1772 567.5541,255.1772 562.5541,268.3022"/>
    <line x1="564.4291" x2="570.6791" y1="263.9272" y2="263.9272"/>
    <polyline points="623.622,243.7795 623.622,281.5748 623.622,281.5748 623.622,319.3701 623.622,319.3701 623.622,357.1654 623.622,357.1654 661.4173,357.1654 661.4173,357.1654 661.4173,319.3701 661.4173,319.3701 661.4173,281.5748 661.4173,281.5748 661.4173,243.7795"/>
    <line x1="623.622" x2="661.4173" y1="281.5748" y2="281.5748"/>
    <polyline points="640.6447,261.4272 646.2697,261.4272 646.2697,261.4272 648.1447,260.8022 648.1447,260.8022 648.7697,260.1772 648.7697,260.1772 649.3947,258.9272 649.3947,258.9272 649.3947,257.6772 649.3947,257.6772 648.7697,256.4272 648.7697,256.4272 648.1447,255.8022 648.1447,255.8022 646.2697,255.1772 646.2697,255.1772 640.6447,255.1772 640.6447,255.1772 640.6447,268.3022"/>
    <line x1="645.0197" x2="649.3947" y1="261.4272" y2="268.3022"/>
    <polyline points="699.2126,243.7795 699.2126,281.5748 699.2126,281.5748 737.0079,281.5748 737.0079,281.5748 774.8031,281.5748 774.8031,281.5748 774.8031,243.7795 774.8031,243.7795 737.0079,243.7795 737.0079,243.7795 737.0079,281.5748 737.0079,281.5748 737.0079,319.3701 737.0079,319.3701 737.0079,357.1654 737.0079,357.1654 699.2126,357.1654 699.2126,357.1654 699.2126,319.3701 699.2126,319.3701 737.0079,319.3701"/>
    <polyline points="702.9774,246.9488 703.6024,246.6363 703.6024,246.6363 704.5399,245.6988 704.5399,245.6988 704.5399,252.2613"/>
    <polyline points="712.0399,245.6988 708.9149,245.6988 708.9149,245.6988 708.6024,248.5113 708.6024,248.5113 708.9149,248.1988 708.9149,248.1988 709.8524,247.8863 709.8524,247.8863 710.7899,247.8863 710.7899,247.8863 711.7274,248.1988 711.7274,248.1988 712.3524,248.8238 712.3524,248.8238 712.6649,249.7613 712.6649,249.7613 712.6649,250.3863 712.6649,250.3863 712.3524,251.3238 712.3524,251.3238 711.7274,251.9488 711.7274,251.9488 710.7899,252.2613 710.7899,252.2613 709.8524,252.2613 709.8524,252.2613 708.9149,251.9488 708.9149,251.9488 708.6024,251.6363 708.6024,251.6363 708.2899,251.0113"/>
    <polyline points="722.4852,255.1772 722.4852,265.1772 722.4852,265.1772 721.8602,267.0522 721.8602,267.0522 721.2352,267.6772 721.2352,267.6772 719.9852,268.3022 719.9852,268.3022 718.7352,268.3022 718.7352,268.3022 717.4852,267.6772 717.4852,267.6772 716.8602,267.0522 716.8602,267.0522 716.2352,265.1772 716.2352,265.1772 716.2352,263.9272"/>
    <polyline points="761.5305,268.3022 756.5305,255.1772 756.5305,255.1772 751.5305,268.3022"/>
    <line x1="753.4055" x2="759.6555" y1="263.9272" y2="263.9272"/>
    <line x1="56.6929" x2="94.4882" y1="319.3701" y2="319.3701"/>
    <polyline points="82.1531,292.9724 74.0281,292.9724 74.0281,292.9724 74.0281,306.0974 74.0281,306.0974 82.1531,306.0974"/>
    <line x1="74.0281" x2="79.0281" y1="299.2224" y2="299.2224"/>
    <line x1="149.3061" x2="149.3061" y1="292.9724" y2="306.0974"/>
    <line x1="158.0561" x2="149.3061" y1="292.9724" y2="301.7224"/>
    <line x1="152.4311" x2="158.0561" y1="298.5974" y2="306.0974"/>
    <polygon points="207.874,281.5748 207.874,319.3701 207.874,319.3701 245.6693,319.3701 245.6693,319.3701 245.6693,281.5748 245.6693,281.5748"/>
    <polyline points="211.6388,284.7441 212.2638,284.4316 212.2638,284.4316 213.2013,283.4941 213.2013,283.4941 213.2013,290.0566"/>
    <polyline points="221.0138,284.4316 220.7013,283.8066 220.7013,283.8066 219.7638,283.4941 219.7638,283.4941 219.1388,283.4941 219.1388,283.4941 218.2013,283.8066 218.2013,283.8066 217.5763,284.7441 217.5763,284.7441 217.2638,286.3066 217.2638,286.3066 217.2638,287.8691 217.2638,287.8691 217.5763,289.1191 217.5763,289.1191 218.2013,289.7441 218.2013,289.7441 219.1388,290.0566 219.1388,290.0566 219.4513,290.0566 219.4513,290.0566 220.3888,289.7441 220.3888,289.7441 221.0138,289.1191 221.0138,289.1191 221.3263,288.1816 221.3263,288.1816 221.3263,287.8691 221.3263,287.8691 221.0138,286.9316 221.0138,286.9316 220.3888,286.3066 220.3888,286.3066 219.4513,285.9941 219.4513,285.9941 219.1388,285.9941 219.1388,285.9941 218.2013,286.3066 218.2013,286.3066 217.5763,286.9316 217.5763,286.9316 217.2638,287.8691"/>
    <polyline points="233.0217,294.8474 231.7717,293.5974 231.7717,293.5974 229.8967,292.9724 229.8967,292.9724 227.3967,292.9724 227.3967,292.9724 225.5217,293.5974 225.5217,293.5974 224.2717,294.8474 224.2717,294.8474 224.2717,296.0974 224.2717,296.0974 224.8967,297.3474 224.8967,297.3474 225.5217,297.9724 225.5217,297.9724 226.7717,298.5974 226.7717,298.5974 230.5217,299.8474 230.5217,299.8474 231.7717,300.4724 231.7717,300.4724 232.3967,301.0974 232.3967,301.0974 233.0217,302.3474 233.0217,302.3474 233.0217,304.2224 233.0217,304.2224 231.7717,305.4724 231.7717,305.4724 229.8967,306.0974 229.8967,306.0974 227.3967,306.0974 227.3967,306.0974 225.5217,305.4724 225.5217,305.4724 224.2717,304.2224"/>
    <polyline points="245.6693,319.3701 283.4646,319.3701 283.4646,319.3701 283.4646,281.5748 283.4646,281.5748 321.2598,281.5748 321.2598,281.5748 359.0551,281.5748 359.0551,281.5748 396.8504,281.5748 396.8504,281.5748 396.8504,319.3701 396.8504,319.3701 396.8504,357.1654 396.8504,357.1654 434.6457,357.1654 434.6457,357.1654 434.6457,319.3701 434.6457,319.3701 434.6457,281.5748 434.6457,281.5748 472.4409,281.5748 472.4409,281.5748 472.4409,319.3701 472.4409,319.3701 510.2362,319.3701 510.2362,319.3701 510.2362,281.5748"/>
    <line x1="262.6919" x2="262.6919" y1="292.9724" y2="306.0974"/>
    <line x1="271.4419" x2="262.6919" y1="292.9724" y2="301.7224"/>
    <line x1="265.8169" x2="271.4419" y1="298.5974" y2="306.0974"/>
    <polyline points="283.4646,319.3701 321.2598,319.3701 321.2598,319.3701 359.0551,319.3701 359.0551,319.3701 396.8504,319.3701 396.8504,319.3701 434.6457,319.3701 434.6457,319.3701 472.4409,319.3701 472.4409,319.3701 472.4409,357.1654 472.4409,357.1654 510.2362,357.1654 510.2362,357.1654 510.2362,319.3701"/>
    <line x1="321.2598" x2="321.2598" y1="319.3701" y2="281.5748"/>
    <polyline points="308.9247,292.9724 300.7997,292.9724 300.7997,292.9724 300.7997,306.0974 300.7997,306.0974 308.9247,306.0974"/>
    <line x1="300.7997" x2="305.7997" y1="299.2224" y2="299.2224"/>
    <line x1="359.0551" x2="359.0551" y1="319.3701" y2="281.5748"/>
    <polyline points="338.9075,292.9724 338.9075,306.0974 338.9075,306.0974 346.4075,306.0974"/>
    <polyline points="376.7028,292.9724 376.7028,306.0974 376.7028,306.0974 384.2028,306.0974"/>
    <polyline points="422.3105,292.9724 414.1855,292.9724 414.1855,292.9724 414.1855,306.0974 414.1855,306.0974 422.3105,306.0974"/>
    <line x1="414.1855" x2="419.1855" y1="299.2224" y2="299.2224"/>
    <line x1="451.6683" x2="451.6683" y1="292.9724" y2="306.0974"/>
    <line x1="460.4183" x2="451.6683" y1="292.9724" y2="301.7224"/>
    <line x1="454.7933" x2="460.4183" y1="298.5974" y2="306.0974"/>
    <polyline points="497.9011,292.9724 489.7761,292.9724 489.7761,292.9724 489.7761,306.0974 489.7761,306.0974 497.9011,306.0974"/>
    <line x1="489.7761" x2="494.7761" y1="299.2224" y2="299.2224"/>
    <polyline points="548.0315,281.5748 548.0315,319.3701 548.0315,319.3701 585.8268,319.3701 585.8268,319.3701 585.8268,281.5748"/>
    <line x1="565.0541" x2="565.0541" y1="292.9724" y2="306.0974"/>
    <line x1="573.8041" x2="565.0541" y1="292.9724" y2="301.7224"/>
    <line x1="568.1791" x2="573.8041" y1="298.5974" y2="306.0974"/>
    <line x1="623.622" x2="661.4173" y1="319.3701" y2="319.3701"/>
    <polyline points="648.1447,306.0974 643.1447,292.9724 643.1447,292.9724 638.1447,306.0974"/>
    <line x1="640.0197" x2="646.2697" y1="301.7224" y2="301.7224"/>
    <line x1="699.2126" x2="699.2126" y1="281.5748" y2="319.3701"/>
    <polyline points="723.7352,306.0974 718.7352,292.9724 718.7352,292.9724 713.7352,306.0974"/>
    <line x1="715.6102" x2="721.8602" y1="301.7224" y2="301.7224"/>
    <polyline points="81.8406,332.6427 80.5906,331.3927 80.5906,331.3927 78.7156,330.7677 78.7156,330.7677 76.2156,330.7677 76.2156,330.7677 74.3406,331.3927 74.3406,331.3927 73.0906,332.6427 73.0906,332.6427 73.0906,333.8927 73.0906,333.8927 73.7156,335.1427 73.7156,335.1427 74.3406,335.7677 74.3406,335.7677 75.5906,336.3927 75.5906,336.3927 79.3406,337.6427 79.3406,337.6427 80.5906,338.2677 80.5906,338.2677 81.2156,338.8927 81.2156,338.8927 81.8406,340.1427 81.8406,340.1427 81.8406,342.0177 81.8406,342.0177 80.5906,343.2677 80.5906,343.2677 78.7156,343.8927 78.7156,343.8927 76.2156,343.8927 76.2156,343.8927 74.3406,343.2677 74.3406,343.2677 73.0906,342.0177"/>
    <polyline points="132.2835,319.3701 132.2835,357.1654 132.2835,357.1654 170.0787,357.1654 170.0787,357.1654 170.0787,319.3701"/>
    <polyline points="157.7436,330.7677 149.6186,330.7677 149.6186,330.7677 149.6186,343.8927 149.6186,343.8927 157.7436,343.8927"/>
    <line x1="149.6186" x2="154.6186" y1="337.0177" y2="337.0177"/>
    <polyline points="422.623,330.7677 422.623,343.8927 422.623,343.8927 413.873,330.7677 413.873,330.7677 413.873,343.8927"/>
    <polyline points="489.4636,337.0177 495.0886,337.0177 495.0886,337.0177 496.9636,336.3927 496.9636,336.3927 497.5886,335.7677 497.5886,335.7677 498.2136,334.5177 498.2136,334.5177 498.2136,333.2677 498.2136,333.2677 497.5886,332.0177 497.5886,332.0177 496.9636,331.3927 496.9636,331.3927 495.0886,330.7677 495.0886,330.7677 489.4636,330.7677 489.4636,330.7677 489.4636,343.8927"/>
    <line x1="493.8386" x2="498.2136" y1="337.0177" y2="343.8927"/>
    <polyline points="648.7697,332.6427 647.5197,331.3927 647.5197,331.3927 645.6447,330.7677 645.6447,330.7677 643.1447,330.7677 643.1447,330.7677 641.2697,331.3927 641.2697,331.3927 640.0197,332.6427 640.0197,332.6427 640.0197,333.8927 640.0197,333.8927 640.6447,335.1427 640.6447,335.1427 641.2697,335.7677 641.2697,335.7677 642.5197,336.3927 642.5197,336.3927 646.2697,337.6427 646.2697,337.6427 647.5197,338.2677 647.5197,338.2677 648.1447,338.8927 648.1447,338.8927 648.7697,340.1427 648.7697,340.1427 648.7697,342.0177 648.7697,342.0177 647.5197,343.2677 647.5197,343.2677 645.6447,343.8927 645.6447,343.8927 643.1447,343.8927 643.1447,343.8927 641.2697,343.2677 641.2697,343.2677 640.0197,342.0177"/>
    <polyline points="724.9852,330.7677 724.9852,343.8927 724.9852,343.8927 716.2352,330.7677 716.2352,330.7677 716.2352,343.8927"/>
  </g>
</svg>
