<?xml version="1.0" encoding="utf-8" ?>
<svg xmlns="http://www.w3.org/2000/svg" xmlns:cc="http://creativecommons.org/ns" xmlns:dc="http://purl.org/dc/elements/1.1/" xmlns:ev="http://www.w3.org/2001/xml-events" xmlns:inkscape="http://www.inkscape.org/namespaces/inkscape" xmlns:rdf="http://www.w3.org/1999/02/22-rdf-syntax-ns" xmlns:sodipodi="http://sodipodi.sourceforge.net/DTD/sodipodi-0.dtd" xmlns:xlink="http://www.w3.org/1999/xlink" baseProfile="tiny" height="9.9cm" version="1.2" viewBox="0 0 793.7007874015749 374.1732283464567" width="21.0cm">
  <metadata>
    <rdf:RDF>
      <cc:Work>
        <dc:format>image/svg+xml</dc:format>
        <dc:source>vpype eval 'cell=10;width=210;height=99' eval 'nCols=20;nRows=9' eval 'cells=[1,4,6,7,8,9,10,11,12,13,16,20,21,22,23,24,25,27,36,38,41,44,47,48,50,56,58,61,64,67,69,70,71,72,73,74,75,76,77,78,80,81,84,87,90,94,98,101,104,107,110,113,114,115,116,117,118,119,120,121,122,123,124,125,126,127,128,129,130,134,138,141,144,147,155,156,157,158,159,161,166,167,168,169,170,171,172,173,174,178]' eval 'chars=[&quot;M&quot;,&quot;H&quot;,&quot;S&quot;,&quot;K&quot;,&quot;E&quot;,&quot;L&quot;,&quot;L&quot;,&quot;E&quot;,&quot;K&quot;,&quot;E&quot;,&quot;B&quot;,&quot;P&quot;,&quot;A&quot;,&quot;S&quot;,&quot;C&quot;,&quot;A&quot;,&quot;L&quot;,&quot;L&quot;,&quot;A&quot;,&quot;B&quot;,&quot;N&quot;,&quot;N&quot;,&quot;A&quot;,&quot;N&quot;,&quot;B&quot;,&quot;V&quot;,&quot;R&quot;,&quot;D&quot;,&quot;D&quot;,&quot;V&quot;,&quot;G&quot;,&quot;R&quot;,&quot;O&quot;,&quot;E&quot;,&quot;P&quot;,&quot;S&quot;,&quot;F&quot;,&quot;O&quot;,&quot;T&quot;,&quot;O&quot;,&quot;J&quot;,&quot;A&quot;,&quot;D&quot;,&quot;E&quot;,&quot;O&quot;,&quot;T&quot;,&quot;E&quot;,&quot;R&quot;,&quot;O&quot;,&quot;R&quot;,&quot;O&quot;,&quot;V&quot;,&quot;E&quot;,&quot;L&quot;,&quot;L&quot;,&quot;E&quot;,&quot;K&quot;,&quot;E&quot;,&quot;M&quot;,&quot;I&quot;,&quot;S&quot;,&quot;V&quot;,&quot;E&quot;,&quot;R&quot;,&quot;S&quot;,&quot;T&quot;,&quot;A&quot;,&quot;N&quot;,&quot;D&quot;,&quot;R&quot;,&quot;Z&quot;,&quot;J&quot;,&quot;K&quot;,&quot;J&quot;,&quot;G&quot;,&quot;R&quot;,&quot;A&quot;,&quot;A&quot;,&quot;T&quot;,&quot;N&quot;,&quot;R&quot;,&quot;E&quot;,&quot;K&quot;,&quot;K&quot;,&quot;E&quot;,&quot;R&quot;,&quot;T&quot;,&quot;J&quot;,&quot;E&quot;,&quot;K&quot;]' eval 'numbers=[1,4,6,7,16,20,38,47,50,69,74,80,113,120,155,166]' eval counter=1 eval charIndex=0 begin grid -o '%cell*mm%' '%cell*mm%' %nCols% %nRows% eval '%isCell=_i in cells%' eval '%number=_i in numbers%' eval '%size=10 if isCell else 0%' rect 0 0 '%size*mm%' '%size*mm%' text -s 10 -p 0.5mm 1.5mm '%counter if number else '&quot;'&quot;''&quot;'&quot;'%' text -s 20 -p 5mm 5mm -a center '%chars[charIndex] if isCell else '&quot;'&quot;''&quot;'&quot;'%' eval '%if number: counter+=1 %' eval '%if isCell: charIndex+=1 %' end splitall deduplicate linemerge --tolerance 0.1mm write -m none --page-size '%width*mm%x%height*mm%' --center ./svgs/solution/37e645.svg
</dc:source>
        <dc:date>2023-12-23T22:30:06.869082</dc:date>
      </cc:Work>
    </rdf:RDF>
  </metadata>
  <defs/>
  <g fill="none" id="layer1" inkscape:groupmode="layer" inkscape:label="1" stroke="#000000" style="display:inline">
    <polygon points="56.6929,17.0079 56.6929,54.8031 56.6929,54.8031 94.4882,54.8031 94.4882,54.8031 94.4882,17.0079 94.4882,17.0079"/>
    <polyline points="60.4577,20.1772 61.0827,19.8647 61.0827,19.8647 62.0202,18.9272 62.0202,18.9272 62.0202,25.4897"/>
    <polyline points="83.0906,41.5305 83.0906,28.4055 83.0906,28.4055 78.0906,41.5305 78.0906,41.5305 73.0906,28.4055 73.0906,28.4055 73.0906,41.5305"/>
    <polygon points="170.0787,17.0079 170.0787,54.8031 170.0787,54.8031 207.874,54.8031 207.874,54.8031 207.874,17.0079 207.874,17.0079"/>
    <polyline points="173.2185,20.4897 173.2185,20.1772 173.2185,20.1772 173.531,19.5522 173.531,19.5522 173.8435,19.2397 173.8435,19.2397 174.4685,18.9272 174.4685,18.9272 175.7185,18.9272 175.7185,18.9272 176.3435,19.2397 176.3435,19.2397 176.656,19.5522 176.656,19.5522 176.9685,20.1772 176.9685,20.1772 176.9685,20.8022 176.9685,20.8022 176.656,21.4272 176.656,21.4272 176.031,22.3647 176.031,22.3647 172.906,25.4897 172.906,25.4897 177.281,25.4897"/>
    <line x1="187.1014" x2="187.1014" y1="28.4055" y2="41.5305"/>
    <line x1="195.8514" x2="195.8514" y1="28.4055" y2="41.5305"/>
    <line x1="187.1014" x2="195.8514" y1="34.6555" y2="34.6555"/>
    <polygon points="245.6693,17.0079 245.6693,54.8031 245.6693,54.8031 283.4646,54.8031 283.4646,54.8031 321.2598,54.8031 321.2598,54.8031 359.0551,54.8031 359.0551,54.8031 359.0551,17.0079 359.0551,17.0079 321.2598,17.0079 321.2598,17.0079 283.4646,17.0079 283.4646,17.0079"/>
    <polyline points="321.2598,17.0079 321.2598,54.8031 321.2598,54.8031 321.2598,92.5984 321.2598,92.5984 321.2598,130.3937 321.2598,130.3937 283.4646,130.3937 283.4646,130.3937 283.4646,92.5984 283.4646,92.5984 283.4646,54.8031 283.4646,54.8031 283.4646,17.0079"/>
    <polyline points="249.1216,18.9272 252.5591,18.9272 252.5591,18.9272 250.6841,21.4272 250.6841,21.4272 251.6216,21.4272 251.6216,21.4272 252.2466,21.7397 252.2466,21.7397 252.5591,22.0522 252.5591,22.0522 252.8716,22.9897 252.8716,22.9897 252.8716,23.6147 252.8716,23.6147 252.5591,24.5522 252.5591,24.5522 251.9341,25.1772 251.9341,25.1772 250.9966,25.4897 250.9966,25.4897 250.0591,25.4897 250.0591,25.4897 249.1216,25.1772 249.1216,25.1772 248.8091,24.8647 248.8091,24.8647 248.4966,24.2397"/>
    <polyline points="270.8169,30.2805 269.5669,29.0305 269.5669,29.0305 267.6919,28.4055 267.6919,28.4055 265.1919,28.4055 265.1919,28.4055 263.3169,29.0305 263.3169,29.0305 262.0669,30.2805 262.0669,30.2805 262.0669,31.5305 262.0669,31.5305 262.6919,32.7805 262.6919,32.7805 263.3169,33.4055 263.3169,33.4055 264.5669,34.0305 264.5669,34.0305 268.3169,35.2805 268.3169,35.2805 269.5669,35.9055 269.5669,35.9055 270.1919,36.5305 270.1919,36.5305 270.8169,37.7805 270.8169,37.7805 270.8169,39.6555 270.8169,39.6555 269.5669,40.9055 269.5669,40.9055 267.6919,41.5305 267.6919,41.5305 265.1919,41.5305 265.1919,41.5305 263.3169,40.9055 263.3169,40.9055 262.0669,39.6555"/>
    <polyline points="289.4168,25.4897 289.4168,18.9272 289.4168,18.9272 286.2918,23.3022 286.2918,23.3022 290.9793,23.3022"/>
    <line x1="300.4872" x2="300.4872" y1="28.4055" y2="41.5305"/>
    <line x1="309.2372" x2="300.4872" y1="28.4055" y2="37.1555"/>
    <line x1="303.6122" x2="309.2372" y1="34.0305" y2="41.5305"/>
    <polyline points="346.72,28.4055 338.595,28.4055 338.595,28.4055 338.595,41.5305 338.595,41.5305 346.72,41.5305"/>
    <line x1="338.595" x2="343.595" y1="34.6555" y2="34.6555"/>
    <polyline points="359.0551,54.8031 396.8504,54.8031 396.8504,54.8031 396.8504,17.0079 396.8504,17.0079 359.0551,17.0079"/>
    <polyline points="376.7028,28.4055 376.7028,41.5305 376.7028,41.5305 384.2028,41.5305"/>
    <polyline points="396.8504,54.8031 434.6457,54.8031 434.6457,54.8031 434.6457,17.0079 434.6457,17.0079 396.8504,17.0079"/>
    <polyline points="414.498,28.4055 414.498,41.5305 414.498,41.5305 421.998,41.5305"/>
    <polyline points="434.6457,54.8031 472.4409,54.8031 472.4409,54.8031 510.2362,54.8031 510.2362,54.8031 548.0315,54.8031 548.0315,54.8031 548.0315,17.0079 548.0315,17.0079 510.2362,17.0079 510.2362,17.0079 472.4409,17.0079 472.4409,17.0079 434.6457,17.0079"/>
    <line x1="472.4409" x2="472.4409" y1="54.8031" y2="17.0079"/>
    <polyline points="460.1058,28.4055 451.9808,28.4055 451.9808,28.4055 451.9808,41.5305 451.9808,41.5305 460.1058,41.5305"/>
    <line x1="451.9808" x2="456.9808" y1="34.6555" y2="34.6555"/>
    <line x1="510.2362" x2="510.2362" y1="54.8031" y2="17.0079"/>
    <line x1="489.4636" x2="489.4636" y1="28.4055" y2="41.5305"/>
    <line x1="498.2136" x2="489.4636" y1="28.4055" y2="37.1555"/>
    <line x1="492.5886" x2="498.2136" y1="34.0305" y2="41.5305"/>
    <polyline points="535.6964,28.4055 527.5714,28.4055 527.5714,28.4055 527.5714,41.5305 527.5714,41.5305 535.6964,41.5305"/>
    <line x1="527.5714" x2="532.5714" y1="34.6555" y2="34.6555"/>
    <polygon points="623.622,17.0079 623.622,54.8031 623.622,54.8031 661.4173,54.8031 661.4173,54.8031 661.4173,17.0079 661.4173,17.0079"/>
    <polyline points="630.1993,18.9272 627.0743,18.9272 627.0743,18.9272 626.7618,21.7397 626.7618,21.7397 627.0743,21.4272 627.0743,21.4272 628.0118,21.1147 628.0118,21.1147 628.9493,21.1147 628.9493,21.1147 629.8868,21.4272 629.8868,21.4272 630.5118,22.0522 630.5118,22.0522 630.8243,22.9897 630.8243,22.9897 630.8243,23.6147 630.8243,23.6147 630.5118,24.5522 630.5118,24.5522 629.8868,25.1772 629.8868,25.1772 628.9493,25.4897 628.9493,25.4897 628.0118,25.4897 628.0118,25.4897 627.0743,25.1772 627.0743,25.1772 626.7618,24.8647 626.7618,24.8647 626.4493,24.2397"/>
    <polyline points="646.2697,34.6555 648.1447,34.0305 648.1447,34.0305 648.7697,33.4055 648.7697,33.4055 649.3947,32.1555 649.3947,32.1555 649.3947,30.9055 649.3947,30.9055 648.7697,29.6555 648.7697,29.6555 648.1447,29.0305 648.1447,29.0305 646.2697,28.4055 646.2697,28.4055 640.6447,28.4055 640.6447,28.4055 640.6447,41.5305 640.6447,41.5305 646.2697,41.5305 646.2697,41.5305 648.1447,40.9055 648.1447,40.9055 648.7697,40.2805 648.7697,40.2805 649.3947,39.0305 649.3947,39.0305 649.3947,37.1555 649.3947,37.1555 648.7697,35.9055 648.7697,35.9055 648.1447,35.2805 648.1447,35.2805 646.2697,34.6555 646.2697,34.6555 640.6447,34.6555"/>
    <polygon points="18.8976,54.8031 18.8976,92.5984 18.8976,92.5984 56.6929,92.5984 56.6929,92.5984 56.6929,130.3937 56.6929,130.3937 94.4882,130.3937 94.4882,130.3937 94.4882,92.5984 94.4882,92.5984 132.2835,92.5984 132.2835,92.5984 132.2835,54.8031 132.2835,54.8031 94.4882,54.8031 94.4882,54.8031 94.4882,92.5984 94.4882,92.5984 56.6929,92.5984 56.6929,92.5984 56.6929,54.8031 56.6929,54.8031"/>
    <polyline points="25.7874,57.6599 25.4749,57.0349 25.4749,57.0349 24.5374,56.7224 24.5374,56.7224 23.9124,56.7224 23.9124,56.7224 22.9749,57.0349 22.9749,57.0349 22.3499,57.9724 22.3499,57.9724 22.0374,59.5349 22.0374,59.5349 22.0374,61.0974 22.0374,61.0974 22.3499,62.3474 22.3499,62.3474 22.9749,62.9724 22.9749,62.9724 23.9124,63.2849 23.9124,63.2849 24.2249,63.2849 24.2249,63.2849 25.1624,62.9724 25.1624,62.9724 25.7874,62.3474 25.7874,62.3474 26.0999,61.4099 26.0999,61.4099 26.0999,61.0974 26.0999,61.0974 25.7874,60.1599 25.7874,60.1599 25.1624,59.5349 25.1624,59.5349 24.2249,59.2224 24.2249,59.2224 23.9124,59.2224 23.9124,59.2224 22.9749,59.5349 22.9749,59.5349 22.3499,60.1599 22.3499,60.1599 22.0374,61.0974"/>
    <polyline points="35.9203,73.0758 41.5453,73.0758 41.5453,73.0758 43.4203,72.4508 43.4203,72.4508 44.0453,71.8258 44.0453,71.8258 44.6703,70.5758 44.6703,70.5758 44.6703,68.7008 44.6703,68.7008 44.0453,67.4508 44.0453,67.4508 43.4203,66.8258 43.4203,66.8258 41.5453,66.2008 41.5453,66.2008 35.9203,66.2008 35.9203,66.2008 35.9203,79.3258"/>
    <polyline points="81.2156,79.3258 76.2156,66.2008 76.2156,66.2008 71.2156,79.3258"/>
    <line x1="73.0906" x2="79.3406" y1="74.9508" y2="74.9508"/>
    <polyline points="119.6358,68.0758 118.3858,66.8258 118.3858,66.8258 116.5108,66.2008 116.5108,66.2008 114.0108,66.2008 114.0108,66.2008 112.1358,66.8258 112.1358,66.8258 110.8858,68.0758 110.8858,68.0758 110.8858,69.3258 110.8858,69.3258 111.5108,70.5758 111.5108,70.5758 112.1358,71.2008 112.1358,71.2008 113.3858,71.8258 113.3858,71.8258 117.1358,73.0758 117.1358,73.0758 118.3858,73.7008 118.3858,73.7008 119.0108,74.3258 119.0108,74.3258 119.6358,75.5758 119.6358,75.5758 119.6358,77.4508 119.6358,77.4508 118.3858,78.7008 118.3858,78.7008 116.5108,79.3258 116.5108,79.3258 114.0108,79.3258 114.0108,79.3258 112.1358,78.7008 112.1358,78.7008 110.8858,77.4508"/>
    <polyline points="132.2835,92.5984 170.0787,92.5984 170.0787,92.5984 170.0787,130.3937 170.0787,130.3937 170.0787,168.189 170.0787,168.189 207.874,168.189 207.874,168.189 207.874,130.3937 207.874,130.3937 207.874,92.5984 207.874,92.5984 245.6693,92.5984 245.6693,92.5984 245.6693,54.8031 245.6693,54.8031 207.874,54.8031 207.874,54.8031 207.874,92.5984 207.874,92.5984 170.0787,92.5984 170.0787,92.5984 170.0787,54.8031 170.0787,54.8031 132.2835,54.8031"/>
    <polyline points="157.7436,69.3258 157.1186,68.0758 157.1186,68.0758 155.8686,66.8258 155.8686,66.8258 154.6186,66.2008 154.6186,66.2008 152.1186,66.2008 152.1186,66.2008 150.8686,66.8258 150.8686,66.8258 149.6186,68.0758 149.6186,68.0758 148.9936,69.3258 148.9936,69.3258 148.3686,71.2008 148.3686,71.2008 148.3686,74.3258 148.3686,74.3258 148.9936,76.2008 148.9936,76.2008 149.6186,77.4508 149.6186,77.4508 150.8686,78.7008 150.8686,78.7008 152.1186,79.3258 152.1186,79.3258 154.6186,79.3258 154.6186,79.3258 155.8686,78.7008 155.8686,78.7008 157.1186,77.4508 157.1186,77.4508 157.7436,76.2008"/>
    <polyline points="194.6014,79.3258 189.6014,66.2008 189.6014,66.2008 184.6014,79.3258"/>
    <line x1="186.4764" x2="192.7264" y1="74.9508" y2="74.9508"/>
    <polyline points="225.5217,66.2008 225.5217,79.3258 225.5217,79.3258 233.0217,79.3258"/>
    <polyline points="283.4646,92.5984 321.2598,92.5984 321.2598,92.5984 359.0551,92.5984 359.0551,92.5984 359.0551,130.3937 359.0551,130.3937 359.0551,168.189 359.0551,168.189 396.8504,168.189 396.8504,168.189 396.8504,205.9843 396.8504,205.9843 396.8504,243.7795 396.8504,243.7795 434.6457,243.7795 434.6457,243.7795 434.6457,205.9843 434.6457,205.9843 434.6457,168.189 434.6457,168.189 434.6457,130.3937 434.6457,130.3937 434.6457,92.5984 434.6457,92.5984 396.8504,92.5984 396.8504,92.5984 396.8504,130.3937 396.8504,130.3937 359.0551,130.3937 359.0551,130.3937 321.2598,130.3937 321.2598,130.3937 321.2598,168.189 321.2598,168.189 283.4646,168.189 283.4646,168.189 283.4646,205.9843 283.4646,205.9843 283.4646,243.7795 283.4646,243.7795 321.2598,243.7795 321.2598,243.7795 321.2598,205.9843 321.2598,205.9843 321.2598,168.189"/>
    <polyline points="301.1122,66.2008 301.1122,79.3258 301.1122,79.3258 308.6122,79.3258"/>
    <polyline points="623.622,54.8031 623.622,92.5984 623.622,92.5984 661.4173,92.5984 661.4173,92.5984 661.4173,54.8031"/>
    <polyline points="648.1447,79.3258 643.1447,66.2008 643.1447,66.2008 638.1447,79.3258"/>
    <line x1="640.0197" x2="646.2697" y1="74.9508" y2="74.9508"/>
    <polygon points="699.2126,54.8031 699.2126,92.5984 699.2126,92.5984 737.0079,92.5984 737.0079,92.5984 737.0079,54.8031 737.0079,54.8031"/>
    <polyline points="702.0399,56.7224 706.4149,56.7224 706.4149,56.7224 703.2899,63.2849"/>
    <polygon points="716.2352,66.2008 716.2352,79.3258 716.2352,79.3258 721.8602,79.3258 721.8602,79.3258 723.7352,78.7008 723.7352,78.7008 724.3602,78.0758 724.3602,78.0758 724.9852,76.8258 724.9852,76.8258 724.9852,74.9508 724.9852,74.9508 724.3602,73.7008 724.3602,73.7008 723.7352,73.0758 723.7352,73.0758 721.8602,72.4508 721.8602,72.4508 723.7352,71.8258 723.7352,71.8258 724.3602,71.2008 724.3602,71.2008 724.9852,69.9508 724.9852,69.9508 724.9852,68.7008 724.9852,68.7008 724.3602,67.4508 724.3602,67.4508 723.7352,66.8258 723.7352,66.8258 721.8602,66.2008 721.8602,66.2008"/>
    <line x1="716.2352" x2="721.8602" y1="72.4508" y2="72.4508"/>
    <polyline points="82.4656,103.9961 82.4656,117.1211 82.4656,117.1211 73.7156,103.9961 73.7156,103.9961 73.7156,117.1211"/>
    <line x1="170.0787" x2="207.874" y1="130.3937" y2="130.3937"/>
    <polyline points="195.8514,103.9961 195.8514,117.1211 195.8514,117.1211 187.1014,103.9961 187.1014,103.9961 187.1014,117.1211"/>
    <polygon points="287.8543,94.5177 286.9168,94.8302 286.9168,94.8302 286.6043,95.4552 286.6043,95.4552 286.6043,96.0802 286.6043,96.0802 286.9168,96.7052 286.9168,96.7052 287.5418,97.0177 287.5418,97.0177 288.7918,97.3302 288.7918,97.3302 289.7293,97.6427 289.7293,97.6427 290.3543,98.2677 290.3543,98.2677 290.6668,98.8927 290.6668,98.8927 290.6668,99.8302 290.6668,99.8302 290.3543,100.4552 290.3543,100.4552 290.0418,100.7677 290.0418,100.7677 289.1043,101.0802 289.1043,101.0802 287.8543,101.0802 287.8543,101.0802 286.9168,100.7677 286.9168,100.7677 286.6043,100.4552 286.6043,100.4552 286.2918,99.8302 286.2918,99.8302 286.2918,98.8927 286.2918,98.8927 286.6043,98.2677 286.6043,98.2677 287.2293,97.6427 287.2293,97.6427 288.1668,97.3302 288.1668,97.3302 289.4168,97.0177 289.4168,97.0177 290.0418,96.7052 290.0418,96.7052 290.3543,96.0802 290.3543,96.0802 290.3543,95.4552 290.3543,95.4552 290.0418,94.8302 290.0418,94.8302 289.1043,94.5177 289.1043,94.5177"/>
    <polyline points="307.9872,117.1211 302.9872,103.9961 302.9872,103.9961 297.9872,117.1211"/>
    <line x1="299.8622" x2="306.1122" y1="112.7461" y2="112.7461"/>
    <polyline points="347.0325,103.9961 347.0325,117.1211 347.0325,117.1211 338.2825,103.9961 338.2825,103.9961 338.2825,117.1211"/>
    <polyline points="661.4173,92.5984 661.4173,130.3937 661.4173,130.3937 699.2126,130.3937 699.2126,130.3937 699.2126,168.189 699.2126,168.189 661.4173,168.189 661.4173,168.189 623.622,168.189 623.622,168.189 585.8268,168.189 585.8268,168.189 585.8268,205.9843 585.8268,205.9843 548.0315,205.9843 548.0315,205.9843 548.0315,243.7795 548.0315,243.7795 510.2362,243.7795 510.2362,243.7795 510.2362,205.9843 510.2362,205.9843 548.0315,205.9843 548.0315,205.9843 548.0315,168.189 548.0315,168.189 510.2362,168.189 510.2362,168.189 472.4409,168.189 472.4409,168.189 434.6457,168.189 434.6457,168.189 396.8504,168.189 396.8504,168.189 396.8504,130.3937 396.8504,130.3937 434.6457,130.3937 434.6457,130.3937 472.4409,130.3937 472.4409,130.3937 510.2362,130.3937 510.2362,130.3937 548.0315,130.3937 548.0315,130.3937 548.0315,168.189 548.0315,168.189 585.8268,168.189 585.8268,168.189 585.8268,130.3937 585.8268,130.3937 548.0315,130.3937"/>
    <polyline points="403.7402,96.7052 403.4277,97.6427 403.4277,97.6427 402.8027,98.2677 402.8027,98.2677 401.8652,98.5802 401.8652,98.5802 401.5527,98.5802 401.5527,98.5802 400.6152,98.2677 400.6152,98.2677 399.9902,97.6427 399.9902,97.6427 399.6777,96.7052 399.6777,96.7052 399.6777,96.3927 399.6777,96.3927 399.9902,95.4552 399.9902,95.4552 400.6152,94.8302 400.6152,94.8302 401.5527,94.5177 401.5527,94.5177 401.8652,94.5177 401.8652,94.5177 402.8027,94.8302 402.8027,94.8302 403.4277,95.4552 403.4277,95.4552 403.7402,96.7052 403.7402,96.7052 403.7402,98.2677 403.7402,98.2677 403.4277,99.8302 403.4277,99.8302 402.8027,100.7677 402.8027,100.7677 401.8652,101.0802 401.8652,101.0802 401.2402,101.0802 401.2402,101.0802 400.3027,100.7677 400.3027,100.7677 399.9902,100.1427"/>
    <polyline points="419.498,110.2461 421.373,109.6211 421.373,109.6211 421.998,108.9961 421.998,108.9961 422.623,107.7461 422.623,107.7461 422.623,106.4961 422.623,106.4961 421.998,105.2461 421.998,105.2461 421.373,104.6211 421.373,104.6211 419.498,103.9961 419.498,103.9961 413.873,103.9961 413.873,103.9961 413.873,117.1211 413.873,117.1211 419.498,117.1211 419.498,117.1211 421.373,116.4961 421.373,116.4961 421.998,115.8711 421.998,115.8711 422.623,114.6211 422.623,114.6211 422.623,112.7461 422.623,112.7461 421.998,111.4961 421.998,111.4961 421.373,110.8711 421.373,110.8711 419.498,110.2461 419.498,110.2461 413.873,110.2461"/>
    <polyline points="623.622,92.5984 623.622,130.3937 623.622,130.3937 585.8268,130.3937"/>
    <polyline points="623.622,168.189 623.622,130.3937 623.622,130.3937 661.4173,130.3937 661.4173,130.3937 661.4173,168.189"/>
    <polyline points="638.1447,103.9961 643.1447,117.1211 643.1447,117.1211 648.1447,103.9961"/>
    <polyline points="699.2126,92.5984 699.2126,130.3937 699.2126,130.3937 737.0079,130.3937 737.0079,130.3937 737.0079,92.5984"/>
    <polyline points="716.2352,110.2461 721.8602,110.2461 721.8602,110.2461 723.7352,109.6211 723.7352,109.6211 724.3602,108.9961 724.3602,108.9961 724.9852,107.7461 724.9852,107.7461 724.9852,106.4961 724.9852,106.4961 724.3602,105.2461 724.3602,105.2461 723.7352,104.6211 723.7352,104.6211 721.8602,103.9961 721.8602,103.9961 716.2352,103.9961 716.2352,103.9961 716.2352,117.1211"/>
    <line x1="720.6102" x2="724.9852" y1="110.2461" y2="117.1211"/>
    <polyline points="56.6929,130.3937 56.6929,168.189 56.6929,168.189 94.4882,168.189 94.4882,168.189 94.4882,130.3937"/>
    <polygon points="73.7156,141.7913 73.7156,154.9163 73.7156,154.9163 78.0906,154.9163 78.0906,154.9163 79.9656,154.2913 79.9656,154.2913 81.2156,153.0413 81.2156,153.0413 81.8406,151.7913 81.8406,151.7913 82.4656,149.9163 82.4656,149.9163 82.4656,146.7913 82.4656,146.7913 81.8406,144.9163 81.8406,144.9163 81.2156,143.6663 81.2156,143.6663 79.9656,142.4163 79.9656,142.4163 78.0906,141.7913 78.0906,141.7913"/>
    <polygon points="187.1014,141.7913 187.1014,154.9163 187.1014,154.9163 191.4764,154.9163 191.4764,154.9163 193.3514,154.2913 193.3514,154.2913 194.6014,153.0413 194.6014,153.0413 195.2264,151.7913 195.2264,151.7913 195.8514,149.9163 195.8514,149.9163 195.8514,146.7913 195.8514,146.7913 195.2264,144.9163 195.2264,144.9163 194.6014,143.6663 194.6014,143.6663 193.3514,142.4163 193.3514,142.4163 191.4764,141.7913 191.4764,141.7913"/>
    <line x1="283.4646" x2="283.4646" y1="130.3937" y2="168.189"/>
    <polyline points="297.9872,141.7913 302.9872,154.9163 302.9872,154.9163 307.9872,141.7913"/>
    <polyline points="362.8199,133.563 363.4449,133.2505 363.4449,133.2505 364.3824,132.313 364.3824,132.313 364.3824,138.8755"/>
    <polygon points="370.0074,132.313 369.0699,132.6255 369.0699,132.6255 368.4449,133.563 368.4449,133.563 368.1324,135.1255 368.1324,135.1255 368.1324,136.063 368.1324,136.063 368.4449,137.6255 368.4449,137.6255 369.0699,138.563 369.0699,138.563 370.0074,138.8755 370.0074,138.8755 370.6324,138.8755 370.6324,138.8755 371.5699,138.563 371.5699,138.563 372.1949,137.6255 372.1949,137.6255 372.5074,136.063 372.5074,136.063 372.5074,135.1255 372.5074,135.1255 372.1949,133.563 372.1949,133.563 371.5699,132.6255 371.5699,132.6255 370.6324,132.313 370.6324,132.313"/>
    <polyline points="384.5153,144.9163 383.8903,143.6663 383.8903,143.6663 382.6403,142.4163 382.6403,142.4163 381.3903,141.7913 381.3903,141.7913 378.8903,141.7913 378.8903,141.7913 377.6403,142.4163 377.6403,142.4163 376.3903,143.6663 376.3903,143.6663 375.7653,144.9163 375.7653,144.9163 375.1403,146.7913 375.1403,146.7913 375.1403,149.9163 375.1403,149.9163 375.7653,151.7913 375.7653,151.7913 376.3903,153.0413 376.3903,153.0413 377.6403,154.2913 377.6403,154.2913 378.8903,154.9163 378.8903,154.9163 381.3903,154.9163 381.3903,154.9163 382.6403,154.2913 382.6403,154.2913 383.8903,153.0413 383.8903,153.0413 384.5153,151.7913 384.5153,151.7913 384.5153,149.9163 384.5153,149.9163 381.3903,149.9163"/>
    <polyline points="413.873,148.0413 419.498,148.0413 419.498,148.0413 421.373,147.4163 421.373,147.4163 421.998,146.7913 421.998,146.7913 422.623,145.5413 422.623,145.5413 422.623,144.2913 422.623,144.2913 421.998,143.0413 421.998,143.0413 421.373,142.4163 421.373,142.4163 419.498,141.7913 419.498,141.7913 413.873,141.7913 413.873,141.7913 413.873,154.9163"/>
    <line x1="418.248" x2="422.623" y1="148.0413" y2="154.9163"/>
    <line x1="472.4409" x2="472.4409" y1="168.189" y2="130.3937"/>
    <polygon points="454.1683,141.7913 452.9183,142.4163 452.9183,142.4163 451.6683,143.6663 451.6683,143.6663 451.0433,144.9163 451.0433,144.9163 450.4183,146.7913 450.4183,146.7913 450.4183,149.9163 450.4183,149.9163 451.0433,151.7913 451.0433,151.7913 451.6683,153.0413 451.6683,153.0413 452.9183,154.2913 452.9183,154.2913 454.1683,154.9163 454.1683,154.9163 456.6683,154.9163 456.6683,154.9163 457.9183,154.2913 457.9183,154.2913 459.1683,153.0413 459.1683,153.0413 459.7933,151.7913 459.7933,151.7913 460.4183,149.9163 460.4183,149.9163 460.4183,146.7913 460.4183,146.7913 459.7933,144.9163 459.7933,144.9163 459.1683,143.6663 459.1683,143.6663 457.9183,142.4163 457.9183,142.4163 456.6683,141.7913 456.6683,141.7913"/>
    <line x1="510.2362" x2="510.2362" y1="168.189" y2="130.3937"/>
    <polyline points="497.9011,141.7913 489.7761,141.7913 489.7761,141.7913 489.7761,154.9163 489.7761,154.9163 497.9011,154.9163"/>
    <line x1="489.7761" x2="494.7761" y1="148.0413" y2="148.0413"/>
    <polyline points="527.2589,148.6663 532.8839,148.6663 532.8839,148.6663 534.7589,148.0413 534.7589,148.0413 535.3839,147.4163 535.3839,147.4163 536.0089,146.1663 536.0089,146.1663 536.0089,144.2913 536.0089,144.2913 535.3839,143.0413 535.3839,143.0413 534.7589,142.4163 534.7589,142.4163 532.8839,141.7913 532.8839,141.7913 527.2589,141.7913 527.2589,141.7913 527.2589,154.9163"/>
    <polyline points="551.7963,133.563 552.4213,133.2505 552.4213,133.2505 553.3588,132.313 553.3588,132.313 553.3588,138.8755"/>
    <polyline points="558.0463,133.563 558.6713,133.2505 558.6713,133.2505 559.6088,132.313 559.6088,132.313 559.6088,138.8755"/>
    <polyline points="573.1791,143.6663 571.9291,142.4163 571.9291,142.4163 570.0541,141.7913 570.0541,141.7913 567.5541,141.7913 567.5541,141.7913 565.6791,142.4163 565.6791,142.4163 564.4291,143.6663 564.4291,143.6663 564.4291,144.9163 564.4291,144.9163 565.0541,146.1663 565.0541,146.1663 565.6791,146.7913 565.6791,146.7913 566.9291,147.4163 566.9291,147.4163 570.6791,148.6663 570.6791,148.6663 571.9291,149.2913 571.9291,149.2913 572.5541,149.9163 572.5541,149.9163 573.1791,151.1663 573.1791,151.1663 573.1791,153.0413 573.1791,153.0413 571.9291,154.2913 571.9291,154.2913 570.0541,154.9163 570.0541,154.9163 567.5541,154.9163 567.5541,154.9163 565.6791,154.2913 565.6791,154.2913 564.4291,153.0413"/>
    <polyline points="611.2869,141.7913 603.1619,141.7913 603.1619,141.7913 603.1619,154.9163"/>
    <line x1="603.1619" x2="608.1619" y1="148.0413" y2="148.0413"/>
    <polygon points="643.1447,141.7913 641.8947,142.4163 641.8947,142.4163 640.6447,143.6663 640.6447,143.6663 640.0197,144.9163 640.0197,144.9163 639.3947,146.7913 639.3947,146.7913 639.3947,149.9163 639.3947,149.9163 640.0197,151.7913 640.0197,151.7913 640.6447,153.0413 640.6447,153.0413 641.8947,154.2913 641.8947,154.2913 643.1447,154.9163 643.1447,154.9163 645.6447,154.9163 645.6447,154.9163 646.8947,154.2913 646.8947,154.2913 648.1447,153.0413 648.1447,153.0413 648.7697,151.7913 648.7697,151.7913 649.3947,149.9163 649.3947,149.9163 649.3947,146.7913 649.3947,146.7913 648.7697,144.9163 648.7697,144.9163 648.1447,143.6663 648.1447,143.6663 646.8947,142.4163 646.8947,142.4163 645.6447,141.7913 645.6447,141.7913"/>
    <line x1="680.94" x2="680.94" y1="141.7913" y2="154.9163"/>
    <line x1="676.565" x2="685.315" y1="141.7913" y2="141.7913"/>
    <polyline points="737.0079,168.189 737.0079,205.9843 737.0079,205.9843 699.2126,205.9843 699.2126,205.9843 699.2126,168.189 699.2126,168.189 737.0079,168.189 737.0079,168.189 737.0079,130.3937"/>
    <polygon points="718.7352,141.7913 717.4852,142.4163 717.4852,142.4163 716.2352,143.6663 716.2352,143.6663 715.6102,144.9163 715.6102,144.9163 714.9852,146.7913 714.9852,146.7913 714.9852,149.9163 714.9852,149.9163 715.6102,151.7913 715.6102,151.7913 716.2352,153.0413 716.2352,153.0413 717.4852,154.2913 717.4852,154.2913 718.7352,154.9163 718.7352,154.9163 721.2352,154.9163 721.2352,154.9163 722.4852,154.2913 722.4852,154.2913 723.7352,153.0413 723.7352,153.0413 724.3602,151.7913 724.3602,151.7913 724.9852,149.9163 724.9852,149.9163 724.9852,146.7913 724.9852,146.7913 724.3602,144.9163 724.3602,144.9163 723.7352,143.6663 723.7352,143.6663 722.4852,142.4163 722.4852,142.4163 721.2352,141.7913 721.2352,141.7913"/>
    <polyline points="94.4882,205.9843 56.6929,205.9843 56.6929,205.9843 56.6929,168.189 56.6929,168.189 18.8976,168.189 18.8976,168.189 18.8976,205.9843 18.8976,205.9843 56.6929,205.9843 56.6929,205.9843 56.6929,243.7795 56.6929,243.7795 94.4882,243.7795 94.4882,243.7795 94.4882,205.9843 94.4882,205.9843 94.4882,168.189"/>
    <polyline points="22.6624,171.3583 23.2874,171.0458 23.2874,171.0458 24.2249,170.1083 24.2249,170.1083 24.2249,176.6708"/>
    <polyline points="28.2874,171.6708 28.2874,171.3583 28.2874,171.3583 28.5999,170.7333 28.5999,170.7333 28.9124,170.4208 28.9124,170.4208 29.5374,170.1083 29.5374,170.1083 30.7874,170.1083 30.7874,170.1083 31.4124,170.4208 31.4124,170.4208 31.7249,170.7333 31.7249,170.7333 32.0374,171.3583 32.0374,171.3583 32.0374,171.9833 32.0374,171.9833 31.7249,172.6083 31.7249,172.6083 31.0999,173.5458 31.0999,173.5458 27.9749,176.6708 27.9749,176.6708 32.3499,176.6708"/>
    <polyline points="42.1703,179.5866 42.1703,189.5866 42.1703,189.5866 41.5453,191.4616 41.5453,191.4616 40.9203,192.0866 40.9203,192.0866 39.6703,192.7116 39.6703,192.7116 38.4203,192.7116 38.4203,192.7116 37.1703,192.0866 37.1703,192.0866 36.5453,191.4616 36.5453,191.4616 35.9203,189.5866 35.9203,189.5866 35.9203,188.3366"/>
    <polyline points="81.2156,192.7116 76.2156,179.5866 76.2156,179.5866 71.2156,192.7116"/>
    <line x1="73.0906" x2="79.3406" y1="188.3366" y2="188.3366"/>
    <polyline points="170.0787,168.189 170.0787,205.9843 170.0787,205.9843 170.0787,243.7795 170.0787,243.7795 207.874,243.7795 207.874,243.7795 207.874,205.9843 207.874,205.9843 207.874,168.189"/>
    <line x1="170.0787" x2="207.874" y1="205.9843" y2="205.9843"/>
    <polygon points="187.1014,179.5866 187.1014,192.7116 187.1014,192.7116 191.4764,192.7116 191.4764,192.7116 193.3514,192.0866 193.3514,192.0866 194.6014,190.8366 194.6014,190.8366 195.2264,189.5866 195.2264,189.5866 195.8514,187.7116 195.8514,187.7116 195.8514,184.5866 195.8514,184.5866 195.2264,182.7116 195.2264,182.7116 194.6014,181.4616 194.6014,181.4616 193.3514,180.2116 193.3514,180.2116 191.4764,179.5866 191.4764,179.5866"/>
    <line x1="283.4646" x2="321.2598" y1="205.9843" y2="205.9843"/>
    <polyline points="308.9247,179.5866 300.7997,179.5866 300.7997,179.5866 300.7997,192.7116 300.7997,192.7116 308.9247,192.7116"/>
    <line x1="300.7997" x2="305.7997" y1="185.8366" y2="185.8366"/>
    <line x1="396.8504" x2="434.6457" y1="205.9843" y2="205.9843"/>
    <polygon points="416.373,179.5866 415.123,180.2116 415.123,180.2116 413.873,181.4616 413.873,181.4616 413.248,182.7116 413.248,182.7116 412.623,184.5866 412.623,184.5866 412.623,187.7116 412.623,187.7116 413.248,189.5866 413.248,189.5866 413.873,190.8366 413.873,190.8366 415.123,192.0866 415.123,192.0866 416.373,192.7116 416.373,192.7116 418.873,192.7116 418.873,192.7116 420.123,192.0866 420.123,192.0866 421.373,190.8366 421.373,190.8366 421.998,189.5866 421.998,189.5866 422.623,187.7116 422.623,187.7116 422.623,184.5866 422.623,184.5866 421.998,182.7116 421.998,182.7116 421.373,181.4616 421.373,181.4616 420.123,180.2116 420.123,180.2116 418.873,179.5866 418.873,179.5866"/>
    <line x1="567.5541" x2="567.5541" y1="179.5866" y2="192.7116"/>
    <line x1="563.1791" x2="571.9291" y1="179.5866" y2="179.5866"/>
    <polyline points="724.6727,179.5866 716.5477,179.5866 716.5477,179.5866 716.5477,192.7116 716.5477,192.7116 724.6727,192.7116"/>
    <line x1="716.5477" x2="721.5477" y1="185.8366" y2="185.8366"/>
    <polyline points="73.7156,223.6319 79.3406,223.6319 79.3406,223.6319 81.2156,223.0069 81.2156,223.0069 81.8406,222.3819 81.8406,222.3819 82.4656,221.1319 82.4656,221.1319 82.4656,219.8819 82.4656,219.8819 81.8406,218.6319 81.8406,218.6319 81.2156,218.0069 81.2156,218.0069 79.3406,217.3819 79.3406,217.3819 73.7156,217.3819 73.7156,217.3819 73.7156,230.5069"/>
    <line x1="78.0906" x2="82.4656" y1="223.6319" y2="230.5069"/>
    <polygon points="189.6014,217.3819 188.3514,218.0069 188.3514,218.0069 187.1014,219.2569 187.1014,219.2569 186.4764,220.5069 186.4764,220.5069 185.8514,222.3819 185.8514,222.3819 185.8514,225.5069 185.8514,225.5069 186.4764,227.3819 186.4764,227.3819 187.1014,228.6319 187.1014,228.6319 188.3514,229.8819 188.3514,229.8819 189.6014,230.5069 189.6014,230.5069 192.1014,230.5069 192.1014,230.5069 193.3514,229.8819 193.3514,229.8819 194.6014,228.6319 194.6014,228.6319 195.2264,227.3819 195.2264,227.3819 195.8514,225.5069 195.8514,225.5069 195.8514,222.3819 195.8514,222.3819 195.2264,220.5069 195.2264,220.5069 194.6014,219.2569 194.6014,219.2569 193.3514,218.0069 193.3514,218.0069 192.1014,217.3819 192.1014,217.3819"/>
    <polyline points="300.4872,223.6319 306.1122,223.6319 306.1122,223.6319 307.9872,223.0069 307.9872,223.0069 308.6122,222.3819 308.6122,222.3819 309.2372,221.1319 309.2372,221.1319 309.2372,219.8819 309.2372,219.8819 308.6122,218.6319 308.6122,218.6319 307.9872,218.0069 307.9872,218.0069 306.1122,217.3819 306.1122,217.3819 300.4872,217.3819 300.4872,217.3819 300.4872,230.5069"/>
    <line x1="304.8622" x2="309.2372" y1="223.6319" y2="230.5069"/>
    <polygon points="416.373,217.3819 415.123,218.0069 415.123,218.0069 413.873,219.2569 413.873,219.2569 413.248,220.5069 413.248,220.5069 412.623,222.3819 412.623,222.3819 412.623,225.5069 412.623,225.5069 413.248,227.3819 413.248,227.3819 413.873,228.6319 413.873,228.6319 415.123,229.8819 415.123,229.8819 416.373,230.5069 416.373,230.5069 418.873,230.5069 418.873,230.5069 420.123,229.8819 420.123,229.8819 421.373,228.6319 421.373,228.6319 421.998,227.3819 421.998,227.3819 422.623,225.5069 422.623,225.5069 422.623,222.3819 422.623,222.3819 421.998,220.5069 421.998,220.5069 421.373,219.2569 421.373,219.2569 420.123,218.0069 420.123,218.0069 418.873,217.3819 418.873,217.3819"/>
    <polyline points="514.001,209.1535 514.626,208.841 514.626,208.841 515.5635,207.9035 515.5635,207.9035 515.5635,214.466"/>
    <polyline points="519.9385,207.9035 523.376,207.9035 523.376,207.9035 521.501,210.4035 521.501,210.4035 522.4385,210.4035 522.4385,210.4035 523.0635,210.716 523.0635,210.716 523.376,211.0285 523.376,211.0285 523.6885,211.966 523.6885,211.966 523.6885,212.591 523.6885,212.591 523.376,213.5285 523.376,213.5285 522.751,214.1535 522.751,214.1535 521.8135,214.466 521.8135,214.466 520.876,214.466 520.876,214.466 519.9385,214.1535 519.9385,214.1535 519.626,213.841 519.626,213.841 519.3135,213.216"/>
    <polyline points="524.7589,217.3819 529.7589,230.5069 529.7589,230.5069 534.7589,217.3819"/>
    <polyline points="623.622,243.7795 585.8268,243.7795 585.8268,243.7795 585.8268,281.5748 585.8268,281.5748 548.0315,281.5748 548.0315,281.5748 548.0315,243.7795 548.0315,243.7795 585.8268,243.7795 585.8268,243.7795 585.8268,205.9843 585.8268,205.9843 623.622,205.9843 623.622,205.9843 623.622,243.7795 623.622,243.7795 661.4173,243.7795 661.4173,243.7795 699.2126,243.7795 699.2126,243.7795 699.2126,205.9843 699.2126,205.9843 661.4173,205.9843 661.4173,205.9843 623.622,205.9843"/>
    <polyline points="573.4916,217.3819 565.3666,217.3819 565.3666,217.3819 565.3666,230.5069 565.3666,230.5069 573.4916,230.5069"/>
    <line x1="565.3666" x2="570.3666" y1="223.6319" y2="223.6319"/>
    <polyline points="603.4744,217.3819 603.4744,230.5069 603.4744,230.5069 610.9744,230.5069"/>
    <line x1="661.4173" x2="661.4173" y1="243.7795" y2="205.9843"/>
    <polyline points="641.2697,217.3819 641.2697,230.5069 641.2697,230.5069 648.7697,230.5069"/>
    <polyline points="686.8775,217.3819 678.7525,217.3819 678.7525,217.3819 678.7525,230.5069 678.7525,230.5069 686.8775,230.5069"/>
    <line x1="678.7525" x2="683.7525" y1="223.6319" y2="223.6319"/>
    <polyline points="699.2126,243.7795 737.0079,243.7795 737.0079,243.7795 737.0079,205.9843 737.0079,205.9843 774.8031,205.9843 774.8031,205.9843 774.8031,243.7795 774.8031,243.7795 737.0079,243.7795 737.0079,243.7795 737.0079,281.5748 737.0079,281.5748 699.2126,281.5748 699.2126,281.5748 699.2126,243.7795"/>
    <line x1="716.2352" x2="716.2352" y1="217.3819" y2="230.5069"/>
    <line x1="724.9852" x2="716.2352" y1="217.3819" y2="226.1319"/>
    <line x1="719.3602" x2="724.9852" y1="223.0069" y2="230.5069"/>
    <polyline points="762.468,217.3819 754.343,217.3819 754.343,217.3819 754.343,230.5069 754.343,230.5069 762.468,230.5069"/>
    <line x1="754.343" x2="759.343" y1="223.6319" y2="223.6319"/>
    <polyline points="132.2835,281.5748 94.4882,281.5748 94.4882,281.5748 94.4882,319.3701 94.4882,319.3701 94.4882,357.1654 94.4882,357.1654 56.6929,357.1654 56.6929,357.1654 56.6929,319.3701 56.6929,319.3701 56.6929,281.5748 56.6929,281.5748 56.6929,243.7795 56.6929,243.7795 18.8976,243.7795 18.8976,243.7795 18.8976,281.5748 18.8976,281.5748 56.6929,281.5748 56.6929,281.5748 94.4882,281.5748 94.4882,281.5748 94.4882,243.7795 94.4882,243.7795 132.2835,243.7795 132.2835,243.7795 170.0787,243.7795 170.0787,243.7795 170.0787,281.5748 170.0787,281.5748 207.874,281.5748 207.874,281.5748 245.6693,281.5748 245.6693,281.5748 245.6693,243.7795 245.6693,243.7795 207.874,243.7795 207.874,243.7795 207.874,281.5748 207.874,281.5748 207.874,319.3701 207.874,319.3701 170.0787,319.3701 170.0787,319.3701 170.0787,281.5748 170.0787,281.5748 132.2835,281.5748 132.2835,281.5748 132.2835,243.7795"/>
    <polyline points="22.6624,246.9488 23.2874,246.6363 23.2874,246.6363 24.2249,245.6988 24.2249,245.6988 24.2249,252.2613"/>
    <polyline points="31.0999,252.2613 31.0999,245.6988 31.0999,245.6988 27.9749,250.0738 27.9749,250.0738 32.6624,250.0738"/>
    <polyline points="45.2953,268.3022 45.2953,255.1772 45.2953,255.1772 40.2953,268.3022 40.2953,268.3022 35.2953,255.1772 35.2953,255.1772 35.2953,268.3022"/>
    <line x1="78.0906" x2="78.0906" y1="255.1772" y2="268.3022"/>
    <polyline points="119.6358,257.0522 118.3858,255.8022 118.3858,255.8022 116.5108,255.1772 116.5108,255.1772 114.0108,255.1772 114.0108,255.1772 112.1358,255.8022 112.1358,255.8022 110.8858,257.0522 110.8858,257.0522 110.8858,258.3022 110.8858,258.3022 111.5108,259.5522 111.5108,259.5522 112.1358,260.1772 112.1358,260.1772 113.3858,260.8022 113.3858,260.8022 117.1358,262.0522 117.1358,262.0522 118.3858,262.6772 118.3858,262.6772 119.0108,263.3022 119.0108,263.3022 119.6358,264.5522 119.6358,264.5522 119.6358,266.4272 119.6358,266.4272 118.3858,267.6772 118.3858,267.6772 116.5108,268.3022 116.5108,268.3022 114.0108,268.3022 114.0108,268.3022 112.1358,267.6772 112.1358,267.6772 110.8858,266.4272"/>
    <polyline points="146.8061,255.1772 151.8061,268.3022 151.8061,268.3022 156.8061,255.1772"/>
    <polyline points="195.5389,255.1772 187.4139,255.1772 187.4139,255.1772 187.4139,268.3022 187.4139,268.3022 195.5389,268.3022"/>
    <line x1="187.4139" x2="192.4139" y1="261.4272" y2="261.4272"/>
    <polyline points="224.8967,261.4272 230.5217,261.4272 230.5217,261.4272 232.3967,260.8022 232.3967,260.8022 233.0217,260.1772 233.0217,260.1772 233.6467,258.9272 233.6467,258.9272 233.6467,257.6772 233.6467,257.6772 233.0217,256.4272 233.0217,256.4272 232.3967,255.8022 232.3967,255.8022 230.5217,255.1772 230.5217,255.1772 224.8967,255.1772 224.8967,255.1772 224.8967,268.3022"/>
    <line x1="229.2717" x2="233.6467" y1="261.4272" y2="268.3022"/>
    <polyline points="245.6693,281.5748 283.4646,281.5748 283.4646,281.5748 283.4646,319.3701 283.4646,319.3701 321.2598,319.3701 321.2598,319.3701 321.2598,281.5748 321.2598,281.5748 359.0551,281.5748 359.0551,281.5748 396.8504,281.5748 396.8504,281.5748 396.8504,243.7795 396.8504,243.7795 359.0551,243.7795 359.0551,243.7795 321.2598,243.7795 321.2598,243.7795 321.2598,281.5748 321.2598,281.5748 283.4646,281.5748 283.4646,281.5748 283.4646,243.7795 283.4646,243.7795 245.6693,243.7795"/>
    <polyline points="270.8169,257.0522 269.5669,255.8022 269.5669,255.8022 267.6919,255.1772 267.6919,255.1772 265.1919,255.1772 265.1919,255.1772 263.3169,255.8022 263.3169,255.8022 262.0669,257.0522 262.0669,257.0522 262.0669,258.3022 262.0669,258.3022 262.6919,259.5522 262.6919,259.5522 263.3169,260.1772 263.3169,260.1772 264.5669,260.8022 264.5669,260.8022 268.3169,262.0522 268.3169,262.0522 269.5669,262.6772 269.5669,262.6772 270.1919,263.3022 270.1919,263.3022 270.8169,264.5522 270.8169,264.5522 270.8169,266.4272 270.8169,266.4272 269.5669,267.6772 269.5669,267.6772 267.6919,268.3022 267.6919,268.3022 265.1919,268.3022 265.1919,268.3022 263.3169,267.6772 263.3169,267.6772 262.0669,266.4272"/>
    <line x1="302.9872" x2="302.9872" y1="255.1772" y2="268.3022"/>
    <line x1="298.6122" x2="307.3622" y1="255.1772" y2="255.1772"/>
    <line x1="359.0551" x2="359.0551" y1="281.5748" y2="243.7795"/>
    <polyline points="345.7825,268.3022 340.7825,255.1772 340.7825,255.1772 335.7825,268.3022"/>
    <line x1="337.6575" x2="343.9075" y1="263.9272" y2="263.9272"/>
    <polyline points="384.8278,255.1772 384.8278,268.3022 384.8278,268.3022 376.0778,255.1772 376.0778,255.1772 376.0778,268.3022"/>
    <polyline points="396.8504,281.5748 434.6457,281.5748 434.6457,281.5748 434.6457,243.7795"/>
    <polygon points="413.873,255.1772 413.873,268.3022 413.873,268.3022 418.248,268.3022 418.248,268.3022 420.123,267.6772 420.123,267.6772 421.373,266.4272 421.373,266.4272 421.998,265.1772 421.998,265.1772 422.623,263.3022 422.623,263.3022 422.623,260.1772 422.623,260.1772 421.998,258.3022 421.998,258.3022 421.373,257.0522 421.373,257.0522 420.123,255.8022 420.123,255.8022 418.248,255.1772 418.248,255.1772"/>
    <polyline points="565.0541,261.4272 570.6791,261.4272 570.6791,261.4272 572.5541,260.8022 572.5541,260.8022 573.1791,260.1772 573.1791,260.1772 573.8041,258.9272 573.8041,258.9272 573.8041,257.6772 573.8041,257.6772 573.1791,256.4272 573.1791,256.4272 572.5541,255.8022 572.5541,255.8022 570.6791,255.1772 570.6791,255.1772 565.0541,255.1772 565.0541,255.1772 565.0541,268.3022"/>
    <line x1="569.4291" x2="573.8041" y1="261.4272" y2="268.3022"/>
    <polyline points="715.6102,255.1772 724.3602,255.1772 724.3602,255.1772 715.6102,268.3022 715.6102,268.3022 724.3602,268.3022"/>
    <line x1="56.6929" x2="94.4882" y1="319.3701" y2="319.3701"/>
    <polyline points="79.9656,292.9724 79.9656,302.9724 79.9656,302.9724 79.3406,304.8474 79.3406,304.8474 78.7156,305.4724 78.7156,305.4724 77.4656,306.0974 77.4656,306.0974 76.2156,306.0974 76.2156,306.0974 74.9656,305.4724 74.9656,305.4724 74.3406,304.8474 74.3406,304.8474 73.7156,302.9724 73.7156,302.9724 73.7156,301.7224"/>
    <line x1="187.1014" x2="187.1014" y1="292.9724" y2="306.0974"/>
    <line x1="195.8514" x2="187.1014" y1="292.9724" y2="301.7224"/>
    <line x1="190.2264" x2="195.8514" y1="298.5974" y2="306.0974"/>
    <polyline points="306.7372,292.9724 306.7372,302.9724 306.7372,302.9724 306.1122,304.8474 306.1122,304.8474 305.4872,305.4724 305.4872,305.4724 304.2372,306.0974 304.2372,306.0974 302.9872,306.0974 302.9872,306.0974 301.7372,305.4724 301.7372,305.4724 301.1122,304.8474 301.1122,304.8474 300.4872,302.9724 300.4872,302.9724 300.4872,301.7224"/>
    <polygon points="585.8268,281.5748 585.8268,319.3701 585.8268,319.3701 623.622,319.3701 623.622,319.3701 623.622,281.5748 623.622,281.5748"/>
    <polyline points="589.5915,284.7441 590.2165,284.4316 590.2165,284.4316 591.154,283.4941 591.154,283.4941 591.154,290.0566"/>
    <polyline points="598.654,283.4941 595.529,283.4941 595.529,283.4941 595.2165,286.3066 595.2165,286.3066 595.529,285.9941 595.529,285.9941 596.4665,285.6816 596.4665,285.6816 597.404,285.6816 597.404,285.6816 598.3415,285.9941 598.3415,285.9941 598.9665,286.6191 598.9665,286.6191 599.279,287.5566 599.279,287.5566 599.279,288.1816 599.279,288.1816 598.9665,289.1191 598.9665,289.1191 598.3415,289.7441 598.3415,289.7441 597.404,290.0566 597.404,290.0566 596.4665,290.0566 596.4665,290.0566 595.529,289.7441 595.529,289.7441 595.2165,289.4316 595.2165,289.4316 594.904,288.8066"/>
    <polyline points="611.2869,296.0974 610.6619,294.8474 610.6619,294.8474 609.4119,293.5974 609.4119,293.5974 608.1619,292.9724 608.1619,292.9724 605.6619,292.9724 605.6619,292.9724 604.4119,293.5974 604.4119,293.5974 603.1619,294.8474 603.1619,294.8474 602.5369,296.0974 602.5369,296.0974 601.9119,297.9724 601.9119,297.9724 601.9119,301.0974 601.9119,301.0974 602.5369,302.9724 602.5369,302.9724 603.1619,304.2224 603.1619,304.2224 604.4119,305.4724 604.4119,305.4724 605.6619,306.0974 605.6619,306.0974 608.1619,306.0974 608.1619,306.0974 609.4119,305.4724 609.4119,305.4724 610.6619,304.2224 610.6619,304.2224 611.2869,302.9724 611.2869,302.9724 611.2869,301.0974 611.2869,301.0974 608.1619,301.0974"/>
    <polyline points="623.622,319.3701 661.4173,319.3701 661.4173,319.3701 699.2126,319.3701 699.2126,319.3701 699.2126,281.5748 699.2126,281.5748 661.4173,281.5748 661.4173,281.5748 623.622,281.5748"/>
    <line x1="661.4173" x2="661.4173" y1="319.3701" y2="281.5748"/>
    <polyline points="640.6447,299.2224 646.2697,299.2224 646.2697,299.2224 648.1447,298.5974 648.1447,298.5974 648.7697,297.9724 648.7697,297.9724 649.3947,296.7224 649.3947,296.7224 649.3947,295.4724 649.3947,295.4724 648.7697,294.2224 648.7697,294.2224 648.1447,293.5974 648.1447,293.5974 646.2697,292.9724 646.2697,292.9724 640.6447,292.9724 640.6447,292.9724 640.6447,306.0974"/>
    <line x1="645.0197" x2="649.3947" y1="299.2224" y2="306.0974"/>
    <polyline points="685.94,306.0974 680.94,292.9724 680.94,292.9724 675.94,306.0974"/>
    <line x1="677.815" x2="684.065" y1="301.7224" y2="301.7224"/>
    <polygon points="699.2126,319.3701 737.0079,319.3701 737.0079,319.3701 774.8031,319.3701 774.8031,319.3701 774.8031,281.5748 774.8031,281.5748 737.0079,281.5748 737.0079,281.5748 737.0079,319.3701 737.0079,319.3701 737.0079,357.1654 737.0079,357.1654 699.2126,357.1654 699.2126,357.1654"/>
    <polyline points="723.7352,306.0974 718.7352,292.9724 718.7352,292.9724 713.7352,306.0974"/>
    <line x1="715.6102" x2="721.8602" y1="301.7224" y2="301.7224"/>
    <line x1="756.5305" x2="756.5305" y1="292.9724" y2="306.0974"/>
    <line x1="752.1555" x2="760.9055" y1="292.9724" y2="292.9724"/>
    <polyline points="82.4656,330.7677 82.4656,343.8927 82.4656,343.8927 73.7156,330.7677 73.7156,330.7677 73.7156,343.8927"/>
    <polygon points="245.6693,319.3701 245.6693,357.1654 245.6693,357.1654 283.4646,357.1654 283.4646,357.1654 283.4646,319.3701 283.4646,319.3701"/>
    <polyline points="249.4341,322.5394 250.0591,322.2269 250.0591,322.2269 250.9966,321.2894 250.9966,321.2894 250.9966,327.8519"/>
    <polyline points="258.8091,322.2269 258.4966,321.6019 258.4966,321.6019 257.5591,321.2894 257.5591,321.2894 256.9341,321.2894 256.9341,321.2894 255.9966,321.6019 255.9966,321.6019 255.3716,322.5394 255.3716,322.5394 255.0591,324.1019 255.0591,324.1019 255.0591,325.6644 255.0591,325.6644 255.3716,326.9144 255.3716,326.9144 255.9966,327.5394 255.9966,327.5394 256.9341,327.8519 256.9341,327.8519 257.2466,327.8519 257.2466,327.8519 258.1841,327.5394 258.1841,327.5394 258.8091,326.9144 258.8091,326.9144 259.1216,325.9769 259.1216,325.9769 259.1216,325.6644 259.1216,325.6644 258.8091,324.7269 258.8091,324.7269 258.1841,324.1019 258.1841,324.1019 257.2466,323.7894 257.2466,323.7894 256.9341,323.7894 256.9341,323.7894 255.9966,324.1019 255.9966,324.1019 255.3716,324.7269 255.3716,324.7269 255.0591,325.6644"/>
    <polyline points="262.6919,337.0177 268.3169,337.0177 268.3169,337.0177 270.1919,336.3927 270.1919,336.3927 270.8169,335.7677 270.8169,335.7677 271.4419,334.5177 271.4419,334.5177 271.4419,333.2677 271.4419,333.2677 270.8169,332.0177 270.8169,332.0177 270.1919,331.3927 270.1919,331.3927 268.3169,330.7677 268.3169,330.7677 262.6919,330.7677 262.6919,330.7677 262.6919,343.8927"/>
    <line x1="267.0669" x2="271.4419" y1="337.0177" y2="343.8927"/>
    <polyline points="283.4646,357.1654 321.2598,357.1654 321.2598,357.1654 359.0551,357.1654 359.0551,357.1654 396.8504,357.1654 396.8504,357.1654 434.6457,357.1654 434.6457,357.1654 434.6457,319.3701 434.6457,319.3701 396.8504,319.3701 396.8504,319.3701 359.0551,319.3701 359.0551,319.3701 321.2598,319.3701 321.2598,319.3701 321.2598,357.1654"/>
    <polyline points="308.9247,330.7677 300.7997,330.7677 300.7997,330.7677 300.7997,343.8927 300.7997,343.8927 308.9247,343.8927"/>
    <line x1="300.7997" x2="305.7997" y1="337.0177" y2="337.0177"/>
    <line x1="359.0551" x2="359.0551" y1="357.1654" y2="319.3701"/>
    <line x1="338.2825" x2="338.2825" y1="330.7677" y2="343.8927"/>
    <line x1="347.0325" x2="338.2825" y1="330.7677" y2="339.5177"/>
    <line x1="341.4075" x2="347.0325" y1="336.3927" y2="343.8927"/>
    <line x1="396.8504" x2="396.8504" y1="357.1654" y2="319.3701"/>
    <line x1="376.0778" x2="376.0778" y1="330.7677" y2="343.8927"/>
    <line x1="384.8278" x2="376.0778" y1="330.7677" y2="339.5177"/>
    <line x1="379.2028" x2="384.8278" y1="336.3927" y2="343.8927"/>
    <polyline points="422.3105,330.7677 414.1855,330.7677 414.1855,330.7677 414.1855,343.8927 414.1855,343.8927 422.3105,343.8927"/>
    <line x1="414.1855" x2="419.1855" y1="337.0177" y2="337.0177"/>
    <polyline points="434.6457,357.1654 472.4409,357.1654 472.4409,357.1654 510.2362,357.1654 510.2362,357.1654 548.0315,357.1654 548.0315,357.1654 548.0315,319.3701 548.0315,319.3701 510.2362,319.3701 510.2362,319.3701 472.4409,319.3701 472.4409,319.3701 434.6457,319.3701"/>
    <line x1="472.4409" x2="472.4409" y1="357.1654" y2="319.3701"/>
    <polyline points="451.6683,337.0177 457.2933,337.0177 457.2933,337.0177 459.1683,336.3927 459.1683,336.3927 459.7933,335.7677 459.7933,335.7677 460.4183,334.5177 460.4183,334.5177 460.4183,333.2677 460.4183,333.2677 459.7933,332.0177 459.7933,332.0177 459.1683,331.3927 459.1683,331.3927 457.2933,330.7677 457.2933,330.7677 451.6683,330.7677 451.6683,330.7677 451.6683,343.8927"/>
    <line x1="456.0433" x2="460.4183" y1="337.0177" y2="343.8927"/>
    <line x1="510.2362" x2="510.2362" y1="357.1654" y2="319.3701"/>
    <line x1="491.9636" x2="491.9636" y1="330.7677" y2="343.8927"/>
    <line x1="487.5886" x2="496.3386" y1="330.7677" y2="330.7677"/>
    <polyline points="533.5089,330.7677 533.5089,340.7677 533.5089,340.7677 532.8839,342.6427 532.8839,342.6427 532.2589,343.2677 532.2589,343.2677 531.0089,343.8927 531.0089,343.8927 529.7589,343.8927 529.7589,343.8927 528.5089,343.2677 528.5089,343.2677 527.8839,342.6427 527.8839,342.6427 527.2589,340.7677 527.2589,340.7677 527.2589,339.5177"/>
    <polyline points="548.0315,357.1654 585.8268,357.1654 585.8268,357.1654 585.8268,319.3701 585.8268,319.3701 548.0315,319.3701"/>
    <polyline points="573.4916,330.7677 565.3666,330.7677 565.3666,330.7677 565.3666,343.8927 565.3666,343.8927 573.4916,343.8927"/>
    <line x1="565.3666" x2="570.3666" y1="337.0177" y2="337.0177"/>
    <line x1="716.2352" x2="716.2352" y1="330.7677" y2="343.8927"/>
    <line x1="724.9852" x2="716.2352" y1="330.7677" y2="339.5177"/>
    <line x1="719.3602" x2="724.9852" y1="336.3927" y2="343.8927"/>
  </g>
</svg>
