<?xml version="1.0" encoding="utf-8" ?>
<svg xmlns="http://www.w3.org/2000/svg" xmlns:cc="http://creativecommons.org/ns" xmlns:dc="http://purl.org/dc/elements/1.1/" xmlns:ev="http://www.w3.org/2001/xml-events" xmlns:inkscape="http://www.inkscape.org/namespaces/inkscape" xmlns:rdf="http://www.w3.org/1999/02/22-rdf-syntax-ns" xmlns:sodipodi="http://sodipodi.sourceforge.net/DTD/sodipodi-0.dtd" xmlns:xlink="http://www.w3.org/1999/xlink" baseProfile="tiny" height="9.0cm" version="1.2" viewBox="0 0 793.7007874015749 340.15748031496065" width="21.0cm">
  <metadata>
    <rdf:RDF>
      <cc:Work>
        <dc:format>image/svg+xml</dc:format>
        <dc:source>vpype eval 'cell=10;width=210;height=99' eval 'nCols=21;nRows=9' eval 'cells=[0,1,2,4,9,10,11,12,13,14,15,16,17,18,22,24,26,28,30,37,42,44,46,48,50,51,52,53,54,55,56,57,58,61,62,63,64,65,66,68,70,77,86,87,88,89,90,91,92,93,94,95,96,99,101,102,103,104,105,106,110,119,123,126,128,129,130,131,132,133,134,135,136,138,139,143,150,159,163,168,169,170,171,172,173,174,175,176,177,178,179]' eval 'chars=[&quot;Z&quot;,&quot;O&quot;,&quot;N&quot;,&quot;D&quot;,&quot;G&quot;,&quot;R&quot;,&quot;O&quot;,&quot;E&quot;,&quot;P&quot;,&quot;S&quot;,&quot;F&quot;,&quot;O&quot;,&quot;T&quot;,&quot;O&quot;,&quot;O&quot;,&quot;R&quot;,&quot;K&quot;,&quot;G&quot;,&quot;E&quot;,&quot;I&quot;,&quot;A&quot;,&quot;O&quot;,&quot;I&quot;,&quot;R&quot;,&quot;K&quot;,&quot;L&quot;,&quot;A&quot;,&quot;V&quot;,&quot;E&quot;,&quot;R&quot;,&quot;T&quot;,&quot;J&quot;,&quot;E&quot;,&quot;C&quot;,&quot;H&quot;,&quot;I&quot;,&quot;P&quot;,&quot;J&quot;,&quot;E&quot;,&quot;A&quot;,&quot;K&quot;,&quot;N&quot;,&quot;M&quot;,&quot;I&quot;,&quot;S&quot;,&quot;V&quot;,&quot;E&quot;,&quot;R&quot;,&quot;S&quot;,&quot;T&quot;,&quot;A&quot;,&quot;N&quot;,&quot;D&quot;,&quot;F&quot;,&quot;C&quot;,&quot;E&quot;,&quot;L&quot;,&quot;I&quot;,&quot;N&quot;,&quot;E&quot;,&quot;R&quot;,&quot;R&quot;,&quot;I&quot;,&quot;N&quot;,&quot;U&quot;,&quot;I&quot;,&quot;T&quot;,&quot;L&quot;,&quot;I&quot;,&quot;K&quot;,&quot;K&quot;,&quot;E&quot;,&quot;N&quot;,&quot;J&quot;,&quot;A&quot;,&quot;F&quot;,&quot;J&quot;,&quot;N&quot;,&quot;T&quot;,&quot;F&quot;,&quot;L&quot;,&quot;E&quot;,&quot;S&quot;,&quot;S&quot;,&quot;E&quot;,&quot;N&quot;,&quot;G&quot;,&quot;E&quot;,&quot;L&quot;,&quot;U&quot;,&quot;K&quot;]' eval 'numbers=[0,2,4,9,10,17,26,28,50,61,86,99,101,103,128,138,168]' eval counter=1 eval charIndex=0 begin grid -o '%cell*mm%' '%cell*mm%' %nCols% %nRows% eval '%isCell=_i in cells%' eval '%number=_i in numbers%' eval '%size=10 if isCell else 0%' rect 0 0 '%size*mm%' '%size*mm%' text -s 8 -p 0.5mm 1.5mm '%counter if number else '&quot;'&quot;''&quot;'&quot;'%' text -s 20 -p 5mm 5mm -a center '%chars[charIndex] if isCell else '&quot;'&quot;''&quot;'&quot;'%' eval '%if number: counter+=1 %' eval '%if isCell: charIndex+=1 %' end write ./svgs/solution/3aec74.svg
</dc:source>
        <dc:date>2023-12-20T21:39:18.434885</dc:date>
      </cc:Work>
    </rdf:RDF>
  </metadata>
  <defs/>
  <g fill="none" id="layer1" inkscape:groupmode="layer" inkscape:label="1" stroke="#0000ff" style="display:inline">
    <polygon points="0.0,0.0 0.0,37.7953 37.7953,37.7953 37.7953,0.0"/>
    <polyline points="3.3898,3.6693 3.8898,3.4193 4.6398,2.6693 4.6398,7.9193"/>
    <line x1="25.1476" x2="16.3976" y1="11.3976" y2="24.5226"/>
    <line x1="16.3976" x2="25.1476" y1="11.3976" y2="11.3976"/>
    <line x1="16.3976" x2="25.1476" y1="24.5226" y2="24.5226"/>
    <polygon points="37.7953,0.0 37.7953,37.7953 75.5906,37.7953 75.5906,0.0"/>
    <polygon points="57.3179,11.3976 56.0679,12.0226 54.8179,13.2726 54.1929,14.5226 53.5679,16.3976 53.5679,19.5226 54.1929,21.3976 54.8179,22.6476 56.0679,23.8976 57.3179,24.5226 59.8179,24.5226 61.0679,23.8976 62.3179,22.6476 62.9429,21.3976 63.5679,19.5226 63.5679,16.3976 62.9429,14.5226 62.3179,13.2726 61.0679,12.0226 59.8179,11.3976"/>
    <polygon points="75.5906,0.0 75.5906,37.7953 113.3858,37.7953 113.3858,0.0"/>
    <polyline points="78.4803,3.9193 78.4803,3.6693 78.7303,3.1693 78.9803,2.9193 79.4803,2.6693 80.4803,2.6693 80.9803,2.9193 81.2303,3.1693 81.4803,3.6693 81.4803,4.1693 81.2303,4.6693 80.7303,5.4193 78.2303,7.9193 81.7303,7.9193"/>
    <line x1="92.6132" x2="92.6132" y1="11.3976" y2="24.5226"/>
    <line x1="92.6132" x2="101.3632" y1="11.3976" y2="24.5226"/>
    <line x1="101.3632" x2="101.3632" y1="11.3976" y2="24.5226"/>
    <polygon points="113.3858,0.0 113.3858,0.0 113.3858,0.0 113.3858,0.0"/>
    <polygon points="151.1811,0.0 151.1811,37.7953 188.9764,37.7953 188.9764,0.0"/>
    <polyline points="154.3209,2.6693 157.0709,2.6693 155.5709,4.6693 156.3209,4.6693 156.8209,4.9193 157.0709,5.1693 157.3209,5.9193 157.3209,6.4193 157.0709,7.1693 156.5709,7.6693 155.8209,7.9193 155.0709,7.9193 154.3209,7.6693 154.0709,7.4193 153.8209,6.9193"/>
    <line x1="168.2037" x2="168.2037" y1="11.3976" y2="24.5226"/>
    <polyline points="168.2037,11.3976 172.5787,11.3976 174.4537,12.0226 175.7037,13.2726 176.3287,14.5226 176.9537,16.3976 176.9537,19.5226 176.3287,21.3976 175.7037,22.6476 174.4537,23.8976 172.5787,24.5226 168.2037,24.5226"/>
    <polygon points="188.9764,0.0 188.9764,0.0 188.9764,0.0 188.9764,0.0"/>
    <polygon points="226.7717,0.0 226.7717,0.0 226.7717,0.0 226.7717,0.0"/>
    <polygon points="264.5669,0.0 264.5669,0.0 264.5669,0.0 264.5669,0.0"/>
    <polygon points="302.3622,0.0 302.3622,0.0 302.3622,0.0 302.3622,0.0"/>
    <polygon points="340.1575,0.0 340.1575,37.7953 377.9528,37.7953 377.9528,0.0"/>
    <polyline points="345.2972,2.6693 342.7972,6.1693 346.5472,6.1693"/>
    <line x1="345.2972" x2="345.2972" y1="2.6693" y2="7.9193"/>
    <polyline points="365.6176,14.5226 364.9926,13.2726 363.7426,12.0226 362.4926,11.3976 359.9926,11.3976 358.7426,12.0226 357.4926,13.2726 356.8676,14.5226 356.2426,16.3976 356.2426,19.5226 356.8676,21.3976 357.4926,22.6476 358.7426,23.8976 359.9926,24.5226 362.4926,24.5226 363.7426,23.8976 364.9926,22.6476 365.6176,21.3976 365.6176,19.5226"/>
    <line x1="362.4926" x2="365.6176" y1="19.5226" y2="19.5226"/>
    <polygon points="377.9528,0.0 377.9528,37.7953 415.748,37.7953 415.748,0.0"/>
    <polyline points="383.5925,2.6693 381.0925,2.6693 380.8425,4.9193 381.0925,4.6693 381.8425,4.4193 382.5925,4.4193 383.3425,4.6693 383.8425,5.1693 384.0925,5.9193 384.0925,6.4193 383.8425,7.1693 383.3425,7.6693 382.5925,7.9193 381.8425,7.9193 381.0925,7.6693 380.8425,7.4193 380.5925,6.9193"/>
    <line x1="394.9754" x2="394.9754" y1="11.3976" y2="24.5226"/>
    <polyline points="394.9754,11.3976 400.6004,11.3976 402.4754,12.0226 403.1004,12.6476 403.7254,13.8976 403.7254,15.1476 403.1004,16.3976 402.4754,17.0226 400.6004,17.6476 394.9754,17.6476"/>
    <line x1="399.3504" x2="403.7254" y1="17.6476" y2="24.5226"/>
    <polygon points="415.748,0.0 415.748,37.7953 453.5433,37.7953 453.5433,0.0"/>
    <polygon points="435.2707,11.3976 434.0207,12.0226 432.7707,13.2726 432.1457,14.5226 431.5207,16.3976 431.5207,19.5226 432.1457,21.3976 432.7707,22.6476 434.0207,23.8976 435.2707,24.5226 437.7707,24.5226 439.0207,23.8976 440.2707,22.6476 440.8957,21.3976 441.5207,19.5226 441.5207,16.3976 440.8957,14.5226 440.2707,13.2726 439.0207,12.0226 437.7707,11.3976"/>
    <polygon points="453.5433,0.0 453.5433,37.7953 491.3386,37.7953 491.3386,0.0"/>
    <line x1="470.8784" x2="470.8784" y1="11.3976" y2="24.5226"/>
    <line x1="470.8784" x2="479.0034" y1="11.3976" y2="11.3976"/>
    <line x1="470.8784" x2="475.8784" y1="17.6476" y2="17.6476"/>
    <line x1="470.8784" x2="479.0034" y1="24.5226" y2="24.5226"/>
    <polygon points="491.3386,0.0 491.3386,37.7953 529.1339,37.7953 529.1339,0.0"/>
    <line x1="508.3612" x2="508.3612" y1="11.3976" y2="24.5226"/>
    <polyline points="508.3612,11.3976 513.9862,11.3976 515.8612,12.0226 516.4862,12.6476 517.1112,13.8976 517.1112,15.7726 516.4862,17.0226 515.8612,17.6476 513.9862,18.2726 508.3612,18.2726"/>
    <polygon points="529.1339,0.0 529.1339,37.7953 566.9291,37.7953 566.9291,0.0"/>
    <polyline points="554.2815,13.2726 553.0315,12.0226 551.1565,11.3976 548.6565,11.3976 546.7815,12.0226 545.5315,13.2726 545.5315,14.5226 546.1565,15.7726 546.7815,16.3976 548.0315,17.0226 551.7815,18.2726 553.0315,18.8976 553.6565,19.5226 554.2815,20.7726 554.2815,22.6476 553.0315,23.8976 551.1565,24.5226 548.6565,24.5226 546.7815,23.8976 545.5315,22.6476"/>
    <polygon points="566.9291,0.0 566.9291,37.7953 604.7244,37.7953 604.7244,0.0"/>
    <line x1="584.2643" x2="584.2643" y1="11.3976" y2="24.5226"/>
    <line x1="584.2643" x2="592.3893" y1="11.3976" y2="11.3976"/>
    <line x1="584.2643" x2="589.2643" y1="17.6476" y2="17.6476"/>
    <polygon points="604.7244,0.0 604.7244,37.7953 642.5197,37.7953 642.5197,0.0"/>
    <polygon points="624.247,11.3976 622.997,12.0226 621.747,13.2726 621.122,14.5226 620.497,16.3976 620.497,19.5226 621.122,21.3976 621.747,22.6476 622.997,23.8976 624.247,24.5226 626.747,24.5226 627.997,23.8976 629.247,22.6476 629.872,21.3976 630.497,19.5226 630.497,16.3976 629.872,14.5226 629.247,13.2726 627.997,12.0226 626.747,11.3976"/>
    <polygon points="642.5197,0.0 642.5197,37.7953 680.315,37.7953 680.315,0.0"/>
    <polyline points="648.4094,3.4193 648.1594,2.9193 647.4094,2.6693 646.9094,2.6693 646.1594,2.9193 645.6594,3.6693 645.4094,4.9193 645.4094,6.1693 645.6594,7.1693 646.1594,7.6693 646.9094,7.9193 647.1594,7.9193 647.9094,7.6693 648.4094,7.1693 648.6594,6.4193 648.6594,6.1693 648.4094,5.4193 647.9094,4.9193 647.1594,4.6693 646.9094,4.6693 646.1594,4.9193 645.6594,5.4193 645.4094,6.1693"/>
    <line x1="662.0423" x2="662.0423" y1="11.3976" y2="24.5226"/>
    <line x1="657.6673" x2="666.4173" y1="11.3976" y2="11.3976"/>
    <polygon points="680.315,0.0 680.315,37.7953 718.1102,37.7953 718.1102,0.0"/>
    <polygon points="699.8376,11.3976 698.5876,12.0226 697.3376,13.2726 696.7126,14.5226 696.0876,16.3976 696.0876,19.5226 696.7126,21.3976 697.3376,22.6476 698.5876,23.8976 699.8376,24.5226 702.3376,24.5226 703.5876,23.8976 704.8376,22.6476 705.4626,21.3976 706.0876,19.5226 706.0876,16.3976 705.4626,14.5226 704.8376,13.2726 703.5876,12.0226 702.3376,11.3976"/>
    <polygon points="718.1102,0.0 718.1102,0.0 718.1102,0.0 718.1102,0.0"/>
    <polygon points="755.9055,0.0 755.9055,0.0 755.9055,0.0 755.9055,0.0"/>
    <polygon points="0.0,37.7953 0.0,37.7953 0.0,37.7953 0.0,37.7953"/>
    <polygon points="37.7953,37.7953 37.7953,75.5906 75.5906,75.5906 75.5906,37.7953"/>
    <polygon points="57.3179,49.1929 56.0679,49.8179 54.8179,51.0679 54.1929,52.3179 53.5679,54.1929 53.5679,57.3179 54.1929,59.1929 54.8179,60.4429 56.0679,61.6929 57.3179,62.3179 59.8179,62.3179 61.0679,61.6929 62.3179,60.4429 62.9429,59.1929 63.5679,57.3179 63.5679,54.1929 62.9429,52.3179 62.3179,51.0679 61.0679,49.8179 59.8179,49.1929"/>
    <polygon points="75.5906,37.7953 75.5906,37.7953 75.5906,37.7953 75.5906,37.7953"/>
    <polygon points="113.3858,37.7953 113.3858,75.5906 151.1811,75.5906 151.1811,37.7953"/>
    <line x1="130.4085" x2="130.4085" y1="49.1929" y2="62.3179"/>
    <polyline points="130.4085,49.1929 136.0335,49.1929 137.9085,49.8179 138.5335,50.4429 139.1585,51.6929 139.1585,52.9429 138.5335,54.1929 137.9085,54.8179 136.0335,55.4429 130.4085,55.4429"/>
    <line x1="134.7835" x2="139.1585" y1="55.4429" y2="62.3179"/>
    <polygon points="151.1811,37.7953 151.1811,37.7953 151.1811,37.7953 151.1811,37.7953"/>
    <polygon points="188.9764,37.7953 188.9764,75.5906 226.7717,75.5906 226.7717,37.7953"/>
    <line x1="195.1161" x2="192.6161" y1="40.4646" y2="45.7146"/>
    <line x1="191.6161" x2="195.1161" y1="40.4646" y2="40.4646"/>
    <line x1="205.999" x2="205.999" y1="49.1929" y2="62.3179"/>
    <line x1="214.749" x2="205.999" y1="49.1929" y2="57.9429"/>
    <line x1="209.124" x2="214.749" y1="54.8179" y2="62.3179"/>
    <polygon points="226.7717,37.7953 226.7717,37.7953 226.7717,37.7953 226.7717,37.7953"/>
    <polygon points="264.5669,37.7953 264.5669,75.5906 302.3622,75.5906 302.3622,37.7953"/>
    <polygon points="268.4567,40.4646 267.7067,40.7146 267.4567,41.2146 267.4567,41.7146 267.7067,42.2146 268.2067,42.4646 269.2067,42.7146 269.9567,42.9646 270.4567,43.4646 270.7067,43.9646 270.7067,44.7146 270.4567,45.2146 270.2067,45.4646 269.4567,45.7146 268.4567,45.7146 267.7067,45.4646 267.4567,45.2146 267.2067,44.7146 267.2067,43.9646 267.4567,43.4646 267.9567,42.9646 268.7067,42.7146 269.7067,42.4646 270.2067,42.2146 270.4567,41.7146 270.4567,41.2146 270.2067,40.7146 269.4567,40.4646"/>
    <polyline points="290.0271,52.3179 289.4021,51.0679 288.1521,49.8179 286.9021,49.1929 284.4021,49.1929 283.1521,49.8179 281.9021,51.0679 281.2771,52.3179 280.6521,54.1929 280.6521,57.3179 281.2771,59.1929 281.9021,60.4429 283.1521,61.6929 284.4021,62.3179 286.9021,62.3179 288.1521,61.6929 289.4021,60.4429 290.0271,59.1929 290.0271,57.3179"/>
    <line x1="286.9021" x2="290.0271" y1="57.3179" y2="57.3179"/>
    <polygon points="302.3622,37.7953 302.3622,37.7953 302.3622,37.7953 302.3622,37.7953"/>
    <polygon points="340.1575,37.7953 340.1575,75.5906 377.9528,75.5906 377.9528,37.7953"/>
    <line x1="357.4926" x2="357.4926" y1="49.1929" y2="62.3179"/>
    <line x1="357.4926" x2="365.6176" y1="49.1929" y2="49.1929"/>
    <line x1="357.4926" x2="362.4926" y1="55.4429" y2="55.4429"/>
    <line x1="357.4926" x2="365.6176" y1="62.3179" y2="62.3179"/>
    <polygon points="377.9528,37.7953 377.9528,37.7953 377.9528,37.7953 377.9528,37.7953"/>
    <polygon points="415.748,37.7953 415.748,37.7953 415.748,37.7953 415.748,37.7953"/>
    <polygon points="453.5433,37.7953 453.5433,37.7953 453.5433,37.7953 453.5433,37.7953"/>
    <polygon points="491.3386,37.7953 491.3386,37.7953 491.3386,37.7953 491.3386,37.7953"/>
    <polygon points="529.1339,37.7953 529.1339,37.7953 529.1339,37.7953 529.1339,37.7953"/>
    <polygon points="566.9291,37.7953 566.9291,37.7953 566.9291,37.7953 566.9291,37.7953"/>
    <polygon points="604.7244,37.7953 604.7244,75.5906 642.5197,75.5906 642.5197,37.7953"/>
    <line x1="626.122" x2="626.122" y1="49.1929" y2="62.3179"/>
    <polygon points="642.5197,37.7953 642.5197,37.7953 642.5197,37.7953 642.5197,37.7953"/>
    <polygon points="680.315,37.7953 680.315,37.7953 680.315,37.7953 680.315,37.7953"/>
    <polygon points="718.1102,37.7953 718.1102,37.7953 718.1102,37.7953 718.1102,37.7953"/>
    <polygon points="755.9055,37.7953 755.9055,37.7953 755.9055,37.7953 755.9055,37.7953"/>
    <polygon points="0.0,75.5906 0.0,113.3858 37.7953,113.3858 37.7953,75.5906"/>
    <line x1="19.5226" x2="14.5226" y1="86.9882" y2="100.1132"/>
    <line x1="19.5226" x2="24.5226" y1="86.9882" y2="100.1132"/>
    <line x1="16.3976" x2="22.6476" y1="95.7382" y2="95.7382"/>
    <polygon points="37.7953,75.5906 37.7953,75.5906 37.7953,75.5906 37.7953,75.5906"/>
    <polygon points="75.5906,75.5906 75.5906,113.3858 113.3858,113.3858 113.3858,75.5906"/>
    <polygon points="95.1132,86.9882 93.8632,87.6132 92.6132,88.8632 91.9882,90.1132 91.3632,91.9882 91.3632,95.1132 91.9882,96.9882 92.6132,98.2382 93.8632,99.4882 95.1132,100.1132 97.6132,100.1132 98.8632,99.4882 100.1132,98.2382 100.7382,96.9882 101.3632,95.1132 101.3632,91.9882 100.7382,90.1132 100.1132,88.8632 98.8632,87.6132 97.6132,86.9882"/>
    <polygon points="113.3858,75.5906 113.3858,75.5906 113.3858,75.5906 113.3858,75.5906"/>
    <polygon points="151.1811,75.5906 151.1811,113.3858 188.9764,113.3858 188.9764,75.5906"/>
    <line x1="172.5787" x2="172.5787" y1="86.9882" y2="100.1132"/>
    <polygon points="188.9764,75.5906 188.9764,75.5906 188.9764,75.5906 188.9764,75.5906"/>
    <polygon points="226.7717,75.5906 226.7717,113.3858 264.5669,113.3858 264.5669,75.5906"/>
    <line x1="243.7943" x2="243.7943" y1="86.9882" y2="100.1132"/>
    <polyline points="243.7943,86.9882 249.4193,86.9882 251.2943,87.6132 251.9193,88.2382 252.5443,89.4882 252.5443,90.7382 251.9193,91.9882 251.2943,92.6132 249.4193,93.2382 243.7943,93.2382"/>
    <line x1="248.1693" x2="252.5443" y1="93.2382" y2="100.1132"/>
    <polygon points="264.5669,75.5906 264.5669,75.5906 264.5669,75.5906 264.5669,75.5906"/>
    <polygon points="302.3622,75.5906 302.3622,113.3858 340.1575,113.3858 340.1575,75.5906"/>
    <polyline points="308.252,80.0098 308.002,80.7598 307.502,81.2598 306.752,81.5098 306.502,81.5098 305.752,81.2598 305.252,80.7598 305.002,80.0098 305.002,79.7598 305.252,79.0098 305.752,78.5098 306.502,78.2598 306.752,78.2598 307.502,78.5098 308.002,79.0098 308.252,80.0098 308.252,81.2598 308.002,82.5098 307.502,83.2598 306.752,83.5098 306.252,83.5098 305.502,83.2598 305.252,82.7598"/>
    <line x1="319.3848" x2="319.3848" y1="86.9882" y2="100.1132"/>
    <line x1="328.1348" x2="319.3848" y1="86.9882" y2="95.7382"/>
    <line x1="322.5098" x2="328.1348" y1="92.6132" y2="100.1132"/>
    <polygon points="340.1575,75.5906 340.1575,113.3858 377.9528,113.3858 377.9528,75.5906"/>
    <line x1="357.8051" x2="357.8051" y1="86.9882" y2="100.1132"/>
    <line x1="357.8051" x2="365.3051" y1="100.1132" y2="100.1132"/>
    <polygon points="377.9528,75.5906 377.9528,113.3858 415.748,113.3858 415.748,75.5906"/>
    <line x1="397.4754" x2="392.4754" y1="86.9882" y2="100.1132"/>
    <line x1="397.4754" x2="402.4754" y1="86.9882" y2="100.1132"/>
    <line x1="394.3504" x2="400.6004" y1="95.7382" y2="95.7382"/>
    <polygon points="415.748,75.5906 415.748,113.3858 453.5433,113.3858 453.5433,75.5906"/>
    <line x1="430.2707" x2="435.2707" y1="86.9882" y2="100.1132"/>
    <line x1="440.2707" x2="435.2707" y1="86.9882" y2="100.1132"/>
    <polygon points="453.5433,75.5906 453.5433,113.3858 491.3386,113.3858 491.3386,75.5906"/>
    <line x1="470.8784" x2="470.8784" y1="86.9882" y2="100.1132"/>
    <line x1="470.8784" x2="479.0034" y1="86.9882" y2="86.9882"/>
    <line x1="470.8784" x2="475.8784" y1="93.2382" y2="93.2382"/>
    <line x1="470.8784" x2="479.0034" y1="100.1132" y2="100.1132"/>
    <polygon points="491.3386,75.5906 491.3386,113.3858 529.1339,113.3858 529.1339,75.5906"/>
    <line x1="508.3612" x2="508.3612" y1="86.9882" y2="100.1132"/>
    <polyline points="508.3612,86.9882 513.9862,86.9882 515.8612,87.6132 516.4862,88.2382 517.1112,89.4882 517.1112,90.7382 516.4862,91.9882 515.8612,92.6132 513.9862,93.2382 508.3612,93.2382"/>
    <line x1="512.7362" x2="517.1112" y1="93.2382" y2="100.1132"/>
    <polygon points="529.1339,75.5906 529.1339,113.3858 566.9291,113.3858 566.9291,75.5906"/>
    <line x1="548.6565" x2="548.6565" y1="86.9882" y2="100.1132"/>
    <line x1="544.2815" x2="553.0315" y1="86.9882" y2="86.9882"/>
    <polygon points="566.9291,75.5906 566.9291,113.3858 604.7244,113.3858 604.7244,75.5906"/>
    <polyline points="590.2018,86.9882 590.2018,96.9882 589.5768,98.8632 588.9518,99.4882 587.7018,100.1132 586.4518,100.1132 585.2018,99.4882 584.5768,98.8632 583.9518,96.9882 583.9518,95.7382"/>
    <polygon points="604.7244,75.5906 604.7244,113.3858 642.5197,113.3858 642.5197,75.5906"/>
    <line x1="622.0595" x2="622.0595" y1="86.9882" y2="100.1132"/>
    <line x1="622.0595" x2="630.1845" y1="86.9882" y2="86.9882"/>
    <line x1="622.0595" x2="627.0595" y1="93.2382" y2="93.2382"/>
    <line x1="622.0595" x2="630.1845" y1="100.1132" y2="100.1132"/>
    <polygon points="642.5197,75.5906 642.5197,75.5906 642.5197,75.5906 642.5197,75.5906"/>
    <polygon points="680.315,75.5906 680.315,75.5906 680.315,75.5906 680.315,75.5906"/>
    <polygon points="718.1102,75.5906 718.1102,113.3858 755.9055,113.3858 755.9055,75.5906"/>
    <polyline points="721.5,79.2598 722.0,79.0098 722.75,78.2598 722.75,83.5098"/>
    <polygon points="727.25,78.2598 726.5,78.5098 726.0,79.2598 725.75,80.5098 725.75,81.2598 726.0,82.5098 726.5,83.2598 727.25,83.5098 727.75,83.5098 728.5,83.2598 729.0,82.5098 729.25,81.2598 729.25,80.5098 729.0,79.2598 728.5,78.5098 727.75,78.2598"/>
    <polyline points="743.5704,90.1132 742.9454,88.8632 741.6954,87.6132 740.4454,86.9882 737.9454,86.9882 736.6954,87.6132 735.4454,88.8632 734.8204,90.1132 734.1954,91.9882 734.1954,95.1132 734.8204,96.9882 735.4454,98.2382 736.6954,99.4882 737.9454,100.1132 740.4454,100.1132 741.6954,99.4882 742.9454,98.2382 743.5704,96.9882"/>
    <polygon points="755.9055,75.5906 755.9055,113.3858 793.7008,113.3858 793.7008,75.5906"/>
    <line x1="772.9281" x2="772.9281" y1="86.9882" y2="100.1132"/>
    <line x1="781.6781" x2="781.6781" y1="86.9882" y2="100.1132"/>
    <line x1="772.9281" x2="781.6781" y1="93.2382" y2="93.2382"/>
    <polygon points="0.0,113.3858 0.0,151.1811 37.7953,151.1811 37.7953,113.3858"/>
    <line x1="21.3976" x2="21.3976" y1="124.7835" y2="137.9085"/>
    <polygon points="37.7953,113.3858 37.7953,151.1811 75.5906,151.1811 75.5906,113.3858"/>
    <line x1="54.8179" x2="54.8179" y1="124.7835" y2="137.9085"/>
    <polyline points="54.8179,124.7835 60.4429,124.7835 62.3179,125.4085 62.9429,126.0335 63.5679,127.2835 63.5679,129.1585 62.9429,130.4085 62.3179,131.0335 60.4429,131.6585 54.8179,131.6585"/>
    <polygon points="75.5906,113.3858 75.5906,151.1811 113.3858,151.1811 113.3858,113.3858"/>
    <polyline points="98.8632,124.7835 98.8632,134.7835 98.2382,136.6585 97.6132,137.2835 96.3632,137.9085 95.1132,137.9085 93.8632,137.2835 93.2382,136.6585 92.6132,134.7835 92.6132,133.5335"/>
    <polygon points="113.3858,113.3858 113.3858,151.1811 151.1811,151.1811 151.1811,113.3858"/>
    <line x1="130.721" x2="130.721" y1="124.7835" y2="137.9085"/>
    <line x1="130.721" x2="138.846" y1="124.7835" y2="124.7835"/>
    <line x1="130.721" x2="135.721" y1="131.0335" y2="131.0335"/>
    <line x1="130.721" x2="138.846" y1="137.9085" y2="137.9085"/>
    <polygon points="151.1811,113.3858 151.1811,113.3858 151.1811,113.3858 151.1811,113.3858"/>
    <polygon points="188.9764,113.3858 188.9764,151.1811 226.7717,151.1811 226.7717,113.3858"/>
    <line x1="208.499" x2="203.499" y1="124.7835" y2="137.9085"/>
    <line x1="208.499" x2="213.499" y1="124.7835" y2="137.9085"/>
    <line x1="205.374" x2="211.624" y1="133.5335" y2="133.5335"/>
    <polygon points="226.7717,113.3858 226.7717,113.3858 226.7717,113.3858 226.7717,113.3858"/>
    <polygon points="264.5669,113.3858 264.5669,151.1811 302.3622,151.1811 302.3622,113.3858"/>
    <line x1="281.5896" x2="281.5896" y1="124.7835" y2="137.9085"/>
    <line x1="290.3396" x2="281.5896" y1="124.7835" y2="133.5335"/>
    <line x1="284.7146" x2="290.3396" y1="130.4085" y2="137.9085"/>
    <polygon points="302.3622,113.3858 302.3622,113.3858 302.3622,113.3858 302.3622,113.3858"/>
    <polygon points="340.1575,113.3858 340.1575,113.3858 340.1575,113.3858 340.1575,113.3858"/>
    <polygon points="377.9528,113.3858 377.9528,113.3858 377.9528,113.3858 377.9528,113.3858"/>
    <polygon points="415.748,113.3858 415.748,113.3858 415.748,113.3858 415.748,113.3858"/>
    <polygon points="453.5433,113.3858 453.5433,113.3858 453.5433,113.3858 453.5433,113.3858"/>
    <polygon points="491.3386,113.3858 491.3386,113.3858 491.3386,113.3858 491.3386,113.3858"/>
    <polygon points="529.1339,113.3858 529.1339,151.1811 566.9291,151.1811 566.9291,113.3858"/>
    <line x1="546.1565" x2="546.1565" y1="124.7835" y2="137.9085"/>
    <line x1="546.1565" x2="554.9065" y1="124.7835" y2="137.9085"/>
    <line x1="554.9065" x2="554.9065" y1="124.7835" y2="137.9085"/>
    <polygon points="566.9291,113.3858 566.9291,113.3858 566.9291,113.3858 566.9291,113.3858"/>
    <polygon points="604.7244,113.3858 604.7244,113.3858 604.7244,113.3858 604.7244,113.3858"/>
    <polygon points="642.5197,113.3858 642.5197,113.3858 642.5197,113.3858 642.5197,113.3858"/>
    <polygon points="680.315,113.3858 680.315,113.3858 680.315,113.3858 680.315,113.3858"/>
    <polygon points="718.1102,113.3858 718.1102,113.3858 718.1102,113.3858 718.1102,113.3858"/>
    <polygon points="755.9055,113.3858 755.9055,113.3858 755.9055,113.3858 755.9055,113.3858"/>
    <polygon points="0.0,151.1811 0.0,151.1811 0.0,151.1811 0.0,151.1811"/>
    <polygon points="37.7953,151.1811 37.7953,151.1811 37.7953,151.1811 37.7953,151.1811"/>
    <polygon points="75.5906,151.1811 75.5906,188.9764 113.3858,188.9764 113.3858,151.1811"/>
    <polyline points="78.9803,154.8504 79.4803,154.6004 80.2303,153.8504 80.2303,159.1004"/>
    <polyline points="83.9803,154.8504 84.4803,154.6004 85.2303,153.8504 85.2303,159.1004"/>
    <line x1="91.9882" x2="91.9882" y1="162.5787" y2="175.7037"/>
    <line x1="91.9882" x2="96.9882" y1="162.5787" y2="175.7037"/>
    <line x1="101.9882" x2="96.9882" y1="162.5787" y2="175.7037"/>
    <line x1="101.9882" x2="101.9882" y1="162.5787" y2="175.7037"/>
    <polygon points="113.3858,151.1811 113.3858,188.9764 151.1811,188.9764 151.1811,151.1811"/>
    <line x1="134.7835" x2="134.7835" y1="162.5787" y2="175.7037"/>
    <polygon points="151.1811,151.1811 151.1811,188.9764 188.9764,188.9764 188.9764,151.1811"/>
    <polyline points="176.3287,164.4537 175.0787,163.2037 173.2037,162.5787 170.7037,162.5787 168.8287,163.2037 167.5787,164.4537 167.5787,165.7037 168.2037,166.9537 168.8287,167.5787 170.0787,168.2037 173.8287,169.4537 175.0787,170.0787 175.7037,170.7037 176.3287,171.9537 176.3287,173.8287 175.0787,175.0787 173.2037,175.7037 170.7037,175.7037 168.8287,175.0787 167.5787,173.8287"/>
    <polygon points="188.9764,151.1811 188.9764,188.9764 226.7717,188.9764 226.7717,151.1811"/>
    <line x1="203.499" x2="208.499" y1="162.5787" y2="175.7037"/>
    <line x1="213.499" x2="208.499" y1="162.5787" y2="175.7037"/>
    <polygon points="226.7717,151.1811 226.7717,188.9764 264.5669,188.9764 264.5669,151.1811"/>
    <line x1="244.1068" x2="244.1068" y1="162.5787" y2="175.7037"/>
    <line x1="244.1068" x2="252.2318" y1="162.5787" y2="162.5787"/>
    <line x1="244.1068" x2="249.1068" y1="168.8287" y2="168.8287"/>
    <line x1="244.1068" x2="252.2318" y1="175.7037" y2="175.7037"/>
    <polygon points="264.5669,151.1811 264.5669,188.9764 302.3622,188.9764 302.3622,151.1811"/>
    <line x1="281.5896" x2="281.5896" y1="162.5787" y2="175.7037"/>
    <polyline points="281.5896,162.5787 287.2146,162.5787 289.0896,163.2037 289.7146,163.8287 290.3396,165.0787 290.3396,166.3287 289.7146,167.5787 289.0896,168.2037 287.2146,168.8287 281.5896,168.8287"/>
    <line x1="285.9646" x2="290.3396" y1="168.8287" y2="175.7037"/>
    <polygon points="302.3622,151.1811 302.3622,188.9764 340.1575,188.9764 340.1575,151.1811"/>
    <polyline points="327.5098,164.4537 326.2598,163.2037 324.3848,162.5787 321.8848,162.5787 320.0098,163.2037 318.7598,164.4537 318.7598,165.7037 319.3848,166.9537 320.0098,167.5787 321.2598,168.2037 325.0098,169.4537 326.2598,170.0787 326.8848,170.7037 327.5098,171.9537 327.5098,173.8287 326.2598,175.0787 324.3848,175.7037 321.8848,175.7037 320.0098,175.0787 318.7598,173.8287"/>
    <polygon points="340.1575,151.1811 340.1575,188.9764 377.9528,188.9764 377.9528,151.1811"/>
    <line x1="359.6801" x2="359.6801" y1="162.5787" y2="175.7037"/>
    <line x1="355.3051" x2="364.0551" y1="162.5787" y2="162.5787"/>
    <polygon points="377.9528,151.1811 377.9528,188.9764 415.748,188.9764 415.748,151.1811"/>
    <line x1="397.4754" x2="392.4754" y1="162.5787" y2="175.7037"/>
    <line x1="397.4754" x2="402.4754" y1="162.5787" y2="175.7037"/>
    <line x1="394.3504" x2="400.6004" y1="171.3287" y2="171.3287"/>
    <polygon points="415.748,151.1811 415.748,188.9764 453.5433,188.9764 453.5433,151.1811"/>
    <line x1="432.7707" x2="432.7707" y1="162.5787" y2="175.7037"/>
    <line x1="432.7707" x2="441.5207" y1="162.5787" y2="175.7037"/>
    <line x1="441.5207" x2="441.5207" y1="162.5787" y2="175.7037"/>
    <polygon points="453.5433,151.1811 453.5433,188.9764 491.3386,188.9764 491.3386,151.1811"/>
    <line x1="470.5659" x2="470.5659" y1="162.5787" y2="175.7037"/>
    <polyline points="470.5659,162.5787 474.9409,162.5787 476.8159,163.2037 478.0659,164.4537 478.6909,165.7037 479.3159,167.5787 479.3159,170.7037 478.6909,172.5787 478.0659,173.8287 476.8159,175.0787 474.9409,175.7037 470.5659,175.7037"/>
    <polygon points="491.3386,151.1811 491.3386,151.1811 491.3386,151.1811 491.3386,151.1811"/>
    <polygon points="529.1339,151.1811 529.1339,151.1811 529.1339,151.1811 529.1339,151.1811"/>
    <polygon points="566.9291,151.1811 566.9291,188.9764 604.7244,188.9764 604.7244,151.1811"/>
    <polyline points="570.3189,154.8504 570.8189,154.6004 571.5689,153.8504 571.5689,159.1004"/>
    <polyline points="574.8189,155.1004 574.8189,154.8504 575.0689,154.3504 575.3189,154.1004 575.8189,153.8504 576.8189,153.8504 577.3189,154.1004 577.5689,154.3504 577.8189,154.8504 577.8189,155.3504 577.5689,155.8504 577.0689,156.6004 574.5689,159.1004 578.0689,159.1004"/>
    <line x1="584.2643" x2="584.2643" y1="162.5787" y2="175.7037"/>
    <line x1="584.2643" x2="592.3893" y1="162.5787" y2="162.5787"/>
    <line x1="584.2643" x2="589.2643" y1="168.8287" y2="168.8287"/>
    <polygon points="604.7244,151.1811 604.7244,151.1811 604.7244,151.1811 604.7244,151.1811"/>
    <polygon points="642.5197,151.1811 642.5197,188.9764 680.315,188.9764 680.315,151.1811"/>
    <polyline points="645.9094,154.8504 646.4094,154.6004 647.1594,153.8504 647.1594,159.1004"/>
    <polyline points="650.6594,153.8504 653.4094,153.8504 651.9094,155.8504 652.6594,155.8504 653.1594,156.1004 653.4094,156.3504 653.6594,157.1004 653.6594,157.6004 653.4094,158.3504 652.9094,158.8504 652.1594,159.1004 651.4094,159.1004 650.6594,158.8504 650.4094,158.6004 650.1594,158.1004"/>
    <polyline points="667.9798,165.7037 667.3548,164.4537 666.1048,163.2037 664.8548,162.5787 662.3548,162.5787 661.1048,163.2037 659.8548,164.4537 659.2298,165.7037 658.6048,167.5787 658.6048,170.7037 659.2298,172.5787 659.8548,173.8287 661.1048,175.0787 662.3548,175.7037 664.8548,175.7037 666.1048,175.0787 667.3548,173.8287 667.9798,172.5787"/>
    <polygon points="680.315,151.1811 680.315,188.9764 718.1102,188.9764 718.1102,151.1811"/>
    <line x1="697.6501" x2="697.6501" y1="162.5787" y2="175.7037"/>
    <line x1="697.6501" x2="705.7751" y1="162.5787" y2="162.5787"/>
    <line x1="697.6501" x2="702.6501" y1="168.8287" y2="168.8287"/>
    <line x1="697.6501" x2="705.7751" y1="175.7037" y2="175.7037"/>
    <polygon points="718.1102,151.1811 718.1102,188.9764 755.9055,188.9764 755.9055,151.1811"/>
    <polyline points="721.5,154.8504 722.0,154.6004 722.75,153.8504 722.75,159.1004"/>
    <polyline points="728.25,153.8504 725.75,157.3504 729.5,157.3504"/>
    <line x1="728.25" x2="728.25" y1="153.8504" y2="159.1004"/>
    <line x1="735.7579" x2="735.7579" y1="162.5787" y2="175.7037"/>
    <line x1="735.7579" x2="743.2579" y1="175.7037" y2="175.7037"/>
    <polygon points="755.9055,151.1811 755.9055,188.9764 793.7008,188.9764 793.7008,151.1811"/>
    <line x1="777.3031" x2="777.3031" y1="162.5787" y2="175.7037"/>
    <polygon points="0.0,188.9764 0.0,226.7717 37.7953,226.7717 37.7953,188.9764"/>
    <line x1="17.0226" x2="17.0226" y1="200.374" y2="213.499"/>
    <line x1="17.0226" x2="25.7726" y1="200.374" y2="213.499"/>
    <line x1="25.7726" x2="25.7726" y1="200.374" y2="213.499"/>
    <polygon points="37.7953,188.9764 37.7953,226.7717 75.5906,226.7717 75.5906,188.9764"/>
    <line x1="55.1304" x2="55.1304" y1="200.374" y2="213.499"/>
    <line x1="55.1304" x2="63.2554" y1="200.374" y2="200.374"/>
    <line x1="55.1304" x2="60.1304" y1="206.624" y2="206.624"/>
    <line x1="55.1304" x2="63.2554" y1="213.499" y2="213.499"/>
    <polygon points="75.5906,188.9764 75.5906,188.9764 75.5906,188.9764 75.5906,188.9764"/>
    <polygon points="113.3858,188.9764 113.3858,188.9764 113.3858,188.9764 113.3858,188.9764"/>
    <polygon points="151.1811,188.9764 151.1811,188.9764 151.1811,188.9764 151.1811,188.9764"/>
    <polygon points="188.9764,188.9764 188.9764,226.7717 226.7717,226.7717 226.7717,188.9764"/>
    <line x1="205.999" x2="205.999" y1="200.374" y2="213.499"/>
    <polyline points="205.999,200.374 211.624,200.374 213.499,200.999 214.124,201.624 214.749,202.874 214.749,204.124 214.124,205.374 213.499,205.999 211.624,206.624 205.999,206.624"/>
    <line x1="210.374" x2="214.749" y1="206.624" y2="213.499"/>
    <polygon points="226.7717,188.9764 226.7717,188.9764 226.7717,188.9764 226.7717,188.9764"/>
    <polygon points="264.5669,188.9764 264.5669,188.9764 264.5669,188.9764 264.5669,188.9764"/>
    <polygon points="302.3622,188.9764 302.3622,188.9764 302.3622,188.9764 302.3622,188.9764"/>
    <polygon points="340.1575,188.9764 340.1575,188.9764 340.1575,188.9764 340.1575,188.9764"/>
    <polygon points="377.9528,188.9764 377.9528,188.9764 377.9528,188.9764 377.9528,188.9764"/>
    <polygon points="415.748,188.9764 415.748,188.9764 415.748,188.9764 415.748,188.9764"/>
    <polygon points="453.5433,188.9764 453.5433,188.9764 453.5433,188.9764 453.5433,188.9764"/>
    <polygon points="491.3386,188.9764 491.3386,188.9764 491.3386,188.9764 491.3386,188.9764"/>
    <polygon points="529.1339,188.9764 529.1339,226.7717 566.9291,226.7717 566.9291,188.9764"/>
    <line x1="546.1565" x2="546.1565" y1="200.374" y2="213.499"/>
    <polyline points="546.1565,200.374 551.7815,200.374 553.6565,200.999 554.2815,201.624 554.9065,202.874 554.9065,204.124 554.2815,205.374 553.6565,205.999 551.7815,206.624 546.1565,206.624"/>
    <line x1="550.5315" x2="554.9065" y1="206.624" y2="213.499"/>
    <polygon points="566.9291,188.9764 566.9291,188.9764 566.9291,188.9764 566.9291,188.9764"/>
    <polygon points="604.7244,188.9764 604.7244,188.9764 604.7244,188.9764 604.7244,188.9764"/>
    <polygon points="642.5197,188.9764 642.5197,188.9764 642.5197,188.9764 642.5197,188.9764"/>
    <polygon points="680.315,188.9764 680.315,226.7717 718.1102,226.7717 718.1102,188.9764"/>
    <line x1="701.7126" x2="701.7126" y1="200.374" y2="213.499"/>
    <polygon points="718.1102,188.9764 718.1102,188.9764 718.1102,188.9764 718.1102,188.9764"/>
    <polygon points="755.9055,188.9764 755.9055,188.9764 755.9055,188.9764 755.9055,188.9764"/>
    <polygon points="0.0,226.7717 0.0,264.5669 37.7953,264.5669 37.7953,226.7717"/>
    <line x1="17.0226" x2="17.0226" y1="238.1693" y2="251.2943"/>
    <line x1="17.0226" x2="25.7726" y1="238.1693" y2="251.2943"/>
    <line x1="25.7726" x2="25.7726" y1="238.1693" y2="251.2943"/>
    <polygon points="37.7953,226.7717 37.7953,226.7717 37.7953,226.7717 37.7953,226.7717"/>
    <polygon points="75.5906,226.7717 75.5906,264.5669 113.3858,264.5669 113.3858,226.7717"/>
    <polyline points="78.9803,230.4409 79.4803,230.1909 80.2303,229.4409 80.2303,234.6909"/>
    <polyline points="86.2303,229.4409 83.7303,229.4409 83.4803,231.6909 83.7303,231.4409 84.4803,231.1909 85.2303,231.1909 85.9803,231.4409 86.4803,231.9409 86.7303,232.6909 86.7303,233.1909 86.4803,233.9409 85.9803,234.4409 85.2303,234.6909 84.4803,234.6909 83.7303,234.4409 83.4803,234.1909 83.2303,233.6909"/>
    <polyline points="92.6132,238.1693 92.6132,247.5443 93.2382,249.4193 94.4882,250.6693 96.3632,251.2943 97.6132,251.2943 99.4882,250.6693 100.7382,249.4193 101.3632,247.5443 101.3632,238.1693"/>
    <polygon points="113.3858,226.7717 113.3858,264.5669 151.1811,264.5669 151.1811,226.7717"/>
    <line x1="134.7835" x2="134.7835" y1="238.1693" y2="251.2943"/>
    <polygon points="151.1811,226.7717 151.1811,264.5669 188.9764,264.5669 188.9764,226.7717"/>
    <line x1="170.7037" x2="170.7037" y1="238.1693" y2="251.2943"/>
    <line x1="166.3287" x2="175.0787" y1="238.1693" y2="238.1693"/>
    <polygon points="188.9764,226.7717 188.9764,264.5669 226.7717,264.5669 226.7717,226.7717"/>
    <line x1="206.624" x2="206.624" y1="238.1693" y2="251.2943"/>
    <line x1="206.624" x2="214.124" y1="251.2943" y2="251.2943"/>
    <polygon points="226.7717,226.7717 226.7717,264.5669 264.5669,264.5669 264.5669,226.7717"/>
    <line x1="248.1693" x2="248.1693" y1="238.1693" y2="251.2943"/>
    <polygon points="264.5669,226.7717 264.5669,264.5669 302.3622,264.5669 302.3622,226.7717"/>
    <line x1="281.5896" x2="281.5896" y1="238.1693" y2="251.2943"/>
    <line x1="290.3396" x2="281.5896" y1="238.1693" y2="246.9193"/>
    <line x1="284.7146" x2="290.3396" y1="243.7943" y2="251.2943"/>
    <polygon points="302.3622,226.7717 302.3622,264.5669 340.1575,264.5669 340.1575,226.7717"/>
    <line x1="319.3848" x2="319.3848" y1="238.1693" y2="251.2943"/>
    <line x1="328.1348" x2="319.3848" y1="238.1693" y2="246.9193"/>
    <line x1="322.5098" x2="328.1348" y1="243.7943" y2="251.2943"/>
    <polygon points="340.1575,226.7717 340.1575,264.5669 377.9528,264.5669 377.9528,226.7717"/>
    <line x1="357.4926" x2="357.4926" y1="238.1693" y2="251.2943"/>
    <line x1="357.4926" x2="365.6176" y1="238.1693" y2="238.1693"/>
    <line x1="357.4926" x2="362.4926" y1="244.4193" y2="244.4193"/>
    <line x1="357.4926" x2="365.6176" y1="251.2943" y2="251.2943"/>
    <polygon points="377.9528,226.7717 377.9528,264.5669 415.748,264.5669 415.748,226.7717"/>
    <line x1="394.9754" x2="394.9754" y1="238.1693" y2="251.2943"/>
    <line x1="394.9754" x2="403.7254" y1="238.1693" y2="251.2943"/>
    <line x1="403.7254" x2="403.7254" y1="238.1693" y2="251.2943"/>
    <polygon points="415.748,226.7717 415.748,226.7717 415.748,226.7717 415.748,226.7717"/>
    <polygon points="453.5433,226.7717 453.5433,264.5669 491.3386,264.5669 491.3386,226.7717"/>
    <polyline points="456.9331,230.4409 457.4331,230.1909 458.1831,229.4409 458.1831,234.6909"/>
    <polyline points="464.4331,230.1909 464.1831,229.6909 463.4331,229.4409 462.9331,229.4409 462.1831,229.6909 461.6831,230.4409 461.4331,231.6909 461.4331,232.9409 461.6831,233.9409 462.1831,234.4409 462.9331,234.6909 463.1831,234.6909 463.9331,234.4409 464.4331,233.9409 464.6831,233.1909 464.6831,232.9409 464.4331,232.1909 463.9331,231.6909 463.1831,231.4409 462.9331,231.4409 462.1831,231.6909 461.6831,232.1909 461.4331,232.9409"/>
    <polyline points="476.8159,238.1693 476.8159,248.1693 476.1909,250.0443 475.5659,250.6693 474.3159,251.2943 473.0659,251.2943 471.8159,250.6693 471.1909,250.0443 470.5659,248.1693 470.5659,246.9193"/>
    <polygon points="491.3386,226.7717 491.3386,264.5669 529.1339,264.5669 529.1339,226.7717"/>
    <line x1="510.8612" x2="505.8612" y1="238.1693" y2="251.2943"/>
    <line x1="510.8612" x2="515.8612" y1="238.1693" y2="251.2943"/>
    <line x1="507.7362" x2="513.9862" y1="246.9193" y2="246.9193"/>
    <polygon points="529.1339,226.7717 529.1339,226.7717 529.1339,226.7717 529.1339,226.7717"/>
    <polygon points="566.9291,226.7717 566.9291,226.7717 566.9291,226.7717 566.9291,226.7717"/>
    <polygon points="604.7244,226.7717 604.7244,226.7717 604.7244,226.7717 604.7244,226.7717"/>
    <polygon points="642.5197,226.7717 642.5197,264.5669 680.315,264.5669 680.315,226.7717"/>
    <line x1="659.8548" x2="659.8548" y1="238.1693" y2="251.2943"/>
    <line x1="659.8548" x2="667.9798" y1="238.1693" y2="238.1693"/>
    <line x1="659.8548" x2="664.8548" y1="244.4193" y2="244.4193"/>
    <polygon points="680.315,226.7717 680.315,226.7717 680.315,226.7717 680.315,226.7717"/>
    <polygon points="718.1102,226.7717 718.1102,226.7717 718.1102,226.7717 718.1102,226.7717"/>
    <polygon points="755.9055,226.7717 755.9055,226.7717 755.9055,226.7717 755.9055,226.7717"/>
    <polygon points="0.0,264.5669 0.0,264.5669 0.0,264.5669 0.0,264.5669"/>
    <polygon points="37.7953,264.5669 37.7953,264.5669 37.7953,264.5669 37.7953,264.5669"/>
    <polygon points="75.5906,264.5669 75.5906,264.5669 75.5906,264.5669 75.5906,264.5669"/>
    <polygon points="113.3858,264.5669 113.3858,302.3622 151.1811,302.3622 151.1811,264.5669"/>
    <polyline points="136.6585,275.9646 136.6585,285.9646 136.0335,287.8396 135.4085,288.4646 134.1585,289.0896 132.9085,289.0896 131.6585,288.4646 131.0335,287.8396 130.4085,285.9646 130.4085,284.7146"/>
    <polygon points="151.1811,264.5669 151.1811,264.5669 151.1811,264.5669 151.1811,264.5669"/>
    <polygon points="188.9764,264.5669 188.9764,264.5669 188.9764,264.5669 188.9764,264.5669"/>
    <polygon points="226.7717,264.5669 226.7717,264.5669 226.7717,264.5669 226.7717,264.5669"/>
    <polygon points="264.5669,264.5669 264.5669,264.5669 264.5669,264.5669 264.5669,264.5669"/>
    <polygon points="302.3622,264.5669 302.3622,264.5669 302.3622,264.5669 302.3622,264.5669"/>
    <polygon points="340.1575,264.5669 340.1575,264.5669 340.1575,264.5669 340.1575,264.5669"/>
    <polygon points="377.9528,264.5669 377.9528,264.5669 377.9528,264.5669 377.9528,264.5669"/>
    <polygon points="415.748,264.5669 415.748,264.5669 415.748,264.5669 415.748,264.5669"/>
    <polygon points="453.5433,264.5669 453.5433,302.3622 491.3386,302.3622 491.3386,264.5669"/>
    <line x1="470.5659" x2="470.5659" y1="275.9646" y2="289.0896"/>
    <line x1="470.5659" x2="479.3159" y1="275.9646" y2="289.0896"/>
    <line x1="479.3159" x2="479.3159" y1="275.9646" y2="289.0896"/>
    <polygon points="491.3386,264.5669 491.3386,264.5669 491.3386,264.5669 491.3386,264.5669"/>
    <polygon points="529.1339,264.5669 529.1339,264.5669 529.1339,264.5669 529.1339,264.5669"/>
    <polygon points="566.9291,264.5669 566.9291,264.5669 566.9291,264.5669 566.9291,264.5669"/>
    <polygon points="604.7244,264.5669 604.7244,302.3622 642.5197,302.3622 642.5197,264.5669"/>
    <line x1="624.247" x2="624.247" y1="275.9646" y2="289.0896"/>
    <line x1="619.872" x2="628.622" y1="275.9646" y2="275.9646"/>
    <polygon points="642.5197,264.5669 642.5197,264.5669 642.5197,264.5669 642.5197,264.5669"/>
    <polygon points="680.315,264.5669 680.315,264.5669 680.315,264.5669 680.315,264.5669"/>
    <polygon points="718.1102,264.5669 718.1102,264.5669 718.1102,264.5669 718.1102,264.5669"/>
    <polygon points="755.9055,264.5669 755.9055,264.5669 755.9055,264.5669 755.9055,264.5669"/>
    <polygon points="0.0,302.3622 0.0,340.1575 37.7953,340.1575 37.7953,302.3622"/>
    <polyline points="3.3898,306.0315 3.8898,305.7815 4.6398,305.0315 4.6398,310.2815"/>
    <line x1="11.1398" x2="8.6398" y1="305.0315" y2="310.2815"/>
    <line x1="7.6398" x2="11.1398" y1="305.0315" y2="305.0315"/>
    <line x1="17.3351" x2="17.3351" y1="313.7598" y2="326.8848"/>
    <line x1="17.3351" x2="25.4601" y1="313.7598" y2="313.7598"/>
    <line x1="17.3351" x2="22.3351" y1="320.0098" y2="320.0098"/>
    <polygon points="37.7953,302.3622 37.7953,340.1575 75.5906,340.1575 75.5906,302.3622"/>
    <line x1="55.4429" x2="55.4429" y1="313.7598" y2="326.8848"/>
    <line x1="55.4429" x2="62.9429" y1="326.8848" y2="326.8848"/>
    <polygon points="75.5906,302.3622 75.5906,340.1575 113.3858,340.1575 113.3858,302.3622"/>
    <line x1="92.9257" x2="92.9257" y1="313.7598" y2="326.8848"/>
    <line x1="92.9257" x2="101.0507" y1="313.7598" y2="313.7598"/>
    <line x1="92.9257" x2="97.9257" y1="320.0098" y2="320.0098"/>
    <line x1="92.9257" x2="101.0507" y1="326.8848" y2="326.8848"/>
    <polygon points="113.3858,302.3622 113.3858,340.1575 151.1811,340.1575 151.1811,302.3622"/>
    <polyline points="138.5335,315.6348 137.2835,314.3848 135.4085,313.7598 132.9085,313.7598 131.0335,314.3848 129.7835,315.6348 129.7835,316.8848 130.4085,318.1348 131.0335,318.7598 132.2835,319.3848 136.0335,320.6348 137.2835,321.2598 137.9085,321.8848 138.5335,323.1348 138.5335,325.0098 137.2835,326.2598 135.4085,326.8848 132.9085,326.8848 131.0335,326.2598 129.7835,325.0098"/>
    <polygon points="151.1811,302.3622 151.1811,340.1575 188.9764,340.1575 188.9764,302.3622"/>
    <polyline points="176.3287,315.6348 175.0787,314.3848 173.2037,313.7598 170.7037,313.7598 168.8287,314.3848 167.5787,315.6348 167.5787,316.8848 168.2037,318.1348 168.8287,318.7598 170.0787,319.3848 173.8287,320.6348 175.0787,321.2598 175.7037,321.8848 176.3287,323.1348 176.3287,325.0098 175.0787,326.2598 173.2037,326.8848 170.7037,326.8848 168.8287,326.2598 167.5787,325.0098"/>
    <polygon points="188.9764,302.3622 188.9764,340.1575 226.7717,340.1575 226.7717,302.3622"/>
    <line x1="206.3115" x2="206.3115" y1="313.7598" y2="326.8848"/>
    <line x1="206.3115" x2="214.4365" y1="313.7598" y2="313.7598"/>
    <line x1="206.3115" x2="211.3115" y1="320.0098" y2="320.0098"/>
    <line x1="206.3115" x2="214.4365" y1="326.8848" y2="326.8848"/>
    <polygon points="226.7717,302.3622 226.7717,340.1575 264.5669,340.1575 264.5669,302.3622"/>
    <line x1="243.7943" x2="243.7943" y1="313.7598" y2="326.8848"/>
    <line x1="243.7943" x2="252.5443" y1="313.7598" y2="326.8848"/>
    <line x1="252.5443" x2="252.5443" y1="313.7598" y2="326.8848"/>
    <polygon points="264.5669,302.3622 264.5669,340.1575 302.3622,340.1575 302.3622,302.3622"/>
    <polyline points="290.0271,316.8848 289.4021,315.6348 288.1521,314.3848 286.9021,313.7598 284.4021,313.7598 283.1521,314.3848 281.9021,315.6348 281.2771,316.8848 280.6521,318.7598 280.6521,321.8848 281.2771,323.7598 281.9021,325.0098 283.1521,326.2598 284.4021,326.8848 286.9021,326.8848 288.1521,326.2598 289.4021,325.0098 290.0271,323.7598 290.0271,321.8848"/>
    <line x1="286.9021" x2="290.0271" y1="321.8848" y2="321.8848"/>
    <polygon points="302.3622,302.3622 302.3622,340.1575 340.1575,340.1575 340.1575,302.3622"/>
    <line x1="319.6973" x2="319.6973" y1="313.7598" y2="326.8848"/>
    <line x1="319.6973" x2="327.8223" y1="313.7598" y2="313.7598"/>
    <line x1="319.6973" x2="324.6973" y1="320.0098" y2="320.0098"/>
    <line x1="319.6973" x2="327.8223" y1="326.8848" y2="326.8848"/>
    <polygon points="340.1575,302.3622 340.1575,340.1575 377.9528,340.1575 377.9528,302.3622"/>
    <line x1="357.8051" x2="357.8051" y1="313.7598" y2="326.8848"/>
    <line x1="357.8051" x2="365.3051" y1="326.8848" y2="326.8848"/>
    <polygon points="377.9528,302.3622 377.9528,340.1575 415.748,340.1575 415.748,302.3622"/>
    <polyline points="394.9754,313.7598 394.9754,323.1348 395.6004,325.0098 396.8504,326.2598 398.7254,326.8848 399.9754,326.8848 401.8504,326.2598 403.1004,325.0098 403.7254,323.1348 403.7254,313.7598"/>
    <polygon points="415.748,302.3622 415.748,340.1575 453.5433,340.1575 453.5433,302.3622"/>
    <line x1="432.7707" x2="432.7707" y1="313.7598" y2="326.8848"/>
    <line x1="441.5207" x2="432.7707" y1="313.7598" y2="322.5098"/>
    <line x1="435.8957" x2="441.5207" y1="319.3848" y2="326.8848"/>
    <polygon points="453.5433,302.3622 453.5433,302.3622 453.5433,302.3622 453.5433,302.3622"/>
    <polygon points="491.3386,302.3622 491.3386,302.3622 491.3386,302.3622 491.3386,302.3622"/>
    <polygon points="529.1339,302.3622 529.1339,302.3622 529.1339,302.3622 529.1339,302.3622"/>
    <polygon points="566.9291,302.3622 566.9291,302.3622 566.9291,302.3622 566.9291,302.3622"/>
    <polygon points="604.7244,302.3622 604.7244,302.3622 604.7244,302.3622 604.7244,302.3622"/>
    <polygon points="642.5197,302.3622 642.5197,302.3622 642.5197,302.3622 642.5197,302.3622"/>
    <polygon points="680.315,302.3622 680.315,302.3622 680.315,302.3622 680.315,302.3622"/>
    <polygon points="718.1102,302.3622 718.1102,302.3622 718.1102,302.3622 718.1102,302.3622"/>
    <polygon points="755.9055,302.3622 755.9055,302.3622 755.9055,302.3622 755.9055,302.3622"/>
  </g>
</svg>
