<?xml version="1.0" encoding="utf-8" ?>
<svg xmlns="http://www.w3.org/2000/svg" xmlns:cc="http://creativecommons.org/ns" xmlns:dc="http://purl.org/dc/elements/1.1/" xmlns:ev="http://www.w3.org/2001/xml-events" xmlns:inkscape="http://www.inkscape.org/namespaces/inkscape" xmlns:rdf="http://www.w3.org/1999/02/22-rdf-syntax-ns" xmlns:sodipodi="http://sodipodi.sourceforge.net/DTD/sodipodi-0.dtd" xmlns:xlink="http://www.w3.org/1999/xlink" baseProfile="tiny" height="9.9cm" version="1.2" viewBox="0 0 793.7007874015749 374.1732283464567" width="21.0cm">
  <metadata>
    <rdf:RDF>
      <cc:Work>
        <dc:format>image/svg+xml</dc:format>
        <dc:source>vpype eval 'cell=10;width=210;height=99' eval 'nCols=20;nRows=9' eval 'cells=[3,9,10,11,12,13,14,15,16,17,18,21,22,23,24,26,28,30,37,43,46,48,50,51,52,53,54,55,56,57,58,61,62,63,64,65,66,68,70,77,83,86,87,88,89,90,91,92,93,94,95,96,99,100,101,102,103,104,106,110,119,120,124,126,128,129,130,131,132,133,134,135,136,139,140,143,144,150,159,160,164,168,169,170,171,172,173,174,175,176,177,178,179]' eval 'chars=[&quot;C&quot;,&quot;G&quot;,&quot;R&quot;,&quot;O&quot;,&quot;E&quot;,&quot;P&quot;,&quot;S&quot;,&quot;F&quot;,&quot;O&quot;,&quot;T&quot;,&quot;O&quot;,&quot;S&quot;,&quot;T&quot;,&quot;E&quot;,&quot;R&quot;,&quot;K&quot;,&quot;K&quot;,&quot;E&quot;,&quot;I&quot;,&quot;L&quot;,&quot;I&quot;,&quot;O&quot;,&quot;K&quot;,&quot;L&quot;,&quot;A&quot;,&quot;V&quot;,&quot;E&quot;,&quot;R&quot;,&quot;T&quot;,&quot;J&quot;,&quot;E&quot;,&quot;C&quot;,&quot;H&quot;,&quot;I&quot;,&quot;P&quot;,&quot;J&quot;,&quot;E&quot;,&quot;U&quot;,&quot;K&quot;,&quot;N&quot;,&quot;N&quot;,&quot;M&quot;,&quot;I&quot;,&quot;S&quot;,&quot;V&quot;,&quot;E&quot;,&quot;R&quot;,&quot;S&quot;,&quot;T&quot;,&quot;A&quot;,&quot;N&quot;,&quot;D&quot;,&quot;F&quot;,&quot;G&quot;,&quot;R&quot;,&quot;O&quot;,&quot;E&quot;,&quot;N&quot;,&quot;E&quot;,&quot;R&quot;,&quot;R&quot;,&quot;R&quot;,&quot;O&quot;,&quot;N&quot;,&quot;U&quot;,&quot;I&quot;,&quot;T&quot;,&quot;L&quot;,&quot;I&quot;,&quot;K&quot;,&quot;K&quot;,&quot;E&quot;,&quot;N&quot;,&quot;A&quot;,&quot;A&quot;,&quot;J&quot;,&quot;A&quot;,&quot;J&quot;,&quot;N&quot;,&quot;S&quot;,&quot;H&quot;,&quot;F&quot;,&quot;L&quot;,&quot;E&quot;,&quot;S&quot;,&quot;S&quot;,&quot;E&quot;,&quot;N&quot;,&quot;G&quot;,&quot;E&quot;,&quot;L&quot;,&quot;U&quot;,&quot;K&quot;]' eval 'numbers=[3,9,10,17,21,26,28,50,61,86,99,100,104,128,143,168]' eval counter=1 eval charIndex=0 begin grid -o '%cell*mm%' '%cell*mm%' %nCols% %nRows% eval '%isCell=_i in cells%' eval '%number=_i in numbers%' eval '%size=10 if isCell else 0%' rect 0 0 '%size*mm%' '%size*mm%' text -s 10 -p 0.5mm 1.5mm '%counter if number else '&quot;'&quot;''&quot;'&quot;'%' text -s 20 -p 5mm 5mm -a center '%chars[charIndex] if isCell else '&quot;'&quot;''&quot;'&quot;'%' eval '%if number: counter+=1 %' eval '%if isCell: charIndex+=1 %' end splitall deduplicate linemerge --tolerance 0.1mm write -m none --page-size '%width*mm%x%height*mm%' --center ./svgs/solution/3aec74.svg
</dc:source>
        <dc:date>2023-12-23T07:44:50.962308</dc:date>
      </cc:Work>
    </rdf:RDF>
  </metadata>
  <defs/>
  <g fill="none" id="layer1" inkscape:groupmode="layer" inkscape:label="1" stroke="#000000" style="display:inline">
    <polyline points="207.874,130.3937 207.874,168.189 207.874,168.189 245.6693,168.189 245.6693,168.189 245.6693,130.3937 245.6693,130.3937 207.874,130.3937 207.874,130.3937 170.0787,130.3937 170.0787,130.3937 170.0787,92.5984 170.0787,92.5984 132.2835,92.5984 132.2835,92.5984 132.2835,54.8031 132.2835,54.8031 170.0787,54.8031 170.0787,54.8031 207.874,54.8031 207.874,54.8031 207.874,92.5984 207.874,92.5984 170.0787,92.5984 170.0787,92.5984 170.0787,54.8031 170.0787,54.8031 170.0787,17.0079 170.0787,17.0079 132.2835,17.0079 132.2835,17.0079 132.2835,54.8031 132.2835,54.8031 94.4882,54.8031 94.4882,54.8031 56.6929,54.8031 56.6929,54.8031 56.6929,92.5984 56.6929,92.5984 94.4882,92.5984 94.4882,92.5984 94.4882,54.8031"/>
    <polyline points="136.0482,20.1772 136.6732,19.8647 136.6732,19.8647 137.6107,18.9272 137.6107,18.9272 137.6107,25.4897"/>
    <polyline points="157.7436,31.5305 157.1186,30.2805 157.1186,30.2805 155.8686,29.0305 155.8686,29.0305 154.6186,28.4055 154.6186,28.4055 152.1186,28.4055 152.1186,28.4055 150.8686,29.0305 150.8686,29.0305 149.6186,30.2805 149.6186,30.2805 148.9936,31.5305 148.9936,31.5305 148.3686,33.4055 148.3686,33.4055 148.3686,36.5305 148.3686,36.5305 148.9936,38.4055 148.9936,38.4055 149.6186,39.6555 149.6186,39.6555 150.8686,40.9055 150.8686,40.9055 152.1186,41.5305 152.1186,41.5305 154.6186,41.5305 154.6186,41.5305 155.8686,40.9055 155.8686,40.9055 157.1186,39.6555 157.1186,39.6555 157.7436,38.4055"/>
    <polygon points="359.0551,17.0079 359.0551,54.8031 359.0551,54.8031 321.2598,54.8031 321.2598,54.8031 321.2598,92.5984 321.2598,92.5984 321.2598,130.3937 321.2598,130.3937 321.2598,168.189 321.2598,168.189 359.0551,168.189 359.0551,168.189 359.0551,130.3937 359.0551,130.3937 359.0551,92.5984 359.0551,92.5984 359.0551,54.8031 359.0551,54.8031 396.8504,54.8031 396.8504,54.8031 434.6457,54.8031 434.6457,54.8031 434.6457,17.0079 434.6457,17.0079 396.8504,17.0079 396.8504,17.0079"/>
    <polyline points="434.6457,17.0079 472.4409,17.0079 472.4409,17.0079 472.4409,54.8031 472.4409,54.8031 434.6457,54.8031 434.6457,54.8031 434.6457,92.5984 434.6457,92.5984 396.8504,92.5984 396.8504,92.5984 396.8504,54.8031 396.8504,54.8031 396.8504,17.0079"/>
    <polyline points="362.1949,20.4897 362.1949,20.1772 362.1949,20.1772 362.5074,19.5522 362.5074,19.5522 362.8199,19.2397 362.8199,19.2397 363.4449,18.9272 363.4449,18.9272 364.6949,18.9272 364.6949,18.9272 365.3199,19.2397 365.3199,19.2397 365.6324,19.5522 365.6324,19.5522 365.9449,20.1772 365.9449,20.1772 365.9449,20.8022 365.9449,20.8022 365.6324,21.4272 365.6324,21.4272 365.0074,22.3647 365.0074,22.3647 361.8824,25.4897 361.8824,25.4897 366.2574,25.4897"/>
    <polyline points="384.5153,31.5305 383.8903,30.2805 383.8903,30.2805 382.6403,29.0305 382.6403,29.0305 381.3903,28.4055 381.3903,28.4055 378.8903,28.4055 378.8903,28.4055 377.6403,29.0305 377.6403,29.0305 376.3903,30.2805 376.3903,30.2805 375.7653,31.5305 375.7653,31.5305 375.1403,33.4055 375.1403,33.4055 375.1403,36.5305 375.1403,36.5305 375.7653,38.4055 375.7653,38.4055 376.3903,39.6555 376.3903,39.6555 377.6403,40.9055 377.6403,40.9055 378.8903,41.5305 378.8903,41.5305 381.3903,41.5305 381.3903,41.5305 382.6403,40.9055 382.6403,40.9055 383.8903,39.6555 383.8903,39.6555 384.5153,38.4055 384.5153,38.4055 384.5153,36.5305 384.5153,36.5305 381.3903,36.5305"/>
    <polyline points="400.3027,18.9272 403.7402,18.9272 403.7402,18.9272 401.8652,21.4272 401.8652,21.4272 402.8027,21.4272 402.8027,21.4272 403.4277,21.7397 403.4277,21.7397 403.7402,22.0522 403.7402,22.0522 404.0527,22.9897 404.0527,22.9897 404.0527,23.6147 404.0527,23.6147 403.7402,24.5522 403.7402,24.5522 403.1152,25.1772 403.1152,25.1772 402.1777,25.4897 402.1777,25.4897 401.2402,25.4897 401.2402,25.4897 400.3027,25.1772 400.3027,25.1772 399.9902,24.8647 399.9902,24.8647 399.6777,24.2397"/>
    <polyline points="413.873,34.6555 419.498,34.6555 419.498,34.6555 421.373,34.0305 421.373,34.0305 421.998,33.4055 421.998,33.4055 422.623,32.1555 422.623,32.1555 422.623,30.9055 422.623,30.9055 421.998,29.6555 421.998,29.6555 421.373,29.0305 421.373,29.0305 419.498,28.4055 419.498,28.4055 413.873,28.4055 413.873,28.4055 413.873,41.5305"/>
    <line x1="418.248" x2="422.623" y1="34.6555" y2="41.5305"/>
    <polygon points="454.1683,28.4055 452.9183,29.0305 452.9183,29.0305 451.6683,30.2805 451.6683,30.2805 451.0433,31.5305 451.0433,31.5305 450.4183,33.4055 450.4183,33.4055 450.4183,36.5305 450.4183,36.5305 451.0433,38.4055 451.0433,38.4055 451.6683,39.6555 451.6683,39.6555 452.9183,40.9055 452.9183,40.9055 454.1683,41.5305 454.1683,41.5305 456.6683,41.5305 456.6683,41.5305 457.9183,40.9055 457.9183,40.9055 459.1683,39.6555 459.1683,39.6555 459.7933,38.4055 459.7933,38.4055 460.4183,36.5305 460.4183,36.5305 460.4183,33.4055 460.4183,33.4055 459.7933,31.5305 459.7933,31.5305 459.1683,30.2805 459.1683,30.2805 457.9183,29.0305 457.9183,29.0305 456.6683,28.4055 456.6683,28.4055"/>
    <polyline points="472.4409,54.8031 510.2362,54.8031 510.2362,54.8031 510.2362,17.0079 510.2362,17.0079 472.4409,17.0079"/>
    <polyline points="497.9011,28.4055 489.7761,28.4055 489.7761,28.4055 489.7761,41.5305 489.7761,41.5305 497.9011,41.5305"/>
    <line x1="489.7761" x2="494.7761" y1="34.6555" y2="34.6555"/>
    <polyline points="510.2362,54.8031 548.0315,54.8031 548.0315,54.8031 548.0315,17.0079 548.0315,17.0079 510.2362,17.0079"/>
    <polyline points="527.2589,35.2805 532.8839,35.2805 532.8839,35.2805 534.7589,34.6555 534.7589,34.6555 535.3839,34.0305 535.3839,34.0305 536.0089,32.7805 536.0089,32.7805 536.0089,30.9055 536.0089,30.9055 535.3839,29.6555 535.3839,29.6555 534.7589,29.0305 534.7589,29.0305 532.8839,28.4055 532.8839,28.4055 527.2589,28.4055 527.2589,28.4055 527.2589,41.5305"/>
    <polyline points="548.0315,54.8031 585.8268,54.8031 585.8268,54.8031 585.8268,17.0079 585.8268,17.0079 548.0315,17.0079"/>
    <polyline points="573.1791,30.2805 571.9291,29.0305 571.9291,29.0305 570.0541,28.4055 570.0541,28.4055 567.5541,28.4055 567.5541,28.4055 565.6791,29.0305 565.6791,29.0305 564.4291,30.2805 564.4291,30.2805 564.4291,31.5305 564.4291,31.5305 565.0541,32.7805 565.0541,32.7805 565.6791,33.4055 565.6791,33.4055 566.9291,34.0305 566.9291,34.0305 570.6791,35.2805 570.6791,35.2805 571.9291,35.9055 571.9291,35.9055 572.5541,36.5305 572.5541,36.5305 573.1791,37.7805 573.1791,37.7805 573.1791,39.6555 573.1791,39.6555 571.9291,40.9055 571.9291,40.9055 570.0541,41.5305 570.0541,41.5305 567.5541,41.5305 567.5541,41.5305 565.6791,40.9055 565.6791,40.9055 564.4291,39.6555"/>
    <polyline points="585.8268,54.8031 623.622,54.8031 623.622,54.8031 661.4173,54.8031 661.4173,54.8031 661.4173,17.0079 661.4173,17.0079 623.622,17.0079 623.622,17.0079 585.8268,17.0079"/>
    <line x1="623.622" x2="623.622" y1="54.8031" y2="17.0079"/>
    <polyline points="611.2869,28.4055 603.1619,28.4055 603.1619,28.4055 603.1619,41.5305"/>
    <line x1="603.1619" x2="608.1619" y1="34.6555" y2="34.6555"/>
    <polygon points="643.1447,28.4055 641.8947,29.0305 641.8947,29.0305 640.6447,30.2805 640.6447,30.2805 640.0197,31.5305 640.0197,31.5305 639.3947,33.4055 639.3947,33.4055 639.3947,36.5305 639.3947,36.5305 640.0197,38.4055 640.0197,38.4055 640.6447,39.6555 640.6447,39.6555 641.8947,40.9055 641.8947,40.9055 643.1447,41.5305 643.1447,41.5305 645.6447,41.5305 645.6447,41.5305 646.8947,40.9055 646.8947,40.9055 648.1447,39.6555 648.1447,39.6555 648.7697,38.4055 648.7697,38.4055 649.3947,36.5305 649.3947,36.5305 649.3947,33.4055 649.3947,33.4055 648.7697,31.5305 648.7697,31.5305 648.1447,30.2805 648.1447,30.2805 646.8947,29.0305 646.8947,29.0305 645.6447,28.4055 645.6447,28.4055"/>
    <polyline points="548.0315,92.5984 548.0315,130.3937 548.0315,130.3937 510.2362,130.3937 510.2362,130.3937 472.4409,130.3937 472.4409,130.3937 434.6457,130.3937 434.6457,130.3937 434.6457,168.189 434.6457,168.189 434.6457,205.9843 434.6457,205.9843 434.6457,243.7795 434.6457,243.7795 396.8504,243.7795 396.8504,243.7795 396.8504,205.9843 396.8504,205.9843 359.0551,205.9843 359.0551,205.9843 359.0551,168.189 359.0551,168.189 396.8504,168.189 396.8504,168.189 396.8504,130.3937 396.8504,130.3937 434.6457,130.3937 434.6457,130.3937 434.6457,92.5984 434.6457,92.5984 472.4409,92.5984 472.4409,92.5984 510.2362,92.5984 510.2362,92.5984 548.0315,92.5984 548.0315,92.5984 585.8268,92.5984 585.8268,92.5984 623.622,92.5984 623.622,92.5984 661.4173,92.5984 661.4173,92.5984 661.4173,54.8031 661.4173,54.8031 699.2126,54.8031 699.2126,54.8031 699.2126,17.0079 699.2126,17.0079 661.4173,17.0079"/>
    <polyline points="667.3696,25.4897 667.3696,18.9272 667.3696,18.9272 664.2446,23.3022 664.2446,23.3022 668.9321,23.3022"/>
    <line x1="680.94" x2="680.94" y1="28.4055" y2="41.5305"/>
    <line x1="676.565" x2="685.315" y1="28.4055" y2="28.4055"/>
    <polyline points="472.4409,168.189 472.4409,205.9843 472.4409,205.9843 434.6457,205.9843 434.6457,205.9843 396.8504,205.9843 396.8504,205.9843 396.8504,168.189 396.8504,168.189 434.6457,168.189 434.6457,168.189 472.4409,168.189 472.4409,168.189 510.2362,168.189 510.2362,168.189 548.0315,168.189 548.0315,168.189 585.8268,168.189 585.8268,168.189 623.622,168.189 623.622,168.189 661.4173,168.189 661.4173,168.189 661.4173,130.3937 661.4173,130.3937 661.4173,92.5984 661.4173,92.5984 699.2126,92.5984 699.2126,92.5984 699.2126,54.8031 699.2126,54.8031 737.0079,54.8031 737.0079,54.8031 737.0079,17.0079 737.0079,17.0079 699.2126,17.0079"/>
    <polygon points="718.7352,28.4055 717.4852,29.0305 717.4852,29.0305 716.2352,30.2805 716.2352,30.2805 715.6102,31.5305 715.6102,31.5305 714.9852,33.4055 714.9852,33.4055 714.9852,36.5305 714.9852,36.5305 715.6102,38.4055 715.6102,38.4055 716.2352,39.6555 716.2352,39.6555 717.4852,40.9055 717.4852,40.9055 718.7352,41.5305 718.7352,41.5305 721.2352,41.5305 721.2352,41.5305 722.4852,40.9055 722.4852,40.9055 723.7352,39.6555 723.7352,39.6555 724.3602,38.4055 724.3602,38.4055 724.9852,36.5305 724.9852,36.5305 724.9852,33.4055 724.9852,33.4055 724.3602,31.5305 724.3602,31.5305 723.7352,30.2805 723.7352,30.2805 722.4852,29.0305 722.4852,29.0305 721.2352,28.4055 721.2352,28.4055"/>
    <polyline points="63.2702,56.7224 60.1452,56.7224 60.1452,56.7224 59.8327,59.5349 59.8327,59.5349 60.1452,59.2224 60.1452,59.2224 61.0827,58.9099 61.0827,58.9099 62.0202,58.9099 62.0202,58.9099 62.9577,59.2224 62.9577,59.2224 63.5827,59.8474 63.5827,59.8474 63.8952,60.7849 63.8952,60.7849 63.8952,61.4099 63.8952,61.4099 63.5827,62.3474 63.5827,62.3474 62.9577,62.9724 62.9577,62.9724 62.0202,63.2849 62.0202,63.2849 61.0827,63.2849 61.0827,63.2849 60.1452,62.9724 60.1452,62.9724 59.8327,62.6599 59.8327,62.6599 59.5202,62.0349"/>
    <polyline points="81.8406,68.0758 80.5906,66.8258 80.5906,66.8258 78.7156,66.2008 78.7156,66.2008 76.2156,66.2008 76.2156,66.2008 74.3406,66.8258 74.3406,66.8258 73.0906,68.0758 73.0906,68.0758 73.0906,69.3258 73.0906,69.3258 73.7156,70.5758 73.7156,70.5758 74.3406,71.2008 74.3406,71.2008 75.5906,71.8258 75.5906,71.8258 79.3406,73.0758 79.3406,73.0758 80.5906,73.7008 80.5906,73.7008 81.2156,74.3258 81.2156,74.3258 81.8406,75.5758 81.8406,75.5758 81.8406,77.4508 81.8406,77.4508 80.5906,78.7008 80.5906,78.7008 78.7156,79.3258 78.7156,79.3258 76.2156,79.3258 76.2156,79.3258 74.3406,78.7008 74.3406,78.7008 73.0906,77.4508"/>
    <polyline points="94.4882,92.5984 132.2835,92.5984 132.2835,92.5984 132.2835,130.3937 132.2835,130.3937 170.0787,130.3937 170.0787,130.3937 170.0787,168.189 170.0787,168.189 207.874,168.189"/>
    <line x1="114.0108" x2="114.0108" y1="66.2008" y2="79.3258"/>
    <line x1="109.6358" x2="118.3858" y1="66.2008" y2="66.2008"/>
    <polyline points="157.7436,66.2008 149.6186,66.2008 149.6186,66.2008 149.6186,79.3258 149.6186,79.3258 157.7436,79.3258"/>
    <line x1="149.6186" x2="154.6186" y1="72.4508" y2="72.4508"/>
    <polyline points="187.1014,72.4508 192.7264,72.4508 192.7264,72.4508 194.6014,71.8258 194.6014,71.8258 195.2264,71.2008 195.2264,71.2008 195.8514,69.9508 195.8514,69.9508 195.8514,68.7008 195.8514,68.7008 195.2264,67.4508 195.2264,67.4508 194.6014,66.8258 194.6014,66.8258 192.7264,66.2008 192.7264,66.2008 187.1014,66.2008 187.1014,66.2008 187.1014,79.3258"/>
    <line x1="191.4764" x2="195.8514" y1="72.4508" y2="79.3258"/>
    <polygon points="245.6693,54.8031 245.6693,92.5984 245.6693,92.5984 245.6693,130.3937 245.6693,130.3937 283.4646,130.3937 283.4646,130.3937 283.4646,92.5984 283.4646,92.5984 283.4646,54.8031 283.4646,54.8031"/>
    <line x1="245.6693" x2="283.4646" y1="92.5984" y2="92.5984"/>
    <polyline points="252.5591,57.6599 252.2466,57.0349 252.2466,57.0349 251.3091,56.7224 251.3091,56.7224 250.6841,56.7224 250.6841,56.7224 249.7466,57.0349 249.7466,57.0349 249.1216,57.9724 249.1216,57.9724 248.8091,59.5349 248.8091,59.5349 248.8091,61.0974 248.8091,61.0974 249.1216,62.3474 249.1216,62.3474 249.7466,62.9724 249.7466,62.9724 250.6841,63.2849 250.6841,63.2849 250.9966,63.2849 250.9966,63.2849 251.9341,62.9724 251.9341,62.9724 252.5591,62.3474 252.5591,62.3474 252.8716,61.4099 252.8716,61.4099 252.8716,61.0974 252.8716,61.0974 252.5591,60.1599 252.5591,60.1599 251.9341,59.5349 251.9341,59.5349 250.9966,59.2224 250.9966,59.2224 250.6841,59.2224 250.6841,59.2224 249.7466,59.5349 249.7466,59.5349 249.1216,60.1599 249.1216,60.1599 248.8091,61.0974"/>
    <line x1="262.6919" x2="262.6919" y1="66.2008" y2="79.3258"/>
    <line x1="271.4419" x2="262.6919" y1="66.2008" y2="74.9508"/>
    <line x1="265.8169" x2="271.4419" y1="71.8258" y2="79.3258"/>
    <line x1="321.2598" x2="359.0551" y1="92.5984" y2="92.5984"/>
    <polyline points="324.0871,56.7224 328.4621,56.7224 328.4621,56.7224 325.3371,63.2849"/>
    <line x1="338.2825" x2="338.2825" y1="66.2008" y2="79.3258"/>
    <line x1="347.0325" x2="338.2825" y1="66.2008" y2="74.9508"/>
    <line x1="341.4075" x2="347.0325" y1="71.8258" y2="79.3258"/>
    <polyline points="422.3105,66.2008 414.1855,66.2008 414.1855,66.2008 414.1855,79.3258 414.1855,79.3258 422.3105,79.3258"/>
    <line x1="414.1855" x2="419.1855" y1="72.4508" y2="72.4508"/>
    <line x1="682.815" x2="682.815" y1="66.2008" y2="79.3258"/>
    <polyline points="149.9311,103.9961 149.9311,117.1211 149.9311,117.1211 157.4311,117.1211"/>
    <line x1="267.0669" x2="267.0669" y1="103.9961" y2="117.1211"/>
    <line x1="321.2598" x2="359.0551" y1="130.3937" y2="130.3937"/>
    <polygon points="340.7825,103.9961 339.5325,104.6211 339.5325,104.6211 338.2825,105.8711 338.2825,105.8711 337.6575,107.1211 337.6575,107.1211 337.0325,108.9961 337.0325,108.9961 337.0325,112.1211 337.0325,112.1211 337.6575,113.9961 337.6575,113.9961 338.2825,115.2461 338.2825,115.2461 339.5325,116.4961 339.5325,116.4961 340.7825,117.1211 340.7825,117.1211 343.2825,117.1211 343.2825,117.1211 344.5325,116.4961 344.5325,116.4961 345.7825,115.2461 345.7825,115.2461 346.4075,113.9961 346.4075,113.9961 347.0325,112.1211 347.0325,112.1211 347.0325,108.9961 347.0325,108.9961 346.4075,107.1211 346.4075,107.1211 345.7825,105.8711 345.7825,105.8711 344.5325,104.6211 344.5325,104.6211 343.2825,103.9961 343.2825,103.9961"/>
    <line x1="396.8504" x2="396.8504" y1="92.5984" y2="130.3937"/>
    <polygon points="401.2402,94.5177 400.3027,94.8302 400.3027,94.8302 399.9902,95.4552 399.9902,95.4552 399.9902,96.0802 399.9902,96.0802 400.3027,96.7052 400.3027,96.7052 400.9277,97.0177 400.9277,97.0177 402.1777,97.3302 402.1777,97.3302 403.1152,97.6427 403.1152,97.6427 403.7402,98.2677 403.7402,98.2677 404.0527,98.8927 404.0527,98.8927 404.0527,99.8302 404.0527,99.8302 403.7402,100.4552 403.7402,100.4552 403.4277,100.7677 403.4277,100.7677 402.4902,101.0802 402.4902,101.0802 401.2402,101.0802 401.2402,101.0802 400.3027,100.7677 400.3027,100.7677 399.9902,100.4552 399.9902,100.4552 399.6777,99.8302 399.6777,99.8302 399.6777,98.8927 399.6777,98.8927 399.9902,98.2677 399.9902,98.2677 400.6152,97.6427 400.6152,97.6427 401.5527,97.3302 401.5527,97.3302 402.8027,97.0177 402.8027,97.0177 403.4277,96.7052 403.4277,96.7052 403.7402,96.0802 403.7402,96.0802 403.7402,95.4552 403.7402,95.4552 403.4277,94.8302 403.4277,94.8302 402.4902,94.5177 402.4902,94.5177"/>
    <line x1="413.873" x2="413.873" y1="103.9961" y2="117.1211"/>
    <line x1="422.623" x2="413.873" y1="103.9961" y2="112.7461"/>
    <line x1="416.998" x2="422.623" y1="109.6211" y2="117.1211"/>
    <line x1="472.4409" x2="472.4409" y1="130.3937" y2="92.5984"/>
    <polyline points="452.2933,103.9961 452.2933,117.1211 452.2933,117.1211 459.7933,117.1211"/>
    <line x1="510.2362" x2="510.2362" y1="130.3937" y2="92.5984"/>
    <polyline points="496.9636,117.1211 491.9636,103.9961 491.9636,103.9961 486.9636,117.1211"/>
    <line x1="488.8386" x2="495.0886" y1="112.7461" y2="112.7461"/>
    <polyline points="524.7589,103.9961 529.7589,117.1211 529.7589,117.1211 534.7589,103.9961"/>
    <polyline points="548.0315,130.3937 585.8268,130.3937 585.8268,130.3937 585.8268,92.5984"/>
    <polyline points="573.4916,103.9961 565.3666,103.9961 565.3666,103.9961 565.3666,117.1211 565.3666,117.1211 573.4916,117.1211"/>
    <line x1="565.3666" x2="570.3666" y1="110.2461" y2="110.2461"/>
    <polyline points="585.8268,130.3937 623.622,130.3937 623.622,130.3937 623.622,92.5984"/>
    <polyline points="602.8494,110.2461 608.4744,110.2461 608.4744,110.2461 610.3494,109.6211 610.3494,109.6211 610.9744,108.9961 610.9744,108.9961 611.5994,107.7461 611.5994,107.7461 611.5994,106.4961 611.5994,106.4961 610.9744,105.2461 610.9744,105.2461 610.3494,104.6211 610.3494,104.6211 608.4744,103.9961 608.4744,103.9961 602.8494,103.9961 602.8494,103.9961 602.8494,117.1211"/>
    <line x1="607.2244" x2="611.5994" y1="110.2461" y2="117.1211"/>
    <polyline points="623.622,130.3937 661.4173,130.3937 661.4173,130.3937 699.2126,130.3937 699.2126,130.3937 699.2126,92.5984 699.2126,92.5984 737.0079,92.5984 737.0079,92.5984 737.0079,130.3937 737.0079,130.3937 699.2126,130.3937 699.2126,130.3937 699.2126,168.189 699.2126,168.189 661.4173,168.189 661.4173,168.189 661.4173,205.9843 661.4173,205.9843 623.622,205.9843 623.622,205.9843 623.622,168.189"/>
    <line x1="643.1447" x2="643.1447" y1="103.9961" y2="117.1211"/>
    <line x1="638.7697" x2="647.5197" y1="103.9961" y2="103.9961"/>
    <polyline points="684.69,103.9961 684.69,113.9961 684.69,113.9961 684.065,115.8711 684.065,115.8711 683.44,116.4961 683.44,116.4961 682.19,117.1211 682.19,117.1211 680.94,117.1211 680.94,117.1211 679.69,116.4961 679.69,116.4961 679.065,115.8711 679.065,115.8711 678.44,113.9961 678.44,113.9961 678.44,112.7461"/>
    <polyline points="724.6727,103.9961 716.5477,103.9961 716.5477,103.9961 716.5477,117.1211 716.5477,117.1211 724.6727,117.1211"/>
    <line x1="716.5477" x2="721.5477" y1="110.2461" y2="110.2461"/>
    <polygon points="56.6929,130.3937 56.6929,168.189 56.6929,168.189 94.4882,168.189 94.4882,168.189 94.4882,130.3937 94.4882,130.3937"/>
    <polyline points="63.5827,134.5005 63.2702,135.438 63.2702,135.438 62.6452,136.063 62.6452,136.063 61.7077,136.3755 61.7077,136.3755 61.3952,136.3755 61.3952,136.3755 60.4577,136.063 60.4577,136.063 59.8327,135.438 59.8327,135.438 59.5202,134.5005 59.5202,134.5005 59.5202,134.188 59.5202,134.188 59.8327,133.2505 59.8327,133.2505 60.4577,132.6255 60.4577,132.6255 61.3952,132.313 61.3952,132.313 61.7077,132.313 61.7077,132.313 62.6452,132.6255 62.6452,132.6255 63.2702,133.2505 63.2702,133.2505 63.5827,134.5005 63.5827,134.5005 63.5827,136.063 63.5827,136.063 63.2702,137.6255 63.2702,137.6255 62.6452,138.563 62.6452,138.563 61.7077,138.8755 61.7077,138.8755 61.0827,138.8755 61.0827,138.8755 60.1452,138.563 60.1452,138.563 59.8327,137.938"/>
    <polyline points="82.1531,144.9163 81.5281,143.6663 81.5281,143.6663 80.2781,142.4163 80.2781,142.4163 79.0281,141.7913 79.0281,141.7913 76.5281,141.7913 76.5281,141.7913 75.2781,142.4163 75.2781,142.4163 74.0281,143.6663 74.0281,143.6663 73.4031,144.9163 73.4031,144.9163 72.7781,146.7913 72.7781,146.7913 72.7781,149.9163 72.7781,149.9163 73.4031,151.7913 73.4031,151.7913 74.0281,153.0413 74.0281,153.0413 75.2781,154.2913 75.2781,154.2913 76.5281,154.9163 76.5281,154.9163 79.0281,154.9163 79.0281,154.9163 80.2781,154.2913 80.2781,154.2913 81.5281,153.0413 81.5281,153.0413 82.1531,151.7913"/>
    <polyline points="94.4882,168.189 132.2835,168.189 132.2835,168.189 170.0787,168.189 170.0787,168.189 170.0787,205.9843 170.0787,205.9843 170.0787,243.7795 170.0787,243.7795 207.874,243.7795 207.874,243.7795 207.874,205.9843 207.874,205.9843 170.0787,205.9843 170.0787,205.9843 132.2835,205.9843 132.2835,205.9843 94.4882,205.9843 94.4882,205.9843 56.6929,205.9843 56.6929,205.9843 18.8976,205.9843 18.8976,205.9843 18.8976,243.7795 18.8976,243.7795 56.6929,243.7795 56.6929,243.7795 56.6929,205.9843"/>
    <polyline points="207.874,243.7795 207.874,281.5748 207.874,281.5748 207.874,319.3701 207.874,319.3701 170.0787,319.3701 170.0787,319.3701 132.2835,319.3701 132.2835,319.3701 132.2835,281.5748 132.2835,281.5748 170.0787,281.5748 170.0787,281.5748 170.0787,243.7795 170.0787,243.7795 132.2835,243.7795 132.2835,243.7795 132.2835,205.9843 132.2835,205.9843 132.2835,168.189 132.2835,168.189 132.2835,130.3937 132.2835,130.3937 94.4882,130.3937"/>
    <line x1="111.5108" x2="111.5108" y1="141.7913" y2="154.9163"/>
    <line x1="120.2608" x2="120.2608" y1="141.7913" y2="154.9163"/>
    <line x1="111.5108" x2="120.2608" y1="148.0413" y2="148.0413"/>
    <line x1="153.6811" x2="153.6811" y1="141.7913" y2="154.9163"/>
    <polyline points="187.1014,148.6663 192.7264,148.6663 192.7264,148.6663 194.6014,148.0413 194.6014,148.0413 195.2264,147.4163 195.2264,147.4163 195.8514,146.1663 195.8514,146.1663 195.8514,144.2913 195.8514,144.2913 195.2264,143.0413 195.2264,143.0413 194.6014,142.4163 194.6014,142.4163 192.7264,141.7913 192.7264,141.7913 187.1014,141.7913 187.1014,141.7913 187.1014,154.9163"/>
    <polyline points="231.1467,141.7913 231.1467,151.7913 231.1467,151.7913 230.5217,153.6663 230.5217,153.6663 229.8967,154.2913 229.8967,154.2913 228.6467,154.9163 228.6467,154.9163 227.3967,154.9163 227.3967,154.9163 226.1467,154.2913 226.1467,154.2913 225.5217,153.6663 225.5217,153.6663 224.8967,151.7913 224.8967,151.7913 224.8967,150.5413"/>
    <polyline points="359.0551,205.9843 321.2598,205.9843 321.2598,205.9843 321.2598,168.189 321.2598,168.189 283.4646,168.189 283.4646,168.189 283.4646,205.9843 283.4646,205.9843 283.4646,243.7795 283.4646,243.7795 245.6693,243.7795 245.6693,243.7795 245.6693,205.9843 245.6693,205.9843 245.6693,168.189 245.6693,168.189 283.4646,168.189 283.4646,168.189 283.4646,130.3937"/>
    <polyline points="271.1294,141.7913 263.0044,141.7913 263.0044,141.7913 263.0044,154.9163 263.0044,154.9163 271.1294,154.9163"/>
    <line x1="263.0044" x2="268.0044" y1="148.0413" y2="148.0413"/>
    <polyline points="338.2825,141.7913 338.2825,151.1663 338.2825,151.1663 338.9075,153.0413 338.9075,153.0413 340.1575,154.2913 340.1575,154.2913 342.0325,154.9163 342.0325,154.9163 343.2825,154.9163 343.2825,154.9163 345.1575,154.2913 345.1575,154.2913 346.4075,153.0413 346.4075,153.0413 347.0325,151.1663 347.0325,151.1663 347.0325,141.7913"/>
    <line x1="413.873" x2="413.873" y1="141.7913" y2="154.9163"/>
    <line x1="422.623" x2="413.873" y1="141.7913" y2="150.5413"/>
    <line x1="416.998" x2="422.623" y1="147.4163" y2="154.9163"/>
    <polyline points="687.19,141.7913 687.19,154.9163 687.19,154.9163 678.44,141.7913 678.44,141.7913 678.44,154.9163"/>
    <polyline points="158.0561,179.5866 158.0561,192.7116 158.0561,192.7116 149.3061,179.5866 149.3061,179.5866 149.3061,192.7116"/>
    <polyline points="245.6693,205.9843 283.4646,205.9843 283.4646,205.9843 321.2598,205.9843"/>
    <polyline points="249.4341,171.3583 250.0591,171.0458 250.0591,171.0458 250.9966,170.1083 250.9966,170.1083 250.9966,176.6708"/>
    <polygon points="256.6216,170.1083 255.6841,170.4208 255.6841,170.4208 255.0591,171.3583 255.0591,171.3583 254.7466,172.9208 254.7466,172.9208 254.7466,173.8583 254.7466,173.8583 255.0591,175.4208 255.0591,175.4208 255.6841,176.3583 255.6841,176.3583 256.6216,176.6708 256.6216,176.6708 257.2466,176.6708 257.2466,176.6708 258.1841,176.3583 258.1841,176.3583 258.8091,175.4208 258.8091,175.4208 259.1216,173.8583 259.1216,173.8583 259.1216,172.9208 259.1216,172.9208 258.8091,171.3583 258.8091,171.3583 258.1841,170.4208 258.1841,170.4208 257.2466,170.1083 257.2466,170.1083"/>
    <polyline points="272.0669,192.7116 272.0669,179.5866 272.0669,179.5866 267.0669,192.7116 267.0669,192.7116 262.0669,179.5866 262.0669,179.5866 262.0669,192.7116"/>
    <line x1="304.8622" x2="304.8622" y1="179.5866" y2="192.7116"/>
    <polyline points="346.4075,181.4616 345.1575,180.2116 345.1575,180.2116 343.2825,179.5866 343.2825,179.5866 340.7825,179.5866 340.7825,179.5866 338.9075,180.2116 338.9075,180.2116 337.6575,181.4616 337.6575,181.4616 337.6575,182.7116 337.6575,182.7116 338.2825,183.9616 338.2825,183.9616 338.9075,184.5866 338.9075,184.5866 340.1575,185.2116 340.1575,185.2116 343.9075,186.4616 343.9075,186.4616 345.1575,187.0866 345.1575,187.0866 345.7825,187.7116 345.7825,187.7116 346.4075,188.9616 346.4075,188.9616 346.4075,190.8366 346.4075,190.8366 345.1575,192.0866 345.1575,192.0866 343.2825,192.7116 343.2825,192.7116 340.7825,192.7116 340.7825,192.7116 338.9075,192.0866 338.9075,192.0866 337.6575,190.8366"/>
    <polyline points="373.5778,179.5866 378.5778,192.7116 378.5778,192.7116 383.5778,179.5866"/>
    <polyline points="422.3105,179.5866 414.1855,179.5866 414.1855,179.5866 414.1855,192.7116 414.1855,192.7116 422.3105,192.7116"/>
    <line x1="414.1855" x2="419.1855" y1="185.8366" y2="185.8366"/>
    <polyline points="451.6683,185.8366 457.2933,185.8366 457.2933,185.8366 459.1683,185.2116 459.1683,185.2116 459.7933,184.5866 459.7933,184.5866 460.4183,183.3366 460.4183,183.3366 460.4183,182.0866 460.4183,182.0866 459.7933,180.8366 459.7933,180.8366 459.1683,180.2116 459.1683,180.2116 457.2933,179.5866 457.2933,179.5866 451.6683,179.5866 451.6683,179.5866 451.6683,192.7116"/>
    <line x1="456.0433" x2="460.4183" y1="185.8366" y2="192.7116"/>
    <polyline points="472.4409,205.9843 510.2362,205.9843 510.2362,205.9843 548.0315,205.9843 548.0315,205.9843 585.8268,205.9843 585.8268,205.9843 585.8268,168.189"/>
    <line x1="510.2362" x2="510.2362" y1="205.9843" y2="168.189"/>
    <polyline points="497.5886,181.4616 496.3386,180.2116 496.3386,180.2116 494.4636,179.5866 494.4636,179.5866 491.9636,179.5866 491.9636,179.5866 490.0886,180.2116 490.0886,180.2116 488.8386,181.4616 488.8386,181.4616 488.8386,182.7116 488.8386,182.7116 489.4636,183.9616 489.4636,183.9616 490.0886,184.5866 490.0886,184.5866 491.3386,185.2116 491.3386,185.2116 495.0886,186.4616 495.0886,186.4616 496.3386,187.0866 496.3386,187.0866 496.9636,187.7116 496.9636,187.7116 497.5886,188.9616 497.5886,188.9616 497.5886,190.8366 497.5886,190.8366 496.3386,192.0866 496.3386,192.0866 494.4636,192.7116 494.4636,192.7116 491.9636,192.7116 491.9636,192.7116 490.0886,192.0866 490.0886,192.0866 488.8386,190.8366"/>
    <line x1="548.0315" x2="548.0315" y1="205.9843" y2="168.189"/>
    <line x1="529.7589" x2="529.7589" y1="179.5866" y2="192.7116"/>
    <line x1="525.3839" x2="534.1339" y1="179.5866" y2="179.5866"/>
    <polyline points="572.5541,192.7116 567.5541,179.5866 567.5541,179.5866 562.5541,192.7116"/>
    <line x1="564.4291" x2="570.6791" y1="188.3366" y2="188.3366"/>
    <line x1="585.8268" x2="623.622" y1="205.9843" y2="205.9843"/>
    <polyline points="611.5994,179.5866 611.5994,192.7116 611.5994,192.7116 602.8494,179.5866 602.8494,179.5866 602.8494,192.7116"/>
    <polygon points="640.6447,179.5866 640.6447,192.7116 640.6447,192.7116 645.0197,192.7116 645.0197,192.7116 646.8947,192.0866 646.8947,192.0866 648.1447,190.8366 648.1447,190.8366 648.7697,189.5866 648.7697,189.5866 649.3947,187.7116 649.3947,187.7116 649.3947,184.5866 649.3947,184.5866 648.7697,182.7116 648.7697,182.7116 648.1447,181.4616 648.1447,181.4616 646.8947,180.2116 646.8947,180.2116 645.0197,179.5866 645.0197,179.5866"/>
    <polygon points="737.0079,168.189 737.0079,205.9843 737.0079,205.9843 774.8031,205.9843 774.8031,205.9843 774.8031,168.189 774.8031,168.189"/>
    <polyline points="740.7726,171.3583 741.3976,171.0458 741.3976,171.0458 742.3351,170.1083 742.3351,170.1083 742.3351,176.6708"/>
    <polyline points="747.0226,171.3583 747.6476,171.0458 747.6476,171.0458 748.5851,170.1083 748.5851,170.1083 748.5851,176.6708"/>
    <polyline points="762.468,179.5866 754.343,179.5866 754.343,179.5866 754.343,192.7116"/>
    <line x1="754.343" x2="759.343" y1="185.8366" y2="185.8366"/>
    <polyline points="22.6624,209.1535 23.2874,208.841 23.2874,208.841 24.2249,207.9035 24.2249,207.9035 24.2249,214.466"/>
    <polyline points="28.2874,209.466 28.2874,209.1535 28.2874,209.1535 28.5999,208.5285 28.5999,208.5285 28.9124,208.216 28.9124,208.216 29.5374,207.9035 29.5374,207.9035 30.7874,207.9035 30.7874,207.9035 31.4124,208.216 31.4124,208.216 31.7249,208.5285 31.7249,208.5285 32.0374,209.1535 32.0374,209.1535 32.0374,209.7785 32.0374,209.7785 31.7249,210.4035 31.7249,210.4035 31.0999,211.341 31.0999,211.341 27.9749,214.466 27.9749,214.466 32.3499,214.466"/>
    <polyline points="44.3578,220.5069 43.7328,219.2569 43.7328,219.2569 42.4828,218.0069 42.4828,218.0069 41.2328,217.3819 41.2328,217.3819 38.7328,217.3819 38.7328,217.3819 37.4828,218.0069 37.4828,218.0069 36.2328,219.2569 36.2328,219.2569 35.6078,220.5069 35.6078,220.5069 34.9828,222.3819 34.9828,222.3819 34.9828,225.5069 34.9828,225.5069 35.6078,227.3819 35.6078,227.3819 36.2328,228.6319 36.2328,228.6319 37.4828,229.8819 37.4828,229.8819 38.7328,230.5069 38.7328,230.5069 41.2328,230.5069 41.2328,230.5069 42.4828,229.8819 42.4828,229.8819 43.7328,228.6319 43.7328,228.6319 44.3578,227.3819 44.3578,227.3819 44.3578,225.5069 44.3578,225.5069 41.2328,225.5069"/>
    <polyline points="56.6929,319.3701 56.6929,357.1654 56.6929,357.1654 18.8976,357.1654 18.8976,357.1654 18.8976,319.3701 18.8976,319.3701 56.6929,319.3701 56.6929,319.3701 56.6929,281.5748 56.6929,281.5748 56.6929,243.7795 56.6929,243.7795 94.4882,243.7795 94.4882,243.7795 94.4882,205.9843"/>
    <polyline points="73.7156,223.6319 79.3406,223.6319 79.3406,223.6319 81.2156,223.0069 81.2156,223.0069 81.8406,222.3819 81.8406,222.3819 82.4656,221.1319 82.4656,221.1319 82.4656,219.8819 82.4656,219.8819 81.8406,218.6319 81.8406,218.6319 81.2156,218.0069 81.2156,218.0069 79.3406,217.3819 79.3406,217.3819 73.7156,217.3819 73.7156,217.3819 73.7156,230.5069"/>
    <line x1="78.0906" x2="82.4656" y1="223.6319" y2="230.5069"/>
    <line x1="94.4882" x2="132.2835" y1="243.7795" y2="243.7795"/>
    <polygon points="114.0108,217.3819 112.7608,218.0069 112.7608,218.0069 111.5108,219.2569 111.5108,219.2569 110.8858,220.5069 110.8858,220.5069 110.2608,222.3819 110.2608,222.3819 110.2608,225.5069 110.2608,225.5069 110.8858,227.3819 110.8858,227.3819 111.5108,228.6319 111.5108,228.6319 112.7608,229.8819 112.7608,229.8819 114.0108,230.5069 114.0108,230.5069 116.5108,230.5069 116.5108,230.5069 117.7608,229.8819 117.7608,229.8819 119.0108,228.6319 119.0108,228.6319 119.6358,227.3819 119.6358,227.3819 120.2608,225.5069 120.2608,225.5069 120.2608,222.3819 120.2608,222.3819 119.6358,220.5069 119.6358,220.5069 119.0108,219.2569 119.0108,219.2569 117.7608,218.0069 117.7608,218.0069 116.5108,217.3819 116.5108,217.3819"/>
    <polyline points="157.7436,217.3819 149.6186,217.3819 149.6186,217.3819 149.6186,230.5069 149.6186,230.5069 157.7436,230.5069"/>
    <line x1="149.6186" x2="154.6186" y1="223.6319" y2="223.6319"/>
    <polyline points="173.8435,209.1535 174.4685,208.841 174.4685,208.841 175.406,207.9035 175.406,207.9035 175.406,214.466"/>
    <polyline points="179.781,207.9035 183.2185,207.9035 183.2185,207.9035 181.3435,210.4035 181.3435,210.4035 182.281,210.4035 182.281,210.4035 182.906,210.716 182.906,210.716 183.2185,211.0285 183.2185,211.0285 183.531,211.966 183.531,211.966 183.531,212.591 183.531,212.591 183.2185,213.5285 183.2185,213.5285 182.5935,214.1535 182.5935,214.1535 181.656,214.466 181.656,214.466 180.7185,214.466 180.7185,214.466 179.781,214.1535 179.781,214.1535 179.4685,213.841 179.4685,213.841 179.156,213.216"/>
    <polyline points="195.8514,217.3819 195.8514,230.5069 195.8514,230.5069 187.1014,217.3819 187.1014,217.3819 187.1014,230.5069"/>
    <polyline points="271.1294,217.3819 263.0044,217.3819 263.0044,217.3819 263.0044,230.5069 263.0044,230.5069 271.1294,230.5069"/>
    <line x1="263.0044" x2="268.0044" y1="223.6319" y2="223.6319"/>
    <polyline points="413.873,223.6319 419.498,223.6319 419.498,223.6319 421.373,223.0069 421.373,223.0069 421.998,222.3819 421.998,222.3819 422.623,221.1319 422.623,221.1319 422.623,219.8819 422.623,219.8819 421.998,218.6319 421.998,218.6319 421.373,218.0069 421.373,218.0069 419.498,217.3819 419.498,217.3819 413.873,217.3819 413.873,217.3819 413.873,230.5069"/>
    <line x1="418.248" x2="422.623" y1="223.6319" y2="230.5069"/>
    <polyline points="737.0079,205.9843 737.0079,243.7795 737.0079,243.7795 774.8031,243.7795 774.8031,243.7795 774.8031,205.9843"/>
    <polyline points="754.0305,223.6319 759.6555,223.6319 759.6555,223.6319 761.5305,223.0069 761.5305,223.0069 762.1555,222.3819 762.1555,222.3819 762.7805,221.1319 762.7805,221.1319 762.7805,219.8819 762.7805,219.8819 762.1555,218.6319 762.1555,218.6319 761.5305,218.0069 761.5305,218.0069 759.6555,217.3819 759.6555,217.3819 754.0305,217.3819 754.0305,217.3819 754.0305,230.5069"/>
    <line x1="758.4055" x2="762.7805" y1="223.6319" y2="230.5069"/>
    <polyline points="18.8976,243.7795 18.8976,281.5748 18.8976,281.5748 18.8976,319.3701"/>
    <line x1="18.8976" x2="56.6929" y1="281.5748" y2="281.5748"/>
    <polyline points="35.9203,261.4272 41.5453,261.4272 41.5453,261.4272 43.4203,260.8022 43.4203,260.8022 44.0453,260.1772 44.0453,260.1772 44.6703,258.9272 44.6703,258.9272 44.6703,257.6772 44.6703,257.6772 44.0453,256.4272 44.0453,256.4272 43.4203,255.8022 43.4203,255.8022 41.5453,255.1772 41.5453,255.1772 35.9203,255.1772 35.9203,255.1772 35.9203,268.3022"/>
    <line x1="40.2953" x2="44.6703" y1="261.4272" y2="268.3022"/>
    <polyline points="207.874,319.3701 207.874,357.1654 207.874,357.1654 170.0787,357.1654 170.0787,357.1654 170.0787,319.3701 170.0787,319.3701 170.0787,281.5748 170.0787,281.5748 207.874,281.5748"/>
    <polygon points="189.6014,255.1772 188.3514,255.8022 188.3514,255.8022 187.1014,257.0522 187.1014,257.0522 186.4764,258.3022 186.4764,258.3022 185.8514,260.1772 185.8514,260.1772 185.8514,263.3022 185.8514,263.3022 186.4764,265.1772 186.4764,265.1772 187.1014,266.4272 187.1014,266.4272 188.3514,267.6772 188.3514,267.6772 189.6014,268.3022 189.6014,268.3022 192.1014,268.3022 192.1014,268.3022 193.3514,267.6772 193.3514,267.6772 194.6014,266.4272 194.6014,266.4272 195.2264,265.1772 195.2264,265.1772 195.8514,263.3022 195.8514,263.3022 195.8514,260.1772 195.8514,260.1772 195.2264,258.3022 195.2264,258.3022 194.6014,257.0522 194.6014,257.0522 193.3514,255.8022 193.3514,255.8022 192.1014,255.1772 192.1014,255.1772"/>
    <polyline points="245.6693,243.7795 245.6693,281.5748 245.6693,281.5748 283.4646,281.5748 283.4646,281.5748 283.4646,243.7795"/>
    <polyline points="271.4419,255.1772 271.4419,268.3022 271.4419,268.3022 262.6919,255.1772 262.6919,255.1772 262.6919,268.3022"/>
    <polygon points="321.2598,243.7795 321.2598,281.5748 321.2598,281.5748 359.0551,281.5748 359.0551,281.5748 359.0551,243.7795 359.0551,243.7795"/>
    <polyline points="325.0246,246.9488 325.6496,246.6363 325.6496,246.6363 326.5871,245.6988 326.5871,245.6988 326.5871,252.2613"/>
    <polyline points="333.4621,252.2613 333.4621,245.6988 333.4621,245.6988 330.3371,250.0738 330.3371,250.0738 335.0246,250.0738"/>
    <polyline points="338.2825,255.1772 338.2825,264.5522 338.2825,264.5522 338.9075,266.4272 338.9075,266.4272 340.1575,267.6772 340.1575,267.6772 342.0325,268.3022 342.0325,268.3022 343.2825,268.3022 343.2825,268.3022 345.1575,267.6772 345.1575,267.6772 346.4075,266.4272 346.4075,266.4272 347.0325,264.5522 347.0325,264.5522 347.0325,255.1772"/>
    <polyline points="359.0551,281.5748 396.8504,281.5748 396.8504,281.5748 396.8504,243.7795 396.8504,243.7795 359.0551,243.7795"/>
    <line x1="380.4528" x2="380.4528" y1="255.1772" y2="268.3022"/>
    <polyline points="510.2362,281.5748 472.4409,281.5748 472.4409,281.5748 434.6457,281.5748 434.6457,281.5748 434.6457,319.3701 434.6457,319.3701 396.8504,319.3701 396.8504,319.3701 396.8504,281.5748 396.8504,281.5748 434.6457,281.5748 434.6457,281.5748 434.6457,243.7795 434.6457,243.7795 472.4409,243.7795 472.4409,243.7795 510.2362,243.7795 510.2362,243.7795 510.2362,281.5748 510.2362,281.5748 548.0315,281.5748 548.0315,281.5748 548.0315,243.7795 548.0315,243.7795 510.2362,243.7795"/>
    <line x1="416.373" x2="416.373" y1="255.1772" y2="268.3022"/>
    <line x1="411.998" x2="420.748" y1="255.1772" y2="255.1772"/>
    <line x1="472.4409" x2="472.4409" y1="281.5748" y2="243.7795"/>
    <polyline points="452.2933,255.1772 452.2933,268.3022 452.2933,268.3022 459.7933,268.3022"/>
    <line x1="493.8386" x2="493.8386" y1="255.1772" y2="268.3022"/>
    <line x1="527.2589" x2="527.2589" y1="255.1772" y2="268.3022"/>
    <line x1="536.0089" x2="527.2589" y1="255.1772" y2="263.9272"/>
    <line x1="530.3839" x2="536.0089" y1="260.8022" y2="268.3022"/>
    <polyline points="548.0315,281.5748 585.8268,281.5748 585.8268,281.5748 585.8268,243.7795 585.8268,243.7795 548.0315,243.7795"/>
    <line x1="565.0541" x2="565.0541" y1="255.1772" y2="268.3022"/>
    <line x1="573.8041" x2="565.0541" y1="255.1772" y2="263.9272"/>
    <line x1="568.1791" x2="573.8041" y1="260.8022" y2="268.3022"/>
    <polyline points="585.8268,281.5748 623.622,281.5748 623.622,281.5748 661.4173,281.5748 661.4173,281.5748 661.4173,243.7795 661.4173,243.7795 623.622,243.7795 623.622,243.7795 585.8268,243.7795"/>
    <line x1="623.622" x2="623.622" y1="281.5748" y2="243.7795"/>
    <polyline points="611.2869,255.1772 603.1619,255.1772 603.1619,255.1772 603.1619,268.3022 603.1619,268.3022 611.2869,268.3022"/>
    <line x1="603.1619" x2="608.1619" y1="261.4272" y2="261.4272"/>
    <polyline points="649.3947,255.1772 649.3947,268.3022 649.3947,268.3022 640.6447,255.1772 640.6447,255.1772 640.6447,268.3022"/>
    <polyline points="737.0079,243.7795 737.0079,281.5748 737.0079,281.5748 737.0079,319.3701 737.0079,319.3701 699.2126,319.3701 699.2126,319.3701 661.4173,319.3701 661.4173,319.3701 623.622,319.3701 623.622,319.3701 585.8268,319.3701 585.8268,319.3701 548.0315,319.3701 548.0315,319.3701 510.2362,319.3701 510.2362,319.3701 472.4409,319.3701 472.4409,319.3701 434.6457,319.3701 434.6457,319.3701 434.6457,357.1654 434.6457,357.1654 396.8504,357.1654 396.8504,357.1654 396.8504,319.3701 396.8504,319.3701 359.0551,319.3701 359.0551,319.3701 321.2598,319.3701 321.2598,319.3701 321.2598,357.1654 321.2598,357.1654 359.0551,357.1654 359.0551,357.1654 359.0551,319.3701"/>
    <polyline points="737.0079,281.5748 774.8031,281.5748 774.8031,281.5748 774.8031,243.7795"/>
    <polyline points="761.5305,268.3022 756.5305,255.1772 756.5305,255.1772 751.5305,268.3022"/>
    <line x1="753.4055" x2="759.6555" y1="263.9272" y2="263.9272"/>
    <polyline points="43.4203,306.0974 38.4203,292.9724 38.4203,292.9724 33.4203,306.0974"/>
    <line x1="35.2953" x2="41.5453" y1="301.7224" y2="301.7224"/>
    <polyline points="136.0482,284.7441 136.6732,284.4316 136.6732,284.4316 137.6107,283.4941 137.6107,283.4941 137.6107,290.0566"/>
    <polyline points="145.1107,283.4941 141.9857,283.4941 141.9857,283.4941 141.6732,286.3066 141.6732,286.3066 141.9857,285.9941 141.9857,285.9941 142.9232,285.6816 142.9232,285.6816 143.8607,285.6816 143.8607,285.6816 144.7982,285.9941 144.7982,285.9941 145.4232,286.6191 145.4232,286.6191 145.7357,287.5566 145.7357,287.5566 145.7357,288.1816 145.7357,288.1816 145.4232,289.1191 145.4232,289.1191 144.7982,289.7441 144.7982,289.7441 143.8607,290.0566 143.8607,290.0566 142.9232,290.0566 142.9232,290.0566 141.9857,289.7441 141.9857,289.7441 141.6732,289.4316 141.6732,289.4316 141.3607,288.8066"/>
    <polyline points="155.5561,292.9724 155.5561,302.9724 155.5561,302.9724 154.9311,304.8474 154.9311,304.8474 154.3061,305.4724 154.3061,305.4724 153.0561,306.0974 153.0561,306.0974 151.8061,306.0974 151.8061,306.0974 150.5561,305.4724 150.5561,305.4724 149.9311,304.8474 149.9311,304.8474 149.3061,302.9724 149.3061,302.9724 149.3061,301.7224"/>
    <polyline points="194.6014,306.0974 189.6014,292.9724 189.6014,292.9724 184.6014,306.0974"/>
    <line x1="186.4764" x2="192.7264" y1="301.7224" y2="301.7224"/>
    <polyline points="420.123,292.9724 420.123,302.9724 420.123,302.9724 419.498,304.8474 419.498,304.8474 418.873,305.4724 418.873,305.4724 417.623,306.0974 417.623,306.0974 416.373,306.0974 416.373,306.0974 415.123,305.4724 415.123,305.4724 414.498,304.8474 414.498,304.8474 413.873,302.9724 413.873,302.9724 413.873,301.7224"/>
    <polyline points="774.8031,319.3701 774.8031,357.1654 774.8031,357.1654 737.0079,357.1654 737.0079,357.1654 737.0079,319.3701 737.0079,319.3701 774.8031,319.3701 774.8031,319.3701 774.8031,281.5748"/>
    <polyline points="762.7805,292.9724 762.7805,306.0974 762.7805,306.0974 754.0305,292.9724 754.0305,292.9724 754.0305,306.0974"/>
    <polyline points="44.0453,332.6427 42.7953,331.3927 42.7953,331.3927 40.9203,330.7677 40.9203,330.7677 38.4203,330.7677 38.4203,330.7677 36.5453,331.3927 36.5453,331.3927 35.2953,332.6427 35.2953,332.6427 35.2953,333.8927 35.2953,333.8927 35.9203,335.1427 35.9203,335.1427 36.5453,335.7677 36.5453,335.7677 37.7953,336.3927 37.7953,336.3927 41.5453,337.6427 41.5453,337.6427 42.7953,338.2677 42.7953,338.2677 43.4203,338.8927 43.4203,338.8927 44.0453,340.1427 44.0453,340.1427 44.0453,342.0177 44.0453,342.0177 42.7953,343.2677 42.7953,343.2677 40.9203,343.8927 40.9203,343.8927 38.4203,343.8927 38.4203,343.8927 36.5453,343.2677 36.5453,343.2677 35.2953,342.0177"/>
    <line x1="187.1014" x2="187.1014" y1="330.7677" y2="343.8927"/>
    <line x1="195.8514" x2="195.8514" y1="330.7677" y2="343.8927"/>
    <line x1="187.1014" x2="195.8514" y1="337.0177" y2="337.0177"/>
    <polyline points="325.0246,322.5394 325.6496,322.2269 325.6496,322.2269 326.5871,321.2894 326.5871,321.2894 326.5871,327.8519"/>
    <polyline points="334.3996,322.2269 334.0871,321.6019 334.0871,321.6019 333.1496,321.2894 333.1496,321.2894 332.5246,321.2894 332.5246,321.2894 331.5871,321.6019 331.5871,321.6019 330.9621,322.5394 330.9621,322.5394 330.6496,324.1019 330.6496,324.1019 330.6496,325.6644 330.6496,325.6644 330.9621,326.9144 330.9621,326.9144 331.5871,327.5394 331.5871,327.5394 332.5246,327.8519 332.5246,327.8519 332.8371,327.8519 332.8371,327.8519 333.7746,327.5394 333.7746,327.5394 334.3996,326.9144 334.3996,326.9144 334.7121,325.9769 334.7121,325.9769 334.7121,325.6644 334.7121,325.6644 334.3996,324.7269 334.3996,324.7269 333.7746,324.1019 333.7746,324.1019 332.8371,323.7894 332.8371,323.7894 332.5246,323.7894 332.5246,323.7894 331.5871,324.1019 331.5871,324.1019 330.9621,324.7269 330.9621,324.7269 330.6496,325.6644"/>
    <polyline points="346.72,330.7677 338.595,330.7677 338.595,330.7677 338.595,343.8927"/>
    <line x1="338.595" x2="343.595" y1="337.0177" y2="337.0177"/>
    <line x1="359.0551" x2="396.8504" y1="357.1654" y2="357.1654"/>
    <polyline points="376.7028,330.7677 376.7028,343.8927 376.7028,343.8927 384.2028,343.8927"/>
    <polyline points="422.3105,330.7677 414.1855,330.7677 414.1855,330.7677 414.1855,343.8927 414.1855,343.8927 422.3105,343.8927"/>
    <line x1="414.1855" x2="419.1855" y1="337.0177" y2="337.0177"/>
    <polyline points="434.6457,357.1654 472.4409,357.1654 472.4409,357.1654 472.4409,319.3701"/>
    <polyline points="459.7933,332.6427 458.5433,331.3927 458.5433,331.3927 456.6683,330.7677 456.6683,330.7677 454.1683,330.7677 454.1683,330.7677 452.2933,331.3927 452.2933,331.3927 451.0433,332.6427 451.0433,332.6427 451.0433,333.8927 451.0433,333.8927 451.6683,335.1427 451.6683,335.1427 452.2933,335.7677 452.2933,335.7677 453.5433,336.3927 453.5433,336.3927 457.2933,337.6427 457.2933,337.6427 458.5433,338.2677 458.5433,338.2677 459.1683,338.8927 459.1683,338.8927 459.7933,340.1427 459.7933,340.1427 459.7933,342.0177 459.7933,342.0177 458.5433,343.2677 458.5433,343.2677 456.6683,343.8927 456.6683,343.8927 454.1683,343.8927 454.1683,343.8927 452.2933,343.2677 452.2933,343.2677 451.0433,342.0177"/>
    <polyline points="472.4409,357.1654 510.2362,357.1654 510.2362,357.1654 548.0315,357.1654 548.0315,357.1654 548.0315,319.3701"/>
    <line x1="510.2362" x2="510.2362" y1="357.1654" y2="319.3701"/>
    <polyline points="497.5886,332.6427 496.3386,331.3927 496.3386,331.3927 494.4636,330.7677 494.4636,330.7677 491.9636,330.7677 491.9636,330.7677 490.0886,331.3927 490.0886,331.3927 488.8386,332.6427 488.8386,332.6427 488.8386,333.8927 488.8386,333.8927 489.4636,335.1427 489.4636,335.1427 490.0886,335.7677 490.0886,335.7677 491.3386,336.3927 491.3386,336.3927 495.0886,337.6427 495.0886,337.6427 496.3386,338.2677 496.3386,338.2677 496.9636,338.8927 496.9636,338.8927 497.5886,340.1427 497.5886,340.1427 497.5886,342.0177 497.5886,342.0177 496.3386,343.2677 496.3386,343.2677 494.4636,343.8927 494.4636,343.8927 491.9636,343.8927 491.9636,343.8927 490.0886,343.2677 490.0886,343.2677 488.8386,342.0177"/>
    <polyline points="535.6964,330.7677 527.5714,330.7677 527.5714,330.7677 527.5714,343.8927 527.5714,343.8927 535.6964,343.8927"/>
    <line x1="527.5714" x2="532.5714" y1="337.0177" y2="337.0177"/>
    <polyline points="548.0315,357.1654 585.8268,357.1654 585.8268,357.1654 585.8268,319.3701"/>
    <polyline points="573.8041,330.7677 573.8041,343.8927 573.8041,343.8927 565.0541,330.7677 565.0541,330.7677 565.0541,343.8927"/>
    <polyline points="585.8268,357.1654 623.622,357.1654 623.622,357.1654 661.4173,357.1654 661.4173,357.1654 699.2126,357.1654 699.2126,357.1654 699.2126,319.3701"/>
    <line x1="623.622" x2="623.622" y1="357.1654" y2="319.3701"/>
    <polyline points="611.2869,333.8927 610.6619,332.6427 610.6619,332.6427 609.4119,331.3927 609.4119,331.3927 608.1619,330.7677 608.1619,330.7677 605.6619,330.7677 605.6619,330.7677 604.4119,331.3927 604.4119,331.3927 603.1619,332.6427 603.1619,332.6427 602.5369,333.8927 602.5369,333.8927 601.9119,335.7677 601.9119,335.7677 601.9119,338.8927 601.9119,338.8927 602.5369,340.7677 602.5369,340.7677 603.1619,342.0177 603.1619,342.0177 604.4119,343.2677 604.4119,343.2677 605.6619,343.8927 605.6619,343.8927 608.1619,343.8927 608.1619,343.8927 609.4119,343.2677 609.4119,343.2677 610.6619,342.0177 610.6619,342.0177 611.2869,340.7677 611.2869,340.7677 611.2869,338.8927 611.2869,338.8927 608.1619,338.8927"/>
    <line x1="661.4173" x2="661.4173" y1="357.1654" y2="319.3701"/>
    <polyline points="649.0822,330.7677 640.9572,330.7677 640.9572,330.7677 640.9572,343.8927 640.9572,343.8927 649.0822,343.8927"/>
    <line x1="640.9572" x2="645.9572" y1="337.0177" y2="337.0177"/>
    <polyline points="679.065,330.7677 679.065,343.8927 679.065,343.8927 686.565,343.8927"/>
    <line x1="699.2126" x2="737.0079" y1="357.1654" y2="357.1654"/>
    <polyline points="716.2352,330.7677 716.2352,340.1427 716.2352,340.1427 716.8602,342.0177 716.8602,342.0177 718.1102,343.2677 718.1102,343.2677 719.9852,343.8927 719.9852,343.8927 721.2352,343.8927 721.2352,343.8927 723.1102,343.2677 723.1102,343.2677 724.3602,342.0177 724.3602,342.0177 724.9852,340.1427 724.9852,340.1427 724.9852,330.7677"/>
    <line x1="754.0305" x2="754.0305" y1="330.7677" y2="343.8927"/>
    <line x1="762.7805" x2="754.0305" y1="330.7677" y2="339.5177"/>
    <line x1="757.1555" x2="762.7805" y1="336.3927" y2="343.8927"/>
  </g>
</svg>
