<?xml version="1.0" encoding="utf-8" ?>
<svg xmlns="http://www.w3.org/2000/svg" xmlns:cc="http://creativecommons.org/ns" xmlns:dc="http://purl.org/dc/elements/1.1/" xmlns:ev="http://www.w3.org/2001/xml-events" xmlns:inkscape="http://www.inkscape.org/namespaces/inkscape" xmlns:rdf="http://www.w3.org/1999/02/22-rdf-syntax-ns" xmlns:sodipodi="http://sodipodi.sourceforge.net/DTD/sodipodi-0.dtd" xmlns:xlink="http://www.w3.org/1999/xlink" baseProfile="tiny" height="9.9cm" version="1.2" viewBox="0 0 793.7007874015749 374.1732283464567" width="21.0cm">
  <metadata>
    <rdf:RDF>
      <cc:Work>
        <dc:format>image/svg+xml</dc:format>
        <dc:source>vpype eval 'cell=10;width=210;height=99' eval 'nCols=20;nRows=9' eval 'cells=[1,2,3,4,13,16,17,18,19,23,25,26,27,28,29,30,31,32,33,34,35,38,43,50,58,61,62,63,64,65,67,68,69,70,71,72,73,74,75,76,77,78,80,83,90,96,98,100,103,104,105,106,107,108,109,110,111,113,114,115,116,117,118,119,120,123,130,132,136,138,140,143,145,146,147,148,149,150,151,152,153,154,156,158,160,161,162,163,164,172,176,177,178,179]' eval 'chars=[&quot;K&quot;,&quot;O&quot;,&quot;U&quot;,&quot;S&quot;,&quot;J&quot;,&quot;M&quot;,&quot;A&quot;,&quot;R&quot;,&quot;C&quot;,&quot;I&quot;,&quot;M&quot;,&quot;I&quot;,&quot;S&quot;,&quot;V&quot;,&quot;E&quot;,&quot;R&quot;,&quot;S&quot;,&quot;T&quot;,&quot;A&quot;,&quot;N&quot;,&quot;D&quot;,&quot;E&quot;,&quot;T&quot;,&quot;E&quot;,&quot;K&quot;,&quot;H&quot;,&quot;I&quot;,&quot;L&quot;,&quot;D&quot;,&quot;E&quot;,&quot;F&quot;,&quot;L&quot;,&quot;E&quot;,&quot;S&quot;,&quot;S&quot;,&quot;E&quot;,&quot;N&quot;,&quot;G&quot;,&quot;E&quot;,&quot;L&quot;,&quot;U&quot;,&quot;K&quot;,&quot;D&quot;,&quot;I&quot;,&quot;T&quot;,&quot;A&quot;,&quot;E&quot;,&quot;R&quot;,&quot;K&quot;,&quot;L&quot;,&quot;A&quot;,&quot;V&quot;,&quot;E&quot;,&quot;R&quot;,&quot;T&quot;,&quot;J&quot;,&quot;E&quot;,&quot;P&quot;,&quot;I&quot;,&quot;N&quot;,&quot;K&quot;,&quot;E&quot;,&quot;R&quot;,&quot;S&quot;,&quot;I&quot;,&quot;K&quot;,&quot;E&quot;,&quot;Z&quot;,&quot;E&quot;,&quot;T&quot;,&quot;E&quot;,&quot;E&quot;,&quot;G&quot;,&quot;R&quot;,&quot;O&quot;,&quot;E&quot;,&quot;P&quot;,&quot;S&quot;,&quot;F&quot;,&quot;O&quot;,&quot;T&quot;,&quot;O&quot;,&quot;N&quot;,&quot;J&quot;,&quot;S&quot;,&quot;A&quot;,&quot;N&quot;,&quot;N&quot;,&quot;E&quot;,&quot;N&quot;,&quot;S&quot;,&quot;T&quot;,&quot;E&quot;,&quot;R&quot;]' eval 'numbers=[1,3,13,16,18,25,30,61,67,76,80,103,113,132,145,160,176]' eval counter=1 eval charIndex=0 begin grid -o '%cell*mm%' '%cell*mm%' %nCols% %nRows% eval '%isCell=_i in cells%' eval '%number=_i in numbers%' eval '%size=10 if isCell else 0%' rect 0 0 '%size*mm%' '%size*mm%' text -s 10 -p 0.5mm 1.5mm '%counter if number else '&quot;'&quot;''&quot;'&quot;'%' text -s 20 -p 5mm 5mm -a center '%chars[charIndex] if isCell else '&quot;'&quot;''&quot;'&quot;'%' eval '%if number: counter+=1 %' eval '%if isCell: charIndex+=1 %' end splitall deduplicate linemerge --tolerance 0.1mm write -m none --page-size '%width*mm%x%height*mm%' --center ./svgs/solution/486b34.svg
</dc:source>
        <dc:date>2023-12-23T22:30:06.210264</dc:date>
      </cc:Work>
    </rdf:RDF>
  </metadata>
  <defs/>
  <g fill="none" id="layer1" inkscape:groupmode="layer" inkscape:label="1" stroke="#000000" style="display:inline">
    <polygon points="56.6929,17.0079 56.6929,54.8031 56.6929,54.8031 94.4882,54.8031 94.4882,54.8031 132.2835,54.8031 132.2835,54.8031 170.0787,54.8031 170.0787,54.8031 170.0787,17.0079 170.0787,17.0079 132.2835,17.0079 132.2835,17.0079 94.4882,17.0079 94.4882,17.0079"/>
    <line x1="94.4882" x2="94.4882" y1="54.8031" y2="17.0079"/>
    <polyline points="60.4577,20.1772 61.0827,19.8647 61.0827,19.8647 62.0202,18.9272 62.0202,18.9272 62.0202,25.4897"/>
    <line x1="73.7156" x2="73.7156" y1="28.4055" y2="41.5305"/>
    <line x1="82.4656" x2="73.7156" y1="28.4055" y2="37.1555"/>
    <line x1="76.8406" x2="82.4656" y1="34.0305" y2="41.5305"/>
    <polyline points="170.0787,17.0079 207.874,17.0079 207.874,17.0079 207.874,54.8031 207.874,54.8031 170.0787,54.8031 170.0787,54.8031 170.0787,92.5984 170.0787,92.5984 132.2835,92.5984 132.2835,92.5984 132.2835,54.8031 132.2835,54.8031 132.2835,17.0079"/>
    <polygon points="114.0108,28.4055 112.7608,29.0305 112.7608,29.0305 111.5108,30.2805 111.5108,30.2805 110.8858,31.5305 110.8858,31.5305 110.2608,33.4055 110.2608,33.4055 110.2608,36.5305 110.2608,36.5305 110.8858,38.4055 110.8858,38.4055 111.5108,39.6555 111.5108,39.6555 112.7608,40.9055 112.7608,40.9055 114.0108,41.5305 114.0108,41.5305 116.5108,41.5305 116.5108,41.5305 117.7608,40.9055 117.7608,40.9055 119.0108,39.6555 119.0108,39.6555 119.6358,38.4055 119.6358,38.4055 120.2608,36.5305 120.2608,36.5305 120.2608,33.4055 120.2608,33.4055 119.6358,31.5305 119.6358,31.5305 119.0108,30.2805 119.0108,30.2805 117.7608,29.0305 117.7608,29.0305 116.5108,28.4055 116.5108,28.4055"/>
    <polyline points="135.4232,20.4897 135.4232,20.1772 135.4232,20.1772 135.7357,19.5522 135.7357,19.5522 136.0482,19.2397 136.0482,19.2397 136.6732,18.9272 136.6732,18.9272 137.9232,18.9272 137.9232,18.9272 138.5482,19.2397 138.5482,19.2397 138.8607,19.5522 138.8607,19.5522 139.1732,20.1772 139.1732,20.1772 139.1732,20.8022 139.1732,20.8022 138.8607,21.4272 138.8607,21.4272 138.2357,22.3647 138.2357,22.3647 135.1107,25.4897 135.1107,25.4897 139.4857,25.4897"/>
    <polyline points="149.3061,28.4055 149.3061,37.7805 149.3061,37.7805 149.9311,39.6555 149.9311,39.6555 151.1811,40.9055 151.1811,40.9055 153.0561,41.5305 153.0561,41.5305 154.3061,41.5305 154.3061,41.5305 156.1811,40.9055 156.1811,40.9055 157.4311,39.6555 157.4311,39.6555 158.0561,37.7805 158.0561,37.7805 158.0561,28.4055"/>
    <polyline points="195.2264,30.2805 193.9764,29.0305 193.9764,29.0305 192.1014,28.4055 192.1014,28.4055 189.6014,28.4055 189.6014,28.4055 187.7264,29.0305 187.7264,29.0305 186.4764,30.2805 186.4764,30.2805 186.4764,31.5305 186.4764,31.5305 187.1014,32.7805 187.1014,32.7805 187.7264,33.4055 187.7264,33.4055 188.9764,34.0305 188.9764,34.0305 192.7264,35.2805 192.7264,35.2805 193.9764,35.9055 193.9764,35.9055 194.6014,36.5305 194.6014,36.5305 195.2264,37.7805 195.2264,37.7805 195.2264,39.6555 195.2264,39.6555 193.9764,40.9055 193.9764,40.9055 192.1014,41.5305 192.1014,41.5305 189.6014,41.5305 189.6014,41.5305 187.7264,40.9055 187.7264,40.9055 186.4764,39.6555"/>
    <polyline points="548.0315,92.5984 548.0315,54.8031 548.0315,54.8031 585.8268,54.8031 585.8268,54.8031 585.8268,92.5984 585.8268,92.5984 548.0315,92.5984 548.0315,92.5984 510.2362,92.5984 510.2362,92.5984 510.2362,54.8031 510.2362,54.8031 548.0315,54.8031 548.0315,54.8031 548.0315,17.0079 548.0315,17.0079 510.2362,17.0079 510.2362,17.0079 510.2362,54.8031 510.2362,54.8031 472.4409,54.8031 472.4409,54.8031 434.6457,54.8031 434.6457,54.8031 396.8504,54.8031 396.8504,54.8031 359.0551,54.8031 359.0551,54.8031 321.2598,54.8031 321.2598,54.8031 283.4646,54.8031 283.4646,54.8031 245.6693,54.8031 245.6693,54.8031 207.874,54.8031 207.874,54.8031 207.874,92.5984 207.874,92.5984 245.6693,92.5984 245.6693,92.5984 245.6693,54.8031"/>
    <polyline points="513.6885,18.9272 517.126,18.9272 517.126,18.9272 515.251,21.4272 515.251,21.4272 516.1885,21.4272 516.1885,21.4272 516.8135,21.7397 516.8135,21.7397 517.126,22.0522 517.126,22.0522 517.4385,22.9897 517.4385,22.9897 517.4385,23.6147 517.4385,23.6147 517.126,24.5522 517.126,24.5522 516.501,25.1772 516.501,25.1772 515.5635,25.4897 515.5635,25.4897 514.626,25.4897 514.626,25.4897 513.6885,25.1772 513.6885,25.1772 513.376,24.8647 513.376,24.8647 513.0635,24.2397"/>
    <polyline points="533.5089,28.4055 533.5089,38.4055 533.5089,38.4055 532.8839,40.2805 532.8839,40.2805 532.2589,40.9055 532.2589,40.9055 531.0089,41.5305 531.0089,41.5305 529.7589,41.5305 529.7589,41.5305 528.5089,40.9055 528.5089,40.9055 527.8839,40.2805 527.8839,40.2805 527.2589,38.4055 527.2589,38.4055 527.2589,37.1555"/>
    <polygon points="623.622,17.0079 623.622,54.8031 623.622,54.8031 661.4173,54.8031 661.4173,54.8031 699.2126,54.8031 699.2126,54.8031 699.2126,17.0079 699.2126,17.0079 661.4173,17.0079 661.4173,17.0079"/>
    <line x1="661.4173" x2="661.4173" y1="54.8031" y2="17.0079"/>
    <polyline points="629.5743,25.4897 629.5743,18.9272 629.5743,18.9272 626.4493,23.3022 626.4493,23.3022 631.1368,23.3022"/>
    <polyline points="650.0197,41.5305 650.0197,28.4055 650.0197,28.4055 645.0197,41.5305 645.0197,41.5305 640.0197,28.4055 640.0197,28.4055 640.0197,41.5305"/>
    <polyline points="685.94,41.5305 680.94,28.4055 680.94,28.4055 675.94,41.5305"/>
    <line x1="677.815" x2="684.065" y1="37.1555" y2="37.1555"/>
    <polyline points="737.0079,17.0079 774.8031,17.0079 774.8031,17.0079 774.8031,54.8031 774.8031,54.8031 737.0079,54.8031 737.0079,54.8031 737.0079,92.5984 737.0079,92.5984 737.0079,130.3937 737.0079,130.3937 699.2126,130.3937 699.2126,130.3937 699.2126,92.5984 699.2126,92.5984 699.2126,54.8031 699.2126,54.8031 737.0079,54.8031 737.0079,54.8031 737.0079,17.0079 737.0079,17.0079 699.2126,17.0079"/>
    <polyline points="705.7899,18.9272 702.6649,18.9272 702.6649,18.9272 702.3524,21.7397 702.3524,21.7397 702.6649,21.4272 702.6649,21.4272 703.6024,21.1147 703.6024,21.1147 704.5399,21.1147 704.5399,21.1147 705.4774,21.4272 705.4774,21.4272 706.1024,22.0522 706.1024,22.0522 706.4149,22.9897 706.4149,22.9897 706.4149,23.6147 706.4149,23.6147 706.1024,24.5522 706.1024,24.5522 705.4774,25.1772 705.4774,25.1772 704.5399,25.4897 704.5399,25.4897 703.6024,25.4897 703.6024,25.4897 702.6649,25.1772 702.6649,25.1772 702.3524,24.8647 702.3524,24.8647 702.0399,24.2397"/>
    <polyline points="716.2352,34.6555 721.8602,34.6555 721.8602,34.6555 723.7352,34.0305 723.7352,34.0305 724.3602,33.4055 724.3602,33.4055 724.9852,32.1555 724.9852,32.1555 724.9852,30.9055 724.9852,30.9055 724.3602,29.6555 724.3602,29.6555 723.7352,29.0305 723.7352,29.0305 721.8602,28.4055 721.8602,28.4055 716.2352,28.4055 716.2352,28.4055 716.2352,41.5305"/>
    <line x1="720.6102" x2="724.9852" y1="34.6555" y2="41.5305"/>
    <polyline points="762.468,31.5305 761.843,30.2805 761.843,30.2805 760.593,29.0305 760.593,29.0305 759.343,28.4055 759.343,28.4055 756.843,28.4055 756.843,28.4055 755.593,29.0305 755.593,29.0305 754.343,30.2805 754.343,30.2805 753.718,31.5305 753.718,31.5305 753.093,33.4055 753.093,33.4055 753.093,36.5305 753.093,36.5305 753.718,38.4055 753.718,38.4055 754.343,39.6555 754.343,39.6555 755.593,40.9055 755.593,40.9055 756.843,41.5305 756.843,41.5305 759.343,41.5305 759.343,41.5305 760.593,40.9055 760.593,40.9055 761.843,39.6555 761.843,39.6555 762.468,38.4055"/>
    <line x1="153.6811" x2="153.6811" y1="66.2008" y2="79.3258"/>
    <polyline points="214.7638,57.6599 214.4513,57.0349 214.4513,57.0349 213.5138,56.7224 213.5138,56.7224 212.8888,56.7224 212.8888,56.7224 211.9513,57.0349 211.9513,57.0349 211.3263,57.9724 211.3263,57.9724 211.0138,59.5349 211.0138,59.5349 211.0138,61.0974 211.0138,61.0974 211.3263,62.3474 211.3263,62.3474 211.9513,62.9724 211.9513,62.9724 212.8888,63.2849 212.8888,63.2849 213.2013,63.2849 213.2013,63.2849 214.1388,62.9724 214.1388,62.9724 214.7638,62.3474 214.7638,62.3474 215.0763,61.4099 215.0763,61.4099 215.0763,61.0974 215.0763,61.0974 214.7638,60.1599 214.7638,60.1599 214.1388,59.5349 214.1388,59.5349 213.2013,59.2224 213.2013,59.2224 212.8888,59.2224 212.8888,59.2224 211.9513,59.5349 211.9513,59.5349 211.3263,60.1599 211.3263,60.1599 211.0138,61.0974"/>
    <polyline points="234.2717,79.3258 234.2717,66.2008 234.2717,66.2008 229.2717,79.3258 229.2717,79.3258 224.2717,66.2008 224.2717,66.2008 224.2717,79.3258"/>
    <polyline points="245.6693,92.5984 283.4646,92.5984 283.4646,92.5984 321.2598,92.5984 321.2598,92.5984 359.0551,92.5984 359.0551,92.5984 396.8504,92.5984 396.8504,92.5984 434.6457,92.5984 434.6457,92.5984 434.6457,54.8031"/>
    <line x1="283.4646" x2="283.4646" y1="92.5984" y2="54.8031"/>
    <line x1="267.0669" x2="267.0669" y1="66.2008" y2="79.3258"/>
    <line x1="321.2598" x2="321.2598" y1="92.5984" y2="54.8031"/>
    <polyline points="308.6122,68.0758 307.3622,66.8258 307.3622,66.8258 305.4872,66.2008 305.4872,66.2008 302.9872,66.2008 302.9872,66.2008 301.1122,66.8258 301.1122,66.8258 299.8622,68.0758 299.8622,68.0758 299.8622,69.3258 299.8622,69.3258 300.4872,70.5758 300.4872,70.5758 301.1122,71.2008 301.1122,71.2008 302.3622,71.8258 302.3622,71.8258 306.1122,73.0758 306.1122,73.0758 307.3622,73.7008 307.3622,73.7008 307.9872,74.3258 307.9872,74.3258 308.6122,75.5758 308.6122,75.5758 308.6122,77.4508 308.6122,77.4508 307.3622,78.7008 307.3622,78.7008 305.4872,79.3258 305.4872,79.3258 302.9872,79.3258 302.9872,79.3258 301.1122,78.7008 301.1122,78.7008 299.8622,77.4508"/>
    <line x1="359.0551" x2="359.0551" y1="92.5984" y2="54.8031"/>
    <polyline points="335.7825,66.2008 340.7825,79.3258 340.7825,79.3258 345.7825,66.2008"/>
    <polyline points="321.2598,130.3937 321.2598,168.189 321.2598,168.189 283.4646,168.189 283.4646,168.189 283.4646,130.3937 283.4646,130.3937 321.2598,130.3937 321.2598,130.3937 359.0551,130.3937 359.0551,130.3937 396.8504,130.3937 396.8504,130.3937 396.8504,92.5984 396.8504,92.5984 396.8504,54.8031"/>
    <polyline points="384.5153,66.2008 376.3903,66.2008 376.3903,66.2008 376.3903,79.3258 376.3903,79.3258 384.5153,79.3258"/>
    <line x1="376.3903" x2="381.3903" y1="72.4508" y2="72.4508"/>
    <polyline points="399.6777,56.7224 404.0527,56.7224 404.0527,56.7224 400.9277,63.2849"/>
    <polyline points="413.873,72.4508 419.498,72.4508 419.498,72.4508 421.373,71.8258 421.373,71.8258 421.998,71.2008 421.998,71.2008 422.623,69.9508 422.623,69.9508 422.623,68.7008 422.623,68.7008 421.998,67.4508 421.998,67.4508 421.373,66.8258 421.373,66.8258 419.498,66.2008 419.498,66.2008 413.873,66.2008 413.873,66.2008 413.873,79.3258"/>
    <line x1="418.248" x2="422.623" y1="72.4508" y2="79.3258"/>
    <polyline points="472.4409,130.3937 510.2362,130.3937 510.2362,130.3937 510.2362,168.189 510.2362,168.189 472.4409,168.189 472.4409,168.189 472.4409,130.3937 472.4409,130.3937 434.6457,130.3937 434.6457,130.3937 434.6457,168.189 434.6457,168.189 396.8504,168.189 396.8504,168.189 396.8504,130.3937 396.8504,130.3937 434.6457,130.3937 434.6457,130.3937 434.6457,92.5984 434.6457,92.5984 472.4409,92.5984 472.4409,92.5984 472.4409,54.8031"/>
    <polyline points="459.7933,68.0758 458.5433,66.8258 458.5433,66.8258 456.6683,66.2008 456.6683,66.2008 454.1683,66.2008 454.1683,66.2008 452.2933,66.8258 452.2933,66.8258 451.0433,68.0758 451.0433,68.0758 451.0433,69.3258 451.0433,69.3258 451.6683,70.5758 451.6683,70.5758 452.2933,71.2008 452.2933,71.2008 453.5433,71.8258 453.5433,71.8258 457.2933,73.0758 457.2933,73.0758 458.5433,73.7008 458.5433,73.7008 459.1683,74.3258 459.1683,74.3258 459.7933,75.5758 459.7933,75.5758 459.7933,77.4508 459.7933,77.4508 458.5433,78.7008 458.5433,78.7008 456.6683,79.3258 456.6683,79.3258 454.1683,79.3258 454.1683,79.3258 452.2933,78.7008 452.2933,78.7008 451.0433,77.4508"/>
    <line x1="472.4409" x2="510.2362" y1="92.5984" y2="92.5984"/>
    <line x1="491.9636" x2="491.9636" y1="66.2008" y2="79.3258"/>
    <line x1="487.5886" x2="496.3386" y1="66.2008" y2="66.2008"/>
    <polyline points="534.7589,79.3258 529.7589,66.2008 529.7589,66.2008 524.7589,79.3258"/>
    <line x1="526.6339" x2="532.8839" y1="74.9508" y2="74.9508"/>
    <polyline points="573.8041,66.2008 573.8041,79.3258 573.8041,79.3258 565.0541,66.2008 565.0541,66.2008 565.0541,79.3258"/>
    <polyline points="585.8268,92.5984 623.622,92.5984 623.622,92.5984 623.622,54.8031 623.622,54.8031 585.8268,54.8031"/>
    <polygon points="602.8494,66.2008 602.8494,79.3258 602.8494,79.3258 607.2244,79.3258 607.2244,79.3258 609.0994,78.7008 609.0994,78.7008 610.3494,77.4508 610.3494,77.4508 610.9744,76.2008 610.9744,76.2008 611.5994,74.3258 611.5994,74.3258 611.5994,71.2008 611.5994,71.2008 610.9744,69.3258 610.9744,69.3258 610.3494,68.0758 610.3494,68.0758 609.0994,66.8258 609.0994,66.8258 607.2244,66.2008 607.2244,66.2008"/>
    <line x1="699.2126" x2="737.0079" y1="92.5984" y2="92.5984"/>
    <polyline points="724.6727,66.2008 716.5477,66.2008 716.5477,66.2008 716.5477,79.3258 716.5477,79.3258 724.6727,79.3258"/>
    <line x1="716.5477" x2="721.5477" y1="72.4508" y2="72.4508"/>
    <polyline points="132.2835,92.5984 132.2835,130.3937 132.2835,130.3937 170.0787,130.3937 170.0787,130.3937 170.0787,92.5984"/>
    <line x1="151.8061" x2="151.8061" y1="103.9961" y2="117.1211"/>
    <line x1="147.4311" x2="156.1811" y1="103.9961" y2="103.9961"/>
    <polyline points="422.3105,103.9961 414.1855,103.9961 414.1855,103.9961 414.1855,117.1211 414.1855,117.1211 422.3105,117.1211"/>
    <line x1="414.1855" x2="419.1855" y1="110.2461" y2="110.2461"/>
    <line x1="716.2352" x2="716.2352" y1="103.9961" y2="117.1211"/>
    <line x1="724.9852" x2="716.2352" y1="103.9961" y2="112.7461"/>
    <line x1="719.3602" x2="724.9852" y1="109.6211" y2="117.1211"/>
    <polygon points="56.6929,130.3937 56.6929,168.189 56.6929,168.189 94.4882,168.189 94.4882,168.189 94.4882,130.3937 94.4882,130.3937"/>
    <polygon points="61.0827,132.313 60.1452,132.6255 60.1452,132.6255 59.8327,133.2505 59.8327,133.2505 59.8327,133.8755 59.8327,133.8755 60.1452,134.5005 60.1452,134.5005 60.7702,134.813 60.7702,134.813 62.0202,135.1255 62.0202,135.1255 62.9577,135.438 62.9577,135.438 63.5827,136.063 63.5827,136.063 63.8952,136.688 63.8952,136.688 63.8952,137.6255 63.8952,137.6255 63.5827,138.2505 63.5827,138.2505 63.2702,138.563 63.2702,138.563 62.3327,138.8755 62.3327,138.8755 61.0827,138.8755 61.0827,138.8755 60.1452,138.563 60.1452,138.563 59.8327,138.2505 59.8327,138.2505 59.5202,137.6255 59.5202,137.6255 59.5202,136.688 59.5202,136.688 59.8327,136.063 59.8327,136.063 60.4577,135.438 60.4577,135.438 61.3952,135.1255 61.3952,135.1255 62.6452,134.813 62.6452,134.813 63.2702,134.5005 63.2702,134.5005 63.5827,133.8755 63.5827,133.8755 63.5827,133.2505 63.5827,133.2505 63.2702,132.6255 63.2702,132.6255 62.3327,132.313 62.3327,132.313"/>
    <line x1="73.7156" x2="73.7156" y1="141.7913" y2="154.9163"/>
    <line x1="82.4656" x2="82.4656" y1="141.7913" y2="154.9163"/>
    <line x1="73.7156" x2="82.4656" y1="148.0413" y2="148.0413"/>
    <polyline points="94.4882,168.189 132.2835,168.189 132.2835,168.189 132.2835,205.9843 132.2835,205.9843 170.0787,205.9843 170.0787,205.9843 170.0787,168.189 170.0787,168.189 207.874,168.189 207.874,168.189 207.874,130.3937 207.874,130.3937 170.0787,130.3937 170.0787,130.3937 170.0787,168.189 170.0787,168.189 132.2835,168.189 132.2835,168.189 132.2835,130.3937 132.2835,130.3937 94.4882,130.3937"/>
    <line x1="115.8858" x2="115.8858" y1="141.7913" y2="154.9163"/>
    <polyline points="149.9311,141.7913 149.9311,154.9163 149.9311,154.9163 157.4311,154.9163"/>
    <polygon points="187.1014,141.7913 187.1014,154.9163 187.1014,154.9163 191.4764,154.9163 191.4764,154.9163 193.3514,154.2913 193.3514,154.2913 194.6014,153.0413 194.6014,153.0413 195.2264,151.7913 195.2264,151.7913 195.8514,149.9163 195.8514,149.9163 195.8514,146.7913 195.8514,146.7913 195.2264,144.9163 195.2264,144.9163 194.6014,143.6663 194.6014,143.6663 193.3514,142.4163 193.3514,142.4163 191.4764,141.7913 191.4764,141.7913"/>
    <polyline points="207.874,168.189 245.6693,168.189 245.6693,168.189 245.6693,130.3937 245.6693,130.3937 207.874,130.3937"/>
    <polyline points="233.3342,141.7913 225.2092,141.7913 225.2092,141.7913 225.2092,154.9163 225.2092,154.9163 233.3342,154.9163"/>
    <line x1="225.2092" x2="230.2092" y1="148.0413" y2="148.0413"/>
    <polyline points="290.3543,134.5005 290.0418,135.438 290.0418,135.438 289.4168,136.063 289.4168,136.063 288.4793,136.3755 288.4793,136.3755 288.1668,136.3755 288.1668,136.3755 287.2293,136.063 287.2293,136.063 286.6043,135.438 286.6043,135.438 286.2918,134.5005 286.2918,134.5005 286.2918,134.188 286.2918,134.188 286.6043,133.2505 286.6043,133.2505 287.2293,132.6255 287.2293,132.6255 288.1668,132.313 288.1668,132.313 288.4793,132.313 288.4793,132.313 289.4168,132.6255 289.4168,132.6255 290.0418,133.2505 290.0418,133.2505 290.3543,134.5005 290.3543,134.5005 290.3543,136.063 290.3543,136.063 290.0418,137.6255 290.0418,137.6255 289.4168,138.563 289.4168,138.563 288.4793,138.8755 288.4793,138.8755 287.8543,138.8755 287.8543,138.8755 286.9168,138.563 286.9168,138.563 286.6043,137.938"/>
    <polyline points="308.9247,141.7913 300.7997,141.7913 300.7997,141.7913 300.7997,154.9163"/>
    <line x1="300.7997" x2="305.7997" y1="148.0413" y2="148.0413"/>
    <polyline points="321.2598,168.189 359.0551,168.189 359.0551,168.189 359.0551,130.3937"/>
    <polyline points="338.9075,141.7913 338.9075,154.9163 338.9075,154.9163 346.4075,154.9163"/>
    <polyline points="359.0551,168.189 396.8504,168.189 396.8504,168.189 396.8504,205.9843 396.8504,205.9843 434.6457,205.9843 434.6457,205.9843 434.6457,168.189 434.6457,168.189 472.4409,168.189"/>
    <polyline points="384.5153,141.7913 376.3903,141.7913 376.3903,141.7913 376.3903,154.9163 376.3903,154.9163 384.5153,154.9163"/>
    <line x1="376.3903" x2="381.3903" y1="148.0413" y2="148.0413"/>
    <polyline points="421.998,143.6663 420.748,142.4163 420.748,142.4163 418.873,141.7913 418.873,141.7913 416.373,141.7913 416.373,141.7913 414.498,142.4163 414.498,142.4163 413.248,143.6663 413.248,143.6663 413.248,144.9163 413.248,144.9163 413.873,146.1663 413.873,146.1663 414.498,146.7913 414.498,146.7913 415.748,147.4163 415.748,147.4163 419.498,148.6663 419.498,148.6663 420.748,149.2913 420.748,149.2913 421.373,149.9163 421.373,149.9163 421.998,151.1663 421.998,151.1663 421.998,153.0413 421.998,153.0413 420.748,154.2913 420.748,154.2913 418.873,154.9163 418.873,154.9163 416.373,154.9163 416.373,154.9163 414.498,154.2913 414.498,154.2913 413.248,153.0413"/>
    <polyline points="459.7933,143.6663 458.5433,142.4163 458.5433,142.4163 456.6683,141.7913 456.6683,141.7913 454.1683,141.7913 454.1683,141.7913 452.2933,142.4163 452.2933,142.4163 451.0433,143.6663 451.0433,143.6663 451.0433,144.9163 451.0433,144.9163 451.6683,146.1663 451.6683,146.1663 452.2933,146.7913 452.2933,146.7913 453.5433,147.4163 453.5433,147.4163 457.2933,148.6663 457.2933,148.6663 458.5433,149.2913 458.5433,149.2913 459.1683,149.9163 459.1683,149.9163 459.7933,151.1663 459.7933,151.1663 459.7933,153.0413 459.7933,153.0413 458.5433,154.2913 458.5433,154.2913 456.6683,154.9163 456.6683,154.9163 454.1683,154.9163 454.1683,154.9163 452.2933,154.2913 452.2933,154.2913 451.0433,153.0413"/>
    <polyline points="497.9011,141.7913 489.7761,141.7913 489.7761,141.7913 489.7761,154.9163 489.7761,154.9163 497.9011,154.9163"/>
    <line x1="489.7761" x2="494.7761" y1="148.0413" y2="148.0413"/>
    <polyline points="510.2362,168.189 548.0315,168.189 548.0315,168.189 585.8268,168.189 585.8268,168.189 585.8268,130.3937 585.8268,130.3937 548.0315,130.3937 548.0315,130.3937 510.2362,130.3937"/>
    <line x1="548.0315" x2="548.0315" y1="168.189" y2="130.3937"/>
    <polyline points="536.0089,141.7913 536.0089,154.9163 536.0089,154.9163 527.2589,141.7913 527.2589,141.7913 527.2589,154.9163"/>
    <polyline points="573.4916,144.9163 572.8666,143.6663 572.8666,143.6663 571.6166,142.4163 571.6166,142.4163 570.3666,141.7913 570.3666,141.7913 567.8666,141.7913 567.8666,141.7913 566.6166,142.4163 566.6166,142.4163 565.3666,143.6663 565.3666,143.6663 564.7416,144.9163 564.7416,144.9163 564.1166,146.7913 564.1166,146.7913 564.1166,149.9163 564.1166,149.9163 564.7416,151.7913 564.7416,151.7913 565.3666,153.0413 565.3666,153.0413 566.6166,154.2913 566.6166,154.2913 567.8666,154.9163 567.8666,154.9163 570.3666,154.9163 570.3666,154.9163 571.6166,154.2913 571.6166,154.2913 572.8666,153.0413 572.8666,153.0413 573.4916,151.7913 573.4916,151.7913 573.4916,149.9163 573.4916,149.9163 570.3666,149.9163"/>
    <polyline points="585.8268,168.189 623.622,168.189 623.622,168.189 661.4173,168.189 661.4173,168.189 699.2126,168.189 699.2126,168.189 699.2126,130.3937 699.2126,130.3937 661.4173,130.3937 661.4173,130.3937 623.622,130.3937 623.622,130.3937 585.8268,130.3937"/>
    <polyline points="548.0315,205.9843 548.0315,243.7795 548.0315,243.7795 510.2362,243.7795 510.2362,243.7795 510.2362,205.9843 510.2362,205.9843 548.0315,205.9843 548.0315,205.9843 585.8268,205.9843 585.8268,205.9843 623.622,205.9843 623.622,205.9843 623.622,168.189 623.622,168.189 623.622,130.3937"/>
    <polyline points="611.2869,141.7913 603.1619,141.7913 603.1619,141.7913 603.1619,154.9163 603.1619,154.9163 611.2869,154.9163"/>
    <line x1="603.1619" x2="608.1619" y1="148.0413" y2="148.0413"/>
    <polyline points="661.4173,281.5748 661.4173,319.3701 661.4173,319.3701 623.622,319.3701 623.622,319.3701 623.622,281.5748 623.622,281.5748 661.4173,281.5748 661.4173,281.5748 661.4173,243.7795 661.4173,243.7795 623.622,243.7795 623.622,243.7795 623.622,205.9843 623.622,205.9843 661.4173,205.9843 661.4173,205.9843 661.4173,243.7795 661.4173,243.7795 699.2126,243.7795 699.2126,243.7795 699.2126,205.9843 699.2126,205.9843 661.4173,205.9843 661.4173,205.9843 661.4173,168.189 661.4173,168.189 661.4173,130.3937"/>
    <polyline points="627.3868,133.563 628.0118,133.2505 628.0118,133.2505 628.9493,132.313 628.9493,132.313 628.9493,138.8755"/>
    <polygon points="634.5743,132.313 633.6368,132.6255 633.6368,132.6255 633.0118,133.563 633.0118,133.563 632.6993,135.1255 632.6993,135.1255 632.6993,136.063 632.6993,136.063 633.0118,137.6255 633.0118,137.6255 633.6368,138.563 633.6368,138.563 634.5743,138.8755 634.5743,138.8755 635.1993,138.8755 635.1993,138.8755 636.1368,138.563 636.1368,138.563 636.7618,137.6255 636.7618,137.6255 637.0743,136.063 637.0743,136.063 637.0743,135.1255 637.0743,135.1255 636.7618,133.563 636.7618,133.563 636.1368,132.6255 636.1368,132.6255 635.1993,132.313 635.1993,132.313"/>
    <polyline points="641.2697,141.7913 641.2697,154.9163 641.2697,154.9163 648.7697,154.9163"/>
    <polyline points="678.44,141.7913 678.44,151.1663 678.44,151.1663 679.065,153.0413 679.065,153.0413 680.315,154.2913 680.315,154.2913 682.19,154.9163 682.19,154.9163 683.44,154.9163 683.44,154.9163 685.315,154.2913 685.315,154.2913 686.565,153.0413 686.565,153.0413 687.19,151.1663 687.19,151.1663 687.19,141.7913"/>
    <polyline points="737.0079,168.189 737.0079,205.9843 737.0079,205.9843 699.2126,205.9843 699.2126,205.9843 699.2126,168.189 699.2126,168.189 737.0079,168.189 737.0079,168.189 737.0079,130.3937"/>
    <line x1="716.2352" x2="716.2352" y1="141.7913" y2="154.9163"/>
    <line x1="724.9852" x2="716.2352" y1="141.7913" y2="150.5413"/>
    <line x1="719.3602" x2="724.9852" y1="147.4163" y2="154.9163"/>
    <polygon points="18.8976,168.189 18.8976,205.9843 18.8976,205.9843 56.6929,205.9843 56.6929,205.9843 56.6929,168.189 56.6929,168.189"/>
    <polyline points="22.6624,171.3583 23.2874,171.0458 23.2874,171.0458 24.2249,170.1083 24.2249,170.1083 24.2249,176.6708"/>
    <polyline points="28.9124,171.3583 29.5374,171.0458 29.5374,171.0458 30.4749,170.1083 30.4749,170.1083 30.4749,176.6708"/>
    <polygon points="35.9203,179.5866 35.9203,192.7116 35.9203,192.7116 40.2953,192.7116 40.2953,192.7116 42.1703,192.0866 42.1703,192.0866 43.4203,190.8366 43.4203,190.8366 44.0453,189.5866 44.0453,189.5866 44.6703,187.7116 44.6703,187.7116 44.6703,184.5866 44.6703,184.5866 44.0453,182.7116 44.0453,182.7116 43.4203,181.4616 43.4203,181.4616 42.1703,180.2116 42.1703,180.2116 40.2953,179.5866 40.2953,179.5866"/>
    <line x1="153.6811" x2="153.6811" y1="179.5866" y2="192.7116"/>
    <line x1="416.373" x2="416.373" y1="179.5866" y2="192.7116"/>
    <line x1="411.998" x2="420.748" y1="179.5866" y2="179.5866"/>
    <polyline points="648.1447,192.7116 643.1447,179.5866 643.1447,179.5866 638.1447,192.7116"/>
    <line x1="640.0197" x2="646.2697" y1="188.3366" y2="188.3366"/>
    <polyline points="724.6727,179.5866 716.5477,179.5866 716.5477,179.5866 716.5477,192.7116 716.5477,192.7116 724.6727,192.7116"/>
    <line x1="716.5477" x2="721.5477" y1="185.8366" y2="185.8366"/>
    <polyline points="18.8976,205.9843 18.8976,243.7795 18.8976,243.7795 56.6929,243.7795 56.6929,243.7795 56.6929,205.9843"/>
    <polyline points="35.9203,223.6319 41.5453,223.6319 41.5453,223.6319 43.4203,223.0069 43.4203,223.0069 44.0453,222.3819 44.0453,222.3819 44.6703,221.1319 44.6703,221.1319 44.6703,219.8819 44.6703,219.8819 44.0453,218.6319 44.0453,218.6319 43.4203,218.0069 43.4203,218.0069 41.5453,217.3819 41.5453,217.3819 35.9203,217.3819 35.9203,217.3819 35.9203,230.5069"/>
    <line x1="40.2953" x2="44.6703" y1="223.6319" y2="230.5069"/>
    <polyline points="132.2835,205.9843 132.2835,243.7795 132.2835,243.7795 170.0787,243.7795 170.0787,243.7795 207.874,243.7795 207.874,243.7795 207.874,205.9843 207.874,205.9843 170.0787,205.9843 170.0787,205.9843 170.0787,243.7795 170.0787,243.7795 170.0787,281.5748 170.0787,281.5748 170.0787,319.3701 170.0787,319.3701 132.2835,319.3701 132.2835,319.3701 94.4882,319.3701 94.4882,319.3701 56.6929,319.3701 56.6929,319.3701 56.6929,281.5748 56.6929,281.5748 56.6929,243.7795"/>
    <polyline points="136.0482,209.1535 136.6732,208.841 136.6732,208.841 137.6107,207.9035 137.6107,207.9035 137.6107,214.466"/>
    <polyline points="141.6732,209.466 141.6732,209.1535 141.6732,209.1535 141.9857,208.5285 141.9857,208.5285 142.2982,208.216 142.2982,208.216 142.9232,207.9035 142.9232,207.9035 144.1732,207.9035 144.1732,207.9035 144.7982,208.216 144.7982,208.216 145.1107,208.5285 145.1107,208.5285 145.4232,209.1535 145.4232,209.1535 145.4232,209.7785 145.4232,209.7785 145.1107,210.4035 145.1107,210.4035 144.4857,211.341 144.4857,211.341 141.3607,214.466 141.3607,214.466 145.7357,214.466"/>
    <line x1="149.3061" x2="149.3061" y1="217.3819" y2="230.5069"/>
    <line x1="158.0561" x2="149.3061" y1="217.3819" y2="226.1319"/>
    <line x1="152.4311" x2="158.0561" y1="223.0069" y2="230.5069"/>
    <polyline points="187.7264,217.3819 187.7264,230.5069 187.7264,230.5069 195.2264,230.5069"/>
    <polyline points="207.874,243.7795 245.6693,243.7795 245.6693,243.7795 245.6693,205.9843 245.6693,205.9843 207.874,205.9843"/>
    <polyline points="232.3967,230.5069 227.3967,217.3819 227.3967,217.3819 222.3967,230.5069"/>
    <line x1="224.2717" x2="230.5217" y1="226.1319" y2="226.1319"/>
    <polyline points="245.6693,243.7795 283.4646,243.7795 283.4646,243.7795 321.2598,243.7795 321.2598,243.7795 321.2598,205.9843 321.2598,205.9843 283.4646,205.9843 283.4646,205.9843 245.6693,205.9843"/>
    <line x1="283.4646" x2="283.4646" y1="243.7795" y2="205.9843"/>
    <polyline points="260.1919,217.3819 265.1919,230.5069 265.1919,230.5069 270.1919,217.3819"/>
    <polyline points="308.9247,217.3819 300.7997,217.3819 300.7997,217.3819 300.7997,230.5069 300.7997,230.5069 308.9247,230.5069"/>
    <line x1="300.7997" x2="305.7997" y1="223.6319" y2="223.6319"/>
    <polyline points="321.2598,243.7795 359.0551,243.7795 359.0551,243.7795 396.8504,243.7795 396.8504,243.7795 434.6457,243.7795 434.6457,243.7795 434.6457,205.9843 434.6457,205.9843 472.4409,205.9843 472.4409,205.9843 472.4409,243.7795 472.4409,243.7795 434.6457,243.7795 434.6457,243.7795 434.6457,281.5748 434.6457,281.5748 434.6457,319.3701 434.6457,319.3701 396.8504,319.3701 396.8504,319.3701 396.8504,281.5748 396.8504,281.5748 359.0551,281.5748 359.0551,281.5748 321.2598,281.5748 321.2598,281.5748 283.4646,281.5748 283.4646,281.5748 245.6693,281.5748 245.6693,281.5748 207.874,281.5748 207.874,281.5748 207.874,319.3701 207.874,319.3701 170.0787,319.3701 170.0787,319.3701 170.0787,357.1654 170.0787,357.1654 207.874,357.1654 207.874,357.1654 207.874,319.3701 207.874,319.3701 245.6693,319.3701 245.6693,319.3701 245.6693,281.5748"/>
    <polyline points="359.0551,243.7795 359.0551,205.9843 359.0551,205.9843 321.2598,205.9843"/>
    <polyline points="338.2825,223.6319 343.9075,223.6319 343.9075,223.6319 345.7825,223.0069 345.7825,223.0069 346.4075,222.3819 346.4075,222.3819 347.0325,221.1319 347.0325,221.1319 347.0325,219.8819 347.0325,219.8819 346.4075,218.6319 346.4075,218.6319 345.7825,218.0069 345.7825,218.0069 343.9075,217.3819 343.9075,217.3819 338.2825,217.3819 338.2825,217.3819 338.2825,230.5069"/>
    <line x1="342.6575" x2="347.0325" y1="223.6319" y2="230.5069"/>
    <polyline points="434.6457,319.3701 472.4409,319.3701 472.4409,319.3701 510.2362,319.3701 510.2362,319.3701 510.2362,281.5748 510.2362,281.5748 548.0315,281.5748 548.0315,281.5748 548.0315,319.3701 548.0315,319.3701 510.2362,319.3701 510.2362,319.3701 510.2362,357.1654 510.2362,357.1654 472.4409,357.1654 472.4409,357.1654 472.4409,319.3701 472.4409,319.3701 472.4409,281.5748 472.4409,281.5748 472.4409,243.7795 472.4409,243.7795 510.2362,243.7795 510.2362,243.7795 510.2362,281.5748 510.2362,281.5748 472.4409,281.5748 472.4409,281.5748 434.6457,281.5748 434.6457,281.5748 396.8504,281.5748 396.8504,281.5748 396.8504,243.7795 396.8504,243.7795 396.8504,205.9843 396.8504,205.9843 359.0551,205.9843"/>
    <line x1="378.5778" x2="378.5778" y1="217.3819" y2="230.5069"/>
    <line x1="374.2028" x2="382.9528" y1="217.3819" y2="217.3819"/>
    <polyline points="420.123,217.3819 420.123,227.3819 420.123,227.3819 419.498,229.2569 419.498,229.2569 418.873,229.8819 418.873,229.8819 417.623,230.5069 417.623,230.5069 416.373,230.5069 416.373,230.5069 415.123,229.8819 415.123,229.8819 414.498,229.2569 414.498,229.2569 413.873,227.3819 413.873,227.3819 413.873,226.1319"/>
    <polyline points="460.1058,217.3819 451.9808,217.3819 451.9808,217.3819 451.9808,230.5069 451.9808,230.5069 460.1058,230.5069"/>
    <line x1="451.9808" x2="456.9808" y1="223.6319" y2="223.6319"/>
    <polyline points="514.001,209.1535 514.626,208.841 514.626,208.841 515.5635,207.9035 515.5635,207.9035 515.5635,214.466"/>
    <polyline points="519.9385,207.9035 523.376,207.9035 523.376,207.9035 521.501,210.4035 521.501,210.4035 522.4385,210.4035 522.4385,210.4035 523.0635,210.716 523.0635,210.716 523.376,211.0285 523.376,211.0285 523.6885,211.966 523.6885,211.966 523.6885,212.591 523.6885,212.591 523.376,213.5285 523.376,213.5285 522.751,214.1535 522.751,214.1535 521.8135,214.466 521.8135,214.466 520.876,214.466 520.876,214.466 519.9385,214.1535 519.9385,214.1535 519.626,213.841 519.626,213.841 519.3135,213.216"/>
    <polyline points="527.2589,224.2569 532.8839,224.2569 532.8839,224.2569 534.7589,223.6319 534.7589,223.6319 535.3839,223.0069 535.3839,223.0069 536.0089,221.7569 536.0089,221.7569 536.0089,219.8819 536.0089,219.8819 535.3839,218.6319 535.3839,218.6319 534.7589,218.0069 534.7589,218.0069 532.8839,217.3819 532.8839,217.3819 527.2589,217.3819 527.2589,217.3819 527.2589,230.5069"/>
    <polyline points="548.0315,243.7795 585.8268,243.7795 585.8268,243.7795 585.8268,205.9843"/>
    <line x1="569.4291" x2="569.4291" y1="217.3819" y2="230.5069"/>
    <polyline points="585.8268,243.7795 623.622,243.7795 623.622,243.7795 623.622,281.5748"/>
    <polyline points="611.5994,217.3819 611.5994,230.5069 611.5994,230.5069 602.8494,217.3819 602.8494,217.3819 602.8494,230.5069"/>
    <line x1="640.6447" x2="640.6447" y1="217.3819" y2="230.5069"/>
    <line x1="649.3947" x2="640.6447" y1="217.3819" y2="226.1319"/>
    <line x1="643.7697" x2="649.3947" y1="223.0069" y2="230.5069"/>
    <polyline points="686.8775,217.3819 678.7525,217.3819 678.7525,217.3819 678.7525,230.5069 678.7525,230.5069 686.8775,230.5069"/>
    <line x1="678.7525" x2="683.7525" y1="223.6319" y2="223.6319"/>
    <polyline points="699.2126,281.5748 699.2126,243.7795 699.2126,243.7795 737.0079,243.7795 737.0079,243.7795 774.8031,243.7795 774.8031,243.7795 774.8031,205.9843 774.8031,205.9843 737.0079,205.9843 737.0079,205.9843 737.0079,243.7795 737.0079,243.7795 737.0079,281.5748 737.0079,281.5748 737.0079,319.3701 737.0079,319.3701 737.0079,357.1654 737.0079,357.1654 774.8031,357.1654 774.8031,357.1654 774.8031,319.3701 774.8031,319.3701 737.0079,319.3701 737.0079,319.3701 699.2126,319.3701 699.2126,319.3701 699.2126,281.5748 699.2126,281.5748 737.0079,281.5748"/>
    <polyline points="716.2352,223.6319 721.8602,223.6319 721.8602,223.6319 723.7352,223.0069 723.7352,223.0069 724.3602,222.3819 724.3602,222.3819 724.9852,221.1319 724.9852,221.1319 724.9852,219.8819 724.9852,219.8819 724.3602,218.6319 724.3602,218.6319 723.7352,218.0069 723.7352,218.0069 721.8602,217.3819 721.8602,217.3819 716.2352,217.3819 716.2352,217.3819 716.2352,230.5069"/>
    <line x1="720.6102" x2="724.9852" y1="223.6319" y2="230.5069"/>
    <polyline points="762.1555,219.2569 760.9055,218.0069 760.9055,218.0069 759.0305,217.3819 759.0305,217.3819 756.5305,217.3819 756.5305,217.3819 754.6555,218.0069 754.6555,218.0069 753.4055,219.2569 753.4055,219.2569 753.4055,220.5069 753.4055,220.5069 754.0305,221.7569 754.0305,221.7569 754.6555,222.3819 754.6555,222.3819 755.9055,223.0069 755.9055,223.0069 759.6555,224.2569 759.6555,224.2569 760.9055,224.8819 760.9055,224.8819 761.5305,225.5069 761.5305,225.5069 762.1555,226.7569 762.1555,226.7569 762.1555,228.6319 762.1555,228.6319 760.9055,229.8819 760.9055,229.8819 759.0305,230.5069 759.0305,230.5069 756.5305,230.5069 756.5305,230.5069 754.6555,229.8819 754.6555,229.8819 753.4055,228.6319"/>
    <polyline points="18.8976,243.7795 18.8976,281.5748 18.8976,281.5748 18.8976,319.3701 18.8976,319.3701 56.6929,319.3701 56.6929,319.3701 56.6929,357.1654 56.6929,357.1654 94.4882,357.1654 94.4882,357.1654 132.2835,357.1654 132.2835,357.1654 170.0787,357.1654"/>
    <line x1="18.8976" x2="56.6929" y1="281.5748" y2="281.5748"/>
    <line x1="40.2953" x2="40.2953" y1="255.1772" y2="268.3022"/>
    <polyline points="132.2835,243.7795 132.2835,281.5748 132.2835,281.5748 170.0787,281.5748"/>
    <line x1="149.3061" x2="149.3061" y1="255.1772" y2="268.3022"/>
    <line x1="158.0561" x2="149.3061" y1="255.1772" y2="263.9272"/>
    <line x1="152.4311" x2="158.0561" y1="260.8022" y2="268.3022"/>
    <polyline points="422.3105,255.1772 414.1855,255.1772 414.1855,255.1772 414.1855,268.3022 414.1855,268.3022 422.3105,268.3022"/>
    <line x1="414.1855" x2="419.1855" y1="261.4272" y2="261.4272"/>
    <polyline points="476.2057,246.9488 476.8307,246.6363 476.8307,246.6363 477.7682,245.6988 477.7682,245.6988 477.7682,252.2613"/>
    <polyline points="484.6432,252.2613 484.6432,245.6988 484.6432,245.6988 481.5182,250.0738 481.5182,250.0738 486.2057,250.0738"/>
    <polyline points="488.8386,255.1772 497.5886,255.1772 497.5886,255.1772 488.8386,268.3022 488.8386,268.3022 497.5886,268.3022"/>
    <polyline points="649.0822,255.1772 640.9572,255.1772 640.9572,255.1772 640.9572,268.3022 640.9572,268.3022 649.0822,268.3022"/>
    <line x1="640.9572" x2="645.9572" y1="261.4272" y2="261.4272"/>
    <line x1="718.7352" x2="718.7352" y1="255.1772" y2="268.3022"/>
    <line x1="714.3602" x2="723.1102" y1="255.1772" y2="255.1772"/>
    <polyline points="44.3578,292.9724 36.2328,292.9724 36.2328,292.9724 36.2328,306.0974 36.2328,306.0974 44.3578,306.0974"/>
    <line x1="36.2328" x2="41.2328" y1="299.2224" y2="299.2224"/>
    <polyline points="132.2835,281.5748 132.2835,319.3701 132.2835,319.3701 132.2835,357.1654"/>
    <polyline points="157.7436,292.9724 149.6186,292.9724 149.6186,292.9724 149.6186,306.0974 149.6186,306.0974 157.7436,306.0974"/>
    <line x1="149.6186" x2="154.6186" y1="299.2224" y2="299.2224"/>
    <polyline points="211.6388,284.7441 212.2638,284.4316 212.2638,284.4316 213.2013,283.4941 213.2013,283.4941 213.2013,290.0566"/>
    <polyline points="220.7013,283.4941 217.5763,283.4941 217.5763,283.4941 217.2638,286.3066 217.2638,286.3066 217.5763,285.9941 217.5763,285.9941 218.5138,285.6816 218.5138,285.6816 219.4513,285.6816 219.4513,285.6816 220.3888,285.9941 220.3888,285.9941 221.0138,286.6191 221.0138,286.6191 221.3263,287.5566 221.3263,287.5566 221.3263,288.1816 221.3263,288.1816 221.0138,289.1191 221.0138,289.1191 220.3888,289.7441 220.3888,289.7441 219.4513,290.0566 219.4513,290.0566 218.5138,290.0566 218.5138,290.0566 217.5763,289.7441 217.5763,289.7441 217.2638,289.4316 217.2638,289.4316 216.9513,288.8066"/>
    <polyline points="233.3342,296.0974 232.7092,294.8474 232.7092,294.8474 231.4592,293.5974 231.4592,293.5974 230.2092,292.9724 230.2092,292.9724 227.7092,292.9724 227.7092,292.9724 226.4592,293.5974 226.4592,293.5974 225.2092,294.8474 225.2092,294.8474 224.5842,296.0974 224.5842,296.0974 223.9592,297.9724 223.9592,297.9724 223.9592,301.0974 223.9592,301.0974 224.5842,302.9724 224.5842,302.9724 225.2092,304.2224 225.2092,304.2224 226.4592,305.4724 226.4592,305.4724 227.7092,306.0974 227.7092,306.0974 230.2092,306.0974 230.2092,306.0974 231.4592,305.4724 231.4592,305.4724 232.7092,304.2224 232.7092,304.2224 233.3342,302.9724 233.3342,302.9724 233.3342,301.0974 233.3342,301.0974 230.2092,301.0974"/>
    <polyline points="245.6693,319.3701 283.4646,319.3701 283.4646,319.3701 283.4646,281.5748"/>
    <polyline points="262.6919,299.2224 268.3169,299.2224 268.3169,299.2224 270.1919,298.5974 270.1919,298.5974 270.8169,297.9724 270.8169,297.9724 271.4419,296.7224 271.4419,296.7224 271.4419,295.4724 271.4419,295.4724 270.8169,294.2224 270.8169,294.2224 270.1919,293.5974 270.1919,293.5974 268.3169,292.9724 268.3169,292.9724 262.6919,292.9724 262.6919,292.9724 262.6919,306.0974"/>
    <line x1="267.0669" x2="271.4419" y1="299.2224" y2="306.0974"/>
    <polyline points="283.4646,319.3701 321.2598,319.3701 321.2598,319.3701 321.2598,281.5748"/>
    <polygon points="302.9872,292.9724 301.7372,293.5974 301.7372,293.5974 300.4872,294.8474 300.4872,294.8474 299.8622,296.0974 299.8622,296.0974 299.2372,297.9724 299.2372,297.9724 299.2372,301.0974 299.2372,301.0974 299.8622,302.9724 299.8622,302.9724 300.4872,304.2224 300.4872,304.2224 301.7372,305.4724 301.7372,305.4724 302.9872,306.0974 302.9872,306.0974 305.4872,306.0974 305.4872,306.0974 306.7372,305.4724 306.7372,305.4724 307.9872,304.2224 307.9872,304.2224 308.6122,302.9724 308.6122,302.9724 309.2372,301.0974 309.2372,301.0974 309.2372,297.9724 309.2372,297.9724 308.6122,296.0974 308.6122,296.0974 307.9872,294.8474 307.9872,294.8474 306.7372,293.5974 306.7372,293.5974 305.4872,292.9724 305.4872,292.9724"/>
    <polyline points="321.2598,319.3701 359.0551,319.3701 359.0551,319.3701 396.8504,319.3701"/>
    <line x1="359.0551" x2="359.0551" y1="319.3701" y2="281.5748"/>
    <polyline points="346.72,292.9724 338.595,292.9724 338.595,292.9724 338.595,306.0974 338.595,306.0974 346.72,306.0974"/>
    <line x1="338.595" x2="343.595" y1="299.2224" y2="299.2224"/>
    <polyline points="376.0778,299.8474 381.7028,299.8474 381.7028,299.8474 383.5778,299.2224 383.5778,299.2224 384.2028,298.5974 384.2028,298.5974 384.8278,297.3474 384.8278,297.3474 384.8278,295.4724 384.8278,295.4724 384.2028,294.2224 384.2028,294.2224 383.5778,293.5974 383.5778,293.5974 381.7028,292.9724 381.7028,292.9724 376.0778,292.9724 376.0778,292.9724 376.0778,306.0974"/>
    <polyline points="421.998,294.8474 420.748,293.5974 420.748,293.5974 418.873,292.9724 418.873,292.9724 416.373,292.9724 416.373,292.9724 414.498,293.5974 414.498,293.5974 413.248,294.8474 413.248,294.8474 413.248,296.0974 413.248,296.0974 413.873,297.3474 413.873,297.3474 414.498,297.9724 414.498,297.9724 415.748,298.5974 415.748,298.5974 419.498,299.8474 419.498,299.8474 420.748,300.4724 420.748,300.4724 421.373,301.0974 421.373,301.0974 421.998,302.3474 421.998,302.3474 421.998,304.2224 421.998,304.2224 420.748,305.4724 420.748,305.4724 418.873,306.0974 418.873,306.0974 416.373,306.0974 416.373,306.0974 414.498,305.4724 414.498,305.4724 413.248,304.2224"/>
    <polyline points="460.1058,292.9724 451.9808,292.9724 451.9808,292.9724 451.9808,306.0974"/>
    <line x1="451.9808" x2="456.9808" y1="299.2224" y2="299.2224"/>
    <polygon points="491.9636,292.9724 490.7136,293.5974 490.7136,293.5974 489.4636,294.8474 489.4636,294.8474 488.8386,296.0974 488.8386,296.0974 488.2136,297.9724 488.2136,297.9724 488.2136,301.0974 488.2136,301.0974 488.8386,302.9724 488.8386,302.9724 489.4636,304.2224 489.4636,304.2224 490.7136,305.4724 490.7136,305.4724 491.9636,306.0974 491.9636,306.0974 494.4636,306.0974 494.4636,306.0974 495.7136,305.4724 495.7136,305.4724 496.9636,304.2224 496.9636,304.2224 497.5886,302.9724 497.5886,302.9724 498.2136,301.0974 498.2136,301.0974 498.2136,297.9724 498.2136,297.9724 497.5886,296.0974 497.5886,296.0974 496.9636,294.8474 496.9636,294.8474 495.7136,293.5974 495.7136,293.5974 494.4636,292.9724 494.4636,292.9724"/>
    <line x1="529.7589" x2="529.7589" y1="292.9724" y2="306.0974"/>
    <line x1="525.3839" x2="534.1339" y1="292.9724" y2="292.9724"/>
    <polyline points="548.0315,319.3701 585.8268,319.3701 585.8268,319.3701 585.8268,281.5748 585.8268,281.5748 548.0315,281.5748"/>
    <polygon points="567.5541,292.9724 566.3041,293.5974 566.3041,293.5974 565.0541,294.8474 565.0541,294.8474 564.4291,296.0974 564.4291,296.0974 563.8041,297.9724 563.8041,297.9724 563.8041,301.0974 563.8041,301.0974 564.4291,302.9724 564.4291,302.9724 565.0541,304.2224 565.0541,304.2224 566.3041,305.4724 566.3041,305.4724 567.5541,306.0974 567.5541,306.0974 570.0541,306.0974 570.0541,306.0974 571.3041,305.4724 571.3041,305.4724 572.5541,304.2224 572.5541,304.2224 573.1791,302.9724 573.1791,302.9724 573.8041,301.0974 573.8041,301.0974 573.8041,297.9724 573.8041,297.9724 573.1791,296.0974 573.1791,296.0974 572.5541,294.8474 572.5541,294.8474 571.3041,293.5974 571.3041,293.5974 570.0541,292.9724 570.0541,292.9724"/>
    <polyline points="649.3947,292.9724 649.3947,306.0974 649.3947,306.0974 640.6447,292.9724 640.6447,292.9724 640.6447,306.0974"/>
    <polyline points="722.4852,292.9724 722.4852,302.9724 722.4852,302.9724 721.8602,304.8474 721.8602,304.8474 721.2352,305.4724 721.2352,305.4724 719.9852,306.0974 719.9852,306.0974 718.7352,306.0974 718.7352,306.0974 717.4852,305.4724 717.4852,305.4724 716.8602,304.8474 716.8602,304.8474 716.2352,302.9724 716.2352,302.9724 716.2352,301.7224"/>
    <polyline points="18.8976,319.3701 18.8976,357.1654 18.8976,357.1654 56.6929,357.1654"/>
    <polyline points="22.6624,322.5394 23.2874,322.2269 23.2874,322.2269 24.2249,321.2894 24.2249,321.2894 24.2249,327.8519"/>
    <polyline points="32.0374,322.2269 31.7249,321.6019 31.7249,321.6019 30.7874,321.2894 30.7874,321.2894 30.1624,321.2894 30.1624,321.2894 29.2249,321.6019 29.2249,321.6019 28.5999,322.5394 28.5999,322.5394 28.2874,324.1019 28.2874,324.1019 28.2874,325.6644 28.2874,325.6644 28.5999,326.9144 28.5999,326.9144 29.2249,327.5394 29.2249,327.5394 30.1624,327.8519 30.1624,327.8519 30.4749,327.8519 30.4749,327.8519 31.4124,327.5394 31.4124,327.5394 32.0374,326.9144 32.0374,326.9144 32.3499,325.9769 32.3499,325.9769 32.3499,325.6644 32.3499,325.6644 32.0374,324.7269 32.0374,324.7269 31.4124,324.1019 31.4124,324.1019 30.4749,323.7894 30.4749,323.7894 30.1624,323.7894 30.1624,323.7894 29.2249,324.1019 29.2249,324.1019 28.5999,324.7269 28.5999,324.7269 28.2874,325.6644"/>
    <polyline points="44.0453,332.6427 42.7953,331.3927 42.7953,331.3927 40.9203,330.7677 40.9203,330.7677 38.4203,330.7677 38.4203,330.7677 36.5453,331.3927 36.5453,331.3927 35.2953,332.6427 35.2953,332.6427 35.2953,333.8927 35.2953,333.8927 35.9203,335.1427 35.9203,335.1427 36.5453,335.7677 36.5453,335.7677 37.7953,336.3927 37.7953,336.3927 41.5453,337.6427 41.5453,337.6427 42.7953,338.2677 42.7953,338.2677 43.4203,338.8927 43.4203,338.8927 44.0453,340.1427 44.0453,340.1427 44.0453,342.0177 44.0453,342.0177 42.7953,343.2677 42.7953,343.2677 40.9203,343.8927 40.9203,343.8927 38.4203,343.8927 38.4203,343.8927 36.5453,343.2677 36.5453,343.2677 35.2953,342.0177"/>
    <line x1="94.4882" x2="94.4882" y1="357.1654" y2="319.3701"/>
    <polyline points="81.2156,343.8927 76.2156,330.7677 76.2156,330.7677 71.2156,343.8927"/>
    <line x1="73.0906" x2="79.3406" y1="339.5177" y2="339.5177"/>
    <polyline points="120.2608,330.7677 120.2608,343.8927 120.2608,343.8927 111.5108,330.7677 111.5108,330.7677 111.5108,343.8927"/>
    <polyline points="158.0561,330.7677 158.0561,343.8927 158.0561,343.8927 149.3061,330.7677 149.3061,330.7677 149.3061,343.8927"/>
    <polyline points="195.5389,330.7677 187.4139,330.7677 187.4139,330.7677 187.4139,343.8927 187.4139,343.8927 195.5389,343.8927"/>
    <line x1="187.4139" x2="192.4139" y1="337.0177" y2="337.0177"/>
    <polyline points="498.2136,330.7677 498.2136,343.8927 498.2136,343.8927 489.4636,330.7677 489.4636,330.7677 489.4636,343.8927"/>
    <polyline points="623.622,319.3701 623.622,357.1654 623.622,357.1654 661.4173,357.1654 661.4173,357.1654 661.4173,319.3701 661.4173,319.3701 699.2126,319.3701 699.2126,319.3701 699.2126,357.1654 699.2126,357.1654 661.4173,357.1654"/>
    <polyline points="627.3868,322.5394 628.0118,322.2269 628.0118,322.2269 628.9493,321.2894 628.9493,321.2894 628.9493,327.8519"/>
    <polyline points="632.6993,321.2894 637.0743,321.2894 637.0743,321.2894 633.9493,327.8519"/>
    <polyline points="648.7697,332.6427 647.5197,331.3927 647.5197,331.3927 645.6447,330.7677 645.6447,330.7677 643.1447,330.7677 643.1447,330.7677 641.2697,331.3927 641.2697,331.3927 640.0197,332.6427 640.0197,332.6427 640.0197,333.8927 640.0197,333.8927 640.6447,335.1427 640.6447,335.1427 641.2697,335.7677 641.2697,335.7677 642.5197,336.3927 642.5197,336.3927 646.2697,337.6427 646.2697,337.6427 647.5197,338.2677 647.5197,338.2677 648.1447,338.8927 648.1447,338.8927 648.7697,340.1427 648.7697,340.1427 648.7697,342.0177 648.7697,342.0177 647.5197,343.2677 647.5197,343.2677 645.6447,343.8927 645.6447,343.8927 643.1447,343.8927 643.1447,343.8927 641.2697,343.2677 641.2697,343.2677 640.0197,342.0177"/>
    <line x1="680.94" x2="680.94" y1="330.7677" y2="343.8927"/>
    <line x1="676.565" x2="685.315" y1="330.7677" y2="330.7677"/>
    <line x1="699.2126" x2="737.0079" y1="357.1654" y2="357.1654"/>
    <polyline points="724.6727,330.7677 716.5477,330.7677 716.5477,330.7677 716.5477,343.8927 716.5477,343.8927 724.6727,343.8927"/>
    <line x1="716.5477" x2="721.5477" y1="337.0177" y2="337.0177"/>
    <polyline points="754.0305,337.0177 759.6555,337.0177 759.6555,337.0177 761.5305,336.3927 761.5305,336.3927 762.1555,335.7677 762.1555,335.7677 762.7805,334.5177 762.7805,334.5177 762.7805,333.2677 762.7805,333.2677 762.1555,332.0177 762.1555,332.0177 761.5305,331.3927 761.5305,331.3927 759.6555,330.7677 759.6555,330.7677 754.0305,330.7677 754.0305,330.7677 754.0305,343.8927"/>
    <line x1="758.4055" x2="762.7805" y1="337.0177" y2="343.8927"/>
  </g>
</svg>
