<?xml version="1.0" encoding="utf-8" ?>
<svg xmlns="http://www.w3.org/2000/svg" xmlns:cc="http://creativecommons.org/ns" xmlns:dc="http://purl.org/dc/elements/1.1/" xmlns:ev="http://www.w3.org/2001/xml-events" xmlns:inkscape="http://www.inkscape.org/namespaces/inkscape" xmlns:rdf="http://www.w3.org/1999/02/22-rdf-syntax-ns" xmlns:sodipodi="http://sodipodi.sourceforge.net/DTD/sodipodi-0.dtd" xmlns:xlink="http://www.w3.org/1999/xlink" baseProfile="tiny" height="9.9cm" version="1.2" viewBox="0 0 793.7007874015749 374.1732283464567" width="21.0cm">
  <metadata>
    <rdf:RDF>
      <cc:Work>
        <dc:format>image/svg+xml</dc:format>
        <dc:source>vpype eval 'cell=10;width=210;height=99' eval 'nCols=20;nRows=9' eval 'cells=[0,1,2,3,4,5,6,7,8,9,10,11,13,14,15,16,17,18,19,20,30,38,40,44,45,46,47,48,49,50,51,52,55,56,58,60,64,70,76,78,80,82,83,84,85,86,87,89,90,91,92,93,94,95,96,97,98,99,100,101,104,110,116,118,120,122,123,124,125,126,130,134,137,138,139,140,142,144,147,148,149,150,151,152,153,154,155,156,158,162,170,174,178]' eval 'chars=[&quot;F&quot;,&quot;L&quot;,&quot;E&quot;,&quot;S&quot;,&quot;S&quot;,&quot;E&quot;,&quot;N&quot;,&quot;G&quot;,&quot;E&quot;,&quot;L&quot;,&quot;U&quot;,&quot;K&quot;,&quot;P&quot;,&quot;I&quot;,&quot;N&quot;,&quot;K&quot;,&quot;E&quot;,&quot;R&quot;,&quot;S&quot;,&quot;R&quot;,&quot;I&quot;,&quot;E&quot;,&quot;I&quot;,&quot;K&quot;,&quot;L&quot;,&quot;A&quot;,&quot;V&quot;,&quot;E&quot;,&quot;R&quot;,&quot;T&quot;,&quot;J&quot;,&quot;E&quot;,&quot;B&quot;,&quot;O&quot;,&quot;G&quot;,&quot;E&quot;,&quot;I&quot;,&quot;L&quot;,&quot;T&quot;,&quot;E&quot;,&quot;T&quot;,&quot;L&quot;,&quot;I&quot;,&quot;E&quot;,&quot;S&quot;,&quot;J&quot;,&quot;E&quot;,&quot;M&quot;,&quot;I&quot;,&quot;S&quot;,&quot;V&quot;,&quot;E&quot;,&quot;R&quot;,&quot;S&quot;,&quot;T&quot;,&quot;A&quot;,&quot;N&quot;,&quot;D&quot;,&quot;J&quot;,&quot;A&quot;,&quot;M&quot;,&quot;K&quot;,&quot;O&quot;,&quot;B&quot;,&quot;E&quot;,&quot;T&quot;,&quot;R&quot;,&quot;E&quot;,&quot;I&quot;,&quot;N&quot;,&quot;K&quot;,&quot;Z&quot;,&quot;M&quot;,&quot;O&quot;,&quot;P&quot;,&quot;S&quot;,&quot;O&quot;,&quot;N&quot;,&quot;G&quot;,&quot;R&quot;,&quot;O&quot;,&quot;E&quot;,&quot;P&quot;,&quot;S&quot;,&quot;F&quot;,&quot;O&quot;,&quot;T&quot;,&quot;O&quot;,&quot;O&quot;,&quot;M&quot;,&quot;N&quot;,&quot;N&quot;,&quot;G&quot;]' eval 'numbers=[0,10,13,18,44,55,56,82,89,100,122,134,137,147]' eval counter=1 eval charIndex=0 begin grid -o '%cell*mm%' '%cell*mm%' %nCols% %nRows% eval '%isCell=_i in cells%' eval '%number=_i in numbers%' eval '%size=10 if isCell else 0%' rect 0 0 '%size*mm%' '%size*mm%' text -s 10 -p 0.5mm 1.5mm '%counter if number else '&quot;'&quot;''&quot;'&quot;'%' text -s 20 -p 5mm 5mm -a center '%chars[charIndex] if isCell else '&quot;'&quot;''&quot;'&quot;'%' eval '%if number: counter+=1 %' eval '%if isCell: charIndex+=1 %' end splitall deduplicate linemerge --tolerance 0.1mm write -m none --page-size '%width*mm%x%height*mm%' --center ./svgs/solution/489fab.svg
</dc:source>
        <dc:date>2023-12-23T22:30:05.623764</dc:date>
      </cc:Work>
    </rdf:RDF>
  </metadata>
  <defs/>
  <g fill="none" id="layer1" inkscape:groupmode="layer" inkscape:label="1" stroke="#000000" style="display:inline">
    <polygon points="18.8976,17.0079 18.8976,54.8031 18.8976,54.8031 56.6929,54.8031 56.6929,54.8031 94.4882,54.8031 94.4882,54.8031 132.2835,54.8031 132.2835,54.8031 170.0787,54.8031 170.0787,54.8031 170.0787,17.0079 170.0787,17.0079 132.2835,17.0079 132.2835,17.0079 94.4882,17.0079 94.4882,17.0079 56.6929,17.0079 56.6929,17.0079"/>
    <polyline points="56.6929,92.5984 56.6929,130.3937 56.6929,130.3937 18.8976,130.3937 18.8976,130.3937 18.8976,92.5984 18.8976,92.5984 56.6929,92.5984 56.6929,92.5984 56.6929,54.8031 56.6929,54.8031 56.6929,17.0079"/>
    <polyline points="22.6624,20.1772 23.2874,19.8647 23.2874,19.8647 24.2249,18.9272 24.2249,18.9272 24.2249,25.4897"/>
    <polyline points="44.3578,28.4055 36.2328,28.4055 36.2328,28.4055 36.2328,41.5305"/>
    <line x1="36.2328" x2="41.2328" y1="34.6555" y2="34.6555"/>
    <line x1="94.4882" x2="94.4882" y1="54.8031" y2="17.0079"/>
    <polyline points="74.3406,28.4055 74.3406,41.5305 74.3406,41.5305 81.8406,41.5305"/>
    <line x1="132.2835" x2="132.2835" y1="54.8031" y2="17.0079"/>
    <polyline points="119.9483,28.4055 111.8233,28.4055 111.8233,28.4055 111.8233,41.5305 111.8233,41.5305 119.9483,41.5305"/>
    <line x1="111.8233" x2="116.8233" y1="34.6555" y2="34.6555"/>
    <polyline points="157.4311,30.2805 156.1811,29.0305 156.1811,29.0305 154.3061,28.4055 154.3061,28.4055 151.8061,28.4055 151.8061,28.4055 149.9311,29.0305 149.9311,29.0305 148.6811,30.2805 148.6811,30.2805 148.6811,31.5305 148.6811,31.5305 149.3061,32.7805 149.3061,32.7805 149.9311,33.4055 149.9311,33.4055 151.1811,34.0305 151.1811,34.0305 154.9311,35.2805 154.9311,35.2805 156.1811,35.9055 156.1811,35.9055 156.8061,36.5305 156.8061,36.5305 157.4311,37.7805 157.4311,37.7805 157.4311,39.6555 157.4311,39.6555 156.1811,40.9055 156.1811,40.9055 154.3061,41.5305 154.3061,41.5305 151.8061,41.5305 151.8061,41.5305 149.9311,40.9055 149.9311,40.9055 148.6811,39.6555"/>
    <polyline points="170.0787,54.8031 207.874,54.8031 207.874,54.8031 245.6693,54.8031 245.6693,54.8031 245.6693,17.0079 245.6693,17.0079 207.874,17.0079 207.874,17.0079 170.0787,17.0079"/>
    <line x1="207.874" x2="207.874" y1="54.8031" y2="17.0079"/>
    <polyline points="195.2264,30.2805 193.9764,29.0305 193.9764,29.0305 192.1014,28.4055 192.1014,28.4055 189.6014,28.4055 189.6014,28.4055 187.7264,29.0305 187.7264,29.0305 186.4764,30.2805 186.4764,30.2805 186.4764,31.5305 186.4764,31.5305 187.1014,32.7805 187.1014,32.7805 187.7264,33.4055 187.7264,33.4055 188.9764,34.0305 188.9764,34.0305 192.7264,35.2805 192.7264,35.2805 193.9764,35.9055 193.9764,35.9055 194.6014,36.5305 194.6014,36.5305 195.2264,37.7805 195.2264,37.7805 195.2264,39.6555 195.2264,39.6555 193.9764,40.9055 193.9764,40.9055 192.1014,41.5305 192.1014,41.5305 189.6014,41.5305 189.6014,41.5305 187.7264,40.9055 187.7264,40.9055 186.4764,39.6555"/>
    <polyline points="233.3342,28.4055 225.2092,28.4055 225.2092,28.4055 225.2092,41.5305 225.2092,41.5305 233.3342,41.5305"/>
    <line x1="225.2092" x2="230.2092" y1="34.6555" y2="34.6555"/>
    <polyline points="245.6693,54.8031 283.4646,54.8031 283.4646,54.8031 321.2598,54.8031 321.2598,54.8031 359.0551,54.8031 359.0551,54.8031 396.8504,54.8031 396.8504,54.8031 434.6457,54.8031 434.6457,54.8031 434.6457,17.0079 434.6457,17.0079 396.8504,17.0079 396.8504,17.0079 359.0551,17.0079 359.0551,17.0079 321.2598,17.0079 321.2598,17.0079 283.4646,17.0079 283.4646,17.0079 245.6693,17.0079"/>
    <line x1="283.4646" x2="283.4646" y1="54.8031" y2="17.0079"/>
    <polyline points="271.4419,28.4055 271.4419,41.5305 271.4419,41.5305 262.6919,28.4055 262.6919,28.4055 262.6919,41.5305"/>
    <line x1="321.2598" x2="321.2598" y1="54.8031" y2="17.0079"/>
    <polyline points="308.9247,31.5305 308.2997,30.2805 308.2997,30.2805 307.0497,29.0305 307.0497,29.0305 305.7997,28.4055 305.7997,28.4055 303.2997,28.4055 303.2997,28.4055 302.0497,29.0305 302.0497,29.0305 300.7997,30.2805 300.7997,30.2805 300.1747,31.5305 300.1747,31.5305 299.5497,33.4055 299.5497,33.4055 299.5497,36.5305 299.5497,36.5305 300.1747,38.4055 300.1747,38.4055 300.7997,39.6555 300.7997,39.6555 302.0497,40.9055 302.0497,40.9055 303.2997,41.5305 303.2997,41.5305 305.7997,41.5305 305.7997,41.5305 307.0497,40.9055 307.0497,40.9055 308.2997,39.6555 308.2997,39.6555 308.9247,38.4055 308.9247,38.4055 308.9247,36.5305 308.9247,36.5305 305.7997,36.5305"/>
    <line x1="359.0551" x2="359.0551" y1="54.8031" y2="17.0079"/>
    <polyline points="346.72,28.4055 338.595,28.4055 338.595,28.4055 338.595,41.5305 338.595,41.5305 346.72,41.5305"/>
    <line x1="338.595" x2="343.595" y1="34.6555" y2="34.6555"/>
    <polyline points="207.874,92.5984 207.874,130.3937 207.874,130.3937 170.0787,130.3937 170.0787,130.3937 170.0787,92.5984 170.0787,92.5984 207.874,92.5984 207.874,92.5984 245.6693,92.5984 245.6693,92.5984 283.4646,92.5984 283.4646,92.5984 321.2598,92.5984 321.2598,92.5984 359.0551,92.5984 359.0551,92.5984 396.8504,92.5984 396.8504,92.5984 396.8504,54.8031 396.8504,54.8031 396.8504,17.0079"/>
    <polyline points="376.7028,28.4055 376.7028,41.5305 376.7028,41.5305 384.2028,41.5305"/>
    <polyline points="399.9902,20.4897 399.9902,20.1772 399.9902,20.1772 400.3027,19.5522 400.3027,19.5522 400.6152,19.2397 400.6152,19.2397 401.2402,18.9272 401.2402,18.9272 402.4902,18.9272 402.4902,18.9272 403.1152,19.2397 403.1152,19.2397 403.4277,19.5522 403.4277,19.5522 403.7402,20.1772 403.7402,20.1772 403.7402,20.8022 403.7402,20.8022 403.4277,21.4272 403.4277,21.4272 402.8027,22.3647 402.8027,22.3647 399.6777,25.4897 399.6777,25.4897 404.0527,25.4897"/>
    <polyline points="413.873,28.4055 413.873,37.7805 413.873,37.7805 414.498,39.6555 414.498,39.6555 415.748,40.9055 415.748,40.9055 417.623,41.5305 417.623,41.5305 418.873,41.5305 418.873,41.5305 420.748,40.9055 420.748,40.9055 421.998,39.6555 421.998,39.6555 422.623,37.7805 422.623,37.7805 422.623,28.4055"/>
    <polyline points="472.4409,92.5984 472.4409,130.3937 472.4409,130.3937 510.2362,130.3937 510.2362,130.3937 510.2362,92.5984 510.2362,92.5984 472.4409,92.5984 472.4409,92.5984 434.6457,92.5984 434.6457,92.5984 396.8504,92.5984 396.8504,92.5984 396.8504,130.3937 396.8504,130.3937 434.6457,130.3937 434.6457,130.3937 434.6457,92.5984 434.6457,92.5984 434.6457,54.8031 434.6457,54.8031 472.4409,54.8031 472.4409,54.8031 472.4409,17.0079 472.4409,17.0079 434.6457,17.0079"/>
    <line x1="451.6683" x2="451.6683" y1="28.4055" y2="41.5305"/>
    <line x1="460.4183" x2="451.6683" y1="28.4055" y2="37.1555"/>
    <line x1="454.7933" x2="460.4183" y1="34.0305" y2="41.5305"/>
    <polygon points="510.2362,17.0079 510.2362,54.8031 510.2362,54.8031 548.0315,54.8031 548.0315,54.8031 548.0315,17.0079 548.0315,17.0079"/>
    <polyline points="513.6885,18.9272 517.126,18.9272 517.126,18.9272 515.251,21.4272 515.251,21.4272 516.1885,21.4272 516.1885,21.4272 516.8135,21.7397 516.8135,21.7397 517.126,22.0522 517.126,22.0522 517.4385,22.9897 517.4385,22.9897 517.4385,23.6147 517.4385,23.6147 517.126,24.5522 517.126,24.5522 516.501,25.1772 516.501,25.1772 515.5635,25.4897 515.5635,25.4897 514.626,25.4897 514.626,25.4897 513.6885,25.1772 513.6885,25.1772 513.376,24.8647 513.376,24.8647 513.0635,24.2397"/>
    <polyline points="527.2589,35.2805 532.8839,35.2805 532.8839,35.2805 534.7589,34.6555 534.7589,34.6555 535.3839,34.0305 535.3839,34.0305 536.0089,32.7805 536.0089,32.7805 536.0089,30.9055 536.0089,30.9055 535.3839,29.6555 535.3839,29.6555 534.7589,29.0305 534.7589,29.0305 532.8839,28.4055 532.8839,28.4055 527.2589,28.4055 527.2589,28.4055 527.2589,41.5305"/>
    <polyline points="548.0315,54.8031 585.8268,54.8031 585.8268,54.8031 585.8268,17.0079 585.8268,17.0079 548.0315,17.0079"/>
    <line x1="569.4291" x2="569.4291" y1="28.4055" y2="41.5305"/>
    <polyline points="585.8268,54.8031 623.622,54.8031 623.622,54.8031 661.4173,54.8031 661.4173,54.8031 661.4173,17.0079 661.4173,17.0079 623.622,17.0079 623.622,17.0079 585.8268,17.0079"/>
    <line x1="623.622" x2="623.622" y1="54.8031" y2="17.0079"/>
    <polyline points="611.5994,28.4055 611.5994,41.5305 611.5994,41.5305 602.8494,28.4055 602.8494,28.4055 602.8494,41.5305"/>
    <line x1="640.6447" x2="640.6447" y1="28.4055" y2="41.5305"/>
    <line x1="649.3947" x2="640.6447" y1="28.4055" y2="37.1555"/>
    <line x1="643.7697" x2="649.3947" y1="34.0305" y2="41.5305"/>
    <polyline points="661.4173,54.8031 699.2126,54.8031 699.2126,54.8031 699.2126,17.0079 699.2126,17.0079 661.4173,17.0079"/>
    <polyline points="686.8775,28.4055 678.7525,28.4055 678.7525,28.4055 678.7525,41.5305 678.7525,41.5305 686.8775,41.5305"/>
    <line x1="678.7525" x2="683.7525" y1="34.6555" y2="34.6555"/>
    <polyline points="737.0079,17.0079 774.8031,17.0079 774.8031,17.0079 774.8031,54.8031 774.8031,54.8031 737.0079,54.8031 737.0079,54.8031 737.0079,92.5984 737.0079,92.5984 699.2126,92.5984 699.2126,92.5984 699.2126,54.8031 699.2126,54.8031 737.0079,54.8031 737.0079,54.8031 737.0079,17.0079 737.0079,17.0079 699.2126,17.0079"/>
    <polyline points="705.1649,25.4897 705.1649,18.9272 705.1649,18.9272 702.0399,23.3022 702.0399,23.3022 706.7274,23.3022"/>
    <polyline points="716.2352,34.6555 721.8602,34.6555 721.8602,34.6555 723.7352,34.0305 723.7352,34.0305 724.3602,33.4055 724.3602,33.4055 724.9852,32.1555 724.9852,32.1555 724.9852,30.9055 724.9852,30.9055 724.3602,29.6555 724.3602,29.6555 723.7352,29.0305 723.7352,29.0305 721.8602,28.4055 721.8602,28.4055 716.2352,28.4055 716.2352,28.4055 716.2352,41.5305"/>
    <line x1="720.6102" x2="724.9852" y1="34.6555" y2="41.5305"/>
    <polyline points="762.1555,30.2805 760.9055,29.0305 760.9055,29.0305 759.0305,28.4055 759.0305,28.4055 756.5305,28.4055 756.5305,28.4055 754.6555,29.0305 754.6555,29.0305 753.4055,30.2805 753.4055,30.2805 753.4055,31.5305 753.4055,31.5305 754.0305,32.7805 754.0305,32.7805 754.6555,33.4055 754.6555,33.4055 755.9055,34.0305 755.9055,34.0305 759.6555,35.2805 759.6555,35.2805 760.9055,35.9055 760.9055,35.9055 761.5305,36.5305 761.5305,36.5305 762.1555,37.7805 762.1555,37.7805 762.1555,39.6555 762.1555,39.6555 760.9055,40.9055 760.9055,40.9055 759.0305,41.5305 759.0305,41.5305 756.5305,41.5305 756.5305,41.5305 754.6555,40.9055 754.6555,40.9055 753.4055,39.6555"/>
    <line x1="18.8976" x2="18.8976" y1="54.8031" y2="92.5984"/>
    <polyline points="35.9203,72.4508 41.5453,72.4508 41.5453,72.4508 43.4203,71.8258 43.4203,71.8258 44.0453,71.2008 44.0453,71.2008 44.6703,69.9508 44.6703,69.9508 44.6703,68.7008 44.6703,68.7008 44.0453,67.4508 44.0453,67.4508 43.4203,66.8258 43.4203,66.8258 41.5453,66.2008 41.5453,66.2008 35.9203,66.2008 35.9203,66.2008 35.9203,79.3258"/>
    <line x1="40.2953" x2="44.6703" y1="72.4508" y2="79.3258"/>
    <line x1="418.248" x2="418.248" y1="66.2008" y2="79.3258"/>
    <polyline points="724.6727,66.2008 716.5477,66.2008 716.5477,66.2008 716.5477,79.3258 716.5477,79.3258 724.6727,79.3258"/>
    <line x1="716.5477" x2="721.5477" y1="72.4508" y2="72.4508"/>
    <line x1="40.2953" x2="40.2953" y1="103.9961" y2="117.1211"/>
    <polyline points="176.656,94.5177 173.531,94.5177 173.531,94.5177 173.2185,97.3302 173.2185,97.3302 173.531,97.0177 173.531,97.0177 174.4685,96.7052 174.4685,96.7052 175.406,96.7052 175.406,96.7052 176.3435,97.0177 176.3435,97.0177 176.9685,97.6427 176.9685,97.6427 177.281,98.5802 177.281,98.5802 177.281,99.2052 177.281,99.2052 176.9685,100.1427 176.9685,100.1427 176.3435,100.7677 176.3435,100.7677 175.406,101.0802 175.406,101.0802 174.4685,101.0802 174.4685,101.0802 173.531,100.7677 173.531,100.7677 173.2185,100.4552 173.2185,100.4552 172.906,99.8302"/>
    <line x1="187.1014" x2="187.1014" y1="103.9961" y2="117.1211"/>
    <line x1="195.8514" x2="187.1014" y1="103.9961" y2="112.7461"/>
    <line x1="190.2264" x2="195.8514" y1="109.6211" y2="117.1211"/>
    <polyline points="170.0787,130.3937 170.0787,168.189 170.0787,168.189 170.0787,205.9843 170.0787,205.9843 132.2835,205.9843 132.2835,205.9843 94.4882,205.9843 94.4882,205.9843 94.4882,168.189 94.4882,168.189 132.2835,168.189 132.2835,168.189 170.0787,168.189 170.0787,168.189 207.874,168.189 207.874,168.189 207.874,130.3937 207.874,130.3937 245.6693,130.3937 245.6693,130.3937 245.6693,92.5984"/>
    <polyline points="225.5217,103.9961 225.5217,117.1211 225.5217,117.1211 233.0217,117.1211"/>
    <polyline points="245.6693,130.3937 283.4646,130.3937 283.4646,130.3937 321.2598,130.3937 321.2598,130.3937 321.2598,92.5984"/>
    <line x1="283.4646" x2="283.4646" y1="130.3937" y2="92.5984"/>
    <polyline points="270.1919,117.1211 265.1919,103.9961 265.1919,103.9961 260.1919,117.1211"/>
    <line x1="262.0669" x2="268.3169" y1="112.7461" y2="112.7461"/>
    <polyline points="297.9872,103.9961 302.9872,117.1211 302.9872,117.1211 307.9872,103.9961"/>
    <polyline points="321.2598,130.3937 359.0551,130.3937 359.0551,130.3937 359.0551,92.5984"/>
    <polyline points="346.72,103.9961 338.595,103.9961 338.595,103.9961 338.595,117.1211 338.595,117.1211 346.72,117.1211"/>
    <line x1="338.595" x2="343.595" y1="110.2461" y2="110.2461"/>
    <polyline points="359.0551,130.3937 396.8504,130.3937 396.8504,130.3937 396.8504,168.189 396.8504,168.189 434.6457,168.189 434.6457,168.189 434.6457,130.3937 434.6457,130.3937 472.4409,130.3937"/>
    <polyline points="376.0778,110.2461 381.7028,110.2461 381.7028,110.2461 383.5778,109.6211 383.5778,109.6211 384.2028,108.9961 384.2028,108.9961 384.8278,107.7461 384.8278,107.7461 384.8278,106.4961 384.8278,106.4961 384.2028,105.2461 384.2028,105.2461 383.5778,104.6211 383.5778,104.6211 381.7028,103.9961 381.7028,103.9961 376.0778,103.9961 376.0778,103.9961 376.0778,117.1211"/>
    <line x1="380.4528" x2="384.8278" y1="110.2461" y2="117.1211"/>
    <line x1="416.373" x2="416.373" y1="103.9961" y2="117.1211"/>
    <line x1="411.998" x2="420.748" y1="103.9961" y2="103.9961"/>
    <polyline points="457.9183,103.9961 457.9183,113.9961 457.9183,113.9961 457.2933,115.8711 457.2933,115.8711 456.6683,116.4961 456.6683,116.4961 455.4183,117.1211 455.4183,117.1211 454.1683,117.1211 454.1683,117.1211 452.9183,116.4961 452.9183,116.4961 452.2933,115.8711 452.2933,115.8711 451.6683,113.9961 451.6683,113.9961 451.6683,112.7461"/>
    <polyline points="497.9011,103.9961 489.7761,103.9961 489.7761,103.9961 489.7761,117.1211 489.7761,117.1211 497.9011,117.1211"/>
    <line x1="489.7761" x2="494.7761" y1="110.2461" y2="110.2461"/>
    <polygon points="585.8268,92.5984 585.8268,130.3937 585.8268,130.3937 623.622,130.3937 623.622,130.3937 661.4173,130.3937 661.4173,130.3937 661.4173,92.5984 661.4173,92.5984 623.622,92.5984 623.622,92.5984"/>
    <polyline points="661.4173,130.3937 661.4173,168.189 661.4173,168.189 623.622,168.189 623.622,168.189 623.622,130.3937 623.622,130.3937 623.622,92.5984"/>
    <polyline points="592.7165,95.4552 592.404,94.8302 592.404,94.8302 591.4665,94.5177 591.4665,94.5177 590.8415,94.5177 590.8415,94.5177 589.904,94.8302 589.904,94.8302 589.279,95.7677 589.279,95.7677 588.9665,97.3302 588.9665,97.3302 588.9665,98.8927 588.9665,98.8927 589.279,100.1427 589.279,100.1427 589.904,100.7677 589.904,100.7677 590.8415,101.0802 590.8415,101.0802 591.154,101.0802 591.154,101.0802 592.0915,100.7677 592.0915,100.7677 592.7165,100.1427 592.7165,100.1427 593.029,99.2052 593.029,99.2052 593.029,98.8927 593.029,98.8927 592.7165,97.9552 592.7165,97.9552 592.0915,97.3302 592.0915,97.3302 591.154,97.0177 591.154,97.0177 590.8415,97.0177 590.8415,97.0177 589.904,97.3302 589.904,97.3302 589.279,97.9552 589.279,97.9552 588.9665,98.8927"/>
    <polygon points="602.8494,103.9961 602.8494,117.1211 602.8494,117.1211 608.4744,117.1211 608.4744,117.1211 610.3494,116.4961 610.3494,116.4961 610.9744,115.8711 610.9744,115.8711 611.5994,114.6211 611.5994,114.6211 611.5994,112.7461 611.5994,112.7461 610.9744,111.4961 610.9744,111.4961 610.3494,110.8711 610.3494,110.8711 608.4744,110.2461 608.4744,110.2461 610.3494,109.6211 610.3494,109.6211 610.9744,108.9961 610.9744,108.9961 611.5994,107.7461 611.5994,107.7461 611.5994,106.4961 611.5994,106.4961 610.9744,105.2461 610.9744,105.2461 610.3494,104.6211 610.3494,104.6211 608.4744,103.9961 608.4744,103.9961"/>
    <line x1="602.8494" x2="608.4744" y1="110.2461" y2="110.2461"/>
    <polyline points="626.4493,94.5177 630.8243,94.5177 630.8243,94.5177 627.6993,101.0802"/>
    <polygon points="643.1447,103.9961 641.8947,104.6211 641.8947,104.6211 640.6447,105.8711 640.6447,105.8711 640.0197,107.1211 640.0197,107.1211 639.3947,108.9961 639.3947,108.9961 639.3947,112.1211 639.3947,112.1211 640.0197,113.9961 640.0197,113.9961 640.6447,115.2461 640.6447,115.2461 641.8947,116.4961 641.8947,116.4961 643.1447,117.1211 643.1447,117.1211 645.6447,117.1211 645.6447,117.1211 646.8947,116.4961 646.8947,116.4961 648.1447,115.2461 648.1447,115.2461 648.7697,113.9961 648.7697,113.9961 649.3947,112.1211 649.3947,112.1211 649.3947,108.9961 649.3947,108.9961 648.7697,107.1211 648.7697,107.1211 648.1447,105.8711 648.1447,105.8711 646.8947,104.6211 646.8947,104.6211 645.6447,103.9961 645.6447,103.9961"/>
    <polyline points="699.2126,92.5984 699.2126,130.3937 699.2126,130.3937 737.0079,130.3937 737.0079,130.3937 737.0079,92.5984"/>
    <polyline points="724.6727,107.1211 724.0477,105.8711 724.0477,105.8711 722.7977,104.6211 722.7977,104.6211 721.5477,103.9961 721.5477,103.9961 719.0477,103.9961 719.0477,103.9961 717.7977,104.6211 717.7977,104.6211 716.5477,105.8711 716.5477,105.8711 715.9227,107.1211 715.9227,107.1211 715.2977,108.9961 715.2977,108.9961 715.2977,112.1211 715.2977,112.1211 715.9227,113.9961 715.9227,113.9961 716.5477,115.2461 716.5477,115.2461 717.7977,116.4961 717.7977,116.4961 719.0477,117.1211 719.0477,117.1211 721.5477,117.1211 721.5477,117.1211 722.7977,116.4961 722.7977,116.4961 724.0477,115.2461 724.0477,115.2461 724.6727,113.9961 724.6727,113.9961 724.6727,112.1211 724.6727,112.1211 721.5477,112.1211"/>
    <polyline points="18.8976,130.3937 18.8976,168.189 18.8976,168.189 56.6929,168.189 56.6929,168.189 56.6929,130.3937"/>
    <polyline points="44.3578,141.7913 36.2328,141.7913 36.2328,141.7913 36.2328,154.9163 36.2328,154.9163 44.3578,154.9163"/>
    <line x1="36.2328" x2="41.2328" y1="148.0413" y2="148.0413"/>
    <line x1="191.4764" x2="191.4764" y1="141.7913" y2="154.9163"/>
    <polyline points="414.498,141.7913 414.498,154.9163 414.498,154.9163 421.998,154.9163"/>
    <line x1="643.1447" x2="643.1447" y1="141.7913" y2="154.9163"/>
    <line x1="638.7697" x2="647.5197" y1="141.7913" y2="141.7913"/>
    <polyline points="699.2126,130.3937 699.2126,168.189 699.2126,168.189 737.0079,168.189 737.0079,168.189 737.0079,130.3937"/>
    <polyline points="724.6727,141.7913 716.5477,141.7913 716.5477,141.7913 716.5477,154.9163 716.5477,154.9163 724.6727,154.9163"/>
    <line x1="716.5477" x2="721.5477" y1="148.0413" y2="148.0413"/>
    <polyline points="18.8976,168.189 18.8976,205.9843 18.8976,205.9843 56.6929,205.9843 56.6929,205.9843 56.6929,168.189"/>
    <line x1="38.4203" x2="38.4203" y1="179.5866" y2="192.7116"/>
    <line x1="34.0453" x2="42.7953" y1="179.5866" y2="179.5866"/>
    <line x1="132.2835" x2="132.2835" y1="205.9843" y2="168.189"/>
    <polygon points="98.878,170.1083 97.9405,170.4208 97.9405,170.4208 97.628,171.0458 97.628,171.0458 97.628,171.6708 97.628,171.6708 97.9405,172.2958 97.9405,172.2958 98.5655,172.6083 98.5655,172.6083 99.8155,172.9208 99.8155,172.9208 100.753,173.2333 100.753,173.2333 101.378,173.8583 101.378,173.8583 101.6905,174.4833 101.6905,174.4833 101.6905,175.4208 101.6905,175.4208 101.378,176.0458 101.378,176.0458 101.0655,176.3583 101.0655,176.3583 100.128,176.6708 100.128,176.6708 98.878,176.6708 98.878,176.6708 97.9405,176.3583 97.9405,176.3583 97.628,176.0458 97.628,176.0458 97.3155,175.4208 97.3155,175.4208 97.3155,174.4833 97.3155,174.4833 97.628,173.8583 97.628,173.8583 98.253,173.2333 98.253,173.2333 99.1905,172.9208 99.1905,172.9208 100.4405,172.6083 100.4405,172.6083 101.0655,172.2958 101.0655,172.2958 101.378,171.6708 101.378,171.6708 101.378,171.0458 101.378,171.0458 101.0655,170.4208 101.0655,170.4208 100.128,170.1083 100.128,170.1083"/>
    <polyline points="112.1358,179.5866 112.1358,192.7116 112.1358,192.7116 119.6358,192.7116"/>
    <line x1="153.6811" x2="153.6811" y1="179.5866" y2="192.7116"/>
    <polygon points="170.0787,205.9843 207.874,205.9843 207.874,205.9843 207.874,168.189 207.874,168.189 245.6693,168.189 245.6693,168.189 245.6693,205.9843 245.6693,205.9843 207.874,205.9843 207.874,205.9843 207.874,243.7795 207.874,243.7795 170.0787,243.7795 170.0787,243.7795"/>
    <polyline points="195.5389,179.5866 187.4139,179.5866 187.4139,179.5866 187.4139,192.7116 187.4139,192.7116 195.5389,192.7116"/>
    <line x1="187.4139" x2="192.4139" y1="185.8366" y2="185.8366"/>
    <polyline points="233.0217,181.4616 231.7717,180.2116 231.7717,180.2116 229.8967,179.5866 229.8967,179.5866 227.3967,179.5866 227.3967,179.5866 225.5217,180.2116 225.5217,180.2116 224.2717,181.4616 224.2717,181.4616 224.2717,182.7116 224.2717,182.7116 224.8967,183.9616 224.8967,183.9616 225.5217,184.5866 225.5217,184.5866 226.7717,185.2116 226.7717,185.2116 230.5217,186.4616 230.5217,186.4616 231.7717,187.0866 231.7717,187.0866 232.3967,187.7116 232.3967,187.7116 233.0217,188.9616 233.0217,188.9616 233.0217,190.8366 233.0217,190.8366 231.7717,192.0866 231.7717,192.0866 229.8967,192.7116 229.8967,192.7116 227.3967,192.7116 227.3967,192.7116 225.5217,192.0866 225.5217,192.0866 224.2717,190.8366"/>
    <polyline points="245.6693,205.9843 283.4646,205.9843 283.4646,205.9843 321.2598,205.9843 321.2598,205.9843 321.2598,168.189 321.2598,168.189 283.4646,168.189 283.4646,168.189 245.6693,168.189"/>
    <line x1="283.4646" x2="283.4646" y1="205.9843" y2="168.189"/>
    <polyline points="268.9419,179.5866 268.9419,189.5866 268.9419,189.5866 268.3169,191.4616 268.3169,191.4616 267.6919,192.0866 267.6919,192.0866 266.4419,192.7116 266.4419,192.7116 265.1919,192.7116 265.1919,192.7116 263.9419,192.0866 263.9419,192.0866 263.3169,191.4616 263.3169,191.4616 262.6919,189.5866 262.6919,189.5866 262.6919,188.3366"/>
    <polyline points="308.9247,179.5866 300.7997,179.5866 300.7997,179.5866 300.7997,192.7116 300.7997,192.7116 308.9247,192.7116"/>
    <line x1="300.7997" x2="305.7997" y1="185.8366" y2="185.8366"/>
    <polyline points="510.2362,168.189 510.2362,205.9843 510.2362,205.9843 472.4409,205.9843 472.4409,205.9843 434.6457,205.9843 434.6457,205.9843 434.6457,243.7795 434.6457,243.7795 396.8504,243.7795 396.8504,243.7795 396.8504,205.9843 396.8504,205.9843 396.8504,168.189 396.8504,168.189 359.0551,168.189 359.0551,168.189 359.0551,205.9843 359.0551,205.9843 396.8504,205.9843 396.8504,205.9843 434.6457,205.9843 434.6457,205.9843 434.6457,168.189 434.6457,168.189 472.4409,168.189 472.4409,168.189 510.2362,168.189 510.2362,168.189 548.0315,168.189 548.0315,168.189 548.0315,205.9843 548.0315,205.9843 585.8268,205.9843 585.8268,205.9843 585.8268,168.189 585.8268,168.189 548.0315,168.189"/>
    <polyline points="365.9449,172.2958 365.6324,173.2333 365.6324,173.2333 365.0074,173.8583 365.0074,173.8583 364.0699,174.1708 364.0699,174.1708 363.7574,174.1708 363.7574,174.1708 362.8199,173.8583 362.8199,173.8583 362.1949,173.2333 362.1949,173.2333 361.8824,172.2958 361.8824,172.2958 361.8824,171.9833 361.8824,171.9833 362.1949,171.0458 362.1949,171.0458 362.8199,170.4208 362.8199,170.4208 363.7574,170.1083 363.7574,170.1083 364.0699,170.1083 364.0699,170.1083 365.0074,170.4208 365.0074,170.4208 365.6324,171.0458 365.6324,171.0458 365.9449,172.2958 365.9449,172.2958 365.9449,173.8583 365.9449,173.8583 365.6324,175.4208 365.6324,175.4208 365.0074,176.3583 365.0074,176.3583 364.0699,176.6708 364.0699,176.6708 363.4449,176.6708 363.4449,176.6708 362.5074,176.3583 362.5074,176.3583 362.1949,175.7333"/>
    <polyline points="385.4528,192.7116 385.4528,179.5866 385.4528,179.5866 380.4528,192.7116 380.4528,192.7116 375.4528,179.5866 375.4528,179.5866 375.4528,192.7116"/>
    <line x1="418.248" x2="418.248" y1="179.5866" y2="192.7116"/>
    <line x1="472.4409" x2="472.4409" y1="205.9843" y2="168.189"/>
    <polyline points="459.7933,181.4616 458.5433,180.2116 458.5433,180.2116 456.6683,179.5866 456.6683,179.5866 454.1683,179.5866 454.1683,179.5866 452.2933,180.2116 452.2933,180.2116 451.0433,181.4616 451.0433,181.4616 451.0433,182.7116 451.0433,182.7116 451.6683,183.9616 451.6683,183.9616 452.2933,184.5866 452.2933,184.5866 453.5433,185.2116 453.5433,185.2116 457.2933,186.4616 457.2933,186.4616 458.5433,187.0866 458.5433,187.0866 459.1683,187.7116 459.1683,187.7116 459.7933,188.9616 459.7933,188.9616 459.7933,190.8366 459.7933,190.8366 458.5433,192.0866 458.5433,192.0866 456.6683,192.7116 456.6683,192.7116 454.1683,192.7116 454.1683,192.7116 452.2933,192.0866 452.2933,192.0866 451.0433,190.8366"/>
    <polyline points="486.9636,179.5866 491.9636,192.7116 491.9636,192.7116 496.9636,179.5866"/>
    <line x1="510.2362" x2="548.0315" y1="205.9843" y2="205.9843"/>
    <polyline points="535.6964,179.5866 527.5714,179.5866 527.5714,179.5866 527.5714,192.7116 527.5714,192.7116 535.6964,192.7116"/>
    <line x1="527.5714" x2="532.5714" y1="185.8366" y2="185.8366"/>
    <polyline points="565.0541,185.8366 570.6791,185.8366 570.6791,185.8366 572.5541,185.2116 572.5541,185.2116 573.1791,184.5866 573.1791,184.5866 573.8041,183.3366 573.8041,183.3366 573.8041,182.0866 573.8041,182.0866 573.1791,180.8366 573.1791,180.8366 572.5541,180.2116 572.5541,180.2116 570.6791,179.5866 570.6791,179.5866 565.0541,179.5866 565.0541,179.5866 565.0541,192.7116"/>
    <line x1="569.4291" x2="573.8041" y1="185.8366" y2="192.7116"/>
    <polyline points="585.8268,205.9843 623.622,205.9843 623.622,205.9843 623.622,168.189 623.622,168.189 585.8268,168.189"/>
    <polyline points="610.9744,181.4616 609.7244,180.2116 609.7244,180.2116 607.8494,179.5866 607.8494,179.5866 605.3494,179.5866 605.3494,179.5866 603.4744,180.2116 603.4744,180.2116 602.2244,181.4616 602.2244,181.4616 602.2244,182.7116 602.2244,182.7116 602.8494,183.9616 602.8494,183.9616 603.4744,184.5866 603.4744,184.5866 604.7244,185.2116 604.7244,185.2116 608.4744,186.4616 608.4744,186.4616 609.7244,187.0866 609.7244,187.0866 610.3494,187.7116 610.3494,187.7116 610.9744,188.9616 610.9744,188.9616 610.9744,190.8366 610.9744,190.8366 609.7244,192.0866 609.7244,192.0866 607.8494,192.7116 607.8494,192.7116 605.3494,192.7116 605.3494,192.7116 603.4744,192.0866 603.4744,192.0866 602.2244,190.8366"/>
    <polygon points="623.622,205.9843 661.4173,205.9843 661.4173,205.9843 699.2126,205.9843 699.2126,205.9843 699.2126,168.189 699.2126,168.189 661.4173,168.189 661.4173,168.189 661.4173,205.9843 661.4173,205.9843 661.4173,243.7795 661.4173,243.7795 623.622,243.7795 623.622,243.7795"/>
    <line x1="643.1447" x2="643.1447" y1="179.5866" y2="192.7116"/>
    <line x1="638.7697" x2="647.5197" y1="179.5866" y2="179.5866"/>
    <polyline points="685.94,192.7116 680.94,179.5866 680.94,179.5866 675.94,192.7116"/>
    <line x1="677.815" x2="684.065" y1="188.3366" y2="188.3366"/>
    <polygon points="699.2126,205.9843 737.0079,205.9843 737.0079,205.9843 737.0079,168.189 737.0079,168.189 774.8031,168.189 774.8031,168.189 774.8031,205.9843 774.8031,205.9843 737.0079,205.9843 737.0079,205.9843 737.0079,243.7795 737.0079,243.7795 699.2126,243.7795 699.2126,243.7795"/>
    <polyline points="724.9852,179.5866 724.9852,192.7116 724.9852,192.7116 716.2352,179.5866 716.2352,179.5866 716.2352,192.7116"/>
    <polygon points="754.0305,179.5866 754.0305,192.7116 754.0305,192.7116 758.4055,192.7116 758.4055,192.7116 760.2805,192.0866 760.2805,192.0866 761.5305,190.8366 761.5305,190.8366 762.1555,189.5866 762.1555,189.5866 762.7805,187.7116 762.7805,187.7116 762.7805,184.5866 762.7805,184.5866 762.1555,182.7116 762.1555,182.7116 761.5305,181.4616 761.5305,181.4616 760.2805,180.2116 760.2805,180.2116 758.4055,179.5866 758.4055,179.5866"/>
    <polyline points="18.8976,205.9843 18.8976,243.7795 18.8976,243.7795 56.6929,243.7795 56.6929,243.7795 56.6929,205.9843 56.6929,205.9843 94.4882,205.9843 94.4882,205.9843 94.4882,243.7795 94.4882,243.7795 56.6929,243.7795 56.6929,243.7795 56.6929,281.5748 56.6929,281.5748 18.8976,281.5748 18.8976,281.5748 18.8976,319.3701 18.8976,319.3701 56.6929,319.3701 56.6929,319.3701 56.6929,281.5748"/>
    <polyline points="22.6624,209.1535 23.2874,208.841 23.2874,208.841 24.2249,207.9035 24.2249,207.9035 24.2249,214.466"/>
    <polygon points="29.8499,207.9035 28.9124,208.216 28.9124,208.216 28.2874,209.1535 28.2874,209.1535 27.9749,210.716 27.9749,210.716 27.9749,211.6535 27.9749,211.6535 28.2874,213.216 28.2874,213.216 28.9124,214.1535 28.9124,214.1535 29.8499,214.466 29.8499,214.466 30.4749,214.466 30.4749,214.466 31.4124,214.1535 31.4124,214.1535 32.0374,213.216 32.0374,213.216 32.3499,211.6535 32.3499,211.6535 32.3499,210.716 32.3499,210.716 32.0374,209.1535 32.0374,209.1535 31.4124,208.216 31.4124,208.216 30.4749,207.9035 30.4749,207.9035"/>
    <polyline points="42.1703,217.3819 42.1703,227.3819 42.1703,227.3819 41.5453,229.2569 41.5453,229.2569 40.9203,229.8819 40.9203,229.8819 39.6703,230.5069 39.6703,230.5069 38.4203,230.5069 38.4203,230.5069 37.1703,229.8819 37.1703,229.8819 36.5453,229.2569 36.5453,229.2569 35.9203,227.3819 35.9203,227.3819 35.9203,226.1319"/>
    <polyline points="81.2156,230.5069 76.2156,217.3819 76.2156,217.3819 71.2156,230.5069"/>
    <line x1="73.0906" x2="79.3406" y1="226.1319" y2="226.1319"/>
    <polyline points="196.4764,230.5069 196.4764,217.3819 196.4764,217.3819 191.4764,230.5069 191.4764,230.5069 186.4764,217.3819 186.4764,217.3819 186.4764,230.5069"/>
    <line x1="413.873" x2="413.873" y1="217.3819" y2="230.5069"/>
    <line x1="422.623" x2="413.873" y1="217.3819" y2="226.1319"/>
    <line x1="416.998" x2="422.623" y1="223.0069" y2="230.5069"/>
    <polygon points="643.1447,217.3819 641.8947,218.0069 641.8947,218.0069 640.6447,219.2569 640.6447,219.2569 640.0197,220.5069 640.0197,220.5069 639.3947,222.3819 639.3947,222.3819 639.3947,225.5069 639.3947,225.5069 640.0197,227.3819 640.0197,227.3819 640.6447,228.6319 640.6447,228.6319 641.8947,229.8819 641.8947,229.8819 643.1447,230.5069 643.1447,230.5069 645.6447,230.5069 645.6447,230.5069 646.8947,229.8819 646.8947,229.8819 648.1447,228.6319 648.1447,228.6319 648.7697,227.3819 648.7697,227.3819 649.3947,225.5069 649.3947,225.5069 649.3947,222.3819 649.3947,222.3819 648.7697,220.5069 648.7697,220.5069 648.1447,219.2569 648.1447,219.2569 646.8947,218.0069 646.8947,218.0069 645.6447,217.3819 645.6447,217.3819"/>
    <polyline points="721.8602,223.6319 723.7352,223.0069 723.7352,223.0069 724.3602,222.3819 724.3602,222.3819 724.9852,221.1319 724.9852,221.1319 724.9852,219.8819 724.9852,219.8819 724.3602,218.6319 724.3602,218.6319 723.7352,218.0069 723.7352,218.0069 721.8602,217.3819 721.8602,217.3819 716.2352,217.3819 716.2352,217.3819 716.2352,230.5069 716.2352,230.5069 721.8602,230.5069 721.8602,230.5069 723.7352,229.8819 723.7352,229.8819 724.3602,229.2569 724.3602,229.2569 724.9852,228.0069 724.9852,228.0069 724.9852,226.1319 724.9852,226.1319 724.3602,224.8819 724.3602,224.8819 723.7352,224.2569 723.7352,224.2569 721.8602,223.6319 721.8602,223.6319 716.2352,223.6319"/>
    <line x1="18.8976" x2="18.8976" y1="243.7795" y2="281.5748"/>
    <polyline points="44.3578,255.1772 36.2328,255.1772 36.2328,255.1772 36.2328,268.3022 36.2328,268.3022 44.3578,268.3022"/>
    <line x1="36.2328" x2="41.2328" y1="261.4272" y2="261.4272"/>
    <polygon points="94.4882,243.7795 94.4882,281.5748 94.4882,281.5748 132.2835,281.5748 132.2835,281.5748 170.0787,281.5748 170.0787,281.5748 170.0787,319.3701 170.0787,319.3701 207.874,319.3701 207.874,319.3701 207.874,281.5748 207.874,281.5748 245.6693,281.5748 245.6693,281.5748 245.6693,243.7795 245.6693,243.7795 207.874,243.7795 207.874,243.7795 207.874,281.5748 207.874,281.5748 170.0787,281.5748 170.0787,281.5748 170.0787,243.7795 170.0787,243.7795 132.2835,243.7795 132.2835,243.7795"/>
    <polyline points="132.2835,319.3701 94.4882,319.3701 94.4882,319.3701 94.4882,357.1654 94.4882,357.1654 132.2835,357.1654 132.2835,357.1654 132.2835,319.3701 132.2835,319.3701 132.2835,281.5748 132.2835,281.5748 132.2835,243.7795"/>
    <polyline points="98.253,246.9488 98.878,246.6363 98.878,246.6363 99.8155,245.6988 99.8155,245.6988 99.8155,252.2613"/>
    <polyline points="104.503,246.9488 105.128,246.6363 105.128,246.6363 106.0655,245.6988 106.0655,245.6988 106.0655,252.2613"/>
    <line x1="114.0108" x2="114.0108" y1="255.1772" y2="268.3022"/>
    <line x1="109.6358" x2="118.3858" y1="255.1772" y2="255.1772"/>
    <polyline points="149.3061,261.4272 154.9311,261.4272 154.9311,261.4272 156.8061,260.8022 156.8061,260.8022 157.4311,260.1772 157.4311,260.1772 158.0561,258.9272 158.0561,258.9272 158.0561,257.6772 158.0561,257.6772 157.4311,256.4272 157.4311,256.4272 156.8061,255.8022 156.8061,255.8022 154.9311,255.1772 154.9311,255.1772 149.3061,255.1772 149.3061,255.1772 149.3061,268.3022"/>
    <line x1="153.6811" x2="158.0561" y1="261.4272" y2="268.3022"/>
    <polyline points="195.5389,255.1772 187.4139,255.1772 187.4139,255.1772 187.4139,268.3022 187.4139,268.3022 195.5389,268.3022"/>
    <line x1="187.4139" x2="192.4139" y1="261.4272" y2="261.4272"/>
    <line x1="229.2717" x2="229.2717" y1="255.1772" y2="268.3022"/>
    <polyline points="245.6693,281.5748 283.4646,281.5748 283.4646,281.5748 283.4646,243.7795 283.4646,243.7795 245.6693,243.7795"/>
    <polyline points="271.4419,255.1772 271.4419,268.3022 271.4419,268.3022 262.6919,255.1772 262.6919,255.1772 262.6919,268.3022"/>
    <polyline points="396.8504,243.7795 396.8504,281.5748 396.8504,281.5748 434.6457,281.5748 434.6457,281.5748 434.6457,243.7795"/>
    <line x1="413.873" x2="413.873" y1="255.1772" y2="268.3022"/>
    <line x1="422.623" x2="413.873" y1="255.1772" y2="263.9272"/>
    <line x1="416.998" x2="422.623" y1="260.8022" y2="268.3022"/>
    <polygon points="548.0315,243.7795 548.0315,281.5748 548.0315,281.5748 510.2362,281.5748 510.2362,281.5748 472.4409,281.5748 472.4409,281.5748 434.6457,281.5748 434.6457,281.5748 434.6457,319.3701 434.6457,319.3701 434.6457,357.1654 434.6457,357.1654 396.8504,357.1654 396.8504,357.1654 396.8504,319.3701 396.8504,319.3701 434.6457,319.3701 434.6457,319.3701 472.4409,319.3701 472.4409,319.3701 510.2362,319.3701 510.2362,319.3701 548.0315,319.3701 548.0315,319.3701 585.8268,319.3701 585.8268,319.3701 585.8268,281.5748 585.8268,281.5748 585.8268,243.7795 585.8268,243.7795"/>
    <polyline points="623.622,319.3701 585.8268,319.3701 585.8268,319.3701 585.8268,357.1654 585.8268,357.1654 548.0315,357.1654 548.0315,357.1654 548.0315,319.3701 548.0315,319.3701 548.0315,281.5748 548.0315,281.5748 585.8268,281.5748 585.8268,281.5748 623.622,281.5748 623.622,281.5748 623.622,319.3701 623.622,319.3701 661.4173,319.3701 661.4173,319.3701 661.4173,281.5748 661.4173,281.5748 623.622,281.5748"/>
    <polyline points="551.7963,246.9488 552.4213,246.6363 552.4213,246.6363 553.3588,245.6988 553.3588,245.6988 553.3588,252.2613"/>
    <polyline points="557.4213,247.2613 557.4213,246.9488 557.4213,246.9488 557.7338,246.3238 557.7338,246.3238 558.0463,246.0113 558.0463,246.0113 558.6713,245.6988 558.6713,245.6988 559.9213,245.6988 559.9213,245.6988 560.5463,246.0113 560.5463,246.0113 560.8588,246.3238 560.8588,246.3238 561.1713,246.9488 561.1713,246.9488 561.1713,247.5738 561.1713,247.5738 560.8588,248.1988 560.8588,248.1988 560.2338,249.1363 560.2338,249.1363 557.1088,252.2613 557.1088,252.2613 561.4838,252.2613"/>
    <polyline points="564.4291,255.1772 573.1791,255.1772 573.1791,255.1772 564.4291,268.3022 564.4291,268.3022 573.1791,268.3022"/>
    <polygon points="661.4173,243.7795 661.4173,281.5748 661.4173,281.5748 699.2126,281.5748 699.2126,281.5748 699.2126,243.7795 699.2126,243.7795"/>
    <polyline points="665.1821,246.9488 665.8071,246.6363 665.8071,246.6363 666.7446,245.6988 666.7446,245.6988 666.7446,252.2613"/>
    <polyline points="671.1196,245.6988 674.5571,245.6988 674.5571,245.6988 672.6821,248.1988 672.6821,248.1988 673.6196,248.1988 673.6196,248.1988 674.2446,248.5113 674.2446,248.5113 674.5571,248.8238 674.5571,248.8238 674.8696,249.7613 674.8696,249.7613 674.8696,250.3863 674.8696,250.3863 674.5571,251.3238 674.5571,251.3238 673.9321,251.9488 673.9321,251.9488 672.9946,252.2613 672.9946,252.2613 672.0571,252.2613 672.0571,252.2613 671.1196,251.9488 671.1196,251.9488 670.8071,251.6363 670.8071,251.6363 670.4946,251.0113"/>
    <polyline points="687.815,268.3022 687.815,255.1772 687.815,255.1772 682.815,268.3022 682.815,268.3022 677.815,255.1772 677.815,255.1772 677.815,268.3022"/>
    <polyline points="699.2126,319.3701 699.2126,281.5748 699.2126,281.5748 737.0079,281.5748 737.0079,281.5748 737.0079,243.7795 737.0079,243.7795 774.8031,243.7795 774.8031,243.7795 774.8031,281.5748 774.8031,281.5748 737.0079,281.5748 737.0079,281.5748 737.0079,319.3701 737.0079,319.3701 737.0079,357.1654 737.0079,357.1654 699.2126,357.1654 699.2126,357.1654 699.2126,319.3701 699.2126,319.3701 737.0079,319.3701"/>
    <polygon points="718.7352,255.1772 717.4852,255.8022 717.4852,255.8022 716.2352,257.0522 716.2352,257.0522 715.6102,258.3022 715.6102,258.3022 714.9852,260.1772 714.9852,260.1772 714.9852,263.3022 714.9852,263.3022 715.6102,265.1772 715.6102,265.1772 716.2352,266.4272 716.2352,266.4272 717.4852,267.6772 717.4852,267.6772 718.7352,268.3022 718.7352,268.3022 721.2352,268.3022 721.2352,268.3022 722.4852,267.6772 722.4852,267.6772 723.7352,266.4272 723.7352,266.4272 724.3602,265.1772 724.3602,265.1772 724.9852,263.3022 724.9852,263.3022 724.9852,260.1772 724.9852,260.1772 724.3602,258.3022 724.3602,258.3022 723.7352,257.0522 723.7352,257.0522 722.4852,255.8022 722.4852,255.8022 721.2352,255.1772 721.2352,255.1772"/>
    <polyline points="754.0305,262.0522 759.6555,262.0522 759.6555,262.0522 761.5305,261.4272 761.5305,261.4272 762.1555,260.8022 762.1555,260.8022 762.7805,259.5522 762.7805,259.5522 762.7805,257.6772 762.7805,257.6772 762.1555,256.4272 762.1555,256.4272 761.5305,255.8022 761.5305,255.8022 759.6555,255.1772 759.6555,255.1772 754.0305,255.1772 754.0305,255.1772 754.0305,268.3022"/>
    <polyline points="44.0453,294.8474 42.7953,293.5974 42.7953,293.5974 40.9203,292.9724 40.9203,292.9724 38.4203,292.9724 38.4203,292.9724 36.5453,293.5974 36.5453,293.5974 35.2953,294.8474 35.2953,294.8474 35.2953,296.0974 35.2953,296.0974 35.9203,297.3474 35.9203,297.3474 36.5453,297.9724 36.5453,297.9724 37.7953,298.5974 37.7953,298.5974 41.5453,299.8474 41.5453,299.8474 42.7953,300.4724 42.7953,300.4724 43.4203,301.0974 43.4203,301.0974 44.0453,302.3474 44.0453,302.3474 44.0453,304.2224 44.0453,304.2224 42.7953,305.4724 42.7953,305.4724 40.9203,306.0974 40.9203,306.0974 38.4203,306.0974 38.4203,306.0974 36.5453,305.4724 36.5453,305.4724 35.2953,304.2224"/>
    <line x1="94.4882" x2="94.4882" y1="281.5748" y2="319.3701"/>
    <polygon points="114.0108,292.9724 112.7608,293.5974 112.7608,293.5974 111.5108,294.8474 111.5108,294.8474 110.8858,296.0974 110.8858,296.0974 110.2608,297.9724 110.2608,297.9724 110.2608,301.0974 110.2608,301.0974 110.8858,302.9724 110.8858,302.9724 111.5108,304.2224 111.5108,304.2224 112.7608,305.4724 112.7608,305.4724 114.0108,306.0974 114.0108,306.0974 116.5108,306.0974 116.5108,306.0974 117.7608,305.4724 117.7608,305.4724 119.0108,304.2224 119.0108,304.2224 119.6358,302.9724 119.6358,302.9724 120.2608,301.0974 120.2608,301.0974 120.2608,297.9724 120.2608,297.9724 119.6358,296.0974 119.6358,296.0974 119.0108,294.8474 119.0108,294.8474 117.7608,293.5974 117.7608,293.5974 116.5108,292.9724 116.5108,292.9724"/>
    <polyline points="195.8514,292.9724 195.8514,306.0974 195.8514,306.0974 187.1014,292.9724 187.1014,292.9724 187.1014,306.0974"/>
    <polygon points="283.4646,281.5748 283.4646,319.3701 283.4646,319.3701 321.2598,319.3701 321.2598,319.3701 359.0551,319.3701 359.0551,319.3701 359.0551,281.5748 359.0551,281.5748 321.2598,281.5748 321.2598,281.5748"/>
    <line x1="321.2598" x2="321.2598" y1="319.3701" y2="281.5748"/>
    <polyline points="287.2293,284.7441 287.8543,284.4316 287.8543,284.4316 288.7918,283.4941 288.7918,283.4941 288.7918,290.0566"/>
    <polyline points="295.6668,290.0566 295.6668,283.4941 295.6668,283.4941 292.5418,287.8691 292.5418,287.8691 297.2293,287.8691"/>
    <polyline points="308.9247,296.0974 308.2997,294.8474 308.2997,294.8474 307.0497,293.5974 307.0497,293.5974 305.7997,292.9724 305.7997,292.9724 303.2997,292.9724 303.2997,292.9724 302.0497,293.5974 302.0497,293.5974 300.7997,294.8474 300.7997,294.8474 300.1747,296.0974 300.1747,296.0974 299.5497,297.9724 299.5497,297.9724 299.5497,301.0974 299.5497,301.0974 300.1747,302.9724 300.1747,302.9724 300.7997,304.2224 300.7997,304.2224 302.0497,305.4724 302.0497,305.4724 303.2997,306.0974 303.2997,306.0974 305.7997,306.0974 305.7997,306.0974 307.0497,305.4724 307.0497,305.4724 308.2997,304.2224 308.2997,304.2224 308.9247,302.9724 308.9247,302.9724 308.9247,301.0974 308.9247,301.0974 305.7997,301.0974"/>
    <polyline points="338.2825,299.2224 343.9075,299.2224 343.9075,299.2224 345.7825,298.5974 345.7825,298.5974 346.4075,297.9724 346.4075,297.9724 347.0325,296.7224 347.0325,296.7224 347.0325,295.4724 347.0325,295.4724 346.4075,294.2224 346.4075,294.2224 345.7825,293.5974 345.7825,293.5974 343.9075,292.9724 343.9075,292.9724 338.2825,292.9724 338.2825,292.9724 338.2825,306.0974"/>
    <line x1="342.6575" x2="347.0325" y1="299.2224" y2="306.0974"/>
    <polyline points="359.0551,319.3701 396.8504,319.3701 396.8504,319.3701 396.8504,281.5748 396.8504,281.5748 359.0551,281.5748"/>
    <polygon points="378.5778,292.9724 377.3278,293.5974 377.3278,293.5974 376.0778,294.8474 376.0778,294.8474 375.4528,296.0974 375.4528,296.0974 374.8278,297.9724 374.8278,297.9724 374.8278,301.0974 374.8278,301.0974 375.4528,302.9724 375.4528,302.9724 376.0778,304.2224 376.0778,304.2224 377.3278,305.4724 377.3278,305.4724 378.5778,306.0974 378.5778,306.0974 381.0778,306.0974 381.0778,306.0974 382.3278,305.4724 382.3278,305.4724 383.5778,304.2224 383.5778,304.2224 384.2028,302.9724 384.2028,302.9724 384.8278,301.0974 384.8278,301.0974 384.8278,297.9724 384.8278,297.9724 384.2028,296.0974 384.2028,296.0974 383.5778,294.8474 383.5778,294.8474 382.3278,293.5974 382.3278,293.5974 381.0778,292.9724 381.0778,292.9724"/>
    <polyline points="422.3105,292.9724 414.1855,292.9724 414.1855,292.9724 414.1855,306.0974 414.1855,306.0974 422.3105,306.0974"/>
    <line x1="414.1855" x2="419.1855" y1="299.2224" y2="299.2224"/>
    <line x1="472.4409" x2="472.4409" y1="319.3701" y2="281.5748"/>
    <polyline points="451.6683,299.8474 457.2933,299.8474 457.2933,299.8474 459.1683,299.2224 459.1683,299.2224 459.7933,298.5974 459.7933,298.5974 460.4183,297.3474 460.4183,297.3474 460.4183,295.4724 460.4183,295.4724 459.7933,294.2224 459.7933,294.2224 459.1683,293.5974 459.1683,293.5974 457.2933,292.9724 457.2933,292.9724 451.6683,292.9724 451.6683,292.9724 451.6683,306.0974"/>
    <line x1="510.2362" x2="510.2362" y1="319.3701" y2="281.5748"/>
    <polyline points="497.5886,294.8474 496.3386,293.5974 496.3386,293.5974 494.4636,292.9724 494.4636,292.9724 491.9636,292.9724 491.9636,292.9724 490.0886,293.5974 490.0886,293.5974 488.8386,294.8474 488.8386,294.8474 488.8386,296.0974 488.8386,296.0974 489.4636,297.3474 489.4636,297.3474 490.0886,297.9724 490.0886,297.9724 491.3386,298.5974 491.3386,298.5974 495.0886,299.8474 495.0886,299.8474 496.3386,300.4724 496.3386,300.4724 496.9636,301.0974 496.9636,301.0974 497.5886,302.3474 497.5886,302.3474 497.5886,304.2224 497.5886,304.2224 496.3386,305.4724 496.3386,305.4724 494.4636,306.0974 494.4636,306.0974 491.9636,306.0974 491.9636,306.0974 490.0886,305.4724 490.0886,305.4724 488.8386,304.2224"/>
    <polyline points="535.6964,292.9724 527.5714,292.9724 527.5714,292.9724 527.5714,306.0974"/>
    <line x1="527.5714" x2="532.5714" y1="299.2224" y2="299.2224"/>
    <polygon points="567.5541,292.9724 566.3041,293.5974 566.3041,293.5974 565.0541,294.8474 565.0541,294.8474 564.4291,296.0974 564.4291,296.0974 563.8041,297.9724 563.8041,297.9724 563.8041,301.0974 563.8041,301.0974 564.4291,302.9724 564.4291,302.9724 565.0541,304.2224 565.0541,304.2224 566.3041,305.4724 566.3041,305.4724 567.5541,306.0974 567.5541,306.0974 570.0541,306.0974 570.0541,306.0974 571.3041,305.4724 571.3041,305.4724 572.5541,304.2224 572.5541,304.2224 573.1791,302.9724 573.1791,302.9724 573.8041,301.0974 573.8041,301.0974 573.8041,297.9724 573.8041,297.9724 573.1791,296.0974 573.1791,296.0974 572.5541,294.8474 572.5541,294.8474 571.3041,293.5974 571.3041,293.5974 570.0541,292.9724 570.0541,292.9724"/>
    <line x1="605.3494" x2="605.3494" y1="292.9724" y2="306.0974"/>
    <line x1="600.9744" x2="609.7244" y1="292.9724" y2="292.9724"/>
    <polygon points="643.1447,292.9724 641.8947,293.5974 641.8947,293.5974 640.6447,294.8474 640.6447,294.8474 640.0197,296.0974 640.0197,296.0974 639.3947,297.9724 639.3947,297.9724 639.3947,301.0974 639.3947,301.0974 640.0197,302.9724 640.0197,302.9724 640.6447,304.2224 640.6447,304.2224 641.8947,305.4724 641.8947,305.4724 643.1447,306.0974 643.1447,306.0974 645.6447,306.0974 645.6447,306.0974 646.8947,305.4724 646.8947,305.4724 648.1447,304.2224 648.1447,304.2224 648.7697,302.9724 648.7697,302.9724 649.3947,301.0974 649.3947,301.0974 649.3947,297.9724 649.3947,297.9724 648.7697,296.0974 648.7697,296.0974 648.1447,294.8474 648.1447,294.8474 646.8947,293.5974 646.8947,293.5974 645.6447,292.9724 645.6447,292.9724"/>
    <polygon points="718.7352,292.9724 717.4852,293.5974 717.4852,293.5974 716.2352,294.8474 716.2352,294.8474 715.6102,296.0974 715.6102,296.0974 714.9852,297.9724 714.9852,297.9724 714.9852,301.0974 714.9852,301.0974 715.6102,302.9724 715.6102,302.9724 716.2352,304.2224 716.2352,304.2224 717.4852,305.4724 717.4852,305.4724 718.7352,306.0974 718.7352,306.0974 721.2352,306.0974 721.2352,306.0974 722.4852,305.4724 722.4852,305.4724 723.7352,304.2224 723.7352,304.2224 724.3602,302.9724 724.3602,302.9724 724.9852,301.0974 724.9852,301.0974 724.9852,297.9724 724.9852,297.9724 724.3602,296.0974 724.3602,296.0974 723.7352,294.8474 723.7352,294.8474 722.4852,293.5974 722.4852,293.5974 721.2352,292.9724 721.2352,292.9724"/>
    <polyline points="120.8858,343.8927 120.8858,330.7677 120.8858,330.7677 115.8858,343.8927 115.8858,343.8927 110.8858,330.7677 110.8858,330.7677 110.8858,343.8927"/>
    <polyline points="422.623,330.7677 422.623,343.8927 422.623,343.8927 413.873,330.7677 413.873,330.7677 413.873,343.8927"/>
    <polyline points="573.8041,330.7677 573.8041,343.8927 573.8041,343.8927 565.0541,330.7677 565.0541,330.7677 565.0541,343.8927"/>
    <polyline points="724.6727,333.8927 724.0477,332.6427 724.0477,332.6427 722.7977,331.3927 722.7977,331.3927 721.5477,330.7677 721.5477,330.7677 719.0477,330.7677 719.0477,330.7677 717.7977,331.3927 717.7977,331.3927 716.5477,332.6427 716.5477,332.6427 715.9227,333.8927 715.9227,333.8927 715.2977,335.7677 715.2977,335.7677 715.2977,338.8927 715.2977,338.8927 715.9227,340.7677 715.9227,340.7677 716.5477,342.0177 716.5477,342.0177 717.7977,343.2677 717.7977,343.2677 719.0477,343.8927 719.0477,343.8927 721.5477,343.8927 721.5477,343.8927 722.7977,343.2677 722.7977,343.2677 724.0477,342.0177 724.0477,342.0177 724.6727,340.7677 724.6727,340.7677 724.6727,338.8927 724.6727,338.8927 721.5477,338.8927"/>
  </g>
</svg>
