<?xml version="1.0" encoding="utf-8" ?>
<svg xmlns="http://www.w3.org/2000/svg" xmlns:cc="http://creativecommons.org/ns" xmlns:dc="http://purl.org/dc/elements/1.1/" xmlns:ev="http://www.w3.org/2001/xml-events" xmlns:inkscape="http://www.inkscape.org/namespaces/inkscape" xmlns:rdf="http://www.w3.org/1999/02/22-rdf-syntax-ns" xmlns:sodipodi="http://sodipodi.sourceforge.net/DTD/sodipodi-0.dtd" xmlns:xlink="http://www.w3.org/1999/xlink" baseProfile="tiny" height="9.9cm" version="1.2" viewBox="0 0 793.7007874015749 374.1732283464567" width="21.0cm">
  <metadata>
    <rdf:RDF>
      <cc:Work>
        <dc:format>image/svg+xml</dc:format>
        <dc:source>vpype eval 'cell=10;width=210;height=99' eval 'nCols=20;nRows=9' eval 'cells=[3,12,16,17,18,19,20,21,22,23,24,25,32,34,37,40,43,46,47,48,49,50,51,52,53,54,55,56,57,59,60,63,70,72,74,77,79,80,82,83,84,85,86,87,88,89,90,91,92,94,97,99,100,103,110,112,114,115,116,117,119,122,123,124,125,126,127,128,129,132,134,137,139,143,152,154,157,159,161,162,163,164,165,166,167,168,173,174,175,176,177,178,179]' eval 'chars=[&quot;U&quot;,&quot;H&quot;,&quot;G&quot;,&quot;R&quot;,&quot;A&quot;,&quot;S&quot;,&quot;J&quot;,&quot;U&quot;,&quot;D&quot;,&quot;I&quot;,&quot;T&quot;,&quot;H&quot;,&quot;A&quot;,&quot;R&quot;,&quot;E&quot;,&quot;O&quot;,&quot;T&quot;,&quot;F&quot;,&quot;L&quot;,&quot;E&quot;,&quot;S&quot;,&quot;S&quot;,&quot;E&quot;,&quot;N&quot;,&quot;G&quot;,&quot;E&quot;,&quot;L&quot;,&quot;U&quot;,&quot;K&quot;,&quot;R&quot;,&quot;N&quot;,&quot;L&quot;,&quot;A&quot;,&quot;D&quot;,&quot;G&quot;,&quot;K&quot;,&quot;E&quot;,&quot;A&quot;,&quot;M&quot;,&quot;I&quot;,&quot;S&quot;,&quot;V&quot;,&quot;E&quot;,&quot;R&quot;,&quot;S&quot;,&quot;T&quot;,&quot;A&quot;,&quot;N&quot;,&quot;D&quot;,&quot;E&quot;,&quot;E&quot;,&quot;S&quot;,&quot;S&quot;,&quot;K&quot;,&quot;R&quot;,&quot;O&quot;,&quot;N&quot;,&quot;O&quot;,&quot;O&quot;,&quot;R&quot;,&quot;T&quot;,&quot;S&quot;,&quot;K&quot;,&quot;E&quot;,&quot;L&quot;,&quot;L&quot;,&quot;E&quot;,&quot;K&quot;,&quot;E&quot;,&quot;E&quot;,&quot;B&quot;,&quot;T&quot;,&quot;J&quot;,&quot;E&quot;,&quot;K&quot;,&quot;U&quot;,&quot;J&quot;,&quot;E&quot;,&quot;K&quot;,&quot;I&quot;,&quot;N&quot;,&quot;D&quot;,&quot;E&quot;,&quot;R&quot;,&quot;E&quot;,&quot;N&quot;,&quot;P&quot;,&quot;I&quot;,&quot;N&quot;,&quot;K&quot;,&quot;E&quot;,&quot;R&quot;,&quot;S&quot;]' eval 'numbers=[3,12,16,17,20,34,46,50,59,82,114,122,161,173]' eval counter=1 eval charIndex=0 begin grid -o '%cell*mm%' '%cell*mm%' %nCols% %nRows% eval '%isCell=_i in cells%' eval '%number=_i in numbers%' eval '%size=10 if isCell else 0%' rect 0 0 '%size*mm%' '%size*mm%' text -s 10 -p 0.5mm 1.5mm '%counter if number else '&quot;'&quot;''&quot;'&quot;'%' text -s 20 -p 5mm 5mm -a center '%chars[charIndex] if isCell else '&quot;'&quot;''&quot;'&quot;'%' eval '%if number: counter+=1 %' eval '%if isCell: charIndex+=1 %' end splitall deduplicate linemerge --tolerance 0.1mm write -m none --page-size '%width*mm%x%height*mm%' --center ./svgs/solution/4af9ab.svg
</dc:source>
        <dc:date>2023-12-23T07:44:50.900849</dc:date>
      </cc:Work>
    </rdf:RDF>
  </metadata>
  <defs/>
  <g fill="none" id="layer1" inkscape:groupmode="layer" inkscape:label="1" stroke="#000000" style="display:inline">
    <polygon points="132.2835,17.0079 132.2835,54.8031 132.2835,54.8031 170.0787,54.8031 170.0787,54.8031 170.0787,17.0079 170.0787,17.0079"/>
    <polyline points="136.0482,20.1772 136.6732,19.8647 136.6732,19.8647 137.6107,18.9272 137.6107,18.9272 137.6107,25.4897"/>
    <polyline points="149.3061,28.4055 149.3061,37.7805 149.3061,37.7805 149.9311,39.6555 149.9311,39.6555 151.1811,40.9055 151.1811,40.9055 153.0561,41.5305 153.0561,41.5305 154.3061,41.5305 154.3061,41.5305 156.1811,40.9055 156.1811,40.9055 157.4311,39.6555 157.4311,39.6555 158.0561,37.7805 158.0561,37.7805 158.0561,28.4055"/>
    <polygon points="472.4409,17.0079 472.4409,54.8031 472.4409,54.8031 472.4409,92.5984 472.4409,92.5984 510.2362,92.5984 510.2362,92.5984 510.2362,54.8031 510.2362,54.8031 510.2362,17.0079 510.2362,17.0079"/>
    <line x1="472.4409" x2="510.2362" y1="54.8031" y2="54.8031"/>
    <polyline points="475.5807,20.4897 475.5807,20.1772 475.5807,20.1772 475.8932,19.5522 475.8932,19.5522 476.2057,19.2397 476.2057,19.2397 476.8307,18.9272 476.8307,18.9272 478.0807,18.9272 478.0807,18.9272 478.7057,19.2397 478.7057,19.2397 479.0182,19.5522 479.0182,19.5522 479.3307,20.1772 479.3307,20.1772 479.3307,20.8022 479.3307,20.8022 479.0182,21.4272 479.0182,21.4272 478.3932,22.3647 478.3932,22.3647 475.2682,25.4897 475.2682,25.4897 479.6432,25.4897"/>
    <line x1="489.4636" x2="489.4636" y1="28.4055" y2="41.5305"/>
    <line x1="498.2136" x2="498.2136" y1="28.4055" y2="41.5305"/>
    <line x1="489.4636" x2="498.2136" y1="34.6555" y2="34.6555"/>
    <polygon points="623.622,17.0079 623.622,54.8031 623.622,54.8031 661.4173,54.8031 661.4173,54.8031 661.4173,17.0079 661.4173,17.0079"/>
    <polyline points="627.0743,18.9272 630.5118,18.9272 630.5118,18.9272 628.6368,21.4272 628.6368,21.4272 629.5743,21.4272 629.5743,21.4272 630.1993,21.7397 630.1993,21.7397 630.5118,22.0522 630.5118,22.0522 630.8243,22.9897 630.8243,22.9897 630.8243,23.6147 630.8243,23.6147 630.5118,24.5522 630.5118,24.5522 629.8868,25.1772 629.8868,25.1772 628.9493,25.4897 628.9493,25.4897 628.0118,25.4897 628.0118,25.4897 627.0743,25.1772 627.0743,25.1772 626.7618,24.8647 626.7618,24.8647 626.4493,24.2397"/>
    <polyline points="649.0822,31.5305 648.4572,30.2805 648.4572,30.2805 647.2072,29.0305 647.2072,29.0305 645.9572,28.4055 645.9572,28.4055 643.4572,28.4055 643.4572,28.4055 642.2072,29.0305 642.2072,29.0305 640.9572,30.2805 640.9572,30.2805 640.3322,31.5305 640.3322,31.5305 639.7072,33.4055 639.7072,33.4055 639.7072,36.5305 639.7072,36.5305 640.3322,38.4055 640.3322,38.4055 640.9572,39.6555 640.9572,39.6555 642.2072,40.9055 642.2072,40.9055 643.4572,41.5305 643.4572,41.5305 645.9572,41.5305 645.9572,41.5305 647.2072,40.9055 647.2072,40.9055 648.4572,39.6555 648.4572,39.6555 649.0822,38.4055 649.0822,38.4055 649.0822,36.5305 649.0822,36.5305 645.9572,36.5305"/>
    <polyline points="585.8268,168.189 585.8268,205.9843 585.8268,205.9843 623.622,205.9843 623.622,205.9843 661.4173,205.9843 661.4173,205.9843 661.4173,168.189 661.4173,168.189 661.4173,130.3937 661.4173,130.3937 623.622,130.3937 623.622,130.3937 585.8268,130.3937 585.8268,130.3937 585.8268,168.189 585.8268,168.189 548.0315,168.189 548.0315,168.189 548.0315,130.3937 548.0315,130.3937 548.0315,92.5984 548.0315,92.5984 585.8268,92.5984 585.8268,92.5984 585.8268,130.3937 585.8268,130.3937 548.0315,130.3937 548.0315,130.3937 510.2362,130.3937 510.2362,130.3937 510.2362,92.5984 510.2362,92.5984 548.0315,92.5984 548.0315,92.5984 548.0315,54.8031 548.0315,54.8031 585.8268,54.8031 585.8268,54.8031 585.8268,92.5984 585.8268,92.5984 623.622,92.5984 623.622,92.5984 661.4173,92.5984 661.4173,92.5984 661.4173,54.8031 661.4173,54.8031 699.2126,54.8031 699.2126,54.8031 699.2126,17.0079 699.2126,17.0079 661.4173,17.0079"/>
    <polyline points="667.3696,25.4897 667.3696,18.9272 667.3696,18.9272 664.2446,23.3022 664.2446,23.3022 668.9321,23.3022"/>
    <polyline points="678.44,34.6555 684.065,34.6555 684.065,34.6555 685.94,34.0305 685.94,34.0305 686.565,33.4055 686.565,33.4055 687.19,32.1555 687.19,32.1555 687.19,30.9055 687.19,30.9055 686.565,29.6555 686.565,29.6555 685.94,29.0305 685.94,29.0305 684.065,28.4055 684.065,28.4055 678.44,28.4055 678.44,28.4055 678.44,41.5305"/>
    <line x1="682.815" x2="687.19" y1="34.6555" y2="41.5305"/>
    <polyline points="699.2126,92.5984 699.2126,130.3937 699.2126,130.3937 661.4173,130.3937 661.4173,130.3937 661.4173,92.5984 661.4173,92.5984 699.2126,92.5984 699.2126,92.5984 699.2126,54.8031 699.2126,54.8031 737.0079,54.8031 737.0079,54.8031 774.8031,54.8031 774.8031,54.8031 774.8031,17.0079 774.8031,17.0079 737.0079,17.0079 737.0079,17.0079 699.2126,17.0079"/>
    <line x1="737.0079" x2="737.0079" y1="54.8031" y2="17.0079"/>
    <polyline points="723.7352,41.5305 718.7352,28.4055 718.7352,28.4055 713.7352,41.5305"/>
    <line x1="715.6102" x2="721.8602" y1="37.1555" y2="37.1555"/>
    <polyline points="762.1555,30.2805 760.9055,29.0305 760.9055,29.0305 759.0305,28.4055 759.0305,28.4055 756.5305,28.4055 756.5305,28.4055 754.6555,29.0305 754.6555,29.0305 753.4055,30.2805 753.4055,30.2805 753.4055,31.5305 753.4055,31.5305 754.0305,32.7805 754.0305,32.7805 754.6555,33.4055 754.6555,33.4055 755.9055,34.0305 755.9055,34.0305 759.6555,35.2805 759.6555,35.2805 760.9055,35.9055 760.9055,35.9055 761.5305,36.5305 761.5305,36.5305 762.1555,37.7805 762.1555,37.7805 762.1555,39.6555 762.1555,39.6555 760.9055,40.9055 760.9055,40.9055 759.0305,41.5305 759.0305,41.5305 756.5305,41.5305 756.5305,41.5305 754.6555,40.9055 754.6555,40.9055 753.4055,39.6555"/>
    <polygon points="18.8976,54.8031 18.8976,92.5984 18.8976,92.5984 18.8976,130.3937 18.8976,130.3937 56.6929,130.3937 56.6929,130.3937 56.6929,92.5984 56.6929,92.5984 56.6929,54.8031 56.6929,54.8031"/>
    <polyline points="18.8976,92.5984 56.6929,92.5984 56.6929,92.5984 94.4882,92.5984 94.4882,92.5984 94.4882,54.8031 94.4882,54.8031 56.6929,54.8031"/>
    <polyline points="25.4749,56.7224 22.3499,56.7224 22.3499,56.7224 22.0374,59.5349 22.0374,59.5349 22.3499,59.2224 22.3499,59.2224 23.2874,58.9099 23.2874,58.9099 24.2249,58.9099 24.2249,58.9099 25.1624,59.2224 25.1624,59.2224 25.7874,59.8474 25.7874,59.8474 26.0999,60.7849 26.0999,60.7849 26.0999,61.4099 26.0999,61.4099 25.7874,62.3474 25.7874,62.3474 25.1624,62.9724 25.1624,62.9724 24.2249,63.2849 24.2249,63.2849 23.2874,63.2849 23.2874,63.2849 22.3499,62.9724 22.3499,62.9724 22.0374,62.6599 22.0374,62.6599 21.7249,62.0349"/>
    <polyline points="42.1703,66.2008 42.1703,76.2008 42.1703,76.2008 41.5453,78.0758 41.5453,78.0758 40.9203,78.7008 40.9203,78.7008 39.6703,79.3258 39.6703,79.3258 38.4203,79.3258 38.4203,79.3258 37.1703,78.7008 37.1703,78.7008 36.5453,78.0758 36.5453,78.0758 35.9203,76.2008 35.9203,76.2008 35.9203,74.9508"/>
    <polyline points="73.7156,66.2008 73.7156,75.5758 73.7156,75.5758 74.3406,77.4508 74.3406,77.4508 75.5906,78.7008 75.5906,78.7008 77.4656,79.3258 77.4656,79.3258 78.7156,79.3258 78.7156,79.3258 80.5906,78.7008 80.5906,78.7008 81.8406,77.4508 81.8406,77.4508 82.4656,75.5758 82.4656,75.5758 82.4656,66.2008"/>
    <polyline points="94.4882,92.5984 132.2835,92.5984 132.2835,92.5984 170.0787,92.5984 170.0787,92.5984 170.0787,54.8031 170.0787,54.8031 207.874,54.8031 207.874,54.8031 245.6693,54.8031 245.6693,54.8031 245.6693,92.5984 245.6693,92.5984 207.874,92.5984 207.874,92.5984 207.874,54.8031"/>
    <polyline points="207.874,92.5984 170.0787,92.5984 170.0787,92.5984 170.0787,130.3937 170.0787,130.3937 170.0787,168.189 170.0787,168.189 132.2835,168.189 132.2835,168.189 132.2835,130.3937 132.2835,130.3937 132.2835,92.5984 132.2835,92.5984 132.2835,54.8031 132.2835,54.8031 94.4882,54.8031"/>
    <polygon points="111.5108,66.2008 111.5108,79.3258 111.5108,79.3258 115.8858,79.3258 115.8858,79.3258 117.7608,78.7008 117.7608,78.7008 119.0108,77.4508 119.0108,77.4508 119.6358,76.2008 119.6358,76.2008 120.2608,74.3258 120.2608,74.3258 120.2608,71.2008 120.2608,71.2008 119.6358,69.3258 119.6358,69.3258 119.0108,68.0758 119.0108,68.0758 117.7608,66.8258 117.7608,66.8258 115.8858,66.2008 115.8858,66.2008"/>
    <line x1="153.6811" x2="153.6811" y1="66.2008" y2="79.3258"/>
    <line x1="189.6014" x2="189.6014" y1="66.2008" y2="79.3258"/>
    <line x1="185.2264" x2="193.9764" y1="66.2008" y2="66.2008"/>
    <line x1="224.8967" x2="224.8967" y1="66.2008" y2="79.3258"/>
    <line x1="233.6467" x2="233.6467" y1="66.2008" y2="79.3258"/>
    <line x1="224.8967" x2="233.6467" y1="72.4508" y2="72.4508"/>
    <polyline points="496.9636,79.3258 491.9636,66.2008 491.9636,66.2008 486.9636,79.3258"/>
    <line x1="488.8386" x2="495.0886" y1="74.9508" y2="74.9508"/>
    <polyline points="554.9213,57.6599 554.6088,57.0349 554.6088,57.0349 553.6713,56.7224 553.6713,56.7224 553.0463,56.7224 553.0463,56.7224 552.1088,57.0349 552.1088,57.0349 551.4838,57.9724 551.4838,57.9724 551.1713,59.5349 551.1713,59.5349 551.1713,61.0974 551.1713,61.0974 551.4838,62.3474 551.4838,62.3474 552.1088,62.9724 552.1088,62.9724 553.0463,63.2849 553.0463,63.2849 553.3588,63.2849 553.3588,63.2849 554.2963,62.9724 554.2963,62.9724 554.9213,62.3474 554.9213,62.3474 555.2338,61.4099 555.2338,61.4099 555.2338,61.0974 555.2338,61.0974 554.9213,60.1599 554.9213,60.1599 554.2963,59.5349 554.2963,59.5349 553.3588,59.2224 553.3588,59.2224 553.0463,59.2224 553.0463,59.2224 552.1088,59.5349 552.1088,59.5349 551.4838,60.1599 551.4838,60.1599 551.1713,61.0974"/>
    <polyline points="565.0541,72.4508 570.6791,72.4508 570.6791,72.4508 572.5541,71.8258 572.5541,71.8258 573.1791,71.2008 573.1791,71.2008 573.8041,69.9508 573.8041,69.9508 573.8041,68.7008 573.8041,68.7008 573.1791,67.4508 573.1791,67.4508 572.5541,66.8258 572.5541,66.8258 570.6791,66.2008 570.6791,66.2008 565.0541,66.2008 565.0541,66.2008 565.0541,79.3258"/>
    <line x1="569.4291" x2="573.8041" y1="72.4508" y2="79.3258"/>
    <polyline points="686.8775,66.2008 678.7525,66.2008 678.7525,66.2008 678.7525,79.3258 678.7525,79.3258 686.8775,79.3258"/>
    <line x1="678.7525" x2="683.7525" y1="72.4508" y2="72.4508"/>
    <polygon points="38.4203,103.9961 37.1703,104.6211 37.1703,104.6211 35.9203,105.8711 35.9203,105.8711 35.2953,107.1211 35.2953,107.1211 34.6703,108.9961 34.6703,108.9961 34.6703,112.1211 34.6703,112.1211 35.2953,113.9961 35.2953,113.9961 35.9203,115.2461 35.9203,115.2461 37.1703,116.4961 37.1703,116.4961 38.4203,117.1211 38.4203,117.1211 40.9203,117.1211 40.9203,117.1211 42.1703,116.4961 42.1703,116.4961 43.4203,115.2461 43.4203,115.2461 44.0453,113.9961 44.0453,113.9961 44.6703,112.1211 44.6703,112.1211 44.6703,108.9961 44.6703,108.9961 44.0453,107.1211 44.0453,107.1211 43.4203,105.8711 43.4203,105.8711 42.1703,104.6211 42.1703,104.6211 40.9203,103.9961 40.9203,103.9961"/>
    <line x1="132.2835" x2="170.0787" y1="130.3937" y2="130.3937"/>
    <line x1="151.8061" x2="151.8061" y1="103.9961" y2="117.1211"/>
    <line x1="147.4311" x2="156.1811" y1="103.9961" y2="103.9961"/>
    <polygon points="245.6693,92.5984 245.6693,130.3937 245.6693,130.3937 283.4646,130.3937 283.4646,130.3937 283.4646,92.5984 283.4646,92.5984"/>
    <polyline points="248.4966,94.5177 252.8716,94.5177 252.8716,94.5177 249.7466,101.0802"/>
    <polyline points="271.1294,103.9961 263.0044,103.9961 263.0044,103.9961 263.0044,117.1211"/>
    <line x1="263.0044" x2="268.0044" y1="110.2461" y2="110.2461"/>
    <polyline points="283.4646,130.3937 321.2598,130.3937 321.2598,130.3937 359.0551,130.3937 359.0551,130.3937 396.8504,130.3937 396.8504,130.3937 396.8504,168.189 396.8504,168.189 359.0551,168.189 359.0551,168.189 321.2598,168.189 321.2598,168.189 283.4646,168.189 283.4646,168.189 245.6693,168.189 245.6693,168.189 207.874,168.189 207.874,168.189 170.0787,168.189 170.0787,168.189 170.0787,205.9843 170.0787,205.9843 207.874,205.9843 207.874,205.9843 245.6693,205.9843 245.6693,205.9843 245.6693,168.189"/>
    <polyline points="321.2598,130.3937 321.2598,92.5984 321.2598,92.5984 283.4646,92.5984"/>
    <polyline points="301.1122,103.9961 301.1122,117.1211 301.1122,117.1211 308.6122,117.1211"/>
    <polyline points="359.0551,130.3937 359.0551,92.5984 359.0551,92.5984 321.2598,92.5984"/>
    <polyline points="346.72,103.9961 338.595,103.9961 338.595,103.9961 338.595,117.1211 338.595,117.1211 346.72,117.1211"/>
    <line x1="338.595" x2="343.595" y1="110.2461" y2="110.2461"/>
    <polyline points="396.8504,92.5984 434.6457,92.5984 434.6457,92.5984 434.6457,130.3937 434.6457,130.3937 396.8504,130.3937 396.8504,130.3937 396.8504,92.5984 396.8504,92.5984 359.0551,92.5984"/>
    <polyline points="384.2028,105.8711 382.9528,104.6211 382.9528,104.6211 381.0778,103.9961 381.0778,103.9961 378.5778,103.9961 378.5778,103.9961 376.7028,104.6211 376.7028,104.6211 375.4528,105.8711 375.4528,105.8711 375.4528,107.1211 375.4528,107.1211 376.0778,108.3711 376.0778,108.3711 376.7028,108.9961 376.7028,108.9961 377.9528,109.6211 377.9528,109.6211 381.7028,110.8711 381.7028,110.8711 382.9528,111.4961 382.9528,111.4961 383.5778,112.1211 383.5778,112.1211 384.2028,113.3711 384.2028,113.3711 384.2028,115.2461 384.2028,115.2461 382.9528,116.4961 382.9528,116.4961 381.0778,117.1211 381.0778,117.1211 378.5778,117.1211 378.5778,117.1211 376.7028,116.4961 376.7028,116.4961 375.4528,115.2461"/>
    <polygon points="401.2402,94.5177 400.3027,94.8302 400.3027,94.8302 399.9902,95.4552 399.9902,95.4552 399.9902,96.0802 399.9902,96.0802 400.3027,96.7052 400.3027,96.7052 400.9277,97.0177 400.9277,97.0177 402.1777,97.3302 402.1777,97.3302 403.1152,97.6427 403.1152,97.6427 403.7402,98.2677 403.7402,98.2677 404.0527,98.8927 404.0527,98.8927 404.0527,99.8302 404.0527,99.8302 403.7402,100.4552 403.7402,100.4552 403.4277,100.7677 403.4277,100.7677 402.4902,101.0802 402.4902,101.0802 401.2402,101.0802 401.2402,101.0802 400.3027,100.7677 400.3027,100.7677 399.9902,100.4552 399.9902,100.4552 399.6777,99.8302 399.6777,99.8302 399.6777,98.8927 399.6777,98.8927 399.9902,98.2677 399.9902,98.2677 400.6152,97.6427 400.6152,97.6427 401.5527,97.3302 401.5527,97.3302 402.8027,97.0177 402.8027,97.0177 403.4277,96.7052 403.4277,96.7052 403.7402,96.0802 403.7402,96.0802 403.7402,95.4552 403.7402,95.4552 403.4277,94.8302 403.4277,94.8302 402.4902,94.5177 402.4902,94.5177"/>
    <polyline points="421.998,105.8711 420.748,104.6211 420.748,104.6211 418.873,103.9961 418.873,103.9961 416.373,103.9961 416.373,103.9961 414.498,104.6211 414.498,104.6211 413.248,105.8711 413.248,105.8711 413.248,107.1211 413.248,107.1211 413.873,108.3711 413.873,108.3711 414.498,108.9961 414.498,108.9961 415.748,109.6211 415.748,109.6211 419.498,110.8711 419.498,110.8711 420.748,111.4961 420.748,111.4961 421.373,112.1211 421.373,112.1211 421.998,113.3711 421.998,113.3711 421.998,115.2461 421.998,115.2461 420.748,116.4961 420.748,116.4961 418.873,117.1211 418.873,117.1211 416.373,117.1211 416.373,117.1211 414.498,116.4961 414.498,116.4961 413.248,115.2461"/>
    <polyline points="510.2362,168.189 510.2362,205.9843 510.2362,205.9843 472.4409,205.9843 472.4409,205.9843 472.4409,168.189 472.4409,168.189 472.4409,130.3937 472.4409,130.3937 510.2362,130.3937 510.2362,130.3937 510.2362,168.189 510.2362,168.189 472.4409,168.189 472.4409,168.189 434.6457,168.189 434.6457,168.189 396.8504,168.189 396.8504,168.189 396.8504,205.9843 396.8504,205.9843 434.6457,205.9843 434.6457,205.9843 434.6457,168.189 434.6457,168.189 434.6457,130.3937 434.6457,130.3937 472.4409,130.3937 472.4409,130.3937 472.4409,92.5984 472.4409,92.5984 434.6457,92.5984"/>
    <polyline points="460.1058,103.9961 451.9808,103.9961 451.9808,103.9961 451.9808,117.1211 451.9808,117.1211 460.1058,117.1211"/>
    <line x1="451.9808" x2="456.9808" y1="110.2461" y2="110.2461"/>
    <polyline points="498.2136,103.9961 498.2136,117.1211 498.2136,117.1211 489.4636,103.9961 489.4636,103.9961 489.4636,117.1211"/>
    <polyline points="535.6964,107.1211 535.0714,105.8711 535.0714,105.8711 533.8214,104.6211 533.8214,104.6211 532.5714,103.9961 532.5714,103.9961 530.0714,103.9961 530.0714,103.9961 528.8214,104.6211 528.8214,104.6211 527.5714,105.8711 527.5714,105.8711 526.9464,107.1211 526.9464,107.1211 526.3214,108.9961 526.3214,108.9961 526.3214,112.1211 526.3214,112.1211 526.9464,113.9961 526.9464,113.9961 527.5714,115.2461 527.5714,115.2461 528.8214,116.4961 528.8214,116.4961 530.0714,117.1211 530.0714,117.1211 532.5714,117.1211 532.5714,117.1211 533.8214,116.4961 533.8214,116.4961 535.0714,115.2461 535.0714,115.2461 535.6964,113.9961 535.6964,113.9961 535.6964,112.1211 535.6964,112.1211 532.5714,112.1211"/>
    <polyline points="573.4916,103.9961 565.3666,103.9961 565.3666,103.9961 565.3666,117.1211 565.3666,117.1211 573.4916,117.1211"/>
    <line x1="565.3666" x2="570.3666" y1="110.2461" y2="110.2461"/>
    <line x1="623.622" x2="623.622" y1="130.3937" y2="92.5984"/>
    <polyline points="603.4744,103.9961 603.4744,117.1211 603.4744,117.1211 610.9744,117.1211"/>
    <polyline points="640.6447,103.9961 640.6447,113.3711 640.6447,113.3711 641.2697,115.2461 641.2697,115.2461 642.5197,116.4961 642.5197,116.4961 644.3947,117.1211 644.3947,117.1211 645.6447,117.1211 645.6447,117.1211 647.5197,116.4961 647.5197,116.4961 648.7697,115.2461 648.7697,115.2461 649.3947,113.3711 649.3947,113.3711 649.3947,103.9961"/>
    <line x1="678.44" x2="678.44" y1="103.9961" y2="117.1211"/>
    <line x1="687.19" x2="678.44" y1="103.9961" y2="112.7461"/>
    <line x1="681.565" x2="687.19" y1="109.6211" y2="117.1211"/>
    <polygon points="737.0079,92.5984 737.0079,130.3937 737.0079,130.3937 774.8031,130.3937 774.8031,130.3937 774.8031,92.5984 774.8031,92.5984"/>
    <polyline points="743.8976,96.7052 743.5851,97.6427 743.5851,97.6427 742.9601,98.2677 742.9601,98.2677 742.0226,98.5802 742.0226,98.5802 741.7101,98.5802 741.7101,98.5802 740.7726,98.2677 740.7726,98.2677 740.1476,97.6427 740.1476,97.6427 739.8351,96.7052 739.8351,96.7052 739.8351,96.3927 739.8351,96.3927 740.1476,95.4552 740.1476,95.4552 740.7726,94.8302 740.7726,94.8302 741.7101,94.5177 741.7101,94.5177 742.0226,94.5177 742.0226,94.5177 742.9601,94.8302 742.9601,94.8302 743.5851,95.4552 743.5851,95.4552 743.8976,96.7052 743.8976,96.7052 743.8976,98.2677 743.8976,98.2677 743.5851,99.8302 743.5851,99.8302 742.9601,100.7677 742.9601,100.7677 742.0226,101.0802 742.0226,101.0802 741.3976,101.0802 741.3976,101.0802 740.4601,100.7677 740.4601,100.7677 740.1476,100.1427"/>
    <polyline points="754.0305,110.2461 759.6555,110.2461 759.6555,110.2461 761.5305,109.6211 761.5305,109.6211 762.1555,108.9961 762.1555,108.9961 762.7805,107.7461 762.7805,107.7461 762.7805,106.4961 762.7805,106.4961 762.1555,105.2461 762.1555,105.2461 761.5305,104.6211 761.5305,104.6211 759.6555,103.9961 759.6555,103.9961 754.0305,103.9961 754.0305,103.9961 754.0305,117.1211"/>
    <line x1="758.4055" x2="762.7805" y1="110.2461" y2="117.1211"/>
    <polyline points="18.8976,130.3937 18.8976,168.189 18.8976,168.189 18.8976,205.9843 18.8976,205.9843 18.8976,243.7795 18.8976,243.7795 56.6929,243.7795 56.6929,243.7795 56.6929,205.9843 56.6929,205.9843 56.6929,168.189 56.6929,168.189 56.6929,130.3937"/>
    <line x1="18.8976" x2="56.6929" y1="168.189" y2="168.189"/>
    <polyline points="44.6703,141.7913 44.6703,154.9163 44.6703,154.9163 35.9203,141.7913 35.9203,141.7913 35.9203,154.9163"/>
    <polyline points="149.9311,141.7913 149.9311,154.9163 149.9311,154.9163 157.4311,154.9163"/>
    <polyline points="421.373,154.9163 416.373,141.7913 416.373,141.7913 411.373,154.9163"/>
    <line x1="413.248" x2="419.498" y1="150.5413" y2="150.5413"/>
    <polygon points="489.4636,141.7913 489.4636,154.9163 489.4636,154.9163 493.8386,154.9163 493.8386,154.9163 495.7136,154.2913 495.7136,154.2913 496.9636,153.0413 496.9636,153.0413 497.5886,151.7913 497.5886,151.7913 498.2136,149.9163 498.2136,149.9163 498.2136,146.7913 498.2136,146.7913 497.5886,144.9163 497.5886,144.9163 496.9636,143.6663 496.9636,143.6663 495.7136,142.4163 495.7136,142.4163 493.8386,141.7913 493.8386,141.7913"/>
    <polyline points="573.4916,144.9163 572.8666,143.6663 572.8666,143.6663 571.6166,142.4163 571.6166,142.4163 570.3666,141.7913 570.3666,141.7913 567.8666,141.7913 567.8666,141.7913 566.6166,142.4163 566.6166,142.4163 565.3666,143.6663 565.3666,143.6663 564.7416,144.9163 564.7416,144.9163 564.1166,146.7913 564.1166,146.7913 564.1166,149.9163 564.1166,149.9163 564.7416,151.7913 564.7416,151.7913 565.3666,153.0413 565.3666,153.0413 566.6166,154.2913 566.6166,154.2913 567.8666,154.9163 567.8666,154.9163 570.3666,154.9163 570.3666,154.9163 571.6166,154.2913 571.6166,154.2913 572.8666,153.0413 572.8666,153.0413 573.4916,151.7913 573.4916,151.7913 573.4916,149.9163 573.4916,149.9163 570.3666,149.9163"/>
    <polyline points="661.4173,168.189 699.2126,168.189 699.2126,168.189 699.2126,130.3937"/>
    <line x1="678.44" x2="678.44" y1="141.7913" y2="154.9163"/>
    <line x1="687.19" x2="678.44" y1="141.7913" y2="150.5413"/>
    <line x1="681.565" x2="687.19" y1="147.4163" y2="154.9163"/>
    <polyline points="737.0079,130.3937 737.0079,168.189 737.0079,168.189 774.8031,168.189 774.8031,168.189 774.8031,130.3937"/>
    <polyline points="762.468,141.7913 754.343,141.7913 754.343,141.7913 754.343,154.9163 754.343,154.9163 762.468,154.9163"/>
    <line x1="754.343" x2="759.343" y1="148.0413" y2="148.0413"/>
    <line x1="18.8976" x2="56.6929" y1="205.9843" y2="205.9843"/>
    <polyline points="43.4203,192.7116 38.4203,179.5866 38.4203,179.5866 33.4203,192.7116"/>
    <line x1="35.2953" x2="41.5453" y1="188.3366" y2="188.3366"/>
    <polygon points="94.4882,168.189 94.4882,205.9843 94.4882,205.9843 132.2835,205.9843 132.2835,205.9843 132.2835,243.7795 132.2835,243.7795 170.0787,243.7795 170.0787,243.7795 170.0787,205.9843 170.0787,205.9843 132.2835,205.9843 132.2835,205.9843 132.2835,168.189 132.2835,168.189"/>
    <polyline points="98.253,171.3583 98.878,171.0458 98.878,171.0458 99.8155,170.1083 99.8155,170.1083 99.8155,176.6708"/>
    <polygon points="105.4405,170.1083 104.503,170.4208 104.503,170.4208 103.878,171.3583 103.878,171.3583 103.5655,172.9208 103.5655,172.9208 103.5655,173.8583 103.5655,173.8583 103.878,175.4208 103.878,175.4208 104.503,176.3583 104.503,176.3583 105.4405,176.6708 105.4405,176.6708 106.0655,176.6708 106.0655,176.6708 107.003,176.3583 107.003,176.3583 107.628,175.4208 107.628,175.4208 107.9405,173.8583 107.9405,173.8583 107.9405,172.9208 107.9405,172.9208 107.628,171.3583 107.628,171.3583 107.003,170.4208 107.003,170.4208 106.0655,170.1083 106.0655,170.1083"/>
    <polyline points="120.8858,192.7116 120.8858,179.5866 120.8858,179.5866 115.8858,192.7116 115.8858,192.7116 110.8858,179.5866 110.8858,179.5866 110.8858,192.7116"/>
    <line x1="153.6811" x2="153.6811" y1="179.5866" y2="192.7116"/>
    <line x1="207.874" x2="207.874" y1="205.9843" y2="168.189"/>
    <polyline points="195.2264,181.4616 193.9764,180.2116 193.9764,180.2116 192.1014,179.5866 192.1014,179.5866 189.6014,179.5866 189.6014,179.5866 187.7264,180.2116 187.7264,180.2116 186.4764,181.4616 186.4764,181.4616 186.4764,182.7116 186.4764,182.7116 187.1014,183.9616 187.1014,183.9616 187.7264,184.5866 187.7264,184.5866 188.9764,185.2116 188.9764,185.2116 192.7264,186.4616 192.7264,186.4616 193.9764,187.0866 193.9764,187.0866 194.6014,187.7116 194.6014,187.7116 195.2264,188.9616 195.2264,188.9616 195.2264,190.8366 195.2264,190.8366 193.9764,192.0866 193.9764,192.0866 192.1014,192.7116 192.1014,192.7116 189.6014,192.7116 189.6014,192.7116 187.7264,192.0866 187.7264,192.0866 186.4764,190.8366"/>
    <polyline points="222.3967,179.5866 227.3967,192.7116 227.3967,192.7116 232.3967,179.5866"/>
    <polyline points="245.6693,205.9843 283.4646,205.9843 283.4646,205.9843 283.4646,168.189"/>
    <polyline points="271.1294,179.5866 263.0044,179.5866 263.0044,179.5866 263.0044,192.7116 263.0044,192.7116 271.1294,192.7116"/>
    <line x1="263.0044" x2="268.0044" y1="185.8366" y2="185.8366"/>
    <polyline points="283.4646,205.9843 321.2598,205.9843 321.2598,205.9843 321.2598,168.189"/>
    <polyline points="300.4872,185.8366 306.1122,185.8366 306.1122,185.8366 307.9872,185.2116 307.9872,185.2116 308.6122,184.5866 308.6122,184.5866 309.2372,183.3366 309.2372,183.3366 309.2372,182.0866 309.2372,182.0866 308.6122,180.8366 308.6122,180.8366 307.9872,180.2116 307.9872,180.2116 306.1122,179.5866 306.1122,179.5866 300.4872,179.5866 300.4872,179.5866 300.4872,192.7116"/>
    <line x1="304.8622" x2="309.2372" y1="185.8366" y2="192.7116"/>
    <polyline points="321.2598,205.9843 359.0551,205.9843 359.0551,205.9843 396.8504,205.9843 396.8504,205.9843 396.8504,243.7795 396.8504,243.7795 434.6457,243.7795 434.6457,243.7795 434.6457,205.9843 434.6457,205.9843 472.4409,205.9843 472.4409,205.9843 472.4409,243.7795 472.4409,243.7795 510.2362,243.7795 510.2362,243.7795 510.2362,205.9843"/>
    <line x1="359.0551" x2="359.0551" y1="205.9843" y2="168.189"/>
    <polyline points="346.4075,181.4616 345.1575,180.2116 345.1575,180.2116 343.2825,179.5866 343.2825,179.5866 340.7825,179.5866 340.7825,179.5866 338.9075,180.2116 338.9075,180.2116 337.6575,181.4616 337.6575,181.4616 337.6575,182.7116 337.6575,182.7116 338.2825,183.9616 338.2825,183.9616 338.9075,184.5866 338.9075,184.5866 340.1575,185.2116 340.1575,185.2116 343.9075,186.4616 343.9075,186.4616 345.1575,187.0866 345.1575,187.0866 345.7825,187.7116 345.7825,187.7116 346.4075,188.9616 346.4075,188.9616 346.4075,190.8366 346.4075,190.8366 345.1575,192.0866 345.1575,192.0866 343.2825,192.7116 343.2825,192.7116 340.7825,192.7116 340.7825,192.7116 338.9075,192.0866 338.9075,192.0866 337.6575,190.8366"/>
    <line x1="378.5778" x2="378.5778" y1="179.5866" y2="192.7116"/>
    <line x1="374.2028" x2="382.9528" y1="179.5866" y2="179.5866"/>
    <polyline points="421.373,192.7116 416.373,179.5866 416.373,179.5866 411.373,192.7116"/>
    <line x1="413.248" x2="419.498" y1="188.3366" y2="188.3366"/>
    <polyline points="460.4183,179.5866 460.4183,192.7116 460.4183,192.7116 451.6683,179.5866 451.6683,179.5866 451.6683,192.7116"/>
    <polygon points="489.4636,179.5866 489.4636,192.7116 489.4636,192.7116 493.8386,192.7116 493.8386,192.7116 495.7136,192.0866 495.7136,192.0866 496.9636,190.8366 496.9636,190.8366 497.5886,189.5866 497.5886,189.5866 498.2136,187.7116 498.2136,187.7116 498.2136,184.5866 498.2136,184.5866 497.5886,182.7116 497.5886,182.7116 496.9636,181.4616 496.9636,181.4616 495.7136,180.2116 495.7136,180.2116 493.8386,179.5866 493.8386,179.5866"/>
    <polyline points="548.0315,168.189 548.0315,205.9843 548.0315,205.9843 548.0315,243.7795 548.0315,243.7795 585.8268,243.7795 585.8268,243.7795 585.8268,205.9843 585.8268,205.9843 548.0315,205.9843"/>
    <polyline points="573.4916,179.5866 565.3666,179.5866 565.3666,179.5866 565.3666,192.7116 565.3666,192.7116 573.4916,192.7116"/>
    <line x1="565.3666" x2="570.3666" y1="185.8366" y2="185.8366"/>
    <polyline points="699.2126,205.9843 699.2126,243.7795 699.2126,243.7795 661.4173,243.7795 661.4173,243.7795 661.4173,205.9843 661.4173,205.9843 699.2126,205.9843 699.2126,205.9843 699.2126,168.189"/>
    <polyline points="686.8775,179.5866 678.7525,179.5866 678.7525,179.5866 678.7525,192.7116 678.7525,192.7116 686.8775,192.7116"/>
    <line x1="678.7525" x2="683.7525" y1="185.8366" y2="185.8366"/>
    <polyline points="737.0079,168.189 737.0079,205.9843 737.0079,205.9843 774.8031,205.9843 774.8031,205.9843 774.8031,168.189"/>
    <polyline points="762.1555,181.4616 760.9055,180.2116 760.9055,180.2116 759.0305,179.5866 759.0305,179.5866 756.5305,179.5866 756.5305,179.5866 754.6555,180.2116 754.6555,180.2116 753.4055,181.4616 753.4055,181.4616 753.4055,182.7116 753.4055,182.7116 754.0305,183.9616 754.0305,183.9616 754.6555,184.5866 754.6555,184.5866 755.9055,185.2116 755.9055,185.2116 759.6555,186.4616 759.6555,186.4616 760.9055,187.0866 760.9055,187.0866 761.5305,187.7116 761.5305,187.7116 762.1555,188.9616 762.1555,188.9616 762.1555,190.8366 762.1555,190.8366 760.9055,192.0866 760.9055,192.0866 759.0305,192.7116 759.0305,192.7116 756.5305,192.7116 756.5305,192.7116 754.6555,192.0866 754.6555,192.0866 753.4055,190.8366"/>
    <polyline points="44.0453,219.2569 42.7953,218.0069 42.7953,218.0069 40.9203,217.3819 40.9203,217.3819 38.4203,217.3819 38.4203,217.3819 36.5453,218.0069 36.5453,218.0069 35.2953,219.2569 35.2953,219.2569 35.2953,220.5069 35.2953,220.5069 35.9203,221.7569 35.9203,221.7569 36.5453,222.3819 36.5453,222.3819 37.7953,223.0069 37.7953,223.0069 41.5453,224.2569 41.5453,224.2569 42.7953,224.8819 42.7953,224.8819 43.4203,225.5069 43.4203,225.5069 44.0453,226.7569 44.0453,226.7569 44.0453,228.6319 44.0453,228.6319 42.7953,229.8819 42.7953,229.8819 40.9203,230.5069 40.9203,230.5069 38.4203,230.5069 38.4203,230.5069 36.5453,229.8819 36.5453,229.8819 35.2953,228.6319"/>
    <line x1="149.3061" x2="149.3061" y1="217.3819" y2="230.5069"/>
    <line x1="158.0561" x2="149.3061" y1="217.3819" y2="226.1319"/>
    <line x1="152.4311" x2="158.0561" y1="223.0069" y2="230.5069"/>
    <polyline points="413.873,223.6319 419.498,223.6319 419.498,223.6319 421.373,223.0069 421.373,223.0069 421.998,222.3819 421.998,222.3819 422.623,221.1319 422.623,221.1319 422.623,219.8819 422.623,219.8819 421.998,218.6319 421.998,218.6319 421.373,218.0069 421.373,218.0069 419.498,217.3819 419.498,217.3819 413.873,217.3819 413.873,217.3819 413.873,230.5069"/>
    <line x1="418.248" x2="422.623" y1="223.6319" y2="230.5069"/>
    <polygon points="491.9636,217.3819 490.7136,218.0069 490.7136,218.0069 489.4636,219.2569 489.4636,219.2569 488.8386,220.5069 488.8386,220.5069 488.2136,222.3819 488.2136,222.3819 488.2136,225.5069 488.2136,225.5069 488.8386,227.3819 488.8386,227.3819 489.4636,228.6319 489.4636,228.6319 490.7136,229.8819 490.7136,229.8819 491.9636,230.5069 491.9636,230.5069 494.4636,230.5069 494.4636,230.5069 495.7136,229.8819 495.7136,229.8819 496.9636,228.6319 496.9636,228.6319 497.5886,227.3819 497.5886,227.3819 498.2136,225.5069 498.2136,225.5069 498.2136,222.3819 498.2136,222.3819 497.5886,220.5069 497.5886,220.5069 496.9636,219.2569 496.9636,219.2569 495.7136,218.0069 495.7136,218.0069 494.4636,217.3819 494.4636,217.3819"/>
    <polyline points="551.7963,209.1535 552.4213,208.841 552.4213,208.841 553.3588,207.9035 553.3588,207.9035 553.3588,214.466"/>
    <polyline points="558.0463,209.1535 558.6713,208.841 558.6713,208.841 559.6088,207.9035 559.6088,207.9035 559.6088,214.466"/>
    <polyline points="573.8041,217.3819 573.8041,230.5069 573.8041,230.5069 565.0541,217.3819 565.0541,217.3819 565.0541,230.5069"/>
    <polyline points="510.2362,243.7795 510.2362,281.5748 510.2362,281.5748 510.2362,319.3701 510.2362,319.3701 548.0315,319.3701 548.0315,319.3701 548.0315,281.5748 548.0315,281.5748 585.8268,281.5748 585.8268,281.5748 585.8268,243.7795 585.8268,243.7795 623.622,243.7795 623.622,243.7795 661.4173,243.7795 661.4173,243.7795 661.4173,281.5748 661.4173,281.5748 699.2126,281.5748 699.2126,281.5748 699.2126,243.7795"/>
    <line x1="623.622" x2="623.622" y1="243.7795" y2="205.9843"/>
    <polygon points="605.3494,217.3819 604.0994,218.0069 604.0994,218.0069 602.8494,219.2569 602.8494,219.2569 602.2244,220.5069 602.2244,220.5069 601.5994,222.3819 601.5994,222.3819 601.5994,225.5069 601.5994,225.5069 602.2244,227.3819 602.2244,227.3819 602.8494,228.6319 602.8494,228.6319 604.0994,229.8819 604.0994,229.8819 605.3494,230.5069 605.3494,230.5069 607.8494,230.5069 607.8494,230.5069 609.0994,229.8819 609.0994,229.8819 610.3494,228.6319 610.3494,228.6319 610.9744,227.3819 610.9744,227.3819 611.5994,225.5069 611.5994,225.5069 611.5994,222.3819 611.5994,222.3819 610.9744,220.5069 610.9744,220.5069 610.3494,219.2569 610.3494,219.2569 609.0994,218.0069 609.0994,218.0069 607.8494,217.3819 607.8494,217.3819"/>
    <polygon points="643.1447,217.3819 641.8947,218.0069 641.8947,218.0069 640.6447,219.2569 640.6447,219.2569 640.0197,220.5069 640.0197,220.5069 639.3947,222.3819 639.3947,222.3819 639.3947,225.5069 639.3947,225.5069 640.0197,227.3819 640.0197,227.3819 640.6447,228.6319 640.6447,228.6319 641.8947,229.8819 641.8947,229.8819 643.1447,230.5069 643.1447,230.5069 645.6447,230.5069 645.6447,230.5069 646.8947,229.8819 646.8947,229.8819 648.1447,228.6319 648.1447,228.6319 648.7697,227.3819 648.7697,227.3819 649.3947,225.5069 649.3947,225.5069 649.3947,222.3819 649.3947,222.3819 648.7697,220.5069 648.7697,220.5069 648.1447,219.2569 648.1447,219.2569 646.8947,218.0069 646.8947,218.0069 645.6447,217.3819 645.6447,217.3819"/>
    <polyline points="678.44,223.6319 684.065,223.6319 684.065,223.6319 685.94,223.0069 685.94,223.0069 686.565,222.3819 686.565,222.3819 687.19,221.1319 687.19,221.1319 687.19,219.8819 687.19,219.8819 686.565,218.6319 686.565,218.6319 685.94,218.0069 685.94,218.0069 684.065,217.3819 684.065,217.3819 678.44,217.3819 678.44,217.3819 678.44,230.5069"/>
    <line x1="682.815" x2="687.19" y1="223.6319" y2="230.5069"/>
    <polyline points="737.0079,205.9843 737.0079,243.7795 737.0079,243.7795 774.8031,243.7795 774.8031,243.7795 774.8031,205.9843"/>
    <line x1="756.5305" x2="756.5305" y1="217.3819" y2="230.5069"/>
    <line x1="752.1555" x2="760.9055" y1="217.3819" y2="217.3819"/>
    <polygon points="94.4882,243.7795 94.4882,281.5748 94.4882,281.5748 132.2835,281.5748 132.2835,281.5748 132.2835,243.7795 132.2835,243.7795"/>
    <polyline points="98.253,246.9488 98.878,246.6363 98.878,246.6363 99.8155,245.6988 99.8155,245.6988 99.8155,252.2613"/>
    <polyline points="103.878,247.2613 103.878,246.9488 103.878,246.9488 104.1905,246.3238 104.1905,246.3238 104.503,246.0113 104.503,246.0113 105.128,245.6988 105.128,245.6988 106.378,245.6988 106.378,245.6988 107.003,246.0113 107.003,246.0113 107.3155,246.3238 107.3155,246.3238 107.628,246.9488 107.628,246.9488 107.628,247.5738 107.628,247.5738 107.3155,248.1988 107.3155,248.1988 106.6905,249.1363 106.6905,249.1363 103.5655,252.2613 103.5655,252.2613 107.9405,252.2613"/>
    <polyline points="119.6358,257.0522 118.3858,255.8022 118.3858,255.8022 116.5108,255.1772 116.5108,255.1772 114.0108,255.1772 114.0108,255.1772 112.1358,255.8022 112.1358,255.8022 110.8858,257.0522 110.8858,257.0522 110.8858,258.3022 110.8858,258.3022 111.5108,259.5522 111.5108,259.5522 112.1358,260.1772 112.1358,260.1772 113.3858,260.8022 113.3858,260.8022 117.1358,262.0522 117.1358,262.0522 118.3858,262.6772 118.3858,262.6772 119.0108,263.3022 119.0108,263.3022 119.6358,264.5522 119.6358,264.5522 119.6358,266.4272 119.6358,266.4272 118.3858,267.6772 118.3858,267.6772 116.5108,268.3022 116.5108,268.3022 114.0108,268.3022 114.0108,268.3022 112.1358,267.6772 112.1358,267.6772 110.8858,266.4272"/>
    <polyline points="170.0787,357.1654 132.2835,357.1654 132.2835,357.1654 132.2835,319.3701 132.2835,319.3701 132.2835,281.5748 132.2835,281.5748 170.0787,281.5748 170.0787,281.5748 207.874,281.5748 207.874,281.5748 245.6693,281.5748 245.6693,281.5748 245.6693,243.7795 245.6693,243.7795 207.874,243.7795 207.874,243.7795 170.0787,243.7795 170.0787,243.7795 170.0787,281.5748 170.0787,281.5748 170.0787,319.3701 170.0787,319.3701 170.0787,357.1654 170.0787,357.1654 207.874,357.1654 207.874,357.1654 245.6693,357.1654 245.6693,357.1654 245.6693,319.3701 245.6693,319.3701 207.874,319.3701 207.874,319.3701 170.0787,319.3701 170.0787,319.3701 132.2835,319.3701 132.2835,319.3701 94.4882,319.3701 94.4882,319.3701 56.6929,319.3701 56.6929,319.3701 56.6929,357.1654 56.6929,357.1654 94.4882,357.1654 94.4882,357.1654 94.4882,319.3701"/>
    <line x1="149.3061" x2="149.3061" y1="255.1772" y2="268.3022"/>
    <line x1="158.0561" x2="149.3061" y1="255.1772" y2="263.9272"/>
    <line x1="152.4311" x2="158.0561" y1="260.8022" y2="268.3022"/>
    <line x1="207.874" x2="207.874" y1="281.5748" y2="243.7795"/>
    <polyline points="195.5389,255.1772 187.4139,255.1772 187.4139,255.1772 187.4139,268.3022 187.4139,268.3022 195.5389,268.3022"/>
    <line x1="187.4139" x2="192.4139" y1="261.4272" y2="261.4272"/>
    <polyline points="225.5217,255.1772 225.5217,268.3022 225.5217,268.3022 233.0217,268.3022"/>
    <polyline points="245.6693,281.5748 283.4646,281.5748 283.4646,281.5748 321.2598,281.5748 321.2598,281.5748 321.2598,243.7795 321.2598,243.7795 283.4646,243.7795 283.4646,243.7795 245.6693,243.7795"/>
    <line x1="283.4646" x2="283.4646" y1="281.5748" y2="243.7795"/>
    <polyline points="263.3169,255.1772 263.3169,268.3022 263.3169,268.3022 270.8169,268.3022"/>
    <polyline points="308.9247,255.1772 300.7997,255.1772 300.7997,255.1772 300.7997,268.3022 300.7997,268.3022 308.9247,268.3022"/>
    <line x1="300.7997" x2="305.7997" y1="261.4272" y2="261.4272"/>
    <polyline points="321.2598,281.5748 359.0551,281.5748 359.0551,281.5748 359.0551,243.7795 359.0551,243.7795 321.2598,243.7795"/>
    <line x1="338.2825" x2="338.2825" y1="255.1772" y2="268.3022"/>
    <line x1="347.0325" x2="338.2825" y1="255.1772" y2="263.9272"/>
    <line x1="341.4075" x2="347.0325" y1="260.8022" y2="268.3022"/>
    <polyline points="359.0551,281.5748 396.8504,281.5748 396.8504,281.5748 396.8504,243.7795 396.8504,243.7795 359.0551,243.7795"/>
    <polyline points="384.5153,255.1772 376.3903,255.1772 376.3903,255.1772 376.3903,268.3022 376.3903,268.3022 384.5153,268.3022"/>
    <line x1="376.3903" x2="381.3903" y1="261.4272" y2="261.4272"/>
    <polyline points="472.4409,243.7795 472.4409,281.5748 472.4409,281.5748 472.4409,319.3701 472.4409,319.3701 510.2362,319.3701 510.2362,319.3701 510.2362,357.1654 510.2362,357.1654 548.0315,357.1654 548.0315,357.1654 548.0315,319.3701 548.0315,319.3701 585.8268,319.3701 585.8268,319.3701 585.8268,281.5748"/>
    <line x1="472.4409" x2="510.2362" y1="281.5748" y2="281.5748"/>
    <polyline points="497.9011,255.1772 489.7761,255.1772 489.7761,255.1772 489.7761,268.3022 489.7761,268.3022 497.9011,268.3022"/>
    <line x1="489.7761" x2="494.7761" y1="261.4272" y2="261.4272"/>
    <line x1="548.0315" x2="548.0315" y1="243.7795" y2="281.5748"/>
    <polygon points="565.0541,255.1772 565.0541,268.3022 565.0541,268.3022 570.6791,268.3022 570.6791,268.3022 572.5541,267.6772 572.5541,267.6772 573.1791,267.0522 573.1791,267.0522 573.8041,265.8022 573.8041,265.8022 573.8041,263.9272 573.8041,263.9272 573.1791,262.6772 573.1791,262.6772 572.5541,262.0522 572.5541,262.0522 570.6791,261.4272 570.6791,261.4272 572.5541,260.8022 572.5541,260.8022 573.1791,260.1772 573.1791,260.1772 573.8041,258.9272 573.8041,258.9272 573.8041,257.6772 573.8041,257.6772 573.1791,256.4272 573.1791,256.4272 572.5541,255.8022 572.5541,255.8022 570.6791,255.1772 570.6791,255.1772"/>
    <line x1="565.0541" x2="570.6791" y1="261.4272" y2="261.4272"/>
    <line x1="680.94" x2="680.94" y1="255.1772" y2="268.3022"/>
    <line x1="676.565" x2="685.315" y1="255.1772" y2="255.1772"/>
    <polyline points="737.0079,243.7795 737.0079,281.5748 737.0079,281.5748 774.8031,281.5748 774.8031,281.5748 774.8031,243.7795"/>
    <polyline points="760.2805,255.1772 760.2805,265.1772 760.2805,265.1772 759.6555,267.0522 759.6555,267.0522 759.0305,267.6772 759.0305,267.6772 757.7805,268.3022 757.7805,268.3022 756.5305,268.3022 756.5305,268.3022 755.2805,267.6772 755.2805,267.6772 754.6555,267.0522 754.6555,267.0522 754.0305,265.1772 754.0305,265.1772 754.0305,263.9272"/>
    <polyline points="157.7436,292.9724 149.6186,292.9724 149.6186,292.9724 149.6186,306.0974 149.6186,306.0974 157.7436,306.0974"/>
    <line x1="149.6186" x2="154.6186" y1="299.2224" y2="299.2224"/>
    <line x1="489.4636" x2="489.4636" y1="292.9724" y2="306.0974"/>
    <line x1="498.2136" x2="489.4636" y1="292.9724" y2="301.7224"/>
    <line x1="492.5886" x2="498.2136" y1="298.5974" y2="306.0974"/>
    <polyline points="565.0541,292.9724 565.0541,302.3474 565.0541,302.3474 565.6791,304.2224 565.6791,304.2224 566.9291,305.4724 566.9291,305.4724 568.8041,306.0974 568.8041,306.0974 570.0541,306.0974 570.0541,306.0974 571.9291,305.4724 571.9291,305.4724 573.1791,304.2224 573.1791,304.2224 573.8041,302.3474 573.8041,302.3474 573.8041,292.9724"/>
    <polyline points="661.4173,281.5748 661.4173,319.3701 661.4173,319.3701 623.622,319.3701 623.622,319.3701 585.8268,319.3701 585.8268,319.3701 585.8268,357.1654 585.8268,357.1654 548.0315,357.1654"/>
    <polyline points="774.8031,281.5748 774.8031,319.3701 774.8031,319.3701 737.0079,319.3701 737.0079,319.3701 699.2126,319.3701 699.2126,319.3701 699.2126,357.1654 699.2126,357.1654 661.4173,357.1654 661.4173,357.1654 661.4173,319.3701 661.4173,319.3701 699.2126,319.3701 699.2126,319.3701 699.2126,281.5748"/>
    <polyline points="684.69,292.9724 684.69,302.9724 684.69,302.9724 684.065,304.8474 684.065,304.8474 683.44,305.4724 683.44,305.4724 682.19,306.0974 682.19,306.0974 680.94,306.0974 680.94,306.0974 679.69,305.4724 679.69,305.4724 679.065,304.8474 679.065,304.8474 678.44,302.9724 678.44,302.9724 678.44,301.7224"/>
    <polyline points="737.0079,281.5748 737.0079,319.3701 737.0079,319.3701 737.0079,357.1654 737.0079,357.1654 774.8031,357.1654 774.8031,357.1654 774.8031,319.3701"/>
    <polyline points="762.468,292.9724 754.343,292.9724 754.343,292.9724 754.343,306.0974 754.343,306.0974 762.468,306.0974"/>
    <line x1="754.343" x2="759.343" y1="299.2224" y2="299.2224"/>
    <polyline points="60.4577,322.5394 61.0827,322.2269 61.0827,322.2269 62.0202,321.2894 62.0202,321.2894 62.0202,327.8519"/>
    <polyline points="66.3952,321.2894 69.8327,321.2894 69.8327,321.2894 67.9577,323.7894 67.9577,323.7894 68.8952,323.7894 68.8952,323.7894 69.5202,324.1019 69.5202,324.1019 69.8327,324.4144 69.8327,324.4144 70.1452,325.3519 70.1452,325.3519 70.1452,325.9769 70.1452,325.9769 69.8327,326.9144 69.8327,326.9144 69.2077,327.5394 69.2077,327.5394 68.2702,327.8519 68.2702,327.8519 67.3327,327.8519 67.3327,327.8519 66.3952,327.5394 66.3952,327.5394 66.0827,327.2269 66.0827,327.2269 65.7702,326.6019"/>
    <line x1="73.7156" x2="73.7156" y1="330.7677" y2="343.8927"/>
    <line x1="82.4656" x2="73.7156" y1="330.7677" y2="339.5177"/>
    <line x1="76.8406" x2="82.4656" y1="336.3927" y2="343.8927"/>
    <line x1="94.4882" x2="132.2835" y1="357.1654" y2="357.1654"/>
    <line x1="115.8858" x2="115.8858" y1="330.7677" y2="343.8927"/>
    <polyline points="158.0561,330.7677 158.0561,343.8927 158.0561,343.8927 149.3061,330.7677 149.3061,330.7677 149.3061,343.8927"/>
    <line x1="207.874" x2="207.874" y1="357.1654" y2="319.3701"/>
    <polygon points="187.1014,330.7677 187.1014,343.8927 187.1014,343.8927 191.4764,343.8927 191.4764,343.8927 193.3514,343.2677 193.3514,343.2677 194.6014,342.0177 194.6014,342.0177 195.2264,340.7677 195.2264,340.7677 195.8514,338.8927 195.8514,338.8927 195.8514,335.7677 195.8514,335.7677 195.2264,333.8927 195.2264,333.8927 194.6014,332.6427 194.6014,332.6427 193.3514,331.3927 193.3514,331.3927 191.4764,330.7677 191.4764,330.7677"/>
    <polyline points="233.3342,330.7677 225.2092,330.7677 225.2092,330.7677 225.2092,343.8927 225.2092,343.8927 233.3342,343.8927"/>
    <line x1="225.2092" x2="230.2092" y1="337.0177" y2="337.0177"/>
    <polyline points="245.6693,357.1654 283.4646,357.1654 283.4646,357.1654 283.4646,319.3701 283.4646,319.3701 245.6693,319.3701"/>
    <polyline points="262.6919,337.0177 268.3169,337.0177 268.3169,337.0177 270.1919,336.3927 270.1919,336.3927 270.8169,335.7677 270.8169,335.7677 271.4419,334.5177 271.4419,334.5177 271.4419,333.2677 271.4419,333.2677 270.8169,332.0177 270.8169,332.0177 270.1919,331.3927 270.1919,331.3927 268.3169,330.7677 268.3169,330.7677 262.6919,330.7677 262.6919,330.7677 262.6919,343.8927"/>
    <line x1="267.0669" x2="271.4419" y1="337.0177" y2="343.8927"/>
    <polyline points="283.4646,357.1654 321.2598,357.1654 321.2598,357.1654 359.0551,357.1654 359.0551,357.1654 359.0551,319.3701 359.0551,319.3701 321.2598,319.3701 321.2598,319.3701 283.4646,319.3701"/>
    <line x1="321.2598" x2="321.2598" y1="357.1654" y2="319.3701"/>
    <polyline points="308.9247,330.7677 300.7997,330.7677 300.7997,330.7677 300.7997,343.8927 300.7997,343.8927 308.9247,343.8927"/>
    <line x1="300.7997" x2="305.7997" y1="337.0177" y2="337.0177"/>
    <polyline points="347.0325,330.7677 347.0325,343.8927 347.0325,343.8927 338.2825,330.7677 338.2825,330.7677 338.2825,343.8927"/>
    <polyline points="514.001,322.5394 514.626,322.2269 514.626,322.2269 515.5635,321.2894 515.5635,321.2894 515.5635,327.8519"/>
    <polyline points="522.4385,327.8519 522.4385,321.2894 522.4385,321.2894 519.3135,325.6644 519.3135,325.6644 524.001,325.6644"/>
    <polyline points="527.2589,337.6427 532.8839,337.6427 532.8839,337.6427 534.7589,337.0177 534.7589,337.0177 535.3839,336.3927 535.3839,336.3927 536.0089,335.1427 536.0089,335.1427 536.0089,333.2677 536.0089,333.2677 535.3839,332.0177 535.3839,332.0177 534.7589,331.3927 534.7589,331.3927 532.8839,330.7677 532.8839,330.7677 527.2589,330.7677 527.2589,330.7677 527.2589,343.8927"/>
    <line x1="569.4291" x2="569.4291" y1="330.7677" y2="343.8927"/>
    <polyline points="585.8268,357.1654 623.622,357.1654 623.622,357.1654 661.4173,357.1654"/>
    <line x1="623.622" x2="623.622" y1="357.1654" y2="319.3701"/>
    <polyline points="611.5994,330.7677 611.5994,343.8927 611.5994,343.8927 602.8494,330.7677 602.8494,330.7677 602.8494,343.8927"/>
    <line x1="640.6447" x2="640.6447" y1="330.7677" y2="343.8927"/>
    <line x1="649.3947" x2="640.6447" y1="330.7677" y2="339.5177"/>
    <line x1="643.7697" x2="649.3947" y1="336.3927" y2="343.8927"/>
    <polyline points="686.8775,330.7677 678.7525,330.7677 678.7525,330.7677 678.7525,343.8927 678.7525,343.8927 686.8775,343.8927"/>
    <line x1="678.7525" x2="683.7525" y1="337.0177" y2="337.0177"/>
    <line x1="699.2126" x2="737.0079" y1="357.1654" y2="357.1654"/>
    <polyline points="716.2352,337.0177 721.8602,337.0177 721.8602,337.0177 723.7352,336.3927 723.7352,336.3927 724.3602,335.7677 724.3602,335.7677 724.9852,334.5177 724.9852,334.5177 724.9852,333.2677 724.9852,333.2677 724.3602,332.0177 724.3602,332.0177 723.7352,331.3927 723.7352,331.3927 721.8602,330.7677 721.8602,330.7677 716.2352,330.7677 716.2352,330.7677 716.2352,343.8927"/>
    <line x1="720.6102" x2="724.9852" y1="337.0177" y2="343.8927"/>
    <polyline points="762.1555,332.6427 760.9055,331.3927 760.9055,331.3927 759.0305,330.7677 759.0305,330.7677 756.5305,330.7677 756.5305,330.7677 754.6555,331.3927 754.6555,331.3927 753.4055,332.6427 753.4055,332.6427 753.4055,333.8927 753.4055,333.8927 754.0305,335.1427 754.0305,335.1427 754.6555,335.7677 754.6555,335.7677 755.9055,336.3927 755.9055,336.3927 759.6555,337.6427 759.6555,337.6427 760.9055,338.2677 760.9055,338.2677 761.5305,338.8927 761.5305,338.8927 762.1555,340.1427 762.1555,340.1427 762.1555,342.0177 762.1555,342.0177 760.9055,343.2677 760.9055,343.2677 759.0305,343.8927 759.0305,343.8927 756.5305,343.8927 756.5305,343.8927 754.6555,343.2677 754.6555,343.2677 753.4055,342.0177"/>
  </g>
</svg>
