<?xml version="1.0" encoding="utf-8" ?>
<svg xmlns="http://www.w3.org/2000/svg" xmlns:cc="http://creativecommons.org/ns" xmlns:dc="http://purl.org/dc/elements/1.1/" xmlns:ev="http://www.w3.org/2001/xml-events" xmlns:inkscape="http://www.inkscape.org/namespaces/inkscape" xmlns:rdf="http://www.w3.org/1999/02/22-rdf-syntax-ns" xmlns:sodipodi="http://sodipodi.sourceforge.net/DTD/sodipodi-0.dtd" xmlns:xlink="http://www.w3.org/1999/xlink" baseProfile="tiny" height="9.0cm" version="1.2" viewBox="0 0 793.7007874015749 340.15748031496065" width="21.0cm">
  <metadata>
    <rdf:RDF>
      <cc:Work>
        <dc:format>image/svg+xml</dc:format>
        <dc:source>vpype eval 'cell=10;width=210;height=99' eval 'nCols=21;nRows=9' eval 'cells=[0,5,7,10,11,12,13,14,15,16,17,20,22,24,25,26,27,28,33,39,40,42,45,47,49,50,51,52,53,54,55,56,57,59,60,62,65,67,73,76,79,80,82,86,87,88,89,90,91,92,93,94,96,97,98,99,100,101,102,103,104,105,107,113,116,120,122,127,130,131,132,133,134,135,136,140,141,142,143,144,145,146,147,153,162,167,169,170,171,172,173,174,175,176,177]' eval 'chars=[&quot;F&quot;,&quot;G&quot;,&quot;U&quot;,&quot;P&quot;,&quot;A&quot;,&quot;R&quot;,&quot;K&quot;,&quot;E&quot;,&quot;R&quot;,&quot;E&quot;,&quot;N&quot;,&quot;R&quot;,&quot;H&quot;,&quot;T&quot;,&quot;R&quot;,&quot;E&quot;,&quot;I&quot;,&quot;N&quot;,&quot;L&quot;,&quot;S&quot;,&quot;I&quot;,&quot;A&quot;,&quot;A&quot;,&quot;T&quot;,&quot;M&quot;,&quot;A&quot;,&quot;N&quot;,&quot;D&quot;,&quot;A&quot;,&quot;R&quot;,&quot;I&quot;,&quot;J&quot;,&quot;N&quot;,&quot;A&quot;,&quot;E&quot;,&quot;N&quot;,&quot;S&quot;,&quot;L&quot;,&quot;V&quot;,&quot;O&quot;,&quot;A&quot;,&quot;T&quot;,&quot;D&quot;,&quot;U&quot;,&quot;I&quot;,&quot;T&quot;,&quot;L&quot;,&quot;I&quot;,&quot;K&quot;,&quot;K&quot;,&quot;E&quot;,&quot;N&quot;,&quot;N&quot;,&quot;O&quot;,&quot;O&quot;,&quot;R&quot;,&quot;J&quot;,&quot;U&quot;,&quot;D&quot;,&quot;I&quot;,&quot;T&quot;,&quot;H&quot;,&quot;K&quot;,&quot;R&quot;,&quot;A&quot;,&quot;E&quot;,&quot;O&quot;,&quot;K&quot;,&quot;R&quot;,&quot;E&quot;,&quot;S&quot;,&quot;T&quot;,&quot;J&quot;,&quot;E&quot;,&quot;S&quot;,&quot;S&quot;,&quot;K&quot;,&quot;E&quot;,&quot;L&quot;,&quot;L&quot;,&quot;E&quot;,&quot;K&quot;,&quot;E&quot;,&quot;J&quot;,&quot;K&quot;,&quot;N&quot;,&quot;R&quot;,&quot;E&quot;,&quot;K&quot;,&quot;K&quot;,&quot;E&quot;,&quot;R&quot;,&quot;T&quot;,&quot;J&quot;,&quot;E&quot;]' eval 'numbers=[0,5,7,10,13,22,24,39,49,56,86,96,100,130,140,169]' eval counter=1 eval charIndex=0 begin grid -o '%cell*mm%' '%cell*mm%' %nCols% %nRows% eval '%isCell=_i in cells%' eval '%number=_i in numbers%' eval '%size=10 if isCell else 0%' rect 0 0 '%size*mm%' '%size*mm%' text -s 8 -p 0.5mm 1.5mm '%counter if number else '&quot;'&quot;''&quot;'&quot;'%' text -s 20 -p 5mm 5mm -a center '%chars[charIndex] if isCell else '&quot;'&quot;''&quot;'&quot;'%' eval '%if number: counter+=1 %' eval '%if isCell: charIndex+=1 %' end write ./svgs/solution/4af9ab.svg
</dc:source>
        <dc:date>2023-12-20T21:39:18.435646</dc:date>
      </cc:Work>
    </rdf:RDF>
  </metadata>
  <defs/>
  <g fill="none" id="layer1" inkscape:groupmode="layer" inkscape:label="1" stroke="#0000ff" style="display:inline">
    <polygon points="0.0,0.0 0.0,37.7953 37.7953,37.7953 37.7953,0.0"/>
    <polyline points="3.3898,3.6693 3.8898,3.4193 4.6398,2.6693 4.6398,7.9193"/>
    <line x1="17.3351" x2="17.3351" y1="11.3976" y2="24.5226"/>
    <line x1="17.3351" x2="25.4601" y1="11.3976" y2="11.3976"/>
    <line x1="17.3351" x2="22.3351" y1="17.6476" y2="17.6476"/>
    <polygon points="37.7953,0.0 37.7953,0.0 37.7953,0.0 37.7953,0.0"/>
    <polygon points="75.5906,0.0 75.5906,0.0 75.5906,0.0 75.5906,0.0"/>
    <polygon points="113.3858,0.0 113.3858,0.0 113.3858,0.0 113.3858,0.0"/>
    <polygon points="151.1811,0.0 151.1811,0.0 151.1811,0.0 151.1811,0.0"/>
    <polygon points="188.9764,0.0 188.9764,37.7953 226.7717,37.7953 226.7717,0.0"/>
    <polyline points="191.8661,3.9193 191.8661,3.6693 192.1161,3.1693 192.3661,2.9193 192.8661,2.6693 193.8661,2.6693 194.3661,2.9193 194.6161,3.1693 194.8661,3.6693 194.8661,4.1693 194.6161,4.6693 194.1161,5.4193 191.6161,7.9193 195.1161,7.9193"/>
    <polyline points="214.4365,14.5226 213.8115,13.2726 212.5615,12.0226 211.3115,11.3976 208.8115,11.3976 207.5615,12.0226 206.3115,13.2726 205.6865,14.5226 205.0615,16.3976 205.0615,19.5226 205.6865,21.3976 206.3115,22.6476 207.5615,23.8976 208.8115,24.5226 211.3115,24.5226 212.5615,23.8976 213.8115,22.6476 214.4365,21.3976 214.4365,19.5226"/>
    <line x1="211.3115" x2="214.4365" y1="19.5226" y2="19.5226"/>
    <polygon points="226.7717,0.0 226.7717,0.0 226.7717,0.0 226.7717,0.0"/>
    <polygon points="264.5669,0.0 264.5669,37.7953 302.3622,37.7953 302.3622,0.0"/>
    <polyline points="267.7067,2.6693 270.4567,2.6693 268.9567,4.6693 269.7067,4.6693 270.2067,4.9193 270.4567,5.1693 270.7067,5.9193 270.7067,6.4193 270.4567,7.1693 269.9567,7.6693 269.2067,7.9193 268.4567,7.9193 267.7067,7.6693 267.4567,7.4193 267.2067,6.9193"/>
    <polyline points="281.5896,11.3976 281.5896,20.7726 282.2146,22.6476 283.4646,23.8976 285.3396,24.5226 286.5896,24.5226 288.4646,23.8976 289.7146,22.6476 290.3396,20.7726 290.3396,11.3976"/>
    <polygon points="302.3622,0.0 302.3622,0.0 302.3622,0.0 302.3622,0.0"/>
    <polygon points="340.1575,0.0 340.1575,0.0 340.1575,0.0 340.1575,0.0"/>
    <polygon points="377.9528,0.0 377.9528,37.7953 415.748,37.7953 415.748,0.0"/>
    <polyline points="383.0925,2.6693 380.5925,6.1693 384.3425,6.1693"/>
    <line x1="383.0925" x2="383.0925" y1="2.6693" y2="7.9193"/>
    <line x1="394.9754" x2="394.9754" y1="11.3976" y2="24.5226"/>
    <polyline points="394.9754,11.3976 400.6004,11.3976 402.4754,12.0226 403.1004,12.6476 403.7254,13.8976 403.7254,15.7726 403.1004,17.0226 402.4754,17.6476 400.6004,18.2726 394.9754,18.2726"/>
    <polygon points="415.748,0.0 415.748,37.7953 453.5433,37.7953 453.5433,0.0"/>
    <line x1="435.2707" x2="430.2707" y1="11.3976" y2="24.5226"/>
    <line x1="435.2707" x2="440.2707" y1="11.3976" y2="24.5226"/>
    <line x1="432.1457" x2="438.3957" y1="20.1476" y2="20.1476"/>
    <polygon points="453.5433,0.0 453.5433,37.7953 491.3386,37.7953 491.3386,0.0"/>
    <line x1="470.5659" x2="470.5659" y1="11.3976" y2="24.5226"/>
    <polyline points="470.5659,11.3976 476.1909,11.3976 478.0659,12.0226 478.6909,12.6476 479.3159,13.8976 479.3159,15.1476 478.6909,16.3976 478.0659,17.0226 476.1909,17.6476 470.5659,17.6476"/>
    <line x1="474.9409" x2="479.3159" y1="17.6476" y2="24.5226"/>
    <polygon points="491.3386,0.0 491.3386,37.7953 529.1339,37.7953 529.1339,0.0"/>
    <polyline points="496.9783,2.6693 494.4783,2.6693 494.2283,4.9193 494.4783,4.6693 495.2283,4.4193 495.9783,4.4193 496.7283,4.6693 497.2283,5.1693 497.4783,5.9193 497.4783,6.4193 497.2283,7.1693 496.7283,7.6693 495.9783,7.9193 495.2283,7.9193 494.4783,7.6693 494.2283,7.4193 493.9783,6.9193"/>
    <line x1="508.3612" x2="508.3612" y1="11.3976" y2="24.5226"/>
    <line x1="517.1112" x2="508.3612" y1="11.3976" y2="20.1476"/>
    <line x1="511.4862" x2="517.1112" y1="17.0226" y2="24.5226"/>
    <polygon points="529.1339,0.0 529.1339,37.7953 566.9291,37.7953 566.9291,0.0"/>
    <line x1="546.469" x2="546.469" y1="11.3976" y2="24.5226"/>
    <line x1="546.469" x2="554.594" y1="11.3976" y2="11.3976"/>
    <line x1="546.469" x2="551.469" y1="17.6476" y2="17.6476"/>
    <line x1="546.469" x2="554.594" y1="24.5226" y2="24.5226"/>
    <polygon points="566.9291,0.0 566.9291,37.7953 604.7244,37.7953 604.7244,0.0"/>
    <line x1="583.9518" x2="583.9518" y1="11.3976" y2="24.5226"/>
    <polyline points="583.9518,11.3976 589.5768,11.3976 591.4518,12.0226 592.0768,12.6476 592.7018,13.8976 592.7018,15.1476 592.0768,16.3976 591.4518,17.0226 589.5768,17.6476 583.9518,17.6476"/>
    <line x1="588.3268" x2="592.7018" y1="17.6476" y2="24.5226"/>
    <polygon points="604.7244,0.0 604.7244,37.7953 642.5197,37.7953 642.5197,0.0"/>
    <line x1="622.0595" x2="622.0595" y1="11.3976" y2="24.5226"/>
    <line x1="622.0595" x2="630.1845" y1="11.3976" y2="11.3976"/>
    <line x1="622.0595" x2="627.0595" y1="17.6476" y2="17.6476"/>
    <line x1="622.0595" x2="630.1845" y1="24.5226" y2="24.5226"/>
    <polygon points="642.5197,0.0 642.5197,37.7953 680.315,37.7953 680.315,0.0"/>
    <line x1="659.5423" x2="659.5423" y1="11.3976" y2="24.5226"/>
    <line x1="659.5423" x2="668.2923" y1="11.3976" y2="24.5226"/>
    <line x1="668.2923" x2="668.2923" y1="11.3976" y2="24.5226"/>
    <polygon points="680.315,0.0 680.315,0.0 680.315,0.0 680.315,0.0"/>
    <polygon points="718.1102,0.0 718.1102,0.0 718.1102,0.0 718.1102,0.0"/>
    <polygon points="755.9055,0.0 755.9055,37.7953 793.7008,37.7953 793.7008,0.0"/>
    <line x1="772.9281" x2="772.9281" y1="11.3976" y2="24.5226"/>
    <polyline points="772.9281,11.3976 778.5531,11.3976 780.4281,12.0226 781.0531,12.6476 781.6781,13.8976 781.6781,15.1476 781.0531,16.3976 780.4281,17.0226 778.5531,17.6476 772.9281,17.6476"/>
    <line x1="777.3031" x2="781.6781" y1="17.6476" y2="24.5226"/>
    <polygon points="0.0,37.7953 0.0,37.7953 0.0,37.7953 0.0,37.7953"/>
    <polygon points="37.7953,37.7953 37.7953,75.5906 75.5906,75.5906 75.5906,37.7953"/>
    <polyline points="43.685,41.2146 43.435,40.7146 42.685,40.4646 42.185,40.4646 41.435,40.7146 40.935,41.4646 40.685,42.7146 40.685,43.9646 40.935,44.9646 41.435,45.4646 42.185,45.7146 42.435,45.7146 43.185,45.4646 43.685,44.9646 43.935,44.2146 43.935,43.9646 43.685,43.2146 43.185,42.7146 42.435,42.4646 42.185,42.4646 41.435,42.7146 40.935,43.2146 40.685,43.9646"/>
    <line x1="54.8179" x2="54.8179" y1="49.1929" y2="62.3179"/>
    <line x1="63.5679" x2="63.5679" y1="49.1929" y2="62.3179"/>
    <line x1="54.8179" x2="63.5679" y1="55.4429" y2="55.4429"/>
    <polygon points="75.5906,37.7953 75.5906,37.7953 75.5906,37.7953 75.5906,37.7953"/>
    <polygon points="113.3858,37.7953 113.3858,75.5906 151.1811,75.5906 151.1811,37.7953"/>
    <line x1="119.5256" x2="117.0256" y1="40.4646" y2="45.7146"/>
    <line x1="116.0256" x2="119.5256" y1="40.4646" y2="40.4646"/>
    <line x1="132.9085" x2="132.9085" y1="49.1929" y2="62.3179"/>
    <line x1="128.5335" x2="137.2835" y1="49.1929" y2="49.1929"/>
    <polygon points="151.1811,37.7953 151.1811,75.5906 188.9764,75.5906 188.9764,37.7953"/>
    <line x1="168.2037" x2="168.2037" y1="49.1929" y2="62.3179"/>
    <polyline points="168.2037,49.1929 173.8287,49.1929 175.7037,49.8179 176.3287,50.4429 176.9537,51.6929 176.9537,52.9429 176.3287,54.1929 175.7037,54.8179 173.8287,55.4429 168.2037,55.4429"/>
    <line x1="172.5787" x2="176.9537" y1="55.4429" y2="62.3179"/>
    <polygon points="188.9764,37.7953 188.9764,75.5906 226.7717,75.5906 226.7717,37.7953"/>
    <line x1="206.3115" x2="206.3115" y1="49.1929" y2="62.3179"/>
    <line x1="206.3115" x2="214.4365" y1="49.1929" y2="49.1929"/>
    <line x1="206.3115" x2="211.3115" y1="55.4429" y2="55.4429"/>
    <line x1="206.3115" x2="214.4365" y1="62.3179" y2="62.3179"/>
    <polygon points="226.7717,37.7953 226.7717,75.5906 264.5669,75.5906 264.5669,37.7953"/>
    <line x1="248.1693" x2="248.1693" y1="49.1929" y2="62.3179"/>
    <polygon points="264.5669,37.7953 264.5669,75.5906 302.3622,75.5906 302.3622,37.7953"/>
    <line x1="281.5896" x2="281.5896" y1="49.1929" y2="62.3179"/>
    <line x1="281.5896" x2="290.3396" y1="49.1929" y2="62.3179"/>
    <line x1="290.3396" x2="290.3396" y1="49.1929" y2="62.3179"/>
    <polygon points="302.3622,37.7953 302.3622,37.7953 302.3622,37.7953 302.3622,37.7953"/>
    <polygon points="340.1575,37.7953 340.1575,37.7953 340.1575,37.7953 340.1575,37.7953"/>
    <polygon points="377.9528,37.7953 377.9528,37.7953 377.9528,37.7953 377.9528,37.7953"/>
    <polygon points="415.748,37.7953 415.748,37.7953 415.748,37.7953 415.748,37.7953"/>
    <polygon points="453.5433,37.7953 453.5433,75.5906 491.3386,75.5906 491.3386,37.7953"/>
    <line x1="471.1909" x2="471.1909" y1="49.1929" y2="62.3179"/>
    <line x1="471.1909" x2="478.6909" y1="62.3179" y2="62.3179"/>
    <polygon points="491.3386,37.7953 491.3386,37.7953 491.3386,37.7953 491.3386,37.7953"/>
    <polygon points="529.1339,37.7953 529.1339,37.7953 529.1339,37.7953 529.1339,37.7953"/>
    <polygon points="566.9291,37.7953 566.9291,37.7953 566.9291,37.7953 566.9291,37.7953"/>
    <polygon points="604.7244,37.7953 604.7244,37.7953 604.7244,37.7953 604.7244,37.7953"/>
    <polygon points="642.5197,37.7953 642.5197,37.7953 642.5197,37.7953 642.5197,37.7953"/>
    <polygon points="680.315,37.7953 680.315,75.5906 718.1102,75.5906 718.1102,37.7953"/>
    <polygon points="684.2047,40.4646 683.4547,40.7146 683.2047,41.2146 683.2047,41.7146 683.4547,42.2146 683.9547,42.4646 684.9547,42.7146 685.7047,42.9646 686.2047,43.4646 686.4547,43.9646 686.4547,44.7146 686.2047,45.2146 685.9547,45.4646 685.2047,45.7146 684.2047,45.7146 683.4547,45.4646 683.2047,45.2146 682.9547,44.7146 682.9547,43.9646 683.2047,43.4646 683.7047,42.9646 684.4547,42.7146 685.4547,42.4646 685.9547,42.2146 686.2047,41.7146 686.2047,41.2146 685.9547,40.7146 685.2047,40.4646"/>
    <polyline points="705.4626,51.0679 704.2126,49.8179 702.3376,49.1929 699.8376,49.1929 697.9626,49.8179 696.7126,51.0679 696.7126,52.3179 697.3376,53.5679 697.9626,54.1929 699.2126,54.8179 702.9626,56.0679 704.2126,56.6929 704.8376,57.3179 705.4626,58.5679 705.4626,60.4429 704.2126,61.6929 702.3376,62.3179 699.8376,62.3179 697.9626,61.6929 696.7126,60.4429"/>
    <polygon points="718.1102,37.7953 718.1102,75.5906 755.9055,75.5906 755.9055,37.7953"/>
    <line x1="739.5079" x2="739.5079" y1="49.1929" y2="62.3179"/>
    <polygon points="755.9055,37.7953 755.9055,37.7953 755.9055,37.7953 755.9055,37.7953"/>
    <polygon points="0.0,75.5906 0.0,113.3858 37.7953,113.3858 37.7953,75.5906"/>
    <line x1="19.5226" x2="14.5226" y1="86.9882" y2="100.1132"/>
    <line x1="19.5226" x2="24.5226" y1="86.9882" y2="100.1132"/>
    <line x1="16.3976" x2="22.6476" y1="95.7382" y2="95.7382"/>
    <polygon points="37.7953,75.5906 37.7953,75.5906 37.7953,75.5906 37.7953,75.5906"/>
    <polygon points="75.5906,75.5906 75.5906,75.5906 75.5906,75.5906 75.5906,75.5906"/>
    <polygon points="113.3858,75.5906 113.3858,113.3858 151.1811,113.3858 151.1811,75.5906"/>
    <line x1="132.9085" x2="127.9085" y1="86.9882" y2="100.1132"/>
    <line x1="132.9085" x2="137.9085" y1="86.9882" y2="100.1132"/>
    <line x1="129.7835" x2="136.0335" y1="95.7382" y2="95.7382"/>
    <polygon points="151.1811,75.5906 151.1811,75.5906 151.1811,75.5906 151.1811,75.5906"/>
    <polygon points="188.9764,75.5906 188.9764,113.3858 226.7717,113.3858 226.7717,75.5906"/>
    <line x1="208.499" x2="208.499" y1="86.9882" y2="100.1132"/>
    <line x1="204.124" x2="212.874" y1="86.9882" y2="86.9882"/>
    <polygon points="226.7717,75.5906 226.7717,75.5906 226.7717,75.5906 226.7717,75.5906"/>
    <polygon points="264.5669,75.5906 264.5669,113.3858 302.3622,113.3858 302.3622,75.5906"/>
    <polyline points="270.4567,80.0098 270.2067,80.7598 269.7067,81.2598 268.9567,81.5098 268.7067,81.5098 267.9567,81.2598 267.4567,80.7598 267.2067,80.0098 267.2067,79.7598 267.4567,79.0098 267.9567,78.5098 268.7067,78.2598 268.9567,78.2598 269.7067,78.5098 270.2067,79.0098 270.4567,80.0098 270.4567,81.2598 270.2067,82.5098 269.7067,83.2598 268.9567,83.5098 268.4567,83.5098 267.7067,83.2598 267.4567,82.7598"/>
    <line x1="280.9646" x2="280.9646" y1="86.9882" y2="100.1132"/>
    <line x1="280.9646" x2="285.9646" y1="86.9882" y2="100.1132"/>
    <line x1="290.9646" x2="285.9646" y1="86.9882" y2="100.1132"/>
    <line x1="290.9646" x2="290.9646" y1="86.9882" y2="100.1132"/>
    <polygon points="302.3622,75.5906 302.3622,113.3858 340.1575,113.3858 340.1575,75.5906"/>
    <line x1="321.8848" x2="316.8848" y1="86.9882" y2="100.1132"/>
    <line x1="321.8848" x2="326.8848" y1="86.9882" y2="100.1132"/>
    <line x1="318.7598" x2="325.0098" y1="95.7382" y2="95.7382"/>
    <polygon points="340.1575,75.5906 340.1575,113.3858 377.9528,113.3858 377.9528,75.5906"/>
    <line x1="357.1801" x2="357.1801" y1="86.9882" y2="100.1132"/>
    <line x1="357.1801" x2="365.9301" y1="86.9882" y2="100.1132"/>
    <line x1="365.9301" x2="365.9301" y1="86.9882" y2="100.1132"/>
    <polygon points="377.9528,75.5906 377.9528,113.3858 415.748,113.3858 415.748,75.5906"/>
    <line x1="394.9754" x2="394.9754" y1="86.9882" y2="100.1132"/>
    <polyline points="394.9754,86.9882 399.3504,86.9882 401.2254,87.6132 402.4754,88.8632 403.1004,90.1132 403.7254,91.9882 403.7254,95.1132 403.1004,96.9882 402.4754,98.2382 401.2254,99.4882 399.3504,100.1132 394.9754,100.1132"/>
    <polygon points="415.748,75.5906 415.748,113.3858 453.5433,113.3858 453.5433,75.5906"/>
    <line x1="435.2707" x2="430.2707" y1="86.9882" y2="100.1132"/>
    <line x1="435.2707" x2="440.2707" y1="86.9882" y2="100.1132"/>
    <line x1="432.1457" x2="438.3957" y1="95.7382" y2="95.7382"/>
    <polygon points="453.5433,75.5906 453.5433,113.3858 491.3386,113.3858 491.3386,75.5906"/>
    <line x1="470.5659" x2="470.5659" y1="86.9882" y2="100.1132"/>
    <polyline points="470.5659,86.9882 476.1909,86.9882 478.0659,87.6132 478.6909,88.2382 479.3159,89.4882 479.3159,90.7382 478.6909,91.9882 478.0659,92.6132 476.1909,93.2382 470.5659,93.2382"/>
    <line x1="474.9409" x2="479.3159" y1="93.2382" y2="100.1132"/>
    <polygon points="491.3386,75.5906 491.3386,113.3858 529.1339,113.3858 529.1339,75.5906"/>
    <line x1="512.7362" x2="512.7362" y1="86.9882" y2="100.1132"/>
    <polygon points="529.1339,75.5906 529.1339,113.3858 566.9291,113.3858 566.9291,75.5906"/>
    <polyline points="532.5236,79.2598 533.0236,79.0098 533.7736,78.2598 533.7736,83.5098"/>
    <polygon points="538.2736,78.2598 537.5236,78.5098 537.0236,79.2598 536.7736,80.5098 536.7736,81.2598 537.0236,82.5098 537.5236,83.2598 538.2736,83.5098 538.7736,83.5098 539.5236,83.2598 540.0236,82.5098 540.2736,81.2598 540.2736,80.5098 540.0236,79.2598 539.5236,78.5098 538.7736,78.2598"/>
    <polyline points="552.4065,86.9882 552.4065,96.9882 551.7815,98.8632 551.1565,99.4882 549.9065,100.1132 548.6565,100.1132 547.4065,99.4882 546.7815,98.8632 546.1565,96.9882 546.1565,95.7382"/>
    <polygon points="566.9291,75.5906 566.9291,113.3858 604.7244,113.3858 604.7244,75.5906"/>
    <line x1="583.9518" x2="583.9518" y1="86.9882" y2="100.1132"/>
    <line x1="583.9518" x2="592.7018" y1="86.9882" y2="100.1132"/>
    <line x1="592.7018" x2="592.7018" y1="86.9882" y2="100.1132"/>
    <polygon points="604.7244,75.5906 604.7244,75.5906 604.7244,75.5906 604.7244,75.5906"/>
    <polygon points="642.5197,75.5906 642.5197,113.3858 680.315,113.3858 680.315,75.5906"/>
    <line x1="662.0423" x2="657.0423" y1="86.9882" y2="100.1132"/>
    <line x1="662.0423" x2="667.0423" y1="86.9882" y2="100.1132"/>
    <line x1="658.9173" x2="665.1673" y1="95.7382" y2="95.7382"/>
    <polygon points="680.315,75.5906 680.315,113.3858 718.1102,113.3858 718.1102,75.5906"/>
    <line x1="697.6501" x2="697.6501" y1="86.9882" y2="100.1132"/>
    <line x1="697.6501" x2="705.7751" y1="86.9882" y2="86.9882"/>
    <line x1="697.6501" x2="702.6501" y1="93.2382" y2="93.2382"/>
    <line x1="697.6501" x2="705.7751" y1="100.1132" y2="100.1132"/>
    <polygon points="718.1102,75.5906 718.1102,75.5906 718.1102,75.5906 718.1102,75.5906"/>
    <polygon points="755.9055,75.5906 755.9055,113.3858 793.7008,113.3858 793.7008,75.5906"/>
    <line x1="772.9281" x2="772.9281" y1="86.9882" y2="100.1132"/>
    <line x1="772.9281" x2="781.6781" y1="86.9882" y2="100.1132"/>
    <line x1="781.6781" x2="781.6781" y1="86.9882" y2="100.1132"/>
    <polygon points="0.0,113.3858 0.0,113.3858 0.0,113.3858 0.0,113.3858"/>
    <polygon points="37.7953,113.3858 37.7953,113.3858 37.7953,113.3858 37.7953,113.3858"/>
    <polygon points="75.5906,113.3858 75.5906,151.1811 113.3858,151.1811 113.3858,113.3858"/>
    <polyline points="100.7382,126.6585 99.4882,125.4085 97.6132,124.7835 95.1132,124.7835 93.2382,125.4085 91.9882,126.6585 91.9882,127.9085 92.6132,129.1585 93.2382,129.7835 94.4882,130.4085 98.2382,131.6585 99.4882,132.2835 100.1132,132.9085 100.7382,134.1585 100.7382,136.0335 99.4882,137.2835 97.6132,137.9085 95.1132,137.9085 93.2382,137.2835 91.9882,136.0335"/>
    <polygon points="113.3858,113.3858 113.3858,113.3858 113.3858,113.3858 113.3858,113.3858"/>
    <polygon points="151.1811,113.3858 151.1811,151.1811 188.9764,151.1811 188.9764,113.3858"/>
    <line x1="168.8287" x2="168.8287" y1="124.7835" y2="137.9085"/>
    <line x1="168.8287" x2="176.3287" y1="137.9085" y2="137.9085"/>
    <polygon points="188.9764,113.3858 188.9764,113.3858 188.9764,113.3858 188.9764,113.3858"/>
    <polygon points="226.7717,113.3858 226.7717,113.3858 226.7717,113.3858 226.7717,113.3858"/>
    <polygon points="264.5669,113.3858 264.5669,113.3858 264.5669,113.3858 264.5669,113.3858"/>
    <polygon points="302.3622,113.3858 302.3622,113.3858 302.3622,113.3858 302.3622,113.3858"/>
    <polygon points="340.1575,113.3858 340.1575,113.3858 340.1575,113.3858 340.1575,113.3858"/>
    <polygon points="377.9528,113.3858 377.9528,151.1811 415.748,151.1811 415.748,113.3858"/>
    <line x1="392.4754" x2="397.4754" y1="124.7835" y2="137.9085"/>
    <line x1="402.4754" x2="397.4754" y1="124.7835" y2="137.9085"/>
    <polygon points="415.748,113.3858 415.748,113.3858 415.748,113.3858 415.748,113.3858"/>
    <polygon points="453.5433,113.3858 453.5433,113.3858 453.5433,113.3858 453.5433,113.3858"/>
    <polygon points="491.3386,113.3858 491.3386,151.1811 529.1339,151.1811 529.1339,113.3858"/>
    <polygon points="510.8612,124.7835 509.6112,125.4085 508.3612,126.6585 507.7362,127.9085 507.1112,129.7835 507.1112,132.9085 507.7362,134.7835 508.3612,136.0335 509.6112,137.2835 510.8612,137.9085 513.3612,137.9085 514.6112,137.2835 515.8612,136.0335 516.4862,134.7835 517.1112,132.9085 517.1112,129.7835 516.4862,127.9085 515.8612,126.6585 514.6112,125.4085 513.3612,124.7835"/>
    <polygon points="529.1339,113.3858 529.1339,113.3858 529.1339,113.3858 529.1339,113.3858"/>
    <polygon points="566.9291,113.3858 566.9291,113.3858 566.9291,113.3858 566.9291,113.3858"/>
    <polygon points="604.7244,113.3858 604.7244,151.1811 642.5197,151.1811 642.5197,113.3858"/>
    <line x1="624.247" x2="619.247" y1="124.7835" y2="137.9085"/>
    <line x1="624.247" x2="629.247" y1="124.7835" y2="137.9085"/>
    <line x1="621.122" x2="627.372" y1="133.5335" y2="133.5335"/>
    <polygon points="642.5197,113.3858 642.5197,151.1811 680.315,151.1811 680.315,113.3858"/>
    <line x1="662.0423" x2="662.0423" y1="124.7835" y2="137.9085"/>
    <line x1="657.6673" x2="666.4173" y1="124.7835" y2="124.7835"/>
    <polygon points="680.315,113.3858 680.315,113.3858 680.315,113.3858 680.315,113.3858"/>
    <polygon points="718.1102,113.3858 718.1102,151.1811 755.9055,151.1811 755.9055,113.3858"/>
    <line x1="735.1329" x2="735.1329" y1="124.7835" y2="137.9085"/>
    <polyline points="735.1329,124.7835 739.5079,124.7835 741.3829,125.4085 742.6329,126.6585 743.2579,127.9085 743.8829,129.7835 743.8829,132.9085 743.2579,134.7835 742.6329,136.0335 741.3829,137.2835 739.5079,137.9085 735.1329,137.9085"/>
    <polygon points="755.9055,113.3858 755.9055,113.3858 755.9055,113.3858 755.9055,113.3858"/>
    <polygon points="0.0,151.1811 0.0,151.1811 0.0,151.1811 0.0,151.1811"/>
    <polygon points="37.7953,151.1811 37.7953,151.1811 37.7953,151.1811 37.7953,151.1811"/>
    <polygon points="75.5906,151.1811 75.5906,188.9764 113.3858,188.9764 113.3858,151.1811"/>
    <polyline points="78.9803,154.8504 79.4803,154.6004 80.2303,153.8504 80.2303,159.1004"/>
    <polyline points="83.9803,154.8504 84.4803,154.6004 85.2303,153.8504 85.2303,159.1004"/>
    <polyline points="92.6132,162.5787 92.6132,171.9537 93.2382,173.8287 94.4882,175.0787 96.3632,175.7037 97.6132,175.7037 99.4882,175.0787 100.7382,173.8287 101.3632,171.9537 101.3632,162.5787"/>
    <polygon points="113.3858,151.1811 113.3858,188.9764 151.1811,188.9764 151.1811,151.1811"/>
    <line x1="134.7835" x2="134.7835" y1="162.5787" y2="175.7037"/>
    <polygon points="151.1811,151.1811 151.1811,188.9764 188.9764,188.9764 188.9764,151.1811"/>
    <line x1="170.7037" x2="170.7037" y1="162.5787" y2="175.7037"/>
    <line x1="166.3287" x2="175.0787" y1="162.5787" y2="162.5787"/>
    <polygon points="188.9764,151.1811 188.9764,188.9764 226.7717,188.9764 226.7717,151.1811"/>
    <line x1="206.624" x2="206.624" y1="162.5787" y2="175.7037"/>
    <line x1="206.624" x2="214.124" y1="175.7037" y2="175.7037"/>
    <polygon points="226.7717,151.1811 226.7717,188.9764 264.5669,188.9764 264.5669,151.1811"/>
    <line x1="248.1693" x2="248.1693" y1="162.5787" y2="175.7037"/>
    <polygon points="264.5669,151.1811 264.5669,188.9764 302.3622,188.9764 302.3622,151.1811"/>
    <line x1="281.5896" x2="281.5896" y1="162.5787" y2="175.7037"/>
    <line x1="290.3396" x2="281.5896" y1="162.5787" y2="171.3287"/>
    <line x1="284.7146" x2="290.3396" y1="168.2037" y2="175.7037"/>
    <polygon points="302.3622,151.1811 302.3622,188.9764 340.1575,188.9764 340.1575,151.1811"/>
    <line x1="319.3848" x2="319.3848" y1="162.5787" y2="175.7037"/>
    <line x1="328.1348" x2="319.3848" y1="162.5787" y2="171.3287"/>
    <line x1="322.5098" x2="328.1348" y1="168.2037" y2="175.7037"/>
    <polygon points="340.1575,151.1811 340.1575,188.9764 377.9528,188.9764 377.9528,151.1811"/>
    <line x1="357.4926" x2="357.4926" y1="162.5787" y2="175.7037"/>
    <line x1="357.4926" x2="365.6176" y1="162.5787" y2="162.5787"/>
    <line x1="357.4926" x2="362.4926" y1="168.8287" y2="168.8287"/>
    <line x1="357.4926" x2="365.6176" y1="175.7037" y2="175.7037"/>
    <polygon points="377.9528,151.1811 377.9528,188.9764 415.748,188.9764 415.748,151.1811"/>
    <line x1="394.9754" x2="394.9754" y1="162.5787" y2="175.7037"/>
    <line x1="394.9754" x2="403.7254" y1="162.5787" y2="175.7037"/>
    <line x1="403.7254" x2="403.7254" y1="162.5787" y2="175.7037"/>
    <polygon points="415.748,151.1811 415.748,151.1811 415.748,151.1811 415.748,151.1811"/>
    <polygon points="453.5433,151.1811 453.5433,188.9764 491.3386,188.9764 491.3386,151.1811"/>
    <polyline points="456.9331,154.8504 457.4331,154.6004 458.1831,153.8504 458.1831,159.1004"/>
    <polyline points="461.4331,155.1004 461.4331,154.8504 461.6831,154.3504 461.9331,154.1004 462.4331,153.8504 463.4331,153.8504 463.9331,154.1004 464.1831,154.3504 464.4331,154.8504 464.4331,155.3504 464.1831,155.8504 463.6831,156.6004 461.1831,159.1004 464.6831,159.1004"/>
    <line x1="470.5659" x2="470.5659" y1="162.5787" y2="175.7037"/>
    <line x1="470.5659" x2="479.3159" y1="162.5787" y2="175.7037"/>
    <line x1="479.3159" x2="479.3159" y1="162.5787" y2="175.7037"/>
    <polygon points="491.3386,151.1811 491.3386,188.9764 529.1339,188.9764 529.1339,151.1811"/>
    <polygon points="510.8612,162.5787 509.6112,163.2037 508.3612,164.4537 507.7362,165.7037 507.1112,167.5787 507.1112,170.7037 507.7362,172.5787 508.3612,173.8287 509.6112,175.0787 510.8612,175.7037 513.3612,175.7037 514.6112,175.0787 515.8612,173.8287 516.4862,172.5787 517.1112,170.7037 517.1112,167.5787 516.4862,165.7037 515.8612,164.4537 514.6112,163.2037 513.3612,162.5787"/>
    <polygon points="529.1339,151.1811 529.1339,188.9764 566.9291,188.9764 566.9291,151.1811"/>
    <polygon points="548.6565,162.5787 547.4065,163.2037 546.1565,164.4537 545.5315,165.7037 544.9065,167.5787 544.9065,170.7037 545.5315,172.5787 546.1565,173.8287 547.4065,175.0787 548.6565,175.7037 551.1565,175.7037 552.4065,175.0787 553.6565,173.8287 554.2815,172.5787 554.9065,170.7037 554.9065,167.5787 554.2815,165.7037 553.6565,164.4537 552.4065,163.2037 551.1565,162.5787"/>
    <polygon points="566.9291,151.1811 566.9291,188.9764 604.7244,188.9764 604.7244,151.1811"/>
    <line x1="583.9518" x2="583.9518" y1="162.5787" y2="175.7037"/>
    <polyline points="583.9518,162.5787 589.5768,162.5787 591.4518,163.2037 592.0768,163.8287 592.7018,165.0787 592.7018,166.3287 592.0768,167.5787 591.4518,168.2037 589.5768,168.8287 583.9518,168.8287"/>
    <line x1="588.3268" x2="592.7018" y1="168.8287" y2="175.7037"/>
    <polygon points="604.7244,151.1811 604.7244,188.9764 642.5197,188.9764 642.5197,151.1811"/>
    <polyline points="608.1142,154.8504 608.6142,154.6004 609.3642,153.8504 609.3642,159.1004"/>
    <polyline points="612.8642,153.8504 615.6142,153.8504 614.1142,155.8504 614.8642,155.8504 615.3642,156.1004 615.6142,156.3504 615.8642,157.1004 615.8642,157.6004 615.6142,158.3504 615.1142,158.8504 614.3642,159.1004 613.6142,159.1004 612.8642,158.8504 612.6142,158.6004 612.3642,158.1004"/>
    <polyline points="627.997,162.5787 627.997,172.5787 627.372,174.4537 626.747,175.0787 625.497,175.7037 624.247,175.7037 622.997,175.0787 622.372,174.4537 621.747,172.5787 621.747,171.3287"/>
    <polygon points="642.5197,151.1811 642.5197,188.9764 680.315,188.9764 680.315,151.1811"/>
    <polyline points="659.5423,162.5787 659.5423,171.9537 660.1673,173.8287 661.4173,175.0787 663.2923,175.7037 664.5423,175.7037 666.4173,175.0787 667.6673,173.8287 668.2923,171.9537 668.2923,162.5787"/>
    <polygon points="680.315,151.1811 680.315,188.9764 718.1102,188.9764 718.1102,151.1811"/>
    <line x1="697.3376" x2="697.3376" y1="162.5787" y2="175.7037"/>
    <polyline points="697.3376,162.5787 701.7126,162.5787 703.5876,163.2037 704.8376,164.4537 705.4626,165.7037 706.0876,167.5787 706.0876,170.7037 705.4626,172.5787 704.8376,173.8287 703.5876,175.0787 701.7126,175.7037 697.3376,175.7037"/>
    <polygon points="718.1102,151.1811 718.1102,188.9764 755.9055,188.9764 755.9055,151.1811"/>
    <line x1="739.5079" x2="739.5079" y1="162.5787" y2="175.7037"/>
    <polygon points="755.9055,151.1811 755.9055,188.9764 793.7008,188.9764 793.7008,151.1811"/>
    <line x1="775.4281" x2="775.4281" y1="162.5787" y2="175.7037"/>
    <line x1="771.0531" x2="779.8031" y1="162.5787" y2="162.5787"/>
    <polygon points="0.0,188.9764 0.0,226.7717 37.7953,226.7717 37.7953,188.9764"/>
    <line x1="17.0226" x2="17.0226" y1="200.374" y2="213.499"/>
    <line x1="25.7726" x2="25.7726" y1="200.374" y2="213.499"/>
    <line x1="17.0226" x2="25.7726" y1="206.624" y2="206.624"/>
    <polygon points="37.7953,188.9764 37.7953,188.9764 37.7953,188.9764 37.7953,188.9764"/>
    <polygon points="75.5906,188.9764 75.5906,226.7717 113.3858,226.7717 113.3858,188.9764"/>
    <line x1="92.6132" x2="92.6132" y1="200.374" y2="213.499"/>
    <line x1="101.3632" x2="92.6132" y1="200.374" y2="209.124"/>
    <line x1="95.7382" x2="101.3632" y1="205.999" y2="213.499"/>
    <polygon points="113.3858,188.9764 113.3858,188.9764 113.3858,188.9764 113.3858,188.9764"/>
    <polygon points="151.1811,188.9764 151.1811,188.9764 151.1811,188.9764 151.1811,188.9764"/>
    <polygon points="188.9764,188.9764 188.9764,188.9764 188.9764,188.9764 188.9764,188.9764"/>
    <polygon points="226.7717,188.9764 226.7717,188.9764 226.7717,188.9764 226.7717,188.9764"/>
    <polygon points="264.5669,188.9764 264.5669,188.9764 264.5669,188.9764 264.5669,188.9764"/>
    <polygon points="302.3622,188.9764 302.3622,226.7717 340.1575,226.7717 340.1575,188.9764"/>
    <line x1="319.3848" x2="319.3848" y1="200.374" y2="213.499"/>
    <polyline points="319.3848,200.374 325.0098,200.374 326.8848,200.999 327.5098,201.624 328.1348,202.874 328.1348,204.124 327.5098,205.374 326.8848,205.999 325.0098,206.624 319.3848,206.624"/>
    <line x1="323.7598" x2="328.1348" y1="206.624" y2="213.499"/>
    <polygon points="340.1575,188.9764 340.1575,188.9764 340.1575,188.9764 340.1575,188.9764"/>
    <polygon points="377.9528,188.9764 377.9528,188.9764 377.9528,188.9764 377.9528,188.9764"/>
    <polygon points="415.748,188.9764 415.748,226.7717 453.5433,226.7717 453.5433,188.9764"/>
    <line x1="435.2707" x2="430.2707" y1="200.374" y2="213.499"/>
    <line x1="435.2707" x2="440.2707" y1="200.374" y2="213.499"/>
    <line x1="432.1457" x2="438.3957" y1="209.124" y2="209.124"/>
    <polygon points="453.5433,188.9764 453.5433,188.9764 453.5433,188.9764 453.5433,188.9764"/>
    <polygon points="491.3386,188.9764 491.3386,188.9764 491.3386,188.9764 491.3386,188.9764"/>
    <polygon points="529.1339,188.9764 529.1339,188.9764 529.1339,188.9764 529.1339,188.9764"/>
    <polygon points="566.9291,188.9764 566.9291,226.7717 604.7244,226.7717 604.7244,188.9764"/>
    <line x1="584.2643" x2="584.2643" y1="200.374" y2="213.499"/>
    <line x1="584.2643" x2="592.3893" y1="200.374" y2="200.374"/>
    <line x1="584.2643" x2="589.2643" y1="206.624" y2="206.624"/>
    <line x1="584.2643" x2="592.3893" y1="213.499" y2="213.499"/>
    <polygon points="604.7244,188.9764 604.7244,188.9764 604.7244,188.9764 604.7244,188.9764"/>
    <polygon points="642.5197,188.9764 642.5197,226.7717 680.315,226.7717 680.315,188.9764"/>
    <polygon points="662.0423,200.374 660.7923,200.999 659.5423,202.249 658.9173,203.499 658.2923,205.374 658.2923,208.499 658.9173,210.374 659.5423,211.624 660.7923,212.874 662.0423,213.499 664.5423,213.499 665.7923,212.874 667.0423,211.624 667.6673,210.374 668.2923,208.499 668.2923,205.374 667.6673,203.499 667.0423,202.249 665.7923,200.999 664.5423,200.374"/>
    <polygon points="680.315,188.9764 680.315,188.9764 680.315,188.9764 680.315,188.9764"/>
    <polygon points="718.1102,188.9764 718.1102,188.9764 718.1102,188.9764 718.1102,188.9764"/>
    <polygon points="755.9055,188.9764 755.9055,188.9764 755.9055,188.9764 755.9055,188.9764"/>
    <polygon points="0.0,226.7717 0.0,226.7717 0.0,226.7717 0.0,226.7717"/>
    <polygon points="37.7953,226.7717 37.7953,264.5669 75.5906,264.5669 75.5906,226.7717"/>
    <line x1="54.8179" x2="54.8179" y1="238.1693" y2="251.2943"/>
    <line x1="63.5679" x2="54.8179" y1="238.1693" y2="246.9193"/>
    <line x1="57.9429" x2="63.5679" y1="243.7943" y2="251.2943"/>
    <polygon points="75.5906,226.7717 75.5906,226.7717 75.5906,226.7717 75.5906,226.7717"/>
    <polygon points="113.3858,226.7717 113.3858,226.7717 113.3858,226.7717 113.3858,226.7717"/>
    <polygon points="151.1811,226.7717 151.1811,264.5669 188.9764,264.5669 188.9764,226.7717"/>
    <polyline points="154.5709,230.4409 155.0709,230.1909 155.8209,229.4409 155.8209,234.6909"/>
    <polyline points="161.3209,229.4409 158.8209,232.9409 162.5709,232.9409"/>
    <line x1="161.3209" x2="161.3209" y1="229.4409" y2="234.6909"/>
    <line x1="168.2037" x2="168.2037" y1="238.1693" y2="251.2943"/>
    <polyline points="168.2037,238.1693 173.8287,238.1693 175.7037,238.7943 176.3287,239.4193 176.9537,240.6693 176.9537,241.9193 176.3287,243.1693 175.7037,243.7943 173.8287,244.4193 168.2037,244.4193"/>
    <line x1="172.5787" x2="176.9537" y1="244.4193" y2="251.2943"/>
    <polygon points="188.9764,226.7717 188.9764,264.5669 226.7717,264.5669 226.7717,226.7717"/>
    <line x1="206.3115" x2="206.3115" y1="238.1693" y2="251.2943"/>
    <line x1="206.3115" x2="214.4365" y1="238.1693" y2="238.1693"/>
    <line x1="206.3115" x2="211.3115" y1="244.4193" y2="244.4193"/>
    <line x1="206.3115" x2="214.4365" y1="251.2943" y2="251.2943"/>
    <polygon points="226.7717,226.7717 226.7717,264.5669 264.5669,264.5669 264.5669,226.7717"/>
    <polyline points="251.9193,240.0443 250.6693,238.7943 248.7943,238.1693 246.2943,238.1693 244.4193,238.7943 243.1693,240.0443 243.1693,241.2943 243.7943,242.5443 244.4193,243.1693 245.6693,243.7943 249.4193,245.0443 250.6693,245.6693 251.2943,246.2943 251.9193,247.5443 251.9193,249.4193 250.6693,250.6693 248.7943,251.2943 246.2943,251.2943 244.4193,250.6693 243.1693,249.4193"/>
    <polygon points="264.5669,226.7717 264.5669,264.5669 302.3622,264.5669 302.3622,226.7717"/>
    <line x1="284.0896" x2="284.0896" y1="238.1693" y2="251.2943"/>
    <line x1="279.7146" x2="288.4646" y1="238.1693" y2="238.1693"/>
    <polygon points="302.3622,226.7717 302.3622,264.5669 340.1575,264.5669 340.1575,226.7717"/>
    <polyline points="325.6348,238.1693 325.6348,248.1693 325.0098,250.0443 324.3848,250.6693 323.1348,251.2943 321.8848,251.2943 320.6348,250.6693 320.0098,250.0443 319.3848,248.1693 319.3848,246.9193"/>
    <polygon points="340.1575,226.7717 340.1575,264.5669 377.9528,264.5669 377.9528,226.7717"/>
    <line x1="357.4926" x2="357.4926" y1="238.1693" y2="251.2943"/>
    <line x1="357.4926" x2="365.6176" y1="238.1693" y2="238.1693"/>
    <line x1="357.4926" x2="362.4926" y1="244.4193" y2="244.4193"/>
    <line x1="357.4926" x2="365.6176" y1="251.2943" y2="251.2943"/>
    <polygon points="377.9528,226.7717 377.9528,264.5669 415.748,264.5669 415.748,226.7717"/>
    <polyline points="403.1004,240.0443 401.8504,238.7943 399.9754,238.1693 397.4754,238.1693 395.6004,238.7943 394.3504,240.0443 394.3504,241.2943 394.9754,242.5443 395.6004,243.1693 396.8504,243.7943 400.6004,245.0443 401.8504,245.6693 402.4754,246.2943 403.1004,247.5443 403.1004,249.4193 401.8504,250.6693 399.9754,251.2943 397.4754,251.2943 395.6004,250.6693 394.3504,249.4193"/>
    <polygon points="415.748,226.7717 415.748,226.7717 415.748,226.7717 415.748,226.7717"/>
    <polygon points="453.5433,226.7717 453.5433,226.7717 453.5433,226.7717 453.5433,226.7717"/>
    <polygon points="491.3386,226.7717 491.3386,226.7717 491.3386,226.7717 491.3386,226.7717"/>
    <polygon points="529.1339,226.7717 529.1339,264.5669 566.9291,264.5669 566.9291,226.7717"/>
    <polyline points="532.5236,230.4409 533.0236,230.1909 533.7736,229.4409 533.7736,234.6909"/>
    <polyline points="539.7736,229.4409 537.2736,229.4409 537.0236,231.6909 537.2736,231.4409 538.0236,231.1909 538.7736,231.1909 539.5236,231.4409 540.0236,231.9409 540.2736,232.6909 540.2736,233.1909 540.0236,233.9409 539.5236,234.4409 538.7736,234.6909 538.0236,234.6909 537.2736,234.4409 537.0236,234.1909 536.7736,233.6909"/>
    <polyline points="554.2815,240.0443 553.0315,238.7943 551.1565,238.1693 548.6565,238.1693 546.7815,238.7943 545.5315,240.0443 545.5315,241.2943 546.1565,242.5443 546.7815,243.1693 548.0315,243.7943 551.7815,245.0443 553.0315,245.6693 553.6565,246.2943 554.2815,247.5443 554.2815,249.4193 553.0315,250.6693 551.1565,251.2943 548.6565,251.2943 546.7815,250.6693 545.5315,249.4193"/>
    <polygon points="566.9291,226.7717 566.9291,264.5669 604.7244,264.5669 604.7244,226.7717"/>
    <line x1="583.9518" x2="583.9518" y1="238.1693" y2="251.2943"/>
    <line x1="592.7018" x2="583.9518" y1="238.1693" y2="246.9193"/>
    <line x1="587.0768" x2="592.7018" y1="243.7943" y2="251.2943"/>
    <polygon points="604.7244,226.7717 604.7244,264.5669 642.5197,264.5669 642.5197,226.7717"/>
    <line x1="622.0595" x2="622.0595" y1="238.1693" y2="251.2943"/>
    <line x1="622.0595" x2="630.1845" y1="238.1693" y2="238.1693"/>
    <line x1="622.0595" x2="627.0595" y1="244.4193" y2="244.4193"/>
    <line x1="622.0595" x2="630.1845" y1="251.2943" y2="251.2943"/>
    <polygon points="642.5197,226.7717 642.5197,264.5669 680.315,264.5669 680.315,226.7717"/>
    <line x1="660.1673" x2="660.1673" y1="238.1693" y2="251.2943"/>
    <line x1="660.1673" x2="667.6673" y1="251.2943" y2="251.2943"/>
    <polygon points="680.315,226.7717 680.315,264.5669 718.1102,264.5669 718.1102,226.7717"/>
    <line x1="697.9626" x2="697.9626" y1="238.1693" y2="251.2943"/>
    <line x1="697.9626" x2="705.4626" y1="251.2943" y2="251.2943"/>
    <polygon points="718.1102,226.7717 718.1102,264.5669 755.9055,264.5669 755.9055,226.7717"/>
    <line x1="735.4454" x2="735.4454" y1="238.1693" y2="251.2943"/>
    <line x1="735.4454" x2="743.5704" y1="238.1693" y2="238.1693"/>
    <line x1="735.4454" x2="740.4454" y1="244.4193" y2="244.4193"/>
    <line x1="735.4454" x2="743.5704" y1="251.2943" y2="251.2943"/>
    <polygon points="755.9055,226.7717 755.9055,264.5669 793.7008,264.5669 793.7008,226.7717"/>
    <line x1="772.9281" x2="772.9281" y1="238.1693" y2="251.2943"/>
    <line x1="781.6781" x2="772.9281" y1="238.1693" y2="246.9193"/>
    <line x1="776.0531" x2="781.6781" y1="243.7943" y2="251.2943"/>
    <polygon points="0.0,264.5669 0.0,302.3622 37.7953,302.3622 37.7953,264.5669"/>
    <line x1="17.3351" x2="17.3351" y1="275.9646" y2="289.0896"/>
    <line x1="17.3351" x2="25.4601" y1="275.9646" y2="275.9646"/>
    <line x1="17.3351" x2="22.3351" y1="282.2146" y2="282.2146"/>
    <line x1="17.3351" x2="25.4601" y1="289.0896" y2="289.0896"/>
    <polygon points="37.7953,264.5669 37.7953,264.5669 37.7953,264.5669 37.7953,264.5669"/>
    <polygon points="75.5906,264.5669 75.5906,264.5669 75.5906,264.5669 75.5906,264.5669"/>
    <polygon points="113.3858,264.5669 113.3858,264.5669 113.3858,264.5669 113.3858,264.5669"/>
    <polygon points="151.1811,264.5669 151.1811,264.5669 151.1811,264.5669 151.1811,264.5669"/>
    <polygon points="188.9764,264.5669 188.9764,264.5669 188.9764,264.5669 188.9764,264.5669"/>
    <polygon points="226.7717,264.5669 226.7717,302.3622 264.5669,302.3622 264.5669,264.5669"/>
    <polyline points="250.0443,275.9646 250.0443,285.9646 249.4193,287.8396 248.7943,288.4646 247.5443,289.0896 246.2943,289.0896 245.0443,288.4646 244.4193,287.8396 243.7943,285.9646 243.7943,284.7146"/>
    <polygon points="264.5669,264.5669 264.5669,264.5669 264.5669,264.5669 264.5669,264.5669"/>
    <polygon points="302.3622,264.5669 302.3622,264.5669 302.3622,264.5669 302.3622,264.5669"/>
    <polygon points="340.1575,264.5669 340.1575,264.5669 340.1575,264.5669 340.1575,264.5669"/>
    <polygon points="377.9528,264.5669 377.9528,264.5669 377.9528,264.5669 377.9528,264.5669"/>
    <polygon points="415.748,264.5669 415.748,264.5669 415.748,264.5669 415.748,264.5669"/>
    <polygon points="453.5433,264.5669 453.5433,264.5669 453.5433,264.5669 453.5433,264.5669"/>
    <polygon points="491.3386,264.5669 491.3386,264.5669 491.3386,264.5669 491.3386,264.5669"/>
    <polygon points="529.1339,264.5669 529.1339,264.5669 529.1339,264.5669 529.1339,264.5669"/>
    <polygon points="566.9291,264.5669 566.9291,302.3622 604.7244,302.3622 604.7244,264.5669"/>
    <line x1="583.9518" x2="583.9518" y1="275.9646" y2="289.0896"/>
    <line x1="592.7018" x2="583.9518" y1="275.9646" y2="284.7146"/>
    <line x1="587.0768" x2="592.7018" y1="281.5896" y2="289.0896"/>
    <polygon points="604.7244,264.5669 604.7244,264.5669 604.7244,264.5669 604.7244,264.5669"/>
    <polygon points="642.5197,264.5669 642.5197,264.5669 642.5197,264.5669 642.5197,264.5669"/>
    <polygon points="680.315,264.5669 680.315,264.5669 680.315,264.5669 680.315,264.5669"/>
    <polygon points="718.1102,264.5669 718.1102,264.5669 718.1102,264.5669 718.1102,264.5669"/>
    <polygon points="755.9055,264.5669 755.9055,302.3622 793.7008,302.3622 793.7008,264.5669"/>
    <line x1="772.9281" x2="772.9281" y1="275.9646" y2="289.0896"/>
    <line x1="772.9281" x2="781.6781" y1="275.9646" y2="289.0896"/>
    <line x1="781.6781" x2="781.6781" y1="275.9646" y2="289.0896"/>
    <polygon points="0.0,302.3622 0.0,302.3622 0.0,302.3622 0.0,302.3622"/>
    <polygon points="37.7953,302.3622 37.7953,340.1575 75.5906,340.1575 75.5906,302.3622"/>
    <polyline points="41.185,306.0315 41.685,305.7815 42.435,305.0315 42.435,310.2815"/>
    <polyline points="48.685,305.7815 48.435,305.2815 47.685,305.0315 47.185,305.0315 46.435,305.2815 45.935,306.0315 45.685,307.2815 45.685,308.5315 45.935,309.5315 46.435,310.0315 47.185,310.2815 47.435,310.2815 48.185,310.0315 48.685,309.5315 48.935,308.7815 48.935,308.5315 48.685,307.7815 48.185,307.2815 47.435,307.0315 47.185,307.0315 46.435,307.2815 45.935,307.7815 45.685,308.5315"/>
    <line x1="54.8179" x2="54.8179" y1="313.7598" y2="326.8848"/>
    <polyline points="54.8179,313.7598 60.4429,313.7598 62.3179,314.3848 62.9429,315.0098 63.5679,316.2598 63.5679,317.5098 62.9429,318.7598 62.3179,319.3848 60.4429,320.0098 54.8179,320.0098"/>
    <line x1="59.1929" x2="63.5679" y1="320.0098" y2="326.8848"/>
    <polygon points="75.5906,302.3622 75.5906,340.1575 113.3858,340.1575 113.3858,302.3622"/>
    <line x1="92.9257" x2="92.9257" y1="313.7598" y2="326.8848"/>
    <line x1="92.9257" x2="101.0507" y1="313.7598" y2="313.7598"/>
    <line x1="92.9257" x2="97.9257" y1="320.0098" y2="320.0098"/>
    <line x1="92.9257" x2="101.0507" y1="326.8848" y2="326.8848"/>
    <polygon points="113.3858,302.3622 113.3858,340.1575 151.1811,340.1575 151.1811,302.3622"/>
    <line x1="130.4085" x2="130.4085" y1="313.7598" y2="326.8848"/>
    <line x1="139.1585" x2="130.4085" y1="313.7598" y2="322.5098"/>
    <line x1="133.5335" x2="139.1585" y1="319.3848" y2="326.8848"/>
    <polygon points="151.1811,302.3622 151.1811,340.1575 188.9764,340.1575 188.9764,302.3622"/>
    <line x1="168.2037" x2="168.2037" y1="313.7598" y2="326.8848"/>
    <line x1="176.9537" x2="168.2037" y1="313.7598" y2="322.5098"/>
    <line x1="171.3287" x2="176.9537" y1="319.3848" y2="326.8848"/>
    <polygon points="188.9764,302.3622 188.9764,340.1575 226.7717,340.1575 226.7717,302.3622"/>
    <line x1="206.3115" x2="206.3115" y1="313.7598" y2="326.8848"/>
    <line x1="206.3115" x2="214.4365" y1="313.7598" y2="313.7598"/>
    <line x1="206.3115" x2="211.3115" y1="320.0098" y2="320.0098"/>
    <line x1="206.3115" x2="214.4365" y1="326.8848" y2="326.8848"/>
    <polygon points="226.7717,302.3622 226.7717,340.1575 264.5669,340.1575 264.5669,302.3622"/>
    <line x1="243.7943" x2="243.7943" y1="313.7598" y2="326.8848"/>
    <polyline points="243.7943,313.7598 249.4193,313.7598 251.2943,314.3848 251.9193,315.0098 252.5443,316.2598 252.5443,317.5098 251.9193,318.7598 251.2943,319.3848 249.4193,320.0098 243.7943,320.0098"/>
    <line x1="248.1693" x2="252.5443" y1="320.0098" y2="326.8848"/>
    <polygon points="264.5669,302.3622 264.5669,340.1575 302.3622,340.1575 302.3622,302.3622"/>
    <line x1="284.0896" x2="284.0896" y1="313.7598" y2="326.8848"/>
    <line x1="279.7146" x2="288.4646" y1="313.7598" y2="313.7598"/>
    <polygon points="302.3622,302.3622 302.3622,340.1575 340.1575,340.1575 340.1575,302.3622"/>
    <polyline points="325.6348,313.7598 325.6348,323.7598 325.0098,325.6348 324.3848,326.2598 323.1348,326.8848 321.8848,326.8848 320.6348,326.2598 320.0098,325.6348 319.3848,323.7598 319.3848,322.5098"/>
    <polygon points="340.1575,302.3622 340.1575,340.1575 377.9528,340.1575 377.9528,302.3622"/>
    <line x1="357.4926" x2="357.4926" y1="313.7598" y2="326.8848"/>
    <line x1="357.4926" x2="365.6176" y1="313.7598" y2="313.7598"/>
    <line x1="357.4926" x2="362.4926" y1="320.0098" y2="320.0098"/>
    <line x1="357.4926" x2="365.6176" y1="326.8848" y2="326.8848"/>
    <polygon points="377.9528,302.3622 377.9528,302.3622 377.9528,302.3622 377.9528,302.3622"/>
    <polygon points="415.748,302.3622 415.748,302.3622 415.748,302.3622 415.748,302.3622"/>
    <polygon points="453.5433,302.3622 453.5433,302.3622 453.5433,302.3622 453.5433,302.3622"/>
    <polygon points="491.3386,302.3622 491.3386,302.3622 491.3386,302.3622 491.3386,302.3622"/>
    <polygon points="529.1339,302.3622 529.1339,302.3622 529.1339,302.3622 529.1339,302.3622"/>
    <polygon points="566.9291,302.3622 566.9291,302.3622 566.9291,302.3622 566.9291,302.3622"/>
    <polygon points="604.7244,302.3622 604.7244,302.3622 604.7244,302.3622 604.7244,302.3622"/>
    <polygon points="642.5197,302.3622 642.5197,302.3622 642.5197,302.3622 642.5197,302.3622"/>
    <polygon points="680.315,302.3622 680.315,302.3622 680.315,302.3622 680.315,302.3622"/>
    <polygon points="718.1102,302.3622 718.1102,302.3622 718.1102,302.3622 718.1102,302.3622"/>
    <polygon points="755.9055,302.3622 755.9055,302.3622 755.9055,302.3622 755.9055,302.3622"/>
  </g>
</svg>
