<?xml version="1.0" encoding="utf-8" ?>
<svg xmlns="http://www.w3.org/2000/svg" xmlns:cc="http://creativecommons.org/ns" xmlns:dc="http://purl.org/dc/elements/1.1/" xmlns:ev="http://www.w3.org/2001/xml-events" xmlns:inkscape="http://www.inkscape.org/namespaces/inkscape" xmlns:rdf="http://www.w3.org/1999/02/22-rdf-syntax-ns" xmlns:sodipodi="http://sodipodi.sourceforge.net/DTD/sodipodi-0.dtd" xmlns:xlink="http://www.w3.org/1999/xlink" baseProfile="tiny" height="9.9cm" version="1.2" viewBox="0 0 793.7007874015749 374.1732283464567" width="21.0cm">
  <metadata>
    <rdf:RDF>
      <cc:Work>
        <dc:format>image/svg+xml</dc:format>
        <dc:source>vpype eval 'cell=10;width=210;height=99' eval 'nCols=20;nRows=9' eval 'cells=[0,3,4,5,6,7,9,10,11,12,13,14,16,20,22,24,26,32,36,39,40,42,44,46,48,49,50,51,52,53,54,55,56,58,59,60,62,64,66,72,76,79,80,82,86,88,89,90,91,92,94,95,96,97,98,99,100,101,102,103,104,105,106,107,110,112,116,119,122,126,130,132,134,135,136,137,139,142,145,146,147,148,149,150,151,152,153,156,160,161,162,166,172]' eval 'chars=[&quot;T&quot;,&quot;K&quot;,&quot;L&quot;,&quot;A&quot;,&quot;U&quot;,&quot;S&quot;,&quot;K&quot;,&quot;I&quot;,&quot;E&quot;,&quot;M&quot;,&quot;E&quot;,&quot;N&quot;,&quot;R&quot;,&quot;E&quot;,&quot;P&quot;,&quot;I&quot;,&quot;I&quot;,&quot;A&quot;,&quot;E&quot;,&quot;L&quot;,&quot;R&quot;,&quot;A&quot;,&quot;F&quot;,&quot;T&quot;,&quot;R&quot;,&quot;E&quot;,&quot;G&quot;,&quot;E&quot;,&quot;N&quot;,&quot;B&quot;,&quot;O&quot;,&quot;O&quot;,&quot;G&quot;,&quot;J&quot;,&quot;A&quot;,&quot;R&quot;,&quot;R&quot;,&quot;T&quot;,&quot;L&quot;,&quot;D&quot;,&quot;E&quot;,&quot;K&quot;,&quot;A&quot;,&quot;K&quot;,&quot;I&quot;,&quot;K&quot;,&quot;A&quot;,&quot;S&quot;,&quot;S&quot;,&quot;A&quot;,&quot;C&quot;,&quot;E&quot;,&quot;N&quot;,&quot;T&quot;,&quot;J&quot;,&quot;E&quot;,&quot;S&quot;,&quot;K&quot;,&quot;E&quot;,&quot;L&quot;,&quot;L&quot;,&quot;E&quot;,&quot;K&quot;,&quot;E&quot;,&quot;T&quot;,&quot;R&quot;,&quot;B&quot;,&quot;N&quot;,&quot;R&quot;,&quot;K&quot;,&quot;E&quot;,&quot;I&quot;,&quot;K&quot;,&quot;O&quot;,&quot;U&quot;,&quot;S&quot;,&quot;S&quot;,&quot;E&quot;,&quot;R&quot;,&quot;E&quot;,&quot;K&quot;,&quot;K&quot;,&quot;E&quot;,&quot;R&quot;,&quot;T&quot;,&quot;J&quot;,&quot;E&quot;,&quot;I&quot;,&quot;Z&quot;,&quot;O&quot;,&quot;N&quot;,&quot;N&quot;,&quot;N&quot;]' eval 'numbers=[0,3,4,6,9,12,16,22,39,48,58,88,90,94,100,134,145,160]' eval counter=1 eval charIndex=0 begin grid -o '%cell*mm%' '%cell*mm%' %nCols% %nRows% eval '%isCell=_i in cells%' eval '%number=_i in numbers%' eval '%size=10 if isCell else 0%' rect 0 0 '%size*mm%' '%size*mm%' text -s 10 -p 0.5mm 1.5mm '%counter if number else '&quot;'&quot;''&quot;'&quot;'%' text -s 20 -p 5mm 5mm -a center '%chars[charIndex] if isCell else '&quot;'&quot;''&quot;'&quot;'%' eval '%if number: counter+=1 %' eval '%if isCell: charIndex+=1 %' end splitall deduplicate linemerge --tolerance 0.1mm write -m none --page-size '%width*mm%x%height*mm%' --center ./svgs/solution/4f3adc.svg
</dc:source>
        <dc:date>2024-01-06T16:44:06.647988</dc:date>
      </cc:Work>
    </rdf:RDF>
  </metadata>
  <defs/>
  <g fill="none" id="layer1" inkscape:groupmode="layer" inkscape:label="1" stroke="#000000" style="display:inline">
    <polygon points="18.8976,17.0079 18.8976,54.8031 18.8976,54.8031 56.6929,54.8031 56.6929,54.8031 56.6929,17.0079 56.6929,17.0079"/>
    <polyline points="22.6624,20.1772 23.2874,19.8647 23.2874,19.8647 24.2249,18.9272 24.2249,18.9272 24.2249,25.4897"/>
    <line x1="38.4203" x2="38.4203" y1="28.4055" y2="41.5305"/>
    <line x1="34.0453" x2="42.7953" y1="28.4055" y2="28.4055"/>
    <polygon points="132.2835,17.0079 132.2835,54.8031 132.2835,54.8031 94.4882,54.8031 94.4882,54.8031 94.4882,92.5984 94.4882,92.5984 94.4882,130.3937 94.4882,130.3937 132.2835,130.3937 132.2835,130.3937 132.2835,92.5984 132.2835,92.5984 132.2835,54.8031 132.2835,54.8031 170.0787,54.8031 170.0787,54.8031 170.0787,17.0079 170.0787,17.0079"/>
    <polyline points="135.4232,20.4897 135.4232,20.1772 135.4232,20.1772 135.7357,19.5522 135.7357,19.5522 136.0482,19.2397 136.0482,19.2397 136.6732,18.9272 136.6732,18.9272 137.9232,18.9272 137.9232,18.9272 138.5482,19.2397 138.5482,19.2397 138.8607,19.5522 138.8607,19.5522 139.1732,20.1772 139.1732,20.1772 139.1732,20.8022 139.1732,20.8022 138.8607,21.4272 138.8607,21.4272 138.2357,22.3647 138.2357,22.3647 135.1107,25.4897 135.1107,25.4897 139.4857,25.4897"/>
    <line x1="149.3061" x2="149.3061" y1="28.4055" y2="41.5305"/>
    <line x1="158.0561" x2="149.3061" y1="28.4055" y2="37.1555"/>
    <line x1="152.4311" x2="158.0561" y1="34.0305" y2="41.5305"/>
    <polyline points="207.874,17.0079 245.6693,17.0079 245.6693,17.0079 245.6693,54.8031 245.6693,54.8031 207.874,54.8031 207.874,54.8031 207.874,92.5984 207.874,92.5984 170.0787,92.5984 170.0787,92.5984 170.0787,54.8031 170.0787,54.8031 207.874,54.8031 207.874,54.8031 207.874,17.0079 207.874,17.0079 170.0787,17.0079"/>
    <polyline points="173.531,18.9272 176.9685,18.9272 176.9685,18.9272 175.0935,21.4272 175.0935,21.4272 176.031,21.4272 176.031,21.4272 176.656,21.7397 176.656,21.7397 176.9685,22.0522 176.9685,22.0522 177.281,22.9897 177.281,22.9897 177.281,23.6147 177.281,23.6147 176.9685,24.5522 176.9685,24.5522 176.3435,25.1772 176.3435,25.1772 175.406,25.4897 175.406,25.4897 174.4685,25.4897 174.4685,25.4897 173.531,25.1772 173.531,25.1772 173.2185,24.8647 173.2185,24.8647 172.906,24.2397"/>
    <polyline points="187.7264,28.4055 187.7264,41.5305 187.7264,41.5305 195.2264,41.5305"/>
    <polyline points="232.3967,41.5305 227.3967,28.4055 227.3967,28.4055 222.3967,41.5305"/>
    <line x1="224.2717" x2="230.5217" y1="37.1555" y2="37.1555"/>
    <polyline points="283.4646,17.0079 321.2598,17.0079 321.2598,17.0079 321.2598,54.8031 321.2598,54.8031 283.4646,54.8031 283.4646,54.8031 283.4646,92.5984 283.4646,92.5984 245.6693,92.5984 245.6693,92.5984 245.6693,54.8031 245.6693,54.8031 283.4646,54.8031 283.4646,54.8031 283.4646,17.0079 283.4646,17.0079 245.6693,17.0079"/>
    <polyline points="251.6216,25.4897 251.6216,18.9272 251.6216,18.9272 248.4966,23.3022 248.4966,23.3022 253.1841,23.3022"/>
    <polyline points="262.6919,28.4055 262.6919,37.7805 262.6919,37.7805 263.3169,39.6555 263.3169,39.6555 264.5669,40.9055 264.5669,40.9055 266.4419,41.5305 266.4419,41.5305 267.6919,41.5305 267.6919,41.5305 269.5669,40.9055 269.5669,40.9055 270.8169,39.6555 270.8169,39.6555 271.4419,37.7805 271.4419,37.7805 271.4419,28.4055"/>
    <polyline points="308.6122,30.2805 307.3622,29.0305 307.3622,29.0305 305.4872,28.4055 305.4872,28.4055 302.9872,28.4055 302.9872,28.4055 301.1122,29.0305 301.1122,29.0305 299.8622,30.2805 299.8622,30.2805 299.8622,31.5305 299.8622,31.5305 300.4872,32.7805 300.4872,32.7805 301.1122,33.4055 301.1122,33.4055 302.3622,34.0305 302.3622,34.0305 306.1122,35.2805 306.1122,35.2805 307.3622,35.9055 307.3622,35.9055 307.9872,36.5305 307.9872,36.5305 308.6122,37.7805 308.6122,37.7805 308.6122,39.6555 308.6122,39.6555 307.3622,40.9055 307.3622,40.9055 305.4872,41.5305 305.4872,41.5305 302.9872,41.5305 302.9872,41.5305 301.1122,40.9055 301.1122,40.9055 299.8622,39.6555"/>
    <polygon points="359.0551,17.0079 359.0551,54.8031 359.0551,54.8031 396.8504,54.8031 396.8504,54.8031 396.8504,17.0079 396.8504,17.0079"/>
    <polyline points="365.6324,18.9272 362.5074,18.9272 362.5074,18.9272 362.1949,21.7397 362.1949,21.7397 362.5074,21.4272 362.5074,21.4272 363.4449,21.1147 363.4449,21.1147 364.3824,21.1147 364.3824,21.1147 365.3199,21.4272 365.3199,21.4272 365.9449,22.0522 365.9449,22.0522 366.2574,22.9897 366.2574,22.9897 366.2574,23.6147 366.2574,23.6147 365.9449,24.5522 365.9449,24.5522 365.3199,25.1772 365.3199,25.1772 364.3824,25.4897 364.3824,25.4897 363.4449,25.4897 363.4449,25.4897 362.5074,25.1772 362.5074,25.1772 362.1949,24.8647 362.1949,24.8647 361.8824,24.2397"/>
    <line x1="376.0778" x2="376.0778" y1="28.4055" y2="41.5305"/>
    <line x1="384.8278" x2="376.0778" y1="28.4055" y2="37.1555"/>
    <line x1="379.2028" x2="384.8278" y1="34.0305" y2="41.5305"/>
    <polyline points="396.8504,54.8031 434.6457,54.8031 434.6457,54.8031 434.6457,17.0079 434.6457,17.0079 396.8504,17.0079"/>
    <line x1="418.248" x2="418.248" y1="28.4055" y2="41.5305"/>
    <polyline points="434.6457,54.8031 472.4409,54.8031 472.4409,54.8031 472.4409,17.0079 472.4409,17.0079 434.6457,17.0079"/>
    <polyline points="460.1058,28.4055 451.9808,28.4055 451.9808,28.4055 451.9808,41.5305 451.9808,41.5305 460.1058,41.5305"/>
    <line x1="451.9808" x2="456.9808" y1="34.6555" y2="34.6555"/>
    <polyline points="510.2362,17.0079 548.0315,17.0079 548.0315,17.0079 548.0315,54.8031 548.0315,54.8031 510.2362,54.8031 510.2362,54.8031 510.2362,92.5984 510.2362,92.5984 472.4409,92.5984 472.4409,92.5984 472.4409,54.8031 472.4409,54.8031 510.2362,54.8031 510.2362,54.8031 510.2362,17.0079 510.2362,17.0079 472.4409,17.0079"/>
    <polyline points="479.3307,19.8647 479.0182,19.2397 479.0182,19.2397 478.0807,18.9272 478.0807,18.9272 477.4557,18.9272 477.4557,18.9272 476.5182,19.2397 476.5182,19.2397 475.8932,20.1772 475.8932,20.1772 475.5807,21.7397 475.5807,21.7397 475.5807,23.3022 475.5807,23.3022 475.8932,24.5522 475.8932,24.5522 476.5182,25.1772 476.5182,25.1772 477.4557,25.4897 477.4557,25.4897 477.7682,25.4897 477.7682,25.4897 478.7057,25.1772 478.7057,25.1772 479.3307,24.5522 479.3307,24.5522 479.6432,23.6147 479.6432,23.6147 479.6432,23.3022 479.6432,23.3022 479.3307,22.3647 479.3307,22.3647 478.7057,21.7397 478.7057,21.7397 477.7682,21.4272 477.7682,21.4272 477.4557,21.4272 477.4557,21.4272 476.5182,21.7397 476.5182,21.7397 475.8932,22.3647 475.8932,22.3647 475.5807,23.3022"/>
    <polyline points="498.8386,41.5305 498.8386,28.4055 498.8386,28.4055 493.8386,41.5305 493.8386,41.5305 488.8386,28.4055 488.8386,28.4055 488.8386,41.5305"/>
    <polyline points="535.6964,28.4055 527.5714,28.4055 527.5714,28.4055 527.5714,41.5305 527.5714,41.5305 535.6964,41.5305"/>
    <line x1="527.5714" x2="532.5714" y1="34.6555" y2="34.6555"/>
    <polyline points="548.0315,54.8031 585.8268,54.8031 585.8268,54.8031 585.8268,17.0079 585.8268,17.0079 548.0315,17.0079"/>
    <polyline points="573.8041,28.4055 573.8041,41.5305 573.8041,41.5305 565.0541,28.4055 565.0541,28.4055 565.0541,41.5305"/>
    <polygon points="623.622,17.0079 623.622,54.8031 623.622,54.8031 661.4173,54.8031 661.4173,54.8031 661.4173,17.0079 661.4173,17.0079"/>
    <polyline points="626.4493,18.9272 630.8243,18.9272 630.8243,18.9272 627.6993,25.4897"/>
    <polyline points="640.6447,34.6555 646.2697,34.6555 646.2697,34.6555 648.1447,34.0305 648.1447,34.0305 648.7697,33.4055 648.7697,33.4055 649.3947,32.1555 649.3947,32.1555 649.3947,30.9055 649.3947,30.9055 648.7697,29.6555 648.7697,29.6555 648.1447,29.0305 648.1447,29.0305 646.2697,28.4055 646.2697,28.4055 640.6447,28.4055 640.6447,28.4055 640.6447,41.5305"/>
    <line x1="645.0197" x2="649.3947" y1="34.6555" y2="41.5305"/>
    <polyline points="18.8976,54.8031 18.8976,92.5984 18.8976,92.5984 18.8976,130.3937 18.8976,130.3937 18.8976,168.189 18.8976,168.189 18.8976,205.9843 18.8976,205.9843 18.8976,243.7795 18.8976,243.7795 56.6929,243.7795 56.6929,243.7795 94.4882,243.7795 94.4882,243.7795 94.4882,205.9843 94.4882,205.9843 56.6929,205.9843 56.6929,205.9843 56.6929,168.189 56.6929,168.189 56.6929,130.3937 56.6929,130.3937 56.6929,92.5984 56.6929,92.5984 56.6929,54.8031"/>
    <line x1="18.8976" x2="56.6929" y1="92.5984" y2="92.5984"/>
    <polyline points="44.3578,66.2008 36.2328,66.2008 36.2328,66.2008 36.2328,79.3258 36.2328,79.3258 44.3578,79.3258"/>
    <line x1="36.2328" x2="41.2328" y1="72.4508" y2="72.4508"/>
    <line x1="94.4882" x2="132.2835" y1="92.5984" y2="92.5984"/>
    <polygon points="98.878,56.7224 97.9405,57.0349 97.9405,57.0349 97.628,57.6599 97.628,57.6599 97.628,58.2849 97.628,58.2849 97.9405,58.9099 97.9405,58.9099 98.5655,59.2224 98.5655,59.2224 99.8155,59.5349 99.8155,59.5349 100.753,59.8474 100.753,59.8474 101.378,60.4724 101.378,60.4724 101.6905,61.0974 101.6905,61.0974 101.6905,62.0349 101.6905,62.0349 101.378,62.6599 101.378,62.6599 101.0655,62.9724 101.0655,62.9724 100.128,63.2849 100.128,63.2849 98.878,63.2849 98.878,63.2849 97.9405,62.9724 97.9405,62.9724 97.628,62.6599 97.628,62.6599 97.3155,62.0349 97.3155,62.0349 97.3155,61.0974 97.3155,61.0974 97.628,60.4724 97.628,60.4724 98.253,59.8474 98.253,59.8474 99.1905,59.5349 99.1905,59.5349 100.4405,59.2224 100.4405,59.2224 101.0655,58.9099 101.0655,58.9099 101.378,58.2849 101.378,58.2849 101.378,57.6599 101.378,57.6599 101.0655,57.0349 101.0655,57.0349 100.128,56.7224 100.128,56.7224"/>
    <polyline points="111.5108,73.0758 117.1358,73.0758 117.1358,73.0758 119.0108,72.4508 119.0108,72.4508 119.6358,71.8258 119.6358,71.8258 120.2608,70.5758 120.2608,70.5758 120.2608,68.7008 120.2608,68.7008 119.6358,67.4508 119.6358,67.4508 119.0108,66.8258 119.0108,66.8258 117.1358,66.2008 117.1358,66.2008 111.5108,66.2008 111.5108,66.2008 111.5108,79.3258"/>
    <line x1="191.4764" x2="191.4764" y1="66.2008" y2="79.3258"/>
    <line x1="267.0669" x2="267.0669" y1="66.2008" y2="79.3258"/>
    <polyline points="496.9636,79.3258 491.9636,66.2008 491.9636,66.2008 486.9636,79.3258"/>
    <line x1="488.8386" x2="495.0886" y1="74.9508" y2="74.9508"/>
    <polyline points="623.622,54.8031 623.622,92.5984 623.622,92.5984 585.8268,92.5984 585.8268,92.5984 548.0315,92.5984 548.0315,92.5984 510.2362,92.5984 510.2362,92.5984 510.2362,130.3937 510.2362,130.3937 548.0315,130.3937 548.0315,130.3937 548.0315,92.5984"/>
    <polyline points="661.4173,92.5984 661.4173,130.3937 661.4173,130.3937 661.4173,168.189 661.4173,168.189 623.622,168.189 623.622,168.189 623.622,130.3937 623.622,130.3937 623.622,92.5984 623.622,92.5984 661.4173,92.5984 661.4173,92.5984 661.4173,54.8031"/>
    <polyline points="649.0822,66.2008 640.9572,66.2008 640.9572,66.2008 640.9572,79.3258 640.9572,79.3258 649.0822,79.3258"/>
    <line x1="640.9572" x2="645.9572" y1="72.4508" y2="72.4508"/>
    <polyline points="774.8031,92.5984 774.8031,130.3937 774.8031,130.3937 737.0079,130.3937 737.0079,130.3937 737.0079,92.5984 737.0079,92.5984 774.8031,92.5984 774.8031,92.5984 774.8031,54.8031 774.8031,54.8031 737.0079,54.8031 737.0079,54.8031 737.0079,92.5984 737.0079,92.5984 699.2126,92.5984 699.2126,92.5984 699.2126,130.3937 699.2126,130.3937 737.0079,130.3937 737.0079,130.3937 737.0079,168.189 737.0079,168.189 699.2126,168.189 699.2126,168.189 661.4173,168.189 661.4173,168.189 661.4173,205.9843 661.4173,205.9843 699.2126,205.9843 699.2126,205.9843 699.2126,168.189"/>
    <polyline points="743.8976,58.9099 743.5851,59.8474 743.5851,59.8474 742.9601,60.4724 742.9601,60.4724 742.0226,60.7849 742.0226,60.7849 741.7101,60.7849 741.7101,60.7849 740.7726,60.4724 740.7726,60.4724 740.1476,59.8474 740.1476,59.8474 739.8351,58.9099 739.8351,58.9099 739.8351,58.5974 739.8351,58.5974 740.1476,57.6599 740.1476,57.6599 740.7726,57.0349 740.7726,57.0349 741.7101,56.7224 741.7101,56.7224 742.0226,56.7224 742.0226,56.7224 742.9601,57.0349 742.9601,57.0349 743.5851,57.6599 743.5851,57.6599 743.8976,58.9099 743.8976,58.9099 743.8976,60.4724 743.8976,60.4724 743.5851,62.0349 743.5851,62.0349 742.9601,62.9724 742.9601,62.9724 742.0226,63.2849 742.0226,63.2849 741.3976,63.2849 741.3976,63.2849 740.4601,62.9724 740.4601,62.9724 740.1476,62.3474"/>
    <polyline points="754.6555,66.2008 754.6555,79.3258 754.6555,79.3258 762.1555,79.3258"/>
    <line x1="18.8976" x2="56.6929" y1="130.3937" y2="130.3937"/>
    <polyline points="35.9203,110.2461 41.5453,110.2461 41.5453,110.2461 43.4203,109.6211 43.4203,109.6211 44.0453,108.9961 44.0453,108.9961 44.6703,107.7461 44.6703,107.7461 44.6703,106.4961 44.6703,106.4961 44.0453,105.2461 44.0453,105.2461 43.4203,104.6211 43.4203,104.6211 41.5453,103.9961 41.5453,103.9961 35.9203,103.9961 35.9203,103.9961 35.9203,117.1211"/>
    <line x1="40.2953" x2="44.6703" y1="110.2461" y2="117.1211"/>
    <polyline points="119.0108,117.1211 114.0108,103.9961 114.0108,103.9961 109.0108,117.1211"/>
    <line x1="110.8858" x2="117.1358" y1="112.7461" y2="112.7461"/>
    <polyline points="170.0787,92.5984 170.0787,130.3937 170.0787,130.3937 170.0787,168.189 170.0787,168.189 207.874,168.189 207.874,168.189 207.874,130.3937 207.874,130.3937 207.874,92.5984"/>
    <line x1="170.0787" x2="207.874" y1="130.3937" y2="130.3937"/>
    <polyline points="195.5389,103.9961 187.4139,103.9961 187.4139,103.9961 187.4139,117.1211"/>
    <line x1="187.4139" x2="192.4139" y1="110.2461" y2="110.2461"/>
    <polyline points="245.6693,92.5984 245.6693,130.3937 245.6693,130.3937 245.6693,168.189 245.6693,168.189 245.6693,205.9843 245.6693,205.9843 283.4646,205.9843 283.4646,205.9843 283.4646,168.189 283.4646,168.189 283.4646,130.3937 283.4646,130.3937 283.4646,92.5984"/>
    <line x1="245.6693" x2="283.4646" y1="130.3937" y2="130.3937"/>
    <line x1="265.1919" x2="265.1919" y1="103.9961" y2="117.1211"/>
    <line x1="260.8169" x2="269.5669" y1="103.9961" y2="103.9961"/>
    <polygon points="321.2598,92.5984 321.2598,130.3937 321.2598,130.3937 359.0551,130.3937 359.0551,130.3937 396.8504,130.3937 396.8504,130.3937 434.6457,130.3937 434.6457,130.3937 434.6457,92.5984 434.6457,92.5984 396.8504,92.5984 396.8504,92.5984 359.0551,92.5984 359.0551,92.5984"/>
    <line x1="359.0551" x2="359.0551" y1="130.3937" y2="92.5984"/>
    <polyline points="325.0246,95.7677 325.6496,95.4552 325.6496,95.4552 326.5871,94.5177 326.5871,94.5177 326.5871,101.0802"/>
    <polygon points="332.2121,94.5177 331.2746,94.8302 331.2746,94.8302 330.6496,95.7677 330.6496,95.7677 330.3371,97.3302 330.3371,97.3302 330.3371,98.2677 330.3371,98.2677 330.6496,99.8302 330.6496,99.8302 331.2746,100.7677 331.2746,100.7677 332.2121,101.0802 332.2121,101.0802 332.8371,101.0802 332.8371,101.0802 333.7746,100.7677 333.7746,100.7677 334.3996,99.8302 334.3996,99.8302 334.7121,98.2677 334.7121,98.2677 334.7121,97.3302 334.7121,97.3302 334.3996,95.7677 334.3996,95.7677 333.7746,94.8302 333.7746,94.8302 332.8371,94.5177 332.8371,94.5177"/>
    <polyline points="338.2825,110.2461 343.9075,110.2461 343.9075,110.2461 345.7825,109.6211 345.7825,109.6211 346.4075,108.9961 346.4075,108.9961 347.0325,107.7461 347.0325,107.7461 347.0325,106.4961 347.0325,106.4961 346.4075,105.2461 346.4075,105.2461 345.7825,104.6211 345.7825,104.6211 343.9075,103.9961 343.9075,103.9961 338.2825,103.9961 338.2825,103.9961 338.2825,117.1211"/>
    <line x1="342.6575" x2="347.0325" y1="110.2461" y2="117.1211"/>
    <line x1="396.8504" x2="396.8504" y1="130.3937" y2="92.5984"/>
    <polyline points="384.5153,103.9961 376.3903,103.9961 376.3903,103.9961 376.3903,117.1211 376.3903,117.1211 384.5153,117.1211"/>
    <line x1="376.3903" x2="381.3903" y1="110.2461" y2="110.2461"/>
    <polyline points="422.3105,107.1211 421.6855,105.8711 421.6855,105.8711 420.4355,104.6211 420.4355,104.6211 419.1855,103.9961 419.1855,103.9961 416.6855,103.9961 416.6855,103.9961 415.4355,104.6211 415.4355,104.6211 414.1855,105.8711 414.1855,105.8711 413.5605,107.1211 413.5605,107.1211 412.9355,108.9961 412.9355,108.9961 412.9355,112.1211 412.9355,112.1211 413.5605,113.9961 413.5605,113.9961 414.1855,115.2461 414.1855,115.2461 415.4355,116.4961 415.4355,116.4961 416.6855,117.1211 416.6855,117.1211 419.1855,117.1211 419.1855,117.1211 420.4355,116.4961 420.4355,116.4961 421.6855,115.2461 421.6855,115.2461 422.3105,113.9961 422.3105,113.9961 422.3105,112.1211 422.3105,112.1211 419.1855,112.1211"/>
    <polyline points="434.6457,130.3937 472.4409,130.3937 472.4409,130.3937 472.4409,92.5984 472.4409,92.5984 434.6457,92.5984"/>
    <polyline points="460.1058,103.9961 451.9808,103.9961 451.9808,103.9961 451.9808,117.1211 451.9808,117.1211 460.1058,117.1211"/>
    <line x1="451.9808" x2="456.9808" y1="110.2461" y2="110.2461"/>
    <polyline points="510.2362,168.189 472.4409,168.189 472.4409,168.189 472.4409,130.3937 472.4409,130.3937 510.2362,130.3937 510.2362,130.3937 510.2362,168.189 510.2362,168.189 510.2362,205.9843 510.2362,205.9843 510.2362,243.7795 510.2362,243.7795 472.4409,243.7795 472.4409,243.7795 472.4409,205.9843 472.4409,205.9843 472.4409,168.189 472.4409,168.189 434.6457,168.189 434.6457,168.189 396.8504,168.189 396.8504,168.189 359.0551,168.189 359.0551,168.189 321.2598,168.189 321.2598,168.189 321.2598,205.9843 321.2598,205.9843 359.0551,205.9843 359.0551,205.9843 396.8504,205.9843 396.8504,205.9843 396.8504,243.7795 396.8504,243.7795 434.6457,243.7795 434.6457,243.7795 434.6457,205.9843 434.6457,205.9843 434.6457,168.189"/>
    <polyline points="498.2136,103.9961 498.2136,117.1211 498.2136,117.1211 489.4636,103.9961 489.4636,103.9961 489.4636,117.1211"/>
    <polyline points="532.8839,110.2461 534.7589,109.6211 534.7589,109.6211 535.3839,108.9961 535.3839,108.9961 536.0089,107.7461 536.0089,107.7461 536.0089,106.4961 536.0089,106.4961 535.3839,105.2461 535.3839,105.2461 534.7589,104.6211 534.7589,104.6211 532.8839,103.9961 532.8839,103.9961 527.2589,103.9961 527.2589,103.9961 527.2589,117.1211 527.2589,117.1211 532.8839,117.1211 532.8839,117.1211 534.7589,116.4961 534.7589,116.4961 535.3839,115.8711 535.3839,115.8711 536.0089,114.6211 536.0089,114.6211 536.0089,112.7461 536.0089,112.7461 535.3839,111.4961 535.3839,111.4961 534.7589,110.8711 534.7589,110.8711 532.8839,110.2461 532.8839,110.2461 527.2589,110.2461"/>
    <polyline points="548.0315,130.3937 585.8268,130.3937 585.8268,130.3937 585.8268,92.5984"/>
    <polygon points="567.5541,103.9961 566.3041,104.6211 566.3041,104.6211 565.0541,105.8711 565.0541,105.8711 564.4291,107.1211 564.4291,107.1211 563.8041,108.9961 563.8041,108.9961 563.8041,112.1211 563.8041,112.1211 564.4291,113.9961 564.4291,113.9961 565.0541,115.2461 565.0541,115.2461 566.3041,116.4961 566.3041,116.4961 567.5541,117.1211 567.5541,117.1211 570.0541,117.1211 570.0541,117.1211 571.3041,116.4961 571.3041,116.4961 572.5541,115.2461 572.5541,115.2461 573.1791,113.9961 573.1791,113.9961 573.8041,112.1211 573.8041,112.1211 573.8041,108.9961 573.8041,108.9961 573.1791,107.1211 573.1791,107.1211 572.5541,105.8711 572.5541,105.8711 571.3041,104.6211 571.3041,104.6211 570.0541,103.9961 570.0541,103.9961"/>
    <polyline points="585.8268,130.3937 623.622,130.3937 623.622,130.3937 661.4173,130.3937"/>
    <polygon points="605.3494,103.9961 604.0994,104.6211 604.0994,104.6211 602.8494,105.8711 602.8494,105.8711 602.2244,107.1211 602.2244,107.1211 601.5994,108.9961 601.5994,108.9961 601.5994,112.1211 601.5994,112.1211 602.2244,113.9961 602.2244,113.9961 602.8494,115.2461 602.8494,115.2461 604.0994,116.4961 604.0994,116.4961 605.3494,117.1211 605.3494,117.1211 607.8494,117.1211 607.8494,117.1211 609.0994,116.4961 609.0994,116.4961 610.3494,115.2461 610.3494,115.2461 610.9744,113.9961 610.9744,113.9961 611.5994,112.1211 611.5994,112.1211 611.5994,108.9961 611.5994,108.9961 610.9744,107.1211 610.9744,107.1211 610.3494,105.8711 610.3494,105.8711 609.0994,104.6211 609.0994,104.6211 607.8494,103.9961 607.8494,103.9961"/>
    <polyline points="649.0822,107.1211 648.4572,105.8711 648.4572,105.8711 647.2072,104.6211 647.2072,104.6211 645.9572,103.9961 645.9572,103.9961 643.4572,103.9961 643.4572,103.9961 642.2072,104.6211 642.2072,104.6211 640.9572,105.8711 640.9572,105.8711 640.3322,107.1211 640.3322,107.1211 639.7072,108.9961 639.7072,108.9961 639.7072,112.1211 639.7072,112.1211 640.3322,113.9961 640.3322,113.9961 640.9572,115.2461 640.9572,115.2461 642.2072,116.4961 642.2072,116.4961 643.4572,117.1211 643.4572,117.1211 645.9572,117.1211 645.9572,117.1211 647.2072,116.4961 647.2072,116.4961 648.4572,115.2461 648.4572,115.2461 649.0822,113.9961 649.0822,113.9961 649.0822,112.1211 649.0822,112.1211 645.9572,112.1211"/>
    <polyline points="702.9774,95.7677 703.6024,95.4552 703.6024,95.4552 704.5399,94.5177 704.5399,94.5177 704.5399,101.0802"/>
    <polyline points="709.2274,95.7677 709.8524,95.4552 709.8524,95.4552 710.7899,94.5177 710.7899,94.5177 710.7899,101.0802"/>
    <polyline points="722.4852,103.9961 722.4852,113.9961 722.4852,113.9961 721.8602,115.8711 721.8602,115.8711 721.2352,116.4961 721.2352,116.4961 719.9852,117.1211 719.9852,117.1211 718.7352,117.1211 718.7352,117.1211 717.4852,116.4961 717.4852,116.4961 716.8602,115.8711 716.8602,115.8711 716.2352,113.9961 716.2352,113.9961 716.2352,112.7461"/>
    <polyline points="761.5305,117.1211 756.5305,103.9961 756.5305,103.9961 751.5305,117.1211"/>
    <line x1="753.4055" x2="759.6555" y1="112.7461" y2="112.7461"/>
    <line x1="18.8976" x2="56.6929" y1="168.189" y2="168.189"/>
    <polyline points="35.9203,148.0413 41.5453,148.0413 41.5453,148.0413 43.4203,147.4163 43.4203,147.4163 44.0453,146.7913 44.0453,146.7913 44.6703,145.5413 44.6703,145.5413 44.6703,144.2913 44.6703,144.2913 44.0453,143.0413 44.0453,143.0413 43.4203,142.4163 43.4203,142.4163 41.5453,141.7913 41.5453,141.7913 35.9203,141.7913 35.9203,141.7913 35.9203,154.9163"/>
    <line x1="40.2953" x2="44.6703" y1="148.0413" y2="154.9163"/>
    <polyline points="94.4882,130.3937 94.4882,168.189 94.4882,168.189 132.2835,168.189 132.2835,168.189 132.2835,130.3937"/>
    <polyline points="111.5108,148.0413 117.1358,148.0413 117.1358,148.0413 119.0108,147.4163 119.0108,147.4163 119.6358,146.7913 119.6358,146.7913 120.2608,145.5413 120.2608,145.5413 120.2608,144.2913 120.2608,144.2913 119.6358,143.0413 119.6358,143.0413 119.0108,142.4163 119.0108,142.4163 117.1358,141.7913 117.1358,141.7913 111.5108,141.7913 111.5108,141.7913 111.5108,154.9163"/>
    <line x1="115.8858" x2="120.2608" y1="148.0413" y2="154.9163"/>
    <line x1="189.6014" x2="189.6014" y1="141.7913" y2="154.9163"/>
    <line x1="185.2264" x2="193.9764" y1="141.7913" y2="141.7913"/>
    <line x1="245.6693" x2="283.4646" y1="168.189" y2="168.189"/>
    <polyline points="263.3169,141.7913 263.3169,154.9163 263.3169,154.9163 270.8169,154.9163"/>
    <polygon points="489.4636,141.7913 489.4636,154.9163 489.4636,154.9163 493.8386,154.9163 493.8386,154.9163 495.7136,154.2913 495.7136,154.2913 496.9636,153.0413 496.9636,153.0413 497.5886,151.7913 497.5886,151.7913 498.2136,149.9163 498.2136,149.9163 498.2136,146.7913 498.2136,146.7913 497.5886,144.9163 497.5886,144.9163 496.9636,143.6663 496.9636,143.6663 495.7136,142.4163 495.7136,142.4163 493.8386,141.7913 493.8386,141.7913"/>
    <polyline points="649.0822,141.7913 640.9572,141.7913 640.9572,141.7913 640.9572,154.9163 640.9572,154.9163 649.0822,154.9163"/>
    <line x1="640.9572" x2="645.9572" y1="148.0413" y2="148.0413"/>
    <polyline points="774.8031,168.189 774.8031,205.9843 774.8031,205.9843 774.8031,243.7795 774.8031,243.7795 737.0079,243.7795 737.0079,243.7795 737.0079,205.9843 737.0079,205.9843 737.0079,168.189 737.0079,168.189 774.8031,168.189 774.8031,168.189 774.8031,130.3937"/>
    <line x1="754.0305" x2="754.0305" y1="141.7913" y2="154.9163"/>
    <line x1="762.7805" x2="754.0305" y1="141.7913" y2="150.5413"/>
    <line x1="757.1555" x2="762.7805" y1="147.4163" y2="154.9163"/>
    <polyline points="18.8976,205.9843 56.6929,205.9843 56.6929,205.9843 56.6929,243.7795"/>
    <polyline points="43.4203,192.7116 38.4203,179.5866 38.4203,179.5866 33.4203,192.7116"/>
    <line x1="35.2953" x2="41.5453" y1="188.3366" y2="188.3366"/>
    <polyline points="94.4882,168.189 94.4882,205.9843 94.4882,205.9843 132.2835,205.9843 132.2835,205.9843 132.2835,168.189"/>
    <line x1="111.5108" x2="111.5108" y1="179.5866" y2="192.7116"/>
    <line x1="120.2608" x2="111.5108" y1="179.5866" y2="188.3366"/>
    <line x1="114.6358" x2="120.2608" y1="185.2116" y2="192.7116"/>
    <line x1="267.0669" x2="267.0669" y1="179.5866" y2="192.7116"/>
    <line x1="359.0551" x2="359.0551" y1="205.9843" y2="168.189"/>
    <polyline points="325.0246,171.3583 325.6496,171.0458 325.6496,171.0458 326.5871,170.1083 326.5871,170.1083 326.5871,176.6708"/>
    <polyline points="330.6496,171.6708 330.6496,171.3583 330.6496,171.3583 330.9621,170.7333 330.9621,170.7333 331.2746,170.4208 331.2746,170.4208 331.8996,170.1083 331.8996,170.1083 333.1496,170.1083 333.1496,170.1083 333.7746,170.4208 333.7746,170.4208 334.0871,170.7333 334.0871,170.7333 334.3996,171.3583 334.3996,171.3583 334.3996,171.9833 334.3996,171.9833 334.0871,172.6083 334.0871,172.6083 333.4621,173.5458 333.4621,173.5458 330.3371,176.6708 330.3371,176.6708 334.7121,176.6708"/>
    <line x1="338.2825" x2="338.2825" y1="179.5866" y2="192.7116"/>
    <line x1="347.0325" x2="338.2825" y1="179.5866" y2="188.3366"/>
    <line x1="341.4075" x2="347.0325" y1="185.2116" y2="192.7116"/>
    <polyline points="510.2362,205.9843 472.4409,205.9843 472.4409,205.9843 434.6457,205.9843 434.6457,205.9843 396.8504,205.9843 396.8504,205.9843 396.8504,168.189"/>
    <polyline points="383.5778,192.7116 378.5778,179.5866 378.5778,179.5866 373.5778,192.7116"/>
    <line x1="375.4528" x2="381.7028" y1="188.3366" y2="188.3366"/>
    <polyline points="400.6152,171.3583 401.2402,171.0458 401.2402,171.0458 402.1777,170.1083 402.1777,170.1083 402.1777,176.6708"/>
    <polyline points="406.5527,170.1083 409.9902,170.1083 409.9902,170.1083 408.1152,172.6083 408.1152,172.6083 409.0527,172.6083 409.0527,172.6083 409.6777,172.9208 409.6777,172.9208 409.9902,173.2333 409.9902,173.2333 410.3027,174.1708 410.3027,174.1708 410.3027,174.7958 410.3027,174.7958 409.9902,175.7333 409.9902,175.7333 409.3652,176.3583 409.3652,176.3583 408.4277,176.6708 408.4277,176.6708 407.4902,176.6708 407.4902,176.6708 406.5527,176.3583 406.5527,176.3583 406.2402,176.0458 406.2402,176.0458 405.9277,175.4208"/>
    <polyline points="421.998,181.4616 420.748,180.2116 420.748,180.2116 418.873,179.5866 418.873,179.5866 416.373,179.5866 416.373,179.5866 414.498,180.2116 414.498,180.2116 413.248,181.4616 413.248,181.4616 413.248,182.7116 413.248,182.7116 413.873,183.9616 413.873,183.9616 414.498,184.5866 414.498,184.5866 415.748,185.2116 415.748,185.2116 419.498,186.4616 419.498,186.4616 420.748,187.0866 420.748,187.0866 421.373,187.7116 421.373,187.7116 421.998,188.9616 421.998,188.9616 421.998,190.8366 421.998,190.8366 420.748,192.0866 420.748,192.0866 418.873,192.7116 418.873,192.7116 416.373,192.7116 416.373,192.7116 414.498,192.0866 414.498,192.0866 413.248,190.8366"/>
    <polyline points="459.7933,181.4616 458.5433,180.2116 458.5433,180.2116 456.6683,179.5866 456.6683,179.5866 454.1683,179.5866 454.1683,179.5866 452.2933,180.2116 452.2933,180.2116 451.0433,181.4616 451.0433,181.4616 451.0433,182.7116 451.0433,182.7116 451.6683,183.9616 451.6683,183.9616 452.2933,184.5866 452.2933,184.5866 453.5433,185.2116 453.5433,185.2116 457.2933,186.4616 457.2933,186.4616 458.5433,187.0866 458.5433,187.0866 459.1683,187.7116 459.1683,187.7116 459.7933,188.9616 459.7933,188.9616 459.7933,190.8366 459.7933,190.8366 458.5433,192.0866 458.5433,192.0866 456.6683,192.7116 456.6683,192.7116 454.1683,192.7116 454.1683,192.7116 452.2933,192.0866 452.2933,192.0866 451.0433,190.8366"/>
    <polyline points="496.9636,192.7116 491.9636,179.5866 491.9636,179.5866 486.9636,192.7116"/>
    <line x1="488.8386" x2="495.0886" y1="188.3366" y2="188.3366"/>
    <polygon points="548.0315,168.189 548.0315,205.9843 548.0315,205.9843 585.8268,205.9843 585.8268,205.9843 585.8268,168.189 585.8268,168.189"/>
    <polyline points="551.7963,171.3583 552.4213,171.0458 552.4213,171.0458 553.3588,170.1083 553.3588,170.1083 553.3588,176.6708"/>
    <polyline points="560.2338,176.6708 560.2338,170.1083 560.2338,170.1083 557.1088,174.4833 557.1088,174.4833 561.7963,174.4833"/>
    <polyline points="573.4916,182.7116 572.8666,181.4616 572.8666,181.4616 571.6166,180.2116 571.6166,180.2116 570.3666,179.5866 570.3666,179.5866 567.8666,179.5866 567.8666,179.5866 566.6166,180.2116 566.6166,180.2116 565.3666,181.4616 565.3666,181.4616 564.7416,182.7116 564.7416,182.7116 564.1166,184.5866 564.1166,184.5866 564.1166,187.7116 564.1166,187.7116 564.7416,189.5866 564.7416,189.5866 565.3666,190.8366 565.3666,190.8366 566.6166,192.0866 566.6166,192.0866 567.8666,192.7116 567.8666,192.7116 570.3666,192.7116 570.3666,192.7116 571.6166,192.0866 571.6166,192.0866 572.8666,190.8366 572.8666,190.8366 573.4916,189.5866"/>
    <polyline points="585.8268,205.9843 623.622,205.9843 623.622,205.9843 623.622,168.189 623.622,168.189 585.8268,168.189"/>
    <polyline points="611.2869,179.5866 603.1619,179.5866 603.1619,179.5866 603.1619,192.7116 603.1619,192.7116 611.2869,192.7116"/>
    <line x1="603.1619" x2="608.1619" y1="185.8366" y2="185.8366"/>
    <polygon points="623.622,205.9843 661.4173,205.9843 661.4173,205.9843 661.4173,243.7795 661.4173,243.7795 623.622,243.7795 623.622,243.7795"/>
    <polyline points="649.3947,179.5866 649.3947,192.7116 649.3947,192.7116 640.6447,179.5866 640.6447,179.5866 640.6447,192.7116"/>
    <line x1="680.94" x2="680.94" y1="179.5866" y2="192.7116"/>
    <line x1="676.565" x2="685.315" y1="179.5866" y2="179.5866"/>
    <polyline points="699.2126,205.9843 737.0079,205.9843 737.0079,205.9843 774.8031,205.9843"/>
    <polyline points="722.4852,179.5866 722.4852,189.5866 722.4852,189.5866 721.8602,191.4616 721.8602,191.4616 721.2352,192.0866 721.2352,192.0866 719.9852,192.7116 719.9852,192.7116 718.7352,192.7116 718.7352,192.7116 717.4852,192.0866 717.4852,192.0866 716.8602,191.4616 716.8602,191.4616 716.2352,189.5866 716.2352,189.5866 716.2352,188.3366"/>
    <polyline points="762.468,179.5866 754.343,179.5866 754.343,179.5866 754.343,192.7116 754.343,192.7116 762.468,192.7116"/>
    <line x1="754.343" x2="759.343" y1="185.8366" y2="185.8366"/>
    <polyline points="22.6624,209.1535 23.2874,208.841 23.2874,208.841 24.2249,207.9035 24.2249,207.9035 24.2249,214.466"/>
    <polyline points="31.7249,207.9035 28.5999,207.9035 28.5999,207.9035 28.2874,210.716 28.2874,210.716 28.5999,210.4035 28.5999,210.4035 29.5374,210.091 29.5374,210.091 30.4749,210.091 30.4749,210.091 31.4124,210.4035 31.4124,210.4035 32.0374,211.0285 32.0374,211.0285 32.3499,211.966 32.3499,211.966 32.3499,212.591 32.3499,212.591 32.0374,213.5285 32.0374,213.5285 31.4124,214.1535 31.4124,214.1535 30.4749,214.466 30.4749,214.466 29.5374,214.466 29.5374,214.466 28.5999,214.1535 28.5999,214.1535 28.2874,213.841 28.2874,213.841 27.9749,213.216"/>
    <polyline points="44.0453,219.2569 42.7953,218.0069 42.7953,218.0069 40.9203,217.3819 40.9203,217.3819 38.4203,217.3819 38.4203,217.3819 36.5453,218.0069 36.5453,218.0069 35.2953,219.2569 35.2953,219.2569 35.2953,220.5069 35.2953,220.5069 35.9203,221.7569 35.9203,221.7569 36.5453,222.3819 36.5453,222.3819 37.7953,223.0069 37.7953,223.0069 41.5453,224.2569 41.5453,224.2569 42.7953,224.8819 42.7953,224.8819 43.4203,225.5069 43.4203,225.5069 44.0453,226.7569 44.0453,226.7569 44.0453,228.6319 44.0453,228.6319 42.7953,229.8819 42.7953,229.8819 40.9203,230.5069 40.9203,230.5069 38.4203,230.5069 38.4203,230.5069 36.5453,229.8819 36.5453,229.8819 35.2953,228.6319"/>
    <line x1="73.7156" x2="73.7156" y1="217.3819" y2="230.5069"/>
    <line x1="82.4656" x2="73.7156" y1="217.3819" y2="226.1319"/>
    <line x1="76.8406" x2="82.4656" y1="223.0069" y2="230.5069"/>
    <polyline points="94.4882,281.5748 94.4882,243.7795 94.4882,243.7795 132.2835,243.7795 132.2835,243.7795 170.0787,243.7795 170.0787,243.7795 207.874,243.7795 207.874,243.7795 245.6693,243.7795 245.6693,243.7795 245.6693,205.9843 245.6693,205.9843 207.874,205.9843 207.874,205.9843 170.0787,205.9843 170.0787,205.9843 132.2835,205.9843 132.2835,205.9843 132.2835,243.7795 132.2835,243.7795 132.2835,281.5748 132.2835,281.5748 94.4882,281.5748 94.4882,281.5748 94.4882,319.3701 94.4882,319.3701 132.2835,319.3701 132.2835,319.3701 132.2835,281.5748"/>
    <polyline points="119.9483,217.3819 111.8233,217.3819 111.8233,217.3819 111.8233,230.5069 111.8233,230.5069 119.9483,230.5069"/>
    <line x1="111.8233" x2="116.8233" y1="223.6319" y2="223.6319"/>
    <line x1="170.0787" x2="170.0787" y1="243.7795" y2="205.9843"/>
    <polyline points="149.9311,217.3819 149.9311,230.5069 149.9311,230.5069 157.4311,230.5069"/>
    <line x1="207.874" x2="207.874" y1="243.7795" y2="205.9843"/>
    <polyline points="187.7264,217.3819 187.7264,230.5069 187.7264,230.5069 195.2264,230.5069"/>
    <polyline points="233.3342,217.3819 225.2092,217.3819 225.2092,217.3819 225.2092,230.5069 225.2092,230.5069 233.3342,230.5069"/>
    <line x1="225.2092" x2="230.2092" y1="223.6319" y2="223.6319"/>
    <polyline points="359.0551,281.5748 359.0551,319.3701 359.0551,319.3701 321.2598,319.3701 321.2598,319.3701 283.4646,319.3701 283.4646,319.3701 283.4646,281.5748 283.4646,281.5748 245.6693,281.5748 245.6693,281.5748 245.6693,243.7795 245.6693,243.7795 283.4646,243.7795 283.4646,243.7795 283.4646,205.9843 283.4646,205.9843 321.2598,205.9843 321.2598,205.9843 321.2598,243.7795 321.2598,243.7795 283.4646,243.7795 283.4646,243.7795 283.4646,281.5748 283.4646,281.5748 321.2598,281.5748 321.2598,281.5748 359.0551,281.5748 359.0551,281.5748 396.8504,281.5748 396.8504,281.5748 434.6457,281.5748 434.6457,281.5748 434.6457,243.7795"/>
    <line x1="262.6919" x2="262.6919" y1="217.3819" y2="230.5069"/>
    <line x1="271.4419" x2="262.6919" y1="217.3819" y2="226.1319"/>
    <line x1="265.8169" x2="271.4419" y1="223.0069" y2="230.5069"/>
    <polyline points="308.9247,217.3819 300.7997,217.3819 300.7997,217.3819 300.7997,230.5069 300.7997,230.5069 308.9247,230.5069"/>
    <line x1="300.7997" x2="305.7997" y1="223.6319" y2="223.6319"/>
    <line x1="416.373" x2="416.373" y1="217.3819" y2="230.5069"/>
    <line x1="411.998" x2="420.748" y1="217.3819" y2="217.3819"/>
    <polyline points="489.4636,223.6319 495.0886,223.6319 495.0886,223.6319 496.9636,223.0069 496.9636,223.0069 497.5886,222.3819 497.5886,222.3819 498.2136,221.1319 498.2136,221.1319 498.2136,219.8819 498.2136,219.8819 497.5886,218.6319 497.5886,218.6319 496.9636,218.0069 496.9636,218.0069 495.0886,217.3819 495.0886,217.3819 489.4636,217.3819 489.4636,217.3819 489.4636,230.5069"/>
    <line x1="493.8386" x2="498.2136" y1="223.6319" y2="230.5069"/>
    <polygon points="640.6447,217.3819 640.6447,230.5069 640.6447,230.5069 646.2697,230.5069 646.2697,230.5069 648.1447,229.8819 648.1447,229.8819 648.7697,229.2569 648.7697,229.2569 649.3947,228.0069 649.3947,228.0069 649.3947,226.1319 649.3947,226.1319 648.7697,224.8819 648.7697,224.8819 648.1447,224.2569 648.1447,224.2569 646.2697,223.6319 646.2697,223.6319 648.1447,223.0069 648.1447,223.0069 648.7697,222.3819 648.7697,222.3819 649.3947,221.1319 649.3947,221.1319 649.3947,219.8819 649.3947,219.8819 648.7697,218.6319 648.7697,218.6319 648.1447,218.0069 648.1447,218.0069 646.2697,217.3819 646.2697,217.3819"/>
    <line x1="640.6447" x2="646.2697" y1="223.6319" y2="223.6319"/>
    <polyline points="762.7805,217.3819 762.7805,230.5069 762.7805,230.5069 754.0305,217.3819 754.0305,217.3819 754.0305,230.5069"/>
    <polyline points="111.5108,261.4272 117.1358,261.4272 117.1358,261.4272 119.0108,260.8022 119.0108,260.8022 119.6358,260.1772 119.6358,260.1772 120.2608,258.9272 120.2608,258.9272 120.2608,257.6772 120.2608,257.6772 119.6358,256.4272 119.6358,256.4272 119.0108,255.8022 119.0108,255.8022 117.1358,255.1772 117.1358,255.1772 111.5108,255.1772 111.5108,255.1772 111.5108,268.3022"/>
    <line x1="115.8858" x2="120.2608" y1="261.4272" y2="268.3022"/>
    <line x1="262.6919" x2="262.6919" y1="255.1772" y2="268.3022"/>
    <line x1="271.4419" x2="262.6919" y1="255.1772" y2="263.9272"/>
    <line x1="265.8169" x2="271.4419" y1="260.8022" y2="268.3022"/>
    <polyline points="396.8504,243.7795 396.8504,281.5748 396.8504,281.5748 396.8504,319.3701 396.8504,319.3701 434.6457,319.3701 434.6457,319.3701 434.6457,281.5748 434.6457,281.5748 472.4409,281.5748 472.4409,281.5748 510.2362,281.5748 510.2362,281.5748 510.2362,243.7795"/>
    <polyline points="422.3105,255.1772 414.1855,255.1772 414.1855,255.1772 414.1855,268.3022 414.1855,268.3022 422.3105,268.3022"/>
    <line x1="414.1855" x2="419.1855" y1="261.4272" y2="261.4272"/>
    <polyline points="472.4409,243.7795 472.4409,281.5748 472.4409,281.5748 472.4409,319.3701 472.4409,319.3701 510.2362,319.3701 510.2362,319.3701 510.2362,281.5748 510.2362,281.5748 548.0315,281.5748 548.0315,281.5748 585.8268,281.5748 585.8268,281.5748 585.8268,243.7795 585.8268,243.7795 548.0315,243.7795 548.0315,243.7795 548.0315,281.5748 548.0315,281.5748 548.0315,319.3701 548.0315,319.3701 510.2362,319.3701 510.2362,319.3701 510.2362,357.1654 510.2362,357.1654 472.4409,357.1654 472.4409,357.1654 472.4409,319.3701 472.4409,319.3701 434.6457,319.3701"/>
    <line x1="493.8386" x2="493.8386" y1="255.1772" y2="268.3022"/>
    <polyline points="551.7963,246.9488 552.4213,246.6363 552.4213,246.6363 553.3588,245.6988 553.3588,245.6988 553.3588,252.2613"/>
    <polyline points="561.1713,246.6363 560.8588,246.0113 560.8588,246.0113 559.9213,245.6988 559.9213,245.6988 559.2963,245.6988 559.2963,245.6988 558.3588,246.0113 558.3588,246.0113 557.7338,246.9488 557.7338,246.9488 557.4213,248.5113 557.4213,248.5113 557.4213,250.0738 557.4213,250.0738 557.7338,251.3238 557.7338,251.3238 558.3588,251.9488 558.3588,251.9488 559.2963,252.2613 559.2963,252.2613 559.6088,252.2613 559.6088,252.2613 560.5463,251.9488 560.5463,251.9488 561.1713,251.3238 561.1713,251.3238 561.4838,250.3863 561.4838,250.3863 561.4838,250.0738 561.4838,250.0738 561.1713,249.1363 561.1713,249.1363 560.5463,248.5113 560.5463,248.5113 559.6088,248.1988 559.6088,248.1988 559.2963,248.1988 559.2963,248.1988 558.3588,248.5113 558.3588,248.5113 557.7338,249.1363 557.7338,249.1363 557.4213,250.0738"/>
    <line x1="565.0541" x2="565.0541" y1="255.1772" y2="268.3022"/>
    <line x1="573.8041" x2="565.0541" y1="255.1772" y2="263.9272"/>
    <line x1="568.1791" x2="573.8041" y1="260.8022" y2="268.3022"/>
    <polyline points="585.8268,281.5748 623.622,281.5748 623.622,281.5748 623.622,243.7795 623.622,243.7795 585.8268,243.7795"/>
    <polygon points="605.3494,255.1772 604.0994,255.8022 604.0994,255.8022 602.8494,257.0522 602.8494,257.0522 602.2244,258.3022 602.2244,258.3022 601.5994,260.1772 601.5994,260.1772 601.5994,263.3022 601.5994,263.3022 602.2244,265.1772 602.2244,265.1772 602.8494,266.4272 602.8494,266.4272 604.0994,267.6772 604.0994,267.6772 605.3494,268.3022 605.3494,268.3022 607.8494,268.3022 607.8494,268.3022 609.0994,267.6772 609.0994,267.6772 610.3494,266.4272 610.3494,266.4272 610.9744,265.1772 610.9744,265.1772 611.5994,263.3022 611.5994,263.3022 611.5994,260.1772 611.5994,260.1772 610.9744,258.3022 610.9744,258.3022 610.3494,257.0522 610.3494,257.0522 609.0994,255.8022 609.0994,255.8022 607.8494,255.1772 607.8494,255.1772"/>
    <polygon points="623.622,281.5748 661.4173,281.5748 661.4173,281.5748 699.2126,281.5748 699.2126,281.5748 699.2126,243.7795 699.2126,243.7795 661.4173,243.7795 661.4173,243.7795 661.4173,281.5748 661.4173,281.5748 661.4173,319.3701 661.4173,319.3701 623.622,319.3701 623.622,319.3701"/>
    <polyline points="640.6447,255.1772 640.6447,264.5522 640.6447,264.5522 641.2697,266.4272 641.2697,266.4272 642.5197,267.6772 642.5197,267.6772 644.3947,268.3022 644.3947,268.3022 645.6447,268.3022 645.6447,268.3022 647.5197,267.6772 647.5197,267.6772 648.7697,266.4272 648.7697,266.4272 649.3947,264.5522 649.3947,264.5522 649.3947,255.1772"/>
    <polyline points="686.565,257.0522 685.315,255.8022 685.315,255.8022 683.44,255.1772 683.44,255.1772 680.94,255.1772 680.94,255.1772 679.065,255.8022 679.065,255.8022 677.815,257.0522 677.815,257.0522 677.815,258.3022 677.815,258.3022 678.44,259.5522 678.44,259.5522 679.065,260.1772 679.065,260.1772 680.315,260.8022 680.315,260.8022 684.065,262.0522 684.065,262.0522 685.315,262.6772 685.315,262.6772 685.94,263.3022 685.94,263.3022 686.565,264.5522 686.565,264.5522 686.565,266.4272 686.565,266.4272 685.315,267.6772 685.315,267.6772 683.44,268.3022 683.44,268.3022 680.94,268.3022 680.94,268.3022 679.065,267.6772 679.065,267.6772 677.815,266.4272"/>
    <polyline points="737.0079,243.7795 737.0079,281.5748 737.0079,281.5748 774.8031,281.5748 774.8031,281.5748 774.8031,243.7795"/>
    <polyline points="762.1555,257.0522 760.9055,255.8022 760.9055,255.8022 759.0305,255.1772 759.0305,255.1772 756.5305,255.1772 756.5305,255.1772 754.6555,255.8022 754.6555,255.8022 753.4055,257.0522 753.4055,257.0522 753.4055,258.3022 753.4055,258.3022 754.0305,259.5522 754.0305,259.5522 754.6555,260.1772 754.6555,260.1772 755.9055,260.8022 755.9055,260.8022 759.6555,262.0522 759.6555,262.0522 760.9055,262.6772 760.9055,262.6772 761.5305,263.3022 761.5305,263.3022 762.1555,264.5522 762.1555,264.5522 762.1555,266.4272 762.1555,266.4272 760.9055,267.6772 760.9055,267.6772 759.0305,268.3022 759.0305,268.3022 756.5305,268.3022 756.5305,268.3022 754.6555,267.6772 754.6555,267.6772 753.4055,266.4272"/>
    <polyline points="119.9483,292.9724 111.8233,292.9724 111.8233,292.9724 111.8233,306.0974 111.8233,306.0974 119.9483,306.0974"/>
    <line x1="111.8233" x2="116.8233" y1="299.2224" y2="299.2224"/>
    <polygon points="207.874,281.5748 207.874,319.3701 207.874,319.3701 245.6693,319.3701 245.6693,319.3701 245.6693,281.5748 245.6693,281.5748"/>
    <polyline points="211.6388,284.7441 212.2638,284.4316 212.2638,284.4316 213.2013,283.4941 213.2013,283.4941 213.2013,290.0566"/>
    <polyline points="216.9513,283.4941 221.3263,283.4941 221.3263,283.4941 218.2013,290.0566"/>
    <polyline points="224.8967,299.2224 230.5217,299.2224 230.5217,299.2224 232.3967,298.5974 232.3967,298.5974 233.0217,297.9724 233.0217,297.9724 233.6467,296.7224 233.6467,296.7224 233.6467,295.4724 233.6467,295.4724 233.0217,294.2224 233.0217,294.2224 232.3967,293.5974 232.3967,293.5974 230.5217,292.9724 230.5217,292.9724 224.8967,292.9724 224.8967,292.9724 224.8967,306.0974"/>
    <line x1="229.2717" x2="233.6467" y1="299.2224" y2="306.0974"/>
    <polygon points="245.6693,319.3701 283.4646,319.3701 283.4646,319.3701 283.4646,357.1654 283.4646,357.1654 245.6693,357.1654 245.6693,357.1654"/>
    <polyline points="271.1294,292.9724 263.0044,292.9724 263.0044,292.9724 263.0044,306.0974 263.0044,306.0974 271.1294,306.0974"/>
    <line x1="263.0044" x2="268.0044" y1="299.2224" y2="299.2224"/>
    <line x1="321.2598" x2="321.2598" y1="319.3701" y2="281.5748"/>
    <line x1="300.4872" x2="300.4872" y1="292.9724" y2="306.0974"/>
    <line x1="309.2372" x2="300.4872" y1="292.9724" y2="301.7224"/>
    <line x1="303.6122" x2="309.2372" y1="298.5974" y2="306.0974"/>
    <line x1="338.2825" x2="338.2825" y1="292.9724" y2="306.0974"/>
    <line x1="347.0325" x2="338.2825" y1="292.9724" y2="301.7224"/>
    <line x1="341.4075" x2="347.0325" y1="298.5974" y2="306.0974"/>
    <line x1="359.0551" x2="396.8504" y1="319.3701" y2="319.3701"/>
    <polyline points="384.5153,292.9724 376.3903,292.9724 376.3903,292.9724 376.3903,306.0974 376.3903,306.0974 384.5153,306.0974"/>
    <line x1="376.3903" x2="381.3903" y1="299.2224" y2="299.2224"/>
    <polyline points="413.873,299.2224 419.498,299.2224 419.498,299.2224 421.373,298.5974 421.373,298.5974 421.998,297.9724 421.998,297.9724 422.623,296.7224 422.623,296.7224 422.623,295.4724 422.623,295.4724 421.998,294.2224 421.998,294.2224 421.373,293.5974 421.373,293.5974 419.498,292.9724 419.498,292.9724 413.873,292.9724 413.873,292.9724 413.873,306.0974"/>
    <line x1="418.248" x2="422.623" y1="299.2224" y2="306.0974"/>
    <line x1="454.1683" x2="454.1683" y1="292.9724" y2="306.0974"/>
    <line x1="449.7933" x2="458.5433" y1="292.9724" y2="292.9724"/>
    <polyline points="495.7136,292.9724 495.7136,302.9724 495.7136,302.9724 495.0886,304.8474 495.0886,304.8474 494.4636,305.4724 494.4636,305.4724 493.2136,306.0974 493.2136,306.0974 491.9636,306.0974 491.9636,306.0974 490.7136,305.4724 490.7136,305.4724 490.0886,304.8474 490.0886,304.8474 489.4636,302.9724 489.4636,302.9724 489.4636,301.7224"/>
    <polyline points="535.6964,292.9724 527.5714,292.9724 527.5714,292.9724 527.5714,306.0974 527.5714,306.0974 535.6964,306.0974"/>
    <line x1="527.5714" x2="532.5714" y1="299.2224" y2="299.2224"/>
    <line x1="645.0197" x2="645.0197" y1="292.9724" y2="306.0974"/>
    <polygon points="18.8976,319.3701 18.8976,357.1654 18.8976,357.1654 56.6929,357.1654 56.6929,357.1654 56.6929,319.3701 56.6929,319.3701"/>
    <polyline points="22.6624,322.5394 23.2874,322.2269 23.2874,322.2269 24.2249,321.2894 24.2249,321.2894 24.2249,327.8519"/>
    <polygon points="29.5374,321.2894 28.5999,321.6019 28.5999,321.6019 28.2874,322.2269 28.2874,322.2269 28.2874,322.8519 28.2874,322.8519 28.5999,323.4769 28.5999,323.4769 29.2249,323.7894 29.2249,323.7894 30.4749,324.1019 30.4749,324.1019 31.4124,324.4144 31.4124,324.4144 32.0374,325.0394 32.0374,325.0394 32.3499,325.6644 32.3499,325.6644 32.3499,326.6019 32.3499,326.6019 32.0374,327.2269 32.0374,327.2269 31.7249,327.5394 31.7249,327.5394 30.7874,327.8519 30.7874,327.8519 29.5374,327.8519 29.5374,327.8519 28.5999,327.5394 28.5999,327.5394 28.2874,327.2269 28.2874,327.2269 27.9749,326.6019 27.9749,326.6019 27.9749,325.6644 27.9749,325.6644 28.2874,325.0394 28.2874,325.0394 28.9124,324.4144 28.9124,324.4144 29.8499,324.1019 29.8499,324.1019 31.0999,323.7894 31.0999,323.7894 31.7249,323.4769 31.7249,323.4769 32.0374,322.8519 32.0374,322.8519 32.0374,322.2269 32.0374,322.2269 31.7249,321.6019 31.7249,321.6019 30.7874,321.2894 30.7874,321.2894"/>
    <polyline points="35.2953,330.7677 44.0453,330.7677 44.0453,330.7677 35.2953,343.8927 35.2953,343.8927 44.0453,343.8927"/>
    <polyline points="56.6929,357.1654 94.4882,357.1654 94.4882,357.1654 94.4882,319.3701 94.4882,319.3701 56.6929,319.3701"/>
    <polygon points="76.2156,330.7677 74.9656,331.3927 74.9656,331.3927 73.7156,332.6427 73.7156,332.6427 73.0906,333.8927 73.0906,333.8927 72.4656,335.7677 72.4656,335.7677 72.4656,338.8927 72.4656,338.8927 73.0906,340.7677 73.0906,340.7677 73.7156,342.0177 73.7156,342.0177 74.9656,343.2677 74.9656,343.2677 76.2156,343.8927 76.2156,343.8927 78.7156,343.8927 78.7156,343.8927 79.9656,343.2677 79.9656,343.2677 81.2156,342.0177 81.2156,342.0177 81.8406,340.7677 81.8406,340.7677 82.4656,338.8927 82.4656,338.8927 82.4656,335.7677 82.4656,335.7677 81.8406,333.8927 81.8406,333.8927 81.2156,332.6427 81.2156,332.6427 79.9656,331.3927 79.9656,331.3927 78.7156,330.7677 78.7156,330.7677"/>
    <polyline points="94.4882,357.1654 132.2835,357.1654 132.2835,357.1654 132.2835,319.3701"/>
    <polyline points="120.2608,330.7677 120.2608,343.8927 120.2608,343.8927 111.5108,330.7677 111.5108,330.7677 111.5108,343.8927"/>
    <polyline points="271.4419,330.7677 271.4419,343.8927 271.4419,343.8927 262.6919,330.7677 262.6919,330.7677 262.6919,343.8927"/>
    <polyline points="498.2136,330.7677 498.2136,343.8927 498.2136,343.8927 489.4636,330.7677 489.4636,330.7677 489.4636,343.8927"/>
  </g>
</svg>
