<?xml version="1.0" encoding="utf-8" ?>
<svg xmlns="http://www.w3.org/2000/svg" xmlns:cc="http://creativecommons.org/ns" xmlns:dc="http://purl.org/dc/elements/1.1/" xmlns:ev="http://www.w3.org/2001/xml-events" xmlns:inkscape="http://www.inkscape.org/namespaces/inkscape" xmlns:rdf="http://www.w3.org/1999/02/22-rdf-syntax-ns" xmlns:sodipodi="http://sodipodi.sourceforge.net/DTD/sodipodi-0.dtd" xmlns:xlink="http://www.w3.org/1999/xlink" baseProfile="tiny" height="9.9cm" version="1.2" viewBox="0 0 793.7007874015749 374.1732283464567" width="21.0cm">
  <metadata>
    <rdf:RDF>
      <cc:Work>
        <dc:format>image/svg+xml</dc:format>
        <dc:source>vpype eval 'cell=10;width=210;height=99' eval 'nCols=20;nRows=9' eval 'cells=[1,2,3,4,13,23,25,26,27,28,29,30,31,32,33,34,35,37,39,40,41,42,43,44,50,57,59,63,65,66,67,68,69,70,71,72,73,74,76,77,78,79,81,83,85,90,93,97,101,103,104,105,106,107,108,109,110,111,113,115,116,117,118,121,123,125,130,132,137,140,141,142,143,144,146,147,148,149,150,151,152,153,154,155,156,157,163,177]' eval 'chars=[&quot;K&quot;,&quot;O&quot;,&quot;U&quot;,&quot;S&quot;,&quot;J&quot;,&quot;I&quot;,&quot;M&quot;,&quot;I&quot;,&quot;S&quot;,&quot;V&quot;,&quot;E&quot;,&quot;R&quot;,&quot;S&quot;,&quot;T&quot;,&quot;A&quot;,&quot;N&quot;,&quot;D&quot;,&quot;S&quot;,&quot;Z&quot;,&quot;L&quot;,&quot;O&quot;,&quot;T&quot;,&quot;T&quot;,&quot;E&quot;,&quot;E&quot;,&quot;K&quot;,&quot;O&quot;,&quot;L&quot;,&quot;G&quot;,&quot;R&quot;,&quot;O&quot;,&quot;E&quot;,&quot;P&quot;,&quot;S&quot;,&quot;F&quot;,&quot;O&quot;,&quot;T&quot;,&quot;O&quot;,&quot;L&quot;,&quot;E&quot;,&quot;O&quot;,&quot;N&quot;,&quot;S&quot;,&quot;I&quot;,&quot;R&quot;,&quot;T&quot;,&quot;O&quot;,&quot;L&quot;,&quot;T&quot;,&quot;K&quot;,&quot;L&quot;,&quot;A&quot;,&quot;V&quot;,&quot;E&quot;,&quot;R&quot;,&quot;T&quot;,&quot;J&quot;,&quot;E&quot;,&quot;M&quot;,&quot;F&quot;,&quot;I&quot;,&quot;L&quot;,&quot;E&quot;,&quot;E&quot;,&quot;K&quot;,&quot;S&quot;,&quot;E&quot;,&quot;A&quot;,&quot;E&quot;,&quot;G&quot;,&quot;R&quot;,&quot;O&quot;,&quot;E&quot;,&quot;N&quot;,&quot;F&quot;,&quot;L&quot;,&quot;E&quot;,&quot;S&quot;,&quot;S&quot;,&quot;E&quot;,&quot;N&quot;,&quot;G&quot;,&quot;E&quot;,&quot;L&quot;,&quot;U&quot;,&quot;K&quot;,&quot;N&quot;,&quot;E&quot;]' eval 'numbers=[1,3,13,25,30,37,39,40,65,73,76,81,103,115,132,140,146]' eval counter=1 eval charIndex=0 begin grid -o '%cell*mm%' '%cell*mm%' %nCols% %nRows% eval '%isCell=_i in cells%' eval '%number=_i in numbers%' eval '%size=10 if isCell else 0%' rect 0 0 '%size*mm%' '%size*mm%' text -s 10 -p 0.5mm 1.5mm '%counter if number else '&quot;'&quot;''&quot;'&quot;'%' text -s 20 -p 5mm 5mm -a center '%chars[charIndex] if isCell else '&quot;'&quot;''&quot;'&quot;'%' eval '%if number: counter+=1 %' eval '%if isCell: charIndex+=1 %' end splitall deduplicate linemerge --tolerance 0.1mm write -m none --page-size '%width*mm%x%height*mm%' --center ./svgs/solution/59d5bd.svg
</dc:source>
        <dc:date>2023-12-24T14:36:22.055063</dc:date>
      </cc:Work>
    </rdf:RDF>
  </metadata>
  <defs/>
  <g fill="none" id="layer1" inkscape:groupmode="layer" inkscape:label="1" stroke="#000000" style="display:inline">
    <polygon points="56.6929,17.0079 56.6929,54.8031 56.6929,54.8031 94.4882,54.8031 94.4882,54.8031 94.4882,17.0079 94.4882,17.0079"/>
    <polyline points="60.4577,20.1772 61.0827,19.8647 61.0827,19.8647 62.0202,18.9272 62.0202,18.9272 62.0202,25.4897"/>
    <line x1="73.7156" x2="73.7156" y1="28.4055" y2="41.5305"/>
    <line x1="82.4656" x2="73.7156" y1="28.4055" y2="37.1555"/>
    <line x1="76.8406" x2="82.4656" y1="34.0305" y2="41.5305"/>
    <polyline points="94.4882,54.8031 132.2835,54.8031 132.2835,54.8031 132.2835,92.5984 132.2835,92.5984 170.0787,92.5984 170.0787,92.5984 170.0787,54.8031 170.0787,54.8031 170.0787,17.0079 170.0787,17.0079 132.2835,17.0079 132.2835,17.0079 94.4882,17.0079"/>
    <polyline points="170.0787,17.0079 207.874,17.0079 207.874,17.0079 207.874,54.8031 207.874,54.8031 245.6693,54.8031 245.6693,54.8031 245.6693,92.5984 245.6693,92.5984 207.874,92.5984 207.874,92.5984 207.874,54.8031 207.874,54.8031 170.0787,54.8031 170.0787,54.8031 132.2835,54.8031 132.2835,54.8031 132.2835,17.0079"/>
    <polygon points="114.0108,28.4055 112.7608,29.0305 112.7608,29.0305 111.5108,30.2805 111.5108,30.2805 110.8858,31.5305 110.8858,31.5305 110.2608,33.4055 110.2608,33.4055 110.2608,36.5305 110.2608,36.5305 110.8858,38.4055 110.8858,38.4055 111.5108,39.6555 111.5108,39.6555 112.7608,40.9055 112.7608,40.9055 114.0108,41.5305 114.0108,41.5305 116.5108,41.5305 116.5108,41.5305 117.7608,40.9055 117.7608,40.9055 119.0108,39.6555 119.0108,39.6555 119.6358,38.4055 119.6358,38.4055 120.2608,36.5305 120.2608,36.5305 120.2608,33.4055 120.2608,33.4055 119.6358,31.5305 119.6358,31.5305 119.0108,30.2805 119.0108,30.2805 117.7608,29.0305 117.7608,29.0305 116.5108,28.4055 116.5108,28.4055"/>
    <polyline points="135.4232,20.4897 135.4232,20.1772 135.4232,20.1772 135.7357,19.5522 135.7357,19.5522 136.0482,19.2397 136.0482,19.2397 136.6732,18.9272 136.6732,18.9272 137.9232,18.9272 137.9232,18.9272 138.5482,19.2397 138.5482,19.2397 138.8607,19.5522 138.8607,19.5522 139.1732,20.1772 139.1732,20.1772 139.1732,20.8022 139.1732,20.8022 138.8607,21.4272 138.8607,21.4272 138.2357,22.3647 138.2357,22.3647 135.1107,25.4897 135.1107,25.4897 139.4857,25.4897"/>
    <polyline points="149.3061,28.4055 149.3061,37.7805 149.3061,37.7805 149.9311,39.6555 149.9311,39.6555 151.1811,40.9055 151.1811,40.9055 153.0561,41.5305 153.0561,41.5305 154.3061,41.5305 154.3061,41.5305 156.1811,40.9055 156.1811,40.9055 157.4311,39.6555 157.4311,39.6555 158.0561,37.7805 158.0561,37.7805 158.0561,28.4055"/>
    <polyline points="195.2264,30.2805 193.9764,29.0305 193.9764,29.0305 192.1014,28.4055 192.1014,28.4055 189.6014,28.4055 189.6014,28.4055 187.7264,29.0305 187.7264,29.0305 186.4764,30.2805 186.4764,30.2805 186.4764,31.5305 186.4764,31.5305 187.1014,32.7805 187.1014,32.7805 187.7264,33.4055 187.7264,33.4055 188.9764,34.0305 188.9764,34.0305 192.7264,35.2805 192.7264,35.2805 193.9764,35.9055 193.9764,35.9055 194.6014,36.5305 194.6014,36.5305 195.2264,37.7805 195.2264,37.7805 195.2264,39.6555 195.2264,39.6555 193.9764,40.9055 193.9764,40.9055 192.1014,41.5305 192.1014,41.5305 189.6014,41.5305 189.6014,41.5305 187.7264,40.9055 187.7264,40.9055 186.4764,39.6555"/>
    <polygon points="510.2362,17.0079 510.2362,54.8031 510.2362,54.8031 548.0315,54.8031 548.0315,54.8031 548.0315,17.0079 548.0315,17.0079"/>
    <polyline points="513.6885,18.9272 517.126,18.9272 517.126,18.9272 515.251,21.4272 515.251,21.4272 516.1885,21.4272 516.1885,21.4272 516.8135,21.7397 516.8135,21.7397 517.126,22.0522 517.126,22.0522 517.4385,22.9897 517.4385,22.9897 517.4385,23.6147 517.4385,23.6147 517.126,24.5522 517.126,24.5522 516.501,25.1772 516.501,25.1772 515.5635,25.4897 515.5635,25.4897 514.626,25.4897 514.626,25.4897 513.6885,25.1772 513.6885,25.1772 513.376,24.8647 513.376,24.8647 513.0635,24.2397"/>
    <polyline points="533.5089,28.4055 533.5089,38.4055 533.5089,38.4055 532.8839,40.2805 532.8839,40.2805 532.2589,40.9055 532.2589,40.9055 531.0089,41.5305 531.0089,41.5305 529.7589,41.5305 529.7589,41.5305 528.5089,40.9055 528.5089,40.9055 527.8839,40.2805 527.8839,40.2805 527.2589,38.4055 527.2589,38.4055 527.2589,37.1555"/>
    <line x1="153.6811" x2="153.6811" y1="66.2008" y2="79.3258"/>
    <polyline points="213.8263,63.2849 213.8263,56.7224 213.8263,56.7224 210.7013,61.0974 210.7013,61.0974 215.3888,61.0974"/>
    <polyline points="234.2717,79.3258 234.2717,66.2008 234.2717,66.2008 229.2717,79.3258 229.2717,79.3258 224.2717,66.2008 224.2717,66.2008 224.2717,79.3258"/>
    <polyline points="245.6693,92.5984 283.4646,92.5984 283.4646,92.5984 321.2598,92.5984 321.2598,92.5984 321.2598,54.8031 321.2598,54.8031 283.4646,54.8031 283.4646,54.8031 245.6693,54.8031"/>
    <line x1="283.4646" x2="283.4646" y1="92.5984" y2="54.8031"/>
    <line x1="267.0669" x2="267.0669" y1="66.2008" y2="79.3258"/>
    <polyline points="308.6122,68.0758 307.3622,66.8258 307.3622,66.8258 305.4872,66.2008 305.4872,66.2008 302.9872,66.2008 302.9872,66.2008 301.1122,66.8258 301.1122,66.8258 299.8622,68.0758 299.8622,68.0758 299.8622,69.3258 299.8622,69.3258 300.4872,70.5758 300.4872,70.5758 301.1122,71.2008 301.1122,71.2008 302.3622,71.8258 302.3622,71.8258 306.1122,73.0758 306.1122,73.0758 307.3622,73.7008 307.3622,73.7008 307.9872,74.3258 307.9872,74.3258 308.6122,75.5758 308.6122,75.5758 308.6122,77.4508 308.6122,77.4508 307.3622,78.7008 307.3622,78.7008 305.4872,79.3258 305.4872,79.3258 302.9872,79.3258 302.9872,79.3258 301.1122,78.7008 301.1122,78.7008 299.8622,77.4508"/>
    <polyline points="321.2598,92.5984 359.0551,92.5984 359.0551,92.5984 359.0551,54.8031 359.0551,54.8031 321.2598,54.8031"/>
    <polyline points="335.7825,66.2008 340.7825,79.3258 340.7825,79.3258 345.7825,66.2008"/>
    <polyline points="359.0551,92.5984 396.8504,92.5984 396.8504,92.5984 434.6457,92.5984 434.6457,92.5984 434.6457,54.8031 434.6457,54.8031 396.8504,54.8031 396.8504,54.8031 359.0551,54.8031"/>
    <polyline points="434.6457,54.8031 472.4409,54.8031 472.4409,54.8031 472.4409,92.5984 472.4409,92.5984 434.6457,92.5984 434.6457,92.5984 434.6457,130.3937 434.6457,130.3937 396.8504,130.3937 396.8504,130.3937 396.8504,92.5984 396.8504,92.5984 396.8504,54.8031"/>
    <polyline points="384.5153,66.2008 376.3903,66.2008 376.3903,66.2008 376.3903,79.3258 376.3903,79.3258 384.5153,79.3258"/>
    <line x1="376.3903" x2="381.3903" y1="72.4508" y2="72.4508"/>
    <polyline points="403.4277,56.7224 400.3027,56.7224 400.3027,56.7224 399.9902,59.5349 399.9902,59.5349 400.3027,59.2224 400.3027,59.2224 401.2402,58.9099 401.2402,58.9099 402.1777,58.9099 402.1777,58.9099 403.1152,59.2224 403.1152,59.2224 403.7402,59.8474 403.7402,59.8474 404.0527,60.7849 404.0527,60.7849 404.0527,61.4099 404.0527,61.4099 403.7402,62.3474 403.7402,62.3474 403.1152,62.9724 403.1152,62.9724 402.1777,63.2849 402.1777,63.2849 401.2402,63.2849 401.2402,63.2849 400.3027,62.9724 400.3027,62.9724 399.9902,62.6599 399.9902,62.6599 399.6777,62.0349"/>
    <polyline points="413.873,72.4508 419.498,72.4508 419.498,72.4508 421.373,71.8258 421.373,71.8258 421.998,71.2008 421.998,71.2008 422.623,69.9508 422.623,69.9508 422.623,68.7008 422.623,68.7008 421.998,67.4508 421.998,67.4508 421.373,66.8258 421.373,66.8258 419.498,66.2008 419.498,66.2008 413.873,66.2008 413.873,66.2008 413.873,79.3258"/>
    <line x1="418.248" x2="422.623" y1="72.4508" y2="79.3258"/>
    <polyline points="459.7933,68.0758 458.5433,66.8258 458.5433,66.8258 456.6683,66.2008 456.6683,66.2008 454.1683,66.2008 454.1683,66.2008 452.2933,66.8258 452.2933,66.8258 451.0433,68.0758 451.0433,68.0758 451.0433,69.3258 451.0433,69.3258 451.6683,70.5758 451.6683,70.5758 452.2933,71.2008 452.2933,71.2008 453.5433,71.8258 453.5433,71.8258 457.2933,73.0758 457.2933,73.0758 458.5433,73.7008 458.5433,73.7008 459.1683,74.3258 459.1683,74.3258 459.7933,75.5758 459.7933,75.5758 459.7933,77.4508 459.7933,77.4508 458.5433,78.7008 458.5433,78.7008 456.6683,79.3258 456.6683,79.3258 454.1683,79.3258 454.1683,79.3258 452.2933,78.7008 452.2933,78.7008 451.0433,77.4508"/>
    <polyline points="472.4409,92.5984 510.2362,92.5984 510.2362,92.5984 548.0315,92.5984 548.0315,92.5984 548.0315,54.8031 548.0315,54.8031 585.8268,54.8031 585.8268,54.8031 585.8268,92.5984 585.8268,92.5984 548.0315,92.5984"/>
    <polyline points="510.2362,92.5984 510.2362,54.8031 510.2362,54.8031 472.4409,54.8031"/>
    <line x1="491.9636" x2="491.9636" y1="66.2008" y2="79.3258"/>
    <line x1="487.5886" x2="496.3386" y1="66.2008" y2="66.2008"/>
    <polyline points="534.7589,79.3258 529.7589,66.2008 529.7589,66.2008 524.7589,79.3258"/>
    <line x1="526.6339" x2="532.8839" y1="74.9508" y2="74.9508"/>
    <polyline points="573.8041,66.2008 573.8041,79.3258 573.8041,79.3258 565.0541,66.2008 565.0541,66.2008 565.0541,79.3258"/>
    <polyline points="585.8268,92.5984 623.622,92.5984 623.622,92.5984 623.622,54.8031 623.622,54.8031 585.8268,54.8031"/>
    <polygon points="602.8494,66.2008 602.8494,79.3258 602.8494,79.3258 607.2244,79.3258 607.2244,79.3258 609.0994,78.7008 609.0994,78.7008 610.3494,77.4508 610.3494,77.4508 610.9744,76.2008 610.9744,76.2008 611.5994,74.3258 611.5994,74.3258 611.5994,71.2008 611.5994,71.2008 610.9744,69.3258 610.9744,69.3258 610.3494,68.0758 610.3494,68.0758 609.0994,66.8258 609.0994,66.8258 607.2244,66.2008 607.2244,66.2008"/>
    <polygon points="661.4173,54.8031 661.4173,92.5984 661.4173,92.5984 699.2126,92.5984 699.2126,92.5984 699.2126,54.8031 699.2126,54.8031"/>
    <polyline points="668.3071,57.6599 667.9946,57.0349 667.9946,57.0349 667.0571,56.7224 667.0571,56.7224 666.4321,56.7224 666.4321,56.7224 665.4946,57.0349 665.4946,57.0349 664.8696,57.9724 664.8696,57.9724 664.5571,59.5349 664.5571,59.5349 664.5571,61.0974 664.5571,61.0974 664.8696,62.3474 664.8696,62.3474 665.4946,62.9724 665.4946,62.9724 666.4321,63.2849 666.4321,63.2849 666.7446,63.2849 666.7446,63.2849 667.6821,62.9724 667.6821,62.9724 668.3071,62.3474 668.3071,62.3474 668.6196,61.4099 668.6196,61.4099 668.6196,61.0974 668.6196,61.0974 668.3071,60.1599 668.3071,60.1599 667.6821,59.5349 667.6821,59.5349 666.7446,59.2224 666.7446,59.2224 666.4321,59.2224 666.4321,59.2224 665.4946,59.5349 665.4946,59.5349 664.8696,60.1599 664.8696,60.1599 664.5571,61.0974"/>
    <polyline points="686.565,68.0758 685.315,66.8258 685.315,66.8258 683.44,66.2008 683.44,66.2008 680.94,66.2008 680.94,66.2008 679.065,66.8258 679.065,66.8258 677.815,68.0758 677.815,68.0758 677.815,69.3258 677.815,69.3258 678.44,70.5758 678.44,70.5758 679.065,71.2008 679.065,71.2008 680.315,71.8258 680.315,71.8258 684.065,73.0758 684.065,73.0758 685.315,73.7008 685.315,73.7008 685.94,74.3258 685.94,74.3258 686.565,75.5758 686.565,75.5758 686.565,77.4508 686.565,77.4508 685.315,78.7008 685.315,78.7008 683.44,79.3258 683.44,79.3258 680.94,79.3258 680.94,79.3258 679.065,78.7008 679.065,78.7008 677.815,77.4508"/>
    <polygon points="737.0079,54.8031 737.0079,92.5984 737.0079,92.5984 774.8031,92.5984 774.8031,92.5984 774.8031,54.8031 774.8031,54.8031"/>
    <polyline points="739.8351,56.7224 744.2101,56.7224 744.2101,56.7224 741.0851,63.2849"/>
    <polyline points="753.4055,66.2008 762.1555,66.2008 762.1555,66.2008 753.4055,79.3258 753.4055,79.3258 762.1555,79.3258"/>
    <polygon points="18.8976,92.5984 18.8976,130.3937 18.8976,130.3937 56.6929,130.3937 56.6929,130.3937 56.6929,92.5984 56.6929,92.5984"/>
    <polygon points="23.2874,94.5177 22.3499,94.8302 22.3499,94.8302 22.0374,95.4552 22.0374,95.4552 22.0374,96.0802 22.0374,96.0802 22.3499,96.7052 22.3499,96.7052 22.9749,97.0177 22.9749,97.0177 24.2249,97.3302 24.2249,97.3302 25.1624,97.6427 25.1624,97.6427 25.7874,98.2677 25.7874,98.2677 26.0999,98.8927 26.0999,98.8927 26.0999,99.8302 26.0999,99.8302 25.7874,100.4552 25.7874,100.4552 25.4749,100.7677 25.4749,100.7677 24.5374,101.0802 24.5374,101.0802 23.2874,101.0802 23.2874,101.0802 22.3499,100.7677 22.3499,100.7677 22.0374,100.4552 22.0374,100.4552 21.7249,99.8302 21.7249,99.8302 21.7249,98.8927 21.7249,98.8927 22.0374,98.2677 22.0374,98.2677 22.6624,97.6427 22.6624,97.6427 23.5999,97.3302 23.5999,97.3302 24.8499,97.0177 24.8499,97.0177 25.4749,96.7052 25.4749,96.7052 25.7874,96.0802 25.7874,96.0802 25.7874,95.4552 25.7874,95.4552 25.4749,94.8302 25.4749,94.8302 24.5374,94.5177 24.5374,94.5177"/>
    <polyline points="36.5453,103.9961 36.5453,117.1211 36.5453,117.1211 44.0453,117.1211"/>
    <polyline points="56.6929,130.3937 94.4882,130.3937 94.4882,130.3937 132.2835,130.3937 132.2835,130.3937 132.2835,92.5984 132.2835,92.5984 94.4882,92.5984 94.4882,92.5984 56.6929,92.5984"/>
    <line x1="94.4882" x2="94.4882" y1="130.3937" y2="92.5984"/>
    <polygon points="76.2156,103.9961 74.9656,104.6211 74.9656,104.6211 73.7156,105.8711 73.7156,105.8711 73.0906,107.1211 73.0906,107.1211 72.4656,108.9961 72.4656,108.9961 72.4656,112.1211 72.4656,112.1211 73.0906,113.9961 73.0906,113.9961 73.7156,115.2461 73.7156,115.2461 74.9656,116.4961 74.9656,116.4961 76.2156,117.1211 76.2156,117.1211 78.7156,117.1211 78.7156,117.1211 79.9656,116.4961 79.9656,116.4961 81.2156,115.2461 81.2156,115.2461 81.8406,113.9961 81.8406,113.9961 82.4656,112.1211 82.4656,112.1211 82.4656,108.9961 82.4656,108.9961 81.8406,107.1211 81.8406,107.1211 81.2156,105.8711 81.2156,105.8711 79.9656,104.6211 79.9656,104.6211 78.7156,103.9961 78.7156,103.9961"/>
    <line x1="114.0108" x2="114.0108" y1="103.9961" y2="117.1211"/>
    <line x1="109.6358" x2="118.3858" y1="103.9961" y2="103.9961"/>
    <polyline points="132.2835,168.189 132.2835,130.3937 132.2835,130.3937 170.0787,130.3937 170.0787,130.3937 207.874,130.3937 207.874,130.3937 207.874,168.189 207.874,168.189 245.6693,168.189 245.6693,168.189 245.6693,130.3937 245.6693,130.3937 207.874,130.3937 207.874,130.3937 207.874,92.5984 207.874,92.5984 170.0787,92.5984 170.0787,92.5984 170.0787,130.3937 170.0787,130.3937 170.0787,168.189 170.0787,168.189 132.2835,168.189 132.2835,168.189 132.2835,205.9843 132.2835,205.9843 132.2835,243.7795 132.2835,243.7795 170.0787,243.7795 170.0787,243.7795 170.0787,205.9843 170.0787,205.9843 170.0787,168.189"/>
    <line x1="151.8061" x2="151.8061" y1="103.9961" y2="117.1211"/>
    <line x1="147.4311" x2="156.1811" y1="103.9961" y2="103.9961"/>
    <polyline points="195.5389,103.9961 187.4139,103.9961 187.4139,103.9961 187.4139,117.1211 187.4139,117.1211 195.5389,117.1211"/>
    <line x1="187.4139" x2="192.4139" y1="110.2461" y2="110.2461"/>
    <polyline points="422.3105,103.9961 414.1855,103.9961 414.1855,103.9961 414.1855,117.1211 414.1855,117.1211 422.3105,117.1211"/>
    <line x1="414.1855" x2="419.1855" y1="110.2461" y2="110.2461"/>
    <polyline points="661.4173,92.5984 661.4173,130.3937 661.4173,130.3937 699.2126,130.3937 699.2126,130.3937 699.2126,92.5984"/>
    <line x1="678.44" x2="678.44" y1="103.9961" y2="117.1211"/>
    <line x1="687.19" x2="678.44" y1="103.9961" y2="112.7461"/>
    <line x1="681.565" x2="687.19" y1="109.6211" y2="117.1211"/>
    <polyline points="737.0079,92.5984 737.0079,130.3937 737.0079,130.3937 774.8031,130.3937 774.8031,130.3937 774.8031,92.5984"/>
    <polygon points="756.5305,103.9961 755.2805,104.6211 755.2805,104.6211 754.0305,105.8711 754.0305,105.8711 753.4055,107.1211 753.4055,107.1211 752.7805,108.9961 752.7805,108.9961 752.7805,112.1211 752.7805,112.1211 753.4055,113.9961 753.4055,113.9961 754.0305,115.2461 754.0305,115.2461 755.2805,116.4961 755.2805,116.4961 756.5305,117.1211 756.5305,117.1211 759.0305,117.1211 759.0305,117.1211 760.2805,116.4961 760.2805,116.4961 761.5305,115.2461 761.5305,115.2461 762.1555,113.9961 762.1555,113.9961 762.7805,112.1211 762.7805,112.1211 762.7805,108.9961 762.7805,108.9961 762.1555,107.1211 762.1555,107.1211 761.5305,105.8711 761.5305,105.8711 760.2805,104.6211 760.2805,104.6211 759.0305,103.9961 759.0305,103.9961"/>
    <polyline points="149.9311,141.7913 149.9311,154.9163 149.9311,154.9163 157.4311,154.9163"/>
    <polyline points="214.7638,134.5005 214.4513,135.438 214.4513,135.438 213.8263,136.063 213.8263,136.063 212.8888,136.3755 212.8888,136.3755 212.5763,136.3755 212.5763,136.3755 211.6388,136.063 211.6388,136.063 211.0138,135.438 211.0138,135.438 210.7013,134.5005 210.7013,134.5005 210.7013,134.188 210.7013,134.188 211.0138,133.2505 211.0138,133.2505 211.6388,132.6255 211.6388,132.6255 212.5763,132.313 212.5763,132.313 212.8888,132.313 212.8888,132.313 213.8263,132.6255 213.8263,132.6255 214.4513,133.2505 214.4513,133.2505 214.7638,134.5005 214.7638,134.5005 214.7638,136.063 214.7638,136.063 214.4513,137.6255 214.4513,137.6255 213.8263,138.563 213.8263,138.563 212.8888,138.8755 212.8888,138.8755 212.2638,138.8755 212.2638,138.8755 211.3263,138.563 211.3263,138.563 211.0138,137.938"/>
    <polyline points="233.3342,144.9163 232.7092,143.6663 232.7092,143.6663 231.4592,142.4163 231.4592,142.4163 230.2092,141.7913 230.2092,141.7913 227.7092,141.7913 227.7092,141.7913 226.4592,142.4163 226.4592,142.4163 225.2092,143.6663 225.2092,143.6663 224.5842,144.9163 224.5842,144.9163 223.9592,146.7913 223.9592,146.7913 223.9592,149.9163 223.9592,149.9163 224.5842,151.7913 224.5842,151.7913 225.2092,153.0413 225.2092,153.0413 226.4592,154.2913 226.4592,154.2913 227.7092,154.9163 227.7092,154.9163 230.2092,154.9163 230.2092,154.9163 231.4592,154.2913 231.4592,154.2913 232.7092,153.0413 232.7092,153.0413 233.3342,151.7913 233.3342,151.7913 233.3342,149.9163 233.3342,149.9163 230.2092,149.9163"/>
    <polyline points="472.4409,130.3937 510.2362,130.3937 510.2362,130.3937 548.0315,130.3937 548.0315,130.3937 548.0315,168.189 548.0315,168.189 548.0315,205.9843 548.0315,205.9843 510.2362,205.9843 510.2362,205.9843 510.2362,168.189 510.2362,168.189 472.4409,168.189 472.4409,168.189 472.4409,130.3937 472.4409,130.3937 434.6457,130.3937 434.6457,130.3937 434.6457,168.189 434.6457,168.189 434.6457,205.9843 434.6457,205.9843 434.6457,243.7795 434.6457,243.7795 396.8504,243.7795 396.8504,243.7795 359.0551,243.7795 359.0551,243.7795 321.2598,243.7795 321.2598,243.7795 321.2598,205.9843 321.2598,205.9843 283.4646,205.9843 283.4646,205.9843 245.6693,205.9843 245.6693,205.9843 207.874,205.9843 207.874,205.9843 207.874,243.7795 207.874,243.7795 245.6693,243.7795 245.6693,243.7795 245.6693,205.9843 245.6693,205.9843 245.6693,168.189 245.6693,168.189 283.4646,168.189 283.4646,168.189 321.2598,168.189 321.2598,168.189 321.2598,130.3937 321.2598,130.3937 283.4646,130.3937 283.4646,130.3937 245.6693,130.3937"/>
    <line x1="283.4646" x2="283.4646" y1="168.189" y2="130.3937"/>
    <polyline points="262.6919,148.0413 268.3169,148.0413 268.3169,148.0413 270.1919,147.4163 270.1919,147.4163 270.8169,146.7913 270.8169,146.7913 271.4419,145.5413 271.4419,145.5413 271.4419,144.2913 271.4419,144.2913 270.8169,143.0413 270.8169,143.0413 270.1919,142.4163 270.1919,142.4163 268.3169,141.7913 268.3169,141.7913 262.6919,141.7913 262.6919,141.7913 262.6919,154.9163"/>
    <line x1="267.0669" x2="271.4419" y1="148.0413" y2="154.9163"/>
    <polygon points="302.9872,141.7913 301.7372,142.4163 301.7372,142.4163 300.4872,143.6663 300.4872,143.6663 299.8622,144.9163 299.8622,144.9163 299.2372,146.7913 299.2372,146.7913 299.2372,149.9163 299.2372,149.9163 299.8622,151.7913 299.8622,151.7913 300.4872,153.0413 300.4872,153.0413 301.7372,154.2913 301.7372,154.2913 302.9872,154.9163 302.9872,154.9163 305.4872,154.9163 305.4872,154.9163 306.7372,154.2913 306.7372,154.2913 307.9872,153.0413 307.9872,153.0413 308.6122,151.7913 308.6122,151.7913 309.2372,149.9163 309.2372,149.9163 309.2372,146.7913 309.2372,146.7913 308.6122,144.9163 308.6122,144.9163 307.9872,143.6663 307.9872,143.6663 306.7372,142.4163 306.7372,142.4163 305.4872,141.7913 305.4872,141.7913"/>
    <polyline points="321.2598,168.189 359.0551,168.189 359.0551,168.189 396.8504,168.189 396.8504,168.189 396.8504,205.9843 396.8504,205.9843 434.6457,205.9843 434.6457,205.9843 472.4409,205.9843 472.4409,205.9843 472.4409,243.7795 472.4409,243.7795 434.6457,243.7795 434.6457,243.7795 434.6457,281.5748 434.6457,281.5748 434.6457,319.3701 434.6457,319.3701 396.8504,319.3701 396.8504,319.3701 396.8504,281.5748 396.8504,281.5748 359.0551,281.5748 359.0551,281.5748 321.2598,281.5748 321.2598,281.5748 283.4646,281.5748 283.4646,281.5748 245.6693,281.5748 245.6693,281.5748 245.6693,319.3701 245.6693,319.3701 283.4646,319.3701 283.4646,319.3701 283.4646,281.5748"/>
    <polyline points="359.0551,168.189 359.0551,130.3937 359.0551,130.3937 321.2598,130.3937"/>
    <polyline points="346.72,141.7913 338.595,141.7913 338.595,141.7913 338.595,154.9163 338.595,154.9163 346.72,154.9163"/>
    <line x1="338.595" x2="343.595" y1="148.0413" y2="148.0413"/>
    <polyline points="472.4409,168.189 434.6457,168.189 434.6457,168.189 396.8504,168.189 396.8504,168.189 396.8504,130.3937 396.8504,130.3937 359.0551,130.3937"/>
    <polyline points="376.0778,148.6663 381.7028,148.6663 381.7028,148.6663 383.5778,148.0413 383.5778,148.0413 384.2028,147.4163 384.2028,147.4163 384.8278,146.1663 384.8278,146.1663 384.8278,144.2913 384.8278,144.2913 384.2028,143.0413 384.2028,143.0413 383.5778,142.4163 383.5778,142.4163 381.7028,141.7913 381.7028,141.7913 376.0778,141.7913 376.0778,141.7913 376.0778,154.9163"/>
    <polyline points="421.998,143.6663 420.748,142.4163 420.748,142.4163 418.873,141.7913 418.873,141.7913 416.373,141.7913 416.373,141.7913 414.498,142.4163 414.498,142.4163 413.248,143.6663 413.248,143.6663 413.248,144.9163 413.248,144.9163 413.873,146.1663 413.873,146.1663 414.498,146.7913 414.498,146.7913 415.748,147.4163 415.748,147.4163 419.498,148.6663 419.498,148.6663 420.748,149.2913 420.748,149.2913 421.373,149.9163 421.373,149.9163 421.998,151.1663 421.998,151.1663 421.998,153.0413 421.998,153.0413 420.748,154.2913 420.748,154.2913 418.873,154.9163 418.873,154.9163 416.373,154.9163 416.373,154.9163 414.498,154.2913 414.498,154.2913 413.248,153.0413"/>
    <polyline points="460.1058,141.7913 451.9808,141.7913 451.9808,141.7913 451.9808,154.9163"/>
    <line x1="451.9808" x2="456.9808" y1="148.0413" y2="148.0413"/>
    <polyline points="548.0315,130.3937 585.8268,130.3937 585.8268,130.3937 585.8268,168.189 585.8268,168.189 548.0315,168.189 548.0315,168.189 510.2362,168.189 510.2362,168.189 510.2362,130.3937"/>
    <polygon points="491.9636,141.7913 490.7136,142.4163 490.7136,142.4163 489.4636,143.6663 489.4636,143.6663 488.8386,144.9163 488.8386,144.9163 488.2136,146.7913 488.2136,146.7913 488.2136,149.9163 488.2136,149.9163 488.8386,151.7913 488.8386,151.7913 489.4636,153.0413 489.4636,153.0413 490.7136,154.2913 490.7136,154.2913 491.9636,154.9163 491.9636,154.9163 494.4636,154.9163 494.4636,154.9163 495.7136,154.2913 495.7136,154.2913 496.9636,153.0413 496.9636,153.0413 497.5886,151.7913 497.5886,151.7913 498.2136,149.9163 498.2136,149.9163 498.2136,146.7913 498.2136,146.7913 497.5886,144.9163 497.5886,144.9163 496.9636,143.6663 496.9636,143.6663 495.7136,142.4163 495.7136,142.4163 494.4636,141.7913 494.4636,141.7913"/>
    <polyline points="514.001,133.563 514.626,133.2505 514.626,133.2505 515.5635,132.313 515.5635,132.313 515.5635,138.8755"/>
    <polygon points="521.1885,132.313 520.251,132.6255 520.251,132.6255 519.626,133.563 519.626,133.563 519.3135,135.1255 519.3135,135.1255 519.3135,136.063 519.3135,136.063 519.626,137.6255 519.626,137.6255 520.251,138.563 520.251,138.563 521.1885,138.8755 521.1885,138.8755 521.8135,138.8755 521.8135,138.8755 522.751,138.563 522.751,138.563 523.376,137.6255 523.376,137.6255 523.6885,136.063 523.6885,136.063 523.6885,135.1255 523.6885,135.1255 523.376,133.563 523.376,133.563 522.751,132.6255 522.751,132.6255 521.8135,132.313 521.8135,132.313"/>
    <line x1="529.7589" x2="529.7589" y1="141.7913" y2="154.9163"/>
    <line x1="525.3839" x2="534.1339" y1="141.7913" y2="141.7913"/>
    <polygon points="567.5541,141.7913 566.3041,142.4163 566.3041,142.4163 565.0541,143.6663 565.0541,143.6663 564.4291,144.9163 564.4291,144.9163 563.8041,146.7913 563.8041,146.7913 563.8041,149.9163 563.8041,149.9163 564.4291,151.7913 564.4291,151.7913 565.0541,153.0413 565.0541,153.0413 566.3041,154.2913 566.3041,154.2913 567.5541,154.9163 567.5541,154.9163 570.0541,154.9163 570.0541,154.9163 571.3041,154.2913 571.3041,154.2913 572.5541,153.0413 572.5541,153.0413 573.1791,151.7913 573.1791,151.7913 573.8041,149.9163 573.8041,149.9163 573.8041,146.7913 573.8041,146.7913 573.1791,144.9163 573.1791,144.9163 572.5541,143.6663 572.5541,143.6663 571.3041,142.4163 571.3041,142.4163 570.0541,141.7913 570.0541,141.7913"/>
    <polyline points="737.0079,168.189 699.2126,168.189 699.2126,168.189 699.2126,205.9843 699.2126,205.9843 699.2126,243.7795 699.2126,243.7795 661.4173,243.7795 661.4173,243.7795 623.622,243.7795 623.622,243.7795 585.8268,243.7795 585.8268,243.7795 585.8268,205.9843 585.8268,205.9843 623.622,205.9843 623.622,205.9843 661.4173,205.9843 661.4173,205.9843 661.4173,168.189 661.4173,168.189 661.4173,130.3937 661.4173,130.3937 623.622,130.3937 623.622,130.3937 623.622,168.189 623.622,168.189 661.4173,168.189 661.4173,168.189 699.2126,168.189 699.2126,168.189 699.2126,130.3937 699.2126,130.3937 737.0079,130.3937 737.0079,130.3937 737.0079,168.189 737.0079,168.189 774.8031,168.189 774.8031,168.189 774.8031,130.3937"/>
    <polyline points="627.3868,133.563 628.0118,133.2505 628.0118,133.2505 628.9493,132.313 628.9493,132.313 628.9493,138.8755"/>
    <polyline points="633.6368,133.563 634.2618,133.2505 634.2618,133.2505 635.1993,132.313 635.1993,132.313 635.1993,138.8755"/>
    <polyline points="641.2697,141.7913 641.2697,154.9163 641.2697,154.9163 648.7697,154.9163"/>
    <polyline points="686.8775,141.7913 678.7525,141.7913 678.7525,141.7913 678.7525,154.9163 678.7525,154.9163 686.8775,154.9163"/>
    <line x1="678.7525" x2="683.7525" y1="148.0413" y2="148.0413"/>
    <polygon points="718.7352,141.7913 717.4852,142.4163 717.4852,142.4163 716.2352,143.6663 716.2352,143.6663 715.6102,144.9163 715.6102,144.9163 714.9852,146.7913 714.9852,146.7913 714.9852,149.9163 714.9852,149.9163 715.6102,151.7913 715.6102,151.7913 716.2352,153.0413 716.2352,153.0413 717.4852,154.2913 717.4852,154.2913 718.7352,154.9163 718.7352,154.9163 721.2352,154.9163 721.2352,154.9163 722.4852,154.2913 722.4852,154.2913 723.7352,153.0413 723.7352,153.0413 724.3602,151.7913 724.3602,151.7913 724.9852,149.9163 724.9852,149.9163 724.9852,146.7913 724.9852,146.7913 724.3602,144.9163 724.3602,144.9163 723.7352,143.6663 723.7352,143.6663 722.4852,142.4163 722.4852,142.4163 721.2352,141.7913 721.2352,141.7913"/>
    <polyline points="762.7805,141.7913 762.7805,154.9163 762.7805,154.9163 754.0305,141.7913 754.0305,141.7913 754.0305,154.9163"/>
    <polygon points="56.6929,168.189 56.6929,205.9843 56.6929,205.9843 94.4882,205.9843 94.4882,205.9843 94.4882,168.189 94.4882,168.189"/>
    <polyline points="60.4577,171.3583 61.0827,171.0458 61.0827,171.0458 62.0202,170.1083 62.0202,170.1083 62.0202,176.6708"/>
    <polyline points="66.0827,171.6708 66.0827,171.3583 66.0827,171.3583 66.3952,170.7333 66.3952,170.7333 66.7077,170.4208 66.7077,170.4208 67.3327,170.1083 67.3327,170.1083 68.5827,170.1083 68.5827,170.1083 69.2077,170.4208 69.2077,170.4208 69.5202,170.7333 69.5202,170.7333 69.8327,171.3583 69.8327,171.3583 69.8327,171.9833 69.8327,171.9833 69.5202,172.6083 69.5202,172.6083 68.8952,173.5458 68.8952,173.5458 65.7702,176.6708 65.7702,176.6708 70.1452,176.6708"/>
    <polyline points="81.8406,181.4616 80.5906,180.2116 80.5906,180.2116 78.7156,179.5866 78.7156,179.5866 76.2156,179.5866 76.2156,179.5866 74.3406,180.2116 74.3406,180.2116 73.0906,181.4616 73.0906,181.4616 73.0906,182.7116 73.0906,182.7116 73.7156,183.9616 73.7156,183.9616 74.3406,184.5866 74.3406,184.5866 75.5906,185.2116 75.5906,185.2116 79.3406,186.4616 79.3406,186.4616 80.5906,187.0866 80.5906,187.0866 81.2156,187.7116 81.2156,187.7116 81.8406,188.9616 81.8406,188.9616 81.8406,190.8366 81.8406,190.8366 80.5906,192.0866 80.5906,192.0866 78.7156,192.7116 78.7156,192.7116 76.2156,192.7116 76.2156,192.7116 74.3406,192.0866 74.3406,192.0866 73.0906,190.8366"/>
    <polyline points="132.2835,205.9843 170.0787,205.9843 170.0787,205.9843 207.874,205.9843 207.874,205.9843 207.874,168.189"/>
    <line x1="153.6811" x2="153.6811" y1="179.5866" y2="192.7116"/>
    <polyline points="224.8967,185.8366 230.5217,185.8366 230.5217,185.8366 232.3967,185.2116 232.3967,185.2116 233.0217,184.5866 233.0217,184.5866 233.6467,183.3366 233.6467,183.3366 233.6467,182.0866 233.6467,182.0866 233.0217,180.8366 233.0217,180.8366 232.3967,180.2116 232.3967,180.2116 230.5217,179.5866 230.5217,179.5866 224.8967,179.5866 224.8967,179.5866 224.8967,192.7116"/>
    <line x1="229.2717" x2="233.6467" y1="185.8366" y2="192.7116"/>
    <line x1="416.373" x2="416.373" y1="179.5866" y2="192.7116"/>
    <line x1="411.998" x2="420.748" y1="179.5866" y2="179.5866"/>
    <polygon points="529.7589,179.5866 528.5089,180.2116 528.5089,180.2116 527.2589,181.4616 527.2589,181.4616 526.6339,182.7116 526.6339,182.7116 526.0089,184.5866 526.0089,184.5866 526.0089,187.7116 526.0089,187.7116 526.6339,189.5866 526.6339,189.5866 527.2589,190.8366 527.2589,190.8366 528.5089,192.0866 528.5089,192.0866 529.7589,192.7116 529.7589,192.7116 532.2589,192.7116 532.2589,192.7116 533.5089,192.0866 533.5089,192.0866 534.7589,190.8366 534.7589,190.8366 535.3839,189.5866 535.3839,189.5866 536.0089,187.7116 536.0089,187.7116 536.0089,184.5866 536.0089,184.5866 535.3839,182.7116 535.3839,182.7116 534.7589,181.4616 534.7589,181.4616 533.5089,180.2116 533.5089,180.2116 532.2589,179.5866 532.2589,179.5866"/>
    <polyline points="699.2126,281.5748 661.4173,281.5748 661.4173,281.5748 661.4173,243.7795 661.4173,243.7795 661.4173,205.9843 661.4173,205.9843 699.2126,205.9843 699.2126,205.9843 737.0079,205.9843 737.0079,205.9843 737.0079,243.7795 737.0079,243.7795 699.2126,243.7795 699.2126,243.7795 699.2126,281.5748 699.2126,281.5748 699.2126,319.3701 699.2126,319.3701 661.4173,319.3701 661.4173,319.3701 661.4173,281.5748 661.4173,281.5748 623.622,281.5748 623.622,281.5748 585.8268,281.5748 585.8268,281.5748 548.0315,281.5748 548.0315,281.5748 510.2362,281.5748 510.2362,281.5748 510.2362,243.7795 510.2362,243.7795 472.4409,243.7795 472.4409,243.7795 472.4409,281.5748 472.4409,281.5748 434.6457,281.5748 434.6457,281.5748 396.8504,281.5748 396.8504,281.5748 396.8504,243.7795 396.8504,243.7795 396.8504,205.9843 396.8504,205.9843 359.0551,205.9843 359.0551,205.9843 321.2598,205.9843"/>
    <polyline points="679.065,179.5866 679.065,192.7116 679.065,192.7116 686.565,192.7116"/>
    <polyline points="56.6929,205.9843 56.6929,243.7795 56.6929,243.7795 94.4882,243.7795 94.4882,243.7795 94.4882,205.9843"/>
    <line x1="76.2156" x2="76.2156" y1="217.3819" y2="230.5069"/>
    <line x1="71.8406" x2="80.5906" y1="217.3819" y2="217.3819"/>
    <polyline points="136.0482,209.1535 136.6732,208.841 136.6732,208.841 137.6107,207.9035 137.6107,207.9035 137.6107,214.466"/>
    <polyline points="141.9857,207.9035 145.4232,207.9035 145.4232,207.9035 143.5482,210.4035 143.5482,210.4035 144.4857,210.4035 144.4857,210.4035 145.1107,210.716 145.1107,210.716 145.4232,211.0285 145.4232,211.0285 145.7357,211.966 145.7357,211.966 145.7357,212.591 145.7357,212.591 145.4232,213.5285 145.4232,213.5285 144.7982,214.1535 144.7982,214.1535 143.8607,214.466 143.8607,214.466 142.9232,214.466 142.9232,214.466 141.9857,214.1535 141.9857,214.1535 141.6732,213.841 141.6732,213.841 141.3607,213.216"/>
    <line x1="149.3061" x2="149.3061" y1="217.3819" y2="230.5069"/>
    <line x1="158.0561" x2="149.3061" y1="217.3819" y2="226.1319"/>
    <line x1="152.4311" x2="158.0561" y1="223.0069" y2="230.5069"/>
    <polyline points="170.0787,243.7795 207.874,243.7795 207.874,243.7795 207.874,281.5748 207.874,281.5748 170.0787,281.5748 170.0787,281.5748 170.0787,243.7795"/>
    <polyline points="187.7264,217.3819 187.7264,230.5069 187.7264,230.5069 195.2264,230.5069"/>
    <polyline points="232.3967,230.5069 227.3967,217.3819 227.3967,217.3819 222.3967,230.5069"/>
    <line x1="224.2717" x2="230.5217" y1="226.1319" y2="226.1319"/>
    <polyline points="94.4882,243.7795 94.4882,281.5748 94.4882,281.5748 132.2835,281.5748 132.2835,281.5748 170.0787,281.5748 170.0787,281.5748 170.0787,319.3701 170.0787,319.3701 207.874,319.3701 207.874,319.3701 207.874,281.5748 207.874,281.5748 245.6693,281.5748 245.6693,281.5748 245.6693,243.7795 245.6693,243.7795 283.4646,243.7795 283.4646,243.7795 321.2598,243.7795"/>
    <line x1="283.4646" x2="283.4646" y1="243.7795" y2="205.9843"/>
    <polyline points="260.1919,217.3819 265.1919,230.5069 265.1919,230.5069 270.1919,217.3819"/>
    <polyline points="308.9247,217.3819 300.7997,217.3819 300.7997,217.3819 300.7997,230.5069 300.7997,230.5069 308.9247,230.5069"/>
    <line x1="300.7997" x2="305.7997" y1="223.6319" y2="223.6319"/>
    <line x1="359.0551" x2="359.0551" y1="243.7795" y2="205.9843"/>
    <polyline points="338.2825,223.6319 343.9075,223.6319 343.9075,223.6319 345.7825,223.0069 345.7825,223.0069 346.4075,222.3819 346.4075,222.3819 347.0325,221.1319 347.0325,221.1319 347.0325,219.8819 347.0325,219.8819 346.4075,218.6319 346.4075,218.6319 345.7825,218.0069 345.7825,218.0069 343.9075,217.3819 343.9075,217.3819 338.2825,217.3819 338.2825,217.3819 338.2825,230.5069"/>
    <line x1="342.6575" x2="347.0325" y1="223.6319" y2="230.5069"/>
    <line x1="378.5778" x2="378.5778" y1="217.3819" y2="230.5069"/>
    <line x1="374.2028" x2="382.9528" y1="217.3819" y2="217.3819"/>
    <polyline points="420.123,217.3819 420.123,227.3819 420.123,227.3819 419.498,229.2569 419.498,229.2569 418.873,229.8819 418.873,229.8819 417.623,230.5069 417.623,230.5069 416.373,230.5069 416.373,230.5069 415.123,229.8819 415.123,229.8819 414.498,229.2569 414.498,229.2569 413.873,227.3819 413.873,227.3819 413.873,226.1319"/>
    <polyline points="460.1058,217.3819 451.9808,217.3819 451.9808,217.3819 451.9808,230.5069 451.9808,230.5069 460.1058,230.5069"/>
    <line x1="451.9808" x2="456.9808" y1="223.6319" y2="223.6319"/>
    <polyline points="510.2362,205.9843 510.2362,243.7795 510.2362,243.7795 548.0315,243.7795 548.0315,243.7795 548.0315,205.9843"/>
    <polyline points="536.6339,230.5069 536.6339,217.3819 536.6339,217.3819 531.6339,230.5069 531.6339,230.5069 526.6339,217.3819 526.6339,217.3819 526.6339,230.5069"/>
    <line x1="623.622" x2="623.622" y1="243.7795" y2="205.9843"/>
    <polyline points="589.5915,209.1535 590.2165,208.841 590.2165,208.841 591.154,207.9035 591.154,207.9035 591.154,214.466"/>
    <polyline points="598.029,214.466 598.029,207.9035 598.029,207.9035 594.904,212.2785 594.904,212.2785 599.5915,212.2785"/>
    <polyline points="611.2869,217.3819 603.1619,217.3819 603.1619,217.3819 603.1619,230.5069"/>
    <line x1="603.1619" x2="608.1619" y1="223.6319" y2="223.6319"/>
    <line x1="645.0197" x2="645.0197" y1="217.3819" y2="230.5069"/>
    <polyline points="679.065,217.3819 679.065,230.5069 679.065,230.5069 686.565,230.5069"/>
    <polyline points="724.6727,217.3819 716.5477,217.3819 716.5477,217.3819 716.5477,230.5069 716.5477,230.5069 724.6727,230.5069"/>
    <line x1="716.5477" x2="721.5477" y1="223.6319" y2="223.6319"/>
    <polyline points="56.6929,243.7795 56.6929,281.5748 56.6929,281.5748 18.8976,281.5748 18.8976,281.5748 18.8976,319.3701 18.8976,319.3701 56.6929,319.3701 56.6929,319.3701 94.4882,319.3701 94.4882,319.3701 94.4882,281.5748 94.4882,281.5748 56.6929,281.5748 56.6929,281.5748 56.6929,319.3701"/>
    <polyline points="82.1531,255.1772 74.0281,255.1772 74.0281,255.1772 74.0281,268.3022 74.0281,268.3022 82.1531,268.3022"/>
    <line x1="74.0281" x2="79.0281" y1="261.4272" y2="261.4272"/>
    <polyline points="132.2835,243.7795 132.2835,281.5748 132.2835,281.5748 132.2835,319.3701 132.2835,319.3701 132.2835,357.1654 132.2835,357.1654 170.0787,357.1654 170.0787,357.1654 170.0787,319.3701 170.0787,319.3701 132.2835,319.3701 132.2835,319.3701 94.4882,319.3701"/>
    <line x1="149.3061" x2="149.3061" y1="255.1772" y2="268.3022"/>
    <line x1="158.0561" x2="149.3061" y1="255.1772" y2="263.9272"/>
    <line x1="152.4311" x2="158.0561" y1="260.8022" y2="268.3022"/>
    <polyline points="233.0217,257.0522 231.7717,255.8022 231.7717,255.8022 229.8967,255.1772 229.8967,255.1772 227.3967,255.1772 227.3967,255.1772 225.5217,255.8022 225.5217,255.8022 224.2717,257.0522 224.2717,257.0522 224.2717,258.3022 224.2717,258.3022 224.8967,259.5522 224.8967,259.5522 225.5217,260.1772 225.5217,260.1772 226.7717,260.8022 226.7717,260.8022 230.5217,262.0522 230.5217,262.0522 231.7717,262.6772 231.7717,262.6772 232.3967,263.3022 232.3967,263.3022 233.0217,264.5522 233.0217,264.5522 233.0217,266.4272 233.0217,266.4272 231.7717,267.6772 231.7717,267.6772 229.8967,268.3022 229.8967,268.3022 227.3967,268.3022 227.3967,268.3022 225.5217,267.6772 225.5217,267.6772 224.2717,266.4272"/>
    <polyline points="422.3105,255.1772 414.1855,255.1772 414.1855,255.1772 414.1855,268.3022 414.1855,268.3022 422.3105,268.3022"/>
    <line x1="414.1855" x2="419.1855" y1="261.4272" y2="261.4272"/>
    <polyline points="510.2362,319.3701 472.4409,319.3701 472.4409,319.3701 472.4409,281.5748 472.4409,281.5748 510.2362,281.5748 510.2362,281.5748 510.2362,319.3701 510.2362,319.3701 548.0315,319.3701 548.0315,319.3701 548.0315,281.5748"/>
    <polyline points="476.2057,246.9488 476.8307,246.6363 476.8307,246.6363 477.7682,245.6988 477.7682,245.6988 477.7682,252.2613"/>
    <polyline points="485.2682,245.6988 482.1432,245.6988 482.1432,245.6988 481.8307,248.5113 481.8307,248.5113 482.1432,248.1988 482.1432,248.1988 483.0807,247.8863 483.0807,247.8863 484.0182,247.8863 484.0182,247.8863 484.9557,248.1988 484.9557,248.1988 485.5807,248.8238 485.5807,248.8238 485.8932,249.7613 485.8932,249.7613 485.8932,250.3863 485.8932,250.3863 485.5807,251.3238 485.5807,251.3238 484.9557,251.9488 484.9557,251.9488 484.0182,252.2613 484.0182,252.2613 483.0807,252.2613 483.0807,252.2613 482.1432,251.9488 482.1432,251.9488 481.8307,251.6363 481.8307,251.6363 481.5182,251.0113"/>
    <polyline points="496.9636,268.3022 491.9636,255.1772 491.9636,255.1772 486.9636,268.3022"/>
    <line x1="488.8386" x2="495.0886" y1="263.9272" y2="263.9272"/>
    <polyline points="686.8775,255.1772 678.7525,255.1772 678.7525,255.1772 678.7525,268.3022 678.7525,268.3022 686.8775,268.3022"/>
    <line x1="678.7525" x2="683.7525" y1="261.4272" y2="261.4272"/>
    <polyline points="22.6624,284.7441 23.2874,284.4316 23.2874,284.4316 24.2249,283.4941 24.2249,283.4941 24.2249,290.0566"/>
    <polyline points="32.0374,284.4316 31.7249,283.8066 31.7249,283.8066 30.7874,283.4941 30.7874,283.4941 30.1624,283.4941 30.1624,283.4941 29.2249,283.8066 29.2249,283.8066 28.5999,284.7441 28.5999,284.7441 28.2874,286.3066 28.2874,286.3066 28.2874,287.8691 28.2874,287.8691 28.5999,289.1191 28.5999,289.1191 29.2249,289.7441 29.2249,289.7441 30.1624,290.0566 30.1624,290.0566 30.4749,290.0566 30.4749,290.0566 31.4124,289.7441 31.4124,289.7441 32.0374,289.1191 32.0374,289.1191 32.3499,288.1816 32.3499,288.1816 32.3499,287.8691 32.3499,287.8691 32.0374,286.9316 32.0374,286.9316 31.4124,286.3066 31.4124,286.3066 30.4749,285.9941 30.4749,285.9941 30.1624,285.9941 30.1624,285.9941 29.2249,286.3066 29.2249,286.3066 28.5999,286.9316 28.5999,286.9316 28.2874,287.8691"/>
    <polyline points="44.3578,296.0974 43.7328,294.8474 43.7328,294.8474 42.4828,293.5974 42.4828,293.5974 41.2328,292.9724 41.2328,292.9724 38.7328,292.9724 38.7328,292.9724 37.4828,293.5974 37.4828,293.5974 36.2328,294.8474 36.2328,294.8474 35.6078,296.0974 35.6078,296.0974 34.9828,297.9724 34.9828,297.9724 34.9828,301.0974 34.9828,301.0974 35.6078,302.9724 35.6078,302.9724 36.2328,304.2224 36.2328,304.2224 37.4828,305.4724 37.4828,305.4724 38.7328,306.0974 38.7328,306.0974 41.2328,306.0974 41.2328,306.0974 42.4828,305.4724 42.4828,305.4724 43.7328,304.2224 43.7328,304.2224 44.3578,302.9724 44.3578,302.9724 44.3578,301.0974 44.3578,301.0974 41.2328,301.0974"/>
    <polyline points="73.7156,299.2224 79.3406,299.2224 79.3406,299.2224 81.2156,298.5974 81.2156,298.5974 81.8406,297.9724 81.8406,297.9724 82.4656,296.7224 82.4656,296.7224 82.4656,295.4724 82.4656,295.4724 81.8406,294.2224 81.8406,294.2224 81.2156,293.5974 81.2156,293.5974 79.3406,292.9724 79.3406,292.9724 73.7156,292.9724 73.7156,292.9724 73.7156,306.0974"/>
    <line x1="78.0906" x2="82.4656" y1="299.2224" y2="306.0974"/>
    <polygon points="114.0108,292.9724 112.7608,293.5974 112.7608,293.5974 111.5108,294.8474 111.5108,294.8474 110.8858,296.0974 110.8858,296.0974 110.2608,297.9724 110.2608,297.9724 110.2608,301.0974 110.2608,301.0974 110.8858,302.9724 110.8858,302.9724 111.5108,304.2224 111.5108,304.2224 112.7608,305.4724 112.7608,305.4724 114.0108,306.0974 114.0108,306.0974 116.5108,306.0974 116.5108,306.0974 117.7608,305.4724 117.7608,305.4724 119.0108,304.2224 119.0108,304.2224 119.6358,302.9724 119.6358,302.9724 120.2608,301.0974 120.2608,301.0974 120.2608,297.9724 120.2608,297.9724 119.6358,296.0974 119.6358,296.0974 119.0108,294.8474 119.0108,294.8474 117.7608,293.5974 117.7608,293.5974 116.5108,292.9724 116.5108,292.9724"/>
    <polyline points="157.7436,292.9724 149.6186,292.9724 149.6186,292.9724 149.6186,306.0974 149.6186,306.0974 157.7436,306.0974"/>
    <line x1="149.6186" x2="154.6186" y1="299.2224" y2="299.2224"/>
    <polyline points="195.8514,292.9724 195.8514,306.0974 195.8514,306.0974 187.1014,292.9724 187.1014,292.9724 187.1014,306.0974"/>
    <polyline points="249.4341,284.7441 250.0591,284.4316 250.0591,284.4316 250.9966,283.4941 250.9966,283.4941 250.9966,290.0566"/>
    <polyline points="254.7466,283.4941 259.1216,283.4941 259.1216,283.4941 255.9966,290.0566"/>
    <polyline points="271.1294,292.9724 263.0044,292.9724 263.0044,292.9724 263.0044,306.0974"/>
    <line x1="263.0044" x2="268.0044" y1="299.2224" y2="299.2224"/>
    <polyline points="283.4646,319.3701 321.2598,319.3701 321.2598,319.3701 359.0551,319.3701 359.0551,319.3701 359.0551,281.5748"/>
    <line x1="321.2598" x2="321.2598" y1="319.3701" y2="281.5748"/>
    <polyline points="301.1122,292.9724 301.1122,306.0974 301.1122,306.0974 308.6122,306.0974"/>
    <polyline points="346.72,292.9724 338.595,292.9724 338.595,292.9724 338.595,306.0974 338.595,306.0974 346.72,306.0974"/>
    <line x1="338.595" x2="343.595" y1="299.2224" y2="299.2224"/>
    <line x1="359.0551" x2="396.8504" y1="319.3701" y2="319.3701"/>
    <polyline points="384.2028,294.8474 382.9528,293.5974 382.9528,293.5974 381.0778,292.9724 381.0778,292.9724 378.5778,292.9724 378.5778,292.9724 376.7028,293.5974 376.7028,293.5974 375.4528,294.8474 375.4528,294.8474 375.4528,296.0974 375.4528,296.0974 376.0778,297.3474 376.0778,297.3474 376.7028,297.9724 376.7028,297.9724 377.9528,298.5974 377.9528,298.5974 381.7028,299.8474 381.7028,299.8474 382.9528,300.4724 382.9528,300.4724 383.5778,301.0974 383.5778,301.0974 384.2028,302.3474 384.2028,302.3474 384.2028,304.2224 384.2028,304.2224 382.9528,305.4724 382.9528,305.4724 381.0778,306.0974 381.0778,306.0974 378.5778,306.0974 378.5778,306.0974 376.7028,305.4724 376.7028,305.4724 375.4528,304.2224"/>
    <polyline points="421.998,294.8474 420.748,293.5974 420.748,293.5974 418.873,292.9724 418.873,292.9724 416.373,292.9724 416.373,292.9724 414.498,293.5974 414.498,293.5974 413.248,294.8474 413.248,294.8474 413.248,296.0974 413.248,296.0974 413.873,297.3474 413.873,297.3474 414.498,297.9724 414.498,297.9724 415.748,298.5974 415.748,298.5974 419.498,299.8474 419.498,299.8474 420.748,300.4724 420.748,300.4724 421.373,301.0974 421.373,301.0974 421.998,302.3474 421.998,302.3474 421.998,304.2224 421.998,304.2224 420.748,305.4724 420.748,305.4724 418.873,306.0974 418.873,306.0974 416.373,306.0974 416.373,306.0974 414.498,305.4724 414.498,305.4724 413.248,304.2224"/>
    <line x1="434.6457" x2="472.4409" y1="319.3701" y2="319.3701"/>
    <polyline points="460.1058,292.9724 451.9808,292.9724 451.9808,292.9724 451.9808,306.0974 451.9808,306.0974 460.1058,306.0974"/>
    <line x1="451.9808" x2="456.9808" y1="299.2224" y2="299.2224"/>
    <polyline points="498.2136,292.9724 498.2136,306.0974 498.2136,306.0974 489.4636,292.9724 489.4636,292.9724 489.4636,306.0974"/>
    <polyline points="535.6964,296.0974 535.0714,294.8474 535.0714,294.8474 533.8214,293.5974 533.8214,293.5974 532.5714,292.9724 532.5714,292.9724 530.0714,292.9724 530.0714,292.9724 528.8214,293.5974 528.8214,293.5974 527.5714,294.8474 527.5714,294.8474 526.9464,296.0974 526.9464,296.0974 526.3214,297.9724 526.3214,297.9724 526.3214,301.0974 526.3214,301.0974 526.9464,302.9724 526.9464,302.9724 527.5714,304.2224 527.5714,304.2224 528.8214,305.4724 528.8214,305.4724 530.0714,306.0974 530.0714,306.0974 532.5714,306.0974 532.5714,306.0974 533.8214,305.4724 533.8214,305.4724 535.0714,304.2224 535.0714,304.2224 535.6964,302.9724 535.6964,302.9724 535.6964,301.0974 535.6964,301.0974 532.5714,301.0974"/>
    <polyline points="548.0315,319.3701 585.8268,319.3701 585.8268,319.3701 585.8268,281.5748"/>
    <polyline points="573.4916,292.9724 565.3666,292.9724 565.3666,292.9724 565.3666,306.0974 565.3666,306.0974 573.4916,306.0974"/>
    <line x1="565.3666" x2="570.3666" y1="299.2224" y2="299.2224"/>
    <polyline points="585.8268,319.3701 623.622,319.3701 623.622,319.3701 661.4173,319.3701 661.4173,319.3701 661.4173,357.1654 661.4173,357.1654 699.2126,357.1654 699.2126,357.1654 699.2126,319.3701"/>
    <line x1="623.622" x2="623.622" y1="319.3701" y2="281.5748"/>
    <polyline points="603.4744,292.9724 603.4744,306.0974 603.4744,306.0974 610.9744,306.0974"/>
    <polyline points="640.6447,292.9724 640.6447,302.3474 640.6447,302.3474 641.2697,304.2224 641.2697,304.2224 642.5197,305.4724 642.5197,305.4724 644.3947,306.0974 644.3947,306.0974 645.6447,306.0974 645.6447,306.0974 647.5197,305.4724 647.5197,305.4724 648.7697,304.2224 648.7697,304.2224 649.3947,302.3474 649.3947,302.3474 649.3947,292.9724"/>
    <line x1="678.44" x2="678.44" y1="292.9724" y2="306.0974"/>
    <line x1="687.19" x2="678.44" y1="292.9724" y2="301.7224"/>
    <line x1="681.565" x2="687.19" y1="298.5974" y2="306.0974"/>
    <polyline points="158.0561,330.7677 158.0561,343.8927 158.0561,343.8927 149.3061,330.7677 149.3061,330.7677 149.3061,343.8927"/>
    <polyline points="686.8775,330.7677 678.7525,330.7677 678.7525,330.7677 678.7525,343.8927 678.7525,343.8927 686.8775,343.8927"/>
    <line x1="678.7525" x2="683.7525" y1="337.0177" y2="337.0177"/>
  </g>
</svg>
