<?xml version="1.0" encoding="utf-8" ?>
<svg xmlns="http://www.w3.org/2000/svg" xmlns:cc="http://creativecommons.org/ns" xmlns:dc="http://purl.org/dc/elements/1.1/" xmlns:ev="http://www.w3.org/2001/xml-events" xmlns:inkscape="http://www.inkscape.org/namespaces/inkscape" xmlns:rdf="http://www.w3.org/1999/02/22-rdf-syntax-ns" xmlns:sodipodi="http://sodipodi.sourceforge.net/DTD/sodipodi-0.dtd" xmlns:xlink="http://www.w3.org/1999/xlink" baseProfile="tiny" height="9.9cm" version="1.2" viewBox="0 0 793.7007874015749 374.1732283464567" width="21.0cm">
  <metadata>
    <rdf:RDF>
      <cc:Work>
        <dc:format>image/svg+xml</dc:format>
        <dc:source>vpype eval 'cell=10;width=210;height=99' eval 'nCols=20;nRows=9' eval 'cells=[6,7,8,9,10,11,12,13,14,17,19,20,22,23,24,25,28,32,35,37,39,40,42,46,47,48,49,51,52,53,54,55,56,57,58,59,60,62,64,68,72,75,77,79,80,81,82,83,84,86,87,88,89,90,91,92,93,95,97,99,104,112,115,117,119,120,121,122,123,124,128,129,130,131,132,135,137,139,144,152,153,155,157,159,164,165,166,167,168,169,170,171,172,175]' eval 'chars=[&quot;U&quot;,&quot;I&quot;,&quot;T&quot;,&quot;L&quot;,&quot;I&quot;,&quot;K&quot;,&quot;K&quot;,&quot;E&quot;,&quot;N&quot;,&quot;F&quot;,&quot;K&quot;,&quot;D&quot;,&quot;G&quot;,&quot;I&quot;,&quot;N&quot;,&quot;A&quot;,&quot;R&quot;,&quot;L&quot;,&quot;P&quot;,&quot;R&quot;,&quot;I&quot;,&quot;I&quot;,&quot;R&quot;,&quot;S&quot;,&quot;T&quot;,&quot;E&quot;,&quot;R&quot;,&quot;M&quot;,&quot;A&quot;,&quot;N&quot;,&quot;D&quot;,&quot;A&quot;,&quot;R&quot;,&quot;I&quot;,&quot;J&quot;,&quot;N&quot;,&quot;R&quot;,&quot;A&quot;,&quot;L&quot;,&quot;I&quot;,&quot;V&quot;,&quot;R&quot;,&quot;E&quot;,&quot;D&quot;,&quot;K&quot;,&quot;A&quot;,&quot;S&quot;,&quot;S&quot;,&quot;A&quot;,&quot;H&quot;,&quot;A&quot;,&quot;N&quot;,&quot;D&quot;,&quot;D&quot;,&quot;O&quot;,&quot;E&quot;,&quot;K&quot;,&quot;K&quot;,&quot;T&quot;,&quot;E&quot;,&quot;D&quot;,&quot;R&quot;,&quot;E&quot;,&quot;J&quot;,&quot;R&quot;,&quot;B&quot;,&quot;R&quot;,&quot;O&quot;,&quot;O&quot;,&quot;D&quot;,&quot;G&quot;,&quot;R&quot;,&quot;A&quot;,&quot;A&quot;,&quot;T&quot;,&quot;R&quot;,&quot;E&quot;,&quot;E&quot;,&quot;E&quot;,&quot;J&quot;,&quot;A&quot;,&quot;E&quot;,&quot;S&quot;,&quot;N&quot;,&quot;R&quot;,&quot;E&quot;,&quot;K&quot;,&quot;K&quot;,&quot;E&quot;,&quot;R&quot;,&quot;T&quot;,&quot;J&quot;,&quot;E&quot;,&quot;N&quot;]' eval 'numbers=[6,8,12,17,19,20,22,35,46,51,64,80,86,120,128,152,164]' eval counter=1 eval charIndex=0 begin grid -o '%cell*mm%' '%cell*mm%' %nCols% %nRows% eval '%isCell=_i in cells%' eval '%number=_i in numbers%' eval '%size=10 if isCell else 0%' rect 0 0 '%size*mm%' '%size*mm%' text -s 10 -p 0.5mm 1.5mm '%counter if number else '&quot;'&quot;''&quot;'&quot;'%' text -s 20 -p 5mm 5mm -a center '%chars[charIndex] if isCell else '&quot;'&quot;''&quot;'&quot;'%' eval '%if number: counter+=1 %' eval '%if isCell: charIndex+=1 %' end splitall deduplicate linemerge --tolerance 0.1mm write -m none --page-size '%width*mm%x%height*mm%' --center ./svgs/solution/5b6dae.svg
</dc:source>
        <dc:date>2023-12-23T22:30:06.548367</dc:date>
      </cc:Work>
    </rdf:RDF>
  </metadata>
  <defs/>
  <g fill="none" id="layer1" inkscape:groupmode="layer" inkscape:label="1" stroke="#000000" style="display:inline">
    <polygon points="245.6693,17.0079 245.6693,54.8031 245.6693,54.8031 283.4646,54.8031 283.4646,54.8031 321.2598,54.8031 321.2598,54.8031 359.0551,54.8031 359.0551,54.8031 396.8504,54.8031 396.8504,54.8031 396.8504,17.0079 396.8504,17.0079 359.0551,17.0079 359.0551,17.0079 321.2598,17.0079 321.2598,17.0079 283.4646,17.0079 283.4646,17.0079"/>
    <line x1="283.4646" x2="283.4646" y1="54.8031" y2="17.0079"/>
    <polyline points="249.4341,20.1772 250.0591,19.8647 250.0591,19.8647 250.9966,18.9272 250.9966,18.9272 250.9966,25.4897"/>
    <polyline points="262.6919,28.4055 262.6919,37.7805 262.6919,37.7805 263.3169,39.6555 263.3169,39.6555 264.5669,40.9055 264.5669,40.9055 266.4419,41.5305 266.4419,41.5305 267.6919,41.5305 267.6919,41.5305 269.5669,40.9055 269.5669,40.9055 270.8169,39.6555 270.8169,39.6555 271.4419,37.7805 271.4419,37.7805 271.4419,28.4055"/>
    <polyline points="359.0551,17.0079 359.0551,54.8031 359.0551,54.8031 359.0551,92.5984 359.0551,92.5984 321.2598,92.5984 321.2598,92.5984 321.2598,54.8031 321.2598,54.8031 321.2598,17.0079"/>
    <line x1="304.8622" x2="304.8622" y1="28.4055" y2="41.5305"/>
    <polyline points="324.3996,20.4897 324.3996,20.1772 324.3996,20.1772 324.7121,19.5522 324.7121,19.5522 325.0246,19.2397 325.0246,19.2397 325.6496,18.9272 325.6496,18.9272 326.8996,18.9272 326.8996,18.9272 327.5246,19.2397 327.5246,19.2397 327.8371,19.5522 327.8371,19.5522 328.1496,20.1772 328.1496,20.1772 328.1496,20.8022 328.1496,20.8022 327.8371,21.4272 327.8371,21.4272 327.2121,22.3647 327.2121,22.3647 324.0871,25.4897 324.0871,25.4897 328.4621,25.4897"/>
    <line x1="340.7825" x2="340.7825" y1="28.4055" y2="41.5305"/>
    <line x1="336.4075" x2="345.1575" y1="28.4055" y2="28.4055"/>
    <polyline points="376.7028,28.4055 376.7028,41.5305 376.7028,41.5305 384.2028,41.5305"/>
    <polyline points="396.8504,54.8031 434.6457,54.8031 434.6457,54.8031 434.6457,17.0079 434.6457,17.0079 396.8504,17.0079"/>
    <line x1="418.248" x2="418.248" y1="28.4055" y2="41.5305"/>
    <polyline points="434.6457,54.8031 472.4409,54.8031 472.4409,54.8031 510.2362,54.8031 510.2362,54.8031 510.2362,17.0079 510.2362,17.0079 472.4409,17.0079 472.4409,17.0079 434.6457,17.0079"/>
    <polyline points="510.2362,17.0079 548.0315,17.0079 548.0315,17.0079 548.0315,54.8031 548.0315,54.8031 510.2362,54.8031 510.2362,54.8031 510.2362,92.5984 510.2362,92.5984 472.4409,92.5984 472.4409,92.5984 472.4409,54.8031 472.4409,54.8031 472.4409,17.0079"/>
    <line x1="451.6683" x2="451.6683" y1="28.4055" y2="41.5305"/>
    <line x1="460.4183" x2="451.6683" y1="28.4055" y2="37.1555"/>
    <line x1="454.7933" x2="460.4183" y1="34.0305" y2="41.5305"/>
    <polyline points="475.8932,18.9272 479.3307,18.9272 479.3307,18.9272 477.4557,21.4272 477.4557,21.4272 478.3932,21.4272 478.3932,21.4272 479.0182,21.7397 479.0182,21.7397 479.3307,22.0522 479.3307,22.0522 479.6432,22.9897 479.6432,22.9897 479.6432,23.6147 479.6432,23.6147 479.3307,24.5522 479.3307,24.5522 478.7057,25.1772 478.7057,25.1772 477.7682,25.4897 477.7682,25.4897 476.8307,25.4897 476.8307,25.4897 475.8932,25.1772 475.8932,25.1772 475.5807,24.8647 475.5807,24.8647 475.2682,24.2397"/>
    <line x1="489.4636" x2="489.4636" y1="28.4055" y2="41.5305"/>
    <line x1="498.2136" x2="489.4636" y1="28.4055" y2="37.1555"/>
    <line x1="492.5886" x2="498.2136" y1="34.0305" y2="41.5305"/>
    <polyline points="535.6964,28.4055 527.5714,28.4055 527.5714,28.4055 527.5714,41.5305 527.5714,41.5305 535.6964,41.5305"/>
    <line x1="527.5714" x2="532.5714" y1="34.6555" y2="34.6555"/>
    <polyline points="548.0315,54.8031 585.8268,54.8031 585.8268,54.8031 585.8268,17.0079 585.8268,17.0079 548.0315,17.0079"/>
    <polyline points="573.8041,28.4055 573.8041,41.5305 573.8041,41.5305 565.0541,28.4055 565.0541,28.4055 565.0541,41.5305"/>
    <polygon points="661.4173,17.0079 661.4173,54.8031 661.4173,54.8031 661.4173,92.5984 661.4173,92.5984 623.622,92.5984 623.622,92.5984 623.622,54.8031 623.622,54.8031 585.8268,54.8031 585.8268,54.8031 585.8268,92.5984 585.8268,92.5984 623.622,92.5984 623.622,92.5984 623.622,130.3937 623.622,130.3937 661.4173,130.3937 661.4173,130.3937 661.4173,168.189 661.4173,168.189 661.4173,205.9843 661.4173,205.9843 699.2126,205.9843 699.2126,205.9843 699.2126,168.189 699.2126,168.189 699.2126,130.3937 699.2126,130.3937 699.2126,92.5984 699.2126,92.5984 699.2126,54.8031 699.2126,54.8031 699.2126,17.0079 699.2126,17.0079"/>
    <line x1="661.4173" x2="699.2126" y1="54.8031" y2="54.8031"/>
    <polyline points="667.3696,25.4897 667.3696,18.9272 667.3696,18.9272 664.2446,23.3022 664.2446,23.3022 668.9321,23.3022"/>
    <polyline points="686.8775,28.4055 678.7525,28.4055 678.7525,28.4055 678.7525,41.5305"/>
    <line x1="678.7525" x2="683.7525" y1="34.6555" y2="34.6555"/>
    <polygon points="737.0079,17.0079 737.0079,54.8031 737.0079,54.8031 737.0079,92.5984 737.0079,92.5984 774.8031,92.5984 774.8031,92.5984 774.8031,54.8031 774.8031,54.8031 774.8031,17.0079 774.8031,17.0079"/>
    <line x1="737.0079" x2="774.8031" y1="54.8031" y2="54.8031"/>
    <polyline points="743.5851,18.9272 740.4601,18.9272 740.4601,18.9272 740.1476,21.7397 740.1476,21.7397 740.4601,21.4272 740.4601,21.4272 741.3976,21.1147 741.3976,21.1147 742.3351,21.1147 742.3351,21.1147 743.2726,21.4272 743.2726,21.4272 743.8976,22.0522 743.8976,22.0522 744.2101,22.9897 744.2101,22.9897 744.2101,23.6147 744.2101,23.6147 743.8976,24.5522 743.8976,24.5522 743.2726,25.1772 743.2726,25.1772 742.3351,25.4897 742.3351,25.4897 741.3976,25.4897 741.3976,25.4897 740.4601,25.1772 740.4601,25.1772 740.1476,24.8647 740.1476,24.8647 739.8351,24.2397"/>
    <line x1="754.0305" x2="754.0305" y1="28.4055" y2="41.5305"/>
    <line x1="762.7805" x2="754.0305" y1="28.4055" y2="37.1555"/>
    <line x1="757.1555" x2="762.7805" y1="34.0305" y2="41.5305"/>
    <polygon points="18.8976,54.8031 18.8976,92.5984 18.8976,92.5984 56.6929,92.5984 56.6929,92.5984 56.6929,54.8031 56.6929,54.8031"/>
    <polyline points="25.7874,57.6599 25.4749,57.0349 25.4749,57.0349 24.5374,56.7224 24.5374,56.7224 23.9124,56.7224 23.9124,56.7224 22.9749,57.0349 22.9749,57.0349 22.3499,57.9724 22.3499,57.9724 22.0374,59.5349 22.0374,59.5349 22.0374,61.0974 22.0374,61.0974 22.3499,62.3474 22.3499,62.3474 22.9749,62.9724 22.9749,62.9724 23.9124,63.2849 23.9124,63.2849 24.2249,63.2849 24.2249,63.2849 25.1624,62.9724 25.1624,62.9724 25.7874,62.3474 25.7874,62.3474 26.0999,61.4099 26.0999,61.4099 26.0999,61.0974 26.0999,61.0974 25.7874,60.1599 25.7874,60.1599 25.1624,59.5349 25.1624,59.5349 24.2249,59.2224 24.2249,59.2224 23.9124,59.2224 23.9124,59.2224 22.9749,59.5349 22.9749,59.5349 22.3499,60.1599 22.3499,60.1599 22.0374,61.0974"/>
    <polygon points="35.9203,66.2008 35.9203,79.3258 35.9203,79.3258 40.2953,79.3258 40.2953,79.3258 42.1703,78.7008 42.1703,78.7008 43.4203,77.4508 43.4203,77.4508 44.0453,76.2008 44.0453,76.2008 44.6703,74.3258 44.6703,74.3258 44.6703,71.2008 44.6703,71.2008 44.0453,69.3258 44.0453,69.3258 43.4203,68.0758 43.4203,68.0758 42.1703,66.8258 42.1703,66.8258 40.2953,66.2008 40.2953,66.2008"/>
    <polygon points="94.4882,54.8031 94.4882,92.5984 94.4882,92.5984 132.2835,92.5984 132.2835,92.5984 170.0787,92.5984 170.0787,92.5984 207.874,92.5984 207.874,92.5984 207.874,54.8031 207.874,54.8031 170.0787,54.8031 170.0787,54.8031 132.2835,54.8031 132.2835,54.8031"/>
    <polyline points="207.874,168.189 170.0787,168.189 170.0787,168.189 170.0787,130.3937 170.0787,130.3937 207.874,130.3937 207.874,130.3937 207.874,168.189 207.874,168.189 207.874,205.9843 207.874,205.9843 207.874,243.7795 207.874,243.7795 170.0787,243.7795 170.0787,243.7795 170.0787,205.9843 170.0787,205.9843 132.2835,205.9843 132.2835,205.9843 132.2835,168.189 132.2835,168.189 132.2835,130.3937 132.2835,130.3937 132.2835,92.5984 132.2835,92.5984 132.2835,54.8031"/>
    <polyline points="97.3155,56.7224 101.6905,56.7224 101.6905,56.7224 98.5655,63.2849"/>
    <polyline points="119.9483,69.3258 119.3233,68.0758 119.3233,68.0758 118.0733,66.8258 118.0733,66.8258 116.8233,66.2008 116.8233,66.2008 114.3233,66.2008 114.3233,66.2008 113.0733,66.8258 113.0733,66.8258 111.8233,68.0758 111.8233,68.0758 111.1983,69.3258 111.1983,69.3258 110.5733,71.2008 110.5733,71.2008 110.5733,74.3258 110.5733,74.3258 111.1983,76.2008 111.1983,76.2008 111.8233,77.4508 111.8233,77.4508 113.0733,78.7008 113.0733,78.7008 114.3233,79.3258 114.3233,79.3258 116.8233,79.3258 116.8233,79.3258 118.0733,78.7008 118.0733,78.7008 119.3233,77.4508 119.3233,77.4508 119.9483,76.2008 119.9483,76.2008 119.9483,74.3258 119.9483,74.3258 116.8233,74.3258"/>
    <line x1="170.0787" x2="170.0787" y1="92.5984" y2="54.8031"/>
    <line x1="153.6811" x2="153.6811" y1="66.2008" y2="79.3258"/>
    <polyline points="195.8514,66.2008 195.8514,79.3258 195.8514,79.3258 187.1014,66.2008 187.1014,66.2008 187.1014,79.3258"/>
    <polyline points="207.874,92.5984 245.6693,92.5984 245.6693,92.5984 245.6693,54.8031 245.6693,54.8031 207.874,54.8031"/>
    <polyline points="232.3967,79.3258 227.3967,66.2008 227.3967,66.2008 222.3967,79.3258"/>
    <line x1="224.2717" x2="230.5217" y1="74.9508" y2="74.9508"/>
    <polyline points="338.2825,72.4508 343.9075,72.4508 343.9075,72.4508 345.7825,71.8258 345.7825,71.8258 346.4075,71.2008 346.4075,71.2008 347.0325,69.9508 347.0325,69.9508 347.0325,68.7008 347.0325,68.7008 346.4075,67.4508 346.4075,67.4508 345.7825,66.8258 345.7825,66.8258 343.9075,66.2008 343.9075,66.2008 338.2825,66.2008 338.2825,66.2008 338.2825,79.3258"/>
    <line x1="342.6575" x2="347.0325" y1="72.4508" y2="79.3258"/>
    <polyline points="490.0886,66.2008 490.0886,79.3258 490.0886,79.3258 497.5886,79.3258"/>
    <polygon points="590.2165,56.7224 589.279,57.0349 589.279,57.0349 588.9665,57.6599 588.9665,57.6599 588.9665,58.2849 588.9665,58.2849 589.279,58.9099 589.279,58.9099 589.904,59.2224 589.904,59.2224 591.154,59.5349 591.154,59.5349 592.0915,59.8474 592.0915,59.8474 592.7165,60.4724 592.7165,60.4724 593.029,61.0974 593.029,61.0974 593.029,62.0349 593.029,62.0349 592.7165,62.6599 592.7165,62.6599 592.404,62.9724 592.404,62.9724 591.4665,63.2849 591.4665,63.2849 590.2165,63.2849 590.2165,63.2849 589.279,62.9724 589.279,62.9724 588.9665,62.6599 588.9665,62.6599 588.654,62.0349 588.654,62.0349 588.654,61.0974 588.654,61.0974 588.9665,60.4724 588.9665,60.4724 589.5915,59.8474 589.5915,59.8474 590.529,59.5349 590.529,59.5349 591.779,59.2224 591.779,59.2224 592.404,58.9099 592.404,58.9099 592.7165,58.2849 592.7165,58.2849 592.7165,57.6599 592.7165,57.6599 592.404,57.0349 592.404,57.0349 591.4665,56.7224 591.4665,56.7224"/>
    <polyline points="602.8494,73.0758 608.4744,73.0758 608.4744,73.0758 610.3494,72.4508 610.3494,72.4508 610.9744,71.8258 610.9744,71.8258 611.5994,70.5758 611.5994,70.5758 611.5994,68.7008 611.5994,68.7008 610.9744,67.4508 610.9744,67.4508 610.3494,66.8258 610.3494,66.8258 608.4744,66.2008 608.4744,66.2008 602.8494,66.2008 602.8494,66.2008 602.8494,79.3258"/>
    <polyline points="774.8031,130.3937 737.0079,130.3937 737.0079,130.3937 699.2126,130.3937 699.2126,130.3937 661.4173,130.3937 661.4173,130.3937 661.4173,92.5984 661.4173,92.5984 699.2126,92.5984 699.2126,92.5984 737.0079,92.5984 737.0079,92.5984 737.0079,130.3937 737.0079,130.3937 737.0079,168.189 737.0079,168.189 737.0079,205.9843 737.0079,205.9843 737.0079,243.7795 737.0079,243.7795 774.8031,243.7795 774.8031,243.7795 774.8031,205.9843 774.8031,205.9843 774.8031,168.189 774.8031,168.189 774.8031,130.3937 774.8031,130.3937 774.8031,92.5984"/>
    <polyline points="678.44,72.4508 684.065,72.4508 684.065,72.4508 685.94,71.8258 685.94,71.8258 686.565,71.2008 686.565,71.2008 687.19,69.9508 687.19,69.9508 687.19,68.7008 687.19,68.7008 686.565,67.4508 686.565,67.4508 685.94,66.8258 685.94,66.8258 684.065,66.2008 684.065,66.2008 678.44,66.2008 678.44,66.2008 678.44,79.3258"/>
    <line x1="682.815" x2="687.19" y1="72.4508" y2="79.3258"/>
    <line x1="758.4055" x2="758.4055" y1="66.2008" y2="79.3258"/>
    <polyline points="18.8976,92.5984 18.8976,130.3937 18.8976,130.3937 56.6929,130.3937 56.6929,130.3937 56.6929,92.5984"/>
    <line x1="40.2953" x2="40.2953" y1="103.9961" y2="117.1211"/>
    <polyline points="94.4882,92.5984 94.4882,130.3937 94.4882,130.3937 94.4882,168.189 94.4882,168.189 132.2835,168.189 132.2835,168.189 170.0787,168.189 170.0787,168.189 170.0787,205.9843 170.0787,205.9843 207.874,205.9843"/>
    <line x1="94.4882" x2="132.2835" y1="130.3937" y2="130.3937"/>
    <polyline points="111.5108,110.2461 117.1358,110.2461 117.1358,110.2461 119.0108,109.6211 119.0108,109.6211 119.6358,108.9961 119.6358,108.9961 120.2608,107.7461 120.2608,107.7461 120.2608,106.4961 120.2608,106.4961 119.6358,105.2461 119.6358,105.2461 119.0108,104.6211 119.0108,104.6211 117.1358,103.9961 117.1358,103.9961 111.5108,103.9961 111.5108,103.9961 111.5108,117.1211"/>
    <line x1="115.8858" x2="120.2608" y1="110.2461" y2="117.1211"/>
    <polygon points="245.6693,92.5984 245.6693,130.3937 245.6693,130.3937 283.4646,130.3937 283.4646,130.3937 283.4646,92.5984 283.4646,92.5984"/>
    <polyline points="252.5591,96.7052 252.2466,97.6427 252.2466,97.6427 251.6216,98.2677 251.6216,98.2677 250.6841,98.5802 250.6841,98.5802 250.3716,98.5802 250.3716,98.5802 249.4341,98.2677 249.4341,98.2677 248.8091,97.6427 248.8091,97.6427 248.4966,96.7052 248.4966,96.7052 248.4966,96.3927 248.4966,96.3927 248.8091,95.4552 248.8091,95.4552 249.4341,94.8302 249.4341,94.8302 250.3716,94.5177 250.3716,94.5177 250.6841,94.5177 250.6841,94.5177 251.6216,94.8302 251.6216,94.8302 252.2466,95.4552 252.2466,95.4552 252.5591,96.7052 252.5591,96.7052 252.5591,98.2677 252.5591,98.2677 252.2466,99.8302 252.2466,99.8302 251.6216,100.7677 251.6216,100.7677 250.6841,101.0802 250.6841,101.0802 250.0591,101.0802 250.0591,101.0802 249.1216,100.7677 249.1216,100.7677 248.8091,100.1427"/>
    <polyline points="270.8169,105.8711 269.5669,104.6211 269.5669,104.6211 267.6919,103.9961 267.6919,103.9961 265.1919,103.9961 265.1919,103.9961 263.3169,104.6211 263.3169,104.6211 262.0669,105.8711 262.0669,105.8711 262.0669,107.1211 262.0669,107.1211 262.6919,108.3711 262.6919,108.3711 263.3169,108.9961 263.3169,108.9961 264.5669,109.6211 264.5669,109.6211 268.3169,110.8711 268.3169,110.8711 269.5669,111.4961 269.5669,111.4961 270.1919,112.1211 270.1919,112.1211 270.8169,113.3711 270.8169,113.3711 270.8169,115.2461 270.8169,115.2461 269.5669,116.4961 269.5669,116.4961 267.6919,117.1211 267.6919,117.1211 265.1919,117.1211 265.1919,117.1211 263.3169,116.4961 263.3169,116.4961 262.0669,115.2461"/>
    <polyline points="283.4646,130.3937 321.2598,130.3937 321.2598,130.3937 321.2598,168.189 321.2598,168.189 283.4646,168.189 283.4646,168.189 245.6693,168.189 245.6693,168.189 245.6693,205.9843 245.6693,205.9843 283.4646,205.9843 283.4646,205.9843 321.2598,205.9843 321.2598,205.9843 321.2598,168.189 321.2598,168.189 359.0551,168.189 359.0551,168.189 359.0551,130.3937 359.0551,130.3937 396.8504,130.3937 396.8504,130.3937 396.8504,92.5984 396.8504,92.5984 359.0551,92.5984 359.0551,92.5984 359.0551,130.3937 359.0551,130.3937 321.2598,130.3937 321.2598,130.3937 321.2598,92.5984 321.2598,92.5984 283.4646,92.5984"/>
    <line x1="302.9872" x2="302.9872" y1="103.9961" y2="117.1211"/>
    <line x1="298.6122" x2="307.3622" y1="103.9961" y2="103.9961"/>
    <polyline points="346.72,103.9961 338.595,103.9961 338.595,103.9961 338.595,117.1211 338.595,117.1211 346.72,117.1211"/>
    <line x1="338.595" x2="343.595" y1="110.2461" y2="110.2461"/>
    <polyline points="376.0778,110.2461 381.7028,110.2461 381.7028,110.2461 383.5778,109.6211 383.5778,109.6211 384.2028,108.9961 384.2028,108.9961 384.8278,107.7461 384.8278,107.7461 384.8278,106.4961 384.8278,106.4961 384.2028,105.2461 384.2028,105.2461 383.5778,104.6211 383.5778,104.6211 381.7028,103.9961 381.7028,103.9961 376.0778,103.9961 376.0778,103.9961 376.0778,117.1211"/>
    <line x1="380.4528" x2="384.8278" y1="110.2461" y2="117.1211"/>
    <polyline points="548.0315,130.3937 510.2362,130.3937 510.2362,130.3937 510.2362,168.189 510.2362,168.189 472.4409,168.189 472.4409,168.189 472.4409,130.3937 472.4409,130.3937 472.4409,92.5984 472.4409,92.5984 434.6457,92.5984 434.6457,92.5984 434.6457,130.3937 434.6457,130.3937 472.4409,130.3937 472.4409,130.3937 510.2362,130.3937 510.2362,130.3937 510.2362,92.5984 510.2362,92.5984 548.0315,92.5984 548.0315,92.5984 548.0315,130.3937 548.0315,130.3937 585.8268,130.3937 585.8268,130.3937 585.8268,92.5984 585.8268,92.5984 548.0315,92.5984"/>
    <polyline points="438.4104,95.7677 439.0354,95.4552 439.0354,95.4552 439.9729,94.5177 439.9729,94.5177 439.9729,101.0802"/>
    <polygon points="445.5979,94.5177 444.6604,94.8302 444.6604,94.8302 444.0354,95.7677 444.0354,95.7677 443.7229,97.3302 443.7229,97.3302 443.7229,98.2677 443.7229,98.2677 444.0354,99.8302 444.0354,99.8302 444.6604,100.7677 444.6604,100.7677 445.5979,101.0802 445.5979,101.0802 446.2229,101.0802 446.2229,101.0802 447.1604,100.7677 447.1604,100.7677 447.7854,99.8302 447.7854,99.8302 448.0979,98.2677 448.0979,98.2677 448.0979,97.3302 448.0979,97.3302 447.7854,95.7677 447.7854,95.7677 447.1604,94.8302 447.1604,94.8302 446.2229,94.5177 446.2229,94.5177"/>
    <polyline points="461.0433,117.1211 461.0433,103.9961 461.0433,103.9961 456.0433,117.1211 456.0433,117.1211 451.0433,103.9961 451.0433,103.9961 451.0433,117.1211"/>
    <polyline points="496.9636,117.1211 491.9636,103.9961 491.9636,103.9961 486.9636,117.1211"/>
    <line x1="488.8386" x2="495.0886" y1="112.7461" y2="112.7461"/>
    <polyline points="536.0089,103.9961 536.0089,117.1211 536.0089,117.1211 527.2589,103.9961 527.2589,103.9961 527.2589,117.1211"/>
    <polygon points="565.0541,103.9961 565.0541,117.1211 565.0541,117.1211 569.4291,117.1211 569.4291,117.1211 571.3041,116.4961 571.3041,116.4961 572.5541,115.2461 572.5541,115.2461 573.1791,113.9961 573.1791,113.9961 573.8041,112.1211 573.8041,112.1211 573.8041,108.9961 573.8041,108.9961 573.1791,107.1211 573.1791,107.1211 572.5541,105.8711 572.5541,105.8711 571.3041,104.6211 571.3041,104.6211 569.4291,103.9961 569.4291,103.9961"/>
    <polyline points="585.8268,168.189 585.8268,130.3937 585.8268,130.3937 623.622,130.3937 623.622,130.3937 623.622,168.189 623.622,168.189 585.8268,168.189 585.8268,168.189 585.8268,205.9843 585.8268,205.9843 623.622,205.9843 623.622,205.9843 623.622,168.189"/>
    <polyline points="610.3494,117.1211 605.3494,103.9961 605.3494,103.9961 600.3494,117.1211"/>
    <line x1="602.2244" x2="608.4744" y1="112.7461" y2="112.7461"/>
    <polyline points="640.6447,110.2461 646.2697,110.2461 646.2697,110.2461 648.1447,109.6211 648.1447,109.6211 648.7697,108.9961 648.7697,108.9961 649.3947,107.7461 649.3947,107.7461 649.3947,106.4961 649.3947,106.4961 648.7697,105.2461 648.7697,105.2461 648.1447,104.6211 648.1447,104.6211 646.2697,103.9961 646.2697,103.9961 640.6447,103.9961 640.6447,103.9961 640.6447,117.1211"/>
    <line x1="645.0197" x2="649.3947" y1="110.2461" y2="117.1211"/>
    <line x1="682.815" x2="682.815" y1="103.9961" y2="117.1211"/>
    <polyline points="722.4852,103.9961 722.4852,113.9961 722.4852,113.9961 721.8602,115.8711 721.8602,115.8711 721.2352,116.4961 721.2352,116.4961 719.9852,117.1211 719.9852,117.1211 718.7352,117.1211 718.7352,117.1211 717.4852,116.4961 717.4852,116.4961 716.8602,115.8711 716.8602,115.8711 716.2352,113.9961 716.2352,113.9961 716.2352,112.7461"/>
    <polyline points="762.7805,103.9961 762.7805,117.1211 762.7805,117.1211 754.0305,103.9961 754.0305,103.9961 754.0305,117.1211"/>
    <polyline points="18.8976,130.3937 18.8976,168.189 18.8976,168.189 18.8976,205.9843 18.8976,205.9843 56.6929,205.9843 56.6929,205.9843 56.6929,168.189 56.6929,168.189 56.6929,130.3937"/>
    <polyline points="18.8976,168.189 56.6929,168.189 56.6929,168.189 94.4882,168.189 94.4882,168.189 94.4882,205.9843 94.4882,205.9843 132.2835,205.9843"/>
    <polyline points="35.9203,148.0413 41.5453,148.0413 41.5453,148.0413 43.4203,147.4163 43.4203,147.4163 44.0453,146.7913 44.0453,146.7913 44.6703,145.5413 44.6703,145.5413 44.6703,144.2913 44.6703,144.2913 44.0453,143.0413 44.0453,143.0413 43.4203,142.4163 43.4203,142.4163 41.5453,141.7913 41.5453,141.7913 35.9203,141.7913 35.9203,141.7913 35.9203,154.9163"/>
    <line x1="40.2953" x2="44.6703" y1="148.0413" y2="154.9163"/>
    <polyline points="119.0108,154.9163 114.0108,141.7913 114.0108,141.7913 109.0108,154.9163"/>
    <line x1="110.8858" x2="117.1358" y1="150.5413" y2="150.5413"/>
    <polyline points="173.8435,133.563 174.4685,133.2505 174.4685,133.2505 175.406,132.313 175.406,132.313 175.406,138.8755"/>
    <polyline points="180.0935,133.563 180.7185,133.2505 180.7185,133.2505 181.656,132.313 181.656,132.313 181.656,138.8755"/>
    <polyline points="187.7264,141.7913 187.7264,154.9163 187.7264,154.9163 195.2264,154.9163"/>
    <line x1="342.6575" x2="342.6575" y1="141.7913" y2="154.9163"/>
    <polyline points="486.9636,141.7913 491.9636,154.9163 491.9636,154.9163 496.9636,141.7913"/>
    <polyline points="602.8494,148.0413 608.4744,148.0413 608.4744,148.0413 610.3494,147.4163 610.3494,147.4163 610.9744,146.7913 610.9744,146.7913 611.5994,145.5413 611.5994,145.5413 611.5994,144.2913 611.5994,144.2913 610.9744,143.0413 610.9744,143.0413 610.3494,142.4163 610.3494,142.4163 608.4744,141.7913 608.4744,141.7913 602.8494,141.7913 602.8494,141.7913 602.8494,154.9163"/>
    <line x1="607.2244" x2="611.5994" y1="148.0413" y2="154.9163"/>
    <line x1="661.4173" x2="699.2126" y1="168.189" y2="168.189"/>
    <polyline points="686.8775,141.7913 678.7525,141.7913 678.7525,141.7913 678.7525,154.9163 678.7525,154.9163 686.8775,154.9163"/>
    <line x1="678.7525" x2="683.7525" y1="148.0413" y2="148.0413"/>
    <line x1="737.0079" x2="774.8031" y1="168.189" y2="168.189"/>
    <polygon points="754.0305,141.7913 754.0305,154.9163 754.0305,154.9163 758.4055,154.9163 758.4055,154.9163 760.2805,154.2913 760.2805,154.2913 761.5305,153.0413 761.5305,153.0413 762.1555,151.7913 762.1555,151.7913 762.7805,149.9163 762.7805,149.9163 762.7805,146.7913 762.7805,146.7913 762.1555,144.9163 762.1555,144.9163 761.5305,143.6663 761.5305,143.6663 760.2805,142.4163 760.2805,142.4163 758.4055,141.7913 758.4055,141.7913"/>
    <polyline points="22.6624,171.3583 23.2874,171.0458 23.2874,171.0458 24.2249,170.1083 24.2249,170.1083 24.2249,176.6708"/>
    <polyline points="28.2874,171.6708 28.2874,171.3583 28.2874,171.3583 28.5999,170.7333 28.5999,170.7333 28.9124,170.4208 28.9124,170.4208 29.5374,170.1083 29.5374,170.1083 30.7874,170.1083 30.7874,170.1083 31.4124,170.4208 31.4124,170.4208 31.7249,170.7333 31.7249,170.7333 32.0374,171.3583 32.0374,171.3583 32.0374,171.9833 32.0374,171.9833 31.7249,172.6083 31.7249,172.6083 31.0999,173.5458 31.0999,173.5458 27.9749,176.6708 27.9749,176.6708 32.3499,176.6708"/>
    <line x1="35.9203" x2="35.9203" y1="179.5866" y2="192.7116"/>
    <line x1="44.6703" x2="35.9203" y1="179.5866" y2="188.3366"/>
    <line x1="39.0453" x2="44.6703" y1="185.2116" y2="192.7116"/>
    <line x1="56.6929" x2="94.4882" y1="205.9843" y2="205.9843"/>
    <polyline points="81.2156,192.7116 76.2156,179.5866 76.2156,179.5866 71.2156,192.7116"/>
    <line x1="73.0906" x2="79.3406" y1="188.3366" y2="188.3366"/>
    <polyline points="119.6358,181.4616 118.3858,180.2116 118.3858,180.2116 116.5108,179.5866 116.5108,179.5866 114.0108,179.5866 114.0108,179.5866 112.1358,180.2116 112.1358,180.2116 110.8858,181.4616 110.8858,181.4616 110.8858,182.7116 110.8858,182.7116 111.5108,183.9616 111.5108,183.9616 112.1358,184.5866 112.1358,184.5866 113.3858,185.2116 113.3858,185.2116 117.1358,186.4616 117.1358,186.4616 118.3858,187.0866 118.3858,187.0866 119.0108,187.7116 119.0108,187.7116 119.6358,188.9616 119.6358,188.9616 119.6358,190.8366 119.6358,190.8366 118.3858,192.0866 118.3858,192.0866 116.5108,192.7116 116.5108,192.7116 114.0108,192.7116 114.0108,192.7116 112.1358,192.0866 112.1358,192.0866 110.8858,190.8366"/>
    <polyline points="157.4311,181.4616 156.1811,180.2116 156.1811,180.2116 154.3061,179.5866 154.3061,179.5866 151.8061,179.5866 151.8061,179.5866 149.9311,180.2116 149.9311,180.2116 148.6811,181.4616 148.6811,181.4616 148.6811,182.7116 148.6811,182.7116 149.3061,183.9616 149.3061,183.9616 149.9311,184.5866 149.9311,184.5866 151.1811,185.2116 151.1811,185.2116 154.9311,186.4616 154.9311,186.4616 156.1811,187.0866 156.1811,187.0866 156.8061,187.7116 156.8061,187.7116 157.4311,188.9616 157.4311,188.9616 157.4311,190.8366 157.4311,190.8366 156.1811,192.0866 156.1811,192.0866 154.3061,192.7116 154.3061,192.7116 151.8061,192.7116 151.8061,192.7116 149.9311,192.0866 149.9311,192.0866 148.6811,190.8366"/>
    <polyline points="194.6014,192.7116 189.6014,179.5866 189.6014,179.5866 184.6014,192.7116"/>
    <line x1="186.4764" x2="192.7264" y1="188.3366" y2="188.3366"/>
    <line x1="283.4646" x2="283.4646" y1="205.9843" y2="168.189"/>
    <polyline points="249.4341,171.3583 250.0591,171.0458 250.0591,171.0458 250.9966,170.1083 250.9966,170.1083 250.9966,176.6708"/>
    <polyline points="255.3716,170.1083 258.8091,170.1083 258.8091,170.1083 256.9341,172.6083 256.9341,172.6083 257.8716,172.6083 257.8716,172.6083 258.4966,172.9208 258.4966,172.9208 258.8091,173.2333 258.8091,173.2333 259.1216,174.1708 259.1216,174.1708 259.1216,174.7958 259.1216,174.7958 258.8091,175.7333 258.8091,175.7333 258.1841,176.3583 258.1841,176.3583 257.2466,176.6708 257.2466,176.6708 256.3091,176.6708 256.3091,176.6708 255.3716,176.3583 255.3716,176.3583 255.0591,176.0458 255.0591,176.0458 254.7466,175.4208"/>
    <line x1="262.6919" x2="262.6919" y1="179.5866" y2="192.7116"/>
    <line x1="271.4419" x2="271.4419" y1="179.5866" y2="192.7116"/>
    <line x1="262.6919" x2="271.4419" y1="185.8366" y2="185.8366"/>
    <polyline points="307.9872,192.7116 302.9872,179.5866 302.9872,179.5866 297.9872,192.7116"/>
    <line x1="299.8622" x2="306.1122" y1="188.3366" y2="188.3366"/>
    <polyline points="321.2598,205.9843 359.0551,205.9843 359.0551,205.9843 359.0551,168.189 359.0551,168.189 396.8504,168.189 396.8504,168.189 396.8504,205.9843 396.8504,205.9843 434.6457,205.9843 434.6457,205.9843 434.6457,168.189 434.6457,168.189 396.8504,168.189"/>
    <polyline points="347.0325,179.5866 347.0325,192.7116 347.0325,192.7116 338.2825,179.5866 338.2825,179.5866 338.2825,192.7116"/>
    <line x1="359.0551" x2="396.8504" y1="205.9843" y2="205.9843"/>
    <polygon points="376.0778,179.5866 376.0778,192.7116 376.0778,192.7116 380.4528,192.7116 380.4528,192.7116 382.3278,192.0866 382.3278,192.0866 383.5778,190.8366 383.5778,190.8366 384.2028,189.5866 384.2028,189.5866 384.8278,187.7116 384.8278,187.7116 384.8278,184.5866 384.8278,184.5866 384.2028,182.7116 384.2028,182.7116 383.5778,181.4616 383.5778,181.4616 382.3278,180.2116 382.3278,180.2116 380.4528,179.5866 380.4528,179.5866"/>
    <polygon points="413.873,179.5866 413.873,192.7116 413.873,192.7116 418.248,192.7116 418.248,192.7116 420.123,192.0866 420.123,192.0866 421.373,190.8366 421.373,190.8366 421.998,189.5866 421.998,189.5866 422.623,187.7116 422.623,187.7116 422.623,184.5866 422.623,184.5866 421.998,182.7116 421.998,182.7116 421.373,181.4616 421.373,181.4616 420.123,180.2116 420.123,180.2116 418.248,179.5866 418.248,179.5866"/>
    <polyline points="434.6457,205.9843 472.4409,205.9843 472.4409,205.9843 510.2362,205.9843 510.2362,205.9843 548.0315,205.9843 548.0315,205.9843 548.0315,168.189 548.0315,168.189 510.2362,168.189 510.2362,168.189 510.2362,205.9843 510.2362,205.9843 510.2362,243.7795 510.2362,243.7795 472.4409,243.7795 472.4409,243.7795 472.4409,205.9843 472.4409,205.9843 472.4409,168.189 472.4409,168.189 434.6457,168.189"/>
    <polygon points="454.1683,179.5866 452.9183,180.2116 452.9183,180.2116 451.6683,181.4616 451.6683,181.4616 451.0433,182.7116 451.0433,182.7116 450.4183,184.5866 450.4183,184.5866 450.4183,187.7116 450.4183,187.7116 451.0433,189.5866 451.0433,189.5866 451.6683,190.8366 451.6683,190.8366 452.9183,192.0866 452.9183,192.0866 454.1683,192.7116 454.1683,192.7116 456.6683,192.7116 456.6683,192.7116 457.9183,192.0866 457.9183,192.0866 459.1683,190.8366 459.1683,190.8366 459.7933,189.5866 459.7933,189.5866 460.4183,187.7116 460.4183,187.7116 460.4183,184.5866 460.4183,184.5866 459.7933,182.7116 459.7933,182.7116 459.1683,181.4616 459.1683,181.4616 457.9183,180.2116 457.9183,180.2116 456.6683,179.5866 456.6683,179.5866"/>
    <polyline points="497.9011,179.5866 489.7761,179.5866 489.7761,179.5866 489.7761,192.7116 489.7761,192.7116 497.9011,192.7116"/>
    <line x1="489.7761" x2="494.7761" y1="185.8366" y2="185.8366"/>
    <line x1="527.2589" x2="527.2589" y1="179.5866" y2="192.7116"/>
    <line x1="536.0089" x2="527.2589" y1="179.5866" y2="188.3366"/>
    <line x1="530.3839" x2="536.0089" y1="185.2116" y2="192.7116"/>
    <line x1="602.8494" x2="602.8494" y1="179.5866" y2="192.7116"/>
    <line x1="611.5994" x2="602.8494" y1="179.5866" y2="188.3366"/>
    <line x1="605.9744" x2="611.5994" y1="185.2116" y2="192.7116"/>
    <line x1="680.94" x2="680.94" y1="179.5866" y2="192.7116"/>
    <line x1="676.565" x2="685.315" y1="179.5866" y2="179.5866"/>
    <line x1="737.0079" x2="774.8031" y1="205.9843" y2="205.9843"/>
    <polyline points="762.468,179.5866 754.343,179.5866 754.343,179.5866 754.343,192.7116 754.343,192.7116 762.468,192.7116"/>
    <line x1="754.343" x2="759.343" y1="185.8366" y2="185.8366"/>
    <polygon points="187.1014,217.3819 187.1014,230.5069 187.1014,230.5069 191.4764,230.5069 191.4764,230.5069 193.3514,229.8819 193.3514,229.8819 194.6014,228.6319 194.6014,228.6319 195.2264,227.3819 195.2264,227.3819 195.8514,225.5069 195.8514,225.5069 195.8514,222.3819 195.8514,222.3819 195.2264,220.5069 195.2264,220.5069 194.6014,219.2569 194.6014,219.2569 193.3514,218.0069 193.3514,218.0069 191.4764,217.3819 191.4764,217.3819"/>
    <polyline points="489.4636,223.6319 495.0886,223.6319 495.0886,223.6319 496.9636,223.0069 496.9636,223.0069 497.5886,222.3819 497.5886,222.3819 498.2136,221.1319 498.2136,221.1319 498.2136,219.8819 498.2136,219.8819 497.5886,218.6319 497.5886,218.6319 496.9636,218.0069 496.9636,218.0069 495.0886,217.3819 495.0886,217.3819 489.4636,217.3819 489.4636,217.3819 489.4636,230.5069"/>
    <line x1="493.8386" x2="498.2136" y1="223.6319" y2="230.5069"/>
    <polyline points="585.8268,205.9843 585.8268,243.7795 585.8268,243.7795 623.622,243.7795 623.622,243.7795 623.622,205.9843"/>
    <polyline points="611.2869,217.3819 603.1619,217.3819 603.1619,217.3819 603.1619,230.5069 603.1619,230.5069 611.2869,230.5069"/>
    <line x1="603.1619" x2="608.1619" y1="223.6319" y2="223.6319"/>
    <polyline points="661.4173,205.9843 661.4173,243.7795 661.4173,243.7795 699.2126,243.7795 699.2126,243.7795 699.2126,205.9843"/>
    <polyline points="684.69,217.3819 684.69,227.3819 684.69,227.3819 684.065,229.2569 684.065,229.2569 683.44,229.8819 683.44,229.8819 682.19,230.5069 682.19,230.5069 680.94,230.5069 680.94,230.5069 679.69,229.8819 679.69,229.8819 679.065,229.2569 679.065,229.2569 678.44,227.3819 678.44,227.3819 678.44,226.1319"/>
    <polyline points="754.0305,223.6319 759.6555,223.6319 759.6555,223.6319 761.5305,223.0069 761.5305,223.0069 762.1555,222.3819 762.1555,222.3819 762.7805,221.1319 762.7805,221.1319 762.7805,219.8819 762.7805,219.8819 762.1555,218.6319 762.1555,218.6319 761.5305,218.0069 761.5305,218.0069 759.6555,217.3819 759.6555,217.3819 754.0305,217.3819 754.0305,217.3819 754.0305,230.5069"/>
    <line x1="758.4055" x2="762.7805" y1="223.6319" y2="230.5069"/>
    <polygon points="18.8976,243.7795 18.8976,281.5748 18.8976,281.5748 56.6929,281.5748 56.6929,281.5748 56.6929,243.7795 56.6929,243.7795"/>
    <polyline points="22.6624,246.9488 23.2874,246.6363 23.2874,246.6363 24.2249,245.6988 24.2249,245.6988 24.2249,252.2613"/>
    <polyline points="31.0999,252.2613 31.0999,245.6988 31.0999,245.6988 27.9749,250.0738 27.9749,250.0738 32.6624,250.0738"/>
    <polyline points="41.5453,261.4272 43.4203,260.8022 43.4203,260.8022 44.0453,260.1772 44.0453,260.1772 44.6703,258.9272 44.6703,258.9272 44.6703,257.6772 44.6703,257.6772 44.0453,256.4272 44.0453,256.4272 43.4203,255.8022 43.4203,255.8022 41.5453,255.1772 41.5453,255.1772 35.9203,255.1772 35.9203,255.1772 35.9203,268.3022 35.9203,268.3022 41.5453,268.3022 41.5453,268.3022 43.4203,267.6772 43.4203,267.6772 44.0453,267.0522 44.0453,267.0522 44.6703,265.8022 44.6703,265.8022 44.6703,263.9272 44.6703,263.9272 44.0453,262.6772 44.0453,262.6772 43.4203,262.0522 43.4203,262.0522 41.5453,261.4272 41.5453,261.4272 35.9203,261.4272"/>
    <polyline points="56.6929,281.5748 94.4882,281.5748 94.4882,281.5748 132.2835,281.5748 132.2835,281.5748 170.0787,281.5748 170.0787,281.5748 170.0787,319.3701 170.0787,319.3701 207.874,319.3701 207.874,319.3701 207.874,281.5748 207.874,281.5748 207.874,243.7795"/>
    <polyline points="94.4882,281.5748 94.4882,243.7795 94.4882,243.7795 56.6929,243.7795"/>
    <polyline points="73.7156,261.4272 79.3406,261.4272 79.3406,261.4272 81.2156,260.8022 81.2156,260.8022 81.8406,260.1772 81.8406,260.1772 82.4656,258.9272 82.4656,258.9272 82.4656,257.6772 82.4656,257.6772 81.8406,256.4272 81.8406,256.4272 81.2156,255.8022 81.2156,255.8022 79.3406,255.1772 79.3406,255.1772 73.7156,255.1772 73.7156,255.1772 73.7156,268.3022"/>
    <line x1="78.0906" x2="82.4656" y1="261.4272" y2="268.3022"/>
    <polyline points="132.2835,281.5748 132.2835,243.7795 132.2835,243.7795 94.4882,243.7795"/>
    <polygon points="114.0108,255.1772 112.7608,255.8022 112.7608,255.8022 111.5108,257.0522 111.5108,257.0522 110.8858,258.3022 110.8858,258.3022 110.2608,260.1772 110.2608,260.1772 110.2608,263.3022 110.2608,263.3022 110.8858,265.1772 110.8858,265.1772 111.5108,266.4272 111.5108,266.4272 112.7608,267.6772 112.7608,267.6772 114.0108,268.3022 114.0108,268.3022 116.5108,268.3022 116.5108,268.3022 117.7608,267.6772 117.7608,267.6772 119.0108,266.4272 119.0108,266.4272 119.6358,265.1772 119.6358,265.1772 120.2608,263.3022 120.2608,263.3022 120.2608,260.1772 120.2608,260.1772 119.6358,258.3022 119.6358,258.3022 119.0108,257.0522 119.0108,257.0522 117.7608,255.8022 117.7608,255.8022 116.5108,255.1772 116.5108,255.1772"/>
    <polyline points="207.874,281.5748 170.0787,281.5748 170.0787,281.5748 170.0787,243.7795 170.0787,243.7795 132.2835,243.7795"/>
    <polygon points="151.8061,255.1772 150.5561,255.8022 150.5561,255.8022 149.3061,257.0522 149.3061,257.0522 148.6811,258.3022 148.6811,258.3022 148.0561,260.1772 148.0561,260.1772 148.0561,263.3022 148.0561,263.3022 148.6811,265.1772 148.6811,265.1772 149.3061,266.4272 149.3061,266.4272 150.5561,267.6772 150.5561,267.6772 151.8061,268.3022 151.8061,268.3022 154.3061,268.3022 154.3061,268.3022 155.5561,267.6772 155.5561,267.6772 156.8061,266.4272 156.8061,266.4272 157.4311,265.1772 157.4311,265.1772 158.0561,263.3022 158.0561,263.3022 158.0561,260.1772 158.0561,260.1772 157.4311,258.3022 157.4311,258.3022 156.8061,257.0522 156.8061,257.0522 155.5561,255.8022 155.5561,255.8022 154.3061,255.1772 154.3061,255.1772"/>
    <polygon points="187.1014,255.1772 187.1014,268.3022 187.1014,268.3022 191.4764,268.3022 191.4764,268.3022 193.3514,267.6772 193.3514,267.6772 194.6014,266.4272 194.6014,266.4272 195.2264,265.1772 195.2264,265.1772 195.8514,263.3022 195.8514,263.3022 195.8514,260.1772 195.8514,260.1772 195.2264,258.3022 195.2264,258.3022 194.6014,257.0522 194.6014,257.0522 193.3514,255.8022 193.3514,255.8022 191.4764,255.1772 191.4764,255.1772"/>
    <polygon points="321.2598,243.7795 321.2598,281.5748 321.2598,281.5748 359.0551,281.5748 359.0551,281.5748 396.8504,281.5748 396.8504,281.5748 434.6457,281.5748 434.6457,281.5748 434.6457,243.7795 434.6457,243.7795 396.8504,243.7795 396.8504,243.7795 359.0551,243.7795 359.0551,243.7795"/>
    <line x1="359.0551" x2="359.0551" y1="281.5748" y2="243.7795"/>
    <polyline points="325.0246,246.9488 325.6496,246.6363 325.6496,246.6363 326.5871,245.6988 326.5871,245.6988 326.5871,252.2613"/>
    <polyline points="334.0871,245.6988 330.9621,245.6988 330.9621,245.6988 330.6496,248.5113 330.6496,248.5113 330.9621,248.1988 330.9621,248.1988 331.8996,247.8863 331.8996,247.8863 332.8371,247.8863 332.8371,247.8863 333.7746,248.1988 333.7746,248.1988 334.3996,248.8238 334.3996,248.8238 334.7121,249.7613 334.7121,249.7613 334.7121,250.3863 334.7121,250.3863 334.3996,251.3238 334.3996,251.3238 333.7746,251.9488 333.7746,251.9488 332.8371,252.2613 332.8371,252.2613 331.8996,252.2613 331.8996,252.2613 330.9621,251.9488 330.9621,251.9488 330.6496,251.6363 330.6496,251.6363 330.3371,251.0113"/>
    <polyline points="346.72,258.3022 346.095,257.0522 346.095,257.0522 344.845,255.8022 344.845,255.8022 343.595,255.1772 343.595,255.1772 341.095,255.1772 341.095,255.1772 339.845,255.8022 339.845,255.8022 338.595,257.0522 338.595,257.0522 337.97,258.3022 337.97,258.3022 337.345,260.1772 337.345,260.1772 337.345,263.3022 337.345,263.3022 337.97,265.1772 337.97,265.1772 338.595,266.4272 338.595,266.4272 339.845,267.6772 339.845,267.6772 341.095,268.3022 341.095,268.3022 343.595,268.3022 343.595,268.3022 344.845,267.6772 344.845,267.6772 346.095,266.4272 346.095,266.4272 346.72,265.1772 346.72,265.1772 346.72,263.3022 346.72,263.3022 343.595,263.3022"/>
    <line x1="396.8504" x2="396.8504" y1="281.5748" y2="243.7795"/>
    <polyline points="376.0778,261.4272 381.7028,261.4272 381.7028,261.4272 383.5778,260.8022 383.5778,260.8022 384.2028,260.1772 384.2028,260.1772 384.8278,258.9272 384.8278,258.9272 384.8278,257.6772 384.8278,257.6772 384.2028,256.4272 384.2028,256.4272 383.5778,255.8022 383.5778,255.8022 381.7028,255.1772 381.7028,255.1772 376.0778,255.1772 376.0778,255.1772 376.0778,268.3022"/>
    <line x1="380.4528" x2="384.8278" y1="261.4272" y2="268.3022"/>
    <polyline points="421.373,268.3022 416.373,255.1772 416.373,255.1772 411.373,268.3022"/>
    <line x1="413.248" x2="419.498" y1="263.9272" y2="263.9272"/>
    <polyline points="434.6457,281.5748 472.4409,281.5748 472.4409,281.5748 510.2362,281.5748 510.2362,281.5748 510.2362,243.7795"/>
    <polyline points="245.6693,319.3701 245.6693,357.1654 245.6693,357.1654 207.874,357.1654 207.874,357.1654 207.874,319.3701 207.874,319.3701 245.6693,319.3701 245.6693,319.3701 283.4646,319.3701 283.4646,319.3701 321.2598,319.3701 321.2598,319.3701 359.0551,319.3701 359.0551,319.3701 396.8504,319.3701 396.8504,319.3701 434.6457,319.3701 434.6457,319.3701 472.4409,319.3701 472.4409,319.3701 472.4409,281.5748 472.4409,281.5748 472.4409,243.7795 472.4409,243.7795 434.6457,243.7795"/>
    <polyline points="459.1683,268.3022 454.1683,255.1772 454.1683,255.1772 449.1683,268.3022"/>
    <line x1="451.0433" x2="457.2933" y1="263.9272" y2="263.9272"/>
    <line x1="491.9636" x2="491.9636" y1="255.1772" y2="268.3022"/>
    <line x1="487.5886" x2="496.3386" y1="255.1772" y2="255.1772"/>
    <polyline points="585.8268,243.7795 585.8268,281.5748 585.8268,281.5748 585.8268,319.3701 585.8268,319.3701 585.8268,357.1654 585.8268,357.1654 623.622,357.1654 623.622,357.1654 623.622,319.3701 623.622,319.3701 623.622,281.5748 623.622,281.5748 623.622,243.7795"/>
    <line x1="585.8268" x2="623.622" y1="281.5748" y2="281.5748"/>
    <polyline points="602.8494,261.4272 608.4744,261.4272 608.4744,261.4272 610.3494,260.8022 610.3494,260.8022 610.9744,260.1772 610.9744,260.1772 611.5994,258.9272 611.5994,258.9272 611.5994,257.6772 611.5994,257.6772 610.9744,256.4272 610.9744,256.4272 610.3494,255.8022 610.3494,255.8022 608.4744,255.1772 608.4744,255.1772 602.8494,255.1772 602.8494,255.1772 602.8494,268.3022"/>
    <line x1="607.2244" x2="611.5994" y1="261.4272" y2="268.3022"/>
    <polyline points="661.4173,243.7795 661.4173,281.5748 661.4173,281.5748 661.4173,319.3701 661.4173,319.3701 699.2126,319.3701 699.2126,319.3701 699.2126,281.5748 699.2126,281.5748 699.2126,243.7795"/>
    <line x1="661.4173" x2="699.2126" y1="281.5748" y2="281.5748"/>
    <polyline points="686.8775,255.1772 678.7525,255.1772 678.7525,255.1772 678.7525,268.3022 678.7525,268.3022 686.8775,268.3022"/>
    <line x1="678.7525" x2="683.7525" y1="261.4272" y2="261.4272"/>
    <polyline points="737.0079,243.7795 737.0079,281.5748 737.0079,281.5748 737.0079,319.3701 737.0079,319.3701 774.8031,319.3701 774.8031,319.3701 774.8031,281.5748 774.8031,281.5748 774.8031,243.7795"/>
    <line x1="737.0079" x2="774.8031" y1="281.5748" y2="281.5748"/>
    <polyline points="762.468,255.1772 754.343,255.1772 754.343,255.1772 754.343,268.3022 754.343,268.3022 762.468,268.3022"/>
    <line x1="754.343" x2="759.343" y1="261.4272" y2="261.4272"/>
    <polyline points="195.5389,292.9724 187.4139,292.9724 187.4139,292.9724 187.4139,306.0974 187.4139,306.0974 195.5389,306.0974"/>
    <line x1="187.4139" x2="192.4139" y1="299.2224" y2="299.2224"/>
    <polygon points="472.4409,319.3701 510.2362,319.3701 510.2362,319.3701 510.2362,281.5748 510.2362,281.5748 548.0315,281.5748 548.0315,281.5748 548.0315,319.3701 548.0315,319.3701 510.2362,319.3701 510.2362,319.3701 510.2362,357.1654 510.2362,357.1654 472.4409,357.1654 472.4409,357.1654"/>
    <polyline points="476.2057,284.7441 476.8307,284.4316 476.8307,284.4316 477.7682,283.4941 477.7682,283.4941 477.7682,290.0566"/>
    <polyline points="485.5807,284.4316 485.2682,283.8066 485.2682,283.8066 484.3307,283.4941 484.3307,283.4941 483.7057,283.4941 483.7057,283.4941 482.7682,283.8066 482.7682,283.8066 482.1432,284.7441 482.1432,284.7441 481.8307,286.3066 481.8307,286.3066 481.8307,287.8691 481.8307,287.8691 482.1432,289.1191 482.1432,289.1191 482.7682,289.7441 482.7682,289.7441 483.7057,290.0566 483.7057,290.0566 484.0182,290.0566 484.0182,290.0566 484.9557,289.7441 484.9557,289.7441 485.5807,289.1191 485.5807,289.1191 485.8932,288.1816 485.8932,288.1816 485.8932,287.8691 485.8932,287.8691 485.5807,286.9316 485.5807,286.9316 484.9557,286.3066 484.9557,286.3066 484.0182,285.9941 484.0182,285.9941 483.7057,285.9941 483.7057,285.9941 482.7682,286.3066 482.7682,286.3066 482.1432,286.9316 482.1432,286.9316 481.8307,287.8691"/>
    <polyline points="495.7136,292.9724 495.7136,302.9724 495.7136,302.9724 495.0886,304.8474 495.0886,304.8474 494.4636,305.4724 494.4636,305.4724 493.2136,306.0974 493.2136,306.0974 491.9636,306.0974 491.9636,306.0974 490.7136,305.4724 490.7136,305.4724 490.0886,304.8474 490.0886,304.8474 489.4636,302.9724 489.4636,302.9724 489.4636,301.7224"/>
    <polyline points="534.7589,306.0974 529.7589,292.9724 529.7589,292.9724 524.7589,306.0974"/>
    <line x1="526.6339" x2="532.8839" y1="301.7224" y2="301.7224"/>
    <line x1="585.8268" x2="623.622" y1="319.3701" y2="319.3701"/>
    <polyline points="611.2869,292.9724 603.1619,292.9724 603.1619,292.9724 603.1619,306.0974 603.1619,306.0974 611.2869,306.0974"/>
    <line x1="603.1619" x2="608.1619" y1="299.2224" y2="299.2224"/>
    <polyline points="686.565,294.8474 685.315,293.5974 685.315,293.5974 683.44,292.9724 683.44,292.9724 680.94,292.9724 680.94,292.9724 679.065,293.5974 679.065,293.5974 677.815,294.8474 677.815,294.8474 677.815,296.0974 677.815,296.0974 678.44,297.3474 678.44,297.3474 679.065,297.9724 679.065,297.9724 680.315,298.5974 680.315,298.5974 684.065,299.8474 684.065,299.8474 685.315,300.4724 685.315,300.4724 685.94,301.0974 685.94,301.0974 686.565,302.3474 686.565,302.3474 686.565,304.2224 686.565,304.2224 685.315,305.4724 685.315,305.4724 683.44,306.0974 683.44,306.0974 680.94,306.0974 680.94,306.0974 679.065,305.4724 679.065,305.4724 677.815,304.2224"/>
    <polyline points="762.7805,292.9724 762.7805,306.0974 762.7805,306.0974 754.0305,292.9724 754.0305,292.9724 754.0305,306.0974"/>
    <polyline points="170.0787,319.3701 170.0787,357.1654 170.0787,357.1654 207.874,357.1654"/>
    <polyline points="173.8435,322.5394 174.4685,322.2269 174.4685,322.2269 175.406,321.2894 175.406,321.2894 175.406,327.8519"/>
    <polyline points="179.156,321.2894 183.531,321.2894 183.531,321.2894 180.406,327.8519"/>
    <polyline points="187.1014,337.0177 192.7264,337.0177 192.7264,337.0177 194.6014,336.3927 194.6014,336.3927 195.2264,335.7677 195.2264,335.7677 195.8514,334.5177 195.8514,334.5177 195.8514,333.2677 195.8514,333.2677 195.2264,332.0177 195.2264,332.0177 194.6014,331.3927 194.6014,331.3927 192.7264,330.7677 192.7264,330.7677 187.1014,330.7677 187.1014,330.7677 187.1014,343.8927"/>
    <line x1="191.4764" x2="195.8514" y1="337.0177" y2="343.8927"/>
    <polyline points="233.3342,330.7677 225.2092,330.7677 225.2092,330.7677 225.2092,343.8927 225.2092,343.8927 233.3342,343.8927"/>
    <line x1="225.2092" x2="230.2092" y1="337.0177" y2="337.0177"/>
    <polyline points="245.6693,357.1654 283.4646,357.1654 283.4646,357.1654 321.2598,357.1654 321.2598,357.1654 321.2598,319.3701"/>
    <line x1="283.4646" x2="283.4646" y1="357.1654" y2="319.3701"/>
    <line x1="262.6919" x2="262.6919" y1="330.7677" y2="343.8927"/>
    <line x1="271.4419" x2="262.6919" y1="330.7677" y2="339.5177"/>
    <line x1="265.8169" x2="271.4419" y1="336.3927" y2="343.8927"/>
    <line x1="300.4872" x2="300.4872" y1="330.7677" y2="343.8927"/>
    <line x1="309.2372" x2="300.4872" y1="330.7677" y2="339.5177"/>
    <line x1="303.6122" x2="309.2372" y1="336.3927" y2="343.8927"/>
    <polyline points="321.2598,357.1654 359.0551,357.1654 359.0551,357.1654 359.0551,319.3701"/>
    <polyline points="346.72,330.7677 338.595,330.7677 338.595,330.7677 338.595,343.8927 338.595,343.8927 346.72,343.8927"/>
    <line x1="338.595" x2="343.595" y1="337.0177" y2="337.0177"/>
    <polyline points="359.0551,357.1654 396.8504,357.1654 396.8504,357.1654 434.6457,357.1654 434.6457,357.1654 434.6457,319.3701"/>
    <line x1="396.8504" x2="396.8504" y1="357.1654" y2="319.3701"/>
    <polyline points="376.0778,337.0177 381.7028,337.0177 381.7028,337.0177 383.5778,336.3927 383.5778,336.3927 384.2028,335.7677 384.2028,335.7677 384.8278,334.5177 384.8278,334.5177 384.8278,333.2677 384.8278,333.2677 384.2028,332.0177 384.2028,332.0177 383.5778,331.3927 383.5778,331.3927 381.7028,330.7677 381.7028,330.7677 376.0778,330.7677 376.0778,330.7677 376.0778,343.8927"/>
    <line x1="380.4528" x2="384.8278" y1="337.0177" y2="343.8927"/>
    <line x1="416.373" x2="416.373" y1="330.7677" y2="343.8927"/>
    <line x1="411.998" x2="420.748" y1="330.7677" y2="330.7677"/>
    <line x1="434.6457" x2="472.4409" y1="357.1654" y2="357.1654"/>
    <polyline points="457.9183,330.7677 457.9183,340.7677 457.9183,340.7677 457.2933,342.6427 457.2933,342.6427 456.6683,343.2677 456.6683,343.2677 455.4183,343.8927 455.4183,343.8927 454.1683,343.8927 454.1683,343.8927 452.9183,343.2677 452.9183,343.2677 452.2933,342.6427 452.2933,342.6427 451.6683,340.7677 451.6683,340.7677 451.6683,339.5177"/>
    <polyline points="497.9011,330.7677 489.7761,330.7677 489.7761,330.7677 489.7761,343.8927 489.7761,343.8927 497.9011,343.8927"/>
    <line x1="489.7761" x2="494.7761" y1="337.0177" y2="337.0177"/>
    <polyline points="611.5994,330.7677 611.5994,343.8927 611.5994,343.8927 602.8494,330.7677 602.8494,330.7677 602.8494,343.8927"/>
  </g>
</svg>
