<?xml version="1.0" encoding="utf-8" ?>
<svg xmlns="http://www.w3.org/2000/svg" xmlns:cc="http://creativecommons.org/ns" xmlns:dc="http://purl.org/dc/elements/1.1/" xmlns:ev="http://www.w3.org/2001/xml-events" xmlns:inkscape="http://www.inkscape.org/namespaces/inkscape" xmlns:rdf="http://www.w3.org/1999/02/22-rdf-syntax-ns" xmlns:sodipodi="http://sodipodi.sourceforge.net/DTD/sodipodi-0.dtd" xmlns:xlink="http://www.w3.org/1999/xlink" baseProfile="tiny" height="9.0cm" version="1.2" viewBox="0 0 793.7007874015749 340.15748031496065" width="21.0cm">
  <metadata>
    <rdf:RDF>
      <cc:Work>
        <dc:format>image/svg+xml</dc:format>
        <dc:source>vpype eval 'cell=10;width=210;height=99' eval 'nCols=21;nRows=9' eval 'cells=[0,1,2,3,4,5,6,15,20,23,27,28,29,30,31,32,33,34,35,36,37,40,42,43,44,45,46,50,54,57,60,63,70,74,75,76,77,78,79,81,82,83,84,85,86,87,88,89,90,91,92,94,97,99,103,110,112,114,115,116,117,119,120,121,122,123,124,125,126,130,132,134,137,139,143,147,148,149,150,151,152,153,154,155,156,159,161,162,163,164,165,166,174]' eval 'chars=[&quot;P&quot;,&quot;I&quot;,&quot;N&quot;,&quot;K&quot;,&quot;E&quot;,&quot;R&quot;,&quot;S&quot;,&quot;J&quot;,&quot;I&quot;,&quot;L&quot;,&quot;M&quot;,&quot;I&quot;,&quot;S&quot;,&quot;V&quot;,&quot;E&quot;,&quot;R&quot;,&quot;S&quot;,&quot;T&quot;,&quot;A&quot;,&quot;N&quot;,&quot;D&quot;,&quot;P&quot;,&quot;K&quot;,&quot;A&quot;,&quot;S&quot;,&quot;S&quot;,&quot;A&quot;,&quot;E&quot;,&quot;E&quot;,&quot;I&quot;,&quot;I&quot;,&quot;V&quot;,&quot;L&quot;,&quot;L&quot;,&quot;A&quot;,&quot;K&quot;,&quot;E&quot;,&quot;N&quot;,&quot;S&quot;,&quot;F&quot;,&quot;L&quot;,&quot;E&quot;,&quot;S&quot;,&quot;S&quot;,&quot;E&quot;,&quot;N&quot;,&quot;G&quot;,&quot;E&quot;,&quot;L&quot;,&quot;U&quot;,&quot;K&quot;,&quot;E&quot;,&quot;T&quot;,&quot;I&quot;,&quot;R&quot;,&quot;E&quot;,&quot;O&quot;,&quot;F&quot;,&quot;I&quot;,&quot;L&quot;,&quot;E&quot;,&quot;L&quot;,&quot;R&quot;,&quot;E&quot;,&quot;S&quot;,&quot;T&quot;,&quot;J&quot;,&quot;E&quot;,&quot;S&quot;,&quot;K&quot;,&quot;U&quot;,&quot;O&quot;,&quot;R&quot;,&quot;K&quot;,&quot;J&quot;,&quot;G&quot;,&quot;R&quot;,&quot;O&quot;,&quot;E&quot;,&quot;P&quot;,&quot;S&quot;,&quot;F&quot;,&quot;O&quot;,&quot;T&quot;,&quot;O&quot;,&quot;E&quot;,&quot;K&quot;,&quot;I&quot;,&quot;E&quot;,&quot;M&quot;,&quot;E&quot;,&quot;N&quot;,&quot;N&quot;]' eval 'numbers=[0,3,15,27,30,34,37,42,74,79,81,92,114,120,147,161]' eval counter=1 eval charIndex=0 begin grid -o '%cell*mm%' '%cell*mm%' %nCols% %nRows% eval '%isCell=_i in cells%' eval '%number=_i in numbers%' eval '%size=10 if isCell else 0%' rect 0 0 '%size*mm%' '%size*mm%' text -s 8 -p 0.5mm 1.5mm '%counter if number else '&quot;'&quot;''&quot;'&quot;'%' text -s 20 -p 5mm 5mm -a center '%chars[charIndex] if isCell else '&quot;'&quot;''&quot;'&quot;'%' eval '%if number: counter+=1 %' eval '%if isCell: charIndex+=1 %' end write ./svgs/solution/5ef2a8.svg
</dc:source>
        <dc:date>2023-12-20T21:39:18.502016</dc:date>
      </cc:Work>
    </rdf:RDF>
  </metadata>
  <defs/>
  <g fill="none" id="layer1" inkscape:groupmode="layer" inkscape:label="1" stroke="#0000ff" style="display:inline">
    <polygon points="0.0,0.0 0.0,37.7953 37.7953,37.7953 37.7953,0.0"/>
    <polyline points="3.3898,3.6693 3.8898,3.4193 4.6398,2.6693 4.6398,7.9193"/>
    <line x1="17.0226" x2="17.0226" y1="11.3976" y2="24.5226"/>
    <polyline points="17.0226,11.3976 22.6476,11.3976 24.5226,12.0226 25.1476,12.6476 25.7726,13.8976 25.7726,15.7726 25.1476,17.0226 24.5226,17.6476 22.6476,18.2726 17.0226,18.2726"/>
    <polygon points="37.7953,0.0 37.7953,37.7953 75.5906,37.7953 75.5906,0.0"/>
    <line x1="59.1929" x2="59.1929" y1="11.3976" y2="24.5226"/>
    <polygon points="75.5906,0.0 75.5906,37.7953 113.3858,37.7953 113.3858,0.0"/>
    <line x1="92.6132" x2="92.6132" y1="11.3976" y2="24.5226"/>
    <line x1="92.6132" x2="101.3632" y1="11.3976" y2="24.5226"/>
    <line x1="101.3632" x2="101.3632" y1="11.3976" y2="24.5226"/>
    <polygon points="113.3858,0.0 113.3858,37.7953 151.1811,37.7953 151.1811,0.0"/>
    <polyline points="116.2756,3.9193 116.2756,3.6693 116.5256,3.1693 116.7756,2.9193 117.2756,2.6693 118.2756,2.6693 118.7756,2.9193 119.0256,3.1693 119.2756,3.6693 119.2756,4.1693 119.0256,4.6693 118.5256,5.4193 116.0256,7.9193 119.5256,7.9193"/>
    <line x1="130.4085" x2="130.4085" y1="11.3976" y2="24.5226"/>
    <line x1="139.1585" x2="130.4085" y1="11.3976" y2="20.1476"/>
    <line x1="133.5335" x2="139.1585" y1="17.0226" y2="24.5226"/>
    <polygon points="151.1811,0.0 151.1811,37.7953 188.9764,37.7953 188.9764,0.0"/>
    <line x1="168.5162" x2="168.5162" y1="11.3976" y2="24.5226"/>
    <line x1="168.5162" x2="176.6412" y1="11.3976" y2="11.3976"/>
    <line x1="168.5162" x2="173.5162" y1="17.6476" y2="17.6476"/>
    <line x1="168.5162" x2="176.6412" y1="24.5226" y2="24.5226"/>
    <polygon points="188.9764,0.0 188.9764,37.7953 226.7717,37.7953 226.7717,0.0"/>
    <line x1="205.999" x2="205.999" y1="11.3976" y2="24.5226"/>
    <polyline points="205.999,11.3976 211.624,11.3976 213.499,12.0226 214.124,12.6476 214.749,13.8976 214.749,15.1476 214.124,16.3976 213.499,17.0226 211.624,17.6476 205.999,17.6476"/>
    <line x1="210.374" x2="214.749" y1="17.6476" y2="24.5226"/>
    <polygon points="226.7717,0.0 226.7717,37.7953 264.5669,37.7953 264.5669,0.0"/>
    <polyline points="251.9193,13.2726 250.6693,12.0226 248.7943,11.3976 246.2943,11.3976 244.4193,12.0226 243.1693,13.2726 243.1693,14.5226 243.7943,15.7726 244.4193,16.3976 245.6693,17.0226 249.4193,18.2726 250.6693,18.8976 251.2943,19.5226 251.9193,20.7726 251.9193,22.6476 250.6693,23.8976 248.7943,24.5226 246.2943,24.5226 244.4193,23.8976 243.1693,22.6476"/>
    <polygon points="264.5669,0.0 264.5669,0.0 264.5669,0.0 264.5669,0.0"/>
    <polygon points="302.3622,0.0 302.3622,0.0 302.3622,0.0 302.3622,0.0"/>
    <polygon points="340.1575,0.0 340.1575,0.0 340.1575,0.0 340.1575,0.0"/>
    <polygon points="377.9528,0.0 377.9528,0.0 377.9528,0.0 377.9528,0.0"/>
    <polygon points="415.748,0.0 415.748,0.0 415.748,0.0 415.748,0.0"/>
    <polygon points="453.5433,0.0 453.5433,0.0 453.5433,0.0 453.5433,0.0"/>
    <polygon points="491.3386,0.0 491.3386,0.0 491.3386,0.0 491.3386,0.0"/>
    <polygon points="529.1339,0.0 529.1339,0.0 529.1339,0.0 529.1339,0.0"/>
    <polygon points="566.9291,0.0 566.9291,37.7953 604.7244,37.7953 604.7244,0.0"/>
    <polyline points="570.0689,2.6693 572.8189,2.6693 571.3189,4.6693 572.0689,4.6693 572.5689,4.9193 572.8189,5.1693 573.0689,5.9193 573.0689,6.4193 572.8189,7.1693 572.3189,7.6693 571.5689,7.9193 570.8189,7.9193 570.0689,7.6693 569.8189,7.4193 569.5689,6.9193"/>
    <polyline points="590.2018,11.3976 590.2018,21.3976 589.5768,23.2726 588.9518,23.8976 587.7018,24.5226 586.4518,24.5226 585.2018,23.8976 584.5768,23.2726 583.9518,21.3976 583.9518,20.1476"/>
    <polygon points="604.7244,0.0 604.7244,0.0 604.7244,0.0 604.7244,0.0"/>
    <polygon points="642.5197,0.0 642.5197,0.0 642.5197,0.0 642.5197,0.0"/>
    <polygon points="680.315,0.0 680.315,0.0 680.315,0.0 680.315,0.0"/>
    <polygon points="718.1102,0.0 718.1102,0.0 718.1102,0.0 718.1102,0.0"/>
    <polygon points="755.9055,0.0 755.9055,37.7953 793.7008,37.7953 793.7008,0.0"/>
    <line x1="777.3031" x2="777.3031" y1="11.3976" y2="24.5226"/>
    <polygon points="0.0,37.7953 0.0,37.7953 0.0,37.7953 0.0,37.7953"/>
    <polygon points="37.7953,37.7953 37.7953,37.7953 37.7953,37.7953 37.7953,37.7953"/>
    <polygon points="75.5906,37.7953 75.5906,75.5906 113.3858,75.5906 113.3858,37.7953"/>
    <line x1="93.2382" x2="93.2382" y1="49.1929" y2="62.3179"/>
    <line x1="93.2382" x2="100.7382" y1="62.3179" y2="62.3179"/>
    <polygon points="113.3858,37.7953 113.3858,37.7953 113.3858,37.7953 113.3858,37.7953"/>
    <polygon points="151.1811,37.7953 151.1811,37.7953 151.1811,37.7953 151.1811,37.7953"/>
    <polygon points="188.9764,37.7953 188.9764,37.7953 188.9764,37.7953 188.9764,37.7953"/>
    <polygon points="226.7717,37.7953 226.7717,75.5906 264.5669,75.5906 264.5669,37.7953"/>
    <polyline points="231.9114,40.4646 229.4114,43.9646 233.1614,43.9646"/>
    <line x1="231.9114" x2="231.9114" y1="40.4646" y2="45.7146"/>
    <line x1="243.1693" x2="243.1693" y1="49.1929" y2="62.3179"/>
    <line x1="243.1693" x2="248.1693" y1="49.1929" y2="62.3179"/>
    <line x1="253.1693" x2="248.1693" y1="49.1929" y2="62.3179"/>
    <line x1="253.1693" x2="253.1693" y1="49.1929" y2="62.3179"/>
    <polygon points="264.5669,37.7953 264.5669,75.5906 302.3622,75.5906 302.3622,37.7953"/>
    <line x1="285.9646" x2="285.9646" y1="49.1929" y2="62.3179"/>
    <polygon points="302.3622,37.7953 302.3622,75.5906 340.1575,75.5906 340.1575,37.7953"/>
    <polyline points="327.5098,51.0679 326.2598,49.8179 324.3848,49.1929 321.8848,49.1929 320.0098,49.8179 318.7598,51.0679 318.7598,52.3179 319.3848,53.5679 320.0098,54.1929 321.2598,54.8179 325.0098,56.0679 326.2598,56.6929 326.8848,57.3179 327.5098,58.5679 327.5098,60.4429 326.2598,61.6929 324.3848,62.3179 321.8848,62.3179 320.0098,61.6929 318.7598,60.4429"/>
    <polygon points="340.1575,37.7953 340.1575,75.5906 377.9528,75.5906 377.9528,37.7953"/>
    <polyline points="345.7972,40.4646 343.2972,40.4646 343.0472,42.7146 343.2972,42.4646 344.0472,42.2146 344.7972,42.2146 345.5472,42.4646 346.0472,42.9646 346.2972,43.7146 346.2972,44.2146 346.0472,44.9646 345.5472,45.4646 344.7972,45.7146 344.0472,45.7146 343.2972,45.4646 343.0472,45.2146 342.7972,44.7146"/>
    <line x1="354.6801" x2="359.6801" y1="49.1929" y2="62.3179"/>
    <line x1="364.6801" x2="359.6801" y1="49.1929" y2="62.3179"/>
    <polygon points="377.9528,37.7953 377.9528,75.5906 415.748,75.5906 415.748,37.7953"/>
    <line x1="395.2879" x2="395.2879" y1="49.1929" y2="62.3179"/>
    <line x1="395.2879" x2="403.4129" y1="49.1929" y2="49.1929"/>
    <line x1="395.2879" x2="400.2879" y1="55.4429" y2="55.4429"/>
    <line x1="395.2879" x2="403.4129" y1="62.3179" y2="62.3179"/>
    <polygon points="415.748,37.7953 415.748,75.5906 453.5433,75.5906 453.5433,37.7953"/>
    <line x1="432.7707" x2="432.7707" y1="49.1929" y2="62.3179"/>
    <polyline points="432.7707,49.1929 438.3957,49.1929 440.2707,49.8179 440.8957,50.4429 441.5207,51.6929 441.5207,52.9429 440.8957,54.1929 440.2707,54.8179 438.3957,55.4429 432.7707,55.4429"/>
    <line x1="437.1457" x2="441.5207" y1="55.4429" y2="62.3179"/>
    <polygon points="453.5433,37.7953 453.5433,75.5906 491.3386,75.5906 491.3386,37.7953"/>
    <polyline points="478.6909,51.0679 477.4409,49.8179 475.5659,49.1929 473.0659,49.1929 471.1909,49.8179 469.9409,51.0679 469.9409,52.3179 470.5659,53.5679 471.1909,54.1929 472.4409,54.8179 476.1909,56.0679 477.4409,56.6929 478.0659,57.3179 478.6909,58.5679 478.6909,60.4429 477.4409,61.6929 475.5659,62.3179 473.0659,62.3179 471.1909,61.6929 469.9409,60.4429"/>
    <polygon points="491.3386,37.7953 491.3386,75.5906 529.1339,75.5906 529.1339,37.7953"/>
    <polyline points="497.2283,41.2146 496.9783,40.7146 496.2283,40.4646 495.7283,40.4646 494.9783,40.7146 494.4783,41.4646 494.2283,42.7146 494.2283,43.9646 494.4783,44.9646 494.9783,45.4646 495.7283,45.7146 495.9783,45.7146 496.7283,45.4646 497.2283,44.9646 497.4783,44.2146 497.4783,43.9646 497.2283,43.2146 496.7283,42.7146 495.9783,42.4646 495.7283,42.4646 494.9783,42.7146 494.4783,43.2146 494.2283,43.9646"/>
    <line x1="510.8612" x2="510.8612" y1="49.1929" y2="62.3179"/>
    <line x1="506.4862" x2="515.2362" y1="49.1929" y2="49.1929"/>
    <polygon points="529.1339,37.7953 529.1339,75.5906 566.9291,75.5906 566.9291,37.7953"/>
    <line x1="548.6565" x2="543.6565" y1="49.1929" y2="62.3179"/>
    <line x1="548.6565" x2="553.6565" y1="49.1929" y2="62.3179"/>
    <line x1="545.5315" x2="551.7815" y1="57.9429" y2="57.9429"/>
    <polygon points="566.9291,37.7953 566.9291,75.5906 604.7244,75.5906 604.7244,37.7953"/>
    <line x1="583.9518" x2="583.9518" y1="49.1929" y2="62.3179"/>
    <line x1="583.9518" x2="592.7018" y1="49.1929" y2="62.3179"/>
    <line x1="592.7018" x2="592.7018" y1="49.1929" y2="62.3179"/>
    <polygon points="604.7244,37.7953 604.7244,75.5906 642.5197,75.5906 642.5197,37.7953"/>
    <line x1="610.8642" x2="608.3642" y1="40.4646" y2="45.7146"/>
    <line x1="607.3642" x2="610.8642" y1="40.4646" y2="40.4646"/>
    <line x1="621.747" x2="621.747" y1="49.1929" y2="62.3179"/>
    <polyline points="621.747,49.1929 626.122,49.1929 627.997,49.8179 629.247,51.0679 629.872,52.3179 630.497,54.1929 630.497,57.3179 629.872,59.1929 629.247,60.4429 627.997,61.6929 626.122,62.3179 621.747,62.3179"/>
    <polygon points="642.5197,37.7953 642.5197,37.7953 642.5197,37.7953 642.5197,37.7953"/>
    <polygon points="680.315,37.7953 680.315,37.7953 680.315,37.7953 680.315,37.7953"/>
    <polygon points="718.1102,37.7953 718.1102,75.5906 755.9055,75.5906 755.9055,37.7953"/>
    <line x1="735.1329" x2="735.1329" y1="49.1929" y2="62.3179"/>
    <polyline points="735.1329,49.1929 740.7579,49.1929 742.6329,49.8179 743.2579,50.4429 743.8829,51.6929 743.8829,53.5679 743.2579,54.8179 742.6329,55.4429 740.7579,56.0679 735.1329,56.0679"/>
    <polygon points="755.9055,37.7953 755.9055,37.7953 755.9055,37.7953 755.9055,37.7953"/>
    <polygon points="0.0,75.5906 0.0,113.3858 37.7953,113.3858 37.7953,75.5906"/>
    <polygon points="3.8898,78.2598 3.1398,78.5098 2.8898,79.0098 2.8898,79.5098 3.1398,80.0098 3.6398,80.2598 4.6398,80.5098 5.3898,80.7598 5.8898,81.2598 6.1398,81.7598 6.1398,82.5098 5.8898,83.0098 5.6398,83.2598 4.8898,83.5098 3.8898,83.5098 3.1398,83.2598 2.8898,83.0098 2.6398,82.5098 2.6398,81.7598 2.8898,81.2598 3.3898,80.7598 4.1398,80.5098 5.1398,80.2598 5.6398,80.0098 5.8898,79.5098 5.8898,79.0098 5.6398,78.5098 4.8898,78.2598"/>
    <line x1="17.0226" x2="17.0226" y1="86.9882" y2="100.1132"/>
    <line x1="25.7726" x2="17.0226" y1="86.9882" y2="95.7382"/>
    <line x1="20.1476" x2="25.7726" y1="92.6132" y2="100.1132"/>
    <polygon points="37.7953,75.5906 37.7953,113.3858 75.5906,113.3858 75.5906,75.5906"/>
    <line x1="57.3179" x2="52.3179" y1="86.9882" y2="100.1132"/>
    <line x1="57.3179" x2="62.3179" y1="86.9882" y2="100.1132"/>
    <line x1="54.1929" x2="60.4429" y1="95.7382" y2="95.7382"/>
    <polygon points="75.5906,75.5906 75.5906,113.3858 113.3858,113.3858 113.3858,75.5906"/>
    <polyline points="100.7382,88.8632 99.4882,87.6132 97.6132,86.9882 95.1132,86.9882 93.2382,87.6132 91.9882,88.8632 91.9882,90.1132 92.6132,91.3632 93.2382,91.9882 94.4882,92.6132 98.2382,93.8632 99.4882,94.4882 100.1132,95.1132 100.7382,96.3632 100.7382,98.2382 99.4882,99.4882 97.6132,100.1132 95.1132,100.1132 93.2382,99.4882 91.9882,98.2382"/>
    <polygon points="113.3858,75.5906 113.3858,113.3858 151.1811,113.3858 151.1811,75.5906"/>
    <polyline points="138.5335,88.8632 137.2835,87.6132 135.4085,86.9882 132.9085,86.9882 131.0335,87.6132 129.7835,88.8632 129.7835,90.1132 130.4085,91.3632 131.0335,91.9882 132.2835,92.6132 136.0335,93.8632 137.2835,94.4882 137.9085,95.1132 138.5335,96.3632 138.5335,98.2382 137.2835,99.4882 135.4085,100.1132 132.9085,100.1132 131.0335,99.4882 129.7835,98.2382"/>
    <polygon points="151.1811,75.5906 151.1811,113.3858 188.9764,113.3858 188.9764,75.5906"/>
    <line x1="170.7037" x2="165.7037" y1="86.9882" y2="100.1132"/>
    <line x1="170.7037" x2="175.7037" y1="86.9882" y2="100.1132"/>
    <line x1="167.5787" x2="173.8287" y1="95.7382" y2="95.7382"/>
    <polygon points="188.9764,75.5906 188.9764,75.5906 188.9764,75.5906 188.9764,75.5906"/>
    <polygon points="226.7717,75.5906 226.7717,75.5906 226.7717,75.5906 226.7717,75.5906"/>
    <polygon points="264.5669,75.5906 264.5669,75.5906 264.5669,75.5906 264.5669,75.5906"/>
    <polygon points="302.3622,75.5906 302.3622,113.3858 340.1575,113.3858 340.1575,75.5906"/>
    <line x1="319.6973" x2="319.6973" y1="86.9882" y2="100.1132"/>
    <line x1="319.6973" x2="327.8223" y1="86.9882" y2="86.9882"/>
    <line x1="319.6973" x2="324.6973" y1="93.2382" y2="93.2382"/>
    <line x1="319.6973" x2="327.8223" y1="100.1132" y2="100.1132"/>
    <polygon points="340.1575,75.5906 340.1575,75.5906 340.1575,75.5906 340.1575,75.5906"/>
    <polygon points="377.9528,75.5906 377.9528,75.5906 377.9528,75.5906 377.9528,75.5906"/>
    <polygon points="415.748,75.5906 415.748,75.5906 415.748,75.5906 415.748,75.5906"/>
    <polygon points="453.5433,75.5906 453.5433,113.3858 491.3386,113.3858 491.3386,75.5906"/>
    <line x1="470.8784" x2="470.8784" y1="86.9882" y2="100.1132"/>
    <line x1="470.8784" x2="479.0034" y1="86.9882" y2="86.9882"/>
    <line x1="470.8784" x2="475.8784" y1="93.2382" y2="93.2382"/>
    <line x1="470.8784" x2="479.0034" y1="100.1132" y2="100.1132"/>
    <polygon points="491.3386,75.5906 491.3386,75.5906 491.3386,75.5906 491.3386,75.5906"/>
    <polygon points="529.1339,75.5906 529.1339,75.5906 529.1339,75.5906 529.1339,75.5906"/>
    <polygon points="566.9291,75.5906 566.9291,113.3858 604.7244,113.3858 604.7244,75.5906"/>
    <line x1="588.3268" x2="588.3268" y1="86.9882" y2="100.1132"/>
    <polygon points="604.7244,75.5906 604.7244,75.5906 604.7244,75.5906 604.7244,75.5906"/>
    <polygon points="642.5197,75.5906 642.5197,75.5906 642.5197,75.5906 642.5197,75.5906"/>
    <polygon points="680.315,75.5906 680.315,113.3858 718.1102,113.3858 718.1102,75.5906"/>
    <line x1="701.7126" x2="701.7126" y1="86.9882" y2="100.1132"/>
    <polygon points="718.1102,75.5906 718.1102,75.5906 718.1102,75.5906 718.1102,75.5906"/>
    <polygon points="755.9055,75.5906 755.9055,75.5906 755.9055,75.5906 755.9055,75.5906"/>
    <polygon points="0.0,113.3858 0.0,151.1811 37.7953,151.1811 37.7953,113.3858"/>
    <line x1="14.5226" x2="19.5226" y1="124.7835" y2="137.9085"/>
    <line x1="24.5226" x2="19.5226" y1="124.7835" y2="137.9085"/>
    <polygon points="37.7953,113.3858 37.7953,113.3858 37.7953,113.3858 37.7953,113.3858"/>
    <polygon points="75.5906,113.3858 75.5906,113.3858 75.5906,113.3858 75.5906,113.3858"/>
    <polygon points="113.3858,113.3858 113.3858,113.3858 113.3858,113.3858 113.3858,113.3858"/>
    <polygon points="151.1811,113.3858 151.1811,113.3858 151.1811,113.3858 151.1811,113.3858"/>
    <polygon points="188.9764,113.3858 188.9764,113.3858 188.9764,113.3858 188.9764,113.3858"/>
    <polygon points="226.7717,113.3858 226.7717,113.3858 226.7717,113.3858 226.7717,113.3858"/>
    <polygon points="264.5669,113.3858 264.5669,151.1811 302.3622,151.1811 302.3622,113.3858"/>
    <line x1="282.2146" x2="282.2146" y1="124.7835" y2="137.9085"/>
    <line x1="282.2146" x2="289.7146" y1="137.9085" y2="137.9085"/>
    <polygon points="302.3622,113.3858 302.3622,113.3858 302.3622,113.3858 302.3622,113.3858"/>
    <polygon points="340.1575,113.3858 340.1575,113.3858 340.1575,113.3858 340.1575,113.3858"/>
    <polygon points="377.9528,113.3858 377.9528,113.3858 377.9528,113.3858 377.9528,113.3858"/>
    <polygon points="415.748,113.3858 415.748,151.1811 453.5433,151.1811 453.5433,113.3858"/>
    <polyline points="421.6378,117.8051 421.3878,118.5551 420.8878,119.0551 420.1378,119.3051 419.8878,119.3051 419.1378,119.0551 418.6378,118.5551 418.3878,117.8051 418.3878,117.5551 418.6378,116.8051 419.1378,116.3051 419.8878,116.0551 420.1378,116.0551 420.8878,116.3051 421.3878,116.8051 421.6378,117.8051 421.6378,119.0551 421.3878,120.3051 420.8878,121.0551 420.1378,121.3051 419.6378,121.3051 418.8878,121.0551 418.6378,120.5551"/>
    <line x1="433.3957" x2="433.3957" y1="124.7835" y2="137.9085"/>
    <line x1="433.3957" x2="440.8957" y1="137.9085" y2="137.9085"/>
    <polygon points="453.5433,113.3858 453.5433,151.1811 491.3386,151.1811 491.3386,113.3858"/>
    <line x1="473.0659" x2="468.0659" y1="124.7835" y2="137.9085"/>
    <line x1="473.0659" x2="478.0659" y1="124.7835" y2="137.9085"/>
    <line x1="469.9409" x2="476.1909" y1="133.5335" y2="133.5335"/>
    <polygon points="491.3386,113.3858 491.3386,151.1811 529.1339,151.1811 529.1339,113.3858"/>
    <line x1="508.3612" x2="508.3612" y1="124.7835" y2="137.9085"/>
    <line x1="517.1112" x2="508.3612" y1="124.7835" y2="133.5335"/>
    <line x1="511.4862" x2="517.1112" y1="130.4085" y2="137.9085"/>
    <polygon points="529.1339,113.3858 529.1339,151.1811 566.9291,151.1811 566.9291,113.3858"/>
    <line x1="546.469" x2="546.469" y1="124.7835" y2="137.9085"/>
    <line x1="546.469" x2="554.594" y1="124.7835" y2="124.7835"/>
    <line x1="546.469" x2="551.469" y1="131.0335" y2="131.0335"/>
    <line x1="546.469" x2="554.594" y1="137.9085" y2="137.9085"/>
    <polygon points="566.9291,113.3858 566.9291,151.1811 604.7244,151.1811 604.7244,113.3858"/>
    <line x1="583.9518" x2="583.9518" y1="124.7835" y2="137.9085"/>
    <line x1="583.9518" x2="592.7018" y1="124.7835" y2="137.9085"/>
    <line x1="592.7018" x2="592.7018" y1="124.7835" y2="137.9085"/>
    <polygon points="604.7244,113.3858 604.7244,151.1811 642.5197,151.1811 642.5197,113.3858"/>
    <polyline points="608.1142,117.0551 608.6142,116.8051 609.3642,116.0551 609.3642,121.3051"/>
    <polygon points="613.8642,116.0551 613.1142,116.3051 612.6142,117.0551 612.3642,118.3051 612.3642,119.0551 612.6142,120.3051 613.1142,121.0551 613.8642,121.3051 614.3642,121.3051 615.1142,121.0551 615.6142,120.3051 615.8642,119.0551 615.8642,118.3051 615.6142,117.0551 615.1142,116.3051 614.3642,116.0551"/>
    <polyline points="629.872,126.6585 628.622,125.4085 626.747,124.7835 624.247,124.7835 622.372,125.4085 621.122,126.6585 621.122,127.9085 621.747,129.1585 622.372,129.7835 623.622,130.4085 627.372,131.6585 628.622,132.2835 629.247,132.9085 629.872,134.1585 629.872,136.0335 628.622,137.2835 626.747,137.9085 624.247,137.9085 622.372,137.2835 621.122,136.0335"/>
    <polygon points="642.5197,113.3858 642.5197,113.3858 642.5197,113.3858 642.5197,113.3858"/>
    <polygon points="680.315,113.3858 680.315,151.1811 718.1102,151.1811 718.1102,113.3858"/>
    <polyline points="683.7047,117.0551 684.2047,116.8051 684.9547,116.0551 684.9547,121.3051"/>
    <polyline points="688.7047,117.0551 689.2047,116.8051 689.9547,116.0551 689.9547,121.3051"/>
    <line x1="697.6501" x2="697.6501" y1="124.7835" y2="137.9085"/>
    <line x1="697.6501" x2="705.7751" y1="124.7835" y2="124.7835"/>
    <line x1="697.6501" x2="702.6501" y1="131.0335" y2="131.0335"/>
    <polygon points="718.1102,113.3858 718.1102,151.1811 755.9055,151.1811 755.9055,113.3858"/>
    <line x1="735.7579" x2="735.7579" y1="124.7835" y2="137.9085"/>
    <line x1="735.7579" x2="743.2579" y1="137.9085" y2="137.9085"/>
    <polygon points="755.9055,113.3858 755.9055,151.1811 793.7008,151.1811 793.7008,113.3858"/>
    <line x1="773.2406" x2="773.2406" y1="124.7835" y2="137.9085"/>
    <line x1="773.2406" x2="781.3656" y1="124.7835" y2="124.7835"/>
    <line x1="773.2406" x2="778.2406" y1="131.0335" y2="131.0335"/>
    <line x1="773.2406" x2="781.3656" y1="137.9085" y2="137.9085"/>
    <polygon points="0.0,151.1811 0.0,188.9764 37.7953,188.9764 37.7953,151.1811"/>
    <polyline points="25.1476,164.4537 23.8976,163.2037 22.0226,162.5787 19.5226,162.5787 17.6476,163.2037 16.3976,164.4537 16.3976,165.7037 17.0226,166.9537 17.6476,167.5787 18.8976,168.2037 22.6476,169.4537 23.8976,170.0787 24.5226,170.7037 25.1476,171.9537 25.1476,173.8287 23.8976,175.0787 22.0226,175.7037 19.5226,175.7037 17.6476,175.0787 16.3976,173.8287"/>
    <polygon points="37.7953,151.1811 37.7953,188.9764 75.5906,188.9764 75.5906,151.1811"/>
    <polyline points="62.9429,164.4537 61.6929,163.2037 59.8179,162.5787 57.3179,162.5787 55.4429,163.2037 54.1929,164.4537 54.1929,165.7037 54.8179,166.9537 55.4429,167.5787 56.6929,168.2037 60.4429,169.4537 61.6929,170.0787 62.3179,170.7037 62.9429,171.9537 62.9429,173.8287 61.6929,175.0787 59.8179,175.7037 57.3179,175.7037 55.4429,175.0787 54.1929,173.8287"/>
    <polygon points="75.5906,151.1811 75.5906,188.9764 113.3858,188.9764 113.3858,151.1811"/>
    <line x1="92.9257" x2="92.9257" y1="162.5787" y2="175.7037"/>
    <line x1="92.9257" x2="101.0507" y1="162.5787" y2="162.5787"/>
    <line x1="92.9257" x2="97.9257" y1="168.8287" y2="168.8287"/>
    <line x1="92.9257" x2="101.0507" y1="175.7037" y2="175.7037"/>
    <polygon points="113.3858,151.1811 113.3858,188.9764 151.1811,188.9764 151.1811,151.1811"/>
    <line x1="130.4085" x2="130.4085" y1="162.5787" y2="175.7037"/>
    <line x1="130.4085" x2="139.1585" y1="162.5787" y2="175.7037"/>
    <line x1="139.1585" x2="139.1585" y1="162.5787" y2="175.7037"/>
    <polygon points="151.1811,151.1811 151.1811,188.9764 188.9764,188.9764 188.9764,151.1811"/>
    <polyline points="176.6412,165.7037 176.0162,164.4537 174.7662,163.2037 173.5162,162.5787 171.0162,162.5787 169.7662,163.2037 168.5162,164.4537 167.8912,165.7037 167.2662,167.5787 167.2662,170.7037 167.8912,172.5787 168.5162,173.8287 169.7662,175.0787 171.0162,175.7037 173.5162,175.7037 174.7662,175.0787 176.0162,173.8287 176.6412,172.5787 176.6412,170.7037"/>
    <line x1="173.5162" x2="176.6412" y1="170.7037" y2="170.7037"/>
    <polygon points="188.9764,151.1811 188.9764,188.9764 226.7717,188.9764 226.7717,151.1811"/>
    <line x1="206.3115" x2="206.3115" y1="162.5787" y2="175.7037"/>
    <line x1="206.3115" x2="214.4365" y1="162.5787" y2="162.5787"/>
    <line x1="206.3115" x2="211.3115" y1="168.8287" y2="168.8287"/>
    <line x1="206.3115" x2="214.4365" y1="175.7037" y2="175.7037"/>
    <polygon points="226.7717,151.1811 226.7717,188.9764 264.5669,188.9764 264.5669,151.1811"/>
    <line x1="244.4193" x2="244.4193" y1="162.5787" y2="175.7037"/>
    <line x1="244.4193" x2="251.9193" y1="175.7037" y2="175.7037"/>
    <polygon points="264.5669,151.1811 264.5669,188.9764 302.3622,188.9764 302.3622,151.1811"/>
    <polyline points="281.5896,162.5787 281.5896,171.9537 282.2146,173.8287 283.4646,175.0787 285.3396,175.7037 286.5896,175.7037 288.4646,175.0787 289.7146,173.8287 290.3396,171.9537 290.3396,162.5787"/>
    <polygon points="302.3622,151.1811 302.3622,188.9764 340.1575,188.9764 340.1575,151.1811"/>
    <polyline points="305.752,154.8504 306.252,154.6004 307.002,153.8504 307.002,159.1004"/>
    <polyline points="310.252,155.1004 310.252,154.8504 310.502,154.3504 310.752,154.1004 311.252,153.8504 312.252,153.8504 312.752,154.1004 313.002,154.3504 313.252,154.8504 313.252,155.3504 313.002,155.8504 312.502,156.6004 310.002,159.1004 313.502,159.1004"/>
    <line x1="319.3848" x2="319.3848" y1="162.5787" y2="175.7037"/>
    <line x1="328.1348" x2="319.3848" y1="162.5787" y2="171.3287"/>
    <line x1="322.5098" x2="328.1348" y1="168.2037" y2="175.7037"/>
    <polygon points="340.1575,151.1811 340.1575,151.1811 340.1575,151.1811 340.1575,151.1811"/>
    <polygon points="377.9528,151.1811 377.9528,188.9764 415.748,188.9764 415.748,151.1811"/>
    <line x1="395.2879" x2="395.2879" y1="162.5787" y2="175.7037"/>
    <line x1="395.2879" x2="403.4129" y1="162.5787" y2="162.5787"/>
    <line x1="395.2879" x2="400.2879" y1="168.8287" y2="168.8287"/>
    <line x1="395.2879" x2="403.4129" y1="175.7037" y2="175.7037"/>
    <polygon points="415.748,151.1811 415.748,151.1811 415.748,151.1811 415.748,151.1811"/>
    <polygon points="453.5433,151.1811 453.5433,151.1811 453.5433,151.1811 453.5433,151.1811"/>
    <polygon points="491.3386,151.1811 491.3386,188.9764 529.1339,188.9764 529.1339,151.1811"/>
    <line x1="510.8612" x2="510.8612" y1="162.5787" y2="175.7037"/>
    <line x1="506.4862" x2="515.2362" y1="162.5787" y2="162.5787"/>
    <polygon points="529.1339,151.1811 529.1339,151.1811 529.1339,151.1811 529.1339,151.1811"/>
    <polygon points="566.9291,151.1811 566.9291,188.9764 604.7244,188.9764 604.7244,151.1811"/>
    <line x1="588.3268" x2="588.3268" y1="162.5787" y2="175.7037"/>
    <polygon points="604.7244,151.1811 604.7244,151.1811 604.7244,151.1811 604.7244,151.1811"/>
    <polygon points="642.5197,151.1811 642.5197,151.1811 642.5197,151.1811 642.5197,151.1811"/>
    <polygon points="680.315,151.1811 680.315,151.1811 680.315,151.1811 680.315,151.1811"/>
    <polygon points="718.1102,151.1811 718.1102,188.9764 755.9055,188.9764 755.9055,151.1811"/>
    <line x1="735.1329" x2="735.1329" y1="162.5787" y2="175.7037"/>
    <polyline points="735.1329,162.5787 740.7579,162.5787 742.6329,163.2037 743.2579,163.8287 743.8829,165.0787 743.8829,166.3287 743.2579,167.5787 742.6329,168.2037 740.7579,168.8287 735.1329,168.8287"/>
    <line x1="739.5079" x2="743.8829" y1="168.8287" y2="175.7037"/>
    <polygon points="755.9055,151.1811 755.9055,151.1811 755.9055,151.1811 755.9055,151.1811"/>
    <polygon points="0.0,188.9764 0.0,188.9764 0.0,188.9764 0.0,188.9764"/>
    <polygon points="37.7953,188.9764 37.7953,188.9764 37.7953,188.9764 37.7953,188.9764"/>
    <polygon points="75.5906,188.9764 75.5906,188.9764 75.5906,188.9764 75.5906,188.9764"/>
    <polygon points="113.3858,188.9764 113.3858,188.9764 113.3858,188.9764 113.3858,188.9764"/>
    <polygon points="151.1811,188.9764 151.1811,188.9764 151.1811,188.9764 151.1811,188.9764"/>
    <polygon points="188.9764,188.9764 188.9764,226.7717 226.7717,226.7717 226.7717,188.9764"/>
    <line x1="206.3115" x2="206.3115" y1="200.374" y2="213.499"/>
    <line x1="206.3115" x2="214.4365" y1="200.374" y2="200.374"/>
    <line x1="206.3115" x2="211.3115" y1="206.624" y2="206.624"/>
    <line x1="206.3115" x2="214.4365" y1="213.499" y2="213.499"/>
    <polygon points="226.7717,188.9764 226.7717,188.9764 226.7717,188.9764 226.7717,188.9764"/>
    <polygon points="264.5669,188.9764 264.5669,226.7717 302.3622,226.7717 302.3622,188.9764"/>
    <polygon points="284.0896,200.374 282.8396,200.999 281.5896,202.249 280.9646,203.499 280.3396,205.374 280.3396,208.499 280.9646,210.374 281.5896,211.624 282.8396,212.874 284.0896,213.499 286.5896,213.499 287.8396,212.874 289.0896,211.624 289.7146,210.374 290.3396,208.499 290.3396,205.374 289.7146,203.499 289.0896,202.249 287.8396,200.999 286.5896,200.374"/>
    <polygon points="302.3622,188.9764 302.3622,188.9764 302.3622,188.9764 302.3622,188.9764"/>
    <polygon points="340.1575,188.9764 340.1575,226.7717 377.9528,226.7717 377.9528,188.9764"/>
    <polyline points="343.5472,192.6457 344.0472,192.3957 344.7972,191.6457 344.7972,196.8957"/>
    <polyline points="348.2972,191.6457 351.0472,191.6457 349.5472,193.6457 350.2972,193.6457 350.7972,193.8957 351.0472,194.1457 351.2972,194.8957 351.2972,195.3957 351.0472,196.1457 350.5472,196.6457 349.7972,196.8957 349.0472,196.8957 348.2972,196.6457 348.0472,196.3957 347.7972,195.8957"/>
    <line x1="357.4926" x2="357.4926" y1="200.374" y2="213.499"/>
    <line x1="357.4926" x2="365.6176" y1="200.374" y2="200.374"/>
    <line x1="357.4926" x2="362.4926" y1="206.624" y2="206.624"/>
    <polygon points="377.9528,188.9764 377.9528,226.7717 415.748,226.7717 415.748,188.9764"/>
    <line x1="399.3504" x2="399.3504" y1="200.374" y2="213.499"/>
    <polygon points="415.748,188.9764 415.748,226.7717 453.5433,226.7717 453.5433,188.9764"/>
    <line x1="433.3957" x2="433.3957" y1="200.374" y2="213.499"/>
    <line x1="433.3957" x2="440.8957" y1="213.499" y2="213.499"/>
    <polygon points="453.5433,188.9764 453.5433,226.7717 491.3386,226.7717 491.3386,188.9764"/>
    <line x1="470.8784" x2="470.8784" y1="200.374" y2="213.499"/>
    <line x1="470.8784" x2="479.0034" y1="200.374" y2="200.374"/>
    <line x1="470.8784" x2="475.8784" y1="206.624" y2="206.624"/>
    <line x1="470.8784" x2="479.0034" y1="213.499" y2="213.499"/>
    <polygon points="491.3386,188.9764 491.3386,188.9764 491.3386,188.9764 491.3386,188.9764"/>
    <polygon points="529.1339,188.9764 529.1339,226.7717 566.9291,226.7717 566.9291,188.9764"/>
    <line x1="546.7815" x2="546.7815" y1="200.374" y2="213.499"/>
    <line x1="546.7815" x2="554.2815" y1="213.499" y2="213.499"/>
    <polygon points="566.9291,188.9764 566.9291,226.7717 604.7244,226.7717 604.7244,188.9764"/>
    <polyline points="570.3189,192.6457 570.8189,192.3957 571.5689,191.6457 571.5689,196.8957"/>
    <polyline points="577.0689,191.6457 574.5689,195.1457 578.3189,195.1457"/>
    <line x1="577.0689" x2="577.0689" y1="191.6457" y2="196.8957"/>
    <line x1="583.9518" x2="583.9518" y1="200.374" y2="213.499"/>
    <polyline points="583.9518,200.374 589.5768,200.374 591.4518,200.999 592.0768,201.624 592.7018,202.874 592.7018,204.124 592.0768,205.374 591.4518,205.999 589.5768,206.624 583.9518,206.624"/>
    <line x1="588.3268" x2="592.7018" y1="206.624" y2="213.499"/>
    <polygon points="604.7244,188.9764 604.7244,226.7717 642.5197,226.7717 642.5197,188.9764"/>
    <line x1="622.0595" x2="622.0595" y1="200.374" y2="213.499"/>
    <line x1="622.0595" x2="630.1845" y1="200.374" y2="200.374"/>
    <line x1="622.0595" x2="627.0595" y1="206.624" y2="206.624"/>
    <line x1="622.0595" x2="630.1845" y1="213.499" y2="213.499"/>
    <polygon points="642.5197,188.9764 642.5197,226.7717 680.315,226.7717 680.315,188.9764"/>
    <polyline points="667.6673,202.249 666.4173,200.999 664.5423,200.374 662.0423,200.374 660.1673,200.999 658.9173,202.249 658.9173,203.499 659.5423,204.749 660.1673,205.374 661.4173,205.999 665.1673,207.249 666.4173,207.874 667.0423,208.499 667.6673,209.749 667.6673,211.624 666.4173,212.874 664.5423,213.499 662.0423,213.499 660.1673,212.874 658.9173,211.624"/>
    <polygon points="680.315,188.9764 680.315,226.7717 718.1102,226.7717 718.1102,188.9764"/>
    <line x1="699.8376" x2="699.8376" y1="200.374" y2="213.499"/>
    <line x1="695.4626" x2="704.2126" y1="200.374" y2="200.374"/>
    <polygon points="718.1102,188.9764 718.1102,226.7717 755.9055,226.7717 755.9055,188.9764"/>
    <polyline points="741.3829,200.374 741.3829,210.374 740.7579,212.249 740.1329,212.874 738.8829,213.499 737.6329,213.499 736.3829,212.874 735.7579,212.249 735.1329,210.374 735.1329,209.124"/>
    <polygon points="755.9055,188.9764 755.9055,226.7717 793.7008,226.7717 793.7008,188.9764"/>
    <line x1="773.2406" x2="773.2406" y1="200.374" y2="213.499"/>
    <line x1="773.2406" x2="781.3656" y1="200.374" y2="200.374"/>
    <line x1="773.2406" x2="778.2406" y1="206.624" y2="206.624"/>
    <line x1="773.2406" x2="781.3656" y1="213.499" y2="213.499"/>
    <polygon points="0.0,226.7717 0.0,264.5669 37.7953,264.5669 37.7953,226.7717"/>
    <polyline points="25.1476,240.0443 23.8976,238.7943 22.0226,238.1693 19.5226,238.1693 17.6476,238.7943 16.3976,240.0443 16.3976,241.2943 17.0226,242.5443 17.6476,243.1693 18.8976,243.7943 22.6476,245.0443 23.8976,245.6693 24.5226,246.2943 25.1476,247.5443 25.1476,249.4193 23.8976,250.6693 22.0226,251.2943 19.5226,251.2943 17.6476,250.6693 16.3976,249.4193"/>
    <polygon points="37.7953,226.7717 37.7953,226.7717 37.7953,226.7717 37.7953,226.7717"/>
    <polygon points="75.5906,226.7717 75.5906,226.7717 75.5906,226.7717 75.5906,226.7717"/>
    <polygon points="113.3858,226.7717 113.3858,226.7717 113.3858,226.7717 113.3858,226.7717"/>
    <polygon points="151.1811,226.7717 151.1811,264.5669 188.9764,264.5669 188.9764,226.7717"/>
    <line x1="168.2037" x2="168.2037" y1="238.1693" y2="251.2943"/>
    <line x1="176.9537" x2="168.2037" y1="238.1693" y2="246.9193"/>
    <line x1="171.3287" x2="176.9537" y1="243.7943" y2="251.2943"/>
    <polygon points="188.9764,226.7717 188.9764,226.7717 188.9764,226.7717 188.9764,226.7717"/>
    <polygon points="226.7717,226.7717 226.7717,264.5669 264.5669,264.5669 264.5669,226.7717"/>
    <polyline points="243.7943,238.1693 243.7943,247.5443 244.4193,249.4193 245.6693,250.6693 247.5443,251.2943 248.7943,251.2943 250.6693,250.6693 251.9193,249.4193 252.5443,247.5443 252.5443,238.1693"/>
    <polygon points="264.5669,226.7717 264.5669,226.7717 264.5669,226.7717 264.5669,226.7717"/>
    <polygon points="302.3622,226.7717 302.3622,264.5669 340.1575,264.5669 340.1575,226.7717"/>
    <polygon points="321.8848,238.1693 320.6348,238.7943 319.3848,240.0443 318.7598,241.2943 318.1348,243.1693 318.1348,246.2943 318.7598,248.1693 319.3848,249.4193 320.6348,250.6693 321.8848,251.2943 324.3848,251.2943 325.6348,250.6693 326.8848,249.4193 327.5098,248.1693 328.1348,246.2943 328.1348,243.1693 327.5098,241.2943 326.8848,240.0443 325.6348,238.7943 324.3848,238.1693"/>
    <polygon points="340.1575,226.7717 340.1575,226.7717 340.1575,226.7717 340.1575,226.7717"/>
    <polygon points="377.9528,226.7717 377.9528,226.7717 377.9528,226.7717 377.9528,226.7717"/>
    <polygon points="415.748,226.7717 415.748,264.5669 453.5433,264.5669 453.5433,226.7717"/>
    <line x1="432.7707" x2="432.7707" y1="238.1693" y2="251.2943"/>
    <polyline points="432.7707,238.1693 438.3957,238.1693 440.2707,238.7943 440.8957,239.4193 441.5207,240.6693 441.5207,241.9193 440.8957,243.1693 440.2707,243.7943 438.3957,244.4193 432.7707,244.4193"/>
    <line x1="437.1457" x2="441.5207" y1="244.4193" y2="251.2943"/>
    <polygon points="453.5433,226.7717 453.5433,226.7717 453.5433,226.7717 453.5433,226.7717"/>
    <polygon points="491.3386,226.7717 491.3386,264.5669 529.1339,264.5669 529.1339,226.7717"/>
    <line x1="508.3612" x2="508.3612" y1="238.1693" y2="251.2943"/>
    <line x1="517.1112" x2="508.3612" y1="238.1693" y2="246.9193"/>
    <line x1="511.4862" x2="517.1112" y1="243.7943" y2="251.2943"/>
    <polygon points="529.1339,226.7717 529.1339,226.7717 529.1339,226.7717 529.1339,226.7717"/>
    <polygon points="566.9291,226.7717 566.9291,226.7717 566.9291,226.7717 566.9291,226.7717"/>
    <polygon points="604.7244,226.7717 604.7244,226.7717 604.7244,226.7717 604.7244,226.7717"/>
    <polygon points="642.5197,226.7717 642.5197,264.5669 680.315,264.5669 680.315,226.7717"/>
    <polyline points="665.7923,238.1693 665.7923,248.1693 665.1673,250.0443 664.5423,250.6693 663.2923,251.2943 662.0423,251.2943 660.7923,250.6693 660.1673,250.0443 659.5423,248.1693 659.5423,246.9193"/>
    <polygon points="680.315,226.7717 680.315,226.7717 680.315,226.7717 680.315,226.7717"/>
    <polygon points="718.1102,226.7717 718.1102,226.7717 718.1102,226.7717 718.1102,226.7717"/>
    <polygon points="755.9055,226.7717 755.9055,226.7717 755.9055,226.7717 755.9055,226.7717"/>
    <polygon points="0.0,264.5669 0.0,302.3622 37.7953,302.3622 37.7953,264.5669"/>
    <polyline points="3.3898,268.2362 3.8898,267.9862 4.6398,267.2362 4.6398,272.4862"/>
    <polyline points="10.6398,267.2362 8.1398,267.2362 7.8898,269.4862 8.1398,269.2362 8.8898,268.9862 9.6398,268.9862 10.3898,269.2362 10.8898,269.7362 11.1398,270.4862 11.1398,270.9862 10.8898,271.7362 10.3898,272.2362 9.6398,272.4862 8.8898,272.4862 8.1398,272.2362 7.8898,271.9862 7.6398,271.4862"/>
    <polyline points="25.4601,279.0896 24.8351,277.8396 23.5851,276.5896 22.3351,275.9646 19.8351,275.9646 18.5851,276.5896 17.3351,277.8396 16.7101,279.0896 16.0851,280.9646 16.0851,284.0896 16.7101,285.9646 17.3351,287.2146 18.5851,288.4646 19.8351,289.0896 22.3351,289.0896 23.5851,288.4646 24.8351,287.2146 25.4601,285.9646 25.4601,284.0896"/>
    <line x1="22.3351" x2="25.4601" y1="284.0896" y2="284.0896"/>
    <polygon points="37.7953,264.5669 37.7953,302.3622 75.5906,302.3622 75.5906,264.5669"/>
    <line x1="54.8179" x2="54.8179" y1="275.9646" y2="289.0896"/>
    <polyline points="54.8179,275.9646 60.4429,275.9646 62.3179,276.5896 62.9429,277.2146 63.5679,278.4646 63.5679,279.7146 62.9429,280.9646 62.3179,281.5896 60.4429,282.2146 54.8179,282.2146"/>
    <line x1="59.1929" x2="63.5679" y1="282.2146" y2="289.0896"/>
    <polygon points="75.5906,264.5669 75.5906,302.3622 113.3858,302.3622 113.3858,264.5669"/>
    <polygon points="95.1132,275.9646 93.8632,276.5896 92.6132,277.8396 91.9882,279.0896 91.3632,280.9646 91.3632,284.0896 91.9882,285.9646 92.6132,287.2146 93.8632,288.4646 95.1132,289.0896 97.6132,289.0896 98.8632,288.4646 100.1132,287.2146 100.7382,285.9646 101.3632,284.0896 101.3632,280.9646 100.7382,279.0896 100.1132,277.8396 98.8632,276.5896 97.6132,275.9646"/>
    <polygon points="113.3858,264.5669 113.3858,302.3622 151.1811,302.3622 151.1811,264.5669"/>
    <line x1="130.721" x2="130.721" y1="275.9646" y2="289.0896"/>
    <line x1="130.721" x2="138.846" y1="275.9646" y2="275.9646"/>
    <line x1="130.721" x2="135.721" y1="282.2146" y2="282.2146"/>
    <line x1="130.721" x2="138.846" y1="289.0896" y2="289.0896"/>
    <polygon points="151.1811,264.5669 151.1811,302.3622 188.9764,302.3622 188.9764,264.5669"/>
    <line x1="168.2037" x2="168.2037" y1="275.9646" y2="289.0896"/>
    <polyline points="168.2037,275.9646 173.8287,275.9646 175.7037,276.5896 176.3287,277.2146 176.9537,278.4646 176.9537,280.3396 176.3287,281.5896 175.7037,282.2146 173.8287,282.8396 168.2037,282.8396"/>
    <polygon points="188.9764,264.5669 188.9764,302.3622 226.7717,302.3622 226.7717,264.5669"/>
    <polyline points="214.124,277.8396 212.874,276.5896 210.999,275.9646 208.499,275.9646 206.624,276.5896 205.374,277.8396 205.374,279.0896 205.999,280.3396 206.624,280.9646 207.874,281.5896 211.624,282.8396 212.874,283.4646 213.499,284.0896 214.124,285.3396 214.124,287.2146 212.874,288.4646 210.999,289.0896 208.499,289.0896 206.624,288.4646 205.374,287.2146"/>
    <polygon points="226.7717,264.5669 226.7717,302.3622 264.5669,302.3622 264.5669,264.5669"/>
    <line x1="244.1068" x2="244.1068" y1="275.9646" y2="289.0896"/>
    <line x1="244.1068" x2="252.2318" y1="275.9646" y2="275.9646"/>
    <line x1="244.1068" x2="249.1068" y1="282.2146" y2="282.2146"/>
    <polygon points="264.5669,264.5669 264.5669,302.3622 302.3622,302.3622 302.3622,264.5669"/>
    <polygon points="284.0896,275.9646 282.8396,276.5896 281.5896,277.8396 280.9646,279.0896 280.3396,280.9646 280.3396,284.0896 280.9646,285.9646 281.5896,287.2146 282.8396,288.4646 284.0896,289.0896 286.5896,289.0896 287.8396,288.4646 289.0896,287.2146 289.7146,285.9646 290.3396,284.0896 290.3396,280.9646 289.7146,279.0896 289.0896,277.8396 287.8396,276.5896 286.5896,275.9646"/>
    <polygon points="302.3622,264.5669 302.3622,302.3622 340.1575,302.3622 340.1575,264.5669"/>
    <line x1="321.8848" x2="321.8848" y1="275.9646" y2="289.0896"/>
    <line x1="317.5098" x2="326.2598" y1="275.9646" y2="275.9646"/>
    <polygon points="340.1575,264.5669 340.1575,302.3622 377.9528,302.3622 377.9528,264.5669"/>
    <polygon points="359.6801,275.9646 358.4301,276.5896 357.1801,277.8396 356.5551,279.0896 355.9301,280.9646 355.9301,284.0896 356.5551,285.9646 357.1801,287.2146 358.4301,288.4646 359.6801,289.0896 362.1801,289.0896 363.4301,288.4646 364.6801,287.2146 365.3051,285.9646 365.9301,284.0896 365.9301,280.9646 365.3051,279.0896 364.6801,277.8396 363.4301,276.5896 362.1801,275.9646"/>
    <polygon points="377.9528,264.5669 377.9528,264.5669 377.9528,264.5669 377.9528,264.5669"/>
    <polygon points="415.748,264.5669 415.748,264.5669 415.748,264.5669 415.748,264.5669"/>
    <polygon points="453.5433,264.5669 453.5433,302.3622 491.3386,302.3622 491.3386,264.5669"/>
    <line x1="470.8784" x2="470.8784" y1="275.9646" y2="289.0896"/>
    <line x1="470.8784" x2="479.0034" y1="275.9646" y2="275.9646"/>
    <line x1="470.8784" x2="475.8784" y1="282.2146" y2="282.2146"/>
    <line x1="470.8784" x2="479.0034" y1="289.0896" y2="289.0896"/>
    <polygon points="491.3386,264.5669 491.3386,264.5669 491.3386,264.5669 491.3386,264.5669"/>
    <polygon points="529.1339,264.5669 529.1339,302.3622 566.9291,302.3622 566.9291,264.5669"/>
    <polyline points="532.5236,268.2362 533.0236,267.9862 533.7736,267.2362 533.7736,272.4862"/>
    <polyline points="540.0236,267.9862 539.7736,267.4862 539.0236,267.2362 538.5236,267.2362 537.7736,267.4862 537.2736,268.2362 537.0236,269.4862 537.0236,270.7362 537.2736,271.7362 537.7736,272.2362 538.5236,272.4862 538.7736,272.4862 539.5236,272.2362 540.0236,271.7362 540.2736,270.9862 540.2736,270.7362 540.0236,269.9862 539.5236,269.4862 538.7736,269.2362 538.5236,269.2362 537.7736,269.4862 537.2736,269.9862 537.0236,270.7362"/>
    <line x1="546.1565" x2="546.1565" y1="275.9646" y2="289.0896"/>
    <line x1="554.9065" x2="546.1565" y1="275.9646" y2="284.7146"/>
    <line x1="549.2815" x2="554.9065" y1="281.5896" y2="289.0896"/>
    <polygon points="566.9291,264.5669 566.9291,302.3622 604.7244,302.3622 604.7244,264.5669"/>
    <line x1="588.3268" x2="588.3268" y1="275.9646" y2="289.0896"/>
    <polygon points="604.7244,264.5669 604.7244,302.3622 642.5197,302.3622 642.5197,264.5669"/>
    <line x1="622.0595" x2="622.0595" y1="275.9646" y2="289.0896"/>
    <line x1="622.0595" x2="630.1845" y1="275.9646" y2="275.9646"/>
    <line x1="622.0595" x2="627.0595" y1="282.2146" y2="282.2146"/>
    <line x1="622.0595" x2="630.1845" y1="289.0896" y2="289.0896"/>
    <polygon points="642.5197,264.5669 642.5197,302.3622 680.315,302.3622 680.315,264.5669"/>
    <line x1="658.9173" x2="658.9173" y1="275.9646" y2="289.0896"/>
    <line x1="658.9173" x2="663.9173" y1="275.9646" y2="289.0896"/>
    <line x1="668.9173" x2="663.9173" y1="275.9646" y2="289.0896"/>
    <line x1="668.9173" x2="668.9173" y1="275.9646" y2="289.0896"/>
    <polygon points="680.315,264.5669 680.315,302.3622 718.1102,302.3622 718.1102,264.5669"/>
    <line x1="697.6501" x2="697.6501" y1="275.9646" y2="289.0896"/>
    <line x1="697.6501" x2="705.7751" y1="275.9646" y2="275.9646"/>
    <line x1="697.6501" x2="702.6501" y1="282.2146" y2="282.2146"/>
    <line x1="697.6501" x2="705.7751" y1="289.0896" y2="289.0896"/>
    <polygon points="718.1102,264.5669 718.1102,302.3622 755.9055,302.3622 755.9055,264.5669"/>
    <line x1="735.1329" x2="735.1329" y1="275.9646" y2="289.0896"/>
    <line x1="735.1329" x2="743.8829" y1="275.9646" y2="289.0896"/>
    <line x1="743.8829" x2="743.8829" y1="275.9646" y2="289.0896"/>
    <polygon points="755.9055,264.5669 755.9055,264.5669 755.9055,264.5669 755.9055,264.5669"/>
    <polygon points="0.0,302.3622 0.0,302.3622 0.0,302.3622 0.0,302.3622"/>
    <polygon points="37.7953,302.3622 37.7953,302.3622 37.7953,302.3622 37.7953,302.3622"/>
    <polygon points="75.5906,302.3622 75.5906,302.3622 75.5906,302.3622 75.5906,302.3622"/>
    <polygon points="113.3858,302.3622 113.3858,302.3622 113.3858,302.3622 113.3858,302.3622"/>
    <polygon points="151.1811,302.3622 151.1811,302.3622 151.1811,302.3622 151.1811,302.3622"/>
    <polygon points="188.9764,302.3622 188.9764,302.3622 188.9764,302.3622 188.9764,302.3622"/>
    <polygon points="226.7717,302.3622 226.7717,340.1575 264.5669,340.1575 264.5669,302.3622"/>
    <line x1="243.7943" x2="243.7943" y1="313.7598" y2="326.8848"/>
    <line x1="243.7943" x2="252.5443" y1="313.7598" y2="326.8848"/>
    <line x1="252.5443" x2="252.5443" y1="313.7598" y2="326.8848"/>
    <polygon points="264.5669,302.3622 264.5669,302.3622 264.5669,302.3622 264.5669,302.3622"/>
    <polygon points="302.3622,302.3622 302.3622,302.3622 302.3622,302.3622 302.3622,302.3622"/>
    <polygon points="340.1575,302.3622 340.1575,302.3622 340.1575,302.3622 340.1575,302.3622"/>
    <polygon points="377.9528,302.3622 377.9528,302.3622 377.9528,302.3622 377.9528,302.3622"/>
    <polygon points="415.748,302.3622 415.748,302.3622 415.748,302.3622 415.748,302.3622"/>
    <polygon points="453.5433,302.3622 453.5433,302.3622 453.5433,302.3622 453.5433,302.3622"/>
    <polygon points="491.3386,302.3622 491.3386,302.3622 491.3386,302.3622 491.3386,302.3622"/>
    <polygon points="529.1339,302.3622 529.1339,302.3622 529.1339,302.3622 529.1339,302.3622"/>
    <polygon points="566.9291,302.3622 566.9291,302.3622 566.9291,302.3622 566.9291,302.3622"/>
    <polygon points="604.7244,302.3622 604.7244,302.3622 604.7244,302.3622 604.7244,302.3622"/>
    <polygon points="642.5197,302.3622 642.5197,302.3622 642.5197,302.3622 642.5197,302.3622"/>
    <polygon points="680.315,302.3622 680.315,302.3622 680.315,302.3622 680.315,302.3622"/>
    <polygon points="718.1102,302.3622 718.1102,302.3622 718.1102,302.3622 718.1102,302.3622"/>
    <polygon points="755.9055,302.3622 755.9055,302.3622 755.9055,302.3622 755.9055,302.3622"/>
  </g>
</svg>
