<?xml version="1.0" encoding="utf-8" ?>
<svg xmlns="http://www.w3.org/2000/svg" xmlns:cc="http://creativecommons.org/ns" xmlns:dc="http://purl.org/dc/elements/1.1/" xmlns:ev="http://www.w3.org/2001/xml-events" xmlns:inkscape="http://www.inkscape.org/namespaces/inkscape" xmlns:rdf="http://www.w3.org/1999/02/22-rdf-syntax-ns" xmlns:sodipodi="http://sodipodi.sourceforge.net/DTD/sodipodi-0.dtd" xmlns:xlink="http://www.w3.org/1999/xlink" baseProfile="tiny" height="9.9cm" version="1.2" viewBox="0 0 793.7007874015749 374.1732283464567" width="21.0cm">
  <metadata>
    <rdf:RDF>
      <cc:Work>
        <dc:format>image/svg+xml</dc:format>
        <dc:source>vpype eval 'cell=10;width=210;height=99' eval 'nCols=20;nRows=9' eval 'cells=[3,4,5,6,8,11,17,19,21,23,28,31,34,37,39,40,41,42,43,44,45,46,47,48,50,51,54,57,59,61,63,68,71,73,74,75,76,77,78,79,81,82,83,84,85,87,88,89,90,91,92,94,97,99,101,108,111,114,119,121,122,123,124,125,126,127,128,131,132,133,134,135,136,137,138,148,151,154,161,162,163,164,165,166,167,168,170,171,172,173,174,175,176,177,178]' eval 'chars=[&quot;S&quot;,&quot;T&quot;,&quot;E&quot;,&quot;R&quot;,&quot;M&quot;,&quot;K&quot;,&quot;G&quot;,&quot;L&quot;,&quot;D&quot;,&quot;I&quot;,&quot;A&quot;,&quot;L&quot;,&quot;S&quot;,&quot;R&quot;,&quot;A&quot;,&quot;U&quot;,&quot;I&quot;,&quot;T&quot;,&quot;L&quot;,&quot;I&quot;,&quot;K&quot;,&quot;K&quot;,&quot;E&quot;,&quot;N&quot;,&quot;J&quot;,&quot;A&quot;,&quot;K&quot;,&quot;O&quot;,&quot;K&quot;,&quot;E&quot;,&quot;K&quot;,&quot;D&quot;,&quot;V&quot;,&quot;V&quot;,&quot;E&quot;,&quot;L&quot;,&quot;L&quot;,&quot;E&quot;,&quot;K&quot;,&quot;E&quot;,&quot;T&quot;,&quot;R&quot;,&quot;E&quot;,&quot;I&quot;,&quot;N&quot;,&quot;L&quot;,&quot;A&quot;,&quot;D&quot;,&quot;D&quot;,&quot;E&quot;,&quot;R&quot;,&quot;L&quot;,&quot;N&quot;,&quot;N&quot;,&quot;E&quot;,&quot;R&quot;,&quot;R&quot;,&quot;L&quot;,&quot;S&quot;,&quot;R&quot;,&quot;E&quot;,&quot;G&quot;,&quot;E&quot;,&quot;N&quot;,&quot;B&quot;,&quot;U&quot;,&quot;I&quot;,&quot;T&quot;,&quot;E&quot;,&quot;L&quot;,&quot;E&quot;,&quot;F&quot;,&quot;O&quot;,&quot;O&quot;,&quot;N&quot;,&quot;J&quot;,&quot;J&quot;,&quot;K&quot;,&quot;P&quot;,&quot;A&quot;,&quot;R&quot;,&quot;K&quot;,&quot;E&quot;,&quot;R&quot;,&quot;E&quot;,&quot;N&quot;,&quot;R&quot;,&quot;E&quot;,&quot;K&quot;,&quot;K&quot;,&quot;E&quot;,&quot;R&quot;,&quot;T&quot;,&quot;J&quot;,&quot;E&quot;]' eval 'numbers=[3,8,11,17,19,21,34,40,50,73,81,87,121,131,161,170]' eval counter=1 eval charIndex=0 begin grid -o '%cell*mm%' '%cell*mm%' %nCols% %nRows% eval '%isCell=_i in cells%' eval '%number=_i in numbers%' eval '%size=10 if isCell else 0%' rect 0 0 '%size*mm%' '%size*mm%' text -s 10 -p 0.5mm 1.5mm '%counter if number else '&quot;'&quot;''&quot;'&quot;'%' text -s 20 -p 5mm 5mm -a center '%chars[charIndex] if isCell else '&quot;'&quot;''&quot;'&quot;'%' eval '%if number: counter+=1 %' eval '%if isCell: charIndex+=1 %' end splitall deduplicate linemerge --tolerance 0.1mm write -m none --page-size '%width*mm%x%height*mm%' --center ./svgs/solution/5ef2a8.svg
</dc:source>
        <dc:date>2023-12-23T07:44:50.953736</dc:date>
      </cc:Work>
    </rdf:RDF>
  </metadata>
  <defs/>
  <g fill="none" id="layer1" inkscape:groupmode="layer" inkscape:label="1" stroke="#000000" style="display:inline">
    <polygon points="132.2835,17.0079 132.2835,54.8031 132.2835,54.8031 132.2835,92.5984 132.2835,92.5984 94.4882,92.5984 94.4882,92.5984 94.4882,54.8031 94.4882,54.8031 56.6929,54.8031 56.6929,54.8031 56.6929,92.5984 56.6929,92.5984 94.4882,92.5984 94.4882,92.5984 94.4882,130.3937 94.4882,130.3937 132.2835,130.3937 132.2835,130.3937 132.2835,168.189 132.2835,168.189 170.0787,168.189 170.0787,168.189 170.0787,130.3937 170.0787,130.3937 207.874,130.3937 207.874,130.3937 245.6693,130.3937 245.6693,130.3937 245.6693,92.5984 245.6693,92.5984 207.874,92.5984 207.874,92.5984 170.0787,92.5984 170.0787,92.5984 170.0787,54.8031 170.0787,54.8031 207.874,54.8031 207.874,54.8031 245.6693,54.8031 245.6693,54.8031 245.6693,17.0079 245.6693,17.0079 207.874,17.0079 207.874,17.0079 170.0787,17.0079 170.0787,17.0079"/>
    <polyline points="132.2835,54.8031 170.0787,54.8031 170.0787,54.8031 170.0787,17.0079"/>
    <polyline points="136.0482,20.1772 136.6732,19.8647 136.6732,19.8647 137.6107,18.9272 137.6107,18.9272 137.6107,25.4897"/>
    <polyline points="157.4311,30.2805 156.1811,29.0305 156.1811,29.0305 154.3061,28.4055 154.3061,28.4055 151.8061,28.4055 151.8061,28.4055 149.9311,29.0305 149.9311,29.0305 148.6811,30.2805 148.6811,30.2805 148.6811,31.5305 148.6811,31.5305 149.3061,32.7805 149.3061,32.7805 149.9311,33.4055 149.9311,33.4055 151.1811,34.0305 151.1811,34.0305 154.9311,35.2805 154.9311,35.2805 156.1811,35.9055 156.1811,35.9055 156.8061,36.5305 156.8061,36.5305 157.4311,37.7805 157.4311,37.7805 157.4311,39.6555 157.4311,39.6555 156.1811,40.9055 156.1811,40.9055 154.3061,41.5305 154.3061,41.5305 151.8061,41.5305 151.8061,41.5305 149.9311,40.9055 149.9311,40.9055 148.6811,39.6555"/>
    <line x1="207.874" x2="207.874" y1="54.8031" y2="17.0079"/>
    <line x1="189.6014" x2="189.6014" y1="28.4055" y2="41.5305"/>
    <line x1="185.2264" x2="193.9764" y1="28.4055" y2="28.4055"/>
    <polyline points="233.3342,28.4055 225.2092,28.4055 225.2092,28.4055 225.2092,41.5305 225.2092,41.5305 233.3342,41.5305"/>
    <line x1="225.2092" x2="230.2092" y1="34.6555" y2="34.6555"/>
    <polyline points="245.6693,54.8031 283.4646,54.8031 283.4646,54.8031 283.4646,17.0079 283.4646,17.0079 245.6693,17.0079"/>
    <polyline points="262.6919,34.6555 268.3169,34.6555 268.3169,34.6555 270.1919,34.0305 270.1919,34.0305 270.8169,33.4055 270.8169,33.4055 271.4419,32.1555 271.4419,32.1555 271.4419,30.9055 271.4419,30.9055 270.8169,29.6555 270.8169,29.6555 270.1919,29.0305 270.1919,29.0305 268.3169,28.4055 268.3169,28.4055 262.6919,28.4055 262.6919,28.4055 262.6919,41.5305"/>
    <line x1="267.0669" x2="271.4419" y1="34.6555" y2="41.5305"/>
    <polygon points="321.2598,17.0079 321.2598,54.8031 321.2598,54.8031 321.2598,92.5984 321.2598,92.5984 359.0551,92.5984 359.0551,92.5984 359.0551,54.8031 359.0551,54.8031 359.0551,17.0079 359.0551,17.0079"/>
    <line x1="321.2598" x2="359.0551" y1="54.8031" y2="54.8031"/>
    <polyline points="324.3996,20.4897 324.3996,20.1772 324.3996,20.1772 324.7121,19.5522 324.7121,19.5522 325.0246,19.2397 325.0246,19.2397 325.6496,18.9272 325.6496,18.9272 326.8996,18.9272 326.8996,18.9272 327.5246,19.2397 327.5246,19.2397 327.8371,19.5522 327.8371,19.5522 328.1496,20.1772 328.1496,20.1772 328.1496,20.8022 328.1496,20.8022 327.8371,21.4272 327.8371,21.4272 327.2121,22.3647 327.2121,22.3647 324.0871,25.4897 324.0871,25.4897 328.4621,25.4897"/>
    <polyline points="347.6575,41.5305 347.6575,28.4055 347.6575,28.4055 342.6575,41.5305 342.6575,41.5305 337.6575,28.4055 337.6575,28.4055 337.6575,41.5305"/>
    <polygon points="434.6457,17.0079 434.6457,54.8031 434.6457,54.8031 472.4409,54.8031 472.4409,54.8031 472.4409,17.0079 472.4409,17.0079"/>
    <polyline points="438.0979,18.9272 441.5354,18.9272 441.5354,18.9272 439.6604,21.4272 439.6604,21.4272 440.5979,21.4272 440.5979,21.4272 441.2229,21.7397 441.2229,21.7397 441.5354,22.0522 441.5354,22.0522 441.8479,22.9897 441.8479,22.9897 441.8479,23.6147 441.8479,23.6147 441.5354,24.5522 441.5354,24.5522 440.9104,25.1772 440.9104,25.1772 439.9729,25.4897 439.9729,25.4897 439.0354,25.4897 439.0354,25.4897 438.0979,25.1772 438.0979,25.1772 437.7854,24.8647 437.7854,24.8647 437.4729,24.2397"/>
    <line x1="451.6683" x2="451.6683" y1="28.4055" y2="41.5305"/>
    <line x1="460.4183" x2="451.6683" y1="28.4055" y2="37.1555"/>
    <line x1="454.7933" x2="460.4183" y1="34.0305" y2="41.5305"/>
    <polygon points="661.4173,17.0079 661.4173,54.8031 661.4173,54.8031 699.2126,54.8031 699.2126,54.8031 699.2126,17.0079 699.2126,17.0079"/>
    <polyline points="667.3696,25.4897 667.3696,18.9272 667.3696,18.9272 664.2446,23.3022 664.2446,23.3022 668.9321,23.3022"/>
    <polyline points="686.8775,31.5305 686.2525,30.2805 686.2525,30.2805 685.0025,29.0305 685.0025,29.0305 683.7525,28.4055 683.7525,28.4055 681.2525,28.4055 681.2525,28.4055 680.0025,29.0305 680.0025,29.0305 678.7525,30.2805 678.7525,30.2805 678.1275,31.5305 678.1275,31.5305 677.5025,33.4055 677.5025,33.4055 677.5025,36.5305 677.5025,36.5305 678.1275,38.4055 678.1275,38.4055 678.7525,39.6555 678.7525,39.6555 680.0025,40.9055 680.0025,40.9055 681.2525,41.5305 681.2525,41.5305 683.7525,41.5305 683.7525,41.5305 685.0025,40.9055 685.0025,40.9055 686.2525,39.6555 686.2525,39.6555 686.8775,38.4055 686.8775,38.4055 686.8775,36.5305 686.8775,36.5305 683.7525,36.5305"/>
    <polygon points="737.0079,17.0079 737.0079,54.8031 737.0079,54.8031 774.8031,54.8031 774.8031,54.8031 774.8031,17.0079 774.8031,17.0079"/>
    <polyline points="743.5851,18.9272 740.4601,18.9272 740.4601,18.9272 740.1476,21.7397 740.1476,21.7397 740.4601,21.4272 740.4601,21.4272 741.3976,21.1147 741.3976,21.1147 742.3351,21.1147 742.3351,21.1147 743.2726,21.4272 743.2726,21.4272 743.8976,22.0522 743.8976,22.0522 744.2101,22.9897 744.2101,22.9897 744.2101,23.6147 744.2101,23.6147 743.8976,24.5522 743.8976,24.5522 743.2726,25.1772 743.2726,25.1772 742.3351,25.4897 742.3351,25.4897 741.3976,25.4897 741.3976,25.4897 740.4601,25.1772 740.4601,25.1772 740.1476,24.8647 740.1476,24.8647 739.8351,24.2397"/>
    <polyline points="754.6555,28.4055 754.6555,41.5305 754.6555,41.5305 762.1555,41.5305"/>
    <polyline points="63.5827,57.6599 63.2702,57.0349 63.2702,57.0349 62.3327,56.7224 62.3327,56.7224 61.7077,56.7224 61.7077,56.7224 60.7702,57.0349 60.7702,57.0349 60.1452,57.9724 60.1452,57.9724 59.8327,59.5349 59.8327,59.5349 59.8327,61.0974 59.8327,61.0974 60.1452,62.3474 60.1452,62.3474 60.7702,62.9724 60.7702,62.9724 61.7077,63.2849 61.7077,63.2849 62.0202,63.2849 62.0202,63.2849 62.9577,62.9724 62.9577,62.9724 63.5827,62.3474 63.5827,62.3474 63.8952,61.4099 63.8952,61.4099 63.8952,61.0974 63.8952,61.0974 63.5827,60.1599 63.5827,60.1599 62.9577,59.5349 62.9577,59.5349 62.0202,59.2224 62.0202,59.2224 61.7077,59.2224 61.7077,59.2224 60.7702,59.5349 60.7702,59.5349 60.1452,60.1599 60.1452,60.1599 59.8327,61.0974"/>
    <polygon points="73.7156,66.2008 73.7156,79.3258 73.7156,79.3258 78.0906,79.3258 78.0906,79.3258 79.9656,78.7008 79.9656,78.7008 81.2156,77.4508 81.2156,77.4508 81.8406,76.2008 81.8406,76.2008 82.4656,74.3258 82.4656,74.3258 82.4656,71.2008 82.4656,71.2008 81.8406,69.3258 81.8406,69.3258 81.2156,68.0758 81.2156,68.0758 79.9656,66.8258 79.9656,66.8258 78.0906,66.2008 78.0906,66.2008"/>
    <polygon points="132.2835,92.5984 170.0787,92.5984 170.0787,92.5984 170.0787,130.3937 170.0787,130.3937 132.2835,130.3937 132.2835,130.3937"/>
    <line x1="153.6811" x2="153.6811" y1="66.2008" y2="79.3258"/>
    <polyline points="345.7825,79.3258 340.7825,66.2008 340.7825,66.2008 335.7825,79.3258"/>
    <line x1="337.6575" x2="343.9075" y1="74.9508" y2="74.9508"/>
    <polyline points="434.6457,54.8031 434.6457,92.5984 434.6457,92.5984 472.4409,92.5984 472.4409,92.5984 472.4409,54.8031"/>
    <polyline points="452.2933,66.2008 452.2933,79.3258 452.2933,79.3258 459.7933,79.3258"/>
    <polygon points="548.0315,54.8031 548.0315,92.5984 548.0315,92.5984 585.8268,92.5984 585.8268,92.5984 585.8268,54.8031 585.8268,54.8031"/>
    <polyline points="550.8588,56.7224 555.2338,56.7224 555.2338,56.7224 552.1088,63.2849"/>
    <polyline points="573.1791,68.0758 571.9291,66.8258 571.9291,66.8258 570.0541,66.2008 570.0541,66.2008 567.5541,66.2008 567.5541,66.2008 565.6791,66.8258 565.6791,66.8258 564.4291,68.0758 564.4291,68.0758 564.4291,69.3258 564.4291,69.3258 565.0541,70.5758 565.0541,70.5758 565.6791,71.2008 565.6791,71.2008 566.9291,71.8258 566.9291,71.8258 570.6791,73.0758 570.6791,73.0758 571.9291,73.7008 571.9291,73.7008 572.5541,74.3258 572.5541,74.3258 573.1791,75.5758 573.1791,75.5758 573.1791,77.4508 573.1791,77.4508 571.9291,78.7008 571.9291,78.7008 570.0541,79.3258 570.0541,79.3258 567.5541,79.3258 567.5541,79.3258 565.6791,78.7008 565.6791,78.7008 564.4291,77.4508"/>
    <polyline points="661.4173,54.8031 661.4173,92.5984 661.4173,92.5984 661.4173,130.3937 661.4173,130.3937 623.622,130.3937 623.622,130.3937 585.8268,130.3937 585.8268,130.3937 585.8268,92.5984"/>
    <polyline points="661.4173,92.5984 699.2126,92.5984 699.2126,92.5984 699.2126,54.8031"/>
    <polyline points="678.44,72.4508 684.065,72.4508 684.065,72.4508 685.94,71.8258 685.94,71.8258 686.565,71.2008 686.565,71.2008 687.19,69.9508 687.19,69.9508 687.19,68.7008 687.19,68.7008 686.565,67.4508 686.565,67.4508 685.94,66.8258 685.94,66.8258 684.065,66.2008 684.065,66.2008 678.44,66.2008 678.44,66.2008 678.44,79.3258"/>
    <line x1="682.815" x2="687.19" y1="72.4508" y2="79.3258"/>
    <polyline points="737.0079,54.8031 737.0079,92.5984 737.0079,92.5984 774.8031,92.5984 774.8031,92.5984 774.8031,54.8031"/>
    <polyline points="761.5305,79.3258 756.5305,66.2008 756.5305,66.2008 751.5305,79.3258"/>
    <line x1="753.4055" x2="759.6555" y1="74.9508" y2="74.9508"/>
    <polygon points="18.8976,92.5984 18.8976,130.3937 18.8976,130.3937 56.6929,130.3937 56.6929,130.3937 56.6929,168.189 56.6929,168.189 56.6929,205.9843 56.6929,205.9843 56.6929,243.7795 56.6929,243.7795 94.4882,243.7795 94.4882,243.7795 94.4882,205.9843 94.4882,205.9843 94.4882,168.189 94.4882,168.189 94.4882,130.3937 94.4882,130.3937 56.6929,130.3937 56.6929,130.3937 56.6929,92.5984 56.6929,92.5984"/>
    <polygon points="23.2874,94.5177 22.3499,94.8302 22.3499,94.8302 22.0374,95.4552 22.0374,95.4552 22.0374,96.0802 22.0374,96.0802 22.3499,96.7052 22.3499,96.7052 22.9749,97.0177 22.9749,97.0177 24.2249,97.3302 24.2249,97.3302 25.1624,97.6427 25.1624,97.6427 25.7874,98.2677 25.7874,98.2677 26.0999,98.8927 26.0999,98.8927 26.0999,99.8302 26.0999,99.8302 25.7874,100.4552 25.7874,100.4552 25.4749,100.7677 25.4749,100.7677 24.5374,101.0802 24.5374,101.0802 23.2874,101.0802 23.2874,101.0802 22.3499,100.7677 22.3499,100.7677 22.0374,100.4552 22.0374,100.4552 21.7249,99.8302 21.7249,99.8302 21.7249,98.8927 21.7249,98.8927 22.0374,98.2677 22.0374,98.2677 22.6624,97.6427 22.6624,97.6427 23.5999,97.3302 23.5999,97.3302 24.8499,97.0177 24.8499,97.0177 25.4749,96.7052 25.4749,96.7052 25.7874,96.0802 25.7874,96.0802 25.7874,95.4552 25.7874,95.4552 25.4749,94.8302 25.4749,94.8302 24.5374,94.5177 24.5374,94.5177"/>
    <polyline points="35.9203,103.9961 35.9203,113.3711 35.9203,113.3711 36.5453,115.2461 36.5453,115.2461 37.7953,116.4961 37.7953,116.4961 39.6703,117.1211 39.6703,117.1211 40.9203,117.1211 40.9203,117.1211 42.7953,116.4961 42.7953,116.4961 44.0453,115.2461 44.0453,115.2461 44.6703,113.3711 44.6703,113.3711 44.6703,103.9961"/>
    <line x1="78.0906" x2="78.0906" y1="103.9961" y2="117.1211"/>
    <line x1="114.0108" x2="114.0108" y1="103.9961" y2="117.1211"/>
    <line x1="109.6358" x2="118.3858" y1="103.9961" y2="103.9961"/>
    <polyline points="149.9311,103.9961 149.9311,117.1211 149.9311,117.1211 157.4311,117.1211"/>
    <line x1="207.874" x2="207.874" y1="130.3937" y2="92.5984"/>
    <line x1="191.4764" x2="191.4764" y1="103.9961" y2="117.1211"/>
    <line x1="224.8967" x2="224.8967" y1="103.9961" y2="117.1211"/>
    <line x1="233.6467" x2="224.8967" y1="103.9961" y2="112.7461"/>
    <line x1="228.0217" x2="233.6467" y1="109.6211" y2="117.1211"/>
    <polyline points="245.6693,130.3937 283.4646,130.3937 283.4646,130.3937 321.2598,130.3937 321.2598,130.3937 321.2598,92.5984 321.2598,92.5984 283.4646,92.5984 283.4646,92.5984 245.6693,92.5984"/>
    <line x1="283.4646" x2="283.4646" y1="130.3937" y2="92.5984"/>
    <line x1="262.6919" x2="262.6919" y1="103.9961" y2="117.1211"/>
    <line x1="271.4419" x2="262.6919" y1="103.9961" y2="112.7461"/>
    <line x1="265.8169" x2="271.4419" y1="109.6211" y2="117.1211"/>
    <polyline points="308.9247,103.9961 300.7997,103.9961 300.7997,103.9961 300.7997,117.1211 300.7997,117.1211 308.9247,117.1211"/>
    <line x1="300.7997" x2="305.7997" y1="110.2461" y2="110.2461"/>
    <polyline points="359.0551,130.3937 359.0551,168.189 359.0551,168.189 359.0551,205.9843 359.0551,205.9843 321.2598,205.9843 321.2598,205.9843 283.4646,205.9843 283.4646,205.9843 283.4646,168.189 283.4646,168.189 321.2598,168.189 321.2598,168.189 321.2598,130.3937 321.2598,130.3937 359.0551,130.3937 359.0551,130.3937 359.0551,92.5984"/>
    <polyline points="347.0325,103.9961 347.0325,117.1211 347.0325,117.1211 338.2825,103.9961 338.2825,103.9961 338.2825,117.1211"/>
    <polygon points="396.8504,92.5984 396.8504,130.3937 396.8504,130.3937 434.6457,130.3937 434.6457,130.3937 434.6457,92.5984 434.6457,92.5984"/>
    <polyline points="403.7402,96.7052 403.4277,97.6427 403.4277,97.6427 402.8027,98.2677 402.8027,98.2677 401.8652,98.5802 401.8652,98.5802 401.5527,98.5802 401.5527,98.5802 400.6152,98.2677 400.6152,98.2677 399.9902,97.6427 399.9902,97.6427 399.6777,96.7052 399.6777,96.7052 399.6777,96.3927 399.6777,96.3927 399.9902,95.4552 399.9902,95.4552 400.6152,94.8302 400.6152,94.8302 401.5527,94.5177 401.5527,94.5177 401.8652,94.5177 401.8652,94.5177 402.8027,94.8302 402.8027,94.8302 403.4277,95.4552 403.4277,95.4552 403.7402,96.7052 403.7402,96.7052 403.7402,98.2677 403.7402,98.2677 403.4277,99.8302 403.4277,99.8302 402.8027,100.7677 402.8027,100.7677 401.8652,101.0802 401.8652,101.0802 401.2402,101.0802 401.2402,101.0802 400.3027,100.7677 400.3027,100.7677 399.9902,100.1427"/>
    <polyline points="420.123,103.9961 420.123,113.9961 420.123,113.9961 419.498,115.8711 419.498,115.8711 418.873,116.4961 418.873,116.4961 417.623,117.1211 417.623,117.1211 416.373,117.1211 416.373,117.1211 415.123,116.4961 415.123,116.4961 414.498,115.8711 414.498,115.8711 413.873,113.9961 413.873,113.9961 413.873,112.7461"/>
    <polyline points="472.4409,130.3937 472.4409,168.189 472.4409,168.189 434.6457,168.189 434.6457,168.189 434.6457,130.3937 434.6457,130.3937 472.4409,130.3937 472.4409,130.3937 472.4409,92.5984"/>
    <polyline points="459.1683,117.1211 454.1683,103.9961 454.1683,103.9961 449.1683,117.1211"/>
    <line x1="451.0433" x2="457.2933" y1="112.7461" y2="112.7461"/>
    <polyline points="548.0315,92.5984 548.0315,130.3937 548.0315,130.3937 510.2362,130.3937 510.2362,130.3937 510.2362,168.189 510.2362,168.189 548.0315,168.189 548.0315,168.189 585.8268,168.189 585.8268,168.189 585.8268,130.3937 585.8268,130.3937 548.0315,130.3937 548.0315,130.3937 548.0315,168.189 548.0315,168.189 548.0315,205.9843 548.0315,205.9843 585.8268,205.9843 585.8268,205.9843 585.8268,168.189 585.8268,168.189 623.622,168.189 623.622,168.189 623.622,130.3937"/>
    <line x1="565.0541" x2="565.0541" y1="103.9961" y2="117.1211"/>
    <line x1="573.8041" x2="565.0541" y1="103.9961" y2="112.7461"/>
    <line x1="568.1791" x2="573.8041" y1="109.6211" y2="117.1211"/>
    <polyline points="774.8031,92.5984 774.8031,130.3937 774.8031,130.3937 737.0079,130.3937 737.0079,130.3937 699.2126,130.3937 699.2126,130.3937 699.2126,168.189 699.2126,168.189 661.4173,168.189 661.4173,168.189 661.4173,130.3937 661.4173,130.3937 699.2126,130.3937 699.2126,130.3937 699.2126,92.5984"/>
    <polygon points="680.94,103.9961 679.69,104.6211 679.69,104.6211 678.44,105.8711 678.44,105.8711 677.815,107.1211 677.815,107.1211 677.19,108.9961 677.19,108.9961 677.19,112.1211 677.19,112.1211 677.815,113.9961 677.815,113.9961 678.44,115.2461 678.44,115.2461 679.69,116.4961 679.69,116.4961 680.94,117.1211 680.94,117.1211 683.44,117.1211 683.44,117.1211 684.69,116.4961 684.69,116.4961 685.94,115.2461 685.94,115.2461 686.565,113.9961 686.565,113.9961 687.19,112.1211 687.19,112.1211 687.19,108.9961 687.19,108.9961 686.565,107.1211 686.565,107.1211 685.94,105.8711 685.94,105.8711 684.69,104.6211 684.69,104.6211 683.44,103.9961 683.44,103.9961"/>
    <polyline points="737.0079,92.5984 737.0079,130.3937 737.0079,130.3937 737.0079,168.189 737.0079,168.189 737.0079,205.9843 737.0079,205.9843 774.8031,205.9843 774.8031,205.9843 774.8031,168.189 774.8031,168.189 774.8031,130.3937"/>
    <line x1="754.0305" x2="754.0305" y1="103.9961" y2="117.1211"/>
    <line x1="762.7805" x2="754.0305" y1="103.9961" y2="112.7461"/>
    <line x1="757.1555" x2="762.7805" y1="109.6211" y2="117.1211"/>
    <polyline points="56.6929,168.189 94.4882,168.189 94.4882,168.189 132.2835,168.189 132.2835,168.189 132.2835,205.9843 132.2835,205.9843 170.0787,205.9843 170.0787,205.9843 170.0787,168.189 170.0787,168.189 207.874,168.189 207.874,168.189 245.6693,168.189 245.6693,168.189 245.6693,205.9843 245.6693,205.9843 207.874,205.9843 207.874,205.9843 207.874,168.189"/>
    <polyline points="82.1531,141.7913 74.0281,141.7913 74.0281,141.7913 74.0281,154.9163 74.0281,154.9163 82.1531,154.9163"/>
    <line x1="74.0281" x2="79.0281" y1="148.0413" y2="148.0413"/>
    <line x1="149.3061" x2="149.3061" y1="141.7913" y2="154.9163"/>
    <line x1="158.0561" x2="149.3061" y1="141.7913" y2="150.5413"/>
    <line x1="152.4311" x2="158.0561" y1="147.4163" y2="154.9163"/>
    <polyline points="396.8504,205.9843 359.0551,205.9843 359.0551,205.9843 359.0551,243.7795 359.0551,243.7795 321.2598,243.7795 321.2598,243.7795 321.2598,205.9843 321.2598,205.9843 321.2598,168.189 321.2598,168.189 359.0551,168.189 359.0551,168.189 396.8504,168.189 396.8504,168.189 396.8504,205.9843 396.8504,205.9843 434.6457,205.9843 434.6457,205.9843 434.6457,168.189 434.6457,168.189 396.8504,168.189"/>
    <polygon points="338.2825,141.7913 338.2825,154.9163 338.2825,154.9163 342.6575,154.9163 342.6575,154.9163 344.5325,154.2913 344.5325,154.2913 345.7825,153.0413 345.7825,153.0413 346.4075,151.7913 346.4075,151.7913 347.0325,149.9163 347.0325,149.9163 347.0325,146.7913 347.0325,146.7913 346.4075,144.9163 346.4075,144.9163 345.7825,143.6663 345.7825,143.6663 344.5325,142.4163 344.5325,142.4163 342.6575,141.7913 342.6575,141.7913"/>
    <polyline points="449.1683,141.7913 454.1683,154.9163 454.1683,154.9163 459.1683,141.7913"/>
    <polyline points="514.001,133.563 514.626,133.2505 514.626,133.2505 515.5635,132.313 515.5635,132.313 515.5635,138.8755"/>
    <polygon points="521.1885,132.313 520.251,132.6255 520.251,132.6255 519.626,133.563 519.626,133.563 519.3135,135.1255 519.3135,135.1255 519.3135,136.063 519.3135,136.063 519.626,137.6255 519.626,137.6255 520.251,138.563 520.251,138.563 521.1885,138.8755 521.1885,138.8755 521.8135,138.8755 521.8135,138.8755 522.751,138.563 522.751,138.563 523.376,137.6255 523.376,137.6255 523.6885,136.063 523.6885,136.063 523.6885,135.1255 523.6885,135.1255 523.376,133.563 523.376,133.563 522.751,132.6255 522.751,132.6255 521.8135,132.313 521.8135,132.313"/>
    <polyline points="524.7589,141.7913 529.7589,154.9163 529.7589,154.9163 534.7589,141.7913"/>
    <polyline points="573.4916,141.7913 565.3666,141.7913 565.3666,141.7913 565.3666,154.9163 565.3666,154.9163 573.4916,154.9163"/>
    <line x1="565.3666" x2="570.3666" y1="148.0413" y2="148.0413"/>
    <polyline points="603.4744,141.7913 603.4744,154.9163 603.4744,154.9163 610.9744,154.9163"/>
    <polyline points="623.622,168.189 661.4173,168.189 661.4173,168.189 661.4173,205.9843 661.4173,205.9843 699.2126,205.9843 699.2126,205.9843 699.2126,168.189 699.2126,168.189 737.0079,168.189 737.0079,168.189 774.8031,168.189"/>
    <polyline points="641.2697,141.7913 641.2697,154.9163 641.2697,154.9163 648.7697,154.9163"/>
    <polyline points="686.8775,141.7913 678.7525,141.7913 678.7525,141.7913 678.7525,154.9163 678.7525,154.9163 686.8775,154.9163"/>
    <line x1="678.7525" x2="683.7525" y1="148.0413" y2="148.0413"/>
    <line x1="716.2352" x2="716.2352" y1="141.7913" y2="154.9163"/>
    <line x1="724.9852" x2="716.2352" y1="141.7913" y2="150.5413"/>
    <line x1="719.3602" x2="724.9852" y1="147.4163" y2="154.9163"/>
    <polyline points="762.468,141.7913 754.343,141.7913 754.343,141.7913 754.343,154.9163 754.343,154.9163 762.468,154.9163"/>
    <line x1="754.343" x2="759.343" y1="148.0413" y2="148.0413"/>
    <polyline points="56.6929,205.9843 94.4882,205.9843 94.4882,205.9843 132.2835,205.9843"/>
    <polyline points="60.4577,171.3583 61.0827,171.0458 61.0827,171.0458 62.0202,170.1083 62.0202,170.1083 62.0202,176.6708"/>
    <polyline points="66.7077,171.3583 67.3327,171.0458 67.3327,171.0458 68.2702,170.1083 68.2702,170.1083 68.2702,176.6708"/>
    <line x1="76.2156" x2="76.2156" y1="179.5866" y2="192.7116"/>
    <line x1="71.8406" x2="80.5906" y1="179.5866" y2="179.5866"/>
    <polyline points="111.5108,185.8366 117.1358,185.8366 117.1358,185.8366 119.0108,185.2116 119.0108,185.2116 119.6358,184.5866 119.6358,184.5866 120.2608,183.3366 120.2608,183.3366 120.2608,182.0866 120.2608,182.0866 119.6358,180.8366 119.6358,180.8366 119.0108,180.2116 119.0108,180.2116 117.1358,179.5866 117.1358,179.5866 111.5108,179.5866 111.5108,179.5866 111.5108,192.7116"/>
    <line x1="115.8858" x2="120.2608" y1="185.8366" y2="192.7116"/>
    <polyline points="157.7436,179.5866 149.6186,179.5866 149.6186,179.5866 149.6186,192.7116 149.6186,192.7116 157.7436,192.7116"/>
    <line x1="149.6186" x2="154.6186" y1="185.8366" y2="185.8366"/>
    <line x1="170.0787" x2="207.874" y1="205.9843" y2="205.9843"/>
    <line x1="191.4764" x2="191.4764" y1="179.5866" y2="192.7116"/>
    <polyline points="233.6467,179.5866 233.6467,192.7116 233.6467,192.7116 224.8967,179.5866 224.8967,179.5866 224.8967,192.7116"/>
    <polyline points="287.2293,171.3583 287.8543,171.0458 287.8543,171.0458 288.7918,170.1083 288.7918,170.1083 288.7918,176.6708"/>
    <polyline points="292.8543,171.6708 292.8543,171.3583 292.8543,171.3583 293.1668,170.7333 293.1668,170.7333 293.4793,170.4208 293.4793,170.4208 294.1043,170.1083 294.1043,170.1083 295.3543,170.1083 295.3543,170.1083 295.9793,170.4208 295.9793,170.4208 296.2918,170.7333 296.2918,170.7333 296.6043,171.3583 296.6043,171.3583 296.6043,171.9833 296.6043,171.9833 296.2918,172.6083 296.2918,172.6083 295.6668,173.5458 295.6668,173.5458 292.5418,176.6708 292.5418,176.6708 296.9168,176.6708"/>
    <polyline points="301.1122,179.5866 301.1122,192.7116 301.1122,192.7116 308.6122,192.7116"/>
    <polyline points="345.7825,192.7116 340.7825,179.5866 340.7825,179.5866 335.7825,192.7116"/>
    <line x1="337.6575" x2="343.9075" y1="188.3366" y2="188.3366"/>
    <polygon points="376.0778,179.5866 376.0778,192.7116 376.0778,192.7116 380.4528,192.7116 380.4528,192.7116 382.3278,192.0866 382.3278,192.0866 383.5778,190.8366 383.5778,190.8366 384.2028,189.5866 384.2028,189.5866 384.8278,187.7116 384.8278,187.7116 384.8278,184.5866 384.8278,184.5866 384.2028,182.7116 384.2028,182.7116 383.5778,181.4616 383.5778,181.4616 382.3278,180.2116 382.3278,180.2116 380.4528,179.5866 380.4528,179.5866"/>
    <polygon points="413.873,179.5866 413.873,192.7116 413.873,192.7116 418.248,192.7116 418.248,192.7116 420.123,192.0866 420.123,192.0866 421.373,190.8366 421.373,190.8366 421.998,189.5866 421.998,189.5866 422.623,187.7116 422.623,187.7116 422.623,184.5866 422.623,184.5866 421.998,182.7116 421.998,182.7116 421.373,181.4616 421.373,181.4616 420.123,180.2116 420.123,180.2116 418.248,179.5866 418.248,179.5866"/>
    <polygon points="434.6457,205.9843 472.4409,205.9843 472.4409,205.9843 472.4409,168.189 472.4409,168.189 510.2362,168.189 510.2362,168.189 510.2362,205.9843 510.2362,205.9843 472.4409,205.9843 472.4409,205.9843 472.4409,243.7795 472.4409,243.7795 434.6457,243.7795 434.6457,243.7795"/>
    <polyline points="460.1058,179.5866 451.9808,179.5866 451.9808,179.5866 451.9808,192.7116 451.9808,192.7116 460.1058,192.7116"/>
    <line x1="451.9808" x2="456.9808" y1="185.8366" y2="185.8366"/>
    <polyline points="489.4636,185.8366 495.0886,185.8366 495.0886,185.8366 496.9636,185.2116 496.9636,185.2116 497.5886,184.5866 497.5886,184.5866 498.2136,183.3366 498.2136,183.3366 498.2136,182.0866 498.2136,182.0866 497.5886,180.8366 497.5886,180.8366 496.9636,180.2116 496.9636,180.2116 495.0886,179.5866 495.0886,179.5866 489.4636,179.5866 489.4636,179.5866 489.4636,192.7116"/>
    <line x1="493.8386" x2="498.2136" y1="185.8366" y2="192.7116"/>
    <polyline points="565.6791,179.5866 565.6791,192.7116 565.6791,192.7116 573.1791,192.7116"/>
    <polyline points="687.19,179.5866 687.19,192.7116 687.19,192.7116 678.44,179.5866 678.44,179.5866 678.44,192.7116"/>
    <polyline points="762.7805,179.5866 762.7805,192.7116 762.7805,192.7116 754.0305,179.5866 754.0305,179.5866 754.0305,192.7116"/>
    <polyline points="82.1531,217.3819 74.0281,217.3819 74.0281,217.3819 74.0281,230.5069 74.0281,230.5069 82.1531,230.5069"/>
    <line x1="74.0281" x2="79.0281" y1="223.6319" y2="223.6319"/>
    <polyline points="338.2825,223.6319 343.9075,223.6319 343.9075,223.6319 345.7825,223.0069 345.7825,223.0069 346.4075,222.3819 346.4075,222.3819 347.0325,221.1319 347.0325,221.1319 347.0325,219.8819 347.0325,219.8819 346.4075,218.6319 346.4075,218.6319 345.7825,218.0069 345.7825,218.0069 343.9075,217.3819 343.9075,217.3819 338.2825,217.3819 338.2825,217.3819 338.2825,230.5069"/>
    <line x1="342.6575" x2="347.0325" y1="223.6319" y2="230.5069"/>
    <polyline points="451.6683,223.6319 457.2933,223.6319 457.2933,223.6319 459.1683,223.0069 459.1683,223.0069 459.7933,222.3819 459.7933,222.3819 460.4183,221.1319 460.4183,221.1319 460.4183,219.8819 460.4183,219.8819 459.7933,218.6319 459.7933,218.6319 459.1683,218.0069 459.1683,218.0069 457.2933,217.3819 457.2933,217.3819 451.6683,217.3819 451.6683,217.3819 451.6683,230.5069"/>
    <line x1="456.0433" x2="460.4183" y1="223.6319" y2="230.5069"/>
    <polyline points="548.0315,205.9843 548.0315,243.7795 548.0315,243.7795 585.8268,243.7795 585.8268,243.7795 585.8268,205.9843"/>
    <polyline points="565.6791,217.3819 565.6791,230.5069 565.6791,230.5069 573.1791,230.5069"/>
    <polyline points="737.0079,205.9843 737.0079,243.7795 737.0079,243.7795 774.8031,243.7795 774.8031,243.7795 774.8031,205.9843"/>
    <polyline points="762.1555,219.2569 760.9055,218.0069 760.9055,218.0069 759.0305,217.3819 759.0305,217.3819 756.5305,217.3819 756.5305,217.3819 754.6555,218.0069 754.6555,218.0069 753.4055,219.2569 753.4055,219.2569 753.4055,220.5069 753.4055,220.5069 754.0305,221.7569 754.0305,221.7569 754.6555,222.3819 754.6555,222.3819 755.9055,223.0069 755.9055,223.0069 759.6555,224.2569 759.6555,224.2569 760.9055,224.8819 760.9055,224.8819 761.5305,225.5069 761.5305,225.5069 762.1555,226.7569 762.1555,226.7569 762.1555,228.6319 762.1555,228.6319 760.9055,229.8819 760.9055,229.8819 759.0305,230.5069 759.0305,230.5069 756.5305,230.5069 756.5305,230.5069 754.6555,229.8819 754.6555,229.8819 753.4055,228.6319"/>
    <polyline points="56.6929,243.7795 56.6929,281.5748 56.6929,281.5748 94.4882,281.5748 94.4882,281.5748 132.2835,281.5748 132.2835,281.5748 132.2835,243.7795 132.2835,243.7795 94.4882,243.7795 94.4882,243.7795 94.4882,281.5748"/>
    <polyline points="60.4577,246.9488 61.0827,246.6363 61.0827,246.6363 62.0202,245.6988 62.0202,245.6988 62.0202,252.2613"/>
    <polyline points="66.3952,245.6988 69.8327,245.6988 69.8327,245.6988 67.9577,248.1988 67.9577,248.1988 68.8952,248.1988 68.8952,248.1988 69.5202,248.5113 69.5202,248.5113 69.8327,248.8238 69.8327,248.8238 70.1452,249.7613 70.1452,249.7613 70.1452,250.3863 70.1452,250.3863 69.8327,251.3238 69.8327,251.3238 69.2077,251.9488 69.2077,251.9488 68.2702,252.2613 68.2702,252.2613 67.3327,252.2613 67.3327,252.2613 66.3952,251.9488 66.3952,251.9488 66.0827,251.6363 66.0827,251.6363 65.7702,251.0113"/>
    <polyline points="73.7156,261.4272 79.3406,261.4272 79.3406,261.4272 81.2156,260.8022 81.2156,260.8022 81.8406,260.1772 81.8406,260.1772 82.4656,258.9272 82.4656,258.9272 82.4656,257.6772 82.4656,257.6772 81.8406,256.4272 81.8406,256.4272 81.2156,255.8022 81.2156,255.8022 79.3406,255.1772 79.3406,255.1772 73.7156,255.1772 73.7156,255.1772 73.7156,268.3022"/>
    <line x1="78.0906" x2="82.4656" y1="261.4272" y2="268.3022"/>
    <polyline points="119.9483,255.1772 111.8233,255.1772 111.8233,255.1772 111.8233,268.3022 111.8233,268.3022 119.9483,268.3022"/>
    <line x1="111.8233" x2="116.8233" y1="261.4272" y2="261.4272"/>
    <polyline points="132.2835,281.5748 170.0787,281.5748 170.0787,281.5748 170.0787,243.7795 170.0787,243.7795 132.2835,243.7795"/>
    <polyline points="157.7436,258.3022 157.1186,257.0522 157.1186,257.0522 155.8686,255.8022 155.8686,255.8022 154.6186,255.1772 154.6186,255.1772 152.1186,255.1772 152.1186,255.1772 150.8686,255.8022 150.8686,255.8022 149.6186,257.0522 149.6186,257.0522 148.9936,258.3022 148.9936,258.3022 148.3686,260.1772 148.3686,260.1772 148.3686,263.3022 148.3686,263.3022 148.9936,265.1772 148.9936,265.1772 149.6186,266.4272 149.6186,266.4272 150.8686,267.6772 150.8686,267.6772 152.1186,268.3022 152.1186,268.3022 154.6186,268.3022 154.6186,268.3022 155.8686,267.6772 155.8686,267.6772 157.1186,266.4272 157.1186,266.4272 157.7436,265.1772 157.7436,265.1772 157.7436,263.3022 157.7436,263.3022 154.6186,263.3022"/>
    <polyline points="170.0787,281.5748 207.874,281.5748 207.874,281.5748 207.874,243.7795 207.874,243.7795 170.0787,243.7795"/>
    <polyline points="195.5389,255.1772 187.4139,255.1772 187.4139,255.1772 187.4139,268.3022 187.4139,268.3022 195.5389,268.3022"/>
    <line x1="187.4139" x2="192.4139" y1="261.4272" y2="261.4272"/>
    <polyline points="207.874,281.5748 245.6693,281.5748 245.6693,281.5748 245.6693,243.7795 245.6693,243.7795 207.874,243.7795"/>
    <polyline points="233.6467,255.1772 233.6467,268.3022 233.6467,268.3022 224.8967,255.1772 224.8967,255.1772 224.8967,268.3022"/>
    <polyline points="245.6693,281.5748 283.4646,281.5748 283.4646,281.5748 283.4646,243.7795 283.4646,243.7795 245.6693,243.7795"/>
    <polyline points="268.3169,261.4272 270.1919,260.8022 270.1919,260.8022 270.8169,260.1772 270.8169,260.1772 271.4419,258.9272 271.4419,258.9272 271.4419,257.6772 271.4419,257.6772 270.8169,256.4272 270.8169,256.4272 270.1919,255.8022 270.1919,255.8022 268.3169,255.1772 268.3169,255.1772 262.6919,255.1772 262.6919,255.1772 262.6919,268.3022 262.6919,268.3022 268.3169,268.3022 268.3169,268.3022 270.1919,267.6772 270.1919,267.6772 270.8169,267.0522 270.8169,267.0522 271.4419,265.8022 271.4419,265.8022 271.4419,263.9272 271.4419,263.9272 270.8169,262.6772 270.8169,262.6772 270.1919,262.0522 270.1919,262.0522 268.3169,261.4272 268.3169,261.4272 262.6919,261.4272"/>
    <polyline points="283.4646,281.5748 321.2598,281.5748 321.2598,281.5748 321.2598,243.7795 321.2598,243.7795 283.4646,243.7795"/>
    <polyline points="300.4872,255.1772 300.4872,264.5522 300.4872,264.5522 301.1122,266.4272 301.1122,266.4272 302.3622,267.6772 302.3622,267.6772 304.2372,268.3022 304.2372,268.3022 305.4872,268.3022 305.4872,268.3022 307.3622,267.6772 307.3622,267.6772 308.6122,266.4272 308.6122,266.4272 309.2372,264.5522 309.2372,264.5522 309.2372,255.1772"/>
    <polyline points="132.2835,319.3701 132.2835,357.1654 132.2835,357.1654 94.4882,357.1654 94.4882,357.1654 56.6929,357.1654 56.6929,357.1654 56.6929,319.3701 56.6929,319.3701 94.4882,319.3701 94.4882,319.3701 132.2835,319.3701 132.2835,319.3701 170.0787,319.3701 170.0787,319.3701 207.874,319.3701 207.874,319.3701 245.6693,319.3701 245.6693,319.3701 283.4646,319.3701 283.4646,319.3701 321.2598,319.3701 321.2598,319.3701 321.2598,281.5748 321.2598,281.5748 359.0551,281.5748 359.0551,281.5748 359.0551,243.7795"/>
    <line x1="342.6575" x2="342.6575" y1="255.1772" y2="268.3022"/>
    <polyline points="434.6457,243.7795 434.6457,281.5748 434.6457,281.5748 472.4409,281.5748 472.4409,281.5748 510.2362,281.5748 510.2362,281.5748 548.0315,281.5748 548.0315,281.5748 548.0315,243.7795 548.0315,243.7795 510.2362,243.7795 510.2362,243.7795 472.4409,243.7795 472.4409,243.7795 472.4409,281.5748 472.4409,281.5748 472.4409,319.3701 472.4409,319.3701 434.6457,319.3701 434.6457,319.3701 434.6457,281.5748"/>
    <polyline points="438.4104,246.9488 439.0354,246.6363 439.0354,246.6363 439.9729,245.6988 439.9729,245.6988 439.9729,252.2613"/>
    <polyline points="446.8479,252.2613 446.8479,245.6988 446.8479,245.6988 443.7229,250.0738 443.7229,250.0738 448.4104,250.0738"/>
    <line x1="454.1683" x2="454.1683" y1="255.1772" y2="268.3022"/>
    <line x1="449.7933" x2="458.5433" y1="255.1772" y2="255.1772"/>
    <line x1="510.2362" x2="510.2362" y1="281.5748" y2="243.7795"/>
    <polyline points="497.9011,255.1772 489.7761,255.1772 489.7761,255.1772 489.7761,268.3022 489.7761,268.3022 497.9011,268.3022"/>
    <line x1="489.7761" x2="494.7761" y1="261.4272" y2="261.4272"/>
    <polyline points="527.8839,255.1772 527.8839,268.3022 527.8839,268.3022 535.3839,268.3022"/>
    <polyline points="623.622,281.5748 585.8268,281.5748 585.8268,281.5748 585.8268,319.3701 585.8268,319.3701 548.0315,319.3701 548.0315,319.3701 548.0315,281.5748 548.0315,281.5748 585.8268,281.5748 585.8268,281.5748 585.8268,243.7795 585.8268,243.7795 623.622,243.7795 623.622,243.7795 623.622,281.5748 623.622,281.5748 661.4173,281.5748 661.4173,281.5748 661.4173,243.7795 661.4173,243.7795 623.622,243.7795"/>
    <polyline points="573.4916,255.1772 565.3666,255.1772 565.3666,255.1772 565.3666,268.3022 565.3666,268.3022 573.4916,268.3022"/>
    <line x1="565.3666" x2="570.3666" y1="261.4272" y2="261.4272"/>
    <polyline points="611.2869,255.1772 603.1619,255.1772 603.1619,255.1772 603.1619,268.3022"/>
    <line x1="603.1619" x2="608.1619" y1="261.4272" y2="261.4272"/>
    <polygon points="643.1447,255.1772 641.8947,255.8022 641.8947,255.8022 640.6447,257.0522 640.6447,257.0522 640.0197,258.3022 640.0197,258.3022 639.3947,260.1772 639.3947,260.1772 639.3947,263.3022 639.3947,263.3022 640.0197,265.1772 640.0197,265.1772 640.6447,266.4272 640.6447,266.4272 641.8947,267.6772 641.8947,267.6772 643.1447,268.3022 643.1447,268.3022 645.6447,268.3022 645.6447,268.3022 646.8947,267.6772 646.8947,267.6772 648.1447,266.4272 648.1447,266.4272 648.7697,265.1772 648.7697,265.1772 649.3947,263.3022 649.3947,263.3022 649.3947,260.1772 649.3947,260.1772 648.7697,258.3022 648.7697,258.3022 648.1447,257.0522 648.1447,257.0522 646.8947,255.8022 646.8947,255.8022 645.6447,255.1772 645.6447,255.1772"/>
    <polyline points="661.4173,281.5748 699.2126,281.5748 699.2126,281.5748 699.2126,243.7795 699.2126,243.7795 661.4173,243.7795"/>
    <polygon points="680.94,255.1772 679.69,255.8022 679.69,255.8022 678.44,257.0522 678.44,257.0522 677.815,258.3022 677.815,258.3022 677.19,260.1772 677.19,260.1772 677.19,263.3022 677.19,263.3022 677.815,265.1772 677.815,265.1772 678.44,266.4272 678.44,266.4272 679.69,267.6772 679.69,267.6772 680.94,268.3022 680.94,268.3022 683.44,268.3022 683.44,268.3022 684.69,267.6772 684.69,267.6772 685.94,266.4272 685.94,266.4272 686.565,265.1772 686.565,265.1772 687.19,263.3022 687.19,263.3022 687.19,260.1772 687.19,260.1772 686.565,258.3022 686.565,258.3022 685.94,257.0522 685.94,257.0522 684.69,255.8022 684.69,255.8022 683.44,255.1772 683.44,255.1772"/>
    <polyline points="699.2126,281.5748 737.0079,281.5748 737.0079,281.5748 737.0079,243.7795 737.0079,243.7795 699.2126,243.7795"/>
    <polyline points="724.9852,255.1772 724.9852,268.3022 724.9852,268.3022 716.2352,255.1772 716.2352,255.1772 716.2352,268.3022"/>
    <polyline points="359.0551,319.3701 359.0551,357.1654 359.0551,357.1654 321.2598,357.1654 321.2598,357.1654 321.2598,319.3701 321.2598,319.3701 359.0551,319.3701 359.0551,319.3701 359.0551,281.5748"/>
    <polyline points="344.5325,292.9724 344.5325,302.9724 344.5325,302.9724 343.9075,304.8474 343.9075,304.8474 343.2825,305.4724 343.2825,305.4724 342.0325,306.0974 342.0325,306.0974 340.7825,306.0974 340.7825,306.0974 339.5325,305.4724 339.5325,305.4724 338.9075,304.8474 338.9075,304.8474 338.2825,302.9724 338.2825,302.9724 338.2825,301.7224"/>
    <polyline points="457.9183,292.9724 457.9183,302.9724 457.9183,302.9724 457.2933,304.8474 457.2933,304.8474 456.6683,305.4724 456.6683,305.4724 455.4183,306.0974 455.4183,306.0974 454.1683,306.0974 454.1683,306.0974 452.9183,305.4724 452.9183,305.4724 452.2933,304.8474 452.2933,304.8474 451.6683,302.9724 451.6683,302.9724 451.6683,301.7224"/>
    <line x1="565.0541" x2="565.0541" y1="292.9724" y2="306.0974"/>
    <line x1="573.8041" x2="565.0541" y1="292.9724" y2="301.7224"/>
    <line x1="568.1791" x2="573.8041" y1="298.5974" y2="306.0974"/>
    <line x1="94.4882" x2="94.4882" y1="357.1654" y2="319.3701"/>
    <polyline points="60.4577,322.5394 61.0827,322.2269 61.0827,322.2269 62.0202,321.2894 62.0202,321.2894 62.0202,327.8519"/>
    <polyline points="69.5202,321.2894 66.3952,321.2894 66.3952,321.2894 66.0827,324.1019 66.0827,324.1019 66.3952,323.7894 66.3952,323.7894 67.3327,323.4769 67.3327,323.4769 68.2702,323.4769 68.2702,323.4769 69.2077,323.7894 69.2077,323.7894 69.8327,324.4144 69.8327,324.4144 70.1452,325.3519 70.1452,325.3519 70.1452,325.9769 70.1452,325.9769 69.8327,326.9144 69.8327,326.9144 69.2077,327.5394 69.2077,327.5394 68.2702,327.8519 68.2702,327.8519 67.3327,327.8519 67.3327,327.8519 66.3952,327.5394 66.3952,327.5394 66.0827,327.2269 66.0827,327.2269 65.7702,326.6019"/>
    <polyline points="73.7156,337.6427 79.3406,337.6427 79.3406,337.6427 81.2156,337.0177 81.2156,337.0177 81.8406,336.3927 81.8406,336.3927 82.4656,335.1427 82.4656,335.1427 82.4656,333.2677 82.4656,333.2677 81.8406,332.0177 81.8406,332.0177 81.2156,331.3927 81.2156,331.3927 79.3406,330.7677 79.3406,330.7677 73.7156,330.7677 73.7156,330.7677 73.7156,343.8927"/>
    <polyline points="119.0108,343.8927 114.0108,330.7677 114.0108,330.7677 109.0108,343.8927"/>
    <line x1="110.8858" x2="117.1358" y1="339.5177" y2="339.5177"/>
    <polyline points="132.2835,357.1654 170.0787,357.1654 170.0787,357.1654 207.874,357.1654 207.874,357.1654 245.6693,357.1654 245.6693,357.1654 245.6693,319.3701"/>
    <line x1="170.0787" x2="170.0787" y1="357.1654" y2="319.3701"/>
    <polyline points="149.3061,337.0177 154.9311,337.0177 154.9311,337.0177 156.8061,336.3927 156.8061,336.3927 157.4311,335.7677 157.4311,335.7677 158.0561,334.5177 158.0561,334.5177 158.0561,333.2677 158.0561,333.2677 157.4311,332.0177 157.4311,332.0177 156.8061,331.3927 156.8061,331.3927 154.9311,330.7677 154.9311,330.7677 149.3061,330.7677 149.3061,330.7677 149.3061,343.8927"/>
    <line x1="153.6811" x2="158.0561" y1="337.0177" y2="343.8927"/>
    <line x1="207.874" x2="207.874" y1="357.1654" y2="319.3701"/>
    <line x1="187.1014" x2="187.1014" y1="330.7677" y2="343.8927"/>
    <line x1="195.8514" x2="187.1014" y1="330.7677" y2="339.5177"/>
    <line x1="190.2264" x2="195.8514" y1="336.3927" y2="343.8927"/>
    <polyline points="233.3342,330.7677 225.2092,330.7677 225.2092,330.7677 225.2092,343.8927 225.2092,343.8927 233.3342,343.8927"/>
    <line x1="225.2092" x2="230.2092" y1="337.0177" y2="337.0177"/>
    <polyline points="245.6693,357.1654 283.4646,357.1654 283.4646,357.1654 321.2598,357.1654"/>
    <line x1="283.4646" x2="283.4646" y1="357.1654" y2="319.3701"/>
    <polyline points="262.6919,337.0177 268.3169,337.0177 268.3169,337.0177 270.1919,336.3927 270.1919,336.3927 270.8169,335.7677 270.8169,335.7677 271.4419,334.5177 271.4419,334.5177 271.4419,333.2677 271.4419,333.2677 270.8169,332.0177 270.8169,332.0177 270.1919,331.3927 270.1919,331.3927 268.3169,330.7677 268.3169,330.7677 262.6919,330.7677 262.6919,330.7677 262.6919,343.8927"/>
    <line x1="267.0669" x2="271.4419" y1="337.0177" y2="343.8927"/>
    <polyline points="308.9247,330.7677 300.7997,330.7677 300.7997,330.7677 300.7997,343.8927 300.7997,343.8927 308.9247,343.8927"/>
    <line x1="300.7997" x2="305.7997" y1="337.0177" y2="337.0177"/>
    <polyline points="347.0325,330.7677 347.0325,343.8927 347.0325,343.8927 338.2825,330.7677 338.2825,330.7677 338.2825,343.8927"/>
    <polygon points="396.8504,319.3701 396.8504,357.1654 396.8504,357.1654 434.6457,357.1654 434.6457,357.1654 434.6457,319.3701 434.6457,319.3701"/>
    <polyline points="400.6152,322.5394 401.2402,322.2269 401.2402,322.2269 402.1777,321.2894 402.1777,321.2894 402.1777,327.8519"/>
    <polyline points="409.9902,322.2269 409.6777,321.6019 409.6777,321.6019 408.7402,321.2894 408.7402,321.2894 408.1152,321.2894 408.1152,321.2894 407.1777,321.6019 407.1777,321.6019 406.5527,322.5394 406.5527,322.5394 406.2402,324.1019 406.2402,324.1019 406.2402,325.6644 406.2402,325.6644 406.5527,326.9144 406.5527,326.9144 407.1777,327.5394 407.1777,327.5394 408.1152,327.8519 408.1152,327.8519 408.4277,327.8519 408.4277,327.8519 409.3652,327.5394 409.3652,327.5394 409.9902,326.9144 409.9902,326.9144 410.3027,325.9769 410.3027,325.9769 410.3027,325.6644 410.3027,325.6644 409.9902,324.7269 409.9902,324.7269 409.3652,324.1019 409.3652,324.1019 408.4277,323.7894 408.4277,323.7894 408.1152,323.7894 408.1152,323.7894 407.1777,324.1019 407.1777,324.1019 406.5527,324.7269 406.5527,324.7269 406.2402,325.6644"/>
    <polyline points="413.873,337.0177 419.498,337.0177 419.498,337.0177 421.373,336.3927 421.373,336.3927 421.998,335.7677 421.998,335.7677 422.623,334.5177 422.623,334.5177 422.623,333.2677 422.623,333.2677 421.998,332.0177 421.998,332.0177 421.373,331.3927 421.373,331.3927 419.498,330.7677 419.498,330.7677 413.873,330.7677 413.873,330.7677 413.873,343.8927"/>
    <line x1="418.248" x2="422.623" y1="337.0177" y2="343.8927"/>
    <polyline points="434.6457,357.1654 472.4409,357.1654 472.4409,357.1654 510.2362,357.1654 510.2362,357.1654 548.0315,357.1654 548.0315,357.1654 548.0315,319.3701 548.0315,319.3701 510.2362,319.3701 510.2362,319.3701 472.4409,319.3701 472.4409,319.3701 472.4409,357.1654"/>
    <polyline points="460.1058,330.7677 451.9808,330.7677 451.9808,330.7677 451.9808,343.8927 451.9808,343.8927 460.1058,343.8927"/>
    <line x1="451.9808" x2="456.9808" y1="337.0177" y2="337.0177"/>
    <line x1="510.2362" x2="510.2362" y1="357.1654" y2="319.3701"/>
    <line x1="489.4636" x2="489.4636" y1="330.7677" y2="343.8927"/>
    <line x1="498.2136" x2="489.4636" y1="330.7677" y2="339.5177"/>
    <line x1="492.5886" x2="498.2136" y1="336.3927" y2="343.8927"/>
    <line x1="527.2589" x2="527.2589" y1="330.7677" y2="343.8927"/>
    <line x1="536.0089" x2="527.2589" y1="330.7677" y2="339.5177"/>
    <line x1="530.3839" x2="536.0089" y1="336.3927" y2="343.8927"/>
    <polyline points="548.0315,357.1654 585.8268,357.1654 585.8268,357.1654 585.8268,319.3701 585.8268,319.3701 623.622,319.3701 623.622,319.3701 623.622,357.1654 623.622,357.1654 661.4173,357.1654 661.4173,357.1654 699.2126,357.1654 699.2126,357.1654 699.2126,319.3701 699.2126,319.3701 661.4173,319.3701 661.4173,319.3701 623.622,319.3701"/>
    <polyline points="573.4916,330.7677 565.3666,330.7677 565.3666,330.7677 565.3666,343.8927 565.3666,343.8927 573.4916,343.8927"/>
    <line x1="565.3666" x2="570.3666" y1="337.0177" y2="337.0177"/>
    <line x1="585.8268" x2="623.622" y1="357.1654" y2="357.1654"/>
    <polyline points="602.8494,337.0177 608.4744,337.0177 608.4744,337.0177 610.3494,336.3927 610.3494,336.3927 610.9744,335.7677 610.9744,335.7677 611.5994,334.5177 611.5994,334.5177 611.5994,333.2677 611.5994,333.2677 610.9744,332.0177 610.9744,332.0177 610.3494,331.3927 610.3494,331.3927 608.4744,330.7677 608.4744,330.7677 602.8494,330.7677 602.8494,330.7677 602.8494,343.8927"/>
    <line x1="607.2244" x2="611.5994" y1="337.0177" y2="343.8927"/>
    <line x1="661.4173" x2="661.4173" y1="357.1654" y2="319.3701"/>
    <line x1="643.1447" x2="643.1447" y1="330.7677" y2="343.8927"/>
    <line x1="638.7697" x2="647.5197" y1="330.7677" y2="330.7677"/>
    <polyline points="684.69,330.7677 684.69,340.7677 684.69,340.7677 684.065,342.6427 684.065,342.6427 683.44,343.2677 683.44,343.2677 682.19,343.8927 682.19,343.8927 680.94,343.8927 680.94,343.8927 679.69,343.2677 679.69,343.2677 679.065,342.6427 679.065,342.6427 678.44,340.7677 678.44,340.7677 678.44,339.5177"/>
    <polyline points="699.2126,357.1654 737.0079,357.1654 737.0079,357.1654 737.0079,319.3701 737.0079,319.3701 699.2126,319.3701"/>
    <polyline points="724.6727,330.7677 716.5477,330.7677 716.5477,330.7677 716.5477,343.8927 716.5477,343.8927 724.6727,343.8927"/>
    <line x1="716.5477" x2="721.5477" y1="337.0177" y2="337.0177"/>
  </g>
</svg>
