<?xml version="1.0" encoding="utf-8" ?>
<svg xmlns="http://www.w3.org/2000/svg" xmlns:cc="http://creativecommons.org/ns" xmlns:dc="http://purl.org/dc/elements/1.1/" xmlns:ev="http://www.w3.org/2001/xml-events" xmlns:inkscape="http://www.inkscape.org/namespaces/inkscape" xmlns:rdf="http://www.w3.org/1999/02/22-rdf-syntax-ns" xmlns:sodipodi="http://sodipodi.sourceforge.net/DTD/sodipodi-0.dtd" xmlns:xlink="http://www.w3.org/1999/xlink" baseProfile="tiny" height="9.0cm" version="1.2" viewBox="0 0 793.7007874015749 340.15748031496065" width="21.0cm">
  <metadata>
    <rdf:RDF>
      <cc:Work>
        <dc:format>image/svg+xml</dc:format>
        <dc:source>vpype eval 'cell=10;width=210;height=99' eval 'nCols=21;nRows=9' eval 'cells=[0,4,5,6,7,8,9,12,14,15,16,17,19,20,22,24,26,32,36,39,40,42,44,46,48,49,50,51,52,53,54,55,56,59,60,62,64,66,72,76,79,80,82,86,88,89,90,91,92,94,95,96,97,98,99,100,101,102,103,104,105,106,107,110,112,116,119,122,126,130,132,134,135,136,137,142,145,146,147,148,149,150,151,152,153,156,160,161,162,166,172]' eval 'chars=[&quot;L&quot;,&quot;L&quot;,&quot;A&quot;,&quot;U&quot;,&quot;R&quot;,&quot;E&quot;,&quot;N&quot;,&quot;M&quot;,&quot;L&quot;,&quot;O&quot;,&quot;R&quot;,&quot;E&quot;,&quot;K&quot;,&quot;A&quot;,&quot;P&quot;,&quot;I&quot;,&quot;I&quot;,&quot;A&quot;,&quot;E&quot;,&quot;I&quot;,&quot;K&quot;,&quot;A&quot;,&quot;F&quot;,&quot;T&quot;,&quot;R&quot;,&quot;E&quot;,&quot;G&quot;,&quot;E&quot;,&quot;N&quot;,&quot;B&quot;,&quot;O&quot;,&quot;O&quot;,&quot;G&quot;,&quot;E&quot;,&quot;E&quot;,&quot;R&quot;,&quot;T&quot;,&quot;L&quot;,&quot;D&quot;,&quot;E&quot;,&quot;M&quot;,&quot;N&quot;,&quot;K&quot;,&quot;I&quot;,&quot;K&quot;,&quot;A&quot;,&quot;S&quot;,&quot;S&quot;,&quot;A&quot;,&quot;C&quot;,&quot;E&quot;,&quot;N&quot;,&quot;T&quot;,&quot;J&quot;,&quot;E&quot;,&quot;S&quot;,&quot;K&quot;,&quot;E&quot;,&quot;L&quot;,&quot;L&quot;,&quot;E&quot;,&quot;K&quot;,&quot;E&quot;,&quot;T&quot;,&quot;R&quot;,&quot;B&quot;,&quot;N&quot;,&quot;R&quot;,&quot;K&quot;,&quot;E&quot;,&quot;I&quot;,&quot;K&quot;,&quot;O&quot;,&quot;U&quot;,&quot;S&quot;,&quot;E&quot;,&quot;R&quot;,&quot;E&quot;,&quot;K&quot;,&quot;K&quot;,&quot;E&quot;,&quot;R&quot;,&quot;T&quot;,&quot;J&quot;,&quot;E&quot;,&quot;I&quot;,&quot;Z&quot;,&quot;O&quot;,&quot;N&quot;,&quot;N&quot;,&quot;N&quot;]' eval 'numbers=[0,4,6,12,14,16,19,22,48,88,90,94,100,134,145,160]' eval counter=1 eval charIndex=0 begin grid -o '%cell*mm%' '%cell*mm%' %nCols% %nRows% eval '%isCell=_i in cells%' eval '%number=_i in numbers%' eval '%size=10 if isCell else 0%' rect 0 0 '%size*mm%' '%size*mm%' text -s 8 -p 0.5mm 1.5mm '%counter if number else '&quot;'&quot;''&quot;'&quot;'%' text -s 20 -p 5mm 5mm -a center '%chars[charIndex] if isCell else '&quot;'&quot;''&quot;'&quot;'%' eval '%if number: counter+=1 %' eval '%if isCell: charIndex+=1 %' end write ./svgs/solution/627dbd.svg
</dc:source>
        <dc:date>2023-12-20T21:39:18.440169</dc:date>
      </cc:Work>
    </rdf:RDF>
  </metadata>
  <defs/>
  <g fill="none" id="layer1" inkscape:groupmode="layer" inkscape:label="1" stroke="#0000ff" style="display:inline">
    <polygon points="0.0,0.0 0.0,37.7953 37.7953,37.7953 37.7953,0.0"/>
    <polyline points="3.3898,3.6693 3.8898,3.4193 4.6398,2.6693 4.6398,7.9193"/>
    <line x1="17.6476" x2="17.6476" y1="11.3976" y2="24.5226"/>
    <line x1="17.6476" x2="25.1476" y1="24.5226" y2="24.5226"/>
    <polygon points="37.7953,0.0 37.7953,0.0 37.7953,0.0 37.7953,0.0"/>
    <polygon points="75.5906,0.0 75.5906,0.0 75.5906,0.0 75.5906,0.0"/>
    <polygon points="113.3858,0.0 113.3858,0.0 113.3858,0.0 113.3858,0.0"/>
    <polygon points="151.1811,0.0 151.1811,37.7953 188.9764,37.7953 188.9764,0.0"/>
    <polyline points="154.0709,3.9193 154.0709,3.6693 154.3209,3.1693 154.5709,2.9193 155.0709,2.6693 156.0709,2.6693 156.5709,2.9193 156.8209,3.1693 157.0709,3.6693 157.0709,4.1693 156.8209,4.6693 156.3209,5.4193 153.8209,7.9193 157.3209,7.9193"/>
    <line x1="168.8287" x2="168.8287" y1="11.3976" y2="24.5226"/>
    <line x1="168.8287" x2="176.3287" y1="24.5226" y2="24.5226"/>
    <polygon points="188.9764,0.0 188.9764,37.7953 226.7717,37.7953 226.7717,0.0"/>
    <line x1="208.499" x2="203.499" y1="11.3976" y2="24.5226"/>
    <line x1="208.499" x2="213.499" y1="11.3976" y2="24.5226"/>
    <line x1="205.374" x2="211.624" y1="20.1476" y2="20.1476"/>
    <polygon points="226.7717,0.0 226.7717,37.7953 264.5669,37.7953 264.5669,0.0"/>
    <polyline points="229.9114,2.6693 232.6614,2.6693 231.1614,4.6693 231.9114,4.6693 232.4114,4.9193 232.6614,5.1693 232.9114,5.9193 232.9114,6.4193 232.6614,7.1693 232.1614,7.6693 231.4114,7.9193 230.6614,7.9193 229.9114,7.6693 229.6614,7.4193 229.4114,6.9193"/>
    <polyline points="243.7943,11.3976 243.7943,20.7726 244.4193,22.6476 245.6693,23.8976 247.5443,24.5226 248.7943,24.5226 250.6693,23.8976 251.9193,22.6476 252.5443,20.7726 252.5443,11.3976"/>
    <polygon points="264.5669,0.0 264.5669,37.7953 302.3622,37.7953 302.3622,0.0"/>
    <line x1="281.5896" x2="281.5896" y1="11.3976" y2="24.5226"/>
    <polyline points="281.5896,11.3976 287.2146,11.3976 289.0896,12.0226 289.7146,12.6476 290.3396,13.8976 290.3396,15.1476 289.7146,16.3976 289.0896,17.0226 287.2146,17.6476 281.5896,17.6476"/>
    <line x1="285.9646" x2="290.3396" y1="17.6476" y2="24.5226"/>
    <polygon points="302.3622,0.0 302.3622,37.7953 340.1575,37.7953 340.1575,0.0"/>
    <line x1="319.6973" x2="319.6973" y1="11.3976" y2="24.5226"/>
    <line x1="319.6973" x2="327.8223" y1="11.3976" y2="11.3976"/>
    <line x1="319.6973" x2="324.6973" y1="17.6476" y2="17.6476"/>
    <line x1="319.6973" x2="327.8223" y1="24.5226" y2="24.5226"/>
    <polygon points="340.1575,0.0 340.1575,37.7953 377.9528,37.7953 377.9528,0.0"/>
    <line x1="357.1801" x2="357.1801" y1="11.3976" y2="24.5226"/>
    <line x1="357.1801" x2="365.9301" y1="11.3976" y2="24.5226"/>
    <line x1="365.9301" x2="365.9301" y1="11.3976" y2="24.5226"/>
    <polygon points="377.9528,0.0 377.9528,0.0 377.9528,0.0 377.9528,0.0"/>
    <polygon points="415.748,0.0 415.748,0.0 415.748,0.0 415.748,0.0"/>
    <polygon points="453.5433,0.0 453.5433,37.7953 491.3386,37.7953 491.3386,0.0"/>
    <polyline points="458.6831,2.6693 456.1831,6.1693 459.9331,6.1693"/>
    <line x1="458.6831" x2="458.6831" y1="2.6693" y2="7.9193"/>
    <line x1="469.9409" x2="469.9409" y1="11.3976" y2="24.5226"/>
    <line x1="469.9409" x2="474.9409" y1="11.3976" y2="24.5226"/>
    <line x1="479.9409" x2="474.9409" y1="11.3976" y2="24.5226"/>
    <line x1="479.9409" x2="479.9409" y1="11.3976" y2="24.5226"/>
    <polygon points="491.3386,0.0 491.3386,0.0 491.3386,0.0 491.3386,0.0"/>
    <polygon points="529.1339,0.0 529.1339,37.7953 566.9291,37.7953 566.9291,0.0"/>
    <polyline points="534.7736,2.6693 532.2736,2.6693 532.0236,4.9193 532.2736,4.6693 533.0236,4.4193 533.7736,4.4193 534.5236,4.6693 535.0236,5.1693 535.2736,5.9193 535.2736,6.4193 535.0236,7.1693 534.5236,7.6693 533.7736,7.9193 533.0236,7.9193 532.2736,7.6693 532.0236,7.4193 531.7736,6.9193"/>
    <line x1="546.7815" x2="546.7815" y1="11.3976" y2="24.5226"/>
    <line x1="546.7815" x2="554.2815" y1="24.5226" y2="24.5226"/>
    <polygon points="566.9291,0.0 566.9291,37.7953 604.7244,37.7953 604.7244,0.0"/>
    <polygon points="586.4518,11.3976 585.2018,12.0226 583.9518,13.2726 583.3268,14.5226 582.7018,16.3976 582.7018,19.5226 583.3268,21.3976 583.9518,22.6476 585.2018,23.8976 586.4518,24.5226 588.9518,24.5226 590.2018,23.8976 591.4518,22.6476 592.0768,21.3976 592.7018,19.5226 592.7018,16.3976 592.0768,14.5226 591.4518,13.2726 590.2018,12.0226 588.9518,11.3976"/>
    <polygon points="604.7244,0.0 604.7244,37.7953 642.5197,37.7953 642.5197,0.0"/>
    <polyline points="610.6142,3.4193 610.3642,2.9193 609.6142,2.6693 609.1142,2.6693 608.3642,2.9193 607.8642,3.6693 607.6142,4.9193 607.6142,6.1693 607.8642,7.1693 608.3642,7.6693 609.1142,7.9193 609.3642,7.9193 610.1142,7.6693 610.6142,7.1693 610.8642,6.4193 610.8642,6.1693 610.6142,5.4193 610.1142,4.9193 609.3642,4.6693 609.1142,4.6693 608.3642,4.9193 607.8642,5.4193 607.6142,6.1693"/>
    <line x1="621.747" x2="621.747" y1="11.3976" y2="24.5226"/>
    <polyline points="621.747,11.3976 627.372,11.3976 629.247,12.0226 629.872,12.6476 630.497,13.8976 630.497,15.1476 629.872,16.3976 629.247,17.0226 627.372,17.6476 621.747,17.6476"/>
    <line x1="626.122" x2="630.497" y1="17.6476" y2="24.5226"/>
    <polygon points="642.5197,0.0 642.5197,37.7953 680.315,37.7953 680.315,0.0"/>
    <line x1="659.8548" x2="659.8548" y1="11.3976" y2="24.5226"/>
    <line x1="659.8548" x2="667.9798" y1="11.3976" y2="11.3976"/>
    <line x1="659.8548" x2="664.8548" y1="17.6476" y2="17.6476"/>
    <line x1="659.8548" x2="667.9798" y1="24.5226" y2="24.5226"/>
    <polygon points="680.315,0.0 680.315,0.0 680.315,0.0 680.315,0.0"/>
    <polygon points="718.1102,0.0 718.1102,37.7953 755.9055,37.7953 755.9055,0.0"/>
    <line x1="724.25" x2="721.75" y1="2.6693" y2="7.9193"/>
    <line x1="720.75" x2="724.25" y1="2.6693" y2="2.6693"/>
    <line x1="735.1329" x2="735.1329" y1="11.3976" y2="24.5226"/>
    <line x1="743.8829" x2="735.1329" y1="11.3976" y2="20.1476"/>
    <line x1="738.2579" x2="743.8829" y1="17.0226" y2="24.5226"/>
    <polygon points="755.9055,0.0 755.9055,37.7953 793.7008,37.7953 793.7008,0.0"/>
    <line x1="775.4281" x2="770.4281" y1="11.3976" y2="24.5226"/>
    <line x1="775.4281" x2="780.4281" y1="11.3976" y2="24.5226"/>
    <line x1="772.3031" x2="778.5531" y1="20.1476" y2="20.1476"/>
    <polygon points="0.0,37.7953 0.0,37.7953 0.0,37.7953 0.0,37.7953"/>
    <polygon points="37.7953,37.7953 37.7953,75.5906 75.5906,75.5906 75.5906,37.7953"/>
    <polygon points="41.685,40.4646 40.935,40.7146 40.685,41.2146 40.685,41.7146 40.935,42.2146 41.435,42.4646 42.435,42.7146 43.185,42.9646 43.685,43.4646 43.935,43.9646 43.935,44.7146 43.685,45.2146 43.435,45.4646 42.685,45.7146 41.685,45.7146 40.935,45.4646 40.685,45.2146 40.435,44.7146 40.435,43.9646 40.685,43.4646 41.185,42.9646 41.935,42.7146 42.935,42.4646 43.435,42.2146 43.685,41.7146 43.685,41.2146 43.435,40.7146 42.685,40.4646"/>
    <line x1="54.8179" x2="54.8179" y1="49.1929" y2="62.3179"/>
    <polyline points="54.8179,49.1929 60.4429,49.1929 62.3179,49.8179 62.9429,50.4429 63.5679,51.6929 63.5679,53.5679 62.9429,54.8179 62.3179,55.4429 60.4429,56.0679 54.8179,56.0679"/>
    <polygon points="75.5906,37.7953 75.5906,37.7953 75.5906,37.7953 75.5906,37.7953"/>
    <polygon points="113.3858,37.7953 113.3858,75.5906 151.1811,75.5906 151.1811,37.7953"/>
    <line x1="134.7835" x2="134.7835" y1="49.1929" y2="62.3179"/>
    <polygon points="151.1811,37.7953 151.1811,37.7953 151.1811,37.7953 151.1811,37.7953"/>
    <polygon points="188.9764,37.7953 188.9764,75.5906 226.7717,75.5906 226.7717,37.7953"/>
    <line x1="210.374" x2="210.374" y1="49.1929" y2="62.3179"/>
    <polygon points="226.7717,37.7953 226.7717,37.7953 226.7717,37.7953 226.7717,37.7953"/>
    <polygon points="264.5669,37.7953 264.5669,37.7953 264.5669,37.7953 264.5669,37.7953"/>
    <polygon points="302.3622,37.7953 302.3622,37.7953 302.3622,37.7953 302.3622,37.7953"/>
    <polygon points="340.1575,37.7953 340.1575,37.7953 340.1575,37.7953 340.1575,37.7953"/>
    <polygon points="377.9528,37.7953 377.9528,37.7953 377.9528,37.7953 377.9528,37.7953"/>
    <polygon points="415.748,37.7953 415.748,75.5906 453.5433,75.5906 453.5433,37.7953"/>
    <line x1="435.2707" x2="430.2707" y1="49.1929" y2="62.3179"/>
    <line x1="435.2707" x2="440.2707" y1="49.1929" y2="62.3179"/>
    <line x1="432.1457" x2="438.3957" y1="57.9429" y2="57.9429"/>
    <polygon points="453.5433,37.7953 453.5433,37.7953 453.5433,37.7953 453.5433,37.7953"/>
    <polygon points="491.3386,37.7953 491.3386,37.7953 491.3386,37.7953 491.3386,37.7953"/>
    <polygon points="529.1339,37.7953 529.1339,37.7953 529.1339,37.7953 529.1339,37.7953"/>
    <polygon points="566.9291,37.7953 566.9291,75.5906 604.7244,75.5906 604.7244,37.7953"/>
    <line x1="584.2643" x2="584.2643" y1="49.1929" y2="62.3179"/>
    <line x1="584.2643" x2="592.3893" y1="49.1929" y2="49.1929"/>
    <line x1="584.2643" x2="589.2643" y1="55.4429" y2="55.4429"/>
    <line x1="584.2643" x2="592.3893" y1="62.3179" y2="62.3179"/>
    <polygon points="604.7244,37.7953 604.7244,37.7953 604.7244,37.7953 604.7244,37.7953"/>
    <polygon points="642.5197,37.7953 642.5197,37.7953 642.5197,37.7953 642.5197,37.7953"/>
    <polygon points="680.315,37.7953 680.315,75.5906 718.1102,75.5906 718.1102,37.7953"/>
    <line x1="701.7126" x2="701.7126" y1="49.1929" y2="62.3179"/>
    <polygon points="718.1102,37.7953 718.1102,75.5906 755.9055,75.5906 755.9055,37.7953"/>
    <line x1="735.1329" x2="735.1329" y1="49.1929" y2="62.3179"/>
    <line x1="743.8829" x2="735.1329" y1="49.1929" y2="57.9429"/>
    <line x1="738.2579" x2="743.8829" y1="54.8179" y2="62.3179"/>
    <polygon points="755.9055,37.7953 755.9055,37.7953 755.9055,37.7953 755.9055,37.7953"/>
    <polygon points="0.0,75.5906 0.0,113.3858 37.7953,113.3858 37.7953,75.5906"/>
    <line x1="19.5226" x2="14.5226" y1="86.9882" y2="100.1132"/>
    <line x1="19.5226" x2="24.5226" y1="86.9882" y2="100.1132"/>
    <line x1="16.3976" x2="22.6476" y1="95.7382" y2="95.7382"/>
    <polygon points="37.7953,75.5906 37.7953,75.5906 37.7953,75.5906 37.7953,75.5906"/>
    <polygon points="75.5906,75.5906 75.5906,113.3858 113.3858,113.3858 113.3858,75.5906"/>
    <line x1="92.9257" x2="92.9257" y1="86.9882" y2="100.1132"/>
    <line x1="92.9257" x2="101.0507" y1="86.9882" y2="86.9882"/>
    <line x1="92.9257" x2="97.9257" y1="93.2382" y2="93.2382"/>
    <polygon points="113.3858,75.5906 113.3858,75.5906 113.3858,75.5906 113.3858,75.5906"/>
    <polygon points="151.1811,75.5906 151.1811,113.3858 188.9764,113.3858 188.9764,75.5906"/>
    <line x1="170.7037" x2="170.7037" y1="86.9882" y2="100.1132"/>
    <line x1="166.3287" x2="175.0787" y1="86.9882" y2="86.9882"/>
    <polygon points="188.9764,75.5906 188.9764,75.5906 188.9764,75.5906 188.9764,75.5906"/>
    <polygon points="226.7717,75.5906 226.7717,113.3858 264.5669,113.3858 264.5669,75.5906"/>
    <polyline points="232.6614,80.0098 232.4114,80.7598 231.9114,81.2598 231.1614,81.5098 230.9114,81.5098 230.1614,81.2598 229.6614,80.7598 229.4114,80.0098 229.4114,79.7598 229.6614,79.0098 230.1614,78.5098 230.9114,78.2598 231.1614,78.2598 231.9114,78.5098 232.4114,79.0098 232.6614,80.0098 232.6614,81.2598 232.4114,82.5098 231.9114,83.2598 231.1614,83.5098 230.6614,83.5098 229.9114,83.2598 229.6614,82.7598"/>
    <line x1="243.7943" x2="243.7943" y1="86.9882" y2="100.1132"/>
    <polyline points="243.7943,86.9882 249.4193,86.9882 251.2943,87.6132 251.9193,88.2382 252.5443,89.4882 252.5443,90.7382 251.9193,91.9882 251.2943,92.6132 249.4193,93.2382 243.7943,93.2382"/>
    <line x1="248.1693" x2="252.5443" y1="93.2382" y2="100.1132"/>
    <polygon points="264.5669,75.5906 264.5669,113.3858 302.3622,113.3858 302.3622,75.5906"/>
    <line x1="281.9021" x2="281.9021" y1="86.9882" y2="100.1132"/>
    <line x1="281.9021" x2="290.0271" y1="86.9882" y2="86.9882"/>
    <line x1="281.9021" x2="286.9021" y1="93.2382" y2="93.2382"/>
    <line x1="281.9021" x2="290.0271" y1="100.1132" y2="100.1132"/>
    <polygon points="302.3622,75.5906 302.3622,113.3858 340.1575,113.3858 340.1575,75.5906"/>
    <polyline points="327.8223,90.1132 327.1973,88.8632 325.9473,87.6132 324.6973,86.9882 322.1973,86.9882 320.9473,87.6132 319.6973,88.8632 319.0723,90.1132 318.4473,91.9882 318.4473,95.1132 319.0723,96.9882 319.6973,98.2382 320.9473,99.4882 322.1973,100.1132 324.6973,100.1132 325.9473,99.4882 327.1973,98.2382 327.8223,96.9882 327.8223,95.1132"/>
    <line x1="324.6973" x2="327.8223" y1="95.1132" y2="95.1132"/>
    <polygon points="340.1575,75.5906 340.1575,113.3858 377.9528,113.3858 377.9528,75.5906"/>
    <line x1="357.4926" x2="357.4926" y1="86.9882" y2="100.1132"/>
    <line x1="357.4926" x2="365.6176" y1="86.9882" y2="86.9882"/>
    <line x1="357.4926" x2="362.4926" y1="93.2382" y2="93.2382"/>
    <line x1="357.4926" x2="365.6176" y1="100.1132" y2="100.1132"/>
    <polygon points="377.9528,75.5906 377.9528,113.3858 415.748,113.3858 415.748,75.5906"/>
    <line x1="394.9754" x2="394.9754" y1="86.9882" y2="100.1132"/>
    <line x1="394.9754" x2="403.7254" y1="86.9882" y2="100.1132"/>
    <line x1="403.7254" x2="403.7254" y1="86.9882" y2="100.1132"/>
    <polygon points="415.748,75.5906 415.748,113.3858 453.5433,113.3858 453.5433,75.5906"/>
    <line x1="432.7707" x2="432.7707" y1="86.9882" y2="100.1132"/>
    <polyline points="432.7707,86.9882 438.3957,86.9882 440.2707,87.6132 440.8957,88.2382 441.5207,89.4882 441.5207,90.7382 440.8957,91.9882 440.2707,92.6132 438.3957,93.2382"/>
    <polyline points="432.7707,93.2382 438.3957,93.2382 440.2707,93.8632 440.8957,94.4882 441.5207,95.7382 441.5207,97.6132 440.8957,98.8632 440.2707,99.4882 438.3957,100.1132 432.7707,100.1132"/>
    <polygon points="453.5433,75.5906 453.5433,113.3858 491.3386,113.3858 491.3386,75.5906"/>
    <polygon points="473.0659,86.9882 471.8159,87.6132 470.5659,88.8632 469.9409,90.1132 469.3159,91.9882 469.3159,95.1132 469.9409,96.9882 470.5659,98.2382 471.8159,99.4882 473.0659,100.1132 475.5659,100.1132 476.8159,99.4882 478.0659,98.2382 478.6909,96.9882 479.3159,95.1132 479.3159,91.9882 478.6909,90.1132 478.0659,88.8632 476.8159,87.6132 475.5659,86.9882"/>
    <polygon points="491.3386,75.5906 491.3386,113.3858 529.1339,113.3858 529.1339,75.5906"/>
    <polygon points="510.8612,86.9882 509.6112,87.6132 508.3612,88.8632 507.7362,90.1132 507.1112,91.9882 507.1112,95.1132 507.7362,96.9882 508.3612,98.2382 509.6112,99.4882 510.8612,100.1132 513.3612,100.1132 514.6112,99.4882 515.8612,98.2382 516.4862,96.9882 517.1112,95.1132 517.1112,91.9882 516.4862,90.1132 515.8612,88.8632 514.6112,87.6132 513.3612,86.9882"/>
    <polygon points="529.1339,75.5906 529.1339,113.3858 566.9291,113.3858 566.9291,75.5906"/>
    <polyline points="554.594,90.1132 553.969,88.8632 552.719,87.6132 551.469,86.9882 548.969,86.9882 547.719,87.6132 546.469,88.8632 545.844,90.1132 545.219,91.9882 545.219,95.1132 545.844,96.9882 546.469,98.2382 547.719,99.4882 548.969,100.1132 551.469,100.1132 552.719,99.4882 553.969,98.2382 554.594,96.9882 554.594,95.1132"/>
    <line x1="551.469" x2="554.594" y1="95.1132" y2="95.1132"/>
    <polygon points="566.9291,75.5906 566.9291,75.5906 566.9291,75.5906 566.9291,75.5906"/>
    <polygon points="604.7244,75.5906 604.7244,75.5906 604.7244,75.5906 604.7244,75.5906"/>
    <polygon points="642.5197,75.5906 642.5197,113.3858 680.315,113.3858 680.315,75.5906"/>
    <line x1="659.8548" x2="659.8548" y1="86.9882" y2="100.1132"/>
    <line x1="659.8548" x2="667.9798" y1="86.9882" y2="86.9882"/>
    <line x1="659.8548" x2="664.8548" y1="93.2382" y2="93.2382"/>
    <line x1="659.8548" x2="667.9798" y1="100.1132" y2="100.1132"/>
    <polygon points="680.315,75.5906 680.315,113.3858 718.1102,113.3858 718.1102,75.5906"/>
    <line x1="697.6501" x2="697.6501" y1="86.9882" y2="100.1132"/>
    <line x1="697.6501" x2="705.7751" y1="86.9882" y2="86.9882"/>
    <line x1="697.6501" x2="702.6501" y1="93.2382" y2="93.2382"/>
    <line x1="697.6501" x2="705.7751" y1="100.1132" y2="100.1132"/>
    <polygon points="718.1102,75.5906 718.1102,75.5906 718.1102,75.5906 718.1102,75.5906"/>
    <polygon points="755.9055,75.5906 755.9055,113.3858 793.7008,113.3858 793.7008,75.5906"/>
    <line x1="772.9281" x2="772.9281" y1="86.9882" y2="100.1132"/>
    <polyline points="772.9281,86.9882 778.5531,86.9882 780.4281,87.6132 781.0531,88.2382 781.6781,89.4882 781.6781,90.7382 781.0531,91.9882 780.4281,92.6132 778.5531,93.2382 772.9281,93.2382"/>
    <line x1="777.3031" x2="781.6781" y1="93.2382" y2="100.1132"/>
    <polygon points="0.0,113.3858 0.0,113.3858 0.0,113.3858 0.0,113.3858"/>
    <polygon points="37.7953,113.3858 37.7953,151.1811 75.5906,151.1811 75.5906,113.3858"/>
    <line x1="57.3179" x2="57.3179" y1="124.7835" y2="137.9085"/>
    <line x1="52.9429" x2="61.6929" y1="124.7835" y2="124.7835"/>
    <polygon points="75.5906,113.3858 75.5906,113.3858 75.5906,113.3858 75.5906,113.3858"/>
    <polygon points="113.3858,113.3858 113.3858,151.1811 151.1811,151.1811 151.1811,113.3858"/>
    <line x1="131.0335" x2="131.0335" y1="124.7835" y2="137.9085"/>
    <line x1="131.0335" x2="138.5335" y1="137.9085" y2="137.9085"/>
    <polygon points="151.1811,113.3858 151.1811,113.3858 151.1811,113.3858 151.1811,113.3858"/>
    <polygon points="188.9764,113.3858 188.9764,113.3858 188.9764,113.3858 188.9764,113.3858"/>
    <polygon points="226.7717,113.3858 226.7717,113.3858 226.7717,113.3858 226.7717,113.3858"/>
    <polygon points="264.5669,113.3858 264.5669,113.3858 264.5669,113.3858 264.5669,113.3858"/>
    <polygon points="302.3622,113.3858 302.3622,113.3858 302.3622,113.3858 302.3622,113.3858"/>
    <polygon points="340.1575,113.3858 340.1575,151.1811 377.9528,151.1811 377.9528,113.3858"/>
    <line x1="357.1801" x2="357.1801" y1="124.7835" y2="137.9085"/>
    <polyline points="357.1801,124.7835 361.5551,124.7835 363.4301,125.4085 364.6801,126.6585 365.3051,127.9085 365.9301,129.7835 365.9301,132.9085 365.3051,134.7835 364.6801,136.0335 363.4301,137.2835 361.5551,137.9085 357.1801,137.9085"/>
    <polygon points="377.9528,113.3858 377.9528,113.3858 377.9528,113.3858 377.9528,113.3858"/>
    <polygon points="415.748,113.3858 415.748,113.3858 415.748,113.3858 415.748,113.3858"/>
    <polygon points="453.5433,113.3858 453.5433,113.3858 453.5433,113.3858 453.5433,113.3858"/>
    <polygon points="491.3386,113.3858 491.3386,151.1811 529.1339,151.1811 529.1339,113.3858"/>
    <line x1="508.6737" x2="508.6737" y1="124.7835" y2="137.9085"/>
    <line x1="508.6737" x2="516.7987" y1="124.7835" y2="124.7835"/>
    <line x1="508.6737" x2="513.6737" y1="131.0335" y2="131.0335"/>
    <line x1="508.6737" x2="516.7987" y1="137.9085" y2="137.9085"/>
    <polygon points="529.1339,113.3858 529.1339,113.3858 529.1339,113.3858 529.1339,113.3858"/>
    <polygon points="566.9291,113.3858 566.9291,113.3858 566.9291,113.3858 566.9291,113.3858"/>
    <polygon points="604.7244,113.3858 604.7244,151.1811 642.5197,151.1811 642.5197,113.3858"/>
    <line x1="621.122" x2="621.122" y1="124.7835" y2="137.9085"/>
    <line x1="621.122" x2="626.122" y1="124.7835" y2="137.9085"/>
    <line x1="631.122" x2="626.122" y1="124.7835" y2="137.9085"/>
    <line x1="631.122" x2="631.122" y1="124.7835" y2="137.9085"/>
    <polygon points="642.5197,113.3858 642.5197,151.1811 680.315,151.1811 680.315,113.3858"/>
    <line x1="659.5423" x2="659.5423" y1="124.7835" y2="137.9085"/>
    <line x1="659.5423" x2="668.2923" y1="124.7835" y2="137.9085"/>
    <line x1="668.2923" x2="668.2923" y1="124.7835" y2="137.9085"/>
    <polygon points="680.315,113.3858 680.315,113.3858 680.315,113.3858 680.315,113.3858"/>
    <polygon points="718.1102,113.3858 718.1102,151.1811 755.9055,151.1811 755.9055,113.3858"/>
    <line x1="735.1329" x2="735.1329" y1="124.7835" y2="137.9085"/>
    <line x1="743.8829" x2="735.1329" y1="124.7835" y2="133.5335"/>
    <line x1="738.2579" x2="743.8829" y1="130.4085" y2="137.9085"/>
    <polygon points="755.9055,113.3858 755.9055,113.3858 755.9055,113.3858 755.9055,113.3858"/>
    <polygon points="0.0,151.1811 0.0,151.1811 0.0,151.1811 0.0,151.1811"/>
    <polygon points="37.7953,151.1811 37.7953,151.1811 37.7953,151.1811 37.7953,151.1811"/>
    <polygon points="75.5906,151.1811 75.5906,188.9764 113.3858,188.9764 113.3858,151.1811"/>
    <line x1="96.9882" x2="96.9882" y1="162.5787" y2="175.7037"/>
    <polygon points="113.3858,151.1811 113.3858,151.1811 113.3858,151.1811 113.3858,151.1811"/>
    <polygon points="151.1811,151.1811 151.1811,188.9764 188.9764,188.9764 188.9764,151.1811"/>
    <polyline points="154.5709,154.8504 155.0709,154.6004 155.8209,153.8504 155.8209,159.1004"/>
    <polygon points="160.3209,153.8504 159.5709,154.1004 159.0709,154.8504 158.8209,156.1004 158.8209,156.8504 159.0709,158.1004 159.5709,158.8504 160.3209,159.1004 160.8209,159.1004 161.5709,158.8504 162.0709,158.1004 162.3209,156.8504 162.3209,156.1004 162.0709,154.8504 161.5709,154.1004 160.8209,153.8504"/>
    <line x1="168.2037" x2="168.2037" y1="162.5787" y2="175.7037"/>
    <line x1="176.9537" x2="168.2037" y1="162.5787" y2="171.3287"/>
    <line x1="171.3287" x2="176.9537" y1="168.2037" y2="175.7037"/>
    <polygon points="188.9764,151.1811 188.9764,188.9764 226.7717,188.9764 226.7717,151.1811"/>
    <line x1="208.499" x2="203.499" y1="162.5787" y2="175.7037"/>
    <line x1="208.499" x2="213.499" y1="162.5787" y2="175.7037"/>
    <line x1="205.374" x2="211.624" y1="171.3287" y2="171.3287"/>
    <polygon points="226.7717,151.1811 226.7717,188.9764 264.5669,188.9764 264.5669,151.1811"/>
    <polyline points="230.1614,154.8504 230.6614,154.6004 231.4114,153.8504 231.4114,159.1004"/>
    <polyline points="235.1614,154.8504 235.6614,154.6004 236.4114,153.8504 236.4114,159.1004"/>
    <polyline points="251.9193,164.4537 250.6693,163.2037 248.7943,162.5787 246.2943,162.5787 244.4193,163.2037 243.1693,164.4537 243.1693,165.7037 243.7943,166.9537 244.4193,167.5787 245.6693,168.2037 249.4193,169.4537 250.6693,170.0787 251.2943,170.7037 251.9193,171.9537 251.9193,173.8287 250.6693,175.0787 248.7943,175.7037 246.2943,175.7037 244.4193,175.0787 243.1693,173.8287"/>
    <polygon points="264.5669,151.1811 264.5669,188.9764 302.3622,188.9764 302.3622,151.1811"/>
    <polyline points="289.7146,164.4537 288.4646,163.2037 286.5896,162.5787 284.0896,162.5787 282.2146,163.2037 280.9646,164.4537 280.9646,165.7037 281.5896,166.9537 282.2146,167.5787 283.4646,168.2037 287.2146,169.4537 288.4646,170.0787 289.0896,170.7037 289.7146,171.9537 289.7146,173.8287 288.4646,175.0787 286.5896,175.7037 284.0896,175.7037 282.2146,175.0787 280.9646,173.8287"/>
    <polygon points="302.3622,151.1811 302.3622,188.9764 340.1575,188.9764 340.1575,151.1811"/>
    <line x1="321.8848" x2="316.8848" y1="162.5787" y2="175.7037"/>
    <line x1="321.8848" x2="326.8848" y1="162.5787" y2="175.7037"/>
    <line x1="318.7598" x2="325.0098" y1="171.3287" y2="171.3287"/>
    <polygon points="340.1575,151.1811 340.1575,151.1811 340.1575,151.1811 340.1575,151.1811"/>
    <polygon points="377.9528,151.1811 377.9528,188.9764 415.748,188.9764 415.748,151.1811"/>
    <polyline points="381.3425,154.8504 381.8425,154.6004 382.5925,153.8504 382.5925,159.1004"/>
    <polyline points="385.8425,155.1004 385.8425,154.8504 386.0925,154.3504 386.3425,154.1004 386.8425,153.8504 387.8425,153.8504 388.3425,154.1004 388.5925,154.3504 388.8425,154.8504 388.8425,155.3504 388.5925,155.8504 388.0925,156.6004 385.5925,159.1004 389.0925,159.1004"/>
    <polyline points="403.4129,165.7037 402.7879,164.4537 401.5379,163.2037 400.2879,162.5787 397.7879,162.5787 396.5379,163.2037 395.2879,164.4537 394.6629,165.7037 394.0379,167.5787 394.0379,170.7037 394.6629,172.5787 395.2879,173.8287 396.5379,175.0787 397.7879,175.7037 400.2879,175.7037 401.5379,175.0787 402.7879,173.8287 403.4129,172.5787"/>
    <polygon points="415.748,151.1811 415.748,188.9764 453.5433,188.9764 453.5433,151.1811"/>
    <line x1="433.0832" x2="433.0832" y1="162.5787" y2="175.7037"/>
    <line x1="433.0832" x2="441.2082" y1="162.5787" y2="162.5787"/>
    <line x1="433.0832" x2="438.0832" y1="168.8287" y2="168.8287"/>
    <line x1="433.0832" x2="441.2082" y1="175.7037" y2="175.7037"/>
    <polygon points="453.5433,151.1811 453.5433,188.9764 491.3386,188.9764 491.3386,151.1811"/>
    <line x1="470.5659" x2="470.5659" y1="162.5787" y2="175.7037"/>
    <line x1="470.5659" x2="479.3159" y1="162.5787" y2="175.7037"/>
    <line x1="479.3159" x2="479.3159" y1="162.5787" y2="175.7037"/>
    <polygon points="491.3386,151.1811 491.3386,188.9764 529.1339,188.9764 529.1339,151.1811"/>
    <line x1="510.8612" x2="510.8612" y1="162.5787" y2="175.7037"/>
    <line x1="506.4862" x2="515.2362" y1="162.5787" y2="162.5787"/>
    <polygon points="529.1339,151.1811 529.1339,188.9764 566.9291,188.9764 566.9291,151.1811"/>
    <polyline points="552.4065,162.5787 552.4065,172.5787 551.7815,174.4537 551.1565,175.0787 549.9065,175.7037 548.6565,175.7037 547.4065,175.0787 546.7815,174.4537 546.1565,172.5787 546.1565,171.3287"/>
    <polygon points="566.9291,151.1811 566.9291,188.9764 604.7244,188.9764 604.7244,151.1811"/>
    <line x1="584.2643" x2="584.2643" y1="162.5787" y2="175.7037"/>
    <line x1="584.2643" x2="592.3893" y1="162.5787" y2="162.5787"/>
    <line x1="584.2643" x2="589.2643" y1="168.8287" y2="168.8287"/>
    <line x1="584.2643" x2="592.3893" y1="175.7037" y2="175.7037"/>
    <polygon points="604.7244,151.1811 604.7244,188.9764 642.5197,188.9764 642.5197,151.1811"/>
    <polyline points="608.1142,154.8504 608.6142,154.6004 609.3642,153.8504 609.3642,159.1004"/>
    <polyline points="612.8642,153.8504 615.6142,153.8504 614.1142,155.8504 614.8642,155.8504 615.3642,156.1004 615.6142,156.3504 615.8642,157.1004 615.8642,157.6004 615.6142,158.3504 615.1142,158.8504 614.3642,159.1004 613.6142,159.1004 612.8642,158.8504 612.6142,158.6004 612.3642,158.1004"/>
    <polyline points="629.872,164.4537 628.622,163.2037 626.747,162.5787 624.247,162.5787 622.372,163.2037 621.122,164.4537 621.122,165.7037 621.747,166.9537 622.372,167.5787 623.622,168.2037 627.372,169.4537 628.622,170.0787 629.247,170.7037 629.872,171.9537 629.872,173.8287 628.622,175.0787 626.747,175.7037 624.247,175.7037 622.372,175.0787 621.122,173.8287"/>
    <polygon points="642.5197,151.1811 642.5197,188.9764 680.315,188.9764 680.315,151.1811"/>
    <line x1="659.5423" x2="659.5423" y1="162.5787" y2="175.7037"/>
    <line x1="668.2923" x2="659.5423" y1="162.5787" y2="171.3287"/>
    <line x1="662.6673" x2="668.2923" y1="168.2037" y2="175.7037"/>
    <polygon points="680.315,151.1811 680.315,188.9764 718.1102,188.9764 718.1102,151.1811"/>
    <line x1="697.6501" x2="697.6501" y1="162.5787" y2="175.7037"/>
    <line x1="697.6501" x2="705.7751" y1="162.5787" y2="162.5787"/>
    <line x1="697.6501" x2="702.6501" y1="168.8287" y2="168.8287"/>
    <line x1="697.6501" x2="705.7751" y1="175.7037" y2="175.7037"/>
    <polygon points="718.1102,151.1811 718.1102,188.9764 755.9055,188.9764 755.9055,151.1811"/>
    <line x1="735.7579" x2="735.7579" y1="162.5787" y2="175.7037"/>
    <line x1="735.7579" x2="743.2579" y1="175.7037" y2="175.7037"/>
    <polygon points="755.9055,151.1811 755.9055,188.9764 793.7008,188.9764 793.7008,151.1811"/>
    <line x1="773.5531" x2="773.5531" y1="162.5787" y2="175.7037"/>
    <line x1="773.5531" x2="781.0531" y1="175.7037" y2="175.7037"/>
    <polygon points="0.0,188.9764 0.0,226.7717 37.7953,226.7717 37.7953,188.9764"/>
    <line x1="17.3351" x2="17.3351" y1="200.374" y2="213.499"/>
    <line x1="17.3351" x2="25.4601" y1="200.374" y2="200.374"/>
    <line x1="17.3351" x2="22.3351" y1="206.624" y2="206.624"/>
    <line x1="17.3351" x2="25.4601" y1="213.499" y2="213.499"/>
    <polygon points="37.7953,188.9764 37.7953,226.7717 75.5906,226.7717 75.5906,188.9764"/>
    <line x1="54.8179" x2="54.8179" y1="200.374" y2="213.499"/>
    <line x1="63.5679" x2="54.8179" y1="200.374" y2="209.124"/>
    <line x1="57.9429" x2="63.5679" y1="205.999" y2="213.499"/>
    <polygon points="75.5906,188.9764 75.5906,226.7717 113.3858,226.7717 113.3858,188.9764"/>
    <line x1="92.9257" x2="92.9257" y1="200.374" y2="213.499"/>
    <line x1="92.9257" x2="101.0507" y1="200.374" y2="200.374"/>
    <line x1="92.9257" x2="97.9257" y1="206.624" y2="206.624"/>
    <line x1="92.9257" x2="101.0507" y1="213.499" y2="213.499"/>
    <polygon points="113.3858,188.9764 113.3858,188.9764 113.3858,188.9764 113.3858,188.9764"/>
    <polygon points="151.1811,188.9764 151.1811,188.9764 151.1811,188.9764 151.1811,188.9764"/>
    <polygon points="188.9764,188.9764 188.9764,226.7717 226.7717,226.7717 226.7717,188.9764"/>
    <line x1="208.499" x2="208.499" y1="200.374" y2="213.499"/>
    <line x1="204.124" x2="212.874" y1="200.374" y2="200.374"/>
    <polygon points="226.7717,188.9764 226.7717,188.9764 226.7717,188.9764 226.7717,188.9764"/>
    <polygon points="264.5669,188.9764 264.5669,226.7717 302.3622,226.7717 302.3622,188.9764"/>
    <line x1="281.5896" x2="281.5896" y1="200.374" y2="213.499"/>
    <polyline points="281.5896,200.374 287.2146,200.374 289.0896,200.999 289.7146,201.624 290.3396,202.874 290.3396,204.124 289.7146,205.374 289.0896,205.999 287.2146,206.624 281.5896,206.624"/>
    <line x1="285.9646" x2="290.3396" y1="206.624" y2="213.499"/>
    <polygon points="302.3622,188.9764 302.3622,188.9764 302.3622,188.9764 302.3622,188.9764"/>
    <polygon points="340.1575,188.9764 340.1575,188.9764 340.1575,188.9764 340.1575,188.9764"/>
    <polygon points="377.9528,188.9764 377.9528,188.9764 377.9528,188.9764 377.9528,188.9764"/>
    <polygon points="415.748,188.9764 415.748,226.7717 453.5433,226.7717 453.5433,188.9764"/>
    <line x1="432.7707" x2="432.7707" y1="200.374" y2="213.499"/>
    <polyline points="432.7707,200.374 438.3957,200.374 440.2707,200.999 440.8957,201.624 441.5207,202.874 441.5207,204.124 440.8957,205.374 440.2707,205.999 438.3957,206.624"/>
    <polyline points="432.7707,206.624 438.3957,206.624 440.2707,207.249 440.8957,207.874 441.5207,209.124 441.5207,210.999 440.8957,212.249 440.2707,212.874 438.3957,213.499 432.7707,213.499"/>
    <polygon points="453.5433,188.9764 453.5433,188.9764 453.5433,188.9764 453.5433,188.9764"/>
    <polygon points="491.3386,188.9764 491.3386,188.9764 491.3386,188.9764 491.3386,188.9764"/>
    <polygon points="529.1339,188.9764 529.1339,226.7717 566.9291,226.7717 566.9291,188.9764"/>
    <line x1="546.1565" x2="546.1565" y1="200.374" y2="213.499"/>
    <line x1="546.1565" x2="554.9065" y1="200.374" y2="213.499"/>
    <line x1="554.9065" x2="554.9065" y1="200.374" y2="213.499"/>
    <polygon points="566.9291,188.9764 566.9291,188.9764 566.9291,188.9764 566.9291,188.9764"/>
    <polygon points="604.7244,188.9764 604.7244,188.9764 604.7244,188.9764 604.7244,188.9764"/>
    <polygon points="642.5197,188.9764 642.5197,226.7717 680.315,226.7717 680.315,188.9764"/>
    <line x1="659.5423" x2="659.5423" y1="200.374" y2="213.499"/>
    <polyline points="659.5423,200.374 665.1673,200.374 667.0423,200.999 667.6673,201.624 668.2923,202.874 668.2923,204.124 667.6673,205.374 667.0423,205.999 665.1673,206.624 659.5423,206.624"/>
    <line x1="663.9173" x2="668.2923" y1="206.624" y2="213.499"/>
    <polygon points="680.315,188.9764 680.315,188.9764 680.315,188.9764 680.315,188.9764"/>
    <polygon points="718.1102,188.9764 718.1102,188.9764 718.1102,188.9764 718.1102,188.9764"/>
    <polygon points="755.9055,188.9764 755.9055,188.9764 755.9055,188.9764 755.9055,188.9764"/>
    <polygon points="0.0,226.7717 0.0,264.5669 37.7953,264.5669 37.7953,226.7717"/>
    <line x1="17.0226" x2="17.0226" y1="238.1693" y2="251.2943"/>
    <line x1="25.7726" x2="17.0226" y1="238.1693" y2="246.9193"/>
    <line x1="20.1476" x2="25.7726" y1="243.7943" y2="251.2943"/>
    <polygon points="37.7953,226.7717 37.7953,226.7717 37.7953,226.7717 37.7953,226.7717"/>
    <polygon points="75.5906,226.7717 75.5906,226.7717 75.5906,226.7717 75.5906,226.7717"/>
    <polygon points="113.3858,226.7717 113.3858,226.7717 113.3858,226.7717 113.3858,226.7717"/>
    <polygon points="151.1811,226.7717 151.1811,264.5669 188.9764,264.5669 188.9764,226.7717"/>
    <line x1="168.5162" x2="168.5162" y1="238.1693" y2="251.2943"/>
    <line x1="168.5162" x2="176.6412" y1="238.1693" y2="238.1693"/>
    <line x1="168.5162" x2="173.5162" y1="244.4193" y2="244.4193"/>
    <line x1="168.5162" x2="176.6412" y1="251.2943" y2="251.2943"/>
    <polygon points="188.9764,226.7717 188.9764,226.7717 188.9764,226.7717 188.9764,226.7717"/>
    <polygon points="226.7717,226.7717 226.7717,264.5669 264.5669,264.5669 264.5669,226.7717"/>
    <line x1="248.1693" x2="248.1693" y1="238.1693" y2="251.2943"/>
    <polygon points="264.5669,226.7717 264.5669,226.7717 264.5669,226.7717 264.5669,226.7717"/>
    <polygon points="302.3622,226.7717 302.3622,264.5669 340.1575,264.5669 340.1575,226.7717"/>
    <polyline points="305.752,230.4409 306.252,230.1909 307.002,229.4409 307.002,234.6909"/>
    <polyline points="312.502,229.4409 310.002,232.9409 313.752,232.9409"/>
    <line x1="312.502" x2="312.502" y1="229.4409" y2="234.6909"/>
    <line x1="319.3848" x2="319.3848" y1="238.1693" y2="251.2943"/>
    <line x1="328.1348" x2="319.3848" y1="238.1693" y2="246.9193"/>
    <line x1="322.5098" x2="328.1348" y1="243.7943" y2="251.2943"/>
    <polygon points="340.1575,226.7717 340.1575,264.5669 377.9528,264.5669 377.9528,226.7717"/>
    <polygon points="359.6801,238.1693 358.4301,238.7943 357.1801,240.0443 356.5551,241.2943 355.9301,243.1693 355.9301,246.2943 356.5551,248.1693 357.1801,249.4193 358.4301,250.6693 359.6801,251.2943 362.1801,251.2943 363.4301,250.6693 364.6801,249.4193 365.3051,248.1693 365.9301,246.2943 365.9301,243.1693 365.3051,241.2943 364.6801,240.0443 363.4301,238.7943 362.1801,238.1693"/>
    <polygon points="377.9528,226.7717 377.9528,264.5669 415.748,264.5669 415.748,226.7717"/>
    <polyline points="394.9754,238.1693 394.9754,247.5443 395.6004,249.4193 396.8504,250.6693 398.7254,251.2943 399.9754,251.2943 401.8504,250.6693 403.1004,249.4193 403.7254,247.5443 403.7254,238.1693"/>
    <polygon points="415.748,226.7717 415.748,264.5669 453.5433,264.5669 453.5433,226.7717"/>
    <polyline points="440.8957,240.0443 439.6457,238.7943 437.7707,238.1693 435.2707,238.1693 433.3957,238.7943 432.1457,240.0443 432.1457,241.2943 432.7707,242.5443 433.3957,243.1693 434.6457,243.7943 438.3957,245.0443 439.6457,245.6693 440.2707,246.2943 440.8957,247.5443 440.8957,249.4193 439.6457,250.6693 437.7707,251.2943 435.2707,251.2943 433.3957,250.6693 432.1457,249.4193"/>
    <polygon points="453.5433,226.7717 453.5433,226.7717 453.5433,226.7717 453.5433,226.7717"/>
    <polygon points="491.3386,226.7717 491.3386,226.7717 491.3386,226.7717 491.3386,226.7717"/>
    <polygon points="529.1339,226.7717 529.1339,226.7717 529.1339,226.7717 529.1339,226.7717"/>
    <polygon points="566.9291,226.7717 566.9291,226.7717 566.9291,226.7717 566.9291,226.7717"/>
    <polygon points="604.7244,226.7717 604.7244,264.5669 642.5197,264.5669 642.5197,226.7717"/>
    <line x1="622.0595" x2="622.0595" y1="238.1693" y2="251.2943"/>
    <line x1="622.0595" x2="630.1845" y1="238.1693" y2="238.1693"/>
    <line x1="622.0595" x2="627.0595" y1="244.4193" y2="244.4193"/>
    <line x1="622.0595" x2="630.1845" y1="251.2943" y2="251.2943"/>
    <polygon points="642.5197,226.7717 642.5197,226.7717 642.5197,226.7717 642.5197,226.7717"/>
    <polygon points="680.315,226.7717 680.315,226.7717 680.315,226.7717 680.315,226.7717"/>
    <polygon points="718.1102,226.7717 718.1102,264.5669 755.9055,264.5669 755.9055,226.7717"/>
    <polyline points="721.5,230.4409 722.0,230.1909 722.75,229.4409 722.75,234.6909"/>
    <polyline points="728.75,229.4409 726.25,229.4409 726.0,231.6909 726.25,231.4409 727.0,231.1909 727.75,231.1909 728.5,231.4409 729.0,231.9409 729.25,232.6909 729.25,233.1909 729.0,233.9409 728.5,234.4409 727.75,234.6909 727.0,234.6909 726.25,234.4409 726.0,234.1909 725.75,233.6909"/>
    <line x1="735.1329" x2="735.1329" y1="238.1693" y2="251.2943"/>
    <polyline points="735.1329,238.1693 740.7579,238.1693 742.6329,238.7943 743.2579,239.4193 743.8829,240.6693 743.8829,241.9193 743.2579,243.1693 742.6329,243.7943 740.7579,244.4193 735.1329,244.4193"/>
    <line x1="739.5079" x2="743.8829" y1="244.4193" y2="251.2943"/>
    <polygon points="755.9055,226.7717 755.9055,264.5669 793.7008,264.5669 793.7008,226.7717"/>
    <line x1="773.2406" x2="773.2406" y1="238.1693" y2="251.2943"/>
    <line x1="773.2406" x2="781.3656" y1="238.1693" y2="238.1693"/>
    <line x1="773.2406" x2="778.2406" y1="244.4193" y2="244.4193"/>
    <line x1="773.2406" x2="781.3656" y1="251.2943" y2="251.2943"/>
    <polygon points="0.0,264.5669 0.0,302.3622 37.7953,302.3622 37.7953,264.5669"/>
    <line x1="17.0226" x2="17.0226" y1="275.9646" y2="289.0896"/>
    <line x1="25.7726" x2="17.0226" y1="275.9646" y2="284.7146"/>
    <line x1="20.1476" x2="25.7726" y1="281.5896" y2="289.0896"/>
    <polygon points="37.7953,264.5669 37.7953,302.3622 75.5906,302.3622 75.5906,264.5669"/>
    <line x1="54.8179" x2="54.8179" y1="275.9646" y2="289.0896"/>
    <line x1="63.5679" x2="54.8179" y1="275.9646" y2="284.7146"/>
    <line x1="57.9429" x2="63.5679" y1="281.5896" y2="289.0896"/>
    <polygon points="75.5906,264.5669 75.5906,302.3622 113.3858,302.3622 113.3858,264.5669"/>
    <line x1="92.9257" x2="92.9257" y1="275.9646" y2="289.0896"/>
    <line x1="92.9257" x2="101.0507" y1="275.9646" y2="275.9646"/>
    <line x1="92.9257" x2="97.9257" y1="282.2146" y2="282.2146"/>
    <line x1="92.9257" x2="101.0507" y1="289.0896" y2="289.0896"/>
    <polygon points="113.3858,264.5669 113.3858,302.3622 151.1811,302.3622 151.1811,264.5669"/>
    <line x1="130.4085" x2="130.4085" y1="275.9646" y2="289.0896"/>
    <polyline points="130.4085,275.9646 136.0335,275.9646 137.9085,276.5896 138.5335,277.2146 139.1585,278.4646 139.1585,279.7146 138.5335,280.9646 137.9085,281.5896 136.0335,282.2146 130.4085,282.2146"/>
    <line x1="134.7835" x2="139.1585" y1="282.2146" y2="289.0896"/>
    <polygon points="151.1811,264.5669 151.1811,302.3622 188.9764,302.3622 188.9764,264.5669"/>
    <line x1="170.7037" x2="170.7037" y1="275.9646" y2="289.0896"/>
    <line x1="166.3287" x2="175.0787" y1="275.9646" y2="275.9646"/>
    <polygon points="188.9764,264.5669 188.9764,302.3622 226.7717,302.3622 226.7717,264.5669"/>
    <polyline points="212.249,275.9646 212.249,285.9646 211.624,287.8396 210.999,288.4646 209.749,289.0896 208.499,289.0896 207.249,288.4646 206.624,287.8396 205.999,285.9646 205.999,284.7146"/>
    <polygon points="226.7717,264.5669 226.7717,302.3622 264.5669,302.3622 264.5669,264.5669"/>
    <line x1="244.1068" x2="244.1068" y1="275.9646" y2="289.0896"/>
    <line x1="244.1068" x2="252.2318" y1="275.9646" y2="275.9646"/>
    <line x1="244.1068" x2="249.1068" y1="282.2146" y2="282.2146"/>
    <line x1="244.1068" x2="252.2318" y1="289.0896" y2="289.0896"/>
    <polygon points="264.5669,264.5669 264.5669,264.5669 264.5669,264.5669 264.5669,264.5669"/>
    <polygon points="302.3622,264.5669 302.3622,264.5669 302.3622,264.5669 302.3622,264.5669"/>
    <polygon points="340.1575,264.5669 340.1575,302.3622 377.9528,302.3622 377.9528,264.5669"/>
    <line x1="361.5551" x2="361.5551" y1="275.9646" y2="289.0896"/>
    <polygon points="377.9528,264.5669 377.9528,264.5669 377.9528,264.5669 377.9528,264.5669"/>
    <polygon points="415.748,264.5669 415.748,264.5669 415.748,264.5669 415.748,264.5669"/>
    <polygon points="453.5433,264.5669 453.5433,264.5669 453.5433,264.5669 453.5433,264.5669"/>
    <polygon points="491.3386,264.5669 491.3386,302.3622 529.1339,302.3622 529.1339,264.5669"/>
    <polyline points="494.7283,268.2362 495.2283,267.9862 495.9783,267.2362 495.9783,272.4862"/>
    <polyline points="502.2283,267.9862 501.9783,267.4862 501.2283,267.2362 500.7283,267.2362 499.9783,267.4862 499.4783,268.2362 499.2283,269.4862 499.2283,270.7362 499.4783,271.7362 499.9783,272.2362 500.7283,272.4862 500.9783,272.4862 501.7283,272.2362 502.2283,271.7362 502.4783,270.9862 502.4783,270.7362 502.2283,269.9862 501.7283,269.4862 500.9783,269.2362 500.7283,269.2362 499.9783,269.4862 499.4783,269.9862 499.2283,270.7362"/>
    <line x1="516.4862" x2="507.7362" y1="275.9646" y2="289.0896"/>
    <line x1="507.7362" x2="516.4862" y1="275.9646" y2="275.9646"/>
    <line x1="507.7362" x2="516.4862" y1="289.0896" y2="289.0896"/>
    <polygon points="529.1339,264.5669 529.1339,302.3622 566.9291,302.3622 566.9291,264.5669"/>
    <polygon points="548.6565,275.9646 547.4065,276.5896 546.1565,277.8396 545.5315,279.0896 544.9065,280.9646 544.9065,284.0896 545.5315,285.9646 546.1565,287.2146 547.4065,288.4646 548.6565,289.0896 551.1565,289.0896 552.4065,288.4646 553.6565,287.2146 554.2815,285.9646 554.9065,284.0896 554.9065,280.9646 554.2815,279.0896 553.6565,277.8396 552.4065,276.5896 551.1565,275.9646"/>
    <polygon points="566.9291,264.5669 566.9291,302.3622 604.7244,302.3622 604.7244,264.5669"/>
    <line x1="583.9518" x2="583.9518" y1="275.9646" y2="289.0896"/>
    <line x1="583.9518" x2="592.7018" y1="275.9646" y2="289.0896"/>
    <line x1="592.7018" x2="592.7018" y1="275.9646" y2="289.0896"/>
    <polygon points="604.7244,264.5669 604.7244,264.5669 604.7244,264.5669 604.7244,264.5669"/>
    <polygon points="642.5197,264.5669 642.5197,264.5669 642.5197,264.5669 642.5197,264.5669"/>
    <polygon points="680.315,264.5669 680.315,264.5669 680.315,264.5669 680.315,264.5669"/>
    <polygon points="718.1102,264.5669 718.1102,302.3622 755.9055,302.3622 755.9055,264.5669"/>
    <line x1="735.1329" x2="735.1329" y1="275.9646" y2="289.0896"/>
    <line x1="735.1329" x2="743.8829" y1="275.9646" y2="289.0896"/>
    <line x1="743.8829" x2="743.8829" y1="275.9646" y2="289.0896"/>
    <polygon points="755.9055,264.5669 755.9055,264.5669 755.9055,264.5669 755.9055,264.5669"/>
    <polygon points="0.0,302.3622 0.0,302.3622 0.0,302.3622 0.0,302.3622"/>
    <polygon points="37.7953,302.3622 37.7953,302.3622 37.7953,302.3622 37.7953,302.3622"/>
    <polygon points="75.5906,302.3622 75.5906,302.3622 75.5906,302.3622 75.5906,302.3622"/>
    <polygon points="113.3858,302.3622 113.3858,302.3622 113.3858,302.3622 113.3858,302.3622"/>
    <polygon points="151.1811,302.3622 151.1811,340.1575 188.9764,340.1575 188.9764,302.3622"/>
    <line x1="168.2037" x2="168.2037" y1="313.7598" y2="326.8848"/>
    <line x1="168.2037" x2="176.9537" y1="313.7598" y2="326.8848"/>
    <line x1="176.9537" x2="176.9537" y1="313.7598" y2="326.8848"/>
    <polygon points="188.9764,302.3622 188.9764,302.3622 188.9764,302.3622 188.9764,302.3622"/>
    <polygon points="226.7717,302.3622 226.7717,302.3622 226.7717,302.3622 226.7717,302.3622"/>
    <polygon points="264.5669,302.3622 264.5669,302.3622 264.5669,302.3622 264.5669,302.3622"/>
    <polygon points="302.3622,302.3622 302.3622,302.3622 302.3622,302.3622 302.3622,302.3622"/>
    <polygon points="340.1575,302.3622 340.1575,302.3622 340.1575,302.3622 340.1575,302.3622"/>
    <polygon points="377.9528,302.3622 377.9528,302.3622 377.9528,302.3622 377.9528,302.3622"/>
    <polygon points="415.748,302.3622 415.748,302.3622 415.748,302.3622 415.748,302.3622"/>
    <polygon points="453.5433,302.3622 453.5433,302.3622 453.5433,302.3622 453.5433,302.3622"/>
    <polygon points="491.3386,302.3622 491.3386,302.3622 491.3386,302.3622 491.3386,302.3622"/>
    <polygon points="529.1339,302.3622 529.1339,302.3622 529.1339,302.3622 529.1339,302.3622"/>
    <polygon points="566.9291,302.3622 566.9291,302.3622 566.9291,302.3622 566.9291,302.3622"/>
    <polygon points="604.7244,302.3622 604.7244,302.3622 604.7244,302.3622 604.7244,302.3622"/>
    <polygon points="642.5197,302.3622 642.5197,302.3622 642.5197,302.3622 642.5197,302.3622"/>
    <polygon points="680.315,302.3622 680.315,302.3622 680.315,302.3622 680.315,302.3622"/>
    <polygon points="718.1102,302.3622 718.1102,302.3622 718.1102,302.3622 718.1102,302.3622"/>
    <polygon points="755.9055,302.3622 755.9055,302.3622 755.9055,302.3622 755.9055,302.3622"/>
  </g>
</svg>
