<?xml version="1.0" encoding="utf-8" ?>
<svg xmlns="http://www.w3.org/2000/svg" xmlns:cc="http://creativecommons.org/ns" xmlns:dc="http://purl.org/dc/elements/1.1/" xmlns:ev="http://www.w3.org/2001/xml-events" xmlns:inkscape="http://www.inkscape.org/namespaces/inkscape" xmlns:rdf="http://www.w3.org/1999/02/22-rdf-syntax-ns" xmlns:sodipodi="http://sodipodi.sourceforge.net/DTD/sodipodi-0.dtd" xmlns:xlink="http://www.w3.org/1999/xlink" baseProfile="tiny" height="9.9cm" version="1.2" viewBox="0 0 793.7007874015749 374.1732283464567" width="21.0cm">
  <metadata>
    <rdf:RDF>
      <cc:Work>
        <dc:format>image/svg+xml</dc:format>
        <dc:source>vpype eval 'cell=10;width=210;height=99' eval 'nCols=20;nRows=9' eval 'cells=[1,6,7,8,9,10,11,12,13,19,20,21,22,23,24,29,34,35,36,37,39,42,45,46,47,48,49,50,51,52,53,56,59,60,61,62,63,64,69,74,75,76,77,78,79,82,87,88,89,90,91,92,94,96,99,100,101,102,103,104,105,106,109,114,116,119,122,127,128,129,130,131,132,133,134,135,142,149,154,161,162,163,164,165,166,167,168,169,171,172,173,174]' eval 'chars=[&quot;J&quot;,&quot;P&quot;,&quot;A&quot;,&quot;R&quot;,&quot;K&quot;,&quot;E&quot;,&quot;R&quot;,&quot;E&quot;,&quot;N&quot;,&quot;L&quot;,&quot;K&quot;,&quot;A&quot;,&quot;S&quot;,&quot;S&quot;,&quot;A&quot;,&quot;L&quot;,&quot;L&quot;,&quot;O&quot;,&quot;R&quot;,&quot;E&quot;,&quot;A&quot;,&quot;K&quot;,&quot;M&quot;,&quot;A&quot;,&quot;N&quot;,&quot;D&quot;,&quot;A&quot;,&quot;R&quot;,&quot;I&quot;,&quot;J&quot;,&quot;N&quot;,&quot;A&quot;,&quot;U&quot;,&quot;T&quot;,&quot;R&quot;,&quot;E&quot;,&quot;I&quot;,&quot;N&quot;,&quot;V&quot;,&quot;L&quot;,&quot;A&quot;,&quot;D&quot;,&quot;D&quot;,&quot;E&quot;,&quot;R&quot;,&quot;L&quot;,&quot;K&quot;,&quot;I&quot;,&quot;E&quot;,&quot;M&quot;,&quot;E&quot;,&quot;N&quot;,&quot;A&quot;,&quot;I&quot;,&quot;E&quot;,&quot;V&quot;,&quot;E&quot;,&quot;L&quot;,&quot;L&quot;,&quot;E&quot;,&quot;K&quot;,&quot;E&quot;,&quot;R&quot;,&quot;K&quot;,&quot;O&quot;,&quot;N&quot;,&quot;E&quot;,&quot;U&quot;,&quot;I&quot;,&quot;T&quot;,&quot;L&quot;,&quot;I&quot;,&quot;K&quot;,&quot;K&quot;,&quot;E&quot;,&quot;N&quot;,&quot;K&quot;,&quot;J&quot;,&quot;N&quot;,&quot;R&quot;,&quot;E&quot;,&quot;K&quot;,&quot;K&quot;,&quot;E&quot;,&quot;R&quot;,&quot;T&quot;,&quot;J&quot;,&quot;E&quot;,&quot;G&quot;,&quot;R&quot;,&quot;A&quot;,&quot;S&quot;]' eval 'numbers=[1,6,9,19,20,22,34,36,45,60,74,87,100,127,161,171]' eval counter=1 eval charIndex=0 begin grid -o '%cell*mm%' '%cell*mm%' %nCols% %nRows% eval '%isCell=_i in cells%' eval '%number=_i in numbers%' eval '%size=10 if isCell else 0%' rect 0 0 '%size*mm%' '%size*mm%' text -s 10 -p 0.5mm 1.5mm '%counter if number else '&quot;'&quot;''&quot;'&quot;'%' text -s 20 -p 5mm 5mm -a center '%chars[charIndex] if isCell else '&quot;'&quot;''&quot;'&quot;'%' eval '%if number: counter+=1 %' eval '%if isCell: charIndex+=1 %' end splitall deduplicate linemerge --tolerance 0.1mm write -m none --page-size '%width*mm%x%height*mm%' --center ./svgs/solution/627dbd.svg
</dc:source>
        <dc:date>2023-12-23T07:44:50.880406</dc:date>
      </cc:Work>
    </rdf:RDF>
  </metadata>
  <defs/>
  <g fill="none" id="layer1" inkscape:groupmode="layer" inkscape:label="1" stroke="#000000" style="display:inline">
    <polygon points="56.6929,17.0079 56.6929,54.8031 56.6929,54.8031 18.8976,54.8031 18.8976,54.8031 18.8976,92.5984 18.8976,92.5984 56.6929,92.5984 56.6929,92.5984 94.4882,92.5984 94.4882,92.5984 94.4882,54.8031 94.4882,54.8031 94.4882,17.0079 94.4882,17.0079"/>
    <polyline points="56.6929,92.5984 56.6929,54.8031 56.6929,54.8031 94.4882,54.8031 94.4882,54.8031 132.2835,54.8031 132.2835,54.8031 132.2835,92.5984 132.2835,92.5984 170.0787,92.5984 170.0787,92.5984 207.874,92.5984 207.874,92.5984 207.874,130.3937 207.874,130.3937 170.0787,130.3937 170.0787,130.3937 132.2835,130.3937 132.2835,130.3937 132.2835,92.5984 132.2835,92.5984 94.4882,92.5984 94.4882,92.5984 94.4882,130.3937 94.4882,130.3937 132.2835,130.3937 132.2835,130.3937 132.2835,168.189 132.2835,168.189 170.0787,168.189 170.0787,168.189 207.874,168.189 207.874,168.189 207.874,130.3937 207.874,130.3937 245.6693,130.3937 245.6693,130.3937 245.6693,92.5984 245.6693,92.5984 207.874,92.5984 207.874,92.5984 207.874,54.8031 207.874,54.8031 170.0787,54.8031 170.0787,54.8031 132.2835,54.8031"/>
    <polyline points="60.4577,20.1772 61.0827,19.8647 61.0827,19.8647 62.0202,18.9272 62.0202,18.9272 62.0202,25.4897"/>
    <polyline points="79.9656,28.4055 79.9656,38.4055 79.9656,38.4055 79.3406,40.2805 79.3406,40.2805 78.7156,40.9055 78.7156,40.9055 77.4656,41.5305 77.4656,41.5305 76.2156,41.5305 76.2156,41.5305 74.9656,40.9055 74.9656,40.9055 74.3406,40.2805 74.3406,40.2805 73.7156,38.4055 73.7156,38.4055 73.7156,37.1555"/>
    <polygon points="245.6693,17.0079 245.6693,54.8031 245.6693,54.8031 283.4646,54.8031 283.4646,54.8031 321.2598,54.8031 321.2598,54.8031 321.2598,17.0079 321.2598,17.0079 283.4646,17.0079 283.4646,17.0079"/>
    <line x1="283.4646" x2="283.4646" y1="54.8031" y2="17.0079"/>
    <polyline points="248.8091,20.4897 248.8091,20.1772 248.8091,20.1772 249.1216,19.5522 249.1216,19.5522 249.4341,19.2397 249.4341,19.2397 250.0591,18.9272 250.0591,18.9272 251.3091,18.9272 251.3091,18.9272 251.9341,19.2397 251.9341,19.2397 252.2466,19.5522 252.2466,19.5522 252.5591,20.1772 252.5591,20.1772 252.5591,20.8022 252.5591,20.8022 252.2466,21.4272 252.2466,21.4272 251.6216,22.3647 251.6216,22.3647 248.4966,25.4897 248.4966,25.4897 252.8716,25.4897"/>
    <polyline points="262.6919,35.2805 268.3169,35.2805 268.3169,35.2805 270.1919,34.6555 270.1919,34.6555 270.8169,34.0305 270.8169,34.0305 271.4419,32.7805 271.4419,32.7805 271.4419,30.9055 271.4419,30.9055 270.8169,29.6555 270.8169,29.6555 270.1919,29.0305 270.1919,29.0305 268.3169,28.4055 268.3169,28.4055 262.6919,28.4055 262.6919,28.4055 262.6919,41.5305"/>
    <polyline points="307.9872,41.5305 302.9872,28.4055 302.9872,28.4055 297.9872,41.5305"/>
    <line x1="299.8622" x2="306.1122" y1="37.1555" y2="37.1555"/>
    <polyline points="321.2598,54.8031 359.0551,54.8031 359.0551,54.8031 359.0551,92.5984 359.0551,92.5984 396.8504,92.5984 396.8504,92.5984 396.8504,54.8031 396.8504,54.8031 396.8504,17.0079 396.8504,17.0079 359.0551,17.0079 359.0551,17.0079 321.2598,17.0079"/>
    <polyline points="396.8504,17.0079 434.6457,17.0079 434.6457,17.0079 434.6457,54.8031 434.6457,54.8031 396.8504,54.8031 396.8504,54.8031 359.0551,54.8031 359.0551,54.8031 359.0551,17.0079"/>
    <polyline points="338.2825,34.6555 343.9075,34.6555 343.9075,34.6555 345.7825,34.0305 345.7825,34.0305 346.4075,33.4055 346.4075,33.4055 347.0325,32.1555 347.0325,32.1555 347.0325,30.9055 347.0325,30.9055 346.4075,29.6555 346.4075,29.6555 345.7825,29.0305 345.7825,29.0305 343.9075,28.4055 343.9075,28.4055 338.2825,28.4055 338.2825,28.4055 338.2825,41.5305"/>
    <line x1="342.6575" x2="347.0325" y1="34.6555" y2="41.5305"/>
    <polyline points="362.5074,18.9272 365.9449,18.9272 365.9449,18.9272 364.0699,21.4272 364.0699,21.4272 365.0074,21.4272 365.0074,21.4272 365.6324,21.7397 365.6324,21.7397 365.9449,22.0522 365.9449,22.0522 366.2574,22.9897 366.2574,22.9897 366.2574,23.6147 366.2574,23.6147 365.9449,24.5522 365.9449,24.5522 365.3199,25.1772 365.3199,25.1772 364.3824,25.4897 364.3824,25.4897 363.4449,25.4897 363.4449,25.4897 362.5074,25.1772 362.5074,25.1772 362.1949,24.8647 362.1949,24.8647 361.8824,24.2397"/>
    <line x1="376.0778" x2="376.0778" y1="28.4055" y2="41.5305"/>
    <line x1="384.8278" x2="376.0778" y1="28.4055" y2="37.1555"/>
    <line x1="379.2028" x2="384.8278" y1="34.0305" y2="41.5305"/>
    <polyline points="422.3105,28.4055 414.1855,28.4055 414.1855,28.4055 414.1855,41.5305 414.1855,41.5305 422.3105,41.5305"/>
    <line x1="414.1855" x2="419.1855" y1="34.6555" y2="34.6555"/>
    <polyline points="434.6457,54.8031 472.4409,54.8031 472.4409,54.8031 472.4409,17.0079 472.4409,17.0079 434.6457,17.0079"/>
    <polyline points="451.6683,34.6555 457.2933,34.6555 457.2933,34.6555 459.1683,34.0305 459.1683,34.0305 459.7933,33.4055 459.7933,33.4055 460.4183,32.1555 460.4183,32.1555 460.4183,30.9055 460.4183,30.9055 459.7933,29.6555 459.7933,29.6555 459.1683,29.0305 459.1683,29.0305 457.2933,28.4055 457.2933,28.4055 451.6683,28.4055 451.6683,28.4055 451.6683,41.5305"/>
    <line x1="456.0433" x2="460.4183" y1="34.6555" y2="41.5305"/>
    <polyline points="472.4409,54.8031 510.2362,54.8031 510.2362,54.8031 548.0315,54.8031 548.0315,54.8031 548.0315,17.0079 548.0315,17.0079 510.2362,17.0079 510.2362,17.0079 472.4409,17.0079"/>
    <line x1="510.2362" x2="510.2362" y1="54.8031" y2="17.0079"/>
    <polyline points="497.9011,28.4055 489.7761,28.4055 489.7761,28.4055 489.7761,41.5305 489.7761,41.5305 497.9011,41.5305"/>
    <line x1="489.7761" x2="494.7761" y1="34.6555" y2="34.6555"/>
    <polyline points="536.0089,28.4055 536.0089,41.5305 536.0089,41.5305 527.2589,28.4055 527.2589,28.4055 527.2589,41.5305"/>
    <polyline points="737.0079,54.8031 774.8031,54.8031 774.8031,54.8031 774.8031,17.0079 774.8031,17.0079 737.0079,17.0079 737.0079,17.0079 737.0079,54.8031 737.0079,54.8031 737.0079,92.5984 737.0079,92.5984 737.0079,130.3937 737.0079,130.3937 699.2126,130.3937 699.2126,130.3937 661.4173,130.3937 661.4173,130.3937 661.4173,92.5984 661.4173,92.5984 699.2126,92.5984 699.2126,92.5984 699.2126,54.8031 699.2126,54.8031 661.4173,54.8031 661.4173,54.8031 623.622,54.8031 623.622,54.8031 585.8268,54.8031 585.8268,54.8031 548.0315,54.8031 548.0315,54.8031 548.0315,92.5984 548.0315,92.5984 585.8268,92.5984 585.8268,92.5984 585.8268,54.8031"/>
    <polyline points="742.9601,25.4897 742.9601,18.9272 742.9601,18.9272 739.8351,23.3022 739.8351,23.3022 744.5226,23.3022"/>
    <polyline points="754.6555,28.4055 754.6555,41.5305 754.6555,41.5305 762.1555,41.5305"/>
    <polyline points="25.4749,56.7224 22.3499,56.7224 22.3499,56.7224 22.0374,59.5349 22.0374,59.5349 22.3499,59.2224 22.3499,59.2224 23.2874,58.9099 23.2874,58.9099 24.2249,58.9099 24.2249,58.9099 25.1624,59.2224 25.1624,59.2224 25.7874,59.8474 25.7874,59.8474 26.0999,60.7849 26.0999,60.7849 26.0999,61.4099 26.0999,61.4099 25.7874,62.3474 25.7874,62.3474 25.1624,62.9724 25.1624,62.9724 24.2249,63.2849 24.2249,63.2849 23.2874,63.2849 23.2874,63.2849 22.3499,62.9724 22.3499,62.9724 22.0374,62.6599 22.0374,62.6599 21.7249,62.0349"/>
    <line x1="35.9203" x2="35.9203" y1="66.2008" y2="79.3258"/>
    <line x1="44.6703" x2="35.9203" y1="66.2008" y2="74.9508"/>
    <line x1="39.0453" x2="44.6703" y1="71.8258" y2="79.3258"/>
    <polyline points="81.2156,79.3258 76.2156,66.2008 76.2156,66.2008 71.2156,79.3258"/>
    <line x1="73.0906" x2="79.3406" y1="74.9508" y2="74.9508"/>
    <polyline points="101.378,57.6599 101.0655,57.0349 101.0655,57.0349 100.128,56.7224 100.128,56.7224 99.503,56.7224 99.503,56.7224 98.5655,57.0349 98.5655,57.0349 97.9405,57.9724 97.9405,57.9724 97.628,59.5349 97.628,59.5349 97.628,61.0974 97.628,61.0974 97.9405,62.3474 97.9405,62.3474 98.5655,62.9724 98.5655,62.9724 99.503,63.2849 99.503,63.2849 99.8155,63.2849 99.8155,63.2849 100.753,62.9724 100.753,62.9724 101.378,62.3474 101.378,62.3474 101.6905,61.4099 101.6905,61.4099 101.6905,61.0974 101.6905,61.0974 101.378,60.1599 101.378,60.1599 100.753,59.5349 100.753,59.5349 99.8155,59.2224 99.8155,59.2224 99.503,59.2224 99.503,59.2224 98.5655,59.5349 98.5655,59.5349 97.9405,60.1599 97.9405,60.1599 97.628,61.0974"/>
    <polyline points="119.6358,68.0758 118.3858,66.8258 118.3858,66.8258 116.5108,66.2008 116.5108,66.2008 114.0108,66.2008 114.0108,66.2008 112.1358,66.8258 112.1358,66.8258 110.8858,68.0758 110.8858,68.0758 110.8858,69.3258 110.8858,69.3258 111.5108,70.5758 111.5108,70.5758 112.1358,71.2008 112.1358,71.2008 113.3858,71.8258 113.3858,71.8258 117.1358,73.0758 117.1358,73.0758 118.3858,73.7008 118.3858,73.7008 119.0108,74.3258 119.0108,74.3258 119.6358,75.5758 119.6358,75.5758 119.6358,77.4508 119.6358,77.4508 118.3858,78.7008 118.3858,78.7008 116.5108,79.3258 116.5108,79.3258 114.0108,79.3258 114.0108,79.3258 112.1358,78.7008 112.1358,78.7008 110.8858,77.4508"/>
    <line x1="170.0787" x2="170.0787" y1="92.5984" y2="54.8031"/>
    <polyline points="157.4311,68.0758 156.1811,66.8258 156.1811,66.8258 154.3061,66.2008 154.3061,66.2008 151.8061,66.2008 151.8061,66.2008 149.9311,66.8258 149.9311,66.8258 148.6811,68.0758 148.6811,68.0758 148.6811,69.3258 148.6811,69.3258 149.3061,70.5758 149.3061,70.5758 149.9311,71.2008 149.9311,71.2008 151.1811,71.8258 151.1811,71.8258 154.9311,73.0758 154.9311,73.0758 156.1811,73.7008 156.1811,73.7008 156.8061,74.3258 156.8061,74.3258 157.4311,75.5758 157.4311,75.5758 157.4311,77.4508 157.4311,77.4508 156.1811,78.7008 156.1811,78.7008 154.3061,79.3258 154.3061,79.3258 151.8061,79.3258 151.8061,79.3258 149.9311,78.7008 149.9311,78.7008 148.6811,77.4508"/>
    <polyline points="194.6014,79.3258 189.6014,66.2008 189.6014,66.2008 184.6014,79.3258"/>
    <line x1="186.4764" x2="192.7264" y1="74.9508" y2="74.9508"/>
    <polyline points="376.7028,66.2008 376.7028,79.3258 376.7028,79.3258 384.2028,79.3258"/>
    <polyline points="550.8588,56.7224 555.2338,56.7224 555.2338,56.7224 552.1088,63.2849"/>
    <polyline points="565.6791,66.2008 565.6791,79.3258 565.6791,79.3258 573.1791,79.3258"/>
    <polyline points="585.8268,92.5984 623.622,92.5984 623.622,92.5984 623.622,130.3937 623.622,130.3937 585.8268,130.3937 585.8268,130.3937 548.0315,130.3937 548.0315,130.3937 548.0315,168.189 548.0315,168.189 548.0315,205.9843 548.0315,205.9843 585.8268,205.9843 585.8268,205.9843 585.8268,168.189 585.8268,168.189 585.8268,130.3937"/>
    <polyline points="661.4173,54.8031 661.4173,92.5984 661.4173,92.5984 623.622,92.5984 623.622,92.5984 623.622,54.8031"/>
    <polygon points="605.3494,66.2008 604.0994,66.8258 604.0994,66.8258 602.8494,68.0758 602.8494,68.0758 602.2244,69.3258 602.2244,69.3258 601.5994,71.2008 601.5994,71.2008 601.5994,74.3258 601.5994,74.3258 602.2244,76.2008 602.2244,76.2008 602.8494,77.4508 602.8494,77.4508 604.0994,78.7008 604.0994,78.7008 605.3494,79.3258 605.3494,79.3258 607.8494,79.3258 607.8494,79.3258 609.0994,78.7008 609.0994,78.7008 610.3494,77.4508 610.3494,77.4508 610.9744,76.2008 610.9744,76.2008 611.5994,74.3258 611.5994,74.3258 611.5994,71.2008 611.5994,71.2008 610.9744,69.3258 610.9744,69.3258 610.3494,68.0758 610.3494,68.0758 609.0994,66.8258 609.0994,66.8258 607.8494,66.2008 607.8494,66.2008"/>
    <polygon points="628.0118,56.7224 627.0743,57.0349 627.0743,57.0349 626.7618,57.6599 626.7618,57.6599 626.7618,58.2849 626.7618,58.2849 627.0743,58.9099 627.0743,58.9099 627.6993,59.2224 627.6993,59.2224 628.9493,59.5349 628.9493,59.5349 629.8868,59.8474 629.8868,59.8474 630.5118,60.4724 630.5118,60.4724 630.8243,61.0974 630.8243,61.0974 630.8243,62.0349 630.8243,62.0349 630.5118,62.6599 630.5118,62.6599 630.1993,62.9724 630.1993,62.9724 629.2618,63.2849 629.2618,63.2849 628.0118,63.2849 628.0118,63.2849 627.0743,62.9724 627.0743,62.9724 626.7618,62.6599 626.7618,62.6599 626.4493,62.0349 626.4493,62.0349 626.4493,61.0974 626.4493,61.0974 626.7618,60.4724 626.7618,60.4724 627.3868,59.8474 627.3868,59.8474 628.3243,59.5349 628.3243,59.5349 629.5743,59.2224 629.5743,59.2224 630.1993,58.9099 630.1993,58.9099 630.5118,58.2849 630.5118,58.2849 630.5118,57.6599 630.5118,57.6599 630.1993,57.0349 630.1993,57.0349 629.2618,56.7224 629.2618,56.7224"/>
    <polyline points="640.6447,72.4508 646.2697,72.4508 646.2697,72.4508 648.1447,71.8258 648.1447,71.8258 648.7697,71.2008 648.7697,71.2008 649.3947,69.9508 649.3947,69.9508 649.3947,68.7008 649.3947,68.7008 648.7697,67.4508 648.7697,67.4508 648.1447,66.8258 648.1447,66.8258 646.2697,66.2008 646.2697,66.2008 640.6447,66.2008 640.6447,66.2008 640.6447,79.3258"/>
    <line x1="645.0197" x2="649.3947" y1="72.4508" y2="79.3258"/>
    <polyline points="686.8775,66.2008 678.7525,66.2008 678.7525,66.2008 678.7525,79.3258 678.7525,79.3258 686.8775,79.3258"/>
    <line x1="678.7525" x2="683.7525" y1="72.4508" y2="72.4508"/>
    <polyline points="737.0079,92.5984 774.8031,92.5984 774.8031,92.5984 774.8031,54.8031"/>
    <polyline points="761.5305,79.3258 756.5305,66.2008 756.5305,66.2008 751.5305,79.3258"/>
    <line x1="753.4055" x2="759.6555" y1="74.9508" y2="74.9508"/>
    <line x1="111.5108" x2="111.5108" y1="103.9961" y2="117.1211"/>
    <line x1="120.2608" x2="111.5108" y1="103.9961" y2="112.7461"/>
    <line x1="114.6358" x2="120.2608" y1="109.6211" y2="117.1211"/>
    <polyline points="214.7638,96.7052 214.4513,97.6427 214.4513,97.6427 213.8263,98.2677 213.8263,98.2677 212.8888,98.5802 212.8888,98.5802 212.5763,98.5802 212.5763,98.5802 211.6388,98.2677 211.6388,98.2677 211.0138,97.6427 211.0138,97.6427 210.7013,96.7052 210.7013,96.7052 210.7013,96.3927 210.7013,96.3927 211.0138,95.4552 211.0138,95.4552 211.6388,94.8302 211.6388,94.8302 212.5763,94.5177 212.5763,94.5177 212.8888,94.5177 212.8888,94.5177 213.8263,94.8302 213.8263,94.8302 214.4513,95.4552 214.4513,95.4552 214.7638,96.7052 214.7638,96.7052 214.7638,98.2677 214.7638,98.2677 214.4513,99.8302 214.4513,99.8302 213.8263,100.7677 213.8263,100.7677 212.8888,101.0802 212.8888,101.0802 212.2638,101.0802 212.2638,101.0802 211.3263,100.7677 211.3263,100.7677 211.0138,100.1427"/>
    <polyline points="234.2717,117.1211 234.2717,103.9961 234.2717,103.9961 229.2717,117.1211 229.2717,117.1211 224.2717,103.9961 224.2717,103.9961 224.2717,117.1211"/>
    <polyline points="245.6693,130.3937 283.4646,130.3937 283.4646,130.3937 321.2598,130.3937 321.2598,130.3937 359.0551,130.3937 359.0551,130.3937 396.8504,130.3937 396.8504,130.3937 396.8504,92.5984 396.8504,92.5984 434.6457,92.5984 434.6457,92.5984 434.6457,130.3937 434.6457,130.3937 396.8504,130.3937 396.8504,130.3937 396.8504,168.189 396.8504,168.189 359.0551,168.189 359.0551,168.189 321.2598,168.189 321.2598,168.189 283.4646,168.189 283.4646,168.189 283.4646,205.9843 283.4646,205.9843 321.2598,205.9843 321.2598,205.9843 321.2598,168.189"/>
    <polyline points="283.4646,130.3937 283.4646,92.5984 283.4646,92.5984 245.6693,92.5984"/>
    <polyline points="270.1919,117.1211 265.1919,103.9961 265.1919,103.9961 260.1919,117.1211"/>
    <line x1="262.0669" x2="268.3169" y1="112.7461" y2="112.7461"/>
    <polyline points="321.2598,130.3937 321.2598,92.5984 321.2598,92.5984 283.4646,92.5984"/>
    <polyline points="309.2372,103.9961 309.2372,117.1211 309.2372,117.1211 300.4872,103.9961 300.4872,103.9961 300.4872,117.1211"/>
    <polyline points="321.2598,205.9843 359.0551,205.9843 359.0551,205.9843 396.8504,205.9843 396.8504,205.9843 396.8504,168.189 396.8504,168.189 434.6457,168.189 434.6457,168.189 434.6457,205.9843 434.6457,205.9843 396.8504,205.9843 396.8504,205.9843 396.8504,243.7795 396.8504,243.7795 359.0551,243.7795 359.0551,243.7795 359.0551,205.9843 359.0551,205.9843 359.0551,168.189 359.0551,168.189 359.0551,130.3937 359.0551,130.3937 359.0551,92.5984 359.0551,92.5984 321.2598,92.5984"/>
    <polygon points="338.2825,103.9961 338.2825,117.1211 338.2825,117.1211 342.6575,117.1211 342.6575,117.1211 344.5325,116.4961 344.5325,116.4961 345.7825,115.2461 345.7825,115.2461 346.4075,113.9961 346.4075,113.9961 347.0325,112.1211 347.0325,112.1211 347.0325,108.9961 347.0325,108.9961 346.4075,107.1211 346.4075,107.1211 345.7825,105.8711 345.7825,105.8711 344.5325,104.6211 344.5325,104.6211 342.6575,103.9961 342.6575,103.9961"/>
    <polyline points="383.5778,117.1211 378.5778,103.9961 378.5778,103.9961 373.5778,117.1211"/>
    <line x1="375.4528" x2="381.7028" y1="112.7461" y2="112.7461"/>
    <polyline points="413.873,110.2461 419.498,110.2461 419.498,110.2461 421.373,109.6211 421.373,109.6211 421.998,108.9961 421.998,108.9961 422.623,107.7461 422.623,107.7461 422.623,106.4961 422.623,106.4961 421.998,105.2461 421.998,105.2461 421.373,104.6211 421.373,104.6211 419.498,103.9961 419.498,103.9961 413.873,103.9961 413.873,103.9961 413.873,117.1211"/>
    <line x1="418.248" x2="422.623" y1="110.2461" y2="117.1211"/>
    <polyline points="434.6457,130.3937 472.4409,130.3937 472.4409,130.3937 510.2362,130.3937 510.2362,130.3937 548.0315,130.3937 548.0315,130.3937 548.0315,92.5984 548.0315,92.5984 510.2362,92.5984 510.2362,92.5984 472.4409,92.5984 472.4409,92.5984 434.6457,92.5984"/>
    <line x1="472.4409" x2="472.4409" y1="130.3937" y2="92.5984"/>
    <line x1="456.0433" x2="456.0433" y1="103.9961" y2="117.1211"/>
    <line x1="510.2362" x2="510.2362" y1="130.3937" y2="92.5984"/>
    <polyline points="495.7136,103.9961 495.7136,113.9961 495.7136,113.9961 495.0886,115.8711 495.0886,115.8711 494.4636,116.4961 494.4636,116.4961 493.2136,117.1211 493.2136,117.1211 491.9636,117.1211 491.9636,117.1211 490.7136,116.4961 490.7136,116.4961 490.0886,115.8711 490.0886,115.8711 489.4636,113.9961 489.4636,113.9961 489.4636,112.7461"/>
    <polyline points="536.0089,103.9961 536.0089,117.1211 536.0089,117.1211 527.2589,103.9961 527.2589,103.9961 527.2589,117.1211"/>
    <polyline points="548.0315,168.189 585.8268,168.189 585.8268,168.189 623.622,168.189 623.622,168.189 661.4173,168.189 661.4173,168.189 661.4173,205.9843 661.4173,205.9843 661.4173,243.7795 661.4173,243.7795 623.622,243.7795 623.622,243.7795 623.622,205.9843 623.622,205.9843 623.622,168.189 623.622,168.189 623.622,130.3937 623.622,130.3937 661.4173,130.3937 661.4173,130.3937 661.4173,168.189 661.4173,168.189 699.2126,168.189 699.2126,168.189 699.2126,130.3937"/>
    <polyline points="648.1447,117.1211 643.1447,103.9961 643.1447,103.9961 638.1447,117.1211"/>
    <line x1="640.0197" x2="646.2697" y1="112.7461" y2="112.7461"/>
    <polyline points="774.8031,130.3937 774.8031,168.189 774.8031,168.189 774.8031,205.9843 774.8031,205.9843 737.0079,205.9843 737.0079,205.9843 737.0079,168.189 737.0079,168.189 737.0079,130.3937 737.0079,130.3937 774.8031,130.3937 774.8031,130.3937 774.8031,92.5984"/>
    <polyline points="754.0305,103.9961 754.0305,113.3711 754.0305,113.3711 754.6555,115.2461 754.6555,115.2461 755.9055,116.4961 755.9055,116.4961 757.7805,117.1211 757.7805,117.1211 759.0305,117.1211 759.0305,117.1211 760.9055,116.4961 760.9055,116.4961 762.1555,115.2461 762.1555,115.2461 762.7805,113.3711 762.7805,113.3711 762.7805,103.9961"/>
    <polygon points="18.8976,130.3937 18.8976,168.189 18.8976,168.189 56.6929,168.189 56.6929,168.189 94.4882,168.189 94.4882,168.189 94.4882,130.3937 94.4882,130.3937 56.6929,130.3937 56.6929,130.3937"/>
    <line x1="56.6929" x2="56.6929" y1="168.189" y2="130.3937"/>
    <polyline points="22.6624,133.563 23.2874,133.2505 23.2874,133.2505 24.2249,132.313 24.2249,132.313 24.2249,138.8755"/>
    <polygon points="29.8499,132.313 28.9124,132.6255 28.9124,132.6255 28.2874,133.563 28.2874,133.563 27.9749,135.1255 27.9749,135.1255 27.9749,136.063 27.9749,136.063 28.2874,137.6255 28.2874,137.6255 28.9124,138.563 28.9124,138.563 29.8499,138.8755 29.8499,138.8755 30.4749,138.8755 30.4749,138.8755 31.4124,138.563 31.4124,138.563 32.0374,137.6255 32.0374,137.6255 32.3499,136.063 32.3499,136.063 32.3499,135.1255 32.3499,135.1255 32.0374,133.563 32.0374,133.563 31.4124,132.6255 31.4124,132.6255 30.4749,132.313 30.4749,132.313"/>
    <line x1="38.4203" x2="38.4203" y1="141.7913" y2="154.9163"/>
    <line x1="34.0453" x2="42.7953" y1="141.7913" y2="141.7913"/>
    <polyline points="73.7156,148.0413 79.3406,148.0413 79.3406,148.0413 81.2156,147.4163 81.2156,147.4163 81.8406,146.7913 81.8406,146.7913 82.4656,145.5413 82.4656,145.5413 82.4656,144.2913 82.4656,144.2913 81.8406,143.0413 81.8406,143.0413 81.2156,142.4163 81.2156,142.4163 79.3406,141.7913 79.3406,141.7913 73.7156,141.7913 73.7156,141.7913 73.7156,154.9163"/>
    <line x1="78.0906" x2="82.4656" y1="148.0413" y2="154.9163"/>
    <polyline points="132.2835,357.1654 132.2835,319.3701 132.2835,319.3701 170.0787,319.3701 170.0787,319.3701 170.0787,357.1654 170.0787,357.1654 132.2835,357.1654 132.2835,357.1654 94.4882,357.1654 94.4882,357.1654 56.6929,357.1654 56.6929,357.1654 56.6929,319.3701 56.6929,319.3701 94.4882,319.3701 94.4882,319.3701 132.2835,319.3701 132.2835,319.3701 132.2835,281.5748 132.2835,281.5748 132.2835,243.7795 132.2835,243.7795 132.2835,205.9843 132.2835,205.9843 170.0787,205.9843 170.0787,205.9843 207.874,205.9843 207.874,205.9843 245.6693,205.9843 245.6693,205.9843 245.6693,243.7795 245.6693,243.7795 207.874,243.7795 207.874,243.7795 170.0787,243.7795 170.0787,243.7795 132.2835,243.7795 132.2835,243.7795 94.4882,243.7795 94.4882,243.7795 94.4882,205.9843 94.4882,205.9843 94.4882,168.189 94.4882,168.189 132.2835,168.189 132.2835,168.189 132.2835,205.9843 132.2835,205.9843 94.4882,205.9843 94.4882,205.9843 56.6929,205.9843 56.6929,205.9843 18.8976,205.9843 18.8976,205.9843 18.8976,243.7795 18.8976,243.7795 56.6929,243.7795 56.6929,243.7795 56.6929,205.9843"/>
    <polyline points="119.9483,141.7913 111.8233,141.7913 111.8233,141.7913 111.8233,154.9163 111.8233,154.9163 119.9483,154.9163"/>
    <line x1="111.8233" x2="116.8233" y1="148.0413" y2="148.0413"/>
    <line x1="170.0787" x2="170.0787" y1="168.189" y2="130.3937"/>
    <line x1="153.6811" x2="153.6811" y1="141.7913" y2="154.9163"/>
    <polyline points="195.8514,141.7913 195.8514,154.9163 195.8514,154.9163 187.1014,141.7913 187.1014,141.7913 187.1014,154.9163"/>
    <polyline points="373.5778,141.7913 378.5778,154.9163 378.5778,154.9163 383.5778,141.7913"/>
    <polyline points="551.7963,133.563 552.4213,133.2505 552.4213,133.2505 553.3588,132.313 553.3588,132.313 553.3588,138.8755"/>
    <polyline points="558.0463,133.563 558.6713,133.2505 558.6713,133.2505 559.6088,132.313 559.6088,132.313 559.6088,138.8755"/>
    <polyline points="565.6791,141.7913 565.6791,154.9163 565.6791,154.9163 573.1791,154.9163"/>
    <polyline points="610.3494,154.9163 605.3494,141.7913 605.3494,141.7913 600.3494,154.9163"/>
    <line x1="602.2244" x2="608.4744" y1="150.5413" y2="150.5413"/>
    <polygon points="640.6447,141.7913 640.6447,154.9163 640.6447,154.9163 645.0197,154.9163 645.0197,154.9163 646.8947,154.2913 646.8947,154.2913 648.1447,153.0413 648.1447,153.0413 648.7697,151.7913 648.7697,151.7913 649.3947,149.9163 649.3947,149.9163 649.3947,146.7913 649.3947,146.7913 648.7697,144.9163 648.7697,144.9163 648.1447,143.6663 648.1447,143.6663 646.8947,142.4163 646.8947,142.4163 645.0197,141.7913 645.0197,141.7913"/>
    <polygon points="678.44,141.7913 678.44,154.9163 678.44,154.9163 682.815,154.9163 682.815,154.9163 684.69,154.2913 684.69,154.2913 685.94,153.0413 685.94,153.0413 686.565,151.7913 686.565,151.7913 687.19,149.9163 687.19,149.9163 687.19,146.7913 687.19,146.7913 686.565,144.9163 686.565,144.9163 685.94,143.6663 685.94,143.6663 684.69,142.4163 684.69,142.4163 682.815,141.7913 682.815,141.7913"/>
    <polyline points="699.2126,168.189 737.0079,168.189 737.0079,168.189 774.8031,168.189"/>
    <polyline points="724.6727,141.7913 716.5477,141.7913 716.5477,141.7913 716.5477,154.9163 716.5477,154.9163 724.6727,154.9163"/>
    <line x1="716.5477" x2="721.5477" y1="148.0413" y2="148.0413"/>
    <polyline points="754.0305,148.0413 759.6555,148.0413 759.6555,148.0413 761.5305,147.4163 761.5305,147.4163 762.1555,146.7913 762.1555,146.7913 762.7805,145.5413 762.7805,145.5413 762.7805,144.2913 762.7805,144.2913 762.1555,143.0413 762.1555,143.0413 761.5305,142.4163 761.5305,142.4163 759.6555,141.7913 759.6555,141.7913 754.0305,141.7913 754.0305,141.7913 754.0305,154.9163"/>
    <line x1="758.4055" x2="762.7805" y1="148.0413" y2="154.9163"/>
    <polyline points="112.1358,179.5866 112.1358,192.7116 112.1358,192.7116 119.6358,192.7116"/>
    <polyline points="287.2293,171.3583 287.8543,171.0458 287.8543,171.0458 288.7918,170.1083 288.7918,170.1083 288.7918,176.6708"/>
    <polyline points="292.8543,171.6708 292.8543,171.3583 292.8543,171.3583 293.1668,170.7333 293.1668,170.7333 293.4793,170.4208 293.4793,170.4208 294.1043,170.1083 294.1043,170.1083 295.3543,170.1083 295.3543,170.1083 295.9793,170.4208 295.9793,170.4208 296.2918,170.7333 296.2918,170.7333 296.6043,171.3583 296.6043,171.3583 296.6043,171.9833 296.6043,171.9833 296.2918,172.6083 296.2918,172.6083 295.6668,173.5458 295.6668,173.5458 292.5418,176.6708 292.5418,176.6708 296.9168,176.6708"/>
    <line x1="300.4872" x2="300.4872" y1="179.5866" y2="192.7116"/>
    <line x1="309.2372" x2="300.4872" y1="179.5866" y2="188.3366"/>
    <line x1="303.6122" x2="309.2372" y1="185.2116" y2="192.7116"/>
    <line x1="342.6575" x2="342.6575" y1="179.5866" y2="192.7116"/>
    <polyline points="384.5153,179.5866 376.3903,179.5866 376.3903,179.5866 376.3903,192.7116 376.3903,192.7116 384.5153,192.7116"/>
    <line x1="376.3903" x2="381.3903" y1="185.8366" y2="185.8366"/>
    <polyline points="423.248,192.7116 423.248,179.5866 423.248,179.5866 418.248,192.7116 418.248,192.7116 413.248,179.5866 413.248,179.5866 413.248,192.7116"/>
    <polyline points="434.6457,205.9843 472.4409,205.9843 472.4409,205.9843 472.4409,168.189 472.4409,168.189 434.6457,168.189"/>
    <polyline points="460.1058,179.5866 451.9808,179.5866 451.9808,179.5866 451.9808,192.7116 451.9808,192.7116 460.1058,192.7116"/>
    <line x1="451.9808" x2="456.9808" y1="185.8366" y2="185.8366"/>
    <polyline points="472.4409,205.9843 510.2362,205.9843 510.2362,205.9843 510.2362,168.189 510.2362,168.189 472.4409,168.189"/>
    <polyline points="498.2136,179.5866 498.2136,192.7116 498.2136,192.7116 489.4636,179.5866 489.4636,179.5866 489.4636,192.7116"/>
    <polyline points="572.5541,192.7116 567.5541,179.5866 567.5541,179.5866 562.5541,192.7116"/>
    <line x1="564.4291" x2="570.6791" y1="188.3366" y2="188.3366"/>
    <line x1="623.622" x2="661.4173" y1="205.9843" y2="205.9843"/>
    <line x1="645.0197" x2="645.0197" y1="179.5866" y2="192.7116"/>
    <polyline points="762.468,179.5866 754.343,179.5866 754.343,179.5866 754.343,192.7116 754.343,192.7116 762.468,192.7116"/>
    <line x1="754.343" x2="759.343" y1="185.8366" y2="185.8366"/>
    <polyline points="22.6624,209.1535 23.2874,208.841 23.2874,208.841 24.2249,207.9035 24.2249,207.9035 24.2249,214.466"/>
    <polyline points="28.5999,207.9035 32.0374,207.9035 32.0374,207.9035 30.1624,210.4035 30.1624,210.4035 31.0999,210.4035 31.0999,210.4035 31.7249,210.716 31.7249,210.716 32.0374,211.0285 32.0374,211.0285 32.3499,211.966 32.3499,211.966 32.3499,212.591 32.3499,212.591 32.0374,213.5285 32.0374,213.5285 31.4124,214.1535 31.4124,214.1535 30.4749,214.466 30.4749,214.466 29.5374,214.466 29.5374,214.466 28.5999,214.1535 28.5999,214.1535 28.2874,213.841 28.2874,213.841 27.9749,213.216"/>
    <polyline points="33.4203,217.3819 38.4203,230.5069 38.4203,230.5069 43.4203,217.3819"/>
    <polyline points="56.6929,243.7795 94.4882,243.7795 94.4882,243.7795 94.4882,281.5748 94.4882,281.5748 132.2835,281.5748"/>
    <polyline points="82.1531,217.3819 74.0281,217.3819 74.0281,217.3819 74.0281,230.5069 74.0281,230.5069 82.1531,230.5069"/>
    <line x1="74.0281" x2="79.0281" y1="223.6319" y2="223.6319"/>
    <polyline points="112.1358,217.3819 112.1358,230.5069 112.1358,230.5069 119.6358,230.5069"/>
    <line x1="170.0787" x2="170.0787" y1="243.7795" y2="205.9843"/>
    <polyline points="149.9311,217.3819 149.9311,230.5069 149.9311,230.5069 157.4311,230.5069"/>
    <line x1="207.874" x2="207.874" y1="243.7795" y2="205.9843"/>
    <polyline points="195.5389,217.3819 187.4139,217.3819 187.4139,217.3819 187.4139,230.5069 187.4139,230.5069 195.5389,230.5069"/>
    <line x1="187.4139" x2="192.4139" y1="223.6319" y2="223.6319"/>
    <line x1="224.8967" x2="224.8967" y1="217.3819" y2="230.5069"/>
    <line x1="233.6467" x2="224.8967" y1="217.3819" y2="226.1319"/>
    <line x1="228.0217" x2="233.6467" y1="223.0069" y2="230.5069"/>
    <polyline points="245.6693,243.7795 283.4646,243.7795 283.4646,243.7795 283.4646,205.9843 283.4646,205.9843 245.6693,205.9843"/>
    <polyline points="271.1294,217.3819 263.0044,217.3819 263.0044,217.3819 263.0044,230.5069 263.0044,230.5069 271.1294,230.5069"/>
    <line x1="263.0044" x2="268.0044" y1="223.6319" y2="223.6319"/>
    <polyline points="376.0778,223.6319 381.7028,223.6319 381.7028,223.6319 383.5778,223.0069 383.5778,223.0069 384.2028,222.3819 384.2028,222.3819 384.8278,221.1319 384.8278,221.1319 384.8278,219.8819 384.8278,219.8819 384.2028,218.6319 384.2028,218.6319 383.5778,218.0069 383.5778,218.0069 381.7028,217.3819 381.7028,217.3819 376.0778,217.3819 376.0778,217.3819 376.0778,230.5069"/>
    <line x1="380.4528" x2="384.8278" y1="223.6319" y2="230.5069"/>
    <polyline points="548.0315,205.9843 548.0315,243.7795 548.0315,243.7795 585.8268,243.7795 585.8268,243.7795 585.8268,205.9843"/>
    <line x1="565.0541" x2="565.0541" y1="217.3819" y2="230.5069"/>
    <line x1="573.8041" x2="565.0541" y1="217.3819" y2="226.1319"/>
    <line x1="568.1791" x2="573.8041" y1="223.0069" y2="230.5069"/>
    <polygon points="643.1447,217.3819 641.8947,218.0069 641.8947,218.0069 640.6447,219.2569 640.6447,219.2569 640.0197,220.5069 640.0197,220.5069 639.3947,222.3819 639.3947,222.3819 639.3947,225.5069 639.3947,225.5069 640.0197,227.3819 640.0197,227.3819 640.6447,228.6319 640.6447,228.6319 641.8947,229.8819 641.8947,229.8819 643.1447,230.5069 643.1447,230.5069 645.6447,230.5069 645.6447,230.5069 646.8947,229.8819 646.8947,229.8819 648.1447,228.6319 648.1447,228.6319 648.7697,227.3819 648.7697,227.3819 649.3947,225.5069 649.3947,225.5069 649.3947,222.3819 649.3947,222.3819 648.7697,220.5069 648.7697,220.5069 648.1447,219.2569 648.1447,219.2569 646.8947,218.0069 646.8947,218.0069 645.6447,217.3819 645.6447,217.3819"/>
    <polyline points="737.0079,205.9843 737.0079,243.7795 737.0079,243.7795 774.8031,243.7795 774.8031,243.7795 774.8031,205.9843"/>
    <polyline points="762.7805,217.3819 762.7805,230.5069 762.7805,230.5069 754.0305,217.3819 754.0305,217.3819 754.0305,230.5069"/>
    <polyline points="119.9483,255.1772 111.8233,255.1772 111.8233,255.1772 111.8233,268.3022 111.8233,268.3022 119.9483,268.3022"/>
    <line x1="111.8233" x2="116.8233" y1="261.4272" y2="261.4272"/>
    <polygon points="283.4646,243.7795 283.4646,281.5748 283.4646,281.5748 321.2598,281.5748 321.2598,281.5748 321.2598,243.7795 321.2598,243.7795"/>
    <polyline points="287.2293,246.9488 287.8543,246.6363 287.8543,246.6363 288.7918,245.6988 288.7918,245.6988 288.7918,252.2613"/>
    <polyline points="295.6668,252.2613 295.6668,245.6988 295.6668,245.6988 292.5418,250.0738 292.5418,250.0738 297.2293,250.0738"/>
    <polyline points="300.4872,255.1772 300.4872,264.5522 300.4872,264.5522 301.1122,266.4272 301.1122,266.4272 302.3622,267.6772 302.3622,267.6772 304.2372,268.3022 304.2372,268.3022 305.4872,268.3022 305.4872,268.3022 307.3622,267.6772 307.3622,267.6772 308.6122,266.4272 308.6122,266.4272 309.2372,264.5522 309.2372,264.5522 309.2372,255.1772"/>
    <polyline points="321.2598,281.5748 359.0551,281.5748 359.0551,281.5748 359.0551,319.3701 359.0551,319.3701 396.8504,319.3701 396.8504,319.3701 396.8504,281.5748 396.8504,281.5748 396.8504,243.7795 396.8504,243.7795 434.6457,243.7795 434.6457,243.7795 434.6457,281.5748 434.6457,281.5748 396.8504,281.5748 396.8504,281.5748 359.0551,281.5748 359.0551,281.5748 359.0551,243.7795 359.0551,243.7795 321.2598,243.7795"/>
    <line x1="342.6575" x2="342.6575" y1="255.1772" y2="268.3022"/>
    <line x1="378.5778" x2="378.5778" y1="255.1772" y2="268.3022"/>
    <line x1="374.2028" x2="382.9528" y1="255.1772" y2="255.1772"/>
    <polyline points="414.498,255.1772 414.498,268.3022 414.498,268.3022 421.998,268.3022"/>
    <polyline points="434.6457,281.5748 472.4409,281.5748 472.4409,281.5748 472.4409,243.7795 472.4409,243.7795 434.6457,243.7795"/>
    <line x1="456.0433" x2="456.0433" y1="255.1772" y2="268.3022"/>
    <polyline points="472.4409,281.5748 510.2362,281.5748 510.2362,281.5748 510.2362,243.7795 510.2362,243.7795 472.4409,243.7795"/>
    <line x1="489.4636" x2="489.4636" y1="255.1772" y2="268.3022"/>
    <line x1="498.2136" x2="489.4636" y1="255.1772" y2="263.9272"/>
    <line x1="492.5886" x2="498.2136" y1="260.8022" y2="268.3022"/>
    <polyline points="510.2362,281.5748 548.0315,281.5748 548.0315,281.5748 548.0315,319.3701 548.0315,319.3701 510.2362,319.3701 510.2362,319.3701 472.4409,319.3701 472.4409,319.3701 434.6457,319.3701 434.6457,319.3701 434.6457,357.1654 434.6457,357.1654 472.4409,357.1654 472.4409,357.1654 472.4409,319.3701"/>
    <polyline points="585.8268,319.3701 548.0315,319.3701 548.0315,319.3701 548.0315,357.1654 548.0315,357.1654 585.8268,357.1654 585.8268,357.1654 585.8268,319.3701 585.8268,319.3701 585.8268,281.5748 585.8268,281.5748 623.622,281.5748 623.622,281.5748 623.622,243.7795 623.622,243.7795 585.8268,243.7795 585.8268,243.7795 585.8268,281.5748 585.8268,281.5748 548.0315,281.5748 548.0315,281.5748 548.0315,243.7795 548.0315,243.7795 510.2362,243.7795"/>
    <line x1="527.2589" x2="527.2589" y1="255.1772" y2="268.3022"/>
    <line x1="536.0089" x2="527.2589" y1="255.1772" y2="263.9272"/>
    <line x1="530.3839" x2="536.0089" y1="260.8022" y2="268.3022"/>
    <polyline points="573.4916,255.1772 565.3666,255.1772 565.3666,255.1772 565.3666,268.3022 565.3666,268.3022 573.4916,268.3022"/>
    <line x1="565.3666" x2="570.3666" y1="261.4272" y2="261.4272"/>
    <polyline points="611.5994,255.1772 611.5994,268.3022 611.5994,268.3022 602.8494,255.1772 602.8494,255.1772 602.8494,268.3022"/>
    <polyline points="94.4882,281.5748 94.4882,319.3701 94.4882,319.3701 94.4882,357.1654"/>
    <line x1="111.5108" x2="111.5108" y1="292.9724" y2="306.0974"/>
    <line x1="120.2608" x2="111.5108" y1="292.9724" y2="301.7224"/>
    <line x1="114.6358" x2="120.2608" y1="298.5974" y2="306.0974"/>
    <polyline points="382.3278,292.9724 382.3278,302.9724 382.3278,302.9724 381.7028,304.8474 381.7028,304.8474 381.0778,305.4724 381.0778,305.4724 379.8278,306.0974 379.8278,306.0974 378.5778,306.0974 378.5778,306.0974 377.3278,305.4724 377.3278,305.4724 376.7028,304.8474 376.7028,304.8474 376.0778,302.9724 376.0778,302.9724 376.0778,301.7224"/>
    <polyline points="573.8041,292.9724 573.8041,306.0974 573.8041,306.0974 565.0541,292.9724 565.0541,292.9724 565.0541,306.0974"/>
    <polyline points="60.4577,322.5394 61.0827,322.2269 61.0827,322.2269 62.0202,321.2894 62.0202,321.2894 62.0202,327.8519"/>
    <polyline points="69.5202,321.2894 66.3952,321.2894 66.3952,321.2894 66.0827,324.1019 66.0827,324.1019 66.3952,323.7894 66.3952,323.7894 67.3327,323.4769 67.3327,323.4769 68.2702,323.4769 68.2702,323.4769 69.2077,323.7894 69.2077,323.7894 69.8327,324.4144 69.8327,324.4144 70.1452,325.3519 70.1452,325.3519 70.1452,325.9769 70.1452,325.9769 69.8327,326.9144 69.8327,326.9144 69.2077,327.5394 69.2077,327.5394 68.2702,327.8519 68.2702,327.8519 67.3327,327.8519 67.3327,327.8519 66.3952,327.5394 66.3952,327.5394 66.0827,327.2269 66.0827,327.2269 65.7702,326.6019"/>
    <polyline points="73.7156,337.0177 79.3406,337.0177 79.3406,337.0177 81.2156,336.3927 81.2156,336.3927 81.8406,335.7677 81.8406,335.7677 82.4656,334.5177 82.4656,334.5177 82.4656,333.2677 82.4656,333.2677 81.8406,332.0177 81.8406,332.0177 81.2156,331.3927 81.2156,331.3927 79.3406,330.7677 79.3406,330.7677 73.7156,330.7677 73.7156,330.7677 73.7156,343.8927"/>
    <line x1="78.0906" x2="82.4656" y1="337.0177" y2="343.8927"/>
    <polyline points="119.9483,330.7677 111.8233,330.7677 111.8233,330.7677 111.8233,343.8927 111.8233,343.8927 119.9483,343.8927"/>
    <line x1="111.8233" x2="116.8233" y1="337.0177" y2="337.0177"/>
    <line x1="149.3061" x2="149.3061" y1="330.7677" y2="343.8927"/>
    <line x1="158.0561" x2="149.3061" y1="330.7677" y2="339.5177"/>
    <line x1="152.4311" x2="158.0561" y1="336.3927" y2="343.8927"/>
    <polyline points="170.0787,357.1654 207.874,357.1654 207.874,357.1654 245.6693,357.1654 245.6693,357.1654 245.6693,319.3701 245.6693,319.3701 207.874,319.3701 207.874,319.3701 170.0787,319.3701"/>
    <line x1="207.874" x2="207.874" y1="357.1654" y2="319.3701"/>
    <line x1="187.1014" x2="187.1014" y1="330.7677" y2="343.8927"/>
    <line x1="195.8514" x2="187.1014" y1="330.7677" y2="339.5177"/>
    <line x1="190.2264" x2="195.8514" y1="336.3927" y2="343.8927"/>
    <polyline points="233.3342,330.7677 225.2092,330.7677 225.2092,330.7677 225.2092,343.8927 225.2092,343.8927 233.3342,343.8927"/>
    <line x1="225.2092" x2="230.2092" y1="337.0177" y2="337.0177"/>
    <polyline points="245.6693,357.1654 283.4646,357.1654 283.4646,357.1654 283.4646,319.3701 283.4646,319.3701 245.6693,319.3701"/>
    <polyline points="262.6919,337.0177 268.3169,337.0177 268.3169,337.0177 270.1919,336.3927 270.1919,336.3927 270.8169,335.7677 270.8169,335.7677 271.4419,334.5177 271.4419,334.5177 271.4419,333.2677 271.4419,333.2677 270.8169,332.0177 270.8169,332.0177 270.1919,331.3927 270.1919,331.3927 268.3169,330.7677 268.3169,330.7677 262.6919,330.7677 262.6919,330.7677 262.6919,343.8927"/>
    <line x1="267.0669" x2="271.4419" y1="337.0177" y2="343.8927"/>
    <polyline points="283.4646,357.1654 321.2598,357.1654 321.2598,357.1654 359.0551,357.1654 359.0551,357.1654 396.8504,357.1654 396.8504,357.1654 396.8504,319.3701"/>
    <polyline points="321.2598,357.1654 321.2598,319.3701 321.2598,319.3701 283.4646,319.3701"/>
    <line x1="302.9872" x2="302.9872" y1="330.7677" y2="343.8927"/>
    <line x1="298.6122" x2="307.3622" y1="330.7677" y2="330.7677"/>
    <polyline points="359.0551,357.1654 359.0551,319.3701 359.0551,319.3701 321.2598,319.3701"/>
    <polyline points="344.5325,330.7677 344.5325,340.7677 344.5325,340.7677 343.9075,342.6427 343.9075,342.6427 343.2825,343.2677 343.2825,343.2677 342.0325,343.8927 342.0325,343.8927 340.7825,343.8927 340.7825,343.8927 339.5325,343.2677 339.5325,343.2677 338.9075,342.6427 338.9075,342.6427 338.2825,340.7677 338.2825,340.7677 338.2825,339.5177"/>
    <polyline points="384.5153,330.7677 376.3903,330.7677 376.3903,330.7677 376.3903,343.8927 376.3903,343.8927 384.5153,343.8927"/>
    <line x1="376.3903" x2="381.3903" y1="337.0177" y2="337.0177"/>
    <polyline points="438.4104,322.5394 439.0354,322.2269 439.0354,322.2269 439.9729,321.2894 439.9729,321.2894 439.9729,327.8519"/>
    <polyline points="447.7854,322.2269 447.4729,321.6019 447.4729,321.6019 446.5354,321.2894 446.5354,321.2894 445.9104,321.2894 445.9104,321.2894 444.9729,321.6019 444.9729,321.6019 444.3479,322.5394 444.3479,322.5394 444.0354,324.1019 444.0354,324.1019 444.0354,325.6644 444.0354,325.6644 444.3479,326.9144 444.3479,326.9144 444.9729,327.5394 444.9729,327.5394 445.9104,327.8519 445.9104,327.8519 446.2229,327.8519 446.2229,327.8519 447.1604,327.5394 447.1604,327.5394 447.7854,326.9144 447.7854,326.9144 448.0979,325.9769 448.0979,325.9769 448.0979,325.6644 448.0979,325.6644 447.7854,324.7269 447.7854,324.7269 447.1604,324.1019 447.1604,324.1019 446.2229,323.7894 446.2229,323.7894 445.9104,323.7894 445.9104,323.7894 444.9729,324.1019 444.9729,324.1019 444.3479,324.7269 444.3479,324.7269 444.0354,325.6644"/>
    <polyline points="460.1058,333.8927 459.4808,332.6427 459.4808,332.6427 458.2308,331.3927 458.2308,331.3927 456.9808,330.7677 456.9808,330.7677 454.4808,330.7677 454.4808,330.7677 453.2308,331.3927 453.2308,331.3927 451.9808,332.6427 451.9808,332.6427 451.3558,333.8927 451.3558,333.8927 450.7308,335.7677 450.7308,335.7677 450.7308,338.8927 450.7308,338.8927 451.3558,340.7677 451.3558,340.7677 451.9808,342.0177 451.9808,342.0177 453.2308,343.2677 453.2308,343.2677 454.4808,343.8927 454.4808,343.8927 456.9808,343.8927 456.9808,343.8927 458.2308,343.2677 458.2308,343.2677 459.4808,342.0177 459.4808,342.0177 460.1058,340.7677 460.1058,340.7677 460.1058,338.8927 460.1058,338.8927 456.9808,338.8927"/>
    <polyline points="472.4409,357.1654 510.2362,357.1654 510.2362,357.1654 510.2362,319.3701"/>
    <polyline points="489.4636,337.0177 495.0886,337.0177 495.0886,337.0177 496.9636,336.3927 496.9636,336.3927 497.5886,335.7677 497.5886,335.7677 498.2136,334.5177 498.2136,334.5177 498.2136,333.2677 498.2136,333.2677 497.5886,332.0177 497.5886,332.0177 496.9636,331.3927 496.9636,331.3927 495.0886,330.7677 495.0886,330.7677 489.4636,330.7677 489.4636,330.7677 489.4636,343.8927"/>
    <line x1="493.8386" x2="498.2136" y1="337.0177" y2="343.8927"/>
    <line x1="510.2362" x2="548.0315" y1="357.1654" y2="357.1654"/>
    <polyline points="534.7589,343.8927 529.7589,330.7677 529.7589,330.7677 524.7589,343.8927"/>
    <line x1="526.6339" x2="532.8839" y1="339.5177" y2="339.5177"/>
    <polyline points="573.1791,332.6427 571.9291,331.3927 571.9291,331.3927 570.0541,330.7677 570.0541,330.7677 567.5541,330.7677 567.5541,330.7677 565.6791,331.3927 565.6791,331.3927 564.4291,332.6427 564.4291,332.6427 564.4291,333.8927 564.4291,333.8927 565.0541,335.1427 565.0541,335.1427 565.6791,335.7677 565.6791,335.7677 566.9291,336.3927 566.9291,336.3927 570.6791,337.6427 570.6791,337.6427 571.9291,338.2677 571.9291,338.2677 572.5541,338.8927 572.5541,338.8927 573.1791,340.1427 573.1791,340.1427 573.1791,342.0177 573.1791,342.0177 571.9291,343.2677 571.9291,343.2677 570.0541,343.8927 570.0541,343.8927 567.5541,343.8927 567.5541,343.8927 565.6791,343.2677 565.6791,343.2677 564.4291,342.0177"/>
  </g>
</svg>
