<?xml version="1.0" encoding="utf-8" ?>
<svg xmlns="http://www.w3.org/2000/svg" xmlns:cc="http://creativecommons.org/ns" xmlns:dc="http://purl.org/dc/elements/1.1/" xmlns:ev="http://www.w3.org/2001/xml-events" xmlns:inkscape="http://www.inkscape.org/namespaces/inkscape" xmlns:rdf="http://www.w3.org/1999/02/22-rdf-syntax-ns" xmlns:sodipodi="http://sodipodi.sourceforge.net/DTD/sodipodi-0.dtd" xmlns:xlink="http://www.w3.org/1999/xlink" baseProfile="tiny" height="9.9cm" version="1.2" viewBox="0 0 793.7007874015749 374.1732283464567" width="21.0cm">
  <metadata>
    <rdf:RDF>
      <cc:Work>
        <dc:format>image/svg+xml</dc:format>
        <dc:source>vpype eval 'cell=10;width=210;height=99' eval 'nCols=20;nRows=9' eval 'cells=[1,6,7,8,9,10,11,12,13,14,15,20,21,22,23,24,30,38,40,43,45,46,47,48,49,50,51,52,53,54,56,58,60,63,70,75,76,77,78,79,80,82,83,84,85,86,87,88,89,90,91,92,93,96,98,103,110,116,118,121,122,123,124,126,127,128,129,130,131,132,133,134,135,136,143,150,156,162,163,164,165,166,167,168,169,176,177,178,179]' eval 'chars=[&quot;J&quot;,&quot;G&quot;,&quot;R&quot;,&quot;O&quot;,&quot;E&quot;,&quot;P&quot;,&quot;S&quot;,&quot;F&quot;,&quot;O&quot;,&quot;T&quot;,&quot;O&quot;,&quot;K&quot;,&quot;A&quot;,&quot;S&quot;,&quot;S&quot;,&quot;A&quot;,&quot;A&quot;,&quot;T&quot;,&quot;O&quot;,&quot;K&quot;,&quot;P&quot;,&quot;I&quot;,&quot;E&quot;,&quot;T&quot;,&quot;E&quot;,&quot;R&quot;,&quot;-&quot;,&quot;J&quot;,&quot;A&quot;,&quot;N&quot;,&quot;V&quot;,&quot;R&quot;,&quot;U&quot;,&quot;E&quot;,&quot;K&quot;,&quot;G&quot;,&quot;R&quot;,&quot;O&quot;,&quot;E&quot;,&quot;N&quot;,&quot;S&quot;,&quot;F&quot;,&quot;L&quot;,&quot;E&quot;,&quot;S&quot;,&quot;S&quot;,&quot;E&quot;,&quot;N&quot;,&quot;G&quot;,&quot;E&quot;,&quot;L&quot;,&quot;U&quot;,&quot;K&quot;,&quot;I&quot;,&quot;I&quot;,&quot;L&quot;,&quot;R&quot;,&quot;J&quot;,&quot;N&quot;,&quot;S&quot;,&quot;T&quot;,&quot;E&quot;,&quot;R&quot;,&quot;M&quot;,&quot;I&quot;,&quot;S&quot;,&quot;V&quot;,&quot;E&quot;,&quot;R&quot;,&quot;S&quot;,&quot;T&quot;,&quot;A&quot;,&quot;N&quot;,&quot;D&quot;,&quot;K&quot;,&quot;N&quot;,&quot;A&quot;,&quot;R&quot;,&quot;E&quot;,&quot;G&quot;,&quot;E&quot;,&quot;N&quot;,&quot;B&quot;,&quot;U&quot;,&quot;I&quot;,&quot;G&quot;,&quot;R&quot;,&quot;A&quot;,&quot;S&quot;]' eval 'numbers=[1,6,10,20,23,38,45,56,75,82,121,126,162,176]' eval counter=1 eval charIndex=0 begin grid -o '%cell*mm%' '%cell*mm%' %nCols% %nRows% eval '%isCell=_i in cells%' eval '%number=_i in numbers%' eval '%size=10 if isCell else 0%' rect 0 0 '%size*mm%' '%size*mm%' text -s 10 -p 0.5mm 1.5mm '%counter if number else '&quot;'&quot;''&quot;'&quot;'%' text -s 20 -p 5mm 5mm -a center '%chars[charIndex] if isCell else '&quot;'&quot;''&quot;'&quot;'%' eval '%if number: counter+=1 %' eval '%if isCell: charIndex+=1 %' end splitall deduplicate linemerge --tolerance 0.1mm write -m none --page-size '%width*mm%x%height*mm%' --center ./svgs/solution/66252a.svg
</dc:source>
        <dc:date>2024-01-06T16:44:06.516313</dc:date>
      </cc:Work>
    </rdf:RDF>
  </metadata>
  <defs/>
  <g fill="none" id="layer1" inkscape:groupmode="layer" inkscape:label="1" stroke="#000000" style="display:inline">
    <polygon points="56.6929,17.0079 56.6929,54.8031 56.6929,54.8031 94.4882,54.8031 94.4882,54.8031 94.4882,17.0079 94.4882,17.0079"/>
    <polyline points="60.4577,20.1772 61.0827,19.8647 61.0827,19.8647 62.0202,18.9272 62.0202,18.9272 62.0202,25.4897"/>
    <polyline points="79.9656,28.4055 79.9656,38.4055 79.9656,38.4055 79.3406,40.2805 79.3406,40.2805 78.7156,40.9055 78.7156,40.9055 77.4656,41.5305 77.4656,41.5305 76.2156,41.5305 76.2156,41.5305 74.9656,40.9055 74.9656,40.9055 74.3406,40.2805 74.3406,40.2805 73.7156,38.4055 73.7156,38.4055 73.7156,37.1555"/>
    <polygon points="245.6693,17.0079 245.6693,54.8031 245.6693,54.8031 283.4646,54.8031 283.4646,54.8031 283.4646,17.0079 283.4646,17.0079"/>
    <polyline points="248.8091,20.4897 248.8091,20.1772 248.8091,20.1772 249.1216,19.5522 249.1216,19.5522 249.4341,19.2397 249.4341,19.2397 250.0591,18.9272 250.0591,18.9272 251.3091,18.9272 251.3091,18.9272 251.9341,19.2397 251.9341,19.2397 252.2466,19.5522 252.2466,19.5522 252.5591,20.1772 252.5591,20.1772 252.5591,20.8022 252.5591,20.8022 252.2466,21.4272 252.2466,21.4272 251.6216,22.3647 251.6216,22.3647 248.4966,25.4897 248.4966,25.4897 252.8716,25.4897"/>
    <polyline points="271.1294,31.5305 270.5044,30.2805 270.5044,30.2805 269.2544,29.0305 269.2544,29.0305 268.0044,28.4055 268.0044,28.4055 265.5044,28.4055 265.5044,28.4055 264.2544,29.0305 264.2544,29.0305 263.0044,30.2805 263.0044,30.2805 262.3794,31.5305 262.3794,31.5305 261.7544,33.4055 261.7544,33.4055 261.7544,36.5305 261.7544,36.5305 262.3794,38.4055 262.3794,38.4055 263.0044,39.6555 263.0044,39.6555 264.2544,40.9055 264.2544,40.9055 265.5044,41.5305 265.5044,41.5305 268.0044,41.5305 268.0044,41.5305 269.2544,40.9055 269.2544,40.9055 270.5044,39.6555 270.5044,39.6555 271.1294,38.4055 271.1294,38.4055 271.1294,36.5305 271.1294,36.5305 268.0044,36.5305"/>
    <polyline points="283.4646,54.8031 321.2598,54.8031 321.2598,54.8031 359.0551,54.8031 359.0551,54.8031 396.8504,54.8031 396.8504,54.8031 434.6457,54.8031 434.6457,54.8031 434.6457,17.0079 434.6457,17.0079 396.8504,17.0079 396.8504,17.0079 359.0551,17.0079 359.0551,17.0079 321.2598,17.0079 321.2598,17.0079 283.4646,17.0079"/>
    <line x1="321.2598" x2="321.2598" y1="54.8031" y2="17.0079"/>
    <polyline points="300.4872,34.6555 306.1122,34.6555 306.1122,34.6555 307.9872,34.0305 307.9872,34.0305 308.6122,33.4055 308.6122,33.4055 309.2372,32.1555 309.2372,32.1555 309.2372,30.9055 309.2372,30.9055 308.6122,29.6555 308.6122,29.6555 307.9872,29.0305 307.9872,29.0305 306.1122,28.4055 306.1122,28.4055 300.4872,28.4055 300.4872,28.4055 300.4872,41.5305"/>
    <line x1="304.8622" x2="309.2372" y1="34.6555" y2="41.5305"/>
    <line x1="359.0551" x2="359.0551" y1="54.8031" y2="17.0079"/>
    <polygon points="340.7825,28.4055 339.5325,29.0305 339.5325,29.0305 338.2825,30.2805 338.2825,30.2805 337.6575,31.5305 337.6575,31.5305 337.0325,33.4055 337.0325,33.4055 337.0325,36.5305 337.0325,36.5305 337.6575,38.4055 337.6575,38.4055 338.2825,39.6555 338.2825,39.6555 339.5325,40.9055 339.5325,40.9055 340.7825,41.5305 340.7825,41.5305 343.2825,41.5305 343.2825,41.5305 344.5325,40.9055 344.5325,40.9055 345.7825,39.6555 345.7825,39.6555 346.4075,38.4055 346.4075,38.4055 347.0325,36.5305 347.0325,36.5305 347.0325,33.4055 347.0325,33.4055 346.4075,31.5305 346.4075,31.5305 345.7825,30.2805 345.7825,30.2805 344.5325,29.0305 344.5325,29.0305 343.2825,28.4055 343.2825,28.4055"/>
    <polyline points="170.0787,54.8031 170.0787,92.5984 170.0787,92.5984 170.0787,130.3937 170.0787,130.3937 132.2835,130.3937 132.2835,130.3937 132.2835,92.5984 132.2835,92.5984 94.4882,92.5984 94.4882,92.5984 94.4882,54.8031 94.4882,54.8031 132.2835,54.8031 132.2835,54.8031 170.0787,54.8031 170.0787,54.8031 207.874,54.8031 207.874,54.8031 207.874,92.5984 207.874,92.5984 245.6693,92.5984 245.6693,92.5984 283.4646,92.5984 283.4646,92.5984 321.2598,92.5984 321.2598,92.5984 359.0551,92.5984 359.0551,92.5984 396.8504,92.5984 396.8504,92.5984 396.8504,54.8031 396.8504,54.8031 396.8504,17.0079"/>
    <polyline points="384.5153,28.4055 376.3903,28.4055 376.3903,28.4055 376.3903,41.5305 376.3903,41.5305 384.5153,41.5305"/>
    <line x1="376.3903" x2="381.3903" y1="34.6555" y2="34.6555"/>
    <polyline points="400.3027,18.9272 403.7402,18.9272 403.7402,18.9272 401.8652,21.4272 401.8652,21.4272 402.8027,21.4272 402.8027,21.4272 403.4277,21.7397 403.4277,21.7397 403.7402,22.0522 403.7402,22.0522 404.0527,22.9897 404.0527,22.9897 404.0527,23.6147 404.0527,23.6147 403.7402,24.5522 403.7402,24.5522 403.1152,25.1772 403.1152,25.1772 402.1777,25.4897 402.1777,25.4897 401.2402,25.4897 401.2402,25.4897 400.3027,25.1772 400.3027,25.1772 399.9902,24.8647 399.9902,24.8647 399.6777,24.2397"/>
    <polyline points="413.873,35.2805 419.498,35.2805 419.498,35.2805 421.373,34.6555 421.373,34.6555 421.998,34.0305 421.998,34.0305 422.623,32.7805 422.623,32.7805 422.623,30.9055 422.623,30.9055 421.998,29.6555 421.998,29.6555 421.373,29.0305 421.373,29.0305 419.498,28.4055 419.498,28.4055 413.873,28.4055 413.873,28.4055 413.873,41.5305"/>
    <polyline points="548.0315,92.5984 585.8268,92.5984 585.8268,92.5984 585.8268,130.3937 585.8268,130.3937 548.0315,130.3937 548.0315,130.3937 548.0315,92.5984 548.0315,92.5984 510.2362,92.5984 510.2362,92.5984 472.4409,92.5984 472.4409,92.5984 434.6457,92.5984 434.6457,92.5984 434.6457,130.3937 434.6457,130.3937 434.6457,168.189 434.6457,168.189 396.8504,168.189 396.8504,168.189 396.8504,130.3937 396.8504,130.3937 396.8504,92.5984 396.8504,92.5984 434.6457,92.5984 434.6457,92.5984 434.6457,54.8031 434.6457,54.8031 472.4409,54.8031 472.4409,54.8031 510.2362,54.8031 510.2362,54.8031 510.2362,17.0079 510.2362,17.0079 472.4409,17.0079 472.4409,17.0079 434.6457,17.0079"/>
    <line x1="472.4409" x2="472.4409" y1="54.8031" y2="17.0079"/>
    <polyline points="459.7933,30.2805 458.5433,29.0305 458.5433,29.0305 456.6683,28.4055 456.6683,28.4055 454.1683,28.4055 454.1683,28.4055 452.2933,29.0305 452.2933,29.0305 451.0433,30.2805 451.0433,30.2805 451.0433,31.5305 451.0433,31.5305 451.6683,32.7805 451.6683,32.7805 452.2933,33.4055 452.2933,33.4055 453.5433,34.0305 453.5433,34.0305 457.2933,35.2805 457.2933,35.2805 458.5433,35.9055 458.5433,35.9055 459.1683,36.5305 459.1683,36.5305 459.7933,37.7805 459.7933,37.7805 459.7933,39.6555 459.7933,39.6555 458.5433,40.9055 458.5433,40.9055 456.6683,41.5305 456.6683,41.5305 454.1683,41.5305 454.1683,41.5305 452.2933,40.9055 452.2933,40.9055 451.0433,39.6555"/>
    <polyline points="497.9011,28.4055 489.7761,28.4055 489.7761,28.4055 489.7761,41.5305"/>
    <line x1="489.7761" x2="494.7761" y1="34.6555" y2="34.6555"/>
    <polyline points="510.2362,54.8031 548.0315,54.8031 548.0315,54.8031 548.0315,17.0079 548.0315,17.0079 510.2362,17.0079"/>
    <polygon points="529.7589,28.4055 528.5089,29.0305 528.5089,29.0305 527.2589,30.2805 527.2589,30.2805 526.6339,31.5305 526.6339,31.5305 526.0089,33.4055 526.0089,33.4055 526.0089,36.5305 526.0089,36.5305 526.6339,38.4055 526.6339,38.4055 527.2589,39.6555 527.2589,39.6555 528.5089,40.9055 528.5089,40.9055 529.7589,41.5305 529.7589,41.5305 532.2589,41.5305 532.2589,41.5305 533.5089,40.9055 533.5089,40.9055 534.7589,39.6555 534.7589,39.6555 535.3839,38.4055 535.3839,38.4055 536.0089,36.5305 536.0089,36.5305 536.0089,33.4055 536.0089,33.4055 535.3839,31.5305 535.3839,31.5305 534.7589,30.2805 534.7589,30.2805 533.5089,29.0305 533.5089,29.0305 532.2589,28.4055 532.2589,28.4055"/>
    <polyline points="548.0315,54.8031 585.8268,54.8031 585.8268,54.8031 585.8268,17.0079 585.8268,17.0079 548.0315,17.0079"/>
    <line x1="567.5541" x2="567.5541" y1="28.4055" y2="41.5305"/>
    <line x1="563.1791" x2="571.9291" y1="28.4055" y2="28.4055"/>
    <polyline points="585.8268,54.8031 623.622,54.8031 623.622,54.8031 623.622,17.0079 623.622,17.0079 585.8268,17.0079"/>
    <polygon points="605.3494,28.4055 604.0994,29.0305 604.0994,29.0305 602.8494,30.2805 602.8494,30.2805 602.2244,31.5305 602.2244,31.5305 601.5994,33.4055 601.5994,33.4055 601.5994,36.5305 601.5994,36.5305 602.2244,38.4055 602.2244,38.4055 602.8494,39.6555 602.8494,39.6555 604.0994,40.9055 604.0994,40.9055 605.3494,41.5305 605.3494,41.5305 607.8494,41.5305 607.8494,41.5305 609.0994,40.9055 609.0994,40.9055 610.3494,39.6555 610.3494,39.6555 610.9744,38.4055 610.9744,38.4055 611.5994,36.5305 611.5994,36.5305 611.5994,33.4055 611.5994,33.4055 610.9744,31.5305 610.9744,31.5305 610.3494,30.2805 610.3494,30.2805 609.0994,29.0305 609.0994,29.0305 607.8494,28.4055 607.8494,28.4055"/>
    <polygon points="18.8976,54.8031 18.8976,92.5984 18.8976,92.5984 18.8976,130.3937 18.8976,130.3937 18.8976,168.189 18.8976,168.189 56.6929,168.189 56.6929,168.189 56.6929,130.3937 56.6929,130.3937 56.6929,92.5984 56.6929,92.5984 56.6929,54.8031 56.6929,54.8031"/>
    <polyline points="18.8976,92.5984 56.6929,92.5984 56.6929,92.5984 94.4882,92.5984"/>
    <polyline points="24.8499,63.2849 24.8499,56.7224 24.8499,56.7224 21.7249,61.0974 21.7249,61.0974 26.4124,61.0974"/>
    <line x1="35.9203" x2="35.9203" y1="66.2008" y2="79.3258"/>
    <line x1="44.6703" x2="35.9203" y1="66.2008" y2="74.9508"/>
    <line x1="39.0453" x2="44.6703" y1="71.8258" y2="79.3258"/>
    <polyline points="81.2156,79.3258 76.2156,66.2008 76.2156,66.2008 71.2156,79.3258"/>
    <line x1="73.0906" x2="79.3406" y1="74.9508" y2="74.9508"/>
    <polyline points="245.6693,92.5984 245.6693,130.3937 245.6693,130.3937 207.874,130.3937 207.874,130.3937 207.874,92.5984 207.874,92.5984 170.0787,92.5984 170.0787,92.5984 132.2835,92.5984 132.2835,92.5984 132.2835,54.8031"/>
    <polyline points="119.6358,68.0758 118.3858,66.8258 118.3858,66.8258 116.5108,66.2008 116.5108,66.2008 114.0108,66.2008 114.0108,66.2008 112.1358,66.8258 112.1358,66.8258 110.8858,68.0758 110.8858,68.0758 110.8858,69.3258 110.8858,69.3258 111.5108,70.5758 111.5108,70.5758 112.1358,71.2008 112.1358,71.2008 113.3858,71.8258 113.3858,71.8258 117.1358,73.0758 117.1358,73.0758 118.3858,73.7008 118.3858,73.7008 119.0108,74.3258 119.0108,74.3258 119.6358,75.5758 119.6358,75.5758 119.6358,77.4508 119.6358,77.4508 118.3858,78.7008 118.3858,78.7008 116.5108,79.3258 116.5108,79.3258 114.0108,79.3258 114.0108,79.3258 112.1358,78.7008 112.1358,78.7008 110.8858,77.4508"/>
    <polyline points="138.8607,56.7224 135.7357,56.7224 135.7357,56.7224 135.4232,59.5349 135.4232,59.5349 135.7357,59.2224 135.7357,59.2224 136.6732,58.9099 136.6732,58.9099 137.6107,58.9099 137.6107,58.9099 138.5482,59.2224 138.5482,59.2224 139.1732,59.8474 139.1732,59.8474 139.4857,60.7849 139.4857,60.7849 139.4857,61.4099 139.4857,61.4099 139.1732,62.3474 139.1732,62.3474 138.5482,62.9724 138.5482,62.9724 137.6107,63.2849 137.6107,63.2849 136.6732,63.2849 136.6732,63.2849 135.7357,62.9724 135.7357,62.9724 135.4232,62.6599 135.4232,62.6599 135.1107,62.0349"/>
    <polyline points="157.4311,68.0758 156.1811,66.8258 156.1811,66.8258 154.3061,66.2008 154.3061,66.2008 151.8061,66.2008 151.8061,66.2008 149.9311,66.8258 149.9311,66.8258 148.6811,68.0758 148.6811,68.0758 148.6811,69.3258 148.6811,69.3258 149.3061,70.5758 149.3061,70.5758 149.9311,71.2008 149.9311,71.2008 151.1811,71.8258 151.1811,71.8258 154.9311,73.0758 154.9311,73.0758 156.1811,73.7008 156.1811,73.7008 156.8061,74.3258 156.8061,74.3258 157.4311,75.5758 157.4311,75.5758 157.4311,77.4508 157.4311,77.4508 156.1811,78.7008 156.1811,78.7008 154.3061,79.3258 154.3061,79.3258 151.8061,79.3258 151.8061,79.3258 149.9311,78.7008 149.9311,78.7008 148.6811,77.4508"/>
    <polyline points="194.6014,79.3258 189.6014,66.2008 189.6014,66.2008 184.6014,79.3258"/>
    <line x1="186.4764" x2="192.7264" y1="74.9508" y2="74.9508"/>
    <polyline points="421.373,79.3258 416.373,66.2008 416.373,66.2008 411.373,79.3258"/>
    <line x1="413.248" x2="419.498" y1="74.9508" y2="74.9508"/>
    <polygon points="699.2126,54.8031 699.2126,92.5984 699.2126,92.5984 699.2126,130.3937 699.2126,130.3937 737.0079,130.3937 737.0079,130.3937 737.0079,92.5984 737.0079,92.5984 737.0079,54.8031 737.0079,54.8031"/>
    <line x1="699.2126" x2="737.0079" y1="92.5984" y2="92.5984"/>
    <polyline points="706.1024,57.6599 705.7899,57.0349 705.7899,57.0349 704.8524,56.7224 704.8524,56.7224 704.2274,56.7224 704.2274,56.7224 703.2899,57.0349 703.2899,57.0349 702.6649,57.9724 702.6649,57.9724 702.3524,59.5349 702.3524,59.5349 702.3524,61.0974 702.3524,61.0974 702.6649,62.3474 702.6649,62.3474 703.2899,62.9724 703.2899,62.9724 704.2274,63.2849 704.2274,63.2849 704.5399,63.2849 704.5399,63.2849 705.4774,62.9724 705.4774,62.9724 706.1024,62.3474 706.1024,62.3474 706.4149,61.4099 706.4149,61.4099 706.4149,61.0974 706.4149,61.0974 706.1024,60.1599 706.1024,60.1599 705.4774,59.5349 705.4774,59.5349 704.5399,59.2224 704.5399,59.2224 704.2274,59.2224 704.2274,59.2224 703.2899,59.5349 703.2899,59.5349 702.6649,60.1599 702.6649,60.1599 702.3524,61.0974"/>
    <line x1="718.7352" x2="718.7352" y1="66.2008" y2="79.3258"/>
    <line x1="714.3602" x2="723.1102" y1="66.2008" y2="66.2008"/>
    <line x1="18.8976" x2="56.6929" y1="130.3937" y2="130.3937"/>
    <polygon points="38.4203,103.9961 37.1703,104.6211 37.1703,104.6211 35.9203,105.8711 35.9203,105.8711 35.2953,107.1211 35.2953,107.1211 34.6703,108.9961 34.6703,108.9961 34.6703,112.1211 34.6703,112.1211 35.2953,113.9961 35.2953,113.9961 35.9203,115.2461 35.9203,115.2461 37.1703,116.4961 37.1703,116.4961 38.4203,117.1211 38.4203,117.1211 40.9203,117.1211 40.9203,117.1211 42.1703,116.4961 42.1703,116.4961 43.4203,115.2461 43.4203,115.2461 44.0453,113.9961 44.0453,113.9961 44.6703,112.1211 44.6703,112.1211 44.6703,108.9961 44.6703,108.9961 44.0453,107.1211 44.0453,107.1211 43.4203,105.8711 43.4203,105.8711 42.1703,104.6211 42.1703,104.6211 40.9203,103.9961 40.9203,103.9961"/>
    <line x1="149.3061" x2="149.3061" y1="103.9961" y2="117.1211"/>
    <line x1="158.0561" x2="149.3061" y1="103.9961" y2="112.7461"/>
    <line x1="152.4311" x2="158.0561" y1="109.6211" y2="117.1211"/>
    <polyline points="210.7013,94.5177 215.0763,94.5177 215.0763,94.5177 211.9513,101.0802"/>
    <polyline points="224.8967,110.8711 230.5217,110.8711 230.5217,110.8711 232.3967,110.2461 232.3967,110.2461 233.0217,109.6211 233.0217,109.6211 233.6467,108.3711 233.6467,108.3711 233.6467,106.4961 233.6467,106.4961 233.0217,105.2461 233.0217,105.2461 232.3967,104.6211 232.3967,104.6211 230.5217,103.9961 230.5217,103.9961 224.8967,103.9961 224.8967,103.9961 224.8967,117.1211"/>
    <polyline points="245.6693,130.3937 283.4646,130.3937 283.4646,130.3937 283.4646,92.5984"/>
    <line x1="267.0669" x2="267.0669" y1="103.9961" y2="117.1211"/>
    <polyline points="283.4646,130.3937 321.2598,130.3937 321.2598,130.3937 321.2598,92.5984"/>
    <polyline points="308.9247,103.9961 300.7997,103.9961 300.7997,103.9961 300.7997,117.1211 300.7997,117.1211 308.9247,117.1211"/>
    <line x1="300.7997" x2="305.7997" y1="110.2461" y2="110.2461"/>
    <polyline points="321.2598,130.3937 359.0551,130.3937 359.0551,130.3937 359.0551,92.5984"/>
    <line x1="340.7825" x2="340.7825" y1="103.9961" y2="117.1211"/>
    <line x1="336.4075" x2="345.1575" y1="103.9961" y2="103.9961"/>
    <polyline points="359.0551,130.3937 396.8504,130.3937 396.8504,130.3937 434.6457,130.3937 434.6457,130.3937 472.4409,130.3937 472.4409,130.3937 510.2362,130.3937 510.2362,130.3937 548.0315,130.3937"/>
    <polyline points="384.5153,103.9961 376.3903,103.9961 376.3903,103.9961 376.3903,117.1211 376.3903,117.1211 384.5153,117.1211"/>
    <line x1="376.3903" x2="381.3903" y1="110.2461" y2="110.2461"/>
    <polyline points="413.873,110.2461 419.498,110.2461 419.498,110.2461 421.373,109.6211 421.373,109.6211 421.998,108.9961 421.998,108.9961 422.623,107.7461 422.623,107.7461 422.623,106.4961 422.623,106.4961 421.998,105.2461 421.998,105.2461 421.373,104.6211 421.373,104.6211 419.498,103.9961 419.498,103.9961 413.873,103.9961 413.873,103.9961 413.873,117.1211"/>
    <line x1="418.248" x2="422.623" y1="110.2461" y2="117.1211"/>
    <line x1="472.4409" x2="472.4409" y1="130.3937" y2="92.5984"/>
    <line x1="450.4183" x2="461.6683" y1="111.4961" y2="111.4961"/>
    <line x1="510.2362" x2="510.2362" y1="130.3937" y2="92.5984"/>
    <polyline points="495.7136,103.9961 495.7136,113.9961 495.7136,113.9961 495.0886,115.8711 495.0886,115.8711 494.4636,116.4961 494.4636,116.4961 493.2136,117.1211 493.2136,117.1211 491.9636,117.1211 491.9636,117.1211 490.7136,116.4961 490.7136,116.4961 490.0886,115.8711 490.0886,115.8711 489.4636,113.9961 489.4636,113.9961 489.4636,112.7461"/>
    <polyline points="534.7589,117.1211 529.7589,103.9961 529.7589,103.9961 524.7589,117.1211"/>
    <line x1="526.6339" x2="532.8839" y1="112.7461" y2="112.7461"/>
    <polyline points="573.8041,103.9961 573.8041,117.1211 573.8041,117.1211 565.0541,103.9961 565.0541,103.9961 565.0541,117.1211"/>
    <polygon points="623.622,92.5984 623.622,130.3937 623.622,130.3937 661.4173,130.3937 661.4173,130.3937 661.4173,92.5984 661.4173,92.5984"/>
    <polygon points="628.0118,94.5177 627.0743,94.8302 627.0743,94.8302 626.7618,95.4552 626.7618,95.4552 626.7618,96.0802 626.7618,96.0802 627.0743,96.7052 627.0743,96.7052 627.6993,97.0177 627.6993,97.0177 628.9493,97.3302 628.9493,97.3302 629.8868,97.6427 629.8868,97.6427 630.5118,98.2677 630.5118,98.2677 630.8243,98.8927 630.8243,98.8927 630.8243,99.8302 630.8243,99.8302 630.5118,100.4552 630.5118,100.4552 630.1993,100.7677 630.1993,100.7677 629.2618,101.0802 629.2618,101.0802 628.0118,101.0802 628.0118,101.0802 627.0743,100.7677 627.0743,100.7677 626.7618,100.4552 626.7618,100.4552 626.4493,99.8302 626.4493,99.8302 626.4493,98.8927 626.4493,98.8927 626.7618,98.2677 626.7618,98.2677 627.3868,97.6427 627.3868,97.6427 628.3243,97.3302 628.3243,97.3302 629.5743,97.0177 629.5743,97.0177 630.1993,96.7052 630.1993,96.7052 630.5118,96.0802 630.5118,96.0802 630.5118,95.4552 630.5118,95.4552 630.1993,94.8302 630.1993,94.8302 629.2618,94.5177 629.2618,94.5177"/>
    <polyline points="638.1447,103.9961 643.1447,117.1211 643.1447,117.1211 648.1447,103.9961"/>
    <polyline points="716.2352,110.2461 721.8602,110.2461 721.8602,110.2461 723.7352,109.6211 723.7352,109.6211 724.3602,108.9961 724.3602,108.9961 724.9852,107.7461 724.9852,107.7461 724.9852,106.4961 724.9852,106.4961 724.3602,105.2461 724.3602,105.2461 723.7352,104.6211 723.7352,104.6211 721.8602,103.9961 721.8602,103.9961 716.2352,103.9961 716.2352,103.9961 716.2352,117.1211"/>
    <line x1="720.6102" x2="724.9852" y1="110.2461" y2="117.1211"/>
    <polyline points="35.9203,141.7913 35.9203,151.1663 35.9203,151.1663 36.5453,153.0413 36.5453,153.0413 37.7953,154.2913 37.7953,154.2913 39.6703,154.9163 39.6703,154.9163 40.9203,154.9163 40.9203,154.9163 42.7953,154.2913 42.7953,154.2913 44.0453,153.0413 44.0453,153.0413 44.6703,151.1663 44.6703,151.1663 44.6703,141.7913"/>
    <polyline points="132.2835,130.3937 132.2835,168.189 132.2835,168.189 94.4882,168.189 94.4882,168.189 94.4882,205.9843 94.4882,205.9843 132.2835,205.9843 132.2835,205.9843 170.0787,205.9843 170.0787,205.9843 207.874,205.9843 207.874,205.9843 245.6693,205.9843 245.6693,205.9843 245.6693,168.189 245.6693,168.189 207.874,168.189 207.874,168.189 170.0787,168.189 170.0787,168.189 170.0787,130.3937"/>
    <polygon points="132.2835,168.189 170.0787,168.189 170.0787,168.189 170.0787,205.9843 170.0787,205.9843 170.0787,243.7795 170.0787,243.7795 132.2835,243.7795 132.2835,243.7795 132.2835,205.9843 132.2835,205.9843"/>
    <polyline points="157.7436,141.7913 149.6186,141.7913 149.6186,141.7913 149.6186,154.9163 149.6186,154.9163 157.7436,154.9163"/>
    <line x1="149.6186" x2="154.6186" y1="148.0413" y2="148.0413"/>
    <line x1="413.873" x2="413.873" y1="141.7913" y2="154.9163"/>
    <line x1="422.623" x2="413.873" y1="141.7913" y2="150.5413"/>
    <line x1="416.998" x2="422.623" y1="147.4163" y2="154.9163"/>
    <polyline points="623.622,205.9843 623.622,168.189 623.622,168.189 623.622,130.3937 623.622,130.3937 585.8268,130.3937 585.8268,130.3937 585.8268,168.189 585.8268,168.189 623.622,168.189 623.622,168.189 661.4173,168.189 661.4173,168.189 661.4173,130.3937 661.4173,130.3937 699.2126,130.3937 699.2126,130.3937 699.2126,168.189 699.2126,168.189 661.4173,168.189 661.4173,168.189 661.4173,205.9843 661.4173,205.9843 661.4173,243.7795 661.4173,243.7795 623.622,243.7795 623.622,243.7795 623.622,205.9843 623.622,205.9843 661.4173,205.9843"/>
    <polyline points="592.7165,134.5005 592.404,135.438 592.404,135.438 591.779,136.063 591.779,136.063 590.8415,136.3755 590.8415,136.3755 590.529,136.3755 590.529,136.3755 589.5915,136.063 589.5915,136.063 588.9665,135.438 588.9665,135.438 588.654,134.5005 588.654,134.5005 588.654,134.188 588.654,134.188 588.9665,133.2505 588.9665,133.2505 589.5915,132.6255 589.5915,132.6255 590.529,132.313 590.529,132.313 590.8415,132.313 590.8415,132.313 591.779,132.6255 591.779,132.6255 592.404,133.2505 592.404,133.2505 592.7165,134.5005 592.7165,134.5005 592.7165,136.063 592.7165,136.063 592.404,137.6255 592.404,137.6255 591.779,138.563 591.779,138.563 590.8415,138.8755 590.8415,138.8755 590.2165,138.8755 590.2165,138.8755 589.279,138.563 589.279,138.563 588.9665,137.938"/>
    <polyline points="611.2869,144.9163 610.6619,143.6663 610.6619,143.6663 609.4119,142.4163 609.4119,142.4163 608.1619,141.7913 608.1619,141.7913 605.6619,141.7913 605.6619,141.7913 604.4119,142.4163 604.4119,142.4163 603.1619,143.6663 603.1619,143.6663 602.5369,144.9163 602.5369,144.9163 601.9119,146.7913 601.9119,146.7913 601.9119,149.9163 601.9119,149.9163 602.5369,151.7913 602.5369,151.7913 603.1619,153.0413 603.1619,153.0413 604.4119,154.2913 604.4119,154.2913 605.6619,154.9163 605.6619,154.9163 608.1619,154.9163 608.1619,154.9163 609.4119,154.2913 609.4119,154.2913 610.6619,153.0413 610.6619,153.0413 611.2869,151.7913 611.2869,151.7913 611.2869,149.9163 611.2869,149.9163 608.1619,149.9163"/>
    <polyline points="640.6447,148.0413 646.2697,148.0413 646.2697,148.0413 648.1447,147.4163 648.1447,147.4163 648.7697,146.7913 648.7697,146.7913 649.3947,145.5413 649.3947,145.5413 649.3947,144.2913 649.3947,144.2913 648.7697,143.0413 648.7697,143.0413 648.1447,142.4163 648.1447,142.4163 646.2697,141.7913 646.2697,141.7913 640.6447,141.7913 640.6447,141.7913 640.6447,154.9163"/>
    <line x1="645.0197" x2="649.3947" y1="148.0413" y2="154.9163"/>
    <polygon points="680.94,141.7913 679.69,142.4163 679.69,142.4163 678.44,143.6663 678.44,143.6663 677.815,144.9163 677.815,144.9163 677.19,146.7913 677.19,146.7913 677.19,149.9163 677.19,149.9163 677.815,151.7913 677.815,151.7913 678.44,153.0413 678.44,153.0413 679.69,154.2913 679.69,154.2913 680.94,154.9163 680.94,154.9163 683.44,154.9163 683.44,154.9163 684.69,154.2913 684.69,154.2913 685.94,153.0413 685.94,153.0413 686.565,151.7913 686.565,151.7913 687.19,149.9163 687.19,149.9163 687.19,146.7913 687.19,146.7913 686.565,144.9163 686.565,144.9163 685.94,143.6663 685.94,143.6663 684.69,142.4163 684.69,142.4163 683.44,141.7913 683.44,141.7913"/>
    <polyline points="699.2126,205.9843 699.2126,168.189 699.2126,168.189 737.0079,168.189 737.0079,168.189 774.8031,168.189 774.8031,168.189 774.8031,130.3937 774.8031,130.3937 737.0079,130.3937 737.0079,130.3937 737.0079,168.189 737.0079,168.189 737.0079,205.9843 737.0079,205.9843 737.0079,243.7795 737.0079,243.7795 699.2126,243.7795 699.2126,243.7795 699.2126,205.9843 699.2126,205.9843 737.0079,205.9843"/>
    <polyline points="724.6727,141.7913 716.5477,141.7913 716.5477,141.7913 716.5477,154.9163 716.5477,154.9163 724.6727,154.9163"/>
    <line x1="716.5477" x2="721.5477" y1="148.0413" y2="148.0413"/>
    <polyline points="762.7805,141.7913 762.7805,154.9163 762.7805,154.9163 754.0305,141.7913 754.0305,141.7913 754.0305,154.9163"/>
    <polyline points="18.8976,168.189 18.8976,205.9843 18.8976,205.9843 56.6929,205.9843 56.6929,205.9843 56.6929,168.189"/>
    <polyline points="44.0453,181.4616 42.7953,180.2116 42.7953,180.2116 40.9203,179.5866 40.9203,179.5866 38.4203,179.5866 38.4203,179.5866 36.5453,180.2116 36.5453,180.2116 35.2953,181.4616 35.2953,181.4616 35.2953,182.7116 35.2953,182.7116 35.9203,183.9616 35.9203,183.9616 36.5453,184.5866 36.5453,184.5866 37.7953,185.2116 37.7953,185.2116 41.5453,186.4616 41.5453,186.4616 42.7953,187.0866 42.7953,187.0866 43.4203,187.7116 43.4203,187.7116 44.0453,188.9616 44.0453,188.9616 44.0453,190.8366 44.0453,190.8366 42.7953,192.0866 42.7953,192.0866 40.9203,192.7116 40.9203,192.7116 38.4203,192.7116 38.4203,192.7116 36.5453,192.0866 36.5453,192.0866 35.2953,190.8366"/>
    <polyline points="98.253,171.3583 98.878,171.0458 98.878,171.0458 99.8155,170.1083 99.8155,170.1083 99.8155,176.6708"/>
    <polygon points="105.4405,170.1083 104.503,170.4208 104.503,170.4208 103.878,171.3583 103.878,171.3583 103.5655,172.9208 103.5655,172.9208 103.5655,173.8583 103.5655,173.8583 103.878,175.4208 103.878,175.4208 104.503,176.3583 104.503,176.3583 105.4405,176.6708 105.4405,176.6708 106.0655,176.6708 106.0655,176.6708 107.003,176.3583 107.003,176.3583 107.628,175.4208 107.628,175.4208 107.9405,173.8583 107.9405,173.8583 107.9405,172.9208 107.9405,172.9208 107.628,171.3583 107.628,171.3583 107.003,170.4208 107.003,170.4208 106.0655,170.1083 106.0655,170.1083"/>
    <polyline points="119.9483,179.5866 111.8233,179.5866 111.8233,179.5866 111.8233,192.7116"/>
    <line x1="111.8233" x2="116.8233" y1="185.8366" y2="185.8366"/>
    <polyline points="149.9311,179.5866 149.9311,192.7116 149.9311,192.7116 157.4311,192.7116"/>
    <line x1="207.874" x2="207.874" y1="205.9843" y2="168.189"/>
    <polyline points="195.5389,179.5866 187.4139,179.5866 187.4139,179.5866 187.4139,192.7116 187.4139,192.7116 195.5389,192.7116"/>
    <line x1="187.4139" x2="192.4139" y1="185.8366" y2="185.8366"/>
    <polyline points="233.0217,181.4616 231.7717,180.2116 231.7717,180.2116 229.8967,179.5866 229.8967,179.5866 227.3967,179.5866 227.3967,179.5866 225.5217,180.2116 225.5217,180.2116 224.2717,181.4616 224.2717,181.4616 224.2717,182.7116 224.2717,182.7116 224.8967,183.9616 224.8967,183.9616 225.5217,184.5866 225.5217,184.5866 226.7717,185.2116 226.7717,185.2116 230.5217,186.4616 230.5217,186.4616 231.7717,187.0866 231.7717,187.0866 232.3967,187.7116 232.3967,187.7116 233.0217,188.9616 233.0217,188.9616 233.0217,190.8366 233.0217,190.8366 231.7717,192.0866 231.7717,192.0866 229.8967,192.7116 229.8967,192.7116 227.3967,192.7116 227.3967,192.7116 225.5217,192.0866 225.5217,192.0866 224.2717,190.8366"/>
    <polyline points="245.6693,205.9843 283.4646,205.9843 283.4646,205.9843 283.4646,168.189 283.4646,168.189 245.6693,168.189"/>
    <polyline points="270.8169,181.4616 269.5669,180.2116 269.5669,180.2116 267.6919,179.5866 267.6919,179.5866 265.1919,179.5866 265.1919,179.5866 263.3169,180.2116 263.3169,180.2116 262.0669,181.4616 262.0669,181.4616 262.0669,182.7116 262.0669,182.7116 262.6919,183.9616 262.6919,183.9616 263.3169,184.5866 263.3169,184.5866 264.5669,185.2116 264.5669,185.2116 268.3169,186.4616 268.3169,186.4616 269.5669,187.0866 269.5669,187.0866 270.1919,187.7116 270.1919,187.7116 270.8169,188.9616 270.8169,188.9616 270.8169,190.8366 270.8169,190.8366 269.5669,192.0866 269.5669,192.0866 267.6919,192.7116 267.6919,192.7116 265.1919,192.7116 265.1919,192.7116 263.3169,192.0866 263.3169,192.0866 262.0669,190.8366"/>
    <polyline points="283.4646,205.9843 321.2598,205.9843 321.2598,205.9843 321.2598,168.189 321.2598,168.189 283.4646,168.189"/>
    <polyline points="308.9247,179.5866 300.7997,179.5866 300.7997,179.5866 300.7997,192.7116 300.7997,192.7116 308.9247,192.7116"/>
    <line x1="300.7997" x2="305.7997" y1="185.8366" y2="185.8366"/>
    <polyline points="321.2598,205.9843 359.0551,205.9843 359.0551,205.9843 359.0551,168.189 359.0551,168.189 321.2598,168.189"/>
    <polyline points="347.0325,179.5866 347.0325,192.7116 347.0325,192.7116 338.2825,179.5866 338.2825,179.5866 338.2825,192.7116"/>
    <polyline points="359.0551,205.9843 396.8504,205.9843 396.8504,205.9843 396.8504,243.7795 396.8504,243.7795 434.6457,243.7795 434.6457,243.7795 434.6457,205.9843 434.6457,205.9843 434.6457,168.189 434.6457,168.189 472.4409,168.189 472.4409,168.189 472.4409,205.9843 472.4409,205.9843 510.2362,205.9843 510.2362,205.9843 510.2362,168.189 510.2362,168.189 472.4409,168.189"/>
    <polyline points="472.4409,205.9843 434.6457,205.9843 434.6457,205.9843 396.8504,205.9843 396.8504,205.9843 396.8504,168.189 396.8504,168.189 359.0551,168.189"/>
    <polyline points="384.5153,182.7116 383.8903,181.4616 383.8903,181.4616 382.6403,180.2116 382.6403,180.2116 381.3903,179.5866 381.3903,179.5866 378.8903,179.5866 378.8903,179.5866 377.6403,180.2116 377.6403,180.2116 376.3903,181.4616 376.3903,181.4616 375.7653,182.7116 375.7653,182.7116 375.1403,184.5866 375.1403,184.5866 375.1403,187.7116 375.1403,187.7116 375.7653,189.5866 375.7653,189.5866 376.3903,190.8366 376.3903,190.8366 377.6403,192.0866 377.6403,192.0866 378.8903,192.7116 378.8903,192.7116 381.3903,192.7116 381.3903,192.7116 382.6403,192.0866 382.6403,192.0866 383.8903,190.8366 383.8903,190.8366 384.5153,189.5866 384.5153,189.5866 384.5153,187.7116 384.5153,187.7116 381.3903,187.7116"/>
    <polyline points="422.3105,179.5866 414.1855,179.5866 414.1855,179.5866 414.1855,192.7116 414.1855,192.7116 422.3105,192.7116"/>
    <line x1="414.1855" x2="419.1855" y1="185.8366" y2="185.8366"/>
    <polyline points="452.2933,179.5866 452.2933,192.7116 452.2933,192.7116 459.7933,192.7116"/>
    <polyline points="489.4636,179.5866 489.4636,188.9616 489.4636,188.9616 490.0886,190.8366 490.0886,190.8366 491.3386,192.0866 491.3386,192.0866 493.2136,192.7116 493.2136,192.7116 494.4636,192.7116 494.4636,192.7116 496.3386,192.0866 496.3386,192.0866 497.5886,190.8366 497.5886,190.8366 498.2136,188.9616 498.2136,188.9616 498.2136,179.5866"/>
    <polyline points="510.2362,205.9843 548.0315,205.9843 548.0315,205.9843 548.0315,168.189 548.0315,168.189 510.2362,168.189"/>
    <line x1="527.2589" x2="527.2589" y1="179.5866" y2="192.7116"/>
    <line x1="536.0089" x2="527.2589" y1="179.5866" y2="188.3366"/>
    <line x1="530.3839" x2="536.0089" y1="185.2116" y2="192.7116"/>
    <line x1="645.0197" x2="645.0197" y1="179.5866" y2="192.7116"/>
    <line x1="720.6102" x2="720.6102" y1="179.5866" y2="192.7116"/>
    <polyline points="149.9311,217.3819 149.9311,230.5069 149.9311,230.5069 157.4311,230.5069"/>
    <polyline points="413.873,223.6319 419.498,223.6319 419.498,223.6319 421.373,223.0069 421.373,223.0069 421.998,222.3819 421.998,222.3819 422.623,221.1319 422.623,221.1319 422.623,219.8819 422.623,219.8819 421.998,218.6319 421.998,218.6319 421.373,218.0069 421.373,218.0069 419.498,217.3819 419.498,217.3819 413.873,217.3819 413.873,217.3819 413.873,230.5069"/>
    <line x1="418.248" x2="422.623" y1="223.6319" y2="230.5069"/>
    <polyline points="646.8947,217.3819 646.8947,227.3819 646.8947,227.3819 646.2697,229.2569 646.2697,229.2569 645.6447,229.8819 645.6447,229.8819 644.3947,230.5069 644.3947,230.5069 643.1447,230.5069 643.1447,230.5069 641.8947,229.8819 641.8947,229.8819 641.2697,229.2569 641.2697,229.2569 640.6447,227.3819 640.6447,227.3819 640.6447,226.1319"/>
    <polyline points="724.9852,217.3819 724.9852,230.5069 724.9852,230.5069 716.2352,217.3819 716.2352,217.3819 716.2352,230.5069"/>
    <polygon points="56.6929,243.7795 56.6929,281.5748 56.6929,281.5748 94.4882,281.5748 94.4882,281.5748 94.4882,243.7795 94.4882,243.7795"/>
    <polyline points="60.4577,246.9488 61.0827,246.6363 61.0827,246.6363 62.0202,245.6988 62.0202,245.6988 62.0202,252.2613"/>
    <polyline points="66.7077,246.9488 67.3327,246.6363 67.3327,246.6363 68.2702,245.6988 68.2702,245.6988 68.2702,252.2613"/>
    <polyline points="81.8406,257.0522 80.5906,255.8022 80.5906,255.8022 78.7156,255.1772 78.7156,255.1772 76.2156,255.1772 76.2156,255.1772 74.3406,255.8022 74.3406,255.8022 73.0906,257.0522 73.0906,257.0522 73.0906,258.3022 73.0906,258.3022 73.7156,259.5522 73.7156,259.5522 74.3406,260.1772 74.3406,260.1772 75.5906,260.8022 75.5906,260.8022 79.3406,262.0522 79.3406,262.0522 80.5906,262.6772 80.5906,262.6772 81.2156,263.3022 81.2156,263.3022 81.8406,264.5522 81.8406,264.5522 81.8406,266.4272 81.8406,266.4272 80.5906,267.6772 80.5906,267.6772 78.7156,268.3022 78.7156,268.3022 76.2156,268.3022 76.2156,268.3022 74.3406,267.6772 74.3406,267.6772 73.0906,266.4272"/>
    <polyline points="94.4882,281.5748 132.2835,281.5748 132.2835,281.5748 132.2835,243.7795 132.2835,243.7795 94.4882,243.7795"/>
    <line x1="114.0108" x2="114.0108" y1="255.1772" y2="268.3022"/>
    <line x1="109.6358" x2="118.3858" y1="255.1772" y2="255.1772"/>
    <polyline points="207.874,357.1654 170.0787,357.1654 170.0787,357.1654 170.0787,319.3701 170.0787,319.3701 132.2835,319.3701 132.2835,319.3701 132.2835,281.5748 132.2835,281.5748 170.0787,281.5748 170.0787,281.5748 207.874,281.5748 207.874,281.5748 207.874,243.7795 207.874,243.7795 170.0787,243.7795 170.0787,243.7795 170.0787,281.5748 170.0787,281.5748 170.0787,319.3701 170.0787,319.3701 207.874,319.3701 207.874,319.3701 207.874,357.1654 207.874,357.1654 245.6693,357.1654 245.6693,357.1654 245.6693,319.3701 245.6693,319.3701 207.874,319.3701"/>
    <polyline points="157.7436,255.1772 149.6186,255.1772 149.6186,255.1772 149.6186,268.3022 149.6186,268.3022 157.7436,268.3022"/>
    <line x1="149.6186" x2="154.6186" y1="261.4272" y2="261.4272"/>
    <polyline points="187.1014,261.4272 192.7264,261.4272 192.7264,261.4272 194.6014,260.8022 194.6014,260.8022 195.2264,260.1772 195.2264,260.1772 195.8514,258.9272 195.8514,258.9272 195.8514,257.6772 195.8514,257.6772 195.2264,256.4272 195.2264,256.4272 194.6014,255.8022 194.6014,255.8022 192.7264,255.1772 192.7264,255.1772 187.1014,255.1772 187.1014,255.1772 187.1014,268.3022"/>
    <line x1="191.4764" x2="195.8514" y1="261.4272" y2="268.3022"/>
    <polygon points="245.6693,243.7795 245.6693,281.5748 245.6693,281.5748 283.4646,281.5748 283.4646,281.5748 321.2598,281.5748 321.2598,281.5748 321.2598,243.7795 321.2598,243.7795 283.4646,243.7795 283.4646,243.7795"/>
    <line x1="283.4646" x2="283.4646" y1="281.5748" y2="243.7795"/>
    <polyline points="249.4341,246.9488 250.0591,246.6363 250.0591,246.6363 250.9966,245.6988 250.9966,245.6988 250.9966,252.2613"/>
    <polyline points="255.0591,247.2613 255.0591,246.9488 255.0591,246.9488 255.3716,246.3238 255.3716,246.3238 255.6841,246.0113 255.6841,246.0113 256.3091,245.6988 256.3091,245.6988 257.5591,245.6988 257.5591,245.6988 258.1841,246.0113 258.1841,246.0113 258.4966,246.3238 258.4966,246.3238 258.8091,246.9488 258.8091,246.9488 258.8091,247.5738 258.8091,247.5738 258.4966,248.1988 258.4966,248.1988 257.8716,249.1363 257.8716,249.1363 254.7466,252.2613 254.7466,252.2613 259.1216,252.2613"/>
    <polyline points="272.0669,268.3022 272.0669,255.1772 272.0669,255.1772 267.0669,268.3022 267.0669,268.3022 262.0669,255.1772 262.0669,255.1772 262.0669,268.3022"/>
    <line x1="304.8622" x2="304.8622" y1="255.1772" y2="268.3022"/>
    <polyline points="321.2598,281.5748 359.0551,281.5748 359.0551,281.5748 396.8504,281.5748 396.8504,281.5748 434.6457,281.5748 434.6457,281.5748 434.6457,243.7795 434.6457,243.7795 472.4409,243.7795 472.4409,243.7795 472.4409,281.5748 472.4409,281.5748 510.2362,281.5748 510.2362,281.5748 510.2362,243.7795 510.2362,243.7795 472.4409,243.7795"/>
    <polyline points="359.0551,281.5748 359.0551,243.7795 359.0551,243.7795 321.2598,243.7795"/>
    <polyline points="346.4075,257.0522 345.1575,255.8022 345.1575,255.8022 343.2825,255.1772 343.2825,255.1772 340.7825,255.1772 340.7825,255.1772 338.9075,255.8022 338.9075,255.8022 337.6575,257.0522 337.6575,257.0522 337.6575,258.3022 337.6575,258.3022 338.2825,259.5522 338.2825,259.5522 338.9075,260.1772 338.9075,260.1772 340.1575,260.8022 340.1575,260.8022 343.9075,262.0522 343.9075,262.0522 345.1575,262.6772 345.1575,262.6772 345.7825,263.3022 345.7825,263.3022 346.4075,264.5522 346.4075,264.5522 346.4075,266.4272 346.4075,266.4272 345.1575,267.6772 345.1575,267.6772 343.2825,268.3022 343.2825,268.3022 340.7825,268.3022 340.7825,268.3022 338.9075,267.6772 338.9075,267.6772 337.6575,266.4272"/>
    <polyline points="472.4409,281.5748 434.6457,281.5748 434.6457,281.5748 434.6457,319.3701 434.6457,319.3701 396.8504,319.3701 396.8504,319.3701 396.8504,281.5748 396.8504,281.5748 396.8504,243.7795 396.8504,243.7795 359.0551,243.7795"/>
    <polyline points="373.5778,255.1772 378.5778,268.3022 378.5778,268.3022 383.5778,255.1772"/>
    <polyline points="422.3105,255.1772 414.1855,255.1772 414.1855,255.1772 414.1855,268.3022 414.1855,268.3022 422.3105,268.3022"/>
    <line x1="414.1855" x2="419.1855" y1="261.4272" y2="261.4272"/>
    <polyline points="451.6683,261.4272 457.2933,261.4272 457.2933,261.4272 459.1683,260.8022 459.1683,260.8022 459.7933,260.1772 459.7933,260.1772 460.4183,258.9272 460.4183,258.9272 460.4183,257.6772 460.4183,257.6772 459.7933,256.4272 459.7933,256.4272 459.1683,255.8022 459.1683,255.8022 457.2933,255.1772 457.2933,255.1772 451.6683,255.1772 451.6683,255.1772 451.6683,268.3022"/>
    <line x1="456.0433" x2="460.4183" y1="261.4272" y2="268.3022"/>
    <polyline points="497.5886,257.0522 496.3386,255.8022 496.3386,255.8022 494.4636,255.1772 494.4636,255.1772 491.9636,255.1772 491.9636,255.1772 490.0886,255.8022 490.0886,255.8022 488.8386,257.0522 488.8386,257.0522 488.8386,258.3022 488.8386,258.3022 489.4636,259.5522 489.4636,259.5522 490.0886,260.1772 490.0886,260.1772 491.3386,260.8022 491.3386,260.8022 495.0886,262.0522 495.0886,262.0522 496.3386,262.6772 496.3386,262.6772 496.9636,263.3022 496.9636,263.3022 497.5886,264.5522 497.5886,264.5522 497.5886,266.4272 497.5886,266.4272 496.3386,267.6772 496.3386,267.6772 494.4636,268.3022 494.4636,268.3022 491.9636,268.3022 491.9636,268.3022 490.0886,267.6772 490.0886,267.6772 488.8386,266.4272"/>
    <polyline points="510.2362,281.5748 548.0315,281.5748 548.0315,281.5748 585.8268,281.5748 585.8268,281.5748 585.8268,243.7795 585.8268,243.7795 548.0315,243.7795 548.0315,243.7795 510.2362,243.7795"/>
    <line x1="548.0315" x2="548.0315" y1="281.5748" y2="243.7795"/>
    <line x1="529.7589" x2="529.7589" y1="255.1772" y2="268.3022"/>
    <line x1="525.3839" x2="534.1339" y1="255.1772" y2="255.1772"/>
    <polyline points="572.5541,268.3022 567.5541,255.1772 567.5541,255.1772 562.5541,268.3022"/>
    <line x1="564.4291" x2="570.6791" y1="263.9272" y2="263.9272"/>
    <polyline points="585.8268,281.5748 623.622,281.5748 623.622,281.5748 661.4173,281.5748 661.4173,281.5748 661.4173,243.7795"/>
    <polyline points="661.4173,281.5748 661.4173,319.3701 661.4173,319.3701 661.4173,357.1654 661.4173,357.1654 623.622,357.1654 623.622,357.1654 623.622,319.3701 623.622,319.3701 623.622,281.5748 623.622,281.5748 623.622,243.7795 623.622,243.7795 585.8268,243.7795"/>
    <polyline points="611.5994,255.1772 611.5994,268.3022 611.5994,268.3022 602.8494,255.1772 602.8494,255.1772 602.8494,268.3022"/>
    <polygon points="640.6447,255.1772 640.6447,268.3022 640.6447,268.3022 645.0197,268.3022 645.0197,268.3022 646.8947,267.6772 646.8947,267.6772 648.1447,266.4272 648.1447,266.4272 648.7697,265.1772 648.7697,265.1772 649.3947,263.3022 649.3947,263.3022 649.3947,260.1772 649.3947,260.1772 648.7697,258.3022 648.7697,258.3022 648.1447,257.0522 648.1447,257.0522 646.8947,255.8022 646.8947,255.8022 645.0197,255.1772 645.0197,255.1772"/>
    <line x1="149.3061" x2="149.3061" y1="292.9724" y2="306.0974"/>
    <line x1="158.0561" x2="149.3061" y1="292.9724" y2="301.7224"/>
    <line x1="152.4311" x2="158.0561" y1="298.5974" y2="306.0974"/>
    <polyline points="422.623,292.9724 422.623,306.0974 422.623,306.0974 413.873,292.9724 413.873,292.9724 413.873,306.0974"/>
    <polyline points="623.622,319.3701 661.4173,319.3701 661.4173,319.3701 699.2126,319.3701 699.2126,319.3701 699.2126,357.1654 699.2126,357.1654 661.4173,357.1654"/>
    <polyline points="648.1447,306.0974 643.1447,292.9724 643.1447,292.9724 638.1447,306.0974"/>
    <line x1="640.0197" x2="646.2697" y1="301.7224" y2="301.7224"/>
    <polygon points="94.4882,319.3701 94.4882,357.1654 94.4882,357.1654 132.2835,357.1654 132.2835,357.1654 132.2835,319.3701 132.2835,319.3701"/>
    <polyline points="98.253,322.5394 98.878,322.2269 98.878,322.2269 99.8155,321.2894 99.8155,321.2894 99.8155,327.8519"/>
    <polyline points="104.1905,321.2894 107.628,321.2894 107.628,321.2894 105.753,323.7894 105.753,323.7894 106.6905,323.7894 106.6905,323.7894 107.3155,324.1019 107.3155,324.1019 107.628,324.4144 107.628,324.4144 107.9405,325.3519 107.9405,325.3519 107.9405,325.9769 107.9405,325.9769 107.628,326.9144 107.628,326.9144 107.003,327.5394 107.003,327.5394 106.0655,327.8519 106.0655,327.8519 105.128,327.8519 105.128,327.8519 104.1905,327.5394 104.1905,327.5394 103.878,327.2269 103.878,327.2269 103.5655,326.6019"/>
    <polyline points="111.5108,337.0177 117.1358,337.0177 117.1358,337.0177 119.0108,336.3927 119.0108,336.3927 119.6358,335.7677 119.6358,335.7677 120.2608,334.5177 120.2608,334.5177 120.2608,333.2677 120.2608,333.2677 119.6358,332.0177 119.6358,332.0177 119.0108,331.3927 119.0108,331.3927 117.1358,330.7677 117.1358,330.7677 111.5108,330.7677 111.5108,330.7677 111.5108,343.8927"/>
    <line x1="115.8858" x2="120.2608" y1="337.0177" y2="343.8927"/>
    <line x1="132.2835" x2="170.0787" y1="357.1654" y2="357.1654"/>
    <polyline points="157.7436,330.7677 149.6186,330.7677 149.6186,330.7677 149.6186,343.8927 149.6186,343.8927 157.7436,343.8927"/>
    <line x1="149.6186" x2="154.6186" y1="337.0177" y2="337.0177"/>
    <polyline points="195.5389,333.8927 194.9139,332.6427 194.9139,332.6427 193.6639,331.3927 193.6639,331.3927 192.4139,330.7677 192.4139,330.7677 189.9139,330.7677 189.9139,330.7677 188.6639,331.3927 188.6639,331.3927 187.4139,332.6427 187.4139,332.6427 186.7889,333.8927 186.7889,333.8927 186.1639,335.7677 186.1639,335.7677 186.1639,338.8927 186.1639,338.8927 186.7889,340.7677 186.7889,340.7677 187.4139,342.0177 187.4139,342.0177 188.6639,343.2677 188.6639,343.2677 189.9139,343.8927 189.9139,343.8927 192.4139,343.8927 192.4139,343.8927 193.6639,343.2677 193.6639,343.2677 194.9139,342.0177 194.9139,342.0177 195.5389,340.7677 195.5389,340.7677 195.5389,338.8927 195.5389,338.8927 192.4139,338.8927"/>
    <polyline points="233.3342,330.7677 225.2092,330.7677 225.2092,330.7677 225.2092,343.8927 225.2092,343.8927 233.3342,343.8927"/>
    <line x1="225.2092" x2="230.2092" y1="337.0177" y2="337.0177"/>
    <polyline points="245.6693,357.1654 283.4646,357.1654 283.4646,357.1654 283.4646,319.3701 283.4646,319.3701 245.6693,319.3701"/>
    <polyline points="271.4419,330.7677 271.4419,343.8927 271.4419,343.8927 262.6919,330.7677 262.6919,330.7677 262.6919,343.8927"/>
    <polyline points="283.4646,357.1654 321.2598,357.1654 321.2598,357.1654 359.0551,357.1654 359.0551,357.1654 396.8504,357.1654 396.8504,357.1654 396.8504,319.3701 396.8504,319.3701 359.0551,319.3701 359.0551,319.3701 321.2598,319.3701 321.2598,319.3701 283.4646,319.3701"/>
    <line x1="321.2598" x2="321.2598" y1="357.1654" y2="319.3701"/>
    <polyline points="306.1122,337.0177 307.9872,336.3927 307.9872,336.3927 308.6122,335.7677 308.6122,335.7677 309.2372,334.5177 309.2372,334.5177 309.2372,333.2677 309.2372,333.2677 308.6122,332.0177 308.6122,332.0177 307.9872,331.3927 307.9872,331.3927 306.1122,330.7677 306.1122,330.7677 300.4872,330.7677 300.4872,330.7677 300.4872,343.8927 300.4872,343.8927 306.1122,343.8927 306.1122,343.8927 307.9872,343.2677 307.9872,343.2677 308.6122,342.6427 308.6122,342.6427 309.2372,341.3927 309.2372,341.3927 309.2372,339.5177 309.2372,339.5177 308.6122,338.2677 308.6122,338.2677 307.9872,337.6427 307.9872,337.6427 306.1122,337.0177 306.1122,337.0177 300.4872,337.0177"/>
    <line x1="359.0551" x2="359.0551" y1="357.1654" y2="319.3701"/>
    <polyline points="338.2825,330.7677 338.2825,340.1427 338.2825,340.1427 338.9075,342.0177 338.9075,342.0177 340.1575,343.2677 340.1575,343.2677 342.0325,343.8927 342.0325,343.8927 343.2825,343.8927 343.2825,343.8927 345.1575,343.2677 345.1575,343.2677 346.4075,342.0177 346.4075,342.0177 347.0325,340.1427 347.0325,340.1427 347.0325,330.7677"/>
    <line x1="380.4528" x2="380.4528" y1="330.7677" y2="343.8927"/>
    <polyline points="627.3868,322.5394 628.0118,322.2269 628.0118,322.2269 628.9493,321.2894 628.9493,321.2894 628.9493,327.8519"/>
    <polyline points="635.8243,327.8519 635.8243,321.2894 635.8243,321.2894 632.6993,325.6644 632.6993,325.6644 637.3868,325.6644"/>
    <polyline points="649.0822,333.8927 648.4572,332.6427 648.4572,332.6427 647.2072,331.3927 647.2072,331.3927 645.9572,330.7677 645.9572,330.7677 643.4572,330.7677 643.4572,330.7677 642.2072,331.3927 642.2072,331.3927 640.9572,332.6427 640.9572,332.6427 640.3322,333.8927 640.3322,333.8927 639.7072,335.7677 639.7072,335.7677 639.7072,338.8927 639.7072,338.8927 640.3322,340.7677 640.3322,340.7677 640.9572,342.0177 640.9572,342.0177 642.2072,343.2677 642.2072,343.2677 643.4572,343.8927 643.4572,343.8927 645.9572,343.8927 645.9572,343.8927 647.2072,343.2677 647.2072,343.2677 648.4572,342.0177 648.4572,342.0177 649.0822,340.7677 649.0822,340.7677 649.0822,338.8927 649.0822,338.8927 645.9572,338.8927"/>
    <polyline points="678.44,337.0177 684.065,337.0177 684.065,337.0177 685.94,336.3927 685.94,336.3927 686.565,335.7677 686.565,335.7677 687.19,334.5177 687.19,334.5177 687.19,333.2677 687.19,333.2677 686.565,332.0177 686.565,332.0177 685.94,331.3927 685.94,331.3927 684.065,330.7677 684.065,330.7677 678.44,330.7677 678.44,330.7677 678.44,343.8927"/>
    <line x1="682.815" x2="687.19" y1="337.0177" y2="343.8927"/>
    <polyline points="699.2126,357.1654 737.0079,357.1654 737.0079,357.1654 737.0079,319.3701 737.0079,319.3701 699.2126,319.3701"/>
    <polyline points="723.7352,343.8927 718.7352,330.7677 718.7352,330.7677 713.7352,343.8927"/>
    <line x1="715.6102" x2="721.8602" y1="339.5177" y2="339.5177"/>
    <polyline points="737.0079,357.1654 774.8031,357.1654 774.8031,357.1654 774.8031,319.3701 774.8031,319.3701 737.0079,319.3701"/>
    <polyline points="762.1555,332.6427 760.9055,331.3927 760.9055,331.3927 759.0305,330.7677 759.0305,330.7677 756.5305,330.7677 756.5305,330.7677 754.6555,331.3927 754.6555,331.3927 753.4055,332.6427 753.4055,332.6427 753.4055,333.8927 753.4055,333.8927 754.0305,335.1427 754.0305,335.1427 754.6555,335.7677 754.6555,335.7677 755.9055,336.3927 755.9055,336.3927 759.6555,337.6427 759.6555,337.6427 760.9055,338.2677 760.9055,338.2677 761.5305,338.8927 761.5305,338.8927 762.1555,340.1427 762.1555,340.1427 762.1555,342.0177 762.1555,342.0177 760.9055,343.2677 760.9055,343.2677 759.0305,343.8927 759.0305,343.8927 756.5305,343.8927 756.5305,343.8927 754.6555,343.2677 754.6555,343.2677 753.4055,342.0177"/>
  </g>
</svg>
