<?xml version="1.0" encoding="utf-8" ?>
<svg xmlns="http://www.w3.org/2000/svg" xmlns:cc="http://creativecommons.org/ns" xmlns:dc="http://purl.org/dc/elements/1.1/" xmlns:ev="http://www.w3.org/2001/xml-events" xmlns:inkscape="http://www.inkscape.org/namespaces/inkscape" xmlns:rdf="http://www.w3.org/1999/02/22-rdf-syntax-ns" xmlns:sodipodi="http://sodipodi.sourceforge.net/DTD/sodipodi-0.dtd" xmlns:xlink="http://www.w3.org/1999/xlink" baseProfile="tiny" height="9.9cm" version="1.2" viewBox="0 0 793.7007874015749 374.1732283464567" width="21.0cm">
  <metadata>
    <rdf:RDF>
      <cc:Work>
        <dc:format>image/svg+xml</dc:format>
        <dc:source>vpype eval 'cell=10;width=210;height=99' eval 'nCols=20;nRows=9' eval 'cells=[10,14,22,23,24,25,26,27,28,29,30,31,32,34,42,48,50,54,56,57,58,59,60,61,62,63,64,65,66,68,70,74,76,78,80,82,87,88,89,90,91,92,93,94,95,96,98,100,102,103,104,105,106,110,114,116,118,120,122,125,130,136,140,142,144,145,146,147,148,149,150,151,152,153,154,155,160,162,165]' eval 'chars=[&quot;P&quot;,&quot;V&quot;,&quot;M&quot;,&quot;I&quot;,&quot;S&quot;,&quot;V&quot;,&quot;E&quot;,&quot;R&quot;,&quot;S&quot;,&quot;T&quot;,&quot;A&quot;,&quot;N&quot;,&quot;D&quot;,&quot;I&quot;,&quot;A&quot;,&quot;T&quot;,&quot;R&quot;,&quot;C&quot;,&quot;G&quot;,&quot;R&quot;,&quot;A&quot;,&quot;S&quot;,&quot;K&quot;,&quot;A&quot;,&quot;T&quot;,&quot;R&quot;,&quot;I&quot;,&quot;J&quot;,&quot;N&quot;,&quot;E&quot;,&quot;K&quot;,&quot;T&quot;,&quot;R&quot;,&quot;N&quot;,&quot;I&quot;,&quot;T&quot;,&quot;G&quot;,&quot;R&quot;,&quot;O&quot;,&quot;E&quot;,&quot;P&quot;,&quot;S&quot;,&quot;F&quot;,&quot;O&quot;,&quot;T&quot;,&quot;O&quot;,&quot;N&quot;,&quot;E&quot;,&quot;H&quot;,&quot;O&quot;,&quot;O&quot;,&quot;F&quot;,&quot;D&quot;,&quot;R&quot;,&quot;R&quot;,&quot;E&quot;,&quot;A&quot;,&quot;M&quot;,&quot;I&quot;,&quot;I&quot;,&quot;E&quot;,&quot;N&quot;,&quot;E&quot;,&quot;A&quot;,&quot;F&quot;,&quot;L&quot;,&quot;E&quot;,&quot;S&quot;,&quot;S&quot;,&quot;E&quot;,&quot;N&quot;,&quot;G&quot;,&quot;E&quot;,&quot;L&quot;,&quot;U&quot;,&quot;K&quot;,&quot;N&quot;,&quot;S&quot;,&quot;E&quot;]' eval 'numbers=[10,14,22,28,56,58,60,87,102,105,144]' eval counter=1 eval charIndex=0 begin grid -o '%cell*mm%' '%cell*mm%' %nCols% %nRows% eval '%isCell=_i in cells%' eval '%number=_i in numbers%' eval '%size=10 if isCell else 0%' rect 0 0 '%size*mm%' '%size*mm%' text -s 10 -p 0.5mm 1.5mm '%counter if number else '&quot;'&quot;''&quot;'&quot;'%' text -s 20 -p 5mm 5mm -a center '%chars[charIndex] if isCell else '&quot;'&quot;''&quot;'&quot;'%' eval '%if number: counter+=1 %' eval '%if isCell: charIndex+=1 %' end splitall deduplicate linemerge --tolerance 0.1mm write -m none --page-size '%width*mm%x%height*mm%' --center ./svgs/solution/66995c.svg
</dc:source>
        <dc:date>2024-01-03T14:59:54.171335</dc:date>
      </cc:Work>
    </rdf:RDF>
  </metadata>
  <defs/>
  <g fill="none" id="layer1" inkscape:groupmode="layer" inkscape:label="1" stroke="#000000" style="display:inline">
    <polyline points="359.0551,54.8031 359.0551,92.5984 359.0551,92.5984 359.0551,130.3937 359.0551,130.3937 359.0551,168.189 359.0551,168.189 396.8504,168.189 396.8504,168.189 396.8504,130.3937 396.8504,130.3937 396.8504,92.5984 396.8504,92.5984 396.8504,54.8031 396.8504,54.8031 434.6457,54.8031 434.6457,54.8031 434.6457,17.0079 434.6457,17.0079 396.8504,17.0079 396.8504,17.0079 396.8504,54.8031 396.8504,54.8031 359.0551,54.8031 359.0551,54.8031 321.2598,54.8031 321.2598,54.8031 283.4646,54.8031 283.4646,54.8031 245.6693,54.8031 245.6693,54.8031 207.874,54.8031 207.874,54.8031 170.0787,54.8031 170.0787,54.8031 132.2835,54.8031 132.2835,54.8031 94.4882,54.8031 94.4882,54.8031 94.4882,92.5984 94.4882,92.5984 94.4882,130.3937 94.4882,130.3937 56.6929,130.3937 56.6929,130.3937 18.8976,130.3937 18.8976,130.3937 18.8976,168.189 18.8976,168.189 56.6929,168.189 56.6929,168.189 56.6929,130.3937"/>
    <polyline points="400.6152,20.1772 401.2402,19.8647 401.2402,19.8647 402.1777,18.9272 402.1777,18.9272 402.1777,25.4897"/>
    <polyline points="413.873,35.2805 419.498,35.2805 419.498,35.2805 421.373,34.6555 421.373,34.6555 421.998,34.0305 421.998,34.0305 422.623,32.7805 422.623,32.7805 422.623,30.9055 422.623,30.9055 421.998,29.6555 421.998,29.6555 421.373,29.0305 421.373,29.0305 419.498,28.4055 419.498,28.4055 413.873,28.4055 413.873,28.4055 413.873,41.5305"/>
    <polygon points="548.0315,17.0079 548.0315,54.8031 548.0315,54.8031 585.8268,54.8031 585.8268,54.8031 585.8268,17.0079 585.8268,17.0079"/>
    <polyline points="551.1713,20.4897 551.1713,20.1772 551.1713,20.1772 551.4838,19.5522 551.4838,19.5522 551.7963,19.2397 551.7963,19.2397 552.4213,18.9272 552.4213,18.9272 553.6713,18.9272 553.6713,18.9272 554.2963,19.2397 554.2963,19.2397 554.6088,19.5522 554.6088,19.5522 554.9213,20.1772 554.9213,20.1772 554.9213,20.8022 554.9213,20.8022 554.6088,21.4272 554.6088,21.4272 553.9838,22.3647 553.9838,22.3647 550.8588,25.4897 550.8588,25.4897 555.2338,25.4897"/>
    <polyline points="562.5541,28.4055 567.5541,41.5305 567.5541,41.5305 572.5541,28.4055"/>
    <polyline points="94.4882,92.5984 132.2835,92.5984 132.2835,92.5984 132.2835,54.8031"/>
    <polyline points="97.9405,56.7224 101.378,56.7224 101.378,56.7224 99.503,59.2224 99.503,59.2224 100.4405,59.2224 100.4405,59.2224 101.0655,59.5349 101.0655,59.5349 101.378,59.8474 101.378,59.8474 101.6905,60.7849 101.6905,60.7849 101.6905,61.4099 101.6905,61.4099 101.378,62.3474 101.378,62.3474 100.753,62.9724 100.753,62.9724 99.8155,63.2849 99.8155,63.2849 98.878,63.2849 98.878,63.2849 97.9405,62.9724 97.9405,62.9724 97.628,62.6599 97.628,62.6599 97.3155,62.0349"/>
    <polyline points="120.8858,79.3258 120.8858,66.2008 120.8858,66.2008 115.8858,79.3258 115.8858,79.3258 110.8858,66.2008 110.8858,66.2008 110.8858,79.3258"/>
    <polyline points="170.0787,130.3937 207.874,130.3937 207.874,130.3937 245.6693,130.3937 245.6693,130.3937 245.6693,168.189 245.6693,168.189 207.874,168.189 207.874,168.189 170.0787,168.189 170.0787,168.189 170.0787,130.3937 170.0787,130.3937 132.2835,130.3937 132.2835,130.3937 132.2835,92.5984 132.2835,92.5984 170.0787,92.5984 170.0787,92.5984 170.0787,54.8031"/>
    <line x1="153.6811" x2="153.6811" y1="66.2008" y2="79.3258"/>
    <polyline points="170.0787,92.5984 207.874,92.5984 207.874,92.5984 245.6693,92.5984 245.6693,92.5984 245.6693,54.8031"/>
    <line x1="207.874" x2="207.874" y1="92.5984" y2="54.8031"/>
    <polyline points="195.2264,68.0758 193.9764,66.8258 193.9764,66.8258 192.1014,66.2008 192.1014,66.2008 189.6014,66.2008 189.6014,66.2008 187.7264,66.8258 187.7264,66.8258 186.4764,68.0758 186.4764,68.0758 186.4764,69.3258 186.4764,69.3258 187.1014,70.5758 187.1014,70.5758 187.7264,71.2008 187.7264,71.2008 188.9764,71.8258 188.9764,71.8258 192.7264,73.0758 192.7264,73.0758 193.9764,73.7008 193.9764,73.7008 194.6014,74.3258 194.6014,74.3258 195.2264,75.5758 195.2264,75.5758 195.2264,77.4508 195.2264,77.4508 193.9764,78.7008 193.9764,78.7008 192.1014,79.3258 192.1014,79.3258 189.6014,79.3258 189.6014,79.3258 187.7264,78.7008 187.7264,78.7008 186.4764,77.4508"/>
    <polyline points="222.3967,66.2008 227.3967,79.3258 227.3967,79.3258 232.3967,66.2008"/>
    <polyline points="245.6693,92.5984 283.4646,92.5984 283.4646,92.5984 321.2598,92.5984 321.2598,92.5984 321.2598,54.8031"/>
    <line x1="283.4646" x2="283.4646" y1="92.5984" y2="54.8031"/>
    <polyline points="271.1294,66.2008 263.0044,66.2008 263.0044,66.2008 263.0044,79.3258 263.0044,79.3258 271.1294,79.3258"/>
    <line x1="263.0044" x2="268.0044" y1="72.4508" y2="72.4508"/>
    <polyline points="300.4872,72.4508 306.1122,72.4508 306.1122,72.4508 307.9872,71.8258 307.9872,71.8258 308.6122,71.2008 308.6122,71.2008 309.2372,69.9508 309.2372,69.9508 309.2372,68.7008 309.2372,68.7008 308.6122,67.4508 308.6122,67.4508 307.9872,66.8258 307.9872,66.8258 306.1122,66.2008 306.1122,66.2008 300.4872,66.2008 300.4872,66.2008 300.4872,79.3258"/>
    <line x1="304.8622" x2="309.2372" y1="72.4508" y2="79.3258"/>
    <polyline points="245.6693,130.3937 283.4646,130.3937 283.4646,130.3937 283.4646,168.189 283.4646,168.189 321.2598,168.189 321.2598,168.189 321.2598,130.3937 321.2598,130.3937 321.2598,92.5984 321.2598,92.5984 359.0551,92.5984 359.0551,92.5984 396.8504,92.5984 396.8504,92.5984 434.6457,92.5984 434.6457,92.5984 434.6457,54.8031 434.6457,54.8031 472.4409,54.8031 472.4409,54.8031 472.4409,92.5984 472.4409,92.5984 510.2362,92.5984 510.2362,92.5984 510.2362,54.8031 510.2362,54.8031 472.4409,54.8031"/>
    <polyline points="327.2121,63.2849 327.2121,56.7224 327.2121,56.7224 324.0871,61.0974 324.0871,61.0974 328.7746,61.0974"/>
    <polyline points="346.4075,68.0758 345.1575,66.8258 345.1575,66.8258 343.2825,66.2008 343.2825,66.2008 340.7825,66.2008 340.7825,66.2008 338.9075,66.8258 338.9075,66.8258 337.6575,68.0758 337.6575,68.0758 337.6575,69.3258 337.6575,69.3258 338.2825,70.5758 338.2825,70.5758 338.9075,71.2008 338.9075,71.2008 340.1575,71.8258 340.1575,71.8258 343.9075,73.0758 343.9075,73.0758 345.1575,73.7008 345.1575,73.7008 345.7825,74.3258 345.7825,74.3258 346.4075,75.5758 346.4075,75.5758 346.4075,77.4508 346.4075,77.4508 345.1575,78.7008 345.1575,78.7008 343.2825,79.3258 343.2825,79.3258 340.7825,79.3258 340.7825,79.3258 338.9075,78.7008 338.9075,78.7008 337.6575,77.4508"/>
    <line x1="378.5778" x2="378.5778" y1="66.2008" y2="79.3258"/>
    <line x1="374.2028" x2="382.9528" y1="66.2008" y2="66.2008"/>
    <polyline points="421.373,79.3258 416.373,66.2008 416.373,66.2008 411.373,79.3258"/>
    <line x1="413.248" x2="419.498" y1="74.9508" y2="74.9508"/>
    <polyline points="585.8268,54.8031 585.8268,92.5984 585.8268,92.5984 585.8268,130.3937 585.8268,130.3937 585.8268,168.189 585.8268,168.189 585.8268,205.9843 585.8268,205.9843 585.8268,243.7795 585.8268,243.7795 548.0315,243.7795 548.0315,243.7795 548.0315,205.9843 548.0315,205.9843 510.2362,205.9843 510.2362,205.9843 472.4409,205.9843 472.4409,205.9843 434.6457,205.9843 434.6457,205.9843 434.6457,243.7795 434.6457,243.7795 396.8504,243.7795 396.8504,243.7795 396.8504,205.9843 396.8504,205.9843 434.6457,205.9843 434.6457,205.9843 434.6457,168.189 434.6457,168.189 434.6457,130.3937 434.6457,130.3937 434.6457,92.5984 434.6457,92.5984 472.4409,92.5984"/>
    <polyline points="460.4183,66.2008 460.4183,79.3258 460.4183,79.3258 451.6683,66.2008 451.6683,66.2008 451.6683,79.3258"/>
    <polygon points="489.4636,66.2008 489.4636,79.3258 489.4636,79.3258 493.8386,79.3258 493.8386,79.3258 495.7136,78.7008 495.7136,78.7008 496.9636,77.4508 496.9636,77.4508 497.5886,76.2008 497.5886,76.2008 498.2136,74.3258 498.2136,74.3258 498.2136,71.2008 498.2136,71.2008 497.5886,69.3258 497.5886,69.3258 496.9636,68.0758 496.9636,68.0758 495.7136,66.8258 495.7136,66.8258 493.8386,66.2008 493.8386,66.2008"/>
    <polyline points="548.0315,54.8031 548.0315,92.5984 548.0315,92.5984 548.0315,130.3937 548.0315,130.3937 585.8268,130.3937"/>
    <line x1="548.0315" x2="585.8268" y1="92.5984" y2="92.5984"/>
    <line x1="569.4291" x2="569.4291" y1="66.2008" y2="79.3258"/>
    <polyline points="207.874,205.9843 245.6693,205.9843 245.6693,205.9843 245.6693,243.7795 245.6693,243.7795 207.874,243.7795 207.874,243.7795 207.874,205.9843 207.874,205.9843 170.0787,205.9843 170.0787,205.9843 132.2835,205.9843 132.2835,205.9843 132.2835,168.189 132.2835,168.189 94.4882,168.189 94.4882,168.189 94.4882,130.3937 94.4882,130.3937 132.2835,130.3937 132.2835,130.3937 132.2835,168.189 132.2835,168.189 170.0787,168.189"/>
    <polyline points="119.0108,117.1211 114.0108,103.9961 114.0108,103.9961 109.0108,117.1211"/>
    <line x1="110.8858" x2="117.1358" y1="112.7461" y2="112.7461"/>
    <line x1="321.2598" x2="359.0551" y1="130.3937" y2="130.3937"/>
    <line x1="340.7825" x2="340.7825" y1="103.9961" y2="117.1211"/>
    <line x1="336.4075" x2="345.1575" y1="103.9961" y2="103.9961"/>
    <line x1="396.8504" x2="434.6457" y1="130.3937" y2="130.3937"/>
    <polyline points="413.873,110.2461 419.498,110.2461 419.498,110.2461 421.373,109.6211 421.373,109.6211 421.998,108.9961 421.998,108.9961 422.623,107.7461 422.623,107.7461 422.623,106.4961 422.623,106.4961 421.998,105.2461 421.998,105.2461 421.373,104.6211 421.373,104.6211 419.498,103.9961 419.498,103.9961 413.873,103.9961 413.873,103.9961 413.873,117.1211"/>
    <line x1="418.248" x2="422.623" y1="110.2461" y2="117.1211"/>
    <polyline points="573.4916,107.1211 572.8666,105.8711 572.8666,105.8711 571.6166,104.6211 571.6166,104.6211 570.3666,103.9961 570.3666,103.9961 567.8666,103.9961 567.8666,103.9961 566.6166,104.6211 566.6166,104.6211 565.3666,105.8711 565.3666,105.8711 564.7416,107.1211 564.7416,107.1211 564.1166,108.9961 564.1166,108.9961 564.1166,112.1211 564.1166,112.1211 564.7416,113.9961 564.7416,113.9961 565.3666,115.2461 565.3666,115.2461 566.6166,116.4961 566.6166,116.4961 567.8666,117.1211 567.8666,117.1211 570.3666,117.1211 570.3666,117.1211 571.6166,116.4961 571.6166,116.4961 572.8666,115.2461 572.8666,115.2461 573.4916,113.9961"/>
    <polygon points="623.622,92.5984 623.622,130.3937 623.622,130.3937 661.4173,130.3937 661.4173,130.3937 699.2126,130.3937 699.2126,130.3937 699.2126,92.5984 699.2126,92.5984 661.4173,92.5984 661.4173,92.5984"/>
    <polyline points="661.4173,168.189 623.622,168.189 623.622,168.189 623.622,205.9843 623.622,205.9843 623.622,243.7795 623.622,243.7795 661.4173,243.7795 661.4173,243.7795 661.4173,205.9843 661.4173,205.9843 661.4173,168.189 661.4173,168.189 661.4173,130.3937 661.4173,130.3937 661.4173,92.5984"/>
    <polyline points="630.1993,94.5177 627.0743,94.5177 627.0743,94.5177 626.7618,97.3302 626.7618,97.3302 627.0743,97.0177 627.0743,97.0177 628.0118,96.7052 628.0118,96.7052 628.9493,96.7052 628.9493,96.7052 629.8868,97.0177 629.8868,97.0177 630.5118,97.6427 630.5118,97.6427 630.8243,98.5802 630.8243,98.5802 630.8243,99.2052 630.8243,99.2052 630.5118,100.1427 630.5118,100.1427 629.8868,100.7677 629.8868,100.7677 628.9493,101.0802 628.9493,101.0802 628.0118,101.0802 628.0118,101.0802 627.0743,100.7677 627.0743,100.7677 626.7618,100.4552 626.7618,100.4552 626.4493,99.8302"/>
    <polyline points="649.0822,107.1211 648.4572,105.8711 648.4572,105.8711 647.2072,104.6211 647.2072,104.6211 645.9572,103.9961 645.9572,103.9961 643.4572,103.9961 643.4572,103.9961 642.2072,104.6211 642.2072,104.6211 640.9572,105.8711 640.9572,105.8711 640.3322,107.1211 640.3322,107.1211 639.7072,108.9961 639.7072,108.9961 639.7072,112.1211 639.7072,112.1211 640.3322,113.9961 640.3322,113.9961 640.9572,115.2461 640.9572,115.2461 642.2072,116.4961 642.2072,116.4961 643.4572,117.1211 643.4572,117.1211 645.9572,117.1211 645.9572,117.1211 647.2072,116.4961 647.2072,116.4961 648.4572,115.2461 648.4572,115.2461 649.0822,113.9961 649.0822,113.9961 649.0822,112.1211 649.0822,112.1211 645.9572,112.1211"/>
    <polyline points="678.44,110.2461 684.065,110.2461 684.065,110.2461 685.94,109.6211 685.94,109.6211 686.565,108.9961 686.565,108.9961 687.19,107.7461 687.19,107.7461 687.19,106.4961 687.19,106.4961 686.565,105.2461 686.565,105.2461 685.94,104.6211 685.94,104.6211 684.065,103.9961 684.065,103.9961 678.44,103.9961 678.44,103.9961 678.44,117.1211"/>
    <line x1="682.815" x2="687.19" y1="110.2461" y2="117.1211"/>
    <polyline points="737.0079,92.5984 737.0079,130.3937 737.0079,130.3937 737.0079,168.189 737.0079,168.189 699.2126,168.189 699.2126,168.189 699.2126,130.3937 699.2126,130.3937 737.0079,130.3937 737.0079,130.3937 774.8031,130.3937 774.8031,130.3937 774.8031,92.5984 774.8031,92.5984 737.0079,92.5984 737.0079,92.5984 699.2126,92.5984"/>
    <polyline points="706.1024,95.4552 705.7899,94.8302 705.7899,94.8302 704.8524,94.5177 704.8524,94.5177 704.2274,94.5177 704.2274,94.5177 703.2899,94.8302 703.2899,94.8302 702.6649,95.7677 702.6649,95.7677 702.3524,97.3302 702.3524,97.3302 702.3524,98.8927 702.3524,98.8927 702.6649,100.1427 702.6649,100.1427 703.2899,100.7677 703.2899,100.7677 704.2274,101.0802 704.2274,101.0802 704.5399,101.0802 704.5399,101.0802 705.4774,100.7677 705.4774,100.7677 706.1024,100.1427 706.1024,100.1427 706.4149,99.2052 706.4149,99.2052 706.4149,98.8927 706.4149,98.8927 706.1024,97.9552 706.1024,97.9552 705.4774,97.3302 705.4774,97.3302 704.5399,97.0177 704.5399,97.0177 704.2274,97.0177 704.2274,97.0177 703.2899,97.3302 703.2899,97.3302 702.6649,97.9552 702.6649,97.9552 702.3524,98.8927"/>
    <polyline points="723.7352,117.1211 718.7352,103.9961 718.7352,103.9961 713.7352,117.1211"/>
    <line x1="715.6102" x2="721.8602" y1="112.7461" y2="112.7461"/>
    <polyline points="762.1555,105.8711 760.9055,104.6211 760.9055,104.6211 759.0305,103.9961 759.0305,103.9961 756.5305,103.9961 756.5305,103.9961 754.6555,104.6211 754.6555,104.6211 753.4055,105.8711 753.4055,105.8711 753.4055,107.1211 753.4055,107.1211 754.0305,108.3711 754.0305,108.3711 754.6555,108.9961 754.6555,108.9961 755.9055,109.6211 755.9055,109.6211 759.6555,110.8711 759.6555,110.8711 760.9055,111.4961 760.9055,111.4961 761.5305,112.1211 761.5305,112.1211 762.1555,113.3711 762.1555,113.3711 762.1555,115.2461 762.1555,115.2461 760.9055,116.4961 760.9055,116.4961 759.0305,117.1211 759.0305,117.1211 756.5305,117.1211 756.5305,117.1211 754.6555,116.4961 754.6555,116.4961 753.4055,115.2461"/>
    <polyline points="21.7249,132.313 26.0999,132.313 26.0999,132.313 22.9749,138.8755"/>
    <line x1="35.9203" x2="35.9203" y1="141.7913" y2="154.9163"/>
    <line x1="44.6703" x2="35.9203" y1="141.7913" y2="150.5413"/>
    <line x1="39.0453" x2="44.6703" y1="147.4163" y2="154.9163"/>
    <polyline points="56.6929,205.9843 56.6929,243.7795 56.6929,243.7795 18.8976,243.7795 18.8976,243.7795 18.8976,205.9843 18.8976,205.9843 56.6929,205.9843 56.6929,205.9843 56.6929,168.189 56.6929,168.189 94.4882,168.189 94.4882,168.189 94.4882,205.9843 94.4882,205.9843 94.4882,243.7795 94.4882,243.7795 132.2835,243.7795 132.2835,243.7795 170.0787,243.7795 170.0787,243.7795 170.0787,205.9843"/>
    <polyline points="81.2156,154.9163 76.2156,141.7913 76.2156,141.7913 71.2156,154.9163"/>
    <line x1="73.0906" x2="79.3406" y1="150.5413" y2="150.5413"/>
    <line x1="114.0108" x2="114.0108" y1="141.7913" y2="154.9163"/>
    <line x1="109.6358" x2="118.3858" y1="141.7913" y2="141.7913"/>
    <polyline points="149.3061,148.0413 154.9311,148.0413 154.9311,148.0413 156.8061,147.4163 156.8061,147.4163 157.4311,146.7913 157.4311,146.7913 158.0561,145.5413 158.0561,145.5413 158.0561,144.2913 158.0561,144.2913 157.4311,143.0413 157.4311,143.0413 156.8061,142.4163 156.8061,142.4163 154.9311,141.7913 154.9311,141.7913 149.3061,141.7913 149.3061,141.7913 149.3061,154.9163"/>
    <line x1="153.6811" x2="158.0561" y1="148.0413" y2="154.9163"/>
    <line x1="207.874" x2="207.874" y1="168.189" y2="130.3937"/>
    <line x1="191.4764" x2="191.4764" y1="141.7913" y2="154.9163"/>
    <polyline points="231.1467,141.7913 231.1467,151.7913 231.1467,151.7913 230.5217,153.6663 230.5217,153.6663 229.8967,154.2913 229.8967,154.2913 228.6467,154.9163 228.6467,154.9163 227.3967,154.9163 227.3967,154.9163 226.1467,154.2913 226.1467,154.2913 225.5217,153.6663 225.5217,153.6663 224.8967,151.7913 224.8967,151.7913 224.8967,150.5413"/>
    <polyline points="245.6693,168.189 283.4646,168.189 283.4646,168.189 283.4646,205.9843 283.4646,205.9843 245.6693,205.9843"/>
    <polyline points="271.4419,141.7913 271.4419,154.9163 271.4419,154.9163 262.6919,141.7913 262.6919,141.7913 262.6919,154.9163"/>
    <polyline points="359.0551,205.9843 321.2598,205.9843 321.2598,205.9843 321.2598,168.189 321.2598,168.189 359.0551,168.189 359.0551,168.189 359.0551,205.9843 359.0551,205.9843 396.8504,205.9843 396.8504,205.9843 396.8504,168.189 396.8504,168.189 434.6457,168.189 434.6457,168.189 472.4409,168.189 472.4409,168.189 472.4409,205.9843"/>
    <polyline points="346.72,141.7913 338.595,141.7913 338.595,141.7913 338.595,154.9163 338.595,154.9163 346.72,154.9163"/>
    <line x1="338.595" x2="343.595" y1="148.0413" y2="148.0413"/>
    <line x1="413.873" x2="413.873" y1="141.7913" y2="154.9163"/>
    <line x1="422.623" x2="413.873" y1="141.7913" y2="150.5413"/>
    <line x1="416.998" x2="422.623" y1="147.4163" y2="154.9163"/>
    <polyline points="548.0315,130.3937 548.0315,168.189 548.0315,168.189 510.2362,168.189 510.2362,168.189 472.4409,168.189"/>
    <polyline points="661.4173,205.9843 623.622,205.9843 623.622,205.9843 585.8268,205.9843 585.8268,205.9843 548.0315,205.9843 548.0315,205.9843 548.0315,168.189 548.0315,168.189 585.8268,168.189 585.8268,168.189 623.622,168.189 623.622,168.189 623.622,130.3937"/>
    <line x1="567.5541" x2="567.5541" y1="141.7913" y2="154.9163"/>
    <line x1="563.1791" x2="571.9291" y1="141.7913" y2="141.7913"/>
    <polyline points="640.6447,148.0413 646.2697,148.0413 646.2697,148.0413 648.1447,147.4163 648.1447,147.4163 648.7697,146.7913 648.7697,146.7913 649.3947,145.5413 649.3947,145.5413 649.3947,144.2913 649.3947,144.2913 648.7697,143.0413 648.7697,143.0413 648.1447,142.4163 648.1447,142.4163 646.2697,141.7913 646.2697,141.7913 640.6447,141.7913 640.6447,141.7913 640.6447,154.9163"/>
    <line x1="645.0197" x2="649.3947" y1="148.0413" y2="154.9163"/>
    <polyline points="724.9852,141.7913 724.9852,154.9163 724.9852,154.9163 716.2352,141.7913 716.2352,141.7913 716.2352,154.9163"/>
    <line x1="18.8976" x2="18.8976" y1="168.189" y2="205.9843"/>
    <line x1="40.2953" x2="40.2953" y1="179.5866" y2="192.7116"/>
    <polyline points="94.4882,205.9843 132.2835,205.9843 132.2835,205.9843 132.2835,243.7795 132.2835,243.7795 132.2835,281.5748 132.2835,281.5748 132.2835,319.3701 132.2835,319.3701 132.2835,357.1654 132.2835,357.1654 94.4882,357.1654 94.4882,357.1654 94.4882,319.3701 94.4882,319.3701 132.2835,319.3701"/>
    <line x1="114.0108" x2="114.0108" y1="179.5866" y2="192.7116"/>
    <line x1="109.6358" x2="118.3858" y1="179.5866" y2="179.5866"/>
    <polyline points="434.6457,243.7795 434.6457,281.5748 434.6457,281.5748 434.6457,319.3701 434.6457,319.3701 396.8504,319.3701 396.8504,319.3701 359.0551,319.3701 359.0551,319.3701 359.0551,281.5748 359.0551,281.5748 321.2598,281.5748 321.2598,281.5748 283.4646,281.5748 283.4646,281.5748 245.6693,281.5748 245.6693,281.5748 245.6693,319.3701 245.6693,319.3701 207.874,319.3701 207.874,319.3701 170.0787,319.3701 170.0787,319.3701 170.0787,281.5748 170.0787,281.5748 207.874,281.5748 207.874,281.5748 245.6693,281.5748 245.6693,281.5748 245.6693,243.7795 245.6693,243.7795 283.4646,243.7795 283.4646,243.7795 283.4646,205.9843 283.4646,205.9843 321.2598,205.9843"/>
    <polygon points="287.8543,170.1083 286.9168,170.4208 286.9168,170.4208 286.6043,171.0458 286.6043,171.0458 286.6043,171.6708 286.6043,171.6708 286.9168,172.2958 286.9168,172.2958 287.5418,172.6083 287.5418,172.6083 288.7918,172.9208 288.7918,172.9208 289.7293,173.2333 289.7293,173.2333 290.3543,173.8583 290.3543,173.8583 290.6668,174.4833 290.6668,174.4833 290.6668,175.4208 290.6668,175.4208 290.3543,176.0458 290.3543,176.0458 290.0418,176.3583 290.0418,176.3583 289.1043,176.6708 289.1043,176.6708 287.8543,176.6708 287.8543,176.6708 286.9168,176.3583 286.9168,176.3583 286.6043,176.0458 286.6043,176.0458 286.2918,175.4208 286.2918,175.4208 286.2918,174.4833 286.2918,174.4833 286.6043,173.8583 286.6043,173.8583 287.2293,173.2333 287.2293,173.2333 288.1668,172.9208 288.1668,172.9208 289.4168,172.6083 289.4168,172.6083 290.0418,172.2958 290.0418,172.2958 290.3543,171.6708 290.3543,171.6708 290.3543,171.0458 290.3543,171.0458 290.0418,170.4208 290.0418,170.4208 289.1043,170.1083 289.1043,170.1083"/>
    <polyline points="308.9247,182.7116 308.2997,181.4616 308.2997,181.4616 307.0497,180.2116 307.0497,180.2116 305.7997,179.5866 305.7997,179.5866 303.2997,179.5866 303.2997,179.5866 302.0497,180.2116 302.0497,180.2116 300.7997,181.4616 300.7997,181.4616 300.1747,182.7116 300.1747,182.7116 299.5497,184.5866 299.5497,184.5866 299.5497,187.7116 299.5497,187.7116 300.1747,189.5866 300.1747,189.5866 300.7997,190.8366 300.7997,190.8366 302.0497,192.0866 302.0497,192.0866 303.2997,192.7116 303.2997,192.7116 305.7997,192.7116 305.7997,192.7116 307.0497,192.0866 307.0497,192.0866 308.2997,190.8366 308.2997,190.8366 308.9247,189.5866 308.9247,189.5866 308.9247,187.7116 308.9247,187.7116 305.7997,187.7116"/>
    <polyline points="338.2825,185.8366 343.9075,185.8366 343.9075,185.8366 345.7825,185.2116 345.7825,185.2116 346.4075,184.5866 346.4075,184.5866 347.0325,183.3366 347.0325,183.3366 347.0325,182.0866 347.0325,182.0866 346.4075,180.8366 346.4075,180.8366 345.7825,180.2116 345.7825,180.2116 343.9075,179.5866 343.9075,179.5866 338.2825,179.5866 338.2825,179.5866 338.2825,192.7116"/>
    <line x1="342.6575" x2="347.0325" y1="185.8366" y2="192.7116"/>
    <polygon points="378.5778,179.5866 377.3278,180.2116 377.3278,180.2116 376.0778,181.4616 376.0778,181.4616 375.4528,182.7116 375.4528,182.7116 374.8278,184.5866 374.8278,184.5866 374.8278,187.7116 374.8278,187.7116 375.4528,189.5866 375.4528,189.5866 376.0778,190.8366 376.0778,190.8366 377.3278,192.0866 377.3278,192.0866 378.5778,192.7116 378.5778,192.7116 381.0778,192.7116 381.0778,192.7116 382.3278,192.0866 382.3278,192.0866 383.5778,190.8366 383.5778,190.8366 384.2028,189.5866 384.2028,189.5866 384.8278,187.7116 384.8278,187.7116 384.8278,184.5866 384.8278,184.5866 384.2028,182.7116 384.2028,182.7116 383.5778,181.4616 383.5778,181.4616 382.3278,180.2116 382.3278,180.2116 381.0778,179.5866 381.0778,179.5866"/>
    <polyline points="422.3105,179.5866 414.1855,179.5866 414.1855,179.5866 414.1855,192.7116 414.1855,192.7116 422.3105,192.7116"/>
    <line x1="414.1855" x2="419.1855" y1="185.8366" y2="185.8366"/>
    <polyline points="451.6683,186.4616 457.2933,186.4616 457.2933,186.4616 459.1683,185.8366 459.1683,185.8366 459.7933,185.2116 459.7933,185.2116 460.4183,183.9616 460.4183,183.9616 460.4183,182.0866 460.4183,182.0866 459.7933,180.8366 459.7933,180.8366 459.1683,180.2116 459.1683,180.2116 457.2933,179.5866 457.2933,179.5866 451.6683,179.5866 451.6683,179.5866 451.6683,192.7116"/>
    <line x1="510.2362" x2="510.2362" y1="205.9843" y2="168.189"/>
    <polyline points="497.5886,181.4616 496.3386,180.2116 496.3386,180.2116 494.4636,179.5866 494.4636,179.5866 491.9636,179.5866 491.9636,179.5866 490.0886,180.2116 490.0886,180.2116 488.8386,181.4616 488.8386,181.4616 488.8386,182.7116 488.8386,182.7116 489.4636,183.9616 489.4636,183.9616 490.0886,184.5866 490.0886,184.5866 491.3386,185.2116 491.3386,185.2116 495.0886,186.4616 495.0886,186.4616 496.3386,187.0866 496.3386,187.0866 496.9636,187.7116 496.9636,187.7116 497.5886,188.9616 497.5886,188.9616 497.5886,190.8366 497.5886,190.8366 496.3386,192.0866 496.3386,192.0866 494.4636,192.7116 494.4636,192.7116 491.9636,192.7116 491.9636,192.7116 490.0886,192.0866 490.0886,192.0866 488.8386,190.8366"/>
    <polyline points="535.6964,179.5866 527.5714,179.5866 527.5714,179.5866 527.5714,192.7116"/>
    <line x1="527.5714" x2="532.5714" y1="185.8366" y2="185.8366"/>
    <polygon points="567.5541,179.5866 566.3041,180.2116 566.3041,180.2116 565.0541,181.4616 565.0541,181.4616 564.4291,182.7116 564.4291,182.7116 563.8041,184.5866 563.8041,184.5866 563.8041,187.7116 563.8041,187.7116 564.4291,189.5866 564.4291,189.5866 565.0541,190.8366 565.0541,190.8366 566.3041,192.0866 566.3041,192.0866 567.5541,192.7116 567.5541,192.7116 570.0541,192.7116 570.0541,192.7116 571.3041,192.0866 571.3041,192.0866 572.5541,190.8366 572.5541,190.8366 573.1791,189.5866 573.1791,189.5866 573.8041,187.7116 573.8041,187.7116 573.8041,184.5866 573.8041,184.5866 573.1791,182.7116 573.1791,182.7116 572.5541,181.4616 572.5541,181.4616 571.3041,180.2116 571.3041,180.2116 570.0541,179.5866 570.0541,179.5866"/>
    <line x1="605.3494" x2="605.3494" y1="179.5866" y2="192.7116"/>
    <line x1="600.9744" x2="609.7244" y1="179.5866" y2="179.5866"/>
    <polygon points="643.1447,179.5866 641.8947,180.2116 641.8947,180.2116 640.6447,181.4616 640.6447,181.4616 640.0197,182.7116 640.0197,182.7116 639.3947,184.5866 639.3947,184.5866 639.3947,187.7116 639.3947,187.7116 640.0197,189.5866 640.0197,189.5866 640.6447,190.8366 640.6447,190.8366 641.8947,192.0866 641.8947,192.0866 643.1447,192.7116 643.1447,192.7116 645.6447,192.7116 645.6447,192.7116 646.8947,192.0866 646.8947,192.0866 648.1447,190.8366 648.1447,190.8366 648.7697,189.5866 648.7697,189.5866 649.3947,187.7116 649.3947,187.7116 649.3947,184.5866 649.3947,184.5866 648.7697,182.7116 648.7697,182.7116 648.1447,181.4616 648.1447,181.4616 646.8947,180.2116 646.8947,180.2116 645.6447,179.5866 645.6447,179.5866"/>
    <polyline points="699.2126,168.189 699.2126,205.9843 699.2126,205.9843 737.0079,205.9843 737.0079,205.9843 737.0079,168.189"/>
    <polyline points="724.9852,179.5866 724.9852,192.7116 724.9852,192.7116 716.2352,179.5866 716.2352,179.5866 716.2352,192.7116"/>
    <polyline points="44.3578,217.3819 36.2328,217.3819 36.2328,217.3819 36.2328,230.5069 36.2328,230.5069 44.3578,230.5069"/>
    <line x1="36.2328" x2="41.2328" y1="223.6319" y2="223.6319"/>
    <polyline points="101.378,210.091 101.0655,211.0285 101.0655,211.0285 100.4405,211.6535 100.4405,211.6535 99.503,211.966 99.503,211.966 99.1905,211.966 99.1905,211.966 98.253,211.6535 98.253,211.6535 97.628,211.0285 97.628,211.0285 97.3155,210.091 97.3155,210.091 97.3155,209.7785 97.3155,209.7785 97.628,208.841 97.628,208.841 98.253,208.216 98.253,208.216 99.1905,207.9035 99.1905,207.9035 99.503,207.9035 99.503,207.9035 100.4405,208.216 100.4405,208.216 101.0655,208.841 101.0655,208.841 101.378,210.091 101.378,210.091 101.378,211.6535 101.378,211.6535 101.0655,213.216 101.0655,213.216 100.4405,214.1535 100.4405,214.1535 99.503,214.466 99.503,214.466 98.878,214.466 98.878,214.466 97.9405,214.1535 97.9405,214.1535 97.628,213.5285"/>
    <line x1="111.5108" x2="111.5108" y1="217.3819" y2="230.5069"/>
    <line x1="120.2608" x2="120.2608" y1="217.3819" y2="230.5069"/>
    <line x1="111.5108" x2="120.2608" y1="223.6319" y2="223.6319"/>
    <polygon points="151.8061,217.3819 150.5561,218.0069 150.5561,218.0069 149.3061,219.2569 149.3061,219.2569 148.6811,220.5069 148.6811,220.5069 148.0561,222.3819 148.0561,222.3819 148.0561,225.5069 148.0561,225.5069 148.6811,227.3819 148.6811,227.3819 149.3061,228.6319 149.3061,228.6319 150.5561,229.8819 150.5561,229.8819 151.8061,230.5069 151.8061,230.5069 154.3061,230.5069 154.3061,230.5069 155.5561,229.8819 155.5561,229.8819 156.8061,228.6319 156.8061,228.6319 157.4311,227.3819 157.4311,227.3819 158.0561,225.5069 158.0561,225.5069 158.0561,222.3819 158.0561,222.3819 157.4311,220.5069 157.4311,220.5069 156.8061,219.2569 156.8061,219.2569 155.5561,218.0069 155.5561,218.0069 154.3061,217.3819 154.3061,217.3819"/>
    <polyline points="170.0787,243.7795 207.874,243.7795 207.874,243.7795 207.874,281.5748 207.874,281.5748 207.874,319.3701 207.874,319.3701 207.874,357.1654 207.874,357.1654 245.6693,357.1654 245.6693,357.1654 245.6693,319.3701 245.6693,319.3701 283.4646,319.3701 283.4646,319.3701 283.4646,281.5748"/>
    <polygon points="189.6014,217.3819 188.3514,218.0069 188.3514,218.0069 187.1014,219.2569 187.1014,219.2569 186.4764,220.5069 186.4764,220.5069 185.8514,222.3819 185.8514,222.3819 185.8514,225.5069 185.8514,225.5069 186.4764,227.3819 186.4764,227.3819 187.1014,228.6319 187.1014,228.6319 188.3514,229.8819 188.3514,229.8819 189.6014,230.5069 189.6014,230.5069 192.1014,230.5069 192.1014,230.5069 193.3514,229.8819 193.3514,229.8819 194.6014,228.6319 194.6014,228.6319 195.2264,227.3819 195.2264,227.3819 195.8514,225.5069 195.8514,225.5069 195.8514,222.3819 195.8514,222.3819 195.2264,220.5069 195.2264,220.5069 194.6014,219.2569 194.6014,219.2569 193.3514,218.0069 193.3514,218.0069 192.1014,217.3819 192.1014,217.3819"/>
    <polyline points="211.6388,209.1535 212.2638,208.841 212.2638,208.841 213.2013,207.9035 213.2013,207.9035 213.2013,214.466"/>
    <polygon points="218.8263,207.9035 217.8888,208.216 217.8888,208.216 217.2638,209.1535 217.2638,209.1535 216.9513,210.716 216.9513,210.716 216.9513,211.6535 216.9513,211.6535 217.2638,213.216 217.2638,213.216 217.8888,214.1535 217.8888,214.1535 218.8263,214.466 218.8263,214.466 219.4513,214.466 219.4513,214.466 220.3888,214.1535 220.3888,214.1535 221.0138,213.216 221.0138,213.216 221.3263,211.6535 221.3263,211.6535 221.3263,210.716 221.3263,210.716 221.0138,209.1535 221.0138,209.1535 220.3888,208.216 220.3888,208.216 219.4513,207.9035 219.4513,207.9035"/>
    <polyline points="233.3342,217.3819 225.2092,217.3819 225.2092,217.3819 225.2092,230.5069"/>
    <line x1="225.2092" x2="230.2092" y1="223.6319" y2="223.6319"/>
    <polygon points="262.6919,217.3819 262.6919,230.5069 262.6919,230.5069 267.0669,230.5069 267.0669,230.5069 268.9419,229.8819 268.9419,229.8819 270.1919,228.6319 270.1919,228.6319 270.8169,227.3819 270.8169,227.3819 271.4419,225.5069 271.4419,225.5069 271.4419,222.3819 271.4419,222.3819 270.8169,220.5069 270.8169,220.5069 270.1919,219.2569 270.1919,219.2569 268.9419,218.0069 268.9419,218.0069 267.0669,217.3819 267.0669,217.3819"/>
    <polyline points="413.873,223.6319 419.498,223.6319 419.498,223.6319 421.373,223.0069 421.373,223.0069 421.998,222.3819 421.998,222.3819 422.623,221.1319 422.623,221.1319 422.623,219.8819 422.623,219.8819 421.998,218.6319 421.998,218.6319 421.373,218.0069 421.373,218.0069 419.498,217.3819 419.498,217.3819 413.873,217.3819 413.873,217.3819 413.873,230.5069"/>
    <line x1="418.248" x2="422.623" y1="223.6319" y2="230.5069"/>
    <polyline points="565.0541,223.6319 570.6791,223.6319 570.6791,223.6319 572.5541,223.0069 572.5541,223.0069 573.1791,222.3819 573.1791,222.3819 573.8041,221.1319 573.8041,221.1319 573.8041,219.8819 573.8041,219.8819 573.1791,218.6319 573.1791,218.6319 572.5541,218.0069 572.5541,218.0069 570.6791,217.3819 570.6791,217.3819 565.0541,217.3819 565.0541,217.3819 565.0541,230.5069"/>
    <line x1="569.4291" x2="573.8041" y1="223.6319" y2="230.5069"/>
    <polyline points="649.0822,217.3819 640.9572,217.3819 640.9572,217.3819 640.9572,230.5069 640.9572,230.5069 649.0822,230.5069"/>
    <line x1="640.9572" x2="645.9572" y1="223.6319" y2="223.6319"/>
    <polyline points="699.2126,205.9843 699.2126,243.7795 699.2126,243.7795 737.0079,243.7795 737.0079,243.7795 737.0079,205.9843"/>
    <polyline points="723.7352,230.5069 718.7352,217.3819 718.7352,217.3819 713.7352,230.5069"/>
    <line x1="715.6102" x2="721.8602" y1="226.1319" y2="226.1319"/>
    <polyline points="18.8976,243.7795 18.8976,281.5748 18.8976,281.5748 18.8976,319.3701 18.8976,319.3701 56.6929,319.3701 56.6929,319.3701 56.6929,281.5748 56.6929,281.5748 56.6929,243.7795"/>
    <line x1="18.8976" x2="56.6929" y1="281.5748" y2="281.5748"/>
    <polyline points="45.2953,268.3022 45.2953,255.1772 45.2953,255.1772 40.2953,268.3022 40.2953,268.3022 35.2953,255.1772 35.2953,255.1772 35.2953,268.3022"/>
    <polyline points="94.4882,243.7795 94.4882,281.5748 94.4882,281.5748 132.2835,281.5748"/>
    <line x1="115.8858" x2="115.8858" y1="255.1772" y2="268.3022"/>
    <line x1="229.2717" x2="229.2717" y1="255.1772" y2="268.3022"/>
    <polyline points="396.8504,243.7795 396.8504,281.5748 396.8504,281.5748 359.0551,281.5748"/>
    <polyline points="396.8504,319.3701 396.8504,281.5748 396.8504,281.5748 434.6457,281.5748 434.6457,281.5748 472.4409,281.5748 472.4409,281.5748 472.4409,319.3701 472.4409,319.3701 510.2362,319.3701 510.2362,319.3701 510.2362,281.5748 510.2362,281.5748 472.4409,281.5748"/>
    <polyline points="422.3105,255.1772 414.1855,255.1772 414.1855,255.1772 414.1855,268.3022 414.1855,268.3022 422.3105,268.3022"/>
    <line x1="414.1855" x2="419.1855" y1="261.4272" y2="261.4272"/>
    <polyline points="623.622,243.7795 623.622,281.5748 623.622,281.5748 585.8268,281.5748 585.8268,281.5748 548.0315,281.5748 548.0315,281.5748 510.2362,281.5748"/>
    <polyline points="585.8268,281.5748 585.8268,319.3701 585.8268,319.3701 623.622,319.3701 623.622,319.3701 623.622,281.5748 623.622,281.5748 661.4173,281.5748 661.4173,281.5748 661.4173,243.7795"/>
    <polyline points="649.3947,255.1772 649.3947,268.3022 649.3947,268.3022 640.6447,255.1772 640.6447,255.1772 640.6447,268.3022"/>
    <polyline points="44.3578,292.9724 36.2328,292.9724 36.2328,292.9724 36.2328,306.0974 36.2328,306.0974 44.3578,306.0974"/>
    <line x1="36.2328" x2="41.2328" y1="299.2224" y2="299.2224"/>
    <line x1="94.4882" x2="94.4882" y1="281.5748" y2="319.3701"/>
    <polyline points="119.0108,306.0974 114.0108,292.9724 114.0108,292.9724 109.0108,306.0974"/>
    <line x1="110.8858" x2="117.1358" y1="301.7224" y2="301.7224"/>
    <polyline points="173.8435,284.7441 174.4685,284.4316 174.4685,284.4316 175.406,283.4941 175.406,283.4941 175.406,290.0566"/>
    <polyline points="180.0935,284.7441 180.7185,284.4316 180.7185,284.4316 181.656,283.4941 181.656,283.4941 181.656,290.0566"/>
    <polyline points="195.5389,292.9724 187.4139,292.9724 187.4139,292.9724 187.4139,306.0974"/>
    <line x1="187.4139" x2="192.4139" y1="299.2224" y2="299.2224"/>
    <polyline points="225.5217,292.9724 225.5217,306.0974 225.5217,306.0974 233.0217,306.0974"/>
    <polyline points="271.1294,292.9724 263.0044,292.9724 263.0044,292.9724 263.0044,306.0974 263.0044,306.0974 271.1294,306.0974"/>
    <line x1="263.0044" x2="268.0044" y1="299.2224" y2="299.2224"/>
    <polyline points="283.4646,319.3701 321.2598,319.3701 321.2598,319.3701 321.2598,281.5748"/>
    <polyline points="308.6122,294.8474 307.3622,293.5974 307.3622,293.5974 305.4872,292.9724 305.4872,292.9724 302.9872,292.9724 302.9872,292.9724 301.1122,293.5974 301.1122,293.5974 299.8622,294.8474 299.8622,294.8474 299.8622,296.0974 299.8622,296.0974 300.4872,297.3474 300.4872,297.3474 301.1122,297.9724 301.1122,297.9724 302.3622,298.5974 302.3622,298.5974 306.1122,299.8474 306.1122,299.8474 307.3622,300.4724 307.3622,300.4724 307.9872,301.0974 307.9872,301.0974 308.6122,302.3474 308.6122,302.3474 308.6122,304.2224 308.6122,304.2224 307.3622,305.4724 307.3622,305.4724 305.4872,306.0974 305.4872,306.0974 302.9872,306.0974 302.9872,306.0974 301.1122,305.4724 301.1122,305.4724 299.8622,304.2224"/>
    <line x1="321.2598" x2="359.0551" y1="319.3701" y2="319.3701"/>
    <polyline points="346.4075,294.8474 345.1575,293.5974 345.1575,293.5974 343.2825,292.9724 343.2825,292.9724 340.7825,292.9724 340.7825,292.9724 338.9075,293.5974 338.9075,293.5974 337.6575,294.8474 337.6575,294.8474 337.6575,296.0974 337.6575,296.0974 338.2825,297.3474 338.2825,297.3474 338.9075,297.9724 338.9075,297.9724 340.1575,298.5974 340.1575,298.5974 343.9075,299.8474 343.9075,299.8474 345.1575,300.4724 345.1575,300.4724 345.7825,301.0974 345.7825,301.0974 346.4075,302.3474 346.4075,302.3474 346.4075,304.2224 346.4075,304.2224 345.1575,305.4724 345.1575,305.4724 343.2825,306.0974 343.2825,306.0974 340.7825,306.0974 340.7825,306.0974 338.9075,305.4724 338.9075,305.4724 337.6575,304.2224"/>
    <polyline points="384.5153,292.9724 376.3903,292.9724 376.3903,292.9724 376.3903,306.0974 376.3903,306.0974 384.5153,306.0974"/>
    <line x1="376.3903" x2="381.3903" y1="299.2224" y2="299.2224"/>
    <polyline points="422.623,292.9724 422.623,306.0974 422.623,306.0974 413.873,292.9724 413.873,292.9724 413.873,306.0974"/>
    <line x1="434.6457" x2="472.4409" y1="319.3701" y2="319.3701"/>
    <polyline points="460.1058,296.0974 459.4808,294.8474 459.4808,294.8474 458.2308,293.5974 458.2308,293.5974 456.9808,292.9724 456.9808,292.9724 454.4808,292.9724 454.4808,292.9724 453.2308,293.5974 453.2308,293.5974 451.9808,294.8474 451.9808,294.8474 451.3558,296.0974 451.3558,296.0974 450.7308,297.9724 450.7308,297.9724 450.7308,301.0974 450.7308,301.0974 451.3558,302.9724 451.3558,302.9724 451.9808,304.2224 451.9808,304.2224 453.2308,305.4724 453.2308,305.4724 454.4808,306.0974 454.4808,306.0974 456.9808,306.0974 456.9808,306.0974 458.2308,305.4724 458.2308,305.4724 459.4808,304.2224 459.4808,304.2224 460.1058,302.9724 460.1058,302.9724 460.1058,301.0974 460.1058,301.0974 456.9808,301.0974"/>
    <polyline points="497.9011,292.9724 489.7761,292.9724 489.7761,292.9724 489.7761,306.0974 489.7761,306.0974 497.9011,306.0974"/>
    <line x1="489.7761" x2="494.7761" y1="299.2224" y2="299.2224"/>
    <polyline points="510.2362,319.3701 548.0315,319.3701 548.0315,319.3701 585.8268,319.3701"/>
    <line x1="548.0315" x2="548.0315" y1="319.3701" y2="281.5748"/>
    <polyline points="527.8839,292.9724 527.8839,306.0974 527.8839,306.0974 535.3839,306.0974"/>
    <polyline points="565.0541,292.9724 565.0541,302.3474 565.0541,302.3474 565.6791,304.2224 565.6791,304.2224 566.9291,305.4724 566.9291,305.4724 568.8041,306.0974 568.8041,306.0974 570.0541,306.0974 570.0541,306.0974 571.9291,305.4724 571.9291,305.4724 573.1791,304.2224 573.1791,304.2224 573.8041,302.3474 573.8041,302.3474 573.8041,292.9724"/>
    <line x1="602.8494" x2="602.8494" y1="292.9724" y2="306.0974"/>
    <line x1="611.5994" x2="602.8494" y1="292.9724" y2="301.7224"/>
    <line x1="605.9744" x2="611.5994" y1="298.5974" y2="306.0974"/>
    <polyline points="18.8976,319.3701 18.8976,357.1654 18.8976,357.1654 56.6929,357.1654 56.6929,357.1654 56.6929,319.3701"/>
    <polyline points="44.6703,330.7677 44.6703,343.8927 44.6703,343.8927 35.9203,330.7677 35.9203,330.7677 35.9203,343.8927"/>
    <polyline points="119.6358,332.6427 118.3858,331.3927 118.3858,331.3927 116.5108,330.7677 116.5108,330.7677 114.0108,330.7677 114.0108,330.7677 112.1358,331.3927 112.1358,331.3927 110.8858,332.6427 110.8858,332.6427 110.8858,333.8927 110.8858,333.8927 111.5108,335.1427 111.5108,335.1427 112.1358,335.7677 112.1358,335.7677 113.3858,336.3927 113.3858,336.3927 117.1358,337.6427 117.1358,337.6427 118.3858,338.2677 118.3858,338.2677 119.0108,338.8927 119.0108,338.8927 119.6358,340.1427 119.6358,340.1427 119.6358,342.0177 119.6358,342.0177 118.3858,343.2677 118.3858,343.2677 116.5108,343.8927 116.5108,343.8927 114.0108,343.8927 114.0108,343.8927 112.1358,343.2677 112.1358,343.2677 110.8858,342.0177"/>
    <polyline points="233.3342,330.7677 225.2092,330.7677 225.2092,330.7677 225.2092,343.8927 225.2092,343.8927 233.3342,343.8927"/>
    <line x1="225.2092" x2="230.2092" y1="337.0177" y2="337.0177"/>
  </g>
</svg>
