<?xml version="1.0" encoding="utf-8" ?>
<svg xmlns="http://www.w3.org/2000/svg" xmlns:cc="http://creativecommons.org/ns" xmlns:dc="http://purl.org/dc/elements/1.1/" xmlns:ev="http://www.w3.org/2001/xml-events" xmlns:inkscape="http://www.inkscape.org/namespaces/inkscape" xmlns:rdf="http://www.w3.org/1999/02/22-rdf-syntax-ns" xmlns:sodipodi="http://sodipodi.sourceforge.net/DTD/sodipodi-0.dtd" xmlns:xlink="http://www.w3.org/1999/xlink" baseProfile="tiny" height="9.9cm" version="1.2" viewBox="0 0 793.7007874015749 374.1732283464567" width="21.0cm">
  <metadata>
    <rdf:RDF>
      <cc:Work>
        <dc:format>image/svg+xml</dc:format>
        <dc:source>vpype eval 'cell=10;width=210;height=99' eval 'nCols=20;nRows=9' eval 'cells=[2,6,7,8,9,10,11,12,13,14,20,21,22,31,35,42,43,44,45,47,48,49,50,51,52,53,54,55,57,59,61,64,71,73,75,77,79,80,81,82,83,84,86,87,88,89,90,91,92,93,95,97,99,101,104,108,111,115,117,119,121,124,128,131,134,135,136,137,138,139,141,144,145,146,147,148,149,150,151,152,155,159,164,171]' eval 'chars=[&quot;M&quot;,&quot;U&quot;,&quot;I&quot;,&quot;T&quot;,&quot;L&quot;,&quot;I&quot;,&quot;K&quot;,&quot;K&quot;,&quot;E&quot;,&quot;N&quot;,&quot;F&quot;,&quot;L&quot;,&quot;O&quot;,&quot;L&quot;,&quot;A&quot;,&quot;P&quot;,&quot;I&quot;,&quot;P&quot;,&quot;I&quot;,&quot;M&quot;,&quot;A&quot;,&quot;N&quot;,&quot;D&quot;,&quot;A&quot;,&quot;R&quot;,&quot;I&quot;,&quot;J&quot;,&quot;N&quot;,&quot;G&quot;,&quot;K&quot;,&quot;T&quot;,&quot;I&quot;,&quot;V&quot;,&quot;N&quot;,&quot;D&quot;,&quot;R&quot;,&quot;I&quot;,&quot;G&quot;,&quot;R&quot;,&quot;O&quot;,&quot;E&quot;,&quot;N&quot;,&quot;S&quot;,&quot;K&quot;,&quot;E&quot;,&quot;L&quot;,&quot;L&quot;,&quot;E&quot;,&quot;K&quot;,&quot;E&quot;,&quot;R&quot;,&quot;A&quot;,&quot;E&quot;,&quot;E&quot;,&quot;K&quot;,&quot;M&quot;,&quot;R&quot;,&quot;I&quot;,&quot;A&quot;,&quot;M&quot;,&quot;I&quot;,&quot;E&quot;,&quot;M&quot;,&quot;T&quot;,&quot;C&quot;,&quot;E&quot;,&quot;N&quot;,&quot;T&quot;,&quot;J&quot;,&quot;E&quot;,&quot;N&quot;,&quot;R&quot;,&quot;E&quot;,&quot;K&quot;,&quot;K&quot;,&quot;E&quot;,&quot;R&quot;,&quot;T&quot;,&quot;J&quot;,&quot;E&quot;,&quot;S&quot;,&quot;N&quot;,&quot;S&quot;,&quot;E&quot;]' eval 'numbers=[2,6,11,20,35,42,44,47,53,57,59,61,80,86,88,134,144]' eval counter=1 eval charIndex=0 begin grid -o '%cell*mm%' '%cell*mm%' %nCols% %nRows% eval '%isCell=_i in cells%' eval '%number=_i in numbers%' eval '%size=10 if isCell else 0%' rect 0 0 '%size*mm%' '%size*mm%' text -s 10 -p 0.5mm 1.5mm '%counter if number else '&quot;'&quot;''&quot;'&quot;'%' text -s 20 -p 5mm 5mm -a center '%chars[charIndex] if isCell else '&quot;'&quot;''&quot;'&quot;'%' eval '%if number: counter+=1 %' eval '%if isCell: charIndex+=1 %' end splitall deduplicate linemerge --tolerance 0.1mm write -m none --page-size '%width*mm%x%height*mm%' --center ./svgs/solution/67d9de.svg
</dc:source>
        <dc:date>2023-12-23T22:30:05.442819</dc:date>
      </cc:Work>
    </rdf:RDF>
  </metadata>
  <defs/>
  <g fill="none" id="layer1" inkscape:groupmode="layer" inkscape:label="1" stroke="#000000" style="display:inline">
    <polyline points="170.0787,92.5984 207.874,92.5984 207.874,92.5984 207.874,130.3937 207.874,130.3937 207.874,168.189 207.874,168.189 207.874,205.9843 207.874,205.9843 207.874,243.7795 207.874,243.7795 170.0787,243.7795 170.0787,243.7795 170.0787,205.9843 170.0787,205.9843 132.2835,205.9843 132.2835,205.9843 94.4882,205.9843 94.4882,205.9843 94.4882,243.7795 94.4882,243.7795 56.6929,243.7795 56.6929,243.7795 56.6929,205.9843 56.6929,205.9843 18.8976,205.9843 18.8976,205.9843 18.8976,168.189 18.8976,168.189 56.6929,168.189 56.6929,168.189 56.6929,130.3937 56.6929,130.3937 94.4882,130.3937 94.4882,130.3937 94.4882,92.5984 94.4882,92.5984 132.2835,92.5984 132.2835,92.5984 170.0787,92.5984 170.0787,92.5984 170.0787,130.3937 170.0787,130.3937 132.2835,130.3937 132.2835,130.3937 132.2835,92.5984 132.2835,92.5984 132.2835,54.8031 132.2835,54.8031 132.2835,17.0079 132.2835,17.0079 94.4882,17.0079 94.4882,17.0079 94.4882,54.8031 94.4882,54.8031 56.6929,54.8031 56.6929,54.8031 18.8976,54.8031 18.8976,54.8031 18.8976,92.5984 18.8976,92.5984 56.6929,92.5984 56.6929,92.5984 56.6929,54.8031"/>
    <polyline points="56.6929,92.5984 94.4882,92.5984 94.4882,92.5984 94.4882,54.8031 94.4882,54.8031 132.2835,54.8031"/>
    <polyline points="98.253,20.1772 98.878,19.8647 98.878,19.8647 99.8155,18.9272 99.8155,18.9272 99.8155,25.4897"/>
    <polyline points="120.8858,41.5305 120.8858,28.4055 120.8858,28.4055 115.8858,41.5305 115.8858,41.5305 110.8858,28.4055 110.8858,28.4055 110.8858,41.5305"/>
    <polygon points="245.6693,17.0079 245.6693,54.8031 245.6693,54.8031 283.4646,54.8031 283.4646,54.8031 283.4646,17.0079 283.4646,17.0079"/>
    <polyline points="248.8091,20.4897 248.8091,20.1772 248.8091,20.1772 249.1216,19.5522 249.1216,19.5522 249.4341,19.2397 249.4341,19.2397 250.0591,18.9272 250.0591,18.9272 251.3091,18.9272 251.3091,18.9272 251.9341,19.2397 251.9341,19.2397 252.2466,19.5522 252.2466,19.5522 252.5591,20.1772 252.5591,20.1772 252.5591,20.8022 252.5591,20.8022 252.2466,21.4272 252.2466,21.4272 251.6216,22.3647 251.6216,22.3647 248.4966,25.4897 248.4966,25.4897 252.8716,25.4897"/>
    <polyline points="262.6919,28.4055 262.6919,37.7805 262.6919,37.7805 263.3169,39.6555 263.3169,39.6555 264.5669,40.9055 264.5669,40.9055 266.4419,41.5305 266.4419,41.5305 267.6919,41.5305 267.6919,41.5305 269.5669,40.9055 269.5669,40.9055 270.8169,39.6555 270.8169,39.6555 271.4419,37.7805 271.4419,37.7805 271.4419,28.4055"/>
    <polyline points="283.4646,54.8031 321.2598,54.8031 321.2598,54.8031 321.2598,17.0079 321.2598,17.0079 283.4646,17.0079"/>
    <line x1="304.8622" x2="304.8622" y1="28.4055" y2="41.5305"/>
    <polyline points="321.2598,54.8031 359.0551,54.8031 359.0551,54.8031 396.8504,54.8031 396.8504,54.8031 396.8504,17.0079 396.8504,17.0079 359.0551,17.0079 359.0551,17.0079 321.2598,17.0079"/>
    <line x1="359.0551" x2="359.0551" y1="54.8031" y2="17.0079"/>
    <line x1="340.7825" x2="340.7825" y1="28.4055" y2="41.5305"/>
    <line x1="336.4075" x2="345.1575" y1="28.4055" y2="28.4055"/>
    <polyline points="376.7028,28.4055 376.7028,41.5305 376.7028,41.5305 384.2028,41.5305"/>
    <polyline points="396.8504,54.8031 434.6457,54.8031 434.6457,54.8031 434.6457,17.0079 434.6457,17.0079 396.8504,17.0079"/>
    <line x1="418.248" x2="418.248" y1="28.4055" y2="41.5305"/>
    <polyline points="472.4409,17.0079 472.4409,54.8031 472.4409,54.8031 472.4409,92.5984 472.4409,92.5984 434.6457,92.5984 434.6457,92.5984 434.6457,54.8031 434.6457,54.8031 472.4409,54.8031 472.4409,54.8031 510.2362,54.8031 510.2362,54.8031 510.2362,17.0079 510.2362,17.0079 472.4409,17.0079 472.4409,17.0079 434.6457,17.0079"/>
    <polyline points="438.0979,18.9272 441.5354,18.9272 441.5354,18.9272 439.6604,21.4272 439.6604,21.4272 440.5979,21.4272 440.5979,21.4272 441.2229,21.7397 441.2229,21.7397 441.5354,22.0522 441.5354,22.0522 441.8479,22.9897 441.8479,22.9897 441.8479,23.6147 441.8479,23.6147 441.5354,24.5522 441.5354,24.5522 440.9104,25.1772 440.9104,25.1772 439.9729,25.4897 439.9729,25.4897 439.0354,25.4897 439.0354,25.4897 438.0979,25.1772 438.0979,25.1772 437.7854,24.8647 437.7854,24.8647 437.4729,24.2397"/>
    <line x1="451.6683" x2="451.6683" y1="28.4055" y2="41.5305"/>
    <line x1="460.4183" x2="451.6683" y1="28.4055" y2="37.1555"/>
    <line x1="454.7933" x2="460.4183" y1="34.0305" y2="41.5305"/>
    <line x1="489.4636" x2="489.4636" y1="28.4055" y2="41.5305"/>
    <line x1="498.2136" x2="489.4636" y1="28.4055" y2="37.1555"/>
    <line x1="492.5886" x2="498.2136" y1="34.0305" y2="41.5305"/>
    <polyline points="510.2362,54.8031 548.0315,54.8031 548.0315,54.8031 548.0315,17.0079 548.0315,17.0079 510.2362,17.0079"/>
    <polyline points="535.6964,28.4055 527.5714,28.4055 527.5714,28.4055 527.5714,41.5305 527.5714,41.5305 535.6964,41.5305"/>
    <line x1="527.5714" x2="532.5714" y1="34.6555" y2="34.6555"/>
    <polyline points="548.0315,54.8031 585.8268,54.8031 585.8268,54.8031 585.8268,17.0079 585.8268,17.0079 548.0315,17.0079"/>
    <polyline points="573.8041,28.4055 573.8041,41.5305 573.8041,41.5305 565.0541,28.4055 565.0541,28.4055 565.0541,41.5305"/>
    <polyline points="24.8499,63.2849 24.8499,56.7224 24.8499,56.7224 21.7249,61.0974 21.7249,61.0974 26.4124,61.0974"/>
    <polyline points="44.3578,66.2008 36.2328,66.2008 36.2328,66.2008 36.2328,79.3258"/>
    <line x1="36.2328" x2="41.2328" y1="72.4508" y2="72.4508"/>
    <polyline points="74.3406,66.2008 74.3406,79.3258 74.3406,79.3258 81.8406,79.3258"/>
    <polygon points="114.0108,66.2008 112.7608,66.8258 112.7608,66.8258 111.5108,68.0758 111.5108,68.0758 110.8858,69.3258 110.8858,69.3258 110.2608,71.2008 110.2608,71.2008 110.2608,74.3258 110.2608,74.3258 110.8858,76.2008 110.8858,76.2008 111.5108,77.4508 111.5108,77.4508 112.7608,78.7008 112.7608,78.7008 114.0108,79.3258 114.0108,79.3258 116.5108,79.3258 116.5108,79.3258 117.7608,78.7008 117.7608,78.7008 119.0108,77.4508 119.0108,77.4508 119.6358,76.2008 119.6358,76.2008 120.2608,74.3258 120.2608,74.3258 120.2608,71.2008 120.2608,71.2008 119.6358,69.3258 119.6358,69.3258 119.0108,68.0758 119.0108,68.0758 117.7608,66.8258 117.7608,66.8258 116.5108,66.2008 116.5108,66.2008"/>
    <polyline points="452.2933,66.2008 452.2933,79.3258 452.2933,79.3258 459.7933,79.3258"/>
    <polygon points="585.8268,54.8031 585.8268,92.5984 585.8268,92.5984 623.622,92.5984 623.622,92.5984 623.622,54.8031 623.622,54.8031"/>
    <polyline points="592.404,56.7224 589.279,56.7224 589.279,56.7224 588.9665,59.5349 588.9665,59.5349 589.279,59.2224 589.279,59.2224 590.2165,58.9099 590.2165,58.9099 591.154,58.9099 591.154,58.9099 592.0915,59.2224 592.0915,59.2224 592.7165,59.8474 592.7165,59.8474 593.029,60.7849 593.029,60.7849 593.029,61.4099 593.029,61.4099 592.7165,62.3474 592.7165,62.3474 592.0915,62.9724 592.0915,62.9724 591.154,63.2849 591.154,63.2849 590.2165,63.2849 590.2165,63.2849 589.279,62.9724 589.279,62.9724 588.9665,62.6599 588.9665,62.6599 588.654,62.0349"/>
    <polyline points="610.3494,79.3258 605.3494,66.2008 605.3494,66.2008 600.3494,79.3258"/>
    <line x1="602.2244" x2="608.4744" y1="74.9508" y2="74.9508"/>
    <polyline points="207.874,168.189 170.0787,168.189 170.0787,168.189 132.2835,168.189 132.2835,168.189 94.4882,168.189 94.4882,168.189 94.4882,130.3937 94.4882,130.3937 132.2835,130.3937"/>
    <polyline points="101.378,95.4552 101.0655,94.8302 101.0655,94.8302 100.128,94.5177 100.128,94.5177 99.503,94.5177 99.503,94.5177 98.5655,94.8302 98.5655,94.8302 97.9405,95.7677 97.9405,95.7677 97.628,97.3302 97.628,97.3302 97.628,98.8927 97.628,98.8927 97.9405,100.1427 97.9405,100.1427 98.5655,100.7677 98.5655,100.7677 99.503,101.0802 99.503,101.0802 99.8155,101.0802 99.8155,101.0802 100.753,100.7677 100.753,100.7677 101.378,100.1427 101.378,100.1427 101.6905,99.2052 101.6905,99.2052 101.6905,98.8927 101.6905,98.8927 101.378,97.9552 101.378,97.9552 100.753,97.3302 100.753,97.3302 99.8155,97.0177 99.8155,97.0177 99.503,97.0177 99.503,97.0177 98.5655,97.3302 98.5655,97.3302 97.9405,97.9552 97.9405,97.9552 97.628,98.8927"/>
    <polyline points="111.5108,110.8711 117.1358,110.8711 117.1358,110.8711 119.0108,110.2461 119.0108,110.2461 119.6358,109.6211 119.6358,109.6211 120.2608,108.3711 120.2608,108.3711 120.2608,106.4961 120.2608,106.4961 119.6358,105.2461 119.6358,105.2461 119.0108,104.6211 119.0108,104.6211 117.1358,103.9961 117.1358,103.9961 111.5108,103.9961 111.5108,103.9961 111.5108,117.1211"/>
    <line x1="153.6811" x2="153.6811" y1="103.9961" y2="117.1211"/>
    <polyline points="207.874,205.9843 170.0787,205.9843 170.0787,205.9843 170.0787,168.189 170.0787,168.189 170.0787,130.3937 170.0787,130.3937 207.874,130.3937 207.874,130.3937 245.6693,130.3937 245.6693,130.3937 245.6693,92.5984 245.6693,92.5984 207.874,92.5984"/>
    <polyline points="172.906,94.5177 177.281,94.5177 177.281,94.5177 174.156,101.0802"/>
    <polyline points="187.1014,110.8711 192.7264,110.8711 192.7264,110.8711 194.6014,110.2461 194.6014,110.2461 195.2264,109.6211 195.2264,109.6211 195.8514,108.3711 195.8514,108.3711 195.8514,106.4961 195.8514,106.4961 195.2264,105.2461 195.2264,105.2461 194.6014,104.6211 194.6014,104.6211 192.7264,103.9961 192.7264,103.9961 187.1014,103.9961 187.1014,103.9961 187.1014,117.1211"/>
    <line x1="229.2717" x2="229.2717" y1="103.9961" y2="117.1211"/>
    <polygon points="283.4646,92.5984 283.4646,130.3937 283.4646,130.3937 321.2598,130.3937 321.2598,130.3937 321.2598,92.5984 321.2598,92.5984"/>
    <polygon points="287.8543,94.5177 286.9168,94.8302 286.9168,94.8302 286.6043,95.4552 286.6043,95.4552 286.6043,96.0802 286.6043,96.0802 286.9168,96.7052 286.9168,96.7052 287.5418,97.0177 287.5418,97.0177 288.7918,97.3302 288.7918,97.3302 289.7293,97.6427 289.7293,97.6427 290.3543,98.2677 290.3543,98.2677 290.6668,98.8927 290.6668,98.8927 290.6668,99.8302 290.6668,99.8302 290.3543,100.4552 290.3543,100.4552 290.0418,100.7677 290.0418,100.7677 289.1043,101.0802 289.1043,101.0802 287.8543,101.0802 287.8543,101.0802 286.9168,100.7677 286.9168,100.7677 286.6043,100.4552 286.6043,100.4552 286.2918,99.8302 286.2918,99.8302 286.2918,98.8927 286.2918,98.8927 286.6043,98.2677 286.6043,98.2677 287.2293,97.6427 287.2293,97.6427 288.1668,97.3302 288.1668,97.3302 289.4168,97.0177 289.4168,97.0177 290.0418,96.7052 290.0418,96.7052 290.3543,96.0802 290.3543,96.0802 290.3543,95.4552 290.3543,95.4552 290.0418,94.8302 290.0418,94.8302 289.1043,94.5177 289.1043,94.5177"/>
    <polyline points="309.8622,117.1211 309.8622,103.9961 309.8622,103.9961 304.8622,117.1211 304.8622,117.1211 299.8622,103.9961 299.8622,103.9961 299.8622,117.1211"/>
    <polyline points="321.2598,130.3937 359.0551,130.3937 359.0551,130.3937 396.8504,130.3937 396.8504,130.3937 434.6457,130.3937 434.6457,130.3937 434.6457,92.5984 434.6457,92.5984 396.8504,92.5984 396.8504,92.5984 359.0551,92.5984 359.0551,92.5984 321.2598,92.5984"/>
    <line x1="359.0551" x2="359.0551" y1="130.3937" y2="92.5984"/>
    <polyline points="345.7825,117.1211 340.7825,103.9961 340.7825,103.9961 335.7825,117.1211"/>
    <line x1="337.6575" x2="343.9075" y1="112.7461" y2="112.7461"/>
    <line x1="396.8504" x2="396.8504" y1="130.3937" y2="92.5984"/>
    <polyline points="384.8278,103.9961 384.8278,117.1211 384.8278,117.1211 376.0778,103.9961 376.0778,103.9961 376.0778,117.1211"/>
    <polygon points="413.873,103.9961 413.873,117.1211 413.873,117.1211 418.248,117.1211 418.248,117.1211 420.123,116.4961 420.123,116.4961 421.373,115.2461 421.373,115.2461 421.998,113.9961 421.998,113.9961 422.623,112.1211 422.623,112.1211 422.623,108.9961 422.623,108.9961 421.998,107.1211 421.998,107.1211 421.373,105.8711 421.373,105.8711 420.123,104.6211 420.123,104.6211 418.248,103.9961 418.248,103.9961"/>
    <polygon points="434.6457,130.3937 472.4409,130.3937 472.4409,130.3937 510.2362,130.3937 510.2362,130.3937 510.2362,92.5984 510.2362,92.5984 472.4409,92.5984 472.4409,92.5984 472.4409,130.3937 472.4409,130.3937 472.4409,168.189 472.4409,168.189 434.6457,168.189 434.6457,168.189"/>
    <polyline points="459.1683,117.1211 454.1683,103.9961 454.1683,103.9961 449.1683,117.1211"/>
    <line x1="451.0433" x2="457.2933" y1="112.7461" y2="112.7461"/>
    <polyline points="489.4636,110.2461 495.0886,110.2461 495.0886,110.2461 496.9636,109.6211 496.9636,109.6211 497.5886,108.9961 497.5886,108.9961 498.2136,107.7461 498.2136,107.7461 498.2136,106.4961 498.2136,106.4961 497.5886,105.2461 497.5886,105.2461 496.9636,104.6211 496.9636,104.6211 495.0886,103.9961 495.0886,103.9961 489.4636,103.9961 489.4636,103.9961 489.4636,117.1211"/>
    <line x1="493.8386" x2="498.2136" y1="110.2461" y2="117.1211"/>
    <polyline points="548.0315,92.5984 548.0315,130.3937 548.0315,130.3937 548.0315,168.189 548.0315,168.189 548.0315,205.9843 548.0315,205.9843 510.2362,205.9843 510.2362,205.9843 472.4409,205.9843 472.4409,205.9843 472.4409,168.189 472.4409,168.189 510.2362,168.189 510.2362,168.189 510.2362,130.3937 510.2362,130.3937 548.0315,130.3937 548.0315,130.3937 585.8268,130.3937 585.8268,130.3937 585.8268,92.5984 585.8268,92.5984 548.0315,92.5984 548.0315,92.5984 510.2362,92.5984"/>
    <polyline points="517.126,96.7052 516.8135,97.6427 516.8135,97.6427 516.1885,98.2677 516.1885,98.2677 515.251,98.5802 515.251,98.5802 514.9385,98.5802 514.9385,98.5802 514.001,98.2677 514.001,98.2677 513.376,97.6427 513.376,97.6427 513.0635,96.7052 513.0635,96.7052 513.0635,96.3927 513.0635,96.3927 513.376,95.4552 513.376,95.4552 514.001,94.8302 514.001,94.8302 514.9385,94.5177 514.9385,94.5177 515.251,94.5177 515.251,94.5177 516.1885,94.8302 516.1885,94.8302 516.8135,95.4552 516.8135,95.4552 517.126,96.7052 517.126,96.7052 517.126,98.2677 517.126,98.2677 516.8135,99.8302 516.8135,99.8302 516.1885,100.7677 516.1885,100.7677 515.251,101.0802 515.251,101.0802 514.626,101.0802 514.626,101.0802 513.6885,100.7677 513.6885,100.7677 513.376,100.1427"/>
    <line x1="531.6339" x2="531.6339" y1="103.9961" y2="117.1211"/>
    <polyline points="571.3041,103.9961 571.3041,113.9961 571.3041,113.9961 570.6791,115.8711 570.6791,115.8711 570.0541,116.4961 570.0541,116.4961 568.8041,117.1211 568.8041,117.1211 567.5541,117.1211 567.5541,117.1211 566.3041,116.4961 566.3041,116.4961 565.6791,115.8711 565.6791,115.8711 565.0541,113.9961 565.0541,113.9961 565.0541,112.7461"/>
    <polyline points="623.622,130.3937 623.622,168.189 623.622,168.189 585.8268,168.189 585.8268,168.189 585.8268,130.3937 585.8268,130.3937 623.622,130.3937 623.622,130.3937 623.622,92.5984"/>
    <polyline points="611.5994,103.9961 611.5994,117.1211 611.5994,117.1211 602.8494,103.9961 602.8494,103.9961 602.8494,117.1211"/>
    <polygon points="661.4173,92.5984 661.4173,130.3937 661.4173,130.3937 699.2126,130.3937 699.2126,130.3937 699.2126,92.5984 699.2126,92.5984"/>
    <polyline points="665.1821,95.7677 665.8071,95.4552 665.8071,95.4552 666.7446,94.5177 666.7446,94.5177 666.7446,101.0802"/>
    <polygon points="672.3696,94.5177 671.4321,94.8302 671.4321,94.8302 670.8071,95.7677 670.8071,95.7677 670.4946,97.3302 670.4946,97.3302 670.4946,98.2677 670.4946,98.2677 670.8071,99.8302 670.8071,99.8302 671.4321,100.7677 671.4321,100.7677 672.3696,101.0802 672.3696,101.0802 672.9946,101.0802 672.9946,101.0802 673.9321,100.7677 673.9321,100.7677 674.5571,99.8302 674.5571,99.8302 674.8696,98.2677 674.8696,98.2677 674.8696,97.3302 674.8696,97.3302 674.5571,95.7677 674.5571,95.7677 673.9321,94.8302 673.9321,94.8302 672.9946,94.5177 672.9946,94.5177"/>
    <polyline points="686.8775,107.1211 686.2525,105.8711 686.2525,105.8711 685.0025,104.6211 685.0025,104.6211 683.7525,103.9961 683.7525,103.9961 681.2525,103.9961 681.2525,103.9961 680.0025,104.6211 680.0025,104.6211 678.7525,105.8711 678.7525,105.8711 678.1275,107.1211 678.1275,107.1211 677.5025,108.9961 677.5025,108.9961 677.5025,112.1211 677.5025,112.1211 678.1275,113.9961 678.1275,113.9961 678.7525,115.2461 678.7525,115.2461 680.0025,116.4961 680.0025,116.4961 681.2525,117.1211 681.2525,117.1211 683.7525,117.1211 683.7525,117.1211 685.0025,116.4961 685.0025,116.4961 686.2525,115.2461 686.2525,115.2461 686.8775,113.9961 686.8775,113.9961 686.8775,112.1211 686.8775,112.1211 683.7525,112.1211"/>
    <polygon points="737.0079,92.5984 737.0079,130.3937 737.0079,130.3937 737.0079,168.189 737.0079,168.189 737.0079,205.9843 737.0079,205.9843 774.8031,205.9843 774.8031,205.9843 774.8031,168.189 774.8031,168.189 774.8031,130.3937 774.8031,130.3937 774.8031,92.5984 774.8031,92.5984"/>
    <line x1="737.0079" x2="774.8031" y1="130.3937" y2="130.3937"/>
    <polyline points="740.7726,95.7677 741.3976,95.4552 741.3976,95.4552 742.3351,94.5177 742.3351,94.5177 742.3351,101.0802"/>
    <polyline points="747.0226,95.7677 747.6476,95.4552 747.6476,95.4552 748.5851,94.5177 748.5851,94.5177 748.5851,101.0802"/>
    <line x1="754.0305" x2="754.0305" y1="103.9961" y2="117.1211"/>
    <line x1="762.7805" x2="754.0305" y1="103.9961" y2="112.7461"/>
    <line x1="757.1555" x2="762.7805" y1="109.6211" y2="117.1211"/>
    <polygon points="56.6929,168.189 94.4882,168.189 94.4882,168.189 94.4882,205.9843 94.4882,205.9843 56.6929,205.9843 56.6929,205.9843"/>
    <polyline points="60.4577,133.563 61.0827,133.2505 61.0827,133.2505 62.0202,132.313 62.0202,132.313 62.0202,138.8755"/>
    <polyline points="66.0827,133.8755 66.0827,133.563 66.0827,133.563 66.3952,132.938 66.3952,132.938 66.7077,132.6255 66.7077,132.6255 67.3327,132.313 67.3327,132.313 68.5827,132.313 68.5827,132.313 69.2077,132.6255 69.2077,132.6255 69.5202,132.938 69.5202,132.938 69.8327,133.563 69.8327,133.563 69.8327,134.188 69.8327,134.188 69.5202,134.813 69.5202,134.813 68.8952,135.7505 68.8952,135.7505 65.7702,138.8755 65.7702,138.8755 70.1452,138.8755"/>
    <line x1="76.2156" x2="76.2156" y1="141.7913" y2="154.9163"/>
    <line x1="71.8406" x2="80.5906" y1="141.7913" y2="141.7913"/>
    <line x1="191.4764" x2="191.4764" y1="141.7913" y2="154.9163"/>
    <polyline points="449.1683,141.7913 454.1683,154.9163 454.1683,154.9163 459.1683,141.7913"/>
    <polyline points="510.2362,205.9843 510.2362,168.189 510.2362,168.189 548.0315,168.189"/>
    <polyline points="536.0089,141.7913 536.0089,154.9163 536.0089,154.9163 527.2589,141.7913 527.2589,141.7913 527.2589,154.9163"/>
    <polygon points="602.8494,141.7913 602.8494,154.9163 602.8494,154.9163 607.2244,154.9163 607.2244,154.9163 609.0994,154.2913 609.0994,154.2913 610.3494,153.0413 610.3494,153.0413 610.9744,151.7913 610.9744,151.7913 611.5994,149.9163 611.5994,149.9163 611.5994,146.7913 611.5994,146.7913 610.9744,144.9163 610.9744,144.9163 610.3494,143.6663 610.3494,143.6663 609.0994,142.4163 609.0994,142.4163 607.2244,141.7913 607.2244,141.7913"/>
    <polyline points="661.4173,130.3937 661.4173,168.189 661.4173,168.189 699.2126,168.189 699.2126,168.189 699.2126,130.3937"/>
    <polyline points="678.44,148.0413 684.065,148.0413 684.065,148.0413 685.94,147.4163 685.94,147.4163 686.565,146.7913 686.565,146.7913 687.19,145.5413 687.19,145.5413 687.19,144.2913 687.19,144.2913 686.565,143.0413 686.565,143.0413 685.94,142.4163 685.94,142.4163 684.065,141.7913 684.065,141.7913 678.44,141.7913 678.44,141.7913 678.44,154.9163"/>
    <line x1="682.815" x2="687.19" y1="148.0413" y2="154.9163"/>
    <line x1="737.0079" x2="774.8031" y1="168.189" y2="168.189"/>
    <line x1="758.4055" x2="758.4055" y1="141.7913" y2="154.9163"/>
    <polyline points="22.6624,171.3583 23.2874,171.0458 23.2874,171.0458 24.2249,170.1083 24.2249,170.1083 24.2249,176.6708"/>
    <polyline points="28.5999,170.1083 32.0374,170.1083 32.0374,170.1083 30.1624,172.6083 30.1624,172.6083 31.0999,172.6083 31.0999,172.6083 31.7249,172.9208 31.7249,172.9208 32.0374,173.2333 32.0374,173.2333 32.3499,174.1708 32.3499,174.1708 32.3499,174.7958 32.3499,174.7958 32.0374,175.7333 32.0374,175.7333 31.4124,176.3583 31.4124,176.3583 30.4749,176.6708 30.4749,176.6708 29.5374,176.6708 29.5374,176.6708 28.5999,176.3583 28.5999,176.3583 28.2874,176.0458 28.2874,176.0458 27.9749,175.4208"/>
    <polyline points="44.3578,182.7116 43.7328,181.4616 43.7328,181.4616 42.4828,180.2116 42.4828,180.2116 41.2328,179.5866 41.2328,179.5866 38.7328,179.5866 38.7328,179.5866 37.4828,180.2116 37.4828,180.2116 36.2328,181.4616 36.2328,181.4616 35.6078,182.7116 35.6078,182.7116 34.9828,184.5866 34.9828,184.5866 34.9828,187.7116 34.9828,187.7116 35.6078,189.5866 35.6078,189.5866 36.2328,190.8366 36.2328,190.8366 37.4828,192.0866 37.4828,192.0866 38.7328,192.7116 38.7328,192.7116 41.2328,192.7116 41.2328,192.7116 42.4828,192.0866 42.4828,192.0866 43.7328,190.8366 43.7328,190.8366 44.3578,189.5866 44.3578,189.5866 44.3578,187.7116 44.3578,187.7116 41.2328,187.7116"/>
    <polyline points="73.7156,185.8366 79.3406,185.8366 79.3406,185.8366 81.2156,185.2116 81.2156,185.2116 81.8406,184.5866 81.8406,184.5866 82.4656,183.3366 82.4656,183.3366 82.4656,182.0866 82.4656,182.0866 81.8406,180.8366 81.8406,180.8366 81.2156,180.2116 81.2156,180.2116 79.3406,179.5866 79.3406,179.5866 73.7156,179.5866 73.7156,179.5866 73.7156,192.7116"/>
    <line x1="78.0906" x2="82.4656" y1="185.8366" y2="192.7116"/>
    <line x1="132.2835" x2="132.2835" y1="205.9843" y2="168.189"/>
    <polygon points="114.0108,179.5866 112.7608,180.2116 112.7608,180.2116 111.5108,181.4616 111.5108,181.4616 110.8858,182.7116 110.8858,182.7116 110.2608,184.5866 110.2608,184.5866 110.2608,187.7116 110.2608,187.7116 110.8858,189.5866 110.8858,189.5866 111.5108,190.8366 111.5108,190.8366 112.7608,192.0866 112.7608,192.0866 114.0108,192.7116 114.0108,192.7116 116.5108,192.7116 116.5108,192.7116 117.7608,192.0866 117.7608,192.0866 119.0108,190.8366 119.0108,190.8366 119.6358,189.5866 119.6358,189.5866 120.2608,187.7116 120.2608,187.7116 120.2608,184.5866 120.2608,184.5866 119.6358,182.7116 119.6358,182.7116 119.0108,181.4616 119.0108,181.4616 117.7608,180.2116 117.7608,180.2116 116.5108,179.5866 116.5108,179.5866"/>
    <polyline points="157.7436,179.5866 149.6186,179.5866 149.6186,179.5866 149.6186,192.7116 149.6186,192.7116 157.7436,192.7116"/>
    <line x1="149.6186" x2="154.6186" y1="185.8366" y2="185.8366"/>
    <polyline points="195.8514,179.5866 195.8514,192.7116 195.8514,192.7116 187.1014,179.5866 187.1014,179.5866 187.1014,192.7116"/>
    <polygon points="245.6693,168.189 245.6693,205.9843 245.6693,205.9843 283.4646,205.9843 283.4646,205.9843 283.4646,168.189 283.4646,168.189"/>
    <polyline points="249.4341,171.3583 250.0591,171.0458 250.0591,171.0458 250.9966,170.1083 250.9966,170.1083 250.9966,176.6708"/>
    <polyline points="257.8716,176.6708 257.8716,170.1083 257.8716,170.1083 254.7466,174.4833 254.7466,174.4833 259.4341,174.4833"/>
    <polyline points="270.8169,181.4616 269.5669,180.2116 269.5669,180.2116 267.6919,179.5866 267.6919,179.5866 265.1919,179.5866 265.1919,179.5866 263.3169,180.2116 263.3169,180.2116 262.0669,181.4616 262.0669,181.4616 262.0669,182.7116 262.0669,182.7116 262.6919,183.9616 262.6919,183.9616 263.3169,184.5866 263.3169,184.5866 264.5669,185.2116 264.5669,185.2116 268.3169,186.4616 268.3169,186.4616 269.5669,187.0866 269.5669,187.0866 270.1919,187.7116 270.1919,187.7116 270.8169,188.9616 270.8169,188.9616 270.8169,190.8366 270.8169,190.8366 269.5669,192.0866 269.5669,192.0866 267.6919,192.7116 267.6919,192.7116 265.1919,192.7116 265.1919,192.7116 263.3169,192.0866 263.3169,192.0866 262.0669,190.8366"/>
    <polyline points="283.4646,205.9843 321.2598,205.9843 321.2598,205.9843 321.2598,168.189 321.2598,168.189 283.4646,168.189"/>
    <line x1="300.4872" x2="300.4872" y1="179.5866" y2="192.7116"/>
    <line x1="309.2372" x2="300.4872" y1="179.5866" y2="188.3366"/>
    <line x1="303.6122" x2="309.2372" y1="185.2116" y2="192.7116"/>
    <polyline points="359.0551,168.189 396.8504,168.189 396.8504,168.189 396.8504,205.9843 396.8504,205.9843 359.0551,205.9843 359.0551,205.9843 359.0551,243.7795 359.0551,243.7795 321.2598,243.7795 321.2598,243.7795 321.2598,205.9843 321.2598,205.9843 359.0551,205.9843 359.0551,205.9843 359.0551,168.189 359.0551,168.189 321.2598,168.189"/>
    <polyline points="325.0246,171.3583 325.6496,171.0458 325.6496,171.0458 326.5871,170.1083 326.5871,170.1083 326.5871,176.6708"/>
    <polyline points="334.0871,170.1083 330.9621,170.1083 330.9621,170.1083 330.6496,172.9208 330.6496,172.9208 330.9621,172.6083 330.9621,172.6083 331.8996,172.2958 331.8996,172.2958 332.8371,172.2958 332.8371,172.2958 333.7746,172.6083 333.7746,172.6083 334.3996,173.2333 334.3996,173.2333 334.7121,174.1708 334.7121,174.1708 334.7121,174.7958 334.7121,174.7958 334.3996,175.7333 334.3996,175.7333 333.7746,176.3583 333.7746,176.3583 332.8371,176.6708 332.8371,176.6708 331.8996,176.6708 331.8996,176.6708 330.9621,176.3583 330.9621,176.3583 330.6496,176.0458 330.6496,176.0458 330.3371,175.4208"/>
    <polyline points="346.72,179.5866 338.595,179.5866 338.595,179.5866 338.595,192.7116 338.595,192.7116 346.72,192.7116"/>
    <line x1="338.595" x2="343.595" y1="185.8366" y2="185.8366"/>
    <polyline points="376.7028,179.5866 376.7028,192.7116 376.7028,192.7116 384.2028,192.7116"/>
    <polyline points="396.8504,205.9843 434.6457,205.9843 434.6457,205.9843 434.6457,168.189 434.6457,168.189 396.8504,168.189"/>
    <polyline points="414.498,179.5866 414.498,192.7116 414.498,192.7116 421.998,192.7116"/>
    <polygon points="434.6457,205.9843 472.4409,205.9843 472.4409,205.9843 472.4409,243.7795 472.4409,243.7795 434.6457,243.7795 434.6457,243.7795"/>
    <polyline points="460.1058,179.5866 451.9808,179.5866 451.9808,179.5866 451.9808,192.7116 451.9808,192.7116 460.1058,192.7116"/>
    <line x1="451.9808" x2="456.9808" y1="185.8366" y2="185.8366"/>
    <line x1="489.4636" x2="489.4636" y1="179.5866" y2="192.7116"/>
    <line x1="498.2136" x2="489.4636" y1="179.5866" y2="188.3366"/>
    <line x1="492.5886" x2="498.2136" y1="185.2116" y2="192.7116"/>
    <polyline points="535.6964,179.5866 527.5714,179.5866 527.5714,179.5866 527.5714,192.7116 527.5714,192.7116 535.6964,192.7116"/>
    <line x1="527.5714" x2="532.5714" y1="185.8366" y2="185.8366"/>
    <polyline points="585.8268,168.189 585.8268,205.9843 585.8268,205.9843 623.622,205.9843 623.622,205.9843 623.622,168.189"/>
    <polyline points="602.8494,185.8366 608.4744,185.8366 608.4744,185.8366 610.3494,185.2116 610.3494,185.2116 610.9744,184.5866 610.9744,184.5866 611.5994,183.3366 611.5994,183.3366 611.5994,182.0866 611.5994,182.0866 610.9744,180.8366 610.9744,180.8366 610.3494,180.2116 610.3494,180.2116 608.4744,179.5866 608.4744,179.5866 602.8494,179.5866 602.8494,179.5866 602.8494,192.7116"/>
    <line x1="607.2244" x2="611.5994" y1="185.8366" y2="192.7116"/>
    <polyline points="661.4173,168.189 661.4173,205.9843 661.4173,205.9843 661.4173,243.7795 661.4173,243.7795 699.2126,243.7795 699.2126,243.7795 699.2126,205.9843 699.2126,205.9843 699.2126,168.189"/>
    <line x1="661.4173" x2="699.2126" y1="205.9843" y2="205.9843"/>
    <polyline points="685.94,192.7116 680.94,179.5866 680.94,179.5866 675.94,192.7116"/>
    <line x1="677.815" x2="684.065" y1="188.3366" y2="188.3366"/>
    <polyline points="762.468,179.5866 754.343,179.5866 754.343,179.5866 754.343,192.7116 754.343,192.7116 762.468,192.7116"/>
    <line x1="754.343" x2="759.343" y1="185.8366" y2="185.8366"/>
    <polyline points="82.1531,217.3819 74.0281,217.3819 74.0281,217.3819 74.0281,230.5069 74.0281,230.5069 82.1531,230.5069"/>
    <line x1="74.0281" x2="79.0281" y1="223.6319" y2="223.6319"/>
    <line x1="187.1014" x2="187.1014" y1="217.3819" y2="230.5069"/>
    <line x1="195.8514" x2="187.1014" y1="217.3819" y2="226.1319"/>
    <line x1="190.2264" x2="195.8514" y1="223.0069" y2="230.5069"/>
    <polyline points="347.6575,230.5069 347.6575,217.3819 347.6575,217.3819 342.6575,230.5069 342.6575,230.5069 337.6575,217.3819 337.6575,217.3819 337.6575,230.5069"/>
    <polyline points="451.6683,223.6319 457.2933,223.6319 457.2933,223.6319 459.1683,223.0069 459.1683,223.0069 459.7933,222.3819 459.7933,222.3819 460.4183,221.1319 460.4183,221.1319 460.4183,219.8819 460.4183,219.8819 459.7933,218.6319 459.7933,218.6319 459.1683,218.0069 459.1683,218.0069 457.2933,217.3819 457.2933,217.3819 451.6683,217.3819 451.6683,217.3819 451.6683,230.5069"/>
    <line x1="456.0433" x2="460.4183" y1="223.6319" y2="230.5069"/>
    <polyline points="585.8268,205.9843 585.8268,243.7795 585.8268,243.7795 623.622,243.7795 623.622,243.7795 623.622,205.9843"/>
    <line x1="607.2244" x2="607.2244" y1="217.3819" y2="230.5069"/>
    <polyline points="685.94,230.5069 680.94,217.3819 680.94,217.3819 675.94,230.5069"/>
    <line x1="677.815" x2="684.065" y1="226.1319" y2="226.1319"/>
    <polyline points="737.0079,205.9843 737.0079,243.7795 737.0079,243.7795 774.8031,243.7795 774.8031,243.7795 774.8031,205.9843"/>
    <polyline points="763.4055,230.5069 763.4055,217.3819 763.4055,217.3819 758.4055,230.5069 758.4055,230.5069 753.4055,217.3819 753.4055,217.3819 753.4055,230.5069"/>
    <polyline points="56.6929,243.7795 56.6929,281.5748 56.6929,281.5748 94.4882,281.5748 94.4882,281.5748 94.4882,243.7795"/>
    <line x1="78.0906" x2="78.0906" y1="255.1772" y2="268.3022"/>
    <polyline points="170.0787,243.7795 170.0787,281.5748 170.0787,281.5748 170.0787,319.3701 170.0787,319.3701 207.874,319.3701 207.874,319.3701 245.6693,319.3701 245.6693,319.3701 245.6693,281.5748 245.6693,281.5748 207.874,281.5748 207.874,281.5748 207.874,243.7795"/>
    <polyline points="170.0787,281.5748 207.874,281.5748 207.874,281.5748 207.874,319.3701 207.874,319.3701 207.874,357.1654 207.874,357.1654 170.0787,357.1654 170.0787,357.1654 170.0787,319.3701"/>
    <polyline points="195.5389,255.1772 187.4139,255.1772 187.4139,255.1772 187.4139,268.3022 187.4139,268.3022 195.5389,268.3022"/>
    <line x1="187.4139" x2="192.4139" y1="261.4272" y2="261.4272"/>
    <polyline points="321.2598,243.7795 321.2598,281.5748 321.2598,281.5748 359.0551,281.5748 359.0551,281.5748 359.0551,243.7795"/>
    <polyline points="347.6575,268.3022 347.6575,255.1772 347.6575,255.1772 342.6575,268.3022 342.6575,268.3022 337.6575,255.1772 337.6575,255.1772 337.6575,268.3022"/>
    <polyline points="434.6457,243.7795 434.6457,281.5748 434.6457,281.5748 472.4409,281.5748 472.4409,281.5748 472.4409,243.7795"/>
    <line x1="454.1683" x2="454.1683" y1="255.1772" y2="268.3022"/>
    <line x1="449.7933" x2="458.5433" y1="255.1772" y2="255.1772"/>
    <polygon points="548.0315,243.7795 548.0315,281.5748 548.0315,281.5748 585.8268,281.5748 585.8268,281.5748 585.8268,243.7795 585.8268,243.7795"/>
    <polyline points="551.7963,246.9488 552.4213,246.6363 552.4213,246.6363 553.3588,245.6988 553.3588,245.6988 553.3588,252.2613"/>
    <polyline points="561.1713,246.6363 560.8588,246.0113 560.8588,246.0113 559.9213,245.6988 559.9213,245.6988 559.2963,245.6988 559.2963,245.6988 558.3588,246.0113 558.3588,246.0113 557.7338,246.9488 557.7338,246.9488 557.4213,248.5113 557.4213,248.5113 557.4213,250.0738 557.4213,250.0738 557.7338,251.3238 557.7338,251.3238 558.3588,251.9488 558.3588,251.9488 559.2963,252.2613 559.2963,252.2613 559.6088,252.2613 559.6088,252.2613 560.5463,251.9488 560.5463,251.9488 561.1713,251.3238 561.1713,251.3238 561.4838,250.3863 561.4838,250.3863 561.4838,250.0738 561.4838,250.0738 561.1713,249.1363 561.1713,249.1363 560.5463,248.5113 560.5463,248.5113 559.6088,248.1988 559.6088,248.1988 559.2963,248.1988 559.2963,248.1988 558.3588,248.5113 558.3588,248.5113 557.7338,249.1363 557.7338,249.1363 557.4213,250.0738"/>
    <polyline points="573.4916,258.3022 572.8666,257.0522 572.8666,257.0522 571.6166,255.8022 571.6166,255.8022 570.3666,255.1772 570.3666,255.1772 567.8666,255.1772 567.8666,255.1772 566.6166,255.8022 566.6166,255.8022 565.3666,257.0522 565.3666,257.0522 564.7416,258.3022 564.7416,258.3022 564.1166,260.1772 564.1166,260.1772 564.1166,263.3022 564.1166,263.3022 564.7416,265.1772 564.7416,265.1772 565.3666,266.4272 565.3666,266.4272 566.6166,267.6772 566.6166,267.6772 567.8666,268.3022 567.8666,268.3022 570.3666,268.3022 570.3666,268.3022 571.6166,267.6772 571.6166,267.6772 572.8666,266.4272 572.8666,266.4272 573.4916,265.1772"/>
    <polyline points="661.4173,281.5748 623.622,281.5748 623.622,281.5748 623.622,319.3701 623.622,319.3701 585.8268,319.3701 585.8268,319.3701 585.8268,281.5748 585.8268,281.5748 623.622,281.5748 623.622,281.5748 623.622,243.7795 623.622,243.7795 661.4173,243.7795 661.4173,243.7795 661.4173,281.5748 661.4173,281.5748 699.2126,281.5748 699.2126,281.5748 699.2126,243.7795 699.2126,243.7795 737.0079,243.7795 737.0079,243.7795 737.0079,281.5748 737.0079,281.5748 774.8031,281.5748 774.8031,281.5748 774.8031,243.7795"/>
    <polyline points="611.2869,255.1772 603.1619,255.1772 603.1619,255.1772 603.1619,268.3022 603.1619,268.3022 611.2869,268.3022"/>
    <line x1="603.1619" x2="608.1619" y1="261.4272" y2="261.4272"/>
    <polyline points="649.3947,255.1772 649.3947,268.3022 649.3947,268.3022 640.6447,255.1772 640.6447,255.1772 640.6447,268.3022"/>
    <line x1="680.94" x2="680.94" y1="255.1772" y2="268.3022"/>
    <line x1="676.565" x2="685.315" y1="255.1772" y2="255.1772"/>
    <polyline points="699.2126,281.5748 737.0079,281.5748 737.0079,281.5748 737.0079,319.3701 737.0079,319.3701 774.8031,319.3701 774.8031,319.3701 774.8031,281.5748"/>
    <polyline points="722.4852,255.1772 722.4852,265.1772 722.4852,265.1772 721.8602,267.0522 721.8602,267.0522 721.2352,267.6772 721.2352,267.6772 719.9852,268.3022 719.9852,268.3022 718.7352,268.3022 718.7352,268.3022 717.4852,267.6772 717.4852,267.6772 716.8602,267.0522 716.8602,267.0522 716.2352,265.1772 716.2352,265.1772 716.2352,263.9272"/>
    <polyline points="762.468,255.1772 754.343,255.1772 754.343,255.1772 754.343,268.3022 754.343,268.3022 762.468,268.3022"/>
    <line x1="754.343" x2="759.343" y1="261.4272" y2="261.4272"/>
    <polyline points="56.6929,281.5748 56.6929,319.3701 56.6929,319.3701 94.4882,319.3701 94.4882,319.3701 94.4882,281.5748"/>
    <polyline points="82.4656,292.9724 82.4656,306.0974 82.4656,306.0974 73.7156,292.9724 73.7156,292.9724 73.7156,306.0974"/>
    <polyline points="173.8435,284.7441 174.4685,284.4316 174.4685,284.4316 175.406,283.4941 175.406,283.4941 175.406,290.0566"/>
    <polyline points="179.156,283.4941 183.531,283.4941 183.531,283.4941 180.406,290.0566"/>
    <polyline points="187.1014,299.2224 192.7264,299.2224 192.7264,299.2224 194.6014,298.5974 194.6014,298.5974 195.2264,297.9724 195.2264,297.9724 195.8514,296.7224 195.8514,296.7224 195.8514,295.4724 195.8514,295.4724 195.2264,294.2224 195.2264,294.2224 194.6014,293.5974 194.6014,293.5974 192.7264,292.9724 192.7264,292.9724 187.1014,292.9724 187.1014,292.9724 187.1014,306.0974"/>
    <line x1="191.4764" x2="195.8514" y1="299.2224" y2="306.0974"/>
    <polyline points="233.3342,292.9724 225.2092,292.9724 225.2092,292.9724 225.2092,306.0974 225.2092,306.0974 233.3342,306.0974"/>
    <line x1="225.2092" x2="230.2092" y1="299.2224" y2="299.2224"/>
    <polyline points="245.6693,319.3701 283.4646,319.3701 283.4646,319.3701 321.2598,319.3701 321.2598,319.3701 359.0551,319.3701 359.0551,319.3701 359.0551,281.5748 359.0551,281.5748 396.8504,281.5748 396.8504,281.5748 434.6457,281.5748 434.6457,281.5748 434.6457,319.3701 434.6457,319.3701 396.8504,319.3701 396.8504,319.3701 396.8504,281.5748"/>
    <polyline points="283.4646,319.3701 283.4646,281.5748 283.4646,281.5748 245.6693,281.5748"/>
    <line x1="262.6919" x2="262.6919" y1="292.9724" y2="306.0974"/>
    <line x1="271.4419" x2="262.6919" y1="292.9724" y2="301.7224"/>
    <line x1="265.8169" x2="271.4419" y1="298.5974" y2="306.0974"/>
    <polyline points="321.2598,319.3701 321.2598,281.5748 321.2598,281.5748 283.4646,281.5748"/>
    <line x1="300.4872" x2="300.4872" y1="292.9724" y2="306.0974"/>
    <line x1="309.2372" x2="300.4872" y1="292.9724" y2="301.7224"/>
    <line x1="303.6122" x2="309.2372" y1="298.5974" y2="306.0974"/>
    <polyline points="346.72,292.9724 338.595,292.9724 338.595,292.9724 338.595,306.0974 338.595,306.0974 346.72,306.0974"/>
    <line x1="338.595" x2="343.595" y1="299.2224" y2="299.2224"/>
    <line x1="359.0551" x2="396.8504" y1="319.3701" y2="319.3701"/>
    <polyline points="376.0778,299.2224 381.7028,299.2224 381.7028,299.2224 383.5778,298.5974 383.5778,298.5974 384.2028,297.9724 384.2028,297.9724 384.8278,296.7224 384.8278,296.7224 384.8278,295.4724 384.8278,295.4724 384.2028,294.2224 384.2028,294.2224 383.5778,293.5974 383.5778,293.5974 381.7028,292.9724 381.7028,292.9724 376.0778,292.9724 376.0778,292.9724 376.0778,306.0974"/>
    <line x1="380.4528" x2="384.8278" y1="299.2224" y2="306.0974"/>
    <line x1="416.373" x2="416.373" y1="292.9724" y2="306.0974"/>
    <line x1="411.998" x2="420.748" y1="292.9724" y2="292.9724"/>
    <polygon points="434.6457,319.3701 472.4409,319.3701 472.4409,319.3701 472.4409,281.5748 472.4409,281.5748 510.2362,281.5748 510.2362,281.5748 510.2362,319.3701 510.2362,319.3701 472.4409,319.3701 472.4409,319.3701 472.4409,357.1654 472.4409,357.1654 434.6457,357.1654 434.6457,357.1654"/>
    <polyline points="457.9183,292.9724 457.9183,302.9724 457.9183,302.9724 457.2933,304.8474 457.2933,304.8474 456.6683,305.4724 456.6683,305.4724 455.4183,306.0974 455.4183,306.0974 454.1683,306.0974 454.1683,306.0974 452.9183,305.4724 452.9183,305.4724 452.2933,304.8474 452.2933,304.8474 451.6683,302.9724 451.6683,302.9724 451.6683,301.7224"/>
    <polyline points="497.9011,292.9724 489.7761,292.9724 489.7761,292.9724 489.7761,306.0974 489.7761,306.0974 497.9011,306.0974"/>
    <line x1="489.7761" x2="494.7761" y1="299.2224" y2="299.2224"/>
    <polyline points="610.9744,294.8474 609.7244,293.5974 609.7244,293.5974 607.8494,292.9724 607.8494,292.9724 605.3494,292.9724 605.3494,292.9724 603.4744,293.5974 603.4744,293.5974 602.2244,294.8474 602.2244,294.8474 602.2244,296.0974 602.2244,296.0974 602.8494,297.3474 602.8494,297.3474 603.4744,297.9724 603.4744,297.9724 604.7244,298.5974 604.7244,298.5974 608.4744,299.8474 608.4744,299.8474 609.7244,300.4724 609.7244,300.4724 610.3494,301.0974 610.3494,301.0974 610.9744,302.3474 610.9744,302.3474 610.9744,304.2224 610.9744,304.2224 609.7244,305.4724 609.7244,305.4724 607.8494,306.0974 607.8494,306.0974 605.3494,306.0974 605.3494,306.0974 603.4744,305.4724 603.4744,305.4724 602.2244,304.2224"/>
    <polyline points="762.7805,292.9724 762.7805,306.0974 762.7805,306.0974 754.0305,292.9724 754.0305,292.9724 754.0305,306.0974"/>
    <polyline points="195.2264,332.6427 193.9764,331.3927 193.9764,331.3927 192.1014,330.7677 192.1014,330.7677 189.6014,330.7677 189.6014,330.7677 187.7264,331.3927 187.7264,331.3927 186.4764,332.6427 186.4764,332.6427 186.4764,333.8927 186.4764,333.8927 187.1014,335.1427 187.1014,335.1427 187.7264,335.7677 187.7264,335.7677 188.9764,336.3927 188.9764,336.3927 192.7264,337.6427 192.7264,337.6427 193.9764,338.2677 193.9764,338.2677 194.6014,338.8927 194.6014,338.8927 195.2264,340.1427 195.2264,340.1427 195.2264,342.0177 195.2264,342.0177 193.9764,343.2677 193.9764,343.2677 192.1014,343.8927 192.1014,343.8927 189.6014,343.8927 189.6014,343.8927 187.7264,343.2677 187.7264,343.2677 186.4764,342.0177"/>
    <polyline points="460.1058,330.7677 451.9808,330.7677 451.9808,330.7677 451.9808,343.8927 451.9808,343.8927 460.1058,343.8927"/>
    <line x1="451.9808" x2="456.9808" y1="337.0177" y2="337.0177"/>
  </g>
</svg>
