<?xml version="1.0" encoding="utf-8" ?>
<svg xmlns="http://www.w3.org/2000/svg" xmlns:cc="http://creativecommons.org/ns" xmlns:dc="http://purl.org/dc/elements/1.1/" xmlns:ev="http://www.w3.org/2001/xml-events" xmlns:inkscape="http://www.inkscape.org/namespaces/inkscape" xmlns:rdf="http://www.w3.org/1999/02/22-rdf-syntax-ns" xmlns:sodipodi="http://sodipodi.sourceforge.net/DTD/sodipodi-0.dtd" xmlns:xlink="http://www.w3.org/1999/xlink" baseProfile="tiny" height="9.9cm" version="1.2" viewBox="0 0 793.7007874015749 374.1732283464567" width="21.0cm">
  <metadata>
    <rdf:RDF>
      <cc:Work>
        <dc:format>image/svg+xml</dc:format>
        <dc:source>vpype eval 'cell=10;width=210;height=99' eval 'nCols=20;nRows=9' eval 'cells=[1,3,8,10,13,15,18,21,23,25,28,30,32,33,34,35,36,37,38,39,40,41,42,43,44,45,46,47,48,50,53,55,58,61,63,65,68,70,73,75,78,81,83,85,87,88,89,90,91,92,93,95,98,101,103,105,108,110,113,114,115,116,117,118,119,121,123,125,127,128,129,130,133,138,142,145,148,150,153,161,162,163,164,165,166,167,168,170,172,173,174,175,176,177,178,179]' eval 'chars=[&quot;V&quot;,&quot;V&quot;,&quot;M&quot;,&quot;K&quot;,&quot;R&quot;,&quot;T&quot;,&quot;O&quot;,&quot;R&quot;,&quot;E&quot;,&quot;S&quot;,&quot;A&quot;,&quot;L&quot;,&quot;T&quot;,&quot;E&quot;,&quot;L&quot;,&quot;E&quot;,&quot;F&quot;,&quot;O&quot;,&quot;O&quot;,&quot;N&quot;,&quot;U&quot;,&quot;I&quot;,&quot;T&quot;,&quot;L&quot;,&quot;I&quot;,&quot;K&quot;,&quot;K&quot;,&quot;E&quot;,&quot;N&quot;,&quot;A&quot;,&quot;K&quot;,&quot;R&quot;,&quot;R&quot;,&quot;J&quot;,&quot;L&quot;,&quot;E&quot;,&quot;D&quot;,&quot;V&quot;,&quot;K&quot;,&quot;R&quot;,&quot;T&quot;,&quot;D&quot;,&quot;E&quot;,&quot;L&quot;,&quot;V&quot;,&quot;A&quot;,&quot;L&quot;,&quot;E&quot;,&quot;R&quot;,&quot;I&quot;,&quot;E&quot;,&quot;A&quot;,&quot;J&quot;,&quot;A&quot;,&quot;K&quot;,&quot;L&quot;,&quot;R&quot;,&quot;R&quot;,&quot;R&quot;,&quot;E&quot;,&quot;S&quot;,&quot;T&quot;,&quot;J&quot;,&quot;E&quot;,&quot;S&quot;,&quot;G&quot;,&quot;E&quot;,&quot;E&quot;,&quot;L&quot;,&quot;I&quot;,&quot;F&quot;,&quot;T&quot;,&quot;T&quot;,&quot;S&quot;,&quot;J&quot;,&quot;K&quot;,&quot;J&quot;,&quot;J&quot;,&quot;J&quot;,&quot;P&quot;,&quot;A&quot;,&quot;R&quot;,&quot;K&quot;,&quot;E&quot;,&quot;R&quot;,&quot;E&quot;,&quot;N&quot;,&quot;E&quot;,&quot;R&quot;,&quot;E&quot;,&quot;G&quot;,&quot;E&quot;,&quot;N&quot;,&quot;B&quot;,&quot;U&quot;,&quot;I&quot;]' eval 'numbers=[1,3,8,10,13,15,18,25,32,40,87,113,127,142,161,172]' eval counter=1 eval charIndex=0 begin grid -o '%cell*mm%' '%cell*mm%' %nCols% %nRows% eval '%isCell=_i in cells%' eval '%number=_i in numbers%' eval '%size=10 if isCell else 0%' rect 0 0 '%size*mm%' '%size*mm%' text -s 10 -p 0.5mm 1.5mm '%counter if number else '&quot;'&quot;''&quot;'&quot;'%' text -s 20 -p 5mm 5mm -a center '%chars[charIndex] if isCell else '&quot;'&quot;''&quot;'&quot;'%' eval '%if number: counter+=1 %' eval '%if isCell: charIndex+=1 %' end splitall deduplicate linemerge --tolerance 0.1mm write -m none --page-size '%width*mm%x%height*mm%' --center ./svgs/solution/688bab.svg
</dc:source>
        <dc:date>2024-01-06T16:44:06.586854</dc:date>
      </cc:Work>
    </rdf:RDF>
  </metadata>
  <defs/>
  <g fill="none" id="layer1" inkscape:groupmode="layer" inkscape:label="1" stroke="#000000" style="display:inline">
    <polygon points="56.6929,17.0079 56.6929,54.8031 56.6929,54.8031 56.6929,92.5984 56.6929,92.5984 18.8976,92.5984 18.8976,92.5984 18.8976,130.3937 18.8976,130.3937 56.6929,130.3937 56.6929,130.3937 56.6929,168.189 56.6929,168.189 56.6929,205.9843 56.6929,205.9843 94.4882,205.9843 94.4882,205.9843 94.4882,168.189 94.4882,168.189 94.4882,130.3937 94.4882,130.3937 94.4882,92.5984 94.4882,92.5984 94.4882,54.8031 94.4882,54.8031 94.4882,17.0079 94.4882,17.0079"/>
    <line x1="56.6929" x2="94.4882" y1="54.8031" y2="54.8031"/>
    <polyline points="60.4577,20.1772 61.0827,19.8647 61.0827,19.8647 62.0202,18.9272 62.0202,18.9272 62.0202,25.4897"/>
    <polyline points="71.2156,28.4055 76.2156,41.5305 76.2156,41.5305 81.2156,28.4055"/>
    <polygon points="132.2835,17.0079 132.2835,54.8031 132.2835,54.8031 170.0787,54.8031 170.0787,54.8031 170.0787,17.0079 170.0787,17.0079"/>
    <polyline points="135.4232,20.4897 135.4232,20.1772 135.4232,20.1772 135.7357,19.5522 135.7357,19.5522 136.0482,19.2397 136.0482,19.2397 136.6732,18.9272 136.6732,18.9272 137.9232,18.9272 137.9232,18.9272 138.5482,19.2397 138.5482,19.2397 138.8607,19.5522 138.8607,19.5522 139.1732,20.1772 139.1732,20.1772 139.1732,20.8022 139.1732,20.8022 138.8607,21.4272 138.8607,21.4272 138.2357,22.3647 138.2357,22.3647 135.1107,25.4897 135.1107,25.4897 139.4857,25.4897"/>
    <polyline points="146.8061,28.4055 151.8061,41.5305 151.8061,41.5305 156.8061,28.4055"/>
    <polygon points="321.2598,17.0079 321.2598,54.8031 321.2598,54.8031 321.2598,92.5984 321.2598,92.5984 359.0551,92.5984 359.0551,92.5984 359.0551,54.8031 359.0551,54.8031 359.0551,17.0079 359.0551,17.0079"/>
    <line x1="321.2598" x2="359.0551" y1="54.8031" y2="54.8031"/>
    <polyline points="324.7121,18.9272 328.1496,18.9272 328.1496,18.9272 326.2746,21.4272 326.2746,21.4272 327.2121,21.4272 327.2121,21.4272 327.8371,21.7397 327.8371,21.7397 328.1496,22.0522 328.1496,22.0522 328.4621,22.9897 328.4621,22.9897 328.4621,23.6147 328.4621,23.6147 328.1496,24.5522 328.1496,24.5522 327.5246,25.1772 327.5246,25.1772 326.5871,25.4897 326.5871,25.4897 325.6496,25.4897 325.6496,25.4897 324.7121,25.1772 324.7121,25.1772 324.3996,24.8647 324.3996,24.8647 324.0871,24.2397"/>
    <polyline points="347.6575,41.5305 347.6575,28.4055 347.6575,28.4055 342.6575,41.5305 342.6575,41.5305 337.6575,28.4055 337.6575,28.4055 337.6575,41.5305"/>
    <polygon points="396.8504,17.0079 396.8504,54.8031 396.8504,54.8031 434.6457,54.8031 434.6457,54.8031 434.6457,17.0079 434.6457,17.0079"/>
    <polyline points="402.8027,25.4897 402.8027,18.9272 402.8027,18.9272 399.6777,23.3022 399.6777,23.3022 404.3652,23.3022"/>
    <line x1="413.873" x2="413.873" y1="28.4055" y2="41.5305"/>
    <line x1="422.623" x2="413.873" y1="28.4055" y2="37.1555"/>
    <line x1="416.998" x2="422.623" y1="34.0305" y2="41.5305"/>
    <polygon points="510.2362,17.0079 510.2362,54.8031 510.2362,54.8031 472.4409,54.8031 472.4409,54.8031 472.4409,92.5984 472.4409,92.5984 510.2362,92.5984 510.2362,92.5984 510.2362,54.8031 510.2362,54.8031 548.0315,54.8031 548.0315,54.8031 548.0315,17.0079 548.0315,17.0079"/>
    <polyline points="516.8135,18.9272 513.6885,18.9272 513.6885,18.9272 513.376,21.7397 513.376,21.7397 513.6885,21.4272 513.6885,21.4272 514.626,21.1147 514.626,21.1147 515.5635,21.1147 515.5635,21.1147 516.501,21.4272 516.501,21.4272 517.126,22.0522 517.126,22.0522 517.4385,22.9897 517.4385,22.9897 517.4385,23.6147 517.4385,23.6147 517.126,24.5522 517.126,24.5522 516.501,25.1772 516.501,25.1772 515.5635,25.4897 515.5635,25.4897 514.626,25.4897 514.626,25.4897 513.6885,25.1772 513.6885,25.1772 513.376,24.8647 513.376,24.8647 513.0635,24.2397"/>
    <polyline points="527.2589,34.6555 532.8839,34.6555 532.8839,34.6555 534.7589,34.0305 534.7589,34.0305 535.3839,33.4055 535.3839,33.4055 536.0089,32.1555 536.0089,32.1555 536.0089,30.9055 536.0089,30.9055 535.3839,29.6555 535.3839,29.6555 534.7589,29.0305 534.7589,29.0305 532.8839,28.4055 532.8839,28.4055 527.2589,28.4055 527.2589,28.4055 527.2589,41.5305"/>
    <line x1="531.6339" x2="536.0089" y1="34.6555" y2="41.5305"/>
    <polygon points="585.8268,17.0079 585.8268,54.8031 585.8268,54.8031 623.622,54.8031 623.622,54.8031 623.622,17.0079 623.622,17.0079"/>
    <polyline points="592.7165,19.8647 592.404,19.2397 592.404,19.2397 591.4665,18.9272 591.4665,18.9272 590.8415,18.9272 590.8415,18.9272 589.904,19.2397 589.904,19.2397 589.279,20.1772 589.279,20.1772 588.9665,21.7397 588.9665,21.7397 588.9665,23.3022 588.9665,23.3022 589.279,24.5522 589.279,24.5522 589.904,25.1772 589.904,25.1772 590.8415,25.4897 590.8415,25.4897 591.154,25.4897 591.154,25.4897 592.0915,25.1772 592.0915,25.1772 592.7165,24.5522 592.7165,24.5522 593.029,23.6147 593.029,23.6147 593.029,23.3022 593.029,23.3022 592.7165,22.3647 592.7165,22.3647 592.0915,21.7397 592.0915,21.7397 591.154,21.4272 591.154,21.4272 590.8415,21.4272 590.8415,21.4272 589.904,21.7397 589.904,21.7397 589.279,22.3647 589.279,22.3647 588.9665,23.3022"/>
    <line x1="605.3494" x2="605.3494" y1="28.4055" y2="41.5305"/>
    <line x1="600.9744" x2="609.7244" y1="28.4055" y2="28.4055"/>
    <polygon points="699.2126,17.0079 699.2126,54.8031 699.2126,54.8031 737.0079,54.8031 737.0079,54.8031 737.0079,17.0079 737.0079,17.0079"/>
    <polyline points="702.0399,18.9272 706.4149,18.9272 706.4149,18.9272 703.2899,25.4897"/>
    <polygon points="718.7352,28.4055 717.4852,29.0305 717.4852,29.0305 716.2352,30.2805 716.2352,30.2805 715.6102,31.5305 715.6102,31.5305 714.9852,33.4055 714.9852,33.4055 714.9852,36.5305 714.9852,36.5305 715.6102,38.4055 715.6102,38.4055 716.2352,39.6555 716.2352,39.6555 717.4852,40.9055 717.4852,40.9055 718.7352,41.5305 718.7352,41.5305 721.2352,41.5305 721.2352,41.5305 722.4852,40.9055 722.4852,40.9055 723.7352,39.6555 723.7352,39.6555 724.3602,38.4055 724.3602,38.4055 724.9852,36.5305 724.9852,36.5305 724.9852,33.4055 724.9852,33.4055 724.3602,31.5305 724.3602,31.5305 723.7352,30.2805 723.7352,30.2805 722.4852,29.0305 722.4852,29.0305 721.2352,28.4055 721.2352,28.4055"/>
    <polyline points="132.2835,54.8031 132.2835,92.5984 132.2835,92.5984 132.2835,130.3937 132.2835,130.3937 94.4882,130.3937 94.4882,130.3937 56.6929,130.3937 56.6929,130.3937 56.6929,92.5984 56.6929,92.5984 94.4882,92.5984 94.4882,92.5984 132.2835,92.5984 132.2835,92.5984 170.0787,92.5984 170.0787,92.5984 170.0787,54.8031"/>
    <polyline points="73.7156,72.4508 79.3406,72.4508 79.3406,72.4508 81.2156,71.8258 81.2156,71.8258 81.8406,71.2008 81.8406,71.2008 82.4656,69.9508 82.4656,69.9508 82.4656,68.7008 82.4656,68.7008 81.8406,67.4508 81.8406,67.4508 81.2156,66.8258 81.2156,66.8258 79.3406,66.2008 79.3406,66.2008 73.7156,66.2008 73.7156,66.2008 73.7156,79.3258"/>
    <line x1="78.0906" x2="82.4656" y1="72.4508" y2="79.3258"/>
    <polyline points="157.7436,66.2008 149.6186,66.2008 149.6186,66.2008 149.6186,79.3258 149.6186,79.3258 157.7436,79.3258"/>
    <line x1="149.6186" x2="154.6186" y1="72.4508" y2="72.4508"/>
    <polygon points="207.874,54.8031 207.874,92.5984 207.874,92.5984 170.0787,92.5984 170.0787,92.5984 170.0787,130.3937 170.0787,130.3937 207.874,130.3937 207.874,130.3937 245.6693,130.3937 245.6693,130.3937 245.6693,92.5984 245.6693,92.5984 245.6693,54.8031 245.6693,54.8031"/>
    <polyline points="359.0551,130.3937 321.2598,130.3937 321.2598,130.3937 283.4646,130.3937 283.4646,130.3937 245.6693,130.3937 245.6693,130.3937 245.6693,168.189 245.6693,168.189 245.6693,205.9843 245.6693,205.9843 245.6693,243.7795 245.6693,243.7795 207.874,243.7795 207.874,243.7795 207.874,205.9843 207.874,205.9843 207.874,168.189 207.874,168.189 207.874,130.3937 207.874,130.3937 207.874,92.5984 207.874,92.5984 245.6693,92.5984 245.6693,92.5984 283.4646,92.5984 283.4646,92.5984 321.2598,92.5984 321.2598,92.5984 321.2598,130.3937 321.2598,130.3937 321.2598,168.189 321.2598,168.189 283.4646,168.189 283.4646,168.189 283.4646,205.9843 283.4646,205.9843 321.2598,205.9843 321.2598,205.9843 321.2598,168.189 321.2598,168.189 359.0551,168.189 359.0551,168.189 359.0551,130.3937 359.0551,130.3937 359.0551,92.5984"/>
    <polygon points="212.2638,56.7224 211.3263,57.0349 211.3263,57.0349 211.0138,57.6599 211.0138,57.6599 211.0138,58.2849 211.0138,58.2849 211.3263,58.9099 211.3263,58.9099 211.9513,59.2224 211.9513,59.2224 213.2013,59.5349 213.2013,59.5349 214.1388,59.8474 214.1388,59.8474 214.7638,60.4724 214.7638,60.4724 215.0763,61.0974 215.0763,61.0974 215.0763,62.0349 215.0763,62.0349 214.7638,62.6599 214.7638,62.6599 214.4513,62.9724 214.4513,62.9724 213.5138,63.2849 213.5138,63.2849 212.2638,63.2849 212.2638,63.2849 211.3263,62.9724 211.3263,62.9724 211.0138,62.6599 211.0138,62.6599 210.7013,62.0349 210.7013,62.0349 210.7013,61.0974 210.7013,61.0974 211.0138,60.4724 211.0138,60.4724 211.6388,59.8474 211.6388,59.8474 212.5763,59.5349 212.5763,59.5349 213.8263,59.2224 213.8263,59.2224 214.4513,58.9099 214.4513,58.9099 214.7638,58.2849 214.7638,58.2849 214.7638,57.6599 214.7638,57.6599 214.4513,57.0349 214.4513,57.0349 213.5138,56.7224 213.5138,56.7224"/>
    <polyline points="233.0217,68.0758 231.7717,66.8258 231.7717,66.8258 229.8967,66.2008 229.8967,66.2008 227.3967,66.2008 227.3967,66.2008 225.5217,66.8258 225.5217,66.8258 224.2717,68.0758 224.2717,68.0758 224.2717,69.3258 224.2717,69.3258 224.8967,70.5758 224.8967,70.5758 225.5217,71.2008 225.5217,71.2008 226.7717,71.8258 226.7717,71.8258 230.5217,73.0758 230.5217,73.0758 231.7717,73.7008 231.7717,73.7008 232.3967,74.3258 232.3967,74.3258 233.0217,75.5758 233.0217,75.5758 233.0217,77.4508 233.0217,77.4508 231.7717,78.7008 231.7717,78.7008 229.8967,79.3258 229.8967,79.3258 227.3967,79.3258 227.3967,79.3258 225.5217,78.7008 225.5217,78.7008 224.2717,77.4508"/>
    <polyline points="345.7825,79.3258 340.7825,66.2008 340.7825,66.2008 335.7825,79.3258"/>
    <line x1="337.6575" x2="343.9075" y1="74.9508" y2="74.9508"/>
    <polyline points="396.8504,54.8031 396.8504,92.5984 396.8504,92.5984 396.8504,130.3937 396.8504,130.3937 434.6457,130.3937 434.6457,130.3937 434.6457,92.5984 434.6457,92.5984 434.6457,54.8031"/>
    <line x1="396.8504" x2="434.6457" y1="92.5984" y2="92.5984"/>
    <polyline points="414.498,66.2008 414.498,79.3258 414.498,79.3258 421.998,79.3258"/>
    <polyline points="479.3307,58.9099 479.0182,59.8474 479.0182,59.8474 478.3932,60.4724 478.3932,60.4724 477.4557,60.7849 477.4557,60.7849 477.1432,60.7849 477.1432,60.7849 476.2057,60.4724 476.2057,60.4724 475.5807,59.8474 475.5807,59.8474 475.2682,58.9099 475.2682,58.9099 475.2682,58.5974 475.2682,58.5974 475.5807,57.6599 475.5807,57.6599 476.2057,57.0349 476.2057,57.0349 477.1432,56.7224 477.1432,56.7224 477.4557,56.7224 477.4557,56.7224 478.3932,57.0349 478.3932,57.0349 479.0182,57.6599 479.0182,57.6599 479.3307,58.9099 479.3307,58.9099 479.3307,60.4724 479.3307,60.4724 479.0182,62.0349 479.0182,62.0349 478.3932,62.9724 478.3932,62.9724 477.4557,63.2849 477.4557,63.2849 476.8307,63.2849 476.8307,63.2849 475.8932,62.9724 475.8932,62.9724 475.5807,62.3474"/>
    <line x1="491.9636" x2="491.9636" y1="66.2008" y2="79.3258"/>
    <line x1="487.5886" x2="496.3386" y1="66.2008" y2="66.2008"/>
    <polyline points="510.2362,130.3937 510.2362,92.5984 510.2362,92.5984 548.0315,92.5984 548.0315,92.5984 548.0315,54.8031 548.0315,54.8031 585.8268,54.8031 585.8268,54.8031 585.8268,92.5984 585.8268,92.5984 548.0315,92.5984 548.0315,92.5984 548.0315,130.3937 548.0315,130.3937 510.2362,130.3937 510.2362,130.3937 510.2362,168.189 510.2362,168.189 472.4409,168.189 472.4409,168.189 434.6457,168.189 434.6457,168.189 434.6457,130.3937"/>
    <polyline points="535.6964,66.2008 527.5714,66.2008 527.5714,66.2008 527.5714,79.3258 527.5714,79.3258 535.6964,79.3258"/>
    <line x1="527.5714" x2="532.5714" y1="72.4508" y2="72.4508"/>
    <polyline points="565.6791,66.2008 565.6791,79.3258 565.6791,79.3258 573.1791,79.3258"/>
    <polyline points="623.622,130.3937 585.8268,130.3937 585.8268,130.3937 585.8268,92.5984 585.8268,92.5984 623.622,92.5984 623.622,92.5984 661.4173,92.5984 661.4173,92.5984 661.4173,54.8031 661.4173,54.8031 623.622,54.8031 623.622,54.8031 623.622,92.5984 623.622,92.5984 623.622,130.3937 623.622,130.3937 623.622,168.189 623.622,168.189 623.622,205.9843 623.622,205.9843 623.622,243.7795 623.622,243.7795 661.4173,243.7795 661.4173,243.7795 699.2126,243.7795 699.2126,243.7795 699.2126,205.9843 699.2126,205.9843 661.4173,205.9843 661.4173,205.9843 623.622,205.9843 623.622,205.9843 585.8268,205.9843 585.8268,205.9843 585.8268,168.189 585.8268,168.189 623.622,168.189"/>
    <polyline points="611.2869,66.2008 603.1619,66.2008 603.1619,66.2008 603.1619,79.3258 603.1619,79.3258 611.2869,79.3258"/>
    <line x1="603.1619" x2="608.1619" y1="72.4508" y2="72.4508"/>
    <polyline points="649.0822,66.2008 640.9572,66.2008 640.9572,66.2008 640.9572,79.3258"/>
    <line x1="640.9572" x2="645.9572" y1="72.4508" y2="72.4508"/>
    <polyline points="661.4173,92.5984 699.2126,92.5984 699.2126,92.5984 699.2126,54.8031 699.2126,54.8031 661.4173,54.8031"/>
    <polygon points="680.94,66.2008 679.69,66.8258 679.69,66.8258 678.44,68.0758 678.44,68.0758 677.815,69.3258 677.815,69.3258 677.19,71.2008 677.19,71.2008 677.19,74.3258 677.19,74.3258 677.815,76.2008 677.815,76.2008 678.44,77.4508 678.44,77.4508 679.69,78.7008 679.69,78.7008 680.94,79.3258 680.94,79.3258 683.44,79.3258 683.44,79.3258 684.69,78.7008 684.69,78.7008 685.94,77.4508 685.94,77.4508 686.565,76.2008 686.565,76.2008 687.19,74.3258 687.19,74.3258 687.19,71.2008 687.19,71.2008 686.565,69.3258 686.565,69.3258 685.94,68.0758 685.94,68.0758 684.69,66.8258 684.69,66.8258 683.44,66.2008 683.44,66.2008"/>
    <polyline points="737.0079,130.3937 699.2126,130.3937 699.2126,130.3937 699.2126,92.5984 699.2126,92.5984 737.0079,92.5984 737.0079,92.5984 774.8031,92.5984 774.8031,92.5984 774.8031,54.8031 774.8031,54.8031 737.0079,54.8031 737.0079,54.8031 737.0079,92.5984 737.0079,92.5984 737.0079,130.3937 737.0079,130.3937 737.0079,168.189 737.0079,168.189 699.2126,168.189 699.2126,168.189 699.2126,205.9843 699.2126,205.9843 737.0079,205.9843 737.0079,205.9843 737.0079,168.189"/>
    <polygon points="718.7352,66.2008 717.4852,66.8258 717.4852,66.8258 716.2352,68.0758 716.2352,68.0758 715.6102,69.3258 715.6102,69.3258 714.9852,71.2008 714.9852,71.2008 714.9852,74.3258 714.9852,74.3258 715.6102,76.2008 715.6102,76.2008 716.2352,77.4508 716.2352,77.4508 717.4852,78.7008 717.4852,78.7008 718.7352,79.3258 718.7352,79.3258 721.2352,79.3258 721.2352,79.3258 722.4852,78.7008 722.4852,78.7008 723.7352,77.4508 723.7352,77.4508 724.3602,76.2008 724.3602,76.2008 724.9852,74.3258 724.9852,74.3258 724.9852,71.2008 724.9852,71.2008 724.3602,69.3258 724.3602,69.3258 723.7352,68.0758 723.7352,68.0758 722.4852,66.8258 722.4852,66.8258 721.2352,66.2008 721.2352,66.2008"/>
    <polyline points="762.7805,66.2008 762.7805,79.3258 762.7805,79.3258 754.0305,66.2008 754.0305,66.2008 754.0305,79.3258"/>
    <polyline points="22.6624,95.7677 23.2874,95.4552 23.2874,95.4552 24.2249,94.5177 24.2249,94.5177 24.2249,101.0802"/>
    <polygon points="29.8499,94.5177 28.9124,94.8302 28.9124,94.8302 28.2874,95.7677 28.2874,95.7677 27.9749,97.3302 27.9749,97.3302 27.9749,98.2677 27.9749,98.2677 28.2874,99.8302 28.2874,99.8302 28.9124,100.7677 28.9124,100.7677 29.8499,101.0802 29.8499,101.0802 30.4749,101.0802 30.4749,101.0802 31.4124,100.7677 31.4124,100.7677 32.0374,99.8302 32.0374,99.8302 32.3499,98.2677 32.3499,98.2677 32.3499,97.3302 32.3499,97.3302 32.0374,95.7677 32.0374,95.7677 31.4124,94.8302 31.4124,94.8302 30.4749,94.5177 30.4749,94.5177"/>
    <polyline points="35.9203,103.9961 35.9203,113.3711 35.9203,113.3711 36.5453,115.2461 36.5453,115.2461 37.7953,116.4961 37.7953,116.4961 39.6703,117.1211 39.6703,117.1211 40.9203,117.1211 40.9203,117.1211 42.7953,116.4961 42.7953,116.4961 44.0453,115.2461 44.0453,115.2461 44.6703,113.3711 44.6703,113.3711 44.6703,103.9961"/>
    <line x1="78.0906" x2="78.0906" y1="103.9961" y2="117.1211"/>
    <line x1="114.0108" x2="114.0108" y1="103.9961" y2="117.1211"/>
    <line x1="109.6358" x2="118.3858" y1="103.9961" y2="103.9961"/>
    <polyline points="132.2835,205.9843 132.2835,168.189 132.2835,168.189 132.2835,130.3937 132.2835,130.3937 170.0787,130.3937 170.0787,130.3937 170.0787,168.189 170.0787,168.189 170.0787,205.9843 170.0787,205.9843 170.0787,243.7795 170.0787,243.7795 132.2835,243.7795 132.2835,243.7795 132.2835,205.9843 132.2835,205.9843 170.0787,205.9843"/>
    <polyline points="149.9311,103.9961 149.9311,117.1211 149.9311,117.1211 157.4311,117.1211"/>
    <line x1="191.4764" x2="191.4764" y1="103.9961" y2="117.1211"/>
    <line x1="224.8967" x2="224.8967" y1="103.9961" y2="117.1211"/>
    <line x1="233.6467" x2="224.8967" y1="103.9961" y2="112.7461"/>
    <line x1="228.0217" x2="233.6467" y1="109.6211" y2="117.1211"/>
    <line x1="283.4646" x2="283.4646" y1="130.3937" y2="92.5984"/>
    <line x1="262.6919" x2="262.6919" y1="103.9961" y2="117.1211"/>
    <line x1="271.4419" x2="262.6919" y1="103.9961" y2="112.7461"/>
    <line x1="265.8169" x2="271.4419" y1="109.6211" y2="117.1211"/>
    <polyline points="308.9247,103.9961 300.7997,103.9961 300.7997,103.9961 300.7997,117.1211 300.7997,117.1211 308.9247,117.1211"/>
    <line x1="300.7997" x2="305.7997" y1="110.2461" y2="110.2461"/>
    <polyline points="347.0325,103.9961 347.0325,117.1211 347.0325,117.1211 338.2825,103.9961 338.2825,103.9961 338.2825,117.1211"/>
    <polyline points="421.373,117.1211 416.373,103.9961 416.373,103.9961 411.373,117.1211"/>
    <line x1="413.248" x2="419.498" y1="112.7461" y2="112.7461"/>
    <line x1="527.2589" x2="527.2589" y1="103.9961" y2="117.1211"/>
    <line x1="536.0089" x2="527.2589" y1="103.9961" y2="112.7461"/>
    <line x1="530.3839" x2="536.0089" y1="109.6211" y2="117.1211"/>
    <polyline points="602.8494,110.2461 608.4744,110.2461 608.4744,110.2461 610.3494,109.6211 610.3494,109.6211 610.9744,108.9961 610.9744,108.9961 611.5994,107.7461 611.5994,107.7461 611.5994,106.4961 611.5994,106.4961 610.9744,105.2461 610.9744,105.2461 610.3494,104.6211 610.3494,104.6211 608.4744,103.9961 608.4744,103.9961 602.8494,103.9961 602.8494,103.9961 602.8494,117.1211"/>
    <line x1="607.2244" x2="611.5994" y1="110.2461" y2="117.1211"/>
    <polyline points="716.2352,110.2461 721.8602,110.2461 721.8602,110.2461 723.7352,109.6211 723.7352,109.6211 724.3602,108.9961 724.3602,108.9961 724.9852,107.7461 724.9852,107.7461 724.9852,106.4961 724.9852,106.4961 724.3602,105.2461 724.3602,105.2461 723.7352,104.6211 723.7352,104.6211 721.8602,103.9961 721.8602,103.9961 716.2352,103.9961 716.2352,103.9961 716.2352,117.1211"/>
    <line x1="720.6102" x2="724.9852" y1="110.2461" y2="117.1211"/>
    <line x1="56.6929" x2="94.4882" y1="168.189" y2="168.189"/>
    <polyline points="79.9656,141.7913 79.9656,151.7913 79.9656,151.7913 79.3406,153.6663 79.3406,153.6663 78.7156,154.2913 78.7156,154.2913 77.4656,154.9163 77.4656,154.9163 76.2156,154.9163 76.2156,154.9163 74.9656,154.2913 74.9656,154.2913 74.3406,153.6663 74.3406,153.6663 73.7156,151.7913 73.7156,151.7913 73.7156,150.5413"/>
    <line x1="132.2835" x2="170.0787" y1="168.189" y2="168.189"/>
    <polyline points="149.9311,141.7913 149.9311,154.9163 149.9311,154.9163 157.4311,154.9163"/>
    <line x1="207.874" x2="245.6693" y1="168.189" y2="168.189"/>
    <polyline points="233.3342,141.7913 225.2092,141.7913 225.2092,141.7913 225.2092,154.9163 225.2092,154.9163 233.3342,154.9163"/>
    <line x1="225.2092" x2="230.2092" y1="148.0413" y2="148.0413"/>
    <polygon points="338.2825,141.7913 338.2825,154.9163 338.2825,154.9163 342.6575,154.9163 342.6575,154.9163 344.5325,154.2913 344.5325,154.2913 345.7825,153.0413 345.7825,153.0413 346.4075,151.7913 346.4075,151.7913 347.0325,149.9163 347.0325,149.9163 347.0325,146.7913 347.0325,146.7913 346.4075,144.9163 346.4075,144.9163 345.7825,143.6663 345.7825,143.6663 344.5325,142.4163 344.5325,142.4163 342.6575,141.7913 342.6575,141.7913"/>
    <polyline points="396.8504,130.3937 396.8504,168.189 396.8504,168.189 359.0551,168.189 359.0551,168.189 359.0551,205.9843 359.0551,205.9843 396.8504,205.9843 396.8504,205.9843 396.8504,243.7795 396.8504,243.7795 434.6457,243.7795 434.6457,243.7795 434.6457,205.9843 434.6457,205.9843 434.6457,168.189 434.6457,168.189 396.8504,168.189 396.8504,168.189 396.8504,205.9843 396.8504,205.9843 434.6457,205.9843 434.6457,205.9843 472.4409,205.9843 472.4409,205.9843 510.2362,205.9843 510.2362,205.9843 548.0315,205.9843 548.0315,205.9843 548.0315,168.189 548.0315,168.189 548.0315,130.3937"/>
    <polyline points="411.373,141.7913 416.373,154.9163 416.373,154.9163 421.373,141.7913"/>
    <polyline points="548.0315,281.5748 548.0315,319.3701 548.0315,319.3701 510.2362,319.3701 510.2362,319.3701 510.2362,281.5748 510.2362,281.5748 548.0315,281.5748 548.0315,281.5748 548.0315,243.7795 548.0315,243.7795 548.0315,205.9843 548.0315,205.9843 585.8268,205.9843 585.8268,205.9843 585.8268,243.7795 585.8268,243.7795 548.0315,243.7795 548.0315,243.7795 510.2362,243.7795 510.2362,243.7795 510.2362,205.9843 510.2362,205.9843 510.2362,168.189 510.2362,168.189 548.0315,168.189"/>
    <line x1="527.2589" x2="527.2589" y1="141.7913" y2="154.9163"/>
    <line x1="536.0089" x2="527.2589" y1="141.7913" y2="150.5413"/>
    <line x1="530.3839" x2="536.0089" y1="147.4163" y2="154.9163"/>
    <line x1="585.8268" x2="585.8268" y1="130.3937" y2="168.189"/>
    <polyline points="602.8494,148.0413 608.4744,148.0413 608.4744,148.0413 610.3494,147.4163 610.3494,147.4163 610.9744,146.7913 610.9744,146.7913 611.5994,145.5413 611.5994,145.5413 611.5994,144.2913 611.5994,144.2913 610.9744,143.0413 610.9744,143.0413 610.3494,142.4163 610.3494,142.4163 608.4744,141.7913 608.4744,141.7913 602.8494,141.7913 602.8494,141.7913 602.8494,154.9163"/>
    <line x1="607.2244" x2="611.5994" y1="148.0413" y2="154.9163"/>
    <line x1="699.2126" x2="699.2126" y1="130.3937" y2="168.189"/>
    <line x1="718.7352" x2="718.7352" y1="141.7913" y2="154.9163"/>
    <line x1="714.3602" x2="723.1102" y1="141.7913" y2="141.7913"/>
    <polygon points="73.7156,179.5866 73.7156,192.7116 73.7156,192.7116 78.0906,192.7116 78.0906,192.7116 79.9656,192.0866 79.9656,192.0866 81.2156,190.8366 81.2156,190.8366 81.8406,189.5866 81.8406,189.5866 82.4656,187.7116 82.4656,187.7116 82.4656,184.5866 82.4656,184.5866 81.8406,182.7116 81.8406,182.7116 81.2156,181.4616 81.2156,181.4616 79.9656,180.2116 79.9656,180.2116 78.0906,179.5866 78.0906,179.5866"/>
    <polyline points="157.7436,179.5866 149.6186,179.5866 149.6186,179.5866 149.6186,192.7116 149.6186,192.7116 157.7436,192.7116"/>
    <line x1="149.6186" x2="154.6186" y1="185.8366" y2="185.8366"/>
    <line x1="207.874" x2="245.6693" y1="205.9843" y2="205.9843"/>
    <polyline points="225.5217,179.5866 225.5217,192.7116 225.5217,192.7116 233.0217,192.7116"/>
    <polyline points="287.2293,171.3583 287.8543,171.0458 287.8543,171.0458 288.7918,170.1083 288.7918,170.1083 288.7918,176.6708"/>
    <polyline points="293.4793,171.3583 294.1043,171.0458 294.1043,171.0458 295.0418,170.1083 295.0418,170.1083 295.0418,176.6708"/>
    <polyline points="297.9872,179.5866 302.9872,192.7116 302.9872,192.7116 307.9872,179.5866"/>
    <polygon points="321.2598,205.9843 359.0551,205.9843 359.0551,205.9843 359.0551,243.7795 359.0551,243.7795 321.2598,243.7795 321.2598,243.7795"/>
    <polyline points="345.7825,192.7116 340.7825,179.5866 340.7825,179.5866 335.7825,192.7116"/>
    <line x1="337.6575" x2="343.9075" y1="188.3366" y2="188.3366"/>
    <polyline points="376.7028,179.5866 376.7028,192.7116 376.7028,192.7116 384.2028,192.7116"/>
    <polyline points="422.3105,179.5866 414.1855,179.5866 414.1855,179.5866 414.1855,192.7116 414.1855,192.7116 422.3105,192.7116"/>
    <line x1="414.1855" x2="419.1855" y1="185.8366" y2="185.8366"/>
    <line x1="472.4409" x2="472.4409" y1="205.9843" y2="168.189"/>
    <polyline points="451.6683,185.8366 457.2933,185.8366 457.2933,185.8366 459.1683,185.2116 459.1683,185.2116 459.7933,184.5866 459.7933,184.5866 460.4183,183.3366 460.4183,183.3366 460.4183,182.0866 460.4183,182.0866 459.7933,180.8366 459.7933,180.8366 459.1683,180.2116 459.1683,180.2116 457.2933,179.5866 457.2933,179.5866 451.6683,179.5866 451.6683,179.5866 451.6683,192.7116"/>
    <line x1="456.0433" x2="460.4183" y1="185.8366" y2="192.7116"/>
    <line x1="493.8386" x2="493.8386" y1="179.5866" y2="192.7116"/>
    <polyline points="535.6964,179.5866 527.5714,179.5866 527.5714,179.5866 527.5714,192.7116 527.5714,192.7116 535.6964,192.7116"/>
    <line x1="527.5714" x2="532.5714" y1="185.8366" y2="185.8366"/>
    <polyline points="610.3494,192.7116 605.3494,179.5866 605.3494,179.5866 600.3494,192.7116"/>
    <line x1="602.2244" x2="608.4744" y1="188.3366" y2="188.3366"/>
    <polyline points="722.4852,179.5866 722.4852,189.5866 722.4852,189.5866 721.8602,191.4616 721.8602,191.4616 721.2352,192.0866 721.2352,192.0866 719.9852,192.7116 719.9852,192.7116 718.7352,192.7116 718.7352,192.7116 717.4852,192.0866 717.4852,192.0866 716.8602,191.4616 716.8602,191.4616 716.2352,189.5866 716.2352,189.5866 716.2352,188.3366"/>
    <polyline points="56.6929,205.9843 56.6929,243.7795 56.6929,243.7795 94.4882,243.7795 94.4882,243.7795 94.4882,205.9843"/>
    <polyline points="81.2156,230.5069 76.2156,217.3819 76.2156,217.3819 71.2156,230.5069"/>
    <line x1="73.0906" x2="79.3406" y1="226.1319" y2="226.1319"/>
    <line x1="149.3061" x2="149.3061" y1="217.3819" y2="230.5069"/>
    <line x1="158.0561" x2="149.3061" y1="217.3819" y2="226.1319"/>
    <line x1="152.4311" x2="158.0561" y1="223.0069" y2="230.5069"/>
    <polyline points="225.5217,217.3819 225.5217,230.5069 225.5217,230.5069 233.0217,230.5069"/>
    <polyline points="338.2825,223.6319 343.9075,223.6319 343.9075,223.6319 345.7825,223.0069 345.7825,223.0069 346.4075,222.3819 346.4075,222.3819 347.0325,221.1319 347.0325,221.1319 347.0325,219.8819 347.0325,219.8819 346.4075,218.6319 346.4075,218.6319 345.7825,218.0069 345.7825,218.0069 343.9075,217.3819 343.9075,217.3819 338.2825,217.3819 338.2825,217.3819 338.2825,230.5069"/>
    <line x1="342.6575" x2="347.0325" y1="223.6319" y2="230.5069"/>
    <polyline points="413.873,223.6319 419.498,223.6319 419.498,223.6319 421.373,223.0069 421.373,223.0069 421.998,222.3819 421.998,222.3819 422.623,221.1319 422.623,221.1319 422.623,219.8819 422.623,219.8819 421.998,218.6319 421.998,218.6319 421.373,218.0069 421.373,218.0069 419.498,217.3819 419.498,217.3819 413.873,217.3819 413.873,217.3819 413.873,230.5069"/>
    <line x1="418.248" x2="422.623" y1="223.6319" y2="230.5069"/>
    <polyline points="514.001,209.1535 514.626,208.841 514.626,208.841 515.5635,207.9035 515.5635,207.9035 515.5635,214.466"/>
    <polyline points="519.626,209.466 519.626,209.1535 519.626,209.1535 519.9385,208.5285 519.9385,208.5285 520.251,208.216 520.251,208.216 520.876,207.9035 520.876,207.9035 522.126,207.9035 522.126,207.9035 522.751,208.216 522.751,208.216 523.0635,208.5285 523.0635,208.5285 523.376,209.1535 523.376,209.1535 523.376,209.7785 523.376,209.7785 523.0635,210.4035 523.0635,210.4035 522.4385,211.341 522.4385,211.341 519.3135,214.466 519.3135,214.466 523.6885,214.466"/>
    <polyline points="527.2589,223.6319 532.8839,223.6319 532.8839,223.6319 534.7589,223.0069 534.7589,223.0069 535.3839,222.3819 535.3839,222.3819 536.0089,221.1319 536.0089,221.1319 536.0089,219.8819 536.0089,219.8819 535.3839,218.6319 535.3839,218.6319 534.7589,218.0069 534.7589,218.0069 532.8839,217.3819 532.8839,217.3819 527.2589,217.3819 527.2589,217.3819 527.2589,230.5069"/>
    <line x1="531.6339" x2="536.0089" y1="223.6319" y2="230.5069"/>
    <polyline points="573.4916,217.3819 565.3666,217.3819 565.3666,217.3819 565.3666,230.5069 565.3666,230.5069 573.4916,230.5069"/>
    <line x1="565.3666" x2="570.3666" y1="223.6319" y2="223.6319"/>
    <line x1="585.8268" x2="623.622" y1="243.7795" y2="243.7795"/>
    <polyline points="610.9744,219.2569 609.7244,218.0069 609.7244,218.0069 607.8494,217.3819 607.8494,217.3819 605.3494,217.3819 605.3494,217.3819 603.4744,218.0069 603.4744,218.0069 602.2244,219.2569 602.2244,219.2569 602.2244,220.5069 602.2244,220.5069 602.8494,221.7569 602.8494,221.7569 603.4744,222.3819 603.4744,222.3819 604.7244,223.0069 604.7244,223.0069 608.4744,224.2569 608.4744,224.2569 609.7244,224.8819 609.7244,224.8819 610.3494,225.5069 610.3494,225.5069 610.9744,226.7569 610.9744,226.7569 610.9744,228.6319 610.9744,228.6319 609.7244,229.8819 609.7244,229.8819 607.8494,230.5069 607.8494,230.5069 605.3494,230.5069 605.3494,230.5069 603.4744,229.8819 603.4744,229.8819 602.2244,228.6319"/>
    <line x1="661.4173" x2="661.4173" y1="243.7795" y2="205.9843"/>
    <line x1="643.1447" x2="643.1447" y1="217.3819" y2="230.5069"/>
    <line x1="638.7697" x2="647.5197" y1="217.3819" y2="217.3819"/>
    <polyline points="684.69,217.3819 684.69,227.3819 684.69,227.3819 684.065,229.2569 684.065,229.2569 683.44,229.8819 683.44,229.8819 682.19,230.5069 682.19,230.5069 680.94,230.5069 680.94,230.5069 679.69,229.8819 679.69,229.8819 679.065,229.2569 679.065,229.2569 678.44,227.3819 678.44,227.3819 678.44,226.1319"/>
    <polyline points="699.2126,243.7795 737.0079,243.7795 737.0079,243.7795 774.8031,243.7795 774.8031,243.7795 774.8031,205.9843 774.8031,205.9843 737.0079,205.9843 737.0079,205.9843 737.0079,243.7795 737.0079,243.7795 737.0079,281.5748 737.0079,281.5748 699.2126,281.5748 699.2126,281.5748 699.2126,243.7795"/>
    <polyline points="724.6727,217.3819 716.5477,217.3819 716.5477,217.3819 716.5477,230.5069 716.5477,230.5069 724.6727,230.5069"/>
    <line x1="716.5477" x2="721.5477" y1="223.6319" y2="223.6319"/>
    <polyline points="762.1555,219.2569 760.9055,218.0069 760.9055,218.0069 759.0305,217.3819 759.0305,217.3819 756.5305,217.3819 756.5305,217.3819 754.6555,218.0069 754.6555,218.0069 753.4055,219.2569 753.4055,219.2569 753.4055,220.5069 753.4055,220.5069 754.0305,221.7569 754.0305,221.7569 754.6555,222.3819 754.6555,222.3819 755.9055,223.0069 755.9055,223.0069 759.6555,224.2569 759.6555,224.2569 760.9055,224.8819 760.9055,224.8819 761.5305,225.5069 761.5305,225.5069 762.1555,226.7569 762.1555,226.7569 762.1555,228.6319 762.1555,228.6319 760.9055,229.8819 760.9055,229.8819 759.0305,230.5069 759.0305,230.5069 756.5305,230.5069 756.5305,230.5069 754.6555,229.8819 754.6555,229.8819 753.4055,228.6319"/>
    <polyline points="56.6929,243.7795 56.6929,281.5748 56.6929,281.5748 94.4882,281.5748 94.4882,281.5748 94.4882,319.3701 94.4882,319.3701 132.2835,319.3701 132.2835,319.3701 132.2835,281.5748 132.2835,281.5748 94.4882,281.5748 94.4882,281.5748 94.4882,243.7795"/>
    <polyline points="82.1531,258.3022 81.5281,257.0522 81.5281,257.0522 80.2781,255.8022 80.2781,255.8022 79.0281,255.1772 79.0281,255.1772 76.5281,255.1772 76.5281,255.1772 75.2781,255.8022 75.2781,255.8022 74.0281,257.0522 74.0281,257.0522 73.4031,258.3022 73.4031,258.3022 72.7781,260.1772 72.7781,260.1772 72.7781,263.3022 72.7781,263.3022 73.4031,265.1772 73.4031,265.1772 74.0281,266.4272 74.0281,266.4272 75.2781,267.6772 75.2781,267.6772 76.5281,268.3022 76.5281,268.3022 79.0281,268.3022 79.0281,268.3022 80.2781,267.6772 80.2781,267.6772 81.5281,266.4272 81.5281,266.4272 82.1531,265.1772 82.1531,265.1772 82.1531,263.3022 82.1531,263.3022 79.0281,263.3022"/>
    <polyline points="132.2835,243.7795 132.2835,281.5748 132.2835,281.5748 170.0787,281.5748 170.0787,281.5748 170.0787,243.7795"/>
    <polyline points="157.7436,255.1772 149.6186,255.1772 149.6186,255.1772 149.6186,268.3022 149.6186,268.3022 157.7436,268.3022"/>
    <line x1="149.6186" x2="154.6186" y1="261.4272" y2="261.4272"/>
    <polyline points="207.874,243.7795 207.874,281.5748 207.874,281.5748 207.874,319.3701 207.874,319.3701 170.0787,319.3701 170.0787,319.3701 132.2835,319.3701 132.2835,319.3701 132.2835,357.1654 132.2835,357.1654 170.0787,357.1654 170.0787,357.1654 170.0787,319.3701"/>
    <polyline points="207.874,281.5748 245.6693,281.5748 245.6693,281.5748 245.6693,243.7795"/>
    <polyline points="233.3342,255.1772 225.2092,255.1772 225.2092,255.1772 225.2092,268.3022 225.2092,268.3022 233.3342,268.3022"/>
    <line x1="225.2092" x2="230.2092" y1="261.4272" y2="261.4272"/>
    <polyline points="359.0551,319.3701 321.2598,319.3701 321.2598,319.3701 321.2598,281.5748 321.2598,281.5748 321.2598,243.7795 321.2598,243.7795 283.4646,243.7795 283.4646,243.7795 283.4646,281.5748 283.4646,281.5748 321.2598,281.5748 321.2598,281.5748 359.0551,281.5748 359.0551,281.5748 396.8504,281.5748 396.8504,281.5748 396.8504,243.7795 396.8504,243.7795 359.0551,243.7795 359.0551,243.7795 359.0551,281.5748 359.0551,281.5748 359.0551,319.3701 359.0551,319.3701 359.0551,357.1654 359.0551,357.1654 321.2598,357.1654 321.2598,357.1654 321.2598,319.3701 321.2598,319.3701 283.4646,319.3701 283.4646,319.3701 245.6693,319.3701 245.6693,319.3701 245.6693,281.5748"/>
    <polyline points="287.2293,246.9488 287.8543,246.6363 287.8543,246.6363 288.7918,245.6988 288.7918,245.6988 288.7918,252.2613"/>
    <polyline points="293.1668,245.6988 296.6043,245.6988 296.6043,245.6988 294.7293,248.1988 294.7293,248.1988 295.6668,248.1988 295.6668,248.1988 296.2918,248.5113 296.2918,248.5113 296.6043,248.8238 296.6043,248.8238 296.9168,249.7613 296.9168,249.7613 296.9168,250.3863 296.9168,250.3863 296.6043,251.3238 296.6043,251.3238 295.9793,251.9488 295.9793,251.9488 295.0418,252.2613 295.0418,252.2613 294.1043,252.2613 294.1043,252.2613 293.1668,251.9488 293.1668,251.9488 292.8543,251.6363 292.8543,251.6363 292.5418,251.0113"/>
    <polyline points="301.1122,255.1772 301.1122,268.3022 301.1122,268.3022 308.6122,268.3022"/>
    <line x1="342.6575" x2="342.6575" y1="255.1772" y2="268.3022"/>
    <polyline points="384.5153,255.1772 376.3903,255.1772 376.3903,255.1772 376.3903,268.3022"/>
    <line x1="376.3903" x2="381.3903" y1="261.4272" y2="261.4272"/>
    <polyline points="434.6457,281.5748 434.6457,319.3701 434.6457,319.3701 434.6457,357.1654 434.6457,357.1654 396.8504,357.1654 396.8504,357.1654 396.8504,319.3701 396.8504,319.3701 396.8504,281.5748 396.8504,281.5748 434.6457,281.5748 434.6457,281.5748 434.6457,243.7795"/>
    <line x1="416.373" x2="416.373" y1="255.1772" y2="268.3022"/>
    <line x1="411.998" x2="420.748" y1="255.1772" y2="255.1772"/>
    <line x1="510.2362" x2="510.2362" y1="243.7795" y2="281.5748"/>
    <line x1="529.7589" x2="529.7589" y1="255.1772" y2="268.3022"/>
    <line x1="525.3839" x2="534.1339" y1="255.1772" y2="255.1772"/>
    <polyline points="724.3602,257.0522 723.1102,255.8022 723.1102,255.8022 721.2352,255.1772 721.2352,255.1772 718.7352,255.1772 718.7352,255.1772 716.8602,255.8022 716.8602,255.8022 715.6102,257.0522 715.6102,257.0522 715.6102,258.3022 715.6102,258.3022 716.2352,259.5522 716.2352,259.5522 716.8602,260.1772 716.8602,260.1772 718.1102,260.8022 718.1102,260.8022 721.8602,262.0522 721.8602,262.0522 723.1102,262.6772 723.1102,262.6772 723.7352,263.3022 723.7352,263.3022 724.3602,264.5522 724.3602,264.5522 724.3602,266.4272 724.3602,266.4272 723.1102,267.6772 723.1102,267.6772 721.2352,268.3022 721.2352,268.3022 718.7352,268.3022 718.7352,268.3022 716.8602,267.6772 716.8602,267.6772 715.6102,266.4272"/>
    <polyline points="98.253,284.7441 98.878,284.4316 98.878,284.4316 99.8155,283.4941 99.8155,283.4941 99.8155,290.0566"/>
    <polyline points="106.6905,290.0566 106.6905,283.4941 106.6905,283.4941 103.5655,287.8691 103.5655,287.8691 108.253,287.8691"/>
    <polyline points="117.7608,292.9724 117.7608,302.9724 117.7608,302.9724 117.1358,304.8474 117.1358,304.8474 116.5108,305.4724 116.5108,305.4724 115.2608,306.0974 115.2608,306.0974 114.0108,306.0974 114.0108,306.0974 112.7608,305.4724 112.7608,305.4724 112.1358,304.8474 112.1358,304.8474 111.5108,302.9724 111.5108,302.9724 111.5108,301.7224"/>
    <polygon points="207.874,319.3701 245.6693,319.3701 245.6693,319.3701 245.6693,357.1654 245.6693,357.1654 207.874,357.1654 207.874,357.1654"/>
    <line x1="224.8967" x2="224.8967" y1="292.9724" y2="306.0974"/>
    <line x1="233.6467" x2="224.8967" y1="292.9724" y2="301.7224"/>
    <line x1="228.0217" x2="233.6467" y1="298.5974" y2="306.0974"/>
    <polyline points="344.5325,292.9724 344.5325,302.9724 344.5325,302.9724 343.9075,304.8474 343.9075,304.8474 343.2825,305.4724 343.2825,305.4724 342.0325,306.0974 342.0325,306.0974 340.7825,306.0974 340.7825,306.0974 339.5325,305.4724 339.5325,305.4724 338.9075,304.8474 338.9075,304.8474 338.2825,302.9724 338.2825,302.9724 338.2825,301.7224"/>
    <line x1="396.8504" x2="434.6457" y1="319.3701" y2="319.3701"/>
    <polyline points="420.123,292.9724 420.123,302.9724 420.123,302.9724 419.498,304.8474 419.498,304.8474 418.873,305.4724 418.873,305.4724 417.623,306.0974 417.623,306.0974 416.373,306.0974 416.373,306.0974 415.123,305.4724 415.123,305.4724 414.498,304.8474 414.498,304.8474 413.873,302.9724 413.873,302.9724 413.873,301.7224"/>
    <polyline points="533.5089,292.9724 533.5089,302.9724 533.5089,302.9724 532.8839,304.8474 532.8839,304.8474 532.2589,305.4724 532.2589,305.4724 531.0089,306.0974 531.0089,306.0974 529.7589,306.0974 529.7589,306.0974 528.5089,305.4724 528.5089,305.4724 527.8839,304.8474 527.8839,304.8474 527.2589,302.9724 527.2589,302.9724 527.2589,301.7224"/>
    <polygon points="56.6929,319.3701 56.6929,357.1654 56.6929,357.1654 94.4882,357.1654 94.4882,357.1654 94.4882,319.3701 94.4882,319.3701"/>
    <polyline points="60.4577,322.5394 61.0827,322.2269 61.0827,322.2269 62.0202,321.2894 62.0202,321.2894 62.0202,327.8519"/>
    <polyline points="69.5202,321.2894 66.3952,321.2894 66.3952,321.2894 66.0827,324.1019 66.0827,324.1019 66.3952,323.7894 66.3952,323.7894 67.3327,323.4769 67.3327,323.4769 68.2702,323.4769 68.2702,323.4769 69.2077,323.7894 69.2077,323.7894 69.8327,324.4144 69.8327,324.4144 70.1452,325.3519 70.1452,325.3519 70.1452,325.9769 70.1452,325.9769 69.8327,326.9144 69.8327,326.9144 69.2077,327.5394 69.2077,327.5394 68.2702,327.8519 68.2702,327.8519 67.3327,327.8519 67.3327,327.8519 66.3952,327.5394 66.3952,327.5394 66.0827,327.2269 66.0827,327.2269 65.7702,326.6019"/>
    <polyline points="73.7156,337.6427 79.3406,337.6427 79.3406,337.6427 81.2156,337.0177 81.2156,337.0177 81.8406,336.3927 81.8406,336.3927 82.4656,335.1427 82.4656,335.1427 82.4656,333.2677 82.4656,333.2677 81.8406,332.0177 81.8406,332.0177 81.2156,331.3927 81.2156,331.3927 79.3406,330.7677 79.3406,330.7677 73.7156,330.7677 73.7156,330.7677 73.7156,343.8927"/>
    <line x1="94.4882" x2="132.2835" y1="357.1654" y2="357.1654"/>
    <polyline points="119.0108,343.8927 114.0108,330.7677 114.0108,330.7677 109.0108,343.8927"/>
    <line x1="110.8858" x2="117.1358" y1="339.5177" y2="339.5177"/>
    <polyline points="149.3061,337.0177 154.9311,337.0177 154.9311,337.0177 156.8061,336.3927 156.8061,336.3927 157.4311,335.7677 157.4311,335.7677 158.0561,334.5177 158.0561,334.5177 158.0561,333.2677 158.0561,333.2677 157.4311,332.0177 157.4311,332.0177 156.8061,331.3927 156.8061,331.3927 154.9311,330.7677 154.9311,330.7677 149.3061,330.7677 149.3061,330.7677 149.3061,343.8927"/>
    <line x1="153.6811" x2="158.0561" y1="337.0177" y2="343.8927"/>
    <line x1="170.0787" x2="207.874" y1="357.1654" y2="357.1654"/>
    <line x1="187.1014" x2="187.1014" y1="330.7677" y2="343.8927"/>
    <line x1="195.8514" x2="187.1014" y1="330.7677" y2="339.5177"/>
    <line x1="190.2264" x2="195.8514" y1="336.3927" y2="343.8927"/>
    <polyline points="233.3342,330.7677 225.2092,330.7677 225.2092,330.7677 225.2092,343.8927 225.2092,343.8927 233.3342,343.8927"/>
    <line x1="225.2092" x2="230.2092" y1="337.0177" y2="337.0177"/>
    <polyline points="245.6693,357.1654 283.4646,357.1654 283.4646,357.1654 283.4646,319.3701"/>
    <polyline points="262.6919,337.0177 268.3169,337.0177 268.3169,337.0177 270.1919,336.3927 270.1919,336.3927 270.8169,335.7677 270.8169,335.7677 271.4419,334.5177 271.4419,334.5177 271.4419,333.2677 271.4419,333.2677 270.8169,332.0177 270.8169,332.0177 270.1919,331.3927 270.1919,331.3927 268.3169,330.7677 268.3169,330.7677 262.6919,330.7677 262.6919,330.7677 262.6919,343.8927"/>
    <line x1="267.0669" x2="271.4419" y1="337.0177" y2="343.8927"/>
    <line x1="283.4646" x2="321.2598" y1="357.1654" y2="357.1654"/>
    <polyline points="308.9247,330.7677 300.7997,330.7677 300.7997,330.7677 300.7997,343.8927 300.7997,343.8927 308.9247,343.8927"/>
    <line x1="300.7997" x2="305.7997" y1="337.0177" y2="337.0177"/>
    <polyline points="347.0325,330.7677 347.0325,343.8927 347.0325,343.8927 338.2825,330.7677 338.2825,330.7677 338.2825,343.8927"/>
    <polyline points="422.3105,330.7677 414.1855,330.7677 414.1855,330.7677 414.1855,343.8927 414.1855,343.8927 422.3105,343.8927"/>
    <line x1="414.1855" x2="419.1855" y1="337.0177" y2="337.0177"/>
    <polygon points="472.4409,319.3701 472.4409,357.1654 472.4409,357.1654 510.2362,357.1654 510.2362,357.1654 510.2362,319.3701 510.2362,319.3701"/>
    <polyline points="476.2057,322.5394 476.8307,322.2269 476.8307,322.2269 477.7682,321.2894 477.7682,321.2894 477.7682,327.8519"/>
    <polyline points="485.5807,322.2269 485.2682,321.6019 485.2682,321.6019 484.3307,321.2894 484.3307,321.2894 483.7057,321.2894 483.7057,321.2894 482.7682,321.6019 482.7682,321.6019 482.1432,322.5394 482.1432,322.5394 481.8307,324.1019 481.8307,324.1019 481.8307,325.6644 481.8307,325.6644 482.1432,326.9144 482.1432,326.9144 482.7682,327.5394 482.7682,327.5394 483.7057,327.8519 483.7057,327.8519 484.0182,327.8519 484.0182,327.8519 484.9557,327.5394 484.9557,327.5394 485.5807,326.9144 485.5807,326.9144 485.8932,325.9769 485.8932,325.9769 485.8932,325.6644 485.8932,325.6644 485.5807,324.7269 485.5807,324.7269 484.9557,324.1019 484.9557,324.1019 484.0182,323.7894 484.0182,323.7894 483.7057,323.7894 483.7057,323.7894 482.7682,324.1019 482.7682,324.1019 482.1432,324.7269 482.1432,324.7269 481.8307,325.6644"/>
    <polyline points="489.4636,337.0177 495.0886,337.0177 495.0886,337.0177 496.9636,336.3927 496.9636,336.3927 497.5886,335.7677 497.5886,335.7677 498.2136,334.5177 498.2136,334.5177 498.2136,333.2677 498.2136,333.2677 497.5886,332.0177 497.5886,332.0177 496.9636,331.3927 496.9636,331.3927 495.0886,330.7677 495.0886,330.7677 489.4636,330.7677 489.4636,330.7677 489.4636,343.8927"/>
    <line x1="493.8386" x2="498.2136" y1="337.0177" y2="343.8927"/>
    <polyline points="510.2362,357.1654 548.0315,357.1654 548.0315,357.1654 585.8268,357.1654 585.8268,357.1654 585.8268,319.3701 585.8268,319.3701 548.0315,319.3701 548.0315,319.3701 548.0315,357.1654"/>
    <polyline points="535.6964,330.7677 527.5714,330.7677 527.5714,330.7677 527.5714,343.8927 527.5714,343.8927 535.6964,343.8927"/>
    <line x1="527.5714" x2="532.5714" y1="337.0177" y2="337.0177"/>
    <polyline points="573.4916,333.8927 572.8666,332.6427 572.8666,332.6427 571.6166,331.3927 571.6166,331.3927 570.3666,330.7677 570.3666,330.7677 567.8666,330.7677 567.8666,330.7677 566.6166,331.3927 566.6166,331.3927 565.3666,332.6427 565.3666,332.6427 564.7416,333.8927 564.7416,333.8927 564.1166,335.7677 564.1166,335.7677 564.1166,338.8927 564.1166,338.8927 564.7416,340.7677 564.7416,340.7677 565.3666,342.0177 565.3666,342.0177 566.6166,343.2677 566.6166,343.2677 567.8666,343.8927 567.8666,343.8927 570.3666,343.8927 570.3666,343.8927 571.6166,343.2677 571.6166,343.2677 572.8666,342.0177 572.8666,342.0177 573.4916,340.7677 573.4916,340.7677 573.4916,338.8927 573.4916,338.8927 570.3666,338.8927"/>
    <polyline points="585.8268,357.1654 623.622,357.1654 623.622,357.1654 623.622,319.3701 623.622,319.3701 585.8268,319.3701"/>
    <polyline points="611.2869,330.7677 603.1619,330.7677 603.1619,330.7677 603.1619,343.8927 603.1619,343.8927 611.2869,343.8927"/>
    <line x1="603.1619" x2="608.1619" y1="337.0177" y2="337.0177"/>
    <polyline points="623.622,357.1654 661.4173,357.1654 661.4173,357.1654 661.4173,319.3701 661.4173,319.3701 623.622,319.3701"/>
    <polyline points="649.3947,330.7677 649.3947,343.8927 649.3947,343.8927 640.6447,330.7677 640.6447,330.7677 640.6447,343.8927"/>
    <polyline points="661.4173,357.1654 699.2126,357.1654 699.2126,357.1654 699.2126,319.3701 699.2126,319.3701 661.4173,319.3701"/>
    <polygon points="678.44,330.7677 678.44,343.8927 678.44,343.8927 684.065,343.8927 684.065,343.8927 685.94,343.2677 685.94,343.2677 686.565,342.6427 686.565,342.6427 687.19,341.3927 687.19,341.3927 687.19,339.5177 687.19,339.5177 686.565,338.2677 686.565,338.2677 685.94,337.6427 685.94,337.6427 684.065,337.0177 684.065,337.0177 685.94,336.3927 685.94,336.3927 686.565,335.7677 686.565,335.7677 687.19,334.5177 687.19,334.5177 687.19,333.2677 687.19,333.2677 686.565,332.0177 686.565,332.0177 685.94,331.3927 685.94,331.3927 684.065,330.7677 684.065,330.7677"/>
    <line x1="678.44" x2="684.065" y1="337.0177" y2="337.0177"/>
    <polyline points="699.2126,357.1654 737.0079,357.1654 737.0079,357.1654 737.0079,319.3701 737.0079,319.3701 699.2126,319.3701"/>
    <polyline points="716.2352,330.7677 716.2352,340.1427 716.2352,340.1427 716.8602,342.0177 716.8602,342.0177 718.1102,343.2677 718.1102,343.2677 719.9852,343.8927 719.9852,343.8927 721.2352,343.8927 721.2352,343.8927 723.1102,343.2677 723.1102,343.2677 724.3602,342.0177 724.3602,342.0177 724.9852,340.1427 724.9852,340.1427 724.9852,330.7677"/>
    <polyline points="737.0079,357.1654 774.8031,357.1654 774.8031,357.1654 774.8031,319.3701 774.8031,319.3701 737.0079,319.3701"/>
    <line x1="758.4055" x2="758.4055" y1="330.7677" y2="343.8927"/>
  </g>
</svg>
