<?xml version="1.0" encoding="utf-8" ?>
<svg xmlns="http://www.w3.org/2000/svg" xmlns:cc="http://creativecommons.org/ns" xmlns:dc="http://purl.org/dc/elements/1.1/" xmlns:ev="http://www.w3.org/2001/xml-events" xmlns:inkscape="http://www.inkscape.org/namespaces/inkscape" xmlns:rdf="http://www.w3.org/1999/02/22-rdf-syntax-ns" xmlns:sodipodi="http://sodipodi.sourceforge.net/DTD/sodipodi-0.dtd" xmlns:xlink="http://www.w3.org/1999/xlink" baseProfile="tiny" height="9.9cm" version="1.2" viewBox="0 0 793.7007874015749 374.1732283464567" width="21.0cm">
  <metadata>
    <rdf:RDF>
      <cc:Work>
        <dc:format>image/svg+xml</dc:format>
        <dc:source>vpype eval 'cell=10;width=210;height=99' eval 'nCols=20;nRows=9' eval 'cells=[1,3,4,5,6,8,9,10,11,12,13,14,15,16,21,25,30,33,39,40,41,42,43,44,45,46,47,49,50,53,55,59,61,65,70,72,73,74,75,76,77,78,79,81,85,88,89,90,91,93,95,97,99,100,101,102,103,104,105,107,110,113,115,117,119,121,125,127,130,133,135,137,139,143,144,145,146,147,148,149,150,151,153,155,157,159,167,170,173,175,179]' eval 'chars=[&quot;V&quot;,&quot;P&quot;,&quot;I&quot;,&quot;P&quot;,&quot;I&quot;,&quot;R&quot;,&quot;E&quot;,&quot;K&quot;,&quot;K&quot;,&quot;E&quot;,&quot;R&quot;,&quot;T&quot;,&quot;J&quot;,&quot;E&quot;,&quot;R&quot;,&quot;A&quot;,&quot;L&quot;,&quot;E&quot;,&quot;F&quot;,&quot;K&quot;,&quot;I&quot;,&quot;N&quot;,&quot;D&quot;,&quot;E&quot;,&quot;R&quot;,&quot;E&quot;,&quot;N&quot;,&quot;J&quot;,&quot;A&quot;,&quot;G&quot;,&quot;V&quot;,&quot;R&quot;,&quot;J&quot;,&quot;K&quot;,&quot;V&quot;,&quot;R&quot;,&quot;E&quot;,&quot;G&quot;,&quot;E&quot;,&quot;N&quot;,&quot;B&quot;,&quot;U&quot;,&quot;I&quot;,&quot;D&quot;,&quot;E&quot;,&quot;W&quot;,&quot;I&quot;,&quot;E&quot;,&quot;S&quot;,&quot;N&quot;,&quot;L&quot;,&quot;R&quot;,&quot;E&quot;,&quot;L&quot;,&quot;A&quot;,&quot;D&quot;,&quot;D&quot;,&quot;E&quot;,&quot;R&quot;,&quot;G&quot;,&quot;R&quot;,&quot;B&quot;,&quot;L&quot;,&quot;O&quot;,&quot;T&quot;,&quot;G&quot;,&quot;E&quot;,&quot;R&quot;,&quot;T&quot;,&quot;O&quot;,&quot;E&quot;,&quot;O&quot;,&quot;J&quot;,&quot;M&quot;,&quot;A&quot;,&quot;N&quot;,&quot;D&quot;,&quot;A&quot;,&quot;R&quot;,&quot;I&quot;,&quot;J&quot;,&quot;N&quot;,&quot;O&quot;,&quot;K&quot;,&quot;D&quot;,&quot;E&quot;,&quot;S&quot;,&quot;E&quot;,&quot;G&quot;,&quot;E&quot;,&quot;S&quot;]' eval 'numbers=[1,3,5,8,10,13,39,40,49,55,72,77,88,100,107,143]' eval counter=1 eval charIndex=0 begin grid -o '%cell*mm%' '%cell*mm%' %nCols% %nRows% eval '%isCell=_i in cells%' eval '%number=_i in numbers%' eval '%size=10 if isCell else 0%' rect 0 0 '%size*mm%' '%size*mm%' text -s 10 -p 0.5mm 1.5mm '%counter if number else '&quot;'&quot;''&quot;'&quot;'%' text -s 20 -p 5mm 5mm -a center '%chars[charIndex] if isCell else '&quot;'&quot;''&quot;'&quot;'%' eval '%if number: counter+=1 %' eval '%if isCell: charIndex+=1 %' end splitall deduplicate linemerge --tolerance 0.1mm write -m none --page-size '%width*mm%x%height*mm%' --center ./svgs/solution/68fd33.svg
</dc:source>
        <dc:date>2023-12-29T10:02:45.745193</dc:date>
      </cc:Work>
    </rdf:RDF>
  </metadata>
  <defs/>
  <g fill="none" id="layer1" inkscape:groupmode="layer" inkscape:label="1" stroke="#000000" style="display:inline">
    <polygon points="56.6929,17.0079 56.6929,54.8031 56.6929,54.8031 56.6929,92.5984 56.6929,92.5984 94.4882,92.5984 94.4882,92.5984 94.4882,54.8031 94.4882,54.8031 94.4882,17.0079 94.4882,17.0079"/>
    <line x1="56.6929" x2="94.4882" y1="54.8031" y2="54.8031"/>
    <polyline points="60.4577,20.1772 61.0827,19.8647 61.0827,19.8647 62.0202,18.9272 62.0202,18.9272 62.0202,25.4897"/>
    <polyline points="71.2156,28.4055 76.2156,41.5305 76.2156,41.5305 81.2156,28.4055"/>
    <polygon points="132.2835,17.0079 132.2835,54.8031 132.2835,54.8031 170.0787,54.8031 170.0787,54.8031 170.0787,17.0079 170.0787,17.0079"/>
    <polyline points="135.4232,20.4897 135.4232,20.1772 135.4232,20.1772 135.7357,19.5522 135.7357,19.5522 136.0482,19.2397 136.0482,19.2397 136.6732,18.9272 136.6732,18.9272 137.9232,18.9272 137.9232,18.9272 138.5482,19.2397 138.5482,19.2397 138.8607,19.5522 138.8607,19.5522 139.1732,20.1772 139.1732,20.1772 139.1732,20.8022 139.1732,20.8022 138.8607,21.4272 138.8607,21.4272 138.2357,22.3647 138.2357,22.3647 135.1107,25.4897 135.1107,25.4897 139.4857,25.4897"/>
    <polyline points="149.3061,35.2805 154.9311,35.2805 154.9311,35.2805 156.8061,34.6555 156.8061,34.6555 157.4311,34.0305 157.4311,34.0305 158.0561,32.7805 158.0561,32.7805 158.0561,30.9055 158.0561,30.9055 157.4311,29.6555 157.4311,29.6555 156.8061,29.0305 156.8061,29.0305 154.9311,28.4055 154.9311,28.4055 149.3061,28.4055 149.3061,28.4055 149.3061,41.5305"/>
    <polyline points="170.0787,54.8031 207.874,54.8031 207.874,54.8031 207.874,92.5984 207.874,92.5984 170.0787,92.5984 170.0787,92.5984 132.2835,92.5984 132.2835,92.5984 94.4882,92.5984 94.4882,92.5984 94.4882,130.3937 94.4882,130.3937 132.2835,130.3937 132.2835,130.3937 170.0787,130.3937 170.0787,130.3937 170.0787,92.5984"/>
    <polyline points="207.874,17.0079 245.6693,17.0079 245.6693,17.0079 245.6693,54.8031 245.6693,54.8031 207.874,54.8031 207.874,54.8031 207.874,17.0079 207.874,17.0079 170.0787,17.0079"/>
    <line x1="191.4764" x2="191.4764" y1="28.4055" y2="41.5305"/>
    <polyline points="211.3263,18.9272 214.7638,18.9272 214.7638,18.9272 212.8888,21.4272 212.8888,21.4272 213.8263,21.4272 213.8263,21.4272 214.4513,21.7397 214.4513,21.7397 214.7638,22.0522 214.7638,22.0522 215.0763,22.9897 215.0763,22.9897 215.0763,23.6147 215.0763,23.6147 214.7638,24.5522 214.7638,24.5522 214.1388,25.1772 214.1388,25.1772 213.2013,25.4897 213.2013,25.4897 212.2638,25.4897 212.2638,25.4897 211.3263,25.1772 211.3263,25.1772 211.0138,24.8647 211.0138,24.8647 210.7013,24.2397"/>
    <polyline points="224.8967,35.2805 230.5217,35.2805 230.5217,35.2805 232.3967,34.6555 232.3967,34.6555 233.0217,34.0305 233.0217,34.0305 233.6467,32.7805 233.6467,32.7805 233.6467,30.9055 233.6467,30.9055 233.0217,29.6555 233.0217,29.6555 232.3967,29.0305 232.3967,29.0305 230.5217,28.4055 230.5217,28.4055 224.8967,28.4055 224.8967,28.4055 224.8967,41.5305"/>
    <polyline points="283.4646,92.5984 283.4646,130.3937 283.4646,130.3937 321.2598,130.3937 321.2598,130.3937 321.2598,92.5984 321.2598,92.5984 283.4646,92.5984 283.4646,92.5984 245.6693,92.5984 245.6693,92.5984 245.6693,130.3937 245.6693,130.3937 245.6693,168.189 245.6693,168.189 207.874,168.189 207.874,168.189 207.874,130.3937 207.874,130.3937 207.874,92.5984 207.874,92.5984 245.6693,92.5984 245.6693,92.5984 245.6693,54.8031 245.6693,54.8031 283.4646,54.8031 283.4646,54.8031 283.4646,17.0079 283.4646,17.0079 245.6693,17.0079"/>
    <line x1="267.0669" x2="267.0669" y1="28.4055" y2="41.5305"/>
    <polygon points="321.2598,17.0079 321.2598,54.8031 321.2598,54.8031 359.0551,54.8031 359.0551,54.8031 396.8504,54.8031 396.8504,54.8031 396.8504,92.5984 396.8504,92.5984 359.0551,92.5984 359.0551,92.5984 359.0551,130.3937 359.0551,130.3937 396.8504,130.3937 396.8504,130.3937 396.8504,92.5984 396.8504,92.5984 434.6457,92.5984 434.6457,92.5984 434.6457,54.8031 434.6457,54.8031 434.6457,17.0079 434.6457,17.0079 396.8504,17.0079 396.8504,17.0079 359.0551,17.0079 359.0551,17.0079"/>
    <line x1="359.0551" x2="359.0551" y1="54.8031" y2="17.0079"/>
    <polyline points="327.2121,25.4897 327.2121,18.9272 327.2121,18.9272 324.0871,23.3022 324.0871,23.3022 328.7746,23.3022"/>
    <polyline points="338.2825,34.6555 343.9075,34.6555 343.9075,34.6555 345.7825,34.0305 345.7825,34.0305 346.4075,33.4055 346.4075,33.4055 347.0325,32.1555 347.0325,32.1555 347.0325,30.9055 347.0325,30.9055 346.4075,29.6555 346.4075,29.6555 345.7825,29.0305 345.7825,29.0305 343.9075,28.4055 343.9075,28.4055 338.2825,28.4055 338.2825,28.4055 338.2825,41.5305"/>
    <line x1="342.6575" x2="347.0325" y1="34.6555" y2="41.5305"/>
    <polyline points="434.6457,17.0079 472.4409,17.0079 472.4409,17.0079 510.2362,17.0079 510.2362,17.0079 548.0315,17.0079 548.0315,17.0079 548.0315,54.8031 548.0315,54.8031 510.2362,54.8031 510.2362,54.8031 472.4409,54.8031 472.4409,54.8031 434.6457,54.8031 434.6457,54.8031 396.8504,54.8031 396.8504,54.8031 396.8504,17.0079"/>
    <polyline points="384.5153,28.4055 376.3903,28.4055 376.3903,28.4055 376.3903,41.5305 376.3903,41.5305 384.5153,41.5305"/>
    <line x1="376.3903" x2="381.3903" y1="34.6555" y2="34.6555"/>
    <polyline points="403.4277,18.9272 400.3027,18.9272 400.3027,18.9272 399.9902,21.7397 399.9902,21.7397 400.3027,21.4272 400.3027,21.4272 401.2402,21.1147 401.2402,21.1147 402.1777,21.1147 402.1777,21.1147 403.1152,21.4272 403.1152,21.4272 403.7402,22.0522 403.7402,22.0522 404.0527,22.9897 404.0527,22.9897 404.0527,23.6147 404.0527,23.6147 403.7402,24.5522 403.7402,24.5522 403.1152,25.1772 403.1152,25.1772 402.1777,25.4897 402.1777,25.4897 401.2402,25.4897 401.2402,25.4897 400.3027,25.1772 400.3027,25.1772 399.9902,24.8647 399.9902,24.8647 399.6777,24.2397"/>
    <line x1="413.873" x2="413.873" y1="28.4055" y2="41.5305"/>
    <line x1="422.623" x2="413.873" y1="28.4055" y2="37.1555"/>
    <line x1="416.998" x2="422.623" y1="34.0305" y2="41.5305"/>
    <line x1="472.4409" x2="472.4409" y1="54.8031" y2="17.0079"/>
    <line x1="451.6683" x2="451.6683" y1="28.4055" y2="41.5305"/>
    <line x1="460.4183" x2="451.6683" y1="28.4055" y2="37.1555"/>
    <line x1="454.7933" x2="460.4183" y1="34.0305" y2="41.5305"/>
    <polyline points="548.0315,17.0079 585.8268,17.0079 585.8268,17.0079 585.8268,54.8031 585.8268,54.8031 548.0315,54.8031 548.0315,54.8031 548.0315,92.5984 548.0315,92.5984 510.2362,92.5984 510.2362,92.5984 510.2362,54.8031 510.2362,54.8031 510.2362,17.0079"/>
    <polyline points="497.9011,28.4055 489.7761,28.4055 489.7761,28.4055 489.7761,41.5305 489.7761,41.5305 497.9011,41.5305"/>
    <line x1="489.7761" x2="494.7761" y1="34.6555" y2="34.6555"/>
    <polyline points="517.126,19.8647 516.8135,19.2397 516.8135,19.2397 515.876,18.9272 515.876,18.9272 515.251,18.9272 515.251,18.9272 514.3135,19.2397 514.3135,19.2397 513.6885,20.1772 513.6885,20.1772 513.376,21.7397 513.376,21.7397 513.376,23.3022 513.376,23.3022 513.6885,24.5522 513.6885,24.5522 514.3135,25.1772 514.3135,25.1772 515.251,25.4897 515.251,25.4897 515.5635,25.4897 515.5635,25.4897 516.501,25.1772 516.501,25.1772 517.126,24.5522 517.126,24.5522 517.4385,23.6147 517.4385,23.6147 517.4385,23.3022 517.4385,23.3022 517.126,22.3647 517.126,22.3647 516.501,21.7397 516.501,21.7397 515.5635,21.4272 515.5635,21.4272 515.251,21.4272 515.251,21.4272 514.3135,21.7397 514.3135,21.7397 513.6885,22.3647 513.6885,22.3647 513.376,23.3022"/>
    <polyline points="527.2589,34.6555 532.8839,34.6555 532.8839,34.6555 534.7589,34.0305 534.7589,34.0305 535.3839,33.4055 535.3839,33.4055 536.0089,32.1555 536.0089,32.1555 536.0089,30.9055 536.0089,30.9055 535.3839,29.6555 535.3839,29.6555 534.7589,29.0305 534.7589,29.0305 532.8839,28.4055 532.8839,28.4055 527.2589,28.4055 527.2589,28.4055 527.2589,41.5305"/>
    <line x1="531.6339" x2="536.0089" y1="34.6555" y2="41.5305"/>
    <line x1="567.5541" x2="567.5541" y1="28.4055" y2="41.5305"/>
    <line x1="563.1791" x2="571.9291" y1="28.4055" y2="28.4055"/>
    <polyline points="585.8268,54.8031 623.622,54.8031 623.622,54.8031 623.622,17.0079 623.622,17.0079 585.8268,17.0079"/>
    <polyline points="609.0994,28.4055 609.0994,38.4055 609.0994,38.4055 608.4744,40.2805 608.4744,40.2805 607.8494,40.9055 607.8494,40.9055 606.5994,41.5305 606.5994,41.5305 605.3494,41.5305 605.3494,41.5305 604.0994,40.9055 604.0994,40.9055 603.4744,40.2805 603.4744,40.2805 602.8494,38.4055 602.8494,38.4055 602.8494,37.1555"/>
    <polyline points="623.622,54.8031 661.4173,54.8031 661.4173,54.8031 661.4173,17.0079 661.4173,17.0079 623.622,17.0079"/>
    <polyline points="649.0822,28.4055 640.9572,28.4055 640.9572,28.4055 640.9572,41.5305 640.9572,41.5305 649.0822,41.5305"/>
    <line x1="640.9572" x2="645.9572" y1="34.6555" y2="34.6555"/>
    <polyline points="73.7156,72.4508 79.3406,72.4508 79.3406,72.4508 81.2156,71.8258 81.2156,71.8258 81.8406,71.2008 81.8406,71.2008 82.4656,69.9508 82.4656,69.9508 82.4656,68.7008 82.4656,68.7008 81.8406,67.4508 81.8406,67.4508 81.2156,66.8258 81.2156,66.8258 79.3406,66.2008 79.3406,66.2008 73.7156,66.2008 73.7156,66.2008 73.7156,79.3258"/>
    <line x1="78.0906" x2="82.4656" y1="72.4508" y2="79.3258"/>
    <polyline points="232.3967,79.3258 227.3967,66.2008 227.3967,66.2008 222.3967,79.3258"/>
    <line x1="224.2717" x2="230.5217" y1="74.9508" y2="74.9508"/>
    <polyline points="414.498,66.2008 414.498,79.3258 414.498,79.3258 421.998,79.3258"/>
    <polyline points="535.6964,66.2008 527.5714,66.2008 527.5714,66.2008 527.5714,79.3258 527.5714,79.3258 535.6964,79.3258"/>
    <line x1="527.5714" x2="532.5714" y1="72.4508" y2="72.4508"/>
    <polygon points="737.0079,54.8031 737.0079,92.5984 737.0079,92.5984 774.8031,92.5984 774.8031,92.5984 774.8031,54.8031 774.8031,54.8031"/>
    <polyline points="739.8351,56.7224 744.2101,56.7224 744.2101,56.7224 741.0851,63.2849"/>
    <polyline points="762.468,66.2008 754.343,66.2008 754.343,66.2008 754.343,79.3258"/>
    <line x1="754.343" x2="759.343" y1="72.4508" y2="72.4508"/>
    <polyline points="132.2835,243.7795 94.4882,243.7795 94.4882,243.7795 94.4882,281.5748 94.4882,281.5748 56.6929,281.5748 56.6929,281.5748 56.6929,243.7795 56.6929,243.7795 56.6929,205.9843 56.6929,205.9843 56.6929,168.189 56.6929,168.189 56.6929,130.3937 56.6929,130.3937 56.6929,92.5984 56.6929,92.5984 18.8976,92.5984 18.8976,92.5984 18.8976,130.3937 18.8976,130.3937 56.6929,130.3937 56.6929,130.3937 94.4882,130.3937 94.4882,130.3937 94.4882,168.189 94.4882,168.189 94.4882,205.9843 94.4882,205.9843 56.6929,205.9843 56.6929,205.9843 18.8976,205.9843 18.8976,205.9843 18.8976,243.7795 18.8976,243.7795 56.6929,243.7795 56.6929,243.7795 94.4882,243.7795 94.4882,243.7795 94.4882,205.9843 94.4882,205.9843 132.2835,205.9843 132.2835,205.9843 132.2835,243.7795 132.2835,243.7795 170.0787,243.7795 170.0787,243.7795 207.874,243.7795 207.874,243.7795 207.874,205.9843 207.874,205.9843 245.6693,205.9843 245.6693,205.9843 245.6693,168.189"/>
    <polygon points="23.2874,94.5177 22.3499,94.8302 22.3499,94.8302 22.0374,95.4552 22.0374,95.4552 22.0374,96.0802 22.0374,96.0802 22.3499,96.7052 22.3499,96.7052 22.9749,97.0177 22.9749,97.0177 24.2249,97.3302 24.2249,97.3302 25.1624,97.6427 25.1624,97.6427 25.7874,98.2677 25.7874,98.2677 26.0999,98.8927 26.0999,98.8927 26.0999,99.8302 26.0999,99.8302 25.7874,100.4552 25.7874,100.4552 25.4749,100.7677 25.4749,100.7677 24.5374,101.0802 24.5374,101.0802 23.2874,101.0802 23.2874,101.0802 22.3499,100.7677 22.3499,100.7677 22.0374,100.4552 22.0374,100.4552 21.7249,99.8302 21.7249,99.8302 21.7249,98.8927 21.7249,98.8927 22.0374,98.2677 22.0374,98.2677 22.6624,97.6427 22.6624,97.6427 23.5999,97.3302 23.5999,97.3302 24.8499,97.0177 24.8499,97.0177 25.4749,96.7052 25.4749,96.7052 25.7874,96.0802 25.7874,96.0802 25.7874,95.4552 25.7874,95.4552 25.4749,94.8302 25.4749,94.8302 24.5374,94.5177 24.5374,94.5177"/>
    <line x1="35.9203" x2="35.9203" y1="103.9961" y2="117.1211"/>
    <line x1="44.6703" x2="35.9203" y1="103.9961" y2="112.7461"/>
    <line x1="39.0453" x2="44.6703" y1="109.6211" y2="117.1211"/>
    <line x1="78.0906" x2="78.0906" y1="103.9961" y2="117.1211"/>
    <line x1="132.2835" x2="132.2835" y1="130.3937" y2="92.5984"/>
    <polyline points="120.2608,103.9961 120.2608,117.1211 120.2608,117.1211 111.5108,103.9961 111.5108,103.9961 111.5108,117.1211"/>
    <polygon points="149.3061,103.9961 149.3061,117.1211 149.3061,117.1211 153.6811,117.1211 153.6811,117.1211 155.5561,116.4961 155.5561,116.4961 156.8061,115.2461 156.8061,115.2461 157.4311,113.9961 157.4311,113.9961 158.0561,112.1211 158.0561,112.1211 158.0561,108.9961 158.0561,108.9961 157.4311,107.1211 157.4311,107.1211 156.8061,105.8711 156.8061,105.8711 155.5561,104.6211 155.5561,104.6211 153.6811,103.9961 153.6811,103.9961"/>
    <polyline points="170.0787,130.3937 207.874,130.3937 207.874,130.3937 245.6693,130.3937 245.6693,130.3937 283.4646,130.3937"/>
    <polyline points="195.5389,103.9961 187.4139,103.9961 187.4139,103.9961 187.4139,117.1211 187.4139,117.1211 195.5389,117.1211"/>
    <line x1="187.4139" x2="192.4139" y1="110.2461" y2="110.2461"/>
    <polyline points="224.8967,110.2461 230.5217,110.2461 230.5217,110.2461 232.3967,109.6211 232.3967,109.6211 233.0217,108.9961 233.0217,108.9961 233.6467,107.7461 233.6467,107.7461 233.6467,106.4961 233.6467,106.4961 233.0217,105.2461 233.0217,105.2461 232.3967,104.6211 232.3967,104.6211 230.5217,103.9961 230.5217,103.9961 224.8967,103.9961 224.8967,103.9961 224.8967,117.1211"/>
    <line x1="229.2717" x2="233.6467" y1="110.2461" y2="117.1211"/>
    <polyline points="271.1294,103.9961 263.0044,103.9961 263.0044,103.9961 263.0044,117.1211 263.0044,117.1211 271.1294,117.1211"/>
    <line x1="263.0044" x2="268.0044" y1="110.2461" y2="110.2461"/>
    <polyline points="309.2372,103.9961 309.2372,117.1211 309.2372,117.1211 300.4872,103.9961 300.4872,103.9961 300.4872,117.1211"/>
    <polyline points="365.9449,96.7052 365.6324,97.6427 365.6324,97.6427 365.0074,98.2677 365.0074,98.2677 364.0699,98.5802 364.0699,98.5802 363.7574,98.5802 363.7574,98.5802 362.8199,98.2677 362.8199,98.2677 362.1949,97.6427 362.1949,97.6427 361.8824,96.7052 361.8824,96.7052 361.8824,96.3927 361.8824,96.3927 362.1949,95.4552 362.1949,95.4552 362.8199,94.8302 362.8199,94.8302 363.7574,94.5177 363.7574,94.5177 364.0699,94.5177 364.0699,94.5177 365.0074,94.8302 365.0074,94.8302 365.6324,95.4552 365.6324,95.4552 365.9449,96.7052 365.9449,96.7052 365.9449,98.2677 365.9449,98.2677 365.6324,99.8302 365.6324,99.8302 365.0074,100.7677 365.0074,100.7677 364.0699,101.0802 364.0699,101.0802 363.4449,101.0802 363.4449,101.0802 362.5074,100.7677 362.5074,100.7677 362.1949,100.1427"/>
    <polyline points="382.3278,103.9961 382.3278,113.9961 382.3278,113.9961 381.7028,115.8711 381.7028,115.8711 381.0778,116.4961 381.0778,116.4961 379.8278,117.1211 379.8278,117.1211 378.5778,117.1211 378.5778,117.1211 377.3278,116.4961 377.3278,116.4961 376.7028,115.8711 376.7028,115.8711 376.0778,113.9961 376.0778,113.9961 376.0778,112.7461"/>
    <polyline points="434.6457,130.3937 434.6457,168.189 434.6457,168.189 396.8504,168.189 396.8504,168.189 396.8504,130.3937 396.8504,130.3937 434.6457,130.3937 434.6457,130.3937 434.6457,92.5984"/>
    <polyline points="421.373,117.1211 416.373,103.9961 416.373,103.9961 411.373,117.1211"/>
    <line x1="413.248" x2="419.498" y1="112.7461" y2="112.7461"/>
    <polyline points="510.2362,92.5984 510.2362,130.3937 510.2362,130.3937 548.0315,130.3937 548.0315,130.3937 548.0315,92.5984"/>
    <polyline points="535.6964,107.1211 535.0714,105.8711 535.0714,105.8711 533.8214,104.6211 533.8214,104.6211 532.5714,103.9961 532.5714,103.9961 530.0714,103.9961 530.0714,103.9961 528.8214,104.6211 528.8214,104.6211 527.5714,105.8711 527.5714,105.8711 526.9464,107.1211 526.9464,107.1211 526.3214,108.9961 526.3214,108.9961 526.3214,112.1211 526.3214,112.1211 526.9464,113.9961 526.9464,113.9961 527.5714,115.2461 527.5714,115.2461 528.8214,116.4961 528.8214,116.4961 530.0714,117.1211 530.0714,117.1211 532.5714,117.1211 532.5714,117.1211 533.8214,116.4961 533.8214,116.4961 535.0714,115.2461 535.0714,115.2461 535.6964,113.9961 535.6964,113.9961 535.6964,112.1211 535.6964,112.1211 532.5714,112.1211"/>
    <polygon points="585.8268,92.5984 585.8268,130.3937 585.8268,130.3937 623.622,130.3937 623.622,130.3937 623.622,92.5984 623.622,92.5984"/>
    <polyline points="589.5915,95.7677 590.2165,95.4552 590.2165,95.4552 591.154,94.5177 591.154,94.5177 591.154,101.0802"/>
    <polygon points="596.779,94.5177 595.8415,94.8302 595.8415,94.8302 595.2165,95.7677 595.2165,95.7677 594.904,97.3302 594.904,97.3302 594.904,98.2677 594.904,98.2677 595.2165,99.8302 595.2165,99.8302 595.8415,100.7677 595.8415,100.7677 596.779,101.0802 596.779,101.0802 597.404,101.0802 597.404,101.0802 598.3415,100.7677 598.3415,100.7677 598.9665,99.8302 598.9665,99.8302 599.279,98.2677 599.279,98.2677 599.279,97.3302 599.279,97.3302 598.9665,95.7677 598.9665,95.7677 598.3415,94.8302 598.3415,94.8302 597.404,94.5177 597.404,94.5177"/>
    <polyline points="600.3494,103.9961 605.3494,117.1211 605.3494,117.1211 610.3494,103.9961"/>
    <polyline points="737.0079,92.5984 737.0079,130.3937 737.0079,130.3937 699.2126,130.3937 699.2126,130.3937 661.4173,130.3937 661.4173,130.3937 623.622,130.3937 623.622,130.3937 623.622,168.189 623.622,168.189 661.4173,168.189 661.4173,168.189 661.4173,205.9843 661.4173,205.9843 661.4173,243.7795 661.4173,243.7795 699.2126,243.7795 699.2126,243.7795 699.2126,205.9843 699.2126,205.9843 699.2126,168.189 699.2126,168.189 699.2126,130.3937"/>
    <polyline points="774.8031,130.3937 774.8031,168.189 774.8031,168.189 774.8031,205.9843 774.8031,205.9843 737.0079,205.9843 737.0079,205.9843 737.0079,168.189 737.0079,168.189 737.0079,130.3937 737.0079,130.3937 774.8031,130.3937 774.8031,130.3937 774.8031,92.5984"/>
    <polyline points="754.0305,110.2461 759.6555,110.2461 759.6555,110.2461 761.5305,109.6211 761.5305,109.6211 762.1555,108.9961 762.1555,108.9961 762.7805,107.7461 762.7805,107.7461 762.7805,106.4961 762.7805,106.4961 762.1555,105.2461 762.1555,105.2461 761.5305,104.6211 761.5305,104.6211 759.6555,103.9961 759.6555,103.9961 754.0305,103.9961 754.0305,103.9961 754.0305,117.1211"/>
    <line x1="758.4055" x2="762.7805" y1="110.2461" y2="117.1211"/>
    <line x1="56.6929" x2="94.4882" y1="168.189" y2="168.189"/>
    <polyline points="79.9656,141.7913 79.9656,151.7913 79.9656,151.7913 79.3406,153.6663 79.3406,153.6663 78.7156,154.2913 78.7156,154.2913 77.4656,154.9163 77.4656,154.9163 76.2156,154.9163 76.2156,154.9163 74.9656,154.2913 74.9656,154.2913 74.3406,153.6663 74.3406,153.6663 73.7156,151.7913 73.7156,151.7913 73.7156,150.5413"/>
    <line x1="224.8967" x2="224.8967" y1="141.7913" y2="154.9163"/>
    <line x1="233.6467" x2="224.8967" y1="141.7913" y2="150.5413"/>
    <line x1="228.0217" x2="233.6467" y1="147.4163" y2="154.9163"/>
    <polyline points="411.373,141.7913 416.373,154.9163 416.373,154.9163 421.373,141.7913"/>
    <polyline points="510.2362,205.9843 510.2362,168.189 510.2362,168.189 510.2362,130.3937 510.2362,130.3937 472.4409,130.3937 472.4409,130.3937 472.4409,168.189 472.4409,168.189 434.6457,168.189 434.6457,168.189 434.6457,205.9843 434.6457,205.9843 396.8504,205.9843 396.8504,205.9843 396.8504,243.7795 396.8504,243.7795 434.6457,243.7795 434.6457,243.7795 434.6457,205.9843 434.6457,205.9843 472.4409,205.9843 472.4409,205.9843 472.4409,168.189 472.4409,168.189 510.2362,168.189 510.2362,168.189 548.0315,168.189 548.0315,168.189 548.0315,130.3937 548.0315,130.3937 585.8268,130.3937 585.8268,130.3937 585.8268,168.189 585.8268,168.189 548.0315,168.189 548.0315,168.189 548.0315,205.9843 548.0315,205.9843 548.0315,243.7795 548.0315,243.7795 510.2362,243.7795 510.2362,243.7795 510.2362,205.9843 510.2362,205.9843 548.0315,205.9843"/>
    <polyline points="476.2057,133.563 476.8307,133.2505 476.8307,133.2505 477.7682,132.313 477.7682,132.313 477.7682,138.8755"/>
    <polyline points="482.4557,133.563 483.0807,133.2505 483.0807,133.2505 484.0182,132.313 484.0182,132.313 484.0182,138.8755"/>
    <polyline points="489.4636,148.0413 495.0886,148.0413 495.0886,148.0413 496.9636,147.4163 496.9636,147.4163 497.5886,146.7913 497.5886,146.7913 498.2136,145.5413 498.2136,145.5413 498.2136,144.2913 498.2136,144.2913 497.5886,143.0413 497.5886,143.0413 496.9636,142.4163 496.9636,142.4163 495.0886,141.7913 495.0886,141.7913 489.4636,141.7913 489.4636,141.7913 489.4636,154.9163"/>
    <line x1="493.8386" x2="498.2136" y1="148.0413" y2="154.9163"/>
    <polyline points="535.6964,141.7913 527.5714,141.7913 527.5714,141.7913 527.5714,154.9163 527.5714,154.9163 535.6964,154.9163"/>
    <line x1="527.5714" x2="532.5714" y1="148.0413" y2="148.0413"/>
    <polyline points="573.4916,144.9163 572.8666,143.6663 572.8666,143.6663 571.6166,142.4163 571.6166,142.4163 570.3666,141.7913 570.3666,141.7913 567.8666,141.7913 567.8666,141.7913 566.6166,142.4163 566.6166,142.4163 565.3666,143.6663 565.3666,143.6663 564.7416,144.9163 564.7416,144.9163 564.1166,146.7913 564.1166,146.7913 564.1166,149.9163 564.1166,149.9163 564.7416,151.7913 564.7416,151.7913 565.3666,153.0413 565.3666,153.0413 566.6166,154.2913 566.6166,154.2913 567.8666,154.9163 567.8666,154.9163 570.3666,154.9163 570.3666,154.9163 571.6166,154.2913 571.6166,154.2913 572.8666,153.0413 572.8666,153.0413 573.4916,151.7913 573.4916,151.7913 573.4916,149.9163 573.4916,149.9163 570.3666,149.9163"/>
    <polyline points="585.8268,205.9843 585.8268,168.189 585.8268,168.189 623.622,168.189 623.622,168.189 623.622,205.9843 623.622,205.9843 585.8268,205.9843 585.8268,205.9843 585.8268,243.7795 585.8268,243.7795 623.622,243.7795 623.622,243.7795 623.622,205.9843"/>
    <polyline points="611.2869,141.7913 603.1619,141.7913 603.1619,141.7913 603.1619,154.9163 603.1619,154.9163 611.2869,154.9163"/>
    <line x1="603.1619" x2="608.1619" y1="148.0413" y2="148.0413"/>
    <polyline points="774.8031,168.189 737.0079,168.189 737.0079,168.189 699.2126,168.189 699.2126,168.189 661.4173,168.189 661.4173,168.189 661.4173,130.3937"/>
    <polyline points="649.3947,141.7913 649.3947,154.9163 649.3947,154.9163 640.6447,141.7913 640.6447,141.7913 640.6447,154.9163"/>
    <polyline points="665.1821,133.563 665.8071,133.2505 665.8071,133.2505 666.7446,132.313 666.7446,132.313 666.7446,138.8755"/>
    <polyline points="670.8071,133.8755 670.8071,133.563 670.8071,133.563 671.1196,132.938 671.1196,132.938 671.4321,132.6255 671.4321,132.6255 672.0571,132.313 672.0571,132.313 673.3071,132.313 673.3071,132.313 673.9321,132.6255 673.9321,132.6255 674.2446,132.938 674.2446,132.938 674.5571,133.563 674.5571,133.563 674.5571,134.188 674.5571,134.188 674.2446,134.813 674.2446,134.813 673.6196,135.7505 673.6196,135.7505 670.4946,138.8755 670.4946,138.8755 674.8696,138.8755"/>
    <polyline points="684.065,148.0413 685.94,147.4163 685.94,147.4163 686.565,146.7913 686.565,146.7913 687.19,145.5413 687.19,145.5413 687.19,144.2913 687.19,144.2913 686.565,143.0413 686.565,143.0413 685.94,142.4163 685.94,142.4163 684.065,141.7913 684.065,141.7913 678.44,141.7913 678.44,141.7913 678.44,154.9163 678.44,154.9163 684.065,154.9163 684.065,154.9163 685.94,154.2913 685.94,154.2913 686.565,153.6663 686.565,153.6663 687.19,152.4163 687.19,152.4163 687.19,150.5413 687.19,150.5413 686.565,149.2913 686.565,149.2913 685.94,148.6663 685.94,148.6663 684.065,148.0413 684.065,148.0413 678.44,148.0413"/>
    <polyline points="716.2352,141.7913 716.2352,151.1663 716.2352,151.1663 716.8602,153.0413 716.8602,153.0413 718.1102,154.2913 718.1102,154.2913 719.9852,154.9163 719.9852,154.9163 721.2352,154.9163 721.2352,154.9163 723.1102,154.2913 723.1102,154.2913 724.3602,153.0413 724.3602,153.0413 724.9852,151.1663 724.9852,151.1663 724.9852,141.7913"/>
    <line x1="758.4055" x2="758.4055" y1="141.7913" y2="154.9163"/>
    <polygon points="73.7156,179.5866 73.7156,192.7116 73.7156,192.7116 78.0906,192.7116 78.0906,192.7116 79.9656,192.0866 79.9656,192.0866 81.2156,190.8366 81.2156,190.8366 81.8406,189.5866 81.8406,189.5866 82.4656,187.7116 82.4656,187.7116 82.4656,184.5866 82.4656,184.5866 81.8406,182.7116 81.8406,182.7116 81.2156,181.4616 81.2156,181.4616 79.9656,180.2116 79.9656,180.2116 78.0906,179.5866 78.0906,179.5866"/>
    <polyline points="207.874,168.189 207.874,205.9843 207.874,205.9843 170.0787,205.9843 170.0787,205.9843 132.2835,205.9843"/>
    <polyline points="233.3342,179.5866 225.2092,179.5866 225.2092,179.5866 225.2092,192.7116 225.2092,192.7116 233.3342,192.7116"/>
    <line x1="225.2092" x2="230.2092" y1="185.8366" y2="185.8366"/>
    <polygon points="321.2598,168.189 321.2598,205.9843 321.2598,205.9843 359.0551,205.9843 359.0551,205.9843 396.8504,205.9843 396.8504,205.9843 396.8504,168.189 396.8504,168.189 359.0551,168.189 359.0551,168.189"/>
    <line x1="359.0551" x2="359.0551" y1="205.9843" y2="168.189"/>
    <polyline points="325.0246,171.3583 325.6496,171.0458 325.6496,171.0458 326.5871,170.1083 326.5871,170.1083 326.5871,176.6708"/>
    <polyline points="330.9621,170.1083 334.3996,170.1083 334.3996,170.1083 332.5246,172.6083 332.5246,172.6083 333.4621,172.6083 333.4621,172.6083 334.0871,172.9208 334.0871,172.9208 334.3996,173.2333 334.3996,173.2333 334.7121,174.1708 334.7121,174.1708 334.7121,174.7958 334.7121,174.7958 334.3996,175.7333 334.3996,175.7333 333.7746,176.3583 333.7746,176.3583 332.8371,176.6708 332.8371,176.6708 331.8996,176.6708 331.8996,176.6708 330.9621,176.3583 330.9621,176.3583 330.6496,176.0458 330.6496,176.0458 330.3371,175.4208"/>
    <polyline points="335.1575,179.5866 338.2825,192.7116 338.2825,192.7116 341.4075,179.5866 341.4075,179.5866 344.5325,192.7116 344.5325,192.7116 347.6575,179.5866"/>
    <line x1="380.4528" x2="380.4528" y1="179.5866" y2="192.7116"/>
    <polyline points="422.3105,179.5866 414.1855,179.5866 414.1855,179.5866 414.1855,192.7116 414.1855,192.7116 422.3105,192.7116"/>
    <line x1="414.1855" x2="419.1855" y1="185.8366" y2="185.8366"/>
    <polyline points="459.7933,181.4616 458.5433,180.2116 458.5433,180.2116 456.6683,179.5866 456.6683,179.5866 454.1683,179.5866 454.1683,179.5866 452.2933,180.2116 452.2933,180.2116 451.0433,181.4616 451.0433,181.4616 451.0433,182.7116 451.0433,182.7116 451.6683,183.9616 451.6683,183.9616 452.2933,184.5866 452.2933,184.5866 453.5433,185.2116 453.5433,185.2116 457.2933,186.4616 457.2933,186.4616 458.5433,187.0866 458.5433,187.0866 459.1683,187.7116 459.1683,187.7116 459.7933,188.9616 459.7933,188.9616 459.7933,190.8366 459.7933,190.8366 458.5433,192.0866 458.5433,192.0866 456.6683,192.7116 456.6683,192.7116 454.1683,192.7116 454.1683,192.7116 452.2933,192.0866 452.2933,192.0866 451.0433,190.8366"/>
    <polyline points="536.0089,179.5866 536.0089,192.7116 536.0089,192.7116 527.2589,179.5866 527.2589,179.5866 527.2589,192.7116"/>
    <polyline points="603.4744,179.5866 603.4744,192.7116 603.4744,192.7116 610.9744,192.7116"/>
    <line x1="661.4173" x2="699.2126" y1="205.9843" y2="205.9843"/>
    <polyline points="678.44,185.8366 684.065,185.8366 684.065,185.8366 685.94,185.2116 685.94,185.2116 686.565,184.5866 686.565,184.5866 687.19,183.3366 687.19,183.3366 687.19,182.0866 687.19,182.0866 686.565,180.8366 686.565,180.8366 685.94,180.2116 685.94,180.2116 684.065,179.5866 684.065,179.5866 678.44,179.5866 678.44,179.5866 678.44,192.7116"/>
    <line x1="682.815" x2="687.19" y1="185.8366" y2="192.7116"/>
    <polyline points="762.468,179.5866 754.343,179.5866 754.343,179.5866 754.343,192.7116 754.343,192.7116 762.468,192.7116"/>
    <line x1="754.343" x2="759.343" y1="185.8366" y2="185.8366"/>
    <polyline points="22.6624,209.1535 23.2874,208.841 23.2874,208.841 24.2249,207.9035 24.2249,207.9035 24.2249,214.466"/>
    <polyline points="31.0999,214.466 31.0999,207.9035 31.0999,207.9035 27.9749,212.2785 27.9749,212.2785 32.6624,212.2785"/>
    <polyline points="36.5453,217.3819 36.5453,230.5069 36.5453,230.5069 44.0453,230.5069"/>
    <polyline points="81.2156,230.5069 76.2156,217.3819 76.2156,217.3819 71.2156,230.5069"/>
    <line x1="73.0906" x2="79.3406" y1="226.1319" y2="226.1319"/>
    <polygon points="111.5108,217.3819 111.5108,230.5069 111.5108,230.5069 115.8858,230.5069 115.8858,230.5069 117.7608,229.8819 117.7608,229.8819 119.0108,228.6319 119.0108,228.6319 119.6358,227.3819 119.6358,227.3819 120.2608,225.5069 120.2608,225.5069 120.2608,222.3819 120.2608,222.3819 119.6358,220.5069 119.6358,220.5069 119.0108,219.2569 119.0108,219.2569 117.7608,218.0069 117.7608,218.0069 115.8858,217.3819 115.8858,217.3819"/>
    <line x1="170.0787" x2="170.0787" y1="243.7795" y2="205.9843"/>
    <polygon points="149.3061,217.3819 149.3061,230.5069 149.3061,230.5069 153.6811,230.5069 153.6811,230.5069 155.5561,229.8819 155.5561,229.8819 156.8061,228.6319 156.8061,228.6319 157.4311,227.3819 157.4311,227.3819 158.0561,225.5069 158.0561,225.5069 158.0561,222.3819 158.0561,222.3819 157.4311,220.5069 157.4311,220.5069 156.8061,219.2569 156.8061,219.2569 155.5561,218.0069 155.5561,218.0069 153.6811,217.3819 153.6811,217.3819"/>
    <polyline points="195.5389,217.3819 187.4139,217.3819 187.4139,217.3819 187.4139,230.5069 187.4139,230.5069 195.5389,230.5069"/>
    <line x1="187.4139" x2="192.4139" y1="223.6319" y2="223.6319"/>
    <polyline points="245.6693,243.7795 245.6693,281.5748 245.6693,281.5748 245.6693,319.3701 245.6693,319.3701 207.874,319.3701 207.874,319.3701 170.0787,319.3701 170.0787,319.3701 132.2835,319.3701 132.2835,319.3701 132.2835,281.5748 132.2835,281.5748 170.0787,281.5748 170.0787,281.5748 207.874,281.5748 207.874,281.5748 207.874,243.7795 207.874,243.7795 245.6693,243.7795 245.6693,243.7795 245.6693,205.9843"/>
    <polyline points="224.8967,223.6319 230.5217,223.6319 230.5217,223.6319 232.3967,223.0069 232.3967,223.0069 233.0217,222.3819 233.0217,222.3819 233.6467,221.1319 233.6467,221.1319 233.6467,219.8819 233.6467,219.8819 233.0217,218.6319 233.0217,218.6319 232.3967,218.0069 232.3967,218.0069 230.5217,217.3819 230.5217,217.3819 224.8967,217.3819 224.8967,217.3819 224.8967,230.5069"/>
    <line x1="229.2717" x2="233.6467" y1="223.6319" y2="230.5069"/>
    <polygon points="283.4646,205.9843 283.4646,243.7795 283.4646,243.7795 321.2598,243.7795 321.2598,243.7795 321.2598,205.9843 321.2598,205.9843"/>
    <polyline points="287.2293,209.1535 287.8543,208.841 287.8543,208.841 288.7918,207.9035 288.7918,207.9035 288.7918,214.466"/>
    <polyline points="296.2918,207.9035 293.1668,207.9035 293.1668,207.9035 292.8543,210.716 292.8543,210.716 293.1668,210.4035 293.1668,210.4035 294.1043,210.091 294.1043,210.091 295.0418,210.091 295.0418,210.091 295.9793,210.4035 295.9793,210.4035 296.6043,211.0285 296.6043,211.0285 296.9168,211.966 296.9168,211.966 296.9168,212.591 296.9168,212.591 296.6043,213.5285 296.6043,213.5285 295.9793,214.1535 295.9793,214.1535 295.0418,214.466 295.0418,214.466 294.1043,214.466 294.1043,214.466 293.1668,214.1535 293.1668,214.1535 292.8543,213.841 292.8543,213.841 292.5418,213.216"/>
    <polyline points="308.9247,220.5069 308.2997,219.2569 308.2997,219.2569 307.0497,218.0069 307.0497,218.0069 305.7997,217.3819 305.7997,217.3819 303.2997,217.3819 303.2997,217.3819 302.0497,218.0069 302.0497,218.0069 300.7997,219.2569 300.7997,219.2569 300.1747,220.5069 300.1747,220.5069 299.5497,222.3819 299.5497,222.3819 299.5497,225.5069 299.5497,225.5069 300.1747,227.3819 300.1747,227.3819 300.7997,228.6319 300.7997,228.6319 302.0497,229.8819 302.0497,229.8819 303.2997,230.5069 303.2997,230.5069 305.7997,230.5069 305.7997,230.5069 307.0497,229.8819 307.0497,229.8819 308.2997,228.6319 308.2997,228.6319 308.9247,227.3819 308.9247,227.3819 308.9247,225.5069 308.9247,225.5069 305.7997,225.5069"/>
    <polyline points="413.873,223.6319 419.498,223.6319 419.498,223.6319 421.373,223.0069 421.373,223.0069 421.998,222.3819 421.998,222.3819 422.623,221.1319 422.623,221.1319 422.623,219.8819 422.623,219.8819 421.998,218.6319 421.998,218.6319 421.373,218.0069 421.373,218.0069 419.498,217.3819 419.498,217.3819 413.873,217.3819 413.873,217.3819 413.873,230.5069"/>
    <line x1="418.248" x2="422.623" y1="223.6319" y2="230.5069"/>
    <polygon points="527.2589,217.3819 527.2589,230.5069 527.2589,230.5069 532.8839,230.5069 532.8839,230.5069 534.7589,229.8819 534.7589,229.8819 535.3839,229.2569 535.3839,229.2569 536.0089,228.0069 536.0089,228.0069 536.0089,226.1319 536.0089,226.1319 535.3839,224.8819 535.3839,224.8819 534.7589,224.2569 534.7589,224.2569 532.8839,223.6319 532.8839,223.6319 534.7589,223.0069 534.7589,223.0069 535.3839,222.3819 535.3839,222.3819 536.0089,221.1319 536.0089,221.1319 536.0089,219.8819 536.0089,219.8819 535.3839,218.6319 535.3839,218.6319 534.7589,218.0069 534.7589,218.0069 532.8839,217.3819 532.8839,217.3819"/>
    <line x1="527.2589" x2="532.8839" y1="223.6319" y2="223.6319"/>
    <polyline points="603.4744,217.3819 603.4744,230.5069 603.4744,230.5069 610.9744,230.5069"/>
    <polygon points="680.94,217.3819 679.69,218.0069 679.69,218.0069 678.44,219.2569 678.44,219.2569 677.815,220.5069 677.815,220.5069 677.19,222.3819 677.19,222.3819 677.19,225.5069 677.19,225.5069 677.815,227.3819 677.815,227.3819 678.44,228.6319 678.44,228.6319 679.69,229.8819 679.69,229.8819 680.94,230.5069 680.94,230.5069 683.44,230.5069 683.44,230.5069 684.69,229.8819 684.69,229.8819 685.94,228.6319 685.94,228.6319 686.565,227.3819 686.565,227.3819 687.19,225.5069 687.19,225.5069 687.19,222.3819 687.19,222.3819 686.565,220.5069 686.565,220.5069 685.94,219.2569 685.94,219.2569 684.69,218.0069 684.69,218.0069 683.44,217.3819 683.44,217.3819"/>
    <polyline points="737.0079,205.9843 737.0079,243.7795 737.0079,243.7795 774.8031,243.7795 774.8031,243.7795 774.8031,205.9843"/>
    <line x1="756.5305" x2="756.5305" y1="217.3819" y2="230.5069"/>
    <line x1="752.1555" x2="760.9055" y1="217.3819" y2="217.3819"/>
    <polyline points="82.1531,258.3022 81.5281,257.0522 81.5281,257.0522 80.2781,255.8022 80.2781,255.8022 79.0281,255.1772 79.0281,255.1772 76.5281,255.1772 76.5281,255.1772 75.2781,255.8022 75.2781,255.8022 74.0281,257.0522 74.0281,257.0522 73.4031,258.3022 73.4031,258.3022 72.7781,260.1772 72.7781,260.1772 72.7781,263.3022 72.7781,263.3022 73.4031,265.1772 73.4031,265.1772 74.0281,266.4272 74.0281,266.4272 75.2781,267.6772 75.2781,267.6772 76.5281,268.3022 76.5281,268.3022 79.0281,268.3022 79.0281,268.3022 80.2781,267.6772 80.2781,267.6772 81.5281,266.4272 81.5281,266.4272 82.1531,265.1772 82.1531,265.1772 82.1531,263.3022 82.1531,263.3022 79.0281,263.3022"/>
    <polyline points="207.874,319.3701 207.874,281.5748 207.874,281.5748 245.6693,281.5748 245.6693,281.5748 283.4646,281.5748 283.4646,281.5748 321.2598,281.5748 321.2598,281.5748 321.2598,243.7795"/>
    <polyline points="233.3342,255.1772 225.2092,255.1772 225.2092,255.1772 225.2092,268.3022 225.2092,268.3022 233.3342,268.3022"/>
    <line x1="225.2092" x2="230.2092" y1="261.4272" y2="261.4272"/>
    <polyline points="283.4646,243.7795 283.4646,281.5748 283.4646,281.5748 283.4646,319.3701 283.4646,319.3701 321.2598,319.3701 321.2598,319.3701 321.2598,281.5748 321.2598,281.5748 359.0551,281.5748 359.0551,281.5748 359.0551,319.3701 359.0551,319.3701 396.8504,319.3701 396.8504,319.3701 396.8504,357.1654 396.8504,357.1654 434.6457,357.1654 434.6457,357.1654 434.6457,319.3701 434.6457,319.3701 434.6457,281.5748 434.6457,281.5748 434.6457,243.7795"/>
    <polyline points="300.4872,261.4272 306.1122,261.4272 306.1122,261.4272 307.9872,260.8022 307.9872,260.8022 308.6122,260.1772 308.6122,260.1772 309.2372,258.9272 309.2372,258.9272 309.2372,257.6772 309.2372,257.6772 308.6122,256.4272 308.6122,256.4272 307.9872,255.8022 307.9872,255.8022 306.1122,255.1772 306.1122,255.1772 300.4872,255.1772 300.4872,255.1772 300.4872,268.3022"/>
    <line x1="304.8622" x2="309.2372" y1="261.4272" y2="268.3022"/>
    <polyline points="396.8504,243.7795 396.8504,281.5748 396.8504,281.5748 359.0551,281.5748"/>
    <polygon points="396.8504,281.5748 434.6457,281.5748 434.6457,281.5748 472.4409,281.5748 472.4409,281.5748 472.4409,319.3701 472.4409,319.3701 434.6457,319.3701 434.6457,319.3701 396.8504,319.3701 396.8504,319.3701"/>
    <line x1="416.373" x2="416.373" y1="255.1772" y2="268.3022"/>
    <line x1="411.998" x2="420.748" y1="255.1772" y2="255.1772"/>
    <polyline points="510.2362,243.7795 510.2362,281.5748 510.2362,281.5748 510.2362,319.3701 510.2362,319.3701 510.2362,357.1654 510.2362,357.1654 548.0315,357.1654 548.0315,357.1654 548.0315,319.3701 548.0315,319.3701 548.0315,281.5748 548.0315,281.5748 548.0315,243.7795"/>
    <line x1="510.2362" x2="548.0315" y1="281.5748" y2="281.5748"/>
    <polygon points="529.7589,255.1772 528.5089,255.8022 528.5089,255.8022 527.2589,257.0522 527.2589,257.0522 526.6339,258.3022 526.6339,258.3022 526.0089,260.1772 526.0089,260.1772 526.0089,263.3022 526.0089,263.3022 526.6339,265.1772 526.6339,265.1772 527.2589,266.4272 527.2589,266.4272 528.5089,267.6772 528.5089,267.6772 529.7589,268.3022 529.7589,268.3022 532.2589,268.3022 532.2589,268.3022 533.5089,267.6772 533.5089,267.6772 534.7589,266.4272 534.7589,266.4272 535.3839,265.1772 535.3839,265.1772 536.0089,263.3022 536.0089,263.3022 536.0089,260.1772 536.0089,260.1772 535.3839,258.3022 535.3839,258.3022 534.7589,257.0522 534.7589,257.0522 533.5089,255.8022 533.5089,255.8022 532.2589,255.1772 532.2589,255.1772"/>
    <polyline points="585.8268,243.7795 585.8268,281.5748 585.8268,281.5748 623.622,281.5748 623.622,281.5748 623.622,243.7795"/>
    <polyline points="611.2869,255.1772 603.1619,255.1772 603.1619,255.1772 603.1619,268.3022 603.1619,268.3022 611.2869,268.3022"/>
    <line x1="603.1619" x2="608.1619" y1="261.4272" y2="261.4272"/>
    <polyline points="661.4173,243.7795 661.4173,281.5748 661.4173,281.5748 699.2126,281.5748 699.2126,281.5748 699.2126,243.7795"/>
    <polygon points="680.94,255.1772 679.69,255.8022 679.69,255.8022 678.44,257.0522 678.44,257.0522 677.815,258.3022 677.815,258.3022 677.19,260.1772 677.19,260.1772 677.19,263.3022 677.19,263.3022 677.815,265.1772 677.815,265.1772 678.44,266.4272 678.44,266.4272 679.69,267.6772 679.69,267.6772 680.94,268.3022 680.94,268.3022 683.44,268.3022 683.44,268.3022 684.69,267.6772 684.69,267.6772 685.94,266.4272 685.94,266.4272 686.565,265.1772 686.565,265.1772 687.19,263.3022 687.19,263.3022 687.19,260.1772 687.19,260.1772 686.565,258.3022 686.565,258.3022 685.94,257.0522 685.94,257.0522 684.69,255.8022 684.69,255.8022 683.44,255.1772 683.44,255.1772"/>
    <polyline points="737.0079,243.7795 737.0079,281.5748 737.0079,281.5748 737.0079,319.3701 737.0079,319.3701 774.8031,319.3701 774.8031,319.3701 774.8031,281.5748 774.8031,281.5748 774.8031,243.7795"/>
    <line x1="737.0079" x2="774.8031" y1="281.5748" y2="281.5748"/>
    <polyline points="760.2805,255.1772 760.2805,265.1772 760.2805,265.1772 759.6555,267.0522 759.6555,267.0522 759.0305,267.6772 759.0305,267.6772 757.7805,268.3022 757.7805,268.3022 756.5305,268.3022 756.5305,268.3022 755.2805,267.6772 755.2805,267.6772 754.6555,267.0522 754.6555,267.0522 754.0305,265.1772 754.0305,265.1772 754.0305,263.9272"/>
    <line x1="170.0787" x2="170.0787" y1="319.3701" y2="281.5748"/>
    <polyline points="136.0482,284.7441 136.6732,284.4316 136.6732,284.4316 137.6107,283.4941 137.6107,283.4941 137.6107,290.0566"/>
    <polyline points="145.4232,284.4316 145.1107,283.8066 145.1107,283.8066 144.1732,283.4941 144.1732,283.4941 143.5482,283.4941 143.5482,283.4941 142.6107,283.8066 142.6107,283.8066 141.9857,284.7441 141.9857,284.7441 141.6732,286.3066 141.6732,286.3066 141.6732,287.8691 141.6732,287.8691 141.9857,289.1191 141.9857,289.1191 142.6107,289.7441 142.6107,289.7441 143.5482,290.0566 143.5482,290.0566 143.8607,290.0566 143.8607,290.0566 144.7982,289.7441 144.7982,289.7441 145.4232,289.1191 145.4232,289.1191 145.7357,288.1816 145.7357,288.1816 145.7357,287.8691 145.7357,287.8691 145.4232,286.9316 145.4232,286.9316 144.7982,286.3066 144.7982,286.3066 143.8607,285.9941 143.8607,285.9941 143.5482,285.9941 143.5482,285.9941 142.6107,286.3066 142.6107,286.3066 141.9857,286.9316 141.9857,286.9316 141.6732,287.8691"/>
    <polyline points="158.6811,306.0974 158.6811,292.9724 158.6811,292.9724 153.6811,306.0974 153.6811,306.0974 148.6811,292.9724 148.6811,292.9724 148.6811,306.0974"/>
    <polyline points="194.6014,306.0974 189.6014,292.9724 189.6014,292.9724 184.6014,306.0974"/>
    <line x1="186.4764" x2="192.7264" y1="301.7224" y2="301.7224"/>
    <polyline points="233.6467,292.9724 233.6467,306.0974 233.6467,306.0974 224.8967,292.9724 224.8967,292.9724 224.8967,306.0974"/>
    <polyline points="245.6693,319.3701 283.4646,319.3701 283.4646,319.3701 283.4646,357.1654 283.4646,357.1654 321.2598,357.1654 321.2598,357.1654 321.2598,319.3701 321.2598,319.3701 359.0551,319.3701"/>
    <polygon points="262.6919,292.9724 262.6919,306.0974 262.6919,306.0974 267.0669,306.0974 267.0669,306.0974 268.9419,305.4724 268.9419,305.4724 270.1919,304.2224 270.1919,304.2224 270.8169,302.9724 270.8169,302.9724 271.4419,301.0974 271.4419,301.0974 271.4419,297.9724 271.4419,297.9724 270.8169,296.0974 270.8169,296.0974 270.1919,294.8474 270.1919,294.8474 268.9419,293.5974 268.9419,293.5974 267.0669,292.9724 267.0669,292.9724"/>
    <polyline points="307.9872,306.0974 302.9872,292.9724 302.9872,292.9724 297.9872,306.0974"/>
    <line x1="299.8622" x2="306.1122" y1="301.7224" y2="301.7224"/>
    <polyline points="338.2825,299.2224 343.9075,299.2224 343.9075,299.2224 345.7825,298.5974 345.7825,298.5974 346.4075,297.9724 346.4075,297.9724 347.0325,296.7224 347.0325,296.7224 347.0325,295.4724 347.0325,295.4724 346.4075,294.2224 346.4075,294.2224 345.7825,293.5974 345.7825,293.5974 343.9075,292.9724 343.9075,292.9724 338.2825,292.9724 338.2825,292.9724 338.2825,306.0974"/>
    <line x1="342.6575" x2="347.0325" y1="299.2224" y2="306.0974"/>
    <line x1="380.4528" x2="380.4528" y1="292.9724" y2="306.0974"/>
    <polyline points="420.123,292.9724 420.123,302.9724 420.123,302.9724 419.498,304.8474 419.498,304.8474 418.873,305.4724 418.873,305.4724 417.623,306.0974 417.623,306.0974 416.373,306.0974 416.373,306.0974 415.123,305.4724 415.123,305.4724 414.498,304.8474 414.498,304.8474 413.873,302.9724 413.873,302.9724 413.873,301.7224"/>
    <polyline points="460.4183,292.9724 460.4183,306.0974 460.4183,306.0974 451.6683,292.9724 451.6683,292.9724 451.6683,306.0974"/>
    <line x1="510.2362" x2="548.0315" y1="319.3701" y2="319.3701"/>
    <polygon points="529.7589,292.9724 528.5089,293.5974 528.5089,293.5974 527.2589,294.8474 527.2589,294.8474 526.6339,296.0974 526.6339,296.0974 526.0089,297.9724 526.0089,297.9724 526.0089,301.0974 526.0089,301.0974 526.6339,302.9724 526.6339,302.9724 527.2589,304.2224 527.2589,304.2224 528.5089,305.4724 528.5089,305.4724 529.7589,306.0974 529.7589,306.0974 532.2589,306.0974 532.2589,306.0974 533.5089,305.4724 533.5089,305.4724 534.7589,304.2224 534.7589,304.2224 535.3839,302.9724 535.3839,302.9724 536.0089,301.0974 536.0089,301.0974 536.0089,297.9724 536.0089,297.9724 535.3839,296.0974 535.3839,296.0974 534.7589,294.8474 534.7589,294.8474 533.5089,293.5974 533.5089,293.5974 532.2589,292.9724 532.2589,292.9724"/>
    <polyline points="585.8268,281.5748 585.8268,319.3701 585.8268,319.3701 623.622,319.3701 623.622,319.3701 623.622,281.5748"/>
    <line x1="602.8494" x2="602.8494" y1="292.9724" y2="306.0974"/>
    <line x1="611.5994" x2="602.8494" y1="292.9724" y2="301.7224"/>
    <line x1="605.9744" x2="611.5994" y1="298.5974" y2="306.0974"/>
    <polyline points="661.4173,281.5748 661.4173,319.3701 661.4173,319.3701 699.2126,319.3701 699.2126,319.3701 699.2126,281.5748"/>
    <polygon points="678.44,292.9724 678.44,306.0974 678.44,306.0974 682.815,306.0974 682.815,306.0974 684.69,305.4724 684.69,305.4724 685.94,304.2224 685.94,304.2224 686.565,302.9724 686.565,302.9724 687.19,301.0974 687.19,301.0974 687.19,297.9724 687.19,297.9724 686.565,296.0974 686.565,296.0974 685.94,294.8474 685.94,294.8474 684.69,293.5974 684.69,293.5974 682.815,292.9724 682.815,292.9724"/>
    <polyline points="762.468,292.9724 754.343,292.9724 754.343,292.9724 754.343,306.0974 754.343,306.0974 762.468,306.0974"/>
    <line x1="754.343" x2="759.343" y1="299.2224" y2="299.2224"/>
    <polyline points="308.6122,332.6427 307.3622,331.3927 307.3622,331.3927 305.4872,330.7677 305.4872,330.7677 302.9872,330.7677 302.9872,330.7677 301.1122,331.3927 301.1122,331.3927 299.8622,332.6427 299.8622,332.6427 299.8622,333.8927 299.8622,333.8927 300.4872,335.1427 300.4872,335.1427 301.1122,335.7677 301.1122,335.7677 302.3622,336.3927 302.3622,336.3927 306.1122,337.6427 306.1122,337.6427 307.3622,338.2677 307.3622,338.2677 307.9872,338.8927 307.9872,338.8927 308.6122,340.1427 308.6122,340.1427 308.6122,342.0177 308.6122,342.0177 307.3622,343.2677 307.3622,343.2677 305.4872,343.8927 305.4872,343.8927 302.9872,343.8927 302.9872,343.8927 301.1122,343.2677 301.1122,343.2677 299.8622,342.0177"/>
    <polyline points="422.3105,330.7677 414.1855,330.7677 414.1855,330.7677 414.1855,343.8927 414.1855,343.8927 422.3105,343.8927"/>
    <line x1="414.1855" x2="419.1855" y1="337.0177" y2="337.0177"/>
    <polyline points="535.6964,333.8927 535.0714,332.6427 535.0714,332.6427 533.8214,331.3927 533.8214,331.3927 532.5714,330.7677 532.5714,330.7677 530.0714,330.7677 530.0714,330.7677 528.8214,331.3927 528.8214,331.3927 527.5714,332.6427 527.5714,332.6427 526.9464,333.8927 526.9464,333.8927 526.3214,335.7677 526.3214,335.7677 526.3214,338.8927 526.3214,338.8927 526.9464,340.7677 526.9464,340.7677 527.5714,342.0177 527.5714,342.0177 528.8214,343.2677 528.8214,343.2677 530.0714,343.8927 530.0714,343.8927 532.5714,343.8927 532.5714,343.8927 533.8214,343.2677 533.8214,343.2677 535.0714,342.0177 535.0714,342.0177 535.6964,340.7677 535.6964,340.7677 535.6964,338.8927 535.6964,338.8927 532.5714,338.8927"/>
    <polyline points="585.8268,319.3701 585.8268,357.1654 585.8268,357.1654 623.622,357.1654 623.622,357.1654 623.622,319.3701"/>
    <polyline points="611.2869,330.7677 603.1619,330.7677 603.1619,330.7677 603.1619,343.8927 603.1619,343.8927 611.2869,343.8927"/>
    <line x1="603.1619" x2="608.1619" y1="337.0177" y2="337.0177"/>
    <polyline points="737.0079,319.3701 737.0079,357.1654 737.0079,357.1654 774.8031,357.1654 774.8031,357.1654 774.8031,319.3701"/>
    <polyline points="762.1555,332.6427 760.9055,331.3927 760.9055,331.3927 759.0305,330.7677 759.0305,330.7677 756.5305,330.7677 756.5305,330.7677 754.6555,331.3927 754.6555,331.3927 753.4055,332.6427 753.4055,332.6427 753.4055,333.8927 753.4055,333.8927 754.0305,335.1427 754.0305,335.1427 754.6555,335.7677 754.6555,335.7677 755.9055,336.3927 755.9055,336.3927 759.6555,337.6427 759.6555,337.6427 760.9055,338.2677 760.9055,338.2677 761.5305,338.8927 761.5305,338.8927 762.1555,340.1427 762.1555,340.1427 762.1555,342.0177 762.1555,342.0177 760.9055,343.2677 760.9055,343.2677 759.0305,343.8927 759.0305,343.8927 756.5305,343.8927 756.5305,343.8927 754.6555,343.2677 754.6555,343.2677 753.4055,342.0177"/>
  </g>
</svg>
