<?xml version="1.0" encoding="utf-8" ?>
<svg xmlns="http://www.w3.org/2000/svg" xmlns:cc="http://creativecommons.org/ns" xmlns:dc="http://purl.org/dc/elements/1.1/" xmlns:ev="http://www.w3.org/2001/xml-events" xmlns:inkscape="http://www.inkscape.org/namespaces/inkscape" xmlns:rdf="http://www.w3.org/1999/02/22-rdf-syntax-ns" xmlns:sodipodi="http://sodipodi.sourceforge.net/DTD/sodipodi-0.dtd" xmlns:xlink="http://www.w3.org/1999/xlink" baseProfile="tiny" height="9.9cm" version="1.2" viewBox="0 0 793.7007874015749 374.1732283464567" width="21.0cm">
  <metadata>
    <rdf:RDF>
      <cc:Work>
        <dc:format>image/svg+xml</dc:format>
        <dc:source>vpype eval 'cell=10;width=210;height=99' eval 'nCols=20;nRows=9' eval 'cells=[3,7,9,10,11,12,13,14,15,16,17,18,21,22,23,24,25,26,27,28,30,36,40,43,47,50,56,59,60,62,63,64,65,66,67,68,69,70,71,72,73,76,79,80,83,87,90,93,96,99,100,103,105,106,107,108,110,111,112,113,114,115,116,117,119,120,123,127,130,133,139,140,141,142,143,144,145,147,149,150,151,152,153,154,155,156,157,158,159,163,167,173]' eval 'chars=[&quot;U&quot;,&quot;R&quot;,&quot;G&quot;,&quot;R&quot;,&quot;O&quot;,&quot;E&quot;,&quot;P&quot;,&quot;S&quot;,&quot;F&quot;,&quot;O&quot;,&quot;T&quot;,&quot;O&quot;,&quot;F&quot;,&quot;R&quot;,&quot;I&quot;,&quot;E&quot;,&quot;T&quot;,&quot;J&quot;,&quot;E&quot;,&quot;S&quot;,&quot;E&quot;,&quot;L&quot;,&quot;K&quot;,&quot;T&quot;,&quot;G&quot;,&quot;G&quot;,&quot;I&quot;,&quot;G&quot;,&quot;A&quot;,&quot;F&quot;,&quot;L&quot;,&quot;E&quot;,&quot;S&quot;,&quot;S&quot;,&quot;E&quot;,&quot;N&quot;,&quot;G&quot;,&quot;E&quot;,&quot;L&quot;,&quot;U&quot;,&quot;K&quot;,&quot;V&quot;,&quot;E&quot;,&quot;M&quot;,&quot;I&quot;,&quot;N&quot;,&quot;N&quot;,&quot;I&quot;,&quot;I&quot;,&quot;R&quot;,&quot;I&quot;,&quot;K&quot;,&quot;K&quot;,&quot;O&quot;,&quot;B&quot;,&quot;E&quot;,&quot;B&quot;,&quot;R&quot;,&quot;O&quot;,&quot;E&quot;,&quot;K&quot;,&quot;Z&quot;,&quot;A&quot;,&quot;K&quot;,&quot;A&quot;,&quot;E&quot;,&quot;K&quot;,&quot;O&quot;,&quot;U&quot;,&quot;M&quot;,&quot;R&quot;,&quot;L&quot;,&quot;A&quot;,&quot;K&quot;,&quot;E&quot;,&quot;N&quot;,&quot;S&quot;,&quot;O&quot;,&quot;M&quot;,&quot;I&quot;,&quot;S&quot;,&quot;V&quot;,&quot;E&quot;,&quot;R&quot;,&quot;S&quot;,&quot;T&quot;,&quot;A&quot;,&quot;N&quot;,&quot;D&quot;,&quot;N&quot;,&quot;G&quot;,&quot;N&quot;]' eval 'numbers=[3,7,9,10,16,21,40,59,62,73,105,110,140,149]' eval counter=1 eval charIndex=0 begin grid -o '%cell*mm%' '%cell*mm%' %nCols% %nRows% eval '%isCell=_i in cells%' eval '%number=_i in numbers%' eval '%size=10 if isCell else 0%' rect 0 0 '%size*mm%' '%size*mm%' text -s 10 -p 0.5mm 1.5mm '%counter if number else '&quot;'&quot;''&quot;'&quot;'%' text -s 20 -p 5mm 5mm -a center '%chars[charIndex] if isCell else '&quot;'&quot;''&quot;'&quot;'%' eval '%if number: counter+=1 %' eval '%if isCell: charIndex+=1 %' end splitall deduplicate linemerge --tolerance 0.1mm write -m none --page-size '%width*mm%x%height*mm%' --center ./svgs/solution/69a94c.svg
</dc:source>
        <dc:date>2023-12-23T12:32:52.632687</dc:date>
      </cc:Work>
    </rdf:RDF>
  </metadata>
  <defs/>
  <g fill="none" id="layer1" inkscape:groupmode="layer" inkscape:label="1" stroke="#000000" style="display:inline">
    <polygon points="132.2835,17.0079 132.2835,54.8031 132.2835,54.8031 170.0787,54.8031 170.0787,54.8031 170.0787,17.0079 170.0787,17.0079"/>
    <polyline points="136.0482,20.1772 136.6732,19.8647 136.6732,19.8647 137.6107,18.9272 137.6107,18.9272 137.6107,25.4897"/>
    <polyline points="149.3061,28.4055 149.3061,37.7805 149.3061,37.7805 149.9311,39.6555 149.9311,39.6555 151.1811,40.9055 151.1811,40.9055 153.0561,41.5305 153.0561,41.5305 154.3061,41.5305 154.3061,41.5305 156.1811,40.9055 156.1811,40.9055 157.4311,39.6555 157.4311,39.6555 158.0561,37.7805 158.0561,37.7805 158.0561,28.4055"/>
    <polyline points="245.6693,54.8031 245.6693,92.5984 245.6693,92.5984 283.4646,92.5984 283.4646,92.5984 321.2598,92.5984 321.2598,92.5984 321.2598,130.3937 321.2598,130.3937 283.4646,130.3937 283.4646,130.3937 283.4646,92.5984 283.4646,92.5984 283.4646,54.8031 283.4646,54.8031 321.2598,54.8031 321.2598,54.8031 359.0551,54.8031 359.0551,54.8031 359.0551,92.5984 359.0551,92.5984 321.2598,92.5984 321.2598,92.5984 321.2598,54.8031 321.2598,54.8031 321.2598,17.0079 321.2598,17.0079 283.4646,17.0079 283.4646,17.0079 283.4646,54.8031 283.4646,54.8031 245.6693,54.8031 245.6693,54.8031 207.874,54.8031 207.874,54.8031 170.0787,54.8031 170.0787,54.8031 170.0787,92.5984 170.0787,92.5984 207.874,92.5984 207.874,92.5984 207.874,54.8031"/>
    <polyline points="286.6043,20.4897 286.6043,20.1772 286.6043,20.1772 286.9168,19.5522 286.9168,19.5522 287.2293,19.2397 287.2293,19.2397 287.8543,18.9272 287.8543,18.9272 289.1043,18.9272 289.1043,18.9272 289.7293,19.2397 289.7293,19.2397 290.0418,19.5522 290.0418,19.5522 290.3543,20.1772 290.3543,20.1772 290.3543,20.8022 290.3543,20.8022 290.0418,21.4272 290.0418,21.4272 289.4168,22.3647 289.4168,22.3647 286.2918,25.4897 286.2918,25.4897 290.6668,25.4897"/>
    <polyline points="300.4872,34.6555 306.1122,34.6555 306.1122,34.6555 307.9872,34.0305 307.9872,34.0305 308.6122,33.4055 308.6122,33.4055 309.2372,32.1555 309.2372,32.1555 309.2372,30.9055 309.2372,30.9055 308.6122,29.6555 308.6122,29.6555 307.9872,29.0305 307.9872,29.0305 306.1122,28.4055 306.1122,28.4055 300.4872,28.4055 300.4872,28.4055 300.4872,41.5305"/>
    <line x1="304.8622" x2="309.2372" y1="34.6555" y2="41.5305"/>
    <polygon points="359.0551,17.0079 359.0551,54.8031 359.0551,54.8031 396.8504,54.8031 396.8504,54.8031 396.8504,17.0079 396.8504,17.0079"/>
    <polyline points="362.5074,18.9272 365.9449,18.9272 365.9449,18.9272 364.0699,21.4272 364.0699,21.4272 365.0074,21.4272 365.0074,21.4272 365.6324,21.7397 365.6324,21.7397 365.9449,22.0522 365.9449,22.0522 366.2574,22.9897 366.2574,22.9897 366.2574,23.6147 366.2574,23.6147 365.9449,24.5522 365.9449,24.5522 365.3199,25.1772 365.3199,25.1772 364.3824,25.4897 364.3824,25.4897 363.4449,25.4897 363.4449,25.4897 362.5074,25.1772 362.5074,25.1772 362.1949,24.8647 362.1949,24.8647 361.8824,24.2397"/>
    <polyline points="384.5153,31.5305 383.8903,30.2805 383.8903,30.2805 382.6403,29.0305 382.6403,29.0305 381.3903,28.4055 381.3903,28.4055 378.8903,28.4055 378.8903,28.4055 377.6403,29.0305 377.6403,29.0305 376.3903,30.2805 376.3903,30.2805 375.7653,31.5305 375.7653,31.5305 375.1403,33.4055 375.1403,33.4055 375.1403,36.5305 375.1403,36.5305 375.7653,38.4055 375.7653,38.4055 376.3903,39.6555 376.3903,39.6555 377.6403,40.9055 377.6403,40.9055 378.8903,41.5305 378.8903,41.5305 381.3903,41.5305 381.3903,41.5305 382.6403,40.9055 382.6403,40.9055 383.8903,39.6555 383.8903,39.6555 384.5153,38.4055 384.5153,38.4055 384.5153,36.5305 384.5153,36.5305 381.3903,36.5305"/>
    <polyline points="359.0551,130.3937 359.0551,168.189 359.0551,168.189 321.2598,168.189 321.2598,168.189 321.2598,130.3937 321.2598,130.3937 359.0551,130.3937 359.0551,130.3937 396.8504,130.3937 396.8504,130.3937 396.8504,92.5984 396.8504,92.5984 396.8504,54.8031 396.8504,54.8031 434.6457,54.8031 434.6457,54.8031 434.6457,17.0079 434.6457,17.0079 396.8504,17.0079"/>
    <polyline points="402.8027,25.4897 402.8027,18.9272 402.8027,18.9272 399.6777,23.3022 399.6777,23.3022 404.3652,23.3022"/>
    <polyline points="413.873,34.6555 419.498,34.6555 419.498,34.6555 421.373,34.0305 421.373,34.0305 421.998,33.4055 421.998,33.4055 422.623,32.1555 422.623,32.1555 422.623,30.9055 422.623,30.9055 421.998,29.6555 421.998,29.6555 421.373,29.0305 421.373,29.0305 419.498,28.4055 419.498,28.4055 413.873,28.4055 413.873,28.4055 413.873,41.5305"/>
    <line x1="418.248" x2="422.623" y1="34.6555" y2="41.5305"/>
    <polyline points="396.8504,92.5984 434.6457,92.5984 434.6457,92.5984 434.6457,54.8031 434.6457,54.8031 472.4409,54.8031 472.4409,54.8031 472.4409,17.0079 472.4409,17.0079 434.6457,17.0079"/>
    <polygon points="454.1683,28.4055 452.9183,29.0305 452.9183,29.0305 451.6683,30.2805 451.6683,30.2805 451.0433,31.5305 451.0433,31.5305 450.4183,33.4055 450.4183,33.4055 450.4183,36.5305 450.4183,36.5305 451.0433,38.4055 451.0433,38.4055 451.6683,39.6555 451.6683,39.6555 452.9183,40.9055 452.9183,40.9055 454.1683,41.5305 454.1683,41.5305 456.6683,41.5305 456.6683,41.5305 457.9183,40.9055 457.9183,40.9055 459.1683,39.6555 459.1683,39.6555 459.7933,38.4055 459.7933,38.4055 460.4183,36.5305 460.4183,36.5305 460.4183,33.4055 460.4183,33.4055 459.7933,31.5305 459.7933,31.5305 459.1683,30.2805 459.1683,30.2805 457.9183,29.0305 457.9183,29.0305 456.6683,28.4055 456.6683,28.4055"/>
    <polyline points="472.4409,54.8031 510.2362,54.8031 510.2362,54.8031 548.0315,54.8031 548.0315,54.8031 548.0315,17.0079 548.0315,17.0079 510.2362,17.0079 510.2362,17.0079 472.4409,17.0079"/>
    <line x1="510.2362" x2="510.2362" y1="54.8031" y2="17.0079"/>
    <polyline points="497.9011,28.4055 489.7761,28.4055 489.7761,28.4055 489.7761,41.5305 489.7761,41.5305 497.9011,41.5305"/>
    <line x1="489.7761" x2="494.7761" y1="34.6555" y2="34.6555"/>
    <polyline points="527.2589,35.2805 532.8839,35.2805 532.8839,35.2805 534.7589,34.6555 534.7589,34.6555 535.3839,34.0305 535.3839,34.0305 536.0089,32.7805 536.0089,32.7805 536.0089,30.9055 536.0089,30.9055 535.3839,29.6555 535.3839,29.6555 534.7589,29.0305 534.7589,29.0305 532.8839,28.4055 532.8839,28.4055 527.2589,28.4055 527.2589,28.4055 527.2589,41.5305"/>
    <polyline points="548.0315,54.8031 585.8268,54.8031 585.8268,54.8031 585.8268,17.0079 585.8268,17.0079 548.0315,17.0079"/>
    <polyline points="573.1791,30.2805 571.9291,29.0305 571.9291,29.0305 570.0541,28.4055 570.0541,28.4055 567.5541,28.4055 567.5541,28.4055 565.6791,29.0305 565.6791,29.0305 564.4291,30.2805 564.4291,30.2805 564.4291,31.5305 564.4291,31.5305 565.0541,32.7805 565.0541,32.7805 565.6791,33.4055 565.6791,33.4055 566.9291,34.0305 566.9291,34.0305 570.6791,35.2805 570.6791,35.2805 571.9291,35.9055 571.9291,35.9055 572.5541,36.5305 572.5541,36.5305 573.1791,37.7805 573.1791,37.7805 573.1791,39.6555 573.1791,39.6555 571.9291,40.9055 571.9291,40.9055 570.0541,41.5305 570.0541,41.5305 567.5541,41.5305 567.5541,41.5305 565.6791,40.9055 565.6791,40.9055 564.4291,39.6555"/>
    <polyline points="585.8268,54.8031 623.622,54.8031 623.622,54.8031 623.622,92.5984 623.622,92.5984 661.4173,92.5984 661.4173,92.5984 661.4173,54.8031 661.4173,54.8031 699.2126,54.8031 699.2126,54.8031 699.2126,17.0079 699.2126,17.0079 661.4173,17.0079 661.4173,17.0079 623.622,17.0079 623.622,17.0079 585.8268,17.0079"/>
    <polyline points="661.4173,17.0079 661.4173,54.8031 661.4173,54.8031 623.622,54.8031 623.622,54.8031 623.622,17.0079"/>
    <polyline points="611.2869,28.4055 603.1619,28.4055 603.1619,28.4055 603.1619,41.5305"/>
    <line x1="603.1619" x2="608.1619" y1="34.6555" y2="34.6555"/>
    <polyline points="630.1993,18.9272 627.0743,18.9272 627.0743,18.9272 626.7618,21.7397 626.7618,21.7397 627.0743,21.4272 627.0743,21.4272 628.0118,21.1147 628.0118,21.1147 628.9493,21.1147 628.9493,21.1147 629.8868,21.4272 629.8868,21.4272 630.5118,22.0522 630.5118,22.0522 630.8243,22.9897 630.8243,22.9897 630.8243,23.6147 630.8243,23.6147 630.5118,24.5522 630.5118,24.5522 629.8868,25.1772 629.8868,25.1772 628.9493,25.4897 628.9493,25.4897 628.0118,25.4897 628.0118,25.4897 627.0743,25.1772 627.0743,25.1772 626.7618,24.8647 626.7618,24.8647 626.4493,24.2397"/>
    <polygon points="643.1447,28.4055 641.8947,29.0305 641.8947,29.0305 640.6447,30.2805 640.6447,30.2805 640.0197,31.5305 640.0197,31.5305 639.3947,33.4055 639.3947,33.4055 639.3947,36.5305 639.3947,36.5305 640.0197,38.4055 640.0197,38.4055 640.6447,39.6555 640.6447,39.6555 641.8947,40.9055 641.8947,40.9055 643.1447,41.5305 643.1447,41.5305 645.6447,41.5305 645.6447,41.5305 646.8947,40.9055 646.8947,40.9055 648.1447,39.6555 648.1447,39.6555 648.7697,38.4055 648.7697,38.4055 649.3947,36.5305 649.3947,36.5305 649.3947,33.4055 649.3947,33.4055 648.7697,31.5305 648.7697,31.5305 648.1447,30.2805 648.1447,30.2805 646.8947,29.0305 646.8947,29.0305 645.6447,28.4055 645.6447,28.4055"/>
    <line x1="680.94" x2="680.94" y1="28.4055" y2="41.5305"/>
    <line x1="676.565" x2="685.315" y1="28.4055" y2="28.4055"/>
    <polyline points="699.2126,54.8031 737.0079,54.8031 737.0079,54.8031 737.0079,17.0079 737.0079,17.0079 699.2126,17.0079"/>
    <polygon points="718.7352,28.4055 717.4852,29.0305 717.4852,29.0305 716.2352,30.2805 716.2352,30.2805 715.6102,31.5305 715.6102,31.5305 714.9852,33.4055 714.9852,33.4055 714.9852,36.5305 714.9852,36.5305 715.6102,38.4055 715.6102,38.4055 716.2352,39.6555 716.2352,39.6555 717.4852,40.9055 717.4852,40.9055 718.7352,41.5305 718.7352,41.5305 721.2352,41.5305 721.2352,41.5305 722.4852,40.9055 722.4852,40.9055 723.7352,39.6555 723.7352,39.6555 724.3602,38.4055 724.3602,38.4055 724.9852,36.5305 724.9852,36.5305 724.9852,33.4055 724.9852,33.4055 724.3602,31.5305 724.3602,31.5305 723.7352,30.2805 723.7352,30.2805 722.4852,29.0305 722.4852,29.0305 721.2352,28.4055 721.2352,28.4055"/>
    <polygon points="56.6929,54.8031 56.6929,92.5984 56.6929,92.5984 18.8976,92.5984 18.8976,92.5984 18.8976,130.3937 18.8976,130.3937 18.8976,168.189 18.8976,168.189 56.6929,168.189 56.6929,168.189 56.6929,130.3937 56.6929,130.3937 56.6929,92.5984 56.6929,92.5984 94.4882,92.5984 94.4882,92.5984 94.4882,54.8031 94.4882,54.8031"/>
    <polyline points="63.5827,57.6599 63.2702,57.0349 63.2702,57.0349 62.3327,56.7224 62.3327,56.7224 61.7077,56.7224 61.7077,56.7224 60.7702,57.0349 60.7702,57.0349 60.1452,57.9724 60.1452,57.9724 59.8327,59.5349 59.8327,59.5349 59.8327,61.0974 59.8327,61.0974 60.1452,62.3474 60.1452,62.3474 60.7702,62.9724 60.7702,62.9724 61.7077,63.2849 61.7077,63.2849 62.0202,63.2849 62.0202,63.2849 62.9577,62.9724 62.9577,62.9724 63.5827,62.3474 63.5827,62.3474 63.8952,61.4099 63.8952,61.4099 63.8952,61.0974 63.8952,61.0974 63.5827,60.1599 63.5827,60.1599 62.9577,59.5349 62.9577,59.5349 62.0202,59.2224 62.0202,59.2224 61.7077,59.2224 61.7077,59.2224 60.7702,59.5349 60.7702,59.5349 60.1452,60.1599 60.1452,60.1599 59.8327,61.0974"/>
    <polyline points="82.1531,66.2008 74.0281,66.2008 74.0281,66.2008 74.0281,79.3258"/>
    <line x1="74.0281" x2="79.0281" y1="72.4508" y2="72.4508"/>
    <polyline points="94.4882,92.5984 132.2835,92.5984 132.2835,92.5984 132.2835,54.8031 132.2835,54.8031 94.4882,54.8031"/>
    <polyline points="111.5108,72.4508 117.1358,72.4508 117.1358,72.4508 119.0108,71.8258 119.0108,71.8258 119.6358,71.2008 119.6358,71.2008 120.2608,69.9508 120.2608,69.9508 120.2608,68.7008 120.2608,68.7008 119.6358,67.4508 119.6358,67.4508 119.0108,66.8258 119.0108,66.8258 117.1358,66.2008 117.1358,66.2008 111.5108,66.2008 111.5108,66.2008 111.5108,79.3258"/>
    <line x1="115.8858" x2="120.2608" y1="72.4508" y2="79.3258"/>
    <polyline points="207.874,168.189 170.0787,168.189 170.0787,168.189 170.0787,130.3937 170.0787,130.3937 132.2835,130.3937 132.2835,130.3937 132.2835,168.189 132.2835,168.189 94.4882,168.189 94.4882,168.189 94.4882,130.3937 94.4882,130.3937 132.2835,130.3937 132.2835,130.3937 132.2835,92.5984 132.2835,92.5984 170.0787,92.5984 170.0787,92.5984 170.0787,130.3937 170.0787,130.3937 207.874,130.3937 207.874,130.3937 245.6693,130.3937 245.6693,130.3937 245.6693,168.189 245.6693,168.189 207.874,168.189 207.874,168.189 207.874,130.3937"/>
    <line x1="153.6811" x2="153.6811" y1="66.2008" y2="79.3258"/>
    <polyline points="195.5389,66.2008 187.4139,66.2008 187.4139,66.2008 187.4139,79.3258 187.4139,79.3258 195.5389,79.3258"/>
    <line x1="187.4139" x2="192.4139" y1="72.4508" y2="72.4508"/>
    <line x1="207.874" x2="245.6693" y1="92.5984" y2="92.5984"/>
    <line x1="227.3967" x2="227.3967" y1="66.2008" y2="79.3258"/>
    <line x1="223.0217" x2="231.7717" y1="66.2008" y2="66.2008"/>
    <polyline points="268.9419,66.2008 268.9419,76.2008 268.9419,76.2008 268.3169,78.0758 268.3169,78.0758 267.6919,78.7008 267.6919,78.7008 266.4419,79.3258 266.4419,79.3258 265.1919,79.3258 265.1919,79.3258 263.9419,78.7008 263.9419,78.7008 263.3169,78.0758 263.3169,78.0758 262.6919,76.2008 262.6919,76.2008 262.6919,74.9508"/>
    <polyline points="308.9247,66.2008 300.7997,66.2008 300.7997,66.2008 300.7997,79.3258 300.7997,79.3258 308.9247,79.3258"/>
    <line x1="300.7997" x2="305.7997" y1="72.4508" y2="72.4508"/>
    <polyline points="346.4075,68.0758 345.1575,66.8258 345.1575,66.8258 343.2825,66.2008 343.2825,66.2008 340.7825,66.2008 340.7825,66.2008 338.9075,66.8258 338.9075,66.8258 337.6575,68.0758 337.6575,68.0758 337.6575,69.3258 337.6575,69.3258 338.2825,70.5758 338.2825,70.5758 338.9075,71.2008 338.9075,71.2008 340.1575,71.8258 340.1575,71.8258 343.9075,73.0758 343.9075,73.0758 345.1575,73.7008 345.1575,73.7008 345.7825,74.3258 345.7825,74.3258 346.4075,75.5758 346.4075,75.5758 346.4075,77.4508 346.4075,77.4508 345.1575,78.7008 345.1575,78.7008 343.2825,79.3258 343.2825,79.3258 340.7825,79.3258 340.7825,79.3258 338.9075,78.7008 338.9075,78.7008 337.6575,77.4508"/>
    <polyline points="422.3105,66.2008 414.1855,66.2008 414.1855,66.2008 414.1855,79.3258 414.1855,79.3258 422.3105,79.3258"/>
    <line x1="414.1855" x2="419.1855" y1="72.4508" y2="72.4508"/>
    <polyline points="641.2697,66.2008 641.2697,79.3258 641.2697,79.3258 648.7697,79.3258"/>
    <line x1="18.8976" x2="56.6929" y1="130.3937" y2="130.3937"/>
    <polyline points="21.7249,94.5177 26.0999,94.5177 26.0999,94.5177 22.9749,101.0802"/>
    <line x1="35.9203" x2="35.9203" y1="103.9961" y2="117.1211"/>
    <line x1="44.6703" x2="35.9203" y1="103.9961" y2="112.7461"/>
    <line x1="39.0453" x2="44.6703" y1="109.6211" y2="117.1211"/>
    <line x1="151.8061" x2="151.8061" y1="103.9961" y2="117.1211"/>
    <line x1="147.4311" x2="156.1811" y1="103.9961" y2="103.9961"/>
    <polyline points="308.9247,107.1211 308.2997,105.8711 308.2997,105.8711 307.0497,104.6211 307.0497,104.6211 305.7997,103.9961 305.7997,103.9961 303.2997,103.9961 303.2997,103.9961 302.0497,104.6211 302.0497,104.6211 300.7997,105.8711 300.7997,105.8711 300.1747,107.1211 300.1747,107.1211 299.5497,108.9961 299.5497,108.9961 299.5497,112.1211 299.5497,112.1211 300.1747,113.9961 300.1747,113.9961 300.7997,115.2461 300.7997,115.2461 302.0497,116.4961 302.0497,116.4961 303.2997,117.1211 303.2997,117.1211 305.7997,117.1211 305.7997,117.1211 307.0497,116.4961 307.0497,116.4961 308.2997,115.2461 308.2997,115.2461 308.9247,113.9961 308.9247,113.9961 308.9247,112.1211 308.9247,112.1211 305.7997,112.1211"/>
    <polyline points="510.2362,130.3937 548.0315,130.3937 548.0315,130.3937 548.0315,168.189 548.0315,168.189 510.2362,168.189 510.2362,168.189 510.2362,130.3937 510.2362,130.3937 472.4409,130.3937 472.4409,130.3937 434.6457,130.3937 434.6457,130.3937 434.6457,168.189 434.6457,168.189 434.6457,205.9843 434.6457,205.9843 396.8504,205.9843 396.8504,205.9843 396.8504,168.189 396.8504,168.189 396.8504,130.3937 396.8504,130.3937 434.6457,130.3937 434.6457,130.3937 434.6457,92.5984"/>
    <polyline points="422.3105,107.1211 421.6855,105.8711 421.6855,105.8711 420.4355,104.6211 420.4355,104.6211 419.1855,103.9961 419.1855,103.9961 416.6855,103.9961 416.6855,103.9961 415.4355,104.6211 415.4355,104.6211 414.1855,105.8711 414.1855,105.8711 413.5605,107.1211 413.5605,107.1211 412.9355,108.9961 412.9355,108.9961 412.9355,112.1211 412.9355,112.1211 413.5605,113.9961 413.5605,113.9961 414.1855,115.2461 414.1855,115.2461 415.4355,116.4961 415.4355,116.4961 416.6855,117.1211 416.6855,117.1211 419.1855,117.1211 419.1855,117.1211 420.4355,116.4961 420.4355,116.4961 421.6855,115.2461 421.6855,115.2461 422.3105,113.9961 422.3105,113.9961 422.3105,112.1211 422.3105,112.1211 419.1855,112.1211"/>
    <polyline points="623.622,92.5984 623.622,130.3937 623.622,130.3937 623.622,168.189 623.622,168.189 623.622,205.9843 623.622,205.9843 585.8268,205.9843 585.8268,205.9843 548.0315,205.9843 548.0315,205.9843 548.0315,168.189"/>
    <polyline points="623.622,130.3937 661.4173,130.3937 661.4173,130.3937 661.4173,92.5984"/>
    <line x1="645.0197" x2="645.0197" y1="103.9961" y2="117.1211"/>
    <polygon points="737.0079,92.5984 737.0079,130.3937 737.0079,130.3937 737.0079,168.189 737.0079,168.189 737.0079,205.9843 737.0079,205.9843 737.0079,243.7795 737.0079,243.7795 774.8031,243.7795 774.8031,243.7795 774.8031,205.9843 774.8031,205.9843 774.8031,168.189 774.8031,168.189 774.8031,130.3937 774.8031,130.3937 774.8031,92.5984 774.8031,92.5984"/>
    <line x1="737.0079" x2="774.8031" y1="130.3937" y2="130.3937"/>
    <polygon points="741.3976,94.5177 740.4601,94.8302 740.4601,94.8302 740.1476,95.4552 740.1476,95.4552 740.1476,96.0802 740.1476,96.0802 740.4601,96.7052 740.4601,96.7052 741.0851,97.0177 741.0851,97.0177 742.3351,97.3302 742.3351,97.3302 743.2726,97.6427 743.2726,97.6427 743.8976,98.2677 743.8976,98.2677 744.2101,98.8927 744.2101,98.8927 744.2101,99.8302 744.2101,99.8302 743.8976,100.4552 743.8976,100.4552 743.5851,100.7677 743.5851,100.7677 742.6476,101.0802 742.6476,101.0802 741.3976,101.0802 741.3976,101.0802 740.4601,100.7677 740.4601,100.7677 740.1476,100.4552 740.1476,100.4552 739.8351,99.8302 739.8351,99.8302 739.8351,98.8927 739.8351,98.8927 740.1476,98.2677 740.1476,98.2677 740.7726,97.6427 740.7726,97.6427 741.7101,97.3302 741.7101,97.3302 742.9601,97.0177 742.9601,97.0177 743.5851,96.7052 743.5851,96.7052 743.8976,96.0802 743.8976,96.0802 743.8976,95.4552 743.8976,95.4552 743.5851,94.8302 743.5851,94.8302 742.6476,94.5177 742.6476,94.5177"/>
    <polyline points="762.468,107.1211 761.843,105.8711 761.843,105.8711 760.593,104.6211 760.593,104.6211 759.343,103.9961 759.343,103.9961 756.843,103.9961 756.843,103.9961 755.593,104.6211 755.593,104.6211 754.343,105.8711 754.343,105.8711 753.718,107.1211 753.718,107.1211 753.093,108.9961 753.093,108.9961 753.093,112.1211 753.093,112.1211 753.718,113.9961 753.718,113.9961 754.343,115.2461 754.343,115.2461 755.593,116.4961 755.593,116.4961 756.843,117.1211 756.843,117.1211 759.343,117.1211 759.343,117.1211 760.593,116.4961 760.593,116.4961 761.843,115.2461 761.843,115.2461 762.468,113.9961 762.468,113.9961 762.468,112.1211 762.468,112.1211 759.343,112.1211"/>
    <polyline points="43.4203,154.9163 38.4203,141.7913 38.4203,141.7913 33.4203,154.9163"/>
    <line x1="35.2953" x2="41.5453" y1="150.5413" y2="150.5413"/>
    <polyline points="101.378,134.5005 101.0655,135.438 101.0655,135.438 100.4405,136.063 100.4405,136.063 99.503,136.3755 99.503,136.3755 99.1905,136.3755 99.1905,136.3755 98.253,136.063 98.253,136.063 97.628,135.438 97.628,135.438 97.3155,134.5005 97.3155,134.5005 97.3155,134.188 97.3155,134.188 97.628,133.2505 97.628,133.2505 98.253,132.6255 98.253,132.6255 99.1905,132.313 99.1905,132.313 99.503,132.313 99.503,132.313 100.4405,132.6255 100.4405,132.6255 101.0655,133.2505 101.0655,133.2505 101.378,134.5005 101.378,134.5005 101.378,136.063 101.378,136.063 101.0655,137.6255 101.0655,137.6255 100.4405,138.563 100.4405,138.563 99.503,138.8755 99.503,138.8755 98.878,138.8755 98.878,138.8755 97.9405,138.563 97.9405,138.563 97.628,137.938"/>
    <polyline points="119.9483,141.7913 111.8233,141.7913 111.8233,141.7913 111.8233,154.9163"/>
    <line x1="111.8233" x2="116.8233" y1="148.0413" y2="148.0413"/>
    <polyline points="132.2835,205.9843 132.2835,168.189 132.2835,168.189 170.0787,168.189 170.0787,168.189 170.0787,205.9843 170.0787,205.9843 132.2835,205.9843 132.2835,205.9843 132.2835,243.7795 132.2835,243.7795 170.0787,243.7795 170.0787,243.7795 170.0787,205.9843"/>
    <polyline points="149.9311,141.7913 149.9311,154.9163 149.9311,154.9163 157.4311,154.9163"/>
    <polyline points="195.5389,141.7913 187.4139,141.7913 187.4139,141.7913 187.4139,154.9163 187.4139,154.9163 195.5389,154.9163"/>
    <line x1="187.4139" x2="192.4139" y1="148.0413" y2="148.0413"/>
    <polyline points="233.0217,143.6663 231.7717,142.4163 231.7717,142.4163 229.8967,141.7913 229.8967,141.7913 227.3967,141.7913 227.3967,141.7913 225.5217,142.4163 225.5217,142.4163 224.2717,143.6663 224.2717,143.6663 224.2717,144.9163 224.2717,144.9163 224.8967,146.1663 224.8967,146.1663 225.5217,146.7913 225.5217,146.7913 226.7717,147.4163 226.7717,147.4163 230.5217,148.6663 230.5217,148.6663 231.7717,149.2913 231.7717,149.2913 232.3967,149.9163 232.3967,149.9163 233.0217,151.1663 233.0217,151.1663 233.0217,153.0413 233.0217,153.0413 231.7717,154.2913 231.7717,154.2913 229.8967,154.9163 229.8967,154.9163 227.3967,154.9163 227.3967,154.9163 225.5217,154.2913 225.5217,154.2913 224.2717,153.0413"/>
    <polyline points="245.6693,168.189 283.4646,168.189 283.4646,168.189 283.4646,205.9843 283.4646,205.9843 245.6693,205.9843 245.6693,205.9843 207.874,205.9843 207.874,205.9843 207.874,243.7795 207.874,243.7795 245.6693,243.7795 245.6693,243.7795 245.6693,205.9843"/>
    <polyline points="321.2598,281.5748 321.2598,319.3701 321.2598,319.3701 321.2598,357.1654 321.2598,357.1654 283.4646,357.1654 283.4646,357.1654 283.4646,319.3701 283.4646,319.3701 283.4646,281.5748 283.4646,281.5748 321.2598,281.5748 321.2598,281.5748 321.2598,243.7795 321.2598,243.7795 321.2598,205.9843 321.2598,205.9843 359.0551,205.9843 359.0551,205.9843 359.0551,243.7795 359.0551,243.7795 321.2598,243.7795 321.2598,243.7795 283.4646,243.7795 283.4646,243.7795 283.4646,205.9843 283.4646,205.9843 321.2598,205.9843 321.2598,205.9843 321.2598,168.189 321.2598,168.189 283.4646,168.189 283.4646,168.189 283.4646,130.3937 283.4646,130.3937 245.6693,130.3937"/>
    <polyline points="270.8169,143.6663 269.5669,142.4163 269.5669,142.4163 267.6919,141.7913 267.6919,141.7913 265.1919,141.7913 265.1919,141.7913 263.3169,142.4163 263.3169,142.4163 262.0669,143.6663 262.0669,143.6663 262.0669,144.9163 262.0669,144.9163 262.6919,146.1663 262.6919,146.1663 263.3169,146.7913 263.3169,146.7913 264.5669,147.4163 264.5669,147.4163 268.3169,148.6663 268.3169,148.6663 269.5669,149.2913 269.5669,149.2913 270.1919,149.9163 270.1919,149.9163 270.8169,151.1663 270.8169,151.1663 270.8169,153.0413 270.8169,153.0413 269.5669,154.2913 269.5669,154.2913 267.6919,154.9163 267.6919,154.9163 265.1919,154.9163 265.1919,154.9163 263.3169,154.2913 263.3169,154.2913 262.0669,153.0413"/>
    <polyline points="308.9247,141.7913 300.7997,141.7913 300.7997,141.7913 300.7997,154.9163 300.7997,154.9163 308.9247,154.9163"/>
    <line x1="300.7997" x2="305.7997" y1="148.0413" y2="148.0413"/>
    <polyline points="347.0325,141.7913 347.0325,154.9163 347.0325,154.9163 338.2825,141.7913 338.2825,141.7913 338.2825,154.9163"/>
    <polyline points="359.0551,168.189 396.8504,168.189 396.8504,168.189 434.6457,168.189 434.6457,168.189 472.4409,168.189 472.4409,168.189 472.4409,130.3937"/>
    <polyline points="384.5153,144.9163 383.8903,143.6663 383.8903,143.6663 382.6403,142.4163 382.6403,142.4163 381.3903,141.7913 381.3903,141.7913 378.8903,141.7913 378.8903,141.7913 377.6403,142.4163 377.6403,142.4163 376.3903,143.6663 376.3903,143.6663 375.7653,144.9163 375.7653,144.9163 375.1403,146.7913 375.1403,146.7913 375.1403,149.9163 375.1403,149.9163 375.7653,151.7913 375.7653,151.7913 376.3903,153.0413 376.3903,153.0413 377.6403,154.2913 377.6403,154.2913 378.8903,154.9163 378.8903,154.9163 381.3903,154.9163 381.3903,154.9163 382.6403,154.2913 382.6403,154.2913 383.8903,153.0413 383.8903,153.0413 384.5153,151.7913 384.5153,151.7913 384.5153,149.9163 384.5153,149.9163 381.3903,149.9163"/>
    <polyline points="422.3105,141.7913 414.1855,141.7913 414.1855,141.7913 414.1855,154.9163 414.1855,154.9163 422.3105,154.9163"/>
    <line x1="414.1855" x2="419.1855" y1="148.0413" y2="148.0413"/>
    <polyline points="452.2933,141.7913 452.2933,154.9163 452.2933,154.9163 459.7933,154.9163"/>
    <polyline points="472.4409,168.189 510.2362,168.189 510.2362,168.189 510.2362,205.9843 510.2362,205.9843 548.0315,205.9843 548.0315,205.9843 548.0315,243.7795 548.0315,243.7795 585.8268,243.7795 585.8268,243.7795 585.8268,205.9843"/>
    <polyline points="489.4636,141.7913 489.4636,151.1663 489.4636,151.1663 490.0886,153.0413 490.0886,153.0413 491.3386,154.2913 491.3386,154.2913 493.2136,154.9163 493.2136,154.9163 494.4636,154.9163 494.4636,154.9163 496.3386,154.2913 496.3386,154.2913 497.5886,153.0413 497.5886,153.0413 498.2136,151.1663 498.2136,151.1663 498.2136,141.7913"/>
    <polyline points="514.001,133.563 514.626,133.2505 514.626,133.2505 515.5635,132.313 515.5635,132.313 515.5635,138.8755"/>
    <polygon points="521.1885,132.313 520.251,132.6255 520.251,132.6255 519.626,133.563 519.626,133.563 519.3135,135.1255 519.3135,135.1255 519.3135,136.063 519.3135,136.063 519.626,137.6255 519.626,137.6255 520.251,138.563 520.251,138.563 521.1885,138.8755 521.1885,138.8755 521.8135,138.8755 521.8135,138.8755 522.751,138.563 522.751,138.563 523.376,137.6255 523.376,137.6255 523.6885,136.063 523.6885,136.063 523.6885,135.1255 523.6885,135.1255 523.376,133.563 523.376,133.563 522.751,132.6255 522.751,132.6255 521.8135,132.313 521.8135,132.313"/>
    <line x1="527.2589" x2="527.2589" y1="141.7913" y2="154.9163"/>
    <line x1="536.0089" x2="527.2589" y1="141.7913" y2="150.5413"/>
    <line x1="530.3839" x2="536.0089" y1="147.4163" y2="154.9163"/>
    <polyline points="623.622,168.189 661.4173,168.189 661.4173,168.189 661.4173,130.3937"/>
    <polyline points="638.1447,141.7913 643.1447,154.9163 643.1447,154.9163 648.1447,141.7913"/>
    <line x1="737.0079" x2="774.8031" y1="168.189" y2="168.189"/>
    <polyline points="762.468,141.7913 754.343,141.7913 754.343,141.7913 754.343,154.9163 754.343,154.9163 762.468,154.9163"/>
    <line x1="754.343" x2="759.343" y1="148.0413" y2="148.0413"/>
    <polyline points="18.8976,168.189 18.8976,205.9843 18.8976,205.9843 18.8976,243.7795 18.8976,243.7795 56.6929,243.7795 56.6929,243.7795 56.6929,205.9843 56.6929,205.9843 56.6929,168.189"/>
    <line x1="18.8976" x2="56.6929" y1="205.9843" y2="205.9843"/>
    <polyline points="45.2953,192.7116 45.2953,179.5866 45.2953,179.5866 40.2953,192.7116 40.2953,192.7116 35.2953,179.5866 35.2953,179.5866 35.2953,192.7116"/>
    <line x1="153.6811" x2="153.6811" y1="179.5866" y2="192.7116"/>
    <polyline points="309.2372,179.5866 309.2372,192.7116 309.2372,192.7116 300.4872,179.5866 300.4872,179.5866 300.4872,192.7116"/>
    <polyline points="422.623,179.5866 422.623,192.7116 422.623,192.7116 413.873,179.5866 413.873,179.5866 413.873,192.7116"/>
    <line x1="531.6339" x2="531.6339" y1="179.5866" y2="192.7116"/>
    <polyline points="661.4173,243.7795 699.2126,243.7795 699.2126,243.7795 699.2126,205.9843 699.2126,205.9843 661.4173,205.9843 661.4173,205.9843 661.4173,243.7795 661.4173,243.7795 623.622,243.7795 623.622,243.7795 623.622,205.9843 623.622,205.9843 661.4173,205.9843 661.4173,205.9843 661.4173,168.189"/>
    <line x1="645.0197" x2="645.0197" y1="179.5866" y2="192.7116"/>
    <line x1="737.0079" x2="774.8031" y1="205.9843" y2="205.9843"/>
    <polyline points="754.0305,185.8366 759.6555,185.8366 759.6555,185.8366 761.5305,185.2116 761.5305,185.2116 762.1555,184.5866 762.1555,184.5866 762.7805,183.3366 762.7805,183.3366 762.7805,182.0866 762.7805,182.0866 762.1555,180.8366 762.1555,180.8366 761.5305,180.2116 761.5305,180.2116 759.6555,179.5866 759.6555,179.5866 754.0305,179.5866 754.0305,179.5866 754.0305,192.7116"/>
    <line x1="758.4055" x2="762.7805" y1="185.8366" y2="192.7116"/>
    <line x1="40.2953" x2="40.2953" y1="217.3819" y2="230.5069"/>
    <line x1="149.3061" x2="149.3061" y1="217.3819" y2="230.5069"/>
    <line x1="158.0561" x2="149.3061" y1="217.3819" y2="226.1319"/>
    <line x1="152.4311" x2="158.0561" y1="223.0069" y2="230.5069"/>
    <polyline points="211.6388,209.1535 212.2638,208.841 212.2638,208.841 213.2013,207.9035 213.2013,207.9035 213.2013,214.466"/>
    <polyline points="217.8888,209.1535 218.5138,208.841 218.5138,208.841 219.4513,207.9035 219.4513,207.9035 219.4513,214.466"/>
    <line x1="224.8967" x2="224.8967" y1="217.3819" y2="230.5069"/>
    <line x1="233.6467" x2="224.8967" y1="217.3819" y2="226.1319"/>
    <line x1="228.0217" x2="233.6467" y1="223.0069" y2="230.5069"/>
    <polyline points="245.6693,243.7795 283.4646,243.7795 283.4646,243.7795 283.4646,281.5748"/>
    <polygon points="265.1919,217.3819 263.9419,218.0069 263.9419,218.0069 262.6919,219.2569 262.6919,219.2569 262.0669,220.5069 262.0669,220.5069 261.4419,222.3819 261.4419,222.3819 261.4419,225.5069 261.4419,225.5069 262.0669,227.3819 262.0669,227.3819 262.6919,228.6319 262.6919,228.6319 263.9419,229.8819 263.9419,229.8819 265.1919,230.5069 265.1919,230.5069 267.6919,230.5069 267.6919,230.5069 268.9419,229.8819 268.9419,229.8819 270.1919,228.6319 270.1919,228.6319 270.8169,227.3819 270.8169,227.3819 271.4419,225.5069 271.4419,225.5069 271.4419,222.3819 271.4419,222.3819 270.8169,220.5069 270.8169,220.5069 270.1919,219.2569 270.1919,219.2569 268.9419,218.0069 268.9419,218.0069 267.6919,217.3819 267.6919,217.3819"/>
    <polyline points="306.1122,223.6319 307.9872,223.0069 307.9872,223.0069 308.6122,222.3819 308.6122,222.3819 309.2372,221.1319 309.2372,221.1319 309.2372,219.8819 309.2372,219.8819 308.6122,218.6319 308.6122,218.6319 307.9872,218.0069 307.9872,218.0069 306.1122,217.3819 306.1122,217.3819 300.4872,217.3819 300.4872,217.3819 300.4872,230.5069 300.4872,230.5069 306.1122,230.5069 306.1122,230.5069 307.9872,229.8819 307.9872,229.8819 308.6122,229.2569 308.6122,229.2569 309.2372,228.0069 309.2372,228.0069 309.2372,226.1319 309.2372,226.1319 308.6122,224.8819 308.6122,224.8819 307.9872,224.2569 307.9872,224.2569 306.1122,223.6319 306.1122,223.6319 300.4872,223.6319"/>
    <polyline points="346.72,217.3819 338.595,217.3819 338.595,217.3819 338.595,230.5069 338.595,230.5069 346.72,230.5069"/>
    <line x1="338.595" x2="343.595" y1="223.6319" y2="223.6319"/>
    <polyline points="396.8504,205.9843 396.8504,243.7795 396.8504,243.7795 434.6457,243.7795 434.6457,243.7795 434.6457,205.9843 434.6457,205.9843 472.4409,205.9843 472.4409,205.9843 510.2362,205.9843 510.2362,205.9843 510.2362,243.7795 510.2362,243.7795 548.0315,243.7795 548.0315,243.7795 548.0315,281.5748 548.0315,281.5748 510.2362,281.5748 510.2362,281.5748 472.4409,281.5748 472.4409,281.5748 434.6457,281.5748 434.6457,281.5748 434.6457,243.7795 434.6457,243.7795 472.4409,243.7795 472.4409,243.7795 472.4409,205.9843"/>
    <polyline points="400.6152,209.1535 401.2402,208.841 401.2402,208.841 402.1777,207.9035 402.1777,207.9035 402.1777,214.466"/>
    <polyline points="406.2402,209.466 406.2402,209.1535 406.2402,209.1535 406.5527,208.5285 406.5527,208.5285 406.8652,208.216 406.8652,208.216 407.4902,207.9035 407.4902,207.9035 408.7402,207.9035 408.7402,207.9035 409.3652,208.216 409.3652,208.216 409.6777,208.5285 409.6777,208.5285 409.9902,209.1535 409.9902,209.1535 409.9902,209.7785 409.9902,209.7785 409.6777,210.4035 409.6777,210.4035 409.0527,211.341 409.0527,211.341 405.9277,214.466 405.9277,214.466 410.3027,214.466"/>
    <polygon points="413.873,217.3819 413.873,230.5069 413.873,230.5069 419.498,230.5069 419.498,230.5069 421.373,229.8819 421.373,229.8819 421.998,229.2569 421.998,229.2569 422.623,228.0069 422.623,228.0069 422.623,226.1319 422.623,226.1319 421.998,224.8819 421.998,224.8819 421.373,224.2569 421.373,224.2569 419.498,223.6319 419.498,223.6319 421.373,223.0069 421.373,223.0069 421.998,222.3819 421.998,222.3819 422.623,221.1319 422.623,221.1319 422.623,219.8819 422.623,219.8819 421.998,218.6319 421.998,218.6319 421.373,218.0069 421.373,218.0069 419.498,217.3819 419.498,217.3819"/>
    <line x1="413.873" x2="419.498" y1="223.6319" y2="223.6319"/>
    <polyline points="451.6683,223.6319 457.2933,223.6319 457.2933,223.6319 459.1683,223.0069 459.1683,223.0069 459.7933,222.3819 459.7933,222.3819 460.4183,221.1319 460.4183,221.1319 460.4183,219.8819 460.4183,219.8819 459.7933,218.6319 459.7933,218.6319 459.1683,218.0069 459.1683,218.0069 457.2933,217.3819 457.2933,217.3819 451.6683,217.3819 451.6683,217.3819 451.6683,230.5069"/>
    <line x1="456.0433" x2="460.4183" y1="223.6319" y2="230.5069"/>
    <polyline points="472.4409,243.7795 510.2362,243.7795 510.2362,243.7795 510.2362,281.5748 510.2362,281.5748 510.2362,319.3701 510.2362,319.3701 548.0315,319.3701 548.0315,319.3701 585.8268,319.3701 585.8268,319.3701 585.8268,281.5748 585.8268,281.5748 548.0315,281.5748 548.0315,281.5748 548.0315,319.3701 548.0315,319.3701 548.0315,357.1654 548.0315,357.1654 510.2362,357.1654 510.2362,357.1654 510.2362,319.3701 510.2362,319.3701 472.4409,319.3701 472.4409,319.3701 472.4409,281.5748"/>
    <polygon points="491.9636,217.3819 490.7136,218.0069 490.7136,218.0069 489.4636,219.2569 489.4636,219.2569 488.8386,220.5069 488.8386,220.5069 488.2136,222.3819 488.2136,222.3819 488.2136,225.5069 488.2136,225.5069 488.8386,227.3819 488.8386,227.3819 489.4636,228.6319 489.4636,228.6319 490.7136,229.8819 490.7136,229.8819 491.9636,230.5069 491.9636,230.5069 494.4636,230.5069 494.4636,230.5069 495.7136,229.8819 495.7136,229.8819 496.9636,228.6319 496.9636,228.6319 497.5886,227.3819 497.5886,227.3819 498.2136,225.5069 498.2136,225.5069 498.2136,222.3819 498.2136,222.3819 497.5886,220.5069 497.5886,220.5069 496.9636,219.2569 496.9636,219.2569 495.7136,218.0069 495.7136,218.0069 494.4636,217.3819 494.4636,217.3819"/>
    <polyline points="535.6964,217.3819 527.5714,217.3819 527.5714,217.3819 527.5714,230.5069 527.5714,230.5069 535.6964,230.5069"/>
    <line x1="527.5714" x2="532.5714" y1="223.6319" y2="223.6319"/>
    <line x1="565.0541" x2="565.0541" y1="217.3819" y2="230.5069"/>
    <line x1="573.8041" x2="565.0541" y1="217.3819" y2="226.1319"/>
    <line x1="568.1791" x2="573.8041" y1="223.0069" y2="230.5069"/>
    <line x1="585.8268" x2="623.622" y1="243.7795" y2="243.7795"/>
    <polyline points="602.2244,217.3819 610.9744,217.3819 610.9744,217.3819 602.2244,230.5069 602.2244,230.5069 610.9744,230.5069"/>
    <polyline points="648.1447,230.5069 643.1447,217.3819 643.1447,217.3819 638.1447,230.5069"/>
    <line x1="640.0197" x2="646.2697" y1="226.1319" y2="226.1319"/>
    <line x1="678.44" x2="678.44" y1="217.3819" y2="230.5069"/>
    <line x1="687.19" x2="678.44" y1="217.3819" y2="226.1319"/>
    <line x1="681.565" x2="687.19" y1="223.0069" y2="230.5069"/>
    <polyline points="761.5305,230.5069 756.5305,217.3819 756.5305,217.3819 751.5305,230.5069"/>
    <line x1="753.4055" x2="759.6555" y1="226.1319" y2="226.1319"/>
    <polyline points="18.8976,243.7795 18.8976,281.5748 18.8976,281.5748 56.6929,281.5748 56.6929,281.5748 56.6929,243.7795"/>
    <polyline points="44.3578,255.1772 36.2328,255.1772 36.2328,255.1772 36.2328,268.3022 36.2328,268.3022 44.3578,268.3022"/>
    <line x1="36.2328" x2="41.2328" y1="261.4272" y2="261.4272"/>
    <polyline points="132.2835,243.7795 132.2835,281.5748 132.2835,281.5748 94.4882,281.5748 94.4882,281.5748 56.6929,281.5748 56.6929,281.5748 56.6929,319.3701 56.6929,319.3701 94.4882,319.3701 94.4882,319.3701 94.4882,281.5748"/>
    <polyline points="94.4882,319.3701 132.2835,319.3701 132.2835,319.3701 132.2835,357.1654 132.2835,357.1654 170.0787,357.1654 170.0787,357.1654 170.0787,319.3701 170.0787,319.3701 170.0787,281.5748 170.0787,281.5748 207.874,281.5748 207.874,281.5748 207.874,319.3701 207.874,319.3701 170.0787,319.3701 170.0787,319.3701 132.2835,319.3701 132.2835,319.3701 132.2835,281.5748 132.2835,281.5748 170.0787,281.5748 170.0787,281.5748 170.0787,243.7795"/>
    <line x1="149.3061" x2="149.3061" y1="255.1772" y2="268.3022"/>
    <line x1="158.0561" x2="149.3061" y1="255.1772" y2="263.9272"/>
    <line x1="152.4311" x2="158.0561" y1="260.8022" y2="268.3022"/>
    <polygon points="302.9872,255.1772 301.7372,255.8022 301.7372,255.8022 300.4872,257.0522 300.4872,257.0522 299.8622,258.3022 299.8622,258.3022 299.2372,260.1772 299.2372,260.1772 299.2372,263.3022 299.2372,263.3022 299.8622,265.1772 299.8622,265.1772 300.4872,266.4272 300.4872,266.4272 301.7372,267.6772 301.7372,267.6772 302.9872,268.3022 302.9872,268.3022 305.4872,268.3022 305.4872,268.3022 306.7372,267.6772 306.7372,267.6772 307.9872,266.4272 307.9872,266.4272 308.6122,265.1772 308.6122,265.1772 309.2372,263.3022 309.2372,263.3022 309.2372,260.1772 309.2372,260.1772 308.6122,258.3022 308.6122,258.3022 307.9872,257.0522 307.9872,257.0522 306.7372,255.8022 306.7372,255.8022 305.4872,255.1772 305.4872,255.1772"/>
    <polyline points="396.8504,243.7795 396.8504,281.5748 396.8504,281.5748 359.0551,281.5748 359.0551,281.5748 359.0551,319.3701 359.0551,319.3701 396.8504,319.3701 396.8504,319.3701 434.6457,319.3701 434.6457,319.3701 434.6457,281.5748 434.6457,281.5748 396.8504,281.5748 396.8504,281.5748 396.8504,319.3701"/>
    <polyline points="413.873,255.1772 413.873,264.5522 413.873,264.5522 414.498,266.4272 414.498,266.4272 415.748,267.6772 415.748,267.6772 417.623,268.3022 417.623,268.3022 418.873,268.3022 418.873,268.3022 420.748,267.6772 420.748,267.6772 421.998,266.4272 421.998,266.4272 422.623,264.5522 422.623,264.5522 422.623,255.1772"/>
    <polyline points="536.6339,268.3022 536.6339,255.1772 536.6339,255.1772 531.6339,268.3022 531.6339,268.3022 526.6339,255.1772 526.6339,255.1772 526.6339,268.3022"/>
    <polyline points="737.0079,243.7795 737.0079,281.5748 737.0079,281.5748 699.2126,281.5748 699.2126,281.5748 661.4173,281.5748 661.4173,281.5748 623.622,281.5748 623.622,281.5748 585.8268,281.5748"/>
    <polyline points="774.8031,281.5748 774.8031,319.3701 774.8031,319.3701 737.0079,319.3701 737.0079,319.3701 737.0079,281.5748 737.0079,281.5748 774.8031,281.5748 774.8031,281.5748 774.8031,243.7795"/>
    <polyline points="754.0305,261.4272 759.6555,261.4272 759.6555,261.4272 761.5305,260.8022 761.5305,260.8022 762.1555,260.1772 762.1555,260.1772 762.7805,258.9272 762.7805,258.9272 762.7805,257.6772 762.7805,257.6772 762.1555,256.4272 762.1555,256.4272 761.5305,255.8022 761.5305,255.8022 759.6555,255.1772 759.6555,255.1772 754.0305,255.1772 754.0305,255.1772 754.0305,268.3022"/>
    <line x1="758.4055" x2="762.7805" y1="261.4272" y2="268.3022"/>
    <polyline points="18.8976,281.5748 18.8976,319.3701 18.8976,319.3701 56.6929,319.3701"/>
    <polyline points="22.6624,284.7441 23.2874,284.4316 23.2874,284.4316 24.2249,283.4941 24.2249,283.4941 24.2249,290.0566"/>
    <polyline points="28.5999,283.4941 32.0374,283.4941 32.0374,283.4941 30.1624,285.9941 30.1624,285.9941 31.0999,285.9941 31.0999,285.9941 31.7249,286.3066 31.7249,286.3066 32.0374,286.6191 32.0374,286.6191 32.3499,287.5566 32.3499,287.5566 32.3499,288.1816 32.3499,288.1816 32.0374,289.1191 32.0374,289.1191 31.4124,289.7441 31.4124,289.7441 30.4749,290.0566 30.4749,290.0566 29.5374,290.0566 29.5374,290.0566 28.5999,289.7441 28.5999,289.7441 28.2874,289.4316 28.2874,289.4316 27.9749,288.8066"/>
    <polyline points="36.5453,292.9724 36.5453,306.0974 36.5453,306.0974 44.0453,306.0974"/>
    <polyline points="81.2156,306.0974 76.2156,292.9724 76.2156,292.9724 71.2156,306.0974"/>
    <line x1="73.0906" x2="79.3406" y1="301.7224" y2="301.7224"/>
    <line x1="111.5108" x2="111.5108" y1="292.9724" y2="306.0974"/>
    <line x1="120.2608" x2="111.5108" y1="292.9724" y2="301.7224"/>
    <line x1="114.6358" x2="120.2608" y1="298.5974" y2="306.0974"/>
    <polyline points="157.7436,292.9724 149.6186,292.9724 149.6186,292.9724 149.6186,306.0974 149.6186,306.0974 157.7436,306.0974"/>
    <line x1="149.6186" x2="154.6186" y1="299.2224" y2="299.2224"/>
    <polyline points="195.8514,292.9724 195.8514,306.0974 195.8514,306.0974 187.1014,292.9724 187.1014,292.9724 187.1014,306.0974"/>
    <polyline points="207.874,319.3701 245.6693,319.3701 245.6693,319.3701 245.6693,281.5748 245.6693,281.5748 207.874,281.5748"/>
    <polyline points="233.0217,294.8474 231.7717,293.5974 231.7717,293.5974 229.8967,292.9724 229.8967,292.9724 227.3967,292.9724 227.3967,292.9724 225.5217,293.5974 225.5217,293.5974 224.2717,294.8474 224.2717,294.8474 224.2717,296.0974 224.2717,296.0974 224.8967,297.3474 224.8967,297.3474 225.5217,297.9724 225.5217,297.9724 226.7717,298.5974 226.7717,298.5974 230.5217,299.8474 230.5217,299.8474 231.7717,300.4724 231.7717,300.4724 232.3967,301.0974 232.3967,301.0974 233.0217,302.3474 233.0217,302.3474 233.0217,304.2224 233.0217,304.2224 231.7717,305.4724 231.7717,305.4724 229.8967,306.0974 229.8967,306.0974 227.3967,306.0974 227.3967,306.0974 225.5217,305.4724 225.5217,305.4724 224.2717,304.2224"/>
    <line x1="283.4646" x2="321.2598" y1="319.3701" y2="319.3701"/>
    <polygon points="302.9872,292.9724 301.7372,293.5974 301.7372,293.5974 300.4872,294.8474 300.4872,294.8474 299.8622,296.0974 299.8622,296.0974 299.2372,297.9724 299.2372,297.9724 299.2372,301.0974 299.2372,301.0974 299.8622,302.9724 299.8622,302.9724 300.4872,304.2224 300.4872,304.2224 301.7372,305.4724 301.7372,305.4724 302.9872,306.0974 302.9872,306.0974 305.4872,306.0974 305.4872,306.0974 306.7372,305.4724 306.7372,305.4724 307.9872,304.2224 307.9872,304.2224 308.6122,302.9724 308.6122,302.9724 309.2372,301.0974 309.2372,301.0974 309.2372,297.9724 309.2372,297.9724 308.6122,296.0974 308.6122,296.0974 307.9872,294.8474 307.9872,294.8474 306.7372,293.5974 306.7372,293.5974 305.4872,292.9724 305.4872,292.9724"/>
    <polyline points="362.8199,284.7441 363.4449,284.4316 363.4449,284.4316 364.3824,283.4941 364.3824,283.4941 364.3824,290.0566"/>
    <polyline points="371.2574,290.0566 371.2574,283.4941 371.2574,283.4941 368.1324,287.8691 368.1324,287.8691 372.8199,287.8691"/>
    <polyline points="385.4528,306.0974 385.4528,292.9724 385.4528,292.9724 380.4528,306.0974 380.4528,306.0974 375.4528,292.9724 375.4528,292.9724 375.4528,306.0974"/>
    <line x1="418.248" x2="418.248" y1="292.9724" y2="306.0974"/>
    <line x1="434.6457" x2="472.4409" y1="319.3701" y2="319.3701"/>
    <polyline points="459.7933,294.8474 458.5433,293.5974 458.5433,293.5974 456.6683,292.9724 456.6683,292.9724 454.1683,292.9724 454.1683,292.9724 452.2933,293.5974 452.2933,293.5974 451.0433,294.8474 451.0433,294.8474 451.0433,296.0974 451.0433,296.0974 451.6683,297.3474 451.6683,297.3474 452.2933,297.9724 452.2933,297.9724 453.5433,298.5974 453.5433,298.5974 457.2933,299.8474 457.2933,299.8474 458.5433,300.4724 458.5433,300.4724 459.1683,301.0974 459.1683,301.0974 459.7933,302.3474 459.7933,302.3474 459.7933,304.2224 459.7933,304.2224 458.5433,305.4724 458.5433,305.4724 456.6683,306.0974 456.6683,306.0974 454.1683,306.0974 454.1683,306.0974 452.2933,305.4724 452.2933,305.4724 451.0433,304.2224"/>
    <polyline points="486.9636,292.9724 491.9636,306.0974 491.9636,306.0974 496.9636,292.9724"/>
    <polyline points="535.6964,292.9724 527.5714,292.9724 527.5714,292.9724 527.5714,306.0974 527.5714,306.0974 535.6964,306.0974"/>
    <line x1="527.5714" x2="532.5714" y1="299.2224" y2="299.2224"/>
    <polyline points="565.0541,299.2224 570.6791,299.2224 570.6791,299.2224 572.5541,298.5974 572.5541,298.5974 573.1791,297.9724 573.1791,297.9724 573.8041,296.7224 573.8041,296.7224 573.8041,295.4724 573.8041,295.4724 573.1791,294.2224 573.1791,294.2224 572.5541,293.5974 572.5541,293.5974 570.6791,292.9724 570.6791,292.9724 565.0541,292.9724 565.0541,292.9724 565.0541,306.0974"/>
    <line x1="569.4291" x2="573.8041" y1="299.2224" y2="306.0974"/>
    <polyline points="585.8268,319.3701 623.622,319.3701 623.622,319.3701 661.4173,319.3701 661.4173,319.3701 699.2126,319.3701 699.2126,319.3701 699.2126,281.5748"/>
    <line x1="623.622" x2="623.622" y1="319.3701" y2="281.5748"/>
    <polyline points="610.9744,294.8474 609.7244,293.5974 609.7244,293.5974 607.8494,292.9724 607.8494,292.9724 605.3494,292.9724 605.3494,292.9724 603.4744,293.5974 603.4744,293.5974 602.2244,294.8474 602.2244,294.8474 602.2244,296.0974 602.2244,296.0974 602.8494,297.3474 602.8494,297.3474 603.4744,297.9724 603.4744,297.9724 604.7244,298.5974 604.7244,298.5974 608.4744,299.8474 608.4744,299.8474 609.7244,300.4724 609.7244,300.4724 610.3494,301.0974 610.3494,301.0974 610.9744,302.3474 610.9744,302.3474 610.9744,304.2224 610.9744,304.2224 609.7244,305.4724 609.7244,305.4724 607.8494,306.0974 607.8494,306.0974 605.3494,306.0974 605.3494,306.0974 603.4744,305.4724 603.4744,305.4724 602.2244,304.2224"/>
    <line x1="661.4173" x2="661.4173" y1="319.3701" y2="281.5748"/>
    <line x1="643.1447" x2="643.1447" y1="292.9724" y2="306.0974"/>
    <line x1="638.7697" x2="647.5197" y1="292.9724" y2="292.9724"/>
    <polyline points="685.94,306.0974 680.94,292.9724 680.94,292.9724 675.94,306.0974"/>
    <line x1="677.815" x2="684.065" y1="301.7224" y2="301.7224"/>
    <line x1="699.2126" x2="737.0079" y1="319.3701" y2="319.3701"/>
    <polyline points="724.9852,292.9724 724.9852,306.0974 724.9852,306.0974 716.2352,292.9724 716.2352,292.9724 716.2352,306.0974"/>
    <polygon points="754.0305,292.9724 754.0305,306.0974 754.0305,306.0974 758.4055,306.0974 758.4055,306.0974 760.2805,305.4724 760.2805,305.4724 761.5305,304.2224 761.5305,304.2224 762.1555,302.9724 762.1555,302.9724 762.7805,301.0974 762.7805,301.0974 762.7805,297.9724 762.7805,297.9724 762.1555,296.0974 762.1555,296.0974 761.5305,294.8474 761.5305,294.8474 760.2805,293.5974 760.2805,293.5974 758.4055,292.9724 758.4055,292.9724"/>
    <polyline points="158.0561,330.7677 158.0561,343.8927 158.0561,343.8927 149.3061,330.7677 149.3061,330.7677 149.3061,343.8927"/>
    <polyline points="308.9247,333.8927 308.2997,332.6427 308.2997,332.6427 307.0497,331.3927 307.0497,331.3927 305.7997,330.7677 305.7997,330.7677 303.2997,330.7677 303.2997,330.7677 302.0497,331.3927 302.0497,331.3927 300.7997,332.6427 300.7997,332.6427 300.1747,333.8927 300.1747,333.8927 299.5497,335.7677 299.5497,335.7677 299.5497,338.8927 299.5497,338.8927 300.1747,340.7677 300.1747,340.7677 300.7997,342.0177 300.7997,342.0177 302.0497,343.2677 302.0497,343.2677 303.2997,343.8927 303.2997,343.8927 305.7997,343.8927 305.7997,343.8927 307.0497,343.2677 307.0497,343.2677 308.2997,342.0177 308.2997,342.0177 308.9247,340.7677 308.9247,340.7677 308.9247,338.8927 308.9247,338.8927 305.7997,338.8927"/>
    <polyline points="536.0089,330.7677 536.0089,343.8927 536.0089,343.8927 527.2589,330.7677 527.2589,330.7677 527.2589,343.8927"/>
  </g>
</svg>
