<?xml version="1.0" encoding="utf-8" ?>
<svg xmlns="http://www.w3.org/2000/svg" xmlns:cc="http://creativecommons.org/ns" xmlns:dc="http://purl.org/dc/elements/1.1/" xmlns:ev="http://www.w3.org/2001/xml-events" xmlns:inkscape="http://www.inkscape.org/namespaces/inkscape" xmlns:rdf="http://www.w3.org/1999/02/22-rdf-syntax-ns" xmlns:sodipodi="http://sodipodi.sourceforge.net/DTD/sodipodi-0.dtd" xmlns:xlink="http://www.w3.org/1999/xlink" baseProfile="tiny" height="9.9cm" version="1.2" viewBox="0 0 793.7007874015749 374.1732283464567" width="21.0cm">
  <metadata>
    <rdf:RDF>
      <cc:Work>
        <dc:format>image/svg+xml</dc:format>
        <dc:source>vpype eval 'cell=10;width=210;height=99' eval 'nCols=20;nRows=9' eval 'cells=[1,3,5,7,8,9,10,11,12,13,14,15,20,21,23,25,30,38,41,43,45,50,51,52,53,54,55,56,57,58,60,61,62,63,64,65,66,67,70,78,81,83,85,88,89,90,91,98,101,103,105,107,110,112,113,114,115,116,117,118,119,121,123,125,127,130,138,141,143,144,145,146,147,148,149,150,151,158,163,167,170,172,173,174,175,176,177,178,179]' eval 'chars=[&quot;P&quot;,&quot;G&quot;,&quot;T&quot;,&quot;R&quot;,&quot;E&quot;,&quot;K&quot;,&quot;K&quot;,&quot;E&quot;,&quot;R&quot;,&quot;T&quot;,&quot;J&quot;,&quot;E&quot;,&quot;J&quot;,&quot;A&quot;,&quot;U&quot;,&quot;E&quot;,&quot;L&quot;,&quot;R&quot;,&quot;R&quot;,&quot;I&quot;,&quot;L&quot;,&quot;A&quot;,&quot;N&quot;,&quot;N&quot;,&quot;A&quot;,&quot;B&quot;,&quot;E&quot;,&quot;L&quot;,&quot;L&quot;,&quot;E&quot;,&quot;S&quot;,&quot;K&quot;,&quot;E&quot;,&quot;L&quot;,&quot;L&quot;,&quot;E&quot;,&quot;K&quot;,&quot;E&quot;,&quot;V&quot;,&quot;G&quot;,&quot;E&quot;,&quot;L&quot;,&quot;F&quot;,&quot;S&quot;,&quot;T&quot;,&quot;E&quot;,&quot;R&quot;,&quot;E&quot;,&quot;R&quot;,&quot;A&quot;,&quot;O&quot;,&quot;G&quot;,&quot;R&quot;,&quot;D&quot;,&quot;E&quot;,&quot;L&quot;,&quot;P&quot;,&quot;H&quot;,&quot;I&quot;,&quot;N&quot;,&quot;E&quot;,&quot;E&quot;,&quot;U&quot;,&quot;O&quot;,&quot;R&quot;,&quot;T&quot;,&quot;B&quot;,&quot;N&quot;,&quot;M&quot;,&quot;A&quot;,&quot;N&quot;,&quot;D&quot;,&quot;A&quot;,&quot;R&quot;,&quot;I&quot;,&quot;J&quot;,&quot;N&quot;,&quot;U&quot;,&quot;E&quot;,&quot;S&quot;,&quot;E&quot;,&quot;B&quot;,&quot;E&quot;,&quot;N&quot;,&quot;J&quot;,&quot;A&quot;,&quot;M&quot;,&quot;I&quot;,&quot;N&quot;]' eval 'numbers=[1,3,5,7,10,20,38,50,60,88,107,112,143,172]' eval counter=1 eval charIndex=0 begin grid -o '%cell*mm%' '%cell*mm%' %nCols% %nRows% eval '%isCell=_i in cells%' eval '%number=_i in numbers%' eval '%size=10 if isCell else 0%' rect 0 0 '%size*mm%' '%size*mm%' text -s 10 -p 0.5mm 1.5mm '%counter if number else '&quot;'&quot;''&quot;'&quot;'%' text -s 20 -p 5mm 5mm -a center '%chars[charIndex] if isCell else '&quot;'&quot;''&quot;'&quot;'%' eval '%if number: counter+=1 %' eval '%if isCell: charIndex+=1 %' end splitall deduplicate linemerge --tolerance 0.1mm write -m none --page-size '%width*mm%x%height*mm%' --center ./svgs/solution/6e8b66.svg
</dc:source>
        <dc:date>2024-01-06T16:44:06.111932</dc:date>
      </cc:Work>
    </rdf:RDF>
  </metadata>
  <defs/>
  <g fill="none" id="layer1" inkscape:groupmode="layer" inkscape:label="1" stroke="#000000" style="display:inline">
    <polygon points="56.6929,17.0079 56.6929,54.8031 56.6929,54.8031 18.8976,54.8031 18.8976,54.8031 18.8976,92.5984 18.8976,92.5984 56.6929,92.5984 56.6929,92.5984 94.4882,92.5984 94.4882,92.5984 94.4882,54.8031 94.4882,54.8031 94.4882,17.0079 94.4882,17.0079"/>
    <polyline points="94.4882,92.5984 94.4882,130.3937 94.4882,130.3937 56.6929,130.3937 56.6929,130.3937 56.6929,92.5984 56.6929,92.5984 56.6929,54.8031 56.6929,54.8031 94.4882,54.8031"/>
    <polyline points="60.4577,20.1772 61.0827,19.8647 61.0827,19.8647 62.0202,18.9272 62.0202,18.9272 62.0202,25.4897"/>
    <polyline points="73.7156,35.2805 79.3406,35.2805 79.3406,35.2805 81.2156,34.6555 81.2156,34.6555 81.8406,34.0305 81.8406,34.0305 82.4656,32.7805 82.4656,32.7805 82.4656,30.9055 82.4656,30.9055 81.8406,29.6555 81.8406,29.6555 81.2156,29.0305 81.2156,29.0305 79.3406,28.4055 79.3406,28.4055 73.7156,28.4055 73.7156,28.4055 73.7156,41.5305"/>
    <polygon points="132.2835,17.0079 132.2835,54.8031 132.2835,54.8031 132.2835,92.5984 132.2835,92.5984 132.2835,130.3937 132.2835,130.3937 170.0787,130.3937 170.0787,130.3937 170.0787,92.5984 170.0787,92.5984 170.0787,54.8031 170.0787,54.8031 170.0787,17.0079 170.0787,17.0079"/>
    <line x1="132.2835" x2="170.0787" y1="54.8031" y2="54.8031"/>
    <polyline points="135.4232,20.4897 135.4232,20.1772 135.4232,20.1772 135.7357,19.5522 135.7357,19.5522 136.0482,19.2397 136.0482,19.2397 136.6732,18.9272 136.6732,18.9272 137.9232,18.9272 137.9232,18.9272 138.5482,19.2397 138.5482,19.2397 138.8607,19.5522 138.8607,19.5522 139.1732,20.1772 139.1732,20.1772 139.1732,20.8022 139.1732,20.8022 138.8607,21.4272 138.8607,21.4272 138.2357,22.3647 138.2357,22.3647 135.1107,25.4897 135.1107,25.4897 139.4857,25.4897"/>
    <polyline points="157.7436,31.5305 157.1186,30.2805 157.1186,30.2805 155.8686,29.0305 155.8686,29.0305 154.6186,28.4055 154.6186,28.4055 152.1186,28.4055 152.1186,28.4055 150.8686,29.0305 150.8686,29.0305 149.6186,30.2805 149.6186,30.2805 148.9936,31.5305 148.9936,31.5305 148.3686,33.4055 148.3686,33.4055 148.3686,36.5305 148.3686,36.5305 148.9936,38.4055 148.9936,38.4055 149.6186,39.6555 149.6186,39.6555 150.8686,40.9055 150.8686,40.9055 152.1186,41.5305 152.1186,41.5305 154.6186,41.5305 154.6186,41.5305 155.8686,40.9055 155.8686,40.9055 157.1186,39.6555 157.1186,39.6555 157.7436,38.4055 157.7436,38.4055 157.7436,36.5305 157.7436,36.5305 154.6186,36.5305"/>
    <polygon points="207.874,17.0079 207.874,54.8031 207.874,54.8031 245.6693,54.8031 245.6693,54.8031 245.6693,17.0079 245.6693,17.0079"/>
    <polyline points="211.3263,18.9272 214.7638,18.9272 214.7638,18.9272 212.8888,21.4272 212.8888,21.4272 213.8263,21.4272 213.8263,21.4272 214.4513,21.7397 214.4513,21.7397 214.7638,22.0522 214.7638,22.0522 215.0763,22.9897 215.0763,22.9897 215.0763,23.6147 215.0763,23.6147 214.7638,24.5522 214.7638,24.5522 214.1388,25.1772 214.1388,25.1772 213.2013,25.4897 213.2013,25.4897 212.2638,25.4897 212.2638,25.4897 211.3263,25.1772 211.3263,25.1772 211.0138,24.8647 211.0138,24.8647 210.7013,24.2397"/>
    <line x1="227.3967" x2="227.3967" y1="28.4055" y2="41.5305"/>
    <line x1="223.0217" x2="231.7717" y1="28.4055" y2="28.4055"/>
    <polygon points="283.4646,17.0079 283.4646,54.8031 283.4646,54.8031 321.2598,54.8031 321.2598,54.8031 359.0551,54.8031 359.0551,54.8031 396.8504,54.8031 396.8504,54.8031 434.6457,54.8031 434.6457,54.8031 434.6457,17.0079 434.6457,17.0079 396.8504,17.0079 396.8504,17.0079 359.0551,17.0079 359.0551,17.0079 321.2598,17.0079 321.2598,17.0079"/>
    <line x1="321.2598" x2="321.2598" y1="54.8031" y2="17.0079"/>
    <polyline points="289.4168,25.4897 289.4168,18.9272 289.4168,18.9272 286.2918,23.3022 286.2918,23.3022 290.9793,23.3022"/>
    <polyline points="300.4872,34.6555 306.1122,34.6555 306.1122,34.6555 307.9872,34.0305 307.9872,34.0305 308.6122,33.4055 308.6122,33.4055 309.2372,32.1555 309.2372,32.1555 309.2372,30.9055 309.2372,30.9055 308.6122,29.6555 308.6122,29.6555 307.9872,29.0305 307.9872,29.0305 306.1122,28.4055 306.1122,28.4055 300.4872,28.4055 300.4872,28.4055 300.4872,41.5305"/>
    <line x1="304.8622" x2="309.2372" y1="34.6555" y2="41.5305"/>
    <line x1="359.0551" x2="359.0551" y1="54.8031" y2="17.0079"/>
    <polyline points="346.72,28.4055 338.595,28.4055 338.595,28.4055 338.595,41.5305 338.595,41.5305 346.72,41.5305"/>
    <line x1="338.595" x2="343.595" y1="34.6555" y2="34.6555"/>
    <polyline points="434.6457,17.0079 472.4409,17.0079 472.4409,17.0079 510.2362,17.0079 510.2362,17.0079 510.2362,54.8031 510.2362,54.8031 472.4409,54.8031 472.4409,54.8031 434.6457,54.8031 434.6457,54.8031 434.6457,92.5984 434.6457,92.5984 434.6457,130.3937 434.6457,130.3937 396.8504,130.3937 396.8504,130.3937 396.8504,92.5984 396.8504,92.5984 396.8504,54.8031 396.8504,54.8031 396.8504,17.0079"/>
    <line x1="376.0778" x2="376.0778" y1="28.4055" y2="41.5305"/>
    <line x1="384.8278" x2="376.0778" y1="28.4055" y2="37.1555"/>
    <line x1="379.2028" x2="384.8278" y1="34.0305" y2="41.5305"/>
    <polyline points="403.4277,18.9272 400.3027,18.9272 400.3027,18.9272 399.9902,21.7397 399.9902,21.7397 400.3027,21.4272 400.3027,21.4272 401.2402,21.1147 401.2402,21.1147 402.1777,21.1147 402.1777,21.1147 403.1152,21.4272 403.1152,21.4272 403.7402,22.0522 403.7402,22.0522 404.0527,22.9897 404.0527,22.9897 404.0527,23.6147 404.0527,23.6147 403.7402,24.5522 403.7402,24.5522 403.1152,25.1772 403.1152,25.1772 402.1777,25.4897 402.1777,25.4897 401.2402,25.4897 401.2402,25.4897 400.3027,25.1772 400.3027,25.1772 399.9902,24.8647 399.9902,24.8647 399.6777,24.2397"/>
    <line x1="413.873" x2="413.873" y1="28.4055" y2="41.5305"/>
    <line x1="422.623" x2="413.873" y1="28.4055" y2="37.1555"/>
    <line x1="416.998" x2="422.623" y1="34.0305" y2="41.5305"/>
    <line x1="472.4409" x2="472.4409" y1="54.8031" y2="17.0079"/>
    <polyline points="460.1058,28.4055 451.9808,28.4055 451.9808,28.4055 451.9808,41.5305 451.9808,41.5305 460.1058,41.5305"/>
    <line x1="451.9808" x2="456.9808" y1="34.6555" y2="34.6555"/>
    <polyline points="489.4636,34.6555 495.0886,34.6555 495.0886,34.6555 496.9636,34.0305 496.9636,34.0305 497.5886,33.4055 497.5886,33.4055 498.2136,32.1555 498.2136,32.1555 498.2136,30.9055 498.2136,30.9055 497.5886,29.6555 497.5886,29.6555 496.9636,29.0305 496.9636,29.0305 495.0886,28.4055 495.0886,28.4055 489.4636,28.4055 489.4636,28.4055 489.4636,41.5305"/>
    <line x1="493.8386" x2="498.2136" y1="34.6555" y2="41.5305"/>
    <polyline points="510.2362,54.8031 548.0315,54.8031 548.0315,54.8031 585.8268,54.8031 585.8268,54.8031 585.8268,17.0079 585.8268,17.0079 548.0315,17.0079 548.0315,17.0079 510.2362,17.0079"/>
    <line x1="548.0315" x2="548.0315" y1="54.8031" y2="17.0079"/>
    <line x1="529.7589" x2="529.7589" y1="28.4055" y2="41.5305"/>
    <line x1="525.3839" x2="534.1339" y1="28.4055" y2="28.4055"/>
    <polyline points="571.3041,28.4055 571.3041,38.4055 571.3041,38.4055 570.6791,40.2805 570.6791,40.2805 570.0541,40.9055 570.0541,40.9055 568.8041,41.5305 568.8041,41.5305 567.5541,41.5305 567.5541,41.5305 566.3041,40.9055 566.3041,40.9055 565.6791,40.2805 565.6791,40.2805 565.0541,38.4055 565.0541,38.4055 565.0541,37.1555"/>
    <polyline points="585.8268,54.8031 623.622,54.8031 623.622,54.8031 623.622,17.0079 623.622,17.0079 585.8268,17.0079"/>
    <polyline points="611.2869,28.4055 603.1619,28.4055 603.1619,28.4055 603.1619,41.5305 603.1619,41.5305 611.2869,41.5305"/>
    <line x1="603.1619" x2="608.1619" y1="34.6555" y2="34.6555"/>
    <polyline points="25.7874,57.6599 25.4749,57.0349 25.4749,57.0349 24.5374,56.7224 24.5374,56.7224 23.9124,56.7224 23.9124,56.7224 22.9749,57.0349 22.9749,57.0349 22.3499,57.9724 22.3499,57.9724 22.0374,59.5349 22.0374,59.5349 22.0374,61.0974 22.0374,61.0974 22.3499,62.3474 22.3499,62.3474 22.9749,62.9724 22.9749,62.9724 23.9124,63.2849 23.9124,63.2849 24.2249,63.2849 24.2249,63.2849 25.1624,62.9724 25.1624,62.9724 25.7874,62.3474 25.7874,62.3474 26.0999,61.4099 26.0999,61.4099 26.0999,61.0974 26.0999,61.0974 25.7874,60.1599 25.7874,60.1599 25.1624,59.5349 25.1624,59.5349 24.2249,59.2224 24.2249,59.2224 23.9124,59.2224 23.9124,59.2224 22.9749,59.5349 22.9749,59.5349 22.3499,60.1599 22.3499,60.1599 22.0374,61.0974"/>
    <polyline points="42.1703,66.2008 42.1703,76.2008 42.1703,76.2008 41.5453,78.0758 41.5453,78.0758 40.9203,78.7008 40.9203,78.7008 39.6703,79.3258 39.6703,79.3258 38.4203,79.3258 38.4203,79.3258 37.1703,78.7008 37.1703,78.7008 36.5453,78.0758 36.5453,78.0758 35.9203,76.2008 35.9203,76.2008 35.9203,74.9508"/>
    <polyline points="81.2156,79.3258 76.2156,66.2008 76.2156,66.2008 71.2156,79.3258"/>
    <line x1="73.0906" x2="79.3406" y1="74.9508" y2="74.9508"/>
    <line x1="132.2835" x2="170.0787" y1="92.5984" y2="92.5984"/>
    <polyline points="149.3061,66.2008 149.3061,75.5758 149.3061,75.5758 149.9311,77.4508 149.9311,77.4508 151.1811,78.7008 151.1811,78.7008 153.0561,79.3258 153.0561,79.3258 154.3061,79.3258 154.3061,79.3258 156.1811,78.7008 156.1811,78.7008 157.4311,77.4508 157.4311,77.4508 158.0561,75.5758 158.0561,75.5758 158.0561,66.2008"/>
    <polyline points="207.874,54.8031 207.874,92.5984 207.874,92.5984 207.874,130.3937 207.874,130.3937 245.6693,130.3937 245.6693,130.3937 245.6693,92.5984 245.6693,92.5984 245.6693,54.8031"/>
    <line x1="207.874" x2="245.6693" y1="92.5984" y2="92.5984"/>
    <polyline points="233.3342,66.2008 225.2092,66.2008 225.2092,66.2008 225.2092,79.3258 225.2092,79.3258 233.3342,79.3258"/>
    <line x1="225.2092" x2="230.2092" y1="72.4508" y2="72.4508"/>
    <polyline points="396.8504,92.5984 434.6457,92.5984 434.6457,92.5984 472.4409,92.5984 472.4409,92.5984 472.4409,130.3937 472.4409,130.3937 510.2362,130.3937 510.2362,130.3937 548.0315,130.3937 548.0315,130.3937 585.8268,130.3937 585.8268,130.3937 585.8268,92.5984 585.8268,92.5984 548.0315,92.5984 548.0315,92.5984 510.2362,92.5984 510.2362,92.5984 472.4409,92.5984"/>
    <polyline points="414.498,66.2008 414.498,79.3258 414.498,79.3258 421.998,79.3258"/>
    <polygon points="699.2126,54.8031 699.2126,92.5984 699.2126,92.5984 737.0079,92.5984 737.0079,92.5984 737.0079,54.8031 737.0079,54.8031"/>
    <polyline points="702.0399,56.7224 706.4149,56.7224 706.4149,56.7224 703.2899,63.2849"/>
    <polyline points="716.2352,72.4508 721.8602,72.4508 721.8602,72.4508 723.7352,71.8258 723.7352,71.8258 724.3602,71.2008 724.3602,71.2008 724.9852,69.9508 724.9852,69.9508 724.9852,68.7008 724.9852,68.7008 724.3602,67.4508 724.3602,67.4508 723.7352,66.8258 723.7352,66.8258 721.8602,66.2008 721.8602,66.2008 716.2352,66.2008 716.2352,66.2008 716.2352,79.3258"/>
    <line x1="720.6102" x2="724.9852" y1="72.4508" y2="79.3258"/>
    <polyline points="73.7156,110.2461 79.3406,110.2461 79.3406,110.2461 81.2156,109.6211 81.2156,109.6211 81.8406,108.9961 81.8406,108.9961 82.4656,107.7461 82.4656,107.7461 82.4656,106.4961 82.4656,106.4961 81.8406,105.2461 81.8406,105.2461 81.2156,104.6211 81.2156,104.6211 79.3406,103.9961 79.3406,103.9961 73.7156,103.9961 73.7156,103.9961 73.7156,117.1211"/>
    <line x1="78.0906" x2="82.4656" y1="110.2461" y2="117.1211"/>
    <line x1="153.6811" x2="153.6811" y1="103.9961" y2="117.1211"/>
    <polyline points="225.5217,103.9961 225.5217,117.1211 225.5217,117.1211 233.0217,117.1211"/>
    <polygon points="401.2402,94.5177 400.3027,94.8302 400.3027,94.8302 399.9902,95.4552 399.9902,95.4552 399.9902,96.0802 399.9902,96.0802 400.3027,96.7052 400.3027,96.7052 400.9277,97.0177 400.9277,97.0177 402.1777,97.3302 402.1777,97.3302 403.1152,97.6427 403.1152,97.6427 403.7402,98.2677 403.7402,98.2677 404.0527,98.8927 404.0527,98.8927 404.0527,99.8302 404.0527,99.8302 403.7402,100.4552 403.7402,100.4552 403.4277,100.7677 403.4277,100.7677 402.4902,101.0802 402.4902,101.0802 401.2402,101.0802 401.2402,101.0802 400.3027,100.7677 400.3027,100.7677 399.9902,100.4552 399.9902,100.4552 399.6777,99.8302 399.6777,99.8302 399.6777,98.8927 399.6777,98.8927 399.9902,98.2677 399.9902,98.2677 400.6152,97.6427 400.6152,97.6427 401.5527,97.3302 401.5527,97.3302 402.8027,97.0177 402.8027,97.0177 403.4277,96.7052 403.4277,96.7052 403.7402,96.0802 403.7402,96.0802 403.7402,95.4552 403.7402,95.4552 403.4277,94.8302 403.4277,94.8302 402.4902,94.5177 402.4902,94.5177"/>
    <polyline points="421.373,117.1211 416.373,103.9961 416.373,103.9961 411.373,117.1211"/>
    <line x1="413.248" x2="419.498" y1="112.7461" y2="112.7461"/>
    <polyline points="396.8504,130.3937 396.8504,168.189 396.8504,168.189 396.8504,205.9843 396.8504,205.9843 396.8504,243.7795 396.8504,243.7795 434.6457,243.7795 434.6457,243.7795 434.6457,205.9843 434.6457,205.9843 472.4409,205.9843 472.4409,205.9843 510.2362,205.9843 510.2362,205.9843 548.0315,205.9843 548.0315,205.9843 548.0315,243.7795 548.0315,243.7795 510.2362,243.7795 510.2362,243.7795 472.4409,243.7795 472.4409,243.7795 472.4409,205.9843 472.4409,205.9843 472.4409,168.189 472.4409,168.189 434.6457,168.189 434.6457,168.189 434.6457,205.9843 434.6457,205.9843 396.8504,205.9843 396.8504,205.9843 359.0551,205.9843 359.0551,205.9843 321.2598,205.9843 321.2598,205.9843 321.2598,243.7795 321.2598,243.7795 283.4646,243.7795 283.4646,243.7795 283.4646,205.9843 283.4646,205.9843 321.2598,205.9843 321.2598,205.9843 321.2598,168.189 321.2598,168.189 359.0551,168.189 359.0551,168.189 396.8504,168.189 396.8504,168.189 434.6457,168.189 434.6457,168.189 434.6457,130.3937 434.6457,130.3937 472.4409,130.3937"/>
    <polyline points="460.4183,103.9961 460.4183,117.1211 460.4183,117.1211 451.6683,103.9961 451.6683,103.9961 451.6683,117.1211"/>
    <line x1="510.2362" x2="510.2362" y1="130.3937" y2="92.5984"/>
    <polyline points="498.2136,103.9961 498.2136,117.1211 498.2136,117.1211 489.4636,103.9961 489.4636,103.9961 489.4636,117.1211"/>
    <line x1="548.0315" x2="548.0315" y1="130.3937" y2="92.5984"/>
    <polyline points="534.7589,117.1211 529.7589,103.9961 529.7589,103.9961 524.7589,117.1211"/>
    <line x1="526.6339" x2="532.8839" y1="112.7461" y2="112.7461"/>
    <polyline points="570.6791,110.2461 572.5541,109.6211 572.5541,109.6211 573.1791,108.9961 573.1791,108.9961 573.8041,107.7461 573.8041,107.7461 573.8041,106.4961 573.8041,106.4961 573.1791,105.2461 573.1791,105.2461 572.5541,104.6211 572.5541,104.6211 570.6791,103.9961 570.6791,103.9961 565.0541,103.9961 565.0541,103.9961 565.0541,117.1211 565.0541,117.1211 570.6791,117.1211 570.6791,117.1211 572.5541,116.4961 572.5541,116.4961 573.1791,115.8711 573.1791,115.8711 573.8041,114.6211 573.8041,114.6211 573.8041,112.7461 573.8041,112.7461 573.1791,111.4961 573.1791,111.4961 572.5541,110.8711 572.5541,110.8711 570.6791,110.2461 570.6791,110.2461 565.0541,110.2461"/>
    <polyline points="585.8268,130.3937 623.622,130.3937 623.622,130.3937 661.4173,130.3937 661.4173,130.3937 699.2126,130.3937 699.2126,130.3937 699.2126,92.5984 699.2126,92.5984 661.4173,92.5984 661.4173,92.5984 623.622,92.5984 623.622,92.5984 585.8268,92.5984"/>
    <line x1="623.622" x2="623.622" y1="130.3937" y2="92.5984"/>
    <polyline points="611.2869,103.9961 603.1619,103.9961 603.1619,103.9961 603.1619,117.1211 603.1619,117.1211 611.2869,117.1211"/>
    <line x1="603.1619" x2="608.1619" y1="110.2461" y2="110.2461"/>
    <line x1="661.4173" x2="661.4173" y1="130.3937" y2="92.5984"/>
    <polyline points="641.2697,103.9961 641.2697,117.1211 641.2697,117.1211 648.7697,117.1211"/>
    <polyline points="679.065,103.9961 679.065,117.1211 679.065,117.1211 686.565,117.1211"/>
    <polyline points="737.0079,130.3937 737.0079,168.189 737.0079,168.189 699.2126,168.189 699.2126,168.189 699.2126,130.3937 699.2126,130.3937 737.0079,130.3937 737.0079,130.3937 737.0079,92.5984"/>
    <polyline points="724.6727,103.9961 716.5477,103.9961 716.5477,103.9961 716.5477,117.1211 716.5477,117.1211 724.6727,117.1211"/>
    <line x1="716.5477" x2="721.5477" y1="110.2461" y2="110.2461"/>
    <polyline points="283.4646,168.189 245.6693,168.189 245.6693,168.189 245.6693,205.9843 245.6693,205.9843 207.874,205.9843 207.874,205.9843 207.874,168.189 207.874,168.189 170.0787,168.189 170.0787,168.189 170.0787,205.9843 170.0787,205.9843 132.2835,205.9843 132.2835,205.9843 132.2835,168.189 132.2835,168.189 132.2835,130.3937 132.2835,130.3937 94.4882,130.3937 94.4882,130.3937 94.4882,168.189 94.4882,168.189 94.4882,205.9843 94.4882,205.9843 56.6929,205.9843 56.6929,205.9843 56.6929,168.189 56.6929,168.189 56.6929,130.3937 56.6929,130.3937 18.8976,130.3937 18.8976,130.3937 18.8976,168.189 18.8976,168.189 56.6929,168.189 56.6929,168.189 94.4882,168.189 94.4882,168.189 132.2835,168.189 132.2835,168.189 170.0787,168.189 170.0787,168.189 170.0787,130.3937 170.0787,130.3937 207.874,130.3937 207.874,130.3937 207.874,168.189 207.874,168.189 245.6693,168.189 245.6693,168.189 245.6693,130.3937 245.6693,130.3937 283.4646,130.3937 283.4646,130.3937 283.4646,168.189 283.4646,168.189 321.2598,168.189 321.2598,168.189 321.2598,130.3937 321.2598,130.3937 283.4646,130.3937"/>
    <polyline points="25.7874,134.5005 25.4749,135.438 25.4749,135.438 24.8499,136.063 24.8499,136.063 23.9124,136.3755 23.9124,136.3755 23.5999,136.3755 23.5999,136.3755 22.6624,136.063 22.6624,136.063 22.0374,135.438 22.0374,135.438 21.7249,134.5005 21.7249,134.5005 21.7249,134.188 21.7249,134.188 22.0374,133.2505 22.0374,133.2505 22.6624,132.6255 22.6624,132.6255 23.5999,132.313 23.5999,132.313 23.9124,132.313 23.9124,132.313 24.8499,132.6255 24.8499,132.6255 25.4749,133.2505 25.4749,133.2505 25.7874,134.5005 25.7874,134.5005 25.7874,136.063 25.7874,136.063 25.4749,137.6255 25.4749,137.6255 24.8499,138.563 24.8499,138.563 23.9124,138.8755 23.9124,138.8755 23.2874,138.8755 23.2874,138.8755 22.3499,138.563 22.3499,138.563 22.0374,137.938"/>
    <polyline points="44.0453,143.6663 42.7953,142.4163 42.7953,142.4163 40.9203,141.7913 40.9203,141.7913 38.4203,141.7913 38.4203,141.7913 36.5453,142.4163 36.5453,142.4163 35.2953,143.6663 35.2953,143.6663 35.2953,144.9163 35.2953,144.9163 35.9203,146.1663 35.9203,146.1663 36.5453,146.7913 36.5453,146.7913 37.7953,147.4163 37.7953,147.4163 41.5453,148.6663 41.5453,148.6663 42.7953,149.2913 42.7953,149.2913 43.4203,149.9163 43.4203,149.9163 44.0453,151.1663 44.0453,151.1663 44.0453,153.0413 44.0453,153.0413 42.7953,154.2913 42.7953,154.2913 40.9203,154.9163 40.9203,154.9163 38.4203,154.9163 38.4203,154.9163 36.5453,154.2913 36.5453,154.2913 35.2953,153.0413"/>
    <line x1="73.7156" x2="73.7156" y1="141.7913" y2="154.9163"/>
    <line x1="82.4656" x2="73.7156" y1="141.7913" y2="150.5413"/>
    <line x1="76.8406" x2="82.4656" y1="147.4163" y2="154.9163"/>
    <polyline points="119.9483,141.7913 111.8233,141.7913 111.8233,141.7913 111.8233,154.9163 111.8233,154.9163 119.9483,154.9163"/>
    <line x1="111.8233" x2="116.8233" y1="148.0413" y2="148.0413"/>
    <polyline points="149.9311,141.7913 149.9311,154.9163 149.9311,154.9163 157.4311,154.9163"/>
    <polyline points="187.7264,141.7913 187.7264,154.9163 187.7264,154.9163 195.2264,154.9163"/>
    <polyline points="233.3342,141.7913 225.2092,141.7913 225.2092,141.7913 225.2092,154.9163 225.2092,154.9163 233.3342,154.9163"/>
    <line x1="225.2092" x2="230.2092" y1="148.0413" y2="148.0413"/>
    <line x1="262.6919" x2="262.6919" y1="141.7913" y2="154.9163"/>
    <line x1="271.4419" x2="262.6919" y1="141.7913" y2="150.5413"/>
    <line x1="265.8169" x2="271.4419" y1="147.4163" y2="154.9163"/>
    <polyline points="308.9247,141.7913 300.7997,141.7913 300.7997,141.7913 300.7997,154.9163 300.7997,154.9163 308.9247,154.9163"/>
    <line x1="300.7997" x2="305.7997" y1="148.0413" y2="148.0413"/>
    <polyline points="411.373,141.7913 416.373,154.9163 416.373,154.9163 421.373,141.7913"/>
    <polyline points="724.6727,144.9163 724.0477,143.6663 724.0477,143.6663 722.7977,142.4163 722.7977,142.4163 721.5477,141.7913 721.5477,141.7913 719.0477,141.7913 719.0477,141.7913 717.7977,142.4163 717.7977,142.4163 716.5477,143.6663 716.5477,143.6663 715.9227,144.9163 715.9227,144.9163 715.2977,146.7913 715.2977,146.7913 715.2977,149.9163 715.2977,149.9163 715.9227,151.7913 715.9227,151.7913 716.5477,153.0413 716.5477,153.0413 717.7977,154.2913 717.7977,154.2913 719.0477,154.9163 719.0477,154.9163 721.5477,154.9163 721.5477,154.9163 722.7977,154.2913 722.7977,154.2913 724.0477,153.0413 724.0477,153.0413 724.6727,151.7913 724.6727,151.7913 724.6727,149.9163 724.6727,149.9163 721.5477,149.9163"/>
    <polyline points="82.1531,179.5866 74.0281,179.5866 74.0281,179.5866 74.0281,192.7116 74.0281,192.7116 82.1531,192.7116"/>
    <line x1="74.0281" x2="79.0281" y1="185.8366" y2="185.8366"/>
    <polyline points="149.9311,179.5866 149.9311,192.7116 149.9311,192.7116 157.4311,192.7116"/>
    <polyline points="233.3342,179.5866 225.2092,179.5866 225.2092,179.5866 225.2092,192.7116"/>
    <line x1="225.2092" x2="230.2092" y1="185.8366" y2="185.8366"/>
    <line x1="359.0551" x2="359.0551" y1="205.9843" y2="168.189"/>
    <polyline points="325.0246,171.3583 325.6496,171.0458 325.6496,171.0458 326.5871,170.1083 326.5871,170.1083 326.5871,176.6708"/>
    <polygon points="332.2121,170.1083 331.2746,170.4208 331.2746,170.4208 330.6496,171.3583 330.6496,171.3583 330.3371,172.9208 330.3371,172.9208 330.3371,173.8583 330.3371,173.8583 330.6496,175.4208 330.6496,175.4208 331.2746,176.3583 331.2746,176.3583 332.2121,176.6708 332.2121,176.6708 332.8371,176.6708 332.8371,176.6708 333.7746,176.3583 333.7746,176.3583 334.3996,175.4208 334.3996,175.4208 334.7121,173.8583 334.7121,173.8583 334.7121,172.9208 334.7121,172.9208 334.3996,171.3583 334.3996,171.3583 333.7746,170.4208 333.7746,170.4208 332.8371,170.1083 332.8371,170.1083"/>
    <polyline points="346.4075,181.4616 345.1575,180.2116 345.1575,180.2116 343.2825,179.5866 343.2825,179.5866 340.7825,179.5866 340.7825,179.5866 338.9075,180.2116 338.9075,180.2116 337.6575,181.4616 337.6575,181.4616 337.6575,182.7116 337.6575,182.7116 338.2825,183.9616 338.2825,183.9616 338.9075,184.5866 338.9075,184.5866 340.1575,185.2116 340.1575,185.2116 343.9075,186.4616 343.9075,186.4616 345.1575,187.0866 345.1575,187.0866 345.7825,187.7116 345.7825,187.7116 346.4075,188.9616 346.4075,188.9616 346.4075,190.8366 346.4075,190.8366 345.1575,192.0866 345.1575,192.0866 343.2825,192.7116 343.2825,192.7116 340.7825,192.7116 340.7825,192.7116 338.9075,192.0866 338.9075,192.0866 337.6575,190.8366"/>
    <line x1="378.5778" x2="378.5778" y1="179.5866" y2="192.7116"/>
    <line x1="374.2028" x2="382.9528" y1="179.5866" y2="179.5866"/>
    <polyline points="422.3105,179.5866 414.1855,179.5866 414.1855,179.5866 414.1855,192.7116 414.1855,192.7116 422.3105,192.7116"/>
    <line x1="414.1855" x2="419.1855" y1="185.8366" y2="185.8366"/>
    <polyline points="451.6683,185.8366 457.2933,185.8366 457.2933,185.8366 459.1683,185.2116 459.1683,185.2116 459.7933,184.5866 459.7933,184.5866 460.4183,183.3366 460.4183,183.3366 460.4183,182.0866 460.4183,182.0866 459.7933,180.8366 459.7933,180.8366 459.1683,180.2116 459.1683,180.2116 457.2933,179.5866 457.2933,179.5866 451.6683,179.5866 451.6683,179.5866 451.6683,192.7116"/>
    <line x1="456.0433" x2="460.4183" y1="185.8366" y2="192.7116"/>
    <polyline points="699.2126,168.189 699.2126,205.9843 699.2126,205.9843 737.0079,205.9843 737.0079,205.9843 737.0079,168.189"/>
    <polyline points="724.6727,179.5866 716.5477,179.5866 716.5477,179.5866 716.5477,192.7116 716.5477,192.7116 724.6727,192.7116"/>
    <line x1="716.5477" x2="721.5477" y1="185.8366" y2="185.8366"/>
    <polyline points="56.6929,205.9843 56.6929,243.7795 56.6929,243.7795 94.4882,243.7795 94.4882,243.7795 94.4882,205.9843"/>
    <polyline points="73.7156,223.6319 79.3406,223.6319 79.3406,223.6319 81.2156,223.0069 81.2156,223.0069 81.8406,222.3819 81.8406,222.3819 82.4656,221.1319 82.4656,221.1319 82.4656,219.8819 82.4656,219.8819 81.8406,218.6319 81.8406,218.6319 81.2156,218.0069 81.2156,218.0069 79.3406,217.3819 79.3406,217.3819 73.7156,217.3819 73.7156,217.3819 73.7156,230.5069"/>
    <line x1="78.0906" x2="82.4656" y1="223.6319" y2="230.5069"/>
    <polyline points="132.2835,205.9843 132.2835,243.7795 132.2835,243.7795 170.0787,243.7795 170.0787,243.7795 170.0787,205.9843"/>
    <polyline points="156.8061,230.5069 151.8061,217.3819 151.8061,217.3819 146.8061,230.5069"/>
    <line x1="148.6811" x2="154.9311" y1="226.1319" y2="226.1319"/>
    <polyline points="207.874,205.9843 207.874,243.7795 207.874,243.7795 245.6693,243.7795 245.6693,243.7795 245.6693,205.9843"/>
    <polygon points="227.3967,217.3819 226.1467,218.0069 226.1467,218.0069 224.8967,219.2569 224.8967,219.2569 224.2717,220.5069 224.2717,220.5069 223.6467,222.3819 223.6467,222.3819 223.6467,225.5069 223.6467,225.5069 224.2717,227.3819 224.2717,227.3819 224.8967,228.6319 224.8967,228.6319 226.1467,229.8819 226.1467,229.8819 227.3967,230.5069 227.3967,230.5069 229.8967,230.5069 229.8967,230.5069 231.1467,229.8819 231.1467,229.8819 232.3967,228.6319 232.3967,228.6319 233.0217,227.3819 233.0217,227.3819 233.6467,225.5069 233.6467,225.5069 233.6467,222.3819 233.6467,222.3819 233.0217,220.5069 233.0217,220.5069 232.3967,219.2569 232.3967,219.2569 231.1467,218.0069 231.1467,218.0069 229.8967,217.3819 229.8967,217.3819"/>
    <polyline points="287.2293,209.1535 287.8543,208.841 287.8543,208.841 288.7918,207.9035 288.7918,207.9035 288.7918,214.466"/>
    <polyline points="293.4793,209.1535 294.1043,208.841 294.1043,208.841 295.0418,207.9035 295.0418,207.9035 295.0418,214.466"/>
    <polyline points="308.9247,220.5069 308.2997,219.2569 308.2997,219.2569 307.0497,218.0069 307.0497,218.0069 305.7997,217.3819 305.7997,217.3819 303.2997,217.3819 303.2997,217.3819 302.0497,218.0069 302.0497,218.0069 300.7997,219.2569 300.7997,219.2569 300.1747,220.5069 300.1747,220.5069 299.5497,222.3819 299.5497,222.3819 299.5497,225.5069 299.5497,225.5069 300.1747,227.3819 300.1747,227.3819 300.7997,228.6319 300.7997,228.6319 302.0497,229.8819 302.0497,229.8819 303.2997,230.5069 303.2997,230.5069 305.7997,230.5069 305.7997,230.5069 307.0497,229.8819 307.0497,229.8819 308.2997,228.6319 308.2997,228.6319 308.9247,227.3819 308.9247,227.3819 308.9247,225.5069 308.9247,225.5069 305.7997,225.5069"/>
    <polyline points="413.873,223.6319 419.498,223.6319 419.498,223.6319 421.373,223.0069 421.373,223.0069 421.998,222.3819 421.998,222.3819 422.623,221.1319 422.623,221.1319 422.623,219.8819 422.623,219.8819 421.998,218.6319 421.998,218.6319 421.373,218.0069 421.373,218.0069 419.498,217.3819 419.498,217.3819 413.873,217.3819 413.873,217.3819 413.873,230.5069"/>
    <line x1="418.248" x2="422.623" y1="223.6319" y2="230.5069"/>
    <line x1="510.2362" x2="510.2362" y1="243.7795" y2="205.9843"/>
    <polyline points="476.2057,209.1535 476.8307,208.841 476.8307,208.841 477.7682,207.9035 477.7682,207.9035 477.7682,214.466"/>
    <polyline points="481.8307,209.466 481.8307,209.1535 481.8307,209.1535 482.1432,208.5285 482.1432,208.5285 482.4557,208.216 482.4557,208.216 483.0807,207.9035 483.0807,207.9035 484.3307,207.9035 484.3307,207.9035 484.9557,208.216 484.9557,208.216 485.2682,208.5285 485.2682,208.5285 485.5807,209.1535 485.5807,209.1535 485.5807,209.7785 485.5807,209.7785 485.2682,210.4035 485.2682,210.4035 484.6432,211.341 484.6432,211.341 481.5182,214.466 481.5182,214.466 485.8932,214.466"/>
    <polygon points="489.4636,217.3819 489.4636,230.5069 489.4636,230.5069 493.8386,230.5069 493.8386,230.5069 495.7136,229.8819 495.7136,229.8819 496.9636,228.6319 496.9636,228.6319 497.5886,227.3819 497.5886,227.3819 498.2136,225.5069 498.2136,225.5069 498.2136,222.3819 498.2136,222.3819 497.5886,220.5069 497.5886,220.5069 496.9636,219.2569 496.9636,219.2569 495.7136,218.0069 495.7136,218.0069 493.8386,217.3819 493.8386,217.3819"/>
    <polyline points="535.6964,217.3819 527.5714,217.3819 527.5714,217.3819 527.5714,230.5069 527.5714,230.5069 535.6964,230.5069"/>
    <line x1="527.5714" x2="532.5714" y1="223.6319" y2="223.6319"/>
    <polyline points="548.0315,243.7795 585.8268,243.7795 585.8268,243.7795 585.8268,205.9843 585.8268,205.9843 548.0315,205.9843"/>
    <polyline points="565.6791,217.3819 565.6791,230.5069 565.6791,230.5069 573.1791,230.5069"/>
    <polyline points="585.8268,243.7795 623.622,243.7795 623.622,243.7795 623.622,205.9843 623.622,205.9843 585.8268,205.9843"/>
    <polyline points="602.8494,224.2569 608.4744,224.2569 608.4744,224.2569 610.3494,223.6319 610.3494,223.6319 610.9744,223.0069 610.9744,223.0069 611.5994,221.7569 611.5994,221.7569 611.5994,219.8819 611.5994,219.8819 610.9744,218.6319 610.9744,218.6319 610.3494,218.0069 610.3494,218.0069 608.4744,217.3819 608.4744,217.3819 602.8494,217.3819 602.8494,217.3819 602.8494,230.5069"/>
    <polyline points="623.622,243.7795 661.4173,243.7795 661.4173,243.7795 699.2126,243.7795 699.2126,243.7795 699.2126,205.9843 699.2126,205.9843 661.4173,205.9843 661.4173,205.9843 623.622,205.9843"/>
    <line x1="661.4173" x2="661.4173" y1="243.7795" y2="205.9843"/>
    <line x1="640.6447" x2="640.6447" y1="217.3819" y2="230.5069"/>
    <line x1="649.3947" x2="649.3947" y1="217.3819" y2="230.5069"/>
    <line x1="640.6447" x2="649.3947" y1="223.6319" y2="223.6319"/>
    <line x1="682.815" x2="682.815" y1="217.3819" y2="230.5069"/>
    <polyline points="699.2126,281.5748 699.2126,243.7795 699.2126,243.7795 737.0079,243.7795 737.0079,243.7795 774.8031,243.7795 774.8031,243.7795 774.8031,205.9843 774.8031,205.9843 737.0079,205.9843 737.0079,205.9843 737.0079,243.7795 737.0079,243.7795 737.0079,281.5748 737.0079,281.5748 699.2126,281.5748 699.2126,281.5748 699.2126,319.3701 699.2126,319.3701 737.0079,319.3701 737.0079,319.3701 737.0079,281.5748"/>
    <polyline points="724.9852,217.3819 724.9852,230.5069 724.9852,230.5069 716.2352,217.3819 716.2352,217.3819 716.2352,230.5069"/>
    <polyline points="762.468,217.3819 754.343,217.3819 754.343,217.3819 754.343,230.5069 754.343,230.5069 762.468,230.5069"/>
    <line x1="754.343" x2="759.343" y1="223.6319" y2="223.6319"/>
    <polyline points="56.6929,243.7795 56.6929,281.5748 56.6929,281.5748 94.4882,281.5748 94.4882,281.5748 94.4882,243.7795"/>
    <polyline points="82.1531,255.1772 74.0281,255.1772 74.0281,255.1772 74.0281,268.3022 74.0281,268.3022 82.1531,268.3022"/>
    <line x1="74.0281" x2="79.0281" y1="261.4272" y2="261.4272"/>
    <polyline points="132.2835,243.7795 132.2835,281.5748 132.2835,281.5748 170.0787,281.5748 170.0787,281.5748 170.0787,243.7795"/>
    <polyline points="149.3061,255.1772 149.3061,264.5522 149.3061,264.5522 149.9311,266.4272 149.9311,266.4272 151.1811,267.6772 151.1811,267.6772 153.0561,268.3022 153.0561,268.3022 154.3061,268.3022 154.3061,268.3022 156.1811,267.6772 156.1811,267.6772 157.4311,266.4272 157.4311,266.4272 158.0561,264.5522 158.0561,264.5522 158.0561,255.1772"/>
    <polyline points="207.874,243.7795 207.874,281.5748 207.874,281.5748 170.0787,281.5748 170.0787,281.5748 170.0787,319.3701 170.0787,319.3701 207.874,319.3701 207.874,319.3701 207.874,281.5748 207.874,281.5748 245.6693,281.5748 245.6693,281.5748 245.6693,243.7795"/>
    <polygon points="227.3967,255.1772 226.1467,255.8022 226.1467,255.8022 224.8967,257.0522 224.8967,257.0522 224.2717,258.3022 224.2717,258.3022 223.6467,260.1772 223.6467,260.1772 223.6467,263.3022 223.6467,263.3022 224.2717,265.1772 224.2717,265.1772 224.8967,266.4272 224.8967,266.4272 226.1467,267.6772 226.1467,267.6772 227.3967,268.3022 227.3967,268.3022 229.8967,268.3022 229.8967,268.3022 231.1467,267.6772 231.1467,267.6772 232.3967,266.4272 232.3967,266.4272 233.0217,265.1772 233.0217,265.1772 233.6467,263.3022 233.6467,263.3022 233.6467,260.1772 233.6467,260.1772 233.0217,258.3022 233.0217,258.3022 232.3967,257.0522 232.3967,257.0522 231.1467,255.8022 231.1467,255.8022 229.8967,255.1772 229.8967,255.1772"/>
    <polyline points="283.4646,243.7795 283.4646,281.5748 283.4646,281.5748 321.2598,281.5748 321.2598,281.5748 321.2598,243.7795"/>
    <polyline points="300.4872,261.4272 306.1122,261.4272 306.1122,261.4272 307.9872,260.8022 307.9872,260.8022 308.6122,260.1772 308.6122,260.1772 309.2372,258.9272 309.2372,258.9272 309.2372,257.6772 309.2372,257.6772 308.6122,256.4272 308.6122,256.4272 307.9872,255.8022 307.9872,255.8022 306.1122,255.1772 306.1122,255.1772 300.4872,255.1772 300.4872,255.1772 300.4872,268.3022"/>
    <line x1="304.8622" x2="309.2372" y1="261.4272" y2="268.3022"/>
    <polyline points="396.8504,243.7795 396.8504,281.5748 396.8504,281.5748 359.0551,281.5748 359.0551,281.5748 321.2598,281.5748 321.2598,281.5748 321.2598,319.3701 321.2598,319.3701 359.0551,319.3701 359.0551,319.3701 396.8504,319.3701 396.8504,319.3701 434.6457,319.3701 434.6457,319.3701 434.6457,281.5748 434.6457,281.5748 434.6457,243.7795"/>
    <polygon points="396.8504,281.5748 434.6457,281.5748 434.6457,281.5748 472.4409,281.5748 472.4409,281.5748 472.4409,319.3701 472.4409,319.3701 472.4409,357.1654 472.4409,357.1654 510.2362,357.1654 510.2362,357.1654 510.2362,319.3701 510.2362,319.3701 472.4409,319.3701 472.4409,319.3701 434.6457,319.3701 434.6457,319.3701 434.6457,357.1654 434.6457,357.1654 396.8504,357.1654 396.8504,357.1654 396.8504,319.3701 396.8504,319.3701"/>
    <line x1="416.373" x2="416.373" y1="255.1772" y2="268.3022"/>
    <line x1="411.998" x2="420.748" y1="255.1772" y2="255.1772"/>
    <polyline points="721.8602,261.4272 723.7352,260.8022 723.7352,260.8022 724.3602,260.1772 724.3602,260.1772 724.9852,258.9272 724.9852,258.9272 724.9852,257.6772 724.9852,257.6772 724.3602,256.4272 724.3602,256.4272 723.7352,255.8022 723.7352,255.8022 721.8602,255.1772 721.8602,255.1772 716.2352,255.1772 716.2352,255.1772 716.2352,268.3022 716.2352,268.3022 721.8602,268.3022 721.8602,268.3022 723.7352,267.6772 723.7352,267.6772 724.3602,267.0522 724.3602,267.0522 724.9852,265.8022 724.9852,265.8022 724.9852,263.9272 724.9852,263.9272 724.3602,262.6772 724.3602,262.6772 723.7352,262.0522 723.7352,262.0522 721.8602,261.4272 721.8602,261.4272 716.2352,261.4272"/>
    <polyline points="56.6929,281.5748 56.6929,319.3701 56.6929,319.3701 94.4882,319.3701 94.4882,319.3701 94.4882,281.5748"/>
    <polyline points="82.4656,292.9724 82.4656,306.0974 82.4656,306.0974 73.7156,292.9724 73.7156,292.9724 73.7156,306.0974"/>
    <polyline points="132.2835,281.5748 132.2835,319.3701 132.2835,319.3701 170.0787,319.3701 170.0787,319.3701 170.0787,357.1654 170.0787,357.1654 132.2835,357.1654 132.2835,357.1654 132.2835,319.3701"/>
    <polyline points="136.0482,284.7441 136.6732,284.4316 136.6732,284.4316 137.6107,283.4941 137.6107,283.4941 137.6107,290.0566"/>
    <polyline points="141.9857,283.4941 145.4232,283.4941 145.4232,283.4941 143.5482,285.9941 143.5482,285.9941 144.4857,285.9941 144.4857,285.9941 145.1107,286.3066 145.1107,286.3066 145.4232,286.6191 145.4232,286.6191 145.7357,287.5566 145.7357,287.5566 145.7357,288.1816 145.7357,288.1816 145.4232,289.1191 145.4232,289.1191 144.7982,289.7441 144.7982,289.7441 143.8607,290.0566 143.8607,290.0566 142.9232,290.0566 142.9232,290.0566 141.9857,289.7441 141.9857,289.7441 141.6732,289.4316 141.6732,289.4316 141.3607,288.8066"/>
    <polyline points="158.6811,306.0974 158.6811,292.9724 158.6811,292.9724 153.6811,306.0974 153.6811,306.0974 148.6811,292.9724 148.6811,292.9724 148.6811,306.0974"/>
    <polyline points="194.6014,306.0974 189.6014,292.9724 189.6014,292.9724 184.6014,306.0974"/>
    <line x1="186.4764" x2="192.7264" y1="301.7224" y2="301.7224"/>
    <polyline points="207.874,319.3701 245.6693,319.3701 245.6693,319.3701 245.6693,281.5748 245.6693,281.5748 283.4646,281.5748 283.4646,281.5748 283.4646,319.3701 283.4646,319.3701 321.2598,319.3701 321.2598,319.3701 321.2598,357.1654 321.2598,357.1654 283.4646,357.1654 283.4646,357.1654 283.4646,319.3701 283.4646,319.3701 245.6693,319.3701"/>
    <polyline points="233.6467,292.9724 233.6467,306.0974 233.6467,306.0974 224.8967,292.9724 224.8967,292.9724 224.8967,306.0974"/>
    <polygon points="262.6919,292.9724 262.6919,306.0974 262.6919,306.0974 267.0669,306.0974 267.0669,306.0974 268.9419,305.4724 268.9419,305.4724 270.1919,304.2224 270.1919,304.2224 270.8169,302.9724 270.8169,302.9724 271.4419,301.0974 271.4419,301.0974 271.4419,297.9724 271.4419,297.9724 270.8169,296.0974 270.8169,296.0974 270.1919,294.8474 270.1919,294.8474 268.9419,293.5974 268.9419,293.5974 267.0669,292.9724 267.0669,292.9724"/>
    <polyline points="307.9872,306.0974 302.9872,292.9724 302.9872,292.9724 297.9872,306.0974"/>
    <line x1="299.8622" x2="306.1122" y1="301.7224" y2="301.7224"/>
    <line x1="359.0551" x2="359.0551" y1="319.3701" y2="281.5748"/>
    <polyline points="338.2825,299.2224 343.9075,299.2224 343.9075,299.2224 345.7825,298.5974 345.7825,298.5974 346.4075,297.9724 346.4075,297.9724 347.0325,296.7224 347.0325,296.7224 347.0325,295.4724 347.0325,295.4724 346.4075,294.2224 346.4075,294.2224 345.7825,293.5974 345.7825,293.5974 343.9075,292.9724 343.9075,292.9724 338.2825,292.9724 338.2825,292.9724 338.2825,306.0974"/>
    <line x1="342.6575" x2="347.0325" y1="299.2224" y2="306.0974"/>
    <line x1="380.4528" x2="380.4528" y1="292.9724" y2="306.0974"/>
    <polyline points="420.123,292.9724 420.123,302.9724 420.123,302.9724 419.498,304.8474 419.498,304.8474 418.873,305.4724 418.873,305.4724 417.623,306.0974 417.623,306.0974 416.373,306.0974 416.373,306.0974 415.123,305.4724 415.123,305.4724 414.498,304.8474 414.498,304.8474 413.873,302.9724 413.873,302.9724 413.873,301.7224"/>
    <polyline points="460.4183,292.9724 460.4183,306.0974 460.4183,306.0974 451.6683,292.9724 451.6683,292.9724 451.6683,306.0974"/>
    <polyline points="716.2352,292.9724 716.2352,302.3474 716.2352,302.3474 716.8602,304.2224 716.8602,304.2224 718.1102,305.4724 718.1102,305.4724 719.9852,306.0974 719.9852,306.0974 721.2352,306.0974 721.2352,306.0974 723.1102,305.4724 723.1102,305.4724 724.3602,304.2224 724.3602,304.2224 724.9852,302.3474 724.9852,302.3474 724.9852,292.9724"/>
    <polyline points="157.7436,330.7677 149.6186,330.7677 149.6186,330.7677 149.6186,343.8927 149.6186,343.8927 157.7436,343.8927"/>
    <line x1="149.6186" x2="154.6186" y1="337.0177" y2="337.0177"/>
    <polyline points="308.6122,332.6427 307.3622,331.3927 307.3622,331.3927 305.4872,330.7677 305.4872,330.7677 302.9872,330.7677 302.9872,330.7677 301.1122,331.3927 301.1122,331.3927 299.8622,332.6427 299.8622,332.6427 299.8622,333.8927 299.8622,333.8927 300.4872,335.1427 300.4872,335.1427 301.1122,335.7677 301.1122,335.7677 302.3622,336.3927 302.3622,336.3927 306.1122,337.6427 306.1122,337.6427 307.3622,338.2677 307.3622,338.2677 307.9872,338.8927 307.9872,338.8927 308.6122,340.1427 308.6122,340.1427 308.6122,342.0177 308.6122,342.0177 307.3622,343.2677 307.3622,343.2677 305.4872,343.8927 305.4872,343.8927 302.9872,343.8927 302.9872,343.8927 301.1122,343.2677 301.1122,343.2677 299.8622,342.0177"/>
    <polyline points="422.3105,330.7677 414.1855,330.7677 414.1855,330.7677 414.1855,343.8927 414.1855,343.8927 422.3105,343.8927"/>
    <line x1="414.1855" x2="419.1855" y1="337.0177" y2="337.0177"/>
    <polyline points="476.2057,322.5394 476.8307,322.2269 476.8307,322.2269 477.7682,321.2894 477.7682,321.2894 477.7682,327.8519"/>
    <polyline points="484.6432,327.8519 484.6432,321.2894 484.6432,321.2894 481.5182,325.6644 481.5182,325.6644 486.2057,325.6644"/>
    <polygon points="489.4636,330.7677 489.4636,343.8927 489.4636,343.8927 495.0886,343.8927 495.0886,343.8927 496.9636,343.2677 496.9636,343.2677 497.5886,342.6427 497.5886,342.6427 498.2136,341.3927 498.2136,341.3927 498.2136,339.5177 498.2136,339.5177 497.5886,338.2677 497.5886,338.2677 496.9636,337.6427 496.9636,337.6427 495.0886,337.0177 495.0886,337.0177 496.9636,336.3927 496.9636,336.3927 497.5886,335.7677 497.5886,335.7677 498.2136,334.5177 498.2136,334.5177 498.2136,333.2677 498.2136,333.2677 497.5886,332.0177 497.5886,332.0177 496.9636,331.3927 496.9636,331.3927 495.0886,330.7677 495.0886,330.7677"/>
    <line x1="489.4636" x2="495.0886" y1="337.0177" y2="337.0177"/>
    <polyline points="510.2362,357.1654 548.0315,357.1654 548.0315,357.1654 585.8268,357.1654 585.8268,357.1654 585.8268,319.3701 585.8268,319.3701 548.0315,319.3701 548.0315,319.3701 510.2362,319.3701"/>
    <line x1="548.0315" x2="548.0315" y1="357.1654" y2="319.3701"/>
    <polyline points="535.6964,330.7677 527.5714,330.7677 527.5714,330.7677 527.5714,343.8927 527.5714,343.8927 535.6964,343.8927"/>
    <line x1="527.5714" x2="532.5714" y1="337.0177" y2="337.0177"/>
    <polyline points="573.8041,330.7677 573.8041,343.8927 573.8041,343.8927 565.0541,330.7677 565.0541,330.7677 565.0541,343.8927"/>
    <polyline points="585.8268,357.1654 623.622,357.1654 623.622,357.1654 623.622,319.3701 623.622,319.3701 585.8268,319.3701"/>
    <polyline points="609.0994,330.7677 609.0994,340.7677 609.0994,340.7677 608.4744,342.6427 608.4744,342.6427 607.8494,343.2677 607.8494,343.2677 606.5994,343.8927 606.5994,343.8927 605.3494,343.8927 605.3494,343.8927 604.0994,343.2677 604.0994,343.2677 603.4744,342.6427 603.4744,342.6427 602.8494,340.7677 602.8494,340.7677 602.8494,339.5177"/>
    <polyline points="623.622,357.1654 661.4173,357.1654 661.4173,357.1654 699.2126,357.1654 699.2126,357.1654 699.2126,319.3701 699.2126,319.3701 661.4173,319.3701 661.4173,319.3701 623.622,319.3701"/>
    <line x1="661.4173" x2="661.4173" y1="357.1654" y2="319.3701"/>
    <polyline points="648.1447,343.8927 643.1447,330.7677 643.1447,330.7677 638.1447,343.8927"/>
    <line x1="640.0197" x2="646.2697" y1="339.5177" y2="339.5177"/>
    <polyline points="687.815,343.8927 687.815,330.7677 687.815,330.7677 682.815,343.8927 682.815,343.8927 677.815,330.7677 677.815,330.7677 677.815,343.8927"/>
    <polyline points="699.2126,357.1654 737.0079,357.1654 737.0079,357.1654 737.0079,319.3701 737.0079,319.3701 774.8031,319.3701 774.8031,319.3701 774.8031,357.1654 774.8031,357.1654 737.0079,357.1654"/>
    <line x1="720.6102" x2="720.6102" y1="330.7677" y2="343.8927"/>
    <polyline points="762.7805,330.7677 762.7805,343.8927 762.7805,343.8927 754.0305,330.7677 754.0305,330.7677 754.0305,343.8927"/>
  </g>
</svg>
