<?xml version="1.0" encoding="utf-8" ?>
<svg xmlns="http://www.w3.org/2000/svg" xmlns:cc="http://creativecommons.org/ns" xmlns:dc="http://purl.org/dc/elements/1.1/" xmlns:ev="http://www.w3.org/2001/xml-events" xmlns:inkscape="http://www.inkscape.org/namespaces/inkscape" xmlns:rdf="http://www.w3.org/1999/02/22-rdf-syntax-ns" xmlns:sodipodi="http://sodipodi.sourceforge.net/DTD/sodipodi-0.dtd" xmlns:xlink="http://www.w3.org/1999/xlink" baseProfile="tiny" height="9.9cm" version="1.2" viewBox="0 0 793.7007874015749 374.1732283464567" width="21.0cm">
  <metadata>
    <rdf:RDF>
      <cc:Work>
        <dc:format>image/svg+xml</dc:format>
        <dc:source>vpype eval 'cell=10;width=210;height=99' eval 'nCols=20;nRows=9' eval 'cells=[0,1,2,3,4,14,16,19,23,26,30,33,34,35,36,39,42,43,44,45,46,47,48,49,50,51,52,54,56,59,63,66,70,74,76,79,82,83,84,85,86,87,90,94,96,99,101,103,106,108,109,110,111,112,113,114,115,116,117,118,119,120,121,122,123,124,126,130,139,141,143,146,149,152,153,154,155,156,157,158,159,161,164,165,166,167,168,169,170,179]' eval 'chars=[&quot;H&quot;,&quot;O&quot;,&quot;O&quot;,&quot;F&quot;,&quot;D&quot;,&quot;K&quot;,&quot;C&quot;,&quot;U&quot;,&quot;R&quot;,&quot;R&quot;,&quot;L&quot;,&quot;F&quot;,&quot;I&quot;,&quot;L&quot;,&quot;E&quot;,&quot;I&quot;,&quot;M&quot;,&quot;I&quot;,&quot;S&quot;,&quot;V&quot;,&quot;E&quot;,&quot;R&quot;,&quot;S&quot;,&quot;T&quot;,&quot;A&quot;,&quot;N&quot;,&quot;D&quot;,&quot;E&quot;,&quot;N&quot;,&quot;T&quot;,&quot;E&quot;,&quot;G&quot;,&quot;D&quot;,&quot;M&quot;,&quot;T&quot;,&quot;L&quot;,&quot;S&quot;,&quot;T&quot;,&quot;E&quot;,&quot;V&quot;,&quot;E&quot;,&quot;N&quot;,&quot;D&quot;,&quot;E&quot;,&quot;J&quot;,&quot;I&quot;,&quot;G&quot;,&quot;J&quot;,&quot;N&quot;,&quot;F&quot;,&quot;L&quot;,&quot;E&quot;,&quot;S&quot;,&quot;S&quot;,&quot;E&quot;,&quot;N&quot;,&quot;G&quot;,&quot;E&quot;,&quot;L&quot;,&quot;U&quot;,&quot;K&quot;,&quot;G&quot;,&quot;R&quot;,&quot;O&quot;,&quot;E&quot;,&quot;N&quot;,&quot;B&quot;,&quot;R&quot;,&quot;K&quot;,&quot;A&quot;,&quot;S&quot;,&quot;U&quot;,&quot;J&quot;,&quot;S&quot;,&quot;K&quot;,&quot;E&quot;,&quot;L&quot;,&quot;L&quot;,&quot;E&quot;,&quot;K&quot;,&quot;E&quot;,&quot;S&quot;,&quot;V&quot;,&quot;R&quot;,&quot;I&quot;,&quot;J&quot;,&quot;D&quot;,&quot;A&quot;,&quot;G&quot;,&quot;N&quot;]' eval 'numbers=[0,3,14,16,19,26,30,33,42,82,101,108,120,149,152,164]' eval counter=1 eval charIndex=0 begin grid -o '%cell*mm%' '%cell*mm%' %nCols% %nRows% eval '%isCell=_i in cells%' eval '%number=_i in numbers%' eval '%size=10 if isCell else 0%' rect 0 0 '%size*mm%' '%size*mm%' text -s 10 -p 0.5mm 1.5mm '%counter if number else '&quot;'&quot;''&quot;'&quot;'%' text -s 20 -p 5mm 5mm -a center '%chars[charIndex] if isCell else '&quot;'&quot;''&quot;'&quot;'%' eval '%if number: counter+=1 %' eval '%if isCell: charIndex+=1 %' end splitall deduplicate linemerge --tolerance 0.1mm write -m none --page-size '%width*mm%x%height*mm%' --center ./svgs/solution/6ed6d4.svg
</dc:source>
        <dc:date>2023-12-23T22:30:06.516612</dc:date>
      </cc:Work>
    </rdf:RDF>
  </metadata>
  <defs/>
  <g fill="none" id="layer1" inkscape:groupmode="layer" inkscape:label="1" stroke="#000000" style="display:inline">
    <polygon points="18.8976,17.0079 18.8976,54.8031 18.8976,54.8031 56.6929,54.8031 56.6929,54.8031 56.6929,17.0079 56.6929,17.0079"/>
    <polyline points="22.6624,20.1772 23.2874,19.8647 23.2874,19.8647 24.2249,18.9272 24.2249,18.9272 24.2249,25.4897"/>
    <line x1="35.9203" x2="35.9203" y1="28.4055" y2="41.5305"/>
    <line x1="44.6703" x2="44.6703" y1="28.4055" y2="41.5305"/>
    <line x1="35.9203" x2="44.6703" y1="34.6555" y2="34.6555"/>
    <polyline points="56.6929,54.8031 94.4882,54.8031 94.4882,54.8031 132.2835,54.8031 132.2835,54.8031 132.2835,92.5984 132.2835,92.5984 94.4882,92.5984 94.4882,92.5984 94.4882,130.3937 94.4882,130.3937 132.2835,130.3937 132.2835,130.3937 170.0787,130.3937 170.0787,130.3937 207.874,130.3937 207.874,130.3937 207.874,92.5984 207.874,92.5984 170.0787,92.5984 170.0787,92.5984 170.0787,54.8031 170.0787,54.8031 207.874,54.8031 207.874,54.8031 207.874,17.0079 207.874,17.0079 170.0787,17.0079 170.0787,17.0079 132.2835,17.0079 132.2835,17.0079 94.4882,17.0079 94.4882,17.0079 56.6929,17.0079"/>
    <line x1="94.4882" x2="94.4882" y1="54.8031" y2="17.0079"/>
    <polygon points="76.2156,28.4055 74.9656,29.0305 74.9656,29.0305 73.7156,30.2805 73.7156,30.2805 73.0906,31.5305 73.0906,31.5305 72.4656,33.4055 72.4656,33.4055 72.4656,36.5305 72.4656,36.5305 73.0906,38.4055 73.0906,38.4055 73.7156,39.6555 73.7156,39.6555 74.9656,40.9055 74.9656,40.9055 76.2156,41.5305 76.2156,41.5305 78.7156,41.5305 78.7156,41.5305 79.9656,40.9055 79.9656,40.9055 81.2156,39.6555 81.2156,39.6555 81.8406,38.4055 81.8406,38.4055 82.4656,36.5305 82.4656,36.5305 82.4656,33.4055 82.4656,33.4055 81.8406,31.5305 81.8406,31.5305 81.2156,30.2805 81.2156,30.2805 79.9656,29.0305 79.9656,29.0305 78.7156,28.4055 78.7156,28.4055"/>
    <polyline points="170.0787,17.0079 170.0787,54.8031 170.0787,54.8031 132.2835,54.8031 132.2835,54.8031 132.2835,17.0079"/>
    <polygon points="114.0108,28.4055 112.7608,29.0305 112.7608,29.0305 111.5108,30.2805 111.5108,30.2805 110.8858,31.5305 110.8858,31.5305 110.2608,33.4055 110.2608,33.4055 110.2608,36.5305 110.2608,36.5305 110.8858,38.4055 110.8858,38.4055 111.5108,39.6555 111.5108,39.6555 112.7608,40.9055 112.7608,40.9055 114.0108,41.5305 114.0108,41.5305 116.5108,41.5305 116.5108,41.5305 117.7608,40.9055 117.7608,40.9055 119.0108,39.6555 119.0108,39.6555 119.6358,38.4055 119.6358,38.4055 120.2608,36.5305 120.2608,36.5305 120.2608,33.4055 120.2608,33.4055 119.6358,31.5305 119.6358,31.5305 119.0108,30.2805 119.0108,30.2805 117.7608,29.0305 117.7608,29.0305 116.5108,28.4055 116.5108,28.4055"/>
    <polyline points="135.4232,20.4897 135.4232,20.1772 135.4232,20.1772 135.7357,19.5522 135.7357,19.5522 136.0482,19.2397 136.0482,19.2397 136.6732,18.9272 136.6732,18.9272 137.9232,18.9272 137.9232,18.9272 138.5482,19.2397 138.5482,19.2397 138.8607,19.5522 138.8607,19.5522 139.1732,20.1772 139.1732,20.1772 139.1732,20.8022 139.1732,20.8022 138.8607,21.4272 138.8607,21.4272 138.2357,22.3647 138.2357,22.3647 135.1107,25.4897 135.1107,25.4897 139.4857,25.4897"/>
    <polyline points="157.7436,28.4055 149.6186,28.4055 149.6186,28.4055 149.6186,41.5305"/>
    <line x1="149.6186" x2="154.6186" y1="34.6555" y2="34.6555"/>
    <polygon points="187.1014,28.4055 187.1014,41.5305 187.1014,41.5305 191.4764,41.5305 191.4764,41.5305 193.3514,40.9055 193.3514,40.9055 194.6014,39.6555 194.6014,39.6555 195.2264,38.4055 195.2264,38.4055 195.8514,36.5305 195.8514,36.5305 195.8514,33.4055 195.8514,33.4055 195.2264,31.5305 195.2264,31.5305 194.6014,30.2805 194.6014,30.2805 193.3514,29.0305 193.3514,29.0305 191.4764,28.4055 191.4764,28.4055"/>
    <polygon points="548.0315,17.0079 548.0315,54.8031 548.0315,54.8031 585.8268,54.8031 585.8268,54.8031 585.8268,17.0079 585.8268,17.0079"/>
    <polyline points="551.4838,18.9272 554.9213,18.9272 554.9213,18.9272 553.0463,21.4272 553.0463,21.4272 553.9838,21.4272 553.9838,21.4272 554.6088,21.7397 554.6088,21.7397 554.9213,22.0522 554.9213,22.0522 555.2338,22.9897 555.2338,22.9897 555.2338,23.6147 555.2338,23.6147 554.9213,24.5522 554.9213,24.5522 554.2963,25.1772 554.2963,25.1772 553.3588,25.4897 553.3588,25.4897 552.4213,25.4897 552.4213,25.4897 551.4838,25.1772 551.4838,25.1772 551.1713,24.8647 551.1713,24.8647 550.8588,24.2397"/>
    <line x1="565.0541" x2="565.0541" y1="28.4055" y2="41.5305"/>
    <line x1="573.8041" x2="565.0541" y1="28.4055" y2="37.1555"/>
    <line x1="568.1791" x2="573.8041" y1="34.0305" y2="41.5305"/>
    <polygon points="623.622,17.0079 623.622,54.8031 623.622,54.8031 585.8268,54.8031 585.8268,54.8031 585.8268,92.5984 585.8268,92.5984 548.0315,92.5984 548.0315,92.5984 548.0315,130.3937 548.0315,130.3937 585.8268,130.3937 585.8268,130.3937 585.8268,92.5984 585.8268,92.5984 623.622,92.5984 623.622,92.5984 623.622,130.3937 623.622,130.3937 623.622,168.189 623.622,168.189 661.4173,168.189 661.4173,168.189 661.4173,130.3937 661.4173,130.3937 661.4173,92.5984 661.4173,92.5984 661.4173,54.8031 661.4173,54.8031 661.4173,17.0079 661.4173,17.0079"/>
    <polyline points="661.4173,92.5984 623.622,92.5984 623.622,92.5984 623.622,54.8031 623.622,54.8031 661.4173,54.8031"/>
    <polyline points="629.5743,25.4897 629.5743,18.9272 629.5743,18.9272 626.4493,23.3022 626.4493,23.3022 631.1368,23.3022"/>
    <polyline points="649.0822,31.5305 648.4572,30.2805 648.4572,30.2805 647.2072,29.0305 647.2072,29.0305 645.9572,28.4055 645.9572,28.4055 643.4572,28.4055 643.4572,28.4055 642.2072,29.0305 642.2072,29.0305 640.9572,30.2805 640.9572,30.2805 640.3322,31.5305 640.3322,31.5305 639.7072,33.4055 639.7072,33.4055 639.7072,36.5305 639.7072,36.5305 640.3322,38.4055 640.3322,38.4055 640.9572,39.6555 640.9572,39.6555 642.2072,40.9055 642.2072,40.9055 643.4572,41.5305 643.4572,41.5305 645.9572,41.5305 645.9572,41.5305 647.2072,40.9055 647.2072,40.9055 648.4572,39.6555 648.4572,39.6555 649.0822,38.4055"/>
    <polygon points="737.0079,17.0079 737.0079,54.8031 737.0079,54.8031 737.0079,92.5984 737.0079,92.5984 774.8031,92.5984 774.8031,92.5984 774.8031,54.8031 774.8031,54.8031 774.8031,17.0079 774.8031,17.0079"/>
    <line x1="737.0079" x2="774.8031" y1="54.8031" y2="54.8031"/>
    <polyline points="743.5851,18.9272 740.4601,18.9272 740.4601,18.9272 740.1476,21.7397 740.1476,21.7397 740.4601,21.4272 740.4601,21.4272 741.3976,21.1147 741.3976,21.1147 742.3351,21.1147 742.3351,21.1147 743.2726,21.4272 743.2726,21.4272 743.8976,22.0522 743.8976,22.0522 744.2101,22.9897 744.2101,22.9897 744.2101,23.6147 744.2101,23.6147 743.8976,24.5522 743.8976,24.5522 743.2726,25.1772 743.2726,25.1772 742.3351,25.4897 742.3351,25.4897 741.3976,25.4897 741.3976,25.4897 740.4601,25.1772 740.4601,25.1772 740.1476,24.8647 740.1476,24.8647 739.8351,24.2397"/>
    <polyline points="754.0305,28.4055 754.0305,37.7805 754.0305,37.7805 754.6555,39.6555 754.6555,39.6555 755.9055,40.9055 755.9055,40.9055 757.7805,41.5305 757.7805,41.5305 759.0305,41.5305 759.0305,41.5305 760.9055,40.9055 760.9055,40.9055 762.1555,39.6555 762.1555,39.6555 762.7805,37.7805 762.7805,37.7805 762.7805,28.4055"/>
    <polyline points="207.874,205.9843 170.0787,205.9843 170.0787,205.9843 170.0787,168.189 170.0787,168.189 132.2835,168.189 132.2835,168.189 132.2835,130.3937 132.2835,130.3937 132.2835,92.5984 132.2835,92.5984 170.0787,92.5984 170.0787,92.5984 170.0787,130.3937 170.0787,130.3937 170.0787,168.189 170.0787,168.189 207.874,168.189 207.874,168.189 207.874,205.9843 207.874,205.9843 245.6693,205.9843 245.6693,205.9843 245.6693,168.189 245.6693,168.189 207.874,168.189"/>
    <polyline points="149.3061,72.4508 154.9311,72.4508 154.9311,72.4508 156.8061,71.8258 156.8061,71.8258 157.4311,71.2008 157.4311,71.2008 158.0561,69.9508 158.0561,69.9508 158.0561,68.7008 158.0561,68.7008 157.4311,67.4508 157.4311,67.4508 156.8061,66.8258 156.8061,66.8258 154.9311,66.2008 154.9311,66.2008 149.3061,66.2008 149.3061,66.2008 149.3061,79.3258"/>
    <line x1="153.6811" x2="158.0561" y1="72.4508" y2="79.3258"/>
    <polygon points="245.6693,54.8031 245.6693,92.5984 245.6693,92.5984 283.4646,92.5984 283.4646,92.5984 283.4646,54.8031 283.4646,54.8031"/>
    <polyline points="252.5591,57.6599 252.2466,57.0349 252.2466,57.0349 251.3091,56.7224 251.3091,56.7224 250.6841,56.7224 250.6841,56.7224 249.7466,57.0349 249.7466,57.0349 249.1216,57.9724 249.1216,57.9724 248.8091,59.5349 248.8091,59.5349 248.8091,61.0974 248.8091,61.0974 249.1216,62.3474 249.1216,62.3474 249.7466,62.9724 249.7466,62.9724 250.6841,63.2849 250.6841,63.2849 250.9966,63.2849 250.9966,63.2849 251.9341,62.9724 251.9341,62.9724 252.5591,62.3474 252.5591,62.3474 252.8716,61.4099 252.8716,61.4099 252.8716,61.0974 252.8716,61.0974 252.5591,60.1599 252.5591,60.1599 251.9341,59.5349 251.9341,59.5349 250.9966,59.2224 250.9966,59.2224 250.6841,59.2224 250.6841,59.2224 249.7466,59.5349 249.7466,59.5349 249.1216,60.1599 249.1216,60.1599 248.8091,61.0974"/>
    <polyline points="262.6919,72.4508 268.3169,72.4508 268.3169,72.4508 270.1919,71.8258 270.1919,71.8258 270.8169,71.2008 270.8169,71.2008 271.4419,69.9508 271.4419,69.9508 271.4419,68.7008 271.4419,68.7008 270.8169,67.4508 270.8169,67.4508 270.1919,66.8258 270.1919,66.8258 268.3169,66.2008 268.3169,66.2008 262.6919,66.2008 262.6919,66.2008 262.6919,79.3258"/>
    <line x1="267.0669" x2="271.4419" y1="72.4508" y2="79.3258"/>
    <polygon points="396.8504,54.8031 396.8504,92.5984 396.8504,92.5984 434.6457,92.5984 434.6457,92.5984 434.6457,54.8031 434.6457,54.8031"/>
    <polyline points="399.6777,56.7224 404.0527,56.7224 404.0527,56.7224 400.9277,63.2849"/>
    <polyline points="414.498,66.2008 414.498,79.3258 414.498,79.3258 421.998,79.3258"/>
    <polygon points="510.2362,54.8031 510.2362,92.5984 510.2362,92.5984 548.0315,92.5984 548.0315,92.5984 548.0315,54.8031 548.0315,54.8031"/>
    <polygon points="514.626,56.7224 513.6885,57.0349 513.6885,57.0349 513.376,57.6599 513.376,57.6599 513.376,58.2849 513.376,58.2849 513.6885,58.9099 513.6885,58.9099 514.3135,59.2224 514.3135,59.2224 515.5635,59.5349 515.5635,59.5349 516.501,59.8474 516.501,59.8474 517.126,60.4724 517.126,60.4724 517.4385,61.0974 517.4385,61.0974 517.4385,62.0349 517.4385,62.0349 517.126,62.6599 517.126,62.6599 516.8135,62.9724 516.8135,62.9724 515.876,63.2849 515.876,63.2849 514.626,63.2849 514.626,63.2849 513.6885,62.9724 513.6885,62.9724 513.376,62.6599 513.376,62.6599 513.0635,62.0349 513.0635,62.0349 513.0635,61.0974 513.0635,61.0974 513.376,60.4724 513.376,60.4724 514.001,59.8474 514.001,59.8474 514.9385,59.5349 514.9385,59.5349 516.1885,59.2224 516.1885,59.2224 516.8135,58.9099 516.8135,58.9099 517.126,58.2849 517.126,58.2849 517.126,57.6599 517.126,57.6599 516.8135,57.0349 516.8135,57.0349 515.876,56.7224 515.876,56.7224"/>
    <polyline points="535.6964,66.2008 527.5714,66.2008 527.5714,66.2008 527.5714,79.3258"/>
    <line x1="527.5714" x2="532.5714" y1="72.4508" y2="72.4508"/>
    <line x1="569.4291" x2="569.4291" y1="66.2008" y2="79.3258"/>
    <polyline points="603.4744,66.2008 603.4744,79.3258 603.4744,79.3258 610.9744,79.3258"/>
    <polyline points="649.0822,66.2008 640.9572,66.2008 640.9572,66.2008 640.9572,79.3258 640.9572,79.3258 649.0822,79.3258"/>
    <line x1="640.9572" x2="645.9572" y1="72.4508" y2="72.4508"/>
    <line x1="758.4055" x2="758.4055" y1="66.2008" y2="79.3258"/>
    <polyline points="101.378,96.7052 101.0655,97.6427 101.0655,97.6427 100.4405,98.2677 100.4405,98.2677 99.503,98.5802 99.503,98.5802 99.1905,98.5802 99.1905,98.5802 98.253,98.2677 98.253,98.2677 97.628,97.6427 97.628,97.6427 97.3155,96.7052 97.3155,96.7052 97.3155,96.3927 97.3155,96.3927 97.628,95.4552 97.628,95.4552 98.253,94.8302 98.253,94.8302 99.1905,94.5177 99.1905,94.5177 99.503,94.5177 99.503,94.5177 100.4405,94.8302 100.4405,94.8302 101.0655,95.4552 101.0655,95.4552 101.378,96.7052 101.378,96.7052 101.378,98.2677 101.378,98.2677 101.0655,99.8302 101.0655,99.8302 100.4405,100.7677 100.4405,100.7677 99.503,101.0802 99.503,101.0802 98.878,101.0802 98.878,101.0802 97.9405,100.7677 97.9405,100.7677 97.628,100.1427"/>
    <polyline points="120.8858,117.1211 120.8858,103.9961 120.8858,103.9961 115.8858,117.1211 115.8858,117.1211 110.8858,103.9961 110.8858,103.9961 110.8858,117.1211"/>
    <line x1="153.6811" x2="153.6811" y1="103.9961" y2="117.1211"/>
    <polyline points="195.2264,105.8711 193.9764,104.6211 193.9764,104.6211 192.1014,103.9961 192.1014,103.9961 189.6014,103.9961 189.6014,103.9961 187.7264,104.6211 187.7264,104.6211 186.4764,105.8711 186.4764,105.8711 186.4764,107.1211 186.4764,107.1211 187.1014,108.3711 187.1014,108.3711 187.7264,108.9961 187.7264,108.9961 188.9764,109.6211 188.9764,109.6211 192.7264,110.8711 192.7264,110.8711 193.9764,111.4961 193.9764,111.4961 194.6014,112.1211 194.6014,112.1211 195.2264,113.3711 195.2264,113.3711 195.2264,115.2461 195.2264,115.2461 193.9764,116.4961 193.9764,116.4961 192.1014,117.1211 192.1014,117.1211 189.6014,117.1211 189.6014,117.1211 187.7264,116.4961 187.7264,116.4961 186.4764,115.2461"/>
    <polyline points="207.874,130.3937 245.6693,130.3937 245.6693,130.3937 245.6693,92.5984 245.6693,92.5984 207.874,92.5984"/>
    <polyline points="222.3967,103.9961 227.3967,117.1211 227.3967,117.1211 232.3967,103.9961"/>
    <polyline points="321.2598,92.5984 321.2598,130.3937 321.2598,130.3937 283.4646,130.3937 283.4646,130.3937 283.4646,168.189 283.4646,168.189 245.6693,168.189 245.6693,168.189 245.6693,130.3937 245.6693,130.3937 283.4646,130.3937 283.4646,130.3937 283.4646,92.5984 283.4646,92.5984 321.2598,92.5984 321.2598,92.5984 359.0551,92.5984 359.0551,92.5984 396.8504,92.5984 396.8504,92.5984 396.8504,130.3937 396.8504,130.3937 434.6457,130.3937 434.6457,130.3937 434.6457,92.5984 434.6457,92.5984 472.4409,92.5984 472.4409,92.5984 510.2362,92.5984 510.2362,92.5984 510.2362,130.3937 510.2362,130.3937 472.4409,130.3937 472.4409,130.3937 472.4409,92.5984"/>
    <polyline points="271.1294,103.9961 263.0044,103.9961 263.0044,103.9961 263.0044,117.1211 263.0044,117.1211 271.1294,117.1211"/>
    <line x1="263.0044" x2="268.0044" y1="110.2461" y2="110.2461"/>
    <polyline points="300.4872,110.2461 306.1122,110.2461 306.1122,110.2461 307.9872,109.6211 307.9872,109.6211 308.6122,108.9961 308.6122,108.9961 309.2372,107.7461 309.2372,107.7461 309.2372,106.4961 309.2372,106.4961 308.6122,105.2461 308.6122,105.2461 307.9872,104.6211 307.9872,104.6211 306.1122,103.9961 306.1122,103.9961 300.4872,103.9961 300.4872,103.9961 300.4872,117.1211"/>
    <line x1="304.8622" x2="309.2372" y1="110.2461" y2="117.1211"/>
    <polyline points="321.2598,130.3937 359.0551,130.3937 359.0551,130.3937 359.0551,92.5984"/>
    <polyline points="346.4075,105.8711 345.1575,104.6211 345.1575,104.6211 343.2825,103.9961 343.2825,103.9961 340.7825,103.9961 340.7825,103.9961 338.9075,104.6211 338.9075,104.6211 337.6575,105.8711 337.6575,105.8711 337.6575,107.1211 337.6575,107.1211 338.2825,108.3711 338.2825,108.3711 338.9075,108.9961 338.9075,108.9961 340.1575,109.6211 340.1575,109.6211 343.9075,110.8711 343.9075,110.8711 345.1575,111.4961 345.1575,111.4961 345.7825,112.1211 345.7825,112.1211 346.4075,113.3711 346.4075,113.3711 346.4075,115.2461 346.4075,115.2461 345.1575,116.4961 345.1575,116.4961 343.2825,117.1211 343.2825,117.1211 340.7825,117.1211 340.7825,117.1211 338.9075,116.4961 338.9075,116.4961 337.6575,115.2461"/>
    <polyline points="359.0551,130.3937 396.8504,130.3937 396.8504,130.3937 396.8504,168.189 396.8504,168.189 396.8504,205.9843 396.8504,205.9843 359.0551,205.9843 359.0551,205.9843 321.2598,205.9843 321.2598,205.9843 321.2598,168.189 321.2598,168.189 283.4646,168.189 283.4646,168.189 283.4646,205.9843 283.4646,205.9843 321.2598,205.9843 321.2598,205.9843 321.2598,243.7795 321.2598,243.7795 359.0551,243.7795 359.0551,243.7795 396.8504,243.7795 396.8504,243.7795 396.8504,205.9843 396.8504,205.9843 434.6457,205.9843 434.6457,205.9843 434.6457,168.189 434.6457,168.189 434.6457,130.3937 434.6457,130.3937 472.4409,130.3937"/>
    <line x1="378.5778" x2="378.5778" y1="103.9961" y2="117.1211"/>
    <line x1="374.2028" x2="382.9528" y1="103.9961" y2="103.9961"/>
    <polyline points="421.373,117.1211 416.373,103.9961 416.373,103.9961 411.373,117.1211"/>
    <line x1="413.248" x2="419.498" y1="112.7461" y2="112.7461"/>
    <polyline points="460.4183,103.9961 460.4183,117.1211 460.4183,117.1211 451.6683,103.9961 451.6683,103.9961 451.6683,117.1211"/>
    <polygon points="489.4636,103.9961 489.4636,117.1211 489.4636,117.1211 493.8386,117.1211 493.8386,117.1211 495.7136,116.4961 495.7136,116.4961 496.9636,115.2461 496.9636,115.2461 497.5886,113.9961 497.5886,113.9961 498.2136,112.1211 498.2136,112.1211 498.2136,108.9961 498.2136,108.9961 497.5886,107.1211 497.5886,107.1211 496.9636,105.8711 496.9636,105.8711 495.7136,104.6211 495.7136,104.6211 493.8386,103.9961 493.8386,103.9961"/>
    <polyline points="573.4916,103.9961 565.3666,103.9961 565.3666,103.9961 565.3666,117.1211 565.3666,117.1211 573.4916,117.1211"/>
    <line x1="565.3666" x2="570.3666" y1="110.2461" y2="110.2461"/>
    <line x1="623.622" x2="661.4173" y1="130.3937" y2="130.3937"/>
    <polyline points="649.3947,103.9961 649.3947,117.1211 649.3947,117.1211 640.6447,103.9961 640.6447,103.9961 640.6447,117.1211"/>
    <polyline points="737.0079,92.5984 737.0079,130.3937 737.0079,130.3937 737.0079,168.189 737.0079,168.189 774.8031,168.189 774.8031,168.189 774.8031,130.3937 774.8031,130.3937 774.8031,92.5984"/>
    <line x1="737.0079" x2="774.8031" y1="130.3937" y2="130.3937"/>
    <line x1="756.5305" x2="756.5305" y1="103.9961" y2="117.1211"/>
    <line x1="752.1555" x2="760.9055" y1="103.9961" y2="103.9961"/>
    <polyline points="157.7436,141.7913 149.6186,141.7913 149.6186,141.7913 149.6186,154.9163 149.6186,154.9163 157.7436,154.9163"/>
    <line x1="149.6186" x2="154.6186" y1="148.0413" y2="148.0413"/>
    <polyline points="271.1294,144.9163 270.5044,143.6663 270.5044,143.6663 269.2544,142.4163 269.2544,142.4163 268.0044,141.7913 268.0044,141.7913 265.5044,141.7913 265.5044,141.7913 264.2544,142.4163 264.2544,142.4163 263.0044,143.6663 263.0044,143.6663 262.3794,144.9163 262.3794,144.9163 261.7544,146.7913 261.7544,146.7913 261.7544,149.9163 261.7544,149.9163 262.3794,151.7913 262.3794,151.7913 263.0044,153.0413 263.0044,153.0413 264.2544,154.2913 264.2544,154.2913 265.5044,154.9163 265.5044,154.9163 268.0044,154.9163 268.0044,154.9163 269.2544,154.2913 269.2544,154.2913 270.5044,153.0413 270.5044,153.0413 271.1294,151.7913 271.1294,151.7913 271.1294,149.9163 271.1294,149.9163 268.0044,149.9163"/>
    <line x1="396.8504" x2="434.6457" y1="168.189" y2="168.189"/>
    <polygon points="413.873,141.7913 413.873,154.9163 413.873,154.9163 418.248,154.9163 418.248,154.9163 420.123,154.2913 420.123,154.2913 421.373,153.0413 421.373,153.0413 421.998,151.7913 421.998,151.7913 422.623,149.9163 422.623,149.9163 422.623,146.7913 422.623,146.7913 421.998,144.9163 421.998,144.9163 421.373,143.6663 421.373,143.6663 420.123,142.4163 420.123,142.4163 418.248,141.7913 418.248,141.7913"/>
    <polyline points="548.0315,130.3937 548.0315,168.189 548.0315,168.189 585.8268,168.189 585.8268,168.189 585.8268,130.3937"/>
    <polyline points="574.4291,154.9163 574.4291,141.7913 574.4291,141.7913 569.4291,154.9163 569.4291,154.9163 564.4291,141.7913 564.4291,141.7913 564.4291,154.9163"/>
    <line x1="643.1447" x2="643.1447" y1="141.7913" y2="154.9163"/>
    <line x1="638.7697" x2="647.5197" y1="141.7913" y2="141.7913"/>
    <polyline points="754.6555,141.7913 754.6555,154.9163 754.6555,154.9163 762.1555,154.9163"/>
    <polygon points="94.4882,168.189 94.4882,205.9843 94.4882,205.9843 56.6929,205.9843 56.6929,205.9843 56.6929,243.7795 56.6929,243.7795 94.4882,243.7795 94.4882,243.7795 94.4882,205.9843 94.4882,205.9843 132.2835,205.9843 132.2835,205.9843 132.2835,168.189 132.2835,168.189"/>
    <polyline points="98.253,171.3583 98.878,171.0458 98.878,171.0458 99.8155,170.1083 99.8155,170.1083 99.8155,176.6708"/>
    <polygon points="105.4405,170.1083 104.503,170.4208 104.503,170.4208 103.878,171.3583 103.878,171.3583 103.5655,172.9208 103.5655,172.9208 103.5655,173.8583 103.5655,173.8583 103.878,175.4208 103.878,175.4208 104.503,176.3583 104.503,176.3583 105.4405,176.6708 105.4405,176.6708 106.0655,176.6708 106.0655,176.6708 107.003,176.3583 107.003,176.3583 107.628,175.4208 107.628,175.4208 107.9405,173.8583 107.9405,173.8583 107.9405,172.9208 107.9405,172.9208 107.628,171.3583 107.628,171.3583 107.003,170.4208 107.003,170.4208 106.0655,170.1083 106.0655,170.1083"/>
    <polyline points="119.6358,181.4616 118.3858,180.2116 118.3858,180.2116 116.5108,179.5866 116.5108,179.5866 114.0108,179.5866 114.0108,179.5866 112.1358,180.2116 112.1358,180.2116 110.8858,181.4616 110.8858,181.4616 110.8858,182.7116 110.8858,182.7116 111.5108,183.9616 111.5108,183.9616 112.1358,184.5866 112.1358,184.5866 113.3858,185.2116 113.3858,185.2116 117.1358,186.4616 117.1358,186.4616 118.3858,187.0866 118.3858,187.0866 119.0108,187.7116 119.0108,187.7116 119.6358,188.9616 119.6358,188.9616 119.6358,190.8366 119.6358,190.8366 118.3858,192.0866 118.3858,192.0866 116.5108,192.7116 116.5108,192.7116 114.0108,192.7116 114.0108,192.7116 112.1358,192.0866 112.1358,192.0866 110.8858,190.8366"/>
    <polygon points="132.2835,205.9843 170.0787,205.9843 170.0787,205.9843 170.0787,243.7795 170.0787,243.7795 132.2835,243.7795 132.2835,243.7795"/>
    <line x1="151.8061" x2="151.8061" y1="179.5866" y2="192.7116"/>
    <line x1="147.4311" x2="156.1811" y1="179.5866" y2="179.5866"/>
    <polyline points="195.5389,179.5866 187.4139,179.5866 187.4139,179.5866 187.4139,192.7116 187.4139,192.7116 195.5389,192.7116"/>
    <line x1="187.4139" x2="192.4139" y1="185.8366" y2="185.8366"/>
    <polyline points="222.3967,179.5866 227.3967,192.7116 227.3967,192.7116 232.3967,179.5866"/>
    <polygon points="245.6693,205.9843 283.4646,205.9843 283.4646,205.9843 283.4646,243.7795 283.4646,243.7795 245.6693,243.7795 245.6693,243.7795"/>
    <polyline points="271.1294,179.5866 263.0044,179.5866 263.0044,179.5866 263.0044,192.7116 263.0044,192.7116 271.1294,192.7116"/>
    <line x1="263.0044" x2="268.0044" y1="185.8366" y2="185.8366"/>
    <polyline points="309.2372,179.5866 309.2372,192.7116 309.2372,192.7116 300.4872,179.5866 300.4872,179.5866 300.4872,192.7116"/>
    <polygon points="413.873,179.5866 413.873,192.7116 413.873,192.7116 418.248,192.7116 418.248,192.7116 420.123,192.0866 420.123,192.0866 421.373,190.8366 421.373,190.8366 421.998,189.5866 421.998,189.5866 422.623,187.7116 422.623,187.7116 422.623,184.5866 422.623,184.5866 421.998,182.7116 421.998,182.7116 421.373,181.4616 421.373,181.4616 420.123,180.2116 420.123,180.2116 418.248,179.5866 418.248,179.5866"/>
    <polyline points="548.0315,168.189 548.0315,205.9843 548.0315,205.9843 510.2362,205.9843 510.2362,205.9843 472.4409,205.9843 472.4409,205.9843 434.6457,205.9843 434.6457,205.9843 434.6457,243.7795 434.6457,243.7795 396.8504,243.7795 396.8504,243.7795 396.8504,281.5748 396.8504,281.5748 359.0551,281.5748 359.0551,281.5748 359.0551,319.3701 359.0551,319.3701 321.2598,319.3701 321.2598,319.3701 283.4646,319.3701 283.4646,319.3701 283.4646,281.5748 283.4646,281.5748 283.4646,243.7795"/>
    <polyline points="661.4173,168.189 661.4173,205.9843 661.4173,205.9843 623.622,205.9843 623.622,205.9843 585.8268,205.9843 585.8268,205.9843 585.8268,243.7795 585.8268,243.7795 548.0315,243.7795 548.0315,243.7795 548.0315,205.9843 548.0315,205.9843 585.8268,205.9843 585.8268,205.9843 585.8268,168.189"/>
    <polyline points="573.4916,179.5866 565.3666,179.5866 565.3666,179.5866 565.3666,192.7116 565.3666,192.7116 573.4916,192.7116"/>
    <line x1="565.3666" x2="570.3666" y1="185.8366" y2="185.8366"/>
    <polyline points="623.622,168.189 623.622,205.9843 623.622,205.9843 623.622,243.7795 623.622,243.7795 661.4173,243.7795 661.4173,243.7795 699.2126,243.7795 699.2126,243.7795 699.2126,205.9843 699.2126,205.9843 661.4173,205.9843 661.4173,205.9843 661.4173,243.7795"/>
    <polyline points="646.8947,179.5866 646.8947,189.5866 646.8947,189.5866 646.2697,191.4616 646.2697,191.4616 645.6447,192.0866 645.6447,192.0866 644.3947,192.7116 644.3947,192.7116 643.1447,192.7116 643.1447,192.7116 641.8947,192.0866 641.8947,192.0866 641.2697,191.4616 641.2697,191.4616 640.6447,189.5866 640.6447,189.5866 640.6447,188.3366"/>
    <polyline points="737.0079,168.189 737.0079,205.9843 737.0079,205.9843 699.2126,205.9843"/>
    <polyline points="774.8031,205.9843 774.8031,243.7795 774.8031,243.7795 737.0079,243.7795 737.0079,243.7795 737.0079,205.9843 737.0079,205.9843 774.8031,205.9843 774.8031,205.9843 774.8031,168.189"/>
    <line x1="758.4055" x2="758.4055" y1="179.5866" y2="192.7116"/>
    <polyline points="60.4577,209.1535 61.0827,208.841 61.0827,208.841 62.0202,207.9035 62.0202,207.9035 62.0202,214.466"/>
    <polyline points="66.7077,209.1535 67.3327,208.841 67.3327,208.841 68.2702,207.9035 68.2702,207.9035 68.2702,214.466"/>
    <polyline points="82.1531,220.5069 81.5281,219.2569 81.5281,219.2569 80.2781,218.0069 80.2781,218.0069 79.0281,217.3819 79.0281,217.3819 76.5281,217.3819 76.5281,217.3819 75.2781,218.0069 75.2781,218.0069 74.0281,219.2569 74.0281,219.2569 73.4031,220.5069 73.4031,220.5069 72.7781,222.3819 72.7781,222.3819 72.7781,225.5069 72.7781,225.5069 73.4031,227.3819 73.4031,227.3819 74.0281,228.6319 74.0281,228.6319 75.2781,229.8819 75.2781,229.8819 76.5281,230.5069 76.5281,230.5069 79.0281,230.5069 79.0281,230.5069 80.2781,229.8819 80.2781,229.8819 81.5281,228.6319 81.5281,228.6319 82.1531,227.3819 82.1531,227.3819 82.1531,225.5069 82.1531,225.5069 79.0281,225.5069"/>
    <polyline points="155.5561,217.3819 155.5561,227.3819 155.5561,227.3819 154.9311,229.2569 154.9311,229.2569 154.3061,229.8819 154.3061,229.8819 153.0561,230.5069 153.0561,230.5069 151.8061,230.5069 151.8061,230.5069 150.5561,229.8819 150.5561,229.8819 149.9311,229.2569 149.9311,229.2569 149.3061,227.3819 149.3061,227.3819 149.3061,226.1319"/>
    <polyline points="271.4419,217.3819 271.4419,230.5069 271.4419,230.5069 262.6919,217.3819 262.6919,217.3819 262.6919,230.5069"/>
    <line x1="359.0551" x2="359.0551" y1="243.7795" y2="205.9843"/>
    <polyline points="325.0246,209.1535 325.6496,208.841 325.6496,208.841 326.5871,207.9035 326.5871,207.9035 326.5871,214.466"/>
    <polyline points="330.6496,209.466 330.6496,209.1535 330.6496,209.1535 330.9621,208.5285 330.9621,208.5285 331.2746,208.216 331.2746,208.216 331.8996,207.9035 331.8996,207.9035 333.1496,207.9035 333.1496,207.9035 333.7746,208.216 333.7746,208.216 334.0871,208.5285 334.0871,208.5285 334.3996,209.1535 334.3996,209.1535 334.3996,209.7785 334.3996,209.7785 334.0871,210.4035 334.0871,210.4035 333.4621,211.341 333.4621,211.341 330.3371,214.466 330.3371,214.466 334.7121,214.466"/>
    <polyline points="346.72,217.3819 338.595,217.3819 338.595,217.3819 338.595,230.5069"/>
    <line x1="338.595" x2="343.595" y1="223.6319" y2="223.6319"/>
    <polyline points="376.7028,217.3819 376.7028,230.5069 376.7028,230.5069 384.2028,230.5069"/>
    <polyline points="422.3105,217.3819 414.1855,217.3819 414.1855,217.3819 414.1855,230.5069 414.1855,230.5069 422.3105,230.5069"/>
    <line x1="414.1855" x2="419.1855" y1="223.6319" y2="223.6319"/>
    <polyline points="396.8504,357.1654 396.8504,319.3701 396.8504,319.3701 434.6457,319.3701 434.6457,319.3701 434.6457,357.1654 434.6457,357.1654 396.8504,357.1654 396.8504,357.1654 359.0551,357.1654 359.0551,357.1654 359.0551,319.3701 359.0551,319.3701 396.8504,319.3701 396.8504,319.3701 396.8504,281.5748 396.8504,281.5748 434.6457,281.5748 434.6457,281.5748 434.6457,243.7795 434.6457,243.7795 472.4409,243.7795 472.4409,243.7795 510.2362,243.7795 510.2362,243.7795 548.0315,243.7795"/>
    <line x1="472.4409" x2="472.4409" y1="243.7795" y2="205.9843"/>
    <polyline points="459.7933,219.2569 458.5433,218.0069 458.5433,218.0069 456.6683,217.3819 456.6683,217.3819 454.1683,217.3819 454.1683,217.3819 452.2933,218.0069 452.2933,218.0069 451.0433,219.2569 451.0433,219.2569 451.0433,220.5069 451.0433,220.5069 451.6683,221.7569 451.6683,221.7569 452.2933,222.3819 452.2933,222.3819 453.5433,223.0069 453.5433,223.0069 457.2933,224.2569 457.2933,224.2569 458.5433,224.8819 458.5433,224.8819 459.1683,225.5069 459.1683,225.5069 459.7933,226.7569 459.7933,226.7569 459.7933,228.6319 459.7933,228.6319 458.5433,229.8819 458.5433,229.8819 456.6683,230.5069 456.6683,230.5069 454.1683,230.5069 454.1683,230.5069 452.2933,229.8819 452.2933,229.8819 451.0433,228.6319"/>
    <line x1="510.2362" x2="510.2362" y1="243.7795" y2="205.9843"/>
    <polyline points="497.5886,219.2569 496.3386,218.0069 496.3386,218.0069 494.4636,217.3819 494.4636,217.3819 491.9636,217.3819 491.9636,217.3819 490.0886,218.0069 490.0886,218.0069 488.8386,219.2569 488.8386,219.2569 488.8386,220.5069 488.8386,220.5069 489.4636,221.7569 489.4636,221.7569 490.0886,222.3819 490.0886,222.3819 491.3386,223.0069 491.3386,223.0069 495.0886,224.2569 495.0886,224.2569 496.3386,224.8819 496.3386,224.8819 496.9636,225.5069 496.9636,225.5069 497.5886,226.7569 497.5886,226.7569 497.5886,228.6319 497.5886,228.6319 496.3386,229.8819 496.3386,229.8819 494.4636,230.5069 494.4636,230.5069 491.9636,230.5069 491.9636,230.5069 490.0886,229.8819 490.0886,229.8819 488.8386,228.6319"/>
    <polyline points="535.6964,217.3819 527.5714,217.3819 527.5714,217.3819 527.5714,230.5069 527.5714,230.5069 535.6964,230.5069"/>
    <line x1="527.5714" x2="532.5714" y1="223.6319" y2="223.6319"/>
    <polyline points="573.8041,217.3819 573.8041,230.5069 573.8041,230.5069 565.0541,217.3819 565.0541,217.3819 565.0541,230.5069"/>
    <line x1="585.8268" x2="623.622" y1="243.7795" y2="243.7795"/>
    <polyline points="611.2869,220.5069 610.6619,219.2569 610.6619,219.2569 609.4119,218.0069 609.4119,218.0069 608.1619,217.3819 608.1619,217.3819 605.6619,217.3819 605.6619,217.3819 604.4119,218.0069 604.4119,218.0069 603.1619,219.2569 603.1619,219.2569 602.5369,220.5069 602.5369,220.5069 601.9119,222.3819 601.9119,222.3819 601.9119,225.5069 601.9119,225.5069 602.5369,227.3819 602.5369,227.3819 603.1619,228.6319 603.1619,228.6319 604.4119,229.8819 604.4119,229.8819 605.6619,230.5069 605.6619,230.5069 608.1619,230.5069 608.1619,230.5069 609.4119,229.8819 609.4119,229.8819 610.6619,228.6319 610.6619,228.6319 611.2869,227.3819 611.2869,227.3819 611.2869,225.5069 611.2869,225.5069 608.1619,225.5069"/>
    <polyline points="649.0822,217.3819 640.9572,217.3819 640.9572,217.3819 640.9572,230.5069 640.9572,230.5069 649.0822,230.5069"/>
    <line x1="640.9572" x2="645.9572" y1="223.6319" y2="223.6319"/>
    <polyline points="679.065,217.3819 679.065,230.5069 679.065,230.5069 686.565,230.5069"/>
    <polyline points="699.2126,243.7795 737.0079,243.7795 737.0079,243.7795 737.0079,281.5748 737.0079,281.5748 774.8031,281.5748 774.8031,281.5748 774.8031,243.7795"/>
    <polyline points="716.2352,217.3819 716.2352,226.7569 716.2352,226.7569 716.8602,228.6319 716.8602,228.6319 718.1102,229.8819 718.1102,229.8819 719.9852,230.5069 719.9852,230.5069 721.2352,230.5069 721.2352,230.5069 723.1102,229.8819 723.1102,229.8819 724.3602,228.6319 724.3602,228.6319 724.9852,226.7569 724.9852,226.7569 724.9852,217.3819"/>
    <line x1="754.0305" x2="754.0305" y1="217.3819" y2="230.5069"/>
    <line x1="762.7805" x2="754.0305" y1="217.3819" y2="226.1319"/>
    <line x1="757.1555" x2="762.7805" y1="223.0069" y2="230.5069"/>
    <polyline points="56.6929,319.3701 56.6929,281.5748 56.6929,281.5748 56.6929,243.7795 56.6929,243.7795 18.8976,243.7795 18.8976,243.7795 18.8976,281.5748 18.8976,281.5748 56.6929,281.5748 56.6929,281.5748 94.4882,281.5748 94.4882,281.5748 94.4882,243.7795 94.4882,243.7795 132.2835,243.7795 132.2835,243.7795 132.2835,281.5748 132.2835,281.5748 170.0787,281.5748 170.0787,281.5748 170.0787,243.7795 170.0787,243.7795 207.874,243.7795 207.874,243.7795 207.874,281.5748 207.874,281.5748 170.0787,281.5748 170.0787,281.5748 170.0787,319.3701 170.0787,319.3701 170.0787,357.1654 170.0787,357.1654 207.874,357.1654 207.874,357.1654 207.874,319.3701 207.874,319.3701 170.0787,319.3701 170.0787,319.3701 132.2835,319.3701 132.2835,319.3701 132.2835,281.5748 132.2835,281.5748 94.4882,281.5748 94.4882,281.5748 94.4882,319.3701 94.4882,319.3701 56.6929,319.3701 56.6929,319.3701 56.6929,357.1654 56.6929,357.1654 94.4882,357.1654 94.4882,357.1654 94.4882,319.3701"/>
    <polyline points="22.6624,246.9488 23.2874,246.6363 23.2874,246.6363 24.2249,245.6988 24.2249,245.6988 24.2249,252.2613"/>
    <polyline points="28.5999,245.6988 32.0374,245.6988 32.0374,245.6988 30.1624,248.1988 30.1624,248.1988 31.0999,248.1988 31.0999,248.1988 31.7249,248.5113 31.7249,248.5113 32.0374,248.8238 32.0374,248.8238 32.3499,249.7613 32.3499,249.7613 32.3499,250.3863 32.3499,250.3863 32.0374,251.3238 32.0374,251.3238 31.4124,251.9488 31.4124,251.9488 30.4749,252.2613 30.4749,252.2613 29.5374,252.2613 29.5374,252.2613 28.5999,251.9488 28.5999,251.9488 28.2874,251.6363 28.2874,251.6363 27.9749,251.0113"/>
    <polyline points="44.3578,258.3022 43.7328,257.0522 43.7328,257.0522 42.4828,255.8022 42.4828,255.8022 41.2328,255.1772 41.2328,255.1772 38.7328,255.1772 38.7328,255.1772 37.4828,255.8022 37.4828,255.8022 36.2328,257.0522 36.2328,257.0522 35.6078,258.3022 35.6078,258.3022 34.9828,260.1772 34.9828,260.1772 34.9828,263.3022 34.9828,263.3022 35.6078,265.1772 35.6078,265.1772 36.2328,266.4272 36.2328,266.4272 37.4828,267.6772 37.4828,267.6772 38.7328,268.3022 38.7328,268.3022 41.2328,268.3022 41.2328,268.3022 42.4828,267.6772 42.4828,267.6772 43.7328,266.4272 43.7328,266.4272 44.3578,265.1772 44.3578,265.1772 44.3578,263.3022 44.3578,263.3022 41.2328,263.3022"/>
    <polyline points="73.7156,261.4272 79.3406,261.4272 79.3406,261.4272 81.2156,260.8022 81.2156,260.8022 81.8406,260.1772 81.8406,260.1772 82.4656,258.9272 82.4656,258.9272 82.4656,257.6772 82.4656,257.6772 81.8406,256.4272 81.8406,256.4272 81.2156,255.8022 81.2156,255.8022 79.3406,255.1772 79.3406,255.1772 73.7156,255.1772 73.7156,255.1772 73.7156,268.3022"/>
    <line x1="78.0906" x2="82.4656" y1="261.4272" y2="268.3022"/>
    <polygon points="114.0108,255.1772 112.7608,255.8022 112.7608,255.8022 111.5108,257.0522 111.5108,257.0522 110.8858,258.3022 110.8858,258.3022 110.2608,260.1772 110.2608,260.1772 110.2608,263.3022 110.2608,263.3022 110.8858,265.1772 110.8858,265.1772 111.5108,266.4272 111.5108,266.4272 112.7608,267.6772 112.7608,267.6772 114.0108,268.3022 114.0108,268.3022 116.5108,268.3022 116.5108,268.3022 117.7608,267.6772 117.7608,267.6772 119.0108,266.4272 119.0108,266.4272 119.6358,265.1772 119.6358,265.1772 120.2608,263.3022 120.2608,263.3022 120.2608,260.1772 120.2608,260.1772 119.6358,258.3022 119.6358,258.3022 119.0108,257.0522 119.0108,257.0522 117.7608,255.8022 117.7608,255.8022 116.5108,255.1772 116.5108,255.1772"/>
    <polyline points="157.7436,255.1772 149.6186,255.1772 149.6186,255.1772 149.6186,268.3022 149.6186,268.3022 157.7436,268.3022"/>
    <line x1="149.6186" x2="154.6186" y1="261.4272" y2="261.4272"/>
    <polyline points="195.8514,255.1772 195.8514,268.3022 195.8514,268.3022 187.1014,255.1772 187.1014,255.1772 187.1014,268.3022"/>
    <polyline points="245.6693,243.7795 245.6693,281.5748 245.6693,281.5748 283.4646,281.5748"/>
    <polygon points="262.6919,255.1772 262.6919,268.3022 262.6919,268.3022 268.3169,268.3022 268.3169,268.3022 270.1919,267.6772 270.1919,267.6772 270.8169,267.0522 270.8169,267.0522 271.4419,265.8022 271.4419,265.8022 271.4419,263.9272 271.4419,263.9272 270.8169,262.6772 270.8169,262.6772 270.1919,262.0522 270.1919,262.0522 268.3169,261.4272 268.3169,261.4272 270.1919,260.8022 270.1919,260.8022 270.8169,260.1772 270.8169,260.1772 271.4419,258.9272 271.4419,258.9272 271.4419,257.6772 271.4419,257.6772 270.8169,256.4272 270.8169,256.4272 270.1919,255.8022 270.1919,255.8022 268.3169,255.1772 268.3169,255.1772"/>
    <line x1="262.6919" x2="268.3169" y1="261.4272" y2="261.4272"/>
    <polyline points="413.873,261.4272 419.498,261.4272 419.498,261.4272 421.373,260.8022 421.373,260.8022 421.998,260.1772 421.998,260.1772 422.623,258.9272 422.623,258.9272 422.623,257.6772 422.623,257.6772 421.998,256.4272 421.998,256.4272 421.373,255.8022 421.373,255.8022 419.498,255.1772 419.498,255.1772 413.873,255.1772 413.873,255.1772 413.873,268.3022"/>
    <line x1="418.248" x2="422.623" y1="261.4272" y2="268.3022"/>
    <line x1="754.0305" x2="754.0305" y1="255.1772" y2="268.3022"/>
    <line x1="762.7805" x2="754.0305" y1="255.1772" y2="263.9272"/>
    <line x1="757.1555" x2="762.7805" y1="260.8022" y2="268.3022"/>
    <polyline points="81.2156,306.0974 76.2156,292.9724 76.2156,292.9724 71.2156,306.0974"/>
    <line x1="73.0906" x2="79.3406" y1="301.7224" y2="301.7224"/>
    <polyline points="157.4311,294.8474 156.1811,293.5974 156.1811,293.5974 154.3061,292.9724 154.3061,292.9724 151.8061,292.9724 151.8061,292.9724 149.9311,293.5974 149.9311,293.5974 148.6811,294.8474 148.6811,294.8474 148.6811,296.0974 148.6811,296.0974 149.3061,297.3474 149.3061,297.3474 149.9311,297.9724 149.9311,297.9724 151.1811,298.5974 151.1811,298.5974 154.9311,299.8474 154.9311,299.8474 156.1811,300.4724 156.1811,300.4724 156.8061,301.0974 156.8061,301.0974 157.4311,302.3474 157.4311,302.3474 157.4311,304.2224 157.4311,304.2224 156.1811,305.4724 156.1811,305.4724 154.3061,306.0974 154.3061,306.0974 151.8061,306.0974 151.8061,306.0974 149.9311,305.4724 149.9311,305.4724 148.6811,304.2224"/>
    <polyline points="245.6693,281.5748 245.6693,319.3701 245.6693,319.3701 283.4646,319.3701 283.4646,319.3701 283.4646,357.1654 283.4646,357.1654 321.2598,357.1654 321.2598,357.1654 321.2598,319.3701"/>
    <polyline points="262.6919,292.9724 262.6919,302.3474 262.6919,302.3474 263.3169,304.2224 263.3169,304.2224 264.5669,305.4724 264.5669,305.4724 266.4419,306.0974 266.4419,306.0974 267.6919,306.0974 267.6919,306.0974 269.5669,305.4724 269.5669,305.4724 270.8169,304.2224 270.8169,304.2224 271.4419,302.3474 271.4419,302.3474 271.4419,292.9724"/>
    <polyline points="362.8199,284.7441 363.4449,284.4316 363.4449,284.4316 364.3824,283.4941 364.3824,283.4941 364.3824,290.0566"/>
    <polyline points="371.2574,290.0566 371.2574,283.4941 371.2574,283.4941 368.1324,287.8691 368.1324,287.8691 372.8199,287.8691"/>
    <polyline points="382.3278,292.9724 382.3278,302.9724 382.3278,302.9724 381.7028,304.8474 381.7028,304.8474 381.0778,305.4724 381.0778,305.4724 379.8278,306.0974 379.8278,306.0974 378.5778,306.0974 378.5778,306.0974 377.3278,305.4724 377.3278,305.4724 376.7028,304.8474 376.7028,304.8474 376.0778,302.9724 376.0778,302.9724 376.0778,301.7224"/>
    <polygon points="472.4409,281.5748 472.4409,319.3701 472.4409,319.3701 510.2362,319.3701 510.2362,319.3701 510.2362,281.5748 510.2362,281.5748"/>
    <polyline points="476.2057,284.7441 476.8307,284.4316 476.8307,284.4316 477.7682,283.4941 477.7682,283.4941 477.7682,290.0566"/>
    <polyline points="485.2682,283.4941 482.1432,283.4941 482.1432,283.4941 481.8307,286.3066 481.8307,286.3066 482.1432,285.9941 482.1432,285.9941 483.0807,285.6816 483.0807,285.6816 484.0182,285.6816 484.0182,285.6816 484.9557,285.9941 484.9557,285.9941 485.5807,286.6191 485.5807,286.6191 485.8932,287.5566 485.8932,287.5566 485.8932,288.1816 485.8932,288.1816 485.5807,289.1191 485.5807,289.1191 484.9557,289.7441 484.9557,289.7441 484.0182,290.0566 484.0182,290.0566 483.0807,290.0566 483.0807,290.0566 482.1432,289.7441 482.1432,289.7441 481.8307,289.4316 481.8307,289.4316 481.5182,288.8066"/>
    <polyline points="497.5886,294.8474 496.3386,293.5974 496.3386,293.5974 494.4636,292.9724 494.4636,292.9724 491.9636,292.9724 491.9636,292.9724 490.0886,293.5974 490.0886,293.5974 488.8386,294.8474 488.8386,294.8474 488.8386,296.0974 488.8386,296.0974 489.4636,297.3474 489.4636,297.3474 490.0886,297.9724 490.0886,297.9724 491.3386,298.5974 491.3386,298.5974 495.0886,299.8474 495.0886,299.8474 496.3386,300.4724 496.3386,300.4724 496.9636,301.0974 496.9636,301.0974 497.5886,302.3474 497.5886,302.3474 497.5886,304.2224 497.5886,304.2224 496.3386,305.4724 496.3386,305.4724 494.4636,306.0974 494.4636,306.0974 491.9636,306.0974 491.9636,306.0974 490.0886,305.4724 490.0886,305.4724 488.8386,304.2224"/>
    <polyline points="510.2362,319.3701 548.0315,319.3701 548.0315,319.3701 548.0315,281.5748 548.0315,281.5748 510.2362,281.5748"/>
    <line x1="527.2589" x2="527.2589" y1="292.9724" y2="306.0974"/>
    <line x1="536.0089" x2="527.2589" y1="292.9724" y2="301.7224"/>
    <line x1="530.3839" x2="536.0089" y1="298.5974" y2="306.0974"/>
    <polyline points="548.0315,319.3701 585.8268,319.3701 585.8268,319.3701 585.8268,281.5748 585.8268,281.5748 548.0315,281.5748"/>
    <polyline points="573.4916,292.9724 565.3666,292.9724 565.3666,292.9724 565.3666,306.0974 565.3666,306.0974 573.4916,306.0974"/>
    <line x1="565.3666" x2="570.3666" y1="299.2224" y2="299.2224"/>
    <polyline points="585.8268,319.3701 623.622,319.3701 623.622,319.3701 623.622,281.5748 623.622,281.5748 585.8268,281.5748"/>
    <polyline points="603.4744,292.9724 603.4744,306.0974 603.4744,306.0974 610.9744,306.0974"/>
    <polyline points="623.622,319.3701 661.4173,319.3701 661.4173,319.3701 699.2126,319.3701 699.2126,319.3701 699.2126,281.5748 699.2126,281.5748 661.4173,281.5748 661.4173,281.5748 623.622,281.5748"/>
    <line x1="661.4173" x2="661.4173" y1="319.3701" y2="281.5748"/>
    <polyline points="641.2697,292.9724 641.2697,306.0974 641.2697,306.0974 648.7697,306.0974"/>
    <polyline points="686.8775,292.9724 678.7525,292.9724 678.7525,292.9724 678.7525,306.0974 678.7525,306.0974 686.8775,306.0974"/>
    <line x1="678.7525" x2="683.7525" y1="299.2224" y2="299.2224"/>
    <polyline points="699.2126,319.3701 737.0079,319.3701 737.0079,319.3701 774.8031,319.3701 774.8031,319.3701 774.8031,281.5748"/>
    <polyline points="774.8031,319.3701 774.8031,357.1654 774.8031,357.1654 737.0079,357.1654 737.0079,357.1654 737.0079,319.3701 737.0079,319.3701 737.0079,281.5748 737.0079,281.5748 699.2126,281.5748"/>
    <line x1="716.2352" x2="716.2352" y1="292.9724" y2="306.0974"/>
    <line x1="724.9852" x2="716.2352" y1="292.9724" y2="301.7224"/>
    <line x1="719.3602" x2="724.9852" y1="298.5974" y2="306.0974"/>
    <polyline points="762.468,292.9724 754.343,292.9724 754.343,292.9724 754.343,306.0974 754.343,306.0974 762.468,306.0974"/>
    <line x1="754.343" x2="759.343" y1="299.2224" y2="299.2224"/>
    <polyline points="81.8406,332.6427 80.5906,331.3927 80.5906,331.3927 78.7156,330.7677 78.7156,330.7677 76.2156,330.7677 76.2156,330.7677 74.3406,331.3927 74.3406,331.3927 73.0906,332.6427 73.0906,332.6427 73.0906,333.8927 73.0906,333.8927 73.7156,335.1427 73.7156,335.1427 74.3406,335.7677 74.3406,335.7677 75.5906,336.3927 75.5906,336.3927 79.3406,337.6427 79.3406,337.6427 80.5906,338.2677 80.5906,338.2677 81.2156,338.8927 81.2156,338.8927 81.8406,340.1427 81.8406,340.1427 81.8406,342.0177 81.8406,342.0177 80.5906,343.2677 80.5906,343.2677 78.7156,343.8927 78.7156,343.8927 76.2156,343.8927 76.2156,343.8927 74.3406,343.2677 74.3406,343.2677 73.0906,342.0177"/>
    <polyline points="173.8435,322.5394 174.4685,322.2269 174.4685,322.2269 175.406,321.2894 175.406,321.2894 175.406,327.8519"/>
    <polyline points="183.2185,322.2269 182.906,321.6019 182.906,321.6019 181.9685,321.2894 181.9685,321.2894 181.3435,321.2894 181.3435,321.2894 180.406,321.6019 180.406,321.6019 179.781,322.5394 179.781,322.5394 179.4685,324.1019 179.4685,324.1019 179.4685,325.6644 179.4685,325.6644 179.781,326.9144 179.781,326.9144 180.406,327.5394 180.406,327.5394 181.3435,327.8519 181.3435,327.8519 181.656,327.8519 181.656,327.8519 182.5935,327.5394 182.5935,327.5394 183.2185,326.9144 183.2185,326.9144 183.531,325.9769 183.531,325.9769 183.531,325.6644 183.531,325.6644 183.2185,324.7269 183.2185,324.7269 182.5935,324.1019 182.5935,324.1019 181.656,323.7894 181.656,323.7894 181.3435,323.7894 181.3435,323.7894 180.406,324.1019 180.406,324.1019 179.781,324.7269 179.781,324.7269 179.4685,325.6644"/>
    <polyline points="184.6014,330.7677 189.6014,343.8927 189.6014,343.8927 194.6014,330.7677"/>
    <polyline points="207.874,357.1654 245.6693,357.1654 245.6693,357.1654 245.6693,319.3701 245.6693,319.3701 207.874,319.3701"/>
    <polyline points="224.8967,337.0177 230.5217,337.0177 230.5217,337.0177 232.3967,336.3927 232.3967,336.3927 233.0217,335.7677 233.0217,335.7677 233.6467,334.5177 233.6467,334.5177 233.6467,333.2677 233.6467,333.2677 233.0217,332.0177 233.0217,332.0177 232.3967,331.3927 232.3967,331.3927 230.5217,330.7677 230.5217,330.7677 224.8967,330.7677 224.8967,330.7677 224.8967,343.8927"/>
    <line x1="229.2717" x2="233.6467" y1="337.0177" y2="343.8927"/>
    <line x1="245.6693" x2="283.4646" y1="357.1654" y2="357.1654"/>
    <line x1="267.0669" x2="267.0669" y1="330.7677" y2="343.8927"/>
    <polyline points="306.7372,330.7677 306.7372,340.7677 306.7372,340.7677 306.1122,342.6427 306.1122,342.6427 305.4872,343.2677 305.4872,343.2677 304.2372,343.8927 304.2372,343.8927 302.9872,343.8927 302.9872,343.8927 301.7372,343.2677 301.7372,343.2677 301.1122,342.6427 301.1122,342.6427 300.4872,340.7677 300.4872,340.7677 300.4872,339.5177"/>
    <line x1="321.2598" x2="359.0551" y1="357.1654" y2="357.1654"/>
    <polygon points="338.2825,330.7677 338.2825,343.8927 338.2825,343.8927 342.6575,343.8927 342.6575,343.8927 344.5325,343.2677 344.5325,343.2677 345.7825,342.0177 345.7825,342.0177 346.4075,340.7677 346.4075,340.7677 347.0325,338.8927 347.0325,338.8927 347.0325,335.7677 347.0325,335.7677 346.4075,333.8927 346.4075,333.8927 345.7825,332.6427 345.7825,332.6427 344.5325,331.3927 344.5325,331.3927 342.6575,330.7677 342.6575,330.7677"/>
    <polyline points="383.5778,343.8927 378.5778,330.7677 378.5778,330.7677 373.5778,343.8927"/>
    <line x1="375.4528" x2="381.7028" y1="339.5177" y2="339.5177"/>
    <polyline points="422.3105,333.8927 421.6855,332.6427 421.6855,332.6427 420.4355,331.3927 420.4355,331.3927 419.1855,330.7677 419.1855,330.7677 416.6855,330.7677 416.6855,330.7677 415.4355,331.3927 415.4355,331.3927 414.1855,332.6427 414.1855,332.6427 413.5605,333.8927 413.5605,333.8927 412.9355,335.7677 412.9355,335.7677 412.9355,338.8927 412.9355,338.8927 413.5605,340.7677 413.5605,340.7677 414.1855,342.0177 414.1855,342.0177 415.4355,343.2677 415.4355,343.2677 416.6855,343.8927 416.6855,343.8927 419.1855,343.8927 419.1855,343.8927 420.4355,343.2677 420.4355,343.2677 421.6855,342.0177 421.6855,342.0177 422.3105,340.7677 422.3105,340.7677 422.3105,338.8927 422.3105,338.8927 419.1855,338.8927"/>
    <polyline points="762.7805,330.7677 762.7805,343.8927 762.7805,343.8927 754.0305,330.7677 754.0305,330.7677 754.0305,343.8927"/>
  </g>
</svg>
