<?xml version="1.0" encoding="utf-8" ?>
<svg xmlns="http://www.w3.org/2000/svg" xmlns:cc="http://creativecommons.org/ns" xmlns:dc="http://purl.org/dc/elements/1.1/" xmlns:ev="http://www.w3.org/2001/xml-events" xmlns:inkscape="http://www.inkscape.org/namespaces/inkscape" xmlns:rdf="http://www.w3.org/1999/02/22-rdf-syntax-ns" xmlns:sodipodi="http://sodipodi.sourceforge.net/DTD/sodipodi-0.dtd" xmlns:xlink="http://www.w3.org/1999/xlink" baseProfile="tiny" height="9.9cm" version="1.2" viewBox="0 0 793.7007874015749 374.1732283464567" width="21.0cm">
  <metadata>
    <rdf:RDF>
      <cc:Work>
        <dc:format>image/svg+xml</dc:format>
        <dc:source>vpype eval 'cell=10;width=210;height=99' eval 'nCols=20;nRows=9' eval 'cells=[0,1,2,3,4,5,6,9,10,11,12,13,14,15,16,17,19,23,27,32,39,41,43,47,50,52,59,60,61,62,63,64,65,66,67,69,70,71,72,73,74,75,76,77,78,79,81,83,87,90,92,95,99,101,103,104,105,106,107,108,109,110,112,115,119,121,123,125,127,132,133,134,135,136,137,139,140,141,143,145,152,159,161,165,169,170,171,172,173,174,175,176,177,179]' eval 'chars=[&quot;P&quot;,&quot;I&quot;,&quot;N&quot;,&quot;K&quot;,&quot;E&quot;,&quot;R&quot;,&quot;S&quot;,&quot;R&quot;,&quot;E&quot;,&quot;K&quot;,&quot;K&quot;,&quot;E&quot;,&quot;R&quot;,&quot;T&quot;,&quot;J&quot;,&quot;E&quot;,&quot;M&quot;,&quot;I&quot;,&quot;L&quot;,&quot;L&quot;,&quot;A&quot;,&quot;V&quot;,&quot;N&quot;,&quot;A&quot;,&quot;P&quot;,&quot;A&quot;,&quot;N&quot;,&quot;F&quot;,&quot;R&quot;,&quot;E&quot;,&quot;D&quot;,&quot;E&quot;,&quot;R&quot;,&quot;I&quot;,&quot;K&quot;,&quot;M&quot;,&quot;I&quot;,&quot;S&quot;,&quot;V&quot;,&quot;E&quot;,&quot;R&quot;,&quot;S&quot;,&quot;T&quot;,&quot;A&quot;,&quot;N&quot;,&quot;D&quot;,&quot;I&quot;,&quot;E&quot;,&quot;E&quot;,&quot;P&quot;,&quot;E&quot;,&quot;T&quot;,&quot;A&quot;,&quot;J&quot;,&quot;R&quot;,&quot;E&quot;,&quot;G&quot;,&quot;E&quot;,&quot;N&quot;,&quot;B&quot;,&quot;U&quot;,&quot;I&quot;,&quot;R&quot;,&quot;E&quot;,&quot;R&quot;,&quot;D&quot;,&quot;E&quot;,&quot;R&quot;,&quot;S&quot;,&quot;T&quot;,&quot;E&quot;,&quot;R&quot;,&quot;R&quot;,&quot;A&quot;,&quot;S&quot;,&quot;I&quot;,&quot;J&quot;,&quot;A&quot;,&quot;N&quot;,&quot;A&quot;,&quot;J&quot;,&quot;J&quot;,&quot;G&quot;,&quot;S&quot;,&quot;R&quot;,&quot;E&quot;,&quot;G&quot;,&quot;E&quot;,&quot;N&quot;,&quot;B&quot;,&quot;O&quot;,&quot;O&quot;,&quot;G&quot;,&quot;N&quot;]' eval 'numbers=[0,3,9,12,19,27,41,50,60,69,75,103,105,132,140,169]' eval counter=1 eval charIndex=0 begin grid -o '%cell*mm%' '%cell*mm%' %nCols% %nRows% eval '%isCell=_i in cells%' eval '%number=_i in numbers%' eval '%size=10 if isCell else 0%' rect 0 0 '%size*mm%' '%size*mm%' text -s 10 -p 0.5mm 1.5mm '%counter if number else '&quot;'&quot;''&quot;'&quot;'%' text -s 20 -p 5mm 5mm -a center '%chars[charIndex] if isCell else '&quot;'&quot;''&quot;'&quot;'%' eval '%if number: counter+=1 %' eval '%if isCell: charIndex+=1 %' end splitall deduplicate linemerge --tolerance 0.1mm write -m none --page-size '%width*mm%x%height*mm%' --center ./svgs/solution/753bf6.svg
</dc:source>
        <dc:date>2024-01-06T16:44:06.596400</dc:date>
      </cc:Work>
    </rdf:RDF>
  </metadata>
  <defs/>
  <g fill="none" id="layer1" inkscape:groupmode="layer" inkscape:label="1" stroke="#000000" style="display:inline">
    <polygon points="18.8976,17.0079 18.8976,54.8031 18.8976,54.8031 56.6929,54.8031 56.6929,54.8031 56.6929,17.0079 56.6929,17.0079"/>
    <polyline points="22.6624,20.1772 23.2874,19.8647 23.2874,19.8647 24.2249,18.9272 24.2249,18.9272 24.2249,25.4897"/>
    <polyline points="35.9203,35.2805 41.5453,35.2805 41.5453,35.2805 43.4203,34.6555 43.4203,34.6555 44.0453,34.0305 44.0453,34.0305 44.6703,32.7805 44.6703,32.7805 44.6703,30.9055 44.6703,30.9055 44.0453,29.6555 44.0453,29.6555 43.4203,29.0305 43.4203,29.0305 41.5453,28.4055 41.5453,28.4055 35.9203,28.4055 35.9203,28.4055 35.9203,41.5305"/>
    <polyline points="56.6929,54.8031 94.4882,54.8031 94.4882,54.8031 94.4882,17.0079 94.4882,17.0079 56.6929,17.0079"/>
    <line x1="78.0906" x2="78.0906" y1="28.4055" y2="41.5305"/>
    <polyline points="94.4882,54.8031 132.2835,54.8031 132.2835,54.8031 132.2835,17.0079 132.2835,17.0079 94.4882,17.0079"/>
    <polyline points="120.2608,28.4055 120.2608,41.5305 120.2608,41.5305 111.5108,28.4055 111.5108,28.4055 111.5108,41.5305"/>
    <polyline points="170.0787,17.0079 170.0787,54.8031 170.0787,54.8031 170.0787,92.5984 170.0787,92.5984 170.0787,130.3937 170.0787,130.3937 132.2835,130.3937 132.2835,130.3937 132.2835,92.5984 132.2835,92.5984 132.2835,54.8031 132.2835,54.8031 170.0787,54.8031 170.0787,54.8031 207.874,54.8031 207.874,54.8031 245.6693,54.8031 245.6693,54.8031 245.6693,17.0079 245.6693,17.0079 207.874,17.0079 207.874,17.0079 170.0787,17.0079 170.0787,17.0079 132.2835,17.0079"/>
    <polyline points="135.4232,20.4897 135.4232,20.1772 135.4232,20.1772 135.7357,19.5522 135.7357,19.5522 136.0482,19.2397 136.0482,19.2397 136.6732,18.9272 136.6732,18.9272 137.9232,18.9272 137.9232,18.9272 138.5482,19.2397 138.5482,19.2397 138.8607,19.5522 138.8607,19.5522 139.1732,20.1772 139.1732,20.1772 139.1732,20.8022 139.1732,20.8022 138.8607,21.4272 138.8607,21.4272 138.2357,22.3647 138.2357,22.3647 135.1107,25.4897 135.1107,25.4897 139.4857,25.4897"/>
    <line x1="149.3061" x2="149.3061" y1="28.4055" y2="41.5305"/>
    <line x1="158.0561" x2="149.3061" y1="28.4055" y2="37.1555"/>
    <line x1="152.4311" x2="158.0561" y1="34.0305" y2="41.5305"/>
    <line x1="207.874" x2="207.874" y1="54.8031" y2="17.0079"/>
    <polyline points="195.5389,28.4055 187.4139,28.4055 187.4139,28.4055 187.4139,41.5305 187.4139,41.5305 195.5389,41.5305"/>
    <line x1="187.4139" x2="192.4139" y1="34.6555" y2="34.6555"/>
    <polyline points="224.8967,34.6555 230.5217,34.6555 230.5217,34.6555 232.3967,34.0305 232.3967,34.0305 233.0217,33.4055 233.0217,33.4055 233.6467,32.1555 233.6467,32.1555 233.6467,30.9055 233.6467,30.9055 233.0217,29.6555 233.0217,29.6555 232.3967,29.0305 232.3967,29.0305 230.5217,28.4055 230.5217,28.4055 224.8967,28.4055 224.8967,28.4055 224.8967,41.5305"/>
    <line x1="229.2717" x2="233.6467" y1="34.6555" y2="41.5305"/>
    <polyline points="245.6693,54.8031 283.4646,54.8031 283.4646,54.8031 283.4646,92.5984 283.4646,92.5984 321.2598,92.5984 321.2598,92.5984 321.2598,54.8031 321.2598,54.8031 283.4646,54.8031 283.4646,54.8031 283.4646,17.0079 283.4646,17.0079 245.6693,17.0079"/>
    <polyline points="270.8169,30.2805 269.5669,29.0305 269.5669,29.0305 267.6919,28.4055 267.6919,28.4055 265.1919,28.4055 265.1919,28.4055 263.3169,29.0305 263.3169,29.0305 262.0669,30.2805 262.0669,30.2805 262.0669,31.5305 262.0669,31.5305 262.6919,32.7805 262.6919,32.7805 263.3169,33.4055 263.3169,33.4055 264.5669,34.0305 264.5669,34.0305 268.3169,35.2805 268.3169,35.2805 269.5669,35.9055 269.5669,35.9055 270.1919,36.5305 270.1919,36.5305 270.8169,37.7805 270.8169,37.7805 270.8169,39.6555 270.8169,39.6555 269.5669,40.9055 269.5669,40.9055 267.6919,41.5305 267.6919,41.5305 265.1919,41.5305 265.1919,41.5305 263.3169,40.9055 263.3169,40.9055 262.0669,39.6555"/>
    <polygon points="359.0551,17.0079 359.0551,54.8031 359.0551,54.8031 396.8504,54.8031 396.8504,54.8031 434.6457,54.8031 434.6457,54.8031 434.6457,17.0079 434.6457,17.0079 396.8504,17.0079 396.8504,17.0079"/>
    <line x1="396.8504" x2="396.8504" y1="54.8031" y2="17.0079"/>
    <polyline points="362.5074,18.9272 365.9449,18.9272 365.9449,18.9272 364.0699,21.4272 364.0699,21.4272 365.0074,21.4272 365.0074,21.4272 365.6324,21.7397 365.6324,21.7397 365.9449,22.0522 365.9449,22.0522 366.2574,22.9897 366.2574,22.9897 366.2574,23.6147 366.2574,23.6147 365.9449,24.5522 365.9449,24.5522 365.3199,25.1772 365.3199,25.1772 364.3824,25.4897 364.3824,25.4897 363.4449,25.4897 363.4449,25.4897 362.5074,25.1772 362.5074,25.1772 362.1949,24.8647 362.1949,24.8647 361.8824,24.2397"/>
    <polyline points="376.0778,34.6555 381.7028,34.6555 381.7028,34.6555 383.5778,34.0305 383.5778,34.0305 384.2028,33.4055 384.2028,33.4055 384.8278,32.1555 384.8278,32.1555 384.8278,30.9055 384.8278,30.9055 384.2028,29.6555 384.2028,29.6555 383.5778,29.0305 383.5778,29.0305 381.7028,28.4055 381.7028,28.4055 376.0778,28.4055 376.0778,28.4055 376.0778,41.5305"/>
    <line x1="380.4528" x2="384.8278" y1="34.6555" y2="41.5305"/>
    <polyline points="422.3105,28.4055 414.1855,28.4055 414.1855,28.4055 414.1855,41.5305 414.1855,41.5305 422.3105,41.5305"/>
    <line x1="414.1855" x2="419.1855" y1="34.6555" y2="34.6555"/>
    <polyline points="434.6457,54.8031 472.4409,54.8031 472.4409,54.8031 472.4409,92.5984 472.4409,92.5984 510.2362,92.5984 510.2362,92.5984 510.2362,54.8031 510.2362,54.8031 548.0315,54.8031 548.0315,54.8031 548.0315,17.0079 548.0315,17.0079 510.2362,17.0079 510.2362,17.0079 472.4409,17.0079 472.4409,17.0079 434.6457,17.0079"/>
    <polyline points="510.2362,17.0079 510.2362,54.8031 510.2362,54.8031 472.4409,54.8031 472.4409,54.8031 472.4409,17.0079"/>
    <line x1="451.6683" x2="451.6683" y1="28.4055" y2="41.5305"/>
    <line x1="460.4183" x2="451.6683" y1="28.4055" y2="37.1555"/>
    <line x1="454.7933" x2="460.4183" y1="34.0305" y2="41.5305"/>
    <polyline points="478.3932,25.4897 478.3932,18.9272 478.3932,18.9272 475.2682,23.3022 475.2682,23.3022 479.9557,23.3022"/>
    <line x1="489.4636" x2="489.4636" y1="28.4055" y2="41.5305"/>
    <line x1="498.2136" x2="489.4636" y1="28.4055" y2="37.1555"/>
    <line x1="492.5886" x2="498.2136" y1="34.0305" y2="41.5305"/>
    <polyline points="535.6964,28.4055 527.5714,28.4055 527.5714,28.4055 527.5714,41.5305 527.5714,41.5305 535.6964,41.5305"/>
    <line x1="527.5714" x2="532.5714" y1="34.6555" y2="34.6555"/>
    <polyline points="548.0315,54.8031 585.8268,54.8031 585.8268,54.8031 585.8268,17.0079 585.8268,17.0079 548.0315,17.0079"/>
    <polyline points="565.0541,34.6555 570.6791,34.6555 570.6791,34.6555 572.5541,34.0305 572.5541,34.0305 573.1791,33.4055 573.1791,33.4055 573.8041,32.1555 573.8041,32.1555 573.8041,30.9055 573.8041,30.9055 573.1791,29.6555 573.1791,29.6555 572.5541,29.0305 572.5541,29.0305 570.6791,28.4055 570.6791,28.4055 565.0541,28.4055 565.0541,28.4055 565.0541,41.5305"/>
    <line x1="569.4291" x2="573.8041" y1="34.6555" y2="41.5305"/>
    <polyline points="585.8268,54.8031 623.622,54.8031 623.622,54.8031 623.622,17.0079 623.622,17.0079 585.8268,17.0079"/>
    <line x1="605.3494" x2="605.3494" y1="28.4055" y2="41.5305"/>
    <line x1="600.9744" x2="609.7244" y1="28.4055" y2="28.4055"/>
    <polyline points="623.622,54.8031 661.4173,54.8031 661.4173,54.8031 699.2126,54.8031 699.2126,54.8031 699.2126,17.0079 699.2126,17.0079 661.4173,17.0079 661.4173,17.0079 623.622,17.0079"/>
    <line x1="661.4173" x2="661.4173" y1="54.8031" y2="17.0079"/>
    <polyline points="646.8947,28.4055 646.8947,38.4055 646.8947,38.4055 646.2697,40.2805 646.2697,40.2805 645.6447,40.9055 645.6447,40.9055 644.3947,41.5305 644.3947,41.5305 643.1447,41.5305 643.1447,41.5305 641.8947,40.9055 641.8947,40.9055 641.2697,40.2805 641.2697,40.2805 640.6447,38.4055 640.6447,38.4055 640.6447,37.1555"/>
    <polyline points="686.8775,28.4055 678.7525,28.4055 678.7525,28.4055 678.7525,41.5305 678.7525,41.5305 686.8775,41.5305"/>
    <line x1="678.7525" x2="683.7525" y1="34.6555" y2="34.6555"/>
    <polygon points="737.0079,17.0079 737.0079,54.8031 737.0079,54.8031 774.8031,54.8031 774.8031,54.8031 774.8031,17.0079 774.8031,17.0079"/>
    <polyline points="743.5851,18.9272 740.4601,18.9272 740.4601,18.9272 740.1476,21.7397 740.1476,21.7397 740.4601,21.4272 740.4601,21.4272 741.3976,21.1147 741.3976,21.1147 742.3351,21.1147 742.3351,21.1147 743.2726,21.4272 743.2726,21.4272 743.8976,22.0522 743.8976,22.0522 744.2101,22.9897 744.2101,22.9897 744.2101,23.6147 744.2101,23.6147 743.8976,24.5522 743.8976,24.5522 743.2726,25.1772 743.2726,25.1772 742.3351,25.4897 742.3351,25.4897 741.3976,25.4897 741.3976,25.4897 740.4601,25.1772 740.4601,25.1772 740.1476,24.8647 740.1476,24.8647 739.8351,24.2397"/>
    <polyline points="763.4055,41.5305 763.4055,28.4055 763.4055,28.4055 758.4055,41.5305 758.4055,41.5305 753.4055,28.4055 753.4055,28.4055 753.4055,41.5305"/>
    <line x1="132.2835" x2="170.0787" y1="92.5984" y2="92.5984"/>
    <line x1="153.6811" x2="153.6811" y1="66.2008" y2="79.3258"/>
    <polyline points="290.3543,57.6599 290.0418,57.0349 290.0418,57.0349 289.1043,56.7224 289.1043,56.7224 288.4793,56.7224 288.4793,56.7224 287.5418,57.0349 287.5418,57.0349 286.9168,57.9724 286.9168,57.9724 286.6043,59.5349 286.6043,59.5349 286.6043,61.0974 286.6043,61.0974 286.9168,62.3474 286.9168,62.3474 287.5418,62.9724 287.5418,62.9724 288.4793,63.2849 288.4793,63.2849 288.7918,63.2849 288.7918,63.2849 289.7293,62.9724 289.7293,62.9724 290.3543,62.3474 290.3543,62.3474 290.6668,61.4099 290.6668,61.4099 290.6668,61.0974 290.6668,61.0974 290.3543,60.1599 290.3543,60.1599 289.7293,59.5349 289.7293,59.5349 288.7918,59.2224 288.7918,59.2224 288.4793,59.2224 288.4793,59.2224 287.5418,59.5349 287.5418,59.5349 286.9168,60.1599 286.9168,60.1599 286.6043,61.0974"/>
    <polyline points="301.1122,66.2008 301.1122,79.3258 301.1122,79.3258 308.6122,79.3258"/>
    <polyline points="490.0886,66.2008 490.0886,79.3258 490.0886,79.3258 497.5886,79.3258"/>
    <polyline points="737.0079,54.8031 737.0079,92.5984 737.0079,92.5984 737.0079,130.3937 737.0079,130.3937 774.8031,130.3937 774.8031,130.3937 774.8031,92.5984 774.8031,92.5984 774.8031,54.8031"/>
    <line x1="737.0079" x2="774.8031" y1="92.5984" y2="92.5984"/>
    <polyline points="761.5305,79.3258 756.5305,66.2008 756.5305,66.2008 751.5305,79.3258"/>
    <line x1="753.4055" x2="759.6555" y1="74.9508" y2="74.9508"/>
    <polygon points="56.6929,92.5984 56.6929,130.3937 56.6929,130.3937 94.4882,130.3937 94.4882,130.3937 94.4882,92.5984 94.4882,92.5984"/>
    <polyline points="59.5202,94.5177 63.8952,94.5177 63.8952,94.5177 60.7702,101.0802"/>
    <polyline points="71.2156,103.9961 76.2156,117.1211 76.2156,117.1211 81.2156,103.9961"/>
    <polyline points="158.0561,103.9961 158.0561,117.1211 158.0561,117.1211 149.3061,103.9961 149.3061,103.9961 149.3061,117.1211"/>
    <polyline points="283.4646,92.5984 283.4646,130.3937 283.4646,130.3937 245.6693,130.3937 245.6693,130.3937 207.874,130.3937 207.874,130.3937 170.0787,130.3937 170.0787,130.3937 170.0787,168.189 170.0787,168.189 207.874,168.189 207.874,168.189 245.6693,168.189 245.6693,168.189 245.6693,130.3937"/>
    <polyline points="321.2598,130.3937 321.2598,168.189 321.2598,168.189 283.4646,168.189 283.4646,168.189 283.4646,130.3937 283.4646,130.3937 321.2598,130.3937 321.2598,130.3937 321.2598,92.5984"/>
    <polyline points="307.9872,117.1211 302.9872,103.9961 302.9872,103.9961 297.9872,117.1211"/>
    <line x1="299.8622" x2="306.1122" y1="112.7461" y2="112.7461"/>
    <polygon points="396.8504,92.5984 396.8504,130.3937 396.8504,130.3937 359.0551,130.3937 359.0551,130.3937 359.0551,168.189 359.0551,168.189 396.8504,168.189 396.8504,168.189 396.8504,205.9843 396.8504,205.9843 434.6457,205.9843 434.6457,205.9843 434.6457,168.189 434.6457,168.189 434.6457,130.3937 434.6457,130.3937 434.6457,92.5984 434.6457,92.5984"/>
    <polyline points="472.4409,92.5984 472.4409,130.3937 472.4409,130.3937 472.4409,168.189 472.4409,168.189 510.2362,168.189 510.2362,168.189 510.2362,130.3937 510.2362,130.3937 548.0315,130.3937 548.0315,130.3937 585.8268,130.3937 585.8268,130.3937 585.8268,168.189 585.8268,168.189 548.0315,168.189 548.0315,168.189 510.2362,168.189 510.2362,168.189 510.2362,205.9843 510.2362,205.9843 472.4409,205.9843 472.4409,205.9843 472.4409,168.189 472.4409,168.189 434.6457,168.189 434.6457,168.189 396.8504,168.189 396.8504,168.189 396.8504,130.3937 396.8504,130.3937 434.6457,130.3937 434.6457,130.3937 472.4409,130.3937 472.4409,130.3937 510.2362,130.3937 510.2362,130.3937 510.2362,92.5984"/>
    <polygon points="401.2402,94.5177 400.3027,94.8302 400.3027,94.8302 399.9902,95.4552 399.9902,95.4552 399.9902,96.0802 399.9902,96.0802 400.3027,96.7052 400.3027,96.7052 400.9277,97.0177 400.9277,97.0177 402.1777,97.3302 402.1777,97.3302 403.1152,97.6427 403.1152,97.6427 403.7402,98.2677 403.7402,98.2677 404.0527,98.8927 404.0527,98.8927 404.0527,99.8302 404.0527,99.8302 403.7402,100.4552 403.7402,100.4552 403.4277,100.7677 403.4277,100.7677 402.4902,101.0802 402.4902,101.0802 401.2402,101.0802 401.2402,101.0802 400.3027,100.7677 400.3027,100.7677 399.9902,100.4552 399.9902,100.4552 399.6777,99.8302 399.6777,99.8302 399.6777,98.8927 399.6777,98.8927 399.9902,98.2677 399.9902,98.2677 400.6152,97.6427 400.6152,97.6427 401.5527,97.3302 401.5527,97.3302 402.8027,97.0177 402.8027,97.0177 403.4277,96.7052 403.4277,96.7052 403.7402,96.0802 403.7402,96.0802 403.7402,95.4552 403.7402,95.4552 403.4277,94.8302 403.4277,94.8302 402.4902,94.5177 402.4902,94.5177"/>
    <polyline points="413.873,110.8711 419.498,110.8711 419.498,110.8711 421.373,110.2461 421.373,110.2461 421.998,109.6211 421.998,109.6211 422.623,108.3711 422.623,108.3711 422.623,106.4961 422.623,106.4961 421.998,105.2461 421.998,105.2461 421.373,104.6211 421.373,104.6211 419.498,103.9961 419.498,103.9961 413.873,103.9961 413.873,103.9961 413.873,117.1211"/>
    <polyline points="496.9636,117.1211 491.9636,103.9961 491.9636,103.9961 486.9636,117.1211"/>
    <line x1="488.8386" x2="495.0886" y1="112.7461" y2="112.7461"/>
    <polyline points="762.7805,103.9961 762.7805,117.1211 762.7805,117.1211 754.0305,103.9961 754.0305,103.9961 754.0305,117.1211"/>
    <polygon points="18.8976,130.3937 18.8976,168.189 18.8976,168.189 56.6929,168.189 56.6929,168.189 56.6929,205.9843 56.6929,205.9843 56.6929,243.7795 56.6929,243.7795 94.4882,243.7795 94.4882,243.7795 94.4882,205.9843 94.4882,205.9843 94.4882,168.189 94.4882,168.189 132.2835,168.189 132.2835,168.189 132.2835,130.3937 132.2835,130.3937 94.4882,130.3937 94.4882,130.3937 94.4882,168.189 94.4882,168.189 56.6929,168.189 56.6929,168.189 56.6929,130.3937 56.6929,130.3937"/>
    <polyline points="25.7874,134.5005 25.4749,135.438 25.4749,135.438 24.8499,136.063 24.8499,136.063 23.9124,136.3755 23.9124,136.3755 23.5999,136.3755 23.5999,136.3755 22.6624,136.063 22.6624,136.063 22.0374,135.438 22.0374,135.438 21.7249,134.5005 21.7249,134.5005 21.7249,134.188 21.7249,134.188 22.0374,133.2505 22.0374,133.2505 22.6624,132.6255 22.6624,132.6255 23.5999,132.313 23.5999,132.313 23.9124,132.313 23.9124,132.313 24.8499,132.6255 24.8499,132.6255 25.4749,133.2505 25.4749,133.2505 25.7874,134.5005 25.7874,134.5005 25.7874,136.063 25.7874,136.063 25.4749,137.6255 25.4749,137.6255 24.8499,138.563 24.8499,138.563 23.9124,138.8755 23.9124,138.8755 23.2874,138.8755 23.2874,138.8755 22.3499,138.563 22.3499,138.563 22.0374,137.938"/>
    <polyline points="44.3578,141.7913 36.2328,141.7913 36.2328,141.7913 36.2328,154.9163"/>
    <line x1="36.2328" x2="41.2328" y1="148.0413" y2="148.0413"/>
    <polyline points="73.7156,148.0413 79.3406,148.0413 79.3406,148.0413 81.2156,147.4163 81.2156,147.4163 81.8406,146.7913 81.8406,146.7913 82.4656,145.5413 82.4656,145.5413 82.4656,144.2913 82.4656,144.2913 81.8406,143.0413 81.8406,143.0413 81.2156,142.4163 81.2156,142.4163 79.3406,141.7913 79.3406,141.7913 73.7156,141.7913 73.7156,141.7913 73.7156,154.9163"/>
    <line x1="78.0906" x2="82.4656" y1="148.0413" y2="154.9163"/>
    <polyline points="119.9483,141.7913 111.8233,141.7913 111.8233,141.7913 111.8233,154.9163 111.8233,154.9163 119.9483,154.9163"/>
    <line x1="111.8233" x2="116.8233" y1="148.0413" y2="148.0413"/>
    <polyline points="132.2835,205.9843 132.2835,168.189 132.2835,168.189 170.0787,168.189 170.0787,168.189 170.0787,205.9843 170.0787,205.9843 170.0787,243.7795 170.0787,243.7795 207.874,243.7795 207.874,243.7795 245.6693,243.7795 245.6693,243.7795 245.6693,205.9843 245.6693,205.9843 207.874,205.9843 207.874,205.9843 170.0787,205.9843 170.0787,205.9843 132.2835,205.9843 132.2835,205.9843 132.2835,243.7795 132.2835,243.7795 170.0787,243.7795 170.0787,243.7795 170.0787,281.5748 170.0787,281.5748 132.2835,281.5748 132.2835,281.5748 132.2835,319.3701 132.2835,319.3701 170.0787,319.3701 170.0787,319.3701 170.0787,281.5748"/>
    <polygon points="149.3061,141.7913 149.3061,154.9163 149.3061,154.9163 153.6811,154.9163 153.6811,154.9163 155.5561,154.2913 155.5561,154.2913 156.8061,153.0413 156.8061,153.0413 157.4311,151.7913 157.4311,151.7913 158.0561,149.9163 158.0561,149.9163 158.0561,146.7913 158.0561,146.7913 157.4311,144.9163 157.4311,144.9163 156.8061,143.6663 156.8061,143.6663 155.5561,142.4163 155.5561,142.4163 153.6811,141.7913 153.6811,141.7913"/>
    <line x1="207.874" x2="207.874" y1="168.189" y2="130.3937"/>
    <polyline points="195.5389,141.7913 187.4139,141.7913 187.4139,141.7913 187.4139,154.9163 187.4139,154.9163 195.5389,154.9163"/>
    <line x1="187.4139" x2="192.4139" y1="148.0413" y2="148.0413"/>
    <polyline points="224.8967,148.0413 230.5217,148.0413 230.5217,148.0413 232.3967,147.4163 232.3967,147.4163 233.0217,146.7913 233.0217,146.7913 233.6467,145.5413 233.6467,145.5413 233.6467,144.2913 233.6467,144.2913 233.0217,143.0413 233.0217,143.0413 232.3967,142.4163 232.3967,142.4163 230.5217,141.7913 230.5217,141.7913 224.8967,141.7913 224.8967,141.7913 224.8967,154.9163"/>
    <line x1="229.2717" x2="233.6467" y1="148.0413" y2="154.9163"/>
    <polyline points="245.6693,168.189 283.4646,168.189 283.4646,168.189 283.4646,205.9843 283.4646,205.9843 321.2598,205.9843 321.2598,205.9843 321.2598,168.189"/>
    <line x1="267.0669" x2="267.0669" y1="141.7913" y2="154.9163"/>
    <line x1="300.4872" x2="300.4872" y1="141.7913" y2="154.9163"/>
    <line x1="309.2372" x2="300.4872" y1="141.7913" y2="150.5413"/>
    <line x1="303.6122" x2="309.2372" y1="147.4163" y2="154.9163"/>
    <polyline points="362.8199,133.563 363.4449,133.2505 363.4449,133.2505 364.3824,132.313 364.3824,132.313 364.3824,138.8755"/>
    <polygon points="370.0074,132.313 369.0699,132.6255 369.0699,132.6255 368.4449,133.563 368.4449,133.563 368.1324,135.1255 368.1324,135.1255 368.1324,136.063 368.1324,136.063 368.4449,137.6255 368.4449,137.6255 369.0699,138.563 369.0699,138.563 370.0074,138.8755 370.0074,138.8755 370.6324,138.8755 370.6324,138.8755 371.5699,138.563 371.5699,138.563 372.1949,137.6255 372.1949,137.6255 372.5074,136.063 372.5074,136.063 372.5074,135.1255 372.5074,135.1255 372.1949,133.563 372.1949,133.563 371.5699,132.6255 371.5699,132.6255 370.6324,132.313 370.6324,132.313"/>
    <polyline points="385.4528,154.9163 385.4528,141.7913 385.4528,141.7913 380.4528,154.9163 380.4528,154.9163 375.4528,141.7913 375.4528,141.7913 375.4528,154.9163"/>
    <line x1="418.248" x2="418.248" y1="141.7913" y2="154.9163"/>
    <polyline points="459.7933,143.6663 458.5433,142.4163 458.5433,142.4163 456.6683,141.7913 456.6683,141.7913 454.1683,141.7913 454.1683,141.7913 452.2933,142.4163 452.2933,142.4163 451.0433,143.6663 451.0433,143.6663 451.0433,144.9163 451.0433,144.9163 451.6683,146.1663 451.6683,146.1663 452.2933,146.7913 452.2933,146.7913 453.5433,147.4163 453.5433,147.4163 457.2933,148.6663 457.2933,148.6663 458.5433,149.2913 458.5433,149.2913 459.1683,149.9163 459.1683,149.9163 459.7933,151.1663 459.7933,151.1663 459.7933,153.0413 459.7933,153.0413 458.5433,154.2913 458.5433,154.2913 456.6683,154.9163 456.6683,154.9163 454.1683,154.9163 454.1683,154.9163 452.2933,154.2913 452.2933,154.2913 451.0433,153.0413"/>
    <polyline points="486.9636,141.7913 491.9636,154.9163 491.9636,154.9163 496.9636,141.7913"/>
    <line x1="548.0315" x2="548.0315" y1="168.189" y2="130.3937"/>
    <polyline points="535.6964,141.7913 527.5714,141.7913 527.5714,141.7913 527.5714,154.9163 527.5714,154.9163 535.6964,154.9163"/>
    <line x1="527.5714" x2="532.5714" y1="148.0413" y2="148.0413"/>
    <polyline points="565.0541,148.0413 570.6791,148.0413 570.6791,148.0413 572.5541,147.4163 572.5541,147.4163 573.1791,146.7913 573.1791,146.7913 573.8041,145.5413 573.8041,145.5413 573.8041,144.2913 573.8041,144.2913 573.1791,143.0413 573.1791,143.0413 572.5541,142.4163 572.5541,142.4163 570.6791,141.7913 570.6791,141.7913 565.0541,141.7913 565.0541,141.7913 565.0541,154.9163"/>
    <line x1="569.4291" x2="573.8041" y1="148.0413" y2="154.9163"/>
    <polyline points="623.622,130.3937 623.622,168.189 623.622,168.189 623.622,205.9843 623.622,205.9843 623.622,243.7795 623.622,243.7795 585.8268,243.7795 585.8268,243.7795 585.8268,205.9843 585.8268,205.9843 585.8268,168.189 585.8268,168.189 623.622,168.189 623.622,168.189 661.4173,168.189 661.4173,168.189 661.4173,130.3937 661.4173,130.3937 623.622,130.3937 623.622,130.3937 585.8268,130.3937"/>
    <polyline points="589.5915,133.563 590.2165,133.2505 590.2165,133.2505 591.154,132.313 591.154,132.313 591.154,138.8755"/>
    <polyline points="595.8415,133.563 596.4665,133.2505 596.4665,133.2505 597.404,132.313 597.404,132.313 597.404,138.8755"/>
    <polyline points="610.9744,143.6663 609.7244,142.4163 609.7244,142.4163 607.8494,141.7913 607.8494,141.7913 605.3494,141.7913 605.3494,141.7913 603.4744,142.4163 603.4744,142.4163 602.2244,143.6663 602.2244,143.6663 602.2244,144.9163 602.2244,144.9163 602.8494,146.1663 602.8494,146.1663 603.4744,146.7913 603.4744,146.7913 604.7244,147.4163 604.7244,147.4163 608.4744,148.6663 608.4744,148.6663 609.7244,149.2913 609.7244,149.2913 610.3494,149.9163 610.3494,149.9163 610.9744,151.1663 610.9744,151.1663 610.9744,153.0413 610.9744,153.0413 609.7244,154.2913 609.7244,154.2913 607.8494,154.9163 607.8494,154.9163 605.3494,154.9163 605.3494,154.9163 603.4744,154.2913 603.4744,154.2913 602.2244,153.0413"/>
    <line x1="643.1447" x2="643.1447" y1="141.7913" y2="154.9163"/>
    <line x1="638.7697" x2="647.5197" y1="141.7913" y2="141.7913"/>
    <polyline points="661.4173,168.189 699.2126,168.189 699.2126,168.189 699.2126,130.3937 699.2126,130.3937 661.4173,130.3937"/>
    <polyline points="685.94,154.9163 680.94,141.7913 680.94,141.7913 675.94,154.9163"/>
    <line x1="677.815" x2="684.065" y1="150.5413" y2="150.5413"/>
    <polyline points="699.2126,168.189 737.0079,168.189 737.0079,168.189 737.0079,205.9843 737.0079,205.9843 774.8031,205.9843 774.8031,205.9843 774.8031,168.189 774.8031,168.189 774.8031,130.3937"/>
    <polyline points="774.8031,168.189 737.0079,168.189 737.0079,168.189 737.0079,130.3937 737.0079,130.3937 699.2126,130.3937"/>
    <polyline points="724.9852,141.7913 724.9852,154.9163 724.9852,154.9163 716.2352,141.7913 716.2352,141.7913 716.2352,154.9163"/>
    <polygon points="754.0305,141.7913 754.0305,154.9163 754.0305,154.9163 758.4055,154.9163 758.4055,154.9163 760.2805,154.2913 760.2805,154.2913 761.5305,153.0413 761.5305,153.0413 762.1555,151.7913 762.1555,151.7913 762.7805,149.9163 762.7805,149.9163 762.7805,146.7913 762.7805,146.7913 762.1555,144.9163 762.1555,144.9163 761.5305,143.6663 761.5305,143.6663 760.2805,142.4163 760.2805,142.4163 758.4055,141.7913 758.4055,141.7913"/>
    <line x1="56.6929" x2="94.4882" y1="205.9843" y2="205.9843"/>
    <line x1="78.0906" x2="78.0906" y1="179.5866" y2="192.7116"/>
    <polyline points="157.7436,179.5866 149.6186,179.5866 149.6186,179.5866 149.6186,192.7116 149.6186,192.7116 157.7436,192.7116"/>
    <line x1="149.6186" x2="154.6186" y1="185.8366" y2="185.8366"/>
    <polyline points="308.9247,179.5866 300.7997,179.5866 300.7997,179.5866 300.7997,192.7116 300.7997,192.7116 308.9247,192.7116"/>
    <line x1="300.7997" x2="305.7997" y1="185.8366" y2="185.8366"/>
    <polyline points="413.873,186.4616 419.498,186.4616 419.498,186.4616 421.373,185.8366 421.373,185.8366 421.998,185.2116 421.998,185.2116 422.623,183.9616 422.623,183.9616 422.623,182.0866 422.623,182.0866 421.998,180.8366 421.998,180.8366 421.373,180.2116 421.373,180.2116 419.498,179.5866 419.498,179.5866 413.873,179.5866 413.873,179.5866 413.873,192.7116"/>
    <polyline points="497.9011,179.5866 489.7761,179.5866 489.7761,179.5866 489.7761,192.7116 489.7761,192.7116 497.9011,192.7116"/>
    <line x1="489.7761" x2="494.7761" y1="185.8366" y2="185.8366"/>
    <line x1="585.8268" x2="623.622" y1="205.9843" y2="205.9843"/>
    <line x1="605.3494" x2="605.3494" y1="179.5866" y2="192.7116"/>
    <line x1="600.9744" x2="609.7244" y1="179.5866" y2="179.5866"/>
    <polyline points="761.5305,192.7116 756.5305,179.5866 756.5305,179.5866 751.5305,192.7116"/>
    <line x1="753.4055" x2="759.6555" y1="188.3366" y2="188.3366"/>
    <polyline points="79.9656,217.3819 79.9656,227.3819 79.9656,227.3819 79.3406,229.2569 79.3406,229.2569 78.7156,229.8819 78.7156,229.8819 77.4656,230.5069 77.4656,230.5069 76.2156,230.5069 76.2156,230.5069 74.9656,229.8819 74.9656,229.8819 74.3406,229.2569 74.3406,229.2569 73.7156,227.3819 73.7156,227.3819 73.7156,226.1319"/>
    <polyline points="136.0482,209.1535 136.6732,208.841 136.6732,208.841 137.6107,207.9035 137.6107,207.9035 137.6107,214.466"/>
    <polyline points="141.6732,209.466 141.6732,209.1535 141.6732,209.1535 141.9857,208.5285 141.9857,208.5285 142.2982,208.216 142.2982,208.216 142.9232,207.9035 142.9232,207.9035 144.1732,207.9035 144.1732,207.9035 144.7982,208.216 144.7982,208.216 145.1107,208.5285 145.1107,208.5285 145.4232,209.1535 145.4232,209.1535 145.4232,209.7785 145.4232,209.7785 145.1107,210.4035 145.1107,210.4035 144.4857,211.341 144.4857,211.341 141.3607,214.466 141.3607,214.466 145.7357,214.466"/>
    <polyline points="149.3061,223.6319 154.9311,223.6319 154.9311,223.6319 156.8061,223.0069 156.8061,223.0069 157.4311,222.3819 157.4311,222.3819 158.0561,221.1319 158.0561,221.1319 158.0561,219.8819 158.0561,219.8819 157.4311,218.6319 157.4311,218.6319 156.8061,218.0069 156.8061,218.0069 154.9311,217.3819 154.9311,217.3819 149.3061,217.3819 149.3061,217.3819 149.3061,230.5069"/>
    <line x1="153.6811" x2="158.0561" y1="223.6319" y2="230.5069"/>
    <polyline points="245.6693,205.9843 283.4646,205.9843 283.4646,205.9843 283.4646,243.7795 283.4646,243.7795 283.4646,281.5748 283.4646,281.5748 321.2598,281.5748 321.2598,281.5748 321.2598,243.7795 321.2598,243.7795 321.2598,205.9843 321.2598,205.9843 359.0551,205.9843 359.0551,205.9843 359.0551,243.7795 359.0551,243.7795 321.2598,243.7795 321.2598,243.7795 283.4646,243.7795 283.4646,243.7795 245.6693,243.7795 245.6693,243.7795 245.6693,281.5748 245.6693,281.5748 207.874,281.5748 207.874,281.5748 207.874,243.7795 207.874,243.7795 207.874,205.9843"/>
    <polyline points="195.5389,217.3819 187.4139,217.3819 187.4139,217.3819 187.4139,230.5069 187.4139,230.5069 195.5389,230.5069"/>
    <line x1="187.4139" x2="192.4139" y1="223.6319" y2="223.6319"/>
    <polyline points="211.6388,209.1535 212.2638,208.841 212.2638,208.841 213.2013,207.9035 213.2013,207.9035 213.2013,214.466"/>
    <polyline points="217.5763,207.9035 221.0138,207.9035 221.0138,207.9035 219.1388,210.4035 219.1388,210.4035 220.0763,210.4035 220.0763,210.4035 220.7013,210.716 220.7013,210.716 221.0138,211.0285 221.0138,211.0285 221.3263,211.966 221.3263,211.966 221.3263,212.591 221.3263,212.591 221.0138,213.5285 221.0138,213.5285 220.3888,214.1535 220.3888,214.1535 219.4513,214.466 219.4513,214.466 218.5138,214.466 218.5138,214.466 217.5763,214.1535 217.5763,214.1535 217.2638,213.841 217.2638,213.841 216.9513,213.216"/>
    <polyline points="233.3342,220.5069 232.7092,219.2569 232.7092,219.2569 231.4592,218.0069 231.4592,218.0069 230.2092,217.3819 230.2092,217.3819 227.7092,217.3819 227.7092,217.3819 226.4592,218.0069 226.4592,218.0069 225.2092,219.2569 225.2092,219.2569 224.5842,220.5069 224.5842,220.5069 223.9592,222.3819 223.9592,222.3819 223.9592,225.5069 223.9592,225.5069 224.5842,227.3819 224.5842,227.3819 225.2092,228.6319 225.2092,228.6319 226.4592,229.8819 226.4592,229.8819 227.7092,230.5069 227.7092,230.5069 230.2092,230.5069 230.2092,230.5069 231.4592,229.8819 231.4592,229.8819 232.7092,228.6319 232.7092,228.6319 233.3342,227.3819 233.3342,227.3819 233.3342,225.5069 233.3342,225.5069 230.2092,225.5069"/>
    <polyline points="271.1294,217.3819 263.0044,217.3819 263.0044,217.3819 263.0044,230.5069 263.0044,230.5069 271.1294,230.5069"/>
    <line x1="263.0044" x2="268.0044" y1="223.6319" y2="223.6319"/>
    <polyline points="309.2372,217.3819 309.2372,230.5069 309.2372,230.5069 300.4872,217.3819 300.4872,217.3819 300.4872,230.5069"/>
    <polygon points="338.2825,217.3819 338.2825,230.5069 338.2825,230.5069 343.9075,230.5069 343.9075,230.5069 345.7825,229.8819 345.7825,229.8819 346.4075,229.2569 346.4075,229.2569 347.0325,228.0069 347.0325,228.0069 347.0325,226.1319 347.0325,226.1319 346.4075,224.8819 346.4075,224.8819 345.7825,224.2569 345.7825,224.2569 343.9075,223.6319 343.9075,223.6319 345.7825,223.0069 345.7825,223.0069 346.4075,222.3819 346.4075,222.3819 347.0325,221.1319 347.0325,221.1319 347.0325,219.8819 347.0325,219.8819 346.4075,218.6319 346.4075,218.6319 345.7825,218.0069 345.7825,218.0069 343.9075,217.3819 343.9075,217.3819"/>
    <line x1="338.2825" x2="343.9075" y1="223.6319" y2="223.6319"/>
    <polyline points="359.0551,243.7795 396.8504,243.7795 396.8504,243.7795 396.8504,205.9843 396.8504,205.9843 359.0551,205.9843"/>
    <polyline points="376.0778,217.3819 376.0778,226.7569 376.0778,226.7569 376.7028,228.6319 376.7028,228.6319 377.9528,229.8819 377.9528,229.8819 379.8278,230.5069 379.8278,230.5069 381.0778,230.5069 381.0778,230.5069 382.9528,229.8819 382.9528,229.8819 384.2028,228.6319 384.2028,228.6319 384.8278,226.7569 384.8278,226.7569 384.8278,217.3819"/>
    <polyline points="396.8504,243.7795 434.6457,243.7795 434.6457,243.7795 434.6457,205.9843"/>
    <line x1="418.248" x2="418.248" y1="217.3819" y2="230.5069"/>
    <polyline points="472.4409,205.9843 472.4409,243.7795 472.4409,243.7795 510.2362,243.7795 510.2362,243.7795 510.2362,205.9843"/>
    <polyline points="489.4636,223.6319 495.0886,223.6319 495.0886,223.6319 496.9636,223.0069 496.9636,223.0069 497.5886,222.3819 497.5886,222.3819 498.2136,221.1319 498.2136,221.1319 498.2136,219.8819 498.2136,219.8819 497.5886,218.6319 497.5886,218.6319 496.9636,218.0069 496.9636,218.0069 495.0886,217.3819 495.0886,217.3819 489.4636,217.3819 489.4636,217.3819 489.4636,230.5069"/>
    <line x1="493.8386" x2="498.2136" y1="223.6319" y2="230.5069"/>
    <polyline points="611.2869,217.3819 603.1619,217.3819 603.1619,217.3819 603.1619,230.5069 603.1619,230.5069 611.2869,230.5069"/>
    <line x1="603.1619" x2="608.1619" y1="223.6319" y2="223.6319"/>
    <polyline points="737.0079,205.9843 737.0079,243.7795 737.0079,243.7795 774.8031,243.7795 774.8031,243.7795 774.8031,205.9843"/>
    <polyline points="754.0305,223.6319 759.6555,223.6319 759.6555,223.6319 761.5305,223.0069 761.5305,223.0069 762.1555,222.3819 762.1555,222.3819 762.7805,221.1319 762.7805,221.1319 762.7805,219.8819 762.7805,219.8819 762.1555,218.6319 762.1555,218.6319 761.5305,218.0069 761.5305,218.0069 759.6555,217.3819 759.6555,217.3819 754.0305,217.3819 754.0305,217.3819 754.0305,230.5069"/>
    <line x1="758.4055" x2="762.7805" y1="223.6319" y2="230.5069"/>
    <polyline points="56.6929,243.7795 56.6929,281.5748 56.6929,281.5748 18.8976,281.5748 18.8976,281.5748 18.8976,319.3701 18.8976,319.3701 56.6929,319.3701 56.6929,319.3701 56.6929,357.1654 56.6929,357.1654 94.4882,357.1654 94.4882,357.1654 94.4882,319.3701 94.4882,319.3701 94.4882,281.5748 94.4882,281.5748 94.4882,243.7795"/>
    <polyline points="94.4882,319.3701 56.6929,319.3701 56.6929,319.3701 56.6929,281.5748 56.6929,281.5748 94.4882,281.5748"/>
    <polygon points="73.7156,255.1772 73.7156,268.3022 73.7156,268.3022 78.0906,268.3022 78.0906,268.3022 79.9656,267.6772 79.9656,267.6772 81.2156,266.4272 81.2156,266.4272 81.8406,265.1772 81.8406,265.1772 82.4656,263.3022 82.4656,263.3022 82.4656,260.1772 82.4656,260.1772 81.8406,258.3022 81.8406,258.3022 81.2156,257.0522 81.2156,257.0522 79.9656,255.8022 79.9656,255.8022 78.0906,255.1772 78.0906,255.1772"/>
    <line x1="132.2835" x2="132.2835" y1="243.7795" y2="281.5748"/>
    <polyline points="157.7436,255.1772 149.6186,255.1772 149.6186,255.1772 149.6186,268.3022 149.6186,268.3022 157.7436,268.3022"/>
    <line x1="149.6186" x2="154.6186" y1="261.4272" y2="261.4272"/>
    <polyline points="224.8967,261.4272 230.5217,261.4272 230.5217,261.4272 232.3967,260.8022 232.3967,260.8022 233.0217,260.1772 233.0217,260.1772 233.6467,258.9272 233.6467,258.9272 233.6467,257.6772 233.6467,257.6772 233.0217,256.4272 233.0217,256.4272 232.3967,255.8022 232.3967,255.8022 230.5217,255.1772 230.5217,255.1772 224.8967,255.1772 224.8967,255.1772 224.8967,268.3022"/>
    <line x1="229.2717" x2="233.6467" y1="261.4272" y2="268.3022"/>
    <polyline points="308.6122,257.0522 307.3622,255.8022 307.3622,255.8022 305.4872,255.1772 305.4872,255.1772 302.9872,255.1772 302.9872,255.1772 301.1122,255.8022 301.1122,255.8022 299.8622,257.0522 299.8622,257.0522 299.8622,258.3022 299.8622,258.3022 300.4872,259.5522 300.4872,259.5522 301.1122,260.1772 301.1122,260.1772 302.3622,260.8022 302.3622,260.8022 306.1122,262.0522 306.1122,262.0522 307.3622,262.6772 307.3622,262.6772 307.9872,263.3022 307.9872,263.3022 308.6122,264.5522 308.6122,264.5522 308.6122,266.4272 308.6122,266.4272 307.3622,267.6772 307.3622,267.6772 305.4872,268.3022 305.4872,268.3022 302.9872,268.3022 302.9872,268.3022 301.1122,267.6772 301.1122,267.6772 299.8622,266.4272"/>
    <polyline points="472.4409,243.7795 472.4409,281.5748 472.4409,281.5748 472.4409,319.3701 472.4409,319.3701 510.2362,319.3701 510.2362,319.3701 510.2362,281.5748 510.2362,281.5748 510.2362,243.7795 510.2362,243.7795 548.0315,243.7795 548.0315,243.7795 585.8268,243.7795 585.8268,243.7795 585.8268,281.5748 585.8268,281.5748 548.0315,281.5748 548.0315,281.5748 548.0315,243.7795"/>
    <polyline points="472.4409,281.5748 510.2362,281.5748 510.2362,281.5748 548.0315,281.5748"/>
    <polyline points="476.2057,246.9488 476.8307,246.6363 476.8307,246.6363 477.7682,245.6988 477.7682,245.6988 477.7682,252.2613"/>
    <polyline points="484.6432,252.2613 484.6432,245.6988 484.6432,245.6988 481.5182,250.0738 481.5182,250.0738 486.2057,250.0738"/>
    <line x1="491.9636" x2="491.9636" y1="255.1772" y2="268.3022"/>
    <line x1="487.5886" x2="496.3386" y1="255.1772" y2="255.1772"/>
    <polyline points="535.6964,255.1772 527.5714,255.1772 527.5714,255.1772 527.5714,268.3022 527.5714,268.3022 535.6964,268.3022"/>
    <line x1="527.5714" x2="532.5714" y1="261.4272" y2="261.4272"/>
    <polyline points="565.0541,261.4272 570.6791,261.4272 570.6791,261.4272 572.5541,260.8022 572.5541,260.8022 573.1791,260.1772 573.1791,260.1772 573.8041,258.9272 573.8041,258.9272 573.8041,257.6772 573.8041,257.6772 573.1791,256.4272 573.1791,256.4272 572.5541,255.8022 572.5541,255.8022 570.6791,255.1772 570.6791,255.1772 565.0541,255.1772 565.0541,255.1772 565.0541,268.3022"/>
    <line x1="569.4291" x2="573.8041" y1="261.4272" y2="268.3022"/>
    <polyline points="585.8268,281.5748 623.622,281.5748 623.622,281.5748 661.4173,281.5748 661.4173,281.5748 699.2126,281.5748 699.2126,281.5748 699.2126,243.7795 699.2126,243.7795 661.4173,243.7795 661.4173,243.7795 623.622,243.7795 623.622,243.7795 623.622,281.5748"/>
    <polyline points="602.8494,261.4272 608.4744,261.4272 608.4744,261.4272 610.3494,260.8022 610.3494,260.8022 610.9744,260.1772 610.9744,260.1772 611.5994,258.9272 611.5994,258.9272 611.5994,257.6772 611.5994,257.6772 610.9744,256.4272 610.9744,256.4272 610.3494,255.8022 610.3494,255.8022 608.4744,255.1772 608.4744,255.1772 602.8494,255.1772 602.8494,255.1772 602.8494,268.3022"/>
    <line x1="607.2244" x2="611.5994" y1="261.4272" y2="268.3022"/>
    <line x1="661.4173" x2="661.4173" y1="281.5748" y2="243.7795"/>
    <polyline points="648.1447,268.3022 643.1447,255.1772 643.1447,255.1772 638.1447,268.3022"/>
    <line x1="640.0197" x2="646.2697" y1="263.9272" y2="263.9272"/>
    <polyline points="686.565,257.0522 685.315,255.8022 685.315,255.8022 683.44,255.1772 683.44,255.1772 680.94,255.1772 680.94,255.1772 679.065,255.8022 679.065,255.8022 677.815,257.0522 677.815,257.0522 677.815,258.3022 677.815,258.3022 678.44,259.5522 678.44,259.5522 679.065,260.1772 679.065,260.1772 680.315,260.8022 680.315,260.8022 684.065,262.0522 684.065,262.0522 685.315,262.6772 685.315,262.6772 685.94,263.3022 685.94,263.3022 686.565,264.5522 686.565,264.5522 686.565,266.4272 686.565,266.4272 685.315,267.6772 685.315,267.6772 683.44,268.3022 683.44,268.3022 680.94,268.3022 680.94,268.3022 679.065,267.6772 679.065,267.6772 677.815,266.4272"/>
    <polyline points="737.0079,243.7795 737.0079,281.5748 737.0079,281.5748 737.0079,319.3701 737.0079,319.3701 737.0079,357.1654 737.0079,357.1654 774.8031,357.1654 774.8031,357.1654 774.8031,319.3701 774.8031,319.3701 774.8031,281.5748 774.8031,281.5748 774.8031,243.7795"/>
    <line x1="737.0079" x2="774.8031" y1="281.5748" y2="281.5748"/>
    <line x1="758.4055" x2="758.4055" y1="255.1772" y2="268.3022"/>
    <polyline points="22.6624,284.7441 23.2874,284.4316 23.2874,284.4316 24.2249,283.4941 24.2249,283.4941 24.2249,290.0566"/>
    <polyline points="31.7249,283.4941 28.5999,283.4941 28.5999,283.4941 28.2874,286.3066 28.2874,286.3066 28.5999,285.9941 28.5999,285.9941 29.5374,285.6816 29.5374,285.6816 30.4749,285.6816 30.4749,285.6816 31.4124,285.9941 31.4124,285.9941 32.0374,286.6191 32.0374,286.6191 32.3499,287.5566 32.3499,287.5566 32.3499,288.1816 32.3499,288.1816 32.0374,289.1191 32.0374,289.1191 31.4124,289.7441 31.4124,289.7441 30.4749,290.0566 30.4749,290.0566 29.5374,290.0566 29.5374,290.0566 28.5999,289.7441 28.5999,289.7441 28.2874,289.4316 28.2874,289.4316 27.9749,288.8066"/>
    <polyline points="42.1703,292.9724 42.1703,302.9724 42.1703,302.9724 41.5453,304.8474 41.5453,304.8474 40.9203,305.4724 40.9203,305.4724 39.6703,306.0974 39.6703,306.0974 38.4203,306.0974 38.4203,306.0974 37.1703,305.4724 37.1703,305.4724 36.5453,304.8474 36.5453,304.8474 35.9203,302.9724 35.9203,302.9724 35.9203,301.7224"/>
    <polyline points="81.2156,306.0974 76.2156,292.9724 76.2156,292.9724 71.2156,306.0974"/>
    <line x1="73.0906" x2="79.3406" y1="301.7224" y2="301.7224"/>
    <polyline points="158.0561,292.9724 158.0561,306.0974 158.0561,306.0974 149.3061,292.9724 149.3061,292.9724 149.3061,306.0974"/>
    <polyline points="207.874,281.5748 207.874,319.3701 207.874,319.3701 245.6693,319.3701 245.6693,319.3701 245.6693,281.5748"/>
    <polyline points="232.3967,306.0974 227.3967,292.9724 227.3967,292.9724 222.3967,306.0974"/>
    <line x1="224.2717" x2="230.5217" y1="301.7224" y2="301.7224"/>
    <polyline points="495.7136,292.9724 495.7136,302.9724 495.7136,302.9724 495.0886,304.8474 495.0886,304.8474 494.4636,305.4724 494.4636,305.4724 493.2136,306.0974 493.2136,306.0974 491.9636,306.0974 491.9636,306.0974 490.7136,305.4724 490.7136,305.4724 490.0886,304.8474 490.0886,304.8474 489.4636,302.9724 489.4636,302.9724 489.4636,301.7224"/>
    <line x1="737.0079" x2="774.8031" y1="319.3701" y2="319.3701"/>
    <polyline points="760.2805,292.9724 760.2805,302.9724 760.2805,302.9724 759.6555,304.8474 759.6555,304.8474 759.0305,305.4724 759.0305,305.4724 757.7805,306.0974 757.7805,306.0974 756.5305,306.0974 756.5305,306.0974 755.2805,305.4724 755.2805,305.4724 754.6555,304.8474 754.6555,304.8474 754.0305,302.9724 754.0305,302.9724 754.0305,301.7224"/>
    <polyline points="82.1531,333.8927 81.5281,332.6427 81.5281,332.6427 80.2781,331.3927 80.2781,331.3927 79.0281,330.7677 79.0281,330.7677 76.5281,330.7677 76.5281,330.7677 75.2781,331.3927 75.2781,331.3927 74.0281,332.6427 74.0281,332.6427 73.4031,333.8927 73.4031,333.8927 72.7781,335.7677 72.7781,335.7677 72.7781,338.8927 72.7781,338.8927 73.4031,340.7677 73.4031,340.7677 74.0281,342.0177 74.0281,342.0177 75.2781,343.2677 75.2781,343.2677 76.5281,343.8927 76.5281,343.8927 79.0281,343.8927 79.0281,343.8927 80.2781,343.2677 80.2781,343.2677 81.5281,342.0177 81.5281,342.0177 82.1531,340.7677 82.1531,340.7677 82.1531,338.8927 82.1531,338.8927 79.0281,338.8927"/>
    <polyline points="207.874,319.3701 207.874,357.1654 207.874,357.1654 245.6693,357.1654 245.6693,357.1654 245.6693,319.3701"/>
    <polyline points="233.0217,332.6427 231.7717,331.3927 231.7717,331.3927 229.8967,330.7677 229.8967,330.7677 227.3967,330.7677 227.3967,330.7677 225.5217,331.3927 225.5217,331.3927 224.2717,332.6427 224.2717,332.6427 224.2717,333.8927 224.2717,333.8927 224.8967,335.1427 224.8967,335.1427 225.5217,335.7677 225.5217,335.7677 226.7717,336.3927 226.7717,336.3927 230.5217,337.6427 230.5217,337.6427 231.7717,338.2677 231.7717,338.2677 232.3967,338.8927 232.3967,338.8927 233.0217,340.1427 233.0217,340.1427 233.0217,342.0177 233.0217,342.0177 231.7717,343.2677 231.7717,343.2677 229.8967,343.8927 229.8967,343.8927 227.3967,343.8927 227.3967,343.8927 225.5217,343.2677 225.5217,343.2677 224.2717,342.0177"/>
    <polygon points="359.0551,319.3701 359.0551,357.1654 359.0551,357.1654 396.8504,357.1654 396.8504,357.1654 396.8504,319.3701 396.8504,319.3701"/>
    <polyline points="362.8199,322.5394 363.4449,322.2269 363.4449,322.2269 364.3824,321.2894 364.3824,321.2894 364.3824,327.8519"/>
    <polyline points="372.1949,322.2269 371.8824,321.6019 371.8824,321.6019 370.9449,321.2894 370.9449,321.2894 370.3199,321.2894 370.3199,321.2894 369.3824,321.6019 369.3824,321.6019 368.7574,322.5394 368.7574,322.5394 368.4449,324.1019 368.4449,324.1019 368.4449,325.6644 368.4449,325.6644 368.7574,326.9144 368.7574,326.9144 369.3824,327.5394 369.3824,327.5394 370.3199,327.8519 370.3199,327.8519 370.6324,327.8519 370.6324,327.8519 371.5699,327.5394 371.5699,327.5394 372.1949,326.9144 372.1949,326.9144 372.5074,325.9769 372.5074,325.9769 372.5074,325.6644 372.5074,325.6644 372.1949,324.7269 372.1949,324.7269 371.5699,324.1019 371.5699,324.1019 370.6324,323.7894 370.6324,323.7894 370.3199,323.7894 370.3199,323.7894 369.3824,324.1019 369.3824,324.1019 368.7574,324.7269 368.7574,324.7269 368.4449,325.6644"/>
    <polyline points="376.0778,337.0177 381.7028,337.0177 381.7028,337.0177 383.5778,336.3927 383.5778,336.3927 384.2028,335.7677 384.2028,335.7677 384.8278,334.5177 384.8278,334.5177 384.8278,333.2677 384.8278,333.2677 384.2028,332.0177 384.2028,332.0177 383.5778,331.3927 383.5778,331.3927 381.7028,330.7677 381.7028,330.7677 376.0778,330.7677 376.0778,330.7677 376.0778,343.8927"/>
    <line x1="380.4528" x2="384.8278" y1="337.0177" y2="343.8927"/>
    <polyline points="396.8504,357.1654 434.6457,357.1654 434.6457,357.1654 434.6457,319.3701 434.6457,319.3701 396.8504,319.3701"/>
    <polyline points="422.3105,330.7677 414.1855,330.7677 414.1855,330.7677 414.1855,343.8927 414.1855,343.8927 422.3105,343.8927"/>
    <line x1="414.1855" x2="419.1855" y1="337.0177" y2="337.0177"/>
    <polyline points="434.6457,357.1654 472.4409,357.1654 472.4409,357.1654 472.4409,319.3701 472.4409,319.3701 434.6457,319.3701"/>
    <polyline points="460.1058,333.8927 459.4808,332.6427 459.4808,332.6427 458.2308,331.3927 458.2308,331.3927 456.9808,330.7677 456.9808,330.7677 454.4808,330.7677 454.4808,330.7677 453.2308,331.3927 453.2308,331.3927 451.9808,332.6427 451.9808,332.6427 451.3558,333.8927 451.3558,333.8927 450.7308,335.7677 450.7308,335.7677 450.7308,338.8927 450.7308,338.8927 451.3558,340.7677 451.3558,340.7677 451.9808,342.0177 451.9808,342.0177 453.2308,343.2677 453.2308,343.2677 454.4808,343.8927 454.4808,343.8927 456.9808,343.8927 456.9808,343.8927 458.2308,343.2677 458.2308,343.2677 459.4808,342.0177 459.4808,342.0177 460.1058,340.7677 460.1058,340.7677 460.1058,338.8927 460.1058,338.8927 456.9808,338.8927"/>
    <polyline points="472.4409,357.1654 510.2362,357.1654 510.2362,357.1654 510.2362,319.3701 510.2362,319.3701 548.0315,319.3701 548.0315,319.3701 585.8268,319.3701 585.8268,319.3701 585.8268,357.1654 585.8268,357.1654 548.0315,357.1654 548.0315,357.1654 548.0315,319.3701"/>
    <polyline points="497.9011,330.7677 489.7761,330.7677 489.7761,330.7677 489.7761,343.8927 489.7761,343.8927 497.9011,343.8927"/>
    <line x1="489.7761" x2="494.7761" y1="337.0177" y2="337.0177"/>
    <line x1="510.2362" x2="548.0315" y1="357.1654" y2="357.1654"/>
    <polyline points="536.0089,330.7677 536.0089,343.8927 536.0089,343.8927 527.2589,330.7677 527.2589,330.7677 527.2589,343.8927"/>
    <polyline points="570.6791,337.0177 572.5541,336.3927 572.5541,336.3927 573.1791,335.7677 573.1791,335.7677 573.8041,334.5177 573.8041,334.5177 573.8041,333.2677 573.8041,333.2677 573.1791,332.0177 573.1791,332.0177 572.5541,331.3927 572.5541,331.3927 570.6791,330.7677 570.6791,330.7677 565.0541,330.7677 565.0541,330.7677 565.0541,343.8927 565.0541,343.8927 570.6791,343.8927 570.6791,343.8927 572.5541,343.2677 572.5541,343.2677 573.1791,342.6427 573.1791,342.6427 573.8041,341.3927 573.8041,341.3927 573.8041,339.5177 573.8041,339.5177 573.1791,338.2677 573.1791,338.2677 572.5541,337.6427 572.5541,337.6427 570.6791,337.0177 570.6791,337.0177 565.0541,337.0177"/>
    <polyline points="585.8268,357.1654 623.622,357.1654 623.622,357.1654 623.622,319.3701 623.622,319.3701 585.8268,319.3701"/>
    <polygon points="605.3494,330.7677 604.0994,331.3927 604.0994,331.3927 602.8494,332.6427 602.8494,332.6427 602.2244,333.8927 602.2244,333.8927 601.5994,335.7677 601.5994,335.7677 601.5994,338.8927 601.5994,338.8927 602.2244,340.7677 602.2244,340.7677 602.8494,342.0177 602.8494,342.0177 604.0994,343.2677 604.0994,343.2677 605.3494,343.8927 605.3494,343.8927 607.8494,343.8927 607.8494,343.8927 609.0994,343.2677 609.0994,343.2677 610.3494,342.0177 610.3494,342.0177 610.9744,340.7677 610.9744,340.7677 611.5994,338.8927 611.5994,338.8927 611.5994,335.7677 611.5994,335.7677 610.9744,333.8927 610.9744,333.8927 610.3494,332.6427 610.3494,332.6427 609.0994,331.3927 609.0994,331.3927 607.8494,330.7677 607.8494,330.7677"/>
    <polyline points="623.622,357.1654 661.4173,357.1654 661.4173,357.1654 661.4173,319.3701 661.4173,319.3701 623.622,319.3701"/>
    <polygon points="643.1447,330.7677 641.8947,331.3927 641.8947,331.3927 640.6447,332.6427 640.6447,332.6427 640.0197,333.8927 640.0197,333.8927 639.3947,335.7677 639.3947,335.7677 639.3947,338.8927 639.3947,338.8927 640.0197,340.7677 640.0197,340.7677 640.6447,342.0177 640.6447,342.0177 641.8947,343.2677 641.8947,343.2677 643.1447,343.8927 643.1447,343.8927 645.6447,343.8927 645.6447,343.8927 646.8947,343.2677 646.8947,343.2677 648.1447,342.0177 648.1447,342.0177 648.7697,340.7677 648.7697,340.7677 649.3947,338.8927 649.3947,338.8927 649.3947,335.7677 649.3947,335.7677 648.7697,333.8927 648.7697,333.8927 648.1447,332.6427 648.1447,332.6427 646.8947,331.3927 646.8947,331.3927 645.6447,330.7677 645.6447,330.7677"/>
    <polyline points="661.4173,357.1654 699.2126,357.1654 699.2126,357.1654 699.2126,319.3701 699.2126,319.3701 661.4173,319.3701"/>
    <polyline points="686.8775,333.8927 686.2525,332.6427 686.2525,332.6427 685.0025,331.3927 685.0025,331.3927 683.7525,330.7677 683.7525,330.7677 681.2525,330.7677 681.2525,330.7677 680.0025,331.3927 680.0025,331.3927 678.7525,332.6427 678.7525,332.6427 678.1275,333.8927 678.1275,333.8927 677.5025,335.7677 677.5025,335.7677 677.5025,338.8927 677.5025,338.8927 678.1275,340.7677 678.1275,340.7677 678.7525,342.0177 678.7525,342.0177 680.0025,343.2677 680.0025,343.2677 681.2525,343.8927 681.2525,343.8927 683.7525,343.8927 683.7525,343.8927 685.0025,343.2677 685.0025,343.2677 686.2525,342.0177 686.2525,342.0177 686.8775,340.7677 686.8775,340.7677 686.8775,338.8927 686.8775,338.8927 683.7525,338.8927"/>
    <polyline points="762.7805,330.7677 762.7805,343.8927 762.7805,343.8927 754.0305,330.7677 754.0305,330.7677 754.0305,343.8927"/>
  </g>
</svg>
