<?xml version="1.0" encoding="utf-8" ?>
<svg xmlns="http://www.w3.org/2000/svg" xmlns:cc="http://creativecommons.org/ns" xmlns:dc="http://purl.org/dc/elements/1.1/" xmlns:ev="http://www.w3.org/2001/xml-events" xmlns:inkscape="http://www.inkscape.org/namespaces/inkscape" xmlns:rdf="http://www.w3.org/1999/02/22-rdf-syntax-ns" xmlns:sodipodi="http://sodipodi.sourceforge.net/DTD/sodipodi-0.dtd" xmlns:xlink="http://www.w3.org/1999/xlink" baseProfile="tiny" height="9.9cm" version="1.2" viewBox="0 0 793.7007874015749 374.1732283464567" width="21.0cm">
  <metadata>
    <rdf:RDF>
      <cc:Work>
        <dc:format>image/svg+xml</dc:format>
        <dc:source>vpype eval 'cell=10;width=210;height=99' eval 'nCols=20;nRows=9' eval 'cells=[2,5,6,7,8,9,10,11,12,13,16,18,21,22,23,24,31,34,36,38,42,50,51,52,53,54,55,56,57,58,62,65,69,71,76,78,80,81,82,83,84,85,87,88,89,90,91,92,94,95,96,97,98,99,102,105,109,111,116,118,125,126,127,128,129,130,131,132,133,136,138,145,149,151,163,164,165,166,167,168,170,171,172,173,174,175,176,177,178]' eval 'chars=[&quot;B&quot;,&quot;U&quot;,&quot;I&quot;,&quot;T&quot;,&quot;L&quot;,&quot;I&quot;,&quot;K&quot;,&quot;K&quot;,&quot;E&quot;,&quot;N&quot;,&quot;V&quot;,&quot;P&quot;,&quot;P&quot;,&quot;I&quot;,&quot;P&quot;,&quot;I&quot;,&quot;L&quot;,&quot;J&quot;,&quot;R&quot;,&quot;I&quot;,&quot;L&quot;,&quot;M&quot;,&quot;A&quot;,&quot;N&quot;,&quot;D&quot;,&quot;A&quot;,&quot;R&quot;,&quot;I&quot;,&quot;J&quot;,&quot;N&quot;,&quot;L&quot;,&quot;T&quot;,&quot;J&quot;,&quot;V&quot;,&quot;J&quot;,&quot;K&quot;,&quot;C&quot;,&quot;H&quot;,&quot;I&quot;,&quot;P&quot;,&quot;J&quot;,&quot;E&quot;,&quot;W&quot;,&quot;O&quot;,&quot;U&quot;,&quot;T&quot;,&quot;E&quot;,&quot;R&quot;,&quot;L&quot;,&quot;A&quot;,&quot;D&quot;,&quot;D&quot;,&quot;E&quot;,&quot;R&quot;,&quot;E&quot;,&quot;R&quot;,&quot;L&quot;,&quot;R&quot;,&quot;A&quot;,&quot;R&quot;,&quot;R&quot;,&quot;E&quot;,&quot;K&quot;,&quot;K&quot;,&quot;E&quot;,&quot;R&quot;,&quot;T&quot;,&quot;J&quot;,&quot;E&quot;,&quot;G&quot;,&quot;S&quot;,&quot;A&quot;,&quot;S&quot;,&quot;J&quot;,&quot;J&quot;,&quot;E&quot;,&quot;S&quot;,&quot;S&quot;,&quot;I&quot;,&quot;E&quot;,&quot;R&quot;,&quot;E&quot;,&quot;G&quot;,&quot;E&quot;,&quot;N&quot;,&quot;B&quot;,&quot;O&quot;,&quot;O&quot;,&quot;G&quot;]' eval 'numbers=[2,5,11,16,18,21,34,50,65,69,80,87,94,125,163,170]' eval counter=1 eval charIndex=0 begin grid -o '%cell*mm%' '%cell*mm%' %nCols% %nRows% eval '%isCell=_i in cells%' eval '%number=_i in numbers%' eval '%size=10 if isCell else 0%' rect 0 0 '%size*mm%' '%size*mm%' text -s 10 -p 0.5mm 1.5mm '%counter if number else '&quot;'&quot;''&quot;'&quot;'%' text -s 20 -p 5mm 5mm -a center '%chars[charIndex] if isCell else '&quot;'&quot;''&quot;'&quot;'%' eval '%if number: counter+=1 %' eval '%if isCell: charIndex+=1 %' end splitall deduplicate linemerge --tolerance 0.1mm write -m none --page-size '%width*mm%x%height*mm%' --center ./svgs/solution/7589c9.svg
</dc:source>
        <dc:date>2023-12-23T22:30:06.196467</dc:date>
      </cc:Work>
    </rdf:RDF>
  </metadata>
  <defs/>
  <g fill="none" id="layer1" inkscape:groupmode="layer" inkscape:label="1" stroke="#000000" style="display:inline">
    <polygon points="94.4882,17.0079 94.4882,54.8031 94.4882,54.8031 56.6929,54.8031 56.6929,54.8031 56.6929,92.5984 56.6929,92.5984 94.4882,92.5984 94.4882,92.5984 132.2835,92.5984 132.2835,92.5984 132.2835,54.8031 132.2835,54.8031 132.2835,17.0079 132.2835,17.0079"/>
    <polyline points="56.6929,168.189 56.6929,205.9843 56.6929,205.9843 18.8976,205.9843 18.8976,205.9843 18.8976,168.189 18.8976,168.189 56.6929,168.189 56.6929,168.189 94.4882,168.189 94.4882,168.189 94.4882,130.3937 94.4882,130.3937 94.4882,92.5984 94.4882,92.5984 94.4882,54.8031 94.4882,54.8031 132.2835,54.8031 132.2835,54.8031 170.0787,54.8031 170.0787,54.8031 207.874,54.8031 207.874,54.8031 245.6693,54.8031 245.6693,54.8031 245.6693,17.0079 245.6693,17.0079 207.874,17.0079 207.874,17.0079 207.874,54.8031 207.874,54.8031 207.874,92.5984 207.874,92.5984 170.0787,92.5984 170.0787,92.5984 170.0787,54.8031"/>
    <polyline points="98.253,20.1772 98.878,19.8647 98.878,19.8647 99.8155,18.9272 99.8155,18.9272 99.8155,25.4897"/>
    <polyline points="117.1358,34.6555 119.0108,34.0305 119.0108,34.0305 119.6358,33.4055 119.6358,33.4055 120.2608,32.1555 120.2608,32.1555 120.2608,30.9055 120.2608,30.9055 119.6358,29.6555 119.6358,29.6555 119.0108,29.0305 119.0108,29.0305 117.1358,28.4055 117.1358,28.4055 111.5108,28.4055 111.5108,28.4055 111.5108,41.5305 111.5108,41.5305 117.1358,41.5305 117.1358,41.5305 119.0108,40.9055 119.0108,40.9055 119.6358,40.2805 119.6358,40.2805 120.2608,39.0305 120.2608,39.0305 120.2608,37.1555 120.2608,37.1555 119.6358,35.9055 119.6358,35.9055 119.0108,35.2805 119.0108,35.2805 117.1358,34.6555 117.1358,34.6555 111.5108,34.6555"/>
    <polyline points="211.0138,20.4897 211.0138,20.1772 211.0138,20.1772 211.3263,19.5522 211.3263,19.5522 211.6388,19.2397 211.6388,19.2397 212.2638,18.9272 212.2638,18.9272 213.5138,18.9272 213.5138,18.9272 214.1388,19.2397 214.1388,19.2397 214.4513,19.5522 214.4513,19.5522 214.7638,20.1772 214.7638,20.1772 214.7638,20.8022 214.7638,20.8022 214.4513,21.4272 214.4513,21.4272 213.8263,22.3647 213.8263,22.3647 210.7013,25.4897 210.7013,25.4897 215.0763,25.4897"/>
    <polyline points="224.8967,28.4055 224.8967,37.7805 224.8967,37.7805 225.5217,39.6555 225.5217,39.6555 226.7717,40.9055 226.7717,40.9055 228.6467,41.5305 228.6467,41.5305 229.8967,41.5305 229.8967,41.5305 231.7717,40.9055 231.7717,40.9055 233.0217,39.6555 233.0217,39.6555 233.6467,37.7805 233.6467,37.7805 233.6467,28.4055"/>
    <polyline points="245.6693,54.8031 283.4646,54.8031 283.4646,54.8031 321.2598,54.8031 321.2598,54.8031 321.2598,17.0079 321.2598,17.0079 283.4646,17.0079 283.4646,17.0079 245.6693,17.0079"/>
    <line x1="283.4646" x2="283.4646" y1="54.8031" y2="17.0079"/>
    <line x1="267.0669" x2="267.0669" y1="28.4055" y2="41.5305"/>
    <line x1="302.9872" x2="302.9872" y1="28.4055" y2="41.5305"/>
    <line x1="298.6122" x2="307.3622" y1="28.4055" y2="28.4055"/>
    <polyline points="321.2598,54.8031 359.0551,54.8031 359.0551,54.8031 396.8504,54.8031 396.8504,54.8031 434.6457,54.8031 434.6457,54.8031 434.6457,17.0079 434.6457,17.0079 396.8504,17.0079 396.8504,17.0079 359.0551,17.0079 359.0551,17.0079 321.2598,17.0079"/>
    <line x1="359.0551" x2="359.0551" y1="54.8031" y2="17.0079"/>
    <polyline points="338.9075,28.4055 338.9075,41.5305 338.9075,41.5305 346.4075,41.5305"/>
    <line x1="396.8504" x2="396.8504" y1="54.8031" y2="17.0079"/>
    <line x1="380.4528" x2="380.4528" y1="28.4055" y2="41.5305"/>
    <line x1="413.873" x2="413.873" y1="28.4055" y2="41.5305"/>
    <line x1="422.623" x2="413.873" y1="28.4055" y2="37.1555"/>
    <line x1="416.998" x2="422.623" y1="34.0305" y2="41.5305"/>
    <polyline points="472.4409,17.0079 510.2362,17.0079 510.2362,17.0079 510.2362,54.8031 510.2362,54.8031 472.4409,54.8031 472.4409,54.8031 472.4409,92.5984 472.4409,92.5984 434.6457,92.5984 434.6457,92.5984 434.6457,54.8031 434.6457,54.8031 472.4409,54.8031 472.4409,54.8031 472.4409,17.0079 472.4409,17.0079 434.6457,17.0079"/>
    <polyline points="438.0979,18.9272 441.5354,18.9272 441.5354,18.9272 439.6604,21.4272 439.6604,21.4272 440.5979,21.4272 440.5979,21.4272 441.2229,21.7397 441.2229,21.7397 441.5354,22.0522 441.5354,22.0522 441.8479,22.9897 441.8479,22.9897 441.8479,23.6147 441.8479,23.6147 441.5354,24.5522 441.5354,24.5522 440.9104,25.1772 440.9104,25.1772 439.9729,25.4897 439.9729,25.4897 439.0354,25.4897 439.0354,25.4897 438.0979,25.1772 438.0979,25.1772 437.7854,24.8647 437.7854,24.8647 437.4729,24.2397"/>
    <line x1="451.6683" x2="451.6683" y1="28.4055" y2="41.5305"/>
    <line x1="460.4183" x2="451.6683" y1="28.4055" y2="37.1555"/>
    <line x1="454.7933" x2="460.4183" y1="34.0305" y2="41.5305"/>
    <polyline points="497.9011,28.4055 489.7761,28.4055 489.7761,28.4055 489.7761,41.5305 489.7761,41.5305 497.9011,41.5305"/>
    <line x1="489.7761" x2="494.7761" y1="34.6555" y2="34.6555"/>
    <polyline points="510.2362,54.8031 548.0315,54.8031 548.0315,54.8031 548.0315,92.5984 548.0315,92.5984 585.8268,92.5984 585.8268,92.5984 585.8268,54.8031 585.8268,54.8031 548.0315,54.8031 548.0315,54.8031 548.0315,17.0079 548.0315,17.0079 510.2362,17.0079"/>
    <polyline points="536.0089,28.4055 536.0089,41.5305 536.0089,41.5305 527.2589,28.4055 527.2589,28.4055 527.2589,41.5305"/>
    <polygon points="623.622,17.0079 623.622,54.8031 623.622,54.8031 623.622,92.5984 623.622,92.5984 661.4173,92.5984 661.4173,92.5984 661.4173,54.8031 661.4173,54.8031 661.4173,17.0079 661.4173,17.0079"/>
    <line x1="623.622" x2="661.4173" y1="54.8031" y2="54.8031"/>
    <polyline points="629.5743,25.4897 629.5743,18.9272 629.5743,18.9272 626.4493,23.3022 626.4493,23.3022 631.1368,23.3022"/>
    <polyline points="638.1447,28.4055 643.1447,41.5305 643.1447,41.5305 648.1447,28.4055"/>
    <polygon points="699.2126,17.0079 699.2126,54.8031 699.2126,54.8031 737.0079,54.8031 737.0079,54.8031 737.0079,17.0079 737.0079,17.0079"/>
    <polyline points="705.7899,18.9272 702.6649,18.9272 702.6649,18.9272 702.3524,21.7397 702.3524,21.7397 702.6649,21.4272 702.6649,21.4272 703.6024,21.1147 703.6024,21.1147 704.5399,21.1147 704.5399,21.1147 705.4774,21.4272 705.4774,21.4272 706.1024,22.0522 706.1024,22.0522 706.4149,22.9897 706.4149,22.9897 706.4149,23.6147 706.4149,23.6147 706.1024,24.5522 706.1024,24.5522 705.4774,25.1772 705.4774,25.1772 704.5399,25.4897 704.5399,25.4897 703.6024,25.4897 703.6024,25.4897 702.6649,25.1772 702.6649,25.1772 702.3524,24.8647 702.3524,24.8647 702.0399,24.2397"/>
    <polyline points="716.2352,35.2805 721.8602,35.2805 721.8602,35.2805 723.7352,34.6555 723.7352,34.6555 724.3602,34.0305 724.3602,34.0305 724.9852,32.7805 724.9852,32.7805 724.9852,30.9055 724.9852,30.9055 724.3602,29.6555 724.3602,29.6555 723.7352,29.0305 723.7352,29.0305 721.8602,28.4055 721.8602,28.4055 716.2352,28.4055 716.2352,28.4055 716.2352,41.5305"/>
    <polyline points="63.5827,57.6599 63.2702,57.0349 63.2702,57.0349 62.3327,56.7224 62.3327,56.7224 61.7077,56.7224 61.7077,56.7224 60.7702,57.0349 60.7702,57.0349 60.1452,57.9724 60.1452,57.9724 59.8327,59.5349 59.8327,59.5349 59.8327,61.0974 59.8327,61.0974 60.1452,62.3474 60.1452,62.3474 60.7702,62.9724 60.7702,62.9724 61.7077,63.2849 61.7077,63.2849 62.0202,63.2849 62.0202,63.2849 62.9577,62.9724 62.9577,62.9724 63.5827,62.3474 63.5827,62.3474 63.8952,61.4099 63.8952,61.4099 63.8952,61.0974 63.8952,61.0974 63.5827,60.1599 63.5827,60.1599 62.9577,59.5349 62.9577,59.5349 62.0202,59.2224 62.0202,59.2224 61.7077,59.2224 61.7077,59.2224 60.7702,59.5349 60.7702,59.5349 60.1452,60.1599 60.1452,60.1599 59.8327,61.0974"/>
    <polyline points="73.7156,73.0758 79.3406,73.0758 79.3406,73.0758 81.2156,72.4508 81.2156,72.4508 81.8406,71.8258 81.8406,71.8258 82.4656,70.5758 82.4656,70.5758 82.4656,68.7008 82.4656,68.7008 81.8406,67.4508 81.8406,67.4508 81.2156,66.8258 81.2156,66.8258 79.3406,66.2008 79.3406,66.2008 73.7156,66.2008 73.7156,66.2008 73.7156,79.3258"/>
    <line x1="115.8858" x2="115.8858" y1="66.2008" y2="79.3258"/>
    <polyline points="94.4882,130.3937 132.2835,130.3937 132.2835,130.3937 132.2835,92.5984 132.2835,92.5984 170.0787,92.5984"/>
    <polyline points="149.3061,73.0758 154.9311,73.0758 154.9311,73.0758 156.8061,72.4508 156.8061,72.4508 157.4311,71.8258 157.4311,71.8258 158.0561,70.5758 158.0561,70.5758 158.0561,68.7008 158.0561,68.7008 157.4311,67.4508 157.4311,67.4508 156.8061,66.8258 156.8061,66.8258 154.9311,66.2008 154.9311,66.2008 149.3061,66.2008 149.3061,66.2008 149.3061,79.3258"/>
    <line x1="191.4764" x2="191.4764" y1="66.2008" y2="79.3258"/>
    <polyline points="452.2933,66.2008 452.2933,79.3258 452.2933,79.3258 459.7933,79.3258"/>
    <polyline points="550.8588,56.7224 555.2338,56.7224 555.2338,56.7224 552.1088,63.2849"/>
    <polyline points="571.3041,66.2008 571.3041,76.2008 571.3041,76.2008 570.6791,78.0758 570.6791,78.0758 570.0541,78.7008 570.0541,78.7008 568.8041,79.3258 568.8041,79.3258 567.5541,79.3258 567.5541,79.3258 566.3041,78.7008 566.3041,78.7008 565.6791,78.0758 565.6791,78.0758 565.0541,76.2008 565.0541,76.2008 565.0541,74.9508"/>
    <polyline points="640.6447,72.4508 646.2697,72.4508 646.2697,72.4508 648.1447,71.8258 648.1447,71.8258 648.7697,71.2008 648.7697,71.2008 649.3947,69.9508 649.3947,69.9508 649.3947,68.7008 649.3947,68.7008 648.7697,67.4508 648.7697,67.4508 648.1447,66.8258 648.1447,66.8258 646.2697,66.2008 646.2697,66.2008 640.6447,66.2008 640.6447,66.2008 640.6447,79.3258"/>
    <line x1="645.0197" x2="649.3947" y1="72.4508" y2="79.3258"/>
    <polyline points="699.2126,54.8031 699.2126,92.5984 699.2126,92.5984 737.0079,92.5984 737.0079,92.5984 737.0079,54.8031"/>
    <line x1="720.6102" x2="720.6102" y1="66.2008" y2="79.3258"/>
    <polyline points="112.1358,103.9961 112.1358,117.1211 112.1358,117.1211 119.6358,117.1211"/>
    <polygon points="396.8504,92.5984 396.8504,130.3937 396.8504,130.3937 434.6457,130.3937 434.6457,130.3937 434.6457,92.5984 434.6457,92.5984"/>
    <polygon points="401.2402,94.5177 400.3027,94.8302 400.3027,94.8302 399.9902,95.4552 399.9902,95.4552 399.9902,96.0802 399.9902,96.0802 400.3027,96.7052 400.3027,96.7052 400.9277,97.0177 400.9277,97.0177 402.1777,97.3302 402.1777,97.3302 403.1152,97.6427 403.1152,97.6427 403.7402,98.2677 403.7402,98.2677 404.0527,98.8927 404.0527,98.8927 404.0527,99.8302 404.0527,99.8302 403.7402,100.4552 403.7402,100.4552 403.4277,100.7677 403.4277,100.7677 402.4902,101.0802 402.4902,101.0802 401.2402,101.0802 401.2402,101.0802 400.3027,100.7677 400.3027,100.7677 399.9902,100.4552 399.9902,100.4552 399.6777,99.8302 399.6777,99.8302 399.6777,98.8927 399.6777,98.8927 399.9902,98.2677 399.9902,98.2677 400.6152,97.6427 400.6152,97.6427 401.5527,97.3302 401.5527,97.3302 402.8027,97.0177 402.8027,97.0177 403.4277,96.7052 403.4277,96.7052 403.7402,96.0802 403.7402,96.0802 403.7402,95.4552 403.7402,95.4552 403.4277,94.8302 403.4277,94.8302 402.4902,94.5177 402.4902,94.5177"/>
    <polyline points="423.248,117.1211 423.248,103.9961 423.248,103.9961 418.248,117.1211 418.248,117.1211 413.248,103.9961 413.248,103.9961 413.248,117.1211"/>
    <polyline points="548.0315,130.3937 548.0315,92.5984 548.0315,92.5984 510.2362,92.5984 510.2362,92.5984 472.4409,92.5984 472.4409,92.5984 472.4409,130.3937 472.4409,130.3937 472.4409,168.189 472.4409,168.189 434.6457,168.189 434.6457,168.189 434.6457,130.3937 434.6457,130.3937 472.4409,130.3937 472.4409,130.3937 510.2362,130.3937 510.2362,130.3937 548.0315,130.3937 548.0315,130.3937 585.8268,130.3937 585.8268,130.3937 585.8268,92.5984 585.8268,92.5984 623.622,92.5984 623.622,92.5984 623.622,130.3937 623.622,130.3937 623.622,168.189 623.622,168.189 585.8268,168.189 585.8268,168.189 548.0315,168.189 548.0315,168.189 548.0315,205.9843 548.0315,205.9843 585.8268,205.9843 585.8268,205.9843 585.8268,168.189"/>
    <polyline points="459.1683,117.1211 454.1683,103.9961 454.1683,103.9961 449.1683,117.1211"/>
    <line x1="451.0433" x2="457.2933" y1="112.7461" y2="112.7461"/>
    <line x1="510.2362" x2="510.2362" y1="130.3937" y2="92.5984"/>
    <polyline points="498.2136,103.9961 498.2136,117.1211 498.2136,117.1211 489.4636,103.9961 489.4636,103.9961 489.4636,117.1211"/>
    <polygon points="527.2589,103.9961 527.2589,117.1211 527.2589,117.1211 531.6339,117.1211 531.6339,117.1211 533.5089,116.4961 533.5089,116.4961 534.7589,115.2461 534.7589,115.2461 535.3839,113.9961 535.3839,113.9961 536.0089,112.1211 536.0089,112.1211 536.0089,108.9961 536.0089,108.9961 535.3839,107.1211 535.3839,107.1211 534.7589,105.8711 534.7589,105.8711 533.5089,104.6211 533.5089,104.6211 531.6339,103.9961 531.6339,103.9961"/>
    <polyline points="572.5541,117.1211 567.5541,103.9961 567.5541,103.9961 562.5541,117.1211"/>
    <line x1="564.4291" x2="570.6791" y1="112.7461" y2="112.7461"/>
    <polyline points="585.8268,130.3937 623.622,130.3937 623.622,130.3937 661.4173,130.3937 661.4173,130.3937 661.4173,92.5984 661.4173,92.5984 699.2126,92.5984 699.2126,92.5984 699.2126,130.3937 699.2126,130.3937 661.4173,130.3937 661.4173,130.3937 661.4173,168.189 661.4173,168.189 661.4173,205.9843 661.4173,205.9843 699.2126,205.9843 699.2126,205.9843 699.2126,168.189 699.2126,168.189 661.4173,168.189 661.4173,168.189 623.622,168.189 623.622,168.189 623.622,205.9843 623.622,205.9843 623.622,243.7795 623.622,243.7795 661.4173,243.7795 661.4173,243.7795 661.4173,205.9843 661.4173,205.9843 623.622,205.9843 623.622,205.9843 585.8268,205.9843"/>
    <polyline points="602.8494,110.2461 608.4744,110.2461 608.4744,110.2461 610.3494,109.6211 610.3494,109.6211 610.9744,108.9961 610.9744,108.9961 611.5994,107.7461 611.5994,107.7461 611.5994,106.4961 611.5994,106.4961 610.9744,105.2461 610.9744,105.2461 610.3494,104.6211 610.3494,104.6211 608.4744,103.9961 608.4744,103.9961 602.8494,103.9961 602.8494,103.9961 602.8494,117.1211"/>
    <line x1="607.2244" x2="611.5994" y1="110.2461" y2="117.1211"/>
    <line x1="645.0197" x2="645.0197" y1="103.9961" y2="117.1211"/>
    <polyline points="684.69,103.9961 684.69,113.9961 684.69,113.9961 684.065,115.8711 684.065,115.8711 683.44,116.4961 683.44,116.4961 682.19,117.1211 682.19,117.1211 680.94,117.1211 680.94,117.1211 679.69,116.4961 679.69,116.4961 679.065,115.8711 679.065,115.8711 678.44,113.9961 678.44,113.9961 678.44,112.7461"/>
    <polyline points="737.0079,130.3937 737.0079,168.189 737.0079,168.189 699.2126,168.189 699.2126,168.189 699.2126,130.3937 699.2126,130.3937 737.0079,130.3937 737.0079,130.3937 737.0079,92.5984"/>
    <polyline points="724.9852,103.9961 724.9852,117.1211 724.9852,117.1211 716.2352,103.9961 716.2352,103.9961 716.2352,117.1211"/>
    <polyline points="245.6693,168.189 245.6693,205.9843 245.6693,205.9843 207.874,205.9843 207.874,205.9843 207.874,168.189 207.874,168.189 207.874,130.3937 207.874,130.3937 245.6693,130.3937 245.6693,130.3937 245.6693,168.189 245.6693,168.189 207.874,168.189 207.874,168.189 170.0787,168.189 170.0787,168.189 132.2835,168.189 132.2835,168.189 132.2835,205.9843 132.2835,205.9843 132.2835,243.7795 132.2835,243.7795 94.4882,243.7795 94.4882,243.7795 94.4882,205.9843 94.4882,205.9843 94.4882,168.189 94.4882,168.189 132.2835,168.189 132.2835,168.189 132.2835,130.3937"/>
    <polyline points="112.1358,141.7913 112.1358,154.9163 112.1358,154.9163 119.6358,154.9163"/>
    <polyline points="214.7638,134.5005 214.4513,135.438 214.4513,135.438 213.8263,136.063 213.8263,136.063 212.8888,136.3755 212.8888,136.3755 212.5763,136.3755 212.5763,136.3755 211.6388,136.063 211.6388,136.063 211.0138,135.438 211.0138,135.438 210.7013,134.5005 210.7013,134.5005 210.7013,134.188 210.7013,134.188 211.0138,133.2505 211.0138,133.2505 211.6388,132.6255 211.6388,132.6255 212.5763,132.313 212.5763,132.313 212.8888,132.313 212.8888,132.313 213.8263,132.6255 213.8263,132.6255 214.4513,133.2505 214.4513,133.2505 214.7638,134.5005 214.7638,134.5005 214.7638,136.063 214.7638,136.063 214.4513,137.6255 214.4513,137.6255 213.8263,138.563 213.8263,138.563 212.8888,138.8755 212.8888,138.8755 212.2638,138.8755 212.2638,138.8755 211.3263,138.563 211.3263,138.563 211.0138,137.938"/>
    <line x1="227.3967" x2="227.3967" y1="141.7913" y2="154.9163"/>
    <line x1="223.0217" x2="231.7717" y1="141.7913" y2="141.7913"/>
    <polyline points="321.2598,205.9843 359.0551,205.9843 359.0551,205.9843 359.0551,243.7795 359.0551,243.7795 396.8504,243.7795 396.8504,243.7795 396.8504,205.9843 396.8504,205.9843 359.0551,205.9843 359.0551,205.9843 359.0551,168.189 359.0551,168.189 396.8504,168.189 396.8504,168.189 396.8504,205.9843 396.8504,205.9843 434.6457,205.9843 434.6457,205.9843 434.6457,168.189 434.6457,168.189 396.8504,168.189 396.8504,168.189 396.8504,130.3937 396.8504,130.3937 359.0551,130.3937 359.0551,130.3937 359.0551,168.189 359.0551,168.189 321.2598,168.189 321.2598,168.189 283.4646,168.189 283.4646,168.189 283.4646,205.9843 283.4646,205.9843 321.2598,205.9843 321.2598,205.9843 321.2598,168.189"/>
    <polyline points="362.8199,133.563 363.4449,133.2505 363.4449,133.2505 364.3824,132.313 364.3824,132.313 364.3824,138.8755"/>
    <polygon points="370.0074,132.313 369.0699,132.6255 369.0699,132.6255 368.4449,133.563 368.4449,133.563 368.1324,135.1255 368.1324,135.1255 368.1324,136.063 368.1324,136.063 368.4449,137.6255 368.4449,137.6255 369.0699,138.563 369.0699,138.563 370.0074,138.8755 370.0074,138.8755 370.6324,138.8755 370.6324,138.8755 371.5699,138.563 371.5699,138.563 372.1949,137.6255 372.1949,137.6255 372.5074,136.063 372.5074,136.063 372.5074,135.1255 372.5074,135.1255 372.1949,133.563 372.1949,133.563 371.5699,132.6255 371.5699,132.6255 370.6324,132.313 370.6324,132.313"/>
    <polyline points="382.3278,141.7913 382.3278,151.7913 382.3278,151.7913 381.7028,153.6663 381.7028,153.6663 381.0778,154.2913 381.0778,154.2913 379.8278,154.9163 379.8278,154.9163 378.5778,154.9163 378.5778,154.9163 377.3278,154.2913 377.3278,154.2913 376.7028,153.6663 376.7028,153.6663 376.0778,151.7913 376.0778,151.7913 376.0778,150.5413"/>
    <polyline points="449.1683,141.7913 454.1683,154.9163 454.1683,154.9163 459.1683,141.7913"/>
    <polyline points="646.8947,141.7913 646.8947,151.7913 646.8947,151.7913 646.2697,153.6663 646.2697,153.6663 645.6447,154.2913 645.6447,154.2913 644.3947,154.9163 644.3947,154.9163 643.1447,154.9163 643.1447,154.9163 641.8947,154.2913 641.8947,154.2913 641.2697,153.6663 641.2697,153.6663 640.6447,151.7913 640.6447,151.7913 640.6447,150.5413"/>
    <line x1="716.2352" x2="716.2352" y1="141.7913" y2="154.9163"/>
    <line x1="724.9852" x2="716.2352" y1="141.7913" y2="150.5413"/>
    <line x1="719.3602" x2="724.9852" y1="147.4163" y2="154.9163"/>
    <polyline points="22.6624,171.3583 23.2874,171.0458 23.2874,171.0458 24.2249,170.1083 24.2249,170.1083 24.2249,176.6708"/>
    <polyline points="28.9124,171.3583 29.5374,171.0458 29.5374,171.0458 30.4749,170.1083 30.4749,170.1083 30.4749,176.6708"/>
    <polyline points="44.3578,182.7116 43.7328,181.4616 43.7328,181.4616 42.4828,180.2116 42.4828,180.2116 41.2328,179.5866 41.2328,179.5866 38.7328,179.5866 38.7328,179.5866 37.4828,180.2116 37.4828,180.2116 36.2328,181.4616 36.2328,181.4616 35.6078,182.7116 35.6078,182.7116 34.9828,184.5866 34.9828,184.5866 34.9828,187.7116 34.9828,187.7116 35.6078,189.5866 35.6078,189.5866 36.2328,190.8366 36.2328,190.8366 37.4828,192.0866 37.4828,192.0866 38.7328,192.7116 38.7328,192.7116 41.2328,192.7116 41.2328,192.7116 42.4828,192.0866 42.4828,192.0866 43.7328,190.8366 43.7328,190.8366 44.3578,189.5866"/>
    <polyline points="56.6929,205.9843 94.4882,205.9843 94.4882,205.9843 132.2835,205.9843 132.2835,205.9843 170.0787,205.9843 170.0787,205.9843 170.0787,168.189"/>
    <line x1="73.7156" x2="73.7156" y1="179.5866" y2="192.7116"/>
    <line x1="82.4656" x2="82.4656" y1="179.5866" y2="192.7116"/>
    <line x1="73.7156" x2="82.4656" y1="185.8366" y2="185.8366"/>
    <line x1="115.8858" x2="115.8858" y1="179.5866" y2="192.7116"/>
    <polyline points="149.3061,186.4616 154.9311,186.4616 154.9311,186.4616 156.8061,185.8366 156.8061,185.8366 157.4311,185.2116 157.4311,185.2116 158.0561,183.9616 158.0561,183.9616 158.0561,182.0866 158.0561,182.0866 157.4311,180.8366 157.4311,180.8366 156.8061,180.2116 156.8061,180.2116 154.9311,179.5866 154.9311,179.5866 149.3061,179.5866 149.3061,179.5866 149.3061,192.7116"/>
    <polyline points="170.0787,205.9843 207.874,205.9843 207.874,205.9843 207.874,243.7795 207.874,243.7795 245.6693,243.7795 245.6693,243.7795 245.6693,205.9843"/>
    <polyline points="193.3514,179.5866 193.3514,189.5866 193.3514,189.5866 192.7264,191.4616 192.7264,191.4616 192.1014,192.0866 192.1014,192.0866 190.8514,192.7116 190.8514,192.7116 189.6014,192.7116 189.6014,192.7116 188.3514,192.0866 188.3514,192.0866 187.7264,191.4616 187.7264,191.4616 187.1014,189.5866 187.1014,189.5866 187.1014,188.3366"/>
    <polyline points="233.3342,179.5866 225.2092,179.5866 225.2092,179.5866 225.2092,192.7116 225.2092,192.7116 233.3342,192.7116"/>
    <line x1="225.2092" x2="230.2092" y1="185.8366" y2="185.8366"/>
    <polyline points="287.2293,171.3583 287.8543,171.0458 287.8543,171.0458 288.7918,170.1083 288.7918,170.1083 288.7918,176.6708"/>
    <polyline points="292.8543,171.6708 292.8543,171.3583 292.8543,171.3583 293.1668,170.7333 293.1668,170.7333 293.4793,170.4208 293.4793,170.4208 294.1043,170.1083 294.1043,170.1083 295.3543,170.1083 295.3543,170.1083 295.9793,170.4208 295.9793,170.4208 296.2918,170.7333 296.2918,170.7333 296.6043,171.3583 296.6043,171.3583 296.6043,171.9833 296.6043,171.9833 296.2918,172.6083 296.2918,172.6083 295.6668,173.5458 295.6668,173.5458 292.5418,176.6708 292.5418,176.6708 296.9168,176.6708"/>
    <polyline points="297.3622,179.5866 300.4872,192.7116 300.4872,192.7116 303.6122,179.5866 303.6122,179.5866 306.7372,192.7116 306.7372,192.7116 309.8622,179.5866"/>
    <polygon points="340.7825,179.5866 339.5325,180.2116 339.5325,180.2116 338.2825,181.4616 338.2825,181.4616 337.6575,182.7116 337.6575,182.7116 337.0325,184.5866 337.0325,184.5866 337.0325,187.7116 337.0325,187.7116 337.6575,189.5866 337.6575,189.5866 338.2825,190.8366 338.2825,190.8366 339.5325,192.0866 339.5325,192.0866 340.7825,192.7116 340.7825,192.7116 343.2825,192.7116 343.2825,192.7116 344.5325,192.0866 344.5325,192.0866 345.7825,190.8366 345.7825,190.8366 346.4075,189.5866 346.4075,189.5866 347.0325,187.7116 347.0325,187.7116 347.0325,184.5866 347.0325,184.5866 346.4075,182.7116 346.4075,182.7116 345.7825,181.4616 345.7825,181.4616 344.5325,180.2116 344.5325,180.2116 343.2825,179.5866 343.2825,179.5866"/>
    <polyline points="376.0778,179.5866 376.0778,188.9616 376.0778,188.9616 376.7028,190.8366 376.7028,190.8366 377.9528,192.0866 377.9528,192.0866 379.8278,192.7116 379.8278,192.7116 381.0778,192.7116 381.0778,192.7116 382.9528,192.0866 382.9528,192.0866 384.2028,190.8366 384.2028,190.8366 384.8278,188.9616 384.8278,188.9616 384.8278,179.5866"/>
    <line x1="416.373" x2="416.373" y1="179.5866" y2="192.7116"/>
    <line x1="411.998" x2="420.748" y1="179.5866" y2="179.5866"/>
    <polygon points="434.6457,205.9843 472.4409,205.9843 472.4409,205.9843 510.2362,205.9843 510.2362,205.9843 510.2362,168.189 510.2362,168.189 472.4409,168.189 472.4409,168.189 472.4409,205.9843 472.4409,205.9843 472.4409,243.7795 472.4409,243.7795 434.6457,243.7795 434.6457,243.7795"/>
    <polyline points="460.1058,179.5866 451.9808,179.5866 451.9808,179.5866 451.9808,192.7116 451.9808,192.7116 460.1058,192.7116"/>
    <line x1="451.9808" x2="456.9808" y1="185.8366" y2="185.8366"/>
    <polyline points="489.4636,185.8366 495.0886,185.8366 495.0886,185.8366 496.9636,185.2116 496.9636,185.2116 497.5886,184.5866 497.5886,184.5866 498.2136,183.3366 498.2136,183.3366 498.2136,182.0866 498.2136,182.0866 497.5886,180.8366 497.5886,180.8366 496.9636,180.2116 496.9636,180.2116 495.0886,179.5866 495.0886,179.5866 489.4636,179.5866 489.4636,179.5866 489.4636,192.7116"/>
    <line x1="493.8386" x2="498.2136" y1="185.8366" y2="192.7116"/>
    <polyline points="551.7963,171.3583 552.4213,171.0458 552.4213,171.0458 553.3588,170.1083 553.3588,170.1083 553.3588,176.6708"/>
    <polyline points="557.7338,170.1083 561.1713,170.1083 561.1713,170.1083 559.2963,172.6083 559.2963,172.6083 560.2338,172.6083 560.2338,172.6083 560.8588,172.9208 560.8588,172.9208 561.1713,173.2333 561.1713,173.2333 561.4838,174.1708 561.4838,174.1708 561.4838,174.7958 561.4838,174.7958 561.1713,175.7333 561.1713,175.7333 560.5463,176.3583 560.5463,176.3583 559.6088,176.6708 559.6088,176.6708 558.6713,176.6708 558.6713,176.6708 557.7338,176.3583 557.7338,176.3583 557.4213,176.0458 557.4213,176.0458 557.1088,175.4208"/>
    <polyline points="565.6791,179.5866 565.6791,192.7116 565.6791,192.7116 573.1791,192.7116"/>
    <polyline points="610.3494,192.7116 605.3494,179.5866 605.3494,179.5866 600.3494,192.7116"/>
    <line x1="602.2244" x2="608.4744" y1="188.3366" y2="188.3366"/>
    <polygon points="640.6447,179.5866 640.6447,192.7116 640.6447,192.7116 645.0197,192.7116 645.0197,192.7116 646.8947,192.0866 646.8947,192.0866 648.1447,190.8366 648.1447,190.8366 648.7697,189.5866 648.7697,189.5866 649.3947,187.7116 649.3947,187.7116 649.3947,184.5866 649.3947,184.5866 648.7697,182.7116 648.7697,182.7116 648.1447,181.4616 648.1447,181.4616 646.8947,180.2116 646.8947,180.2116 645.0197,179.5866 645.0197,179.5866"/>
    <polygon points="678.44,179.5866 678.44,192.7116 678.44,192.7116 682.815,192.7116 682.815,192.7116 684.69,192.0866 684.69,192.0866 685.94,190.8366 685.94,190.8366 686.565,189.5866 686.565,189.5866 687.19,187.7116 687.19,187.7116 687.19,184.5866 687.19,184.5866 686.565,182.7116 686.565,182.7116 685.94,181.4616 685.94,181.4616 684.69,180.2116 684.69,180.2116 682.815,179.5866 682.815,179.5866"/>
    <polygon points="699.2126,205.9843 737.0079,205.9843 737.0079,205.9843 737.0079,168.189 737.0079,168.189 774.8031,168.189 774.8031,168.189 774.8031,205.9843 774.8031,205.9843 737.0079,205.9843 737.0079,205.9843 737.0079,243.7795 737.0079,243.7795 699.2126,243.7795 699.2126,243.7795"/>
    <polyline points="724.6727,179.5866 716.5477,179.5866 716.5477,179.5866 716.5477,192.7116 716.5477,192.7116 724.6727,192.7116"/>
    <line x1="716.5477" x2="721.5477" y1="185.8366" y2="185.8366"/>
    <polyline points="754.0305,185.8366 759.6555,185.8366 759.6555,185.8366 761.5305,185.2116 761.5305,185.2116 762.1555,184.5866 762.1555,184.5866 762.7805,183.3366 762.7805,183.3366 762.7805,182.0866 762.7805,182.0866 762.1555,180.8366 762.1555,180.8366 761.5305,180.2116 761.5305,180.2116 759.6555,179.5866 759.6555,179.5866 754.0305,179.5866 754.0305,179.5866 754.0305,192.7116"/>
    <line x1="758.4055" x2="762.7805" y1="185.8366" y2="192.7116"/>
    <polyline points="119.9483,217.3819 111.8233,217.3819 111.8233,217.3819 111.8233,230.5069 111.8233,230.5069 119.9483,230.5069"/>
    <line x1="111.8233" x2="116.8233" y1="223.6319" y2="223.6319"/>
    <polyline points="224.8967,223.6319 230.5217,223.6319 230.5217,223.6319 232.3967,223.0069 232.3967,223.0069 233.0217,222.3819 233.0217,222.3819 233.6467,221.1319 233.6467,221.1319 233.6467,219.8819 233.6467,219.8819 233.0217,218.6319 233.0217,218.6319 232.3967,218.0069 232.3967,218.0069 230.5217,217.3819 230.5217,217.3819 224.8967,217.3819 224.8967,217.3819 224.8967,230.5069"/>
    <line x1="229.2717" x2="233.6467" y1="223.6319" y2="230.5069"/>
    <polyline points="376.7028,217.3819 376.7028,230.5069 376.7028,230.5069 384.2028,230.5069"/>
    <polyline points="451.6683,223.6319 457.2933,223.6319 457.2933,223.6319 459.1683,223.0069 459.1683,223.0069 459.7933,222.3819 459.7933,222.3819 460.4183,221.1319 460.4183,221.1319 460.4183,219.8819 460.4183,219.8819 459.7933,218.6319 459.7933,218.6319 459.1683,218.0069 459.1683,218.0069 457.2933,217.3819 457.2933,217.3819 451.6683,217.3819 451.6683,217.3819 451.6683,230.5069"/>
    <line x1="456.0433" x2="460.4183" y1="223.6319" y2="230.5069"/>
    <polyline points="648.1447,230.5069 643.1447,217.3819 643.1447,217.3819 638.1447,230.5069"/>
    <line x1="640.0197" x2="646.2697" y1="226.1319" y2="226.1319"/>
    <polyline points="716.2352,223.6319 721.8602,223.6319 721.8602,223.6319 723.7352,223.0069 723.7352,223.0069 724.3602,222.3819 724.3602,222.3819 724.9852,221.1319 724.9852,221.1319 724.9852,219.8819 724.9852,219.8819 724.3602,218.6319 724.3602,218.6319 723.7352,218.0069 723.7352,218.0069 721.8602,217.3819 721.8602,217.3819 716.2352,217.3819 716.2352,217.3819 716.2352,230.5069"/>
    <line x1="720.6102" x2="724.9852" y1="223.6319" y2="230.5069"/>
    <polyline points="207.874,243.7795 207.874,281.5748 207.874,281.5748 207.874,319.3701 207.874,319.3701 170.0787,319.3701 170.0787,319.3701 132.2835,319.3701 132.2835,319.3701 132.2835,357.1654 132.2835,357.1654 170.0787,357.1654 170.0787,357.1654 207.874,357.1654 207.874,357.1654 207.874,319.3701 207.874,319.3701 245.6693,319.3701 245.6693,319.3701 245.6693,281.5748 245.6693,281.5748 245.6693,243.7795 245.6693,243.7795 283.4646,243.7795 283.4646,243.7795 283.4646,281.5748 283.4646,281.5748 321.2598,281.5748 321.2598,281.5748 321.2598,243.7795 321.2598,243.7795 283.4646,243.7795"/>
    <polyline points="207.874,281.5748 245.6693,281.5748 245.6693,281.5748 283.4646,281.5748"/>
    <polyline points="211.6388,246.9488 212.2638,246.6363 212.2638,246.6363 213.2013,245.6988 213.2013,245.6988 213.2013,252.2613"/>
    <polyline points="220.0763,252.2613 220.0763,245.6988 220.0763,245.6988 216.9513,250.0738 216.9513,250.0738 221.6388,250.0738"/>
    <polyline points="224.8967,261.4272 230.5217,261.4272 230.5217,261.4272 232.3967,260.8022 232.3967,260.8022 233.0217,260.1772 233.0217,260.1772 233.6467,258.9272 233.6467,258.9272 233.6467,257.6772 233.6467,257.6772 233.0217,256.4272 233.0217,256.4272 232.3967,255.8022 232.3967,255.8022 230.5217,255.1772 230.5217,255.1772 224.8967,255.1772 224.8967,255.1772 224.8967,268.3022"/>
    <line x1="229.2717" x2="233.6467" y1="261.4272" y2="268.3022"/>
    <polyline points="271.1294,255.1772 263.0044,255.1772 263.0044,255.1772 263.0044,268.3022 263.0044,268.3022 271.1294,268.3022"/>
    <line x1="263.0044" x2="268.0044" y1="261.4272" y2="261.4272"/>
    <line x1="300.4872" x2="300.4872" y1="255.1772" y2="268.3022"/>
    <line x1="309.2372" x2="300.4872" y1="255.1772" y2="263.9272"/>
    <line x1="303.6122" x2="309.2372" y1="260.8022" y2="268.3022"/>
    <polyline points="321.2598,281.5748 359.0551,281.5748 359.0551,281.5748 396.8504,281.5748 396.8504,281.5748 396.8504,243.7795 396.8504,243.7795 434.6457,243.7795 434.6457,243.7795 434.6457,281.5748 434.6457,281.5748 396.8504,281.5748 396.8504,281.5748 396.8504,319.3701 396.8504,319.3701 396.8504,357.1654 396.8504,357.1654 434.6457,357.1654 434.6457,357.1654 434.6457,319.3701 434.6457,319.3701 396.8504,319.3701 396.8504,319.3701 359.0551,319.3701 359.0551,319.3701 321.2598,319.3701 321.2598,319.3701 283.4646,319.3701 283.4646,319.3701 245.6693,319.3701 245.6693,319.3701 245.6693,357.1654 245.6693,357.1654 207.874,357.1654"/>
    <polyline points="321.2598,319.3701 321.2598,357.1654 321.2598,357.1654 359.0551,357.1654 359.0551,357.1654 359.0551,319.3701 359.0551,319.3701 359.0551,281.5748 359.0551,281.5748 359.0551,243.7795 359.0551,243.7795 321.2598,243.7795"/>
    <line x1="338.2825" x2="338.2825" y1="255.1772" y2="268.3022"/>
    <line x1="347.0325" x2="338.2825" y1="255.1772" y2="263.9272"/>
    <line x1="341.4075" x2="347.0325" y1="260.8022" y2="268.3022"/>
    <polyline points="384.5153,255.1772 376.3903,255.1772 376.3903,255.1772 376.3903,268.3022 376.3903,268.3022 384.5153,268.3022"/>
    <line x1="376.3903" x2="381.3903" y1="261.4272" y2="261.4272"/>
    <polyline points="413.873,261.4272 419.498,261.4272 419.498,261.4272 421.373,260.8022 421.373,260.8022 421.998,260.1772 421.998,260.1772 422.623,258.9272 422.623,258.9272 422.623,257.6772 422.623,257.6772 421.998,256.4272 421.998,256.4272 421.373,255.8022 421.373,255.8022 419.498,255.1772 419.498,255.1772 413.873,255.1772 413.873,255.1772 413.873,268.3022"/>
    <line x1="418.248" x2="422.623" y1="261.4272" y2="268.3022"/>
    <polyline points="510.2362,281.5748 472.4409,281.5748 472.4409,281.5748 472.4409,319.3701 472.4409,319.3701 434.6457,319.3701 434.6457,319.3701 434.6457,281.5748 434.6457,281.5748 472.4409,281.5748 472.4409,281.5748 472.4409,243.7795 472.4409,243.7795 510.2362,243.7795 510.2362,243.7795 548.0315,243.7795 548.0315,243.7795 548.0315,281.5748 548.0315,281.5748 510.2362,281.5748 510.2362,281.5748 510.2362,243.7795"/>
    <line x1="454.1683" x2="454.1683" y1="255.1772" y2="268.3022"/>
    <line x1="449.7933" x2="458.5433" y1="255.1772" y2="255.1772"/>
    <polyline points="495.7136,255.1772 495.7136,265.1772 495.7136,265.1772 495.0886,267.0522 495.0886,267.0522 494.4636,267.6772 494.4636,267.6772 493.2136,268.3022 493.2136,268.3022 491.9636,268.3022 491.9636,268.3022 490.7136,267.6772 490.7136,267.6772 490.0886,267.0522 490.0886,267.0522 489.4636,265.1772 489.4636,265.1772 489.4636,263.9272"/>
    <polyline points="535.6964,255.1772 527.5714,255.1772 527.5714,255.1772 527.5714,268.3022 527.5714,268.3022 535.6964,268.3022"/>
    <line x1="527.5714" x2="532.5714" y1="261.4272" y2="261.4272"/>
    <polyline points="623.622,243.7795 623.622,281.5748 623.622,281.5748 661.4173,281.5748 661.4173,281.5748 661.4173,243.7795"/>
    <polyline points="649.0822,258.3022 648.4572,257.0522 648.4572,257.0522 647.2072,255.8022 647.2072,255.8022 645.9572,255.1772 645.9572,255.1772 643.4572,255.1772 643.4572,255.1772 642.2072,255.8022 642.2072,255.8022 640.9572,257.0522 640.9572,257.0522 640.3322,258.3022 640.3322,258.3022 639.7072,260.1772 639.7072,260.1772 639.7072,263.3022 639.7072,263.3022 640.3322,265.1772 640.3322,265.1772 640.9572,266.4272 640.9572,266.4272 642.2072,267.6772 642.2072,267.6772 643.4572,268.3022 643.4572,268.3022 645.9572,268.3022 645.9572,268.3022 647.2072,267.6772 647.2072,267.6772 648.4572,266.4272 648.4572,266.4272 649.0822,265.1772 649.0822,265.1772 649.0822,263.3022 649.0822,263.3022 645.9572,263.3022"/>
    <polyline points="699.2126,243.7795 699.2126,281.5748 699.2126,281.5748 737.0079,281.5748 737.0079,281.5748 737.0079,243.7795"/>
    <polyline points="724.3602,257.0522 723.1102,255.8022 723.1102,255.8022 721.2352,255.1772 721.2352,255.1772 718.7352,255.1772 718.7352,255.1772 716.8602,255.8022 716.8602,255.8022 715.6102,257.0522 715.6102,257.0522 715.6102,258.3022 715.6102,258.3022 716.2352,259.5522 716.2352,259.5522 716.8602,260.1772 716.8602,260.1772 718.1102,260.8022 718.1102,260.8022 721.8602,262.0522 721.8602,262.0522 723.1102,262.6772 723.1102,262.6772 723.7352,263.3022 723.7352,263.3022 724.3602,264.5522 724.3602,264.5522 724.3602,266.4272 724.3602,266.4272 723.1102,267.6772 723.1102,267.6772 721.2352,268.3022 721.2352,268.3022 718.7352,268.3022 718.7352,268.3022 716.8602,267.6772 716.8602,267.6772 715.6102,266.4272"/>
    <polyline points="232.3967,306.0974 227.3967,292.9724 227.3967,292.9724 222.3967,306.0974"/>
    <line x1="224.2717" x2="230.5217" y1="301.7224" y2="301.7224"/>
    <polyline points="384.2028,294.8474 382.9528,293.5974 382.9528,293.5974 381.0778,292.9724 381.0778,292.9724 378.5778,292.9724 378.5778,292.9724 376.7028,293.5974 376.7028,293.5974 375.4528,294.8474 375.4528,294.8474 375.4528,296.0974 375.4528,296.0974 376.0778,297.3474 376.0778,297.3474 376.7028,297.9724 376.7028,297.9724 377.9528,298.5974 377.9528,298.5974 381.7028,299.8474 381.7028,299.8474 382.9528,300.4724 382.9528,300.4724 383.5778,301.0974 383.5778,301.0974 384.2028,302.3474 384.2028,302.3474 384.2028,304.2224 384.2028,304.2224 382.9528,305.4724 382.9528,305.4724 381.0778,306.0974 381.0778,306.0974 378.5778,306.0974 378.5778,306.0974 376.7028,305.4724 376.7028,305.4724 375.4528,304.2224"/>
    <polyline points="457.9183,292.9724 457.9183,302.9724 457.9183,302.9724 457.2933,304.8474 457.2933,304.8474 456.6683,305.4724 456.6683,305.4724 455.4183,306.0974 455.4183,306.0974 454.1683,306.0974 454.1683,306.0974 452.9183,305.4724 452.9183,305.4724 452.2933,304.8474 452.2933,304.8474 451.6683,302.9724 451.6683,302.9724 451.6683,301.7224"/>
    <line x1="170.0787" x2="170.0787" y1="357.1654" y2="319.3701"/>
    <polyline points="136.0482,322.5394 136.6732,322.2269 136.6732,322.2269 137.6107,321.2894 137.6107,321.2894 137.6107,327.8519"/>
    <polyline points="145.1107,321.2894 141.9857,321.2894 141.9857,321.2894 141.6732,324.1019 141.6732,324.1019 141.9857,323.7894 141.9857,323.7894 142.9232,323.4769 142.9232,323.4769 143.8607,323.4769 143.8607,323.4769 144.7982,323.7894 144.7982,323.7894 145.4232,324.4144 145.4232,324.4144 145.7357,325.3519 145.7357,325.3519 145.7357,325.9769 145.7357,325.9769 145.4232,326.9144 145.4232,326.9144 144.7982,327.5394 144.7982,327.5394 143.8607,327.8519 143.8607,327.8519 142.9232,327.8519 142.9232,327.8519 141.9857,327.5394 141.9857,327.5394 141.6732,327.2269 141.6732,327.2269 141.3607,326.6019"/>
    <polyline points="155.5561,330.7677 155.5561,340.7677 155.5561,340.7677 154.9311,342.6427 154.9311,342.6427 154.3061,343.2677 154.3061,343.2677 153.0561,343.8927 153.0561,343.8927 151.8061,343.8927 151.8061,343.8927 150.5561,343.2677 150.5561,343.2677 149.9311,342.6427 149.9311,342.6427 149.3061,340.7677 149.3061,340.7677 149.3061,339.5177"/>
    <polyline points="195.5389,330.7677 187.4139,330.7677 187.4139,330.7677 187.4139,343.8927 187.4139,343.8927 195.5389,343.8927"/>
    <line x1="187.4139" x2="192.4139" y1="337.0177" y2="337.0177"/>
    <polyline points="233.0217,332.6427 231.7717,331.3927 231.7717,331.3927 229.8967,330.7677 229.8967,330.7677 227.3967,330.7677 227.3967,330.7677 225.5217,331.3927 225.5217,331.3927 224.2717,332.6427 224.2717,332.6427 224.2717,333.8927 224.2717,333.8927 224.8967,335.1427 224.8967,335.1427 225.5217,335.7677 225.5217,335.7677 226.7717,336.3927 226.7717,336.3927 230.5217,337.6427 230.5217,337.6427 231.7717,338.2677 231.7717,338.2677 232.3967,338.8927 232.3967,338.8927 233.0217,340.1427 233.0217,340.1427 233.0217,342.0177 233.0217,342.0177 231.7717,343.2677 231.7717,343.2677 229.8967,343.8927 229.8967,343.8927 227.3967,343.8927 227.3967,343.8927 225.5217,343.2677 225.5217,343.2677 224.2717,342.0177"/>
    <polyline points="245.6693,357.1654 283.4646,357.1654 283.4646,357.1654 321.2598,357.1654"/>
    <line x1="283.4646" x2="283.4646" y1="357.1654" y2="319.3701"/>
    <polyline points="270.8169,332.6427 269.5669,331.3927 269.5669,331.3927 267.6919,330.7677 267.6919,330.7677 265.1919,330.7677 265.1919,330.7677 263.3169,331.3927 263.3169,331.3927 262.0669,332.6427 262.0669,332.6427 262.0669,333.8927 262.0669,333.8927 262.6919,335.1427 262.6919,335.1427 263.3169,335.7677 263.3169,335.7677 264.5669,336.3927 264.5669,336.3927 268.3169,337.6427 268.3169,337.6427 269.5669,338.2677 269.5669,338.2677 270.1919,338.8927 270.1919,338.8927 270.8169,340.1427 270.8169,340.1427 270.8169,342.0177 270.8169,342.0177 269.5669,343.2677 269.5669,343.2677 267.6919,343.8927 267.6919,343.8927 265.1919,343.8927 265.1919,343.8927 263.3169,343.2677 263.3169,343.2677 262.0669,342.0177"/>
    <line x1="304.8622" x2="304.8622" y1="330.7677" y2="343.8927"/>
    <polyline points="346.72,330.7677 338.595,330.7677 338.595,330.7677 338.595,343.8927 338.595,343.8927 346.72,343.8927"/>
    <line x1="338.595" x2="343.595" y1="337.0177" y2="337.0177"/>
    <polyline points="400.6152,322.5394 401.2402,322.2269 401.2402,322.2269 402.1777,321.2894 402.1777,321.2894 402.1777,327.8519"/>
    <polyline points="409.9902,322.2269 409.6777,321.6019 409.6777,321.6019 408.7402,321.2894 408.7402,321.2894 408.1152,321.2894 408.1152,321.2894 407.1777,321.6019 407.1777,321.6019 406.5527,322.5394 406.5527,322.5394 406.2402,324.1019 406.2402,324.1019 406.2402,325.6644 406.2402,325.6644 406.5527,326.9144 406.5527,326.9144 407.1777,327.5394 407.1777,327.5394 408.1152,327.8519 408.1152,327.8519 408.4277,327.8519 408.4277,327.8519 409.3652,327.5394 409.3652,327.5394 409.9902,326.9144 409.9902,326.9144 410.3027,325.9769 410.3027,325.9769 410.3027,325.6644 410.3027,325.6644 409.9902,324.7269 409.9902,324.7269 409.3652,324.1019 409.3652,324.1019 408.4277,323.7894 408.4277,323.7894 408.1152,323.7894 408.1152,323.7894 407.1777,324.1019 407.1777,324.1019 406.5527,324.7269 406.5527,324.7269 406.2402,325.6644"/>
    <polyline points="413.873,337.0177 419.498,337.0177 419.498,337.0177 421.373,336.3927 421.373,336.3927 421.998,335.7677 421.998,335.7677 422.623,334.5177 422.623,334.5177 422.623,333.2677 422.623,333.2677 421.998,332.0177 421.998,332.0177 421.373,331.3927 421.373,331.3927 419.498,330.7677 419.498,330.7677 413.873,330.7677 413.873,330.7677 413.873,343.8927"/>
    <line x1="418.248" x2="422.623" y1="337.0177" y2="343.8927"/>
    <polyline points="434.6457,357.1654 472.4409,357.1654 472.4409,357.1654 472.4409,319.3701 472.4409,319.3701 510.2362,319.3701 510.2362,319.3701 510.2362,357.1654 510.2362,357.1654 548.0315,357.1654 548.0315,357.1654 585.8268,357.1654 585.8268,357.1654 585.8268,319.3701 585.8268,319.3701 548.0315,319.3701 548.0315,319.3701 510.2362,319.3701"/>
    <polyline points="460.1058,330.7677 451.9808,330.7677 451.9808,330.7677 451.9808,343.8927 451.9808,343.8927 460.1058,343.8927"/>
    <line x1="451.9808" x2="456.9808" y1="337.0177" y2="337.0177"/>
    <line x1="472.4409" x2="510.2362" y1="357.1654" y2="357.1654"/>
    <polyline points="497.9011,333.8927 497.2761,332.6427 497.2761,332.6427 496.0261,331.3927 496.0261,331.3927 494.7761,330.7677 494.7761,330.7677 492.2761,330.7677 492.2761,330.7677 491.0261,331.3927 491.0261,331.3927 489.7761,332.6427 489.7761,332.6427 489.1511,333.8927 489.1511,333.8927 488.5261,335.7677 488.5261,335.7677 488.5261,338.8927 488.5261,338.8927 489.1511,340.7677 489.1511,340.7677 489.7761,342.0177 489.7761,342.0177 491.0261,343.2677 491.0261,343.2677 492.2761,343.8927 492.2761,343.8927 494.7761,343.8927 494.7761,343.8927 496.0261,343.2677 496.0261,343.2677 497.2761,342.0177 497.2761,342.0177 497.9011,340.7677 497.9011,340.7677 497.9011,338.8927 497.9011,338.8927 494.7761,338.8927"/>
    <line x1="548.0315" x2="548.0315" y1="357.1654" y2="319.3701"/>
    <polyline points="535.6964,330.7677 527.5714,330.7677 527.5714,330.7677 527.5714,343.8927 527.5714,343.8927 535.6964,343.8927"/>
    <line x1="527.5714" x2="532.5714" y1="337.0177" y2="337.0177"/>
    <polyline points="573.8041,330.7677 573.8041,343.8927 573.8041,343.8927 565.0541,330.7677 565.0541,330.7677 565.0541,343.8927"/>
    <polyline points="585.8268,357.1654 623.622,357.1654 623.622,357.1654 661.4173,357.1654 661.4173,357.1654 699.2126,357.1654 699.2126,357.1654 699.2126,319.3701 699.2126,319.3701 661.4173,319.3701 661.4173,319.3701 623.622,319.3701 623.622,319.3701 585.8268,319.3701"/>
    <line x1="623.622" x2="623.622" y1="357.1654" y2="319.3701"/>
    <polyline points="608.4744,337.0177 610.3494,336.3927 610.3494,336.3927 610.9744,335.7677 610.9744,335.7677 611.5994,334.5177 611.5994,334.5177 611.5994,333.2677 611.5994,333.2677 610.9744,332.0177 610.9744,332.0177 610.3494,331.3927 610.3494,331.3927 608.4744,330.7677 608.4744,330.7677 602.8494,330.7677 602.8494,330.7677 602.8494,343.8927 602.8494,343.8927 608.4744,343.8927 608.4744,343.8927 610.3494,343.2677 610.3494,343.2677 610.9744,342.6427 610.9744,342.6427 611.5994,341.3927 611.5994,341.3927 611.5994,339.5177 611.5994,339.5177 610.9744,338.2677 610.9744,338.2677 610.3494,337.6427 610.3494,337.6427 608.4744,337.0177 608.4744,337.0177 602.8494,337.0177"/>
    <line x1="661.4173" x2="661.4173" y1="357.1654" y2="319.3701"/>
    <polygon points="643.1447,330.7677 641.8947,331.3927 641.8947,331.3927 640.6447,332.6427 640.6447,332.6427 640.0197,333.8927 640.0197,333.8927 639.3947,335.7677 639.3947,335.7677 639.3947,338.8927 639.3947,338.8927 640.0197,340.7677 640.0197,340.7677 640.6447,342.0177 640.6447,342.0177 641.8947,343.2677 641.8947,343.2677 643.1447,343.8927 643.1447,343.8927 645.6447,343.8927 645.6447,343.8927 646.8947,343.2677 646.8947,343.2677 648.1447,342.0177 648.1447,342.0177 648.7697,340.7677 648.7697,340.7677 649.3947,338.8927 649.3947,338.8927 649.3947,335.7677 649.3947,335.7677 648.7697,333.8927 648.7697,333.8927 648.1447,332.6427 648.1447,332.6427 646.8947,331.3927 646.8947,331.3927 645.6447,330.7677 645.6447,330.7677"/>
    <polygon points="680.94,330.7677 679.69,331.3927 679.69,331.3927 678.44,332.6427 678.44,332.6427 677.815,333.8927 677.815,333.8927 677.19,335.7677 677.19,335.7677 677.19,338.8927 677.19,338.8927 677.815,340.7677 677.815,340.7677 678.44,342.0177 678.44,342.0177 679.69,343.2677 679.69,343.2677 680.94,343.8927 680.94,343.8927 683.44,343.8927 683.44,343.8927 684.69,343.2677 684.69,343.2677 685.94,342.0177 685.94,342.0177 686.565,340.7677 686.565,340.7677 687.19,338.8927 687.19,338.8927 687.19,335.7677 687.19,335.7677 686.565,333.8927 686.565,333.8927 685.94,332.6427 685.94,332.6427 684.69,331.3927 684.69,331.3927 683.44,330.7677 683.44,330.7677"/>
    <polyline points="699.2126,357.1654 737.0079,357.1654 737.0079,357.1654 737.0079,319.3701 737.0079,319.3701 699.2126,319.3701"/>
    <polyline points="724.6727,333.8927 724.0477,332.6427 724.0477,332.6427 722.7977,331.3927 722.7977,331.3927 721.5477,330.7677 721.5477,330.7677 719.0477,330.7677 719.0477,330.7677 717.7977,331.3927 717.7977,331.3927 716.5477,332.6427 716.5477,332.6427 715.9227,333.8927 715.9227,333.8927 715.2977,335.7677 715.2977,335.7677 715.2977,338.8927 715.2977,338.8927 715.9227,340.7677 715.9227,340.7677 716.5477,342.0177 716.5477,342.0177 717.7977,343.2677 717.7977,343.2677 719.0477,343.8927 719.0477,343.8927 721.5477,343.8927 721.5477,343.8927 722.7977,343.2677 722.7977,343.2677 724.0477,342.0177 724.0477,342.0177 724.6727,340.7677 724.6727,340.7677 724.6727,338.8927 724.6727,338.8927 721.5477,338.8927"/>
  </g>
</svg>
