<?xml version="1.0" encoding="utf-8" ?>
<svg xmlns="http://www.w3.org/2000/svg" xmlns:cc="http://creativecommons.org/ns" xmlns:dc="http://purl.org/dc/elements/1.1/" xmlns:ev="http://www.w3.org/2001/xml-events" xmlns:inkscape="http://www.inkscape.org/namespaces/inkscape" xmlns:rdf="http://www.w3.org/1999/02/22-rdf-syntax-ns" xmlns:sodipodi="http://sodipodi.sourceforge.net/DTD/sodipodi-0.dtd" xmlns:xlink="http://www.w3.org/1999/xlink" baseProfile="tiny" height="9.9cm" version="1.2" viewBox="0 0 793.7007874015749 374.1732283464567" width="21.0cm">
  <metadata>
    <rdf:RDF>
      <cc:Work>
        <dc:format>image/svg+xml</dc:format>
        <dc:source>vpype eval 'cell=10;width=210;height=99' eval 'nCols=20;nRows=9' eval 'cells=[3,10,11,12,13,14,15,16,17,18,23,26,30,35,37,41,42,43,44,45,46,47,48,49,50,51,55,66,70,75,78,82,83,84,85,86,87,88,89,90,91,92,93,95,98,101,103,105,110,115,117,118,119,120,121,122,123,125,127,128,129,130,131,132,133,134,135,136,138,141,143,145,150,155,158,161,163,165,171,172,173,174,175,176,177,178]' eval 'chars=[&quot;B&quot;,&quot;K&quot;,&quot;L&quot;,&quot;A&quot;,&quot;V&quot;,&quot;E&quot;,&quot;R&quot;,&quot;T&quot;,&quot;J&quot;,&quot;E&quot;,&quot;A&quot;,&quot;G&quot;,&quot;I&quot;,&quot;E&quot;,&quot;A&quot;,&quot;M&quot;,&quot;I&quot;,&quot;S&quot;,&quot;V&quot;,&quot;E&quot;,&quot;R&quot;,&quot;S&quot;,&quot;T&quot;,&quot;A&quot;,&quot;N&quot;,&quot;D&quot;,&quot;K&quot;,&quot;A&quot;,&quot;D&quot;,&quot;K&quot;,&quot;K&quot;,&quot;F&quot;,&quot;L&quot;,&quot;E&quot;,&quot;S&quot;,&quot;S&quot;,&quot;E&quot;,&quot;N&quot;,&quot;G&quot;,&quot;E&quot;,&quot;L&quot;,&quot;U&quot;,&quot;K&quot;,&quot;E&quot;,&quot;I&quot;,&quot;F&quot;,&quot;O&quot;,&quot;I&quot;,&quot;R&quot;,&quot;R&quot;,&quot;L&quot;,&quot;E&quot;,&quot;O&quot;,&quot;L&quot;,&quot;I&quot;,&quot;F&quot;,&quot;T&quot;,&quot;M&quot;,&quot;G&quot;,&quot;R&quot;,&quot;O&quot;,&quot;E&quot;,&quot;P&quot;,&quot;S&quot;,&quot;F&quot;,&quot;O&quot;,&quot;T&quot;,&quot;O&quot;,&quot;M&quot;,&quot;L&quot;,&quot;T&quot;,&quot;O&quot;,&quot;N&quot;,&quot;J&quot;,&quot;E&quot;,&quot;E&quot;,&quot;E&quot;,&quot;N&quot;,&quot;P&quot;,&quot;A&quot;,&quot;R&quot;,&quot;K&quot;,&quot;E&quot;,&quot;R&quot;,&quot;E&quot;,&quot;N&quot;]' eval 'numbers=[3,10,15,17,26,41,78,82,83,85,101,117,120,127,171]' eval counter=1 eval charIndex=0 begin grid -o '%cell*mm%' '%cell*mm%' %nCols% %nRows% eval '%isCell=_i in cells%' eval '%number=_i in numbers%' eval '%size=10 if isCell else 0%' rect 0 0 '%size*mm%' '%size*mm%' text -s 8 -p 0.5mm 1.5mm '%counter if number else '&quot;'&quot;''&quot;'&quot;'%' text -s 20 -p 5mm 5mm -a center '%chars[charIndex] if isCell else '&quot;'&quot;''&quot;'&quot;'%' eval '%if number: counter+=1 %' eval '%if isCell: charIndex+=1 %' end splitall deduplicate linemerge --tolerance 0.1mm write -m none --page-size '%width*mm%x%height*mm%' --center ./svgs/solution/76a8b4.svg
</dc:source>
        <dc:date>2023-12-22T21:25:13.044932</dc:date>
      </cc:Work>
    </rdf:RDF>
  </metadata>
  <defs/>
  <g fill="none" id="layer1" inkscape:groupmode="layer" inkscape:label="1" stroke="#000000" style="display:inline">
    <polyline points="132.2835,54.8031 170.0787,54.8031 170.0787,54.8031 170.0787,17.0079 170.0787,17.0079 132.2835,17.0079 132.2835,17.0079 132.2835,54.8031 132.2835,54.8031 132.2835,92.5984 132.2835,92.5984 94.4882,92.5984 94.4882,92.5984 56.6929,92.5984 56.6929,92.5984 56.6929,130.3937 56.6929,130.3937 94.4882,130.3937 94.4882,130.3937 94.4882,92.5984"/>
    <polyline points="135.6732,20.6772 136.1732,20.4272 136.1732,20.4272 136.9232,19.6772 136.9232,19.6772 136.9232,24.9272"/>
    <polygon points="149.3061,28.4055 149.3061,41.5305 149.3061,41.5305 154.9311,41.5305 154.9311,41.5305 156.8061,40.9055 156.8061,40.9055 157.4311,40.2805 157.4311,40.2805 158.0561,39.0305 158.0561,39.0305 158.0561,37.1555 158.0561,37.1555 157.4311,35.9055 157.4311,35.9055 156.8061,35.2805 156.8061,35.2805 154.9311,34.6555 154.9311,34.6555 156.8061,34.0305 156.8061,34.0305 157.4311,33.4055 157.4311,33.4055 158.0561,32.1555 158.0561,32.1555 158.0561,30.9055 158.0561,30.9055 157.4311,29.6555 157.4311,29.6555 156.8061,29.0305 156.8061,29.0305 154.9311,28.4055 154.9311,28.4055"/>
    <line x1="149.3061" x2="154.9311" y1="34.6555" y2="34.6555"/>
    <polygon points="396.8504,17.0079 396.8504,54.8031 396.8504,54.8031 434.6457,54.8031 434.6457,54.8031 434.6457,17.0079 434.6457,17.0079"/>
    <polyline points="399.7402,20.9272 399.7402,20.6772 399.7402,20.6772 399.9902,20.1772 399.9902,20.1772 400.2402,19.9272 400.2402,19.9272 400.7402,19.6772 400.7402,19.6772 401.7402,19.6772 401.7402,19.6772 402.2402,19.9272 402.2402,19.9272 402.4902,20.1772 402.4902,20.1772 402.7402,20.6772 402.7402,20.6772 402.7402,21.1772 402.7402,21.1772 402.4902,21.6772 402.4902,21.6772 401.9902,22.4272 401.9902,22.4272 399.4902,24.9272 399.4902,24.9272 402.9902,24.9272"/>
    <line x1="413.873" x2="413.873" y1="28.4055" y2="41.5305"/>
    <line x1="422.623" x2="413.873" y1="28.4055" y2="37.1555"/>
    <line x1="416.998" x2="422.623" y1="34.0305" y2="41.5305"/>
    <polyline points="359.0551,168.189 359.0551,205.9843 359.0551,205.9843 396.8504,205.9843 396.8504,205.9843 396.8504,168.189 396.8504,168.189 396.8504,130.3937 396.8504,130.3937 434.6457,130.3937 434.6457,130.3937 472.4409,130.3937 472.4409,130.3937 472.4409,92.5984 472.4409,92.5984 434.6457,92.5984 434.6457,92.5984 396.8504,92.5984 396.8504,92.5984 359.0551,92.5984 359.0551,92.5984 321.2598,92.5984 321.2598,92.5984 283.4646,92.5984 283.4646,92.5984 245.6693,92.5984 245.6693,92.5984 245.6693,54.8031 245.6693,54.8031 283.4646,54.8031 283.4646,54.8031 283.4646,92.5984 283.4646,92.5984 283.4646,130.3937 283.4646,130.3937 283.4646,168.189 283.4646,168.189 321.2598,168.189 321.2598,168.189 359.0551,168.189 359.0551,168.189 396.8504,168.189 396.8504,168.189 434.6457,168.189 434.6457,168.189 472.4409,168.189 472.4409,168.189 472.4409,205.9843 472.4409,205.9843 434.6457,205.9843 434.6457,205.9843 396.8504,205.9843 396.8504,205.9843 396.8504,243.7795 396.8504,243.7795 434.6457,243.7795 434.6457,243.7795 434.6457,205.9843 434.6457,205.9843 434.6457,168.189 434.6457,168.189 434.6457,130.3937 434.6457,130.3937 434.6457,92.5984 434.6457,92.5984 434.6457,54.8031 434.6457,54.8031 472.4409,54.8031 472.4409,54.8031 472.4409,17.0079 472.4409,17.0079 434.6457,17.0079"/>
    <polyline points="452.2933,28.4055 452.2933,41.5305 452.2933,41.5305 459.7933,41.5305"/>
    <polyline points="472.4409,54.8031 510.2362,54.8031 510.2362,54.8031 548.0315,54.8031 548.0315,54.8031 548.0315,17.0079 548.0315,17.0079 510.2362,17.0079 510.2362,17.0079 472.4409,17.0079"/>
    <line x1="510.2362" x2="510.2362" y1="54.8031" y2="17.0079"/>
    <polyline points="496.9636,41.5305 491.9636,28.4055 491.9636,28.4055 486.9636,41.5305"/>
    <line x1="488.8386" x2="495.0886" y1="37.1555" y2="37.1555"/>
    <polyline points="524.7589,28.4055 529.7589,41.5305 529.7589,41.5305 534.7589,28.4055"/>
    <polyline points="548.0315,54.8031 585.8268,54.8031 585.8268,54.8031 585.8268,17.0079 585.8268,17.0079 548.0315,17.0079"/>
    <polyline points="573.4916,28.4055 565.3666,28.4055 565.3666,28.4055 565.3666,41.5305 565.3666,41.5305 573.4916,41.5305"/>
    <line x1="565.3666" x2="570.3666" y1="34.6555" y2="34.6555"/>
    <polyline points="623.622,17.0079 623.622,54.8031 623.622,54.8031 623.622,92.5984 623.622,92.5984 623.622,130.3937 623.622,130.3937 623.622,168.189 623.622,168.189 623.622,205.9843 623.622,205.9843 585.8268,205.9843 585.8268,205.9843 585.8268,168.189 585.8268,168.189 585.8268,130.3937 585.8268,130.3937 585.8268,92.5984 585.8268,92.5984 585.8268,54.8031 585.8268,54.8031 623.622,54.8031 623.622,54.8031 661.4173,54.8031 661.4173,54.8031 661.4173,17.0079 661.4173,17.0079 623.622,17.0079 623.622,17.0079 585.8268,17.0079"/>
    <polyline points="588.9665,19.6772 591.7165,19.6772 591.7165,19.6772 590.2165,21.6772 590.2165,21.6772 590.9665,21.6772 590.9665,21.6772 591.4665,21.9272 591.4665,21.9272 591.7165,22.1772 591.7165,22.1772 591.9665,22.9272 591.9665,22.9272 591.9665,23.4272 591.9665,23.4272 591.7165,24.1772 591.7165,24.1772 591.2165,24.6772 591.2165,24.6772 590.4665,24.9272 590.4665,24.9272 589.7165,24.9272 589.7165,24.9272 588.9665,24.6772 588.9665,24.6772 588.7165,24.4272 588.7165,24.4272 588.4665,23.9272"/>
    <polyline points="602.8494,34.6555 608.4744,34.6555 608.4744,34.6555 610.3494,34.0305 610.3494,34.0305 610.9744,33.4055 610.9744,33.4055 611.5994,32.1555 611.5994,32.1555 611.5994,30.9055 611.5994,30.9055 610.9744,29.6555 610.9744,29.6555 610.3494,29.0305 610.3494,29.0305 608.4744,28.4055 608.4744,28.4055 602.8494,28.4055 602.8494,28.4055 602.8494,41.5305"/>
    <line x1="607.2244" x2="611.5994" y1="34.6555" y2="41.5305"/>
    <line x1="643.1447" x2="643.1447" y1="28.4055" y2="41.5305"/>
    <line x1="638.7697" x2="647.5197" y1="28.4055" y2="28.4055"/>
    <polyline points="699.2126,17.0079 737.0079,17.0079 737.0079,17.0079 737.0079,54.8031 737.0079,54.8031 699.2126,54.8031 699.2126,54.8031 699.2126,92.5984 699.2126,92.5984 661.4173,92.5984 661.4173,92.5984 661.4173,54.8031 661.4173,54.8031 699.2126,54.8031 699.2126,54.8031 699.2126,17.0079 699.2126,17.0079 661.4173,17.0079"/>
    <polyline points="666.5571,24.9272 666.5571,19.6772 666.5571,19.6772 664.0571,23.1772 664.0571,23.1772 667.8071,23.1772"/>
    <polyline points="684.69,28.4055 684.69,38.4055 684.69,38.4055 684.065,40.2805 684.065,40.2805 683.44,40.9055 683.44,40.9055 682.19,41.5305 682.19,41.5305 680.94,41.5305 680.94,41.5305 679.69,40.9055 679.69,40.9055 679.065,40.2805 679.065,40.2805 678.44,38.4055 678.44,38.4055 678.44,37.1555"/>
    <polyline points="724.6727,28.4055 716.5477,28.4055 716.5477,28.4055 716.5477,41.5305 716.5477,41.5305 724.6727,41.5305"/>
    <line x1="716.5477" x2="721.5477" y1="34.6555" y2="34.6555"/>
    <polyline points="207.874,92.5984 207.874,130.3937 207.874,130.3937 245.6693,130.3937 245.6693,130.3937 245.6693,92.5984 245.6693,92.5984 207.874,92.5984 207.874,92.5984 170.0787,92.5984 170.0787,92.5984 170.0787,130.3937 170.0787,130.3937 132.2835,130.3937 132.2835,130.3937 132.2835,92.5984 132.2835,92.5984 170.0787,92.5984 170.0787,92.5984 170.0787,54.8031"/>
    <polyline points="156.8061,79.3258 151.8061,66.2008 151.8061,66.2008 146.8061,79.3258"/>
    <line x1="148.6811" x2="154.9311" y1="74.9508" y2="74.9508"/>
    <polyline points="251.3091,57.4724 248.8091,57.4724 248.8091,57.4724 248.5591,59.7224 248.5591,59.7224 248.8091,59.4724 248.8091,59.4724 249.5591,59.2224 249.5591,59.2224 250.3091,59.2224 250.3091,59.2224 251.0591,59.4724 251.0591,59.4724 251.5591,59.9724 251.5591,59.9724 251.8091,60.7224 251.8091,60.7224 251.8091,61.2224 251.8091,61.2224 251.5591,61.9724 251.5591,61.9724 251.0591,62.4724 251.0591,62.4724 250.3091,62.7224 250.3091,62.7224 249.5591,62.7224 249.5591,62.7224 248.8091,62.4724 248.8091,62.4724 248.5591,62.2224 248.5591,62.2224 248.3091,61.7224"/>
    <polyline points="271.1294,69.3258 270.5044,68.0758 270.5044,68.0758 269.2544,66.8258 269.2544,66.8258 268.0044,66.2008 268.0044,66.2008 265.5044,66.2008 265.5044,66.2008 264.2544,66.8258 264.2544,66.8258 263.0044,68.0758 263.0044,68.0758 262.3794,69.3258 262.3794,69.3258 261.7544,71.2008 261.7544,71.2008 261.7544,74.3258 261.7544,74.3258 262.3794,76.2008 262.3794,76.2008 263.0044,77.4508 263.0044,77.4508 264.2544,78.7008 264.2544,78.7008 265.5044,79.3258 265.5044,79.3258 268.0044,79.3258 268.0044,79.3258 269.2544,78.7008 269.2544,78.7008 270.5044,77.4508 270.5044,77.4508 271.1294,76.2008 271.1294,76.2008 271.1294,74.3258 271.1294,74.3258 268.0044,74.3258"/>
    <polyline points="396.8504,54.8031 396.8504,92.5984 396.8504,92.5984 396.8504,130.3937 396.8504,130.3937 359.0551,130.3937 359.0551,130.3937 359.0551,92.5984"/>
    <line x1="418.248" x2="418.248" y1="66.2008" y2="79.3258"/>
    <line x1="585.8268" x2="623.622" y1="92.5984" y2="92.5984"/>
    <polyline points="611.2869,66.2008 603.1619,66.2008 603.1619,66.2008 603.1619,79.3258 603.1619,79.3258 611.2869,79.3258"/>
    <line x1="603.1619" x2="608.1619" y1="72.4508" y2="72.4508"/>
    <polyline points="685.94,79.3258 680.94,66.2008 680.94,66.2008 675.94,79.3258"/>
    <line x1="677.815" x2="684.065" y1="74.9508" y2="74.9508"/>
    <polyline points="62.5827,96.0177 62.3327,95.5177 62.3327,95.5177 61.5827,95.2677 61.5827,95.2677 61.0827,95.2677 61.0827,95.2677 60.3327,95.5177 60.3327,95.5177 59.8327,96.2677 59.8327,96.2677 59.5827,97.5177 59.5827,97.5177 59.5827,98.7677 59.5827,98.7677 59.8327,99.7677 59.8327,99.7677 60.3327,100.2677 60.3327,100.2677 61.0827,100.5177 61.0827,100.5177 61.3327,100.5177 61.3327,100.5177 62.0827,100.2677 62.0827,100.2677 62.5827,99.7677 62.5827,99.7677 62.8327,99.0177 62.8327,99.0177 62.8327,98.7677 62.8327,98.7677 62.5827,98.0177 62.5827,98.0177 62.0827,97.5177 62.0827,97.5177 61.3327,97.2677 61.3327,97.2677 61.0827,97.2677 61.0827,97.2677 60.3327,97.5177 60.3327,97.5177 59.8327,98.0177 59.8327,98.0177 59.5827,98.7677"/>
    <polyline points="83.0906,117.1211 83.0906,103.9961 83.0906,103.9961 78.0906,117.1211 78.0906,117.1211 73.0906,103.9961 73.0906,103.9961 73.0906,117.1211"/>
    <line x1="94.4882" x2="132.2835" y1="130.3937" y2="130.3937"/>
    <line x1="115.8858" x2="115.8858" y1="103.9961" y2="117.1211"/>
    <polyline points="157.4311,105.8711 156.1811,104.6211 156.1811,104.6211 154.3061,103.9961 154.3061,103.9961 151.8061,103.9961 151.8061,103.9961 149.9311,104.6211 149.9311,104.6211 148.6811,105.8711 148.6811,105.8711 148.6811,107.1211 148.6811,107.1211 149.3061,108.3711 149.3061,108.3711 149.9311,108.9961 149.9311,108.9961 151.1811,109.6211 151.1811,109.6211 154.9311,110.8711 154.9311,110.8711 156.1811,111.4961 156.1811,111.4961 156.8061,112.1211 156.8061,112.1211 157.4311,113.3711 157.4311,113.3711 157.4311,115.2461 157.4311,115.2461 156.1811,116.4961 156.1811,116.4961 154.3061,117.1211 154.3061,117.1211 151.8061,117.1211 151.8061,117.1211 149.9311,116.4961 149.9311,116.4961 148.6811,115.2461"/>
    <line x1="170.0787" x2="207.874" y1="130.3937" y2="130.3937"/>
    <polyline points="184.6014,103.9961 189.6014,117.1211 189.6014,117.1211 194.6014,103.9961"/>
    <polyline points="233.3342,103.9961 225.2092,103.9961 225.2092,103.9961 225.2092,117.1211 225.2092,117.1211 233.3342,117.1211"/>
    <line x1="225.2092" x2="230.2092" y1="110.2461" y2="110.2461"/>
    <polyline points="359.0551,205.9843 321.2598,205.9843 321.2598,205.9843 283.4646,205.9843 283.4646,205.9843 283.4646,168.189 283.4646,168.189 245.6693,168.189 245.6693,168.189 245.6693,130.3937 245.6693,130.3937 283.4646,130.3937 283.4646,130.3937 321.2598,130.3937 321.2598,130.3937 359.0551,130.3937"/>
    <polyline points="262.6919,110.2461 268.3169,110.2461 268.3169,110.2461 270.1919,109.6211 270.1919,109.6211 270.8169,108.9961 270.8169,108.9961 271.4419,107.7461 271.4419,107.7461 271.4419,106.4961 271.4419,106.4961 270.8169,105.2461 270.8169,105.2461 270.1919,104.6211 270.1919,104.6211 268.3169,103.9961 268.3169,103.9961 262.6919,103.9961 262.6919,103.9961 262.6919,117.1211"/>
    <line x1="267.0669" x2="271.4419" y1="110.2461" y2="117.1211"/>
    <line x1="321.2598" x2="321.2598" y1="130.3937" y2="92.5984"/>
    <polyline points="308.6122,105.8711 307.3622,104.6211 307.3622,104.6211 305.4872,103.9961 305.4872,103.9961 302.9872,103.9961 302.9872,103.9961 301.1122,104.6211 301.1122,104.6211 299.8622,105.8711 299.8622,105.8711 299.8622,107.1211 299.8622,107.1211 300.4872,108.3711 300.4872,108.3711 301.1122,108.9961 301.1122,108.9961 302.3622,109.6211 302.3622,109.6211 306.1122,110.8711 306.1122,110.8711 307.3622,111.4961 307.3622,111.4961 307.9872,112.1211 307.9872,112.1211 308.6122,113.3711 308.6122,113.3711 308.6122,115.2461 308.6122,115.2461 307.3622,116.4961 307.3622,116.4961 305.4872,117.1211 305.4872,117.1211 302.9872,117.1211 302.9872,117.1211 301.1122,116.4961 301.1122,116.4961 299.8622,115.2461"/>
    <line x1="340.7825" x2="340.7825" y1="103.9961" y2="117.1211"/>
    <line x1="336.4075" x2="345.1575" y1="103.9961" y2="103.9961"/>
    <polyline points="383.5778,117.1211 378.5778,103.9961 378.5778,103.9961 373.5778,117.1211"/>
    <line x1="375.4528" x2="381.7028" y1="112.7461" y2="112.7461"/>
    <polyline points="422.623,103.9961 422.623,117.1211 422.623,117.1211 413.873,103.9961 413.873,103.9961 413.873,117.1211"/>
    <polygon points="451.6683,103.9961 451.6683,117.1211 451.6683,117.1211 456.0433,117.1211 456.0433,117.1211 457.9183,116.4961 457.9183,116.4961 459.1683,115.2461 459.1683,115.2461 459.7933,113.9961 459.7933,113.9961 460.4183,112.1211 460.4183,112.1211 460.4183,108.9961 460.4183,108.9961 459.7933,107.1211 459.7933,107.1211 459.1683,105.8711 459.1683,105.8711 457.9183,104.6211 457.9183,104.6211 456.0433,103.9961 456.0433,103.9961"/>
    <line x1="585.8268" x2="623.622" y1="130.3937" y2="130.3937"/>
    <line x1="602.8494" x2="602.8494" y1="103.9961" y2="117.1211"/>
    <line x1="611.5994" x2="602.8494" y1="103.9961" y2="112.7461"/>
    <line x1="605.9744" x2="611.5994" y1="109.6211" y2="117.1211"/>
    <polyline points="270.1919,154.9163 265.1919,141.7913 265.1919,141.7913 260.1919,154.9163"/>
    <line x1="262.0669" x2="268.3169" y1="150.5413" y2="150.5413"/>
    <polygon points="413.873,141.7913 413.873,154.9163 413.873,154.9163 418.248,154.9163 418.248,154.9163 420.123,154.2913 420.123,154.2913 421.373,153.0413 421.373,153.0413 421.998,151.7913 421.998,151.7913 422.623,149.9163 422.623,149.9163 422.623,146.7913 422.623,146.7913 421.998,144.9163 421.998,144.9163 421.373,143.6663 421.373,143.6663 420.123,142.4163 420.123,142.4163 418.248,141.7913 418.248,141.7913"/>
    <line x1="585.8268" x2="623.622" y1="168.189" y2="168.189"/>
    <line x1="602.8494" x2="602.8494" y1="141.7913" y2="154.9163"/>
    <line x1="611.5994" x2="602.8494" y1="141.7913" y2="150.5413"/>
    <line x1="605.9744" x2="611.5994" y1="147.4163" y2="154.9163"/>
    <polygon points="699.2126,130.3937 699.2126,168.189 699.2126,168.189 699.2126,205.9843 699.2126,205.9843 737.0079,205.9843 737.0079,205.9843 737.0079,168.189 737.0079,168.189 737.0079,130.3937 737.0079,130.3937"/>
    <line x1="699.2126" x2="737.0079" y1="168.189" y2="168.189"/>
    <polyline points="701.8524,133.063 705.3524,133.063 705.3524,133.063 702.8524,138.313"/>
    <line x1="716.2352" x2="716.2352" y1="141.7913" y2="154.9163"/>
    <line x1="724.9852" x2="716.2352" y1="141.7913" y2="150.5413"/>
    <line x1="719.3602" x2="724.9852" y1="147.4163" y2="154.9163"/>
    <polygon points="94.4882,168.189 94.4882,205.9843 94.4882,205.9843 56.6929,205.9843 56.6929,205.9843 56.6929,243.7795 56.6929,243.7795 94.4882,243.7795 94.4882,243.7795 94.4882,205.9843 94.4882,205.9843 132.2835,205.9843 132.2835,205.9843 132.2835,168.189 132.2835,168.189"/>
    <polygon points="98.378,170.8583 97.628,171.1083 97.628,171.1083 97.378,171.6083 97.378,171.6083 97.378,172.1083 97.378,172.1083 97.628,172.6083 97.628,172.6083 98.128,172.8583 98.128,172.8583 99.128,173.1083 99.128,173.1083 99.878,173.3583 99.878,173.3583 100.378,173.8583 100.378,173.8583 100.628,174.3583 100.628,174.3583 100.628,175.1083 100.628,175.1083 100.378,175.6083 100.378,175.6083 100.128,175.8583 100.128,175.8583 99.378,176.1083 99.378,176.1083 98.378,176.1083 98.378,176.1083 97.628,175.8583 97.628,175.8583 97.378,175.6083 97.378,175.6083 97.128,175.1083 97.128,175.1083 97.128,174.3583 97.128,174.3583 97.378,173.8583 97.378,173.8583 97.878,173.3583 97.878,173.3583 98.628,173.1083 98.628,173.1083 99.628,172.8583 99.628,172.8583 100.128,172.6083 100.128,172.6083 100.378,172.1083 100.378,172.1083 100.378,171.6083 100.378,171.6083 100.128,171.1083 100.128,171.1083 99.378,170.8583 99.378,170.8583"/>
    <polyline points="119.9483,179.5866 111.8233,179.5866 111.8233,179.5866 111.8233,192.7116"/>
    <line x1="111.8233" x2="116.8233" y1="185.8366" y2="185.8366"/>
    <polyline points="170.0787,168.189 207.874,168.189 207.874,168.189 245.6693,168.189 245.6693,168.189 245.6693,205.9843 245.6693,205.9843 245.6693,243.7795 245.6693,243.7795 207.874,243.7795 207.874,243.7795 207.874,205.9843 207.874,205.9843 170.0787,205.9843 170.0787,205.9843 170.0787,243.7795 170.0787,243.7795 132.2835,243.7795 132.2835,243.7795 132.2835,205.9843 132.2835,205.9843 170.0787,205.9843 170.0787,205.9843 170.0787,168.189 170.0787,168.189 132.2835,168.189"/>
    <polyline points="138.1732,172.6083 137.9232,173.3583 137.9232,173.3583 137.4232,173.8583 137.4232,173.8583 136.6732,174.1083 136.6732,174.1083 136.4232,174.1083 136.4232,174.1083 135.6732,173.8583 135.6732,173.8583 135.1732,173.3583 135.1732,173.3583 134.9232,172.6083 134.9232,172.6083 134.9232,172.3583 134.9232,172.3583 135.1732,171.6083 135.1732,171.6083 135.6732,171.1083 135.6732,171.1083 136.4232,170.8583 136.4232,170.8583 136.6732,170.8583 136.6732,170.8583 137.4232,171.1083 137.4232,171.1083 137.9232,171.6083 137.9232,171.6083 138.1732,172.6083 138.1732,172.6083 138.1732,173.8583 138.1732,173.8583 137.9232,175.1083 137.9232,175.1083 137.4232,175.8583 137.4232,175.8583 136.6732,176.1083 136.6732,176.1083 136.1732,176.1083 136.1732,176.1083 135.4232,175.8583 135.4232,175.8583 135.1732,175.3583"/>
    <polyline points="149.9311,179.5866 149.9311,192.7116 149.9311,192.7116 157.4311,192.7116"/>
    <polyline points="283.4646,205.9843 245.6693,205.9843 245.6693,205.9843 207.874,205.9843 207.874,205.9843 207.874,168.189"/>
    <polyline points="195.5389,179.5866 187.4139,179.5866 187.4139,179.5866 187.4139,192.7116 187.4139,192.7116 195.5389,192.7116"/>
    <line x1="187.4139" x2="192.4139" y1="185.8366" y2="185.8366"/>
    <polyline points="211.2638,171.8583 211.7638,171.6083 211.7638,171.6083 212.5138,170.8583 212.5138,170.8583 212.5138,176.1083"/>
    <polygon points="217.0138,170.8583 216.2638,171.1083 216.2638,171.1083 215.7638,171.8583 215.7638,171.8583 215.5138,173.1083 215.5138,173.1083 215.5138,173.8583 215.5138,173.8583 215.7638,175.1083 215.7638,175.1083 216.2638,175.8583 216.2638,175.8583 217.0138,176.1083 217.0138,176.1083 217.5138,176.1083 217.5138,176.1083 218.2638,175.8583 218.2638,175.8583 218.7638,175.1083 218.7638,175.1083 219.0138,173.8583 219.0138,173.8583 219.0138,173.1083 219.0138,173.1083 218.7638,171.8583 218.7638,171.8583 218.2638,171.1083 218.2638,171.1083 217.5138,170.8583 217.5138,170.8583"/>
    <polyline points="233.0217,181.4616 231.7717,180.2116 231.7717,180.2116 229.8967,179.5866 229.8967,179.5866 227.3967,179.5866 227.3967,179.5866 225.5217,180.2116 225.5217,180.2116 224.2717,181.4616 224.2717,181.4616 224.2717,182.7116 224.2717,182.7116 224.8967,183.9616 224.8967,183.9616 225.5217,184.5866 225.5217,184.5866 226.7717,185.2116 226.7717,185.2116 230.5217,186.4616 230.5217,186.4616 231.7717,187.0866 231.7717,187.0866 232.3967,187.7116 232.3967,187.7116 233.0217,188.9616 233.0217,188.9616 233.0217,190.8366 233.0217,190.8366 231.7717,192.0866 231.7717,192.0866 229.8967,192.7116 229.8967,192.7116 227.3967,192.7116 227.3967,192.7116 225.5217,192.0866 225.5217,192.0866 224.2717,190.8366"/>
    <polyline points="270.8169,181.4616 269.5669,180.2116 269.5669,180.2116 267.6919,179.5866 267.6919,179.5866 265.1919,179.5866 265.1919,179.5866 263.3169,180.2116 263.3169,180.2116 262.0669,181.4616 262.0669,181.4616 262.0669,182.7116 262.0669,182.7116 262.6919,183.9616 262.6919,183.9616 263.3169,184.5866 263.3169,184.5866 264.5669,185.2116 264.5669,185.2116 268.3169,186.4616 268.3169,186.4616 269.5669,187.0866 269.5669,187.0866 270.1919,187.7116 270.1919,187.7116 270.8169,188.9616 270.8169,188.9616 270.8169,190.8366 270.8169,190.8366 269.5669,192.0866 269.5669,192.0866 267.6919,192.7116 267.6919,192.7116 265.1919,192.7116 265.1919,192.7116 263.3169,192.0866 263.3169,192.0866 262.0669,190.8366"/>
    <line x1="321.2598" x2="321.2598" y1="205.9843" y2="168.189"/>
    <polyline points="308.9247,179.5866 300.7997,179.5866 300.7997,179.5866 300.7997,192.7116 300.7997,192.7116 308.9247,192.7116"/>
    <line x1="300.7997" x2="305.7997" y1="185.8366" y2="185.8366"/>
    <polyline points="347.0325,179.5866 347.0325,192.7116 347.0325,192.7116 338.2825,179.5866 338.2825,179.5866 338.2825,192.7116"/>
    <polyline points="384.5153,182.7116 383.8903,181.4616 383.8903,181.4616 382.6403,180.2116 382.6403,180.2116 381.3903,179.5866 381.3903,179.5866 378.8903,179.5866 378.8903,179.5866 377.6403,180.2116 377.6403,180.2116 376.3903,181.4616 376.3903,181.4616 375.7653,182.7116 375.7653,182.7116 375.1403,184.5866 375.1403,184.5866 375.1403,187.7116 375.1403,187.7116 375.7653,189.5866 375.7653,189.5866 376.3903,190.8366 376.3903,190.8366 377.6403,192.0866 377.6403,192.0866 378.8903,192.7116 378.8903,192.7116 381.3903,192.7116 381.3903,192.7116 382.6403,192.0866 382.6403,192.0866 383.8903,190.8366 383.8903,190.8366 384.5153,189.5866 384.5153,189.5866 384.5153,187.7116 384.5153,187.7116 381.3903,187.7116"/>
    <polyline points="422.3105,179.5866 414.1855,179.5866 414.1855,179.5866 414.1855,192.7116 414.1855,192.7116 422.3105,192.7116"/>
    <line x1="414.1855" x2="419.1855" y1="185.8366" y2="185.8366"/>
    <polyline points="452.2933,179.5866 452.2933,192.7116 452.2933,192.7116 459.7933,192.7116"/>
    <polyline points="472.4409,205.9843 510.2362,205.9843 510.2362,205.9843 548.0315,205.9843 548.0315,205.9843 548.0315,168.189 548.0315,168.189 510.2362,168.189 510.2362,168.189 472.4409,168.189"/>
    <line x1="510.2362" x2="510.2362" y1="205.9843" y2="168.189"/>
    <polyline points="489.4636,179.5866 489.4636,188.9616 489.4636,188.9616 490.0886,190.8366 490.0886,190.8366 491.3386,192.0866 491.3386,192.0866 493.2136,192.7116 493.2136,192.7116 494.4636,192.7116 494.4636,192.7116 496.3386,192.0866 496.3386,192.0866 497.5886,190.8366 497.5886,190.8366 498.2136,188.9616 498.2136,188.9616 498.2136,179.5866"/>
    <line x1="527.2589" x2="527.2589" y1="179.5866" y2="192.7116"/>
    <line x1="536.0089" x2="527.2589" y1="179.5866" y2="188.3366"/>
    <line x1="530.3839" x2="536.0089" y1="185.2116" y2="192.7116"/>
    <polyline points="611.2869,179.5866 603.1619,179.5866 603.1619,179.5866 603.1619,192.7116 603.1619,192.7116 611.2869,192.7116"/>
    <line x1="603.1619" x2="608.1619" y1="185.8366" y2="185.8366"/>
    <line x1="720.6102" x2="720.6102" y1="179.5866" y2="192.7116"/>
    <polyline points="60.0827,209.6535 60.5827,209.4035 60.5827,209.4035 61.3327,208.6535 61.3327,208.6535 61.3327,213.9035"/>
    <polyline points="65.0827,209.6535 65.5827,209.4035 65.5827,209.4035 66.3327,208.6535 66.3327,208.6535 66.3327,213.9035"/>
    <polyline points="82.1531,217.3819 74.0281,217.3819 74.0281,217.3819 74.0281,230.5069"/>
    <line x1="74.0281" x2="79.0281" y1="223.6319" y2="223.6319"/>
    <polygon points="151.8061,217.3819 150.5561,218.0069 150.5561,218.0069 149.3061,219.2569 149.3061,219.2569 148.6811,220.5069 148.6811,220.5069 148.0561,222.3819 148.0561,222.3819 148.0561,225.5069 148.0561,225.5069 148.6811,227.3819 148.6811,227.3819 149.3061,228.6319 149.3061,228.6319 150.5561,229.8819 150.5561,229.8819 151.8061,230.5069 151.8061,230.5069 154.3061,230.5069 154.3061,230.5069 155.5561,229.8819 155.5561,229.8819 156.8061,228.6319 156.8061,228.6319 157.4311,227.3819 157.4311,227.3819 158.0561,225.5069 158.0561,225.5069 158.0561,222.3819 158.0561,222.3819 157.4311,220.5069 157.4311,220.5069 156.8061,219.2569 156.8061,219.2569 155.5561,218.0069 155.5561,218.0069 154.3061,217.3819 154.3061,217.3819"/>
    <line x1="229.2717" x2="229.2717" y1="217.3819" y2="230.5069"/>
    <polyline points="413.873,223.6319 419.498,223.6319 419.498,223.6319 421.373,223.0069 421.373,223.0069 421.998,222.3819 421.998,222.3819 422.623,221.1319 422.623,221.1319 422.623,219.8819 422.623,219.8819 421.998,218.6319 421.998,218.6319 421.373,218.0069 421.373,218.0069 419.498,217.3819 419.498,217.3819 413.873,217.3819 413.873,217.3819 413.873,230.5069"/>
    <line x1="418.248" x2="422.623" y1="223.6319" y2="230.5069"/>
    <polyline points="585.8268,205.9843 585.8268,243.7795 585.8268,243.7795 623.622,243.7795 623.622,243.7795 623.622,205.9843"/>
    <polyline points="602.8494,223.6319 608.4744,223.6319 608.4744,223.6319 610.3494,223.0069 610.3494,223.0069 610.9744,222.3819 610.9744,222.3819 611.5994,221.1319 611.5994,221.1319 611.5994,219.8819 611.5994,219.8819 610.9744,218.6319 610.9744,218.6319 610.3494,218.0069 610.3494,218.0069 608.4744,217.3819 608.4744,217.3819 602.8494,217.3819 602.8494,217.3819 602.8494,230.5069"/>
    <line x1="607.2244" x2="611.5994" y1="223.6319" y2="230.5069"/>
    <polygon points="661.4173,205.9843 661.4173,243.7795 661.4173,243.7795 699.2126,243.7795 699.2126,243.7795 699.2126,205.9843 699.2126,205.9843"/>
    <polyline points="664.8071,209.6535 665.3071,209.4035 665.3071,209.4035 666.0571,208.6535 666.0571,208.6535 666.0571,213.9035"/>
    <polyline points="669.3071,209.9035 669.3071,209.6535 669.3071,209.6535 669.5571,209.1535 669.5571,209.1535 669.8071,208.9035 669.8071,208.9035 670.3071,208.6535 670.3071,208.6535 671.3071,208.6535 671.3071,208.6535 671.8071,208.9035 671.8071,208.9035 672.0571,209.1535 672.0571,209.1535 672.3071,209.6535 672.3071,209.6535 672.3071,210.1535 672.3071,210.1535 672.0571,210.6535 672.0571,210.6535 671.5571,211.4035 671.5571,211.4035 669.0571,213.9035 669.0571,213.9035 672.5571,213.9035"/>
    <polyline points="679.065,217.3819 679.065,230.5069 679.065,230.5069 686.565,230.5069"/>
    <polyline points="737.0079,319.3701 699.2126,319.3701 699.2126,319.3701 699.2126,281.5748 699.2126,281.5748 699.2126,243.7795 699.2126,243.7795 737.0079,243.7795 737.0079,243.7795 737.0079,205.9843 737.0079,205.9843 774.8031,205.9843 774.8031,205.9843 774.8031,243.7795 774.8031,243.7795 737.0079,243.7795 737.0079,243.7795 737.0079,281.5748 737.0079,281.5748 737.0079,319.3701 737.0079,319.3701 737.0079,357.1654 737.0079,357.1654 699.2126,357.1654 699.2126,357.1654 699.2126,319.3701 699.2126,319.3701 661.4173,319.3701 661.4173,319.3701 623.622,319.3701 623.622,319.3701 623.622,281.5748 623.622,281.5748 623.622,243.7795 623.622,243.7795 661.4173,243.7795 661.4173,243.7795 661.4173,281.5748 661.4173,281.5748 623.622,281.5748 623.622,281.5748 585.8268,281.5748 585.8268,281.5748 585.8268,319.3701 585.8268,319.3701 623.622,319.3701 623.622,319.3701 623.622,357.1654 623.622,357.1654 661.4173,357.1654 661.4173,357.1654 699.2126,357.1654"/>
    <polyline points="724.6727,217.3819 716.5477,217.3819 716.5477,217.3819 716.5477,230.5069 716.5477,230.5069 724.6727,230.5069"/>
    <line x1="716.5477" x2="721.5477" y1="223.6319" y2="223.6319"/>
    <polygon points="756.5305,217.3819 755.2805,218.0069 755.2805,218.0069 754.0305,219.2569 754.0305,219.2569 753.4055,220.5069 753.4055,220.5069 752.7805,222.3819 752.7805,222.3819 752.7805,225.5069 752.7805,225.5069 753.4055,227.3819 753.4055,227.3819 754.0305,228.6319 754.0305,228.6319 755.2805,229.8819 755.2805,229.8819 756.5305,230.5069 756.5305,230.5069 759.0305,230.5069 759.0305,230.5069 760.2805,229.8819 760.2805,229.8819 761.5305,228.6319 761.5305,228.6319 762.1555,227.3819 762.1555,227.3819 762.7805,225.5069 762.7805,225.5069 762.7805,222.3819 762.7805,222.3819 762.1555,220.5069 762.1555,220.5069 761.5305,219.2569 761.5305,219.2569 760.2805,218.0069 760.2805,218.0069 759.0305,217.3819 759.0305,217.3819"/>
    <polygon points="18.8976,243.7795 18.8976,281.5748 18.8976,281.5748 56.6929,281.5748 56.6929,281.5748 56.6929,243.7795 56.6929,243.7795"/>
    <polyline points="22.2874,247.4488 22.7874,247.1988 22.7874,247.1988 23.5374,246.4488 23.5374,246.4488 23.5374,251.6988"/>
    <polyline points="27.0374,246.4488 29.7874,246.4488 29.7874,246.4488 28.2874,248.4488 28.2874,248.4488 29.0374,248.4488 29.0374,248.4488 29.5374,248.6988 29.5374,248.6988 29.7874,248.9488 29.7874,248.9488 30.0374,249.6988 30.0374,249.6988 30.0374,250.1988 30.0374,250.1988 29.7874,250.9488 29.7874,250.9488 29.2874,251.4488 29.2874,251.4488 28.5374,251.6988 28.5374,251.6988 27.7874,251.6988 27.7874,251.6988 27.0374,251.4488 27.0374,251.4488 26.7874,251.1988 26.7874,251.1988 26.5374,250.6988"/>
    <polyline points="36.5453,255.1772 36.5453,268.3022 36.5453,268.3022 44.0453,268.3022"/>
    <polyline points="56.6929,319.3701 56.6929,281.5748 56.6929,281.5748 94.4882,281.5748 94.4882,281.5748 132.2835,281.5748 132.2835,281.5748 132.2835,243.7795 132.2835,243.7795 94.4882,243.7795 94.4882,243.7795 94.4882,281.5748 94.4882,281.5748 94.4882,319.3701 94.4882,319.3701 56.6929,319.3701 56.6929,319.3701 56.6929,357.1654 56.6929,357.1654 94.4882,357.1654 94.4882,357.1654 94.4882,319.3701"/>
    <line x1="78.0906" x2="78.0906" y1="255.1772" y2="268.3022"/>
    <polyline points="119.9483,255.1772 111.8233,255.1772 111.8233,255.1772 111.8233,268.3022"/>
    <line x1="111.8233" x2="116.8233" y1="261.4272" y2="261.4272"/>
    <polyline points="170.0787,281.5748 170.0787,319.3701 170.0787,319.3701 132.2835,319.3701 132.2835,319.3701 132.2835,281.5748 132.2835,281.5748 170.0787,281.5748 170.0787,281.5748 170.0787,243.7795"/>
    <line x1="151.8061" x2="151.8061" y1="255.1772" y2="268.3022"/>
    <line x1="147.4311" x2="156.1811" y1="255.1772" y2="255.1772"/>
    <polyline points="207.874,243.7795 207.874,281.5748 207.874,281.5748 245.6693,281.5748 245.6693,281.5748 245.6693,243.7795"/>
    <polyline points="234.2717,268.3022 234.2717,255.1772 234.2717,255.1772 229.2717,268.3022 229.2717,268.3022 224.2717,255.1772 224.2717,255.1772 224.2717,268.3022"/>
    <polygon points="283.4646,243.7795 283.4646,281.5748 283.4646,281.5748 321.2598,281.5748 321.2598,281.5748 359.0551,281.5748 359.0551,281.5748 396.8504,281.5748 396.8504,281.5748 396.8504,243.7795 396.8504,243.7795 359.0551,243.7795 359.0551,243.7795 321.2598,243.7795 321.2598,243.7795"/>
    <line x1="321.2598" x2="321.2598" y1="281.5748" y2="243.7795"/>
    <polyline points="286.8543,247.4488 287.3543,247.1988 287.3543,247.1988 288.1043,246.4488 288.1043,246.4488 288.1043,251.6988"/>
    <polyline points="293.6043,251.6988 293.6043,246.4488 293.6043,246.4488 291.1043,249.9488 291.1043,249.9488 294.8543,249.9488"/>
    <polyline points="308.9247,258.3022 308.2997,257.0522 308.2997,257.0522 307.0497,255.8022 307.0497,255.8022 305.7997,255.1772 305.7997,255.1772 303.2997,255.1772 303.2997,255.1772 302.0497,255.8022 302.0497,255.8022 300.7997,257.0522 300.7997,257.0522 300.1747,258.3022 300.1747,258.3022 299.5497,260.1772 299.5497,260.1772 299.5497,263.3022 299.5497,263.3022 300.1747,265.1772 300.1747,265.1772 300.7997,266.4272 300.7997,266.4272 302.0497,267.6772 302.0497,267.6772 303.2997,268.3022 303.2997,268.3022 305.7997,268.3022 305.7997,268.3022 307.0497,267.6772 307.0497,267.6772 308.2997,266.4272 308.2997,266.4272 308.9247,265.1772 308.9247,265.1772 308.9247,263.3022 308.9247,263.3022 305.7997,263.3022"/>
    <line x1="359.0551" x2="359.0551" y1="281.5748" y2="243.7795"/>
    <polyline points="338.2825,261.4272 343.9075,261.4272 343.9075,261.4272 345.7825,260.8022 345.7825,260.8022 346.4075,260.1772 346.4075,260.1772 347.0325,258.9272 347.0325,258.9272 347.0325,257.6772 347.0325,257.6772 346.4075,256.4272 346.4075,256.4272 345.7825,255.8022 345.7825,255.8022 343.9075,255.1772 343.9075,255.1772 338.2825,255.1772 338.2825,255.1772 338.2825,268.3022"/>
    <line x1="342.6575" x2="347.0325" y1="261.4272" y2="268.3022"/>
    <polygon points="378.5778,255.1772 377.3278,255.8022 377.3278,255.8022 376.0778,257.0522 376.0778,257.0522 375.4528,258.3022 375.4528,258.3022 374.8278,260.1772 374.8278,260.1772 374.8278,263.3022 374.8278,263.3022 375.4528,265.1772 375.4528,265.1772 376.0778,266.4272 376.0778,266.4272 377.3278,267.6772 377.3278,267.6772 378.5778,268.3022 378.5778,268.3022 381.0778,268.3022 381.0778,268.3022 382.3278,267.6772 382.3278,267.6772 383.5778,266.4272 383.5778,266.4272 384.2028,265.1772 384.2028,265.1772 384.8278,263.3022 384.8278,263.3022 384.8278,260.1772 384.8278,260.1772 384.2028,258.3022 384.2028,258.3022 383.5778,257.0522 383.5778,257.0522 382.3278,255.8022 382.3278,255.8022 381.0778,255.1772 381.0778,255.1772"/>
    <polyline points="472.4409,281.5748 434.6457,281.5748 434.6457,281.5748 434.6457,319.3701 434.6457,319.3701 396.8504,319.3701 396.8504,319.3701 396.8504,281.5748 396.8504,281.5748 434.6457,281.5748 434.6457,281.5748 434.6457,243.7795 434.6457,243.7795 472.4409,243.7795 472.4409,243.7795 472.4409,281.5748 472.4409,281.5748 510.2362,281.5748 510.2362,281.5748 548.0315,281.5748 548.0315,281.5748 548.0315,243.7795 548.0315,243.7795 510.2362,243.7795 510.2362,243.7795 472.4409,243.7795"/>
    <polyline points="422.3105,255.1772 414.1855,255.1772 414.1855,255.1772 414.1855,268.3022 414.1855,268.3022 422.3105,268.3022"/>
    <line x1="414.1855" x2="419.1855" y1="261.4272" y2="261.4272"/>
    <polyline points="451.6683,262.0522 457.2933,262.0522 457.2933,262.0522 459.1683,261.4272 459.1683,261.4272 459.7933,260.8022 459.7933,260.8022 460.4183,259.5522 460.4183,259.5522 460.4183,257.6772 460.4183,257.6772 459.7933,256.4272 459.7933,256.4272 459.1683,255.8022 459.1683,255.8022 457.2933,255.1772 457.2933,255.1772 451.6683,255.1772 451.6683,255.1772 451.6683,268.3022"/>
    <line x1="510.2362" x2="510.2362" y1="281.5748" y2="243.7795"/>
    <polyline points="497.5886,257.0522 496.3386,255.8022 496.3386,255.8022 494.4636,255.1772 494.4636,255.1772 491.9636,255.1772 491.9636,255.1772 490.0886,255.8022 490.0886,255.8022 488.8386,257.0522 488.8386,257.0522 488.8386,258.3022 488.8386,258.3022 489.4636,259.5522 489.4636,259.5522 490.0886,260.1772 490.0886,260.1772 491.3386,260.8022 491.3386,260.8022 495.0886,262.0522 495.0886,262.0522 496.3386,262.6772 496.3386,262.6772 496.9636,263.3022 496.9636,263.3022 497.5886,264.5522 497.5886,264.5522 497.5886,266.4272 497.5886,266.4272 496.3386,267.6772 496.3386,267.6772 494.4636,268.3022 494.4636,268.3022 491.9636,268.3022 491.9636,268.3022 490.0886,267.6772 490.0886,267.6772 488.8386,266.4272"/>
    <polyline points="535.6964,255.1772 527.5714,255.1772 527.5714,255.1772 527.5714,268.3022"/>
    <line x1="527.5714" x2="532.5714" y1="261.4272" y2="261.4272"/>
    <polyline points="548.0315,281.5748 585.8268,281.5748 585.8268,281.5748 585.8268,243.7795 585.8268,243.7795 548.0315,243.7795"/>
    <polygon points="567.5541,255.1772 566.3041,255.8022 566.3041,255.8022 565.0541,257.0522 565.0541,257.0522 564.4291,258.3022 564.4291,258.3022 563.8041,260.1772 563.8041,260.1772 563.8041,263.3022 563.8041,263.3022 564.4291,265.1772 564.4291,265.1772 565.0541,266.4272 565.0541,266.4272 566.3041,267.6772 566.3041,267.6772 567.5541,268.3022 567.5541,268.3022 570.0541,268.3022 570.0541,268.3022 571.3041,267.6772 571.3041,267.6772 572.5541,266.4272 572.5541,266.4272 573.1791,265.1772 573.1791,265.1772 573.8041,263.3022 573.8041,263.3022 573.8041,260.1772 573.8041,260.1772 573.1791,258.3022 573.1791,258.3022 572.5541,257.0522 572.5541,257.0522 571.3041,255.8022 571.3041,255.8022 570.0541,255.1772 570.0541,255.1772"/>
    <line x1="605.3494" x2="605.3494" y1="255.1772" y2="268.3022"/>
    <line x1="600.9744" x2="609.7244" y1="255.1772" y2="255.1772"/>
    <polygon points="643.1447,255.1772 641.8947,255.8022 641.8947,255.8022 640.6447,257.0522 640.6447,257.0522 640.0197,258.3022 640.0197,258.3022 639.3947,260.1772 639.3947,260.1772 639.3947,263.3022 639.3947,263.3022 640.0197,265.1772 640.0197,265.1772 640.6447,266.4272 640.6447,266.4272 641.8947,267.6772 641.8947,267.6772 643.1447,268.3022 643.1447,268.3022 645.6447,268.3022 645.6447,268.3022 646.8947,267.6772 646.8947,267.6772 648.1447,266.4272 648.1447,266.4272 648.7697,265.1772 648.7697,265.1772 649.3947,263.3022 649.3947,263.3022 649.3947,260.1772 649.3947,260.1772 648.7697,258.3022 648.7697,258.3022 648.1447,257.0522 648.1447,257.0522 646.8947,255.8022 646.8947,255.8022 645.6447,255.1772 645.6447,255.1772"/>
    <line x1="699.2126" x2="737.0079" y1="281.5748" y2="281.5748"/>
    <polyline points="725.6102,268.3022 725.6102,255.1772 725.6102,255.1772 720.6102,268.3022 720.6102,268.3022 715.6102,255.1772 715.6102,255.1772 715.6102,268.3022"/>
    <polyline points="74.3406,292.9724 74.3406,306.0974 74.3406,306.0974 81.8406,306.0974"/>
    <line x1="151.8061" x2="151.8061" y1="292.9724" y2="306.0974"/>
    <line x1="147.4311" x2="156.1811" y1="292.9724" y2="292.9724"/>
    <polyline points="207.874,281.5748 207.874,319.3701 207.874,319.3701 207.874,357.1654 207.874,357.1654 245.6693,357.1654 245.6693,357.1654 245.6693,319.3701 245.6693,319.3701 245.6693,281.5748"/>
    <line x1="207.874" x2="245.6693" y1="319.3701" y2="319.3701"/>
    <polygon points="227.3967,292.9724 226.1467,293.5974 226.1467,293.5974 224.8967,294.8474 224.8967,294.8474 224.2717,296.0974 224.2717,296.0974 223.6467,297.9724 223.6467,297.9724 223.6467,301.0974 223.6467,301.0974 224.2717,302.9724 224.2717,302.9724 224.8967,304.2224 224.8967,304.2224 226.1467,305.4724 226.1467,305.4724 227.3967,306.0974 227.3967,306.0974 229.8967,306.0974 229.8967,306.0974 231.1467,305.4724 231.1467,305.4724 232.3967,304.2224 232.3967,304.2224 233.0217,302.9724 233.0217,302.9724 233.6467,301.0974 233.6467,301.0974 233.6467,297.9724 233.6467,297.9724 233.0217,296.0974 233.0217,296.0974 232.3967,294.8474 232.3967,294.8474 231.1467,293.5974 231.1467,293.5974 229.8967,292.9724 229.8967,292.9724"/>
    <polyline points="422.623,292.9724 422.623,306.0974 422.623,306.0974 413.873,292.9724 413.873,292.9724 413.873,306.0974"/>
    <polyline points="609.0994,292.9724 609.0994,302.9724 609.0994,302.9724 608.4744,304.8474 608.4744,304.8474 607.8494,305.4724 607.8494,305.4724 606.5994,306.0974 606.5994,306.0974 605.3494,306.0974 605.3494,306.0974 604.0994,305.4724 604.0994,305.4724 603.4744,304.8474 603.4744,304.8474 602.8494,302.9724 602.8494,302.9724 602.8494,301.7224"/>
    <polyline points="724.6727,292.9724 716.5477,292.9724 716.5477,292.9724 716.5477,306.0974 716.5477,306.0974 724.6727,306.0974"/>
    <line x1="716.5477" x2="721.5477" y1="299.2224" y2="299.2224"/>
    <polyline points="82.1531,330.7677 74.0281,330.7677 74.0281,330.7677 74.0281,343.8927 74.0281,343.8927 82.1531,343.8927"/>
    <line x1="74.0281" x2="79.0281" y1="337.0177" y2="337.0177"/>
    <polyline points="132.2835,319.3701 132.2835,357.1654 132.2835,357.1654 170.0787,357.1654 170.0787,357.1654 170.0787,319.3701"/>
    <polyline points="157.7436,330.7677 149.6186,330.7677 149.6186,330.7677 149.6186,343.8927 149.6186,343.8927 157.7436,343.8927"/>
    <line x1="149.6186" x2="154.6186" y1="337.0177" y2="337.0177"/>
    <polyline points="233.6467,330.7677 233.6467,343.8927 233.6467,343.8927 224.8967,330.7677 224.8967,330.7677 224.8967,343.8927"/>
    <polygon points="434.6457,319.3701 434.6457,357.1654 434.6457,357.1654 472.4409,357.1654 472.4409,357.1654 510.2362,357.1654 510.2362,357.1654 510.2362,319.3701 510.2362,319.3701 472.4409,319.3701 472.4409,319.3701"/>
    <line x1="472.4409" x2="472.4409" y1="357.1654" y2="319.3701"/>
    <polyline points="438.0354,323.0394 438.5354,322.7894 438.5354,322.7894 439.2854,322.0394 439.2854,322.0394 439.2854,327.2894"/>
    <polyline points="445.2854,322.0394 442.7854,322.0394 442.7854,322.0394 442.5354,324.2894 442.5354,324.2894 442.7854,324.0394 442.7854,324.0394 443.5354,323.7894 443.5354,323.7894 444.2854,323.7894 444.2854,323.7894 445.0354,324.0394 445.0354,324.0394 445.5354,324.5394 445.5354,324.5394 445.7854,325.2894 445.7854,325.2894 445.7854,325.7894 445.7854,325.7894 445.5354,326.5394 445.5354,326.5394 445.0354,327.0394 445.0354,327.0394 444.2854,327.2894 444.2854,327.2894 443.5354,327.2894 443.5354,327.2894 442.7854,327.0394 442.7854,327.0394 442.5354,326.7894 442.5354,326.7894 442.2854,326.2894"/>
    <polyline points="451.6683,337.6427 457.2933,337.6427 457.2933,337.6427 459.1683,337.0177 459.1683,337.0177 459.7933,336.3927 459.7933,336.3927 460.4183,335.1427 460.4183,335.1427 460.4183,333.2677 460.4183,333.2677 459.7933,332.0177 459.7933,332.0177 459.1683,331.3927 459.1683,331.3927 457.2933,330.7677 457.2933,330.7677 451.6683,330.7677 451.6683,330.7677 451.6683,343.8927"/>
    <polyline points="496.9636,343.8927 491.9636,330.7677 491.9636,330.7677 486.9636,343.8927"/>
    <line x1="488.8386" x2="495.0886" y1="339.5177" y2="339.5177"/>
    <polyline points="510.2362,357.1654 548.0315,357.1654 548.0315,357.1654 585.8268,357.1654 585.8268,357.1654 585.8268,319.3701 585.8268,319.3701 548.0315,319.3701 548.0315,319.3701 510.2362,319.3701"/>
    <line x1="548.0315" x2="548.0315" y1="357.1654" y2="319.3701"/>
    <polyline points="527.2589,337.0177 532.8839,337.0177 532.8839,337.0177 534.7589,336.3927 534.7589,336.3927 535.3839,335.7677 535.3839,335.7677 536.0089,334.5177 536.0089,334.5177 536.0089,333.2677 536.0089,333.2677 535.3839,332.0177 535.3839,332.0177 534.7589,331.3927 534.7589,331.3927 532.8839,330.7677 532.8839,330.7677 527.2589,330.7677 527.2589,330.7677 527.2589,343.8927"/>
    <line x1="531.6339" x2="536.0089" y1="337.0177" y2="343.8927"/>
    <line x1="565.0541" x2="565.0541" y1="330.7677" y2="343.8927"/>
    <line x1="573.8041" x2="565.0541" y1="330.7677" y2="339.5177"/>
    <line x1="568.1791" x2="573.8041" y1="336.3927" y2="343.8927"/>
    <line x1="585.8268" x2="623.622" y1="357.1654" y2="357.1654"/>
    <polyline points="611.2869,330.7677 603.1619,330.7677 603.1619,330.7677 603.1619,343.8927 603.1619,343.8927 611.2869,343.8927"/>
    <line x1="603.1619" x2="608.1619" y1="337.0177" y2="337.0177"/>
    <line x1="661.4173" x2="661.4173" y1="357.1654" y2="319.3701"/>
    <polyline points="640.6447,337.0177 646.2697,337.0177 646.2697,337.0177 648.1447,336.3927 648.1447,336.3927 648.7697,335.7677 648.7697,335.7677 649.3947,334.5177 649.3947,334.5177 649.3947,333.2677 649.3947,333.2677 648.7697,332.0177 648.7697,332.0177 648.1447,331.3927 648.1447,331.3927 646.2697,330.7677 646.2697,330.7677 640.6447,330.7677 640.6447,330.7677 640.6447,343.8927"/>
    <line x1="645.0197" x2="649.3947" y1="337.0177" y2="343.8927"/>
    <polyline points="686.8775,330.7677 678.7525,330.7677 678.7525,330.7677 678.7525,343.8927 678.7525,343.8927 686.8775,343.8927"/>
    <line x1="678.7525" x2="683.7525" y1="337.0177" y2="337.0177"/>
    <polyline points="724.9852,330.7677 724.9852,343.8927 724.9852,343.8927 716.2352,330.7677 716.2352,330.7677 716.2352,343.8927"/>
  </g>
</svg>
