<?xml version="1.0" encoding="utf-8" ?>
<svg xmlns="http://www.w3.org/2000/svg" xmlns:cc="http://creativecommons.org/ns" xmlns:dc="http://purl.org/dc/elements/1.1/" xmlns:ev="http://www.w3.org/2001/xml-events" xmlns:inkscape="http://www.inkscape.org/namespaces/inkscape" xmlns:rdf="http://www.w3.org/1999/02/22-rdf-syntax-ns" xmlns:sodipodi="http://sodipodi.sourceforge.net/DTD/sodipodi-0.dtd" xmlns:xlink="http://www.w3.org/1999/xlink" baseProfile="tiny" height="9.0cm" version="1.2" viewBox="0 0 793.7007874015749 340.15748031496065" width="21.0cm">
  <metadata>
    <rdf:RDF>
      <cc:Work>
        <dc:format>image/svg+xml</dc:format>
        <dc:source>vpype eval 'cell=10;width=210;height=99' eval 'nCols=21;nRows=9' eval 'cells=[6,8,12,14,15,16,17,23,24,25,26,27,28,29,30,32,35,40,41,42,44,46,48,51,52,53,54,55,62,64,66,70,72,75,77,82,83,84,85,86,87,88,89,90,91,92,94,95,96,97,98,102,106,114,117,120,121,122,124,125,126,127,128,129,130,131,132,134,136,137,138,139,146,154,165,166,167,168,169,170,171,172,173]' eval 'chars=[&quot;K&quot;,&quot;L&quot;,&quot;B&quot;,&quot;G&quot;,&quot;R&quot;,&quot;A&quot;,&quot;S&quot;,&quot;S&quot;,&quot;K&quot;,&quot;E&quot;,&quot;L&quot;,&quot;L&quot;,&quot;E&quot;,&quot;K&quot;,&quot;E&quot;,&quot;R&quot;,&quot;A&quot;,&quot;B&quot;,&quot;A&quot;,&quot;S&quot;,&quot;O&quot;,&quot;A&quot;,&quot;O&quot;,&quot;H&quot;,&quot;O&quot;,&quot;O&quot;,&quot;F&quot;,&quot;D&quot;,&quot;I&quot;,&quot;U&quot;,&quot;V&quot;,&quot;J&quot;,&quot;O&quot;,&quot;I&quot;,&quot;S&quot;,&quot;M&quot;,&quot;I&quot;,&quot;S&quot;,&quot;V&quot;,&quot;E&quot;,&quot;R&quot;,&quot;S&quot;,&quot;T&quot;,&quot;A&quot;,&quot;N&quot;,&quot;D&quot;,&quot;L&quot;,&quot;O&quot;,&quot;T&quot;,&quot;T&quot;,&quot;E&quot;,&quot;O&quot;,&quot;R&quot;,&quot;I&quot;,&quot;E&quot;,&quot;Z&quot;,&quot;O&quot;,&quot;N&quot;,&quot;U&quot;,&quot;I&quot;,&quot;T&quot;,&quot;L&quot;,&quot;I&quot;,&quot;K&quot;,&quot;K&quot;,&quot;E&quot;,&quot;N&quot;,&quot;F&quot;,&quot;D&quot;,&quot;R&quot;,&quot;O&quot;,&quot;P&quot;,&quot;J&quot;,&quot;T&quot;,&quot;R&quot;,&quot;E&quot;,&quot;K&quot;,&quot;K&quot;,&quot;E&quot;,&quot;R&quot;,&quot;T&quot;,&quot;J&quot;,&quot;E&quot;]' eval 'numbers=[6,8,12,14,15,23,24,40,42,51,70,77,82,94,120,124,136,165]' eval counter=1 eval charIndex=0 begin grid -o '%cell*mm%' '%cell*mm%' %nCols% %nRows% eval '%isCell=_i in cells%' eval '%number=_i in numbers%' eval '%size=10 if isCell else 0%' rect 0 0 '%size*mm%' '%size*mm%' text -s 8 -p 0.5mm 1.5mm '%counter if number else '&quot;'&quot;''&quot;'&quot;'%' text -s 20 -p 5mm 5mm -a center '%chars[charIndex] if isCell else '&quot;'&quot;''&quot;'&quot;'%' eval '%if number: counter+=1 %' eval '%if isCell: charIndex+=1 %' end write ./svgs/solution/76a8b4.svg
</dc:source>
        <dc:date>2023-12-20T21:39:18.426179</dc:date>
      </cc:Work>
    </rdf:RDF>
  </metadata>
  <defs/>
  <g fill="none" id="layer1" inkscape:groupmode="layer" inkscape:label="1" stroke="#0000ff" style="display:inline">
    <polygon points="0.0,0.0 0.0,0.0 0.0,0.0 0.0,0.0"/>
    <polygon points="37.7953,0.0 37.7953,0.0 37.7953,0.0 37.7953,0.0"/>
    <polygon points="75.5906,0.0 75.5906,0.0 75.5906,0.0 75.5906,0.0"/>
    <polygon points="113.3858,0.0 113.3858,0.0 113.3858,0.0 113.3858,0.0"/>
    <polygon points="151.1811,0.0 151.1811,0.0 151.1811,0.0 151.1811,0.0"/>
    <polygon points="188.9764,0.0 188.9764,0.0 188.9764,0.0 188.9764,0.0"/>
    <polygon points="226.7717,0.0 226.7717,37.7953 264.5669,37.7953 264.5669,0.0"/>
    <polyline points="230.1614,3.6693 230.6614,3.4193 231.4114,2.6693 231.4114,7.9193"/>
    <line x1="243.7943" x2="243.7943" y1="11.3976" y2="24.5226"/>
    <line x1="252.5443" x2="243.7943" y1="11.3976" y2="20.1476"/>
    <line x1="246.9193" x2="252.5443" y1="17.0226" y2="24.5226"/>
    <polygon points="264.5669,0.0 264.5669,0.0 264.5669,0.0 264.5669,0.0"/>
    <polygon points="302.3622,0.0 302.3622,37.7953 340.1575,37.7953 340.1575,0.0"/>
    <polyline points="305.252,3.9193 305.252,3.6693 305.502,3.1693 305.752,2.9193 306.252,2.6693 307.252,2.6693 307.752,2.9193 308.002,3.1693 308.252,3.6693 308.252,4.1693 308.002,4.6693 307.502,5.4193 305.002,7.9193 308.502,7.9193"/>
    <line x1="320.0098" x2="320.0098" y1="11.3976" y2="24.5226"/>
    <line x1="320.0098" x2="327.5098" y1="24.5226" y2="24.5226"/>
    <polygon points="340.1575,0.0 340.1575,0.0 340.1575,0.0 340.1575,0.0"/>
    <polygon points="377.9528,0.0 377.9528,0.0 377.9528,0.0 377.9528,0.0"/>
    <polygon points="415.748,0.0 415.748,0.0 415.748,0.0 415.748,0.0"/>
    <polygon points="453.5433,0.0 453.5433,37.7953 491.3386,37.7953 491.3386,0.0"/>
    <polyline points="456.6831,2.6693 459.4331,2.6693 457.9331,4.6693 458.6831,4.6693 459.1831,4.9193 459.4331,5.1693 459.6831,5.9193 459.6831,6.4193 459.4331,7.1693 458.9331,7.6693 458.1831,7.9193 457.4331,7.9193 456.6831,7.6693 456.4331,7.4193 456.1831,6.9193"/>
    <line x1="470.5659" x2="470.5659" y1="11.3976" y2="24.5226"/>
    <polyline points="470.5659,11.3976 476.1909,11.3976 478.0659,12.0226 478.6909,12.6476 479.3159,13.8976 479.3159,15.1476 478.6909,16.3976 478.0659,17.0226 476.1909,17.6476"/>
    <polyline points="470.5659,17.6476 476.1909,17.6476 478.0659,18.2726 478.6909,18.8976 479.3159,20.1476 479.3159,22.0226 478.6909,23.2726 478.0659,23.8976 476.1909,24.5226 470.5659,24.5226"/>
    <polygon points="491.3386,0.0 491.3386,0.0 491.3386,0.0 491.3386,0.0"/>
    <polygon points="529.1339,0.0 529.1339,37.7953 566.9291,37.7953 566.9291,0.0"/>
    <polyline points="534.2736,2.6693 531.7736,6.1693 535.5236,6.1693"/>
    <line x1="534.2736" x2="534.2736" y1="2.6693" y2="7.9193"/>
    <polyline points="554.594,14.5226 553.969,13.2726 552.719,12.0226 551.469,11.3976 548.969,11.3976 547.719,12.0226 546.469,13.2726 545.844,14.5226 545.219,16.3976 545.219,19.5226 545.844,21.3976 546.469,22.6476 547.719,23.8976 548.969,24.5226 551.469,24.5226 552.719,23.8976 553.969,22.6476 554.594,21.3976 554.594,19.5226"/>
    <line x1="551.469" x2="554.594" y1="19.5226" y2="19.5226"/>
    <polygon points="566.9291,0.0 566.9291,37.7953 604.7244,37.7953 604.7244,0.0"/>
    <polyline points="572.5689,2.6693 570.0689,2.6693 569.8189,4.9193 570.0689,4.6693 570.8189,4.4193 571.5689,4.4193 572.3189,4.6693 572.8189,5.1693 573.0689,5.9193 573.0689,6.4193 572.8189,7.1693 572.3189,7.6693 571.5689,7.9193 570.8189,7.9193 570.0689,7.6693 569.8189,7.4193 569.5689,6.9193"/>
    <line x1="583.9518" x2="583.9518" y1="11.3976" y2="24.5226"/>
    <polyline points="583.9518,11.3976 589.5768,11.3976 591.4518,12.0226 592.0768,12.6476 592.7018,13.8976 592.7018,15.1476 592.0768,16.3976 591.4518,17.0226 589.5768,17.6476 583.9518,17.6476"/>
    <line x1="588.3268" x2="592.7018" y1="17.6476" y2="24.5226"/>
    <polygon points="604.7244,0.0 604.7244,37.7953 642.5197,37.7953 642.5197,0.0"/>
    <line x1="624.247" x2="619.247" y1="11.3976" y2="24.5226"/>
    <line x1="624.247" x2="629.247" y1="11.3976" y2="24.5226"/>
    <line x1="621.122" x2="627.372" y1="20.1476" y2="20.1476"/>
    <polygon points="642.5197,0.0 642.5197,37.7953 680.315,37.7953 680.315,0.0"/>
    <polyline points="667.6673,13.2726 666.4173,12.0226 664.5423,11.3976 662.0423,11.3976 660.1673,12.0226 658.9173,13.2726 658.9173,14.5226 659.5423,15.7726 660.1673,16.3976 661.4173,17.0226 665.1673,18.2726 666.4173,18.8976 667.0423,19.5226 667.6673,20.7726 667.6673,22.6476 666.4173,23.8976 664.5423,24.5226 662.0423,24.5226 660.1673,23.8976 658.9173,22.6476"/>
    <polygon points="680.315,0.0 680.315,0.0 680.315,0.0 680.315,0.0"/>
    <polygon points="718.1102,0.0 718.1102,0.0 718.1102,0.0 718.1102,0.0"/>
    <polygon points="755.9055,0.0 755.9055,0.0 755.9055,0.0 755.9055,0.0"/>
    <polygon points="0.0,37.7953 0.0,37.7953 0.0,37.7953 0.0,37.7953"/>
    <polygon points="37.7953,37.7953 37.7953,37.7953 37.7953,37.7953 37.7953,37.7953"/>
    <polygon points="75.5906,37.7953 75.5906,75.5906 113.3858,75.5906 113.3858,37.7953"/>
    <polyline points="81.4803,41.2146 81.2303,40.7146 80.4803,40.4646 79.9803,40.4646 79.2303,40.7146 78.7303,41.4646 78.4803,42.7146 78.4803,43.9646 78.7303,44.9646 79.2303,45.4646 79.9803,45.7146 80.2303,45.7146 80.9803,45.4646 81.4803,44.9646 81.7303,44.2146 81.7303,43.9646 81.4803,43.2146 80.9803,42.7146 80.2303,42.4646 79.9803,42.4646 79.2303,42.7146 78.7303,43.2146 78.4803,43.9646"/>
    <polyline points="100.7382,51.0679 99.4882,49.8179 97.6132,49.1929 95.1132,49.1929 93.2382,49.8179 91.9882,51.0679 91.9882,52.3179 92.6132,53.5679 93.2382,54.1929 94.4882,54.8179 98.2382,56.0679 99.4882,56.6929 100.1132,57.3179 100.7382,58.5679 100.7382,60.4429 99.4882,61.6929 97.6132,62.3179 95.1132,62.3179 93.2382,61.6929 91.9882,60.4429"/>
    <polygon points="113.3858,37.7953 113.3858,75.5906 151.1811,75.5906 151.1811,37.7953"/>
    <line x1="119.5256" x2="117.0256" y1="40.4646" y2="45.7146"/>
    <line x1="116.0256" x2="119.5256" y1="40.4646" y2="40.4646"/>
    <line x1="130.4085" x2="130.4085" y1="49.1929" y2="62.3179"/>
    <line x1="139.1585" x2="130.4085" y1="49.1929" y2="57.9429"/>
    <line x1="133.5335" x2="139.1585" y1="54.8179" y2="62.3179"/>
    <polygon points="151.1811,37.7953 151.1811,75.5906 188.9764,75.5906 188.9764,37.7953"/>
    <line x1="168.5162" x2="168.5162" y1="49.1929" y2="62.3179"/>
    <line x1="168.5162" x2="176.6412" y1="49.1929" y2="49.1929"/>
    <line x1="168.5162" x2="173.5162" y1="55.4429" y2="55.4429"/>
    <line x1="168.5162" x2="176.6412" y1="62.3179" y2="62.3179"/>
    <polygon points="188.9764,37.7953 188.9764,75.5906 226.7717,75.5906 226.7717,37.7953"/>
    <line x1="206.624" x2="206.624" y1="49.1929" y2="62.3179"/>
    <line x1="206.624" x2="214.124" y1="62.3179" y2="62.3179"/>
    <polygon points="226.7717,37.7953 226.7717,75.5906 264.5669,75.5906 264.5669,37.7953"/>
    <line x1="244.4193" x2="244.4193" y1="49.1929" y2="62.3179"/>
    <line x1="244.4193" x2="251.9193" y1="62.3179" y2="62.3179"/>
    <polygon points="264.5669,37.7953 264.5669,75.5906 302.3622,75.5906 302.3622,37.7953"/>
    <line x1="281.9021" x2="281.9021" y1="49.1929" y2="62.3179"/>
    <line x1="281.9021" x2="290.0271" y1="49.1929" y2="49.1929"/>
    <line x1="281.9021" x2="286.9021" y1="55.4429" y2="55.4429"/>
    <line x1="281.9021" x2="290.0271" y1="62.3179" y2="62.3179"/>
    <polygon points="302.3622,37.7953 302.3622,75.5906 340.1575,75.5906 340.1575,37.7953"/>
    <line x1="319.3848" x2="319.3848" y1="49.1929" y2="62.3179"/>
    <line x1="328.1348" x2="319.3848" y1="49.1929" y2="57.9429"/>
    <line x1="322.5098" x2="328.1348" y1="54.8179" y2="62.3179"/>
    <polygon points="340.1575,37.7953 340.1575,75.5906 377.9528,75.5906 377.9528,37.7953"/>
    <line x1="357.4926" x2="357.4926" y1="49.1929" y2="62.3179"/>
    <line x1="357.4926" x2="365.6176" y1="49.1929" y2="49.1929"/>
    <line x1="357.4926" x2="362.4926" y1="55.4429" y2="55.4429"/>
    <line x1="357.4926" x2="365.6176" y1="62.3179" y2="62.3179"/>
    <polygon points="377.9528,37.7953 377.9528,37.7953 377.9528,37.7953 377.9528,37.7953"/>
    <polygon points="415.748,37.7953 415.748,75.5906 453.5433,75.5906 453.5433,37.7953"/>
    <line x1="432.7707" x2="432.7707" y1="49.1929" y2="62.3179"/>
    <polyline points="432.7707,49.1929 438.3957,49.1929 440.2707,49.8179 440.8957,50.4429 441.5207,51.6929 441.5207,52.9429 440.8957,54.1929 440.2707,54.8179 438.3957,55.4429 432.7707,55.4429"/>
    <line x1="437.1457" x2="441.5207" y1="55.4429" y2="62.3179"/>
    <polygon points="453.5433,37.7953 453.5433,37.7953 453.5433,37.7953 453.5433,37.7953"/>
    <polygon points="491.3386,37.7953 491.3386,37.7953 491.3386,37.7953 491.3386,37.7953"/>
    <polygon points="529.1339,37.7953 529.1339,75.5906 566.9291,75.5906 566.9291,37.7953"/>
    <line x1="548.6565" x2="543.6565" y1="49.1929" y2="62.3179"/>
    <line x1="548.6565" x2="553.6565" y1="49.1929" y2="62.3179"/>
    <line x1="545.5315" x2="551.7815" y1="57.9429" y2="57.9429"/>
    <polygon points="566.9291,37.7953 566.9291,37.7953 566.9291,37.7953 566.9291,37.7953"/>
    <polygon points="604.7244,37.7953 604.7244,37.7953 604.7244,37.7953 604.7244,37.7953"/>
    <polygon points="642.5197,37.7953 642.5197,37.7953 642.5197,37.7953 642.5197,37.7953"/>
    <polygon points="680.315,37.7953 680.315,37.7953 680.315,37.7953 680.315,37.7953"/>
    <polygon points="718.1102,37.7953 718.1102,75.5906 755.9055,75.5906 755.9055,37.7953"/>
    <polygon points="722.0,40.4646 721.25,40.7146 721.0,41.2146 721.0,41.7146 721.25,42.2146 721.75,42.4646 722.75,42.7146 723.5,42.9646 724.0,43.4646 724.25,43.9646 724.25,44.7146 724.0,45.2146 723.75,45.4646 723.0,45.7146 722.0,45.7146 721.25,45.4646 721.0,45.2146 720.75,44.7146 720.75,43.9646 721.0,43.4646 721.5,42.9646 722.25,42.7146 723.25,42.4646 723.75,42.2146 724.0,41.7146 724.0,41.2146 723.75,40.7146 723.0,40.4646"/>
    <line x1="735.1329" x2="735.1329" y1="49.1929" y2="62.3179"/>
    <polyline points="735.1329,49.1929 740.7579,49.1929 742.6329,49.8179 743.2579,50.4429 743.8829,51.6929 743.8829,52.9429 743.2579,54.1929 742.6329,54.8179 740.7579,55.4429"/>
    <polyline points="735.1329,55.4429 740.7579,55.4429 742.6329,56.0679 743.2579,56.6929 743.8829,57.9429 743.8829,59.8179 743.2579,61.0679 742.6329,61.6929 740.7579,62.3179 735.1329,62.3179"/>
    <polygon points="755.9055,37.7953 755.9055,75.5906 793.7008,75.5906 793.7008,37.7953"/>
    <line x1="775.4281" x2="770.4281" y1="49.1929" y2="62.3179"/>
    <line x1="775.4281" x2="780.4281" y1="49.1929" y2="62.3179"/>
    <line x1="772.3031" x2="778.5531" y1="57.9429" y2="57.9429"/>
    <polygon points="0.0,75.5906 0.0,113.3858 37.7953,113.3858 37.7953,75.5906"/>
    <polyline points="5.8898,80.0098 5.6398,80.7598 5.1398,81.2598 4.3898,81.5098 4.1398,81.5098 3.3898,81.2598 2.8898,80.7598 2.6398,80.0098 2.6398,79.7598 2.8898,79.0098 3.3898,78.5098 4.1398,78.2598 4.3898,78.2598 5.1398,78.5098 5.6398,79.0098 5.8898,80.0098 5.8898,81.2598 5.6398,82.5098 5.1398,83.2598 4.3898,83.5098 3.8898,83.5098 3.1398,83.2598 2.8898,82.7598"/>
    <polyline points="25.1476,88.8632 23.8976,87.6132 22.0226,86.9882 19.5226,86.9882 17.6476,87.6132 16.3976,88.8632 16.3976,90.1132 17.0226,91.3632 17.6476,91.9882 18.8976,92.6132 22.6476,93.8632 23.8976,94.4882 24.5226,95.1132 25.1476,96.3632 25.1476,98.2382 23.8976,99.4882 22.0226,100.1132 19.5226,100.1132 17.6476,99.4882 16.3976,98.2382"/>
    <polygon points="37.7953,75.5906 37.7953,75.5906 37.7953,75.5906 37.7953,75.5906"/>
    <polygon points="75.5906,75.5906 75.5906,113.3858 113.3858,113.3858 113.3858,75.5906"/>
    <polygon points="95.1132,86.9882 93.8632,87.6132 92.6132,88.8632 91.9882,90.1132 91.3632,91.9882 91.3632,95.1132 91.9882,96.9882 92.6132,98.2382 93.8632,99.4882 95.1132,100.1132 97.6132,100.1132 98.8632,99.4882 100.1132,98.2382 100.7382,96.9882 101.3632,95.1132 101.3632,91.9882 100.7382,90.1132 100.1132,88.8632 98.8632,87.6132 97.6132,86.9882"/>
    <polygon points="113.3858,75.5906 113.3858,75.5906 113.3858,75.5906 113.3858,75.5906"/>
    <polygon points="151.1811,75.5906 151.1811,113.3858 188.9764,113.3858 188.9764,75.5906"/>
    <line x1="170.7037" x2="165.7037" y1="86.9882" y2="100.1132"/>
    <line x1="170.7037" x2="175.7037" y1="86.9882" y2="100.1132"/>
    <line x1="167.5787" x2="173.8287" y1="95.7382" y2="95.7382"/>
    <polygon points="188.9764,75.5906 188.9764,75.5906 188.9764,75.5906 188.9764,75.5906"/>
    <polygon points="226.7717,75.5906 226.7717,113.3858 264.5669,113.3858 264.5669,75.5906"/>
    <polygon points="246.2943,86.9882 245.0443,87.6132 243.7943,88.8632 243.1693,90.1132 242.5443,91.9882 242.5443,95.1132 243.1693,96.9882 243.7943,98.2382 245.0443,99.4882 246.2943,100.1132 248.7943,100.1132 250.0443,99.4882 251.2943,98.2382 251.9193,96.9882 252.5443,95.1132 252.5443,91.9882 251.9193,90.1132 251.2943,88.8632 250.0443,87.6132 248.7943,86.9882"/>
    <polygon points="264.5669,75.5906 264.5669,75.5906 264.5669,75.5906 264.5669,75.5906"/>
    <polygon points="302.3622,75.5906 302.3622,75.5906 302.3622,75.5906 302.3622,75.5906"/>
    <polygon points="340.1575,75.5906 340.1575,113.3858 377.9528,113.3858 377.9528,75.5906"/>
    <polyline points="343.5472,79.2598 344.0472,79.0098 344.7972,78.2598 344.7972,83.5098"/>
    <polygon points="349.2972,78.2598 348.5472,78.5098 348.0472,79.2598 347.7972,80.5098 347.7972,81.2598 348.0472,82.5098 348.5472,83.2598 349.2972,83.5098 349.7972,83.5098 350.5472,83.2598 351.0472,82.5098 351.2972,81.2598 351.2972,80.5098 351.0472,79.2598 350.5472,78.5098 349.7972,78.2598"/>
    <line x1="357.1801" x2="357.1801" y1="86.9882" y2="100.1132"/>
    <line x1="365.9301" x2="365.9301" y1="86.9882" y2="100.1132"/>
    <line x1="357.1801" x2="365.9301" y1="93.2382" y2="93.2382"/>
    <polygon points="377.9528,75.5906 377.9528,113.3858 415.748,113.3858 415.748,75.5906"/>
    <polygon points="397.4754,86.9882 396.2254,87.6132 394.9754,88.8632 394.3504,90.1132 393.7254,91.9882 393.7254,95.1132 394.3504,96.9882 394.9754,98.2382 396.2254,99.4882 397.4754,100.1132 399.9754,100.1132 401.2254,99.4882 402.4754,98.2382 403.1004,96.9882 403.7254,95.1132 403.7254,91.9882 403.1004,90.1132 402.4754,88.8632 401.2254,87.6132 399.9754,86.9882"/>
    <polygon points="415.748,75.5906 415.748,113.3858 453.5433,113.3858 453.5433,75.5906"/>
    <polygon points="435.2707,86.9882 434.0207,87.6132 432.7707,88.8632 432.1457,90.1132 431.5207,91.9882 431.5207,95.1132 432.1457,96.9882 432.7707,98.2382 434.0207,99.4882 435.2707,100.1132 437.7707,100.1132 439.0207,99.4882 440.2707,98.2382 440.8957,96.9882 441.5207,95.1132 441.5207,91.9882 440.8957,90.1132 440.2707,88.8632 439.0207,87.6132 437.7707,86.9882"/>
    <polygon points="453.5433,75.5906 453.5433,113.3858 491.3386,113.3858 491.3386,75.5906"/>
    <line x1="470.8784" x2="470.8784" y1="86.9882" y2="100.1132"/>
    <line x1="470.8784" x2="479.0034" y1="86.9882" y2="86.9882"/>
    <line x1="470.8784" x2="475.8784" y1="93.2382" y2="93.2382"/>
    <polygon points="491.3386,75.5906 491.3386,113.3858 529.1339,113.3858 529.1339,75.5906"/>
    <line x1="508.3612" x2="508.3612" y1="86.9882" y2="100.1132"/>
    <polyline points="508.3612,86.9882 512.7362,86.9882 514.6112,87.6132 515.8612,88.8632 516.4862,90.1132 517.1112,91.9882 517.1112,95.1132 516.4862,96.9882 515.8612,98.2382 514.6112,99.4882 512.7362,100.1132 508.3612,100.1132"/>
    <polygon points="529.1339,75.5906 529.1339,75.5906 529.1339,75.5906 529.1339,75.5906"/>
    <polygon points="566.9291,75.5906 566.9291,75.5906 566.9291,75.5906 566.9291,75.5906"/>
    <polygon points="604.7244,75.5906 604.7244,75.5906 604.7244,75.5906 604.7244,75.5906"/>
    <polygon points="642.5197,75.5906 642.5197,75.5906 642.5197,75.5906 642.5197,75.5906"/>
    <polygon points="680.315,75.5906 680.315,75.5906 680.315,75.5906 680.315,75.5906"/>
    <polygon points="718.1102,75.5906 718.1102,75.5906 718.1102,75.5906 718.1102,75.5906"/>
    <polygon points="755.9055,75.5906 755.9055,113.3858 793.7008,113.3858 793.7008,75.5906"/>
    <line x1="777.3031" x2="777.3031" y1="86.9882" y2="100.1132"/>
    <polygon points="0.0,113.3858 0.0,113.3858 0.0,113.3858 0.0,113.3858"/>
    <polygon points="37.7953,113.3858 37.7953,151.1811 75.5906,151.1811 75.5906,113.3858"/>
    <polyline points="54.8179,124.7835 54.8179,134.1585 55.4429,136.0335 56.6929,137.2835 58.5679,137.9085 59.8179,137.9085 61.6929,137.2835 62.9429,136.0335 63.5679,134.1585 63.5679,124.7835"/>
    <polygon points="75.5906,113.3858 75.5906,113.3858 75.5906,113.3858 75.5906,113.3858"/>
    <polygon points="113.3858,113.3858 113.3858,151.1811 151.1811,151.1811 151.1811,113.3858"/>
    <line x1="127.9085" x2="132.9085" y1="124.7835" y2="137.9085"/>
    <line x1="137.9085" x2="132.9085" y1="124.7835" y2="137.9085"/>
    <polygon points="151.1811,113.3858 151.1811,113.3858 151.1811,113.3858 151.1811,113.3858"/>
    <polygon points="188.9764,113.3858 188.9764,113.3858 188.9764,113.3858 188.9764,113.3858"/>
    <polygon points="226.7717,113.3858 226.7717,113.3858 226.7717,113.3858 226.7717,113.3858"/>
    <polygon points="264.5669,113.3858 264.5669,151.1811 302.3622,151.1811 302.3622,113.3858"/>
    <polyline points="267.9567,117.0551 268.4567,116.8051 269.2067,116.0551 269.2067,121.3051"/>
    <polyline points="272.9567,117.0551 273.4567,116.8051 274.2067,116.0551 274.2067,121.3051"/>
    <polyline points="287.8396,124.7835 287.8396,134.7835 287.2146,136.6585 286.5896,137.2835 285.3396,137.9085 284.0896,137.9085 282.8396,137.2835 282.2146,136.6585 281.5896,134.7835 281.5896,133.5335"/>
    <polygon points="302.3622,113.3858 302.3622,113.3858 302.3622,113.3858 302.3622,113.3858"/>
    <polygon points="340.1575,113.3858 340.1575,151.1811 377.9528,151.1811 377.9528,113.3858"/>
    <polygon points="359.6801,124.7835 358.4301,125.4085 357.1801,126.6585 356.5551,127.9085 355.9301,129.7835 355.9301,132.9085 356.5551,134.7835 357.1801,136.0335 358.4301,137.2835 359.6801,137.9085 362.1801,137.9085 363.4301,137.2835 364.6801,136.0335 365.3051,134.7835 365.9301,132.9085 365.9301,129.7835 365.3051,127.9085 364.6801,126.6585 363.4301,125.4085 362.1801,124.7835"/>
    <polygon points="377.9528,113.3858 377.9528,113.3858 377.9528,113.3858 377.9528,113.3858"/>
    <polygon points="415.748,113.3858 415.748,113.3858 415.748,113.3858 415.748,113.3858"/>
    <polygon points="453.5433,113.3858 453.5433,151.1811 491.3386,151.1811 491.3386,113.3858"/>
    <line x1="474.9409" x2="474.9409" y1="124.7835" y2="137.9085"/>
    <polygon points="491.3386,113.3858 491.3386,113.3858 491.3386,113.3858 491.3386,113.3858"/>
    <polygon points="529.1339,113.3858 529.1339,151.1811 566.9291,151.1811 566.9291,113.3858"/>
    <polyline points="532.5236,117.0551 533.0236,116.8051 533.7736,116.0551 533.7736,121.3051"/>
    <polyline points="537.0236,117.3051 537.0236,117.0551 537.2736,116.5551 537.5236,116.3051 538.0236,116.0551 539.0236,116.0551 539.5236,116.3051 539.7736,116.5551 540.0236,117.0551 540.0236,117.5551 539.7736,118.0551 539.2736,118.8051 536.7736,121.3051 540.2736,121.3051"/>
    <polyline points="554.2815,126.6585 553.0315,125.4085 551.1565,124.7835 548.6565,124.7835 546.7815,125.4085 545.5315,126.6585 545.5315,127.9085 546.1565,129.1585 546.7815,129.7835 548.0315,130.4085 551.7815,131.6585 553.0315,132.2835 553.6565,132.9085 554.2815,134.1585 554.2815,136.0335 553.0315,137.2835 551.1565,137.9085 548.6565,137.9085 546.7815,137.2835 545.5315,136.0335"/>
    <polygon points="566.9291,113.3858 566.9291,113.3858 566.9291,113.3858 566.9291,113.3858"/>
    <polygon points="604.7244,113.3858 604.7244,113.3858 604.7244,113.3858 604.7244,113.3858"/>
    <polygon points="642.5197,113.3858 642.5197,113.3858 642.5197,113.3858 642.5197,113.3858"/>
    <polygon points="680.315,113.3858 680.315,113.3858 680.315,113.3858 680.315,113.3858"/>
    <polygon points="718.1102,113.3858 718.1102,151.1811 755.9055,151.1811 755.9055,113.3858"/>
    <polyline points="721.5,117.0551 722.0,116.8051 722.75,116.0551 722.75,121.3051"/>
    <polyline points="726.25,116.0551 729.0,116.0551 727.5,118.0551 728.25,118.0551 728.75,118.3051 729.0,118.5551 729.25,119.3051 729.25,119.8051 729.0,120.5551 728.5,121.0551 727.75,121.3051 727.0,121.3051 726.25,121.0551 726.0,120.8051 725.75,120.3051"/>
    <line x1="734.5079" x2="734.5079" y1="124.7835" y2="137.9085"/>
    <line x1="734.5079" x2="739.5079" y1="124.7835" y2="137.9085"/>
    <line x1="744.5079" x2="739.5079" y1="124.7835" y2="137.9085"/>
    <line x1="744.5079" x2="744.5079" y1="124.7835" y2="137.9085"/>
    <polygon points="755.9055,113.3858 755.9055,151.1811 793.7008,151.1811 793.7008,113.3858"/>
    <line x1="777.3031" x2="777.3031" y1="124.7835" y2="137.9085"/>
    <polygon points="0.0,151.1811 0.0,188.9764 37.7953,188.9764 37.7953,151.1811"/>
    <polyline points="25.1476,164.4537 23.8976,163.2037 22.0226,162.5787 19.5226,162.5787 17.6476,163.2037 16.3976,164.4537 16.3976,165.7037 17.0226,166.9537 17.6476,167.5787 18.8976,168.2037 22.6476,169.4537 23.8976,170.0787 24.5226,170.7037 25.1476,171.9537 25.1476,173.8287 23.8976,175.0787 22.0226,175.7037 19.5226,175.7037 17.6476,175.0787 16.3976,173.8287"/>
    <polygon points="37.7953,151.1811 37.7953,188.9764 75.5906,188.9764 75.5906,151.1811"/>
    <line x1="52.3179" x2="57.3179" y1="162.5787" y2="175.7037"/>
    <line x1="62.3179" x2="57.3179" y1="162.5787" y2="175.7037"/>
    <polygon points="75.5906,151.1811 75.5906,188.9764 113.3858,188.9764 113.3858,151.1811"/>
    <line x1="92.9257" x2="92.9257" y1="162.5787" y2="175.7037"/>
    <line x1="92.9257" x2="101.0507" y1="162.5787" y2="162.5787"/>
    <line x1="92.9257" x2="97.9257" y1="168.8287" y2="168.8287"/>
    <line x1="92.9257" x2="101.0507" y1="175.7037" y2="175.7037"/>
    <polygon points="113.3858,151.1811 113.3858,188.9764 151.1811,188.9764 151.1811,151.1811"/>
    <line x1="130.4085" x2="130.4085" y1="162.5787" y2="175.7037"/>
    <polyline points="130.4085,162.5787 136.0335,162.5787 137.9085,163.2037 138.5335,163.8287 139.1585,165.0787 139.1585,166.3287 138.5335,167.5787 137.9085,168.2037 136.0335,168.8287 130.4085,168.8287"/>
    <line x1="134.7835" x2="139.1585" y1="168.8287" y2="175.7037"/>
    <polygon points="151.1811,151.1811 151.1811,188.9764 188.9764,188.9764 188.9764,151.1811"/>
    <polyline points="176.3287,164.4537 175.0787,163.2037 173.2037,162.5787 170.7037,162.5787 168.8287,163.2037 167.5787,164.4537 167.5787,165.7037 168.2037,166.9537 168.8287,167.5787 170.0787,168.2037 173.8287,169.4537 175.0787,170.0787 175.7037,170.7037 176.3287,171.9537 176.3287,173.8287 175.0787,175.0787 173.2037,175.7037 170.7037,175.7037 168.8287,175.0787 167.5787,173.8287"/>
    <polygon points="188.9764,151.1811 188.9764,188.9764 226.7717,188.9764 226.7717,151.1811"/>
    <line x1="208.499" x2="208.499" y1="162.5787" y2="175.7037"/>
    <line x1="204.124" x2="212.874" y1="162.5787" y2="162.5787"/>
    <polygon points="226.7717,151.1811 226.7717,188.9764 264.5669,188.9764 264.5669,151.1811"/>
    <line x1="246.2943" x2="241.2943" y1="162.5787" y2="175.7037"/>
    <line x1="246.2943" x2="251.2943" y1="162.5787" y2="175.7037"/>
    <line x1="243.1693" x2="249.4193" y1="171.3287" y2="171.3287"/>
    <polygon points="264.5669,151.1811 264.5669,188.9764 302.3622,188.9764 302.3622,151.1811"/>
    <line x1="281.5896" x2="281.5896" y1="162.5787" y2="175.7037"/>
    <line x1="281.5896" x2="290.3396" y1="162.5787" y2="175.7037"/>
    <line x1="290.3396" x2="290.3396" y1="162.5787" y2="175.7037"/>
    <polygon points="302.3622,151.1811 302.3622,188.9764 340.1575,188.9764 340.1575,151.1811"/>
    <line x1="319.3848" x2="319.3848" y1="162.5787" y2="175.7037"/>
    <polyline points="319.3848,162.5787 323.7598,162.5787 325.6348,163.2037 326.8848,164.4537 327.5098,165.7037 328.1348,167.5787 328.1348,170.7037 327.5098,172.5787 326.8848,173.8287 325.6348,175.0787 323.7598,175.7037 319.3848,175.7037"/>
    <polygon points="340.1575,151.1811 340.1575,151.1811 340.1575,151.1811 340.1575,151.1811"/>
    <polygon points="377.9528,151.1811 377.9528,188.9764 415.748,188.9764 415.748,151.1811"/>
    <polyline points="381.3425,154.8504 381.8425,154.6004 382.5925,153.8504 382.5925,159.1004"/>
    <polyline points="388.0925,153.8504 385.5925,157.3504 389.3425,157.3504"/>
    <line x1="388.0925" x2="388.0925" y1="153.8504" y2="159.1004"/>
    <line x1="395.6004" x2="395.6004" y1="162.5787" y2="175.7037"/>
    <line x1="395.6004" x2="403.1004" y1="175.7037" y2="175.7037"/>
    <polygon points="415.748,151.1811 415.748,188.9764 453.5433,188.9764 453.5433,151.1811"/>
    <polygon points="435.2707,162.5787 434.0207,163.2037 432.7707,164.4537 432.1457,165.7037 431.5207,167.5787 431.5207,170.7037 432.1457,172.5787 432.7707,173.8287 434.0207,175.0787 435.2707,175.7037 437.7707,175.7037 439.0207,175.0787 440.2707,173.8287 440.8957,172.5787 441.5207,170.7037 441.5207,167.5787 440.8957,165.7037 440.2707,164.4537 439.0207,163.2037 437.7707,162.5787"/>
    <polygon points="453.5433,151.1811 453.5433,188.9764 491.3386,188.9764 491.3386,151.1811"/>
    <line x1="473.0659" x2="473.0659" y1="162.5787" y2="175.7037"/>
    <line x1="468.6909" x2="477.4409" y1="162.5787" y2="162.5787"/>
    <polygon points="491.3386,151.1811 491.3386,188.9764 529.1339,188.9764 529.1339,151.1811"/>
    <line x1="510.8612" x2="510.8612" y1="162.5787" y2="175.7037"/>
    <line x1="506.4862" x2="515.2362" y1="162.5787" y2="162.5787"/>
    <polygon points="529.1339,151.1811 529.1339,188.9764 566.9291,188.9764 566.9291,151.1811"/>
    <line x1="546.469" x2="546.469" y1="162.5787" y2="175.7037"/>
    <line x1="546.469" x2="554.594" y1="162.5787" y2="162.5787"/>
    <line x1="546.469" x2="551.469" y1="168.8287" y2="168.8287"/>
    <line x1="546.469" x2="554.594" y1="175.7037" y2="175.7037"/>
    <polygon points="566.9291,151.1811 566.9291,151.1811 566.9291,151.1811 566.9291,151.1811"/>
    <polygon points="604.7244,151.1811 604.7244,151.1811 604.7244,151.1811 604.7244,151.1811"/>
    <polygon points="642.5197,151.1811 642.5197,151.1811 642.5197,151.1811 642.5197,151.1811"/>
    <polygon points="680.315,151.1811 680.315,188.9764 718.1102,188.9764 718.1102,151.1811"/>
    <polygon points="699.8376,162.5787 698.5876,163.2037 697.3376,164.4537 696.7126,165.7037 696.0876,167.5787 696.0876,170.7037 696.7126,172.5787 697.3376,173.8287 698.5876,175.0787 699.8376,175.7037 702.3376,175.7037 703.5876,175.0787 704.8376,173.8287 705.4626,172.5787 706.0876,170.7037 706.0876,167.5787 705.4626,165.7037 704.8376,164.4537 703.5876,163.2037 702.3376,162.5787"/>
    <polygon points="718.1102,151.1811 718.1102,151.1811 718.1102,151.1811 718.1102,151.1811"/>
    <polygon points="755.9055,151.1811 755.9055,151.1811 755.9055,151.1811 755.9055,151.1811"/>
    <polygon points="0.0,188.9764 0.0,188.9764 0.0,188.9764 0.0,188.9764"/>
    <polygon points="37.7953,188.9764 37.7953,226.7717 75.5906,226.7717 75.5906,188.9764"/>
    <line x1="54.8179" x2="54.8179" y1="200.374" y2="213.499"/>
    <polyline points="54.8179,200.374 60.4429,200.374 62.3179,200.999 62.9429,201.624 63.5679,202.874 63.5679,204.124 62.9429,205.374 62.3179,205.999 60.4429,206.624 54.8179,206.624"/>
    <line x1="59.1929" x2="63.5679" y1="206.624" y2="213.499"/>
    <polygon points="75.5906,188.9764 75.5906,188.9764 75.5906,188.9764 75.5906,188.9764"/>
    <polygon points="113.3858,188.9764 113.3858,188.9764 113.3858,188.9764 113.3858,188.9764"/>
    <polygon points="151.1811,188.9764 151.1811,188.9764 151.1811,188.9764 151.1811,188.9764"/>
    <polygon points="188.9764,188.9764 188.9764,188.9764 188.9764,188.9764 188.9764,188.9764"/>
    <polygon points="226.7717,188.9764 226.7717,188.9764 226.7717,188.9764 226.7717,188.9764"/>
    <polygon points="264.5669,188.9764 264.5669,188.9764 264.5669,188.9764 264.5669,188.9764"/>
    <polygon points="302.3622,188.9764 302.3622,188.9764 302.3622,188.9764 302.3622,188.9764"/>
    <polygon points="340.1575,188.9764 340.1575,226.7717 377.9528,226.7717 377.9528,188.9764"/>
    <line x1="361.5551" x2="361.5551" y1="200.374" y2="213.499"/>
    <polygon points="377.9528,188.9764 377.9528,188.9764 377.9528,188.9764 377.9528,188.9764"/>
    <polygon points="415.748,188.9764 415.748,188.9764 415.748,188.9764 415.748,188.9764"/>
    <polygon points="453.5433,188.9764 453.5433,226.7717 491.3386,226.7717 491.3386,188.9764"/>
    <line x1="470.8784" x2="470.8784" y1="200.374" y2="213.499"/>
    <line x1="470.8784" x2="479.0034" y1="200.374" y2="200.374"/>
    <line x1="470.8784" x2="475.8784" y1="206.624" y2="206.624"/>
    <line x1="470.8784" x2="479.0034" y1="213.499" y2="213.499"/>
    <polygon points="491.3386,188.9764 491.3386,188.9764 491.3386,188.9764 491.3386,188.9764"/>
    <polygon points="529.1339,188.9764 529.1339,188.9764 529.1339,188.9764 529.1339,188.9764"/>
    <polygon points="566.9291,188.9764 566.9291,226.7717 604.7244,226.7717 604.7244,188.9764"/>
    <polyline points="570.3189,192.6457 570.8189,192.3957 571.5689,191.6457 571.5689,196.8957"/>
    <polyline points="577.5689,191.6457 575.0689,191.6457 574.8189,193.8957 575.0689,193.6457 575.8189,193.3957 576.5689,193.3957 577.3189,193.6457 577.8189,194.1457 578.0689,194.8957 578.0689,195.3957 577.8189,196.1457 577.3189,196.6457 576.5689,196.8957 575.8189,196.8957 575.0689,196.6457 574.8189,196.3957 574.5689,195.8957"/>
    <line x1="592.0768" x2="583.3268" y1="200.374" y2="213.499"/>
    <line x1="583.3268" x2="592.0768" y1="200.374" y2="200.374"/>
    <line x1="583.3268" x2="592.0768" y1="213.499" y2="213.499"/>
    <polygon points="604.7244,188.9764 604.7244,226.7717 642.5197,226.7717 642.5197,188.9764"/>
    <polygon points="624.247,200.374 622.997,200.999 621.747,202.249 621.122,203.499 620.497,205.374 620.497,208.499 621.122,210.374 621.747,211.624 622.997,212.874 624.247,213.499 626.747,213.499 627.997,212.874 629.247,211.624 629.872,210.374 630.497,208.499 630.497,205.374 629.872,203.499 629.247,202.249 627.997,200.999 626.747,200.374"/>
    <polygon points="642.5197,188.9764 642.5197,226.7717 680.315,226.7717 680.315,188.9764"/>
    <line x1="659.5423" x2="659.5423" y1="200.374" y2="213.499"/>
    <line x1="659.5423" x2="668.2923" y1="200.374" y2="213.499"/>
    <line x1="668.2923" x2="668.2923" y1="200.374" y2="213.499"/>
    <polygon points="680.315,188.9764 680.315,188.9764 680.315,188.9764 680.315,188.9764"/>
    <polygon points="718.1102,188.9764 718.1102,226.7717 755.9055,226.7717 755.9055,188.9764"/>
    <polyline points="721.5,192.6457 722.0,192.3957 722.75,191.6457 722.75,196.8957"/>
    <polyline points="729.0,192.3957 728.75,191.8957 728.0,191.6457 727.5,191.6457 726.75,191.8957 726.25,192.6457 726.0,193.8957 726.0,195.1457 726.25,196.1457 726.75,196.6457 727.5,196.8957 727.75,196.8957 728.5,196.6457 729.0,196.1457 729.25,195.3957 729.25,195.1457 729.0,194.3957 728.5,193.8957 727.75,193.6457 727.5,193.6457 726.75,193.8957 726.25,194.3957 726.0,195.1457"/>
    <polyline points="735.1329,200.374 735.1329,209.749 735.7579,211.624 737.0079,212.874 738.8829,213.499 740.1329,213.499 742.0079,212.874 743.2579,211.624 743.8829,209.749 743.8829,200.374"/>
    <polygon points="755.9055,188.9764 755.9055,226.7717 793.7008,226.7717 793.7008,188.9764"/>
    <line x1="777.3031" x2="777.3031" y1="200.374" y2="213.499"/>
    <polygon points="0.0,226.7717 0.0,264.5669 37.7953,264.5669 37.7953,226.7717"/>
    <line x1="19.5226" x2="19.5226" y1="238.1693" y2="251.2943"/>
    <line x1="15.1476" x2="23.8976" y1="238.1693" y2="238.1693"/>
    <polygon points="37.7953,226.7717 37.7953,264.5669 75.5906,264.5669 75.5906,226.7717"/>
    <line x1="55.4429" x2="55.4429" y1="238.1693" y2="251.2943"/>
    <line x1="55.4429" x2="62.9429" y1="251.2943" y2="251.2943"/>
    <polygon points="75.5906,226.7717 75.5906,264.5669 113.3858,264.5669 113.3858,226.7717"/>
    <line x1="96.9882" x2="96.9882" y1="238.1693" y2="251.2943"/>
    <polygon points="113.3858,226.7717 113.3858,264.5669 151.1811,264.5669 151.1811,226.7717"/>
    <line x1="130.4085" x2="130.4085" y1="238.1693" y2="251.2943"/>
    <line x1="139.1585" x2="130.4085" y1="238.1693" y2="246.9193"/>
    <line x1="133.5335" x2="139.1585" y1="243.7943" y2="251.2943"/>
    <polygon points="151.1811,226.7717 151.1811,264.5669 188.9764,264.5669 188.9764,226.7717"/>
    <line x1="168.2037" x2="168.2037" y1="238.1693" y2="251.2943"/>
    <line x1="176.9537" x2="168.2037" y1="238.1693" y2="246.9193"/>
    <line x1="171.3287" x2="176.9537" y1="243.7943" y2="251.2943"/>
    <polygon points="188.9764,226.7717 188.9764,264.5669 226.7717,264.5669 226.7717,226.7717"/>
    <line x1="206.3115" x2="206.3115" y1="238.1693" y2="251.2943"/>
    <line x1="206.3115" x2="214.4365" y1="238.1693" y2="238.1693"/>
    <line x1="206.3115" x2="211.3115" y1="244.4193" y2="244.4193"/>
    <line x1="206.3115" x2="214.4365" y1="251.2943" y2="251.2943"/>
    <polygon points="226.7717,226.7717 226.7717,264.5669 264.5669,264.5669 264.5669,226.7717"/>
    <line x1="243.7943" x2="243.7943" y1="238.1693" y2="251.2943"/>
    <line x1="243.7943" x2="252.5443" y1="238.1693" y2="251.2943"/>
    <line x1="252.5443" x2="252.5443" y1="238.1693" y2="251.2943"/>
    <polygon points="264.5669,226.7717 264.5669,226.7717 264.5669,226.7717 264.5669,226.7717"/>
    <polygon points="302.3622,226.7717 302.3622,264.5669 340.1575,264.5669 340.1575,226.7717"/>
    <line x1="319.6973" x2="319.6973" y1="238.1693" y2="251.2943"/>
    <line x1="319.6973" x2="327.8223" y1="238.1693" y2="238.1693"/>
    <line x1="319.6973" x2="324.6973" y1="244.4193" y2="244.4193"/>
    <polygon points="340.1575,226.7717 340.1575,226.7717 340.1575,226.7717 340.1575,226.7717"/>
    <polygon points="377.9528,226.7717 377.9528,264.5669 415.748,264.5669 415.748,226.7717"/>
    <polyline points="381.3425,230.4409 381.8425,230.1909 382.5925,229.4409 382.5925,234.6909"/>
    <line x1="389.0925" x2="386.5925" y1="229.4409" y2="234.6909"/>
    <line x1="385.5925" x2="389.0925" y1="229.4409" y2="229.4409"/>
    <line x1="394.9754" x2="394.9754" y1="238.1693" y2="251.2943"/>
    <polyline points="394.9754,238.1693 399.3504,238.1693 401.2254,238.7943 402.4754,240.0443 403.1004,241.2943 403.7254,243.1693 403.7254,246.2943 403.1004,248.1693 402.4754,249.4193 401.2254,250.6693 399.3504,251.2943 394.9754,251.2943"/>
    <polygon points="415.748,226.7717 415.748,264.5669 453.5433,264.5669 453.5433,226.7717"/>
    <line x1="432.7707" x2="432.7707" y1="238.1693" y2="251.2943"/>
    <polyline points="432.7707,238.1693 438.3957,238.1693 440.2707,238.7943 440.8957,239.4193 441.5207,240.6693 441.5207,241.9193 440.8957,243.1693 440.2707,243.7943 438.3957,244.4193 432.7707,244.4193"/>
    <line x1="437.1457" x2="441.5207" y1="244.4193" y2="251.2943"/>
    <polygon points="453.5433,226.7717 453.5433,264.5669 491.3386,264.5669 491.3386,226.7717"/>
    <polygon points="473.0659,238.1693 471.8159,238.7943 470.5659,240.0443 469.9409,241.2943 469.3159,243.1693 469.3159,246.2943 469.9409,248.1693 470.5659,249.4193 471.8159,250.6693 473.0659,251.2943 475.5659,251.2943 476.8159,250.6693 478.0659,249.4193 478.6909,248.1693 479.3159,246.2943 479.3159,243.1693 478.6909,241.2943 478.0659,240.0443 476.8159,238.7943 475.5659,238.1693"/>
    <polygon points="491.3386,226.7717 491.3386,264.5669 529.1339,264.5669 529.1339,226.7717"/>
    <line x1="508.3612" x2="508.3612" y1="238.1693" y2="251.2943"/>
    <polyline points="508.3612,238.1693 513.9862,238.1693 515.8612,238.7943 516.4862,239.4193 517.1112,240.6693 517.1112,242.5443 516.4862,243.7943 515.8612,244.4193 513.9862,245.0443 508.3612,245.0443"/>
    <polygon points="529.1339,226.7717 529.1339,226.7717 529.1339,226.7717 529.1339,226.7717"/>
    <polygon points="566.9291,226.7717 566.9291,226.7717 566.9291,226.7717 566.9291,226.7717"/>
    <polygon points="604.7244,226.7717 604.7244,226.7717 604.7244,226.7717 604.7244,226.7717"/>
    <polygon points="642.5197,226.7717 642.5197,226.7717 642.5197,226.7717 642.5197,226.7717"/>
    <polygon points="680.315,226.7717 680.315,226.7717 680.315,226.7717 680.315,226.7717"/>
    <polygon points="718.1102,226.7717 718.1102,226.7717 718.1102,226.7717 718.1102,226.7717"/>
    <polygon points="755.9055,226.7717 755.9055,264.5669 793.7008,264.5669 793.7008,226.7717"/>
    <polyline points="779.1781,238.1693 779.1781,248.1693 778.5531,250.0443 777.9281,250.6693 776.6781,251.2943 775.4281,251.2943 774.1781,250.6693 773.5531,250.0443 772.9281,248.1693 772.9281,246.9193"/>
    <polygon points="0.0,264.5669 0.0,264.5669 0.0,264.5669 0.0,264.5669"/>
    <polygon points="37.7953,264.5669 37.7953,264.5669 37.7953,264.5669 37.7953,264.5669"/>
    <polygon points="75.5906,264.5669 75.5906,264.5669 75.5906,264.5669 75.5906,264.5669"/>
    <polygon points="113.3858,264.5669 113.3858,264.5669 113.3858,264.5669 113.3858,264.5669"/>
    <polygon points="151.1811,264.5669 151.1811,264.5669 151.1811,264.5669 151.1811,264.5669"/>
    <polygon points="188.9764,264.5669 188.9764,264.5669 188.9764,264.5669 188.9764,264.5669"/>
    <polygon points="226.7717,264.5669 226.7717,264.5669 226.7717,264.5669 226.7717,264.5669"/>
    <polygon points="264.5669,264.5669 264.5669,302.3622 302.3622,302.3622 302.3622,264.5669"/>
    <line x1="284.0896" x2="284.0896" y1="275.9646" y2="289.0896"/>
    <line x1="279.7146" x2="288.4646" y1="275.9646" y2="275.9646"/>
    <polygon points="302.3622,264.5669 302.3622,264.5669 302.3622,264.5669 302.3622,264.5669"/>
    <polygon points="340.1575,264.5669 340.1575,264.5669 340.1575,264.5669 340.1575,264.5669"/>
    <polygon points="377.9528,264.5669 377.9528,264.5669 377.9528,264.5669 377.9528,264.5669"/>
    <polygon points="415.748,264.5669 415.748,264.5669 415.748,264.5669 415.748,264.5669"/>
    <polygon points="453.5433,264.5669 453.5433,264.5669 453.5433,264.5669 453.5433,264.5669"/>
    <polygon points="491.3386,264.5669 491.3386,264.5669 491.3386,264.5669 491.3386,264.5669"/>
    <polygon points="529.1339,264.5669 529.1339,264.5669 529.1339,264.5669 529.1339,264.5669"/>
    <polygon points="566.9291,264.5669 566.9291,264.5669 566.9291,264.5669 566.9291,264.5669"/>
    <polygon points="604.7244,264.5669 604.7244,264.5669 604.7244,264.5669 604.7244,264.5669"/>
    <polygon points="642.5197,264.5669 642.5197,264.5669 642.5197,264.5669 642.5197,264.5669"/>
    <polygon points="680.315,264.5669 680.315,302.3622 718.1102,302.3622 718.1102,264.5669"/>
    <polyline points="683.7047,268.2362 684.2047,267.9862 684.9547,267.2362 684.9547,272.4862"/>
    <polygon points="689.2047,267.2362 688.4547,267.4862 688.2047,267.9862 688.2047,268.4862 688.4547,268.9862 688.9547,269.2362 689.9547,269.4862 690.7047,269.7362 691.2047,270.2362 691.4547,270.7362 691.4547,271.4862 691.2047,271.9862 690.9547,272.2362 690.2047,272.4862 689.2047,272.4862 688.4547,272.2362 688.2047,271.9862 687.9547,271.4862 687.9547,270.7362 688.2047,270.2362 688.7047,269.7362 689.4547,269.4862 690.4547,269.2362 690.9547,268.9862 691.2047,268.4862 691.2047,267.9862 690.9547,267.4862 690.2047,267.2362"/>
    <line x1="697.3376" x2="697.3376" y1="275.9646" y2="289.0896"/>
    <polyline points="697.3376,275.9646 702.9626,275.9646 704.8376,276.5896 705.4626,277.2146 706.0876,278.4646 706.0876,279.7146 705.4626,280.9646 704.8376,281.5896 702.9626,282.2146 697.3376,282.2146"/>
    <line x1="701.7126" x2="706.0876" y1="282.2146" y2="289.0896"/>
    <polygon points="718.1102,264.5669 718.1102,302.3622 755.9055,302.3622 755.9055,264.5669"/>
    <line x1="735.4454" x2="735.4454" y1="275.9646" y2="289.0896"/>
    <line x1="735.4454" x2="743.5704" y1="275.9646" y2="275.9646"/>
    <line x1="735.4454" x2="740.4454" y1="282.2146" y2="282.2146"/>
    <line x1="735.4454" x2="743.5704" y1="289.0896" y2="289.0896"/>
    <polygon points="755.9055,264.5669 755.9055,302.3622 793.7008,302.3622 793.7008,264.5669"/>
    <line x1="772.9281" x2="772.9281" y1="275.9646" y2="289.0896"/>
    <line x1="781.6781" x2="772.9281" y1="275.9646" y2="284.7146"/>
    <line x1="776.0531" x2="781.6781" y1="281.5896" y2="289.0896"/>
    <polygon points="0.0,302.3622 0.0,340.1575 37.7953,340.1575 37.7953,302.3622"/>
    <line x1="17.0226" x2="17.0226" y1="313.7598" y2="326.8848"/>
    <line x1="25.7726" x2="17.0226" y1="313.7598" y2="322.5098"/>
    <line x1="20.1476" x2="25.7726" y1="319.3848" y2="326.8848"/>
    <polygon points="37.7953,302.3622 37.7953,340.1575 75.5906,340.1575 75.5906,302.3622"/>
    <line x1="55.1304" x2="55.1304" y1="313.7598" y2="326.8848"/>
    <line x1="55.1304" x2="63.2554" y1="313.7598" y2="313.7598"/>
    <line x1="55.1304" x2="60.1304" y1="320.0098" y2="320.0098"/>
    <line x1="55.1304" x2="63.2554" y1="326.8848" y2="326.8848"/>
    <polygon points="75.5906,302.3622 75.5906,340.1575 113.3858,340.1575 113.3858,302.3622"/>
    <line x1="92.6132" x2="92.6132" y1="313.7598" y2="326.8848"/>
    <polyline points="92.6132,313.7598 98.2382,313.7598 100.1132,314.3848 100.7382,315.0098 101.3632,316.2598 101.3632,317.5098 100.7382,318.7598 100.1132,319.3848 98.2382,320.0098 92.6132,320.0098"/>
    <line x1="96.9882" x2="101.3632" y1="320.0098" y2="326.8848"/>
    <polygon points="113.3858,302.3622 113.3858,340.1575 151.1811,340.1575 151.1811,302.3622"/>
    <line x1="132.9085" x2="132.9085" y1="313.7598" y2="326.8848"/>
    <line x1="128.5335" x2="137.2835" y1="313.7598" y2="313.7598"/>
    <polygon points="151.1811,302.3622 151.1811,340.1575 188.9764,340.1575 188.9764,302.3622"/>
    <polyline points="174.4537,313.7598 174.4537,323.7598 173.8287,325.6348 173.2037,326.2598 171.9537,326.8848 170.7037,326.8848 169.4537,326.2598 168.8287,325.6348 168.2037,323.7598 168.2037,322.5098"/>
    <polygon points="188.9764,302.3622 188.9764,340.1575 226.7717,340.1575 226.7717,302.3622"/>
    <line x1="206.3115" x2="206.3115" y1="313.7598" y2="326.8848"/>
    <line x1="206.3115" x2="214.4365" y1="313.7598" y2="313.7598"/>
    <line x1="206.3115" x2="211.3115" y1="320.0098" y2="320.0098"/>
    <line x1="206.3115" x2="214.4365" y1="326.8848" y2="326.8848"/>
    <polygon points="226.7717,302.3622 226.7717,302.3622 226.7717,302.3622 226.7717,302.3622"/>
    <polygon points="264.5669,302.3622 264.5669,302.3622 264.5669,302.3622 264.5669,302.3622"/>
    <polygon points="302.3622,302.3622 302.3622,302.3622 302.3622,302.3622 302.3622,302.3622"/>
    <polygon points="340.1575,302.3622 340.1575,302.3622 340.1575,302.3622 340.1575,302.3622"/>
    <polygon points="377.9528,302.3622 377.9528,302.3622 377.9528,302.3622 377.9528,302.3622"/>
    <polygon points="415.748,302.3622 415.748,302.3622 415.748,302.3622 415.748,302.3622"/>
    <polygon points="453.5433,302.3622 453.5433,302.3622 453.5433,302.3622 453.5433,302.3622"/>
    <polygon points="491.3386,302.3622 491.3386,302.3622 491.3386,302.3622 491.3386,302.3622"/>
    <polygon points="529.1339,302.3622 529.1339,302.3622 529.1339,302.3622 529.1339,302.3622"/>
    <polygon points="566.9291,302.3622 566.9291,302.3622 566.9291,302.3622 566.9291,302.3622"/>
    <polygon points="604.7244,302.3622 604.7244,302.3622 604.7244,302.3622 604.7244,302.3622"/>
    <polygon points="642.5197,302.3622 642.5197,302.3622 642.5197,302.3622 642.5197,302.3622"/>
    <polygon points="680.315,302.3622 680.315,302.3622 680.315,302.3622 680.315,302.3622"/>
    <polygon points="718.1102,302.3622 718.1102,302.3622 718.1102,302.3622 718.1102,302.3622"/>
    <polygon points="755.9055,302.3622 755.9055,302.3622 755.9055,302.3622 755.9055,302.3622"/>
  </g>
</svg>
