<?xml version="1.0" encoding="utf-8" ?>
<svg xmlns="http://www.w3.org/2000/svg" xmlns:cc="http://creativecommons.org/ns" xmlns:dc="http://purl.org/dc/elements/1.1/" xmlns:ev="http://www.w3.org/2001/xml-events" xmlns:inkscape="http://www.inkscape.org/namespaces/inkscape" xmlns:rdf="http://www.w3.org/1999/02/22-rdf-syntax-ns" xmlns:sodipodi="http://sodipodi.sourceforge.net/DTD/sodipodi-0.dtd" xmlns:xlink="http://www.w3.org/1999/xlink" baseProfile="tiny" height="9.9cm" version="1.2" viewBox="0 0 793.7007874015749 374.1732283464567" width="21.0cm">
  <metadata>
    <rdf:RDF>
      <cc:Work>
        <dc:format>image/svg+xml</dc:format>
        <dc:source>vpype eval 'cell=10;width=210;height=99' eval 'nCols=20;nRows=9' eval 'cells=[8,9,10,11,12,13,14,15,16,24,25,26,27,33,35,41,43,47,49,50,51,52,53,54,55,56,57,61,63,67,73,75,81,83,86,87,88,89,90,91,92,93,95,97,101,102,103,104,107,113,116,117,118,119,121,123,127,128,129,130,131,132,133,134,135,137,141,143,147,153,157,160,161,162,163,164,165,166,167,170,171,172,173,174,175,176,177,178]' eval 'chars=[&quot;U&quot;,&quot;I&quot;,&quot;T&quot;,&quot;L&quot;,&quot;I&quot;,&quot;K&quot;,&quot;K&quot;,&quot;E&quot;,&quot;N&quot;,&quot;D&quot;,&quot;R&quot;,&quot;O&quot;,&quot;P&quot;,&quot;L&quot;,&quot;L&quot;,&quot;V&quot;,&quot;C&quot;,&quot;A&quot;,&quot;M&quot;,&quot;A&quot;,&quot;N&quot;,&quot;D&quot;,&quot;A&quot;,&quot;R&quot;,&quot;I&quot;,&quot;J&quot;,&quot;N&quot;,&quot;E&quot;,&quot;E&quot;,&quot;R&quot;,&quot;V&quot;,&quot;S&quot;,&quot;L&quot;,&quot;L&quot;,&quot;S&quot;,&quot;K&quot;,&quot;E&quot;,&quot;L&quot;,&quot;L&quot;,&quot;E&quot;,&quot;K&quot;,&quot;E&quot;,&quot;E&quot;,&quot;R&quot;,&quot;L&quot;,&quot;E&quot;,&quot;E&quot;,&quot;N&quot;,&quot;E&quot;,&quot;R&quot;,&quot;H&quot;,&quot;A&quot;,&quot;N&quot;,&quot;S&quot;,&quot;E&quot;,&quot;S&quot;,&quot;R&quot;,&quot;E&quot;,&quot;K&quot;,&quot;K&quot;,&quot;E&quot;,&quot;R&quot;,&quot;T&quot;,&quot;J&quot;,&quot;E&quot;,&quot;D&quot;,&quot;K&quot;,&quot;T&quot;,&quot;E&quot;,&quot;J&quot;,&quot;I&quot;,&quot;T&quot;,&quot;E&quot;,&quot;L&quot;,&quot;E&quot;,&quot;F&quot;,&quot;O&quot;,&quot;O&quot;,&quot;N&quot;,&quot;R&quot;,&quot;E&quot;,&quot;G&quot;,&quot;E&quot;,&quot;N&quot;,&quot;B&quot;,&quot;O&quot;,&quot;O&quot;,&quot;G&quot;]' eval 'numbers=[8,13,15,24,27,41,43,49,86,97,101,116,127,160,170]' eval counter=1 eval charIndex=0 begin grid -o '%cell*mm%' '%cell*mm%' %nCols% %nRows% eval '%isCell=_i in cells%' eval '%number=_i in numbers%' eval '%size=10 if isCell else 0%' rect 0 0 '%size*mm%' '%size*mm%' text -s 10 -p 0.5mm 1.5mm '%counter if number else '&quot;'&quot;''&quot;'&quot;'%' text -s 20 -p 5mm 5mm -a center '%chars[charIndex] if isCell else '&quot;'&quot;''&quot;'&quot;'%' eval '%if number: counter+=1 %' eval '%if isCell: charIndex+=1 %' end splitall deduplicate linemerge --tolerance 0.1mm write -m none --page-size '%width*mm%x%height*mm%' --center ./svgs/solution/78bc4b.svg
</dc:source>
        <dc:date>2023-12-29T10:02:44.994809</dc:date>
      </cc:Work>
    </rdf:RDF>
  </metadata>
  <defs/>
  <g fill="none" id="layer1" inkscape:groupmode="layer" inkscape:label="1" stroke="#000000" style="display:inline">
    <polygon points="321.2598,17.0079 321.2598,54.8031 321.2598,54.8031 359.0551,54.8031 359.0551,54.8031 396.8504,54.8031 396.8504,54.8031 434.6457,54.8031 434.6457,54.8031 434.6457,17.0079 434.6457,17.0079 396.8504,17.0079 396.8504,17.0079 359.0551,17.0079 359.0551,17.0079"/>
    <line x1="359.0551" x2="359.0551" y1="54.8031" y2="17.0079"/>
    <polyline points="325.0246,20.1772 325.6496,19.8647 325.6496,19.8647 326.5871,18.9272 326.5871,18.9272 326.5871,25.4897"/>
    <polyline points="338.2825,28.4055 338.2825,37.7805 338.2825,37.7805 338.9075,39.6555 338.9075,39.6555 340.1575,40.9055 340.1575,40.9055 342.0325,41.5305 342.0325,41.5305 343.2825,41.5305 343.2825,41.5305 345.1575,40.9055 345.1575,40.9055 346.4075,39.6555 346.4075,39.6555 347.0325,37.7805 347.0325,37.7805 347.0325,28.4055"/>
    <line x1="396.8504" x2="396.8504" y1="54.8031" y2="17.0079"/>
    <line x1="380.4528" x2="380.4528" y1="28.4055" y2="41.5305"/>
    <line x1="416.373" x2="416.373" y1="28.4055" y2="41.5305"/>
    <line x1="411.998" x2="420.748" y1="28.4055" y2="28.4055"/>
    <polyline points="434.6457,54.8031 472.4409,54.8031 472.4409,54.8031 472.4409,17.0079 472.4409,17.0079 434.6457,17.0079"/>
    <polyline points="452.2933,28.4055 452.2933,41.5305 452.2933,41.5305 459.7933,41.5305"/>
    <polyline points="472.4409,54.8031 510.2362,54.8031 510.2362,54.8031 510.2362,17.0079 510.2362,17.0079 472.4409,17.0079"/>
    <line x1="493.8386" x2="493.8386" y1="28.4055" y2="41.5305"/>
    <polyline points="434.6457,92.5984 434.6457,130.3937 434.6457,130.3937 396.8504,130.3937 396.8504,130.3937 359.0551,130.3937 359.0551,130.3937 359.0551,92.5984 359.0551,92.5984 396.8504,92.5984 396.8504,92.5984 434.6457,92.5984 434.6457,92.5984 472.4409,92.5984 472.4409,92.5984 510.2362,92.5984 510.2362,92.5984 510.2362,54.8031 510.2362,54.8031 548.0315,54.8031 548.0315,54.8031 585.8268,54.8031 585.8268,54.8031 585.8268,17.0079 585.8268,17.0079 548.0315,17.0079 548.0315,17.0079 510.2362,17.0079"/>
    <polyline points="207.874,54.8031 207.874,92.5984 207.874,92.5984 170.0787,92.5984 170.0787,92.5984 170.0787,130.3937 170.0787,130.3937 132.2835,130.3937 132.2835,130.3937 132.2835,92.5984 132.2835,92.5984 170.0787,92.5984 170.0787,92.5984 170.0787,54.8031 170.0787,54.8031 207.874,54.8031 207.874,54.8031 245.6693,54.8031 245.6693,54.8031 283.4646,54.8031 283.4646,54.8031 321.2598,54.8031 321.2598,54.8031 321.2598,92.5984 321.2598,92.5984 321.2598,130.3937 321.2598,130.3937 321.2598,168.189 321.2598,168.189 359.0551,168.189 359.0551,168.189 396.8504,168.189 396.8504,168.189 434.6457,168.189 434.6457,168.189 472.4409,168.189 472.4409,168.189 510.2362,168.189 510.2362,168.189 548.0315,168.189 548.0315,168.189 548.0315,130.3937 548.0315,130.3937 510.2362,130.3937 510.2362,130.3937 510.2362,92.5984 510.2362,92.5984 548.0315,92.5984 548.0315,92.5984 585.8268,92.5984 585.8268,92.5984 585.8268,130.3937 585.8268,130.3937 548.0315,130.3937 548.0315,130.3937 548.0315,92.5984 548.0315,92.5984 548.0315,54.8031 548.0315,54.8031 548.0315,17.0079"/>
    <polyline points="513.376,20.4897 513.376,20.1772 513.376,20.1772 513.6885,19.5522 513.6885,19.5522 514.001,19.2397 514.001,19.2397 514.626,18.9272 514.626,18.9272 515.876,18.9272 515.876,18.9272 516.501,19.2397 516.501,19.2397 516.8135,19.5522 516.8135,19.5522 517.126,20.1772 517.126,20.1772 517.126,20.8022 517.126,20.8022 516.8135,21.4272 516.8135,21.4272 516.1885,22.3647 516.1885,22.3647 513.0635,25.4897 513.0635,25.4897 517.4385,25.4897"/>
    <line x1="527.2589" x2="527.2589" y1="28.4055" y2="41.5305"/>
    <line x1="536.0089" x2="527.2589" y1="28.4055" y2="37.1555"/>
    <line x1="530.3839" x2="536.0089" y1="34.0305" y2="41.5305"/>
    <line x1="565.0541" x2="565.0541" y1="28.4055" y2="41.5305"/>
    <line x1="573.8041" x2="565.0541" y1="28.4055" y2="37.1555"/>
    <line x1="568.1791" x2="573.8041" y1="34.0305" y2="41.5305"/>
    <polyline points="623.622,17.0079 661.4173,17.0079 661.4173,17.0079 661.4173,54.8031 661.4173,54.8031 623.622,54.8031 623.622,54.8031 623.622,92.5984 623.622,92.5984 585.8268,92.5984 585.8268,92.5984 585.8268,54.8031 585.8268,54.8031 623.622,54.8031 623.622,54.8031 623.622,17.0079 623.622,17.0079 585.8268,17.0079"/>
    <polyline points="589.279,18.9272 592.7165,18.9272 592.7165,18.9272 590.8415,21.4272 590.8415,21.4272 591.779,21.4272 591.779,21.4272 592.404,21.7397 592.404,21.7397 592.7165,22.0522 592.7165,22.0522 593.029,22.9897 593.029,22.9897 593.029,23.6147 593.029,23.6147 592.7165,24.5522 592.7165,24.5522 592.0915,25.1772 592.0915,25.1772 591.154,25.4897 591.154,25.4897 590.2165,25.4897 590.2165,25.4897 589.279,25.1772 589.279,25.1772 588.9665,24.8647 588.9665,24.8647 588.654,24.2397"/>
    <polyline points="611.2869,28.4055 603.1619,28.4055 603.1619,28.4055 603.1619,41.5305 603.1619,41.5305 611.2869,41.5305"/>
    <line x1="603.1619" x2="608.1619" y1="34.6555" y2="34.6555"/>
    <polyline points="649.3947,28.4055 649.3947,41.5305 649.3947,41.5305 640.6447,28.4055 640.6447,28.4055 640.6447,41.5305"/>
    <polyline points="176.031,63.2849 176.031,56.7224 176.031,56.7224 172.906,61.0974 172.906,61.0974 177.5935,61.0974"/>
    <polygon points="187.1014,66.2008 187.1014,79.3258 187.1014,79.3258 191.4764,79.3258 191.4764,79.3258 193.3514,78.7008 193.3514,78.7008 194.6014,77.4508 194.6014,77.4508 195.2264,76.2008 195.2264,76.2008 195.8514,74.3258 195.8514,74.3258 195.8514,71.2008 195.8514,71.2008 195.2264,69.3258 195.2264,69.3258 194.6014,68.0758 194.6014,68.0758 193.3514,66.8258 193.3514,66.8258 191.4764,66.2008 191.4764,66.2008"/>
    <polyline points="207.874,92.5984 245.6693,92.5984 245.6693,92.5984 245.6693,54.8031"/>
    <polyline points="224.8967,72.4508 230.5217,72.4508 230.5217,72.4508 232.3967,71.8258 232.3967,71.8258 233.0217,71.2008 233.0217,71.2008 233.6467,69.9508 233.6467,69.9508 233.6467,68.7008 233.6467,68.7008 233.0217,67.4508 233.0217,67.4508 232.3967,66.8258 232.3967,66.8258 230.5217,66.2008 230.5217,66.2008 224.8967,66.2008 224.8967,66.2008 224.8967,79.3258"/>
    <line x1="229.2717" x2="233.6467" y1="72.4508" y2="79.3258"/>
    <polyline points="245.6693,92.5984 283.4646,92.5984 283.4646,92.5984 283.4646,130.3937 283.4646,130.3937 283.4646,168.189 283.4646,168.189 245.6693,168.189 245.6693,168.189 245.6693,205.9843 245.6693,205.9843 283.4646,205.9843 283.4646,205.9843 283.4646,243.7795 283.4646,243.7795 321.2598,243.7795 321.2598,243.7795 321.2598,205.9843 321.2598,205.9843 359.0551,205.9843 359.0551,205.9843 359.0551,168.189"/>
    <polyline points="321.2598,92.5984 283.4646,92.5984 283.4646,92.5984 283.4646,54.8031"/>
    <polygon points="265.1919,66.2008 263.9419,66.8258 263.9419,66.8258 262.6919,68.0758 262.6919,68.0758 262.0669,69.3258 262.0669,69.3258 261.4419,71.2008 261.4419,71.2008 261.4419,74.3258 261.4419,74.3258 262.0669,76.2008 262.0669,76.2008 262.6919,77.4508 262.6919,77.4508 263.9419,78.7008 263.9419,78.7008 265.1919,79.3258 265.1919,79.3258 267.6919,79.3258 267.6919,79.3258 268.9419,78.7008 268.9419,78.7008 270.1919,77.4508 270.1919,77.4508 270.8169,76.2008 270.8169,76.2008 271.4419,74.3258 271.4419,74.3258 271.4419,71.2008 271.4419,71.2008 270.8169,69.3258 270.8169,69.3258 270.1919,68.0758 270.1919,68.0758 268.9419,66.8258 268.9419,66.8258 267.6919,66.2008 267.6919,66.2008"/>
    <polyline points="290.0418,56.7224 286.9168,56.7224 286.9168,56.7224 286.6043,59.5349 286.6043,59.5349 286.9168,59.2224 286.9168,59.2224 287.8543,58.9099 287.8543,58.9099 288.7918,58.9099 288.7918,58.9099 289.7293,59.2224 289.7293,59.2224 290.3543,59.8474 290.3543,59.8474 290.6668,60.7849 290.6668,60.7849 290.6668,61.4099 290.6668,61.4099 290.3543,62.3474 290.3543,62.3474 289.7293,62.9724 289.7293,62.9724 288.7918,63.2849 288.7918,63.2849 287.8543,63.2849 287.8543,63.2849 286.9168,62.9724 286.9168,62.9724 286.6043,62.6599 286.6043,62.6599 286.2918,62.0349"/>
    <polyline points="300.4872,73.0758 306.1122,73.0758 306.1122,73.0758 307.9872,72.4508 307.9872,72.4508 308.6122,71.8258 308.6122,71.8258 309.2372,70.5758 309.2372,70.5758 309.2372,68.7008 309.2372,68.7008 308.6122,67.4508 308.6122,67.4508 307.9872,66.8258 307.9872,66.8258 306.1122,66.2008 306.1122,66.2008 300.4872,66.2008 300.4872,66.2008 300.4872,79.3258"/>
    <polyline points="527.8839,66.2008 527.8839,79.3258 527.8839,79.3258 535.3839,79.3258"/>
    <polyline points="603.4744,66.2008 603.4744,79.3258 603.4744,79.3258 610.9744,79.3258"/>
    <polygon points="56.6929,92.5984 56.6929,130.3937 56.6929,130.3937 94.4882,130.3937 94.4882,130.3937 94.4882,92.5984 94.4882,92.5984"/>
    <polyline points="63.5827,95.4552 63.2702,94.8302 63.2702,94.8302 62.3327,94.5177 62.3327,94.5177 61.7077,94.5177 61.7077,94.5177 60.7702,94.8302 60.7702,94.8302 60.1452,95.7677 60.1452,95.7677 59.8327,97.3302 59.8327,97.3302 59.8327,98.8927 59.8327,98.8927 60.1452,100.1427 60.1452,100.1427 60.7702,100.7677 60.7702,100.7677 61.7077,101.0802 61.7077,101.0802 62.0202,101.0802 62.0202,101.0802 62.9577,100.7677 62.9577,100.7677 63.5827,100.1427 63.5827,100.1427 63.8952,99.2052 63.8952,99.2052 63.8952,98.8927 63.8952,98.8927 63.5827,97.9552 63.5827,97.9552 62.9577,97.3302 62.9577,97.3302 62.0202,97.0177 62.0202,97.0177 61.7077,97.0177 61.7077,97.0177 60.7702,97.3302 60.7702,97.3302 60.1452,97.9552 60.1452,97.9552 59.8327,98.8927"/>
    <polyline points="71.2156,103.9961 76.2156,117.1211 76.2156,117.1211 81.2156,103.9961"/>
    <polyline points="135.1107,94.5177 139.4857,94.5177 139.4857,94.5177 136.3607,101.0802"/>
    <polyline points="157.7436,107.1211 157.1186,105.8711 157.1186,105.8711 155.8686,104.6211 155.8686,104.6211 154.6186,103.9961 154.6186,103.9961 152.1186,103.9961 152.1186,103.9961 150.8686,104.6211 150.8686,104.6211 149.6186,105.8711 149.6186,105.8711 148.9936,107.1211 148.9936,107.1211 148.3686,108.9961 148.3686,108.9961 148.3686,112.1211 148.3686,112.1211 148.9936,113.9961 148.9936,113.9961 149.6186,115.2461 149.6186,115.2461 150.8686,116.4961 150.8686,116.4961 152.1186,117.1211 152.1186,117.1211 154.6186,117.1211 154.6186,117.1211 155.8686,116.4961 155.8686,116.4961 157.1186,115.2461 157.1186,115.2461 157.7436,113.9961"/>
    <line x1="283.4646" x2="321.2598" y1="130.3937" y2="130.3937"/>
    <polyline points="307.9872,117.1211 302.9872,103.9961 302.9872,103.9961 297.9872,117.1211"/>
    <line x1="299.8622" x2="306.1122" y1="112.7461" y2="112.7461"/>
    <line x1="396.8504" x2="396.8504" y1="130.3937" y2="92.5984"/>
    <polygon points="363.4449,94.5177 362.5074,94.8302 362.5074,94.8302 362.1949,95.4552 362.1949,95.4552 362.1949,96.0802 362.1949,96.0802 362.5074,96.7052 362.5074,96.7052 363.1324,97.0177 363.1324,97.0177 364.3824,97.3302 364.3824,97.3302 365.3199,97.6427 365.3199,97.6427 365.9449,98.2677 365.9449,98.2677 366.2574,98.8927 366.2574,98.8927 366.2574,99.8302 366.2574,99.8302 365.9449,100.4552 365.9449,100.4552 365.6324,100.7677 365.6324,100.7677 364.6949,101.0802 364.6949,101.0802 363.4449,101.0802 363.4449,101.0802 362.5074,100.7677 362.5074,100.7677 362.1949,100.4552 362.1949,100.4552 361.8824,99.8302 361.8824,99.8302 361.8824,98.8927 361.8824,98.8927 362.1949,98.2677 362.1949,98.2677 362.8199,97.6427 362.8199,97.6427 363.7574,97.3302 363.7574,97.3302 365.0074,97.0177 365.0074,97.0177 365.6324,96.7052 365.6324,96.7052 365.9449,96.0802 365.9449,96.0802 365.9449,95.4552 365.9449,95.4552 365.6324,94.8302 365.6324,94.8302 364.6949,94.5177 364.6949,94.5177"/>
    <polyline points="385.4528,117.1211 385.4528,103.9961 385.4528,103.9961 380.4528,117.1211 380.4528,117.1211 375.4528,103.9961 375.4528,103.9961 375.4528,117.1211"/>
    <polyline points="421.373,117.1211 416.373,103.9961 416.373,103.9961 411.373,117.1211"/>
    <line x1="413.248" x2="419.498" y1="112.7461" y2="112.7461"/>
    <polyline points="434.6457,130.3937 472.4409,130.3937 472.4409,130.3937 510.2362,130.3937 510.2362,130.3937 510.2362,168.189 510.2362,168.189 510.2362,205.9843 510.2362,205.9843 510.2362,243.7795 510.2362,243.7795 548.0315,243.7795 548.0315,243.7795 548.0315,205.9843 548.0315,205.9843 548.0315,168.189"/>
    <line x1="472.4409" x2="472.4409" y1="130.3937" y2="92.5984"/>
    <polyline points="460.4183,103.9961 460.4183,117.1211 460.4183,117.1211 451.6683,103.9961 451.6683,103.9961 451.6683,117.1211"/>
    <polygon points="489.4636,103.9961 489.4636,117.1211 489.4636,117.1211 493.8386,117.1211 493.8386,117.1211 495.7136,116.4961 495.7136,116.4961 496.9636,115.2461 496.9636,115.2461 497.5886,113.9961 497.5886,113.9961 498.2136,112.1211 498.2136,112.1211 498.2136,108.9961 498.2136,108.9961 497.5886,107.1211 497.5886,107.1211 496.9636,105.8711 496.9636,105.8711 495.7136,104.6211 495.7136,104.6211 493.8386,103.9961 493.8386,103.9961"/>
    <polyline points="534.7589,117.1211 529.7589,103.9961 529.7589,103.9961 524.7589,117.1211"/>
    <line x1="526.6339" x2="532.8839" y1="112.7461" y2="112.7461"/>
    <polyline points="565.0541,110.2461 570.6791,110.2461 570.6791,110.2461 572.5541,109.6211 572.5541,109.6211 573.1791,108.9961 573.1791,108.9961 573.8041,107.7461 573.8041,107.7461 573.8041,106.4961 573.8041,106.4961 573.1791,105.2461 573.1791,105.2461 572.5541,104.6211 572.5541,104.6211 570.6791,103.9961 570.6791,103.9961 565.0541,103.9961 565.0541,103.9961 565.0541,117.1211"/>
    <line x1="569.4291" x2="573.8041" y1="110.2461" y2="117.1211"/>
    <polyline points="661.4173,130.3937 623.622,130.3937 623.622,130.3937 623.622,168.189 623.622,168.189 585.8268,168.189 585.8268,168.189 585.8268,130.3937 585.8268,130.3937 623.622,130.3937 623.622,130.3937 623.622,92.5984 623.622,92.5984 661.4173,92.5984 661.4173,92.5984 699.2126,92.5984 699.2126,92.5984 699.2126,130.3937 699.2126,130.3937 661.4173,130.3937 661.4173,130.3937 661.4173,92.5984"/>
    <line x1="607.2244" x2="607.2244" y1="103.9961" y2="117.1211"/>
    <polyline points="646.8947,103.9961 646.8947,113.9961 646.8947,113.9961 646.2697,115.8711 646.2697,115.8711 645.6447,116.4961 645.6447,116.4961 644.3947,117.1211 644.3947,117.1211 643.1447,117.1211 643.1447,117.1211 641.8947,116.4961 641.8947,116.4961 641.2697,115.8711 641.2697,115.8711 640.6447,113.9961 640.6447,113.9961 640.6447,112.7461"/>
    <polyline points="687.19,103.9961 687.19,117.1211 687.19,117.1211 678.44,103.9961 678.44,103.9961 678.44,117.1211"/>
    <polyline points="56.6929,130.3937 56.6929,168.189 56.6929,168.189 56.6929,205.9843 56.6929,205.9843 56.6929,243.7795 56.6929,243.7795 94.4882,243.7795 94.4882,243.7795 94.4882,205.9843 94.4882,205.9843 94.4882,168.189 94.4882,168.189 94.4882,130.3937"/>
    <line x1="56.6929" x2="94.4882" y1="168.189" y2="168.189"/>
    <polyline points="82.1531,141.7913 74.0281,141.7913 74.0281,141.7913 74.0281,154.9163 74.0281,154.9163 82.1531,154.9163"/>
    <line x1="74.0281" x2="79.0281" y1="148.0413" y2="148.0413"/>
    <polyline points="132.2835,130.3937 132.2835,168.189 132.2835,168.189 170.0787,168.189 170.0787,168.189 170.0787,130.3937"/>
    <polyline points="157.7436,141.7913 149.6186,141.7913 149.6186,141.7913 149.6186,154.9163 149.6186,154.9163 157.7436,154.9163"/>
    <line x1="149.6186" x2="154.6186" y1="148.0413" y2="148.0413"/>
    <polygon points="283.4646,168.189 321.2598,168.189 321.2598,168.189 321.2598,205.9843 321.2598,205.9843 283.4646,205.9843 283.4646,205.9843"/>
    <polyline points="300.4872,148.0413 306.1122,148.0413 306.1122,148.0413 307.9872,147.4163 307.9872,147.4163 308.6122,146.7913 308.6122,146.7913 309.2372,145.5413 309.2372,145.5413 309.2372,144.2913 309.2372,144.2913 308.6122,143.0413 308.6122,143.0413 307.9872,142.4163 307.9872,142.4163 306.1122,141.7913 306.1122,141.7913 300.4872,141.7913 300.4872,141.7913 300.4872,154.9163"/>
    <line x1="304.8622" x2="309.2372" y1="148.0413" y2="154.9163"/>
    <polyline points="524.7589,141.7913 529.7589,154.9163 529.7589,154.9163 534.7589,141.7913"/>
    <polyline points="610.9744,143.6663 609.7244,142.4163 609.7244,142.4163 607.8494,141.7913 607.8494,141.7913 605.3494,141.7913 605.3494,141.7913 603.4744,142.4163 603.4744,142.4163 602.2244,143.6663 602.2244,143.6663 602.2244,144.9163 602.2244,144.9163 602.8494,146.1663 602.8494,146.1663 603.4744,146.7913 603.4744,146.7913 604.7244,147.4163 604.7244,147.4163 608.4744,148.6663 608.4744,148.6663 609.7244,149.2913 609.7244,149.2913 610.3494,149.9163 610.3494,149.9163 610.9744,151.1663 610.9744,151.1663 610.9744,153.0413 610.9744,153.0413 609.7244,154.2913 609.7244,154.2913 607.8494,154.9163 607.8494,154.9163 605.3494,154.9163 605.3494,154.9163 603.4744,154.2913 603.4744,154.2913 602.2244,153.0413"/>
    <polyline points="56.6929,205.9843 94.4882,205.9843 94.4882,205.9843 132.2835,205.9843 132.2835,205.9843 170.0787,205.9843 170.0787,205.9843 170.0787,168.189"/>
    <polyline points="74.3406,179.5866 74.3406,192.7116 74.3406,192.7116 81.8406,192.7116"/>
    <polyline points="132.2835,168.189 132.2835,205.9843 132.2835,205.9843 132.2835,243.7795 132.2835,243.7795 170.0787,243.7795 170.0787,243.7795 170.0787,205.9843 170.0787,205.9843 207.874,205.9843 207.874,205.9843 207.874,243.7795 207.874,243.7795 170.0787,243.7795 170.0787,243.7795 170.0787,281.5748 170.0787,281.5748 132.2835,281.5748 132.2835,281.5748 132.2835,319.3701 132.2835,319.3701 94.4882,319.3701 94.4882,319.3701 94.4882,281.5748 94.4882,281.5748 94.4882,243.7795 94.4882,243.7795 132.2835,243.7795 132.2835,243.7795 132.2835,281.5748"/>
    <polyline points="149.9311,179.5866 149.9311,192.7116 149.9311,192.7116 157.4311,192.7116"/>
    <polyline points="252.5591,172.2958 252.2466,173.2333 252.2466,173.2333 251.6216,173.8583 251.6216,173.8583 250.6841,174.1708 250.6841,174.1708 250.3716,174.1708 250.3716,174.1708 249.4341,173.8583 249.4341,173.8583 248.8091,173.2333 248.8091,173.2333 248.4966,172.2958 248.4966,172.2958 248.4966,171.9833 248.4966,171.9833 248.8091,171.0458 248.8091,171.0458 249.4341,170.4208 249.4341,170.4208 250.3716,170.1083 250.3716,170.1083 250.6841,170.1083 250.6841,170.1083 251.6216,170.4208 251.6216,170.4208 252.2466,171.0458 252.2466,171.0458 252.5591,172.2958 252.5591,172.2958 252.5591,173.8583 252.5591,173.8583 252.2466,175.4208 252.2466,175.4208 251.6216,176.3583 251.6216,176.3583 250.6841,176.6708 250.6841,176.6708 250.0591,176.6708 250.0591,176.6708 249.1216,176.3583 249.1216,176.3583 248.8091,175.7333"/>
    <polyline points="270.8169,181.4616 269.5669,180.2116 269.5669,180.2116 267.6919,179.5866 267.6919,179.5866 265.1919,179.5866 265.1919,179.5866 263.3169,180.2116 263.3169,180.2116 262.0669,181.4616 262.0669,181.4616 262.0669,182.7116 262.0669,182.7116 262.6919,183.9616 262.6919,183.9616 263.3169,184.5866 263.3169,184.5866 264.5669,185.2116 264.5669,185.2116 268.3169,186.4616 268.3169,186.4616 269.5669,187.0866 269.5669,187.0866 270.1919,187.7116 270.1919,187.7116 270.8169,188.9616 270.8169,188.9616 270.8169,190.8366 270.8169,190.8366 269.5669,192.0866 269.5669,192.0866 267.6919,192.7116 267.6919,192.7116 265.1919,192.7116 265.1919,192.7116 263.3169,192.0866 263.3169,192.0866 262.0669,190.8366"/>
    <line x1="300.4872" x2="300.4872" y1="179.5866" y2="192.7116"/>
    <line x1="309.2372" x2="300.4872" y1="179.5866" y2="188.3366"/>
    <line x1="303.6122" x2="309.2372" y1="185.2116" y2="192.7116"/>
    <polyline points="346.72,179.5866 338.595,179.5866 338.595,179.5866 338.595,192.7116 338.595,192.7116 346.72,192.7116"/>
    <line x1="338.595" x2="343.595" y1="185.8366" y2="185.8366"/>
    <polyline points="359.0551,205.9843 396.8504,205.9843 396.8504,205.9843 434.6457,205.9843 434.6457,205.9843 434.6457,168.189"/>
    <line x1="396.8504" x2="396.8504" y1="205.9843" y2="168.189"/>
    <polyline points="376.7028,179.5866 376.7028,192.7116 376.7028,192.7116 384.2028,192.7116"/>
    <polyline points="414.498,179.5866 414.498,192.7116 414.498,192.7116 421.998,192.7116"/>
    <polyline points="434.6457,205.9843 472.4409,205.9843 472.4409,205.9843 472.4409,168.189"/>
    <polyline points="460.1058,179.5866 451.9808,179.5866 451.9808,179.5866 451.9808,192.7116 451.9808,192.7116 460.1058,192.7116"/>
    <line x1="451.9808" x2="456.9808" y1="185.8366" y2="185.8366"/>
    <polyline points="472.4409,205.9843 510.2362,205.9843 510.2362,205.9843 548.0315,205.9843"/>
    <line x1="489.4636" x2="489.4636" y1="179.5866" y2="192.7116"/>
    <line x1="498.2136" x2="489.4636" y1="179.5866" y2="188.3366"/>
    <line x1="492.5886" x2="498.2136" y1="185.2116" y2="192.7116"/>
    <polyline points="535.6964,179.5866 527.5714,179.5866 527.5714,179.5866 527.5714,192.7116 527.5714,192.7116 535.6964,192.7116"/>
    <line x1="527.5714" x2="532.5714" y1="185.8366" y2="185.8366"/>
    <polyline points="585.8268,168.189 585.8268,205.9843 585.8268,205.9843 623.622,205.9843 623.622,205.9843 623.622,168.189"/>
    <polyline points="611.2869,179.5866 603.1619,179.5866 603.1619,179.5866 603.1619,192.7116 603.1619,192.7116 611.2869,192.7116"/>
    <line x1="603.1619" x2="608.1619" y1="185.8366" y2="185.8366"/>
    <polygon points="661.4173,168.189 661.4173,205.9843 661.4173,205.9843 623.622,205.9843 623.622,205.9843 623.622,243.7795 623.622,243.7795 661.4173,243.7795 661.4173,243.7795 661.4173,205.9843 661.4173,205.9843 699.2126,205.9843 699.2126,205.9843 699.2126,168.189 699.2126,168.189"/>
    <polyline points="665.1821,171.3583 665.8071,171.0458 665.8071,171.0458 666.7446,170.1083 666.7446,170.1083 666.7446,176.6708"/>
    <polygon points="672.3696,170.1083 671.4321,170.4208 671.4321,170.4208 670.8071,171.3583 670.8071,171.3583 670.4946,172.9208 670.4946,172.9208 670.4946,173.8583 670.4946,173.8583 670.8071,175.4208 670.8071,175.4208 671.4321,176.3583 671.4321,176.3583 672.3696,176.6708 672.3696,176.6708 672.9946,176.6708 672.9946,176.6708 673.9321,176.3583 673.9321,176.3583 674.5571,175.4208 674.5571,175.4208 674.8696,173.8583 674.8696,173.8583 674.8696,172.9208 674.8696,172.9208 674.5571,171.3583 674.5571,171.3583 673.9321,170.4208 673.9321,170.4208 672.9946,170.1083 672.9946,170.1083"/>
    <polyline points="678.44,185.8366 684.065,185.8366 684.065,185.8366 685.94,185.2116 685.94,185.2116 686.565,184.5866 686.565,184.5866 687.19,183.3366 687.19,183.3366 687.19,182.0866 687.19,182.0866 686.565,180.8366 686.565,180.8366 685.94,180.2116 685.94,180.2116 684.065,179.5866 684.065,179.5866 678.44,179.5866 678.44,179.5866 678.44,192.7116"/>
    <line x1="682.815" x2="687.19" y1="185.8366" y2="192.7116"/>
    <polyline points="60.4577,209.1535 61.0827,208.841 61.0827,208.841 62.0202,207.9035 62.0202,207.9035 62.0202,214.466"/>
    <polyline points="66.7077,209.1535 67.3327,208.841 67.3327,208.841 68.2702,207.9035 68.2702,207.9035 68.2702,214.466"/>
    <polyline points="74.3406,217.3819 74.3406,230.5069 74.3406,230.5069 81.8406,230.5069"/>
    <polyline points="119.9483,217.3819 111.8233,217.3819 111.8233,217.3819 111.8233,230.5069 111.8233,230.5069 119.9483,230.5069"/>
    <line x1="111.8233" x2="116.8233" y1="223.6319" y2="223.6319"/>
    <polyline points="157.7436,217.3819 149.6186,217.3819 149.6186,217.3819 149.6186,230.5069 149.6186,230.5069 157.7436,230.5069"/>
    <line x1="149.6186" x2="154.6186" y1="223.6319" y2="223.6319"/>
    <polyline points="195.8514,217.3819 195.8514,230.5069 195.8514,230.5069 187.1014,217.3819 187.1014,217.3819 187.1014,230.5069"/>
    <polyline points="308.9247,217.3819 300.7997,217.3819 300.7997,217.3819 300.7997,230.5069 300.7997,230.5069 308.9247,230.5069"/>
    <line x1="300.7997" x2="305.7997" y1="223.6319" y2="223.6319"/>
    <polyline points="527.2589,223.6319 532.8839,223.6319 532.8839,223.6319 534.7589,223.0069 534.7589,223.0069 535.3839,222.3819 535.3839,222.3819 536.0089,221.1319 536.0089,221.1319 536.0089,219.8819 536.0089,219.8819 535.3839,218.6319 535.3839,218.6319 534.7589,218.0069 534.7589,218.0069 532.8839,217.3819 532.8839,217.3819 527.2589,217.3819 527.2589,217.3819 527.2589,230.5069"/>
    <line x1="531.6339" x2="536.0089" y1="223.6319" y2="230.5069"/>
    <polyline points="627.3868,209.1535 628.0118,208.841 628.0118,208.841 628.9493,207.9035 628.9493,207.9035 628.9493,214.466"/>
    <polyline points="633.0118,209.466 633.0118,209.1535 633.0118,209.1535 633.3243,208.5285 633.3243,208.5285 633.6368,208.216 633.6368,208.216 634.2618,207.9035 634.2618,207.9035 635.5118,207.9035 635.5118,207.9035 636.1368,208.216 636.1368,208.216 636.4493,208.5285 636.4493,208.5285 636.7618,209.1535 636.7618,209.1535 636.7618,209.7785 636.7618,209.7785 636.4493,210.4035 636.4493,210.4035 635.8243,211.341 635.8243,211.341 632.6993,214.466 632.6993,214.466 637.0743,214.466"/>
    <line x1="640.6447" x2="640.6447" y1="217.3819" y2="230.5069"/>
    <line x1="649.3947" x2="649.3947" y1="217.3819" y2="230.5069"/>
    <line x1="640.6447" x2="649.3947" y1="223.6319" y2="223.6319"/>
    <polyline points="434.6457,319.3701 434.6457,357.1654 434.6457,357.1654 396.8504,357.1654 396.8504,357.1654 396.8504,319.3701 396.8504,319.3701 434.6457,319.3701 434.6457,319.3701 472.4409,319.3701 472.4409,319.3701 510.2362,319.3701 510.2362,319.3701 510.2362,281.5748 510.2362,281.5748 548.0315,281.5748 548.0315,281.5748 548.0315,243.7795 548.0315,243.7795 585.8268,243.7795 585.8268,243.7795 585.8268,281.5748 585.8268,281.5748 548.0315,281.5748 548.0315,281.5748 548.0315,319.3701 548.0315,319.3701 585.8268,319.3701 585.8268,319.3701 623.622,319.3701 623.622,319.3701 661.4173,319.3701 661.4173,319.3701 661.4173,281.5748 661.4173,281.5748 661.4173,243.7795 661.4173,243.7795 699.2126,243.7795 699.2126,243.7795 699.2126,205.9843 699.2126,205.9843 737.0079,205.9843 737.0079,205.9843 774.8031,205.9843 774.8031,205.9843 774.8031,243.7795 774.8031,243.7795 737.0079,243.7795 737.0079,243.7795 737.0079,205.9843"/>
    <polyline points="685.94,230.5069 680.94,217.3819 680.94,217.3819 675.94,230.5069"/>
    <line x1="677.815" x2="684.065" y1="226.1319" y2="226.1319"/>
    <polyline points="699.2126,357.1654 737.0079,357.1654 737.0079,357.1654 737.0079,319.3701 737.0079,319.3701 699.2126,319.3701 699.2126,319.3701 699.2126,357.1654 699.2126,357.1654 661.4173,357.1654 661.4173,357.1654 661.4173,319.3701 661.4173,319.3701 699.2126,319.3701 699.2126,319.3701 699.2126,281.5748 699.2126,281.5748 699.2126,243.7795 699.2126,243.7795 737.0079,243.7795"/>
    <polyline points="724.9852,217.3819 724.9852,230.5069 724.9852,230.5069 716.2352,217.3819 716.2352,217.3819 716.2352,230.5069"/>
    <polyline points="762.1555,219.2569 760.9055,218.0069 760.9055,218.0069 759.0305,217.3819 759.0305,217.3819 756.5305,217.3819 756.5305,217.3819 754.6555,218.0069 754.6555,218.0069 753.4055,219.2569 753.4055,219.2569 753.4055,220.5069 753.4055,220.5069 754.0305,221.7569 754.0305,221.7569 754.6555,222.3819 754.6555,222.3819 755.9055,223.0069 755.9055,223.0069 759.6555,224.2569 759.6555,224.2569 760.9055,224.8819 760.9055,224.8819 761.5305,225.5069 761.5305,225.5069 762.1555,226.7569 762.1555,226.7569 762.1555,228.6319 762.1555,228.6319 760.9055,229.8819 760.9055,229.8819 759.0305,230.5069 759.0305,230.5069 756.5305,230.5069 756.5305,230.5069 754.6555,229.8819 754.6555,229.8819 753.4055,228.6319"/>
    <polyline points="56.6929,243.7795 56.6929,281.5748 56.6929,281.5748 56.6929,319.3701 56.6929,319.3701 18.8976,319.3701 18.8976,319.3701 18.8976,357.1654 18.8976,357.1654 56.6929,357.1654 56.6929,357.1654 56.6929,319.3701 56.6929,319.3701 94.4882,319.3701 94.4882,319.3701 94.4882,357.1654 94.4882,357.1654 132.2835,357.1654 132.2835,357.1654 132.2835,319.3701 132.2835,319.3701 170.0787,319.3701 170.0787,319.3701 170.0787,281.5748"/>
    <line x1="56.6929" x2="94.4882" y1="281.5748" y2="281.5748"/>
    <polyline points="82.1531,255.1772 74.0281,255.1772 74.0281,255.1772 74.0281,268.3022 74.0281,268.3022 82.1531,268.3022"/>
    <line x1="74.0281" x2="79.0281" y1="261.4272" y2="261.4272"/>
    <polyline points="157.4311,257.0522 156.1811,255.8022 156.1811,255.8022 154.3061,255.1772 154.3061,255.1772 151.8061,255.1772 151.8061,255.1772 149.9311,255.8022 149.9311,255.8022 148.6811,257.0522 148.6811,257.0522 148.6811,258.3022 148.6811,258.3022 149.3061,259.5522 149.3061,259.5522 149.9311,260.1772 149.9311,260.1772 151.1811,260.8022 151.1811,260.8022 154.9311,262.0522 154.9311,262.0522 156.1811,262.6772 156.1811,262.6772 156.8061,263.3022 156.8061,263.3022 157.4311,264.5522 157.4311,264.5522 157.4311,266.4272 157.4311,266.4272 156.1811,267.6772 156.1811,267.6772 154.3061,268.3022 154.3061,268.3022 151.8061,268.3022 151.8061,268.3022 149.9311,267.6772 149.9311,267.6772 148.6811,266.4272"/>
    <polyline points="283.4646,243.7795 283.4646,281.5748 283.4646,281.5748 283.4646,319.3701 283.4646,319.3701 245.6693,319.3701 245.6693,319.3701 207.874,319.3701 207.874,319.3701 170.0787,319.3701 170.0787,319.3701 170.0787,357.1654 170.0787,357.1654 207.874,357.1654 207.874,357.1654 245.6693,357.1654 245.6693,357.1654 245.6693,319.3701"/>
    <polyline points="283.4646,281.5748 321.2598,281.5748 321.2598,281.5748 321.2598,243.7795 321.2598,243.7795 359.0551,243.7795 359.0551,243.7795 359.0551,281.5748 359.0551,281.5748 396.8504,281.5748 396.8504,281.5748 434.6457,281.5748 434.6457,281.5748 434.6457,243.7795 434.6457,243.7795 396.8504,243.7795 396.8504,243.7795 359.0551,243.7795"/>
    <polyline points="287.2293,246.9488 287.8543,246.6363 287.8543,246.6363 288.7918,245.6988 288.7918,245.6988 288.7918,252.2613"/>
    <polyline points="293.1668,245.6988 296.6043,245.6988 296.6043,245.6988 294.7293,248.1988 294.7293,248.1988 295.6668,248.1988 295.6668,248.1988 296.2918,248.5113 296.2918,248.5113 296.6043,248.8238 296.6043,248.8238 296.9168,249.7613 296.9168,249.7613 296.9168,250.3863 296.9168,250.3863 296.6043,251.3238 296.6043,251.3238 295.9793,251.9488 295.9793,251.9488 295.0418,252.2613 295.0418,252.2613 294.1043,252.2613 294.1043,252.2613 293.1668,251.9488 293.1668,251.9488 292.8543,251.6363 292.8543,251.6363 292.5418,251.0113"/>
    <polyline points="300.4872,261.4272 306.1122,261.4272 306.1122,261.4272 307.9872,260.8022 307.9872,260.8022 308.6122,260.1772 308.6122,260.1772 309.2372,258.9272 309.2372,258.9272 309.2372,257.6772 309.2372,257.6772 308.6122,256.4272 308.6122,256.4272 307.9872,255.8022 307.9872,255.8022 306.1122,255.1772 306.1122,255.1772 300.4872,255.1772 300.4872,255.1772 300.4872,268.3022"/>
    <line x1="304.8622" x2="309.2372" y1="261.4272" y2="268.3022"/>
    <polyline points="321.2598,319.3701 321.2598,357.1654 321.2598,357.1654 283.4646,357.1654 283.4646,357.1654 283.4646,319.3701 283.4646,319.3701 321.2598,319.3701 321.2598,319.3701 321.2598,281.5748 321.2598,281.5748 359.0551,281.5748"/>
    <polyline points="346.72,255.1772 338.595,255.1772 338.595,255.1772 338.595,268.3022 338.595,268.3022 346.72,268.3022"/>
    <line x1="338.595" x2="343.595" y1="261.4272" y2="261.4272"/>
    <line x1="396.8504" x2="396.8504" y1="281.5748" y2="243.7795"/>
    <line x1="376.0778" x2="376.0778" y1="255.1772" y2="268.3022"/>
    <line x1="384.8278" x2="376.0778" y1="255.1772" y2="263.9272"/>
    <line x1="379.2028" x2="384.8278" y1="260.8022" y2="268.3022"/>
    <line x1="413.873" x2="413.873" y1="255.1772" y2="268.3022"/>
    <line x1="422.623" x2="413.873" y1="255.1772" y2="263.9272"/>
    <line x1="416.998" x2="422.623" y1="260.8022" y2="268.3022"/>
    <polyline points="434.6457,281.5748 472.4409,281.5748 472.4409,281.5748 510.2362,281.5748 510.2362,281.5748 510.2362,243.7795 510.2362,243.7795 472.4409,243.7795 472.4409,243.7795 434.6457,243.7795"/>
    <line x1="472.4409" x2="472.4409" y1="281.5748" y2="243.7795"/>
    <polyline points="460.1058,255.1772 451.9808,255.1772 451.9808,255.1772 451.9808,268.3022 451.9808,268.3022 460.1058,268.3022"/>
    <line x1="451.9808" x2="456.9808" y1="261.4272" y2="261.4272"/>
    <polyline points="489.4636,261.4272 495.0886,261.4272 495.0886,261.4272 496.9636,260.8022 496.9636,260.8022 497.5886,260.1772 497.5886,260.1772 498.2136,258.9272 498.2136,258.9272 498.2136,257.6772 498.2136,257.6772 497.5886,256.4272 497.5886,256.4272 496.9636,255.8022 496.9636,255.8022 495.0886,255.1772 495.0886,255.1772 489.4636,255.1772 489.4636,255.1772 489.4636,268.3022"/>
    <line x1="493.8386" x2="498.2136" y1="261.4272" y2="268.3022"/>
    <line x1="529.7589" x2="529.7589" y1="255.1772" y2="268.3022"/>
    <line x1="525.3839" x2="534.1339" y1="255.1772" y2="255.1772"/>
    <polyline points="571.3041,255.1772 571.3041,265.1772 571.3041,265.1772 570.6791,267.0522 570.6791,267.0522 570.0541,267.6772 570.0541,267.6772 568.8041,268.3022 568.8041,268.3022 567.5541,268.3022 567.5541,268.3022 566.3041,267.6772 566.3041,267.6772 565.6791,267.0522 565.6791,267.0522 565.0541,265.1772 565.0541,265.1772 565.0541,263.9272"/>
    <polyline points="585.8268,281.5748 623.622,281.5748 623.622,281.5748 623.622,243.7795 623.622,243.7795 585.8268,243.7795"/>
    <polyline points="611.2869,255.1772 603.1619,255.1772 603.1619,255.1772 603.1619,268.3022 603.1619,268.3022 611.2869,268.3022"/>
    <line x1="603.1619" x2="608.1619" y1="261.4272" y2="261.4272"/>
    <line x1="661.4173" x2="699.2126" y1="281.5748" y2="281.5748"/>
    <polygon points="678.44,255.1772 678.44,268.3022 678.44,268.3022 682.815,268.3022 682.815,268.3022 684.69,267.6772 684.69,267.6772 685.94,266.4272 685.94,266.4272 686.565,265.1772 686.565,265.1772 687.19,263.3022 687.19,263.3022 687.19,260.1772 687.19,260.1772 686.565,258.3022 686.565,258.3022 685.94,257.0522 685.94,257.0522 684.69,255.8022 684.69,255.8022 682.815,255.1772 682.815,255.1772"/>
    <line x1="73.7156" x2="73.7156" y1="292.9724" y2="306.0974"/>
    <line x1="82.4656" x2="73.7156" y1="292.9724" y2="301.7224"/>
    <line x1="76.8406" x2="82.4656" y1="298.5974" y2="306.0974"/>
    <line x1="151.8061" x2="151.8061" y1="292.9724" y2="306.0974"/>
    <line x1="147.4311" x2="156.1811" y1="292.9724" y2="292.9724"/>
    <polyline points="308.9247,292.9724 300.7997,292.9724 300.7997,292.9724 300.7997,306.0974 300.7997,306.0974 308.9247,306.0974"/>
    <line x1="300.7997" x2="305.7997" y1="299.2224" y2="299.2224"/>
    <polyline points="548.0315,357.1654 510.2362,357.1654 510.2362,357.1654 510.2362,319.3701 510.2362,319.3701 548.0315,319.3701 548.0315,319.3701 548.0315,357.1654 548.0315,357.1654 585.8268,357.1654 585.8268,357.1654 585.8268,319.3701"/>
    <polyline points="533.5089,292.9724 533.5089,302.9724 533.5089,302.9724 532.8839,304.8474 532.8839,304.8474 532.2589,305.4724 532.2589,305.4724 531.0089,306.0974 531.0089,306.0974 529.7589,306.0974 529.7589,306.0974 528.5089,305.4724 528.5089,305.4724 527.8839,304.8474 527.8839,304.8474 527.2589,302.9724 527.2589,302.9724 527.2589,301.7224"/>
    <line x1="682.815" x2="682.815" y1="292.9724" y2="306.0974"/>
    <polyline points="22.6624,322.5394 23.2874,322.2269 23.2874,322.2269 24.2249,321.2894 24.2249,321.2894 24.2249,327.8519"/>
    <polyline points="31.0999,327.8519 31.0999,321.2894 31.0999,321.2894 27.9749,325.6644 27.9749,325.6644 32.6624,325.6644"/>
    <line x1="38.4203" x2="38.4203" y1="330.7677" y2="343.8927"/>
    <line x1="34.0453" x2="42.7953" y1="330.7677" y2="330.7677"/>
    <line x1="56.6929" x2="94.4882" y1="357.1654" y2="357.1654"/>
    <polyline points="82.1531,330.7677 74.0281,330.7677 74.0281,330.7677 74.0281,343.8927 74.0281,343.8927 82.1531,343.8927"/>
    <line x1="74.0281" x2="79.0281" y1="337.0177" y2="337.0177"/>
    <polyline points="112.1358,330.7677 112.1358,343.8927 112.1358,343.8927 119.6358,343.8927"/>
    <line x1="132.2835" x2="170.0787" y1="357.1654" y2="357.1654"/>
    <polyline points="157.7436,330.7677 149.6186,330.7677 149.6186,330.7677 149.6186,343.8927 149.6186,343.8927 157.7436,343.8927"/>
    <line x1="149.6186" x2="154.6186" y1="337.0177" y2="337.0177"/>
    <line x1="207.874" x2="207.874" y1="357.1654" y2="319.3701"/>
    <polyline points="195.5389,330.7677 187.4139,330.7677 187.4139,330.7677 187.4139,343.8927"/>
    <line x1="187.4139" x2="192.4139" y1="337.0177" y2="337.0177"/>
    <polygon points="227.3967,330.7677 226.1467,331.3927 226.1467,331.3927 224.8967,332.6427 224.8967,332.6427 224.2717,333.8927 224.2717,333.8927 223.6467,335.7677 223.6467,335.7677 223.6467,338.8927 223.6467,338.8927 224.2717,340.7677 224.2717,340.7677 224.8967,342.0177 224.8967,342.0177 226.1467,343.2677 226.1467,343.2677 227.3967,343.8927 227.3967,343.8927 229.8967,343.8927 229.8967,343.8927 231.1467,343.2677 231.1467,343.2677 232.3967,342.0177 232.3967,342.0177 233.0217,340.7677 233.0217,340.7677 233.6467,338.8927 233.6467,338.8927 233.6467,335.7677 233.6467,335.7677 233.0217,333.8927 233.0217,333.8927 232.3967,332.6427 232.3967,332.6427 231.1467,331.3927 231.1467,331.3927 229.8967,330.7677 229.8967,330.7677"/>
    <line x1="245.6693" x2="283.4646" y1="357.1654" y2="357.1654"/>
    <polygon points="265.1919,330.7677 263.9419,331.3927 263.9419,331.3927 262.6919,332.6427 262.6919,332.6427 262.0669,333.8927 262.0669,333.8927 261.4419,335.7677 261.4419,335.7677 261.4419,338.8927 261.4419,338.8927 262.0669,340.7677 262.0669,340.7677 262.6919,342.0177 262.6919,342.0177 263.9419,343.2677 263.9419,343.2677 265.1919,343.8927 265.1919,343.8927 267.6919,343.8927 267.6919,343.8927 268.9419,343.2677 268.9419,343.2677 270.1919,342.0177 270.1919,342.0177 270.8169,340.7677 270.8169,340.7677 271.4419,338.8927 271.4419,338.8927 271.4419,335.7677 271.4419,335.7677 270.8169,333.8927 270.8169,333.8927 270.1919,332.6427 270.1919,332.6427 268.9419,331.3927 268.9419,331.3927 267.6919,330.7677 267.6919,330.7677"/>
    <polyline points="309.2372,330.7677 309.2372,343.8927 309.2372,343.8927 300.4872,330.7677 300.4872,330.7677 300.4872,343.8927"/>
    <polyline points="400.6152,322.5394 401.2402,322.2269 401.2402,322.2269 402.1777,321.2894 402.1777,321.2894 402.1777,327.8519"/>
    <polyline points="409.6777,321.2894 406.5527,321.2894 406.5527,321.2894 406.2402,324.1019 406.2402,324.1019 406.5527,323.7894 406.5527,323.7894 407.4902,323.4769 407.4902,323.4769 408.4277,323.4769 408.4277,323.4769 409.3652,323.7894 409.3652,323.7894 409.9902,324.4144 409.9902,324.4144 410.3027,325.3519 410.3027,325.3519 410.3027,325.9769 410.3027,325.9769 409.9902,326.9144 409.9902,326.9144 409.3652,327.5394 409.3652,327.5394 408.4277,327.8519 408.4277,327.8519 407.4902,327.8519 407.4902,327.8519 406.5527,327.5394 406.5527,327.5394 406.2402,327.2269 406.2402,327.2269 405.9277,326.6019"/>
    <polyline points="413.873,337.0177 419.498,337.0177 419.498,337.0177 421.373,336.3927 421.373,336.3927 421.998,335.7677 421.998,335.7677 422.623,334.5177 422.623,334.5177 422.623,333.2677 422.623,333.2677 421.998,332.0177 421.998,332.0177 421.373,331.3927 421.373,331.3927 419.498,330.7677 419.498,330.7677 413.873,330.7677 413.873,330.7677 413.873,343.8927"/>
    <line x1="418.248" x2="422.623" y1="337.0177" y2="343.8927"/>
    <polyline points="434.6457,357.1654 472.4409,357.1654 472.4409,357.1654 510.2362,357.1654"/>
    <line x1="472.4409" x2="472.4409" y1="357.1654" y2="319.3701"/>
    <polyline points="460.1058,330.7677 451.9808,330.7677 451.9808,330.7677 451.9808,343.8927 451.9808,343.8927 460.1058,343.8927"/>
    <line x1="451.9808" x2="456.9808" y1="337.0177" y2="337.0177"/>
    <polyline points="497.9011,333.8927 497.2761,332.6427 497.2761,332.6427 496.0261,331.3927 496.0261,331.3927 494.7761,330.7677 494.7761,330.7677 492.2761,330.7677 492.2761,330.7677 491.0261,331.3927 491.0261,331.3927 489.7761,332.6427 489.7761,332.6427 489.1511,333.8927 489.1511,333.8927 488.5261,335.7677 488.5261,335.7677 488.5261,338.8927 488.5261,338.8927 489.1511,340.7677 489.1511,340.7677 489.7761,342.0177 489.7761,342.0177 491.0261,343.2677 491.0261,343.2677 492.2761,343.8927 492.2761,343.8927 494.7761,343.8927 494.7761,343.8927 496.0261,343.2677 496.0261,343.2677 497.2761,342.0177 497.2761,342.0177 497.9011,340.7677 497.9011,340.7677 497.9011,338.8927 497.9011,338.8927 494.7761,338.8927"/>
    <polyline points="535.6964,330.7677 527.5714,330.7677 527.5714,330.7677 527.5714,343.8927 527.5714,343.8927 535.6964,343.8927"/>
    <line x1="527.5714" x2="532.5714" y1="337.0177" y2="337.0177"/>
    <polyline points="573.8041,330.7677 573.8041,343.8927 573.8041,343.8927 565.0541,330.7677 565.0541,330.7677 565.0541,343.8927"/>
    <polyline points="585.8268,357.1654 623.622,357.1654 623.622,357.1654 623.622,319.3701"/>
    <polyline points="608.4744,337.0177 610.3494,336.3927 610.3494,336.3927 610.9744,335.7677 610.9744,335.7677 611.5994,334.5177 611.5994,334.5177 611.5994,333.2677 611.5994,333.2677 610.9744,332.0177 610.9744,332.0177 610.3494,331.3927 610.3494,331.3927 608.4744,330.7677 608.4744,330.7677 602.8494,330.7677 602.8494,330.7677 602.8494,343.8927 602.8494,343.8927 608.4744,343.8927 608.4744,343.8927 610.3494,343.2677 610.3494,343.2677 610.9744,342.6427 610.9744,342.6427 611.5994,341.3927 611.5994,341.3927 611.5994,339.5177 611.5994,339.5177 610.9744,338.2677 610.9744,338.2677 610.3494,337.6427 610.3494,337.6427 608.4744,337.0177 608.4744,337.0177 602.8494,337.0177"/>
    <line x1="623.622" x2="661.4173" y1="357.1654" y2="357.1654"/>
    <polygon points="643.1447,330.7677 641.8947,331.3927 641.8947,331.3927 640.6447,332.6427 640.6447,332.6427 640.0197,333.8927 640.0197,333.8927 639.3947,335.7677 639.3947,335.7677 639.3947,338.8927 639.3947,338.8927 640.0197,340.7677 640.0197,340.7677 640.6447,342.0177 640.6447,342.0177 641.8947,343.2677 641.8947,343.2677 643.1447,343.8927 643.1447,343.8927 645.6447,343.8927 645.6447,343.8927 646.8947,343.2677 646.8947,343.2677 648.1447,342.0177 648.1447,342.0177 648.7697,340.7677 648.7697,340.7677 649.3947,338.8927 649.3947,338.8927 649.3947,335.7677 649.3947,335.7677 648.7697,333.8927 648.7697,333.8927 648.1447,332.6427 648.1447,332.6427 646.8947,331.3927 646.8947,331.3927 645.6447,330.7677 645.6447,330.7677"/>
    <polygon points="680.94,330.7677 679.69,331.3927 679.69,331.3927 678.44,332.6427 678.44,332.6427 677.815,333.8927 677.815,333.8927 677.19,335.7677 677.19,335.7677 677.19,338.8927 677.19,338.8927 677.815,340.7677 677.815,340.7677 678.44,342.0177 678.44,342.0177 679.69,343.2677 679.69,343.2677 680.94,343.8927 680.94,343.8927 683.44,343.8927 683.44,343.8927 684.69,343.2677 684.69,343.2677 685.94,342.0177 685.94,342.0177 686.565,340.7677 686.565,340.7677 687.19,338.8927 687.19,338.8927 687.19,335.7677 687.19,335.7677 686.565,333.8927 686.565,333.8927 685.94,332.6427 685.94,332.6427 684.69,331.3927 684.69,331.3927 683.44,330.7677 683.44,330.7677"/>
    <polyline points="724.6727,333.8927 724.0477,332.6427 724.0477,332.6427 722.7977,331.3927 722.7977,331.3927 721.5477,330.7677 721.5477,330.7677 719.0477,330.7677 719.0477,330.7677 717.7977,331.3927 717.7977,331.3927 716.5477,332.6427 716.5477,332.6427 715.9227,333.8927 715.9227,333.8927 715.2977,335.7677 715.2977,335.7677 715.2977,338.8927 715.2977,338.8927 715.9227,340.7677 715.9227,340.7677 716.5477,342.0177 716.5477,342.0177 717.7977,343.2677 717.7977,343.2677 719.0477,343.8927 719.0477,343.8927 721.5477,343.8927 721.5477,343.8927 722.7977,343.2677 722.7977,343.2677 724.0477,342.0177 724.0477,342.0177 724.6727,340.7677 724.6727,340.7677 724.6727,338.8927 724.6727,338.8927 721.5477,338.8927"/>
  </g>
</svg>
