<?xml version="1.0" encoding="utf-8" ?>
<svg xmlns="http://www.w3.org/2000/svg" xmlns:cc="http://creativecommons.org/ns" xmlns:dc="http://purl.org/dc/elements/1.1/" xmlns:ev="http://www.w3.org/2001/xml-events" xmlns:inkscape="http://www.inkscape.org/namespaces/inkscape" xmlns:rdf="http://www.w3.org/1999/02/22-rdf-syntax-ns" xmlns:sodipodi="http://sodipodi.sourceforge.net/DTD/sodipodi-0.dtd" xmlns:xlink="http://www.w3.org/1999/xlink" baseProfile="tiny" height="9.9cm" version="1.2" viewBox="0 0 793.7007874015749 374.1732283464567" width="21.0cm">
  <metadata>
    <rdf:RDF>
      <cc:Work>
        <dc:format>image/svg+xml</dc:format>
        <dc:source>vpype eval 'cell=10;width=210;height=99' eval 'nCols=20;nRows=9' eval 'cells=[1,3,4,5,6,7,8,9,10,16,18,21,24,26,29,33,36,38,41,44,46,48,49,50,51,52,53,54,55,56,58,61,64,66,69,73,76,78,80,81,82,83,84,85,86,88,89,90,91,93,95,96,97,98,99,101,104,106,109,116,121,124,127,128,129,130,131,132,133,134,135,142,143,144,145,146,149,168,169,170,171,172,173,174,175,176]' eval 'chars=[&quot;P&quot;,&quot;S&quot;,&quot;K&quot;,&quot;E&quot;,&quot;L&quot;,&quot;L&quot;,&quot;E&quot;,&quot;K&quot;,&quot;E&quot;,&quot;C&quot;,&quot;C&quot;,&quot;I&quot;,&quot;I&quot;,&quot;A&quot;,&quot;L&quot;,&quot;G&quot;,&quot;E&quot;,&quot;E&quot;,&quot;N&quot;,&quot;N&quot;,&quot;D&quot;,&quot;M&quot;,&quot;A&quot;,&quot;N&quot;,&quot;D&quot;,&quot;A&quot;,&quot;R&quot;,&quot;I&quot;,&quot;J&quot;,&quot;N&quot;,&quot;S&quot;,&quot;K&quot;,&quot;D&quot;,&quot;D&quot;,&quot;V&quot;,&quot;A&quot;,&quot;T&quot;,&quot;A&quot;,&quot;V&quot;,&quot;E&quot;,&quot;L&quot;,&quot;L&quot;,&quot;E&quot;,&quot;K&quot;,&quot;E&quot;,&quot;R&quot;,&quot;E&quot;,&quot;M&quot;,&quot;I&quot;,&quot;S&quot;,&quot;B&quot;,&quot;J&quot;,&quot;O&quot;,&quot;R&quot;,&quot;N&quot;,&quot;R&quot;,&quot;R&quot;,&quot;R&quot;,&quot;R&quot;,&quot;E&quot;,&quot;S&quot;,&quot;E&quot;,&quot;U&quot;,&quot;I&quot;,&quot;T&quot;,&quot;L&quot;,&quot;I&quot;,&quot;K&quot;,&quot;K&quot;,&quot;E&quot;,&quot;N&quot;,&quot;H&quot;,&quot;A&quot;,&quot;N&quot;,&quot;N&quot;,&quot;E&quot;,&quot;J&quot;,&quot;R&quot;,&quot;E&quot;,&quot;K&quot;,&quot;K&quot;,&quot;E&quot;,&quot;R&quot;,&quot;T&quot;,&quot;J&quot;,&quot;E&quot;]' eval 'numbers=[1,3,4,6,9,16,18,33,48,80,88,95,127,142,168]' eval counter=1 eval charIndex=0 begin grid -o '%cell*mm%' '%cell*mm%' %nCols% %nRows% eval '%isCell=_i in cells%' eval '%number=_i in numbers%' eval '%size=10 if isCell else 0%' rect 0 0 '%size*mm%' '%size*mm%' text -s 10 -p 0.5mm 1.5mm '%counter if number else '&quot;'&quot;''&quot;'&quot;'%' text -s 20 -p 5mm 5mm -a center '%chars[charIndex] if isCell else '&quot;'&quot;''&quot;'&quot;'%' eval '%if number: counter+=1 %' eval '%if isCell: charIndex+=1 %' end splitall deduplicate linemerge --tolerance 0.1mm write -m none --page-size '%width*mm%x%height*mm%' --center ./svgs/solution/7b3bd8.svg
</dc:source>
        <dc:date>2023-12-23T22:30:05.333718</dc:date>
      </cc:Work>
    </rdf:RDF>
  </metadata>
  <defs/>
  <g fill="none" id="layer1" inkscape:groupmode="layer" inkscape:label="1" stroke="#000000" style="display:inline">
    <polygon points="56.6929,17.0079 56.6929,54.8031 56.6929,54.8031 56.6929,92.5984 56.6929,92.5984 56.6929,130.3937 56.6929,130.3937 56.6929,168.189 56.6929,168.189 94.4882,168.189 94.4882,168.189 94.4882,130.3937 94.4882,130.3937 94.4882,92.5984 94.4882,92.5984 94.4882,54.8031 94.4882,54.8031 94.4882,17.0079 94.4882,17.0079"/>
    <line x1="56.6929" x2="94.4882" y1="54.8031" y2="54.8031"/>
    <polyline points="60.4577,20.1772 61.0827,19.8647 61.0827,19.8647 62.0202,18.9272 62.0202,18.9272 62.0202,25.4897"/>
    <polyline points="73.7156,35.2805 79.3406,35.2805 79.3406,35.2805 81.2156,34.6555 81.2156,34.6555 81.8406,34.0305 81.8406,34.0305 82.4656,32.7805 82.4656,32.7805 82.4656,30.9055 82.4656,30.9055 81.8406,29.6555 81.8406,29.6555 81.2156,29.0305 81.2156,29.0305 79.3406,28.4055 79.3406,28.4055 73.7156,28.4055 73.7156,28.4055 73.7156,41.5305"/>
    <polygon points="132.2835,17.0079 132.2835,54.8031 132.2835,54.8031 170.0787,54.8031 170.0787,54.8031 207.874,54.8031 207.874,54.8031 245.6693,54.8031 245.6693,54.8031 245.6693,17.0079 245.6693,17.0079 207.874,17.0079 207.874,17.0079 170.0787,17.0079 170.0787,17.0079"/>
    <polyline points="207.874,17.0079 207.874,54.8031 207.874,54.8031 207.874,92.5984 207.874,92.5984 207.874,130.3937 207.874,130.3937 170.0787,130.3937 170.0787,130.3937 170.0787,92.5984 170.0787,92.5984 170.0787,54.8031 170.0787,54.8031 170.0787,17.0079"/>
    <polyline points="135.4232,20.4897 135.4232,20.1772 135.4232,20.1772 135.7357,19.5522 135.7357,19.5522 136.0482,19.2397 136.0482,19.2397 136.6732,18.9272 136.6732,18.9272 137.9232,18.9272 137.9232,18.9272 138.5482,19.2397 138.5482,19.2397 138.8607,19.5522 138.8607,19.5522 139.1732,20.1772 139.1732,20.1772 139.1732,20.8022 139.1732,20.8022 138.8607,21.4272 138.8607,21.4272 138.2357,22.3647 138.2357,22.3647 135.1107,25.4897 135.1107,25.4897 139.4857,25.4897"/>
    <polyline points="157.4311,30.2805 156.1811,29.0305 156.1811,29.0305 154.3061,28.4055 154.3061,28.4055 151.8061,28.4055 151.8061,28.4055 149.9311,29.0305 149.9311,29.0305 148.6811,30.2805 148.6811,30.2805 148.6811,31.5305 148.6811,31.5305 149.3061,32.7805 149.3061,32.7805 149.9311,33.4055 149.9311,33.4055 151.1811,34.0305 151.1811,34.0305 154.9311,35.2805 154.9311,35.2805 156.1811,35.9055 156.1811,35.9055 156.8061,36.5305 156.8061,36.5305 157.4311,37.7805 157.4311,37.7805 157.4311,39.6555 157.4311,39.6555 156.1811,40.9055 156.1811,40.9055 154.3061,41.5305 154.3061,41.5305 151.8061,41.5305 151.8061,41.5305 149.9311,40.9055 149.9311,40.9055 148.6811,39.6555"/>
    <polyline points="173.531,18.9272 176.9685,18.9272 176.9685,18.9272 175.0935,21.4272 175.0935,21.4272 176.031,21.4272 176.031,21.4272 176.656,21.7397 176.656,21.7397 176.9685,22.0522 176.9685,22.0522 177.281,22.9897 177.281,22.9897 177.281,23.6147 177.281,23.6147 176.9685,24.5522 176.9685,24.5522 176.3435,25.1772 176.3435,25.1772 175.406,25.4897 175.406,25.4897 174.4685,25.4897 174.4685,25.4897 173.531,25.1772 173.531,25.1772 173.2185,24.8647 173.2185,24.8647 172.906,24.2397"/>
    <line x1="187.1014" x2="187.1014" y1="28.4055" y2="41.5305"/>
    <line x1="195.8514" x2="187.1014" y1="28.4055" y2="37.1555"/>
    <line x1="190.2264" x2="195.8514" y1="34.0305" y2="41.5305"/>
    <polyline points="233.3342,28.4055 225.2092,28.4055 225.2092,28.4055 225.2092,41.5305 225.2092,41.5305 233.3342,41.5305"/>
    <line x1="225.2092" x2="230.2092" y1="34.6555" y2="34.6555"/>
    <polyline points="283.4646,17.0079 283.4646,54.8031 283.4646,54.8031 283.4646,92.5984 283.4646,92.5984 245.6693,92.5984 245.6693,92.5984 245.6693,54.8031 245.6693,54.8031 283.4646,54.8031 283.4646,54.8031 321.2598,54.8031 321.2598,54.8031 359.0551,54.8031 359.0551,54.8031 359.0551,92.5984 359.0551,92.5984 321.2598,92.5984 321.2598,92.5984 321.2598,130.3937 321.2598,130.3937 359.0551,130.3937 359.0551,130.3937 359.0551,168.189 359.0551,168.189 321.2598,168.189 321.2598,168.189 321.2598,205.9843 321.2598,205.9843 359.0551,205.9843 359.0551,205.9843 359.0551,168.189 359.0551,168.189 396.8504,168.189 396.8504,168.189 396.8504,130.3937 396.8504,130.3937 396.8504,92.5984 396.8504,92.5984 396.8504,54.8031 396.8504,54.8031 434.6457,54.8031 434.6457,54.8031 434.6457,17.0079 434.6457,17.0079 396.8504,17.0079 396.8504,17.0079 359.0551,17.0079 359.0551,17.0079 321.2598,17.0079 321.2598,17.0079 283.4646,17.0079 283.4646,17.0079 245.6693,17.0079"/>
    <polyline points="251.6216,25.4897 251.6216,18.9272 251.6216,18.9272 248.4966,23.3022 248.4966,23.3022 253.1841,23.3022"/>
    <polyline points="263.3169,28.4055 263.3169,41.5305 263.3169,41.5305 270.8169,41.5305"/>
    <line x1="321.2598" x2="321.2598" y1="54.8031" y2="17.0079"/>
    <polyline points="301.1122,28.4055 301.1122,41.5305 301.1122,41.5305 308.6122,41.5305"/>
    <polyline points="396.8504,17.0079 396.8504,54.8031 396.8504,54.8031 359.0551,54.8031 359.0551,54.8031 359.0551,17.0079"/>
    <polyline points="346.72,28.4055 338.595,28.4055 338.595,28.4055 338.595,41.5305 338.595,41.5305 346.72,41.5305"/>
    <line x1="338.595" x2="343.595" y1="34.6555" y2="34.6555"/>
    <polyline points="365.6324,18.9272 362.5074,18.9272 362.5074,18.9272 362.1949,21.7397 362.1949,21.7397 362.5074,21.4272 362.5074,21.4272 363.4449,21.1147 363.4449,21.1147 364.3824,21.1147 364.3824,21.1147 365.3199,21.4272 365.3199,21.4272 365.9449,22.0522 365.9449,22.0522 366.2574,22.9897 366.2574,22.9897 366.2574,23.6147 366.2574,23.6147 365.9449,24.5522 365.9449,24.5522 365.3199,25.1772 365.3199,25.1772 364.3824,25.4897 364.3824,25.4897 363.4449,25.4897 363.4449,25.4897 362.5074,25.1772 362.5074,25.1772 362.1949,24.8647 362.1949,24.8647 361.8824,24.2397"/>
    <line x1="376.0778" x2="376.0778" y1="28.4055" y2="41.5305"/>
    <line x1="384.8278" x2="376.0778" y1="28.4055" y2="37.1555"/>
    <line x1="379.2028" x2="384.8278" y1="34.0305" y2="41.5305"/>
    <polyline points="422.3105,28.4055 414.1855,28.4055 414.1855,28.4055 414.1855,41.5305 414.1855,41.5305 422.3105,41.5305"/>
    <line x1="414.1855" x2="419.1855" y1="34.6555" y2="34.6555"/>
    <polygon points="623.622,17.0079 623.622,54.8031 623.622,54.8031 623.622,92.5984 623.622,92.5984 661.4173,92.5984 661.4173,92.5984 661.4173,54.8031 661.4173,54.8031 661.4173,17.0079 661.4173,17.0079"/>
    <line x1="623.622" x2="661.4173" y1="54.8031" y2="54.8031"/>
    <polyline points="630.5118,19.8647 630.1993,19.2397 630.1993,19.2397 629.2618,18.9272 629.2618,18.9272 628.6368,18.9272 628.6368,18.9272 627.6993,19.2397 627.6993,19.2397 627.0743,20.1772 627.0743,20.1772 626.7618,21.7397 626.7618,21.7397 626.7618,23.3022 626.7618,23.3022 627.0743,24.5522 627.0743,24.5522 627.6993,25.1772 627.6993,25.1772 628.6368,25.4897 628.6368,25.4897 628.9493,25.4897 628.9493,25.4897 629.8868,25.1772 629.8868,25.1772 630.5118,24.5522 630.5118,24.5522 630.8243,23.6147 630.8243,23.6147 630.8243,23.3022 630.8243,23.3022 630.5118,22.3647 630.5118,22.3647 629.8868,21.7397 629.8868,21.7397 628.9493,21.4272 628.9493,21.4272 628.6368,21.4272 628.6368,21.4272 627.6993,21.7397 627.6993,21.7397 627.0743,22.3647 627.0743,22.3647 626.7618,23.3022"/>
    <polyline points="649.0822,31.5305 648.4572,30.2805 648.4572,30.2805 647.2072,29.0305 647.2072,29.0305 645.9572,28.4055 645.9572,28.4055 643.4572,28.4055 643.4572,28.4055 642.2072,29.0305 642.2072,29.0305 640.9572,30.2805 640.9572,30.2805 640.3322,31.5305 640.3322,31.5305 639.7072,33.4055 639.7072,33.4055 639.7072,36.5305 639.7072,36.5305 640.3322,38.4055 640.3322,38.4055 640.9572,39.6555 640.9572,39.6555 642.2072,40.9055 642.2072,40.9055 643.4572,41.5305 643.4572,41.5305 645.9572,41.5305 645.9572,41.5305 647.2072,40.9055 647.2072,40.9055 648.4572,39.6555 648.4572,39.6555 649.0822,38.4055"/>
    <polygon points="699.2126,17.0079 699.2126,54.8031 699.2126,54.8031 737.0079,54.8031 737.0079,54.8031 737.0079,17.0079 737.0079,17.0079"/>
    <polyline points="702.0399,18.9272 706.4149,18.9272 706.4149,18.9272 703.2899,25.4897"/>
    <polyline points="724.6727,31.5305 724.0477,30.2805 724.0477,30.2805 722.7977,29.0305 722.7977,29.0305 721.5477,28.4055 721.5477,28.4055 719.0477,28.4055 719.0477,28.4055 717.7977,29.0305 717.7977,29.0305 716.5477,30.2805 716.5477,30.2805 715.9227,31.5305 715.9227,31.5305 715.2977,33.4055 715.2977,33.4055 715.2977,36.5305 715.2977,36.5305 715.9227,38.4055 715.9227,38.4055 716.5477,39.6555 716.5477,39.6555 717.7977,40.9055 717.7977,40.9055 719.0477,41.5305 719.0477,41.5305 721.5477,41.5305 721.5477,41.5305 722.7977,40.9055 722.7977,40.9055 724.0477,39.6555 724.0477,39.6555 724.6727,38.4055"/>
    <line x1="56.6929" x2="94.4882" y1="92.5984" y2="92.5984"/>
    <line x1="78.0906" x2="78.0906" y1="66.2008" y2="79.3258"/>
    <line x1="170.0787" x2="207.874" y1="92.5984" y2="92.5984"/>
    <line x1="191.4764" x2="191.4764" y1="66.2008" y2="79.3258"/>
    <polyline points="270.1919,79.3258 265.1919,66.2008 265.1919,66.2008 260.1919,79.3258"/>
    <line x1="262.0669" x2="268.3169" y1="74.9508" y2="74.9508"/>
    <polygon points="359.0551,92.5984 396.8504,92.5984 396.8504,92.5984 434.6457,92.5984 434.6457,92.5984 434.6457,130.3937 434.6457,130.3937 396.8504,130.3937 396.8504,130.3937 359.0551,130.3937 359.0551,130.3937"/>
    <polyline points="376.7028,66.2008 376.7028,79.3258 376.7028,79.3258 384.2028,79.3258"/>
    <polygon points="510.2362,54.8031 510.2362,92.5984 510.2362,92.5984 548.0315,92.5984 548.0315,92.5984 548.0315,54.8031 548.0315,54.8031"/>
    <polygon points="514.626,56.7224 513.6885,57.0349 513.6885,57.0349 513.376,57.6599 513.376,57.6599 513.376,58.2849 513.376,58.2849 513.6885,58.9099 513.6885,58.9099 514.3135,59.2224 514.3135,59.2224 515.5635,59.5349 515.5635,59.5349 516.501,59.8474 516.501,59.8474 517.126,60.4724 517.126,60.4724 517.4385,61.0974 517.4385,61.0974 517.4385,62.0349 517.4385,62.0349 517.126,62.6599 517.126,62.6599 516.8135,62.9724 516.8135,62.9724 515.876,63.2849 515.876,63.2849 514.626,63.2849 514.626,63.2849 513.6885,62.9724 513.6885,62.9724 513.376,62.6599 513.376,62.6599 513.0635,62.0349 513.0635,62.0349 513.0635,61.0974 513.0635,61.0974 513.376,60.4724 513.376,60.4724 514.001,59.8474 514.001,59.8474 514.9385,59.5349 514.9385,59.5349 516.1885,59.2224 516.1885,59.2224 516.8135,58.9099 516.8135,58.9099 517.126,58.2849 517.126,58.2849 517.126,57.6599 517.126,57.6599 516.8135,57.0349 516.8135,57.0349 515.876,56.7224 515.876,56.7224"/>
    <polyline points="535.6964,69.3258 535.0714,68.0758 535.0714,68.0758 533.8214,66.8258 533.8214,66.8258 532.5714,66.2008 532.5714,66.2008 530.0714,66.2008 530.0714,66.2008 528.8214,66.8258 528.8214,66.8258 527.5714,68.0758 527.5714,68.0758 526.9464,69.3258 526.9464,69.3258 526.3214,71.2008 526.3214,71.2008 526.3214,74.3258 526.3214,74.3258 526.9464,76.2008 526.9464,76.2008 527.5714,77.4508 527.5714,77.4508 528.8214,78.7008 528.8214,78.7008 530.0714,79.3258 530.0714,79.3258 532.5714,79.3258 532.5714,79.3258 533.8214,78.7008 533.8214,78.7008 535.0714,77.4508 535.0714,77.4508 535.6964,76.2008 535.6964,76.2008 535.6964,74.3258 535.6964,74.3258 532.5714,74.3258"/>
    <polyline points="649.0822,66.2008 640.9572,66.2008 640.9572,66.2008 640.9572,79.3258 640.9572,79.3258 649.0822,79.3258"/>
    <line x1="640.9572" x2="645.9572" y1="72.4508" y2="72.4508"/>
    <polyline points="699.2126,54.8031 699.2126,92.5984 699.2126,92.5984 699.2126,130.3937 699.2126,130.3937 699.2126,168.189 699.2126,168.189 737.0079,168.189 737.0079,168.189 737.0079,130.3937 737.0079,130.3937 737.0079,92.5984 737.0079,92.5984 737.0079,54.8031"/>
    <line x1="699.2126" x2="737.0079" y1="92.5984" y2="92.5984"/>
    <polyline points="724.6727,66.2008 716.5477,66.2008 716.5477,66.2008 716.5477,79.3258 716.5477,79.3258 724.6727,79.3258"/>
    <line x1="716.5477" x2="721.5477" y1="72.4508" y2="72.4508"/>
    <line x1="56.6929" x2="94.4882" y1="130.3937" y2="130.3937"/>
    <polyline points="82.4656,103.9961 82.4656,117.1211 82.4656,117.1211 73.7156,103.9961 73.7156,103.9961 73.7156,117.1211"/>
    <polyline points="195.8514,103.9961 195.8514,117.1211 195.8514,117.1211 187.1014,103.9961 187.1014,103.9961 187.1014,117.1211"/>
    <polyline points="245.6693,92.5984 245.6693,130.3937 245.6693,130.3937 245.6693,168.189 245.6693,168.189 283.4646,168.189 283.4646,168.189 283.4646,130.3937 283.4646,130.3937 283.4646,92.5984"/>
    <line x1="245.6693" x2="283.4646" y1="130.3937" y2="130.3937"/>
    <polygon points="262.6919,103.9961 262.6919,117.1211 262.6919,117.1211 267.0669,117.1211 267.0669,117.1211 268.9419,116.4961 268.9419,116.4961 270.1919,115.2461 270.1919,115.2461 270.8169,113.9961 270.8169,113.9961 271.4419,112.1211 271.4419,112.1211 271.4419,108.9961 271.4419,108.9961 270.8169,107.1211 270.8169,107.1211 270.1919,105.8711 270.1919,105.8711 268.9419,104.6211 268.9419,104.6211 267.0669,103.9961 267.0669,103.9961"/>
    <polyline points="328.1496,96.7052 327.8371,97.6427 327.8371,97.6427 327.2121,98.2677 327.2121,98.2677 326.2746,98.5802 326.2746,98.5802 325.9621,98.5802 325.9621,98.5802 325.0246,98.2677 325.0246,98.2677 324.3996,97.6427 324.3996,97.6427 324.0871,96.7052 324.0871,96.7052 324.0871,96.3927 324.0871,96.3927 324.3996,95.4552 324.3996,95.4552 325.0246,94.8302 325.0246,94.8302 325.9621,94.5177 325.9621,94.5177 326.2746,94.5177 326.2746,94.5177 327.2121,94.8302 327.2121,94.8302 327.8371,95.4552 327.8371,95.4552 328.1496,96.7052 328.1496,96.7052 328.1496,98.2677 328.1496,98.2677 327.8371,99.8302 327.8371,99.8302 327.2121,100.7677 327.2121,100.7677 326.2746,101.0802 326.2746,101.0802 325.6496,101.0802 325.6496,101.0802 324.7121,100.7677 324.7121,100.7677 324.3996,100.1427"/>
    <polyline points="347.6575,117.1211 347.6575,103.9961 347.6575,103.9961 342.6575,117.1211 342.6575,117.1211 337.6575,103.9961 337.6575,103.9961 337.6575,117.1211"/>
    <polyline points="383.5778,117.1211 378.5778,103.9961 378.5778,103.9961 373.5778,117.1211"/>
    <line x1="375.4528" x2="381.7028" y1="112.7461" y2="112.7461"/>
    <polyline points="422.623,103.9961 422.623,117.1211 422.623,117.1211 413.873,103.9961 413.873,103.9961 413.873,117.1211"/>
    <polyline points="434.6457,130.3937 472.4409,130.3937 472.4409,130.3937 510.2362,130.3937 510.2362,130.3937 548.0315,130.3937 548.0315,130.3937 585.8268,130.3937 585.8268,130.3937 585.8268,92.5984 585.8268,92.5984 548.0315,92.5984 548.0315,92.5984 548.0315,130.3937 548.0315,130.3937 548.0315,168.189 548.0315,168.189 510.2362,168.189 510.2362,168.189 510.2362,205.9843 510.2362,205.9843 548.0315,205.9843 548.0315,205.9843 548.0315,168.189"/>
    <polyline points="472.4409,130.3937 472.4409,92.5984 472.4409,92.5984 434.6457,92.5984"/>
    <polygon points="451.6683,103.9961 451.6683,117.1211 451.6683,117.1211 456.0433,117.1211 456.0433,117.1211 457.9183,116.4961 457.9183,116.4961 459.1683,115.2461 459.1683,115.2461 459.7933,113.9961 459.7933,113.9961 460.4183,112.1211 460.4183,112.1211 460.4183,108.9961 460.4183,108.9961 459.7933,107.1211 459.7933,107.1211 459.1683,105.8711 459.1683,105.8711 457.9183,104.6211 457.9183,104.6211 456.0433,103.9961 456.0433,103.9961"/>
    <polyline points="510.2362,168.189 510.2362,130.3937 510.2362,130.3937 510.2362,92.5984 510.2362,92.5984 472.4409,92.5984"/>
    <polyline points="496.9636,117.1211 491.9636,103.9961 491.9636,103.9961 486.9636,117.1211"/>
    <line x1="488.8386" x2="495.0886" y1="112.7461" y2="112.7461"/>
    <polyline points="527.2589,110.2461 532.8839,110.2461 532.8839,110.2461 534.7589,109.6211 534.7589,109.6211 535.3839,108.9961 535.3839,108.9961 536.0089,107.7461 536.0089,107.7461 536.0089,106.4961 536.0089,106.4961 535.3839,105.2461 535.3839,105.2461 534.7589,104.6211 534.7589,104.6211 532.8839,103.9961 532.8839,103.9961 527.2589,103.9961 527.2589,103.9961 527.2589,117.1211"/>
    <line x1="531.6339" x2="536.0089" y1="110.2461" y2="117.1211"/>
    <line x1="569.4291" x2="569.4291" y1="103.9961" y2="117.1211"/>
    <polyline points="585.8268,130.3937 623.622,130.3937 623.622,130.3937 623.622,168.189 623.622,168.189 661.4173,168.189 661.4173,168.189 661.4173,130.3937 661.4173,130.3937 661.4173,92.5984"/>
    <polyline points="661.4173,130.3937 623.622,130.3937 623.622,130.3937 623.622,92.5984 623.622,92.5984 585.8268,92.5984"/>
    <polyline points="609.0994,103.9961 609.0994,113.9961 609.0994,113.9961 608.4744,115.8711 608.4744,115.8711 607.8494,116.4961 607.8494,116.4961 606.5994,117.1211 606.5994,117.1211 605.3494,117.1211 605.3494,117.1211 604.0994,116.4961 604.0994,116.4961 603.4744,115.8711 603.4744,115.8711 602.8494,113.9961 602.8494,113.9961 602.8494,112.7461"/>
    <polyline points="649.3947,103.9961 649.3947,117.1211 649.3947,117.1211 640.6447,103.9961 640.6447,103.9961 640.6447,117.1211"/>
    <line x1="699.2126" x2="737.0079" y1="130.3937" y2="130.3937"/>
    <polyline points="724.3602,105.8711 723.1102,104.6211 723.1102,104.6211 721.2352,103.9961 721.2352,103.9961 718.7352,103.9961 718.7352,103.9961 716.8602,104.6211 716.8602,104.6211 715.6102,105.8711 715.6102,105.8711 715.6102,107.1211 715.6102,107.1211 716.2352,108.3711 716.2352,108.3711 716.8602,108.9961 716.8602,108.9961 718.1102,109.6211 718.1102,109.6211 721.8602,110.8711 721.8602,110.8711 723.1102,111.4961 723.1102,111.4961 723.7352,112.1211 723.7352,112.1211 724.3602,113.3711 724.3602,113.3711 724.3602,115.2461 724.3602,115.2461 723.1102,116.4961 723.1102,116.4961 721.2352,117.1211 721.2352,117.1211 718.7352,117.1211 718.7352,117.1211 716.8602,116.4961 716.8602,116.4961 715.6102,115.2461"/>
    <line x1="73.7156" x2="73.7156" y1="141.7913" y2="154.9163"/>
    <line x1="82.4656" x2="73.7156" y1="141.7913" y2="150.5413"/>
    <line x1="76.8406" x2="82.4656" y1="147.4163" y2="154.9163"/>
    <polyline points="170.0787,130.3937 170.0787,168.189 170.0787,168.189 132.2835,168.189 132.2835,168.189 94.4882,168.189 94.4882,168.189 94.4882,205.9843 94.4882,205.9843 132.2835,205.9843 132.2835,205.9843 132.2835,168.189"/>
    <polyline points="132.2835,205.9843 170.0787,205.9843 170.0787,205.9843 207.874,205.9843 207.874,205.9843 245.6693,205.9843 245.6693,205.9843 245.6693,168.189 245.6693,168.189 207.874,168.189 207.874,168.189 207.874,205.9843 207.874,205.9843 207.874,243.7795 207.874,243.7795 170.0787,243.7795 170.0787,243.7795 170.0787,205.9843 170.0787,205.9843 170.0787,168.189 170.0787,168.189 207.874,168.189 207.874,168.189 207.874,130.3937"/>
    <polygon points="187.1014,141.7913 187.1014,154.9163 187.1014,154.9163 191.4764,154.9163 191.4764,154.9163 193.3514,154.2913 193.3514,154.2913 194.6014,153.0413 194.6014,153.0413 195.2264,151.7913 195.2264,151.7913 195.8514,149.9163 195.8514,149.9163 195.8514,146.7913 195.8514,146.7913 195.2264,144.9163 195.2264,144.9163 194.6014,143.6663 194.6014,143.6663 193.3514,142.4163 193.3514,142.4163 191.4764,141.7913 191.4764,141.7913"/>
    <polygon points="262.6919,141.7913 262.6919,154.9163 262.6919,154.9163 267.0669,154.9163 267.0669,154.9163 268.9419,154.2913 268.9419,154.2913 270.1919,153.0413 270.1919,153.0413 270.8169,151.7913 270.8169,151.7913 271.4419,149.9163 271.4419,149.9163 271.4419,146.7913 271.4419,146.7913 270.8169,144.9163 270.8169,144.9163 270.1919,143.6663 270.1919,143.6663 268.9419,142.4163 268.9419,142.4163 267.0669,141.7913 267.0669,141.7913"/>
    <polyline points="373.5778,141.7913 378.5778,154.9163 378.5778,154.9163 383.5778,141.7913"/>
    <polyline points="534.7589,154.9163 529.7589,141.7913 529.7589,141.7913 524.7589,154.9163"/>
    <line x1="526.6339" x2="532.8839" y1="150.5413" y2="150.5413"/>
    <line x1="643.1447" x2="643.1447" y1="141.7913" y2="154.9163"/>
    <line x1="638.7697" x2="647.5197" y1="141.7913" y2="141.7913"/>
    <polyline points="723.7352,154.9163 718.7352,141.7913 718.7352,141.7913 713.7352,154.9163"/>
    <line x1="715.6102" x2="721.8602" y1="150.5413" y2="150.5413"/>
    <polygon points="18.8976,168.189 18.8976,205.9843 18.8976,205.9843 56.6929,205.9843 56.6929,205.9843 94.4882,205.9843 94.4882,205.9843 94.4882,243.7795 94.4882,243.7795 56.6929,243.7795 56.6929,243.7795 56.6929,205.9843 56.6929,205.9843 56.6929,168.189 56.6929,168.189"/>
    <polyline points="22.6624,171.3583 23.2874,171.0458 23.2874,171.0458 24.2249,170.1083 24.2249,170.1083 24.2249,176.6708"/>
    <polygon points="29.8499,170.1083 28.9124,170.4208 28.9124,170.4208 28.2874,171.3583 28.2874,171.3583 27.9749,172.9208 27.9749,172.9208 27.9749,173.8583 27.9749,173.8583 28.2874,175.4208 28.2874,175.4208 28.9124,176.3583 28.9124,176.3583 29.8499,176.6708 29.8499,176.6708 30.4749,176.6708 30.4749,176.6708 31.4124,176.3583 31.4124,176.3583 32.0374,175.4208 32.0374,175.4208 32.3499,173.8583 32.3499,173.8583 32.3499,172.9208 32.3499,172.9208 32.0374,171.3583 32.0374,171.3583 31.4124,170.4208 31.4124,170.4208 30.4749,170.1083 30.4749,170.1083"/>
    <polyline points="33.4203,179.5866 38.4203,192.7116 38.4203,192.7116 43.4203,179.5866"/>
    <polyline points="82.1531,179.5866 74.0281,179.5866 74.0281,179.5866 74.0281,192.7116 74.0281,192.7116 82.1531,192.7116"/>
    <line x1="74.0281" x2="79.0281" y1="185.8366" y2="185.8366"/>
    <polyline points="112.1358,179.5866 112.1358,192.7116 112.1358,192.7116 119.6358,192.7116"/>
    <polyline points="149.9311,179.5866 149.9311,192.7116 149.9311,192.7116 157.4311,192.7116"/>
    <polyline points="195.5389,179.5866 187.4139,179.5866 187.4139,179.5866 187.4139,192.7116 187.4139,192.7116 195.5389,192.7116"/>
    <line x1="187.4139" x2="192.4139" y1="185.8366" y2="185.8366"/>
    <line x1="224.8967" x2="224.8967" y1="179.5866" y2="192.7116"/>
    <line x1="233.6467" x2="224.8967" y1="179.5866" y2="188.3366"/>
    <line x1="228.0217" x2="233.6467" y1="185.2116" y2="192.7116"/>
    <polyline points="283.4646,205.9843 283.4646,243.7795 283.4646,243.7795 245.6693,243.7795 245.6693,243.7795 245.6693,205.9843 245.6693,205.9843 283.4646,205.9843 283.4646,205.9843 283.4646,168.189"/>
    <polyline points="271.1294,179.5866 263.0044,179.5866 263.0044,179.5866 263.0044,192.7116 263.0044,192.7116 271.1294,192.7116"/>
    <line x1="263.0044" x2="268.0044" y1="185.8366" y2="185.8366"/>
    <polyline points="325.0246,171.3583 325.6496,171.0458 325.6496,171.0458 326.5871,170.1083 326.5871,170.1083 326.5871,176.6708"/>
    <polyline points="331.2746,171.3583 331.8996,171.0458 331.8996,171.0458 332.8371,170.1083 332.8371,170.1083 332.8371,176.6708"/>
    <polyline points="338.2825,185.8366 343.9075,185.8366 343.9075,185.8366 345.7825,185.2116 345.7825,185.2116 346.4075,184.5866 346.4075,184.5866 347.0325,183.3366 347.0325,183.3366 347.0325,182.0866 347.0325,182.0866 346.4075,180.8366 346.4075,180.8366 345.7825,180.2116 345.7825,180.2116 343.9075,179.5866 343.9075,179.5866 338.2825,179.5866 338.2825,179.5866 338.2825,192.7116"/>
    <line x1="342.6575" x2="347.0325" y1="185.8366" y2="192.7116"/>
    <polygon points="359.0551,205.9843 396.8504,205.9843 396.8504,205.9843 396.8504,168.189 396.8504,168.189 434.6457,168.189 434.6457,168.189 434.6457,205.9843 434.6457,205.9843 396.8504,205.9843 396.8504,205.9843 396.8504,243.7795 396.8504,243.7795 359.0551,243.7795 359.0551,243.7795"/>
    <polyline points="384.5153,179.5866 376.3903,179.5866 376.3903,179.5866 376.3903,192.7116 376.3903,192.7116 384.5153,192.7116"/>
    <line x1="376.3903" x2="381.3903" y1="185.8366" y2="185.8366"/>
    <polyline points="423.248,192.7116 423.248,179.5866 423.248,179.5866 418.248,192.7116 418.248,192.7116 413.248,179.5866 413.248,179.5866 413.248,192.7116"/>
    <polyline points="434.6457,205.9843 472.4409,205.9843 472.4409,205.9843 472.4409,168.189 472.4409,168.189 434.6457,168.189"/>
    <line x1="456.0433" x2="456.0433" y1="179.5866" y2="192.7116"/>
    <polyline points="535.3839,181.4616 534.1339,180.2116 534.1339,180.2116 532.2589,179.5866 532.2589,179.5866 529.7589,179.5866 529.7589,179.5866 527.8839,180.2116 527.8839,180.2116 526.6339,181.4616 526.6339,181.4616 526.6339,182.7116 526.6339,182.7116 527.2589,183.9616 527.2589,183.9616 527.8839,184.5866 527.8839,184.5866 529.1339,185.2116 529.1339,185.2116 532.8839,186.4616 532.8839,186.4616 534.1339,187.0866 534.1339,187.0866 534.7589,187.7116 534.7589,187.7116 535.3839,188.9616 535.3839,188.9616 535.3839,190.8366 535.3839,190.8366 534.1339,192.0866 534.1339,192.0866 532.2589,192.7116 532.2589,192.7116 529.7589,192.7116 529.7589,192.7116 527.8839,192.0866 527.8839,192.0866 526.6339,190.8366"/>
    <polygon points="585.8268,168.189 585.8268,205.9843 585.8268,205.9843 623.622,205.9843 623.622,205.9843 661.4173,205.9843 661.4173,205.9843 661.4173,168.189 661.4173,168.189 699.2126,168.189 699.2126,168.189 699.2126,205.9843 699.2126,205.9843 661.4173,205.9843 661.4173,205.9843 661.4173,243.7795 661.4173,243.7795 623.622,243.7795 623.622,243.7795 623.622,205.9843 623.622,205.9843 623.622,168.189 623.622,168.189"/>
    <polyline points="589.5915,171.3583 590.2165,171.0458 590.2165,171.0458 591.154,170.1083 591.154,170.1083 591.154,176.6708"/>
    <polyline points="595.2165,171.6708 595.2165,171.3583 595.2165,171.3583 595.529,170.7333 595.529,170.7333 595.8415,170.4208 595.8415,170.4208 596.4665,170.1083 596.4665,170.1083 597.7165,170.1083 597.7165,170.1083 598.3415,170.4208 598.3415,170.4208 598.654,170.7333 598.654,170.7333 598.9665,171.3583 598.9665,171.3583 598.9665,171.9833 598.9665,171.9833 598.654,172.6083 598.654,172.6083 598.029,173.5458 598.029,173.5458 594.904,176.6708 594.904,176.6708 599.279,176.6708"/>
    <polygon points="602.8494,179.5866 602.8494,192.7116 602.8494,192.7116 608.4744,192.7116 608.4744,192.7116 610.3494,192.0866 610.3494,192.0866 610.9744,191.4616 610.9744,191.4616 611.5994,190.2116 611.5994,190.2116 611.5994,188.3366 611.5994,188.3366 610.9744,187.0866 610.9744,187.0866 610.3494,186.4616 610.3494,186.4616 608.4744,185.8366 608.4744,185.8366 610.3494,185.2116 610.3494,185.2116 610.9744,184.5866 610.9744,184.5866 611.5994,183.3366 611.5994,183.3366 611.5994,182.0866 611.5994,182.0866 610.9744,180.8366 610.9744,180.8366 610.3494,180.2116 610.3494,180.2116 608.4744,179.5866 608.4744,179.5866"/>
    <line x1="602.8494" x2="608.4744" y1="185.8366" y2="185.8366"/>
    <polyline points="646.8947,179.5866 646.8947,189.5866 646.8947,189.5866 646.2697,191.4616 646.2697,191.4616 645.6447,192.0866 645.6447,192.0866 644.3947,192.7116 644.3947,192.7116 643.1447,192.7116 643.1447,192.7116 641.8947,192.0866 641.8947,192.0866 641.2697,191.4616 641.2697,191.4616 640.6447,189.5866 640.6447,189.5866 640.6447,188.3366"/>
    <polygon points="680.94,179.5866 679.69,180.2116 679.69,180.2116 678.44,181.4616 678.44,181.4616 677.815,182.7116 677.815,182.7116 677.19,184.5866 677.19,184.5866 677.19,187.7116 677.19,187.7116 677.815,189.5866 677.815,189.5866 678.44,190.8366 678.44,190.8366 679.69,192.0866 679.69,192.0866 680.94,192.7116 680.94,192.7116 683.44,192.7116 683.44,192.7116 684.69,192.0866 684.69,192.0866 685.94,190.8366 685.94,190.8366 686.565,189.5866 686.565,189.5866 687.19,187.7116 687.19,187.7116 687.19,184.5866 687.19,184.5866 686.565,182.7116 686.565,182.7116 685.94,181.4616 685.94,181.4616 684.69,180.2116 684.69,180.2116 683.44,179.5866 683.44,179.5866"/>
    <polyline points="699.2126,205.9843 737.0079,205.9843 737.0079,205.9843 737.0079,168.189 737.0079,168.189 774.8031,168.189 774.8031,168.189 774.8031,205.9843 774.8031,205.9843 737.0079,205.9843"/>
    <polyline points="716.2352,185.8366 721.8602,185.8366 721.8602,185.8366 723.7352,185.2116 723.7352,185.2116 724.3602,184.5866 724.3602,184.5866 724.9852,183.3366 724.9852,183.3366 724.9852,182.0866 724.9852,182.0866 724.3602,180.8366 724.3602,180.8366 723.7352,180.2116 723.7352,180.2116 721.8602,179.5866 721.8602,179.5866 716.2352,179.5866 716.2352,179.5866 716.2352,192.7116"/>
    <line x1="720.6102" x2="724.9852" y1="185.8366" y2="192.7116"/>
    <polyline points="762.7805,179.5866 762.7805,192.7116 762.7805,192.7116 754.0305,179.5866 754.0305,179.5866 754.0305,192.7116"/>
    <polyline points="73.7156,223.6319 79.3406,223.6319 79.3406,223.6319 81.2156,223.0069 81.2156,223.0069 81.8406,222.3819 81.8406,222.3819 82.4656,221.1319 82.4656,221.1319 82.4656,219.8819 82.4656,219.8819 81.8406,218.6319 81.8406,218.6319 81.2156,218.0069 81.2156,218.0069 79.3406,217.3819 79.3406,217.3819 73.7156,217.3819 73.7156,217.3819 73.7156,230.5069"/>
    <line x1="78.0906" x2="82.4656" y1="223.6319" y2="230.5069"/>
    <polyline points="187.1014,223.6319 192.7264,223.6319 192.7264,223.6319 194.6014,223.0069 194.6014,223.0069 195.2264,222.3819 195.2264,222.3819 195.8514,221.1319 195.8514,221.1319 195.8514,219.8819 195.8514,219.8819 195.2264,218.6319 195.2264,218.6319 194.6014,218.0069 194.6014,218.0069 192.7264,217.3819 192.7264,217.3819 187.1014,217.3819 187.1014,217.3819 187.1014,230.5069"/>
    <line x1="191.4764" x2="195.8514" y1="223.6319" y2="230.5069"/>
    <polyline points="262.6919,223.6319 268.3169,223.6319 268.3169,223.6319 270.1919,223.0069 270.1919,223.0069 270.8169,222.3819 270.8169,222.3819 271.4419,221.1319 271.4419,221.1319 271.4419,219.8819 271.4419,219.8819 270.8169,218.6319 270.8169,218.6319 270.1919,218.0069 270.1919,218.0069 268.3169,217.3819 268.3169,217.3819 262.6919,217.3819 262.6919,217.3819 262.6919,230.5069"/>
    <line x1="267.0669" x2="271.4419" y1="223.6319" y2="230.5069"/>
    <polyline points="376.0778,223.6319 381.7028,223.6319 381.7028,223.6319 383.5778,223.0069 383.5778,223.0069 384.2028,222.3819 384.2028,222.3819 384.8278,221.1319 384.8278,221.1319 384.8278,219.8819 384.8278,219.8819 384.2028,218.6319 384.2028,218.6319 383.5778,218.0069 383.5778,218.0069 381.7028,217.3819 381.7028,217.3819 376.0778,217.3819 376.0778,217.3819 376.0778,230.5069"/>
    <line x1="380.4528" x2="384.8278" y1="223.6319" y2="230.5069"/>
    <polyline points="649.0822,217.3819 640.9572,217.3819 640.9572,217.3819 640.9572,230.5069 640.9572,230.5069 649.0822,230.5069"/>
    <line x1="640.9572" x2="645.9572" y1="223.6319" y2="223.6319"/>
    <polyline points="56.6929,243.7795 56.6929,281.5748 56.6929,281.5748 94.4882,281.5748 94.4882,281.5748 94.4882,319.3701 94.4882,319.3701 132.2835,319.3701 132.2835,319.3701 170.0787,319.3701 170.0787,319.3701 207.874,319.3701 207.874,319.3701 207.874,281.5748 207.874,281.5748 207.874,243.7795"/>
    <polyline points="132.2835,319.3701 132.2835,281.5748 132.2835,281.5748 94.4882,281.5748 94.4882,281.5748 94.4882,243.7795"/>
    <polyline points="81.8406,257.0522 80.5906,255.8022 80.5906,255.8022 78.7156,255.1772 78.7156,255.1772 76.2156,255.1772 76.2156,255.1772 74.3406,255.8022 74.3406,255.8022 73.0906,257.0522 73.0906,257.0522 73.0906,258.3022 73.0906,258.3022 73.7156,259.5522 73.7156,259.5522 74.3406,260.1772 74.3406,260.1772 75.5906,260.8022 75.5906,260.8022 79.3406,262.0522 79.3406,262.0522 80.5906,262.6772 80.5906,262.6772 81.2156,263.3022 81.2156,263.3022 81.8406,264.5522 81.8406,264.5522 81.8406,266.4272 81.8406,266.4272 80.5906,267.6772 80.5906,267.6772 78.7156,268.3022 78.7156,268.3022 76.2156,268.3022 76.2156,268.3022 74.3406,267.6772 74.3406,267.6772 73.0906,266.4272"/>
    <polyline points="170.0787,243.7795 170.0787,281.5748 170.0787,281.5748 132.2835,281.5748"/>
    <polyline points="170.0787,319.3701 170.0787,281.5748 170.0787,281.5748 207.874,281.5748 207.874,281.5748 245.6693,281.5748 245.6693,281.5748 245.6693,319.3701 245.6693,319.3701 207.874,319.3701"/>
    <polyline points="195.5389,255.1772 187.4139,255.1772 187.4139,255.1772 187.4139,268.3022 187.4139,268.3022 195.5389,268.3022"/>
    <line x1="187.4139" x2="192.4139" y1="261.4272" y2="261.4272"/>
    <polyline points="321.2598,243.7795 359.0551,243.7795 359.0551,243.7795 359.0551,281.5748 359.0551,281.5748 321.2598,281.5748 321.2598,281.5748 321.2598,243.7795 321.2598,243.7795 283.4646,243.7795 283.4646,243.7795 283.4646,281.5748 283.4646,281.5748 245.6693,281.5748"/>
    <polyline points="245.6693,319.3701 283.4646,319.3701 283.4646,319.3701 283.4646,281.5748 283.4646,281.5748 321.2598,281.5748"/>
    <polyline points="287.2293,246.9488 287.8543,246.6363 287.8543,246.6363 288.7918,245.6988 288.7918,245.6988 288.7918,252.2613"/>
    <polyline points="293.1668,245.6988 296.6043,245.6988 296.6043,245.6988 294.7293,248.1988 294.7293,248.1988 295.6668,248.1988 295.6668,248.1988 296.2918,248.5113 296.2918,248.5113 296.6043,248.8238 296.6043,248.8238 296.9168,249.7613 296.9168,249.7613 296.9168,250.3863 296.9168,250.3863 296.6043,251.3238 296.6043,251.3238 295.9793,251.9488 295.9793,251.9488 295.0418,252.2613 295.0418,252.2613 294.1043,252.2613 294.1043,252.2613 293.1668,251.9488 293.1668,251.9488 292.8543,251.6363 292.8543,251.6363 292.5418,251.0113"/>
    <polyline points="300.4872,255.1772 300.4872,264.5522 300.4872,264.5522 301.1122,266.4272 301.1122,266.4272 302.3622,267.6772 302.3622,267.6772 304.2372,268.3022 304.2372,268.3022 305.4872,268.3022 305.4872,268.3022 307.3622,267.6772 307.3622,267.6772 308.6122,266.4272 308.6122,266.4272 309.2372,264.5522 309.2372,264.5522 309.2372,255.1772"/>
    <line x1="342.6575" x2="342.6575" y1="255.1772" y2="268.3022"/>
    <polyline points="359.0551,357.1654 359.0551,319.3701 359.0551,319.3701 359.0551,281.5748 359.0551,281.5748 396.8504,281.5748 396.8504,281.5748 396.8504,243.7795 396.8504,243.7795 434.6457,243.7795 434.6457,243.7795 434.6457,281.5748 434.6457,281.5748 396.8504,281.5748 396.8504,281.5748 396.8504,319.3701 396.8504,319.3701 434.6457,319.3701 434.6457,319.3701 434.6457,357.1654 434.6457,357.1654 396.8504,357.1654 396.8504,357.1654 396.8504,319.3701 396.8504,319.3701 359.0551,319.3701 359.0551,319.3701 321.2598,319.3701 321.2598,319.3701 321.2598,357.1654 321.2598,357.1654 359.0551,357.1654 359.0551,357.1654 396.8504,357.1654"/>
    <line x1="378.5778" x2="378.5778" y1="255.1772" y2="268.3022"/>
    <line x1="374.2028" x2="382.9528" y1="255.1772" y2="255.1772"/>
    <polyline points="414.498,255.1772 414.498,268.3022 414.498,268.3022 421.998,268.3022"/>
    <polyline points="434.6457,281.5748 472.4409,281.5748 472.4409,281.5748 510.2362,281.5748 510.2362,281.5748 510.2362,243.7795 510.2362,243.7795 472.4409,243.7795 472.4409,243.7795 434.6457,243.7795"/>
    <line x1="472.4409" x2="472.4409" y1="281.5748" y2="243.7795"/>
    <line x1="456.0433" x2="456.0433" y1="255.1772" y2="268.3022"/>
    <line x1="489.4636" x2="489.4636" y1="255.1772" y2="268.3022"/>
    <line x1="498.2136" x2="489.4636" y1="255.1772" y2="263.9272"/>
    <line x1="492.5886" x2="498.2136" y1="260.8022" y2="268.3022"/>
    <polyline points="510.2362,281.5748 548.0315,281.5748 548.0315,281.5748 585.8268,281.5748 585.8268,281.5748 585.8268,243.7795 585.8268,243.7795 548.0315,243.7795 548.0315,243.7795 510.2362,243.7795"/>
    <line x1="548.0315" x2="548.0315" y1="281.5748" y2="243.7795"/>
    <line x1="527.2589" x2="527.2589" y1="255.1772" y2="268.3022"/>
    <line x1="536.0089" x2="527.2589" y1="255.1772" y2="263.9272"/>
    <line x1="530.3839" x2="536.0089" y1="260.8022" y2="268.3022"/>
    <polyline points="573.4916,255.1772 565.3666,255.1772 565.3666,255.1772 565.3666,268.3022 565.3666,268.3022 573.4916,268.3022"/>
    <line x1="565.3666" x2="570.3666" y1="261.4272" y2="261.4272"/>
    <polyline points="585.8268,281.5748 623.622,281.5748 623.622,281.5748 623.622,243.7795 623.622,243.7795 585.8268,243.7795"/>
    <polyline points="611.5994,255.1772 611.5994,268.3022 611.5994,268.3022 602.8494,255.1772 602.8494,255.1772 602.8494,268.3022"/>
    <polyline points="98.253,284.7441 98.878,284.4316 98.878,284.4316 99.8155,283.4941 99.8155,283.4941 99.8155,290.0566"/>
    <polyline points="106.6905,290.0566 106.6905,283.4941 106.6905,283.4941 103.5655,287.8691 103.5655,287.8691 108.253,287.8691"/>
    <line x1="111.5108" x2="111.5108" y1="292.9724" y2="306.0974"/>
    <line x1="120.2608" x2="120.2608" y1="292.9724" y2="306.0974"/>
    <line x1="111.5108" x2="120.2608" y1="299.2224" y2="299.2224"/>
    <polyline points="156.8061,306.0974 151.8061,292.9724 151.8061,292.9724 146.8061,306.0974"/>
    <line x1="148.6811" x2="154.9311" y1="301.7224" y2="301.7224"/>
    <polyline points="195.8514,292.9724 195.8514,306.0974 195.8514,306.0974 187.1014,292.9724 187.1014,292.9724 187.1014,306.0974"/>
    <polyline points="233.6467,292.9724 233.6467,306.0974 233.6467,306.0974 224.8967,292.9724 224.8967,292.9724 224.8967,306.0974"/>
    <polyline points="271.1294,292.9724 263.0044,292.9724 263.0044,292.9724 263.0044,306.0974 263.0044,306.0974 271.1294,306.0974"/>
    <line x1="263.0044" x2="268.0044" y1="299.2224" y2="299.2224"/>
    <polyline points="382.3278,292.9724 382.3278,302.9724 382.3278,302.9724 381.7028,304.8474 381.7028,304.8474 381.0778,305.4724 381.0778,305.4724 379.8278,306.0974 379.8278,306.0974 378.5778,306.0974 378.5778,306.0974 377.3278,305.4724 377.3278,305.4724 376.7028,304.8474 376.7028,304.8474 376.0778,302.9724 376.0778,302.9724 376.0778,301.7224"/>
    <polyline points="325.0246,322.5394 325.6496,322.2269 325.6496,322.2269 326.5871,321.2894 326.5871,321.2894 326.5871,327.8519"/>
    <polyline points="334.0871,321.2894 330.9621,321.2894 330.9621,321.2894 330.6496,324.1019 330.6496,324.1019 330.9621,323.7894 330.9621,323.7894 331.8996,323.4769 331.8996,323.4769 332.8371,323.4769 332.8371,323.4769 333.7746,323.7894 333.7746,323.7894 334.3996,324.4144 334.3996,324.4144 334.7121,325.3519 334.7121,325.3519 334.7121,325.9769 334.7121,325.9769 334.3996,326.9144 334.3996,326.9144 333.7746,327.5394 333.7746,327.5394 332.8371,327.8519 332.8371,327.8519 331.8996,327.8519 331.8996,327.8519 330.9621,327.5394 330.9621,327.5394 330.6496,327.2269 330.6496,327.2269 330.3371,326.6019"/>
    <polyline points="338.2825,337.0177 343.9075,337.0177 343.9075,337.0177 345.7825,336.3927 345.7825,336.3927 346.4075,335.7677 346.4075,335.7677 347.0325,334.5177 347.0325,334.5177 347.0325,333.2677 347.0325,333.2677 346.4075,332.0177 346.4075,332.0177 345.7825,331.3927 345.7825,331.3927 343.9075,330.7677 343.9075,330.7677 338.2825,330.7677 338.2825,330.7677 338.2825,343.8927"/>
    <line x1="342.6575" x2="347.0325" y1="337.0177" y2="343.8927"/>
    <polyline points="384.5153,330.7677 376.3903,330.7677 376.3903,330.7677 376.3903,343.8927 376.3903,343.8927 384.5153,343.8927"/>
    <line x1="376.3903" x2="381.3903" y1="337.0177" y2="337.0177"/>
    <line x1="413.873" x2="413.873" y1="330.7677" y2="343.8927"/>
    <line x1="422.623" x2="413.873" y1="330.7677" y2="339.5177"/>
    <line x1="416.998" x2="422.623" y1="336.3927" y2="343.8927"/>
    <polyline points="434.6457,357.1654 472.4409,357.1654 472.4409,357.1654 510.2362,357.1654 510.2362,357.1654 510.2362,319.3701 510.2362,319.3701 472.4409,319.3701 472.4409,319.3701 434.6457,319.3701"/>
    <line x1="472.4409" x2="472.4409" y1="357.1654" y2="319.3701"/>
    <line x1="451.6683" x2="451.6683" y1="330.7677" y2="343.8927"/>
    <line x1="460.4183" x2="451.6683" y1="330.7677" y2="339.5177"/>
    <line x1="454.7933" x2="460.4183" y1="336.3927" y2="343.8927"/>
    <polyline points="497.9011,330.7677 489.7761,330.7677 489.7761,330.7677 489.7761,343.8927 489.7761,343.8927 497.9011,343.8927"/>
    <line x1="489.7761" x2="494.7761" y1="337.0177" y2="337.0177"/>
    <polyline points="510.2362,357.1654 548.0315,357.1654 548.0315,357.1654 548.0315,319.3701 548.0315,319.3701 510.2362,319.3701"/>
    <polyline points="527.2589,337.0177 532.8839,337.0177 532.8839,337.0177 534.7589,336.3927 534.7589,336.3927 535.3839,335.7677 535.3839,335.7677 536.0089,334.5177 536.0089,334.5177 536.0089,333.2677 536.0089,333.2677 535.3839,332.0177 535.3839,332.0177 534.7589,331.3927 534.7589,331.3927 532.8839,330.7677 532.8839,330.7677 527.2589,330.7677 527.2589,330.7677 527.2589,343.8927"/>
    <line x1="531.6339" x2="536.0089" y1="337.0177" y2="343.8927"/>
    <polyline points="548.0315,357.1654 585.8268,357.1654 585.8268,357.1654 585.8268,319.3701 585.8268,319.3701 548.0315,319.3701"/>
    <line x1="567.5541" x2="567.5541" y1="330.7677" y2="343.8927"/>
    <line x1="563.1791" x2="571.9291" y1="330.7677" y2="330.7677"/>
    <polyline points="585.8268,357.1654 623.622,357.1654 623.622,357.1654 623.622,319.3701 623.622,319.3701 585.8268,319.3701"/>
    <polyline points="609.0994,330.7677 609.0994,340.7677 609.0994,340.7677 608.4744,342.6427 608.4744,342.6427 607.8494,343.2677 607.8494,343.2677 606.5994,343.8927 606.5994,343.8927 605.3494,343.8927 605.3494,343.8927 604.0994,343.2677 604.0994,343.2677 603.4744,342.6427 603.4744,342.6427 602.8494,340.7677 602.8494,340.7677 602.8494,339.5177"/>
    <polyline points="623.622,357.1654 661.4173,357.1654 661.4173,357.1654 661.4173,319.3701 661.4173,319.3701 623.622,319.3701"/>
    <polyline points="649.0822,330.7677 640.9572,330.7677 640.9572,330.7677 640.9572,343.8927 640.9572,343.8927 649.0822,343.8927"/>
    <line x1="640.9572" x2="645.9572" y1="337.0177" y2="337.0177"/>
  </g>
</svg>
