<?xml version="1.0" encoding="utf-8" ?>
<svg xmlns="http://www.w3.org/2000/svg" xmlns:cc="http://creativecommons.org/ns" xmlns:dc="http://purl.org/dc/elements/1.1/" xmlns:ev="http://www.w3.org/2001/xml-events" xmlns:inkscape="http://www.inkscape.org/namespaces/inkscape" xmlns:rdf="http://www.w3.org/1999/02/22-rdf-syntax-ns" xmlns:sodipodi="http://sodipodi.sourceforge.net/DTD/sodipodi-0.dtd" xmlns:xlink="http://www.w3.org/1999/xlink" baseProfile="tiny" height="9.9cm" version="1.2" viewBox="0 0 793.7007874015749 374.1732283464567" width="21.0cm">
  <metadata>
    <rdf:RDF>
      <cc:Work>
        <dc:format>image/svg+xml</dc:format>
        <dc:source>vpype eval 'cell=10;width=210;height=99' eval 'nCols=20;nRows=9' eval 'cells=[0,1,2,3,5,6,7,8,9,10,11,12,13,15,16,17,18,19,22,27,30,36,41,42,43,44,45,46,47,48,50,53,56,58,62,67,70,73,74,75,76,77,78,79,82,84,86,87,88,89,90,91,92,93,96,98,100,101,102,103,104,105,107,110,113,116,118,122,124,127,129,130,131,133,136,137,138,139,140,141,142,143,144,145,146,147,148,150,153,155,158,164,167,170,173,174,175,176,178]' eval 'chars=[&quot;P&quot;,&quot;I&quot;,&quot;P&quot;,&quot;I&quot;,&quot;R&quot;,&quot;E&quot;,&quot;K&quot;,&quot;K&quot;,&quot;E&quot;,&quot;R&quot;,&quot;T&quot;,&quot;J&quot;,&quot;E&quot;,&quot;H&quot;,&quot;O&quot;,&quot;O&quot;,&quot;F&quot;,&quot;D&quot;,&quot;A&quot;,&quot;L&quot;,&quot;E&quot;,&quot;O&quot;,&quot;B&quot;,&quot;R&quot;,&quot;O&quot;,&quot;E&quot;,&quot;K&quot;,&quot;Z&quot;,&quot;A&quot;,&quot;K&quot;,&quot;G&quot;,&quot;V&quot;,&quot;R&quot;,&quot;K&quot;,&quot;K&quot;,&quot;V&quot;,&quot;E&quot;,&quot;R&quot;,&quot;E&quot;,&quot;S&quot;,&quot;T&quot;,&quot;J&quot;,&quot;E&quot;,&quot;S&quot;,&quot;E&quot;,&quot;S&quot;,&quot;R&quot;,&quot;E&quot;,&quot;G&quot;,&quot;E&quot;,&quot;N&quot;,&quot;B&quot;,&quot;U&quot;,&quot;I&quot;,&quot;J&quot;,&quot;N&quot;,&quot;T&quot;,&quot;E&quot;,&quot;R&quot;,&quot;R&quot;,&quot;A&quot;,&quot;S&quot;,&quot;R&quot;,&quot;B&quot;,&quot;J&quot;,&quot;E&quot;,&quot;N&quot;,&quot;E&quot;,&quot;R&quot;,&quot;T&quot;,&quot;Z&quot;,&quot;O&quot;,&quot;N&quot;,&quot;D&quot;,&quot;S&quot;,&quot;T&quot;,&quot;E&quot;,&quot;R&quot;,&quot;M&quot;,&quot;A&quot;,&quot;N&quot;,&quot;D&quot;,&quot;A&quot;,&quot;R&quot;,&quot;I&quot;,&quot;J&quot;,&quot;N&quot;,&quot;O&quot;,&quot;A&quot;,&quot;J&quot;,&quot;T&quot;,&quot;H&quot;,&quot;E&quot;,&quot;G&quot;,&quot;G&quot;,&quot;R&quot;,&quot;A&quot;,&quot;S&quot;,&quot;H&quot;]' eval 'numbers=[0,2,5,7,10,15,16,41,53,58,73,84,86,100,129,136,140,155,173]' eval counter=1 eval charIndex=0 begin grid -o '%cell*mm%' '%cell*mm%' %nCols% %nRows% eval '%isCell=_i in cells%' eval '%number=_i in numbers%' eval '%size=10 if isCell else 0%' rect 0 0 '%size*mm%' '%size*mm%' text -s 10 -p 0.5mm 1.5mm '%counter if number else '&quot;'&quot;''&quot;'&quot;'%' text -s 20 -p 5mm 5mm -a center '%chars[charIndex] if isCell else '&quot;'&quot;''&quot;'&quot;'%' eval '%if number: counter+=1 %' eval '%if isCell: charIndex+=1 %' end splitall deduplicate linemerge --tolerance 0.1mm write -m none --page-size '%width*mm%x%height*mm%' --center ./svgs/solution/82fc97.svg
</dc:source>
        <dc:date>2023-12-23T22:30:08.150974</dc:date>
      </cc:Work>
    </rdf:RDF>
  </metadata>
  <defs/>
  <g fill="none" id="layer1" inkscape:groupmode="layer" inkscape:label="1" stroke="#000000" style="display:inline">
    <polygon points="18.8976,17.0079 18.8976,54.8031 18.8976,54.8031 56.6929,54.8031 56.6929,54.8031 56.6929,17.0079 56.6929,17.0079"/>
    <polyline points="22.6624,20.1772 23.2874,19.8647 23.2874,19.8647 24.2249,18.9272 24.2249,18.9272 24.2249,25.4897"/>
    <polyline points="35.9203,35.2805 41.5453,35.2805 41.5453,35.2805 43.4203,34.6555 43.4203,34.6555 44.0453,34.0305 44.0453,34.0305 44.6703,32.7805 44.6703,32.7805 44.6703,30.9055 44.6703,30.9055 44.0453,29.6555 44.0453,29.6555 43.4203,29.0305 43.4203,29.0305 41.5453,28.4055 41.5453,28.4055 35.9203,28.4055 35.9203,28.4055 35.9203,41.5305"/>
    <polyline points="56.6929,54.8031 94.4882,54.8031 94.4882,54.8031 94.4882,92.5984 94.4882,92.5984 132.2835,92.5984 132.2835,92.5984 132.2835,54.8031 132.2835,54.8031 170.0787,54.8031 170.0787,54.8031 170.0787,17.0079 170.0787,17.0079 132.2835,17.0079 132.2835,17.0079 94.4882,17.0079 94.4882,17.0079 56.6929,17.0079"/>
    <polyline points="132.2835,17.0079 132.2835,54.8031 132.2835,54.8031 94.4882,54.8031 94.4882,54.8031 94.4882,17.0079"/>
    <line x1="78.0906" x2="78.0906" y1="28.4055" y2="41.5305"/>
    <polyline points="97.628,20.4897 97.628,20.1772 97.628,20.1772 97.9405,19.5522 97.9405,19.5522 98.253,19.2397 98.253,19.2397 98.878,18.9272 98.878,18.9272 100.128,18.9272 100.128,18.9272 100.753,19.2397 100.753,19.2397 101.0655,19.5522 101.0655,19.5522 101.378,20.1772 101.378,20.1772 101.378,20.8022 101.378,20.8022 101.0655,21.4272 101.0655,21.4272 100.4405,22.3647 100.4405,22.3647 97.3155,25.4897 97.3155,25.4897 101.6905,25.4897"/>
    <polyline points="111.5108,35.2805 117.1358,35.2805 117.1358,35.2805 119.0108,34.6555 119.0108,34.6555 119.6358,34.0305 119.6358,34.0305 120.2608,32.7805 120.2608,32.7805 120.2608,30.9055 120.2608,30.9055 119.6358,29.6555 119.6358,29.6555 119.0108,29.0305 119.0108,29.0305 117.1358,28.4055 117.1358,28.4055 111.5108,28.4055 111.5108,28.4055 111.5108,41.5305"/>
    <line x1="153.6811" x2="153.6811" y1="28.4055" y2="41.5305"/>
    <polygon points="207.874,17.0079 207.874,54.8031 207.874,54.8031 245.6693,54.8031 245.6693,54.8031 245.6693,17.0079 245.6693,17.0079"/>
    <polyline points="211.3263,18.9272 214.7638,18.9272 214.7638,18.9272 212.8888,21.4272 212.8888,21.4272 213.8263,21.4272 213.8263,21.4272 214.4513,21.7397 214.4513,21.7397 214.7638,22.0522 214.7638,22.0522 215.0763,22.9897 215.0763,22.9897 215.0763,23.6147 215.0763,23.6147 214.7638,24.5522 214.7638,24.5522 214.1388,25.1772 214.1388,25.1772 213.2013,25.4897 213.2013,25.4897 212.2638,25.4897 212.2638,25.4897 211.3263,25.1772 211.3263,25.1772 211.0138,24.8647 211.0138,24.8647 210.7013,24.2397"/>
    <polyline points="224.8967,34.6555 230.5217,34.6555 230.5217,34.6555 232.3967,34.0305 232.3967,34.0305 233.0217,33.4055 233.0217,33.4055 233.6467,32.1555 233.6467,32.1555 233.6467,30.9055 233.6467,30.9055 233.0217,29.6555 233.0217,29.6555 232.3967,29.0305 232.3967,29.0305 230.5217,28.4055 230.5217,28.4055 224.8967,28.4055 224.8967,28.4055 224.8967,41.5305"/>
    <line x1="229.2717" x2="233.6467" y1="34.6555" y2="41.5305"/>
    <polyline points="245.6693,54.8031 283.4646,54.8031 283.4646,54.8031 283.4646,92.5984 283.4646,92.5984 321.2598,92.5984 321.2598,92.5984 321.2598,54.8031 321.2598,54.8031 359.0551,54.8031 359.0551,54.8031 396.8504,54.8031 396.8504,54.8031 396.8504,92.5984 396.8504,92.5984 434.6457,92.5984 434.6457,92.5984 434.6457,54.8031 434.6457,54.8031 434.6457,17.0079 434.6457,17.0079 396.8504,17.0079 396.8504,17.0079 359.0551,17.0079 359.0551,17.0079 321.2598,17.0079 321.2598,17.0079 283.4646,17.0079 283.4646,17.0079 245.6693,17.0079"/>
    <polyline points="321.2598,17.0079 321.2598,54.8031 321.2598,54.8031 283.4646,54.8031 283.4646,54.8031 283.4646,17.0079"/>
    <polyline points="271.1294,28.4055 263.0044,28.4055 263.0044,28.4055 263.0044,41.5305 263.0044,41.5305 271.1294,41.5305"/>
    <line x1="263.0044" x2="268.0044" y1="34.6555" y2="34.6555"/>
    <polyline points="289.4168,25.4897 289.4168,18.9272 289.4168,18.9272 286.2918,23.3022 286.2918,23.3022 290.9793,23.3022"/>
    <line x1="300.4872" x2="300.4872" y1="28.4055" y2="41.5305"/>
    <line x1="309.2372" x2="300.4872" y1="28.4055" y2="37.1555"/>
    <line x1="303.6122" x2="309.2372" y1="34.0305" y2="41.5305"/>
    <line x1="359.0551" x2="359.0551" y1="54.8031" y2="17.0079"/>
    <line x1="338.2825" x2="338.2825" y1="28.4055" y2="41.5305"/>
    <line x1="347.0325" x2="338.2825" y1="28.4055" y2="37.1555"/>
    <line x1="341.4075" x2="347.0325" y1="34.0305" y2="41.5305"/>
    <polyline points="434.6457,17.0079 472.4409,17.0079 472.4409,17.0079 472.4409,54.8031 472.4409,54.8031 434.6457,54.8031 434.6457,54.8031 396.8504,54.8031 396.8504,54.8031 396.8504,17.0079"/>
    <polyline points="384.5153,28.4055 376.3903,28.4055 376.3903,28.4055 376.3903,41.5305 376.3903,41.5305 384.5153,41.5305"/>
    <line x1="376.3903" x2="381.3903" y1="34.6555" y2="34.6555"/>
    <polyline points="403.4277,18.9272 400.3027,18.9272 400.3027,18.9272 399.9902,21.7397 399.9902,21.7397 400.3027,21.4272 400.3027,21.4272 401.2402,21.1147 401.2402,21.1147 402.1777,21.1147 402.1777,21.1147 403.1152,21.4272 403.1152,21.4272 403.7402,22.0522 403.7402,22.0522 404.0527,22.9897 404.0527,22.9897 404.0527,23.6147 404.0527,23.6147 403.7402,24.5522 403.7402,24.5522 403.1152,25.1772 403.1152,25.1772 402.1777,25.4897 402.1777,25.4897 401.2402,25.4897 401.2402,25.4897 400.3027,25.1772 400.3027,25.1772 399.9902,24.8647 399.9902,24.8647 399.6777,24.2397"/>
    <polyline points="413.873,34.6555 419.498,34.6555 419.498,34.6555 421.373,34.0305 421.373,34.0305 421.998,33.4055 421.998,33.4055 422.623,32.1555 422.623,32.1555 422.623,30.9055 422.623,30.9055 421.998,29.6555 421.998,29.6555 421.373,29.0305 421.373,29.0305 419.498,28.4055 419.498,28.4055 413.873,28.4055 413.873,28.4055 413.873,41.5305"/>
    <line x1="418.248" x2="422.623" y1="34.6555" y2="41.5305"/>
    <line x1="454.1683" x2="454.1683" y1="28.4055" y2="41.5305"/>
    <line x1="449.7933" x2="458.5433" y1="28.4055" y2="28.4055"/>
    <polyline points="472.4409,54.8031 510.2362,54.8031 510.2362,54.8031 510.2362,17.0079 510.2362,17.0079 472.4409,17.0079"/>
    <polyline points="495.7136,28.4055 495.7136,38.4055 495.7136,38.4055 495.0886,40.2805 495.0886,40.2805 494.4636,40.9055 494.4636,40.9055 493.2136,41.5305 493.2136,41.5305 491.9636,41.5305 491.9636,41.5305 490.7136,40.9055 490.7136,40.9055 490.0886,40.2805 490.0886,40.2805 489.4636,38.4055 489.4636,38.4055 489.4636,37.1555"/>
    <polyline points="510.2362,54.8031 548.0315,54.8031 548.0315,54.8031 548.0315,17.0079 548.0315,17.0079 510.2362,17.0079"/>
    <polyline points="535.6964,28.4055 527.5714,28.4055 527.5714,28.4055 527.5714,41.5305 527.5714,41.5305 535.6964,41.5305"/>
    <line x1="527.5714" x2="532.5714" y1="34.6555" y2="34.6555"/>
    <polygon points="585.8268,17.0079 585.8268,54.8031 585.8268,54.8031 623.622,54.8031 623.622,54.8031 623.622,17.0079 623.622,17.0079"/>
    <polyline points="592.7165,19.8647 592.404,19.2397 592.404,19.2397 591.4665,18.9272 591.4665,18.9272 590.8415,18.9272 590.8415,18.9272 589.904,19.2397 589.904,19.2397 589.279,20.1772 589.279,20.1772 588.9665,21.7397 588.9665,21.7397 588.9665,23.3022 588.9665,23.3022 589.279,24.5522 589.279,24.5522 589.904,25.1772 589.904,25.1772 590.8415,25.4897 590.8415,25.4897 591.154,25.4897 591.154,25.4897 592.0915,25.1772 592.0915,25.1772 592.7165,24.5522 592.7165,24.5522 593.029,23.6147 593.029,23.6147 593.029,23.3022 593.029,23.3022 592.7165,22.3647 592.7165,22.3647 592.0915,21.7397 592.0915,21.7397 591.154,21.4272 591.154,21.4272 590.8415,21.4272 590.8415,21.4272 589.904,21.7397 589.904,21.7397 589.279,22.3647 589.279,22.3647 588.9665,23.3022"/>
    <line x1="602.8494" x2="602.8494" y1="28.4055" y2="41.5305"/>
    <line x1="611.5994" x2="611.5994" y1="28.4055" y2="41.5305"/>
    <line x1="602.8494" x2="611.5994" y1="34.6555" y2="34.6555"/>
    <polyline points="661.4173,17.0079 699.2126,17.0079 699.2126,17.0079 699.2126,54.8031 699.2126,54.8031 661.4173,54.8031 661.4173,54.8031 661.4173,92.5984 661.4173,92.5984 623.622,92.5984 623.622,92.5984 623.622,54.8031 623.622,54.8031 661.4173,54.8031 661.4173,54.8031 661.4173,17.0079 661.4173,17.0079 623.622,17.0079"/>
    <polyline points="626.4493,18.9272 630.8243,18.9272 630.8243,18.9272 627.6993,25.4897"/>
    <polygon points="643.1447,28.4055 641.8947,29.0305 641.8947,29.0305 640.6447,30.2805 640.6447,30.2805 640.0197,31.5305 640.0197,31.5305 639.3947,33.4055 639.3947,33.4055 639.3947,36.5305 639.3947,36.5305 640.0197,38.4055 640.0197,38.4055 640.6447,39.6555 640.6447,39.6555 641.8947,40.9055 641.8947,40.9055 643.1447,41.5305 643.1447,41.5305 645.6447,41.5305 645.6447,41.5305 646.8947,40.9055 646.8947,40.9055 648.1447,39.6555 648.1447,39.6555 648.7697,38.4055 648.7697,38.4055 649.3947,36.5305 649.3947,36.5305 649.3947,33.4055 649.3947,33.4055 648.7697,31.5305 648.7697,31.5305 648.1447,30.2805 648.1447,30.2805 646.8947,29.0305 646.8947,29.0305 645.6447,28.4055 645.6447,28.4055"/>
    <polygon points="680.94,28.4055 679.69,29.0305 679.69,29.0305 678.44,30.2805 678.44,30.2805 677.815,31.5305 677.815,31.5305 677.19,33.4055 677.19,33.4055 677.19,36.5305 677.19,36.5305 677.815,38.4055 677.815,38.4055 678.44,39.6555 678.44,39.6555 679.69,40.9055 679.69,40.9055 680.94,41.5305 680.94,41.5305 683.44,41.5305 683.44,41.5305 684.69,40.9055 684.69,40.9055 685.94,39.6555 685.94,39.6555 686.565,38.4055 686.565,38.4055 687.19,36.5305 687.19,36.5305 687.19,33.4055 687.19,33.4055 686.565,31.5305 686.565,31.5305 685.94,30.2805 685.94,30.2805 684.69,29.0305 684.69,29.0305 683.44,28.4055 683.44,28.4055"/>
    <polyline points="699.2126,54.8031 737.0079,54.8031 737.0079,54.8031 737.0079,17.0079 737.0079,17.0079 699.2126,17.0079"/>
    <polyline points="724.6727,28.4055 716.5477,28.4055 716.5477,28.4055 716.5477,41.5305"/>
    <line x1="716.5477" x2="721.5477" y1="34.6555" y2="34.6555"/>
    <polyline points="737.0079,54.8031 774.8031,54.8031 774.8031,54.8031 774.8031,17.0079 774.8031,17.0079 737.0079,17.0079"/>
    <polygon points="754.0305,28.4055 754.0305,41.5305 754.0305,41.5305 758.4055,41.5305 758.4055,41.5305 760.2805,40.9055 760.2805,40.9055 761.5305,39.6555 761.5305,39.6555 762.1555,38.4055 762.1555,38.4055 762.7805,36.5305 762.7805,36.5305 762.7805,33.4055 762.7805,33.4055 762.1555,31.5305 762.1555,31.5305 761.5305,30.2805 761.5305,30.2805 760.2805,29.0305 760.2805,29.0305 758.4055,28.4055 758.4055,28.4055"/>
    <polyline points="119.0108,79.3258 114.0108,66.2008 114.0108,66.2008 109.0108,79.3258"/>
    <line x1="110.8858" x2="117.1358" y1="74.9508" y2="74.9508"/>
    <polyline points="301.1122,66.2008 301.1122,79.3258 301.1122,79.3258 308.6122,79.3258"/>
    <polyline points="422.3105,66.2008 414.1855,66.2008 414.1855,66.2008 414.1855,79.3258 414.1855,79.3258 422.3105,79.3258"/>
    <line x1="414.1855" x2="419.1855" y1="72.4508" y2="72.4508"/>
    <polygon points="643.1447,66.2008 641.8947,66.8258 641.8947,66.8258 640.6447,68.0758 640.6447,68.0758 640.0197,69.3258 640.0197,69.3258 639.3947,71.2008 639.3947,71.2008 639.3947,74.3258 639.3947,74.3258 640.0197,76.2008 640.0197,76.2008 640.6447,77.4508 640.6447,77.4508 641.8947,78.7008 641.8947,78.7008 643.1447,79.3258 643.1447,79.3258 645.6447,79.3258 645.6447,79.3258 646.8947,78.7008 646.8947,78.7008 648.1447,77.4508 648.1447,77.4508 648.7697,76.2008 648.7697,76.2008 649.3947,74.3258 649.3947,74.3258 649.3947,71.2008 649.3947,71.2008 648.7697,69.3258 648.7697,69.3258 648.1447,68.0758 648.1447,68.0758 646.8947,66.8258 646.8947,66.8258 645.6447,66.2008 645.6447,66.2008"/>
    <polyline points="207.874,130.3937 170.0787,130.3937 170.0787,130.3937 132.2835,130.3937 132.2835,130.3937 132.2835,168.189 132.2835,168.189 94.4882,168.189 94.4882,168.189 94.4882,130.3937 94.4882,130.3937 94.4882,92.5984 94.4882,92.5984 56.6929,92.5984 56.6929,92.5984 56.6929,130.3937 56.6929,130.3937 94.4882,130.3937 94.4882,130.3937 132.2835,130.3937 132.2835,130.3937 132.2835,92.5984 132.2835,92.5984 170.0787,92.5984 170.0787,92.5984 207.874,92.5984 207.874,92.5984 207.874,130.3937 207.874,130.3937 245.6693,130.3937 245.6693,130.3937 245.6693,92.5984 245.6693,92.5984 207.874,92.5984"/>
    <polygon points="61.0827,94.5177 60.1452,94.8302 60.1452,94.8302 59.8327,95.4552 59.8327,95.4552 59.8327,96.0802 59.8327,96.0802 60.1452,96.7052 60.1452,96.7052 60.7702,97.0177 60.7702,97.0177 62.0202,97.3302 62.0202,97.3302 62.9577,97.6427 62.9577,97.6427 63.5827,98.2677 63.5827,98.2677 63.8952,98.8927 63.8952,98.8927 63.8952,99.8302 63.8952,99.8302 63.5827,100.4552 63.5827,100.4552 63.2702,100.7677 63.2702,100.7677 62.3327,101.0802 62.3327,101.0802 61.0827,101.0802 61.0827,101.0802 60.1452,100.7677 60.1452,100.7677 59.8327,100.4552 59.8327,100.4552 59.5202,99.8302 59.5202,99.8302 59.5202,98.8927 59.5202,98.8927 59.8327,98.2677 59.8327,98.2677 60.4577,97.6427 60.4577,97.6427 61.3952,97.3302 61.3952,97.3302 62.6452,97.0177 62.6452,97.0177 63.2702,96.7052 63.2702,96.7052 63.5827,96.0802 63.5827,96.0802 63.5827,95.4552 63.5827,95.4552 63.2702,94.8302 63.2702,94.8302 62.3327,94.5177 62.3327,94.5177"/>
    <polygon points="73.7156,103.9961 73.7156,117.1211 73.7156,117.1211 79.3406,117.1211 79.3406,117.1211 81.2156,116.4961 81.2156,116.4961 81.8406,115.8711 81.8406,115.8711 82.4656,114.6211 82.4656,114.6211 82.4656,112.7461 82.4656,112.7461 81.8406,111.4961 81.8406,111.4961 81.2156,110.8711 81.2156,110.8711 79.3406,110.2461 79.3406,110.2461 81.2156,109.6211 81.2156,109.6211 81.8406,108.9961 81.8406,108.9961 82.4656,107.7461 82.4656,107.7461 82.4656,106.4961 82.4656,106.4961 81.8406,105.2461 81.8406,105.2461 81.2156,104.6211 81.2156,104.6211 79.3406,103.9961 79.3406,103.9961"/>
    <line x1="73.7156" x2="79.3406" y1="110.2461" y2="110.2461"/>
    <polyline points="111.5108,110.2461 117.1358,110.2461 117.1358,110.2461 119.0108,109.6211 119.0108,109.6211 119.6358,108.9961 119.6358,108.9961 120.2608,107.7461 120.2608,107.7461 120.2608,106.4961 120.2608,106.4961 119.6358,105.2461 119.6358,105.2461 119.0108,104.6211 119.0108,104.6211 117.1358,103.9961 117.1358,103.9961 111.5108,103.9961 111.5108,103.9961 111.5108,117.1211"/>
    <line x1="115.8858" x2="120.2608" y1="110.2461" y2="117.1211"/>
    <line x1="170.0787" x2="170.0787" y1="130.3937" y2="92.5984"/>
    <polygon points="151.8061,103.9961 150.5561,104.6211 150.5561,104.6211 149.3061,105.8711 149.3061,105.8711 148.6811,107.1211 148.6811,107.1211 148.0561,108.9961 148.0561,108.9961 148.0561,112.1211 148.0561,112.1211 148.6811,113.9961 148.6811,113.9961 149.3061,115.2461 149.3061,115.2461 150.5561,116.4961 150.5561,116.4961 151.8061,117.1211 151.8061,117.1211 154.3061,117.1211 154.3061,117.1211 155.5561,116.4961 155.5561,116.4961 156.8061,115.2461 156.8061,115.2461 157.4311,113.9961 157.4311,113.9961 158.0561,112.1211 158.0561,112.1211 158.0561,108.9961 158.0561,108.9961 157.4311,107.1211 157.4311,107.1211 156.8061,105.8711 156.8061,105.8711 155.5561,104.6211 155.5561,104.6211 154.3061,103.9961 154.3061,103.9961"/>
    <polyline points="195.5389,103.9961 187.4139,103.9961 187.4139,103.9961 187.4139,117.1211 187.4139,117.1211 195.5389,117.1211"/>
    <line x1="187.4139" x2="192.4139" y1="110.2461" y2="110.2461"/>
    <line x1="224.8967" x2="224.8967" y1="103.9961" y2="117.1211"/>
    <line x1="233.6467" x2="224.8967" y1="103.9961" y2="112.7461"/>
    <line x1="228.0217" x2="233.6467" y1="109.6211" y2="117.1211"/>
    <polyline points="245.6693,130.3937 283.4646,130.3937 283.4646,130.3937 283.4646,168.189 283.4646,168.189 321.2598,168.189 321.2598,168.189 321.2598,130.3937 321.2598,130.3937 321.2598,92.5984 321.2598,92.5984 359.0551,92.5984 359.0551,92.5984 359.0551,130.3937 359.0551,130.3937 321.2598,130.3937 321.2598,130.3937 283.4646,130.3937 283.4646,130.3937 283.4646,92.5984 283.4646,92.5984 245.6693,92.5984"/>
    <polyline points="262.0669,103.9961 270.8169,103.9961 270.8169,103.9961 262.0669,117.1211 262.0669,117.1211 270.8169,117.1211"/>
    <polyline points="307.9872,117.1211 302.9872,103.9961 302.9872,103.9961 297.9872,117.1211"/>
    <line x1="299.8622" x2="306.1122" y1="112.7461" y2="112.7461"/>
    <line x1="338.2825" x2="338.2825" y1="103.9961" y2="117.1211"/>
    <line x1="347.0325" x2="338.2825" y1="103.9961" y2="112.7461"/>
    <line x1="341.4075" x2="347.0325" y1="109.6211" y2="117.1211"/>
    <polyline points="396.8504,92.5984 396.8504,130.3937 396.8504,130.3937 434.6457,130.3937 434.6457,130.3937 434.6457,92.5984"/>
    <polyline points="422.3105,107.1211 421.6855,105.8711 421.6855,105.8711 420.4355,104.6211 420.4355,104.6211 419.1855,103.9961 419.1855,103.9961 416.6855,103.9961 416.6855,103.9961 415.4355,104.6211 415.4355,104.6211 414.1855,105.8711 414.1855,105.8711 413.5605,107.1211 413.5605,107.1211 412.9355,108.9961 412.9355,108.9961 412.9355,112.1211 412.9355,112.1211 413.5605,113.9961 413.5605,113.9961 414.1855,115.2461 414.1855,115.2461 415.4355,116.4961 415.4355,116.4961 416.6855,117.1211 416.6855,117.1211 419.1855,117.1211 419.1855,117.1211 420.4355,116.4961 420.4355,116.4961 421.6855,115.2461 421.6855,115.2461 422.3105,113.9961 422.3105,113.9961 422.3105,112.1211 422.3105,112.1211 419.1855,112.1211"/>
    <polygon points="510.2362,92.5984 510.2362,130.3937 510.2362,130.3937 548.0315,130.3937 548.0315,130.3937 548.0315,92.5984 548.0315,92.5984"/>
    <polyline points="517.126,96.7052 516.8135,97.6427 516.8135,97.6427 516.1885,98.2677 516.1885,98.2677 515.251,98.5802 515.251,98.5802 514.9385,98.5802 514.9385,98.5802 514.001,98.2677 514.001,98.2677 513.376,97.6427 513.376,97.6427 513.0635,96.7052 513.0635,96.7052 513.0635,96.3927 513.0635,96.3927 513.376,95.4552 513.376,95.4552 514.001,94.8302 514.001,94.8302 514.9385,94.5177 514.9385,94.5177 515.251,94.5177 515.251,94.5177 516.1885,94.8302 516.1885,94.8302 516.8135,95.4552 516.8135,95.4552 517.126,96.7052 517.126,96.7052 517.126,98.2677 517.126,98.2677 516.8135,99.8302 516.8135,99.8302 516.1885,100.7677 516.1885,100.7677 515.251,101.0802 515.251,101.0802 514.626,101.0802 514.626,101.0802 513.6885,100.7677 513.6885,100.7677 513.376,100.1427"/>
    <polyline points="524.7589,103.9961 529.7589,117.1211 529.7589,117.1211 534.7589,103.9961"/>
    <polyline points="623.622,92.5984 623.622,130.3937 623.622,130.3937 661.4173,130.3937 661.4173,130.3937 661.4173,92.5984"/>
    <polyline points="640.6447,110.2461 646.2697,110.2461 646.2697,110.2461 648.1447,109.6211 648.1447,109.6211 648.7697,108.9961 648.7697,108.9961 649.3947,107.7461 649.3947,107.7461 649.3947,106.4961 649.3947,106.4961 648.7697,105.2461 648.7697,105.2461 648.1447,104.6211 648.1447,104.6211 646.2697,103.9961 646.2697,103.9961 640.6447,103.9961 640.6447,103.9961 640.6447,117.1211"/>
    <line x1="645.0197" x2="649.3947" y1="110.2461" y2="117.1211"/>
    <polygon points="699.2126,92.5984 699.2126,130.3937 699.2126,130.3937 737.0079,130.3937 737.0079,130.3937 737.0079,92.5984 737.0079,92.5984"/>
    <polyline points="702.9774,95.7677 703.6024,95.4552 703.6024,95.4552 704.5399,94.5177 704.5399,94.5177 704.5399,101.0802"/>
    <polygon points="710.1649,94.5177 709.2274,94.8302 709.2274,94.8302 708.6024,95.7677 708.6024,95.7677 708.2899,97.3302 708.2899,97.3302 708.2899,98.2677 708.2899,98.2677 708.6024,99.8302 708.6024,99.8302 709.2274,100.7677 709.2274,100.7677 710.1649,101.0802 710.1649,101.0802 710.7899,101.0802 710.7899,101.0802 711.7274,100.7677 711.7274,100.7677 712.3524,99.8302 712.3524,99.8302 712.6649,98.2677 712.6649,98.2677 712.6649,97.3302 712.6649,97.3302 712.3524,95.7677 712.3524,95.7677 711.7274,94.8302 711.7274,94.8302 710.7899,94.5177 710.7899,94.5177"/>
    <line x1="716.2352" x2="716.2352" y1="103.9961" y2="117.1211"/>
    <line x1="724.9852" x2="716.2352" y1="103.9961" y2="112.7461"/>
    <line x1="719.3602" x2="724.9852" y1="109.6211" y2="117.1211"/>
    <line x1="111.5108" x2="111.5108" y1="141.7913" y2="154.9163"/>
    <line x1="120.2608" x2="111.5108" y1="141.7913" y2="150.5413"/>
    <line x1="114.6358" x2="120.2608" y1="147.4163" y2="154.9163"/>
    <polyline points="297.9872,141.7913 302.9872,154.9163 302.9872,154.9163 307.9872,141.7913"/>
    <polyline points="396.8504,130.3937 396.8504,168.189 396.8504,168.189 434.6457,168.189 434.6457,168.189 434.6457,130.3937"/>
    <polyline points="422.3105,141.7913 414.1855,141.7913 414.1855,141.7913 414.1855,154.9163 414.1855,154.9163 422.3105,154.9163"/>
    <line x1="414.1855" x2="419.1855" y1="148.0413" y2="148.0413"/>
    <polyline points="510.2362,130.3937 510.2362,168.189 510.2362,168.189 548.0315,168.189 548.0315,168.189 585.8268,168.189 585.8268,168.189 585.8268,130.3937 585.8268,130.3937 548.0315,130.3937 548.0315,130.3937 548.0315,168.189 548.0315,168.189 548.0315,205.9843 548.0315,205.9843 548.0315,243.7795 548.0315,243.7795 510.2362,243.7795 510.2362,243.7795 510.2362,205.9843 510.2362,205.9843 548.0315,205.9843"/>
    <polyline points="514.001,133.563 514.626,133.2505 514.626,133.2505 515.5635,132.313 515.5635,132.313 515.5635,138.8755"/>
    <polyline points="520.251,133.563 520.876,133.2505 520.876,133.2505 521.8135,132.313 521.8135,132.313 521.8135,138.8755"/>
    <polyline points="527.2589,148.0413 532.8839,148.0413 532.8839,148.0413 534.7589,147.4163 534.7589,147.4163 535.3839,146.7913 535.3839,146.7913 536.0089,145.5413 536.0089,145.5413 536.0089,144.2913 536.0089,144.2913 535.3839,143.0413 535.3839,143.0413 534.7589,142.4163 534.7589,142.4163 532.8839,141.7913 532.8839,141.7913 527.2589,141.7913 527.2589,141.7913 527.2589,154.9163"/>
    <line x1="531.6339" x2="536.0089" y1="148.0413" y2="154.9163"/>
    <polyline points="573.4916,141.7913 565.3666,141.7913 565.3666,141.7913 565.3666,154.9163 565.3666,154.9163 573.4916,154.9163"/>
    <line x1="565.3666" x2="570.3666" y1="148.0413" y2="148.0413"/>
    <polyline points="585.8268,168.189 623.622,168.189 623.622,168.189 661.4173,168.189 661.4173,168.189 699.2126,168.189 699.2126,168.189 699.2126,130.3937 699.2126,130.3937 661.4173,130.3937 661.4173,130.3937 661.4173,168.189 661.4173,168.189 661.4173,205.9843 661.4173,205.9843 623.622,205.9843 623.622,205.9843 623.622,243.7795 623.622,243.7795 661.4173,243.7795 661.4173,243.7795 661.4173,205.9843"/>
    <polyline points="623.622,205.9843 623.622,168.189 623.622,168.189 623.622,130.3937 623.622,130.3937 585.8268,130.3937"/>
    <polyline points="610.9744,143.6663 609.7244,142.4163 609.7244,142.4163 607.8494,141.7913 607.8494,141.7913 605.3494,141.7913 605.3494,141.7913 603.4744,142.4163 603.4744,142.4163 602.2244,143.6663 602.2244,143.6663 602.2244,144.9163 602.2244,144.9163 602.8494,146.1663 602.8494,146.1663 603.4744,146.7913 603.4744,146.7913 604.7244,147.4163 604.7244,147.4163 608.4744,148.6663 608.4744,148.6663 609.7244,149.2913 609.7244,149.2913 610.3494,149.9163 610.3494,149.9163 610.9744,151.1663 610.9744,151.1663 610.9744,153.0413 610.9744,153.0413 609.7244,154.2913 609.7244,154.2913 607.8494,154.9163 607.8494,154.9163 605.3494,154.9163 605.3494,154.9163 603.4744,154.2913 603.4744,154.2913 602.2244,153.0413"/>
    <line x1="643.1447" x2="643.1447" y1="141.7913" y2="154.9163"/>
    <line x1="638.7697" x2="647.5197" y1="141.7913" y2="141.7913"/>
    <polyline points="684.69,141.7913 684.69,151.7913 684.69,151.7913 684.065,153.6663 684.065,153.6663 683.44,154.2913 683.44,154.2913 682.19,154.9163 682.19,154.9163 680.94,154.9163 680.94,154.9163 679.69,154.2913 679.69,154.2913 679.065,153.6663 679.065,153.6663 678.44,151.7913 678.44,151.7913 678.44,150.5413"/>
    <polyline points="699.2126,205.9843 699.2126,168.189 699.2126,168.189 737.0079,168.189 737.0079,168.189 737.0079,130.3937 737.0079,130.3937 774.8031,130.3937 774.8031,130.3937 774.8031,168.189 774.8031,168.189 737.0079,168.189 737.0079,168.189 737.0079,205.9843 737.0079,205.9843 699.2126,205.9843 699.2126,205.9843 699.2126,243.7795 699.2126,243.7795 737.0079,243.7795 737.0079,243.7795 737.0079,205.9843"/>
    <polyline points="724.6727,141.7913 716.5477,141.7913 716.5477,141.7913 716.5477,154.9163 716.5477,154.9163 724.6727,154.9163"/>
    <line x1="716.5477" x2="721.5477" y1="148.0413" y2="148.0413"/>
    <polyline points="762.1555,143.6663 760.9055,142.4163 760.9055,142.4163 759.0305,141.7913 759.0305,141.7913 756.5305,141.7913 756.5305,141.7913 754.6555,142.4163 754.6555,142.4163 753.4055,143.6663 753.4055,143.6663 753.4055,144.9163 753.4055,144.9163 754.0305,146.1663 754.0305,146.1663 754.6555,146.7913 754.6555,146.7913 755.9055,147.4163 755.9055,147.4163 759.6555,148.6663 759.6555,148.6663 760.9055,149.2913 760.9055,149.2913 761.5305,149.9163 761.5305,149.9163 762.1555,151.1663 762.1555,151.1663 762.1555,153.0413 762.1555,153.0413 760.9055,154.2913 760.9055,154.2913 759.0305,154.9163 759.0305,154.9163 756.5305,154.9163 756.5305,154.9163 754.6555,154.2913 754.6555,154.2913 753.4055,153.0413"/>
    <polyline points="94.4882,168.189 94.4882,205.9843 94.4882,205.9843 56.6929,205.9843 56.6929,205.9843 18.8976,205.9843 18.8976,205.9843 18.8976,243.7795 18.8976,243.7795 56.6929,243.7795 56.6929,243.7795 94.4882,243.7795 94.4882,243.7795 94.4882,205.9843 94.4882,205.9843 132.2835,205.9843 132.2835,205.9843 132.2835,168.189"/>
    <polyline points="119.9483,179.5866 111.8233,179.5866 111.8233,179.5866 111.8233,192.7116 111.8233,192.7116 119.9483,192.7116"/>
    <line x1="111.8233" x2="116.8233" y1="185.8366" y2="185.8366"/>
    <polygon points="170.0787,168.189 170.0787,205.9843 170.0787,205.9843 207.874,205.9843 207.874,205.9843 207.874,168.189 207.874,168.189"/>
    <polyline points="173.8435,171.3583 174.4685,171.0458 174.4685,171.0458 175.406,170.1083 175.406,170.1083 175.406,176.6708"/>
    <polyline points="179.4685,171.6708 179.4685,171.3583 179.4685,171.3583 179.781,170.7333 179.781,170.7333 180.0935,170.4208 180.0935,170.4208 180.7185,170.1083 180.7185,170.1083 181.9685,170.1083 181.9685,170.1083 182.5935,170.4208 182.5935,170.4208 182.906,170.7333 182.906,170.7333 183.2185,171.3583 183.2185,171.3583 183.2185,171.9833 183.2185,171.9833 182.906,172.6083 182.906,172.6083 182.281,173.5458 182.281,173.5458 179.156,176.6708 179.156,176.6708 183.531,176.6708"/>
    <polyline points="195.2264,181.4616 193.9764,180.2116 193.9764,180.2116 192.1014,179.5866 192.1014,179.5866 189.6014,179.5866 189.6014,179.5866 187.7264,180.2116 187.7264,180.2116 186.4764,181.4616 186.4764,181.4616 186.4764,182.7116 186.4764,182.7116 187.1014,183.9616 187.1014,183.9616 187.7264,184.5866 187.7264,184.5866 188.9764,185.2116 188.9764,185.2116 192.7264,186.4616 192.7264,186.4616 193.9764,187.0866 193.9764,187.0866 194.6014,187.7116 194.6014,187.7116 195.2264,188.9616 195.2264,188.9616 195.2264,190.8366 195.2264,190.8366 193.9764,192.0866 193.9764,192.0866 192.1014,192.7116 192.1014,192.7116 189.6014,192.7116 189.6014,192.7116 187.7264,192.0866 187.7264,192.0866 186.4764,190.8366"/>
    <polygon points="245.6693,168.189 245.6693,205.9843 245.6693,205.9843 283.4646,205.9843 283.4646,205.9843 283.4646,168.189 283.4646,168.189"/>
    <polyline points="249.4341,171.3583 250.0591,171.0458 250.0591,171.0458 250.9966,170.1083 250.9966,170.1083 250.9966,176.6708"/>
    <polyline points="255.3716,170.1083 258.8091,170.1083 258.8091,170.1083 256.9341,172.6083 256.9341,172.6083 257.8716,172.6083 257.8716,172.6083 258.4966,172.9208 258.4966,172.9208 258.8091,173.2333 258.8091,173.2333 259.1216,174.1708 259.1216,174.1708 259.1216,174.7958 259.1216,174.7958 258.8091,175.7333 258.8091,175.7333 258.1841,176.3583 258.1841,176.3583 257.2466,176.6708 257.2466,176.6708 256.3091,176.6708 256.3091,176.6708 255.3716,176.3583 255.3716,176.3583 255.0591,176.0458 255.0591,176.0458 254.7466,175.4208"/>
    <polyline points="262.6919,185.8366 268.3169,185.8366 268.3169,185.8366 270.1919,185.2116 270.1919,185.2116 270.8169,184.5866 270.8169,184.5866 271.4419,183.3366 271.4419,183.3366 271.4419,182.0866 271.4419,182.0866 270.8169,180.8366 270.8169,180.8366 270.1919,180.2116 270.1919,180.2116 268.3169,179.5866 268.3169,179.5866 262.6919,179.5866 262.6919,179.5866 262.6919,192.7116"/>
    <line x1="267.0669" x2="271.4419" y1="185.8366" y2="192.7116"/>
    <polygon points="283.4646,205.9843 321.2598,205.9843 321.2598,205.9843 359.0551,205.9843 359.0551,205.9843 396.8504,205.9843 396.8504,205.9843 396.8504,168.189 396.8504,168.189 359.0551,168.189 359.0551,168.189 321.2598,168.189 321.2598,168.189 321.2598,205.9843 321.2598,205.9843 321.2598,243.7795 321.2598,243.7795 283.4646,243.7795 283.4646,243.7795"/>
    <polyline points="308.9247,179.5866 300.7997,179.5866 300.7997,179.5866 300.7997,192.7116 300.7997,192.7116 308.9247,192.7116"/>
    <line x1="300.7997" x2="305.7997" y1="185.8366" y2="185.8366"/>
    <line x1="359.0551" x2="359.0551" y1="205.9843" y2="168.189"/>
    <polyline points="346.72,182.7116 346.095,181.4616 346.095,181.4616 344.845,180.2116 344.845,180.2116 343.595,179.5866 343.595,179.5866 341.095,179.5866 341.095,179.5866 339.845,180.2116 339.845,180.2116 338.595,181.4616 338.595,181.4616 337.97,182.7116 337.97,182.7116 337.345,184.5866 337.345,184.5866 337.345,187.7116 337.345,187.7116 337.97,189.5866 337.97,189.5866 338.595,190.8366 338.595,190.8366 339.845,192.0866 339.845,192.0866 341.095,192.7116 341.095,192.7116 343.595,192.7116 343.595,192.7116 344.845,192.0866 344.845,192.0866 346.095,190.8366 346.095,190.8366 346.72,189.5866 346.72,189.5866 346.72,187.7116 346.72,187.7116 343.595,187.7116"/>
    <polyline points="384.5153,179.5866 376.3903,179.5866 376.3903,179.5866 376.3903,192.7116 376.3903,192.7116 384.5153,192.7116"/>
    <line x1="376.3903" x2="381.3903" y1="185.8366" y2="185.8366"/>
    <polyline points="472.4409,205.9843 434.6457,205.9843 434.6457,205.9843 434.6457,243.7795 434.6457,243.7795 396.8504,243.7795 396.8504,243.7795 396.8504,205.9843 396.8504,205.9843 434.6457,205.9843 434.6457,205.9843 434.6457,168.189 434.6457,168.189 472.4409,168.189 472.4409,168.189 472.4409,205.9843 472.4409,205.9843 510.2362,205.9843 510.2362,205.9843 510.2362,168.189 510.2362,168.189 472.4409,168.189"/>
    <polyline points="422.623,179.5866 422.623,192.7116 422.623,192.7116 413.873,179.5866 413.873,179.5866 413.873,192.7116"/>
    <polygon points="451.6683,179.5866 451.6683,192.7116 451.6683,192.7116 457.2933,192.7116 457.2933,192.7116 459.1683,192.0866 459.1683,192.0866 459.7933,191.4616 459.7933,191.4616 460.4183,190.2116 460.4183,190.2116 460.4183,188.3366 460.4183,188.3366 459.7933,187.0866 459.7933,187.0866 459.1683,186.4616 459.1683,186.4616 457.2933,185.8366 457.2933,185.8366 459.1683,185.2116 459.1683,185.2116 459.7933,184.5866 459.7933,184.5866 460.4183,183.3366 460.4183,183.3366 460.4183,182.0866 460.4183,182.0866 459.7933,180.8366 459.7933,180.8366 459.1683,180.2116 459.1683,180.2116 457.2933,179.5866 457.2933,179.5866"/>
    <line x1="451.6683" x2="457.2933" y1="185.8366" y2="185.8366"/>
    <polyline points="489.4636,179.5866 489.4636,188.9616 489.4636,188.9616 490.0886,190.8366 490.0886,190.8366 491.3386,192.0866 491.3386,192.0866 493.2136,192.7116 493.2136,192.7116 494.4636,192.7116 494.4636,192.7116 496.3386,192.0866 496.3386,192.0866 497.5886,190.8366 497.5886,190.8366 498.2136,188.9616 498.2136,188.9616 498.2136,179.5866"/>
    <line x1="531.6339" x2="531.6339" y1="179.5866" y2="192.7116"/>
    <polyline points="646.8947,179.5866 646.8947,189.5866 646.8947,189.5866 646.2697,191.4616 646.2697,191.4616 645.6447,192.0866 645.6447,192.0866 644.3947,192.7116 644.3947,192.7116 643.1447,192.7116 643.1447,192.7116 641.8947,192.0866 641.8947,192.0866 641.2697,191.4616 641.2697,191.4616 640.6447,189.5866 640.6447,189.5866 640.6447,188.3366"/>
    <polyline points="724.9852,179.5866 724.9852,192.7116 724.9852,192.7116 716.2352,179.5866 716.2352,179.5866 716.2352,192.7116"/>
    <line x1="56.6929" x2="56.6929" y1="243.7795" y2="205.9843"/>
    <polyline points="22.6624,209.1535 23.2874,208.841 23.2874,208.841 24.2249,207.9035 24.2249,207.9035 24.2249,214.466"/>
    <polyline points="31.0999,214.466 31.0999,207.9035 31.0999,207.9035 27.9749,212.2785 27.9749,212.2785 32.6624,212.2785"/>
    <line x1="38.4203" x2="38.4203" y1="217.3819" y2="230.5069"/>
    <line x1="34.0453" x2="42.7953" y1="217.3819" y2="217.3819"/>
    <polyline points="82.1531,217.3819 74.0281,217.3819 74.0281,217.3819 74.0281,230.5069 74.0281,230.5069 82.1531,230.5069"/>
    <line x1="74.0281" x2="79.0281" y1="223.6319" y2="223.6319"/>
    <polyline points="94.4882,243.7795 132.2835,243.7795 132.2835,243.7795 170.0787,243.7795 170.0787,243.7795 170.0787,205.9843 170.0787,205.9843 132.2835,205.9843 132.2835,205.9843 132.2835,243.7795 132.2835,243.7795 132.2835,281.5748 132.2835,281.5748 132.2835,319.3701 132.2835,319.3701 170.0787,319.3701 170.0787,319.3701 207.874,319.3701 207.874,319.3701 207.874,281.5748 207.874,281.5748 207.874,243.7795 207.874,243.7795 245.6693,243.7795 245.6693,243.7795 245.6693,205.9843 245.6693,205.9843 207.874,205.9843 207.874,205.9843 207.874,243.7795 207.874,243.7795 170.0787,243.7795 170.0787,243.7795 170.0787,281.5748 170.0787,281.5748 132.2835,281.5748 132.2835,281.5748 94.4882,281.5748 94.4882,281.5748 56.6929,281.5748 56.6929,281.5748 18.8976,281.5748 18.8976,281.5748 18.8976,319.3701 18.8976,319.3701 56.6929,319.3701 56.6929,319.3701 94.4882,319.3701 94.4882,319.3701 94.4882,281.5748 94.4882,281.5748 94.4882,243.7795"/>
    <polyline points="111.5108,223.6319 117.1358,223.6319 117.1358,223.6319 119.0108,223.0069 119.0108,223.0069 119.6358,222.3819 119.6358,222.3819 120.2608,221.1319 120.2608,221.1319 120.2608,219.8819 120.2608,219.8819 119.6358,218.6319 119.6358,218.6319 119.0108,218.0069 119.0108,218.0069 117.1358,217.3819 117.1358,217.3819 111.5108,217.3819 111.5108,217.3819 111.5108,230.5069"/>
    <line x1="115.8858" x2="120.2608" y1="223.6319" y2="230.5069"/>
    <polyline points="149.3061,223.6319 154.9311,223.6319 154.9311,223.6319 156.8061,223.0069 156.8061,223.0069 157.4311,222.3819 157.4311,222.3819 158.0561,221.1319 158.0561,221.1319 158.0561,219.8819 158.0561,219.8819 157.4311,218.6319 157.4311,218.6319 156.8061,218.0069 156.8061,218.0069 154.9311,217.3819 154.9311,217.3819 149.3061,217.3819 149.3061,217.3819 149.3061,230.5069"/>
    <line x1="153.6811" x2="158.0561" y1="223.6319" y2="230.5069"/>
    <polyline points="194.6014,230.5069 189.6014,217.3819 189.6014,217.3819 184.6014,230.5069"/>
    <line x1="186.4764" x2="192.7264" y1="226.1319" y2="226.1319"/>
    <polyline points="233.0217,219.2569 231.7717,218.0069 231.7717,218.0069 229.8967,217.3819 229.8967,217.3819 227.3967,217.3819 227.3967,217.3819 225.5217,218.0069 225.5217,218.0069 224.2717,219.2569 224.2717,219.2569 224.2717,220.5069 224.2717,220.5069 224.8967,221.7569 224.8967,221.7569 225.5217,222.3819 225.5217,222.3819 226.7717,223.0069 226.7717,223.0069 230.5217,224.2569 230.5217,224.2569 231.7717,224.8819 231.7717,224.8819 232.3967,225.5069 232.3967,225.5069 233.0217,226.7569 233.0217,226.7569 233.0217,228.6319 233.0217,228.6319 231.7717,229.8819 231.7717,229.8819 229.8967,230.5069 229.8967,230.5069 227.3967,230.5069 227.3967,230.5069 225.5217,229.8819 225.5217,229.8819 224.2717,228.6319"/>
    <polyline points="300.4872,223.6319 306.1122,223.6319 306.1122,223.6319 307.9872,223.0069 307.9872,223.0069 308.6122,222.3819 308.6122,222.3819 309.2372,221.1319 309.2372,221.1319 309.2372,219.8819 309.2372,219.8819 308.6122,218.6319 308.6122,218.6319 307.9872,218.0069 307.9872,218.0069 306.1122,217.3819 306.1122,217.3819 300.4872,217.3819 300.4872,217.3819 300.4872,230.5069"/>
    <line x1="304.8622" x2="309.2372" y1="223.6319" y2="230.5069"/>
    <polyline points="419.498,223.6319 421.373,223.0069 421.373,223.0069 421.998,222.3819 421.998,222.3819 422.623,221.1319 422.623,221.1319 422.623,219.8819 422.623,219.8819 421.998,218.6319 421.998,218.6319 421.373,218.0069 421.373,218.0069 419.498,217.3819 419.498,217.3819 413.873,217.3819 413.873,217.3819 413.873,230.5069 413.873,230.5069 419.498,230.5069 419.498,230.5069 421.373,229.8819 421.373,229.8819 421.998,229.2569 421.998,229.2569 422.623,228.0069 422.623,228.0069 422.623,226.1319 422.623,226.1319 421.998,224.8819 421.998,224.8819 421.373,224.2569 421.373,224.2569 419.498,223.6319 419.498,223.6319 413.873,223.6319"/>
    <polyline points="533.5089,217.3819 533.5089,227.3819 533.5089,227.3819 532.8839,229.2569 532.8839,229.2569 532.2589,229.8819 532.2589,229.8819 531.0089,230.5069 531.0089,230.5069 529.7589,230.5069 529.7589,230.5069 528.5089,229.8819 528.5089,229.8819 527.8839,229.2569 527.8839,229.2569 527.2589,227.3819 527.2589,227.3819 527.2589,226.1319"/>
    <polyline points="649.0822,217.3819 640.9572,217.3819 640.9572,217.3819 640.9572,230.5069 640.9572,230.5069 649.0822,230.5069"/>
    <line x1="640.9572" x2="645.9572" y1="223.6319" y2="223.6319"/>
    <polyline points="724.9852,217.3819 724.9852,230.5069 724.9852,230.5069 716.2352,217.3819 716.2352,217.3819 716.2352,230.5069"/>
    <polyline points="119.9483,255.1772 111.8233,255.1772 111.8233,255.1772 111.8233,268.3022 111.8233,268.3022 119.9483,268.3022"/>
    <line x1="111.8233" x2="116.8233" y1="261.4272" y2="261.4272"/>
    <polygon points="170.0787,281.5748 207.874,281.5748 207.874,281.5748 245.6693,281.5748 245.6693,281.5748 245.6693,319.3701 245.6693,319.3701 207.874,319.3701 207.874,319.3701 207.874,357.1654 207.874,357.1654 170.0787,357.1654 170.0787,357.1654 170.0787,319.3701 170.0787,319.3701"/>
    <polyline points="187.1014,261.4272 192.7264,261.4272 192.7264,261.4272 194.6014,260.8022 194.6014,260.8022 195.2264,260.1772 195.2264,260.1772 195.8514,258.9272 195.8514,258.9272 195.8514,257.6772 195.8514,257.6772 195.2264,256.4272 195.2264,256.4272 194.6014,255.8022 194.6014,255.8022 192.7264,255.1772 192.7264,255.1772 187.1014,255.1772 187.1014,255.1772 187.1014,268.3022"/>
    <line x1="191.4764" x2="195.8514" y1="261.4272" y2="268.3022"/>
    <polyline points="283.4646,243.7795 283.4646,281.5748 283.4646,281.5748 321.2598,281.5748 321.2598,281.5748 321.2598,243.7795"/>
    <line x1="302.9872" x2="302.9872" y1="255.1772" y2="268.3022"/>
    <line x1="298.6122" x2="307.3622" y1="255.1772" y2="255.1772"/>
    <polyline points="396.8504,319.3701 396.8504,281.5748 396.8504,281.5748 396.8504,243.7795 396.8504,243.7795 359.0551,243.7795 359.0551,243.7795 359.0551,281.5748 359.0551,281.5748 396.8504,281.5748 396.8504,281.5748 434.6457,281.5748 434.6457,281.5748 434.6457,243.7795 434.6457,243.7795 472.4409,243.7795 472.4409,243.7795 472.4409,281.5748 472.4409,281.5748 434.6457,281.5748 434.6457,281.5748 434.6457,319.3701 434.6457,319.3701 434.6457,357.1654 434.6457,357.1654 396.8504,357.1654 396.8504,357.1654 396.8504,319.3701 396.8504,319.3701 434.6457,319.3701"/>
    <polyline points="362.8199,246.9488 363.4449,246.6363 363.4449,246.6363 364.3824,245.6988 364.3824,245.6988 364.3824,252.2613"/>
    <polyline points="371.8824,245.6988 368.7574,245.6988 368.7574,245.6988 368.4449,248.5113 368.4449,248.5113 368.7574,248.1988 368.7574,248.1988 369.6949,247.8863 369.6949,247.8863 370.6324,247.8863 370.6324,247.8863 371.5699,248.1988 371.5699,248.1988 372.1949,248.8238 372.1949,248.8238 372.5074,249.7613 372.5074,249.7613 372.5074,250.3863 372.5074,250.3863 372.1949,251.3238 372.1949,251.3238 371.5699,251.9488 371.5699,251.9488 370.6324,252.2613 370.6324,252.2613 369.6949,252.2613 369.6949,252.2613 368.7574,251.9488 368.7574,251.9488 368.4449,251.6363 368.4449,251.6363 368.1324,251.0113"/>
    <polyline points="375.4528,255.1772 384.2028,255.1772 384.2028,255.1772 375.4528,268.3022 375.4528,268.3022 384.2028,268.3022"/>
    <polygon points="416.373,255.1772 415.123,255.8022 415.123,255.8022 413.873,257.0522 413.873,257.0522 413.248,258.3022 413.248,258.3022 412.623,260.1772 412.623,260.1772 412.623,263.3022 412.623,263.3022 413.248,265.1772 413.248,265.1772 413.873,266.4272 413.873,266.4272 415.123,267.6772 415.123,267.6772 416.373,268.3022 416.373,268.3022 418.873,268.3022 418.873,268.3022 420.123,267.6772 420.123,267.6772 421.373,266.4272 421.373,266.4272 421.998,265.1772 421.998,265.1772 422.623,263.3022 422.623,263.3022 422.623,260.1772 422.623,260.1772 421.998,258.3022 421.998,258.3022 421.373,257.0522 421.373,257.0522 420.123,255.8022 420.123,255.8022 418.873,255.1772 418.873,255.1772"/>
    <polyline points="460.4183,255.1772 460.4183,268.3022 460.4183,268.3022 451.6683,255.1772 451.6683,255.1772 451.6683,268.3022"/>
    <polyline points="510.2362,243.7795 510.2362,281.5748 510.2362,281.5748 510.2362,319.3701 510.2362,319.3701 510.2362,357.1654 510.2362,357.1654 548.0315,357.1654 548.0315,357.1654 548.0315,319.3701 548.0315,319.3701 548.0315,281.5748 548.0315,281.5748 548.0315,243.7795"/>
    <line x1="510.2362" x2="548.0315" y1="281.5748" y2="281.5748"/>
    <polygon points="527.2589,255.1772 527.2589,268.3022 527.2589,268.3022 531.6339,268.3022 531.6339,268.3022 533.5089,267.6772 533.5089,267.6772 534.7589,266.4272 534.7589,266.4272 535.3839,265.1772 535.3839,265.1772 536.0089,263.3022 536.0089,263.3022 536.0089,260.1772 536.0089,260.1772 535.3839,258.3022 535.3839,258.3022 534.7589,257.0522 534.7589,257.0522 533.5089,255.8022 533.5089,255.8022 531.6339,255.1772 531.6339,255.1772"/>
    <polyline points="623.622,243.7795 623.622,281.5748 623.622,281.5748 585.8268,281.5748 585.8268,281.5748 585.8268,319.3701 585.8268,319.3701 623.622,319.3701 623.622,319.3701 623.622,281.5748 623.622,281.5748 661.4173,281.5748 661.4173,281.5748 699.2126,281.5748 699.2126,281.5748 699.2126,243.7795 699.2126,243.7795 661.4173,243.7795 661.4173,243.7795 661.4173,281.5748"/>
    <polyline points="627.3868,246.9488 628.0118,246.6363 628.0118,246.6363 628.9493,245.6988 628.9493,245.6988 628.9493,252.2613"/>
    <polyline points="636.7618,246.6363 636.4493,246.0113 636.4493,246.0113 635.5118,245.6988 635.5118,245.6988 634.8868,245.6988 634.8868,245.6988 633.9493,246.0113 633.9493,246.0113 633.3243,246.9488 633.3243,246.9488 633.0118,248.5113 633.0118,248.5113 633.0118,250.0738 633.0118,250.0738 633.3243,251.3238 633.3243,251.3238 633.9493,251.9488 633.9493,251.9488 634.8868,252.2613 634.8868,252.2613 635.1993,252.2613 635.1993,252.2613 636.1368,251.9488 636.1368,251.9488 636.7618,251.3238 636.7618,251.3238 637.0743,250.3863 637.0743,250.3863 637.0743,250.0738 637.0743,250.0738 636.7618,249.1363 636.7618,249.1363 636.1368,248.5113 636.1368,248.5113 635.1993,248.1988 635.1993,248.1988 634.8868,248.1988 634.8868,248.1988 633.9493,248.5113 633.9493,248.5113 633.3243,249.1363 633.3243,249.1363 633.0118,250.0738"/>
    <polyline points="648.7697,257.0522 647.5197,255.8022 647.5197,255.8022 645.6447,255.1772 645.6447,255.1772 643.1447,255.1772 643.1447,255.1772 641.2697,255.8022 641.2697,255.8022 640.0197,257.0522 640.0197,257.0522 640.0197,258.3022 640.0197,258.3022 640.6447,259.5522 640.6447,259.5522 641.2697,260.1772 641.2697,260.1772 642.5197,260.8022 642.5197,260.8022 646.2697,262.0522 646.2697,262.0522 647.5197,262.6772 647.5197,262.6772 648.1447,263.3022 648.1447,263.3022 648.7697,264.5522 648.7697,264.5522 648.7697,266.4272 648.7697,266.4272 647.5197,267.6772 647.5197,267.6772 645.6447,268.3022 645.6447,268.3022 643.1447,268.3022 643.1447,268.3022 641.2697,267.6772 641.2697,267.6772 640.0197,266.4272"/>
    <line x1="680.94" x2="680.94" y1="255.1772" y2="268.3022"/>
    <line x1="676.565" x2="685.315" y1="255.1772" y2="255.1772"/>
    <polyline points="699.2126,319.3701 699.2126,281.5748 699.2126,281.5748 737.0079,281.5748 737.0079,281.5748 774.8031,281.5748 774.8031,281.5748 774.8031,243.7795 774.8031,243.7795 737.0079,243.7795 737.0079,243.7795 737.0079,281.5748 737.0079,281.5748 737.0079,319.3701 737.0079,319.3701 699.2126,319.3701 699.2126,319.3701 699.2126,357.1654 699.2126,357.1654 737.0079,357.1654 737.0079,357.1654 737.0079,319.3701"/>
    <polyline points="724.6727,255.1772 716.5477,255.1772 716.5477,255.1772 716.5477,268.3022 716.5477,268.3022 724.6727,268.3022"/>
    <line x1="716.5477" x2="721.5477" y1="261.4272" y2="261.4272"/>
    <polyline points="754.0305,261.4272 759.6555,261.4272 759.6555,261.4272 761.5305,260.8022 761.5305,260.8022 762.1555,260.1772 762.1555,260.1772 762.7805,258.9272 762.7805,258.9272 762.7805,257.6772 762.7805,257.6772 762.1555,256.4272 762.1555,256.4272 761.5305,255.8022 761.5305,255.8022 759.6555,255.1772 759.6555,255.1772 754.0305,255.1772 754.0305,255.1772 754.0305,268.3022"/>
    <line x1="758.4055" x2="762.7805" y1="261.4272" y2="268.3022"/>
    <line x1="56.6929" x2="56.6929" y1="319.3701" y2="281.5748"/>
    <polyline points="22.6624,284.7441 23.2874,284.4316 23.2874,284.4316 24.2249,283.4941 24.2249,283.4941 24.2249,290.0566"/>
    <polyline points="27.9749,283.4941 32.3499,283.4941 32.3499,283.4941 29.2249,290.0566"/>
    <polyline points="45.2953,306.0974 45.2953,292.9724 45.2953,292.9724 40.2953,306.0974 40.2953,306.0974 35.2953,292.9724 35.2953,292.9724 35.2953,306.0974"/>
    <polyline points="81.2156,306.0974 76.2156,292.9724 76.2156,292.9724 71.2156,306.0974"/>
    <line x1="73.0906" x2="79.3406" y1="301.7224" y2="301.7224"/>
    <line x1="94.4882" x2="132.2835" y1="319.3701" y2="319.3701"/>
    <polyline points="120.2608,292.9724 120.2608,306.0974 120.2608,306.0974 111.5108,292.9724 111.5108,292.9724 111.5108,306.0974"/>
    <polygon points="149.3061,292.9724 149.3061,306.0974 149.3061,306.0974 153.6811,306.0974 153.6811,306.0974 155.5561,305.4724 155.5561,305.4724 156.8061,304.2224 156.8061,304.2224 157.4311,302.9724 157.4311,302.9724 158.0561,301.0974 158.0561,301.0974 158.0561,297.9724 158.0561,297.9724 157.4311,296.0974 157.4311,296.0974 156.8061,294.8474 156.8061,294.8474 155.5561,293.5974 155.5561,293.5974 153.6811,292.9724 153.6811,292.9724"/>
    <polyline points="194.6014,306.0974 189.6014,292.9724 189.6014,292.9724 184.6014,306.0974"/>
    <line x1="186.4764" x2="192.7264" y1="301.7224" y2="301.7224"/>
    <polyline points="224.8967,299.2224 230.5217,299.2224 230.5217,299.2224 232.3967,298.5974 232.3967,298.5974 233.0217,297.9724 233.0217,297.9724 233.6467,296.7224 233.6467,296.7224 233.6467,295.4724 233.6467,295.4724 233.0217,294.2224 233.0217,294.2224 232.3967,293.5974 232.3967,293.5974 230.5217,292.9724 230.5217,292.9724 224.8967,292.9724 224.8967,292.9724 224.8967,306.0974"/>
    <line x1="229.2717" x2="233.6467" y1="299.2224" y2="306.0974"/>
    <polyline points="245.6693,319.3701 283.4646,319.3701 283.4646,319.3701 321.2598,319.3701 321.2598,319.3701 321.2598,281.5748 321.2598,281.5748 359.0551,281.5748 359.0551,281.5748 359.0551,319.3701 359.0551,319.3701 321.2598,319.3701 321.2598,319.3701 321.2598,357.1654 321.2598,357.1654 283.4646,357.1654 283.4646,357.1654 283.4646,319.3701 283.4646,319.3701 283.4646,281.5748 283.4646,281.5748 245.6693,281.5748"/>
    <line x1="267.0669" x2="267.0669" y1="292.9724" y2="306.0974"/>
    <polyline points="306.7372,292.9724 306.7372,302.9724 306.7372,302.9724 306.1122,304.8474 306.1122,304.8474 305.4872,305.4724 305.4872,305.4724 304.2372,306.0974 304.2372,306.0974 302.9872,306.0974 302.9872,306.0974 301.7372,305.4724 301.7372,305.4724 301.1122,304.8474 301.1122,304.8474 300.4872,302.9724 300.4872,302.9724 300.4872,301.7224"/>
    <polyline points="347.0325,292.9724 347.0325,306.0974 347.0325,306.0974 338.2825,292.9724 338.2825,292.9724 338.2825,306.0974"/>
    <polygon points="416.373,292.9724 415.123,293.5974 415.123,293.5974 413.873,294.8474 413.873,294.8474 413.248,296.0974 413.248,296.0974 412.623,297.9724 412.623,297.9724 412.623,301.0974 412.623,301.0974 413.248,302.9724 413.248,302.9724 413.873,304.2224 413.873,304.2224 415.123,305.4724 415.123,305.4724 416.373,306.0974 416.373,306.0974 418.873,306.0974 418.873,306.0974 420.123,305.4724 420.123,305.4724 421.373,304.2224 421.373,304.2224 421.998,302.9724 421.998,302.9724 422.623,301.0974 422.623,301.0974 422.623,297.9724 422.623,297.9724 421.998,296.0974 421.998,296.0974 421.373,294.8474 421.373,294.8474 420.123,293.5974 420.123,293.5974 418.873,292.9724 418.873,292.9724"/>
    <polyline points="510.2362,319.3701 548.0315,319.3701 548.0315,319.3701 585.8268,319.3701 585.8268,319.3701 585.8268,357.1654 585.8268,357.1654 548.0315,357.1654"/>
    <polyline points="534.7589,306.0974 529.7589,292.9724 529.7589,292.9724 524.7589,306.0974"/>
    <line x1="526.6339" x2="532.8839" y1="301.7224" y2="301.7224"/>
    <polyline points="589.5915,284.7441 590.2165,284.4316 590.2165,284.4316 591.154,283.4941 591.154,283.4941 591.154,290.0566"/>
    <polygon points="596.4665,283.4941 595.529,283.8066 595.529,283.8066 595.2165,284.4316 595.2165,284.4316 595.2165,285.0566 595.2165,285.0566 595.529,285.6816 595.529,285.6816 596.154,285.9941 596.154,285.9941 597.404,286.3066 597.404,286.3066 598.3415,286.6191 598.3415,286.6191 598.9665,287.2441 598.9665,287.2441 599.279,287.8691 599.279,287.8691 599.279,288.8066 599.279,288.8066 598.9665,289.4316 598.9665,289.4316 598.654,289.7441 598.654,289.7441 597.7165,290.0566 597.7165,290.0566 596.4665,290.0566 596.4665,290.0566 595.529,289.7441 595.529,289.7441 595.2165,289.4316 595.2165,289.4316 594.904,288.8066 594.904,288.8066 594.904,287.8691 594.904,287.8691 595.2165,287.2441 595.2165,287.2441 595.8415,286.6191 595.8415,286.6191 596.779,286.3066 596.779,286.3066 598.029,285.9941 598.029,285.9941 598.654,285.6816 598.654,285.6816 598.9665,285.0566 598.9665,285.0566 598.9665,284.4316 598.9665,284.4316 598.654,283.8066 598.654,283.8066 597.7165,283.4941 597.7165,283.4941"/>
    <polyline points="609.0994,292.9724 609.0994,302.9724 609.0994,302.9724 608.4744,304.8474 608.4744,304.8474 607.8494,305.4724 607.8494,305.4724 606.5994,306.0974 606.5994,306.0974 605.3494,306.0974 605.3494,306.0974 604.0994,305.4724 604.0994,305.4724 603.4744,304.8474 603.4744,304.8474 602.8494,302.9724 602.8494,302.9724 602.8494,301.7224"/>
    <line x1="718.7352" x2="718.7352" y1="292.9724" y2="306.0974"/>
    <line x1="714.3602" x2="723.1102" y1="292.9724" y2="292.9724"/>
    <line x1="187.1014" x2="187.1014" y1="330.7677" y2="343.8927"/>
    <line x1="195.8514" x2="195.8514" y1="330.7677" y2="343.8927"/>
    <line x1="187.1014" x2="195.8514" y1="337.0177" y2="337.0177"/>
    <polyline points="308.9247,330.7677 300.7997,330.7677 300.7997,330.7677 300.7997,343.8927 300.7997,343.8927 308.9247,343.8927"/>
    <line x1="300.7997" x2="305.7997" y1="337.0177" y2="337.0177"/>
    <polyline points="422.3105,333.8927 421.6855,332.6427 421.6855,332.6427 420.4355,331.3927 420.4355,331.3927 419.1855,330.7677 419.1855,330.7677 416.6855,330.7677 416.6855,330.7677 415.4355,331.3927 415.4355,331.3927 414.1855,332.6427 414.1855,332.6427 413.5605,333.8927 413.5605,333.8927 412.9355,335.7677 412.9355,335.7677 412.9355,338.8927 412.9355,338.8927 413.5605,340.7677 413.5605,340.7677 414.1855,342.0177 414.1855,342.0177 415.4355,343.2677 415.4355,343.2677 416.6855,343.8927 416.6855,343.8927 419.1855,343.8927 419.1855,343.8927 420.4355,343.2677 420.4355,343.2677 421.6855,342.0177 421.6855,342.0177 422.3105,340.7677 422.3105,340.7677 422.3105,338.8927 422.3105,338.8927 419.1855,338.8927"/>
    <polyline points="514.001,322.5394 514.626,322.2269 514.626,322.2269 515.5635,321.2894 515.5635,321.2894 515.5635,327.8519"/>
    <polyline points="523.376,323.4769 523.0635,324.4144 523.0635,324.4144 522.4385,325.0394 522.4385,325.0394 521.501,325.3519 521.501,325.3519 521.1885,325.3519 521.1885,325.3519 520.251,325.0394 520.251,325.0394 519.626,324.4144 519.626,324.4144 519.3135,323.4769 519.3135,323.4769 519.3135,323.1644 519.3135,323.1644 519.626,322.2269 519.626,322.2269 520.251,321.6019 520.251,321.6019 521.1885,321.2894 521.1885,321.2894 521.501,321.2894 521.501,321.2894 522.4385,321.6019 522.4385,321.6019 523.0635,322.2269 523.0635,322.2269 523.376,323.4769 523.376,323.4769 523.376,325.0394 523.376,325.0394 523.0635,326.6019 523.0635,326.6019 522.4385,327.5394 522.4385,327.5394 521.501,327.8519 521.501,327.8519 520.876,327.8519 520.876,327.8519 519.9385,327.5394 519.9385,327.5394 519.626,326.9144"/>
    <polyline points="535.6964,333.8927 535.0714,332.6427 535.0714,332.6427 533.8214,331.3927 533.8214,331.3927 532.5714,330.7677 532.5714,330.7677 530.0714,330.7677 530.0714,330.7677 528.8214,331.3927 528.8214,331.3927 527.5714,332.6427 527.5714,332.6427 526.9464,333.8927 526.9464,333.8927 526.3214,335.7677 526.3214,335.7677 526.3214,338.8927 526.3214,338.8927 526.9464,340.7677 526.9464,340.7677 527.5714,342.0177 527.5714,342.0177 528.8214,343.2677 528.8214,343.2677 530.0714,343.8927 530.0714,343.8927 532.5714,343.8927 532.5714,343.8927 533.8214,343.2677 533.8214,343.2677 535.0714,342.0177 535.0714,342.0177 535.6964,340.7677 535.6964,340.7677 535.6964,338.8927 535.6964,338.8927 532.5714,338.8927"/>
    <polyline points="565.0541,337.0177 570.6791,337.0177 570.6791,337.0177 572.5541,336.3927 572.5541,336.3927 573.1791,335.7677 573.1791,335.7677 573.8041,334.5177 573.8041,334.5177 573.8041,333.2677 573.8041,333.2677 573.1791,332.0177 573.1791,332.0177 572.5541,331.3927 572.5541,331.3927 570.6791,330.7677 570.6791,330.7677 565.0541,330.7677 565.0541,330.7677 565.0541,343.8927"/>
    <line x1="569.4291" x2="573.8041" y1="337.0177" y2="343.8927"/>
    <polyline points="585.8268,357.1654 623.622,357.1654 623.622,357.1654 623.622,319.3701 623.622,319.3701 661.4173,319.3701 661.4173,319.3701 661.4173,357.1654 661.4173,357.1654 623.622,357.1654"/>
    <polyline points="610.3494,343.8927 605.3494,330.7677 605.3494,330.7677 600.3494,343.8927"/>
    <line x1="602.2244" x2="608.4744" y1="339.5177" y2="339.5177"/>
    <polyline points="648.7697,332.6427 647.5197,331.3927 647.5197,331.3927 645.6447,330.7677 645.6447,330.7677 643.1447,330.7677 643.1447,330.7677 641.2697,331.3927 641.2697,331.3927 640.0197,332.6427 640.0197,332.6427 640.0197,333.8927 640.0197,333.8927 640.6447,335.1427 640.6447,335.1427 641.2697,335.7677 641.2697,335.7677 642.5197,336.3927 642.5197,336.3927 646.2697,337.6427 646.2697,337.6427 647.5197,338.2677 647.5197,338.2677 648.1447,338.8927 648.1447,338.8927 648.7697,340.1427 648.7697,340.1427 648.7697,342.0177 648.7697,342.0177 647.5197,343.2677 647.5197,343.2677 645.6447,343.8927 645.6447,343.8927 643.1447,343.8927 643.1447,343.8927 641.2697,343.2677 641.2697,343.2677 640.0197,342.0177"/>
    <line x1="716.2352" x2="716.2352" y1="330.7677" y2="343.8927"/>
    <line x1="724.9852" x2="724.9852" y1="330.7677" y2="343.8927"/>
    <line x1="716.2352" x2="724.9852" y1="337.0177" y2="337.0177"/>
  </g>
</svg>
