<?xml version="1.0" encoding="utf-8" ?>
<svg xmlns="http://www.w3.org/2000/svg" xmlns:cc="http://creativecommons.org/ns" xmlns:dc="http://purl.org/dc/elements/1.1/" xmlns:ev="http://www.w3.org/2001/xml-events" xmlns:inkscape="http://www.inkscape.org/namespaces/inkscape" xmlns:rdf="http://www.w3.org/1999/02/22-rdf-syntax-ns" xmlns:sodipodi="http://sodipodi.sourceforge.net/DTD/sodipodi-0.dtd" xmlns:xlink="http://www.w3.org/1999/xlink" baseProfile="tiny" height="9.9cm" version="1.2" viewBox="0 0 793.7007874015749 374.1732283464567" width="21.0cm">
  <metadata>
    <rdf:RDF>
      <cc:Work>
        <dc:format>image/svg+xml</dc:format>
        <dc:source>vpype eval 'cell=10;width=210;height=99' eval 'nCols=20;nRows=9' eval 'cells=[6,10,12,13,14,15,23,24,25,26,27,28,29,30,32,35,36,37,38,44,46,50,52,55,64,66,70,72,74,75,76,77,79,80,81,82,83,84,86,88,89,90,91,92,97,99,101,110,117,119,121,126,127,128,129,130,131,132,133,134,136,137,138,139,141,153,159,161,179]' eval 'chars=[&quot;F&quot;,&quot;V&quot;,&quot;G&quot;,&quot;R&quot;,&quot;A&quot;,&quot;S&quot;,&quot;S&quot;,&quot;K&quot;,&quot;E&quot;,&quot;L&quot;,&quot;L&quot;,&quot;E&quot;,&quot;K&quot;,&quot;E&quot;,&quot;R&quot;,&quot;T&quot;,&quot;U&quot;,&quot;U&quot;,&quot;R&quot;,&quot;O&quot;,&quot;O&quot;,&quot;L&quot;,&quot;O&quot;,&quot;E&quot;,&quot;U&quot;,&quot;O&quot;,&quot;L&quot;,&quot;E&quot;,&quot;D&quot;,&quot;R&quot;,&quot;O&quot;,&quot;P&quot;,&quot;M&quot;,&quot;T&quot;,&quot;H&quot;,&quot;I&quot;,&quot;J&quot;,&quot;S&quot;,&quot;R&quot;,&quot;T&quot;,&quot;R&quot;,&quot;E&quot;,&quot;I&quot;,&quot;N&quot;,&quot;I&quot;,&quot;A&quot;,&quot;A&quot;,&quot;K&quot;,&quot;P&quot;,&quot;R&quot;,&quot;N&quot;,&quot;K&quot;,&quot;L&quot;,&quot;A&quot;,&quot;V&quot;,&quot;E&quot;,&quot;R&quot;,&quot;T&quot;,&quot;J&quot;,&quot;E&quot;,&quot;L&quot;,&quot;I&quot;,&quot;F&quot;,&quot;T&quot;,&quot;N&quot;,&quot;A&quot;,&quot;H&quot;,&quot;E&quot;,&quot;E&quot;]' eval 'numbers=[6,10,12,15,23,24,35,74,77,79,80,81,88,126,133,136]' eval counter=1 eval charIndex=0 begin grid -o '%cell*mm%' '%cell*mm%' %nCols% %nRows% eval '%isCell=_i in cells%' eval '%number=_i in numbers%' eval '%size=10 if isCell else 0%' rect 0 0 '%size*mm%' '%size*mm%' text -s 10 -p 0.5mm 1.5mm '%counter if number else '&quot;'&quot;''&quot;'&quot;'%' text -s 20 -p 5mm 5mm -a center '%chars[charIndex] if isCell else '&quot;'&quot;''&quot;'&quot;'%' eval '%if number: counter+=1 %' eval '%if isCell: charIndex+=1 %' end splitall deduplicate linemerge --tolerance 0.1mm write -m none --page-size '%width*mm%x%height*mm%' --center ./svgs/solution/8d599f.svg
</dc:source>
        <dc:date>2023-12-29T10:02:44.531440</dc:date>
      </cc:Work>
    </rdf:RDF>
  </metadata>
  <defs/>
  <g fill="none" id="layer1" inkscape:groupmode="layer" inkscape:label="1" stroke="#000000" style="display:inline">
    <polygon points="245.6693,17.0079 245.6693,54.8031 245.6693,54.8031 283.4646,54.8031 283.4646,54.8031 283.4646,17.0079 283.4646,17.0079"/>
    <polyline points="249.4341,20.1772 250.0591,19.8647 250.0591,19.8647 250.9966,18.9272 250.9966,18.9272 250.9966,25.4897"/>
    <polyline points="271.1294,28.4055 263.0044,28.4055 263.0044,28.4055 263.0044,41.5305"/>
    <line x1="263.0044" x2="268.0044" y1="34.6555" y2="34.6555"/>
    <polygon points="396.8504,17.0079 396.8504,54.8031 396.8504,54.8031 359.0551,54.8031 359.0551,54.8031 321.2598,54.8031 321.2598,54.8031 283.4646,54.8031 283.4646,54.8031 283.4646,92.5984 283.4646,92.5984 321.2598,92.5984 321.2598,92.5984 359.0551,92.5984 359.0551,92.5984 396.8504,92.5984 396.8504,92.5984 434.6457,92.5984 434.6457,92.5984 434.6457,54.8031 434.6457,54.8031 434.6457,17.0079 434.6457,17.0079"/>
    <polyline points="434.6457,92.5984 434.6457,130.3937 434.6457,130.3937 434.6457,168.189 434.6457,168.189 396.8504,168.189 396.8504,168.189 396.8504,205.9843 396.8504,205.9843 359.0551,205.9843 359.0551,205.9843 321.2598,205.9843 321.2598,205.9843 321.2598,168.189 321.2598,168.189 359.0551,168.189 359.0551,168.189 396.8504,168.189 396.8504,168.189 396.8504,130.3937 396.8504,130.3937 396.8504,92.5984 396.8504,92.5984 396.8504,54.8031 396.8504,54.8031 434.6457,54.8031"/>
    <polyline points="399.9902,20.4897 399.9902,20.1772 399.9902,20.1772 400.3027,19.5522 400.3027,19.5522 400.6152,19.2397 400.6152,19.2397 401.2402,18.9272 401.2402,18.9272 402.4902,18.9272 402.4902,18.9272 403.1152,19.2397 403.1152,19.2397 403.4277,19.5522 403.4277,19.5522 403.7402,20.1772 403.7402,20.1772 403.7402,20.8022 403.7402,20.8022 403.4277,21.4272 403.4277,21.4272 402.8027,22.3647 402.8027,22.3647 399.6777,25.4897 399.6777,25.4897 404.0527,25.4897"/>
    <polyline points="411.373,28.4055 416.373,41.5305 416.373,41.5305 421.373,28.4055"/>
    <polygon points="472.4409,17.0079 472.4409,54.8031 472.4409,54.8031 472.4409,92.5984 472.4409,92.5984 510.2362,92.5984 510.2362,92.5984 510.2362,54.8031 510.2362,54.8031 548.0315,54.8031 548.0315,54.8031 548.0315,17.0079 548.0315,17.0079 510.2362,17.0079 510.2362,17.0079"/>
    <polyline points="472.4409,54.8031 510.2362,54.8031 510.2362,54.8031 510.2362,17.0079"/>
    <polyline points="475.8932,18.9272 479.3307,18.9272 479.3307,18.9272 477.4557,21.4272 477.4557,21.4272 478.3932,21.4272 478.3932,21.4272 479.0182,21.7397 479.0182,21.7397 479.3307,22.0522 479.3307,22.0522 479.6432,22.9897 479.6432,22.9897 479.6432,23.6147 479.6432,23.6147 479.3307,24.5522 479.3307,24.5522 478.7057,25.1772 478.7057,25.1772 477.7682,25.4897 477.7682,25.4897 476.8307,25.4897 476.8307,25.4897 475.8932,25.1772 475.8932,25.1772 475.5807,24.8647 475.5807,24.8647 475.2682,24.2397"/>
    <polyline points="497.9011,31.5305 497.2761,30.2805 497.2761,30.2805 496.0261,29.0305 496.0261,29.0305 494.7761,28.4055 494.7761,28.4055 492.2761,28.4055 492.2761,28.4055 491.0261,29.0305 491.0261,29.0305 489.7761,30.2805 489.7761,30.2805 489.1511,31.5305 489.1511,31.5305 488.5261,33.4055 488.5261,33.4055 488.5261,36.5305 488.5261,36.5305 489.1511,38.4055 489.1511,38.4055 489.7761,39.6555 489.7761,39.6555 491.0261,40.9055 491.0261,40.9055 492.2761,41.5305 492.2761,41.5305 494.7761,41.5305 494.7761,41.5305 496.0261,40.9055 496.0261,40.9055 497.2761,39.6555 497.2761,39.6555 497.9011,38.4055 497.9011,38.4055 497.9011,36.5305 497.9011,36.5305 494.7761,36.5305"/>
    <polyline points="527.2589,34.6555 532.8839,34.6555 532.8839,34.6555 534.7589,34.0305 534.7589,34.0305 535.3839,33.4055 535.3839,33.4055 536.0089,32.1555 536.0089,32.1555 536.0089,30.9055 536.0089,30.9055 535.3839,29.6555 535.3839,29.6555 534.7589,29.0305 534.7589,29.0305 532.8839,28.4055 532.8839,28.4055 527.2589,28.4055 527.2589,28.4055 527.2589,41.5305"/>
    <line x1="531.6339" x2="536.0089" y1="34.6555" y2="41.5305"/>
    <polyline points="548.0315,54.8031 585.8268,54.8031 585.8268,54.8031 585.8268,17.0079 585.8268,17.0079 548.0315,17.0079"/>
    <polyline points="572.5541,41.5305 567.5541,28.4055 567.5541,28.4055 562.5541,41.5305"/>
    <line x1="564.4291" x2="570.6791" y1="37.1555" y2="37.1555"/>
    <polyline points="585.8268,92.5984 623.622,92.5984 623.622,92.5984 623.622,54.8031 623.622,54.8031 661.4173,54.8031 661.4173,54.8031 699.2126,54.8031 699.2126,54.8031 699.2126,92.5984 699.2126,92.5984 661.4173,92.5984 661.4173,92.5984 623.622,92.5984 623.622,92.5984 623.622,130.3937 623.622,130.3937 585.8268,130.3937 585.8268,130.3937 585.8268,92.5984 585.8268,92.5984 585.8268,54.8031 585.8268,54.8031 623.622,54.8031 623.622,54.8031 623.622,17.0079 623.622,17.0079 585.8268,17.0079"/>
    <polyline points="591.779,25.4897 591.779,18.9272 591.779,18.9272 588.654,23.3022 588.654,23.3022 593.3415,23.3022"/>
    <polyline points="610.9744,30.2805 609.7244,29.0305 609.7244,29.0305 607.8494,28.4055 607.8494,28.4055 605.3494,28.4055 605.3494,28.4055 603.4744,29.0305 603.4744,29.0305 602.2244,30.2805 602.2244,30.2805 602.2244,31.5305 602.2244,31.5305 602.8494,32.7805 602.8494,32.7805 603.4744,33.4055 603.4744,33.4055 604.7244,34.0305 604.7244,34.0305 608.4744,35.2805 608.4744,35.2805 609.7244,35.9055 609.7244,35.9055 610.3494,36.5305 610.3494,36.5305 610.9744,37.7805 610.9744,37.7805 610.9744,39.6555 610.9744,39.6555 609.7244,40.9055 609.7244,40.9055 607.8494,41.5305 607.8494,41.5305 605.3494,41.5305 605.3494,41.5305 603.4744,40.9055 603.4744,40.9055 602.2244,39.6555"/>
    <polygon points="132.2835,54.8031 132.2835,92.5984 132.2835,92.5984 170.0787,92.5984 170.0787,92.5984 170.0787,130.3937 170.0787,130.3937 207.874,130.3937 207.874,130.3937 207.874,92.5984 207.874,92.5984 245.6693,92.5984 245.6693,92.5984 245.6693,54.8031 245.6693,54.8031 207.874,54.8031 207.874,54.8031 170.0787,54.8031 170.0787,54.8031"/>
    <polyline points="207.874,54.8031 207.874,92.5984 207.874,92.5984 170.0787,92.5984 170.0787,92.5984 170.0787,54.8031"/>
    <polyline points="138.8607,56.7224 135.7357,56.7224 135.7357,56.7224 135.4232,59.5349 135.4232,59.5349 135.7357,59.2224 135.7357,59.2224 136.6732,58.9099 136.6732,58.9099 137.6107,58.9099 137.6107,58.9099 138.5482,59.2224 138.5482,59.2224 139.1732,59.8474 139.1732,59.8474 139.4857,60.7849 139.4857,60.7849 139.4857,61.4099 139.4857,61.4099 139.1732,62.3474 139.1732,62.3474 138.5482,62.9724 138.5482,62.9724 137.6107,63.2849 137.6107,63.2849 136.6732,63.2849 136.6732,63.2849 135.7357,62.9724 135.7357,62.9724 135.4232,62.6599 135.4232,62.6599 135.1107,62.0349"/>
    <polyline points="157.4311,68.0758 156.1811,66.8258 156.1811,66.8258 154.3061,66.2008 154.3061,66.2008 151.8061,66.2008 151.8061,66.2008 149.9311,66.8258 149.9311,66.8258 148.6811,68.0758 148.6811,68.0758 148.6811,69.3258 148.6811,69.3258 149.3061,70.5758 149.3061,70.5758 149.9311,71.2008 149.9311,71.2008 151.1811,71.8258 151.1811,71.8258 154.9311,73.0758 154.9311,73.0758 156.1811,73.7008 156.1811,73.7008 156.8061,74.3258 156.8061,74.3258 157.4311,75.5758 157.4311,75.5758 157.4311,77.4508 157.4311,77.4508 156.1811,78.7008 156.1811,78.7008 154.3061,79.3258 154.3061,79.3258 151.8061,79.3258 151.8061,79.3258 149.9311,78.7008 149.9311,78.7008 148.6811,77.4508"/>
    <polyline points="176.9685,57.6599 176.656,57.0349 176.656,57.0349 175.7185,56.7224 175.7185,56.7224 175.0935,56.7224 175.0935,56.7224 174.156,57.0349 174.156,57.0349 173.531,57.9724 173.531,57.9724 173.2185,59.5349 173.2185,59.5349 173.2185,61.0974 173.2185,61.0974 173.531,62.3474 173.531,62.3474 174.156,62.9724 174.156,62.9724 175.0935,63.2849 175.0935,63.2849 175.406,63.2849 175.406,63.2849 176.3435,62.9724 176.3435,62.9724 176.9685,62.3474 176.9685,62.3474 177.281,61.4099 177.281,61.4099 177.281,61.0974 177.281,61.0974 176.9685,60.1599 176.9685,60.1599 176.3435,59.5349 176.3435,59.5349 175.406,59.2224 175.406,59.2224 175.0935,59.2224 175.0935,59.2224 174.156,59.5349 174.156,59.5349 173.531,60.1599 173.531,60.1599 173.2185,61.0974"/>
    <line x1="187.1014" x2="187.1014" y1="66.2008" y2="79.3258"/>
    <line x1="195.8514" x2="187.1014" y1="66.2008" y2="74.9508"/>
    <line x1="190.2264" x2="195.8514" y1="71.8258" y2="79.3258"/>
    <polyline points="233.3342,66.2008 225.2092,66.2008 225.2092,66.2008 225.2092,79.3258 225.2092,79.3258 233.3342,79.3258"/>
    <line x1="225.2092" x2="230.2092" y1="72.4508" y2="72.4508"/>
    <polyline points="283.4646,130.3937 245.6693,130.3937 245.6693,130.3937 245.6693,92.5984 245.6693,92.5984 283.4646,92.5984 283.4646,92.5984 283.4646,130.3937 283.4646,130.3937 283.4646,168.189 283.4646,168.189 245.6693,168.189 245.6693,168.189 245.6693,205.9843 245.6693,205.9843 283.4646,205.9843 283.4646,205.9843 283.4646,168.189"/>
    <polyline points="263.3169,66.2008 263.3169,79.3258 263.3169,79.3258 270.8169,79.3258"/>
    <line x1="321.2598" x2="321.2598" y1="92.5984" y2="54.8031"/>
    <polyline points="301.1122,66.2008 301.1122,79.3258 301.1122,79.3258 308.6122,79.3258"/>
    <line x1="359.0551" x2="359.0551" y1="92.5984" y2="54.8031"/>
    <polyline points="346.72,66.2008 338.595,66.2008 338.595,66.2008 338.595,79.3258 338.595,79.3258 346.72,79.3258"/>
    <line x1="338.595" x2="343.595" y1="72.4508" y2="72.4508"/>
    <line x1="376.0778" x2="376.0778" y1="66.2008" y2="79.3258"/>
    <line x1="384.8278" x2="376.0778" y1="66.2008" y2="74.9508"/>
    <line x1="379.2028" x2="384.8278" y1="71.8258" y2="79.3258"/>
    <polyline points="422.3105,66.2008 414.1855,66.2008 414.1855,66.2008 414.1855,79.3258 414.1855,79.3258 422.3105,79.3258"/>
    <line x1="414.1855" x2="419.1855" y1="72.4508" y2="72.4508"/>
    <polyline points="489.4636,72.4508 495.0886,72.4508 495.0886,72.4508 496.9636,71.8258 496.9636,71.8258 497.5886,71.2008 497.5886,71.2008 498.2136,69.9508 498.2136,69.9508 498.2136,68.7008 498.2136,68.7008 497.5886,67.4508 497.5886,67.4508 496.9636,66.8258 496.9636,66.8258 495.0886,66.2008 495.0886,66.2008 489.4636,66.2008 489.4636,66.2008 489.4636,79.3258"/>
    <line x1="493.8386" x2="498.2136" y1="72.4508" y2="79.3258"/>
    <polyline points="588.654,56.7224 593.029,56.7224 593.029,56.7224 589.904,63.2849"/>
    <line x1="605.3494" x2="605.3494" y1="66.2008" y2="79.3258"/>
    <line x1="600.9744" x2="609.7244" y1="66.2008" y2="66.2008"/>
    <line x1="661.4173" x2="661.4173" y1="92.5984" y2="54.8031"/>
    <polyline points="640.6447,66.2008 640.6447,75.5758 640.6447,75.5758 641.2697,77.4508 641.2697,77.4508 642.5197,78.7008 642.5197,78.7008 644.3947,79.3258 644.3947,79.3258 645.6447,79.3258 645.6447,79.3258 647.5197,78.7008 647.5197,78.7008 648.7697,77.4508 648.7697,77.4508 649.3947,75.5758 649.3947,75.5758 649.3947,66.2008"/>
    <polyline points="678.44,66.2008 678.44,75.5758 678.44,75.5758 679.065,77.4508 679.065,77.4508 680.315,78.7008 680.315,78.7008 682.19,79.3258 682.19,79.3258 683.44,79.3258 683.44,79.3258 685.315,78.7008 685.315,78.7008 686.565,77.4508 686.565,77.4508 687.19,75.5758 687.19,75.5758 687.19,66.2008"/>
    <polyline points="699.2126,92.5984 737.0079,92.5984 737.0079,92.5984 737.0079,54.8031 737.0079,54.8031 699.2126,54.8031"/>
    <polyline points="716.2352,72.4508 721.8602,72.4508 721.8602,72.4508 723.7352,71.8258 723.7352,71.8258 724.3602,71.2008 724.3602,71.2008 724.9852,69.9508 724.9852,69.9508 724.9852,68.7008 724.9852,68.7008 724.3602,67.4508 724.3602,67.4508 723.7352,66.8258 723.7352,66.8258 721.8602,66.2008 721.8602,66.2008 716.2352,66.2008 716.2352,66.2008 716.2352,79.3258"/>
    <line x1="720.6102" x2="724.9852" y1="72.4508" y2="79.3258"/>
    <polygon points="189.6014,103.9961 188.3514,104.6211 188.3514,104.6211 187.1014,105.8711 187.1014,105.8711 186.4764,107.1211 186.4764,107.1211 185.8514,108.9961 185.8514,108.9961 185.8514,112.1211 185.8514,112.1211 186.4764,113.9961 186.4764,113.9961 187.1014,115.2461 187.1014,115.2461 188.3514,116.4961 188.3514,116.4961 189.6014,117.1211 189.6014,117.1211 192.1014,117.1211 192.1014,117.1211 193.3514,116.4961 193.3514,116.4961 194.6014,115.2461 194.6014,115.2461 195.2264,113.9961 195.2264,113.9961 195.8514,112.1211 195.8514,112.1211 195.8514,108.9961 195.8514,108.9961 195.2264,107.1211 195.2264,107.1211 194.6014,105.8711 194.6014,105.8711 193.3514,104.6211 193.3514,104.6211 192.1014,103.9961 192.1014,103.9961"/>
    <polygon points="265.1919,103.9961 263.9419,104.6211 263.9419,104.6211 262.6919,105.8711 262.6919,105.8711 262.0669,107.1211 262.0669,107.1211 261.4419,108.9961 261.4419,108.9961 261.4419,112.1211 261.4419,112.1211 262.0669,113.9961 262.0669,113.9961 262.6919,115.2461 262.6919,115.2461 263.9419,116.4961 263.9419,116.4961 265.1919,117.1211 265.1919,117.1211 267.6919,117.1211 267.6919,117.1211 268.9419,116.4961 268.9419,116.4961 270.1919,115.2461 270.1919,115.2461 270.8169,113.9961 270.8169,113.9961 271.4419,112.1211 271.4419,112.1211 271.4419,108.9961 271.4419,108.9961 270.8169,107.1211 270.8169,107.1211 270.1919,105.8711 270.1919,105.8711 268.9419,104.6211 268.9419,104.6211 267.6919,103.9961 267.6919,103.9961"/>
    <line x1="396.8504" x2="434.6457" y1="130.3937" y2="130.3937"/>
    <polyline points="414.498,103.9961 414.498,117.1211 414.498,117.1211 421.998,117.1211"/>
    <polyline points="472.4409,92.5984 472.4409,130.3937 472.4409,130.3937 472.4409,168.189 472.4409,168.189 510.2362,168.189 510.2362,168.189 510.2362,130.3937 510.2362,130.3937 510.2362,92.5984"/>
    <line x1="472.4409" x2="510.2362" y1="130.3937" y2="130.3937"/>
    <polygon points="491.9636,103.9961 490.7136,104.6211 490.7136,104.6211 489.4636,105.8711 489.4636,105.8711 488.8386,107.1211 488.8386,107.1211 488.2136,108.9961 488.2136,108.9961 488.2136,112.1211 488.2136,112.1211 488.8386,113.9961 488.8386,113.9961 489.4636,115.2461 489.4636,115.2461 490.7136,116.4961 490.7136,116.4961 491.9636,117.1211 491.9636,117.1211 494.4636,117.1211 494.4636,117.1211 495.7136,116.4961 495.7136,116.4961 496.9636,115.2461 496.9636,115.2461 497.5886,113.9961 497.5886,113.9961 498.2136,112.1211 498.2136,112.1211 498.2136,108.9961 498.2136,108.9961 497.5886,107.1211 497.5886,107.1211 496.9636,105.8711 496.9636,105.8711 495.7136,104.6211 495.7136,104.6211 494.4636,103.9961 494.4636,103.9961"/>
    <polyline points="611.2869,103.9961 603.1619,103.9961 603.1619,103.9961 603.1619,117.1211 603.1619,117.1211 611.2869,117.1211"/>
    <line x1="603.1619" x2="608.1619" y1="110.2461" y2="110.2461"/>
    <polyline points="170.0787,130.3937 170.0787,168.189 170.0787,168.189 207.874,168.189 207.874,168.189 207.874,130.3937"/>
    <polyline points="187.1014,141.7913 187.1014,151.1663 187.1014,151.1663 187.7264,153.0413 187.7264,153.0413 188.9764,154.2913 188.9764,154.2913 190.8514,154.9163 190.8514,154.9163 192.1014,154.9163 192.1014,154.9163 193.9764,154.2913 193.9764,154.2913 195.2264,153.0413 195.2264,153.0413 195.8514,151.1663 195.8514,151.1663 195.8514,141.7913"/>
    <line x1="245.6693" x2="245.6693" y1="130.3937" y2="168.189"/>
    <polygon points="265.1919,141.7913 263.9419,142.4163 263.9419,142.4163 262.6919,143.6663 262.6919,143.6663 262.0669,144.9163 262.0669,144.9163 261.4419,146.7913 261.4419,146.7913 261.4419,149.9163 261.4419,149.9163 262.0669,151.7913 262.0669,151.7913 262.6919,153.0413 262.6919,153.0413 263.9419,154.2913 263.9419,154.2913 265.1919,154.9163 265.1919,154.9163 267.6919,154.9163 267.6919,154.9163 268.9419,154.2913 268.9419,154.2913 270.1919,153.0413 270.1919,153.0413 270.8169,151.7913 270.8169,151.7913 271.4419,149.9163 271.4419,149.9163 271.4419,146.7913 271.4419,146.7913 270.8169,144.9163 270.8169,144.9163 270.1919,143.6663 270.1919,143.6663 268.9419,142.4163 268.9419,142.4163 267.6919,141.7913 267.6919,141.7913"/>
    <polyline points="414.498,141.7913 414.498,154.9163 414.498,154.9163 421.998,154.9163"/>
    <polyline points="497.9011,141.7913 489.7761,141.7913 489.7761,141.7913 489.7761,154.9163 489.7761,154.9163 497.9011,154.9163"/>
    <line x1="489.7761" x2="494.7761" y1="148.0413" y2="148.0413"/>
    <polygon points="548.0315,130.3937 548.0315,168.189 548.0315,168.189 585.8268,168.189 585.8268,168.189 585.8268,130.3937 585.8268,130.3937"/>
    <polygon points="552.4213,132.313 551.4838,132.6255 551.4838,132.6255 551.1713,133.2505 551.1713,133.2505 551.1713,133.8755 551.1713,133.8755 551.4838,134.5005 551.4838,134.5005 552.1088,134.813 552.1088,134.813 553.3588,135.1255 553.3588,135.1255 554.2963,135.438 554.2963,135.438 554.9213,136.063 554.9213,136.063 555.2338,136.688 555.2338,136.688 555.2338,137.6255 555.2338,137.6255 554.9213,138.2505 554.9213,138.2505 554.6088,138.563 554.6088,138.563 553.6713,138.8755 553.6713,138.8755 552.4213,138.8755 552.4213,138.8755 551.4838,138.563 551.4838,138.563 551.1713,138.2505 551.1713,138.2505 550.8588,137.6255 550.8588,137.6255 550.8588,136.688 550.8588,136.688 551.1713,136.063 551.1713,136.063 551.7963,135.438 551.7963,135.438 552.7338,135.1255 552.7338,135.1255 553.9838,134.813 553.9838,134.813 554.6088,134.5005 554.6088,134.5005 554.9213,133.8755 554.9213,133.8755 554.9213,133.2505 554.9213,133.2505 554.6088,132.6255 554.6088,132.6255 553.6713,132.313 553.6713,132.313"/>
    <polygon points="565.0541,141.7913 565.0541,154.9163 565.0541,154.9163 569.4291,154.9163 569.4291,154.9163 571.3041,154.2913 571.3041,154.2913 572.5541,153.0413 572.5541,153.0413 573.1791,151.7913 573.1791,151.7913 573.8041,149.9163 573.8041,149.9163 573.8041,146.7913 573.8041,146.7913 573.1791,144.9163 573.1791,144.9163 572.5541,143.6663 572.5541,143.6663 571.3041,142.4163 571.3041,142.4163 569.4291,141.7913 569.4291,141.7913"/>
    <polyline points="585.8268,168.189 623.622,168.189 623.622,168.189 661.4173,168.189 661.4173,168.189 661.4173,130.3937 661.4173,130.3937 623.622,130.3937 623.622,130.3937 623.622,168.189"/>
    <polyline points="602.8494,148.0413 608.4744,148.0413 608.4744,148.0413 610.3494,147.4163 610.3494,147.4163 610.9744,146.7913 610.9744,146.7913 611.5994,145.5413 611.5994,145.5413 611.5994,144.2913 611.5994,144.2913 610.9744,143.0413 610.9744,143.0413 610.3494,142.4163 610.3494,142.4163 608.4744,141.7913 608.4744,141.7913 602.8494,141.7913 602.8494,141.7913 602.8494,154.9163"/>
    <line x1="607.2244" x2="611.5994" y1="148.0413" y2="154.9163"/>
    <polygon points="643.1447,141.7913 641.8947,142.4163 641.8947,142.4163 640.6447,143.6663 640.6447,143.6663 640.0197,144.9163 640.0197,144.9163 639.3947,146.7913 639.3947,146.7913 639.3947,149.9163 639.3947,149.9163 640.0197,151.7913 640.0197,151.7913 640.6447,153.0413 640.6447,153.0413 641.8947,154.2913 641.8947,154.2913 643.1447,154.9163 643.1447,154.9163 645.6447,154.9163 645.6447,154.9163 646.8947,154.2913 646.8947,154.2913 648.1447,153.0413 648.1447,153.0413 648.7697,151.7913 648.7697,151.7913 649.3947,149.9163 649.3947,149.9163 649.3947,146.7913 649.3947,146.7913 648.7697,144.9163 648.7697,144.9163 648.1447,143.6663 648.1447,143.6663 646.8947,142.4163 646.8947,142.4163 645.6447,141.7913 645.6447,141.7913"/>
    <polyline points="699.2126,168.189 699.2126,205.9843 699.2126,205.9843 699.2126,243.7795 699.2126,243.7795 661.4173,243.7795 661.4173,243.7795 661.4173,205.9843 661.4173,205.9843 661.4173,168.189 661.4173,168.189 699.2126,168.189 699.2126,168.189 699.2126,130.3937 699.2126,130.3937 661.4173,130.3937"/>
    <polyline points="668.3071,134.5005 667.9946,135.438 667.9946,135.438 667.3696,136.063 667.3696,136.063 666.4321,136.3755 666.4321,136.3755 666.1196,136.3755 666.1196,136.3755 665.1821,136.063 665.1821,136.063 664.5571,135.438 664.5571,135.438 664.2446,134.5005 664.2446,134.5005 664.2446,134.188 664.2446,134.188 664.5571,133.2505 664.5571,133.2505 665.1821,132.6255 665.1821,132.6255 666.1196,132.313 666.1196,132.313 666.4321,132.313 666.4321,132.313 667.3696,132.6255 667.3696,132.6255 667.9946,133.2505 667.9946,133.2505 668.3071,134.5005 668.3071,134.5005 668.3071,136.063 668.3071,136.063 667.9946,137.6255 667.9946,137.6255 667.3696,138.563 667.3696,138.563 666.4321,138.8755 666.4321,138.8755 665.8071,138.8755 665.8071,138.8755 664.8696,138.563 664.8696,138.563 664.5571,137.938"/>
    <polyline points="678.44,148.6663 684.065,148.6663 684.065,148.6663 685.94,148.0413 685.94,148.0413 686.565,147.4163 686.565,147.4163 687.19,146.1663 687.19,146.1663 687.19,144.2913 687.19,144.2913 686.565,143.0413 686.565,143.0413 685.94,142.4163 685.94,142.4163 684.065,141.7913 684.065,141.7913 678.44,141.7913 678.44,141.7913 678.44,154.9163"/>
    <polygon points="737.0079,130.3937 737.0079,168.189 737.0079,168.189 774.8031,168.189 774.8031,168.189 774.8031,130.3937 774.8031,130.3937"/>
    <polyline points="740.7726,133.563 741.3976,133.2505 741.3976,133.2505 742.3351,132.313 742.3351,132.313 742.3351,138.8755"/>
    <polygon points="747.9601,132.313 747.0226,132.6255 747.0226,132.6255 746.3976,133.563 746.3976,133.563 746.0851,135.1255 746.0851,135.1255 746.0851,136.063 746.0851,136.063 746.3976,137.6255 746.3976,137.6255 747.0226,138.563 747.0226,138.563 747.9601,138.8755 747.9601,138.8755 748.5851,138.8755 748.5851,138.8755 749.5226,138.563 749.5226,138.563 750.1476,137.6255 750.1476,137.6255 750.4601,136.063 750.4601,136.063 750.4601,135.1255 750.4601,135.1255 750.1476,133.563 750.1476,133.563 749.5226,132.6255 749.5226,132.6255 748.5851,132.313 748.5851,132.313"/>
    <polyline points="763.4055,154.9163 763.4055,141.7913 763.4055,141.7913 758.4055,154.9163 758.4055,154.9163 753.4055,141.7913 753.4055,141.7913 753.4055,154.9163"/>
    <polygon points="18.8976,168.189 18.8976,205.9843 18.8976,205.9843 56.6929,205.9843 56.6929,205.9843 56.6929,243.7795 56.6929,243.7795 94.4882,243.7795 94.4882,243.7795 94.4882,205.9843 94.4882,205.9843 132.2835,205.9843 132.2835,205.9843 132.2835,168.189 132.2835,168.189 94.4882,168.189 94.4882,168.189 56.6929,168.189 56.6929,168.189"/>
    <polyline points="94.4882,168.189 94.4882,205.9843 94.4882,205.9843 56.6929,205.9843 56.6929,205.9843 56.6929,168.189"/>
    <polyline points="22.6624,171.3583 23.2874,171.0458 23.2874,171.0458 24.2249,170.1083 24.2249,170.1083 24.2249,176.6708"/>
    <polyline points="28.9124,171.3583 29.5374,171.0458 29.5374,171.0458 30.4749,170.1083 30.4749,170.1083 30.4749,176.6708"/>
    <line x1="38.4203" x2="38.4203" y1="179.5866" y2="192.7116"/>
    <line x1="34.0453" x2="42.7953" y1="179.5866" y2="179.5866"/>
    <polyline points="60.4577,171.3583 61.0827,171.0458 61.0827,171.0458 62.0202,170.1083 62.0202,170.1083 62.0202,176.6708"/>
    <polyline points="66.0827,171.6708 66.0827,171.3583 66.0827,171.3583 66.3952,170.7333 66.3952,170.7333 66.7077,170.4208 66.7077,170.4208 67.3327,170.1083 67.3327,170.1083 68.5827,170.1083 68.5827,170.1083 69.2077,170.4208 69.2077,170.4208 69.5202,170.7333 69.5202,170.7333 69.8327,171.3583 69.8327,171.3583 69.8327,171.9833 69.8327,171.9833 69.5202,172.6083 69.5202,172.6083 68.8952,173.5458 68.8952,173.5458 65.7702,176.6708 65.7702,176.6708 70.1452,176.6708"/>
    <line x1="73.7156" x2="73.7156" y1="179.5866" y2="192.7116"/>
    <line x1="82.4656" x2="82.4656" y1="179.5866" y2="192.7116"/>
    <line x1="73.7156" x2="82.4656" y1="185.8366" y2="185.8366"/>
    <line x1="115.8858" x2="115.8858" y1="179.5866" y2="192.7116"/>
    <polyline points="132.2835,205.9843 170.0787,205.9843 170.0787,205.9843 170.0787,168.189 170.0787,168.189 132.2835,168.189"/>
    <polyline points="155.5561,179.5866 155.5561,189.5866 155.5561,189.5866 154.9311,191.4616 154.9311,191.4616 154.3061,192.0866 154.3061,192.0866 153.0561,192.7116 153.0561,192.7116 151.8061,192.7116 151.8061,192.7116 150.5561,192.0866 150.5561,192.0866 149.9311,191.4616 149.9311,191.4616 149.3061,189.5866 149.3061,189.5866 149.3061,188.3366"/>
    <polyline points="170.0787,205.9843 207.874,205.9843 207.874,205.9843 207.874,168.189"/>
    <polyline points="195.2264,181.4616 193.9764,180.2116 193.9764,180.2116 192.1014,179.5866 192.1014,179.5866 189.6014,179.5866 189.6014,179.5866 187.7264,180.2116 187.7264,180.2116 186.4764,181.4616 186.4764,181.4616 186.4764,182.7116 186.4764,182.7116 187.1014,183.9616 187.1014,183.9616 187.7264,184.5866 187.7264,184.5866 188.9764,185.2116 188.9764,185.2116 192.7264,186.4616 192.7264,186.4616 193.9764,187.0866 193.9764,187.0866 194.6014,187.7116 194.6014,187.7116 195.2264,188.9616 195.2264,188.9616 195.2264,190.8366 195.2264,190.8366 193.9764,192.0866 193.9764,192.0866 192.1014,192.7116 192.1014,192.7116 189.6014,192.7116 189.6014,192.7116 187.7264,192.0866 187.7264,192.0866 186.4764,190.8366"/>
    <polyline points="262.6919,185.8366 268.3169,185.8366 268.3169,185.8366 270.1919,185.2116 270.1919,185.2116 270.8169,184.5866 270.8169,184.5866 271.4419,183.3366 271.4419,183.3366 271.4419,182.0866 271.4419,182.0866 270.8169,180.8366 270.8169,180.8366 270.1919,180.2116 270.1919,180.2116 268.3169,179.5866 268.3169,179.5866 262.6919,179.5866 262.6919,179.5866 262.6919,192.7116"/>
    <line x1="267.0669" x2="271.4419" y1="185.8366" y2="192.7116"/>
    <line x1="359.0551" x2="359.0551" y1="205.9843" y2="168.189"/>
    <polyline points="325.0246,171.3583 325.6496,171.0458 325.6496,171.0458 326.5871,170.1083 326.5871,170.1083 326.5871,176.6708"/>
    <polyline points="330.9621,170.1083 334.3996,170.1083 334.3996,170.1083 332.5246,172.6083 332.5246,172.6083 333.4621,172.6083 333.4621,172.6083 334.0871,172.9208 334.0871,172.9208 334.3996,173.2333 334.3996,173.2333 334.7121,174.1708 334.7121,174.1708 334.7121,174.7958 334.7121,174.7958 334.3996,175.7333 334.3996,175.7333 333.7746,176.3583 333.7746,176.3583 332.8371,176.6708 332.8371,176.6708 331.8996,176.6708 331.8996,176.6708 330.9621,176.3583 330.9621,176.3583 330.6496,176.0458 330.6496,176.0458 330.3371,175.4208"/>
    <line x1="340.7825" x2="340.7825" y1="179.5866" y2="192.7116"/>
    <line x1="336.4075" x2="345.1575" y1="179.5866" y2="179.5866"/>
    <polyline points="376.0778,185.8366 381.7028,185.8366 381.7028,185.8366 383.5778,185.2116 383.5778,185.2116 384.2028,184.5866 384.2028,184.5866 384.8278,183.3366 384.8278,183.3366 384.8278,182.0866 384.8278,182.0866 384.2028,180.8366 384.2028,180.8366 383.5778,180.2116 383.5778,180.2116 381.7028,179.5866 381.7028,179.5866 376.0778,179.5866 376.0778,179.5866 376.0778,192.7116"/>
    <line x1="380.4528" x2="384.8278" y1="185.8366" y2="192.7116"/>
    <polyline points="472.4409,205.9843 434.6457,205.9843 434.6457,205.9843 434.6457,243.7795 434.6457,243.7795 396.8504,243.7795 396.8504,243.7795 396.8504,205.9843 396.8504,205.9843 434.6457,205.9843 434.6457,205.9843 434.6457,168.189 434.6457,168.189 472.4409,168.189 472.4409,168.189 472.4409,205.9843 472.4409,205.9843 510.2362,205.9843 510.2362,205.9843 510.2362,168.189"/>
    <polyline points="422.3105,179.5866 414.1855,179.5866 414.1855,179.5866 414.1855,192.7116 414.1855,192.7116 422.3105,192.7116"/>
    <line x1="414.1855" x2="419.1855" y1="185.8366" y2="185.8366"/>
    <line x1="456.0433" x2="456.0433" y1="179.5866" y2="192.7116"/>
    <polyline points="498.2136,179.5866 498.2136,192.7116 498.2136,192.7116 489.4636,179.5866 489.4636,179.5866 489.4636,192.7116"/>
    <line x1="661.4173" x2="699.2126" y1="205.9843" y2="205.9843"/>
    <line x1="682.815" x2="682.815" y1="179.5866" y2="192.7116"/>
    <polyline points="737.0079,168.189 737.0079,205.9843 737.0079,205.9843 737.0079,243.7795 737.0079,243.7795 774.8031,243.7795 774.8031,243.7795 774.8031,205.9843 774.8031,205.9843 774.8031,168.189"/>
    <line x1="737.0079" x2="774.8031" y1="205.9843" y2="205.9843"/>
    <polyline points="761.5305,192.7116 756.5305,179.5866 756.5305,179.5866 751.5305,192.7116"/>
    <line x1="753.4055" x2="759.6555" y1="188.3366" y2="188.3366"/>
    <polyline points="81.2156,230.5069 76.2156,217.3819 76.2156,217.3819 71.2156,230.5069"/>
    <line x1="73.0906" x2="79.3406" y1="226.1319" y2="226.1319"/>
    <line x1="413.873" x2="413.873" y1="217.3819" y2="230.5069"/>
    <line x1="422.623" x2="413.873" y1="217.3819" y2="226.1319"/>
    <line x1="416.998" x2="422.623" y1="223.0069" y2="230.5069"/>
    <polyline points="678.44,224.2569 684.065,224.2569 684.065,224.2569 685.94,223.6319 685.94,223.6319 686.565,223.0069 686.565,223.0069 687.19,221.7569 687.19,221.7569 687.19,219.8819 687.19,219.8819 686.565,218.6319 686.565,218.6319 685.94,218.0069 685.94,218.0069 684.065,217.3819 684.065,217.3819 678.44,217.3819 678.44,217.3819 678.44,230.5069"/>
    <polyline points="754.0305,223.6319 759.6555,223.6319 759.6555,223.6319 761.5305,223.0069 761.5305,223.0069 762.1555,222.3819 762.1555,222.3819 762.7805,221.1319 762.7805,221.1319 762.7805,219.8819 762.7805,219.8819 762.1555,218.6319 762.1555,218.6319 761.5305,218.0069 761.5305,218.0069 759.6555,217.3819 759.6555,217.3819 754.0305,217.3819 754.0305,217.3819 754.0305,230.5069"/>
    <line x1="758.4055" x2="762.7805" y1="223.6319" y2="230.5069"/>
    <polyline points="56.6929,243.7795 56.6929,281.5748 56.6929,281.5748 94.4882,281.5748 94.4882,281.5748 94.4882,243.7795"/>
    <polyline points="82.4656,255.1772 82.4656,268.3022 82.4656,268.3022 73.7156,255.1772 73.7156,255.1772 73.7156,268.3022"/>
    <polygon points="245.6693,243.7795 245.6693,281.5748 245.6693,281.5748 283.4646,281.5748 283.4646,281.5748 321.2598,281.5748 321.2598,281.5748 359.0551,281.5748 359.0551,281.5748 359.0551,243.7795 359.0551,243.7795 321.2598,243.7795 321.2598,243.7795 283.4646,243.7795 283.4646,243.7795"/>
    <line x1="283.4646" x2="283.4646" y1="281.5748" y2="243.7795"/>
    <polyline points="249.4341,246.9488 250.0591,246.6363 250.0591,246.6363 250.9966,245.6988 250.9966,245.6988 250.9966,252.2613"/>
    <polyline points="257.8716,252.2613 257.8716,245.6988 257.8716,245.6988 254.7466,250.0738 254.7466,250.0738 259.4341,250.0738"/>
    <line x1="262.6919" x2="262.6919" y1="255.1772" y2="268.3022"/>
    <line x1="271.4419" x2="262.6919" y1="255.1772" y2="263.9272"/>
    <line x1="265.8169" x2="271.4419" y1="260.8022" y2="268.3022"/>
    <line x1="321.2598" x2="321.2598" y1="281.5748" y2="243.7795"/>
    <polyline points="301.1122,255.1772 301.1122,268.3022 301.1122,268.3022 308.6122,268.3022"/>
    <polyline points="345.7825,268.3022 340.7825,255.1772 340.7825,255.1772 335.7825,268.3022"/>
    <line x1="337.6575" x2="343.9075" y1="263.9272" y2="263.9272"/>
    <polyline points="359.0551,281.5748 396.8504,281.5748 396.8504,281.5748 434.6457,281.5748 434.6457,281.5748 434.6457,243.7795 434.6457,243.7795 472.4409,243.7795 472.4409,243.7795 472.4409,281.5748 472.4409,281.5748 510.2362,281.5748 510.2362,281.5748 510.2362,243.7795 510.2362,243.7795 472.4409,243.7795"/>
    <polyline points="396.8504,281.5748 396.8504,243.7795 396.8504,243.7795 359.0551,243.7795"/>
    <polyline points="373.5778,255.1772 378.5778,268.3022 378.5778,268.3022 383.5778,255.1772"/>
    <polyline points="422.3105,255.1772 414.1855,255.1772 414.1855,255.1772 414.1855,268.3022 414.1855,268.3022 422.3105,268.3022"/>
    <line x1="414.1855" x2="419.1855" y1="261.4272" y2="261.4272"/>
    <line x1="434.6457" x2="472.4409" y1="281.5748" y2="281.5748"/>
    <polyline points="451.6683,261.4272 457.2933,261.4272 457.2933,261.4272 459.1683,260.8022 459.1683,260.8022 459.7933,260.1772 459.7933,260.1772 460.4183,258.9272 460.4183,258.9272 460.4183,257.6772 460.4183,257.6772 459.7933,256.4272 459.7933,256.4272 459.1683,255.8022 459.1683,255.8022 457.2933,255.1772 457.2933,255.1772 451.6683,255.1772 451.6683,255.1772 451.6683,268.3022"/>
    <line x1="456.0433" x2="460.4183" y1="261.4272" y2="268.3022"/>
    <line x1="491.9636" x2="491.9636" y1="255.1772" y2="268.3022"/>
    <line x1="487.5886" x2="496.3386" y1="255.1772" y2="255.1772"/>
    <polyline points="548.0315,243.7795 548.0315,281.5748 548.0315,281.5748 548.0315,319.3701 548.0315,319.3701 510.2362,319.3701 510.2362,319.3701 510.2362,281.5748 510.2362,281.5748 548.0315,281.5748 548.0315,281.5748 585.8268,281.5748 585.8268,281.5748 585.8268,243.7795 585.8268,243.7795 548.0315,243.7795 548.0315,243.7795 510.2362,243.7795"/>
    <polyline points="514.001,246.9488 514.626,246.6363 514.626,246.6363 515.5635,245.6988 515.5635,245.6988 515.5635,252.2613"/>
    <polyline points="523.0635,245.6988 519.9385,245.6988 519.9385,245.6988 519.626,248.5113 519.626,248.5113 519.9385,248.1988 519.9385,248.1988 520.876,247.8863 520.876,247.8863 521.8135,247.8863 521.8135,247.8863 522.751,248.1988 522.751,248.1988 523.376,248.8238 523.376,248.8238 523.6885,249.7613 523.6885,249.7613 523.6885,250.3863 523.6885,250.3863 523.376,251.3238 523.376,251.3238 522.751,251.9488 522.751,251.9488 521.8135,252.2613 521.8135,252.2613 520.876,252.2613 520.876,252.2613 519.9385,251.9488 519.9385,251.9488 519.626,251.6363 519.626,251.6363 519.3135,251.0113"/>
    <polyline points="533.5089,255.1772 533.5089,265.1772 533.5089,265.1772 532.8839,267.0522 532.8839,267.0522 532.2589,267.6772 532.2589,267.6772 531.0089,268.3022 531.0089,268.3022 529.7589,268.3022 529.7589,268.3022 528.5089,267.6772 528.5089,267.6772 527.8839,267.0522 527.8839,267.0522 527.2589,265.1772 527.2589,265.1772 527.2589,263.9272"/>
    <polyline points="573.4916,255.1772 565.3666,255.1772 565.3666,255.1772 565.3666,268.3022 565.3666,268.3022 573.4916,268.3022"/>
    <line x1="565.3666" x2="570.3666" y1="261.4272" y2="261.4272"/>
    <polygon points="623.622,243.7795 623.622,281.5748 623.622,281.5748 661.4173,281.5748 661.4173,281.5748 661.4173,243.7795 661.4173,243.7795"/>
    <polyline points="627.3868,246.9488 628.0118,246.6363 628.0118,246.6363 628.9493,245.6988 628.9493,245.6988 628.9493,252.2613"/>
    <polyline points="636.7618,246.6363 636.4493,246.0113 636.4493,246.0113 635.5118,245.6988 635.5118,245.6988 634.8868,245.6988 634.8868,245.6988 633.9493,246.0113 633.9493,246.0113 633.3243,246.9488 633.3243,246.9488 633.0118,248.5113 633.0118,248.5113 633.0118,250.0738 633.0118,250.0738 633.3243,251.3238 633.3243,251.3238 633.9493,251.9488 633.9493,251.9488 634.8868,252.2613 634.8868,252.2613 635.1993,252.2613 635.1993,252.2613 636.1368,251.9488 636.1368,251.9488 636.7618,251.3238 636.7618,251.3238 637.0743,250.3863 637.0743,250.3863 637.0743,250.0738 637.0743,250.0738 636.7618,249.1363 636.7618,249.1363 636.1368,248.5113 636.1368,248.5113 635.1993,248.1988 635.1993,248.1988 634.8868,248.1988 634.8868,248.1988 633.9493,248.5113 633.9493,248.5113 633.3243,249.1363 633.3243,249.1363 633.0118,250.0738"/>
    <polyline points="641.2697,255.1772 641.2697,268.3022 641.2697,268.3022 648.7697,268.3022"/>
    <polyline points="661.4173,281.5748 699.2126,281.5748 699.2126,281.5748 699.2126,243.7795 699.2126,243.7795 737.0079,243.7795 737.0079,243.7795 737.0079,281.5748 737.0079,281.5748 737.0079,319.3701 737.0079,319.3701 774.8031,319.3701 774.8031,319.3701 774.8031,281.5748 774.8031,281.5748 774.8031,243.7795"/>
    <line x1="682.815" x2="682.815" y1="255.1772" y2="268.3022"/>
    <polyline points="699.2126,281.5748 737.0079,281.5748 737.0079,281.5748 774.8031,281.5748"/>
    <polyline points="724.6727,255.1772 716.5477,255.1772 716.5477,255.1772 716.5477,268.3022"/>
    <line x1="716.5477" x2="721.5477" y1="261.4272" y2="261.4272"/>
    <line x1="756.5305" x2="756.5305" y1="255.1772" y2="268.3022"/>
    <line x1="752.1555" x2="760.9055" y1="255.1772" y2="255.1772"/>
    <polyline points="56.6929,281.5748 56.6929,319.3701 56.6929,319.3701 94.4882,319.3701 94.4882,319.3701 94.4882,281.5748"/>
    <polyline points="82.4656,292.9724 82.4656,306.0974 82.4656,306.0974 73.7156,292.9724 73.7156,292.9724 73.7156,306.0974"/>
    <polyline points="534.7589,306.0974 529.7589,292.9724 529.7589,292.9724 524.7589,306.0974"/>
    <line x1="526.6339" x2="532.8839" y1="301.7224" y2="301.7224"/>
    <line x1="754.0305" x2="754.0305" y1="292.9724" y2="306.0974"/>
    <line x1="762.7805" x2="762.7805" y1="292.9724" y2="306.0974"/>
    <line x1="754.0305" x2="762.7805" y1="299.2224" y2="299.2224"/>
    <polyline points="56.6929,319.3701 56.6929,357.1654 56.6929,357.1654 94.4882,357.1654 94.4882,357.1654 94.4882,319.3701"/>
    <polyline points="82.1531,330.7677 74.0281,330.7677 74.0281,330.7677 74.0281,343.8927 74.0281,343.8927 82.1531,343.8927"/>
    <line x1="74.0281" x2="79.0281" y1="337.0177" y2="337.0177"/>
    <polyline points="737.0079,319.3701 737.0079,357.1654 737.0079,357.1654 774.8031,357.1654 774.8031,357.1654 774.8031,319.3701"/>
    <polyline points="762.468,330.7677 754.343,330.7677 754.343,330.7677 754.343,343.8927 754.343,343.8927 762.468,343.8927"/>
    <line x1="754.343" x2="759.343" y1="337.0177" y2="337.0177"/>
  </g>
</svg>
