<?xml version="1.0" encoding="utf-8" ?>
<svg xmlns="http://www.w3.org/2000/svg" xmlns:cc="http://creativecommons.org/ns" xmlns:dc="http://purl.org/dc/elements/1.1/" xmlns:ev="http://www.w3.org/2001/xml-events" xmlns:inkscape="http://www.inkscape.org/namespaces/inkscape" xmlns:rdf="http://www.w3.org/1999/02/22-rdf-syntax-ns" xmlns:sodipodi="http://sodipodi.sourceforge.net/DTD/sodipodi-0.dtd" xmlns:xlink="http://www.w3.org/1999/xlink" baseProfile="tiny" height="9.9cm" version="1.2" viewBox="0 0 793.7007874015749 374.1732283464567" width="21.0cm">
  <metadata>
    <rdf:RDF>
      <cc:Work>
        <dc:format>image/svg+xml</dc:format>
        <dc:source>vpype eval 'cell=10;width=210;height=99' eval 'nCols=20;nRows=9' eval 'cells=[0,1,6,7,8,9,10,11,12,13,14,17,19,21,22,23,24,32,35,37,39,41,45,46,47,48,49,51,52,53,54,55,56,57,58,59,61,64,69,72,75,77,79,80,81,82,83,84,86,87,88,89,90,91,92,93,95,97,99,104,109,112,115,117,119,120,121,122,123,124,126,127,128,129,130,132,135,137,139,140,144,152,155,159,160,164,165,166,167,168,169,170,171,172,175,176,177,178]' eval 'chars=[&quot;J&quot;,&quot;A&quot;,&quot;U&quot;,&quot;I&quot;,&quot;T&quot;,&quot;L&quot;,&quot;I&quot;,&quot;K&quot;,&quot;K&quot;,&quot;E&quot;,&quot;N&quot;,&quot;V&quot;,&quot;K&quot;,&quot;G&quot;,&quot;R&quot;,&quot;A&quot;,&quot;S&quot;,&quot;L&quot;,&quot;H&quot;,&quot;R&quot;,&quot;I&quot;,&quot;A&quot;,&quot;G&quot;,&quot;R&quot;,&quot;A&quot;,&quot;A&quot;,&quot;T&quot;,&quot;M&quot;,&quot;A&quot;,&quot;N&quot;,&quot;D&quot;,&quot;A&quot;,&quot;R&quot;,&quot;I&quot;,&quot;J&quot;,&quot;N&quot;,&quot;T&quot;,&quot;L&quot;,&quot;R&quot;,&quot;V&quot;,&quot;N&quot;,&quot;J&quot;,&quot;D&quot;,&quot;K&quot;,&quot;A&quot;,&quot;S&quot;,&quot;S&quot;,&quot;A&quot;,&quot;F&quot;,&quot;R&quot;,&quot;I&quot;,&quot;E&quot;,&quot;T&quot;,&quot;J&quot;,&quot;E&quot;,&quot;S&quot;,&quot;D&quot;,&quot;D&quot;,&quot;E&quot;,&quot;D&quot;,&quot;I&quot;,&quot;R&quot;,&quot;D&quot;,&quot;A&quot;,&quot;R&quot;,&quot;B&quot;,&quot;R&quot;,&quot;O&quot;,&quot;O&quot;,&quot;D&quot;,&quot;F&quot;,&quot;I&quot;,&quot;O&quot;,&quot;N&quot;,&quot;N&quot;,&quot;T&quot;,&quot;O&quot;,&quot;G&quot;,&quot;E&quot;,&quot;O&quot;,&quot;E&quot;,&quot;J&quot;,&quot;E&quot;,&quot;N&quot;,&quot;B&quot;,&quot;R&quot;,&quot;E&quot;,&quot;K&quot;,&quot;K&quot;,&quot;E&quot;,&quot;R&quot;,&quot;T&quot;,&quot;J&quot;,&quot;E&quot;,&quot;K&quot;,&quot;O&quot;,&quot;U&quot;,&quot;S&quot;]' eval 'numbers=[0,1,6,12,17,19,21,35,45,49,51,64,80,86,120,126,164,175]' eval counter=1 eval charIndex=0 begin grid -o '%cell*mm%' '%cell*mm%' %nCols% %nRows% eval '%isCell=_i in cells%' eval '%number=_i in numbers%' eval '%size=10 if isCell else 0%' rect 0 0 '%size*mm%' '%size*mm%' text -s 10 -p 0.5mm 1.5mm '%counter if number else '&quot;'&quot;''&quot;'&quot;'%' text -s 20 -p 5mm 5mm -a center '%chars[charIndex] if isCell else '&quot;'&quot;''&quot;'&quot;'%' eval '%if number: counter+=1 %' eval '%if isCell: charIndex+=1 %' end splitall deduplicate linemerge --tolerance 0.1mm write -m none --page-size '%width*mm%x%height*mm%' --center ./svgs/solution/9c8e2a.svg
</dc:source>
        <dc:date>2023-12-23T12:32:52.725235</dc:date>
      </cc:Work>
    </rdf:RDF>
  </metadata>
  <defs/>
  <g fill="none" id="layer1" inkscape:groupmode="layer" inkscape:label="1" stroke="#000000" style="display:inline">
    <polygon points="18.8976,17.0079 18.8976,54.8031 18.8976,54.8031 56.6929,54.8031 56.6929,54.8031 56.6929,17.0079 56.6929,17.0079"/>
    <polyline points="22.6624,20.1772 23.2874,19.8647 23.2874,19.8647 24.2249,18.9272 24.2249,18.9272 24.2249,25.4897"/>
    <polyline points="42.1703,28.4055 42.1703,38.4055 42.1703,38.4055 41.5453,40.2805 41.5453,40.2805 40.9203,40.9055 40.9203,40.9055 39.6703,41.5305 39.6703,41.5305 38.4203,41.5305 38.4203,41.5305 37.1703,40.9055 37.1703,40.9055 36.5453,40.2805 36.5453,40.2805 35.9203,38.4055 35.9203,38.4055 35.9203,37.1555"/>
    <polyline points="132.2835,54.8031 170.0787,54.8031 170.0787,54.8031 170.0787,92.5984 170.0787,92.5984 132.2835,92.5984 132.2835,92.5984 132.2835,54.8031 132.2835,54.8031 94.4882,54.8031 94.4882,54.8031 94.4882,92.5984 94.4882,92.5984 56.6929,92.5984 56.6929,92.5984 56.6929,54.8031 56.6929,54.8031 94.4882,54.8031 94.4882,54.8031 94.4882,17.0079 94.4882,17.0079 56.6929,17.0079"/>
    <polyline points="59.8327,20.4897 59.8327,20.1772 59.8327,20.1772 60.1452,19.5522 60.1452,19.5522 60.4577,19.2397 60.4577,19.2397 61.0827,18.9272 61.0827,18.9272 62.3327,18.9272 62.3327,18.9272 62.9577,19.2397 62.9577,19.2397 63.2702,19.5522 63.2702,19.5522 63.5827,20.1772 63.5827,20.1772 63.5827,20.8022 63.5827,20.8022 63.2702,21.4272 63.2702,21.4272 62.6452,22.3647 62.6452,22.3647 59.5202,25.4897 59.5202,25.4897 63.8952,25.4897"/>
    <polyline points="81.2156,41.5305 76.2156,28.4055 76.2156,28.4055 71.2156,41.5305"/>
    <line x1="73.0906" x2="79.3406" y1="37.1555" y2="37.1555"/>
    <polygon points="245.6693,17.0079 245.6693,54.8031 245.6693,54.8031 283.4646,54.8031 283.4646,54.8031 283.4646,17.0079 283.4646,17.0079"/>
    <polyline points="249.1216,18.9272 252.5591,18.9272 252.5591,18.9272 250.6841,21.4272 250.6841,21.4272 251.6216,21.4272 251.6216,21.4272 252.2466,21.7397 252.2466,21.7397 252.5591,22.0522 252.5591,22.0522 252.8716,22.9897 252.8716,22.9897 252.8716,23.6147 252.8716,23.6147 252.5591,24.5522 252.5591,24.5522 251.9341,25.1772 251.9341,25.1772 250.9966,25.4897 250.9966,25.4897 250.0591,25.4897 250.0591,25.4897 249.1216,25.1772 249.1216,25.1772 248.8091,24.8647 248.8091,24.8647 248.4966,24.2397"/>
    <polyline points="262.6919,28.4055 262.6919,37.7805 262.6919,37.7805 263.3169,39.6555 263.3169,39.6555 264.5669,40.9055 264.5669,40.9055 266.4419,41.5305 266.4419,41.5305 267.6919,41.5305 267.6919,41.5305 269.5669,40.9055 269.5669,40.9055 270.8169,39.6555 270.8169,39.6555 271.4419,37.7805 271.4419,37.7805 271.4419,28.4055"/>
    <polyline points="283.4646,54.8031 321.2598,54.8031 321.2598,54.8031 359.0551,54.8031 359.0551,54.8031 359.0551,17.0079 359.0551,17.0079 321.2598,17.0079 321.2598,17.0079 283.4646,17.0079"/>
    <line x1="321.2598" x2="321.2598" y1="54.8031" y2="17.0079"/>
    <line x1="304.8622" x2="304.8622" y1="28.4055" y2="41.5305"/>
    <line x1="340.7825" x2="340.7825" y1="28.4055" y2="41.5305"/>
    <line x1="336.4075" x2="345.1575" y1="28.4055" y2="28.4055"/>
    <polyline points="359.0551,54.8031 396.8504,54.8031 396.8504,54.8031 434.6457,54.8031 434.6457,54.8031 434.6457,17.0079 434.6457,17.0079 396.8504,17.0079 396.8504,17.0079 359.0551,17.0079"/>
    <line x1="396.8504" x2="396.8504" y1="54.8031" y2="17.0079"/>
    <polyline points="376.7028,28.4055 376.7028,41.5305 376.7028,41.5305 384.2028,41.5305"/>
    <line x1="418.248" x2="418.248" y1="28.4055" y2="41.5305"/>
    <polyline points="434.6457,54.8031 472.4409,54.8031 472.4409,54.8031 472.4409,92.5984 472.4409,92.5984 510.2362,92.5984 510.2362,92.5984 510.2362,54.8031 510.2362,54.8031 548.0315,54.8031 548.0315,54.8031 548.0315,17.0079 548.0315,17.0079 510.2362,17.0079 510.2362,17.0079 472.4409,17.0079 472.4409,17.0079 434.6457,17.0079"/>
    <polyline points="510.2362,17.0079 510.2362,54.8031 510.2362,54.8031 472.4409,54.8031 472.4409,54.8031 472.4409,17.0079"/>
    <line x1="451.6683" x2="451.6683" y1="28.4055" y2="41.5305"/>
    <line x1="460.4183" x2="451.6683" y1="28.4055" y2="37.1555"/>
    <line x1="454.7933" x2="460.4183" y1="34.0305" y2="41.5305"/>
    <polyline points="478.3932,25.4897 478.3932,18.9272 478.3932,18.9272 475.2682,23.3022 475.2682,23.3022 479.9557,23.3022"/>
    <line x1="489.4636" x2="489.4636" y1="28.4055" y2="41.5305"/>
    <line x1="498.2136" x2="489.4636" y1="28.4055" y2="37.1555"/>
    <line x1="492.5886" x2="498.2136" y1="34.0305" y2="41.5305"/>
    <polyline points="535.6964,28.4055 527.5714,28.4055 527.5714,28.4055 527.5714,41.5305 527.5714,41.5305 535.6964,41.5305"/>
    <line x1="527.5714" x2="532.5714" y1="34.6555" y2="34.6555"/>
    <polyline points="548.0315,54.8031 585.8268,54.8031 585.8268,54.8031 585.8268,17.0079 585.8268,17.0079 548.0315,17.0079"/>
    <polyline points="573.8041,28.4055 573.8041,41.5305 573.8041,41.5305 565.0541,28.4055 565.0541,28.4055 565.0541,41.5305"/>
    <polygon points="661.4173,17.0079 661.4173,54.8031 661.4173,54.8031 699.2126,54.8031 699.2126,54.8031 699.2126,17.0079 699.2126,17.0079"/>
    <polyline points="667.9946,18.9272 664.8696,18.9272 664.8696,18.9272 664.5571,21.7397 664.5571,21.7397 664.8696,21.4272 664.8696,21.4272 665.8071,21.1147 665.8071,21.1147 666.7446,21.1147 666.7446,21.1147 667.6821,21.4272 667.6821,21.4272 668.3071,22.0522 668.3071,22.0522 668.6196,22.9897 668.6196,22.9897 668.6196,23.6147 668.6196,23.6147 668.3071,24.5522 668.3071,24.5522 667.6821,25.1772 667.6821,25.1772 666.7446,25.4897 666.7446,25.4897 665.8071,25.4897 665.8071,25.4897 664.8696,25.1772 664.8696,25.1772 664.5571,24.8647 664.5571,24.8647 664.2446,24.2397"/>
    <polyline points="675.94,28.4055 680.94,41.5305 680.94,41.5305 685.94,28.4055"/>
    <polygon points="737.0079,17.0079 737.0079,54.8031 737.0079,54.8031 774.8031,54.8031 774.8031,54.8031 774.8031,17.0079 774.8031,17.0079"/>
    <polyline points="743.8976,19.8647 743.5851,19.2397 743.5851,19.2397 742.6476,18.9272 742.6476,18.9272 742.0226,18.9272 742.0226,18.9272 741.0851,19.2397 741.0851,19.2397 740.4601,20.1772 740.4601,20.1772 740.1476,21.7397 740.1476,21.7397 740.1476,23.3022 740.1476,23.3022 740.4601,24.5522 740.4601,24.5522 741.0851,25.1772 741.0851,25.1772 742.0226,25.4897 742.0226,25.4897 742.3351,25.4897 742.3351,25.4897 743.2726,25.1772 743.2726,25.1772 743.8976,24.5522 743.8976,24.5522 744.2101,23.6147 744.2101,23.6147 744.2101,23.3022 744.2101,23.3022 743.8976,22.3647 743.8976,22.3647 743.2726,21.7397 743.2726,21.7397 742.3351,21.4272 742.3351,21.4272 742.0226,21.4272 742.0226,21.4272 741.0851,21.7397 741.0851,21.7397 740.4601,22.3647 740.4601,22.3647 740.1476,23.3022"/>
    <line x1="754.0305" x2="754.0305" y1="28.4055" y2="41.5305"/>
    <line x1="762.7805" x2="754.0305" y1="28.4055" y2="37.1555"/>
    <line x1="757.1555" x2="762.7805" y1="34.0305" y2="41.5305"/>
    <polyline points="59.5202,56.7224 63.8952,56.7224 63.8952,56.7224 60.7702,63.2849"/>
    <polyline points="82.1531,69.3258 81.5281,68.0758 81.5281,68.0758 80.2781,66.8258 80.2781,66.8258 79.0281,66.2008 79.0281,66.2008 76.5281,66.2008 76.5281,66.2008 75.2781,66.8258 75.2781,66.8258 74.0281,68.0758 74.0281,68.0758 73.4031,69.3258 73.4031,69.3258 72.7781,71.2008 72.7781,71.2008 72.7781,74.3258 72.7781,74.3258 73.4031,76.2008 73.4031,76.2008 74.0281,77.4508 74.0281,77.4508 75.2781,78.7008 75.2781,78.7008 76.5281,79.3258 76.5281,79.3258 79.0281,79.3258 79.0281,79.3258 80.2781,78.7008 80.2781,78.7008 81.5281,77.4508 81.5281,77.4508 82.1531,76.2008 82.1531,76.2008 82.1531,74.3258 82.1531,74.3258 79.0281,74.3258"/>
    <polyline points="207.874,168.189 170.0787,168.189 170.0787,168.189 170.0787,130.3937 170.0787,130.3937 207.874,130.3937 207.874,130.3937 207.874,168.189 207.874,168.189 207.874,205.9843 207.874,205.9843 170.0787,205.9843 170.0787,205.9843 132.2835,205.9843 132.2835,205.9843 132.2835,168.189 132.2835,168.189 94.4882,168.189 94.4882,168.189 94.4882,130.3937 94.4882,130.3937 94.4882,92.5984 94.4882,92.5984 132.2835,92.5984"/>
    <polyline points="111.5108,72.4508 117.1358,72.4508 117.1358,72.4508 119.0108,71.8258 119.0108,71.8258 119.6358,71.2008 119.6358,71.2008 120.2608,69.9508 120.2608,69.9508 120.2608,68.7008 120.2608,68.7008 119.6358,67.4508 119.6358,67.4508 119.0108,66.8258 119.0108,66.8258 117.1358,66.2008 117.1358,66.2008 111.5108,66.2008 111.5108,66.2008 111.5108,79.3258"/>
    <line x1="115.8858" x2="120.2608" y1="72.4508" y2="79.3258"/>
    <polyline points="156.8061,79.3258 151.8061,66.2008 151.8061,66.2008 146.8061,79.3258"/>
    <line x1="148.6811" x2="154.9311" y1="74.9508" y2="74.9508"/>
    <polyline points="170.0787,92.5984 207.874,92.5984 207.874,92.5984 207.874,130.3937 207.874,130.3937 245.6693,130.3937 245.6693,130.3937 245.6693,92.5984 245.6693,92.5984 207.874,92.5984 207.874,92.5984 207.874,54.8031 207.874,54.8031 170.0787,54.8031"/>
    <polyline points="195.2264,68.0758 193.9764,66.8258 193.9764,66.8258 192.1014,66.2008 192.1014,66.2008 189.6014,66.2008 189.6014,66.2008 187.7264,66.8258 187.7264,66.8258 186.4764,68.0758 186.4764,68.0758 186.4764,69.3258 186.4764,69.3258 187.1014,70.5758 187.1014,70.5758 187.7264,71.2008 187.7264,71.2008 188.9764,71.8258 188.9764,71.8258 192.7264,73.0758 192.7264,73.0758 193.9764,73.7008 193.9764,73.7008 194.6014,74.3258 194.6014,74.3258 195.2264,75.5758 195.2264,75.5758 195.2264,77.4508 195.2264,77.4508 193.9764,78.7008 193.9764,78.7008 192.1014,79.3258 192.1014,79.3258 189.6014,79.3258 189.6014,79.3258 187.7264,78.7008 187.7264,78.7008 186.4764,77.4508"/>
    <polyline points="490.0886,66.2008 490.0886,79.3258 490.0886,79.3258 497.5886,79.3258"/>
    <polygon points="585.8268,54.8031 585.8268,92.5984 585.8268,92.5984 623.622,92.5984 623.622,92.5984 623.622,54.8031 623.622,54.8031"/>
    <polygon points="590.2165,56.7224 589.279,57.0349 589.279,57.0349 588.9665,57.6599 588.9665,57.6599 588.9665,58.2849 588.9665,58.2849 589.279,58.9099 589.279,58.9099 589.904,59.2224 589.904,59.2224 591.154,59.5349 591.154,59.5349 592.0915,59.8474 592.0915,59.8474 592.7165,60.4724 592.7165,60.4724 593.029,61.0974 593.029,61.0974 593.029,62.0349 593.029,62.0349 592.7165,62.6599 592.7165,62.6599 592.404,62.9724 592.404,62.9724 591.4665,63.2849 591.4665,63.2849 590.2165,63.2849 590.2165,63.2849 589.279,62.9724 589.279,62.9724 588.9665,62.6599 588.9665,62.6599 588.654,62.0349 588.654,62.0349 588.654,61.0974 588.654,61.0974 588.9665,60.4724 588.9665,60.4724 589.5915,59.8474 589.5915,59.8474 590.529,59.5349 590.529,59.5349 591.779,59.2224 591.779,59.2224 592.404,58.9099 592.404,58.9099 592.7165,58.2849 592.7165,58.2849 592.7165,57.6599 592.7165,57.6599 592.404,57.0349 592.404,57.0349 591.4665,56.7224 591.4665,56.7224"/>
    <line x1="602.8494" x2="602.8494" y1="66.2008" y2="79.3258"/>
    <line x1="611.5994" x2="611.5994" y1="66.2008" y2="79.3258"/>
    <line x1="602.8494" x2="611.5994" y1="72.4508" y2="72.4508"/>
    <polyline points="661.4173,54.8031 661.4173,92.5984 661.4173,92.5984 623.622,92.5984 623.622,92.5984 623.622,130.3937 623.622,130.3937 661.4173,130.3937 661.4173,130.3937 661.4173,168.189 661.4173,168.189 699.2126,168.189 699.2126,168.189 699.2126,130.3937 699.2126,130.3937 699.2126,92.5984 699.2126,92.5984 699.2126,54.8031"/>
    <polyline points="774.8031,92.5984 774.8031,130.3937 774.8031,130.3937 774.8031,168.189 774.8031,168.189 774.8031,205.9843 774.8031,205.9843 737.0079,205.9843 737.0079,205.9843 737.0079,168.189 737.0079,168.189 737.0079,130.3937 737.0079,130.3937 699.2126,130.3937 699.2126,130.3937 661.4173,130.3937 661.4173,130.3937 661.4173,92.5984 661.4173,92.5984 699.2126,92.5984 699.2126,92.5984 737.0079,92.5984 737.0079,92.5984 774.8031,92.5984 774.8031,92.5984 774.8031,54.8031"/>
    <polyline points="678.44,72.4508 684.065,72.4508 684.065,72.4508 685.94,71.8258 685.94,71.8258 686.565,71.2008 686.565,71.2008 687.19,69.9508 687.19,69.9508 687.19,68.7008 687.19,68.7008 686.565,67.4508 686.565,67.4508 685.94,66.8258 685.94,66.8258 684.065,66.2008 684.065,66.2008 678.44,66.2008 678.44,66.2008 678.44,79.3258"/>
    <line x1="682.815" x2="687.19" y1="72.4508" y2="79.3258"/>
    <polyline points="737.0079,54.8031 737.0079,92.5984 737.0079,92.5984 737.0079,130.3937 737.0079,130.3937 774.8031,130.3937"/>
    <line x1="758.4055" x2="758.4055" y1="66.2008" y2="79.3258"/>
    <polyline points="56.6929,92.5984 56.6929,130.3937 56.6929,130.3937 56.6929,168.189 56.6929,168.189 94.4882,168.189 94.4882,168.189 94.4882,205.9843 94.4882,205.9843 132.2835,205.9843"/>
    <line x1="56.6929" x2="94.4882" y1="130.3937" y2="130.3937"/>
    <polyline points="81.2156,117.1211 76.2156,103.9961 76.2156,103.9961 71.2156,117.1211"/>
    <line x1="73.0906" x2="79.3406" y1="112.7461" y2="112.7461"/>
    <polyline points="214.7638,96.7052 214.4513,97.6427 214.4513,97.6427 213.8263,98.2677 213.8263,98.2677 212.8888,98.5802 212.8888,98.5802 212.5763,98.5802 212.5763,98.5802 211.6388,98.2677 211.6388,98.2677 211.0138,97.6427 211.0138,97.6427 210.7013,96.7052 210.7013,96.7052 210.7013,96.3927 210.7013,96.3927 211.0138,95.4552 211.0138,95.4552 211.6388,94.8302 211.6388,94.8302 212.5763,94.5177 212.5763,94.5177 212.8888,94.5177 212.8888,94.5177 213.8263,94.8302 213.8263,94.8302 214.4513,95.4552 214.4513,95.4552 214.7638,96.7052 214.7638,96.7052 214.7638,98.2677 214.7638,98.2677 214.4513,99.8302 214.4513,99.8302 213.8263,100.7677 213.8263,100.7677 212.8888,101.0802 212.8888,101.0802 212.2638,101.0802 212.2638,101.0802 211.3263,100.7677 211.3263,100.7677 211.0138,100.1427"/>
    <polyline points="233.3342,107.1211 232.7092,105.8711 232.7092,105.8711 231.4592,104.6211 231.4592,104.6211 230.2092,103.9961 230.2092,103.9961 227.7092,103.9961 227.7092,103.9961 226.4592,104.6211 226.4592,104.6211 225.2092,105.8711 225.2092,105.8711 224.5842,107.1211 224.5842,107.1211 223.9592,108.9961 223.9592,108.9961 223.9592,112.1211 223.9592,112.1211 224.5842,113.9961 224.5842,113.9961 225.2092,115.2461 225.2092,115.2461 226.4592,116.4961 226.4592,116.4961 227.7092,117.1211 227.7092,117.1211 230.2092,117.1211 230.2092,117.1211 231.4592,116.4961 231.4592,116.4961 232.7092,115.2461 232.7092,115.2461 233.3342,113.9961 233.3342,113.9961 233.3342,112.1211 233.3342,112.1211 230.2092,112.1211"/>
    <polyline points="245.6693,130.3937 283.4646,130.3937 283.4646,130.3937 283.4646,92.5984 283.4646,92.5984 245.6693,92.5984"/>
    <polyline points="262.6919,110.2461 268.3169,110.2461 268.3169,110.2461 270.1919,109.6211 270.1919,109.6211 270.8169,108.9961 270.8169,108.9961 271.4419,107.7461 271.4419,107.7461 271.4419,106.4961 271.4419,106.4961 270.8169,105.2461 270.8169,105.2461 270.1919,104.6211 270.1919,104.6211 268.3169,103.9961 268.3169,103.9961 262.6919,103.9961 262.6919,103.9961 262.6919,117.1211"/>
    <line x1="267.0669" x2="271.4419" y1="110.2461" y2="117.1211"/>
    <polyline points="283.4646,130.3937 321.2598,130.3937 321.2598,130.3937 321.2598,92.5984 321.2598,92.5984 283.4646,92.5984"/>
    <polyline points="307.9872,117.1211 302.9872,103.9961 302.9872,103.9961 297.9872,117.1211"/>
    <line x1="299.8622" x2="306.1122" y1="112.7461" y2="112.7461"/>
    <polyline points="321.2598,130.3937 359.0551,130.3937 359.0551,130.3937 359.0551,92.5984 359.0551,92.5984 321.2598,92.5984"/>
    <polyline points="345.7825,117.1211 340.7825,103.9961 340.7825,103.9961 335.7825,117.1211"/>
    <line x1="337.6575" x2="343.9075" y1="112.7461" y2="112.7461"/>
    <polyline points="396.8504,130.3937 396.8504,168.189 396.8504,168.189 396.8504,205.9843 396.8504,205.9843 396.8504,243.7795 396.8504,243.7795 359.0551,243.7795 359.0551,243.7795 359.0551,205.9843 359.0551,205.9843 321.2598,205.9843 321.2598,205.9843 283.4646,205.9843 283.4646,205.9843 245.6693,205.9843 245.6693,205.9843 245.6693,168.189 245.6693,168.189 283.4646,168.189 283.4646,168.189 321.2598,168.189 321.2598,168.189 359.0551,168.189 359.0551,168.189 359.0551,130.3937 359.0551,130.3937 396.8504,130.3937 396.8504,130.3937 396.8504,92.5984 396.8504,92.5984 359.0551,92.5984"/>
    <polyline points="362.8199,95.7677 363.4449,95.4552 363.4449,95.4552 364.3824,94.5177 364.3824,94.5177 364.3824,101.0802"/>
    <polygon points="370.0074,94.5177 369.0699,94.8302 369.0699,94.8302 368.4449,95.7677 368.4449,95.7677 368.1324,97.3302 368.1324,97.3302 368.1324,98.2677 368.1324,98.2677 368.4449,99.8302 368.4449,99.8302 369.0699,100.7677 369.0699,100.7677 370.0074,101.0802 370.0074,101.0802 370.6324,101.0802 370.6324,101.0802 371.5699,100.7677 371.5699,100.7677 372.1949,99.8302 372.1949,99.8302 372.5074,98.2677 372.5074,98.2677 372.5074,97.3302 372.5074,97.3302 372.1949,95.7677 372.1949,95.7677 371.5699,94.8302 371.5699,94.8302 370.6324,94.5177 370.6324,94.5177"/>
    <line x1="378.5778" x2="378.5778" y1="103.9961" y2="117.1211"/>
    <line x1="374.2028" x2="382.9528" y1="103.9961" y2="103.9961"/>
    <polygon points="434.6457,92.5984 434.6457,130.3937 434.6457,130.3937 472.4409,130.3937 472.4409,130.3937 472.4409,92.5984 472.4409,92.5984"/>
    <polyline points="438.4104,95.7677 439.0354,95.4552 439.0354,95.4552 439.9729,94.5177 439.9729,94.5177 439.9729,101.0802"/>
    <polyline points="444.6604,95.7677 445.2854,95.4552 445.2854,95.4552 446.2229,94.5177 446.2229,94.5177 446.2229,101.0802"/>
    <polyline points="461.0433,117.1211 461.0433,103.9961 461.0433,103.9961 456.0433,117.1211 456.0433,117.1211 451.0433,103.9961 451.0433,103.9961 451.0433,117.1211"/>
    <polyline points="548.0315,130.3937 510.2362,130.3937 510.2362,130.3937 510.2362,168.189 510.2362,168.189 472.4409,168.189 472.4409,168.189 472.4409,130.3937 472.4409,130.3937 510.2362,130.3937 510.2362,130.3937 510.2362,92.5984 510.2362,92.5984 548.0315,92.5984 548.0315,92.5984 548.0315,130.3937 548.0315,130.3937 585.8268,130.3937 585.8268,130.3937 585.8268,92.5984 585.8268,92.5984 548.0315,92.5984"/>
    <polyline points="496.9636,117.1211 491.9636,103.9961 491.9636,103.9961 486.9636,117.1211"/>
    <line x1="488.8386" x2="495.0886" y1="112.7461" y2="112.7461"/>
    <polyline points="536.0089,103.9961 536.0089,117.1211 536.0089,117.1211 527.2589,103.9961 527.2589,103.9961 527.2589,117.1211"/>
    <polygon points="565.0541,103.9961 565.0541,117.1211 565.0541,117.1211 569.4291,117.1211 569.4291,117.1211 571.3041,116.4961 571.3041,116.4961 572.5541,115.2461 572.5541,115.2461 573.1791,113.9961 573.1791,113.9961 573.8041,112.1211 573.8041,112.1211 573.8041,108.9961 573.8041,108.9961 573.1791,107.1211 573.1791,107.1211 572.5541,105.8711 572.5541,105.8711 571.3041,104.6211 571.3041,104.6211 569.4291,103.9961 569.4291,103.9961"/>
    <polyline points="585.8268,205.9843 585.8268,168.189 585.8268,168.189 585.8268,130.3937 585.8268,130.3937 623.622,130.3937 623.622,130.3937 623.622,168.189 623.622,168.189 623.622,205.9843 623.622,205.9843 585.8268,205.9843 585.8268,205.9843 585.8268,243.7795 585.8268,243.7795 623.622,243.7795 623.622,243.7795 623.622,205.9843"/>
    <polyline points="610.3494,117.1211 605.3494,103.9961 605.3494,103.9961 600.3494,117.1211"/>
    <line x1="602.2244" x2="608.4744" y1="112.7461" y2="112.7461"/>
    <polyline points="640.6447,110.2461 646.2697,110.2461 646.2697,110.2461 648.1447,109.6211 648.1447,109.6211 648.7697,108.9961 648.7697,108.9961 649.3947,107.7461 649.3947,107.7461 649.3947,106.4961 649.3947,106.4961 648.7697,105.2461 648.7697,105.2461 648.1447,104.6211 648.1447,104.6211 646.2697,103.9961 646.2697,103.9961 640.6447,103.9961 640.6447,103.9961 640.6447,117.1211"/>
    <line x1="645.0197" x2="649.3947" y1="110.2461" y2="117.1211"/>
    <line x1="682.815" x2="682.815" y1="103.9961" y2="117.1211"/>
    <polyline points="722.4852,103.9961 722.4852,113.9961 722.4852,113.9961 721.8602,115.8711 721.8602,115.8711 721.2352,116.4961 721.2352,116.4961 719.9852,117.1211 719.9852,117.1211 718.7352,117.1211 718.7352,117.1211 717.4852,116.4961 717.4852,116.4961 716.8602,115.8711 716.8602,115.8711 716.2352,113.9961 716.2352,113.9961 716.2352,112.7461"/>
    <polyline points="762.7805,103.9961 762.7805,117.1211 762.7805,117.1211 754.0305,103.9961 754.0305,103.9961 754.0305,117.1211"/>
    <line x1="76.2156" x2="76.2156" y1="141.7913" y2="154.9163"/>
    <line x1="71.8406" x2="80.5906" y1="141.7913" y2="141.7913"/>
    <polyline points="173.8435,133.563 174.4685,133.2505 174.4685,133.2505 175.406,132.313 175.406,132.313 175.406,138.8755"/>
    <polyline points="179.4685,133.8755 179.4685,133.563 179.4685,133.563 179.781,132.938 179.781,132.938 180.0935,132.6255 180.0935,132.6255 180.7185,132.313 180.7185,132.313 181.9685,132.313 181.9685,132.313 182.5935,132.6255 182.5935,132.6255 182.906,132.938 182.906,132.938 183.2185,133.563 183.2185,133.563 183.2185,134.188 183.2185,134.188 182.906,134.813 182.906,134.813 182.281,135.7505 182.281,135.7505 179.156,138.8755 179.156,138.8755 183.531,138.8755"/>
    <polyline points="187.7264,141.7913 187.7264,154.9163 187.7264,154.9163 195.2264,154.9163"/>
    <polygon points="359.0551,168.189 396.8504,168.189 396.8504,168.189 434.6457,168.189 434.6457,168.189 434.6457,205.9843 434.6457,205.9843 396.8504,205.9843 396.8504,205.9843 359.0551,205.9843 359.0551,205.9843"/>
    <polyline points="376.0778,148.0413 381.7028,148.0413 381.7028,148.0413 383.5778,147.4163 383.5778,147.4163 384.2028,146.7913 384.2028,146.7913 384.8278,145.5413 384.8278,145.5413 384.8278,144.2913 384.8278,144.2913 384.2028,143.0413 384.2028,143.0413 383.5778,142.4163 383.5778,142.4163 381.7028,141.7913 381.7028,141.7913 376.0778,141.7913 376.0778,141.7913 376.0778,154.9163"/>
    <line x1="380.4528" x2="384.8278" y1="148.0413" y2="154.9163"/>
    <polyline points="486.9636,141.7913 491.9636,154.9163 491.9636,154.9163 496.9636,141.7913"/>
    <line x1="585.8268" x2="623.622" y1="168.189" y2="168.189"/>
    <polyline points="611.5994,141.7913 611.5994,154.9163 611.5994,154.9163 602.8494,141.7913 602.8494,141.7913 602.8494,154.9163"/>
    <polyline points="684.69,141.7913 684.69,151.7913 684.69,151.7913 684.065,153.6663 684.065,153.6663 683.44,154.2913 683.44,154.2913 682.19,154.9163 682.19,154.9163 680.94,154.9163 680.94,154.9163 679.69,154.2913 679.69,154.2913 679.065,153.6663 679.065,153.6663 678.44,151.7913 678.44,151.7913 678.44,150.5413"/>
    <line x1="737.0079" x2="774.8031" y1="168.189" y2="168.189"/>
    <polygon points="754.0305,141.7913 754.0305,154.9163 754.0305,154.9163 758.4055,154.9163 758.4055,154.9163 760.2805,154.2913 760.2805,154.2913 761.5305,153.0413 761.5305,153.0413 762.1555,151.7913 762.1555,151.7913 762.7805,149.9163 762.7805,149.9163 762.7805,146.7913 762.7805,146.7913 762.1555,144.9163 762.1555,144.9163 761.5305,143.6663 761.5305,143.6663 760.2805,142.4163 760.2805,142.4163 758.4055,141.7913 758.4055,141.7913"/>
    <polygon points="18.8976,168.189 18.8976,205.9843 18.8976,205.9843 56.6929,205.9843 56.6929,205.9843 56.6929,168.189 56.6929,168.189"/>
    <polyline points="22.6624,171.3583 23.2874,171.0458 23.2874,171.0458 24.2249,170.1083 24.2249,170.1083 24.2249,176.6708"/>
    <polyline points="28.5999,170.1083 32.0374,170.1083 32.0374,170.1083 30.1624,172.6083 30.1624,172.6083 31.0999,172.6083 31.0999,172.6083 31.7249,172.9208 31.7249,172.9208 32.0374,173.2333 32.0374,173.2333 32.3499,174.1708 32.3499,174.1708 32.3499,174.7958 32.3499,174.7958 32.0374,175.7333 32.0374,175.7333 31.4124,176.3583 31.4124,176.3583 30.4749,176.6708 30.4749,176.6708 29.5374,176.6708 29.5374,176.6708 28.5999,176.3583 28.5999,176.3583 28.2874,176.0458 28.2874,176.0458 27.9749,175.4208"/>
    <line x1="35.9203" x2="35.9203" y1="179.5866" y2="192.7116"/>
    <line x1="44.6703" x2="35.9203" y1="179.5866" y2="188.3366"/>
    <line x1="39.0453" x2="44.6703" y1="185.2116" y2="192.7116"/>
    <line x1="56.6929" x2="94.4882" y1="205.9843" y2="205.9843"/>
    <polyline points="81.2156,192.7116 76.2156,179.5866 76.2156,179.5866 71.2156,192.7116"/>
    <line x1="73.0906" x2="79.3406" y1="188.3366" y2="188.3366"/>
    <polyline points="119.6358,181.4616 118.3858,180.2116 118.3858,180.2116 116.5108,179.5866 116.5108,179.5866 114.0108,179.5866 114.0108,179.5866 112.1358,180.2116 112.1358,180.2116 110.8858,181.4616 110.8858,181.4616 110.8858,182.7116 110.8858,182.7116 111.5108,183.9616 111.5108,183.9616 112.1358,184.5866 112.1358,184.5866 113.3858,185.2116 113.3858,185.2116 117.1358,186.4616 117.1358,186.4616 118.3858,187.0866 118.3858,187.0866 119.0108,187.7116 119.0108,187.7116 119.6358,188.9616 119.6358,188.9616 119.6358,190.8366 119.6358,190.8366 118.3858,192.0866 118.3858,192.0866 116.5108,192.7116 116.5108,192.7116 114.0108,192.7116 114.0108,192.7116 112.1358,192.0866 112.1358,192.0866 110.8858,190.8366"/>
    <polyline points="207.874,205.9843 207.874,243.7795 207.874,243.7795 170.0787,243.7795 170.0787,243.7795 170.0787,205.9843 170.0787,205.9843 170.0787,168.189 170.0787,168.189 132.2835,168.189"/>
    <polyline points="157.4311,181.4616 156.1811,180.2116 156.1811,180.2116 154.3061,179.5866 154.3061,179.5866 151.8061,179.5866 151.8061,179.5866 149.9311,180.2116 149.9311,180.2116 148.6811,181.4616 148.6811,181.4616 148.6811,182.7116 148.6811,182.7116 149.3061,183.9616 149.3061,183.9616 149.9311,184.5866 149.9311,184.5866 151.1811,185.2116 151.1811,185.2116 154.9311,186.4616 154.9311,186.4616 156.1811,187.0866 156.1811,187.0866 156.8061,187.7116 156.8061,187.7116 157.4311,188.9616 157.4311,188.9616 157.4311,190.8366 157.4311,190.8366 156.1811,192.0866 156.1811,192.0866 154.3061,192.7116 154.3061,192.7116 151.8061,192.7116 151.8061,192.7116 149.9311,192.0866 149.9311,192.0866 148.6811,190.8366"/>
    <polyline points="194.6014,192.7116 189.6014,179.5866 189.6014,179.5866 184.6014,192.7116"/>
    <line x1="186.4764" x2="192.7264" y1="188.3366" y2="188.3366"/>
    <line x1="283.4646" x2="283.4646" y1="205.9843" y2="168.189"/>
    <polyline points="249.4341,171.3583 250.0591,171.0458 250.0591,171.0458 250.9966,170.1083 250.9966,170.1083 250.9966,176.6708"/>
    <polyline points="257.8716,176.6708 257.8716,170.1083 257.8716,170.1083 254.7466,174.4833 254.7466,174.4833 259.4341,174.4833"/>
    <polyline points="271.1294,179.5866 263.0044,179.5866 263.0044,179.5866 263.0044,192.7116"/>
    <line x1="263.0044" x2="268.0044" y1="185.8366" y2="185.8366"/>
    <line x1="321.2598" x2="321.2598" y1="205.9843" y2="168.189"/>
    <polyline points="300.4872,185.8366 306.1122,185.8366 306.1122,185.8366 307.9872,185.2116 307.9872,185.2116 308.6122,184.5866 308.6122,184.5866 309.2372,183.3366 309.2372,183.3366 309.2372,182.0866 309.2372,182.0866 308.6122,180.8366 308.6122,180.8366 307.9872,180.2116 307.9872,180.2116 306.1122,179.5866 306.1122,179.5866 300.4872,179.5866 300.4872,179.5866 300.4872,192.7116"/>
    <line x1="304.8622" x2="309.2372" y1="185.8366" y2="192.7116"/>
    <line x1="342.6575" x2="342.6575" y1="179.5866" y2="192.7116"/>
    <polyline points="384.5153,179.5866 376.3903,179.5866 376.3903,179.5866 376.3903,192.7116 376.3903,192.7116 384.5153,192.7116"/>
    <line x1="376.3903" x2="381.3903" y1="185.8366" y2="185.8366"/>
    <line x1="416.373" x2="416.373" y1="179.5866" y2="192.7116"/>
    <line x1="411.998" x2="420.748" y1="179.5866" y2="179.5866"/>
    <polyline points="434.6457,205.9843 472.4409,205.9843 472.4409,205.9843 510.2362,205.9843 510.2362,205.9843 548.0315,205.9843 548.0315,205.9843 548.0315,168.189 548.0315,168.189 510.2362,168.189 510.2362,168.189 510.2362,205.9843 510.2362,205.9843 510.2362,243.7795 510.2362,243.7795 472.4409,243.7795 472.4409,243.7795 472.4409,205.9843 472.4409,205.9843 472.4409,168.189 472.4409,168.189 434.6457,168.189"/>
    <polyline points="457.9183,179.5866 457.9183,189.5866 457.9183,189.5866 457.2933,191.4616 457.2933,191.4616 456.6683,192.0866 456.6683,192.0866 455.4183,192.7116 455.4183,192.7116 454.1683,192.7116 454.1683,192.7116 452.9183,192.0866 452.9183,192.0866 452.2933,191.4616 452.2933,191.4616 451.6683,189.5866 451.6683,189.5866 451.6683,188.3366"/>
    <polyline points="497.9011,179.5866 489.7761,179.5866 489.7761,179.5866 489.7761,192.7116 489.7761,192.7116 497.9011,192.7116"/>
    <line x1="489.7761" x2="494.7761" y1="185.8366" y2="185.8366"/>
    <polyline points="535.3839,181.4616 534.1339,180.2116 534.1339,180.2116 532.2589,179.5866 532.2589,179.5866 529.7589,179.5866 529.7589,179.5866 527.8839,180.2116 527.8839,180.2116 526.6339,181.4616 526.6339,181.4616 526.6339,182.7116 526.6339,182.7116 527.2589,183.9616 527.2589,183.9616 527.8839,184.5866 527.8839,184.5866 529.1339,185.2116 529.1339,185.2116 532.8839,186.4616 532.8839,186.4616 534.1339,187.0866 534.1339,187.0866 534.7589,187.7116 534.7589,187.7116 535.3839,188.9616 535.3839,188.9616 535.3839,190.8366 535.3839,190.8366 534.1339,192.0866 534.1339,192.0866 532.2589,192.7116 532.2589,192.7116 529.7589,192.7116 529.7589,192.7116 527.8839,192.0866 527.8839,192.0866 526.6339,190.8366"/>
    <polygon points="602.8494,179.5866 602.8494,192.7116 602.8494,192.7116 607.2244,192.7116 607.2244,192.7116 609.0994,192.0866 609.0994,192.0866 610.3494,190.8366 610.3494,190.8366 610.9744,189.5866 610.9744,189.5866 611.5994,187.7116 611.5994,187.7116 611.5994,184.5866 611.5994,184.5866 610.9744,182.7116 610.9744,182.7116 610.3494,181.4616 610.3494,181.4616 609.0994,180.2116 609.0994,180.2116 607.2244,179.5866 607.2244,179.5866"/>
    <polyline points="661.4173,168.189 661.4173,205.9843 661.4173,205.9843 661.4173,243.7795 661.4173,243.7795 699.2126,243.7795 699.2126,243.7795 699.2126,205.9843 699.2126,205.9843 699.2126,168.189"/>
    <line x1="661.4173" x2="699.2126" y1="205.9843" y2="205.9843"/>
    <polygon points="678.44,179.5866 678.44,192.7116 678.44,192.7116 682.815,192.7116 682.815,192.7116 684.69,192.0866 684.69,192.0866 685.94,190.8366 685.94,190.8366 686.565,189.5866 686.565,189.5866 687.19,187.7116 687.19,187.7116 687.19,184.5866 687.19,184.5866 686.565,182.7116 686.565,182.7116 685.94,181.4616 685.94,181.4616 684.69,180.2116 684.69,180.2116 682.815,179.5866 682.815,179.5866"/>
    <polyline points="762.468,179.5866 754.343,179.5866 754.343,179.5866 754.343,192.7116 754.343,192.7116 762.468,192.7116"/>
    <line x1="754.343" x2="759.343" y1="185.8366" y2="185.8366"/>
    <polygon points="187.1014,217.3819 187.1014,230.5069 187.1014,230.5069 191.4764,230.5069 191.4764,230.5069 193.3514,229.8819 193.3514,229.8819 194.6014,228.6319 194.6014,228.6319 195.2264,227.3819 195.2264,227.3819 195.8514,225.5069 195.8514,225.5069 195.8514,222.3819 195.8514,222.3819 195.2264,220.5069 195.2264,220.5069 194.6014,219.2569 194.6014,219.2569 193.3514,218.0069 193.3514,218.0069 191.4764,217.3819 191.4764,217.3819"/>
    <line x1="380.4528" x2="380.4528" y1="217.3819" y2="230.5069"/>
    <polyline points="489.4636,223.6319 495.0886,223.6319 495.0886,223.6319 496.9636,223.0069 496.9636,223.0069 497.5886,222.3819 497.5886,222.3819 498.2136,221.1319 498.2136,221.1319 498.2136,219.8819 498.2136,219.8819 497.5886,218.6319 497.5886,218.6319 496.9636,218.0069 496.9636,218.0069 495.0886,217.3819 495.0886,217.3819 489.4636,217.3819 489.4636,217.3819 489.4636,230.5069"/>
    <line x1="493.8386" x2="498.2136" y1="223.6319" y2="230.5069"/>
    <polygon points="602.8494,217.3819 602.8494,230.5069 602.8494,230.5069 607.2244,230.5069 607.2244,230.5069 609.0994,229.8819 609.0994,229.8819 610.3494,228.6319 610.3494,228.6319 610.9744,227.3819 610.9744,227.3819 611.5994,225.5069 611.5994,225.5069 611.5994,222.3819 611.5994,222.3819 610.9744,220.5069 610.9744,220.5069 610.3494,219.2569 610.3494,219.2569 609.0994,218.0069 609.0994,218.0069 607.2244,217.3819 607.2244,217.3819"/>
    <polyline points="685.94,230.5069 680.94,217.3819 680.94,217.3819 675.94,230.5069"/>
    <line x1="677.815" x2="684.065" y1="226.1319" y2="226.1319"/>
    <polyline points="737.0079,205.9843 737.0079,243.7795 737.0079,243.7795 774.8031,243.7795 774.8031,243.7795 774.8031,205.9843"/>
    <polyline points="754.0305,223.6319 759.6555,223.6319 759.6555,223.6319 761.5305,223.0069 761.5305,223.0069 762.1555,222.3819 762.1555,222.3819 762.7805,221.1319 762.7805,221.1319 762.7805,219.8819 762.7805,219.8819 762.1555,218.6319 762.1555,218.6319 761.5305,218.0069 761.5305,218.0069 759.6555,217.3819 759.6555,217.3819 754.0305,217.3819 754.0305,217.3819 754.0305,230.5069"/>
    <line x1="758.4055" x2="762.7805" y1="223.6319" y2="230.5069"/>
    <polygon points="18.8976,243.7795 18.8976,281.5748 18.8976,281.5748 18.8976,319.3701 18.8976,319.3701 56.6929,319.3701 56.6929,319.3701 56.6929,281.5748 56.6929,281.5748 94.4882,281.5748 94.4882,281.5748 132.2835,281.5748 132.2835,281.5748 132.2835,243.7795 132.2835,243.7795 94.4882,243.7795 94.4882,243.7795 56.6929,243.7795 56.6929,243.7795"/>
    <polyline points="18.8976,281.5748 56.6929,281.5748 56.6929,281.5748 56.6929,243.7795"/>
    <polyline points="22.6624,246.9488 23.2874,246.6363 23.2874,246.6363 24.2249,245.6988 24.2249,245.6988 24.2249,252.2613"/>
    <polyline points="31.7249,245.6988 28.5999,245.6988 28.5999,245.6988 28.2874,248.5113 28.2874,248.5113 28.5999,248.1988 28.5999,248.1988 29.5374,247.8863 29.5374,247.8863 30.4749,247.8863 30.4749,247.8863 31.4124,248.1988 31.4124,248.1988 32.0374,248.8238 32.0374,248.8238 32.3499,249.7613 32.3499,249.7613 32.3499,250.3863 32.3499,250.3863 32.0374,251.3238 32.0374,251.3238 31.4124,251.9488 31.4124,251.9488 30.4749,252.2613 30.4749,252.2613 29.5374,252.2613 29.5374,252.2613 28.5999,251.9488 28.5999,251.9488 28.2874,251.6363 28.2874,251.6363 27.9749,251.0113"/>
    <polyline points="41.5453,261.4272 43.4203,260.8022 43.4203,260.8022 44.0453,260.1772 44.0453,260.1772 44.6703,258.9272 44.6703,258.9272 44.6703,257.6772 44.6703,257.6772 44.0453,256.4272 44.0453,256.4272 43.4203,255.8022 43.4203,255.8022 41.5453,255.1772 41.5453,255.1772 35.9203,255.1772 35.9203,255.1772 35.9203,268.3022 35.9203,268.3022 41.5453,268.3022 41.5453,268.3022 43.4203,267.6772 43.4203,267.6772 44.0453,267.0522 44.0453,267.0522 44.6703,265.8022 44.6703,265.8022 44.6703,263.9272 44.6703,263.9272 44.0453,262.6772 44.0453,262.6772 43.4203,262.0522 43.4203,262.0522 41.5453,261.4272 41.5453,261.4272 35.9203,261.4272"/>
    <line x1="94.4882" x2="94.4882" y1="281.5748" y2="243.7795"/>
    <polyline points="73.7156,261.4272 79.3406,261.4272 79.3406,261.4272 81.2156,260.8022 81.2156,260.8022 81.8406,260.1772 81.8406,260.1772 82.4656,258.9272 82.4656,258.9272 82.4656,257.6772 82.4656,257.6772 81.8406,256.4272 81.8406,256.4272 81.2156,255.8022 81.2156,255.8022 79.3406,255.1772 79.3406,255.1772 73.7156,255.1772 73.7156,255.1772 73.7156,268.3022"/>
    <line x1="78.0906" x2="82.4656" y1="261.4272" y2="268.3022"/>
    <polygon points="114.0108,255.1772 112.7608,255.8022 112.7608,255.8022 111.5108,257.0522 111.5108,257.0522 110.8858,258.3022 110.8858,258.3022 110.2608,260.1772 110.2608,260.1772 110.2608,263.3022 110.2608,263.3022 110.8858,265.1772 110.8858,265.1772 111.5108,266.4272 111.5108,266.4272 112.7608,267.6772 112.7608,267.6772 114.0108,268.3022 114.0108,268.3022 116.5108,268.3022 116.5108,268.3022 117.7608,267.6772 117.7608,267.6772 119.0108,266.4272 119.0108,266.4272 119.6358,265.1772 119.6358,265.1772 120.2608,263.3022 120.2608,263.3022 120.2608,260.1772 120.2608,260.1772 119.6358,258.3022 119.6358,258.3022 119.0108,257.0522 119.0108,257.0522 117.7608,255.8022 117.7608,255.8022 116.5108,255.1772 116.5108,255.1772"/>
    <polyline points="132.2835,281.5748 170.0787,281.5748 170.0787,281.5748 170.0787,319.3701 170.0787,319.3701 207.874,319.3701 207.874,319.3701 207.874,281.5748 207.874,281.5748 207.874,243.7795"/>
    <polyline points="207.874,281.5748 170.0787,281.5748 170.0787,281.5748 170.0787,243.7795 170.0787,243.7795 132.2835,243.7795"/>
    <polygon points="151.8061,255.1772 150.5561,255.8022 150.5561,255.8022 149.3061,257.0522 149.3061,257.0522 148.6811,258.3022 148.6811,258.3022 148.0561,260.1772 148.0561,260.1772 148.0561,263.3022 148.0561,263.3022 148.6811,265.1772 148.6811,265.1772 149.3061,266.4272 149.3061,266.4272 150.5561,267.6772 150.5561,267.6772 151.8061,268.3022 151.8061,268.3022 154.3061,268.3022 154.3061,268.3022 155.5561,267.6772 155.5561,267.6772 156.8061,266.4272 156.8061,266.4272 157.4311,265.1772 157.4311,265.1772 158.0561,263.3022 158.0561,263.3022 158.0561,260.1772 158.0561,260.1772 157.4311,258.3022 157.4311,258.3022 156.8061,257.0522 156.8061,257.0522 155.5561,255.8022 155.5561,255.8022 154.3061,255.1772 154.3061,255.1772"/>
    <polygon points="187.1014,255.1772 187.1014,268.3022 187.1014,268.3022 191.4764,268.3022 191.4764,268.3022 193.3514,267.6772 193.3514,267.6772 194.6014,266.4272 194.6014,266.4272 195.2264,265.1772 195.2264,265.1772 195.8514,263.3022 195.8514,263.3022 195.8514,260.1772 195.8514,260.1772 195.2264,258.3022 195.2264,258.3022 194.6014,257.0522 194.6014,257.0522 193.3514,255.8022 193.3514,255.8022 191.4764,255.1772 191.4764,255.1772"/>
    <polygon points="245.6693,243.7795 245.6693,281.5748 245.6693,281.5748 283.4646,281.5748 283.4646,281.5748 321.2598,281.5748 321.2598,281.5748 321.2598,243.7795 321.2598,243.7795 283.4646,243.7795 283.4646,243.7795"/>
    <line x1="283.4646" x2="283.4646" y1="281.5748" y2="243.7795"/>
    <polyline points="249.4341,246.9488 250.0591,246.6363 250.0591,246.6363 250.9966,245.6988 250.9966,245.6988 250.9966,252.2613"/>
    <polyline points="258.8091,246.6363 258.4966,246.0113 258.4966,246.0113 257.5591,245.6988 257.5591,245.6988 256.9341,245.6988 256.9341,245.6988 255.9966,246.0113 255.9966,246.0113 255.3716,246.9488 255.3716,246.9488 255.0591,248.5113 255.0591,248.5113 255.0591,250.0738 255.0591,250.0738 255.3716,251.3238 255.3716,251.3238 255.9966,251.9488 255.9966,251.9488 256.9341,252.2613 256.9341,252.2613 257.2466,252.2613 257.2466,252.2613 258.1841,251.9488 258.1841,251.9488 258.8091,251.3238 258.8091,251.3238 259.1216,250.3863 259.1216,250.3863 259.1216,250.0738 259.1216,250.0738 258.8091,249.1363 258.8091,249.1363 258.1841,248.5113 258.1841,248.5113 257.2466,248.1988 257.2466,248.1988 256.9341,248.1988 256.9341,248.1988 255.9966,248.5113 255.9966,248.5113 255.3716,249.1363 255.3716,249.1363 255.0591,250.0738"/>
    <polyline points="271.1294,255.1772 263.0044,255.1772 263.0044,255.1772 263.0044,268.3022"/>
    <line x1="263.0044" x2="268.0044" y1="261.4272" y2="261.4272"/>
    <line x1="304.8622" x2="304.8622" y1="255.1772" y2="268.3022"/>
    <polyline points="321.2598,281.5748 359.0551,281.5748 359.0551,281.5748 396.8504,281.5748 396.8504,281.5748 396.8504,243.7795 396.8504,243.7795 434.6457,243.7795 434.6457,243.7795 434.6457,281.5748 434.6457,281.5748 396.8504,281.5748"/>
    <polyline points="359.0551,281.5748 359.0551,243.7795 359.0551,243.7795 321.2598,243.7795"/>
    <polygon points="340.7825,255.1772 339.5325,255.8022 339.5325,255.8022 338.2825,257.0522 338.2825,257.0522 337.6575,258.3022 337.6575,258.3022 337.0325,260.1772 337.0325,260.1772 337.0325,263.3022 337.0325,263.3022 337.6575,265.1772 337.6575,265.1772 338.2825,266.4272 338.2825,266.4272 339.5325,267.6772 339.5325,267.6772 340.7825,268.3022 340.7825,268.3022 343.2825,268.3022 343.2825,268.3022 344.5325,267.6772 344.5325,267.6772 345.7825,266.4272 345.7825,266.4272 346.4075,265.1772 346.4075,265.1772 347.0325,263.3022 347.0325,263.3022 347.0325,260.1772 347.0325,260.1772 346.4075,258.3022 346.4075,258.3022 345.7825,257.0522 345.7825,257.0522 344.5325,255.8022 344.5325,255.8022 343.2825,255.1772 343.2825,255.1772"/>
    <polyline points="384.8278,255.1772 384.8278,268.3022 384.8278,268.3022 376.0778,255.1772 376.0778,255.1772 376.0778,268.3022"/>
    <polyline points="422.623,255.1772 422.623,268.3022 422.623,268.3022 413.873,255.1772 413.873,255.1772 413.873,268.3022"/>
    <polyline points="472.4409,243.7795 472.4409,281.5748 472.4409,281.5748 510.2362,281.5748 510.2362,281.5748 510.2362,243.7795"/>
    <line x1="491.9636" x2="491.9636" y1="255.1772" y2="268.3022"/>
    <line x1="487.5886" x2="496.3386" y1="255.1772" y2="255.1772"/>
    <polyline points="585.8268,243.7795 585.8268,281.5748 585.8268,281.5748 585.8268,319.3701 585.8268,319.3701 585.8268,357.1654 585.8268,357.1654 623.622,357.1654 623.622,357.1654 623.622,319.3701 623.622,319.3701 623.622,281.5748 623.622,281.5748 623.622,243.7795"/>
    <line x1="585.8268" x2="623.622" y1="281.5748" y2="281.5748"/>
    <polygon points="605.3494,255.1772 604.0994,255.8022 604.0994,255.8022 602.8494,257.0522 602.8494,257.0522 602.2244,258.3022 602.2244,258.3022 601.5994,260.1772 601.5994,260.1772 601.5994,263.3022 601.5994,263.3022 602.2244,265.1772 602.2244,265.1772 602.8494,266.4272 602.8494,266.4272 604.0994,267.6772 604.0994,267.6772 605.3494,268.3022 605.3494,268.3022 607.8494,268.3022 607.8494,268.3022 609.0994,267.6772 609.0994,267.6772 610.3494,266.4272 610.3494,266.4272 610.9744,265.1772 610.9744,265.1772 611.5994,263.3022 611.5994,263.3022 611.5994,260.1772 611.5994,260.1772 610.9744,258.3022 610.9744,258.3022 610.3494,257.0522 610.3494,257.0522 609.0994,255.8022 609.0994,255.8022 607.8494,255.1772 607.8494,255.1772"/>
    <polyline points="661.4173,243.7795 661.4173,281.5748 661.4173,281.5748 699.2126,281.5748 699.2126,281.5748 699.2126,243.7795"/>
    <polyline points="686.8775,258.3022 686.2525,257.0522 686.2525,257.0522 685.0025,255.8022 685.0025,255.8022 683.7525,255.1772 683.7525,255.1772 681.2525,255.1772 681.2525,255.1772 680.0025,255.8022 680.0025,255.8022 678.7525,257.0522 678.7525,257.0522 678.1275,258.3022 678.1275,258.3022 677.5025,260.1772 677.5025,260.1772 677.5025,263.3022 677.5025,263.3022 678.1275,265.1772 678.1275,265.1772 678.7525,266.4272 678.7525,266.4272 680.0025,267.6772 680.0025,267.6772 681.2525,268.3022 681.2525,268.3022 683.7525,268.3022 683.7525,268.3022 685.0025,267.6772 685.0025,267.6772 686.2525,266.4272 686.2525,266.4272 686.8775,265.1772 686.8775,265.1772 686.8775,263.3022 686.8775,263.3022 683.7525,263.3022"/>
    <polyline points="737.0079,243.7795 737.0079,281.5748 737.0079,281.5748 737.0079,319.3701 737.0079,319.3701 774.8031,319.3701 774.8031,319.3701 774.8031,281.5748 774.8031,281.5748 774.8031,243.7795"/>
    <line x1="737.0079" x2="774.8031" y1="281.5748" y2="281.5748"/>
    <polyline points="762.468,255.1772 754.343,255.1772 754.343,255.1772 754.343,268.3022 754.343,268.3022 762.468,268.3022"/>
    <line x1="754.343" x2="759.343" y1="261.4272" y2="261.4272"/>
    <polygon points="38.4203,292.9724 37.1703,293.5974 37.1703,293.5974 35.9203,294.8474 35.9203,294.8474 35.2953,296.0974 35.2953,296.0974 34.6703,297.9724 34.6703,297.9724 34.6703,301.0974 34.6703,301.0974 35.2953,302.9724 35.2953,302.9724 35.9203,304.2224 35.9203,304.2224 37.1703,305.4724 37.1703,305.4724 38.4203,306.0974 38.4203,306.0974 40.9203,306.0974 40.9203,306.0974 42.1703,305.4724 42.1703,305.4724 43.4203,304.2224 43.4203,304.2224 44.0453,302.9724 44.0453,302.9724 44.6703,301.0974 44.6703,301.0974 44.6703,297.9724 44.6703,297.9724 44.0453,296.0974 44.0453,296.0974 43.4203,294.8474 43.4203,294.8474 42.1703,293.5974 42.1703,293.5974 40.9203,292.9724 40.9203,292.9724"/>
    <polyline points="195.5389,292.9724 187.4139,292.9724 187.4139,292.9724 187.4139,306.0974 187.4139,306.0974 195.5389,306.0974"/>
    <line x1="187.4139" x2="192.4139" y1="299.2224" y2="299.2224"/>
    <polyline points="472.4409,281.5748 472.4409,319.3701 472.4409,319.3701 510.2362,319.3701 510.2362,319.3701 510.2362,281.5748"/>
    <polyline points="495.7136,292.9724 495.7136,302.9724 495.7136,302.9724 495.0886,304.8474 495.0886,304.8474 494.4636,305.4724 494.4636,305.4724 493.2136,306.0974 493.2136,306.0974 491.9636,306.0974 491.9636,306.0974 490.7136,305.4724 490.7136,305.4724 490.0886,304.8474 490.0886,304.8474 489.4636,302.9724 489.4636,302.9724 489.4636,301.7224"/>
    <polyline points="585.8268,319.3701 623.622,319.3701 623.622,319.3701 661.4173,319.3701 661.4173,319.3701 661.4173,357.1654 661.4173,357.1654 699.2126,357.1654 699.2126,357.1654 699.2126,319.3701 699.2126,319.3701 661.4173,319.3701"/>
    <polyline points="611.2869,292.9724 603.1619,292.9724 603.1619,292.9724 603.1619,306.0974 603.1619,306.0974 611.2869,306.0974"/>
    <line x1="603.1619" x2="608.1619" y1="299.2224" y2="299.2224"/>
    <polyline points="762.7805,292.9724 762.7805,306.0974 762.7805,306.0974 754.0305,292.9724 754.0305,292.9724 754.0305,306.0974"/>
    <polyline points="18.8976,319.3701 18.8976,357.1654 18.8976,357.1654 56.6929,357.1654 56.6929,357.1654 56.6929,319.3701"/>
    <polygon points="35.9203,330.7677 35.9203,343.8927 35.9203,343.8927 41.5453,343.8927 41.5453,343.8927 43.4203,343.2677 43.4203,343.2677 44.0453,342.6427 44.0453,342.6427 44.6703,341.3927 44.6703,341.3927 44.6703,339.5177 44.6703,339.5177 44.0453,338.2677 44.0453,338.2677 43.4203,337.6427 43.4203,337.6427 41.5453,337.0177 41.5453,337.0177 43.4203,336.3927 43.4203,336.3927 44.0453,335.7677 44.0453,335.7677 44.6703,334.5177 44.6703,334.5177 44.6703,333.2677 44.6703,333.2677 44.0453,332.0177 44.0453,332.0177 43.4203,331.3927 43.4203,331.3927 41.5453,330.7677 41.5453,330.7677"/>
    <line x1="35.9203" x2="41.5453" y1="337.0177" y2="337.0177"/>
    <polyline points="170.0787,319.3701 170.0787,357.1654 170.0787,357.1654 207.874,357.1654 207.874,357.1654 207.874,319.3701 207.874,319.3701 245.6693,319.3701 245.6693,319.3701 245.6693,357.1654 245.6693,357.1654 207.874,357.1654"/>
    <polyline points="173.8435,322.5394 174.4685,322.2269 174.4685,322.2269 175.406,321.2894 175.406,321.2894 175.406,327.8519"/>
    <polyline points="179.156,321.2894 183.531,321.2894 183.531,321.2894 180.406,327.8519"/>
    <polyline points="187.1014,337.0177 192.7264,337.0177 192.7264,337.0177 194.6014,336.3927 194.6014,336.3927 195.2264,335.7677 195.2264,335.7677 195.8514,334.5177 195.8514,334.5177 195.8514,333.2677 195.8514,333.2677 195.2264,332.0177 195.2264,332.0177 194.6014,331.3927 194.6014,331.3927 192.7264,330.7677 192.7264,330.7677 187.1014,330.7677 187.1014,330.7677 187.1014,343.8927"/>
    <line x1="191.4764" x2="195.8514" y1="337.0177" y2="343.8927"/>
    <polyline points="233.3342,330.7677 225.2092,330.7677 225.2092,330.7677 225.2092,343.8927 225.2092,343.8927 233.3342,343.8927"/>
    <line x1="225.2092" x2="230.2092" y1="337.0177" y2="337.0177"/>
    <polyline points="245.6693,357.1654 283.4646,357.1654 283.4646,357.1654 321.2598,357.1654 321.2598,357.1654 359.0551,357.1654 359.0551,357.1654 396.8504,357.1654 396.8504,357.1654 434.6457,357.1654 434.6457,357.1654 434.6457,319.3701 434.6457,319.3701 396.8504,319.3701 396.8504,319.3701 359.0551,319.3701 359.0551,319.3701 321.2598,319.3701 321.2598,319.3701 283.4646,319.3701 283.4646,319.3701 245.6693,319.3701"/>
    <line x1="283.4646" x2="283.4646" y1="357.1654" y2="319.3701"/>
    <line x1="262.6919" x2="262.6919" y1="330.7677" y2="343.8927"/>
    <line x1="271.4419" x2="262.6919" y1="330.7677" y2="339.5177"/>
    <line x1="265.8169" x2="271.4419" y1="336.3927" y2="343.8927"/>
    <line x1="321.2598" x2="321.2598" y1="357.1654" y2="319.3701"/>
    <line x1="300.4872" x2="300.4872" y1="330.7677" y2="343.8927"/>
    <line x1="309.2372" x2="300.4872" y1="330.7677" y2="339.5177"/>
    <line x1="303.6122" x2="309.2372" y1="336.3927" y2="343.8927"/>
    <line x1="359.0551" x2="359.0551" y1="357.1654" y2="319.3701"/>
    <polyline points="346.72,330.7677 338.595,330.7677 338.595,330.7677 338.595,343.8927 338.595,343.8927 346.72,343.8927"/>
    <line x1="338.595" x2="343.595" y1="337.0177" y2="337.0177"/>
    <line x1="396.8504" x2="396.8504" y1="357.1654" y2="319.3701"/>
    <polyline points="376.0778,337.0177 381.7028,337.0177 381.7028,337.0177 383.5778,336.3927 383.5778,336.3927 384.2028,335.7677 384.2028,335.7677 384.8278,334.5177 384.8278,334.5177 384.8278,333.2677 384.8278,333.2677 384.2028,332.0177 384.2028,332.0177 383.5778,331.3927 383.5778,331.3927 381.7028,330.7677 381.7028,330.7677 376.0778,330.7677 376.0778,330.7677 376.0778,343.8927"/>
    <line x1="380.4528" x2="384.8278" y1="337.0177" y2="343.8927"/>
    <line x1="416.373" x2="416.373" y1="330.7677" y2="343.8927"/>
    <line x1="411.998" x2="420.748" y1="330.7677" y2="330.7677"/>
    <polyline points="434.6457,357.1654 472.4409,357.1654 472.4409,357.1654 510.2362,357.1654 510.2362,357.1654 510.2362,319.3701"/>
    <polyline points="472.4409,357.1654 472.4409,319.3701 472.4409,319.3701 434.6457,319.3701"/>
    <polyline points="457.9183,330.7677 457.9183,340.7677 457.9183,340.7677 457.2933,342.6427 457.2933,342.6427 456.6683,343.2677 456.6683,343.2677 455.4183,343.8927 455.4183,343.8927 454.1683,343.8927 454.1683,343.8927 452.9183,343.2677 452.9183,343.2677 452.2933,342.6427 452.2933,342.6427 451.6683,340.7677 451.6683,340.7677 451.6683,339.5177"/>
    <polyline points="497.9011,330.7677 489.7761,330.7677 489.7761,330.7677 489.7761,343.8927 489.7761,343.8927 497.9011,343.8927"/>
    <line x1="489.7761" x2="494.7761" y1="337.0177" y2="337.0177"/>
    <polyline points="589.5915,322.5394 590.2165,322.2269 590.2165,322.2269 591.154,321.2894 591.154,321.2894 591.154,327.8519"/>
    <polygon points="596.4665,321.2894 595.529,321.6019 595.529,321.6019 595.2165,322.2269 595.2165,322.2269 595.2165,322.8519 595.2165,322.8519 595.529,323.4769 595.529,323.4769 596.154,323.7894 596.154,323.7894 597.404,324.1019 597.404,324.1019 598.3415,324.4144 598.3415,324.4144 598.9665,325.0394 598.9665,325.0394 599.279,325.6644 599.279,325.6644 599.279,326.6019 599.279,326.6019 598.9665,327.2269 598.9665,327.2269 598.654,327.5394 598.654,327.5394 597.7165,327.8519 597.7165,327.8519 596.4665,327.8519 596.4665,327.8519 595.529,327.5394 595.529,327.5394 595.2165,327.2269 595.2165,327.2269 594.904,326.6019 594.904,326.6019 594.904,325.6644 594.904,325.6644 595.2165,325.0394 595.2165,325.0394 595.8415,324.4144 595.8415,324.4144 596.779,324.1019 596.779,324.1019 598.029,323.7894 598.029,323.7894 598.654,323.4769 598.654,323.4769 598.9665,322.8519 598.9665,322.8519 598.9665,322.2269 598.9665,322.2269 598.654,321.6019 598.654,321.6019 597.7165,321.2894 597.7165,321.2894"/>
    <line x1="602.8494" x2="602.8494" y1="330.7677" y2="343.8927"/>
    <line x1="611.5994" x2="602.8494" y1="330.7677" y2="339.5177"/>
    <line x1="605.9744" x2="611.5994" y1="336.3927" y2="343.8927"/>
    <line x1="623.622" x2="661.4173" y1="357.1654" y2="357.1654"/>
    <polygon points="643.1447,330.7677 641.8947,331.3927 641.8947,331.3927 640.6447,332.6427 640.6447,332.6427 640.0197,333.8927 640.0197,333.8927 639.3947,335.7677 639.3947,335.7677 639.3947,338.8927 639.3947,338.8927 640.0197,340.7677 640.0197,340.7677 640.6447,342.0177 640.6447,342.0177 641.8947,343.2677 641.8947,343.2677 643.1447,343.8927 643.1447,343.8927 645.6447,343.8927 645.6447,343.8927 646.8947,343.2677 646.8947,343.2677 648.1447,342.0177 648.1447,342.0177 648.7697,340.7677 648.7697,340.7677 649.3947,338.8927 649.3947,338.8927 649.3947,335.7677 649.3947,335.7677 648.7697,333.8927 648.7697,333.8927 648.1447,332.6427 648.1447,332.6427 646.8947,331.3927 646.8947,331.3927 645.6447,330.7677 645.6447,330.7677"/>
    <polyline points="678.44,330.7677 678.44,340.1427 678.44,340.1427 679.065,342.0177 679.065,342.0177 680.315,343.2677 680.315,343.2677 682.19,343.8927 682.19,343.8927 683.44,343.8927 683.44,343.8927 685.315,343.2677 685.315,343.2677 686.565,342.0177 686.565,342.0177 687.19,340.1427 687.19,340.1427 687.19,330.7677"/>
    <polyline points="699.2126,357.1654 737.0079,357.1654 737.0079,357.1654 737.0079,319.3701 737.0079,319.3701 699.2126,319.3701"/>
    <polyline points="724.3602,332.6427 723.1102,331.3927 723.1102,331.3927 721.2352,330.7677 721.2352,330.7677 718.7352,330.7677 718.7352,330.7677 716.8602,331.3927 716.8602,331.3927 715.6102,332.6427 715.6102,332.6427 715.6102,333.8927 715.6102,333.8927 716.2352,335.1427 716.2352,335.1427 716.8602,335.7677 716.8602,335.7677 718.1102,336.3927 718.1102,336.3927 721.8602,337.6427 721.8602,337.6427 723.1102,338.2677 723.1102,338.2677 723.7352,338.8927 723.7352,338.8927 724.3602,340.1427 724.3602,340.1427 724.3602,342.0177 724.3602,342.0177 723.1102,343.2677 723.1102,343.2677 721.2352,343.8927 721.2352,343.8927 718.7352,343.8927 718.7352,343.8927 716.8602,343.2677 716.8602,343.2677 715.6102,342.0177"/>
  </g>
</svg>
