<?xml version="1.0" encoding="utf-8" ?>
<svg xmlns="http://www.w3.org/2000/svg" xmlns:cc="http://creativecommons.org/ns" xmlns:dc="http://purl.org/dc/elements/1.1/" xmlns:ev="http://www.w3.org/2001/xml-events" xmlns:inkscape="http://www.inkscape.org/namespaces/inkscape" xmlns:rdf="http://www.w3.org/1999/02/22-rdf-syntax-ns" xmlns:sodipodi="http://sodipodi.sourceforge.net/DTD/sodipodi-0.dtd" xmlns:xlink="http://www.w3.org/1999/xlink" baseProfile="tiny" height="9.9cm" version="1.2" viewBox="0 0 793.7007874015749 374.1732283464567" width="21.0cm">
  <metadata>
    <rdf:RDF>
      <cc:Work>
        <dc:format>image/svg+xml</dc:format>
        <dc:source>vpype eval 'cell=10;width=210;height=99' eval 'nCols=20;nRows=9' eval 'cells=[4,8,12,13,14,15,16,17,18,19,20,21,22,23,24,25,28,37,44,46,47,48,49,50,51,52,53,54,55,56,57,59,60,61,62,63,64,65,68,70,77,79,80,84,87,90,93,94,95,96,97,98,99,100,102,103,104,105,106,107,108,109,110,111,112,117,119,120,122,127,130,134,135,136,137,138,139,142,147,157,159,163,164,165,166,167,170,171,172,173,174,175,176,177,178]' eval 'chars=[&quot;L&quot;,&quot;S&quot;,&quot;P&quot;,&quot;A&quot;,&quot;R&quot;,&quot;K&quot;,&quot;E&quot;,&quot;R&quot;,&quot;E&quot;,&quot;N&quot;,&quot;T&quot;,&quot;E&quot;,&quot;R&quot;,&quot;R&quot;,&quot;A&quot;,&quot;S&quot;,&quot;T&quot;,&quot;E&quot;,&quot;K&quot;,&quot;F&quot;,&quot;L&quot;,&quot;E&quot;,&quot;S&quot;,&quot;S&quot;,&quot;E&quot;,&quot;N&quot;,&quot;G&quot;,&quot;E&quot;,&quot;L&quot;,&quot;U&quot;,&quot;K&quot;,&quot;K&quot;,&quot;L&quot;,&quot;A&quot;,&quot;D&quot;,&quot;D&quot;,&quot;E&quot;,&quot;R&quot;,&quot;R&quot;,&quot;A&quot;,&quot;K&quot;,&quot;I&quot;,&quot;I&quot;,&quot;N&quot;,&quot;G&quot;,&quot;R&quot;,&quot;V&quot;,&quot;E&quot;,&quot;L&quot;,&quot;L&quot;,&quot;E&quot;,&quot;K&quot;,&quot;E&quot;,&quot;F&quot;,&quot;M&quot;,&quot;I&quot;,&quot;S&quot;,&quot;V&quot;,&quot;E&quot;,&quot;R&quot;,&quot;S&quot;,&quot;T&quot;,&quot;A&quot;,&quot;N&quot;,&quot;D&quot;,&quot;R&quot;,&quot;M&quot;,&quot;T&quot;,&quot;O&quot;,&quot;O&quot;,&quot;H&quot;,&quot;C&quot;,&quot;E&quot;,&quot;N&quot;,&quot;T&quot;,&quot;J&quot;,&quot;E&quot;,&quot;P&quot;,&quot;E&quot;,&quot;J&quot;,&quot;N&quot;,&quot;T&quot;,&quot;R&quot;,&quot;E&quot;,&quot;I&quot;,&quot;N&quot;,&quot;U&quot;,&quot;I&quot;,&quot;T&quot;,&quot;L&quot;,&quot;I&quot;,&quot;K&quot;,&quot;K&quot;,&quot;E&quot;,&quot;N&quot;]' eval 'numbers=[4,8,12,17,20,46,50,59,60,87,93,102,134,163,170]' eval counter=1 eval charIndex=0 begin grid -o '%cell*mm%' '%cell*mm%' %nCols% %nRows% eval '%isCell=_i in cells%' eval '%number=_i in numbers%' eval '%size=10 if isCell else 0%' rect 0 0 '%size*mm%' '%size*mm%' text -s 10 -p 0.5mm 1.5mm '%counter if number else '&quot;'&quot;''&quot;'&quot;'%' text -s 20 -p 5mm 5mm -a center '%chars[charIndex] if isCell else '&quot;'&quot;''&quot;'&quot;'%' eval '%if number: counter+=1 %' eval '%if isCell: charIndex+=1 %' end splitall deduplicate linemerge --tolerance 0.1mm write -m none --page-size '%width*mm%x%height*mm%' --center ./svgs/solution/9e9d7a.svg
</dc:source>
        <dc:date>2024-01-06T16:44:06.474472</dc:date>
      </cc:Work>
    </rdf:RDF>
  </metadata>
  <defs/>
  <g fill="none" id="layer1" inkscape:groupmode="layer" inkscape:label="1" stroke="#000000" style="display:inline">
    <polyline points="56.6929,130.3937 56.6929,168.189 56.6929,168.189 56.6929,205.9843 56.6929,205.9843 18.8976,205.9843 18.8976,205.9843 18.8976,168.189 18.8976,168.189 18.8976,130.3937 18.8976,130.3937 56.6929,130.3937 56.6929,130.3937 94.4882,130.3937 94.4882,130.3937 132.2835,130.3937 132.2835,130.3937 170.0787,130.3937 170.0787,130.3937 207.874,130.3937 207.874,130.3937 207.874,168.189 207.874,168.189 245.6693,168.189 245.6693,168.189 245.6693,130.3937 245.6693,130.3937 207.874,130.3937 207.874,130.3937 207.874,92.5984 207.874,92.5984 170.0787,92.5984 170.0787,92.5984 170.0787,54.8031 170.0787,54.8031 207.874,54.8031 207.874,54.8031 245.6693,54.8031 245.6693,54.8031 245.6693,92.5984 245.6693,92.5984 207.874,92.5984 207.874,92.5984 207.874,54.8031 207.874,54.8031 207.874,17.0079 207.874,17.0079 170.0787,17.0079 170.0787,17.0079 170.0787,54.8031 170.0787,54.8031 132.2835,54.8031 132.2835,54.8031 94.4882,54.8031 94.4882,54.8031 56.6929,54.8031 56.6929,54.8031 18.8976,54.8031 18.8976,54.8031 18.8976,92.5984 18.8976,92.5984 56.6929,92.5984 56.6929,92.5984 56.6929,54.8031"/>
    <polyline points="173.8435,20.1772 174.4685,19.8647 174.4685,19.8647 175.406,18.9272 175.406,18.9272 175.406,25.4897"/>
    <polyline points="187.7264,28.4055 187.7264,41.5305 187.7264,41.5305 195.2264,41.5305"/>
    <polygon points="321.2598,17.0079 321.2598,54.8031 321.2598,54.8031 321.2598,92.5984 321.2598,92.5984 359.0551,92.5984 359.0551,92.5984 359.0551,54.8031 359.0551,54.8031 359.0551,17.0079 359.0551,17.0079"/>
    <line x1="321.2598" x2="359.0551" y1="54.8031" y2="54.8031"/>
    <polyline points="324.3996,20.4897 324.3996,20.1772 324.3996,20.1772 324.7121,19.5522 324.7121,19.5522 325.0246,19.2397 325.0246,19.2397 325.6496,18.9272 325.6496,18.9272 326.8996,18.9272 326.8996,18.9272 327.5246,19.2397 327.5246,19.2397 327.8371,19.5522 327.8371,19.5522 328.1496,20.1772 328.1496,20.1772 328.1496,20.8022 328.1496,20.8022 327.8371,21.4272 327.8371,21.4272 327.2121,22.3647 327.2121,22.3647 324.0871,25.4897 324.0871,25.4897 328.4621,25.4897"/>
    <polyline points="346.4075,30.2805 345.1575,29.0305 345.1575,29.0305 343.2825,28.4055 343.2825,28.4055 340.7825,28.4055 340.7825,28.4055 338.9075,29.0305 338.9075,29.0305 337.6575,30.2805 337.6575,30.2805 337.6575,31.5305 337.6575,31.5305 338.2825,32.7805 338.2825,32.7805 338.9075,33.4055 338.9075,33.4055 340.1575,34.0305 340.1575,34.0305 343.9075,35.2805 343.9075,35.2805 345.1575,35.9055 345.1575,35.9055 345.7825,36.5305 345.7825,36.5305 346.4075,37.7805 346.4075,37.7805 346.4075,39.6555 346.4075,39.6555 345.1575,40.9055 345.1575,40.9055 343.2825,41.5305 343.2825,41.5305 340.7825,41.5305 340.7825,41.5305 338.9075,40.9055 338.9075,40.9055 337.6575,39.6555"/>
    <polygon points="472.4409,17.0079 472.4409,54.8031 472.4409,54.8031 510.2362,54.8031 510.2362,54.8031 548.0315,54.8031 548.0315,54.8031 548.0315,17.0079 548.0315,17.0079 510.2362,17.0079 510.2362,17.0079"/>
    <line x1="510.2362" x2="510.2362" y1="54.8031" y2="17.0079"/>
    <polyline points="475.8932,18.9272 479.3307,18.9272 479.3307,18.9272 477.4557,21.4272 477.4557,21.4272 478.3932,21.4272 478.3932,21.4272 479.0182,21.7397 479.0182,21.7397 479.3307,22.0522 479.3307,22.0522 479.6432,22.9897 479.6432,22.9897 479.6432,23.6147 479.6432,23.6147 479.3307,24.5522 479.3307,24.5522 478.7057,25.1772 478.7057,25.1772 477.7682,25.4897 477.7682,25.4897 476.8307,25.4897 476.8307,25.4897 475.8932,25.1772 475.8932,25.1772 475.5807,24.8647 475.5807,24.8647 475.2682,24.2397"/>
    <polyline points="489.4636,35.2805 495.0886,35.2805 495.0886,35.2805 496.9636,34.6555 496.9636,34.6555 497.5886,34.0305 497.5886,34.0305 498.2136,32.7805 498.2136,32.7805 498.2136,30.9055 498.2136,30.9055 497.5886,29.6555 497.5886,29.6555 496.9636,29.0305 496.9636,29.0305 495.0886,28.4055 495.0886,28.4055 489.4636,28.4055 489.4636,28.4055 489.4636,41.5305"/>
    <polyline points="534.7589,41.5305 529.7589,28.4055 529.7589,28.4055 524.7589,41.5305"/>
    <line x1="526.6339" x2="532.8839" y1="37.1555" y2="37.1555"/>
    <polyline points="548.0315,54.8031 585.8268,54.8031 585.8268,54.8031 585.8268,17.0079 585.8268,17.0079 548.0315,17.0079"/>
    <polyline points="565.0541,34.6555 570.6791,34.6555 570.6791,34.6555 572.5541,34.0305 572.5541,34.0305 573.1791,33.4055 573.1791,33.4055 573.8041,32.1555 573.8041,32.1555 573.8041,30.9055 573.8041,30.9055 573.1791,29.6555 573.1791,29.6555 572.5541,29.0305 572.5541,29.0305 570.6791,28.4055 570.6791,28.4055 565.0541,28.4055 565.0541,28.4055 565.0541,41.5305"/>
    <line x1="569.4291" x2="573.8041" y1="34.6555" y2="41.5305"/>
    <polyline points="585.8268,54.8031 623.622,54.8031 623.622,54.8031 623.622,17.0079 623.622,17.0079 585.8268,17.0079"/>
    <line x1="602.8494" x2="602.8494" y1="28.4055" y2="41.5305"/>
    <line x1="611.5994" x2="602.8494" y1="28.4055" y2="37.1555"/>
    <line x1="605.9744" x2="611.5994" y1="34.0305" y2="41.5305"/>
    <polyline points="623.622,54.8031 661.4173,54.8031 661.4173,54.8031 661.4173,92.5984 661.4173,92.5984 623.622,92.5984 623.622,92.5984 585.8268,92.5984 585.8268,92.5984 548.0315,92.5984 548.0315,92.5984 510.2362,92.5984 510.2362,92.5984 472.4409,92.5984 472.4409,92.5984 434.6457,92.5984 434.6457,92.5984 396.8504,92.5984 396.8504,92.5984 359.0551,92.5984 359.0551,92.5984 359.0551,130.3937 359.0551,130.3937 396.8504,130.3937 396.8504,130.3937 396.8504,92.5984"/>
    <polyline points="661.4173,17.0079 699.2126,17.0079 699.2126,17.0079 699.2126,54.8031 699.2126,54.8031 661.4173,54.8031 661.4173,54.8031 661.4173,17.0079 661.4173,17.0079 623.622,17.0079"/>
    <polyline points="649.0822,28.4055 640.9572,28.4055 640.9572,28.4055 640.9572,41.5305 640.9572,41.5305 649.0822,41.5305"/>
    <line x1="640.9572" x2="645.9572" y1="34.6555" y2="34.6555"/>
    <polyline points="667.3696,25.4897 667.3696,18.9272 667.3696,18.9272 664.2446,23.3022 664.2446,23.3022 668.9321,23.3022"/>
    <polyline points="678.44,34.6555 684.065,34.6555 684.065,34.6555 685.94,34.0305 685.94,34.0305 686.565,33.4055 686.565,33.4055 687.19,32.1555 687.19,32.1555 687.19,30.9055 687.19,30.9055 686.565,29.6555 686.565,29.6555 685.94,29.0305 685.94,29.0305 684.065,28.4055 684.065,28.4055 678.44,28.4055 678.44,28.4055 678.44,41.5305"/>
    <line x1="682.815" x2="687.19" y1="34.6555" y2="41.5305"/>
    <polyline points="434.6457,92.5984 434.6457,130.3937 434.6457,130.3937 434.6457,168.189 434.6457,168.189 434.6457,205.9843 434.6457,205.9843 472.4409,205.9843 472.4409,205.9843 510.2362,205.9843 510.2362,205.9843 510.2362,168.189 510.2362,168.189 548.0315,168.189 548.0315,168.189 585.8268,168.189 585.8268,168.189 623.622,168.189 623.622,168.189 661.4173,168.189 661.4173,168.189 699.2126,168.189 699.2126,168.189 699.2126,130.3937 699.2126,130.3937 699.2126,92.5984 699.2126,92.5984 699.2126,54.8031 699.2126,54.8031 737.0079,54.8031 737.0079,54.8031 737.0079,17.0079 737.0079,17.0079 699.2126,17.0079"/>
    <polyline points="724.6727,28.4055 716.5477,28.4055 716.5477,28.4055 716.5477,41.5305 716.5477,41.5305 724.6727,41.5305"/>
    <line x1="716.5477" x2="721.5477" y1="34.6555" y2="34.6555"/>
    <polyline points="737.0079,54.8031 774.8031,54.8031 774.8031,54.8031 774.8031,17.0079 774.8031,17.0079 737.0079,17.0079"/>
    <polyline points="762.7805,28.4055 762.7805,41.5305 762.7805,41.5305 754.0305,28.4055 754.0305,28.4055 754.0305,41.5305"/>
    <polyline points="25.4749,56.7224 22.3499,56.7224 22.3499,56.7224 22.0374,59.5349 22.0374,59.5349 22.3499,59.2224 22.3499,59.2224 23.2874,58.9099 23.2874,58.9099 24.2249,58.9099 24.2249,58.9099 25.1624,59.2224 25.1624,59.2224 25.7874,59.8474 25.7874,59.8474 26.0999,60.7849 26.0999,60.7849 26.0999,61.4099 26.0999,61.4099 25.7874,62.3474 25.7874,62.3474 25.1624,62.9724 25.1624,62.9724 24.2249,63.2849 24.2249,63.2849 23.2874,63.2849 23.2874,63.2849 22.3499,62.9724 22.3499,62.9724 22.0374,62.6599 22.0374,62.6599 21.7249,62.0349"/>
    <line x1="38.4203" x2="38.4203" y1="66.2008" y2="79.3258"/>
    <line x1="34.0453" x2="42.7953" y1="66.2008" y2="66.2008"/>
    <polyline points="56.6929,92.5984 94.4882,92.5984 94.4882,92.5984 132.2835,92.5984 132.2835,92.5984 132.2835,54.8031"/>
    <line x1="94.4882" x2="94.4882" y1="92.5984" y2="54.8031"/>
    <polyline points="82.1531,66.2008 74.0281,66.2008 74.0281,66.2008 74.0281,79.3258 74.0281,79.3258 82.1531,79.3258"/>
    <line x1="74.0281" x2="79.0281" y1="72.4508" y2="72.4508"/>
    <polyline points="111.5108,72.4508 117.1358,72.4508 117.1358,72.4508 119.0108,71.8258 119.0108,71.8258 119.6358,71.2008 119.6358,71.2008 120.2608,69.9508 120.2608,69.9508 120.2608,68.7008 120.2608,68.7008 119.6358,67.4508 119.6358,67.4508 119.0108,66.8258 119.0108,66.8258 117.1358,66.2008 117.1358,66.2008 111.5108,66.2008 111.5108,66.2008 111.5108,79.3258"/>
    <line x1="115.8858" x2="120.2608" y1="72.4508" y2="79.3258"/>
    <polyline points="132.2835,92.5984 170.0787,92.5984 170.0787,92.5984 170.0787,130.3937 170.0787,130.3937 170.0787,168.189 170.0787,168.189 170.0787,205.9843 170.0787,205.9843 132.2835,205.9843 132.2835,205.9843 94.4882,205.9843 94.4882,205.9843 94.4882,243.7795 94.4882,243.7795 132.2835,243.7795 132.2835,243.7795 170.0787,243.7795 170.0787,243.7795 207.874,243.7795 207.874,243.7795 245.6693,243.7795 245.6693,243.7795 245.6693,205.9843 245.6693,205.9843 207.874,205.9843 207.874,205.9843 207.874,168.189 207.874,168.189 170.0787,168.189 170.0787,168.189 132.2835,168.189 132.2835,168.189 132.2835,130.3937"/>
    <polyline points="149.3061,72.4508 154.9311,72.4508 154.9311,72.4508 156.8061,71.8258 156.8061,71.8258 157.4311,71.2008 157.4311,71.2008 158.0561,69.9508 158.0561,69.9508 158.0561,68.7008 158.0561,68.7008 157.4311,67.4508 157.4311,67.4508 156.8061,66.8258 156.8061,66.8258 154.9311,66.2008 154.9311,66.2008 149.3061,66.2008 149.3061,66.2008 149.3061,79.3258"/>
    <line x1="153.6811" x2="158.0561" y1="72.4508" y2="79.3258"/>
    <polyline points="194.6014,79.3258 189.6014,66.2008 189.6014,66.2008 184.6014,79.3258"/>
    <line x1="186.4764" x2="192.7264" y1="74.9508" y2="74.9508"/>
    <polyline points="233.0217,68.0758 231.7717,66.8258 231.7717,66.8258 229.8967,66.2008 229.8967,66.2008 227.3967,66.2008 227.3967,66.2008 225.5217,66.8258 225.5217,66.8258 224.2717,68.0758 224.2717,68.0758 224.2717,69.3258 224.2717,69.3258 224.8967,70.5758 224.8967,70.5758 225.5217,71.2008 225.5217,71.2008 226.7717,71.8258 226.7717,71.8258 230.5217,73.0758 230.5217,73.0758 231.7717,73.7008 231.7717,73.7008 232.3967,74.3258 232.3967,74.3258 233.0217,75.5758 233.0217,75.5758 233.0217,77.4508 233.0217,77.4508 231.7717,78.7008 231.7717,78.7008 229.8967,79.3258 229.8967,79.3258 227.3967,79.3258 227.3967,79.3258 225.5217,78.7008 225.5217,78.7008 224.2717,77.4508"/>
    <line x1="340.7825" x2="340.7825" y1="66.2008" y2="79.3258"/>
    <line x1="336.4075" x2="345.1575" y1="66.2008" y2="66.2008"/>
    <polyline points="699.2126,130.3937 661.4173,130.3937 661.4173,130.3937 661.4173,92.5984 661.4173,92.5984 699.2126,92.5984"/>
    <polyline points="686.8775,66.2008 678.7525,66.2008 678.7525,66.2008 678.7525,79.3258 678.7525,79.3258 686.8775,79.3258"/>
    <line x1="678.7525" x2="683.7525" y1="72.4508" y2="72.4508"/>
    <line x1="187.1014" x2="187.1014" y1="103.9961" y2="117.1211"/>
    <line x1="195.8514" x2="187.1014" y1="103.9961" y2="112.7461"/>
    <line x1="190.2264" x2="195.8514" y1="109.6211" y2="117.1211"/>
    <polygon points="245.6693,92.5984 245.6693,130.3937 245.6693,130.3937 283.4646,130.3937 283.4646,130.3937 321.2598,130.3937 321.2598,130.3937 321.2598,92.5984 321.2598,92.5984 283.4646,92.5984 283.4646,92.5984"/>
    <line x1="283.4646" x2="283.4646" y1="130.3937" y2="92.5984"/>
    <polyline points="252.5591,95.4552 252.2466,94.8302 252.2466,94.8302 251.3091,94.5177 251.3091,94.5177 250.6841,94.5177 250.6841,94.5177 249.7466,94.8302 249.7466,94.8302 249.1216,95.7677 249.1216,95.7677 248.8091,97.3302 248.8091,97.3302 248.8091,98.8927 248.8091,98.8927 249.1216,100.1427 249.1216,100.1427 249.7466,100.7677 249.7466,100.7677 250.6841,101.0802 250.6841,101.0802 250.9966,101.0802 250.9966,101.0802 251.9341,100.7677 251.9341,100.7677 252.5591,100.1427 252.5591,100.1427 252.8716,99.2052 252.8716,99.2052 252.8716,98.8927 252.8716,98.8927 252.5591,97.9552 252.5591,97.9552 251.9341,97.3302 251.9341,97.3302 250.9966,97.0177 250.9966,97.0177 250.6841,97.0177 250.6841,97.0177 249.7466,97.3302 249.7466,97.3302 249.1216,97.9552 249.1216,97.9552 248.8091,98.8927"/>
    <polyline points="271.1294,103.9961 263.0044,103.9961 263.0044,103.9961 263.0044,117.1211"/>
    <line x1="263.0044" x2="268.0044" y1="110.2461" y2="110.2461"/>
    <polyline points="301.1122,103.9961 301.1122,117.1211 301.1122,117.1211 308.6122,117.1211"/>
    <polyline points="585.8268,168.189 585.8268,205.9843 585.8268,205.9843 548.0315,205.9843 548.0315,205.9843 510.2362,205.9843 510.2362,205.9843 510.2362,243.7795 510.2362,243.7795 472.4409,243.7795 472.4409,243.7795 434.6457,243.7795 434.6457,243.7795 434.6457,281.5748 434.6457,281.5748 396.8504,281.5748 396.8504,281.5748 396.8504,243.7795 396.8504,243.7795 434.6457,243.7795 434.6457,243.7795 434.6457,205.9843 434.6457,205.9843 396.8504,205.9843 396.8504,205.9843 396.8504,243.7795 396.8504,243.7795 359.0551,243.7795 359.0551,243.7795 321.2598,243.7795 321.2598,243.7795 321.2598,205.9843 321.2598,205.9843 321.2598,168.189 321.2598,168.189 321.2598,130.3937 321.2598,130.3937 359.0551,130.3937 359.0551,130.3937 359.0551,168.189 359.0551,168.189 321.2598,168.189 321.2598,168.189 283.4646,168.189 283.4646,168.189 283.4646,205.9843 283.4646,205.9843 245.6693,205.9843"/>
    <polyline points="346.72,103.9961 338.595,103.9961 338.595,103.9961 338.595,117.1211 338.595,117.1211 346.72,117.1211"/>
    <line x1="338.595" x2="343.595" y1="110.2461" y2="110.2461"/>
    <polyline points="384.2028,105.8711 382.9528,104.6211 382.9528,104.6211 381.0778,103.9961 381.0778,103.9961 378.5778,103.9961 378.5778,103.9961 376.7028,104.6211 376.7028,104.6211 375.4528,105.8711 375.4528,105.8711 375.4528,107.1211 375.4528,107.1211 376.0778,108.3711 376.0778,108.3711 376.7028,108.9961 376.7028,108.9961 377.9528,109.6211 377.9528,109.6211 381.7028,110.8711 381.7028,110.8711 382.9528,111.4961 382.9528,111.4961 383.5778,112.1211 383.5778,112.1211 384.2028,113.3711 384.2028,113.3711 384.2028,115.2461 384.2028,115.2461 382.9528,116.4961 382.9528,116.4961 381.0778,117.1211 381.0778,117.1211 378.5778,117.1211 378.5778,117.1211 376.7028,116.4961 376.7028,116.4961 375.4528,115.2461"/>
    <polyline points="132.2835,205.9843 132.2835,243.7795 132.2835,243.7795 132.2835,281.5748 132.2835,281.5748 132.2835,319.3701 132.2835,319.3701 170.0787,319.3701 170.0787,319.3701 207.874,319.3701 207.874,319.3701 245.6693,319.3701 245.6693,319.3701 283.4646,319.3701 283.4646,319.3701 283.4646,357.1654 283.4646,357.1654 321.2598,357.1654 321.2598,357.1654 321.2598,319.3701 321.2598,319.3701 321.2598,281.5748 321.2598,281.5748 321.2598,243.7795 321.2598,243.7795 283.4646,243.7795 283.4646,243.7795 283.4646,205.9843 283.4646,205.9843 321.2598,205.9843 321.2598,205.9843 359.0551,205.9843 359.0551,205.9843 396.8504,205.9843 396.8504,205.9843 396.8504,168.189 396.8504,168.189 396.8504,130.3937 396.8504,130.3937 434.6457,130.3937 434.6457,130.3937 472.4409,130.3937 472.4409,130.3937 510.2362,130.3937 510.2362,130.3937 548.0315,130.3937 548.0315,130.3937 548.0315,92.5984"/>
    <polyline points="399.6777,94.5177 404.0527,94.5177 404.0527,94.5177 400.9277,101.0802"/>
    <polyline points="421.998,105.8711 420.748,104.6211 420.748,104.6211 418.873,103.9961 418.873,103.9961 416.373,103.9961 416.373,103.9961 414.498,104.6211 414.498,104.6211 413.248,105.8711 413.248,105.8711 413.248,107.1211 413.248,107.1211 413.873,108.3711 413.873,108.3711 414.498,108.9961 414.498,108.9961 415.748,109.6211 415.748,109.6211 419.498,110.8711 419.498,110.8711 420.748,111.4961 420.748,111.4961 421.373,112.1211 421.373,112.1211 421.998,113.3711 421.998,113.3711 421.998,115.2461 421.998,115.2461 420.748,116.4961 420.748,116.4961 418.873,117.1211 418.873,117.1211 416.373,117.1211 416.373,117.1211 414.498,116.4961 414.498,116.4961 413.248,115.2461"/>
    <line x1="472.4409" x2="472.4409" y1="130.3937" y2="92.5984"/>
    <polyline points="460.1058,103.9961 451.9808,103.9961 451.9808,103.9961 451.9808,117.1211 451.9808,117.1211 460.1058,117.1211"/>
    <line x1="451.9808" x2="456.9808" y1="110.2461" y2="110.2461"/>
    <line x1="510.2362" x2="510.2362" y1="130.3937" y2="92.5984"/>
    <polyline points="498.2136,103.9961 498.2136,117.1211 498.2136,117.1211 489.4636,103.9961 489.4636,103.9961 489.4636,117.1211"/>
    <polyline points="535.6964,107.1211 535.0714,105.8711 535.0714,105.8711 533.8214,104.6211 533.8214,104.6211 532.5714,103.9961 532.5714,103.9961 530.0714,103.9961 530.0714,103.9961 528.8214,104.6211 528.8214,104.6211 527.5714,105.8711 527.5714,105.8711 526.9464,107.1211 526.9464,107.1211 526.3214,108.9961 526.3214,108.9961 526.3214,112.1211 526.3214,112.1211 526.9464,113.9961 526.9464,113.9961 527.5714,115.2461 527.5714,115.2461 528.8214,116.4961 528.8214,116.4961 530.0714,117.1211 530.0714,117.1211 532.5714,117.1211 532.5714,117.1211 533.8214,116.4961 533.8214,116.4961 535.0714,115.2461 535.0714,115.2461 535.6964,113.9961 535.6964,113.9961 535.6964,112.1211 535.6964,112.1211 532.5714,112.1211"/>
    <polyline points="548.0315,130.3937 585.8268,130.3937 585.8268,130.3937 585.8268,92.5984"/>
    <polyline points="573.4916,103.9961 565.3666,103.9961 565.3666,103.9961 565.3666,117.1211 565.3666,117.1211 573.4916,117.1211"/>
    <line x1="565.3666" x2="570.3666" y1="110.2461" y2="110.2461"/>
    <polyline points="585.8268,130.3937 623.622,130.3937 623.622,130.3937 661.4173,130.3937 661.4173,130.3937 661.4173,168.189 661.4173,168.189 661.4173,205.9843 661.4173,205.9843 661.4173,243.7795 661.4173,243.7795 699.2126,243.7795 699.2126,243.7795 699.2126,205.9843 699.2126,205.9843 699.2126,168.189 699.2126,168.189 737.0079,168.189 737.0079,168.189 774.8031,168.189 774.8031,168.189 774.8031,130.3937 774.8031,130.3937 774.8031,92.5984 774.8031,92.5984 737.0079,92.5984 737.0079,92.5984 737.0079,130.3937 737.0079,130.3937 737.0079,168.189 737.0079,168.189 737.0079,205.9843 737.0079,205.9843 737.0079,243.7795 737.0079,243.7795 774.8031,243.7795 774.8031,243.7795 774.8031,205.9843 774.8031,205.9843 774.8031,168.189"/>
    <line x1="623.622" x2="623.622" y1="130.3937" y2="92.5984"/>
    <polyline points="603.4744,103.9961 603.4744,117.1211 603.4744,117.1211 610.9744,117.1211"/>
    <polyline points="640.6447,103.9961 640.6447,113.3711 640.6447,113.3711 641.2697,115.2461 641.2697,115.2461 642.5197,116.4961 642.5197,116.4961 644.3947,117.1211 644.3947,117.1211 645.6447,117.1211 645.6447,117.1211 647.5197,116.4961 647.5197,116.4961 648.7697,115.2461 648.7697,115.2461 649.3947,113.3711 649.3947,113.3711 649.3947,103.9961"/>
    <line x1="678.44" x2="678.44" y1="103.9961" y2="117.1211"/>
    <line x1="687.19" x2="678.44" y1="103.9961" y2="112.7461"/>
    <line x1="681.565" x2="687.19" y1="109.6211" y2="117.1211"/>
    <line x1="737.0079" x2="774.8031" y1="130.3937" y2="130.3937"/>
    <polygon points="741.3976,94.5177 740.4601,94.8302 740.4601,94.8302 740.1476,95.4552 740.1476,95.4552 740.1476,96.0802 740.1476,96.0802 740.4601,96.7052 740.4601,96.7052 741.0851,97.0177 741.0851,97.0177 742.3351,97.3302 742.3351,97.3302 743.2726,97.6427 743.2726,97.6427 743.8976,98.2677 743.8976,98.2677 744.2101,98.8927 744.2101,98.8927 744.2101,99.8302 744.2101,99.8302 743.8976,100.4552 743.8976,100.4552 743.5851,100.7677 743.5851,100.7677 742.6476,101.0802 742.6476,101.0802 741.3976,101.0802 741.3976,101.0802 740.4601,100.7677 740.4601,100.7677 740.1476,100.4552 740.1476,100.4552 739.8351,99.8302 739.8351,99.8302 739.8351,98.8927 739.8351,98.8927 740.1476,98.2677 740.1476,98.2677 740.7726,97.6427 740.7726,97.6427 741.7101,97.3302 741.7101,97.3302 742.9601,97.0177 742.9601,97.0177 743.5851,96.7052 743.5851,96.7052 743.8976,96.0802 743.8976,96.0802 743.8976,95.4552 743.8976,95.4552 743.5851,94.8302 743.5851,94.8302 742.6476,94.5177 742.6476,94.5177"/>
    <line x1="754.0305" x2="754.0305" y1="103.9961" y2="117.1211"/>
    <line x1="762.7805" x2="754.0305" y1="103.9961" y2="112.7461"/>
    <line x1="757.1555" x2="762.7805" y1="109.6211" y2="117.1211"/>
    <polyline points="18.8976,168.189 56.6929,168.189 56.6929,168.189 94.4882,168.189 94.4882,168.189 94.4882,130.3937"/>
    <polyline points="25.7874,134.5005 25.4749,135.438 25.4749,135.438 24.8499,136.063 24.8499,136.063 23.9124,136.3755 23.9124,136.3755 23.5999,136.3755 23.5999,136.3755 22.6624,136.063 22.6624,136.063 22.0374,135.438 22.0374,135.438 21.7249,134.5005 21.7249,134.5005 21.7249,134.188 21.7249,134.188 22.0374,133.2505 22.0374,133.2505 22.6624,132.6255 22.6624,132.6255 23.5999,132.313 23.5999,132.313 23.9124,132.313 23.9124,132.313 24.8499,132.6255 24.8499,132.6255 25.4749,133.2505 25.4749,133.2505 25.7874,134.5005 25.7874,134.5005 25.7874,136.063 25.7874,136.063 25.4749,137.6255 25.4749,137.6255 24.8499,138.563 24.8499,138.563 23.9124,138.8755 23.9124,138.8755 23.2874,138.8755 23.2874,138.8755 22.3499,138.563 22.3499,138.563 22.0374,137.938"/>
    <polyline points="36.5453,141.7913 36.5453,154.9163 36.5453,154.9163 44.0453,154.9163"/>
    <polyline points="81.2156,154.9163 76.2156,141.7913 76.2156,141.7913 71.2156,154.9163"/>
    <line x1="73.0906" x2="79.3406" y1="150.5413" y2="150.5413"/>
    <line x1="94.4882" x2="132.2835" y1="168.189" y2="168.189"/>
    <polygon points="111.5108,141.7913 111.5108,154.9163 111.5108,154.9163 115.8858,154.9163 115.8858,154.9163 117.7608,154.2913 117.7608,154.2913 119.0108,153.0413 119.0108,153.0413 119.6358,151.7913 119.6358,151.7913 120.2608,149.9163 120.2608,149.9163 120.2608,146.7913 120.2608,146.7913 119.6358,144.9163 119.6358,144.9163 119.0108,143.6663 119.0108,143.6663 117.7608,142.4163 117.7608,142.4163 115.8858,141.7913 115.8858,141.7913"/>
    <polygon points="149.3061,141.7913 149.3061,154.9163 149.3061,154.9163 153.6811,154.9163 153.6811,154.9163 155.5561,154.2913 155.5561,154.2913 156.8061,153.0413 156.8061,153.0413 157.4311,151.7913 157.4311,151.7913 158.0561,149.9163 158.0561,149.9163 158.0561,146.7913 158.0561,146.7913 157.4311,144.9163 157.4311,144.9163 156.8061,143.6663 156.8061,143.6663 155.5561,142.4163 155.5561,142.4163 153.6811,141.7913 153.6811,141.7913"/>
    <polyline points="195.5389,141.7913 187.4139,141.7913 187.4139,141.7913 187.4139,154.9163 187.4139,154.9163 195.5389,154.9163"/>
    <line x1="187.4139" x2="192.4139" y1="148.0413" y2="148.0413"/>
    <polyline points="224.8967,148.0413 230.5217,148.0413 230.5217,148.0413 232.3967,147.4163 232.3967,147.4163 233.0217,146.7913 233.0217,146.7913 233.6467,145.5413 233.6467,145.5413 233.6467,144.2913 233.6467,144.2913 233.0217,143.0413 233.0217,143.0413 232.3967,142.4163 232.3967,142.4163 230.5217,141.7913 230.5217,141.7913 224.8967,141.7913 224.8967,141.7913 224.8967,154.9163"/>
    <line x1="229.2717" x2="233.6467" y1="148.0413" y2="154.9163"/>
    <polyline points="338.2825,148.0413 343.9075,148.0413 343.9075,148.0413 345.7825,147.4163 345.7825,147.4163 346.4075,146.7913 346.4075,146.7913 347.0325,145.5413 347.0325,145.5413 347.0325,144.2913 347.0325,144.2913 346.4075,143.0413 346.4075,143.0413 345.7825,142.4163 345.7825,142.4163 343.9075,141.7913 343.9075,141.7913 338.2825,141.7913 338.2825,141.7913 338.2825,154.9163"/>
    <line x1="342.6575" x2="347.0325" y1="148.0413" y2="154.9163"/>
    <line x1="396.8504" x2="434.6457" y1="168.189" y2="168.189"/>
    <polyline points="421.373,154.9163 416.373,141.7913 416.373,141.7913 411.373,154.9163"/>
    <line x1="413.248" x2="419.498" y1="150.5413" y2="150.5413"/>
    <line x1="678.44" x2="678.44" y1="141.7913" y2="154.9163"/>
    <line x1="687.19" x2="678.44" y1="141.7913" y2="150.5413"/>
    <line x1="681.565" x2="687.19" y1="147.4163" y2="154.9163"/>
    <line x1="758.4055" x2="758.4055" y1="141.7913" y2="154.9163"/>
    <line x1="40.2953" x2="40.2953" y1="179.5866" y2="192.7116"/>
    <polyline points="170.0787,243.7795 170.0787,205.9843 170.0787,205.9843 207.874,205.9843 207.874,205.9843 207.874,243.7795"/>
    <polyline points="195.8514,179.5866 195.8514,192.7116 195.8514,192.7116 187.1014,179.5866 187.1014,179.5866 187.1014,192.7116"/>
    <polyline points="287.2293,171.3583 287.8543,171.0458 287.8543,171.0458 288.7918,170.1083 288.7918,170.1083 288.7918,176.6708"/>
    <polygon points="294.4168,170.1083 293.4793,170.4208 293.4793,170.4208 292.8543,171.3583 292.8543,171.3583 292.5418,172.9208 292.5418,172.9208 292.5418,173.8583 292.5418,173.8583 292.8543,175.4208 292.8543,175.4208 293.4793,176.3583 293.4793,176.3583 294.4168,176.6708 294.4168,176.6708 295.0418,176.6708 295.0418,176.6708 295.9793,176.3583 295.9793,176.3583 296.6043,175.4208 296.6043,175.4208 296.9168,173.8583 296.9168,173.8583 296.9168,172.9208 296.9168,172.9208 296.6043,171.3583 296.6043,171.3583 295.9793,170.4208 295.9793,170.4208 295.0418,170.1083 295.0418,170.1083"/>
    <polyline points="308.9247,182.7116 308.2997,181.4616 308.2997,181.4616 307.0497,180.2116 307.0497,180.2116 305.7997,179.5866 305.7997,179.5866 303.2997,179.5866 303.2997,179.5866 302.0497,180.2116 302.0497,180.2116 300.7997,181.4616 300.7997,181.4616 300.1747,182.7116 300.1747,182.7116 299.5497,184.5866 299.5497,184.5866 299.5497,187.7116 299.5497,187.7116 300.1747,189.5866 300.1747,189.5866 300.7997,190.8366 300.7997,190.8366 302.0497,192.0866 302.0497,192.0866 303.2997,192.7116 303.2997,192.7116 305.7997,192.7116 305.7997,192.7116 307.0497,192.0866 307.0497,192.0866 308.2997,190.8366 308.2997,190.8366 308.9247,189.5866 308.9247,189.5866 308.9247,187.7116 308.9247,187.7116 305.7997,187.7116"/>
    <polyline points="413.873,185.8366 419.498,185.8366 419.498,185.8366 421.373,185.2116 421.373,185.2116 421.998,184.5866 421.998,184.5866 422.623,183.3366 422.623,183.3366 422.623,182.0866 422.623,182.0866 421.998,180.8366 421.998,180.8366 421.373,180.2116 421.373,180.2116 419.498,179.5866 419.498,179.5866 413.873,179.5866 413.873,179.5866 413.873,192.7116"/>
    <line x1="418.248" x2="422.623" y1="185.8366" y2="192.7116"/>
    <line x1="548.0315" x2="548.0315" y1="205.9843" y2="168.189"/>
    <polyline points="514.001,171.3583 514.626,171.0458 514.626,171.0458 515.5635,170.1083 515.5635,170.1083 515.5635,176.6708"/>
    <polyline points="520.251,171.3583 520.876,171.0458 520.876,171.0458 521.8135,170.1083 521.8135,170.1083 521.8135,176.6708"/>
    <polyline points="524.7589,179.5866 529.7589,192.7116 529.7589,192.7116 534.7589,179.5866"/>
    <polyline points="573.4916,179.5866 565.3666,179.5866 565.3666,179.5866 565.3666,192.7116 565.3666,192.7116 573.4916,192.7116"/>
    <line x1="565.3666" x2="570.3666" y1="185.8366" y2="185.8366"/>
    <polyline points="585.8268,205.9843 623.622,205.9843 623.622,205.9843 623.622,168.189"/>
    <polyline points="603.4744,179.5866 603.4744,192.7116 603.4744,192.7116 610.9744,192.7116"/>
    <polyline points="623.622,205.9843 661.4173,205.9843 661.4173,205.9843 699.2126,205.9843 699.2126,205.9843 737.0079,205.9843 737.0079,205.9843 774.8031,205.9843"/>
    <polyline points="641.2697,179.5866 641.2697,192.7116 641.2697,192.7116 648.7697,192.7116"/>
    <polyline points="686.8775,179.5866 678.7525,179.5866 678.7525,179.5866 678.7525,192.7116 678.7525,192.7116 686.8775,192.7116"/>
    <line x1="678.7525" x2="683.7525" y1="185.8366" y2="185.8366"/>
    <line x1="716.2352" x2="716.2352" y1="179.5866" y2="192.7116"/>
    <line x1="724.9852" x2="716.2352" y1="179.5866" y2="188.3366"/>
    <line x1="719.3602" x2="724.9852" y1="185.2116" y2="192.7116"/>
    <polyline points="762.468,179.5866 754.343,179.5866 754.343,179.5866 754.343,192.7116 754.343,192.7116 762.468,192.7116"/>
    <line x1="754.343" x2="759.343" y1="185.8366" y2="185.8366"/>
    <polyline points="18.8976,205.9843 18.8976,243.7795 18.8976,243.7795 56.6929,243.7795 56.6929,243.7795 56.6929,205.9843"/>
    <polyline points="44.3578,217.3819 36.2328,217.3819 36.2328,217.3819 36.2328,230.5069"/>
    <line x1="36.2328" x2="41.2328" y1="223.6319" y2="223.6319"/>
    <polyline points="98.253,209.1535 98.878,208.841 98.878,208.841 99.8155,207.9035 99.8155,207.9035 99.8155,214.466"/>
    <polyline points="103.878,209.466 103.878,209.1535 103.878,209.1535 104.1905,208.5285 104.1905,208.5285 104.503,208.216 104.503,208.216 105.128,207.9035 105.128,207.9035 106.378,207.9035 106.378,207.9035 107.003,208.216 107.003,208.216 107.3155,208.5285 107.3155,208.5285 107.628,209.1535 107.628,209.1535 107.628,209.7785 107.628,209.7785 107.3155,210.4035 107.3155,210.4035 106.6905,211.341 106.6905,211.341 103.5655,214.466 103.5655,214.466 107.9405,214.466"/>
    <polyline points="120.8858,230.5069 120.8858,217.3819 120.8858,217.3819 115.8858,230.5069 115.8858,230.5069 110.8858,217.3819 110.8858,217.3819 110.8858,230.5069"/>
    <line x1="153.6811" x2="153.6811" y1="217.3819" y2="230.5069"/>
    <polyline points="195.2264,219.2569 193.9764,218.0069 193.9764,218.0069 192.1014,217.3819 192.1014,217.3819 189.6014,217.3819 189.6014,217.3819 187.7264,218.0069 187.7264,218.0069 186.4764,219.2569 186.4764,219.2569 186.4764,220.5069 186.4764,220.5069 187.1014,221.7569 187.1014,221.7569 187.7264,222.3819 187.7264,222.3819 188.9764,223.0069 188.9764,223.0069 192.7264,224.2569 192.7264,224.2569 193.9764,224.8819 193.9764,224.8819 194.6014,225.5069 194.6014,225.5069 195.2264,226.7569 195.2264,226.7569 195.2264,228.6319 195.2264,228.6319 193.9764,229.8819 193.9764,229.8819 192.1014,230.5069 192.1014,230.5069 189.6014,230.5069 189.6014,230.5069 187.7264,229.8819 187.7264,229.8819 186.4764,228.6319"/>
    <polyline points="222.3967,217.3819 227.3967,230.5069 227.3967,230.5069 232.3967,217.3819"/>
    <polyline points="245.6693,243.7795 283.4646,243.7795 283.4646,243.7795 283.4646,281.5748 283.4646,281.5748 283.4646,319.3701 283.4646,319.3701 321.2598,319.3701"/>
    <polyline points="271.1294,217.3819 263.0044,217.3819 263.0044,217.3819 263.0044,230.5069 263.0044,230.5069 271.1294,230.5069"/>
    <line x1="263.0044" x2="268.0044" y1="223.6319" y2="223.6319"/>
    <polyline points="300.4872,223.6319 306.1122,223.6319 306.1122,223.6319 307.9872,223.0069 307.9872,223.0069 308.6122,222.3819 308.6122,222.3819 309.2372,221.1319 309.2372,221.1319 309.2372,219.8819 309.2372,219.8819 308.6122,218.6319 308.6122,218.6319 307.9872,218.0069 307.9872,218.0069 306.1122,217.3819 306.1122,217.3819 300.4872,217.3819 300.4872,217.3819 300.4872,230.5069"/>
    <line x1="304.8622" x2="309.2372" y1="223.6319" y2="230.5069"/>
    <line x1="359.0551" x2="359.0551" y1="243.7795" y2="205.9843"/>
    <polyline points="346.4075,219.2569 345.1575,218.0069 345.1575,218.0069 343.2825,217.3819 343.2825,217.3819 340.7825,217.3819 340.7825,217.3819 338.9075,218.0069 338.9075,218.0069 337.6575,219.2569 337.6575,219.2569 337.6575,220.5069 337.6575,220.5069 338.2825,221.7569 338.2825,221.7569 338.9075,222.3819 338.9075,222.3819 340.1575,223.0069 340.1575,223.0069 343.9075,224.2569 343.9075,224.2569 345.1575,224.8819 345.1575,224.8819 345.7825,225.5069 345.7825,225.5069 346.4075,226.7569 346.4075,226.7569 346.4075,228.6319 346.4075,228.6319 345.1575,229.8819 345.1575,229.8819 343.2825,230.5069 343.2825,230.5069 340.7825,230.5069 340.7825,230.5069 338.9075,229.8819 338.9075,229.8819 337.6575,228.6319"/>
    <line x1="378.5778" x2="378.5778" y1="217.3819" y2="230.5069"/>
    <line x1="374.2028" x2="382.9528" y1="217.3819" y2="217.3819"/>
    <polyline points="421.373,230.5069 416.373,217.3819 416.373,217.3819 411.373,230.5069"/>
    <line x1="413.248" x2="419.498" y1="226.1319" y2="226.1319"/>
    <line x1="472.4409" x2="472.4409" y1="243.7795" y2="205.9843"/>
    <polyline points="460.4183,217.3819 460.4183,230.5069 460.4183,230.5069 451.6683,217.3819 451.6683,217.3819 451.6683,230.5069"/>
    <polygon points="489.4636,217.3819 489.4636,230.5069 489.4636,230.5069 493.8386,230.5069 493.8386,230.5069 495.7136,229.8819 495.7136,229.8819 496.9636,228.6319 496.9636,228.6319 497.5886,227.3819 497.5886,227.3819 498.2136,225.5069 498.2136,225.5069 498.2136,222.3819 498.2136,222.3819 497.5886,220.5069 497.5886,220.5069 496.9636,219.2569 496.9636,219.2569 495.7136,218.0069 495.7136,218.0069 493.8386,217.3819 493.8386,217.3819"/>
    <polyline points="678.44,223.6319 684.065,223.6319 684.065,223.6319 685.94,223.0069 685.94,223.0069 686.565,222.3819 686.565,222.3819 687.19,221.1319 687.19,221.1319 687.19,219.8819 687.19,219.8819 686.565,218.6319 686.565,218.6319 685.94,218.0069 685.94,218.0069 684.065,217.3819 684.065,217.3819 678.44,217.3819 678.44,217.3819 678.44,230.5069"/>
    <line x1="682.815" x2="687.19" y1="223.6319" y2="230.5069"/>
    <polyline points="763.4055,230.5069 763.4055,217.3819 763.4055,217.3819 758.4055,230.5069 758.4055,230.5069 753.4055,217.3819 753.4055,217.3819 753.4055,230.5069"/>
    <polyline points="18.8976,243.7795 18.8976,281.5748 18.8976,281.5748 56.6929,281.5748 56.6929,281.5748 56.6929,243.7795"/>
    <line x1="38.4203" x2="38.4203" y1="255.1772" y2="268.3022"/>
    <line x1="34.0453" x2="42.7953" y1="255.1772" y2="255.1772"/>
    <polyline points="94.4882,243.7795 94.4882,281.5748 94.4882,281.5748 132.2835,281.5748"/>
    <polygon points="114.0108,255.1772 112.7608,255.8022 112.7608,255.8022 111.5108,257.0522 111.5108,257.0522 110.8858,258.3022 110.8858,258.3022 110.2608,260.1772 110.2608,260.1772 110.2608,263.3022 110.2608,263.3022 110.8858,265.1772 110.8858,265.1772 111.5108,266.4272 111.5108,266.4272 112.7608,267.6772 112.7608,267.6772 114.0108,268.3022 114.0108,268.3022 116.5108,268.3022 116.5108,268.3022 117.7608,267.6772 117.7608,267.6772 119.0108,266.4272 119.0108,266.4272 119.6358,265.1772 119.6358,265.1772 120.2608,263.3022 120.2608,263.3022 120.2608,260.1772 120.2608,260.1772 119.6358,258.3022 119.6358,258.3022 119.0108,257.0522 119.0108,257.0522 117.7608,255.8022 117.7608,255.8022 116.5108,255.1772 116.5108,255.1772"/>
    <line x1="283.4646" x2="321.2598" y1="281.5748" y2="281.5748"/>
    <polygon points="302.9872,255.1772 301.7372,255.8022 301.7372,255.8022 300.4872,257.0522 300.4872,257.0522 299.8622,258.3022 299.8622,258.3022 299.2372,260.1772 299.2372,260.1772 299.2372,263.3022 299.2372,263.3022 299.8622,265.1772 299.8622,265.1772 300.4872,266.4272 300.4872,266.4272 301.7372,267.6772 301.7372,267.6772 302.9872,268.3022 302.9872,268.3022 305.4872,268.3022 305.4872,268.3022 306.7372,267.6772 306.7372,267.6772 307.9872,266.4272 307.9872,266.4272 308.6122,265.1772 308.6122,265.1772 309.2372,263.3022 309.2372,263.3022 309.2372,260.1772 309.2372,260.1772 308.6122,258.3022 308.6122,258.3022 307.9872,257.0522 307.9872,257.0522 306.7372,255.8022 306.7372,255.8022 305.4872,255.1772 305.4872,255.1772"/>
    <line x1="413.873" x2="413.873" y1="255.1772" y2="268.3022"/>
    <line x1="422.623" x2="422.623" y1="255.1772" y2="268.3022"/>
    <line x1="413.873" x2="422.623" y1="261.4272" y2="261.4272"/>
    <polygon points="548.0315,243.7795 548.0315,281.5748 548.0315,281.5748 585.8268,281.5748 585.8268,281.5748 585.8268,243.7795 585.8268,243.7795"/>
    <polyline points="551.7963,246.9488 552.4213,246.6363 552.4213,246.6363 553.3588,245.6988 553.3588,245.6988 553.3588,252.2613"/>
    <polyline points="557.7338,245.6988 561.1713,245.6988 561.1713,245.6988 559.2963,248.1988 559.2963,248.1988 560.2338,248.1988 560.2338,248.1988 560.8588,248.5113 560.8588,248.5113 561.1713,248.8238 561.1713,248.8238 561.4838,249.7613 561.4838,249.7613 561.4838,250.3863 561.4838,250.3863 561.1713,251.3238 561.1713,251.3238 560.5463,251.9488 560.5463,251.9488 559.6088,252.2613 559.6088,252.2613 558.6713,252.2613 558.6713,252.2613 557.7338,251.9488 557.7338,251.9488 557.4213,251.6363 557.4213,251.6363 557.1088,251.0113"/>
    <polyline points="573.4916,258.3022 572.8666,257.0522 572.8666,257.0522 571.6166,255.8022 571.6166,255.8022 570.3666,255.1772 570.3666,255.1772 567.8666,255.1772 567.8666,255.1772 566.6166,255.8022 566.6166,255.8022 565.3666,257.0522 565.3666,257.0522 564.7416,258.3022 564.7416,258.3022 564.1166,260.1772 564.1166,260.1772 564.1166,263.3022 564.1166,263.3022 564.7416,265.1772 564.7416,265.1772 565.3666,266.4272 565.3666,266.4272 566.6166,267.6772 566.6166,267.6772 567.8666,268.3022 567.8666,268.3022 570.3666,268.3022 570.3666,268.3022 571.6166,267.6772 571.6166,267.6772 572.8666,266.4272 572.8666,266.4272 573.4916,265.1772"/>
    <polyline points="585.8268,281.5748 623.622,281.5748 623.622,281.5748 623.622,243.7795 623.622,243.7795 585.8268,243.7795"/>
    <polyline points="611.2869,255.1772 603.1619,255.1772 603.1619,255.1772 603.1619,268.3022 603.1619,268.3022 611.2869,268.3022"/>
    <line x1="603.1619" x2="608.1619" y1="261.4272" y2="261.4272"/>
    <polyline points="623.622,281.5748 661.4173,281.5748 661.4173,281.5748 699.2126,281.5748 699.2126,281.5748 699.2126,243.7795 699.2126,243.7795 737.0079,243.7795 737.0079,243.7795 737.0079,281.5748 737.0079,281.5748 774.8031,281.5748 774.8031,281.5748 774.8031,243.7795"/>
    <polyline points="434.6457,319.3701 434.6457,357.1654 434.6457,357.1654 396.8504,357.1654 396.8504,357.1654 396.8504,319.3701 396.8504,319.3701 434.6457,319.3701 434.6457,319.3701 472.4409,319.3701 472.4409,319.3701 510.2362,319.3701 510.2362,319.3701 548.0315,319.3701 548.0315,319.3701 585.8268,319.3701 585.8268,319.3701 623.622,319.3701 623.622,319.3701 661.4173,319.3701 661.4173,319.3701 661.4173,281.5748 661.4173,281.5748 661.4173,243.7795 661.4173,243.7795 623.622,243.7795"/>
    <polyline points="649.3947,255.1772 649.3947,268.3022 649.3947,268.3022 640.6447,255.1772 640.6447,255.1772 640.6447,268.3022"/>
    <line x1="680.94" x2="680.94" y1="255.1772" y2="268.3022"/>
    <line x1="676.565" x2="685.315" y1="255.1772" y2="255.1772"/>
    <polyline points="699.2126,281.5748 737.0079,281.5748 737.0079,281.5748 737.0079,319.3701 737.0079,319.3701 699.2126,319.3701 699.2126,319.3701 699.2126,281.5748"/>
    <polyline points="722.4852,255.1772 722.4852,265.1772 722.4852,265.1772 721.8602,267.0522 721.8602,267.0522 721.2352,267.6772 721.2352,267.6772 719.9852,268.3022 719.9852,268.3022 718.7352,268.3022 718.7352,268.3022 717.4852,267.6772 717.4852,267.6772 716.8602,267.0522 716.8602,267.0522 716.2352,265.1772 716.2352,265.1772 716.2352,263.9272"/>
    <polyline points="762.468,255.1772 754.343,255.1772 754.343,255.1772 754.343,268.3022 754.343,268.3022 762.468,268.3022"/>
    <line x1="754.343" x2="759.343" y1="261.4272" y2="261.4272"/>
    <polyline points="94.4882,281.5748 94.4882,319.3701 94.4882,319.3701 132.2835,319.3701 132.2835,319.3701 132.2835,357.1654 132.2835,357.1654 170.0787,357.1654 170.0787,357.1654 170.0787,319.3701"/>
    <polyline points="111.5108,299.8474 117.1358,299.8474 117.1358,299.8474 119.0108,299.2224 119.0108,299.2224 119.6358,298.5974 119.6358,298.5974 120.2608,297.3474 120.2608,297.3474 120.2608,295.4724 120.2608,295.4724 119.6358,294.2224 119.6358,294.2224 119.0108,293.5974 119.0108,293.5974 117.1358,292.9724 117.1358,292.9724 111.5108,292.9724 111.5108,292.9724 111.5108,306.0974"/>
    <polyline points="308.9247,292.9724 300.7997,292.9724 300.7997,292.9724 300.7997,306.0974 300.7997,306.0974 308.9247,306.0974"/>
    <line x1="300.7997" x2="305.7997" y1="299.2224" y2="299.2224"/>
    <polygon points="661.4173,319.3701 699.2126,319.3701 699.2126,319.3701 699.2126,357.1654 699.2126,357.1654 661.4173,357.1654 661.4173,357.1654"/>
    <polyline points="684.69,292.9724 684.69,302.9724 684.69,302.9724 684.065,304.8474 684.065,304.8474 683.44,305.4724 683.44,305.4724 682.19,306.0974 682.19,306.0974 680.94,306.0974 680.94,306.0974 679.69,305.4724 679.69,305.4724 679.065,304.8474 679.065,304.8474 678.44,302.9724 678.44,302.9724 678.44,301.7224"/>
    <polyline points="699.2126,357.1654 737.0079,357.1654 737.0079,357.1654 737.0079,319.3701 737.0079,319.3701 774.8031,319.3701 774.8031,319.3701 774.8031,281.5748"/>
    <polyline points="762.7805,292.9724 762.7805,306.0974 762.7805,306.0974 754.0305,292.9724 754.0305,292.9724 754.0305,306.0974"/>
    <polyline points="136.0482,322.5394 136.6732,322.2269 136.6732,322.2269 137.6107,321.2894 137.6107,321.2894 137.6107,327.8519"/>
    <polyline points="144.4857,327.8519 144.4857,321.2894 144.4857,321.2894 141.3607,325.6644 141.3607,325.6644 146.0482,325.6644"/>
    <line x1="151.8061" x2="151.8061" y1="330.7677" y2="343.8927"/>
    <line x1="147.4311" x2="156.1811" y1="330.7677" y2="330.7677"/>
    <polyline points="170.0787,357.1654 207.874,357.1654 207.874,357.1654 207.874,319.3701"/>
    <polyline points="187.1014,337.0177 192.7264,337.0177 192.7264,337.0177 194.6014,336.3927 194.6014,336.3927 195.2264,335.7677 195.2264,335.7677 195.8514,334.5177 195.8514,334.5177 195.8514,333.2677 195.8514,333.2677 195.2264,332.0177 195.2264,332.0177 194.6014,331.3927 194.6014,331.3927 192.7264,330.7677 192.7264,330.7677 187.1014,330.7677 187.1014,330.7677 187.1014,343.8927"/>
    <line x1="191.4764" x2="195.8514" y1="337.0177" y2="343.8927"/>
    <polyline points="207.874,357.1654 245.6693,357.1654 245.6693,357.1654 245.6693,319.3701"/>
    <polyline points="233.3342,330.7677 225.2092,330.7677 225.2092,330.7677 225.2092,343.8927 225.2092,343.8927 233.3342,343.8927"/>
    <line x1="225.2092" x2="230.2092" y1="337.0177" y2="337.0177"/>
    <line x1="245.6693" x2="283.4646" y1="357.1654" y2="357.1654"/>
    <line x1="267.0669" x2="267.0669" y1="330.7677" y2="343.8927"/>
    <polyline points="309.2372,330.7677 309.2372,343.8927 309.2372,343.8927 300.4872,330.7677 300.4872,330.7677 300.4872,343.8927"/>
    <polyline points="400.6152,322.5394 401.2402,322.2269 401.2402,322.2269 402.1777,321.2894 402.1777,321.2894 402.1777,327.8519"/>
    <polyline points="409.6777,321.2894 406.5527,321.2894 406.5527,321.2894 406.2402,324.1019 406.2402,324.1019 406.5527,323.7894 406.5527,323.7894 407.4902,323.4769 407.4902,323.4769 408.4277,323.4769 408.4277,323.4769 409.3652,323.7894 409.3652,323.7894 409.9902,324.4144 409.9902,324.4144 410.3027,325.3519 410.3027,325.3519 410.3027,325.9769 410.3027,325.9769 409.9902,326.9144 409.9902,326.9144 409.3652,327.5394 409.3652,327.5394 408.4277,327.8519 408.4277,327.8519 407.4902,327.8519 407.4902,327.8519 406.5527,327.5394 406.5527,327.5394 406.2402,327.2269 406.2402,327.2269 405.9277,326.6019"/>
    <polyline points="413.873,330.7677 413.873,340.1427 413.873,340.1427 414.498,342.0177 414.498,342.0177 415.748,343.2677 415.748,343.2677 417.623,343.8927 417.623,343.8927 418.873,343.8927 418.873,343.8927 420.748,343.2677 420.748,343.2677 421.998,342.0177 421.998,342.0177 422.623,340.1427 422.623,340.1427 422.623,330.7677"/>
    <polyline points="434.6457,357.1654 472.4409,357.1654 472.4409,357.1654 510.2362,357.1654 510.2362,357.1654 548.0315,357.1654 548.0315,357.1654 585.8268,357.1654 585.8268,357.1654 585.8268,319.3701"/>
    <line x1="472.4409" x2="472.4409" y1="357.1654" y2="319.3701"/>
    <line x1="456.0433" x2="456.0433" y1="330.7677" y2="343.8927"/>
    <line x1="510.2362" x2="510.2362" y1="357.1654" y2="319.3701"/>
    <line x1="491.9636" x2="491.9636" y1="330.7677" y2="343.8927"/>
    <line x1="487.5886" x2="496.3386" y1="330.7677" y2="330.7677"/>
    <line x1="548.0315" x2="548.0315" y1="357.1654" y2="319.3701"/>
    <polyline points="527.8839,330.7677 527.8839,343.8927 527.8839,343.8927 535.3839,343.8927"/>
    <line x1="569.4291" x2="569.4291" y1="330.7677" y2="343.8927"/>
    <polyline points="585.8268,357.1654 623.622,357.1654 623.622,357.1654 661.4173,357.1654"/>
    <line x1="623.622" x2="623.622" y1="357.1654" y2="319.3701"/>
    <line x1="602.8494" x2="602.8494" y1="330.7677" y2="343.8927"/>
    <line x1="611.5994" x2="602.8494" y1="330.7677" y2="339.5177"/>
    <line x1="605.9744" x2="611.5994" y1="336.3927" y2="343.8927"/>
    <line x1="640.6447" x2="640.6447" y1="330.7677" y2="343.8927"/>
    <line x1="649.3947" x2="640.6447" y1="330.7677" y2="339.5177"/>
    <line x1="643.7697" x2="649.3947" y1="336.3927" y2="343.8927"/>
    <polyline points="686.8775,330.7677 678.7525,330.7677 678.7525,330.7677 678.7525,343.8927 678.7525,343.8927 686.8775,343.8927"/>
    <line x1="678.7525" x2="683.7525" y1="337.0177" y2="337.0177"/>
    <polyline points="724.9852,330.7677 724.9852,343.8927 724.9852,343.8927 716.2352,330.7677 716.2352,330.7677 716.2352,343.8927"/>
  </g>
</svg>
