<?xml version="1.0" encoding="utf-8" ?>
<svg xmlns="http://www.w3.org/2000/svg" xmlns:cc="http://creativecommons.org/ns" xmlns:dc="http://purl.org/dc/elements/1.1/" xmlns:ev="http://www.w3.org/2001/xml-events" xmlns:inkscape="http://www.inkscape.org/namespaces/inkscape" xmlns:rdf="http://www.w3.org/1999/02/22-rdf-syntax-ns" xmlns:sodipodi="http://sodipodi.sourceforge.net/DTD/sodipodi-0.dtd" xmlns:xlink="http://www.w3.org/1999/xlink" baseProfile="tiny" height="9.9cm" version="1.2" viewBox="0 0 793.7007874015749 374.1732283464567" width="21.0cm">
  <metadata>
    <rdf:RDF>
      <cc:Work>
        <dc:format>image/svg+xml</dc:format>
        <dc:source>vpype eval 'cell=10;width=210;height=99' eval 'nCols=20;nRows=9' eval 'cells=[5,6,7,8,9,10,11,12,13,22,23,24,30,38,44,46,47,48,49,50,51,52,53,54,57,58,59,62,63,64,65,70,73,78,81,84,86,88,89,90,91,94,95,96,97,98,100,101,102,103,104,106,110,114,121,124,125,126,127,128,129,130,131,132,134,135,136,137,141,144,146,150,154,160,161,162,163,164,165,167,168,169,170,171,172,173,174,175]' eval 'chars=[&quot;U&quot;,&quot;I&quot;,&quot;T&quot;,&quot;L&quot;,&quot;I&quot;,&quot;K&quot;,&quot;K&quot;,&quot;E&quot;,&quot;N&quot;,&quot;M&quot;,&quot;O&quot;,&quot;P&quot;,&quot;L&quot;,&quot;F&quot;,&quot;A&quot;,&quot;M&quot;,&quot;A&quot;,&quot;N&quot;,&quot;D&quot;,&quot;A&quot;,&quot;R&quot;,&quot;I&quot;,&quot;J&quot;,&quot;N&quot;,&quot;W&quot;,&quot;I&quot;,&quot;M&quot;,&quot;L&quot;,&quot;O&quot;,&quot;R&quot;,&quot;E&quot;,&quot;V&quot;,&quot;A&quot;,&quot;L&quot;,&quot;K&quot;,&quot;K&quot;,&quot;J&quot;,&quot;S&quot;,&quot;T&quot;,&quot;E&quot;,&quot;R&quot;,&quot;R&quot;,&quot;O&quot;,&quot;B&quot;,&quot;B&quot;,&quot;E&quot;,&quot;H&quot;,&quot;A&quot;,&quot;N&quot;,&quot;N&quot;,&quot;E&quot;,&quot;O&quot;,&quot;R&quot;,&quot;A&quot;,&quot;S&quot;,&quot;R&quot;,&quot;E&quot;,&quot;K&quot;,&quot;K&quot;,&quot;E&quot;,&quot;R&quot;,&quot;T&quot;,&quot;J&quot;,&quot;E&quot;,&quot;D&quot;,&quot;R&quot;,&quot;O&quot;,&quot;P&quot;,&quot;S&quot;,&quot;E&quot;,&quot;E&quot;,&quot;J&quot;,&quot;I&quot;,&quot;L&quot;,&quot;A&quot;,&quot;K&quot;,&quot;E&quot;,&quot;N&quot;,&quot;S&quot;,&quot;R&quot;,&quot;E&quot;,&quot;G&quot;,&quot;E&quot;,&quot;N&quot;,&quot;B&quot;,&quot;O&quot;,&quot;O&quot;,&quot;G&quot;]' eval 'numbers=[5,10,22,24,38,46,53,57,62,81,86,88,94,100,124,134,160,167]' eval counter=1 eval charIndex=0 begin grid -o '%cell*mm%' '%cell*mm%' %nCols% %nRows% eval '%isCell=_i in cells%' eval '%number=_i in numbers%' eval '%size=10 if isCell else 0%' rect 0 0 '%size*mm%' '%size*mm%' text -s 10 -p 0.5mm 1.5mm '%counter if number else '&quot;'&quot;''&quot;'&quot;'%' text -s 20 -p 5mm 5mm -a center '%chars[charIndex] if isCell else '&quot;'&quot;''&quot;'&quot;'%' eval '%if number: counter+=1 %' eval '%if isCell: charIndex+=1 %' end splitall deduplicate linemerge --tolerance 0.1mm write -m none --page-size '%width*mm%x%height*mm%' --center ./svgs/solution/a5d392.svg
</dc:source>
        <dc:date>2023-12-23T22:30:06.880273</dc:date>
      </cc:Work>
    </rdf:RDF>
  </metadata>
  <defs/>
  <g fill="none" id="layer1" inkscape:groupmode="layer" inkscape:label="1" stroke="#000000" style="display:inline">
    <polygon points="207.874,17.0079 207.874,54.8031 207.874,54.8031 245.6693,54.8031 245.6693,54.8031 245.6693,17.0079 245.6693,17.0079"/>
    <polyline points="211.6388,20.1772 212.2638,19.8647 212.2638,19.8647 213.2013,18.9272 213.2013,18.9272 213.2013,25.4897"/>
    <polyline points="224.8967,28.4055 224.8967,37.7805 224.8967,37.7805 225.5217,39.6555 225.5217,39.6555 226.7717,40.9055 226.7717,40.9055 228.6467,41.5305 228.6467,41.5305 229.8967,41.5305 229.8967,41.5305 231.7717,40.9055 231.7717,40.9055 233.0217,39.6555 233.0217,39.6555 233.6467,37.7805 233.6467,37.7805 233.6467,28.4055"/>
    <polyline points="245.6693,54.8031 283.4646,54.8031 283.4646,54.8031 321.2598,54.8031 321.2598,54.8031 321.2598,17.0079 321.2598,17.0079 283.4646,17.0079 283.4646,17.0079 245.6693,17.0079"/>
    <line x1="283.4646" x2="283.4646" y1="54.8031" y2="17.0079"/>
    <line x1="267.0669" x2="267.0669" y1="28.4055" y2="41.5305"/>
    <line x1="302.9872" x2="302.9872" y1="28.4055" y2="41.5305"/>
    <line x1="298.6122" x2="307.3622" y1="28.4055" y2="28.4055"/>
    <polyline points="321.2598,54.8031 359.0551,54.8031 359.0551,54.8031 396.8504,54.8031 396.8504,54.8031 434.6457,54.8031 434.6457,54.8031 434.6457,17.0079 434.6457,17.0079 396.8504,17.0079 396.8504,17.0079 359.0551,17.0079 359.0551,17.0079 321.2598,17.0079"/>
    <line x1="359.0551" x2="359.0551" y1="54.8031" y2="17.0079"/>
    <polyline points="338.9075,28.4055 338.9075,41.5305 338.9075,41.5305 346.4075,41.5305"/>
    <polyline points="434.6457,17.0079 472.4409,17.0079 472.4409,17.0079 472.4409,54.8031 472.4409,54.8031 434.6457,54.8031 434.6457,54.8031 434.6457,92.5984 434.6457,92.5984 396.8504,92.5984 396.8504,92.5984 396.8504,54.8031 396.8504,54.8031 396.8504,17.0079"/>
    <line x1="380.4528" x2="380.4528" y1="28.4055" y2="41.5305"/>
    <polyline points="399.9902,20.4897 399.9902,20.1772 399.9902,20.1772 400.3027,19.5522 400.3027,19.5522 400.6152,19.2397 400.6152,19.2397 401.2402,18.9272 401.2402,18.9272 402.4902,18.9272 402.4902,18.9272 403.1152,19.2397 403.1152,19.2397 403.4277,19.5522 403.4277,19.5522 403.7402,20.1772 403.7402,20.1772 403.7402,20.8022 403.7402,20.8022 403.4277,21.4272 403.4277,21.4272 402.8027,22.3647 402.8027,22.3647 399.6777,25.4897 399.6777,25.4897 404.0527,25.4897"/>
    <line x1="413.873" x2="413.873" y1="28.4055" y2="41.5305"/>
    <line x1="422.623" x2="413.873" y1="28.4055" y2="37.1555"/>
    <line x1="416.998" x2="422.623" y1="34.0305" y2="41.5305"/>
    <line x1="451.6683" x2="451.6683" y1="28.4055" y2="41.5305"/>
    <line x1="460.4183" x2="451.6683" y1="28.4055" y2="37.1555"/>
    <line x1="454.7933" x2="460.4183" y1="34.0305" y2="41.5305"/>
    <polyline points="472.4409,54.8031 510.2362,54.8031 510.2362,54.8031 510.2362,17.0079 510.2362,17.0079 472.4409,17.0079"/>
    <polyline points="497.9011,28.4055 489.7761,28.4055 489.7761,28.4055 489.7761,41.5305 489.7761,41.5305 497.9011,41.5305"/>
    <line x1="489.7761" x2="494.7761" y1="34.6555" y2="34.6555"/>
    <polyline points="510.2362,54.8031 548.0315,54.8031 548.0315,54.8031 548.0315,17.0079 548.0315,17.0079 510.2362,17.0079"/>
    <polyline points="536.0089,28.4055 536.0089,41.5305 536.0089,41.5305 527.2589,28.4055 527.2589,28.4055 527.2589,41.5305"/>
    <polygon points="94.4882,54.8031 94.4882,92.5984 94.4882,92.5984 132.2835,92.5984 132.2835,92.5984 170.0787,92.5984 170.0787,92.5984 170.0787,54.8031 170.0787,54.8031 132.2835,54.8031 132.2835,54.8031"/>
    <line x1="132.2835" x2="132.2835" y1="92.5984" y2="54.8031"/>
    <polyline points="97.9405,56.7224 101.378,56.7224 101.378,56.7224 99.503,59.2224 99.503,59.2224 100.4405,59.2224 100.4405,59.2224 101.0655,59.5349 101.0655,59.5349 101.378,59.8474 101.378,59.8474 101.6905,60.7849 101.6905,60.7849 101.6905,61.4099 101.6905,61.4099 101.378,62.3474 101.378,62.3474 100.753,62.9724 100.753,62.9724 99.8155,63.2849 99.8155,63.2849 98.878,63.2849 98.878,63.2849 97.9405,62.9724 97.9405,62.9724 97.628,62.6599 97.628,62.6599 97.3155,62.0349"/>
    <polyline points="120.8858,79.3258 120.8858,66.2008 120.8858,66.2008 115.8858,79.3258 115.8858,79.3258 110.8858,66.2008 110.8858,66.2008 110.8858,79.3258"/>
    <polygon points="151.8061,66.2008 150.5561,66.8258 150.5561,66.8258 149.3061,68.0758 149.3061,68.0758 148.6811,69.3258 148.6811,69.3258 148.0561,71.2008 148.0561,71.2008 148.0561,74.3258 148.0561,74.3258 148.6811,76.2008 148.6811,76.2008 149.3061,77.4508 149.3061,77.4508 150.5561,78.7008 150.5561,78.7008 151.8061,79.3258 151.8061,79.3258 154.3061,79.3258 154.3061,79.3258 155.5561,78.7008 155.5561,78.7008 156.8061,77.4508 156.8061,77.4508 157.4311,76.2008 157.4311,76.2008 158.0561,74.3258 158.0561,74.3258 158.0561,71.2008 158.0561,71.2008 157.4311,69.3258 157.4311,69.3258 156.8061,68.0758 156.8061,68.0758 155.5561,66.8258 155.5561,66.8258 154.3061,66.2008 154.3061,66.2008"/>
    <polyline points="207.874,92.5984 207.874,130.3937 207.874,130.3937 170.0787,130.3937 170.0787,130.3937 170.0787,92.5984 170.0787,92.5984 207.874,92.5984 207.874,92.5984 207.874,54.8031 207.874,54.8031 170.0787,54.8031"/>
    <polyline points="176.031,63.2849 176.031,56.7224 176.031,56.7224 172.906,61.0974 172.906,61.0974 177.5935,61.0974"/>
    <polyline points="187.1014,73.0758 192.7264,73.0758 192.7264,73.0758 194.6014,72.4508 194.6014,72.4508 195.2264,71.8258 195.2264,71.8258 195.8514,70.5758 195.8514,70.5758 195.8514,68.7008 195.8514,68.7008 195.2264,67.4508 195.2264,67.4508 194.6014,66.8258 194.6014,66.8258 192.7264,66.2008 192.7264,66.2008 187.1014,66.2008 187.1014,66.2008 187.1014,79.3258"/>
    <polyline points="414.498,66.2008 414.498,79.3258 414.498,79.3258 421.998,79.3258"/>
    <polygon points="699.2126,54.8031 699.2126,92.5984 699.2126,92.5984 737.0079,92.5984 737.0079,92.5984 737.0079,54.8031 737.0079,54.8031"/>
    <polyline points="705.7899,56.7224 702.6649,56.7224 702.6649,56.7224 702.3524,59.5349 702.3524,59.5349 702.6649,59.2224 702.6649,59.2224 703.6024,58.9099 703.6024,58.9099 704.5399,58.9099 704.5399,58.9099 705.4774,59.2224 705.4774,59.2224 706.1024,59.8474 706.1024,59.8474 706.4149,60.7849 706.4149,60.7849 706.4149,61.4099 706.4149,61.4099 706.1024,62.3474 706.1024,62.3474 705.4774,62.9724 705.4774,62.9724 704.5399,63.2849 704.5399,63.2849 703.6024,63.2849 703.6024,63.2849 702.6649,62.9724 702.6649,62.9724 702.3524,62.6599 702.3524,62.6599 702.0399,62.0349"/>
    <polyline points="724.6727,66.2008 716.5477,66.2008 716.5477,66.2008 716.5477,79.3258"/>
    <line x1="716.5477" x2="721.5477" y1="72.4508" y2="72.4508"/>
    <polyline points="194.6014,117.1211 189.6014,103.9961 189.6014,103.9961 184.6014,117.1211"/>
    <line x1="186.4764" x2="192.7264" y1="112.7461" y2="112.7461"/>
    <polygon points="245.6693,92.5984 245.6693,130.3937 245.6693,130.3937 283.4646,130.3937 283.4646,130.3937 283.4646,92.5984 283.4646,92.5984"/>
    <polyline points="252.5591,95.4552 252.2466,94.8302 252.2466,94.8302 251.3091,94.5177 251.3091,94.5177 250.6841,94.5177 250.6841,94.5177 249.7466,94.8302 249.7466,94.8302 249.1216,95.7677 249.1216,95.7677 248.8091,97.3302 248.8091,97.3302 248.8091,98.8927 248.8091,98.8927 249.1216,100.1427 249.1216,100.1427 249.7466,100.7677 249.7466,100.7677 250.6841,101.0802 250.6841,101.0802 250.9966,101.0802 250.9966,101.0802 251.9341,100.7677 251.9341,100.7677 252.5591,100.1427 252.5591,100.1427 252.8716,99.2052 252.8716,99.2052 252.8716,98.8927 252.8716,98.8927 252.5591,97.9552 252.5591,97.9552 251.9341,97.3302 251.9341,97.3302 250.9966,97.0177 250.9966,97.0177 250.6841,97.0177 250.6841,97.0177 249.7466,97.3302 249.7466,97.3302 249.1216,97.9552 249.1216,97.9552 248.8091,98.8927"/>
    <polyline points="272.0669,117.1211 272.0669,103.9961 272.0669,103.9961 267.0669,117.1211 267.0669,117.1211 262.0669,103.9961 262.0669,103.9961 262.0669,117.1211"/>
    <polyline points="283.4646,130.3937 321.2598,130.3937 321.2598,130.3937 359.0551,130.3937 359.0551,130.3937 396.8504,130.3937 396.8504,130.3937 396.8504,168.189 396.8504,168.189 434.6457,168.189 434.6457,168.189 434.6457,130.3937 434.6457,130.3937 434.6457,92.5984 434.6457,92.5984 472.4409,92.5984 472.4409,92.5984 472.4409,130.3937 472.4409,130.3937 510.2362,130.3937 510.2362,130.3937 510.2362,168.189 510.2362,168.189 548.0315,168.189 548.0315,168.189 548.0315,130.3937 548.0315,130.3937 585.8268,130.3937 585.8268,130.3937 585.8268,92.5984 585.8268,92.5984 548.0315,92.5984 548.0315,92.5984 510.2362,92.5984 510.2362,92.5984 472.4409,92.5984"/>
    <polyline points="321.2598,130.3937 321.2598,92.5984 321.2598,92.5984 283.4646,92.5984"/>
    <polyline points="307.9872,117.1211 302.9872,103.9961 302.9872,103.9961 297.9872,117.1211"/>
    <line x1="299.8622" x2="306.1122" y1="112.7461" y2="112.7461"/>
    <polyline points="359.0551,130.3937 359.0551,92.5984 359.0551,92.5984 321.2598,92.5984"/>
    <polyline points="347.0325,103.9961 347.0325,117.1211 347.0325,117.1211 338.2825,103.9961 338.2825,103.9961 338.2825,117.1211"/>
    <polyline points="472.4409,130.3937 434.6457,130.3937 434.6457,130.3937 396.8504,130.3937 396.8504,130.3937 396.8504,92.5984 396.8504,92.5984 359.0551,92.5984"/>
    <polygon points="376.0778,103.9961 376.0778,117.1211 376.0778,117.1211 380.4528,117.1211 380.4528,117.1211 382.3278,116.4961 382.3278,116.4961 383.5778,115.2461 383.5778,115.2461 384.2028,113.9961 384.2028,113.9961 384.8278,112.1211 384.8278,112.1211 384.8278,108.9961 384.8278,108.9961 384.2028,107.1211 384.2028,107.1211 383.5778,105.8711 383.5778,105.8711 382.3278,104.6211 382.3278,104.6211 380.4528,103.9961 380.4528,103.9961"/>
    <polyline points="421.373,117.1211 416.373,103.9961 416.373,103.9961 411.373,117.1211"/>
    <line x1="413.248" x2="419.498" y1="112.7461" y2="112.7461"/>
    <polyline points="451.6683,110.2461 457.2933,110.2461 457.2933,110.2461 459.1683,109.6211 459.1683,109.6211 459.7933,108.9961 459.7933,108.9961 460.4183,107.7461 460.4183,107.7461 460.4183,106.4961 460.4183,106.4961 459.7933,105.2461 459.7933,105.2461 459.1683,104.6211 459.1683,104.6211 457.2933,103.9961 457.2933,103.9961 451.6683,103.9961 451.6683,103.9961 451.6683,117.1211"/>
    <line x1="456.0433" x2="460.4183" y1="110.2461" y2="117.1211"/>
    <polyline points="548.0315,92.5984 548.0315,130.3937 548.0315,130.3937 510.2362,130.3937 510.2362,130.3937 510.2362,92.5984"/>
    <line x1="493.8386" x2="493.8386" y1="103.9961" y2="117.1211"/>
    <polyline points="513.0635,94.5177 517.4385,94.5177 517.4385,94.5177 514.3135,101.0802"/>
    <polyline points="533.5089,103.9961 533.5089,113.9961 533.5089,113.9961 532.8839,115.8711 532.8839,115.8711 532.2589,116.4961 532.2589,116.4961 531.0089,117.1211 531.0089,117.1211 529.7589,117.1211 529.7589,117.1211 528.5089,116.4961 528.5089,116.4961 527.8839,115.8711 527.8839,115.8711 527.2589,113.9961 527.2589,113.9961 527.2589,112.7461"/>
    <polyline points="573.8041,103.9961 573.8041,117.1211 573.8041,117.1211 565.0541,103.9961 565.0541,103.9961 565.0541,117.1211"/>
    <polygon points="661.4173,92.5984 661.4173,130.3937 661.4173,130.3937 699.2126,130.3937 699.2126,130.3937 699.2126,92.5984 699.2126,92.5984"/>
    <polygon points="665.8071,94.5177 664.8696,94.8302 664.8696,94.8302 664.5571,95.4552 664.5571,95.4552 664.5571,96.0802 664.5571,96.0802 664.8696,96.7052 664.8696,96.7052 665.4946,97.0177 665.4946,97.0177 666.7446,97.3302 666.7446,97.3302 667.6821,97.6427 667.6821,97.6427 668.3071,98.2677 668.3071,98.2677 668.6196,98.8927 668.6196,98.8927 668.6196,99.8302 668.6196,99.8302 668.3071,100.4552 668.3071,100.4552 667.9946,100.7677 667.9946,100.7677 667.0571,101.0802 667.0571,101.0802 665.8071,101.0802 665.8071,101.0802 664.8696,100.7677 664.8696,100.7677 664.5571,100.4552 664.5571,100.4552 664.2446,99.8302 664.2446,99.8302 664.2446,98.8927 664.2446,98.8927 664.5571,98.2677 664.5571,98.2677 665.1821,97.6427 665.1821,97.6427 666.1196,97.3302 666.1196,97.3302 667.3696,97.0177 667.3696,97.0177 667.9946,96.7052 667.9946,96.7052 668.3071,96.0802 668.3071,96.0802 668.3071,95.4552 668.3071,95.4552 667.9946,94.8302 667.9946,94.8302 667.0571,94.5177 667.0571,94.5177"/>
    <polyline points="675.315,103.9961 678.44,117.1211 678.44,117.1211 681.565,103.9961 681.565,103.9961 684.69,117.1211 684.69,117.1211 687.815,103.9961"/>
    <polyline points="737.0079,168.189 699.2126,168.189 699.2126,168.189 699.2126,130.3937 699.2126,130.3937 737.0079,130.3937 737.0079,130.3937 737.0079,92.5984 737.0079,92.5984 774.8031,92.5984 774.8031,92.5984 774.8031,130.3937 774.8031,130.3937 737.0079,130.3937 737.0079,130.3937 737.0079,168.189 737.0079,168.189 737.0079,205.9843 737.0079,205.9843 699.2126,205.9843 699.2126,205.9843 699.2126,168.189 699.2126,168.189 661.4173,168.189 661.4173,168.189 623.622,168.189 623.622,168.189 585.8268,168.189 585.8268,168.189 548.0315,168.189 548.0315,168.189 548.0315,205.9843 548.0315,205.9843 585.8268,205.9843 585.8268,205.9843 585.8268,168.189"/>
    <line x1="720.6102" x2="720.6102" y1="103.9961" y2="117.1211"/>
    <polyline points="763.4055,117.1211 763.4055,103.9961 763.4055,103.9961 758.4055,117.1211 758.4055,117.1211 753.4055,103.9961 753.4055,103.9961 753.4055,117.1211"/>
    <polyline points="132.2835,168.189 132.2835,130.3937 132.2835,130.3937 94.4882,130.3937 94.4882,130.3937 94.4882,168.189 94.4882,168.189 132.2835,168.189 132.2835,168.189 170.0787,168.189 170.0787,168.189 207.874,168.189 207.874,168.189 207.874,130.3937 207.874,130.3937 245.6693,130.3937 245.6693,130.3937 245.6693,168.189 245.6693,168.189 207.874,168.189 207.874,168.189 207.874,205.9843 207.874,205.9843 207.874,243.7795 207.874,243.7795 170.0787,243.7795 170.0787,243.7795 170.0787,205.9843 170.0787,205.9843 207.874,205.9843"/>
    <polyline points="101.378,134.5005 101.0655,135.438 101.0655,135.438 100.4405,136.063 100.4405,136.063 99.503,136.3755 99.503,136.3755 99.1905,136.3755 99.1905,136.3755 98.253,136.063 98.253,136.063 97.628,135.438 97.628,135.438 97.3155,134.5005 97.3155,134.5005 97.3155,134.188 97.3155,134.188 97.628,133.2505 97.628,133.2505 98.253,132.6255 98.253,132.6255 99.1905,132.313 99.1905,132.313 99.503,132.313 99.503,132.313 100.4405,132.6255 100.4405,132.6255 101.0655,133.2505 101.0655,133.2505 101.378,134.5005 101.378,134.5005 101.378,136.063 101.378,136.063 101.0655,137.6255 101.0655,137.6255 100.4405,138.563 100.4405,138.563 99.503,138.8755 99.503,138.8755 98.878,138.8755 98.878,138.8755 97.9405,138.563 97.9405,138.563 97.628,137.938"/>
    <polyline points="112.1358,141.7913 112.1358,154.9163 112.1358,154.9163 119.6358,154.9163"/>
    <polyline points="132.2835,205.9843 132.2835,243.7795 132.2835,243.7795 94.4882,243.7795 94.4882,243.7795 94.4882,205.9843 94.4882,205.9843 56.6929,205.9843 56.6929,205.9843 56.6929,168.189 56.6929,168.189 94.4882,168.189 94.4882,168.189 94.4882,205.9843 94.4882,205.9843 132.2835,205.9843 132.2835,205.9843 170.0787,205.9843 170.0787,205.9843 170.0787,168.189 170.0787,168.189 170.0787,130.3937 170.0787,130.3937 132.2835,130.3937"/>
    <polygon points="151.8061,141.7913 150.5561,142.4163 150.5561,142.4163 149.3061,143.6663 149.3061,143.6663 148.6811,144.9163 148.6811,144.9163 148.0561,146.7913 148.0561,146.7913 148.0561,149.9163 148.0561,149.9163 148.6811,151.7913 148.6811,151.7913 149.3061,153.0413 149.3061,153.0413 150.5561,154.2913 150.5561,154.2913 151.8061,154.9163 151.8061,154.9163 154.3061,154.9163 154.3061,154.9163 155.5561,154.2913 155.5561,154.2913 156.8061,153.0413 156.8061,153.0413 157.4311,151.7913 157.4311,151.7913 158.0561,149.9163 158.0561,149.9163 158.0561,146.7913 158.0561,146.7913 157.4311,144.9163 157.4311,144.9163 156.8061,143.6663 156.8061,143.6663 155.5561,142.4163 155.5561,142.4163 154.3061,141.7913 154.3061,141.7913"/>
    <polyline points="187.1014,148.0413 192.7264,148.0413 192.7264,148.0413 194.6014,147.4163 194.6014,147.4163 195.2264,146.7913 195.2264,146.7913 195.8514,145.5413 195.8514,145.5413 195.8514,144.2913 195.8514,144.2913 195.2264,143.0413 195.2264,143.0413 194.6014,142.4163 194.6014,142.4163 192.7264,141.7913 192.7264,141.7913 187.1014,141.7913 187.1014,141.7913 187.1014,154.9163"/>
    <line x1="191.4764" x2="195.8514" y1="148.0413" y2="154.9163"/>
    <polyline points="233.3342,141.7913 225.2092,141.7913 225.2092,141.7913 225.2092,154.9163 225.2092,154.9163 233.3342,154.9163"/>
    <line x1="225.2092" x2="230.2092" y1="148.0413" y2="148.0413"/>
    <polyline points="411.373,141.7913 416.373,154.9163 416.373,154.9163 421.373,141.7913"/>
    <polyline points="534.7589,154.9163 529.7589,141.7913 529.7589,141.7913 524.7589,154.9163"/>
    <line x1="526.6339" x2="532.8839" y1="150.5413" y2="150.5413"/>
    <polyline points="716.8602,141.7913 716.8602,154.9163 716.8602,154.9163 724.3602,154.9163"/>
    <polyline points="60.4577,171.3583 61.0827,171.0458 61.0827,171.0458 62.0202,170.1083 62.0202,170.1083 62.0202,176.6708"/>
    <polygon points="67.6452,170.1083 66.7077,170.4208 66.7077,170.4208 66.0827,171.3583 66.0827,171.3583 65.7702,172.9208 65.7702,172.9208 65.7702,173.8583 65.7702,173.8583 66.0827,175.4208 66.0827,175.4208 66.7077,176.3583 66.7077,176.3583 67.6452,176.6708 67.6452,176.6708 68.2702,176.6708 68.2702,176.6708 69.2077,176.3583 69.2077,176.3583 69.8327,175.4208 69.8327,175.4208 70.1452,173.8583 70.1452,173.8583 70.1452,172.9208 70.1452,172.9208 69.8327,171.3583 69.8327,171.3583 69.2077,170.4208 69.2077,170.4208 68.2702,170.1083 68.2702,170.1083"/>
    <line x1="73.7156" x2="73.7156" y1="179.5866" y2="192.7116"/>
    <line x1="82.4656" x2="73.7156" y1="179.5866" y2="188.3366"/>
    <line x1="76.8406" x2="82.4656" y1="185.2116" y2="192.7116"/>
    <line x1="187.1014" x2="187.1014" y1="179.5866" y2="192.7116"/>
    <line x1="195.8514" x2="187.1014" y1="179.5866" y2="188.3366"/>
    <line x1="190.2264" x2="195.8514" y1="185.2116" y2="192.7116"/>
    <polygon points="245.6693,168.189 245.6693,205.9843 245.6693,205.9843 245.6693,243.7795 245.6693,243.7795 283.4646,243.7795 283.4646,243.7795 283.4646,205.9843 283.4646,205.9843 283.4646,168.189 283.4646,168.189"/>
    <line x1="245.6693" x2="283.4646" y1="205.9843" y2="205.9843"/>
    <polyline points="249.4341,171.3583 250.0591,171.0458 250.0591,171.0458 250.9966,170.1083 250.9966,170.1083 250.9966,176.6708"/>
    <polyline points="255.6841,171.3583 256.3091,171.0458 256.3091,171.0458 257.2466,170.1083 257.2466,170.1083 257.2466,176.6708"/>
    <polyline points="268.9419,179.5866 268.9419,189.5866 268.9419,189.5866 268.3169,191.4616 268.3169,191.4616 267.6919,192.0866 267.6919,192.0866 266.4419,192.7116 266.4419,192.7116 265.1919,192.7116 265.1919,192.7116 263.9419,192.0866 263.9419,192.0866 263.3169,191.4616 263.3169,191.4616 262.6919,189.5866 262.6919,189.5866 262.6919,188.3366"/>
    <polygon points="321.2598,168.189 321.2598,205.9843 321.2598,205.9843 359.0551,205.9843 359.0551,205.9843 396.8504,205.9843 396.8504,205.9843 434.6457,205.9843 434.6457,205.9843 434.6457,168.189 434.6457,168.189 472.4409,168.189 472.4409,168.189 472.4409,205.9843 472.4409,205.9843 434.6457,205.9843 434.6457,205.9843 434.6457,243.7795 434.6457,243.7795 396.8504,243.7795 396.8504,243.7795 396.8504,205.9843 396.8504,205.9843 396.8504,168.189 396.8504,168.189 359.0551,168.189 359.0551,168.189"/>
    <line x1="359.0551" x2="359.0551" y1="205.9843" y2="168.189"/>
    <polyline points="325.0246,171.3583 325.6496,171.0458 325.6496,171.0458 326.5871,170.1083 326.5871,170.1083 326.5871,176.6708"/>
    <polyline points="330.6496,171.6708 330.6496,171.3583 330.6496,171.3583 330.9621,170.7333 330.9621,170.7333 331.2746,170.4208 331.2746,170.4208 331.8996,170.1083 331.8996,170.1083 333.1496,170.1083 333.1496,170.1083 333.7746,170.4208 333.7746,170.4208 334.0871,170.7333 334.0871,170.7333 334.3996,171.3583 334.3996,171.3583 334.3996,171.9833 334.3996,171.9833 334.0871,172.6083 334.0871,172.6083 333.4621,173.5458 333.4621,173.5458 330.3371,176.6708 330.3371,176.6708 334.7121,176.6708"/>
    <polyline points="346.4075,181.4616 345.1575,180.2116 345.1575,180.2116 343.2825,179.5866 343.2825,179.5866 340.7825,179.5866 340.7825,179.5866 338.9075,180.2116 338.9075,180.2116 337.6575,181.4616 337.6575,181.4616 337.6575,182.7116 337.6575,182.7116 338.2825,183.9616 338.2825,183.9616 338.9075,184.5866 338.9075,184.5866 340.1575,185.2116 340.1575,185.2116 343.9075,186.4616 343.9075,186.4616 345.1575,187.0866 345.1575,187.0866 345.7825,187.7116 345.7825,187.7116 346.4075,188.9616 346.4075,188.9616 346.4075,190.8366 346.4075,190.8366 345.1575,192.0866 345.1575,192.0866 343.2825,192.7116 343.2825,192.7116 340.7825,192.7116 340.7825,192.7116 338.9075,192.0866 338.9075,192.0866 337.6575,190.8366"/>
    <line x1="378.5778" x2="378.5778" y1="179.5866" y2="192.7116"/>
    <line x1="374.2028" x2="382.9528" y1="179.5866" y2="179.5866"/>
    <polyline points="422.3105,179.5866 414.1855,179.5866 414.1855,179.5866 414.1855,192.7116 414.1855,192.7116 422.3105,192.7116"/>
    <line x1="414.1855" x2="419.1855" y1="185.8366" y2="185.8366"/>
    <polyline points="451.6683,185.8366 457.2933,185.8366 457.2933,185.8366 459.1683,185.2116 459.1683,185.2116 459.7933,184.5866 459.7933,184.5866 460.4183,183.3366 460.4183,183.3366 460.4183,182.0866 460.4183,182.0866 459.7933,180.8366 459.7933,180.8366 459.1683,180.2116 459.1683,180.2116 457.2933,179.5866 457.2933,179.5866 451.6683,179.5866 451.6683,179.5866 451.6683,192.7116"/>
    <line x1="456.0433" x2="460.4183" y1="185.8366" y2="192.7116"/>
    <polyline points="551.7963,171.3583 552.4213,171.0458 552.4213,171.0458 553.3588,170.1083 553.3588,170.1083 553.3588,176.6708"/>
    <polyline points="557.7338,170.1083 561.1713,170.1083 561.1713,170.1083 559.2963,172.6083 559.2963,172.6083 560.2338,172.6083 560.2338,172.6083 560.8588,172.9208 560.8588,172.9208 561.1713,173.2333 561.1713,173.2333 561.4838,174.1708 561.4838,174.1708 561.4838,174.7958 561.4838,174.7958 561.1713,175.7333 561.1713,175.7333 560.5463,176.3583 560.5463,176.3583 559.6088,176.6708 559.6088,176.6708 558.6713,176.6708 558.6713,176.6708 557.7338,176.3583 557.7338,176.3583 557.4213,176.0458 557.4213,176.0458 557.1088,175.4208"/>
    <polyline points="565.0541,185.8366 570.6791,185.8366 570.6791,185.8366 572.5541,185.2116 572.5541,185.2116 573.1791,184.5866 573.1791,184.5866 573.8041,183.3366 573.8041,183.3366 573.8041,182.0866 573.8041,182.0866 573.1791,180.8366 573.1791,180.8366 572.5541,180.2116 572.5541,180.2116 570.6791,179.5866 570.6791,179.5866 565.0541,179.5866 565.0541,179.5866 565.0541,192.7116"/>
    <line x1="569.4291" x2="573.8041" y1="185.8366" y2="192.7116"/>
    <polyline points="548.0315,205.9843 548.0315,243.7795 548.0315,243.7795 585.8268,243.7795 585.8268,243.7795 585.8268,205.9843 585.8268,205.9843 623.622,205.9843 623.622,205.9843 623.622,168.189"/>
    <polygon points="605.3494,179.5866 604.0994,180.2116 604.0994,180.2116 602.8494,181.4616 602.8494,181.4616 602.2244,182.7116 602.2244,182.7116 601.5994,184.5866 601.5994,184.5866 601.5994,187.7116 601.5994,187.7116 602.2244,189.5866 602.2244,189.5866 602.8494,190.8366 602.8494,190.8366 604.0994,192.0866 604.0994,192.0866 605.3494,192.7116 605.3494,192.7116 607.8494,192.7116 607.8494,192.7116 609.0994,192.0866 609.0994,192.0866 610.3494,190.8366 610.3494,190.8366 610.9744,189.5866 610.9744,189.5866 611.5994,187.7116 611.5994,187.7116 611.5994,184.5866 611.5994,184.5866 610.9744,182.7116 610.9744,182.7116 610.3494,181.4616 610.3494,181.4616 609.0994,180.2116 609.0994,180.2116 607.8494,179.5866 607.8494,179.5866"/>
    <polyline points="623.622,205.9843 661.4173,205.9843 661.4173,205.9843 661.4173,168.189"/>
    <polygon points="640.6447,179.5866 640.6447,192.7116 640.6447,192.7116 646.2697,192.7116 646.2697,192.7116 648.1447,192.0866 648.1447,192.0866 648.7697,191.4616 648.7697,191.4616 649.3947,190.2116 649.3947,190.2116 649.3947,188.3366 649.3947,188.3366 648.7697,187.0866 648.7697,187.0866 648.1447,186.4616 648.1447,186.4616 646.2697,185.8366 646.2697,185.8366 648.1447,185.2116 648.1447,185.2116 648.7697,184.5866 648.7697,184.5866 649.3947,183.3366 649.3947,183.3366 649.3947,182.0866 649.3947,182.0866 648.7697,180.8366 648.7697,180.8366 648.1447,180.2116 648.1447,180.2116 646.2697,179.5866 646.2697,179.5866"/>
    <line x1="640.6447" x2="646.2697" y1="185.8366" y2="185.8366"/>
    <line x1="661.4173" x2="699.2126" y1="205.9843" y2="205.9843"/>
    <polygon points="678.44,179.5866 678.44,192.7116 678.44,192.7116 684.065,192.7116 684.065,192.7116 685.94,192.0866 685.94,192.0866 686.565,191.4616 686.565,191.4616 687.19,190.2116 687.19,190.2116 687.19,188.3366 687.19,188.3366 686.565,187.0866 686.565,187.0866 685.94,186.4616 685.94,186.4616 684.065,185.8366 684.065,185.8366 685.94,185.2116 685.94,185.2116 686.565,184.5866 686.565,184.5866 687.19,183.3366 687.19,183.3366 687.19,182.0866 687.19,182.0866 686.565,180.8366 686.565,180.8366 685.94,180.2116 685.94,180.2116 684.065,179.5866 684.065,179.5866"/>
    <line x1="678.44" x2="684.065" y1="185.8366" y2="185.8366"/>
    <polyline points="724.6727,179.5866 716.5477,179.5866 716.5477,179.5866 716.5477,192.7116 716.5477,192.7116 724.6727,192.7116"/>
    <line x1="716.5477" x2="721.5477" y1="185.8366" y2="185.8366"/>
    <polyline points="56.6929,281.5748 56.6929,243.7795 56.6929,243.7795 56.6929,205.9843 56.6929,205.9843 18.8976,205.9843 18.8976,205.9843 18.8976,243.7795 18.8976,243.7795 56.6929,243.7795 56.6929,243.7795 94.4882,243.7795 94.4882,243.7795 94.4882,281.5748 94.4882,281.5748 56.6929,281.5748 56.6929,281.5748 56.6929,319.3701 56.6929,319.3701 18.8976,319.3701 18.8976,319.3701 18.8976,357.1654 18.8976,357.1654 56.6929,357.1654 56.6929,357.1654 56.6929,319.3701 56.6929,319.3701 94.4882,319.3701 94.4882,319.3701 94.4882,281.5748"/>
    <polyline points="22.6624,209.1535 23.2874,208.841 23.2874,208.841 24.2249,207.9035 24.2249,207.9035 24.2249,214.466"/>
    <polyline points="31.0999,214.466 31.0999,207.9035 31.0999,207.9035 27.9749,212.2785 27.9749,212.2785 32.6624,212.2785"/>
    <line x1="35.9203" x2="35.9203" y1="217.3819" y2="230.5069"/>
    <line x1="44.6703" x2="44.6703" y1="217.3819" y2="230.5069"/>
    <line x1="35.9203" x2="44.6703" y1="223.6319" y2="223.6319"/>
    <polyline points="81.2156,230.5069 76.2156,217.3819 76.2156,217.3819 71.2156,230.5069"/>
    <line x1="73.0906" x2="79.3406" y1="226.1319" y2="226.1319"/>
    <polyline points="120.2608,217.3819 120.2608,230.5069 120.2608,230.5069 111.5108,217.3819 111.5108,217.3819 111.5108,230.5069"/>
    <polyline points="132.2835,243.7795 170.0787,243.7795 170.0787,243.7795 170.0787,281.5748 170.0787,281.5748 207.874,281.5748 207.874,281.5748 207.874,243.7795 207.874,243.7795 245.6693,243.7795 245.6693,243.7795 245.6693,281.5748 245.6693,281.5748 207.874,281.5748 207.874,281.5748 207.874,319.3701 207.874,319.3701 207.874,357.1654 207.874,357.1654 245.6693,357.1654 245.6693,357.1654 245.6693,319.3701 245.6693,319.3701 207.874,319.3701 207.874,319.3701 170.0787,319.3701 170.0787,319.3701 132.2835,319.3701 132.2835,319.3701 94.4882,319.3701 94.4882,319.3701 94.4882,357.1654 94.4882,357.1654 132.2835,357.1654 132.2835,357.1654 170.0787,357.1654 170.0787,357.1654 207.874,357.1654"/>
    <polyline points="158.0561,217.3819 158.0561,230.5069 158.0561,230.5069 149.3061,217.3819 149.3061,217.3819 149.3061,230.5069"/>
    <polyline points="195.5389,217.3819 187.4139,217.3819 187.4139,217.3819 187.4139,230.5069 187.4139,230.5069 195.5389,230.5069"/>
    <line x1="187.4139" x2="192.4139" y1="223.6319" y2="223.6319"/>
    <polygon points="265.1919,217.3819 263.9419,218.0069 263.9419,218.0069 262.6919,219.2569 262.6919,219.2569 262.0669,220.5069 262.0669,220.5069 261.4419,222.3819 261.4419,222.3819 261.4419,225.5069 261.4419,225.5069 262.0669,227.3819 262.0669,227.3819 262.6919,228.6319 262.6919,228.6319 263.9419,229.8819 263.9419,229.8819 265.1919,230.5069 265.1919,230.5069 267.6919,230.5069 267.6919,230.5069 268.9419,229.8819 268.9419,229.8819 270.1919,228.6319 270.1919,228.6319 270.8169,227.3819 270.8169,227.3819 271.4419,225.5069 271.4419,225.5069 271.4419,222.3819 271.4419,222.3819 270.8169,220.5069 270.8169,220.5069 270.1919,219.2569 270.1919,219.2569 268.9419,218.0069 268.9419,218.0069 267.6919,217.3819 267.6919,217.3819"/>
    <polyline points="413.873,223.6319 419.498,223.6319 419.498,223.6319 421.373,223.0069 421.373,223.0069 421.998,222.3819 421.998,222.3819 422.623,221.1319 422.623,221.1319 422.623,219.8819 422.623,219.8819 421.998,218.6319 421.998,218.6319 421.373,218.0069 421.373,218.0069 419.498,217.3819 419.498,217.3819 413.873,217.3819 413.873,217.3819 413.873,230.5069"/>
    <line x1="418.248" x2="422.623" y1="223.6319" y2="230.5069"/>
    <polyline points="572.5541,230.5069 567.5541,217.3819 567.5541,217.3819 562.5541,230.5069"/>
    <line x1="564.4291" x2="570.6791" y1="226.1319" y2="226.1319"/>
    <polyline points="81.8406,257.0522 80.5906,255.8022 80.5906,255.8022 78.7156,255.1772 78.7156,255.1772 76.2156,255.1772 76.2156,255.1772 74.3406,255.8022 74.3406,255.8022 73.0906,257.0522 73.0906,257.0522 73.0906,258.3022 73.0906,258.3022 73.7156,259.5522 73.7156,259.5522 74.3406,260.1772 74.3406,260.1772 75.5906,260.8022 75.5906,260.8022 79.3406,262.0522 79.3406,262.0522 80.5906,262.6772 80.5906,262.6772 81.2156,263.3022 81.2156,263.3022 81.8406,264.5522 81.8406,264.5522 81.8406,266.4272 81.8406,266.4272 80.5906,267.6772 80.5906,267.6772 78.7156,268.3022 78.7156,268.3022 76.2156,268.3022 76.2156,268.3022 74.3406,267.6772 74.3406,267.6772 73.0906,266.4272"/>
    <polyline points="173.8435,246.9488 174.4685,246.6363 174.4685,246.6363 175.406,245.6988 175.406,245.6988 175.406,252.2613"/>
    <polyline points="182.906,245.6988 179.781,245.6988 179.781,245.6988 179.4685,248.5113 179.4685,248.5113 179.781,248.1988 179.781,248.1988 180.7185,247.8863 180.7185,247.8863 181.656,247.8863 181.656,247.8863 182.5935,248.1988 182.5935,248.1988 183.2185,248.8238 183.2185,248.8238 183.531,249.7613 183.531,249.7613 183.531,250.3863 183.531,250.3863 183.2185,251.3238 183.2185,251.3238 182.5935,251.9488 182.5935,251.9488 181.656,252.2613 181.656,252.2613 180.7185,252.2613 180.7185,252.2613 179.781,251.9488 179.781,251.9488 179.4685,251.6363 179.4685,251.6363 179.156,251.0113"/>
    <polyline points="187.1014,261.4272 192.7264,261.4272 192.7264,261.4272 194.6014,260.8022 194.6014,260.8022 195.2264,260.1772 195.2264,260.1772 195.8514,258.9272 195.8514,258.9272 195.8514,257.6772 195.8514,257.6772 195.2264,256.4272 195.2264,256.4272 194.6014,255.8022 194.6014,255.8022 192.7264,255.1772 192.7264,255.1772 187.1014,255.1772 187.1014,255.1772 187.1014,268.3022"/>
    <line x1="191.4764" x2="195.8514" y1="261.4272" y2="268.3022"/>
    <polyline points="233.3342,255.1772 225.2092,255.1772 225.2092,255.1772 225.2092,268.3022 225.2092,268.3022 233.3342,268.3022"/>
    <line x1="225.2092" x2="230.2092" y1="261.4272" y2="261.4272"/>
    <polygon points="245.6693,281.5748 283.4646,281.5748 283.4646,281.5748 321.2598,281.5748 321.2598,281.5748 321.2598,243.7795 321.2598,243.7795 283.4646,243.7795 283.4646,243.7795 283.4646,281.5748 283.4646,281.5748 283.4646,319.3701 283.4646,319.3701 283.4646,357.1654 283.4646,357.1654 321.2598,357.1654 321.2598,357.1654 359.0551,357.1654 359.0551,357.1654 359.0551,319.3701 359.0551,319.3701 321.2598,319.3701 321.2598,319.3701 283.4646,319.3701 283.4646,319.3701 245.6693,319.3701 245.6693,319.3701"/>
    <line x1="262.6919" x2="262.6919" y1="255.1772" y2="268.3022"/>
    <line x1="271.4419" x2="262.6919" y1="255.1772" y2="263.9272"/>
    <line x1="265.8169" x2="271.4419" y1="260.8022" y2="268.3022"/>
    <line x1="300.4872" x2="300.4872" y1="255.1772" y2="268.3022"/>
    <line x1="309.2372" x2="300.4872" y1="255.1772" y2="263.9272"/>
    <line x1="303.6122" x2="309.2372" y1="260.8022" y2="268.3022"/>
    <polyline points="321.2598,281.5748 359.0551,281.5748 359.0551,281.5748 359.0551,243.7795 359.0551,243.7795 321.2598,243.7795"/>
    <polyline points="346.72,255.1772 338.595,255.1772 338.595,255.1772 338.595,268.3022 338.595,268.3022 346.72,268.3022"/>
    <line x1="338.595" x2="343.595" y1="261.4272" y2="261.4272"/>
    <polyline points="359.0551,281.5748 396.8504,281.5748 396.8504,281.5748 396.8504,319.3701 396.8504,319.3701 434.6457,319.3701 434.6457,319.3701 434.6457,281.5748 434.6457,281.5748 434.6457,243.7795 434.6457,243.7795 472.4409,243.7795 472.4409,243.7795 510.2362,243.7795 510.2362,243.7795 510.2362,281.5748 510.2362,281.5748 472.4409,281.5748 472.4409,281.5748 472.4409,243.7795"/>
    <polyline points="472.4409,281.5748 434.6457,281.5748 434.6457,281.5748 396.8504,281.5748 396.8504,281.5748 396.8504,243.7795 396.8504,243.7795 359.0551,243.7795"/>
    <polyline points="376.0778,261.4272 381.7028,261.4272 381.7028,261.4272 383.5778,260.8022 383.5778,260.8022 384.2028,260.1772 384.2028,260.1772 384.8278,258.9272 384.8278,258.9272 384.8278,257.6772 384.8278,257.6772 384.2028,256.4272 384.2028,256.4272 383.5778,255.8022 383.5778,255.8022 381.7028,255.1772 381.7028,255.1772 376.0778,255.1772 376.0778,255.1772 376.0778,268.3022"/>
    <line x1="380.4528" x2="384.8278" y1="261.4272" y2="268.3022"/>
    <line x1="416.373" x2="416.373" y1="255.1772" y2="268.3022"/>
    <line x1="411.998" x2="420.748" y1="255.1772" y2="255.1772"/>
    <polyline points="457.9183,255.1772 457.9183,265.1772 457.9183,265.1772 457.2933,267.0522 457.2933,267.0522 456.6683,267.6772 456.6683,267.6772 455.4183,268.3022 455.4183,268.3022 454.1683,268.3022 454.1683,268.3022 452.9183,267.6772 452.9183,267.6772 452.2933,267.0522 452.2933,267.0522 451.6683,265.1772 451.6683,265.1772 451.6683,263.9272"/>
    <polyline points="497.9011,255.1772 489.7761,255.1772 489.7761,255.1772 489.7761,268.3022 489.7761,268.3022 497.9011,268.3022"/>
    <line x1="489.7761" x2="494.7761" y1="261.4272" y2="261.4272"/>
    <polyline points="548.0315,243.7795 548.0315,281.5748 548.0315,281.5748 548.0315,319.3701 548.0315,319.3701 585.8268,319.3701 585.8268,319.3701 585.8268,281.5748 585.8268,281.5748 585.8268,243.7795 585.8268,243.7795 623.622,243.7795 623.622,243.7795 661.4173,243.7795 661.4173,243.7795 699.2126,243.7795 699.2126,243.7795 699.2126,281.5748 699.2126,281.5748 661.4173,281.5748 661.4173,281.5748 661.4173,243.7795"/>
    <polyline points="548.0315,281.5748 585.8268,281.5748 585.8268,281.5748 623.622,281.5748 623.622,281.5748 623.622,243.7795"/>
    <polyline points="551.7963,246.9488 552.4213,246.6363 552.4213,246.6363 553.3588,245.6988 553.3588,245.6988 553.3588,252.2613"/>
    <polyline points="561.1713,246.6363 560.8588,246.0113 560.8588,246.0113 559.9213,245.6988 559.9213,245.6988 559.2963,245.6988 559.2963,245.6988 558.3588,246.0113 558.3588,246.0113 557.7338,246.9488 557.7338,246.9488 557.4213,248.5113 557.4213,248.5113 557.4213,250.0738 557.4213,250.0738 557.7338,251.3238 557.7338,251.3238 558.3588,251.9488 558.3588,251.9488 559.2963,252.2613 559.2963,252.2613 559.6088,252.2613 559.6088,252.2613 560.5463,251.9488 560.5463,251.9488 561.1713,251.3238 561.1713,251.3238 561.4838,250.3863 561.4838,250.3863 561.4838,250.0738 561.4838,250.0738 561.1713,249.1363 561.1713,249.1363 560.5463,248.5113 560.5463,248.5113 559.6088,248.1988 559.6088,248.1988 559.2963,248.1988 559.2963,248.1988 558.3588,248.5113 558.3588,248.5113 557.7338,249.1363 557.7338,249.1363 557.4213,250.0738"/>
    <polygon points="565.0541,255.1772 565.0541,268.3022 565.0541,268.3022 569.4291,268.3022 569.4291,268.3022 571.3041,267.6772 571.3041,267.6772 572.5541,266.4272 572.5541,266.4272 573.1791,265.1772 573.1791,265.1772 573.8041,263.3022 573.8041,263.3022 573.8041,260.1772 573.8041,260.1772 573.1791,258.3022 573.1791,258.3022 572.5541,257.0522 572.5541,257.0522 571.3041,255.8022 571.3041,255.8022 569.4291,255.1772 569.4291,255.1772"/>
    <polyline points="602.8494,261.4272 608.4744,261.4272 608.4744,261.4272 610.3494,260.8022 610.3494,260.8022 610.9744,260.1772 610.9744,260.1772 611.5994,258.9272 611.5994,258.9272 611.5994,257.6772 611.5994,257.6772 610.9744,256.4272 610.9744,256.4272 610.3494,255.8022 610.3494,255.8022 608.4744,255.1772 608.4744,255.1772 602.8494,255.1772 602.8494,255.1772 602.8494,268.3022"/>
    <line x1="607.2244" x2="611.5994" y1="261.4272" y2="268.3022"/>
    <line x1="623.622" x2="661.4173" y1="281.5748" y2="281.5748"/>
    <polygon points="643.1447,255.1772 641.8947,255.8022 641.8947,255.8022 640.6447,257.0522 640.6447,257.0522 640.0197,258.3022 640.0197,258.3022 639.3947,260.1772 639.3947,260.1772 639.3947,263.3022 639.3947,263.3022 640.0197,265.1772 640.0197,265.1772 640.6447,266.4272 640.6447,266.4272 641.8947,267.6772 641.8947,267.6772 643.1447,268.3022 643.1447,268.3022 645.6447,268.3022 645.6447,268.3022 646.8947,267.6772 646.8947,267.6772 648.1447,266.4272 648.1447,266.4272 648.7697,265.1772 648.7697,265.1772 649.3947,263.3022 649.3947,263.3022 649.3947,260.1772 649.3947,260.1772 648.7697,258.3022 648.7697,258.3022 648.1447,257.0522 648.1447,257.0522 646.8947,255.8022 646.8947,255.8022 645.6447,255.1772 645.6447,255.1772"/>
    <polyline points="678.44,262.0522 684.065,262.0522 684.065,262.0522 685.94,261.4272 685.94,261.4272 686.565,260.8022 686.565,260.8022 687.19,259.5522 687.19,259.5522 687.19,257.6772 687.19,257.6772 686.565,256.4272 686.565,256.4272 685.94,255.8022 685.94,255.8022 684.065,255.1772 684.065,255.1772 678.44,255.1772 678.44,255.1772 678.44,268.3022"/>
    <polyline points="81.8406,294.8474 80.5906,293.5974 80.5906,293.5974 78.7156,292.9724 78.7156,292.9724 76.2156,292.9724 76.2156,292.9724 74.3406,293.5974 74.3406,293.5974 73.0906,294.8474 73.0906,294.8474 73.0906,296.0974 73.0906,296.0974 73.7156,297.3474 73.7156,297.3474 74.3406,297.9724 74.3406,297.9724 75.5906,298.5974 75.5906,298.5974 79.3406,299.8474 79.3406,299.8474 80.5906,300.4724 80.5906,300.4724 81.2156,301.0974 81.2156,301.0974 81.8406,302.3474 81.8406,302.3474 81.8406,304.2224 81.8406,304.2224 80.5906,305.4724 80.5906,305.4724 78.7156,306.0974 78.7156,306.0974 76.2156,306.0974 76.2156,306.0974 74.3406,305.4724 74.3406,305.4724 73.0906,304.2224"/>
    <polyline points="170.0787,281.5748 170.0787,319.3701 170.0787,319.3701 170.0787,357.1654"/>
    <polyline points="195.5389,292.9724 187.4139,292.9724 187.4139,292.9724 187.4139,306.0974 187.4139,306.0974 195.5389,306.0974"/>
    <line x1="187.4139" x2="192.4139" y1="299.2224" y2="299.2224"/>
    <polyline points="271.1294,292.9724 263.0044,292.9724 263.0044,292.9724 263.0044,306.0974 263.0044,306.0974 271.1294,306.0974"/>
    <line x1="263.0044" x2="268.0044" y1="299.2224" y2="299.2224"/>
    <polyline points="420.123,292.9724 420.123,302.9724 420.123,302.9724 419.498,304.8474 419.498,304.8474 418.873,305.4724 418.873,305.4724 417.623,306.0974 417.623,306.0974 416.373,306.0974 416.373,306.0974 415.123,305.4724 415.123,305.4724 414.498,304.8474 414.498,304.8474 413.873,302.9724 413.873,302.9724 413.873,301.7224"/>
    <line x1="569.4291" x2="569.4291" y1="292.9724" y2="306.0974"/>
    <polyline points="22.6624,322.5394 23.2874,322.2269 23.2874,322.2269 24.2249,321.2894 24.2249,321.2894 24.2249,327.8519"/>
    <polyline points="27.9749,321.2894 32.3499,321.2894 32.3499,321.2894 29.2249,327.8519"/>
    <polyline points="36.5453,330.7677 36.5453,343.8927 36.5453,343.8927 44.0453,343.8927"/>
    <line x1="56.6929" x2="94.4882" y1="357.1654" y2="357.1654"/>
    <polyline points="81.2156,343.8927 76.2156,330.7677 76.2156,330.7677 71.2156,343.8927"/>
    <line x1="73.0906" x2="79.3406" y1="339.5177" y2="339.5177"/>
    <line x1="132.2835" x2="132.2835" y1="357.1654" y2="319.3701"/>
    <line x1="111.5108" x2="111.5108" y1="330.7677" y2="343.8927"/>
    <line x1="120.2608" x2="111.5108" y1="330.7677" y2="339.5177"/>
    <line x1="114.6358" x2="120.2608" y1="336.3927" y2="343.8927"/>
    <polyline points="157.7436,330.7677 149.6186,330.7677 149.6186,330.7677 149.6186,343.8927 149.6186,343.8927 157.7436,343.8927"/>
    <line x1="149.6186" x2="154.6186" y1="337.0177" y2="337.0177"/>
    <polyline points="195.8514,330.7677 195.8514,343.8927 195.8514,343.8927 187.1014,330.7677 187.1014,330.7677 187.1014,343.8927"/>
    <polyline points="233.0217,332.6427 231.7717,331.3927 231.7717,331.3927 229.8967,330.7677 229.8967,330.7677 227.3967,330.7677 227.3967,330.7677 225.5217,331.3927 225.5217,331.3927 224.2717,332.6427 224.2717,332.6427 224.2717,333.8927 224.2717,333.8927 224.8967,335.1427 224.8967,335.1427 225.5217,335.7677 225.5217,335.7677 226.7717,336.3927 226.7717,336.3927 230.5217,337.6427 230.5217,337.6427 231.7717,338.2677 231.7717,338.2677 232.3967,338.8927 232.3967,338.8927 233.0217,340.1427 233.0217,340.1427 233.0217,342.0177 233.0217,342.0177 231.7717,343.2677 231.7717,343.2677 229.8967,343.8927 229.8967,343.8927 227.3967,343.8927 227.3967,343.8927 225.5217,343.2677 225.5217,343.2677 224.2717,342.0177"/>
    <line x1="321.2598" x2="321.2598" y1="357.1654" y2="319.3701"/>
    <polyline points="287.2293,322.5394 287.8543,322.2269 287.8543,322.2269 288.7918,321.2894 288.7918,321.2894 288.7918,327.8519"/>
    <polygon points="294.1043,321.2894 293.1668,321.6019 293.1668,321.6019 292.8543,322.2269 292.8543,322.2269 292.8543,322.8519 292.8543,322.8519 293.1668,323.4769 293.1668,323.4769 293.7918,323.7894 293.7918,323.7894 295.0418,324.1019 295.0418,324.1019 295.9793,324.4144 295.9793,324.4144 296.6043,325.0394 296.6043,325.0394 296.9168,325.6644 296.9168,325.6644 296.9168,326.6019 296.9168,326.6019 296.6043,327.2269 296.6043,327.2269 296.2918,327.5394 296.2918,327.5394 295.3543,327.8519 295.3543,327.8519 294.1043,327.8519 294.1043,327.8519 293.1668,327.5394 293.1668,327.5394 292.8543,327.2269 292.8543,327.2269 292.5418,326.6019 292.5418,326.6019 292.5418,325.6644 292.5418,325.6644 292.8543,325.0394 292.8543,325.0394 293.4793,324.4144 293.4793,324.4144 294.4168,324.1019 294.4168,324.1019 295.6668,323.7894 295.6668,323.7894 296.2918,323.4769 296.2918,323.4769 296.6043,322.8519 296.6043,322.8519 296.6043,322.2269 296.6043,322.2269 296.2918,321.6019 296.2918,321.6019 295.3543,321.2894 295.3543,321.2894"/>
    <polyline points="300.4872,337.0177 306.1122,337.0177 306.1122,337.0177 307.9872,336.3927 307.9872,336.3927 308.6122,335.7677 308.6122,335.7677 309.2372,334.5177 309.2372,334.5177 309.2372,333.2677 309.2372,333.2677 308.6122,332.0177 308.6122,332.0177 307.9872,331.3927 307.9872,331.3927 306.1122,330.7677 306.1122,330.7677 300.4872,330.7677 300.4872,330.7677 300.4872,343.8927"/>
    <line x1="304.8622" x2="309.2372" y1="337.0177" y2="343.8927"/>
    <polyline points="346.72,330.7677 338.595,330.7677 338.595,330.7677 338.595,343.8927 338.595,343.8927 346.72,343.8927"/>
    <line x1="338.595" x2="343.595" y1="337.0177" y2="337.0177"/>
    <polyline points="359.0551,357.1654 396.8504,357.1654 396.8504,357.1654 396.8504,319.3701 396.8504,319.3701 359.0551,319.3701"/>
    <polyline points="384.5153,333.8927 383.8903,332.6427 383.8903,332.6427 382.6403,331.3927 382.6403,331.3927 381.3903,330.7677 381.3903,330.7677 378.8903,330.7677 378.8903,330.7677 377.6403,331.3927 377.6403,331.3927 376.3903,332.6427 376.3903,332.6427 375.7653,333.8927 375.7653,333.8927 375.1403,335.7677 375.1403,335.7677 375.1403,338.8927 375.1403,338.8927 375.7653,340.7677 375.7653,340.7677 376.3903,342.0177 376.3903,342.0177 377.6403,343.2677 377.6403,343.2677 378.8903,343.8927 378.8903,343.8927 381.3903,343.8927 381.3903,343.8927 382.6403,343.2677 382.6403,343.2677 383.8903,342.0177 383.8903,342.0177 384.5153,340.7677 384.5153,340.7677 384.5153,338.8927 384.5153,338.8927 381.3903,338.8927"/>
    <polyline points="396.8504,357.1654 434.6457,357.1654 434.6457,357.1654 434.6457,319.3701 434.6457,319.3701 472.4409,319.3701 472.4409,319.3701 510.2362,319.3701 510.2362,319.3701 548.0315,319.3701 548.0315,319.3701 548.0315,357.1654 548.0315,357.1654 585.8268,357.1654 585.8268,357.1654 585.8268,319.3701 585.8268,319.3701 623.622,319.3701 623.622,319.3701 623.622,357.1654 623.622,357.1654 585.8268,357.1654"/>
    <polyline points="422.3105,330.7677 414.1855,330.7677 414.1855,330.7677 414.1855,343.8927 414.1855,343.8927 422.3105,343.8927"/>
    <line x1="414.1855" x2="419.1855" y1="337.0177" y2="337.0177"/>
    <polyline points="434.6457,357.1654 472.4409,357.1654 472.4409,357.1654 510.2362,357.1654 510.2362,357.1654 548.0315,357.1654"/>
    <line x1="472.4409" x2="472.4409" y1="357.1654" y2="319.3701"/>
    <polyline points="460.4183,330.7677 460.4183,343.8927 460.4183,343.8927 451.6683,330.7677 451.6683,330.7677 451.6683,343.8927"/>
    <line x1="510.2362" x2="510.2362" y1="357.1654" y2="319.3701"/>
    <polygon points="489.4636,330.7677 489.4636,343.8927 489.4636,343.8927 495.0886,343.8927 495.0886,343.8927 496.9636,343.2677 496.9636,343.2677 497.5886,342.6427 497.5886,342.6427 498.2136,341.3927 498.2136,341.3927 498.2136,339.5177 498.2136,339.5177 497.5886,338.2677 497.5886,338.2677 496.9636,337.6427 496.9636,337.6427 495.0886,337.0177 495.0886,337.0177 496.9636,336.3927 496.9636,336.3927 497.5886,335.7677 497.5886,335.7677 498.2136,334.5177 498.2136,334.5177 498.2136,333.2677 498.2136,333.2677 497.5886,332.0177 497.5886,332.0177 496.9636,331.3927 496.9636,331.3927 495.0886,330.7677 495.0886,330.7677"/>
    <line x1="489.4636" x2="495.0886" y1="337.0177" y2="337.0177"/>
    <polygon points="529.7589,330.7677 528.5089,331.3927 528.5089,331.3927 527.2589,332.6427 527.2589,332.6427 526.6339,333.8927 526.6339,333.8927 526.0089,335.7677 526.0089,335.7677 526.0089,338.8927 526.0089,338.8927 526.6339,340.7677 526.6339,340.7677 527.2589,342.0177 527.2589,342.0177 528.5089,343.2677 528.5089,343.2677 529.7589,343.8927 529.7589,343.8927 532.2589,343.8927 532.2589,343.8927 533.5089,343.2677 533.5089,343.2677 534.7589,342.0177 534.7589,342.0177 535.3839,340.7677 535.3839,340.7677 536.0089,338.8927 536.0089,338.8927 536.0089,335.7677 536.0089,335.7677 535.3839,333.8927 535.3839,333.8927 534.7589,332.6427 534.7589,332.6427 533.5089,331.3927 533.5089,331.3927 532.2589,330.7677 532.2589,330.7677"/>
    <polygon points="567.5541,330.7677 566.3041,331.3927 566.3041,331.3927 565.0541,332.6427 565.0541,332.6427 564.4291,333.8927 564.4291,333.8927 563.8041,335.7677 563.8041,335.7677 563.8041,338.8927 563.8041,338.8927 564.4291,340.7677 564.4291,340.7677 565.0541,342.0177 565.0541,342.0177 566.3041,343.2677 566.3041,343.2677 567.5541,343.8927 567.5541,343.8927 570.0541,343.8927 570.0541,343.8927 571.3041,343.2677 571.3041,343.2677 572.5541,342.0177 572.5541,342.0177 573.1791,340.7677 573.1791,340.7677 573.8041,338.8927 573.8041,338.8927 573.8041,335.7677 573.8041,335.7677 573.1791,333.8927 573.1791,333.8927 572.5541,332.6427 572.5541,332.6427 571.3041,331.3927 571.3041,331.3927 570.0541,330.7677 570.0541,330.7677"/>
    <polyline points="611.2869,333.8927 610.6619,332.6427 610.6619,332.6427 609.4119,331.3927 609.4119,331.3927 608.1619,330.7677 608.1619,330.7677 605.6619,330.7677 605.6619,330.7677 604.4119,331.3927 604.4119,331.3927 603.1619,332.6427 603.1619,332.6427 602.5369,333.8927 602.5369,333.8927 601.9119,335.7677 601.9119,335.7677 601.9119,338.8927 601.9119,338.8927 602.5369,340.7677 602.5369,340.7677 603.1619,342.0177 603.1619,342.0177 604.4119,343.2677 604.4119,343.2677 605.6619,343.8927 605.6619,343.8927 608.1619,343.8927 608.1619,343.8927 609.4119,343.2677 609.4119,343.2677 610.6619,342.0177 610.6619,342.0177 611.2869,340.7677 611.2869,340.7677 611.2869,338.8927 611.2869,338.8927 608.1619,338.8927"/>
  </g>
</svg>
