<?xml version="1.0" encoding="utf-8" ?>
<svg xmlns="http://www.w3.org/2000/svg" xmlns:cc="http://creativecommons.org/ns" xmlns:dc="http://purl.org/dc/elements/1.1/" xmlns:ev="http://www.w3.org/2001/xml-events" xmlns:inkscape="http://www.inkscape.org/namespaces/inkscape" xmlns:rdf="http://www.w3.org/1999/02/22-rdf-syntax-ns" xmlns:sodipodi="http://sodipodi.sourceforge.net/DTD/sodipodi-0.dtd" xmlns:xlink="http://www.w3.org/1999/xlink" baseProfile="tiny" height="9.9cm" version="1.2" viewBox="0 0 793.7007874015749 374.1732283464567" width="21.0cm">
  <metadata>
    <rdf:RDF>
      <cc:Work>
        <dc:format>image/svg+xml</dc:format>
        <dc:source>vpype eval 'cell=10;width=210;height=99' eval 'nCols=20;nRows=9' eval 'cells=[6,7,8,9,10,11,12,13,14,16,19,22,23,24,25,32,36,39,42,46,47,48,49,51,52,53,54,55,56,57,58,59,60,62,64,68,72,76,80,82,84,86,87,88,89,90,91,92,93,97,99,100,101,102,103,104,105,108,112,117,119,120,124,128,129,132,133,134,135,136,137,138,139,140,143,144,145,146,147,148,152,157,159,160,164,168,171,172,173,174,175,176,177,178,179]' eval 'chars=[&quot;U&quot;,&quot;I&quot;,&quot;T&quot;,&quot;L&quot;,&quot;I&quot;,&quot;K&quot;,&quot;K&quot;,&quot;E&quot;,&quot;N&quot;,&quot;N&quot;,&quot;Z&quot;,&quot;B&quot;,&quot;E&quot;,&quot;R&quot;,&quot;T&quot;,&quot;L&quot;,&quot;O&quot;,&quot;O&quot;,&quot;R&quot;,&quot;D&quot;,&quot;R&quot;,&quot;O&quot;,&quot;P&quot;,&quot;M&quot;,&quot;A&quot;,&quot;N&quot;,&quot;D&quot;,&quot;A&quot;,&quot;R&quot;,&quot;I&quot;,&quot;J&quot;,&quot;N&quot;,&quot;C&quot;,&quot;O&quot;,&quot;K&quot;,&quot;O&quot;,&quot;V&quot;,&quot;E&quot;,&quot;E&quot;,&quot;O&quot;,&quot;I&quot;,&quot;P&quot;,&quot;A&quot;,&quot;R&quot;,&quot;K&quot;,&quot;E&quot;,&quot;R&quot;,&quot;E&quot;,&quot;N&quot;,&quot;E&quot;,&quot;J&quot;,&quot;L&quot;,&quot;A&quot;,&quot;D&quot;,&quot;D&quot;,&quot;E&quot;,&quot;R&quot;,&quot;T&quot;,&quot;R&quot;,&quot;W&quot;,&quot;A&quot;,&quot;I&quot;,&quot;M&quot;,&quot;J&quot;,&quot;A&quot;,&quot;T&quot;,&quot;E&quot;,&quot;L&quot;,&quot;E&quot;,&quot;F&quot;,&quot;O&quot;,&quot;O&quot;,&quot;N&quot;,&quot;N&quot;,&quot;C&quot;,&quot;E&quot;,&quot;N&quot;,&quot;T&quot;,&quot;J&quot;,&quot;E&quot;,&quot;J&quot;,&quot;U&quot;,&quot;N&quot;,&quot;E&quot;,&quot;N&quot;,&quot;S&quot;,&quot;R&quot;,&quot;E&quot;,&quot;K&quot;,&quot;K&quot;,&quot;E&quot;,&quot;R&quot;,&quot;T&quot;,&quot;J&quot;,&quot;E&quot;]' eval 'numbers=[6,12,16,19,22,46,48,51,60,64,86,97,99,100,128,132,143,171]' eval counter=1 eval charIndex=0 begin grid -o '%cell*mm%' '%cell*mm%' %nCols% %nRows% eval '%isCell=_i in cells%' eval '%number=_i in numbers%' eval '%size=10 if isCell else 0%' rect 0 0 '%size*mm%' '%size*mm%' text -s 10 -p 0.5mm 1.5mm '%counter if number else '&quot;'&quot;''&quot;'&quot;'%' text -s 20 -p 5mm 5mm -a center '%chars[charIndex] if isCell else '&quot;'&quot;''&quot;'&quot;'%' eval '%if number: counter+=1 %' eval '%if isCell: charIndex+=1 %' end splitall deduplicate linemerge --tolerance 0.1mm write -m none --page-size '%width*mm%x%height*mm%' --center ./svgs/solution/aadd7e.svg
</dc:source>
        <dc:date>2023-12-23T22:30:06.856067</dc:date>
      </cc:Work>
    </rdf:RDF>
  </metadata>
  <defs/>
  <g fill="none" id="layer1" inkscape:groupmode="layer" inkscape:label="1" stroke="#000000" style="display:inline">
    <polygon points="245.6693,17.0079 245.6693,54.8031 245.6693,54.8031 283.4646,54.8031 283.4646,54.8031 321.2598,54.8031 321.2598,54.8031 359.0551,54.8031 359.0551,54.8031 359.0551,17.0079 359.0551,17.0079 321.2598,17.0079 321.2598,17.0079 283.4646,17.0079 283.4646,17.0079"/>
    <line x1="283.4646" x2="283.4646" y1="54.8031" y2="17.0079"/>
    <polyline points="249.4341,20.1772 250.0591,19.8647 250.0591,19.8647 250.9966,18.9272 250.9966,18.9272 250.9966,25.4897"/>
    <polyline points="262.6919,28.4055 262.6919,37.7805 262.6919,37.7805 263.3169,39.6555 263.3169,39.6555 264.5669,40.9055 264.5669,40.9055 266.4419,41.5305 266.4419,41.5305 267.6919,41.5305 267.6919,41.5305 269.5669,40.9055 269.5669,40.9055 270.8169,39.6555 270.8169,39.6555 271.4419,37.7805 271.4419,37.7805 271.4419,28.4055"/>
    <line x1="321.2598" x2="321.2598" y1="54.8031" y2="17.0079"/>
    <line x1="304.8622" x2="304.8622" y1="28.4055" y2="41.5305"/>
    <line x1="340.7825" x2="340.7825" y1="28.4055" y2="41.5305"/>
    <line x1="336.4075" x2="345.1575" y1="28.4055" y2="28.4055"/>
    <polyline points="359.0551,54.8031 396.8504,54.8031 396.8504,54.8031 396.8504,17.0079 396.8504,17.0079 359.0551,17.0079"/>
    <polyline points="376.7028,28.4055 376.7028,41.5305 376.7028,41.5305 384.2028,41.5305"/>
    <polyline points="396.8504,54.8031 434.6457,54.8031 434.6457,54.8031 434.6457,17.0079 434.6457,17.0079 396.8504,17.0079"/>
    <line x1="418.248" x2="418.248" y1="28.4055" y2="41.5305"/>
    <polyline points="434.6457,54.8031 472.4409,54.8031 472.4409,54.8031 510.2362,54.8031 510.2362,54.8031 510.2362,17.0079 510.2362,17.0079 472.4409,17.0079 472.4409,17.0079 434.6457,17.0079"/>
    <polyline points="359.0551,92.5984 396.8504,92.5984 396.8504,92.5984 396.8504,130.3937 396.8504,130.3937 359.0551,130.3937 359.0551,130.3937 321.2598,130.3937 321.2598,130.3937 283.4646,130.3937 283.4646,130.3937 245.6693,130.3937 245.6693,130.3937 245.6693,92.5984 245.6693,92.5984 283.4646,92.5984 283.4646,92.5984 321.2598,92.5984 321.2598,92.5984 359.0551,92.5984 359.0551,92.5984 359.0551,130.3937 359.0551,130.3937 359.0551,168.189 359.0551,168.189 396.8504,168.189 396.8504,168.189 434.6457,168.189 434.6457,168.189 472.4409,168.189 472.4409,168.189 472.4409,130.3937 472.4409,130.3937 434.6457,130.3937 434.6457,130.3937 434.6457,92.5984 434.6457,92.5984 472.4409,92.5984 472.4409,92.5984 472.4409,54.8031 472.4409,54.8031 472.4409,17.0079"/>
    <line x1="451.6683" x2="451.6683" y1="28.4055" y2="41.5305"/>
    <line x1="460.4183" x2="451.6683" y1="28.4055" y2="37.1555"/>
    <line x1="454.7933" x2="460.4183" y1="34.0305" y2="41.5305"/>
    <polyline points="475.5807,20.4897 475.5807,20.1772 475.5807,20.1772 475.8932,19.5522 475.8932,19.5522 476.2057,19.2397 476.2057,19.2397 476.8307,18.9272 476.8307,18.9272 478.0807,18.9272 478.0807,18.9272 478.7057,19.2397 478.7057,19.2397 479.0182,19.5522 479.0182,19.5522 479.3307,20.1772 479.3307,20.1772 479.3307,20.8022 479.3307,20.8022 479.0182,21.4272 479.0182,21.4272 478.3932,22.3647 478.3932,22.3647 475.2682,25.4897 475.2682,25.4897 479.6432,25.4897"/>
    <line x1="489.4636" x2="489.4636" y1="28.4055" y2="41.5305"/>
    <line x1="498.2136" x2="489.4636" y1="28.4055" y2="37.1555"/>
    <line x1="492.5886" x2="498.2136" y1="34.0305" y2="41.5305"/>
    <polyline points="434.6457,168.189 434.6457,205.9843 434.6457,205.9843 472.4409,205.9843 472.4409,205.9843 510.2362,205.9843 510.2362,205.9843 510.2362,243.7795 510.2362,243.7795 472.4409,243.7795 472.4409,243.7795 472.4409,205.9843 472.4409,205.9843 472.4409,168.189 472.4409,168.189 510.2362,168.189 510.2362,168.189 548.0315,168.189 548.0315,168.189 548.0315,205.9843 548.0315,205.9843 510.2362,205.9843 510.2362,205.9843 510.2362,168.189 510.2362,168.189 510.2362,130.3937 510.2362,130.3937 510.2362,92.5984 510.2362,92.5984 548.0315,92.5984 548.0315,92.5984 548.0315,130.3937 548.0315,130.3937 510.2362,130.3937 510.2362,130.3937 472.4409,130.3937 472.4409,130.3937 472.4409,92.5984 472.4409,92.5984 510.2362,92.5984 510.2362,92.5984 510.2362,54.8031 510.2362,54.8031 548.0315,54.8031 548.0315,54.8031 585.8268,54.8031 585.8268,54.8031 585.8268,17.0079 585.8268,17.0079 548.0315,17.0079 548.0315,17.0079 510.2362,17.0079"/>
    <line x1="548.0315" x2="548.0315" y1="54.8031" y2="17.0079"/>
    <polyline points="535.6964,28.4055 527.5714,28.4055 527.5714,28.4055 527.5714,41.5305 527.5714,41.5305 535.6964,41.5305"/>
    <line x1="527.5714" x2="532.5714" y1="34.6555" y2="34.6555"/>
    <polyline points="573.8041,28.4055 573.8041,41.5305 573.8041,41.5305 565.0541,28.4055 565.0541,28.4055 565.0541,41.5305"/>
    <polygon points="623.622,17.0079 623.622,54.8031 623.622,54.8031 623.622,92.5984 623.622,92.5984 661.4173,92.5984 661.4173,92.5984 661.4173,54.8031 661.4173,54.8031 661.4173,17.0079 661.4173,17.0079"/>
    <line x1="623.622" x2="661.4173" y1="54.8031" y2="54.8031"/>
    <polyline points="627.0743,18.9272 630.5118,18.9272 630.5118,18.9272 628.6368,21.4272 628.6368,21.4272 629.5743,21.4272 629.5743,21.4272 630.1993,21.7397 630.1993,21.7397 630.5118,22.0522 630.5118,22.0522 630.8243,22.9897 630.8243,22.9897 630.8243,23.6147 630.8243,23.6147 630.5118,24.5522 630.5118,24.5522 629.8868,25.1772 629.8868,25.1772 628.9493,25.4897 628.9493,25.4897 628.0118,25.4897 628.0118,25.4897 627.0743,25.1772 627.0743,25.1772 626.7618,24.8647 626.7618,24.8647 626.4493,24.2397"/>
    <polyline points="649.3947,28.4055 649.3947,41.5305 649.3947,41.5305 640.6447,28.4055 640.6447,28.4055 640.6447,41.5305"/>
    <polygon points="737.0079,17.0079 737.0079,54.8031 737.0079,54.8031 774.8031,54.8031 774.8031,54.8031 774.8031,17.0079 774.8031,17.0079"/>
    <polyline points="742.9601,25.4897 742.9601,18.9272 742.9601,18.9272 739.8351,23.3022 739.8351,23.3022 744.5226,23.3022"/>
    <polyline points="753.4055,28.4055 762.1555,28.4055 762.1555,28.4055 753.4055,41.5305 753.4055,41.5305 762.1555,41.5305"/>
    <polygon points="94.4882,54.8031 94.4882,92.5984 94.4882,92.5984 94.4882,130.3937 94.4882,130.3937 132.2835,130.3937 132.2835,130.3937 132.2835,92.5984 132.2835,92.5984 132.2835,54.8031 132.2835,54.8031"/>
    <polyline points="94.4882,92.5984 132.2835,92.5984 132.2835,92.5984 170.0787,92.5984 170.0787,92.5984 207.874,92.5984 207.874,92.5984 207.874,54.8031 207.874,54.8031 170.0787,54.8031 170.0787,54.8031 132.2835,54.8031"/>
    <polyline points="101.0655,56.7224 97.9405,56.7224 97.9405,56.7224 97.628,59.5349 97.628,59.5349 97.9405,59.2224 97.9405,59.2224 98.878,58.9099 98.878,58.9099 99.8155,58.9099 99.8155,58.9099 100.753,59.2224 100.753,59.2224 101.378,59.8474 101.378,59.8474 101.6905,60.7849 101.6905,60.7849 101.6905,61.4099 101.6905,61.4099 101.378,62.3474 101.378,62.3474 100.753,62.9724 100.753,62.9724 99.8155,63.2849 99.8155,63.2849 98.878,63.2849 98.878,63.2849 97.9405,62.9724 97.9405,62.9724 97.628,62.6599 97.628,62.6599 97.3155,62.0349"/>
    <polygon points="111.5108,66.2008 111.5108,79.3258 111.5108,79.3258 117.1358,79.3258 117.1358,79.3258 119.0108,78.7008 119.0108,78.7008 119.6358,78.0758 119.6358,78.0758 120.2608,76.8258 120.2608,76.8258 120.2608,74.9508 120.2608,74.9508 119.6358,73.7008 119.6358,73.7008 119.0108,73.0758 119.0108,73.0758 117.1358,72.4508 117.1358,72.4508 119.0108,71.8258 119.0108,71.8258 119.6358,71.2008 119.6358,71.2008 120.2608,69.9508 120.2608,69.9508 120.2608,68.7008 120.2608,68.7008 119.6358,67.4508 119.6358,67.4508 119.0108,66.8258 119.0108,66.8258 117.1358,66.2008 117.1358,66.2008"/>
    <line x1="111.5108" x2="117.1358" y1="72.4508" y2="72.4508"/>
    <line x1="170.0787" x2="170.0787" y1="92.5984" y2="54.8031"/>
    <polyline points="157.7436,66.2008 149.6186,66.2008 149.6186,66.2008 149.6186,79.3258 149.6186,79.3258 157.7436,79.3258"/>
    <line x1="149.6186" x2="154.6186" y1="72.4508" y2="72.4508"/>
    <polyline points="187.1014,72.4508 192.7264,72.4508 192.7264,72.4508 194.6014,71.8258 194.6014,71.8258 195.2264,71.2008 195.2264,71.2008 195.8514,69.9508 195.8514,69.9508 195.8514,68.7008 195.8514,68.7008 195.2264,67.4508 195.2264,67.4508 194.6014,66.8258 194.6014,66.8258 192.7264,66.2008 192.7264,66.2008 187.1014,66.2008 187.1014,66.2008 187.1014,79.3258"/>
    <line x1="191.4764" x2="195.8514" y1="72.4508" y2="79.3258"/>
    <polyline points="207.874,92.5984 245.6693,92.5984 245.6693,92.5984 245.6693,54.8031 245.6693,54.8031 207.874,54.8031"/>
    <line x1="227.3967" x2="227.3967" y1="66.2008" y2="79.3258"/>
    <line x1="223.0217" x2="231.7717" y1="66.2008" y2="66.2008"/>
    <polyline points="490.0886,66.2008 490.0886,79.3258 490.0886,79.3258 497.5886,79.3258"/>
    <polygon points="643.1447,66.2008 641.8947,66.8258 641.8947,66.8258 640.6447,68.0758 640.6447,68.0758 640.0197,69.3258 640.0197,69.3258 639.3947,71.2008 639.3947,71.2008 639.3947,74.3258 639.3947,74.3258 640.0197,76.2008 640.0197,76.2008 640.6447,77.4508 640.6447,77.4508 641.8947,78.7008 641.8947,78.7008 643.1447,79.3258 643.1447,79.3258 645.6447,79.3258 645.6447,79.3258 646.8947,78.7008 646.8947,78.7008 648.1447,77.4508 648.1447,77.4508 648.7697,76.2008 648.7697,76.2008 649.3947,74.3258 649.3947,74.3258 649.3947,71.2008 649.3947,71.2008 648.7697,69.3258 648.7697,69.3258 648.1447,68.0758 648.1447,68.0758 646.8947,66.8258 646.8947,66.8258 645.6447,66.2008 645.6447,66.2008"/>
    <polyline points="737.0079,54.8031 737.0079,92.5984 737.0079,92.5984 699.2126,92.5984 699.2126,92.5984 661.4173,92.5984 661.4173,92.5984 661.4173,130.3937 661.4173,130.3937 699.2126,130.3937 699.2126,130.3937 699.2126,92.5984"/>
    <polyline points="774.8031,92.5984 774.8031,130.3937 774.8031,130.3937 737.0079,130.3937 737.0079,130.3937 737.0079,92.5984 737.0079,92.5984 774.8031,92.5984 774.8031,92.5984 774.8031,54.8031"/>
    <polygon points="756.5305,66.2008 755.2805,66.8258 755.2805,66.8258 754.0305,68.0758 754.0305,68.0758 753.4055,69.3258 753.4055,69.3258 752.7805,71.2008 752.7805,71.2008 752.7805,74.3258 752.7805,74.3258 753.4055,76.2008 753.4055,76.2008 754.0305,77.4508 754.0305,77.4508 755.2805,78.7008 755.2805,78.7008 756.5305,79.3258 756.5305,79.3258 759.0305,79.3258 759.0305,79.3258 760.2805,78.7008 760.2805,78.7008 761.5305,77.4508 761.5305,77.4508 762.1555,76.2008 762.1555,76.2008 762.7805,74.3258 762.7805,74.3258 762.7805,71.2008 762.7805,71.2008 762.1555,69.3258 762.1555,69.3258 761.5305,68.0758 761.5305,68.0758 760.2805,66.8258 760.2805,66.8258 759.0305,66.2008 759.0305,66.2008"/>
    <polyline points="111.5108,110.2461 117.1358,110.2461 117.1358,110.2461 119.0108,109.6211 119.0108,109.6211 119.6358,108.9961 119.6358,108.9961 120.2608,107.7461 120.2608,107.7461 120.2608,106.4961 120.2608,106.4961 119.6358,105.2461 119.6358,105.2461 119.0108,104.6211 119.0108,104.6211 117.1358,103.9961 117.1358,103.9961 111.5108,103.9961 111.5108,103.9961 111.5108,117.1211"/>
    <line x1="115.8858" x2="120.2608" y1="110.2461" y2="117.1211"/>
    <line x1="283.4646" x2="283.4646" y1="130.3937" y2="92.5984"/>
    <polyline points="252.5591,95.4552 252.2466,94.8302 252.2466,94.8302 251.3091,94.5177 251.3091,94.5177 250.6841,94.5177 250.6841,94.5177 249.7466,94.8302 249.7466,94.8302 249.1216,95.7677 249.1216,95.7677 248.8091,97.3302 248.8091,97.3302 248.8091,98.8927 248.8091,98.8927 249.1216,100.1427 249.1216,100.1427 249.7466,100.7677 249.7466,100.7677 250.6841,101.0802 250.6841,101.0802 250.9966,101.0802 250.9966,101.0802 251.9341,100.7677 251.9341,100.7677 252.5591,100.1427 252.5591,100.1427 252.8716,99.2052 252.8716,99.2052 252.8716,98.8927 252.8716,98.8927 252.5591,97.9552 252.5591,97.9552 251.9341,97.3302 251.9341,97.3302 250.9966,97.0177 250.9966,97.0177 250.6841,97.0177 250.6841,97.0177 249.7466,97.3302 249.7466,97.3302 249.1216,97.9552 249.1216,97.9552 248.8091,98.8927"/>
    <polygon points="262.6919,103.9961 262.6919,117.1211 262.6919,117.1211 267.0669,117.1211 267.0669,117.1211 268.9419,116.4961 268.9419,116.4961 270.1919,115.2461 270.1919,115.2461 270.8169,113.9961 270.8169,113.9961 271.4419,112.1211 271.4419,112.1211 271.4419,108.9961 271.4419,108.9961 270.8169,107.1211 270.8169,107.1211 270.1919,105.8711 270.1919,105.8711 268.9419,104.6211 268.9419,104.6211 267.0669,103.9961 267.0669,103.9961"/>
    <polyline points="434.6457,205.9843 396.8504,205.9843 396.8504,205.9843 359.0551,205.9843 359.0551,205.9843 359.0551,168.189 359.0551,168.189 321.2598,168.189 321.2598,168.189 321.2598,130.3937 321.2598,130.3937 321.2598,92.5984"/>
    <polyline points="300.4872,110.2461 306.1122,110.2461 306.1122,110.2461 307.9872,109.6211 307.9872,109.6211 308.6122,108.9961 308.6122,108.9961 309.2372,107.7461 309.2372,107.7461 309.2372,106.4961 309.2372,106.4961 308.6122,105.2461 308.6122,105.2461 307.9872,104.6211 307.9872,104.6211 306.1122,103.9961 306.1122,103.9961 300.4872,103.9961 300.4872,103.9961 300.4872,117.1211"/>
    <line x1="304.8622" x2="309.2372" y1="110.2461" y2="117.1211"/>
    <polyline points="324.0871,94.5177 328.4621,94.5177 328.4621,94.5177 325.3371,101.0802"/>
    <polygon points="340.7825,103.9961 339.5325,104.6211 339.5325,104.6211 338.2825,105.8711 338.2825,105.8711 337.6575,107.1211 337.6575,107.1211 337.0325,108.9961 337.0325,108.9961 337.0325,112.1211 337.0325,112.1211 337.6575,113.9961 337.6575,113.9961 338.2825,115.2461 338.2825,115.2461 339.5325,116.4961 339.5325,116.4961 340.7825,117.1211 340.7825,117.1211 343.2825,117.1211 343.2825,117.1211 344.5325,116.4961 344.5325,116.4961 345.7825,115.2461 345.7825,115.2461 346.4075,113.9961 346.4075,113.9961 347.0325,112.1211 347.0325,112.1211 347.0325,108.9961 347.0325,108.9961 346.4075,107.1211 346.4075,107.1211 345.7825,105.8711 345.7825,105.8711 344.5325,104.6211 344.5325,104.6211 343.2825,103.9961 343.2825,103.9961"/>
    <polyline points="376.0778,110.8711 381.7028,110.8711 381.7028,110.8711 383.5778,110.2461 383.5778,110.2461 384.2028,109.6211 384.2028,109.6211 384.8278,108.3711 384.8278,108.3711 384.8278,106.4961 384.8278,106.4961 384.2028,105.2461 384.2028,105.2461 383.5778,104.6211 383.5778,104.6211 381.7028,103.9961 381.7028,103.9961 376.0778,103.9961 376.0778,103.9961 376.0778,117.1211"/>
    <polygon points="439.0354,94.5177 438.0979,94.8302 438.0979,94.8302 437.7854,95.4552 437.7854,95.4552 437.7854,96.0802 437.7854,96.0802 438.0979,96.7052 438.0979,96.7052 438.7229,97.0177 438.7229,97.0177 439.9729,97.3302 439.9729,97.3302 440.9104,97.6427 440.9104,97.6427 441.5354,98.2677 441.5354,98.2677 441.8479,98.8927 441.8479,98.8927 441.8479,99.8302 441.8479,99.8302 441.5354,100.4552 441.5354,100.4552 441.2229,100.7677 441.2229,100.7677 440.2854,101.0802 440.2854,101.0802 439.0354,101.0802 439.0354,101.0802 438.0979,100.7677 438.0979,100.7677 437.7854,100.4552 437.7854,100.4552 437.4729,99.8302 437.4729,99.8302 437.4729,98.8927 437.4729,98.8927 437.7854,98.2677 437.7854,98.2677 438.4104,97.6427 438.4104,97.6427 439.3479,97.3302 439.3479,97.3302 440.5979,97.0177 440.5979,97.0177 441.2229,96.7052 441.2229,96.7052 441.5354,96.0802 441.5354,96.0802 441.5354,95.4552 441.5354,95.4552 441.2229,94.8302 441.2229,94.8302 440.2854,94.5177 440.2854,94.5177"/>
    <polyline points="461.0433,117.1211 461.0433,103.9961 461.0433,103.9961 456.0433,117.1211 456.0433,117.1211 451.0433,103.9961 451.0433,103.9961 451.0433,117.1211"/>
    <polyline points="496.9636,117.1211 491.9636,103.9961 491.9636,103.9961 486.9636,117.1211"/>
    <line x1="488.8386" x2="495.0886" y1="112.7461" y2="112.7461"/>
    <polyline points="536.0089,103.9961 536.0089,117.1211 536.0089,117.1211 527.2589,103.9961 527.2589,103.9961 527.2589,117.1211"/>
    <polyline points="548.0315,130.3937 585.8268,130.3937 585.8268,130.3937 585.8268,92.5984 585.8268,92.5984 548.0315,92.5984"/>
    <polygon points="565.0541,103.9961 565.0541,117.1211 565.0541,117.1211 569.4291,117.1211 569.4291,117.1211 571.3041,116.4961 571.3041,116.4961 572.5541,115.2461 572.5541,115.2461 573.1791,113.9961 573.1791,113.9961 573.8041,112.1211 573.8041,112.1211 573.8041,108.9961 573.8041,108.9961 573.1791,107.1211 573.1791,107.1211 572.5541,105.8711 572.5541,105.8711 571.3041,104.6211 571.3041,104.6211 569.4291,103.9961 569.4291,103.9961"/>
    <polyline points="585.8268,130.3937 623.622,130.3937 623.622,130.3937 623.622,92.5984 623.622,92.5984 585.8268,92.5984"/>
    <polyline points="610.3494,117.1211 605.3494,103.9961 605.3494,103.9961 600.3494,117.1211"/>
    <line x1="602.2244" x2="608.4744" y1="112.7461" y2="112.7461"/>
    <polygon points="623.622,130.3937 661.4173,130.3937 661.4173,130.3937 661.4173,168.189 661.4173,168.189 661.4173,205.9843 661.4173,205.9843 661.4173,243.7795 661.4173,243.7795 699.2126,243.7795 699.2126,243.7795 699.2126,205.9843 699.2126,205.9843 699.2126,168.189 699.2126,168.189 661.4173,168.189 661.4173,168.189 623.622,168.189 623.622,168.189"/>
    <polyline points="640.6447,110.2461 646.2697,110.2461 646.2697,110.2461 648.1447,109.6211 648.1447,109.6211 648.7697,108.9961 648.7697,108.9961 649.3947,107.7461 649.3947,107.7461 649.3947,106.4961 649.3947,106.4961 648.7697,105.2461 648.7697,105.2461 648.1447,104.6211 648.1447,104.6211 646.2697,103.9961 646.2697,103.9961 640.6447,103.9961 640.6447,103.9961 640.6447,117.1211"/>
    <line x1="645.0197" x2="649.3947" y1="110.2461" y2="117.1211"/>
    <line x1="682.815" x2="682.815" y1="103.9961" y2="117.1211"/>
    <line x1="699.2126" x2="737.0079" y1="130.3937" y2="130.3937"/>
    <polyline points="722.4852,103.9961 722.4852,113.9961 722.4852,113.9961 721.8602,115.8711 721.8602,115.8711 721.2352,116.4961 721.2352,116.4961 719.9852,117.1211 719.9852,117.1211 718.7352,117.1211 718.7352,117.1211 717.4852,116.4961 717.4852,116.4961 716.8602,115.8711 716.8602,115.8711 716.2352,113.9961 716.2352,113.9961 716.2352,112.7461"/>
    <polyline points="762.7805,103.9961 762.7805,117.1211 762.7805,117.1211 754.0305,103.9961 754.0305,103.9961 754.0305,117.1211"/>
    <polygon points="18.8976,130.3937 18.8976,168.189 18.8976,168.189 18.8976,205.9843 18.8976,205.9843 18.8976,243.7795 18.8976,243.7795 56.6929,243.7795 56.6929,243.7795 56.6929,205.9843 56.6929,205.9843 56.6929,168.189 56.6929,168.189 56.6929,130.3937 56.6929,130.3937"/>
    <line x1="18.8976" x2="56.6929" y1="168.189" y2="168.189"/>
    <polyline points="25.7874,134.5005 25.4749,135.438 25.4749,135.438 24.8499,136.063 24.8499,136.063 23.9124,136.3755 23.9124,136.3755 23.5999,136.3755 23.5999,136.3755 22.6624,136.063 22.6624,136.063 22.0374,135.438 22.0374,135.438 21.7249,134.5005 21.7249,134.5005 21.7249,134.188 21.7249,134.188 22.0374,133.2505 22.0374,133.2505 22.6624,132.6255 22.6624,132.6255 23.5999,132.313 23.5999,132.313 23.9124,132.313 23.9124,132.313 24.8499,132.6255 24.8499,132.6255 25.4749,133.2505 25.4749,133.2505 25.7874,134.5005 25.7874,134.5005 25.7874,136.063 25.7874,136.063 25.4749,137.6255 25.4749,137.6255 24.8499,138.563 24.8499,138.563 23.9124,138.8755 23.9124,138.8755 23.2874,138.8755 23.2874,138.8755 22.3499,138.563 22.3499,138.563 22.0374,137.938"/>
    <polyline points="44.3578,144.9163 43.7328,143.6663 43.7328,143.6663 42.4828,142.4163 42.4828,142.4163 41.2328,141.7913 41.2328,141.7913 38.7328,141.7913 38.7328,141.7913 37.4828,142.4163 37.4828,142.4163 36.2328,143.6663 36.2328,143.6663 35.6078,144.9163 35.6078,144.9163 34.9828,146.7913 34.9828,146.7913 34.9828,149.9163 34.9828,149.9163 35.6078,151.7913 35.6078,151.7913 36.2328,153.0413 36.2328,153.0413 37.4828,154.2913 37.4828,154.2913 38.7328,154.9163 38.7328,154.9163 41.2328,154.9163 41.2328,154.9163 42.4828,154.2913 42.4828,154.2913 43.7328,153.0413 43.7328,153.0413 44.3578,151.7913"/>
    <polyline points="94.4882,130.3937 94.4882,168.189 94.4882,168.189 132.2835,168.189 132.2835,168.189 132.2835,130.3937"/>
    <polygon points="114.0108,141.7913 112.7608,142.4163 112.7608,142.4163 111.5108,143.6663 111.5108,143.6663 110.8858,144.9163 110.8858,144.9163 110.2608,146.7913 110.2608,146.7913 110.2608,149.9163 110.2608,149.9163 110.8858,151.7913 110.8858,151.7913 111.5108,153.0413 111.5108,153.0413 112.7608,154.2913 112.7608,154.2913 114.0108,154.9163 114.0108,154.9163 116.5108,154.9163 116.5108,154.9163 117.7608,154.2913 117.7608,154.2913 119.0108,153.0413 119.0108,153.0413 119.6358,151.7913 119.6358,151.7913 120.2608,149.9163 120.2608,149.9163 120.2608,146.7913 120.2608,146.7913 119.6358,144.9163 119.6358,144.9163 119.0108,143.6663 119.0108,143.6663 117.7608,142.4163 117.7608,142.4163 116.5108,141.7913 116.5108,141.7913"/>
    <polyline points="18.8976,205.9843 56.6929,205.9843 56.6929,205.9843 94.4882,205.9843 94.4882,205.9843 132.2835,205.9843 132.2835,205.9843 132.2835,243.7795 132.2835,243.7795 170.0787,243.7795 170.0787,243.7795 170.0787,281.5748 170.0787,281.5748 170.0787,319.3701 170.0787,319.3701 170.0787,357.1654 170.0787,357.1654 207.874,357.1654 207.874,357.1654 207.874,319.3701 207.874,319.3701 170.0787,319.3701 170.0787,319.3701 132.2835,319.3701 132.2835,319.3701 132.2835,281.5748 132.2835,281.5748 170.0787,281.5748 170.0787,281.5748 207.874,281.5748 207.874,281.5748 245.6693,281.5748 245.6693,281.5748 245.6693,319.3701 245.6693,319.3701 207.874,319.3701 207.874,319.3701 207.874,281.5748 207.874,281.5748 207.874,243.7795 207.874,243.7795 245.6693,243.7795 245.6693,243.7795 245.6693,205.9843 245.6693,205.9843 207.874,205.9843 207.874,205.9843 207.874,243.7795 207.874,243.7795 170.0787,243.7795 170.0787,243.7795 170.0787,205.9843 170.0787,205.9843 207.874,205.9843 207.874,205.9843 207.874,168.189 207.874,168.189 207.874,130.3937 207.874,130.3937 170.0787,130.3937 170.0787,130.3937 170.0787,168.189 170.0787,168.189 170.0787,205.9843 170.0787,205.9843 132.2835,205.9843 132.2835,205.9843 132.2835,168.189"/>
    <line x1="170.0787" x2="207.874" y1="168.189" y2="168.189"/>
    <polyline points="173.8435,133.563 174.4685,133.2505 174.4685,133.2505 175.406,132.313 175.406,132.313 175.406,138.8755"/>
    <polygon points="181.031,132.313 180.0935,132.6255 180.0935,132.6255 179.4685,133.563 179.4685,133.563 179.156,135.1255 179.156,135.1255 179.156,136.063 179.156,136.063 179.4685,137.6255 179.4685,137.6255 180.0935,138.563 180.0935,138.563 181.031,138.8755 181.031,138.8755 181.656,138.8755 181.656,138.8755 182.5935,138.563 182.5935,138.563 183.2185,137.6255 183.2185,137.6255 183.531,136.063 183.531,136.063 183.531,135.1255 183.531,135.1255 183.2185,133.563 183.2185,133.563 182.5935,132.6255 182.5935,132.6255 181.656,132.313 181.656,132.313"/>
    <line x1="187.1014" x2="187.1014" y1="141.7913" y2="154.9163"/>
    <line x1="195.8514" x2="187.1014" y1="141.7913" y2="150.5413"/>
    <line x1="190.2264" x2="195.8514" y1="147.4163" y2="154.9163"/>
    <polygon points="340.7825,141.7913 339.5325,142.4163 339.5325,142.4163 338.2825,143.6663 338.2825,143.6663 337.6575,144.9163 337.6575,144.9163 337.0325,146.7913 337.0325,146.7913 337.0325,149.9163 337.0325,149.9163 337.6575,151.7913 337.6575,151.7913 338.2825,153.0413 338.2825,153.0413 339.5325,154.2913 339.5325,154.2913 340.7825,154.9163 340.7825,154.9163 343.2825,154.9163 343.2825,154.9163 344.5325,154.2913 344.5325,154.2913 345.7825,153.0413 345.7825,153.0413 346.4075,151.7913 346.4075,151.7913 347.0325,149.9163 347.0325,149.9163 347.0325,146.7913 347.0325,146.7913 346.4075,144.9163 346.4075,144.9163 345.7825,143.6663 345.7825,143.6663 344.5325,142.4163 344.5325,142.4163 343.2825,141.7913 343.2825,141.7913"/>
    <polyline points="486.9636,141.7913 491.9636,154.9163 491.9636,154.9163 496.9636,141.7913"/>
    <polyline points="649.0822,141.7913 640.9572,141.7913 640.9572,141.7913 640.9572,154.9163 640.9572,154.9163 649.0822,154.9163"/>
    <line x1="640.9572" x2="645.9572" y1="148.0413" y2="148.0413"/>
    <polyline points="44.3578,179.5866 36.2328,179.5866 36.2328,179.5866 36.2328,192.7116 36.2328,192.7116 44.3578,192.7116"/>
    <line x1="36.2328" x2="41.2328" y1="185.8366" y2="185.8366"/>
    <polyline points="94.4882,168.189 94.4882,205.9843 94.4882,205.9843 94.4882,243.7795 94.4882,243.7795 132.2835,243.7795"/>
    <polygon points="114.0108,179.5866 112.7608,180.2116 112.7608,180.2116 111.5108,181.4616 111.5108,181.4616 110.8858,182.7116 110.8858,182.7116 110.2608,184.5866 110.2608,184.5866 110.2608,187.7116 110.2608,187.7116 110.8858,189.5866 110.8858,189.5866 111.5108,190.8366 111.5108,190.8366 112.7608,192.0866 112.7608,192.0866 114.0108,192.7116 114.0108,192.7116 116.5108,192.7116 116.5108,192.7116 117.7608,192.0866 117.7608,192.0866 119.0108,190.8366 119.0108,190.8366 119.6358,189.5866 119.6358,189.5866 120.2608,187.7116 120.2608,187.7116 120.2608,184.5866 120.2608,184.5866 119.6358,182.7116 119.6358,182.7116 119.0108,181.4616 119.0108,181.4616 117.7608,180.2116 117.7608,180.2116 116.5108,179.5866 116.5108,179.5866"/>
    <line x1="191.4764" x2="191.4764" y1="179.5866" y2="192.7116"/>
    <polygon points="245.6693,168.189 245.6693,205.9843 245.6693,205.9843 283.4646,205.9843 283.4646,205.9843 321.2598,205.9843 321.2598,205.9843 359.0551,205.9843 359.0551,205.9843 359.0551,243.7795 359.0551,243.7795 321.2598,243.7795 321.2598,243.7795 321.2598,205.9843 321.2598,205.9843 321.2598,168.189 321.2598,168.189 283.4646,168.189 283.4646,168.189"/>
    <line x1="283.4646" x2="283.4646" y1="205.9843" y2="168.189"/>
    <polyline points="249.4341,171.3583 250.0591,171.0458 250.0591,171.0458 250.9966,170.1083 250.9966,170.1083 250.9966,176.6708"/>
    <polyline points="255.6841,171.3583 256.3091,171.0458 256.3091,171.0458 257.2466,170.1083 257.2466,170.1083 257.2466,176.6708"/>
    <polyline points="262.6919,186.4616 268.3169,186.4616 268.3169,186.4616 270.1919,185.8366 270.1919,185.8366 270.8169,185.2116 270.8169,185.2116 271.4419,183.9616 271.4419,183.9616 271.4419,182.0866 271.4419,182.0866 270.8169,180.8366 270.8169,180.8366 270.1919,180.2116 270.1919,180.2116 268.3169,179.5866 268.3169,179.5866 262.6919,179.5866 262.6919,179.5866 262.6919,192.7116"/>
    <polyline points="307.9872,192.7116 302.9872,179.5866 302.9872,179.5866 297.9872,192.7116"/>
    <line x1="299.8622" x2="306.1122" y1="188.3366" y2="188.3366"/>
    <polyline points="338.2825,185.8366 343.9075,185.8366 343.9075,185.8366 345.7825,185.2116 345.7825,185.2116 346.4075,184.5866 346.4075,184.5866 347.0325,183.3366 347.0325,183.3366 347.0325,182.0866 347.0325,182.0866 346.4075,180.8366 346.4075,180.8366 345.7825,180.2116 345.7825,180.2116 343.9075,179.5866 343.9075,179.5866 338.2825,179.5866 338.2825,179.5866 338.2825,192.7116"/>
    <line x1="342.6575" x2="347.0325" y1="185.8366" y2="192.7116"/>
    <line x1="396.8504" x2="396.8504" y1="205.9843" y2="168.189"/>
    <line x1="376.0778" x2="376.0778" y1="179.5866" y2="192.7116"/>
    <line x1="384.8278" x2="376.0778" y1="179.5866" y2="188.3366"/>
    <line x1="379.2028" x2="384.8278" y1="185.2116" y2="192.7116"/>
    <polyline points="422.3105,179.5866 414.1855,179.5866 414.1855,179.5866 414.1855,192.7116 414.1855,192.7116 422.3105,192.7116"/>
    <line x1="414.1855" x2="419.1855" y1="185.8366" y2="185.8366"/>
    <polyline points="451.6683,185.8366 457.2933,185.8366 457.2933,185.8366 459.1683,185.2116 459.1683,185.2116 459.7933,184.5866 459.7933,184.5866 460.4183,183.3366 460.4183,183.3366 460.4183,182.0866 460.4183,182.0866 459.7933,180.8366 459.7933,180.8366 459.1683,180.2116 459.1683,180.2116 457.2933,179.5866 457.2933,179.5866 451.6683,179.5866 451.6683,179.5866 451.6683,192.7116"/>
    <line x1="456.0433" x2="460.4183" y1="185.8366" y2="192.7116"/>
    <polyline points="497.9011,179.5866 489.7761,179.5866 489.7761,179.5866 489.7761,192.7116 489.7761,192.7116 497.9011,192.7116"/>
    <line x1="489.7761" x2="494.7761" y1="185.8366" y2="185.8366"/>
    <polyline points="536.0089,179.5866 536.0089,192.7116 536.0089,192.7116 527.2589,179.5866 527.2589,179.5866 527.2589,192.7116"/>
    <line x1="661.4173" x2="699.2126" y1="205.9843" y2="205.9843"/>
    <polyline points="665.1821,171.3583 665.8071,171.0458 665.8071,171.0458 666.7446,170.1083 666.7446,170.1083 666.7446,176.6708"/>
    <polyline points="670.8071,171.6708 670.8071,171.3583 670.8071,171.3583 671.1196,170.7333 671.1196,170.7333 671.4321,170.4208 671.4321,170.4208 672.0571,170.1083 672.0571,170.1083 673.3071,170.1083 673.3071,170.1083 673.9321,170.4208 673.9321,170.4208 674.2446,170.7333 674.2446,170.7333 674.5571,171.3583 674.5571,171.3583 674.5571,171.9833 674.5571,171.9833 674.2446,172.6083 674.2446,172.6083 673.6196,173.5458 673.6196,173.5458 670.4946,176.6708 670.4946,176.6708 674.8696,176.6708"/>
    <polyline points="686.8775,179.5866 678.7525,179.5866 678.7525,179.5866 678.7525,192.7116 678.7525,192.7116 686.8775,192.7116"/>
    <line x1="678.7525" x2="683.7525" y1="185.8366" y2="185.8366"/>
    <polygon points="737.0079,168.189 737.0079,205.9843 737.0079,205.9843 737.0079,243.7795 737.0079,243.7795 774.8031,243.7795 774.8031,243.7795 774.8031,205.9843 774.8031,205.9843 774.8031,168.189 774.8031,168.189"/>
    <line x1="737.0079" x2="774.8031" y1="205.9843" y2="205.9843"/>
    <polyline points="740.7726,171.3583 741.3976,171.0458 741.3976,171.0458 742.3351,170.1083 742.3351,170.1083 742.3351,176.6708"/>
    <polyline points="746.7101,170.1083 750.1476,170.1083 750.1476,170.1083 748.2726,172.6083 748.2726,172.6083 749.2101,172.6083 749.2101,172.6083 749.8351,172.9208 749.8351,172.9208 750.1476,173.2333 750.1476,173.2333 750.4601,174.1708 750.4601,174.1708 750.4601,174.7958 750.4601,174.7958 750.1476,175.7333 750.1476,175.7333 749.5226,176.3583 749.5226,176.3583 748.5851,176.6708 748.5851,176.6708 747.6476,176.6708 747.6476,176.6708 746.7101,176.3583 746.7101,176.3583 746.3976,176.0458 746.3976,176.0458 746.0851,175.4208"/>
    <polyline points="760.2805,179.5866 760.2805,189.5866 760.2805,189.5866 759.6555,191.4616 759.6555,191.4616 759.0305,192.0866 759.0305,192.0866 757.7805,192.7116 757.7805,192.7116 756.5305,192.7116 756.5305,192.7116 755.2805,192.0866 755.2805,192.0866 754.6555,191.4616 754.6555,191.4616 754.0305,189.5866 754.0305,189.5866 754.0305,188.3366"/>
    <polyline points="22.6624,209.1535 23.2874,208.841 23.2874,208.841 24.2249,207.9035 24.2249,207.9035 24.2249,214.466"/>
    <polyline points="31.0999,214.466 31.0999,207.9035 31.0999,207.9035 27.9749,212.2785 27.9749,212.2785 32.6624,212.2785"/>
    <polyline points="36.5453,217.3819 36.5453,230.5069 36.5453,230.5069 44.0453,230.5069"/>
    <polyline points="56.6929,281.5748 56.6929,319.3701 56.6929,319.3701 18.8976,319.3701 18.8976,319.3701 18.8976,281.5748 18.8976,281.5748 56.6929,281.5748 56.6929,281.5748 56.6929,243.7795 56.6929,243.7795 94.4882,243.7795"/>
    <polyline points="81.2156,230.5069 76.2156,217.3819 76.2156,217.3819 71.2156,230.5069"/>
    <line x1="73.0906" x2="79.3406" y1="226.1319" y2="226.1319"/>
    <polygon points="111.5108,217.3819 111.5108,230.5069 111.5108,230.5069 115.8858,230.5069 115.8858,230.5069 117.7608,229.8819 117.7608,229.8819 119.0108,228.6319 119.0108,228.6319 119.6358,227.3819 119.6358,227.3819 120.2608,225.5069 120.2608,225.5069 120.2608,222.3819 120.2608,222.3819 119.6358,220.5069 119.6358,220.5069 119.0108,219.2569 119.0108,219.2569 117.7608,218.0069 117.7608,218.0069 115.8858,217.3819 115.8858,217.3819"/>
    <polygon points="149.3061,217.3819 149.3061,230.5069 149.3061,230.5069 153.6811,230.5069 153.6811,230.5069 155.5561,229.8819 155.5561,229.8819 156.8061,228.6319 156.8061,228.6319 157.4311,227.3819 157.4311,227.3819 158.0561,225.5069 158.0561,225.5069 158.0561,222.3819 158.0561,222.3819 157.4311,220.5069 157.4311,220.5069 156.8061,219.2569 156.8061,219.2569 155.5561,218.0069 155.5561,218.0069 153.6811,217.3819 153.6811,217.3819"/>
    <polyline points="195.5389,217.3819 187.4139,217.3819 187.4139,217.3819 187.4139,230.5069 187.4139,230.5069 195.5389,230.5069"/>
    <line x1="187.4139" x2="192.4139" y1="223.6319" y2="223.6319"/>
    <polyline points="224.8967,223.6319 230.5217,223.6319 230.5217,223.6319 232.3967,223.0069 232.3967,223.0069 233.0217,222.3819 233.0217,222.3819 233.6467,221.1319 233.6467,221.1319 233.6467,219.8819 233.6467,219.8819 233.0217,218.6319 233.0217,218.6319 232.3967,218.0069 232.3967,218.0069 230.5217,217.3819 230.5217,217.3819 224.8967,217.3819 224.8967,217.3819 224.8967,230.5069"/>
    <line x1="229.2717" x2="233.6467" y1="223.6319" y2="230.5069"/>
    <line x1="340.7825" x2="340.7825" y1="217.3819" y2="230.5069"/>
    <line x1="336.4075" x2="345.1575" y1="217.3819" y2="217.3819"/>
    <polyline points="489.4636,223.6319 495.0886,223.6319 495.0886,223.6319 496.9636,223.0069 496.9636,223.0069 497.5886,222.3819 497.5886,222.3819 498.2136,221.1319 498.2136,221.1319 498.2136,219.8819 498.2136,219.8819 497.5886,218.6319 497.5886,218.6319 496.9636,218.0069 496.9636,218.0069 495.0886,217.3819 495.0886,217.3819 489.4636,217.3819 489.4636,217.3819 489.4636,230.5069"/>
    <line x1="493.8386" x2="498.2136" y1="223.6319" y2="230.5069"/>
    <polyline points="675.315,217.3819 678.44,230.5069 678.44,230.5069 681.565,217.3819 681.565,217.3819 684.69,230.5069 684.69,230.5069 687.815,217.3819"/>
    <polyline points="761.5305,230.5069 756.5305,217.3819 756.5305,217.3819 751.5305,230.5069"/>
    <line x1="753.4055" x2="759.6555" y1="226.1319" y2="226.1319"/>
    <line x1="18.8976" x2="18.8976" y1="243.7795" y2="281.5748"/>
    <line x1="40.2953" x2="40.2953" y1="255.1772" y2="268.3022"/>
    <polyline points="196.4764,268.3022 196.4764,255.1772 196.4764,255.1772 191.4764,268.3022 191.4764,268.3022 186.4764,255.1772 186.4764,255.1772 186.4764,268.3022"/>
    <polyline points="321.2598,243.7795 321.2598,281.5748 321.2598,281.5748 359.0551,281.5748 359.0551,281.5748 396.8504,281.5748 396.8504,281.5748 396.8504,243.7795 396.8504,243.7795 359.0551,243.7795 359.0551,243.7795 359.0551,281.5748 359.0551,281.5748 359.0551,319.3701 359.0551,319.3701 359.0551,357.1654 359.0551,357.1654 321.2598,357.1654 321.2598,357.1654 321.2598,319.3701 321.2598,319.3701 321.2598,281.5748 321.2598,281.5748 283.4646,281.5748 283.4646,281.5748 245.6693,281.5748"/>
    <polyline points="325.0246,246.9488 325.6496,246.6363 325.6496,246.6363 326.5871,245.6988 326.5871,245.6988 326.5871,252.2613"/>
    <polyline points="334.0871,245.6988 330.9621,245.6988 330.9621,245.6988 330.6496,248.5113 330.6496,248.5113 330.9621,248.1988 330.9621,248.1988 331.8996,247.8863 331.8996,247.8863 332.8371,247.8863 332.8371,247.8863 333.7746,248.1988 333.7746,248.1988 334.3996,248.8238 334.3996,248.8238 334.7121,249.7613 334.7121,249.7613 334.7121,250.3863 334.7121,250.3863 334.3996,251.3238 334.3996,251.3238 333.7746,251.9488 333.7746,251.9488 332.8371,252.2613 332.8371,252.2613 331.8996,252.2613 331.8996,252.2613 330.9621,251.9488 330.9621,251.9488 330.6496,251.6363 330.6496,251.6363 330.3371,251.0113"/>
    <polyline points="344.5325,255.1772 344.5325,265.1772 344.5325,265.1772 343.9075,267.0522 343.9075,267.0522 343.2825,267.6772 343.2825,267.6772 342.0325,268.3022 342.0325,268.3022 340.7825,268.3022 340.7825,268.3022 339.5325,267.6772 339.5325,267.6772 338.9075,267.0522 338.9075,267.0522 338.2825,265.1772 338.2825,265.1772 338.2825,263.9272"/>
    <polyline points="383.5778,268.3022 378.5778,255.1772 378.5778,255.1772 373.5778,268.3022"/>
    <line x1="375.4528" x2="381.7028" y1="263.9272" y2="263.9272"/>
    <polyline points="472.4409,243.7795 472.4409,281.5748 472.4409,281.5748 472.4409,319.3701 472.4409,319.3701 510.2362,319.3701 510.2362,319.3701 510.2362,281.5748 510.2362,281.5748 548.0315,281.5748 548.0315,281.5748 585.8268,281.5748 585.8268,281.5748 585.8268,243.7795 585.8268,243.7795 548.0315,243.7795 548.0315,243.7795 510.2362,243.7795 510.2362,243.7795 510.2362,281.5748 510.2362,281.5748 472.4409,281.5748"/>
    <polyline points="476.2057,246.9488 476.8307,246.6363 476.8307,246.6363 477.7682,245.6988 477.7682,245.6988 477.7682,252.2613"/>
    <polyline points="485.5807,246.6363 485.2682,246.0113 485.2682,246.0113 484.3307,245.6988 484.3307,245.6988 483.7057,245.6988 483.7057,245.6988 482.7682,246.0113 482.7682,246.0113 482.1432,246.9488 482.1432,246.9488 481.8307,248.5113 481.8307,248.5113 481.8307,250.0738 481.8307,250.0738 482.1432,251.3238 482.1432,251.3238 482.7682,251.9488 482.7682,251.9488 483.7057,252.2613 483.7057,252.2613 484.0182,252.2613 484.0182,252.2613 484.9557,251.9488 484.9557,251.9488 485.5807,251.3238 485.5807,251.3238 485.8932,250.3863 485.8932,250.3863 485.8932,250.0738 485.8932,250.0738 485.5807,249.1363 485.5807,249.1363 484.9557,248.5113 484.9557,248.5113 484.0182,248.1988 484.0182,248.1988 483.7057,248.1988 483.7057,248.1988 482.7682,248.5113 482.7682,248.5113 482.1432,249.1363 482.1432,249.1363 481.8307,250.0738"/>
    <line x1="491.9636" x2="491.9636" y1="255.1772" y2="268.3022"/>
    <line x1="487.5886" x2="496.3386" y1="255.1772" y2="255.1772"/>
    <line x1="548.0315" x2="548.0315" y1="281.5748" y2="243.7795"/>
    <polyline points="535.6964,255.1772 527.5714,255.1772 527.5714,255.1772 527.5714,268.3022 527.5714,268.3022 535.6964,268.3022"/>
    <line x1="527.5714" x2="532.5714" y1="261.4272" y2="261.4272"/>
    <polyline points="565.6791,255.1772 565.6791,268.3022 565.6791,268.3022 573.1791,268.3022"/>
    <polyline points="585.8268,281.5748 623.622,281.5748 623.622,281.5748 623.622,243.7795 623.622,243.7795 585.8268,243.7795"/>
    <polyline points="611.2869,255.1772 603.1619,255.1772 603.1619,255.1772 603.1619,268.3022 603.1619,268.3022 611.2869,268.3022"/>
    <line x1="603.1619" x2="608.1619" y1="261.4272" y2="261.4272"/>
    <polyline points="623.622,281.5748 661.4173,281.5748 661.4173,281.5748 699.2126,281.5748 699.2126,281.5748 699.2126,243.7795 699.2126,243.7795 737.0079,243.7795 737.0079,243.7795 737.0079,281.5748 737.0079,281.5748 737.0079,319.3701 737.0079,319.3701 699.2126,319.3701 699.2126,319.3701 699.2126,281.5748 699.2126,281.5748 737.0079,281.5748 737.0079,281.5748 774.8031,281.5748 774.8031,281.5748 774.8031,243.7795"/>
    <polyline points="585.8268,319.3701 585.8268,357.1654 585.8268,357.1654 548.0315,357.1654 548.0315,357.1654 510.2362,357.1654 510.2362,357.1654 510.2362,319.3701 510.2362,319.3701 548.0315,319.3701 548.0315,319.3701 585.8268,319.3701 585.8268,319.3701 623.622,319.3701 623.622,319.3701 661.4173,319.3701 661.4173,319.3701 661.4173,281.5748 661.4173,281.5748 661.4173,243.7795 661.4173,243.7795 623.622,243.7795"/>
    <polyline points="649.0822,255.1772 640.9572,255.1772 640.9572,255.1772 640.9572,268.3022"/>
    <line x1="640.9572" x2="645.9572" y1="261.4272" y2="261.4272"/>
    <polygon points="680.94,255.1772 679.69,255.8022 679.69,255.8022 678.44,257.0522 678.44,257.0522 677.815,258.3022 677.815,258.3022 677.19,260.1772 677.19,260.1772 677.19,263.3022 677.19,263.3022 677.815,265.1772 677.815,265.1772 678.44,266.4272 678.44,266.4272 679.69,267.6772 679.69,267.6772 680.94,268.3022 680.94,268.3022 683.44,268.3022 683.44,268.3022 684.69,267.6772 684.69,267.6772 685.94,266.4272 685.94,266.4272 686.565,265.1772 686.565,265.1772 687.19,263.3022 687.19,263.3022 687.19,260.1772 687.19,260.1772 686.565,258.3022 686.565,258.3022 685.94,257.0522 685.94,257.0522 684.69,255.8022 684.69,255.8022 683.44,255.1772 683.44,255.1772"/>
    <polygon points="718.7352,255.1772 717.4852,255.8022 717.4852,255.8022 716.2352,257.0522 716.2352,257.0522 715.6102,258.3022 715.6102,258.3022 714.9852,260.1772 714.9852,260.1772 714.9852,263.3022 714.9852,263.3022 715.6102,265.1772 715.6102,265.1772 716.2352,266.4272 716.2352,266.4272 717.4852,267.6772 717.4852,267.6772 718.7352,268.3022 718.7352,268.3022 721.2352,268.3022 721.2352,268.3022 722.4852,267.6772 722.4852,267.6772 723.7352,266.4272 723.7352,266.4272 724.3602,265.1772 724.3602,265.1772 724.9852,263.3022 724.9852,263.3022 724.9852,260.1772 724.9852,260.1772 724.3602,258.3022 724.3602,258.3022 723.7352,257.0522 723.7352,257.0522 722.4852,255.8022 722.4852,255.8022 721.2352,255.1772 721.2352,255.1772"/>
    <polyline points="762.7805,255.1772 762.7805,268.3022 762.7805,268.3022 754.0305,255.1772 754.0305,255.1772 754.0305,268.3022"/>
    <polyline points="44.6703,292.9724 44.6703,306.0974 44.6703,306.0974 35.9203,292.9724 35.9203,292.9724 35.9203,306.0974"/>
    <polyline points="136.0482,284.7441 136.6732,284.4316 136.6732,284.4316 137.6107,283.4941 137.6107,283.4941 137.6107,290.0566"/>
    <polyline points="141.3607,283.4941 145.7357,283.4941 145.7357,283.4941 142.6107,290.0566"/>
    <polyline points="157.7436,296.0974 157.1186,294.8474 157.1186,294.8474 155.8686,293.5974 155.8686,293.5974 154.6186,292.9724 154.6186,292.9724 152.1186,292.9724 152.1186,292.9724 150.8686,293.5974 150.8686,293.5974 149.6186,294.8474 149.6186,294.8474 148.9936,296.0974 148.9936,296.0974 148.3686,297.9724 148.3686,297.9724 148.3686,301.0974 148.3686,301.0974 148.9936,302.9724 148.9936,302.9724 149.6186,304.2224 149.6186,304.2224 150.8686,305.4724 150.8686,305.4724 152.1186,306.0974 152.1186,306.0974 154.6186,306.0974 154.6186,306.0974 155.8686,305.4724 155.8686,305.4724 157.1186,304.2224 157.1186,304.2224 157.7436,302.9724"/>
    <polyline points="195.5389,292.9724 187.4139,292.9724 187.4139,292.9724 187.4139,306.0974 187.4139,306.0974 195.5389,306.0974"/>
    <line x1="187.4139" x2="192.4139" y1="299.2224" y2="299.2224"/>
    <polyline points="233.6467,292.9724 233.6467,306.0974 233.6467,306.0974 224.8967,292.9724 224.8967,292.9724 224.8967,306.0974"/>
    <polyline points="245.6693,319.3701 283.4646,319.3701 283.4646,319.3701 283.4646,281.5748"/>
    <line x1="265.1919" x2="265.1919" y1="292.9724" y2="306.0974"/>
    <line x1="260.8169" x2="269.5669" y1="292.9724" y2="292.9724"/>
    <polyline points="283.4646,319.3701 321.2598,319.3701 321.2598,319.3701 359.0551,319.3701"/>
    <polyline points="306.7372,292.9724 306.7372,302.9724 306.7372,302.9724 306.1122,304.8474 306.1122,304.8474 305.4872,305.4724 305.4872,305.4724 304.2372,306.0974 304.2372,306.0974 302.9872,306.0974 302.9872,306.0974 301.7372,305.4724 301.7372,305.4724 301.1122,304.8474 301.1122,304.8474 300.4872,302.9724 300.4872,302.9724 300.4872,301.7224"/>
    <polyline points="346.72,292.9724 338.595,292.9724 338.595,292.9724 338.595,306.0974 338.595,306.0974 346.72,306.0974"/>
    <line x1="338.595" x2="343.595" y1="299.2224" y2="299.2224"/>
    <polyline points="495.7136,292.9724 495.7136,302.9724 495.7136,302.9724 495.0886,304.8474 495.0886,304.8474 494.4636,305.4724 494.4636,305.4724 493.2136,306.0974 493.2136,306.0974 491.9636,306.0974 491.9636,306.0974 490.7136,305.4724 490.7136,305.4724 490.0886,304.8474 490.0886,304.8474 489.4636,302.9724 489.4636,302.9724 489.4636,301.7224"/>
    <polygon points="661.4173,319.3701 699.2126,319.3701 699.2126,319.3701 699.2126,357.1654 699.2126,357.1654 661.4173,357.1654 661.4173,357.1654"/>
    <polyline points="678.44,292.9724 678.44,302.3474 678.44,302.3474 679.065,304.2224 679.065,304.2224 680.315,305.4724 680.315,305.4724 682.19,306.0974 682.19,306.0974 683.44,306.0974 683.44,306.0974 685.315,305.4724 685.315,305.4724 686.565,304.2224 686.565,304.2224 687.19,302.3474 687.19,302.3474 687.19,292.9724"/>
    <polyline points="774.8031,319.3701 774.8031,357.1654 774.8031,357.1654 737.0079,357.1654 737.0079,357.1654 737.0079,319.3701 737.0079,319.3701 774.8031,319.3701 774.8031,319.3701 774.8031,281.5748"/>
    <polyline points="762.7805,292.9724 762.7805,306.0974 762.7805,306.0974 754.0305,292.9724 754.0305,292.9724 754.0305,306.0974"/>
    <polyline points="18.8976,319.3701 18.8976,357.1654 18.8976,357.1654 56.6929,357.1654 56.6929,357.1654 56.6929,319.3701"/>
    <polyline points="44.3578,330.7677 36.2328,330.7677 36.2328,330.7677 36.2328,343.8927 36.2328,343.8927 44.3578,343.8927"/>
    <line x1="36.2328" x2="41.2328" y1="337.0177" y2="337.0177"/>
    <polyline points="195.8514,330.7677 195.8514,343.8927 195.8514,343.8927 187.1014,330.7677 187.1014,330.7677 187.1014,343.8927"/>
    <polyline points="346.4075,332.6427 345.1575,331.3927 345.1575,331.3927 343.2825,330.7677 343.2825,330.7677 340.7825,330.7677 340.7825,330.7677 338.9075,331.3927 338.9075,331.3927 337.6575,332.6427 337.6575,332.6427 337.6575,333.8927 337.6575,333.8927 338.2825,335.1427 338.2825,335.1427 338.9075,335.7677 338.9075,335.7677 340.1575,336.3927 340.1575,336.3927 343.9075,337.6427 343.9075,337.6427 345.1575,338.2677 345.1575,338.2677 345.7825,338.8927 345.7825,338.8927 346.4075,340.1427 346.4075,340.1427 346.4075,342.0177 346.4075,342.0177 345.1575,343.2677 345.1575,343.2677 343.2825,343.8927 343.2825,343.8927 340.7825,343.8927 340.7825,343.8927 338.9075,343.2677 338.9075,343.2677 337.6575,342.0177"/>
    <polyline points="472.4409,357.1654 472.4409,319.3701 472.4409,319.3701 434.6457,319.3701 434.6457,319.3701 434.6457,357.1654 434.6457,357.1654 472.4409,357.1654 472.4409,357.1654 510.2362,357.1654"/>
    <polyline points="438.4104,322.5394 439.0354,322.2269 439.0354,322.2269 439.9729,321.2894 439.9729,321.2894 439.9729,327.8519"/>
    <polygon points="445.2854,321.2894 444.3479,321.6019 444.3479,321.6019 444.0354,322.2269 444.0354,322.2269 444.0354,322.8519 444.0354,322.8519 444.3479,323.4769 444.3479,323.4769 444.9729,323.7894 444.9729,323.7894 446.2229,324.1019 446.2229,324.1019 447.1604,324.4144 447.1604,324.4144 447.7854,325.0394 447.7854,325.0394 448.0979,325.6644 448.0979,325.6644 448.0979,326.6019 448.0979,326.6019 447.7854,327.2269 447.7854,327.2269 447.4729,327.5394 447.4729,327.5394 446.5354,327.8519 446.5354,327.8519 445.2854,327.8519 445.2854,327.8519 444.3479,327.5394 444.3479,327.5394 444.0354,327.2269 444.0354,327.2269 443.7229,326.6019 443.7229,326.6019 443.7229,325.6644 443.7229,325.6644 444.0354,325.0394 444.0354,325.0394 444.6604,324.4144 444.6604,324.4144 445.5979,324.1019 445.5979,324.1019 446.8479,323.7894 446.8479,323.7894 447.4729,323.4769 447.4729,323.4769 447.7854,322.8519 447.7854,322.8519 447.7854,322.2269 447.7854,322.2269 447.4729,321.6019 447.4729,321.6019 446.5354,321.2894 446.5354,321.2894"/>
    <polyline points="451.6683,337.0177 457.2933,337.0177 457.2933,337.0177 459.1683,336.3927 459.1683,336.3927 459.7933,335.7677 459.7933,335.7677 460.4183,334.5177 460.4183,334.5177 460.4183,333.2677 460.4183,333.2677 459.7933,332.0177 459.7933,332.0177 459.1683,331.3927 459.1683,331.3927 457.2933,330.7677 457.2933,330.7677 451.6683,330.7677 451.6683,330.7677 451.6683,343.8927"/>
    <line x1="456.0433" x2="460.4183" y1="337.0177" y2="343.8927"/>
    <polyline points="497.9011,330.7677 489.7761,330.7677 489.7761,330.7677 489.7761,343.8927 489.7761,343.8927 497.9011,343.8927"/>
    <line x1="489.7761" x2="494.7761" y1="337.0177" y2="337.0177"/>
    <line x1="548.0315" x2="548.0315" y1="357.1654" y2="319.3701"/>
    <line x1="527.2589" x2="527.2589" y1="330.7677" y2="343.8927"/>
    <line x1="536.0089" x2="527.2589" y1="330.7677" y2="339.5177"/>
    <line x1="530.3839" x2="536.0089" y1="336.3927" y2="343.8927"/>
    <line x1="565.0541" x2="565.0541" y1="330.7677" y2="343.8927"/>
    <line x1="573.8041" x2="565.0541" y1="330.7677" y2="339.5177"/>
    <line x1="568.1791" x2="573.8041" y1="336.3927" y2="343.8927"/>
    <polyline points="585.8268,357.1654 623.622,357.1654 623.622,357.1654 623.622,319.3701"/>
    <polyline points="611.2869,330.7677 603.1619,330.7677 603.1619,330.7677 603.1619,343.8927 603.1619,343.8927 611.2869,343.8927"/>
    <line x1="603.1619" x2="608.1619" y1="337.0177" y2="337.0177"/>
    <line x1="623.622" x2="661.4173" y1="357.1654" y2="357.1654"/>
    <polyline points="640.6447,337.0177 646.2697,337.0177 646.2697,337.0177 648.1447,336.3927 648.1447,336.3927 648.7697,335.7677 648.7697,335.7677 649.3947,334.5177 649.3947,334.5177 649.3947,333.2677 649.3947,333.2677 648.7697,332.0177 648.7697,332.0177 648.1447,331.3927 648.1447,331.3927 646.2697,330.7677 646.2697,330.7677 640.6447,330.7677 640.6447,330.7677 640.6447,343.8927"/>
    <line x1="645.0197" x2="649.3947" y1="337.0177" y2="343.8927"/>
    <line x1="680.94" x2="680.94" y1="330.7677" y2="343.8927"/>
    <line x1="676.565" x2="685.315" y1="330.7677" y2="330.7677"/>
    <line x1="699.2126" x2="737.0079" y1="357.1654" y2="357.1654"/>
    <polyline points="722.4852,330.7677 722.4852,340.7677 722.4852,340.7677 721.8602,342.6427 721.8602,342.6427 721.2352,343.2677 721.2352,343.2677 719.9852,343.8927 719.9852,343.8927 718.7352,343.8927 718.7352,343.8927 717.4852,343.2677 717.4852,343.2677 716.8602,342.6427 716.8602,342.6427 716.2352,340.7677 716.2352,340.7677 716.2352,339.5177"/>
    <polyline points="762.468,330.7677 754.343,330.7677 754.343,330.7677 754.343,343.8927 754.343,343.8927 762.468,343.8927"/>
    <line x1="754.343" x2="759.343" y1="337.0177" y2="337.0177"/>
  </g>
</svg>
