<?xml version="1.0" encoding="utf-8" ?>
<svg xmlns="http://www.w3.org/2000/svg" xmlns:cc="http://creativecommons.org/ns" xmlns:dc="http://purl.org/dc/elements/1.1/" xmlns:ev="http://www.w3.org/2001/xml-events" xmlns:inkscape="http://www.inkscape.org/namespaces/inkscape" xmlns:rdf="http://www.w3.org/1999/02/22-rdf-syntax-ns" xmlns:sodipodi="http://sodipodi.sourceforge.net/DTD/sodipodi-0.dtd" xmlns:xlink="http://www.w3.org/1999/xlink" baseProfile="tiny" height="9.9cm" version="1.2" viewBox="0 0 793.7007874015749 374.1732283464567" width="21.0cm">
  <metadata>
    <rdf:RDF>
      <cc:Work>
        <dc:format>image/svg+xml</dc:format>
        <dc:source>vpype eval 'cell=10;width=210;height=99' eval 'nCols=20;nRows=9' eval 'cells=[1,6,10,12,16,19,20,21,22,24,26,28,29,30,31,32,33,34,35,36,39,41,44,46,50,52,56,59,60,61,62,63,64,65,66,67,68,69,70,72,74,75,76,77,78,79,81,84,86,90,92,96,101,104,110,112,114,115,116,117,118,119,120,122,123,124,125,126,127,128,129,130,131,132,133,136,140,144,150,152,156,160,161,162,163,164,165,166,167,174,175,176,177,178,179]' eval 'chars=[&quot;J&quot;,&quot;K&quot;,&quot;H&quot;,&quot;R&quot;,&quot;R&quot;,&quot;G&quot;,&quot;Z&quot;,&quot;O&quot;,&quot;N&quot;,&quot;S&quot;,&quot;A&quot;,&quot;K&quot;,&quot;L&quot;,&quot;A&quot;,&quot;V&quot;,&quot;E&quot;,&quot;R&quot;,&quot;T&quot;,&quot;J&quot;,&quot;E&quot;,&quot;R&quot;,&quot;L&quot;,&quot;K&quot;,&quot;S&quot;,&quot;N&quot;,&quot;G&quot;,&quot;K&quot;,&quot;A&quot;,&quot;M&quot;,&quot;I&quot;,&quot;S&quot;,&quot;V&quot;,&quot;E&quot;,&quot;R&quot;,&quot;S&quot;,&quot;T&quot;,&quot;A&quot;,&quot;N&quot;,&quot;D&quot;,&quot;E&quot;,&quot;L&quot;,&quot;A&quot;,&quot;K&quot;,&quot;E&quot;,&quot;N&quot;,&quot;S&quot;,&quot;E&quot;,&quot;L&quot;,&quot;A&quot;,&quot;D&quot;,&quot;N&quot;,&quot;E&quot;,&quot;N&quot;,&quot;L&quot;,&quot;O&quot;,&quot;B&quot;,&quot;T&quot;,&quot;E&quot;,&quot;R&quot;,&quot;R&quot;,&quot;A&quot;,&quot;S&quot;,&quot;M&quot;,&quot;F&quot;,&quot;L&quot;,&quot;E&quot;,&quot;S&quot;,&quot;S&quot;,&quot;E&quot;,&quot;N&quot;,&quot;G&quot;,&quot;E&quot;,&quot;L&quot;,&quot;U&quot;,&quot;K&quot;,&quot;T&quot;,&quot;O&quot;,&quot;K&quot;,&quot;K&quot;,&quot;I&quot;,&quot;J&quot;,&quot;P&quot;,&quot;A&quot;,&quot;R&quot;,&quot;K&quot;,&quot;E&quot;,&quot;R&quot;,&quot;E&quot;,&quot;N&quot;,&quot;K&quot;,&quot;I&quot;,&quot;E&quot;,&quot;M&quot;,&quot;E&quot;,&quot;N&quot;]' eval 'numbers=[1,6,10,12,16,19,20,24,28,60,74,114,120,122,160,174]' eval counter=1 eval charIndex=0 begin grid -o '%cell*mm%' '%cell*mm%' %nCols% %nRows% eval '%isCell=_i in cells%' eval '%number=_i in numbers%' eval '%size=10 if isCell else 0%' rect 0 0 '%size*mm%' '%size*mm%' text -s 10 -p 0.5mm 1.5mm '%counter if number else '&quot;'&quot;''&quot;'&quot;'%' text -s 20 -p 5mm 5mm -a center '%chars[charIndex] if isCell else '&quot;'&quot;''&quot;'&quot;'%' eval '%if number: counter+=1 %' eval '%if isCell: charIndex+=1 %' end splitall deduplicate linemerge --tolerance 0.1mm write -m none --page-size '%width*mm%x%height*mm%' --center ./svgs/solution/ad25ba.svg
</dc:source>
        <dc:date>2024-01-06T16:44:06.568772</dc:date>
      </cc:Work>
    </rdf:RDF>
  </metadata>
  <defs/>
  <g fill="none" id="layer1" inkscape:groupmode="layer" inkscape:label="1" stroke="#000000" style="display:inline">
    <polygon points="56.6929,17.0079 56.6929,54.8031 56.6929,54.8031 94.4882,54.8031 94.4882,54.8031 94.4882,17.0079 94.4882,17.0079"/>
    <polyline points="60.4577,20.1772 61.0827,19.8647 61.0827,19.8647 62.0202,18.9272 62.0202,18.9272 62.0202,25.4897"/>
    <polyline points="79.9656,28.4055 79.9656,38.4055 79.9656,38.4055 79.3406,40.2805 79.3406,40.2805 78.7156,40.9055 78.7156,40.9055 77.4656,41.5305 77.4656,41.5305 76.2156,41.5305 76.2156,41.5305 74.9656,40.9055 74.9656,40.9055 74.3406,40.2805 74.3406,40.2805 73.7156,38.4055 73.7156,38.4055 73.7156,37.1555"/>
    <polygon points="245.6693,17.0079 245.6693,54.8031 245.6693,54.8031 283.4646,54.8031 283.4646,54.8031 283.4646,17.0079 283.4646,17.0079"/>
    <polyline points="248.8091,20.4897 248.8091,20.1772 248.8091,20.1772 249.1216,19.5522 249.1216,19.5522 249.4341,19.2397 249.4341,19.2397 250.0591,18.9272 250.0591,18.9272 251.3091,18.9272 251.3091,18.9272 251.9341,19.2397 251.9341,19.2397 252.2466,19.5522 252.2466,19.5522 252.5591,20.1772 252.5591,20.1772 252.5591,20.8022 252.5591,20.8022 252.2466,21.4272 252.2466,21.4272 251.6216,22.3647 251.6216,22.3647 248.4966,25.4897 248.4966,25.4897 252.8716,25.4897"/>
    <line x1="262.6919" x2="262.6919" y1="28.4055" y2="41.5305"/>
    <line x1="271.4419" x2="262.6919" y1="28.4055" y2="37.1555"/>
    <line x1="265.8169" x2="271.4419" y1="34.0305" y2="41.5305"/>
    <polygon points="396.8504,17.0079 396.8504,54.8031 396.8504,54.8031 434.6457,54.8031 434.6457,54.8031 434.6457,17.0079 434.6457,17.0079"/>
    <polyline points="400.3027,18.9272 403.7402,18.9272 403.7402,18.9272 401.8652,21.4272 401.8652,21.4272 402.8027,21.4272 402.8027,21.4272 403.4277,21.7397 403.4277,21.7397 403.7402,22.0522 403.7402,22.0522 404.0527,22.9897 404.0527,22.9897 404.0527,23.6147 404.0527,23.6147 403.7402,24.5522 403.7402,24.5522 403.1152,25.1772 403.1152,25.1772 402.1777,25.4897 402.1777,25.4897 401.2402,25.4897 401.2402,25.4897 400.3027,25.1772 400.3027,25.1772 399.9902,24.8647 399.9902,24.8647 399.6777,24.2397"/>
    <line x1="413.873" x2="413.873" y1="28.4055" y2="41.5305"/>
    <line x1="422.623" x2="422.623" y1="28.4055" y2="41.5305"/>
    <line x1="413.873" x2="422.623" y1="34.6555" y2="34.6555"/>
    <polygon points="472.4409,17.0079 472.4409,54.8031 472.4409,54.8031 510.2362,54.8031 510.2362,54.8031 510.2362,17.0079 510.2362,17.0079"/>
    <polyline points="478.3932,25.4897 478.3932,18.9272 478.3932,18.9272 475.2682,23.3022 475.2682,23.3022 479.9557,23.3022"/>
    <polyline points="489.4636,34.6555 495.0886,34.6555 495.0886,34.6555 496.9636,34.0305 496.9636,34.0305 497.5886,33.4055 497.5886,33.4055 498.2136,32.1555 498.2136,32.1555 498.2136,30.9055 498.2136,30.9055 497.5886,29.6555 497.5886,29.6555 496.9636,29.0305 496.9636,29.0305 495.0886,28.4055 495.0886,28.4055 489.4636,28.4055 489.4636,28.4055 489.4636,41.5305"/>
    <line x1="493.8386" x2="498.2136" y1="34.6555" y2="41.5305"/>
    <polyline points="585.8268,130.3937 585.8268,168.189 585.8268,168.189 548.0315,168.189 548.0315,168.189 548.0315,130.3937 548.0315,130.3937 585.8268,130.3937 585.8268,130.3937 623.622,130.3937 623.622,130.3937 661.4173,130.3937 661.4173,130.3937 661.4173,92.5984 661.4173,92.5984 661.4173,54.8031 661.4173,54.8031 661.4173,17.0079 661.4173,17.0079 623.622,17.0079 623.622,17.0079 623.622,54.8031 623.622,54.8031 585.8268,54.8031 585.8268,54.8031 548.0315,54.8031 548.0315,54.8031 510.2362,54.8031 510.2362,54.8031 510.2362,92.5984 510.2362,92.5984 548.0315,92.5984 548.0315,92.5984 548.0315,54.8031"/>
    <polyline points="585.8268,205.9843 585.8268,243.7795 585.8268,243.7795 548.0315,243.7795 548.0315,243.7795 548.0315,205.9843 548.0315,205.9843 585.8268,205.9843 585.8268,205.9843 623.622,205.9843 623.622,205.9843 661.4173,205.9843 661.4173,205.9843 661.4173,168.189 661.4173,168.189 699.2126,168.189 699.2126,168.189 699.2126,130.3937 699.2126,130.3937 661.4173,130.3937 661.4173,130.3937 661.4173,168.189 661.4173,168.189 623.622,168.189 623.622,168.189 623.622,130.3937 623.622,130.3937 623.622,92.5984 623.622,92.5984 623.622,54.8031 623.622,54.8031 661.4173,54.8031"/>
    <polyline points="630.1993,18.9272 627.0743,18.9272 627.0743,18.9272 626.7618,21.7397 626.7618,21.7397 627.0743,21.4272 627.0743,21.4272 628.0118,21.1147 628.0118,21.1147 628.9493,21.1147 628.9493,21.1147 629.8868,21.4272 629.8868,21.4272 630.5118,22.0522 630.5118,22.0522 630.8243,22.9897 630.8243,22.9897 630.8243,23.6147 630.8243,23.6147 630.5118,24.5522 630.5118,24.5522 629.8868,25.1772 629.8868,25.1772 628.9493,25.4897 628.9493,25.4897 628.0118,25.4897 628.0118,25.4897 627.0743,25.1772 627.0743,25.1772 626.7618,24.8647 626.7618,24.8647 626.4493,24.2397"/>
    <polyline points="640.6447,34.6555 646.2697,34.6555 646.2697,34.6555 648.1447,34.0305 648.1447,34.0305 648.7697,33.4055 648.7697,33.4055 649.3947,32.1555 649.3947,32.1555 649.3947,30.9055 649.3947,30.9055 648.7697,29.6555 648.7697,29.6555 648.1447,29.0305 648.1447,29.0305 646.2697,28.4055 646.2697,28.4055 640.6447,28.4055 640.6447,28.4055 640.6447,41.5305"/>
    <line x1="645.0197" x2="649.3947" y1="34.6555" y2="41.5305"/>
    <polygon points="737.0079,17.0079 737.0079,54.8031 737.0079,54.8031 737.0079,92.5984 737.0079,92.5984 737.0079,130.3937 737.0079,130.3937 774.8031,130.3937 774.8031,130.3937 774.8031,92.5984 774.8031,92.5984 774.8031,54.8031 774.8031,54.8031 774.8031,17.0079 774.8031,17.0079"/>
    <line x1="737.0079" x2="774.8031" y1="54.8031" y2="54.8031"/>
    <polyline points="743.8976,19.8647 743.5851,19.2397 743.5851,19.2397 742.6476,18.9272 742.6476,18.9272 742.0226,18.9272 742.0226,18.9272 741.0851,19.2397 741.0851,19.2397 740.4601,20.1772 740.4601,20.1772 740.1476,21.7397 740.1476,21.7397 740.1476,23.3022 740.1476,23.3022 740.4601,24.5522 740.4601,24.5522 741.0851,25.1772 741.0851,25.1772 742.0226,25.4897 742.0226,25.4897 742.3351,25.4897 742.3351,25.4897 743.2726,25.1772 743.2726,25.1772 743.8976,24.5522 743.8976,24.5522 744.2101,23.6147 744.2101,23.6147 744.2101,23.3022 744.2101,23.3022 743.8976,22.3647 743.8976,22.3647 743.2726,21.7397 743.2726,21.7397 742.3351,21.4272 742.3351,21.4272 742.0226,21.4272 742.0226,21.4272 741.0851,21.7397 741.0851,21.7397 740.4601,22.3647 740.4601,22.3647 740.1476,23.3022"/>
    <polyline points="762.468,31.5305 761.843,30.2805 761.843,30.2805 760.593,29.0305 760.593,29.0305 759.343,28.4055 759.343,28.4055 756.843,28.4055 756.843,28.4055 755.593,29.0305 755.593,29.0305 754.343,30.2805 754.343,30.2805 753.718,31.5305 753.718,31.5305 753.093,33.4055 753.093,33.4055 753.093,36.5305 753.093,36.5305 753.718,38.4055 753.718,38.4055 754.343,39.6555 754.343,39.6555 755.593,40.9055 755.593,40.9055 756.843,41.5305 756.843,41.5305 759.343,41.5305 759.343,41.5305 760.593,40.9055 760.593,40.9055 761.843,39.6555 761.843,39.6555 762.468,38.4055 762.468,38.4055 762.468,36.5305 762.468,36.5305 759.343,36.5305"/>
    <polygon points="18.8976,54.8031 18.8976,92.5984 18.8976,92.5984 56.6929,92.5984 56.6929,92.5984 56.6929,130.3937 56.6929,130.3937 18.8976,130.3937 18.8976,130.3937 18.8976,168.189 18.8976,168.189 56.6929,168.189 56.6929,168.189 94.4882,168.189 94.4882,168.189 132.2835,168.189 132.2835,168.189 170.0787,168.189 170.0787,168.189 170.0787,205.9843 170.0787,205.9843 207.874,205.9843 207.874,205.9843 207.874,168.189 207.874,168.189 245.6693,168.189 245.6693,168.189 245.6693,130.3937 245.6693,130.3937 207.874,130.3937 207.874,130.3937 207.874,92.5984 207.874,92.5984 207.874,54.8031 207.874,54.8031 170.0787,54.8031 170.0787,54.8031 170.0787,92.5984 170.0787,92.5984 170.0787,130.3937 170.0787,130.3937 132.2835,130.3937 132.2835,130.3937 94.4882,130.3937 94.4882,130.3937 94.4882,92.5984 94.4882,92.5984 94.4882,54.8031 94.4882,54.8031 132.2835,54.8031 132.2835,54.8031 132.2835,92.5984 132.2835,92.5984 94.4882,92.5984 94.4882,92.5984 56.6929,92.5984 56.6929,92.5984 56.6929,54.8031 56.6929,54.8031"/>
    <polyline points="21.7249,56.7224 26.0999,56.7224 26.0999,56.7224 22.9749,63.2849"/>
    <polyline points="35.2953,66.2008 44.0453,66.2008 44.0453,66.2008 35.2953,79.3258 35.2953,79.3258 44.0453,79.3258"/>
    <polygon points="76.2156,66.2008 74.9656,66.8258 74.9656,66.8258 73.7156,68.0758 73.7156,68.0758 73.0906,69.3258 73.0906,69.3258 72.4656,71.2008 72.4656,71.2008 72.4656,74.3258 72.4656,74.3258 73.0906,76.2008 73.0906,76.2008 73.7156,77.4508 73.7156,77.4508 74.9656,78.7008 74.9656,78.7008 76.2156,79.3258 76.2156,79.3258 78.7156,79.3258 78.7156,79.3258 79.9656,78.7008 79.9656,78.7008 81.2156,77.4508 81.2156,77.4508 81.8406,76.2008 81.8406,76.2008 82.4656,74.3258 82.4656,74.3258 82.4656,71.2008 82.4656,71.2008 81.8406,69.3258 81.8406,69.3258 81.2156,68.0758 81.2156,68.0758 79.9656,66.8258 79.9656,66.8258 78.7156,66.2008 78.7156,66.2008"/>
    <polyline points="120.2608,66.2008 120.2608,79.3258 120.2608,79.3258 111.5108,66.2008 111.5108,66.2008 111.5108,79.3258"/>
    <line x1="170.0787" x2="207.874" y1="92.5984" y2="92.5984"/>
    <polygon points="174.4685,56.7224 173.531,57.0349 173.531,57.0349 173.2185,57.6599 173.2185,57.6599 173.2185,58.2849 173.2185,58.2849 173.531,58.9099 173.531,58.9099 174.156,59.2224 174.156,59.2224 175.406,59.5349 175.406,59.5349 176.3435,59.8474 176.3435,59.8474 176.9685,60.4724 176.9685,60.4724 177.281,61.0974 177.281,61.0974 177.281,62.0349 177.281,62.0349 176.9685,62.6599 176.9685,62.6599 176.656,62.9724 176.656,62.9724 175.7185,63.2849 175.7185,63.2849 174.4685,63.2849 174.4685,63.2849 173.531,62.9724 173.531,62.9724 173.2185,62.6599 173.2185,62.6599 172.906,62.0349 172.906,62.0349 172.906,61.0974 172.906,61.0974 173.2185,60.4724 173.2185,60.4724 173.8435,59.8474 173.8435,59.8474 174.781,59.5349 174.781,59.5349 176.031,59.2224 176.031,59.2224 176.656,58.9099 176.656,58.9099 176.9685,58.2849 176.9685,58.2849 176.9685,57.6599 176.9685,57.6599 176.656,57.0349 176.656,57.0349 175.7185,56.7224 175.7185,56.7224"/>
    <polyline points="195.2264,68.0758 193.9764,66.8258 193.9764,66.8258 192.1014,66.2008 192.1014,66.2008 189.6014,66.2008 189.6014,66.2008 187.7264,66.8258 187.7264,66.8258 186.4764,68.0758 186.4764,68.0758 186.4764,69.3258 186.4764,69.3258 187.1014,70.5758 187.1014,70.5758 187.7264,71.2008 187.7264,71.2008 188.9764,71.8258 188.9764,71.8258 192.7264,73.0758 192.7264,73.0758 193.9764,73.7008 193.9764,73.7008 194.6014,74.3258 194.6014,74.3258 195.2264,75.5758 195.2264,75.5758 195.2264,77.4508 195.2264,77.4508 193.9764,78.7008 193.9764,78.7008 192.1014,79.3258 192.1014,79.3258 189.6014,79.3258 189.6014,79.3258 187.7264,78.7008 187.7264,78.7008 186.4764,77.4508"/>
    <polyline points="245.6693,54.8031 245.6693,92.5984 245.6693,92.5984 283.4646,92.5984 283.4646,92.5984 283.4646,54.8031"/>
    <polyline points="270.1919,79.3258 265.1919,66.2008 265.1919,66.2008 260.1919,79.3258"/>
    <line x1="262.0669" x2="268.3169" y1="74.9508" y2="74.9508"/>
    <polygon points="321.2598,54.8031 321.2598,92.5984 321.2598,92.5984 359.0551,92.5984 359.0551,92.5984 359.0551,54.8031 359.0551,54.8031"/>
    <polyline points="328.1496,58.9099 327.8371,59.8474 327.8371,59.8474 327.2121,60.4724 327.2121,60.4724 326.2746,60.7849 326.2746,60.7849 325.9621,60.7849 325.9621,60.7849 325.0246,60.4724 325.0246,60.4724 324.3996,59.8474 324.3996,59.8474 324.0871,58.9099 324.0871,58.9099 324.0871,58.5974 324.0871,58.5974 324.3996,57.6599 324.3996,57.6599 325.0246,57.0349 325.0246,57.0349 325.9621,56.7224 325.9621,56.7224 326.2746,56.7224 326.2746,56.7224 327.2121,57.0349 327.2121,57.0349 327.8371,57.6599 327.8371,57.6599 328.1496,58.9099 328.1496,58.9099 328.1496,60.4724 328.1496,60.4724 327.8371,62.0349 327.8371,62.0349 327.2121,62.9724 327.2121,62.9724 326.2746,63.2849 326.2746,63.2849 325.6496,63.2849 325.6496,63.2849 324.7121,62.9724 324.7121,62.9724 324.3996,62.3474"/>
    <line x1="338.2825" x2="338.2825" y1="66.2008" y2="79.3258"/>
    <line x1="347.0325" x2="338.2825" y1="66.2008" y2="74.9508"/>
    <line x1="341.4075" x2="347.0325" y1="71.8258" y2="79.3258"/>
    <polyline points="359.0551,92.5984 396.8504,92.5984 396.8504,92.5984 396.8504,130.3937 396.8504,130.3937 434.6457,130.3937 434.6457,130.3937 434.6457,92.5984 434.6457,92.5984 434.6457,54.8031 434.6457,54.8031 472.4409,54.8031 472.4409,54.8031 472.4409,92.5984 472.4409,92.5984 472.4409,130.3937 472.4409,130.3937 510.2362,130.3937 510.2362,130.3937 510.2362,92.5984 510.2362,92.5984 472.4409,92.5984 472.4409,92.5984 434.6457,92.5984 434.6457,92.5984 396.8504,92.5984 396.8504,92.5984 396.8504,54.8031 396.8504,54.8031 359.0551,54.8031"/>
    <polyline points="376.7028,66.2008 376.7028,79.3258 376.7028,79.3258 384.2028,79.3258"/>
    <polyline points="421.373,79.3258 416.373,66.2008 416.373,66.2008 411.373,79.3258"/>
    <line x1="413.248" x2="419.498" y1="74.9508" y2="74.9508"/>
    <polyline points="449.1683,66.2008 454.1683,79.3258 454.1683,79.3258 459.1683,66.2008"/>
    <polyline points="497.9011,66.2008 489.7761,66.2008 489.7761,66.2008 489.7761,79.3258 489.7761,79.3258 497.9011,79.3258"/>
    <line x1="489.7761" x2="494.7761" y1="72.4508" y2="72.4508"/>
    <polyline points="527.2589,72.4508 532.8839,72.4508 532.8839,72.4508 534.7589,71.8258 534.7589,71.8258 535.3839,71.2008 535.3839,71.2008 536.0089,69.9508 536.0089,69.9508 536.0089,68.7008 536.0089,68.7008 535.3839,67.4508 535.3839,67.4508 534.7589,66.8258 534.7589,66.8258 532.8839,66.2008 532.8839,66.2008 527.2589,66.2008 527.2589,66.2008 527.2589,79.3258"/>
    <line x1="531.6339" x2="536.0089" y1="72.4508" y2="79.3258"/>
    <polyline points="548.0315,92.5984 585.8268,92.5984 585.8268,92.5984 585.8268,54.8031"/>
    <line x1="567.5541" x2="567.5541" y1="66.2008" y2="79.3258"/>
    <line x1="563.1791" x2="571.9291" y1="66.2008" y2="66.2008"/>
    <polyline points="585.8268,92.5984 623.622,92.5984 623.622,92.5984 661.4173,92.5984"/>
    <polyline points="609.0994,66.2008 609.0994,76.2008 609.0994,76.2008 608.4744,78.0758 608.4744,78.0758 607.8494,78.7008 607.8494,78.7008 606.5994,79.3258 606.5994,79.3258 605.3494,79.3258 605.3494,79.3258 604.0994,78.7008 604.0994,78.7008 603.4744,78.0758 603.4744,78.0758 602.8494,76.2008 602.8494,76.2008 602.8494,74.9508"/>
    <polyline points="649.0822,66.2008 640.9572,66.2008 640.9572,66.2008 640.9572,79.3258 640.9572,79.3258 649.0822,79.3258"/>
    <line x1="640.9572" x2="645.9572" y1="72.4508" y2="72.4508"/>
    <line x1="737.0079" x2="774.8031" y1="92.5984" y2="92.5984"/>
    <polyline points="754.0305,72.4508 759.6555,72.4508 759.6555,72.4508 761.5305,71.8258 761.5305,71.8258 762.1555,71.2008 762.1555,71.2008 762.7805,69.9508 762.7805,69.9508 762.7805,68.7008 762.7805,68.7008 762.1555,67.4508 762.1555,67.4508 761.5305,66.8258 761.5305,66.8258 759.6555,66.2008 759.6555,66.2008 754.0305,66.2008 754.0305,66.2008 754.0305,79.3258"/>
    <line x1="758.4055" x2="762.7805" y1="72.4508" y2="79.3258"/>
    <polyline points="56.6929,205.9843 56.6929,168.189 56.6929,168.189 56.6929,130.3937 56.6929,130.3937 94.4882,130.3937 94.4882,130.3937 94.4882,168.189 94.4882,168.189 94.4882,205.9843 94.4882,205.9843 94.4882,243.7795 94.4882,243.7795 56.6929,243.7795 56.6929,243.7795 56.6929,205.9843 56.6929,205.9843 94.4882,205.9843"/>
    <polyline points="74.3406,103.9961 74.3406,117.1211 74.3406,117.1211 81.8406,117.1211"/>
    <polygon points="170.0787,130.3937 207.874,130.3937 207.874,130.3937 207.874,168.189 207.874,168.189 170.0787,168.189 170.0787,168.189"/>
    <line x1="187.1014" x2="187.1014" y1="103.9961" y2="117.1211"/>
    <line x1="195.8514" x2="187.1014" y1="103.9961" y2="112.7461"/>
    <line x1="190.2264" x2="195.8514" y1="109.6211" y2="117.1211"/>
    <polyline points="245.6693,92.5984 245.6693,130.3937 245.6693,130.3937 283.4646,130.3937 283.4646,130.3937 283.4646,92.5984"/>
    <polyline points="270.8169,105.8711 269.5669,104.6211 269.5669,104.6211 267.6919,103.9961 267.6919,103.9961 265.1919,103.9961 265.1919,103.9961 263.3169,104.6211 263.3169,104.6211 262.0669,105.8711 262.0669,105.8711 262.0669,107.1211 262.0669,107.1211 262.6919,108.3711 262.6919,108.3711 263.3169,108.9961 263.3169,108.9961 264.5669,109.6211 264.5669,109.6211 268.3169,110.8711 268.3169,110.8711 269.5669,111.4961 269.5669,111.4961 270.1919,112.1211 270.1919,112.1211 270.8169,113.3711 270.8169,113.3711 270.8169,115.2461 270.8169,115.2461 269.5669,116.4961 269.5669,116.4961 267.6919,117.1211 267.6919,117.1211 265.1919,117.1211 265.1919,117.1211 263.3169,116.4961 263.3169,116.4961 262.0669,115.2461"/>
    <polyline points="422.623,103.9961 422.623,117.1211 422.623,117.1211 413.873,103.9961 413.873,103.9961 413.873,117.1211"/>
    <polyline points="497.9011,107.1211 497.2761,105.8711 497.2761,105.8711 496.0261,104.6211 496.0261,104.6211 494.7761,103.9961 494.7761,103.9961 492.2761,103.9961 492.2761,103.9961 491.0261,104.6211 491.0261,104.6211 489.7761,105.8711 489.7761,105.8711 489.1511,107.1211 489.1511,107.1211 488.5261,108.9961 488.5261,108.9961 488.5261,112.1211 488.5261,112.1211 489.1511,113.9961 489.1511,113.9961 489.7761,115.2461 489.7761,115.2461 491.0261,116.4961 491.0261,116.4961 492.2761,117.1211 492.2761,117.1211 494.7761,117.1211 494.7761,117.1211 496.0261,116.4961 496.0261,116.4961 497.2761,115.2461 497.2761,115.2461 497.9011,113.9961 497.9011,113.9961 497.9011,112.1211 497.9011,112.1211 494.7761,112.1211"/>
    <line x1="640.6447" x2="640.6447" y1="103.9961" y2="117.1211"/>
    <line x1="649.3947" x2="640.6447" y1="103.9961" y2="112.7461"/>
    <line x1="643.7697" x2="649.3947" y1="109.6211" y2="117.1211"/>
    <polyline points="761.5305,117.1211 756.5305,103.9961 756.5305,103.9961 751.5305,117.1211"/>
    <line x1="753.4055" x2="759.6555" y1="112.7461" y2="112.7461"/>
    <polyline points="22.6624,133.563 23.2874,133.2505 23.2874,133.2505 24.2249,132.313 24.2249,132.313 24.2249,138.8755"/>
    <polygon points="29.8499,132.313 28.9124,132.6255 28.9124,132.6255 28.2874,133.563 28.2874,133.563 27.9749,135.1255 27.9749,135.1255 27.9749,136.063 27.9749,136.063 28.2874,137.6255 28.2874,137.6255 28.9124,138.563 28.9124,138.563 29.8499,138.8755 29.8499,138.8755 30.4749,138.8755 30.4749,138.8755 31.4124,138.563 31.4124,138.563 32.0374,137.6255 32.0374,137.6255 32.3499,136.063 32.3499,136.063 32.3499,135.1255 32.3499,135.1255 32.0374,133.563 32.0374,133.563 31.4124,132.6255 31.4124,132.6255 30.4749,132.313 30.4749,132.313"/>
    <polyline points="45.2953,154.9163 45.2953,141.7913 45.2953,141.7913 40.2953,154.9163 40.2953,154.9163 35.2953,141.7913 35.2953,141.7913 35.2953,154.9163"/>
    <line x1="78.0906" x2="78.0906" y1="141.7913" y2="154.9163"/>
    <line x1="132.2835" x2="132.2835" y1="168.189" y2="130.3937"/>
    <polyline points="119.6358,143.6663 118.3858,142.4163 118.3858,142.4163 116.5108,141.7913 116.5108,141.7913 114.0108,141.7913 114.0108,141.7913 112.1358,142.4163 112.1358,142.4163 110.8858,143.6663 110.8858,143.6663 110.8858,144.9163 110.8858,144.9163 111.5108,146.1663 111.5108,146.1663 112.1358,146.7913 112.1358,146.7913 113.3858,147.4163 113.3858,147.4163 117.1358,148.6663 117.1358,148.6663 118.3858,149.2913 118.3858,149.2913 119.0108,149.9163 119.0108,149.9163 119.6358,151.1663 119.6358,151.1663 119.6358,153.0413 119.6358,153.0413 118.3858,154.2913 118.3858,154.2913 116.5108,154.9163 116.5108,154.9163 114.0108,154.9163 114.0108,154.9163 112.1358,154.2913 112.1358,154.2913 110.8858,153.0413"/>
    <polyline points="146.8061,141.7913 151.8061,154.9163 151.8061,154.9163 156.8061,141.7913"/>
    <polyline points="195.5389,141.7913 187.4139,141.7913 187.4139,141.7913 187.4139,154.9163 187.4139,154.9163 195.5389,154.9163"/>
    <line x1="187.4139" x2="192.4139" y1="148.0413" y2="148.0413"/>
    <polyline points="224.8967,148.0413 230.5217,148.0413 230.5217,148.0413 232.3967,147.4163 232.3967,147.4163 233.0217,146.7913 233.0217,146.7913 233.6467,145.5413 233.6467,145.5413 233.6467,144.2913 233.6467,144.2913 233.0217,143.0413 233.0217,143.0413 232.3967,142.4163 232.3967,142.4163 230.5217,141.7913 230.5217,141.7913 224.8967,141.7913 224.8967,141.7913 224.8967,154.9163"/>
    <line x1="229.2717" x2="233.6467" y1="148.0413" y2="154.9163"/>
    <polygon points="245.6693,168.189 283.4646,168.189 283.4646,168.189 321.2598,168.189 321.2598,168.189 359.0551,168.189 359.0551,168.189 359.0551,130.3937 359.0551,130.3937 321.2598,130.3937 321.2598,130.3937 283.4646,130.3937 283.4646,130.3937 283.4646,168.189 283.4646,168.189 283.4646,205.9843 283.4646,205.9843 245.6693,205.9843 245.6693,205.9843"/>
    <polyline points="270.8169,143.6663 269.5669,142.4163 269.5669,142.4163 267.6919,141.7913 267.6919,141.7913 265.1919,141.7913 265.1919,141.7913 263.3169,142.4163 263.3169,142.4163 262.0669,143.6663 262.0669,143.6663 262.0669,144.9163 262.0669,144.9163 262.6919,146.1663 262.6919,146.1663 263.3169,146.7913 263.3169,146.7913 264.5669,147.4163 264.5669,147.4163 268.3169,148.6663 268.3169,148.6663 269.5669,149.2913 269.5669,149.2913 270.1919,149.9163 270.1919,149.9163 270.8169,151.1663 270.8169,151.1663 270.8169,153.0413 270.8169,153.0413 269.5669,154.2913 269.5669,154.2913 267.6919,154.9163 267.6919,154.9163 265.1919,154.9163 265.1919,154.9163 263.3169,154.2913 263.3169,154.2913 262.0669,153.0413"/>
    <line x1="321.2598" x2="321.2598" y1="168.189" y2="130.3937"/>
    <line x1="302.9872" x2="302.9872" y1="141.7913" y2="154.9163"/>
    <line x1="298.6122" x2="307.3622" y1="141.7913" y2="141.7913"/>
    <polyline points="345.7825,154.9163 340.7825,141.7913 340.7825,141.7913 335.7825,154.9163"/>
    <line x1="337.6575" x2="343.9075" y1="150.5413" y2="150.5413"/>
    <polyline points="359.0551,168.189 396.8504,168.189 396.8504,168.189 434.6457,168.189 434.6457,168.189 434.6457,130.3937"/>
    <polyline points="434.6457,168.189 434.6457,205.9843 434.6457,205.9843 396.8504,205.9843 396.8504,205.9843 396.8504,168.189 396.8504,168.189 396.8504,130.3937 396.8504,130.3937 359.0551,130.3937"/>
    <polyline points="384.8278,141.7913 384.8278,154.9163 384.8278,154.9163 376.0778,141.7913 376.0778,141.7913 376.0778,154.9163"/>
    <polygon points="413.873,141.7913 413.873,154.9163 413.873,154.9163 418.248,154.9163 418.248,154.9163 420.123,154.2913 420.123,154.2913 421.373,153.0413 421.373,153.0413 421.998,151.7913 421.998,151.7913 422.623,149.9163 422.623,149.9163 422.623,146.7913 422.623,146.7913 421.998,144.9163 421.998,144.9163 421.373,143.6663 421.373,143.6663 420.123,142.4163 420.123,142.4163 418.248,141.7913 418.248,141.7913"/>
    <polyline points="472.4409,130.3937 472.4409,168.189 472.4409,168.189 472.4409,205.9843 472.4409,205.9843 472.4409,243.7795 472.4409,243.7795 510.2362,243.7795 510.2362,243.7795 510.2362,205.9843 510.2362,205.9843 510.2362,168.189 510.2362,168.189 510.2362,130.3937"/>
    <line x1="472.4409" x2="510.2362" y1="168.189" y2="168.189"/>
    <polyline points="497.9011,141.7913 489.7761,141.7913 489.7761,141.7913 489.7761,154.9163 489.7761,154.9163 497.9011,154.9163"/>
    <line x1="489.7761" x2="494.7761" y1="148.0413" y2="148.0413"/>
    <polyline points="551.7963,133.563 552.4213,133.2505 552.4213,133.2505 553.3588,132.313 553.3588,132.313 553.3588,138.8755"/>
    <polyline points="558.0463,133.563 558.6713,133.2505 558.6713,133.2505 559.6088,132.313 559.6088,132.313 559.6088,138.8755"/>
    <polyline points="565.6791,141.7913 565.6791,154.9163 565.6791,154.9163 573.1791,154.9163"/>
    <polyline points="585.8268,168.189 623.622,168.189 623.622,168.189 623.622,205.9843 623.622,205.9843 623.622,243.7795 623.622,243.7795 661.4173,243.7795 661.4173,243.7795 661.4173,205.9843 661.4173,205.9843 699.2126,205.9843 699.2126,205.9843 699.2126,243.7795 699.2126,243.7795 661.4173,243.7795 661.4173,243.7795 661.4173,281.5748 661.4173,281.5748 623.622,281.5748 623.622,281.5748 623.622,319.3701 623.622,319.3701 661.4173,319.3701 661.4173,319.3701 661.4173,281.5748"/>
    <polyline points="610.3494,154.9163 605.3494,141.7913 605.3494,141.7913 600.3494,154.9163"/>
    <line x1="602.2244" x2="608.4744" y1="150.5413" y2="150.5413"/>
    <line x1="640.6447" x2="640.6447" y1="141.7913" y2="154.9163"/>
    <line x1="649.3947" x2="640.6447" y1="141.7913" y2="150.5413"/>
    <line x1="643.7697" x2="649.3947" y1="147.4163" y2="154.9163"/>
    <polyline points="686.8775,141.7913 678.7525,141.7913 678.7525,141.7913 678.7525,154.9163 678.7525,154.9163 686.8775,154.9163"/>
    <line x1="678.7525" x2="683.7525" y1="148.0413" y2="148.0413"/>
    <polyline points="699.2126,168.189 737.0079,168.189 737.0079,168.189 774.8031,168.189 774.8031,168.189 774.8031,130.3937"/>
    <polyline points="737.0079,168.189 737.0079,130.3937 737.0079,130.3937 699.2126,130.3937"/>
    <polyline points="724.9852,141.7913 724.9852,154.9163 724.9852,154.9163 716.2352,141.7913 716.2352,141.7913 716.2352,154.9163"/>
    <polyline points="762.1555,143.6663 760.9055,142.4163 760.9055,142.4163 759.0305,141.7913 759.0305,141.7913 756.5305,141.7913 756.5305,141.7913 754.6555,142.4163 754.6555,142.4163 753.4055,143.6663 753.4055,143.6663 753.4055,144.9163 753.4055,144.9163 754.0305,146.1663 754.0305,146.1663 754.6555,146.7913 754.6555,146.7913 755.9055,147.4163 755.9055,147.4163 759.6555,148.6663 759.6555,148.6663 760.9055,149.2913 760.9055,149.2913 761.5305,149.9163 761.5305,149.9163 762.1555,151.1663 762.1555,151.1663 762.1555,153.0413 762.1555,153.0413 760.9055,154.2913 760.9055,154.2913 759.0305,154.9163 759.0305,154.9163 756.5305,154.9163 756.5305,154.9163 754.6555,154.2913 754.6555,154.2913 753.4055,153.0413"/>
    <polyline points="82.1531,179.5866 74.0281,179.5866 74.0281,179.5866 74.0281,192.7116 74.0281,192.7116 82.1531,192.7116"/>
    <line x1="74.0281" x2="79.0281" y1="185.8366" y2="185.8366"/>
    <polyline points="187.7264,179.5866 187.7264,192.7116 187.7264,192.7116 195.2264,192.7116"/>
    <polyline points="270.1919,192.7116 265.1919,179.5866 265.1919,179.5866 260.1919,192.7116"/>
    <line x1="262.0669" x2="268.3169" y1="188.3366" y2="188.3366"/>
    <polygon points="413.873,179.5866 413.873,192.7116 413.873,192.7116 418.248,192.7116 418.248,192.7116 420.123,192.0866 420.123,192.0866 421.373,190.8366 421.373,190.8366 421.998,189.5866 421.998,189.5866 422.623,187.7116 422.623,187.7116 422.623,184.5866 422.623,184.5866 421.998,182.7116 421.998,182.7116 421.373,181.4616 421.373,181.4616 420.123,180.2116 420.123,180.2116 418.248,179.5866 418.248,179.5866"/>
    <line x1="472.4409" x2="510.2362" y1="205.9843" y2="205.9843"/>
    <polyline points="498.2136,179.5866 498.2136,192.7116 498.2136,192.7116 489.4636,179.5866 489.4636,179.5866 489.4636,192.7116"/>
    <polyline points="649.0822,179.5866 640.9572,179.5866 640.9572,179.5866 640.9572,192.7116 640.9572,192.7116 649.0822,192.7116"/>
    <line x1="640.9572" x2="645.9572" y1="185.8366" y2="185.8366"/>
    <polyline points="82.4656,217.3819 82.4656,230.5069 82.4656,230.5069 73.7156,217.3819 73.7156,217.3819 73.7156,230.5069"/>
    <polyline points="170.0787,205.9843 170.0787,243.7795 170.0787,243.7795 207.874,243.7795 207.874,243.7795 207.874,205.9843"/>
    <polyline points="187.7264,217.3819 187.7264,230.5069 187.7264,230.5069 195.2264,230.5069"/>
    <polyline points="396.8504,205.9843 396.8504,243.7795 396.8504,243.7795 434.6457,243.7795 434.6457,243.7795 434.6457,205.9843"/>
    <polygon points="416.373,217.3819 415.123,218.0069 415.123,218.0069 413.873,219.2569 413.873,219.2569 413.248,220.5069 413.248,220.5069 412.623,222.3819 412.623,222.3819 412.623,225.5069 412.623,225.5069 413.248,227.3819 413.248,227.3819 413.873,228.6319 413.873,228.6319 415.123,229.8819 415.123,229.8819 416.373,230.5069 416.373,230.5069 418.873,230.5069 418.873,230.5069 420.123,229.8819 420.123,229.8819 421.373,228.6319 421.373,228.6319 421.998,227.3819 421.998,227.3819 422.623,225.5069 422.623,225.5069 422.623,222.3819 422.623,222.3819 421.998,220.5069 421.998,220.5069 421.373,219.2569 421.373,219.2569 420.123,218.0069 420.123,218.0069 418.873,217.3819 418.873,217.3819"/>
    <polyline points="495.0886,223.6319 496.9636,223.0069 496.9636,223.0069 497.5886,222.3819 497.5886,222.3819 498.2136,221.1319 498.2136,221.1319 498.2136,219.8819 498.2136,219.8819 497.5886,218.6319 497.5886,218.6319 496.9636,218.0069 496.9636,218.0069 495.0886,217.3819 495.0886,217.3819 489.4636,217.3819 489.4636,217.3819 489.4636,230.5069 489.4636,230.5069 495.0886,230.5069 495.0886,230.5069 496.9636,229.8819 496.9636,229.8819 497.5886,229.2569 497.5886,229.2569 498.2136,228.0069 498.2136,228.0069 498.2136,226.1319 498.2136,226.1319 497.5886,224.8819 497.5886,224.8819 496.9636,224.2569 496.9636,224.2569 495.0886,223.6319 495.0886,223.6319 489.4636,223.6319"/>
    <polyline points="551.7963,209.1535 552.4213,208.841 552.4213,208.841 553.3588,207.9035 553.3588,207.9035 553.3588,214.466"/>
    <polyline points="557.4213,209.466 557.4213,209.1535 557.4213,209.1535 557.7338,208.5285 557.7338,208.5285 558.0463,208.216 558.0463,208.216 558.6713,207.9035 558.6713,207.9035 559.9213,207.9035 559.9213,207.9035 560.5463,208.216 560.5463,208.216 560.8588,208.5285 560.8588,208.5285 561.1713,209.1535 561.1713,209.1535 561.1713,209.7785 561.1713,209.7785 560.8588,210.4035 560.8588,210.4035 560.2338,211.341 560.2338,211.341 557.1088,214.466 557.1088,214.466 561.4838,214.466"/>
    <line x1="567.5541" x2="567.5541" y1="217.3819" y2="230.5069"/>
    <line x1="563.1791" x2="571.9291" y1="217.3819" y2="217.3819"/>
    <polyline points="585.8268,243.7795 623.622,243.7795 623.622,243.7795 623.622,281.5748"/>
    <polyline points="611.2869,217.3819 603.1619,217.3819 603.1619,217.3819 603.1619,230.5069 603.1619,230.5069 611.2869,230.5069"/>
    <line x1="603.1619" x2="608.1619" y1="223.6319" y2="223.6319"/>
    <polyline points="640.6447,223.6319 646.2697,223.6319 646.2697,223.6319 648.1447,223.0069 648.1447,223.0069 648.7697,222.3819 648.7697,222.3819 649.3947,221.1319 649.3947,221.1319 649.3947,219.8819 649.3947,219.8819 648.7697,218.6319 648.7697,218.6319 648.1447,218.0069 648.1447,218.0069 646.2697,217.3819 646.2697,217.3819 640.6447,217.3819 640.6447,217.3819 640.6447,230.5069"/>
    <line x1="645.0197" x2="649.3947" y1="223.6319" y2="230.5069"/>
    <polyline points="678.44,223.6319 684.065,223.6319 684.065,223.6319 685.94,223.0069 685.94,223.0069 686.565,222.3819 686.565,222.3819 687.19,221.1319 687.19,221.1319 687.19,219.8819 687.19,219.8819 686.565,218.6319 686.565,218.6319 685.94,218.0069 685.94,218.0069 684.065,217.3819 684.065,217.3819 678.44,217.3819 678.44,217.3819 678.44,230.5069"/>
    <line x1="682.815" x2="687.19" y1="223.6319" y2="230.5069"/>
    <polyline points="699.2126,243.7795 737.0079,243.7795 737.0079,243.7795 737.0079,205.9843 737.0079,205.9843 699.2126,205.9843"/>
    <polyline points="723.7352,230.5069 718.7352,217.3819 718.7352,217.3819 713.7352,230.5069"/>
    <line x1="715.6102" x2="721.8602" y1="226.1319" y2="226.1319"/>
    <polyline points="737.0079,243.7795 774.8031,243.7795 774.8031,243.7795 774.8031,205.9843 774.8031,205.9843 737.0079,205.9843"/>
    <polyline points="762.1555,219.2569 760.9055,218.0069 760.9055,218.0069 759.0305,217.3819 759.0305,217.3819 756.5305,217.3819 756.5305,217.3819 754.6555,218.0069 754.6555,218.0069 753.4055,219.2569 753.4055,219.2569 753.4055,220.5069 753.4055,220.5069 754.0305,221.7569 754.0305,221.7569 754.6555,222.3819 754.6555,222.3819 755.9055,223.0069 755.9055,223.0069 759.6555,224.2569 759.6555,224.2569 760.9055,224.8819 760.9055,224.8819 761.5305,225.5069 761.5305,225.5069 762.1555,226.7569 762.1555,226.7569 762.1555,228.6319 762.1555,228.6319 760.9055,229.8819 760.9055,229.8819 759.0305,230.5069 759.0305,230.5069 756.5305,230.5069 756.5305,230.5069 754.6555,229.8819 754.6555,229.8819 753.4055,228.6319"/>
    <polygon points="18.8976,243.7795 18.8976,281.5748 18.8976,281.5748 18.8976,319.3701 18.8976,319.3701 18.8976,357.1654 18.8976,357.1654 56.6929,357.1654 56.6929,357.1654 56.6929,319.3701 56.6929,319.3701 56.6929,281.5748 56.6929,281.5748 56.6929,243.7795 56.6929,243.7795"/>
    <line x1="18.8976" x2="56.6929" y1="281.5748" y2="281.5748"/>
    <polyline points="22.6624,246.9488 23.2874,246.6363 23.2874,246.6363 24.2249,245.6988 24.2249,245.6988 24.2249,252.2613"/>
    <polyline points="28.5999,245.6988 32.0374,245.6988 32.0374,245.6988 30.1624,248.1988 30.1624,248.1988 31.0999,248.1988 31.0999,248.1988 31.7249,248.5113 31.7249,248.5113 32.0374,248.8238 32.0374,248.8238 32.3499,249.7613 32.3499,249.7613 32.3499,250.3863 32.3499,250.3863 32.0374,251.3238 32.0374,251.3238 31.4124,251.9488 31.4124,251.9488 30.4749,252.2613 30.4749,252.2613 29.5374,252.2613 29.5374,252.2613 28.5999,251.9488 28.5999,251.9488 28.2874,251.6363 28.2874,251.6363 27.9749,251.0113"/>
    <polyline points="45.2953,268.3022 45.2953,255.1772 45.2953,255.1772 40.2953,268.3022 40.2953,268.3022 35.2953,255.1772 35.2953,255.1772 35.2953,268.3022"/>
    <polygon points="94.4882,243.7795 94.4882,281.5748 94.4882,281.5748 132.2835,281.5748 132.2835,281.5748 132.2835,243.7795 132.2835,243.7795"/>
    <polyline points="98.253,246.9488 98.878,246.6363 98.878,246.6363 99.8155,245.6988 99.8155,245.6988 99.8155,252.2613"/>
    <polyline points="106.6905,252.2613 106.6905,245.6988 106.6905,245.6988 103.5655,250.0738 103.5655,250.0738 108.253,250.0738"/>
    <polyline points="119.9483,255.1772 111.8233,255.1772 111.8233,255.1772 111.8233,268.3022"/>
    <line x1="111.8233" x2="116.8233" y1="261.4272" y2="261.4272"/>
    <polyline points="132.2835,281.5748 170.0787,281.5748 170.0787,281.5748 207.874,281.5748 207.874,281.5748 245.6693,281.5748 245.6693,281.5748 245.6693,243.7795 245.6693,243.7795 207.874,243.7795 207.874,243.7795 207.874,281.5748 207.874,281.5748 207.874,319.3701 207.874,319.3701 207.874,357.1654 207.874,357.1654 245.6693,357.1654 245.6693,357.1654 245.6693,319.3701 245.6693,319.3701 207.874,319.3701 207.874,319.3701 170.0787,319.3701 170.0787,319.3701 132.2835,319.3701 132.2835,319.3701 94.4882,319.3701 94.4882,319.3701 56.6929,319.3701 56.6929,319.3701 18.8976,319.3701"/>
    <polyline points="207.874,357.1654 170.0787,357.1654 170.0787,357.1654 170.0787,319.3701 170.0787,319.3701 170.0787,281.5748 170.0787,281.5748 170.0787,243.7795 170.0787,243.7795 132.2835,243.7795"/>
    <polyline points="149.9311,255.1772 149.9311,268.3022 149.9311,268.3022 157.4311,268.3022"/>
    <polyline points="195.5389,255.1772 187.4139,255.1772 187.4139,255.1772 187.4139,268.3022 187.4139,268.3022 195.5389,268.3022"/>
    <line x1="187.4139" x2="192.4139" y1="261.4272" y2="261.4272"/>
    <polyline points="233.0217,257.0522 231.7717,255.8022 231.7717,255.8022 229.8967,255.1772 229.8967,255.1772 227.3967,255.1772 227.3967,255.1772 225.5217,255.8022 225.5217,255.8022 224.2717,257.0522 224.2717,257.0522 224.2717,258.3022 224.2717,258.3022 224.8967,259.5522 224.8967,259.5522 225.5217,260.1772 225.5217,260.1772 226.7717,260.8022 226.7717,260.8022 230.5217,262.0522 230.5217,262.0522 231.7717,262.6772 231.7717,262.6772 232.3967,263.3022 232.3967,263.3022 233.0217,264.5522 233.0217,264.5522 233.0217,266.4272 233.0217,266.4272 231.7717,267.6772 231.7717,267.6772 229.8967,268.3022 229.8967,268.3022 227.3967,268.3022 227.3967,268.3022 225.5217,267.6772 225.5217,267.6772 224.2717,266.4272"/>
    <polyline points="245.6693,281.5748 283.4646,281.5748 283.4646,281.5748 321.2598,281.5748 321.2598,281.5748 321.2598,243.7795 321.2598,243.7795 283.4646,243.7795 283.4646,243.7795 245.6693,243.7795"/>
    <line x1="283.4646" x2="283.4646" y1="281.5748" y2="243.7795"/>
    <polyline points="270.8169,257.0522 269.5669,255.8022 269.5669,255.8022 267.6919,255.1772 267.6919,255.1772 265.1919,255.1772 265.1919,255.1772 263.3169,255.8022 263.3169,255.8022 262.0669,257.0522 262.0669,257.0522 262.0669,258.3022 262.0669,258.3022 262.6919,259.5522 262.6919,259.5522 263.3169,260.1772 263.3169,260.1772 264.5669,260.8022 264.5669,260.8022 268.3169,262.0522 268.3169,262.0522 269.5669,262.6772 269.5669,262.6772 270.1919,263.3022 270.1919,263.3022 270.8169,264.5522 270.8169,264.5522 270.8169,266.4272 270.8169,266.4272 269.5669,267.6772 269.5669,267.6772 267.6919,268.3022 267.6919,268.3022 265.1919,268.3022 265.1919,268.3022 263.3169,267.6772 263.3169,267.6772 262.0669,266.4272"/>
    <polyline points="308.9247,255.1772 300.7997,255.1772 300.7997,255.1772 300.7997,268.3022 300.7997,268.3022 308.9247,268.3022"/>
    <line x1="300.7997" x2="305.7997" y1="261.4272" y2="261.4272"/>
    <polyline points="321.2598,281.5748 359.0551,281.5748 359.0551,281.5748 359.0551,243.7795 359.0551,243.7795 321.2598,243.7795"/>
    <polyline points="347.0325,255.1772 347.0325,268.3022 347.0325,268.3022 338.2825,255.1772 338.2825,255.1772 338.2825,268.3022"/>
    <polyline points="359.0551,281.5748 396.8504,281.5748 396.8504,281.5748 434.6457,281.5748 434.6457,281.5748 434.6457,243.7795 434.6457,243.7795 472.4409,243.7795 472.4409,243.7795 472.4409,281.5748 472.4409,281.5748 510.2362,281.5748 510.2362,281.5748 510.2362,243.7795 510.2362,243.7795 548.0315,243.7795 548.0315,243.7795 548.0315,281.5748 548.0315,281.5748 510.2362,281.5748 510.2362,281.5748 510.2362,319.3701 510.2362,319.3701 472.4409,319.3701 472.4409,319.3701 472.4409,281.5748 472.4409,281.5748 434.6457,281.5748 434.6457,281.5748 434.6457,319.3701 434.6457,319.3701 396.8504,319.3701 396.8504,319.3701 396.8504,281.5748 396.8504,281.5748 396.8504,243.7795 396.8504,243.7795 359.0551,243.7795"/>
    <polyline points="384.5153,258.3022 383.8903,257.0522 383.8903,257.0522 382.6403,255.8022 382.6403,255.8022 381.3903,255.1772 381.3903,255.1772 378.8903,255.1772 378.8903,255.1772 377.6403,255.8022 377.6403,255.8022 376.3903,257.0522 376.3903,257.0522 375.7653,258.3022 375.7653,258.3022 375.1403,260.1772 375.1403,260.1772 375.1403,263.3022 375.1403,263.3022 375.7653,265.1772 375.7653,265.1772 376.3903,266.4272 376.3903,266.4272 377.6403,267.6772 377.6403,267.6772 378.8903,268.3022 378.8903,268.3022 381.3903,268.3022 381.3903,268.3022 382.6403,267.6772 382.6403,267.6772 383.8903,266.4272 383.8903,266.4272 384.5153,265.1772 384.5153,265.1772 384.5153,263.3022 384.5153,263.3022 381.3903,263.3022"/>
    <polyline points="422.3105,255.1772 414.1855,255.1772 414.1855,255.1772 414.1855,268.3022 414.1855,268.3022 422.3105,268.3022"/>
    <line x1="414.1855" x2="419.1855" y1="261.4272" y2="261.4272"/>
    <polyline points="452.2933,255.1772 452.2933,268.3022 452.2933,268.3022 459.7933,268.3022"/>
    <polyline points="489.4636,255.1772 489.4636,264.5522 489.4636,264.5522 490.0886,266.4272 490.0886,266.4272 491.3386,267.6772 491.3386,267.6772 493.2136,268.3022 493.2136,268.3022 494.4636,268.3022 494.4636,268.3022 496.3386,267.6772 496.3386,267.6772 497.5886,266.4272 497.5886,266.4272 498.2136,264.5522 498.2136,264.5522 498.2136,255.1772"/>
    <line x1="527.2589" x2="527.2589" y1="255.1772" y2="268.3022"/>
    <line x1="536.0089" x2="527.2589" y1="255.1772" y2="263.9272"/>
    <line x1="530.3839" x2="536.0089" y1="260.8022" y2="268.3022"/>
    <line x1="643.1447" x2="643.1447" y1="255.1772" y2="268.3022"/>
    <line x1="638.7697" x2="647.5197" y1="255.1772" y2="255.1772"/>
    <polygon points="38.4203,292.9724 37.1703,293.5974 37.1703,293.5974 35.9203,294.8474 35.9203,294.8474 35.2953,296.0974 35.2953,296.0974 34.6703,297.9724 34.6703,297.9724 34.6703,301.0974 34.6703,301.0974 35.2953,302.9724 35.2953,302.9724 35.9203,304.2224 35.9203,304.2224 37.1703,305.4724 37.1703,305.4724 38.4203,306.0974 38.4203,306.0974 40.9203,306.0974 40.9203,306.0974 42.1703,305.4724 42.1703,305.4724 43.4203,304.2224 43.4203,304.2224 44.0453,302.9724 44.0453,302.9724 44.6703,301.0974 44.6703,301.0974 44.6703,297.9724 44.6703,297.9724 44.0453,296.0974 44.0453,296.0974 43.4203,294.8474 43.4203,294.8474 42.1703,293.5974 42.1703,293.5974 40.9203,292.9724 40.9203,292.9724"/>
    <line x1="187.1014" x2="187.1014" y1="292.9724" y2="306.0974"/>
    <line x1="195.8514" x2="187.1014" y1="292.9724" y2="301.7224"/>
    <line x1="190.2264" x2="195.8514" y1="298.5974" y2="306.0974"/>
    <line x1="413.873" x2="413.873" y1="292.9724" y2="306.0974"/>
    <line x1="422.623" x2="413.873" y1="292.9724" y2="301.7224"/>
    <line x1="416.998" x2="422.623" y1="298.5974" y2="306.0974"/>
    <line x1="493.8386" x2="493.8386" y1="292.9724" y2="306.0974"/>
    <polyline points="646.8947,292.9724 646.8947,302.9724 646.8947,302.9724 646.2697,304.8474 646.2697,304.8474 645.6447,305.4724 645.6447,305.4724 644.3947,306.0974 644.3947,306.0974 643.1447,306.0974 643.1447,306.0974 641.8947,305.4724 641.8947,305.4724 641.2697,304.8474 641.2697,304.8474 640.6447,302.9724 640.6447,302.9724 640.6447,301.7224"/>
    <polyline points="22.6624,322.5394 23.2874,322.2269 23.2874,322.2269 24.2249,321.2894 24.2249,321.2894 24.2249,327.8519"/>
    <polyline points="31.7249,321.2894 28.5999,321.2894 28.5999,321.2894 28.2874,324.1019 28.2874,324.1019 28.5999,323.7894 28.5999,323.7894 29.5374,323.4769 29.5374,323.4769 30.4749,323.4769 30.4749,323.4769 31.4124,323.7894 31.4124,323.7894 32.0374,324.4144 32.0374,324.4144 32.3499,325.3519 32.3499,325.3519 32.3499,325.9769 32.3499,325.9769 32.0374,326.9144 32.0374,326.9144 31.4124,327.5394 31.4124,327.5394 30.4749,327.8519 30.4749,327.8519 29.5374,327.8519 29.5374,327.8519 28.5999,327.5394 28.5999,327.5394 28.2874,327.2269 28.2874,327.2269 27.9749,326.6019"/>
    <polyline points="35.9203,337.6427 41.5453,337.6427 41.5453,337.6427 43.4203,337.0177 43.4203,337.0177 44.0453,336.3927 44.0453,336.3927 44.6703,335.1427 44.6703,335.1427 44.6703,333.2677 44.6703,333.2677 44.0453,332.0177 44.0453,332.0177 43.4203,331.3927 43.4203,331.3927 41.5453,330.7677 41.5453,330.7677 35.9203,330.7677 35.9203,330.7677 35.9203,343.8927"/>
    <polyline points="56.6929,357.1654 94.4882,357.1654 94.4882,357.1654 132.2835,357.1654 132.2835,357.1654 170.0787,357.1654"/>
    <line x1="94.4882" x2="94.4882" y1="357.1654" y2="319.3701"/>
    <polyline points="81.2156,343.8927 76.2156,330.7677 76.2156,330.7677 71.2156,343.8927"/>
    <line x1="73.0906" x2="79.3406" y1="339.5177" y2="339.5177"/>
    <line x1="132.2835" x2="132.2835" y1="357.1654" y2="319.3701"/>
    <polyline points="111.5108,337.0177 117.1358,337.0177 117.1358,337.0177 119.0108,336.3927 119.0108,336.3927 119.6358,335.7677 119.6358,335.7677 120.2608,334.5177 120.2608,334.5177 120.2608,333.2677 120.2608,333.2677 119.6358,332.0177 119.6358,332.0177 119.0108,331.3927 119.0108,331.3927 117.1358,330.7677 117.1358,330.7677 111.5108,330.7677 111.5108,330.7677 111.5108,343.8927"/>
    <line x1="115.8858" x2="120.2608" y1="337.0177" y2="343.8927"/>
    <line x1="149.3061" x2="149.3061" y1="330.7677" y2="343.8927"/>
    <line x1="158.0561" x2="149.3061" y1="330.7677" y2="339.5177"/>
    <line x1="152.4311" x2="158.0561" y1="336.3927" y2="343.8927"/>
    <polyline points="195.5389,330.7677 187.4139,330.7677 187.4139,330.7677 187.4139,343.8927 187.4139,343.8927 195.5389,343.8927"/>
    <line x1="187.4139" x2="192.4139" y1="337.0177" y2="337.0177"/>
    <polyline points="224.8967,337.0177 230.5217,337.0177 230.5217,337.0177 232.3967,336.3927 232.3967,336.3927 233.0217,335.7677 233.0217,335.7677 233.6467,334.5177 233.6467,334.5177 233.6467,333.2677 233.6467,333.2677 233.0217,332.0177 233.0217,332.0177 232.3967,331.3927 232.3967,331.3927 230.5217,330.7677 230.5217,330.7677 224.8967,330.7677 224.8967,330.7677 224.8967,343.8927"/>
    <line x1="229.2717" x2="233.6467" y1="337.0177" y2="343.8927"/>
    <polyline points="245.6693,357.1654 283.4646,357.1654 283.4646,357.1654 321.2598,357.1654 321.2598,357.1654 321.2598,319.3701 321.2598,319.3701 283.4646,319.3701 283.4646,319.3701 245.6693,319.3701"/>
    <line x1="283.4646" x2="283.4646" y1="357.1654" y2="319.3701"/>
    <polyline points="271.1294,330.7677 263.0044,330.7677 263.0044,330.7677 263.0044,343.8927 263.0044,343.8927 271.1294,343.8927"/>
    <line x1="263.0044" x2="268.0044" y1="337.0177" y2="337.0177"/>
    <polyline points="309.2372,330.7677 309.2372,343.8927 309.2372,343.8927 300.4872,330.7677 300.4872,330.7677 300.4872,343.8927"/>
    <polygon points="548.0315,319.3701 548.0315,357.1654 548.0315,357.1654 585.8268,357.1654 585.8268,357.1654 585.8268,319.3701 585.8268,319.3701"/>
    <polyline points="551.7963,322.5394 552.4213,322.2269 552.4213,322.2269 553.3588,321.2894 553.3588,321.2894 553.3588,327.8519"/>
    <polyline points="561.1713,322.2269 560.8588,321.6019 560.8588,321.6019 559.9213,321.2894 559.9213,321.2894 559.2963,321.2894 559.2963,321.2894 558.3588,321.6019 558.3588,321.6019 557.7338,322.5394 557.7338,322.5394 557.4213,324.1019 557.4213,324.1019 557.4213,325.6644 557.4213,325.6644 557.7338,326.9144 557.7338,326.9144 558.3588,327.5394 558.3588,327.5394 559.2963,327.8519 559.2963,327.8519 559.6088,327.8519 559.6088,327.8519 560.5463,327.5394 560.5463,327.5394 561.1713,326.9144 561.1713,326.9144 561.4838,325.9769 561.4838,325.9769 561.4838,325.6644 561.4838,325.6644 561.1713,324.7269 561.1713,324.7269 560.5463,324.1019 560.5463,324.1019 559.6088,323.7894 559.6088,323.7894 559.2963,323.7894 559.2963,323.7894 558.3588,324.1019 558.3588,324.1019 557.7338,324.7269 557.7338,324.7269 557.4213,325.6644"/>
    <line x1="565.0541" x2="565.0541" y1="330.7677" y2="343.8927"/>
    <line x1="573.8041" x2="565.0541" y1="330.7677" y2="339.5177"/>
    <line x1="568.1791" x2="573.8041" y1="336.3927" y2="343.8927"/>
    <polyline points="585.8268,357.1654 623.622,357.1654 623.622,357.1654 661.4173,357.1654 661.4173,357.1654 699.2126,357.1654 699.2126,357.1654 699.2126,319.3701 699.2126,319.3701 661.4173,319.3701 661.4173,319.3701 661.4173,357.1654"/>
    <polyline points="623.622,357.1654 623.622,319.3701 623.622,319.3701 585.8268,319.3701"/>
    <line x1="607.2244" x2="607.2244" y1="330.7677" y2="343.8927"/>
    <polyline points="649.0822,330.7677 640.9572,330.7677 640.9572,330.7677 640.9572,343.8927 640.9572,343.8927 649.0822,343.8927"/>
    <line x1="640.9572" x2="645.9572" y1="337.0177" y2="337.0177"/>
    <polyline points="687.815,343.8927 687.815,330.7677 687.815,330.7677 682.815,343.8927 682.815,343.8927 677.815,330.7677 677.815,330.7677 677.815,343.8927"/>
    <polyline points="699.2126,357.1654 737.0079,357.1654 737.0079,357.1654 737.0079,319.3701 737.0079,319.3701 699.2126,319.3701"/>
    <polyline points="724.6727,330.7677 716.5477,330.7677 716.5477,330.7677 716.5477,343.8927 716.5477,343.8927 724.6727,343.8927"/>
    <line x1="716.5477" x2="721.5477" y1="337.0177" y2="337.0177"/>
    <polyline points="737.0079,357.1654 774.8031,357.1654 774.8031,357.1654 774.8031,319.3701 774.8031,319.3701 737.0079,319.3701"/>
    <polyline points="762.7805,330.7677 762.7805,343.8927 762.7805,343.8927 754.0305,330.7677 754.0305,330.7677 754.0305,343.8927"/>
  </g>
</svg>
