<?xml version="1.0" encoding="utf-8" ?>
<svg xmlns="http://www.w3.org/2000/svg" xmlns:cc="http://creativecommons.org/ns" xmlns:dc="http://purl.org/dc/elements/1.1/" xmlns:ev="http://www.w3.org/2001/xml-events" xmlns:inkscape="http://www.inkscape.org/namespaces/inkscape" xmlns:rdf="http://www.w3.org/1999/02/22-rdf-syntax-ns" xmlns:sodipodi="http://sodipodi.sourceforge.net/DTD/sodipodi-0.dtd" xmlns:xlink="http://www.w3.org/1999/xlink" baseProfile="tiny" height="9.9cm" version="1.2" viewBox="0 0 793.7007874015749 374.1732283464567" width="21.0cm">
  <metadata>
    <rdf:RDF>
      <cc:Work>
        <dc:format>image/svg+xml</dc:format>
        <dc:source>vpype eval 'cell=10;width=210;height=99' eval 'nCols=20;nRows=9' eval 'cells=[0,1,2,3,4,5,6,15,20,23,27,28,29,30,31,32,33,34,35,36,37,40,43,45,50,54,58,60,63,65,70,74,75,76,77,78,79,81,82,83,84,85,86,87,88,89,90,91,92,94,98,103,105,110,112,114,116,118,120,121,122,123,125,130,132,134,136,138,143,145,147,148,149,150,151,152,153,154,155,156,158,160,161,162,163,164,165,172,174,176]' eval 'chars=[&quot;P&quot;,&quot;I&quot;,&quot;N&quot;,&quot;K&quot;,&quot;E&quot;,&quot;R&quot;,&quot;S&quot;,&quot;J&quot;,&quot;I&quot;,&quot;L&quot;,&quot;M&quot;,&quot;I&quot;,&quot;S&quot;,&quot;V&quot;,&quot;E&quot;,&quot;R&quot;,&quot;S&quot;,&quot;T&quot;,&quot;A&quot;,&quot;N&quot;,&quot;D&quot;,&quot;P&quot;,&quot;A&quot;,&quot;R&quot;,&quot;E&quot;,&quot;E&quot;,&quot;B&quot;,&quot;I&quot;,&quot;V&quot;,&quot;E&quot;,&quot;L&quot;,&quot;L&quot;,&quot;A&quot;,&quot;D&quot;,&quot;D&quot;,&quot;E&quot;,&quot;R&quot;,&quot;F&quot;,&quot;L&quot;,&quot;E&quot;,&quot;S&quot;,&quot;S&quot;,&quot;E&quot;,&quot;N&quot;,&quot;G&quot;,&quot;E&quot;,&quot;L&quot;,&quot;U&quot;,&quot;K&quot;,&quot;E&quot;,&quot;N&quot;,&quot;R&quot;,&quot;T&quot;,&quot;E&quot;,&quot;A&quot;,&quot;F&quot;,&quot;D&quot;,&quot;O&quot;,&quot;L&quot;,&quot;I&quot;,&quot;F&quot;,&quot;T&quot;,&quot;J&quot;,&quot;K&quot;,&quot;S&quot;,&quot;O&quot;,&quot;R&quot;,&quot;I&quot;,&quot;J&quot;,&quot;E&quot;,&quot;G&quot;,&quot;R&quot;,&quot;O&quot;,&quot;E&quot;,&quot;P&quot;,&quot;S&quot;,&quot;F&quot;,&quot;O&quot;,&quot;T&quot;,&quot;O&quot;,&quot;T&quot;,&quot;L&quot;,&quot;A&quot;,&quot;K&quot;,&quot;E&quot;,&quot;N&quot;,&quot;S&quot;,&quot;A&quot;,&quot;N&quot;,&quot;P&quot;]' eval 'numbers=[0,3,15,27,30,34,45,58,74,81,92,116,120,147,160]' eval counter=1 eval charIndex=0 begin grid -o '%cell*mm%' '%cell*mm%' %nCols% %nRows% eval '%isCell=_i in cells%' eval '%number=_i in numbers%' eval '%size=10 if isCell else 0%' rect 0 0 '%size*mm%' '%size*mm%' text -s 10 -p 0.5mm 1.5mm '%counter if number else '&quot;'&quot;''&quot;'&quot;'%' text -s 20 -p 5mm 5mm -a center '%chars[charIndex] if isCell else '&quot;'&quot;''&quot;'&quot;'%' eval '%if number: counter+=1 %' eval '%if isCell: charIndex+=1 %' end splitall deduplicate linemerge --tolerance 0.1mm write -m none --page-size '%width*mm%x%height*mm%' --center ./svgs/solution/b36e58.svg
</dc:source>
        <dc:date>2023-12-23T22:30:05.800962</dc:date>
      </cc:Work>
    </rdf:RDF>
  </metadata>
  <defs/>
  <g fill="none" id="layer1" inkscape:groupmode="layer" inkscape:label="1" stroke="#000000" style="display:inline">
    <polygon points="18.8976,17.0079 18.8976,54.8031 18.8976,54.8031 56.6929,54.8031 56.6929,54.8031 56.6929,17.0079 56.6929,17.0079"/>
    <polyline points="22.6624,20.1772 23.2874,19.8647 23.2874,19.8647 24.2249,18.9272 24.2249,18.9272 24.2249,25.4897"/>
    <polyline points="35.9203,35.2805 41.5453,35.2805 41.5453,35.2805 43.4203,34.6555 43.4203,34.6555 44.0453,34.0305 44.0453,34.0305 44.6703,32.7805 44.6703,32.7805 44.6703,30.9055 44.6703,30.9055 44.0453,29.6555 44.0453,29.6555 43.4203,29.0305 43.4203,29.0305 41.5453,28.4055 41.5453,28.4055 35.9203,28.4055 35.9203,28.4055 35.9203,41.5305"/>
    <polyline points="245.6693,130.3937 207.874,130.3937 207.874,130.3937 207.874,92.5984 207.874,92.5984 245.6693,92.5984 245.6693,92.5984 245.6693,130.3937 245.6693,130.3937 245.6693,168.189 245.6693,168.189 245.6693,205.9843 245.6693,205.9843 245.6693,243.7795 245.6693,243.7795 207.874,243.7795 207.874,243.7795 207.874,205.9843 207.874,205.9843 170.0787,205.9843 170.0787,205.9843 170.0787,243.7795 170.0787,243.7795 132.2835,243.7795 132.2835,243.7795 132.2835,205.9843 132.2835,205.9843 94.4882,205.9843 94.4882,205.9843 56.6929,205.9843 56.6929,205.9843 56.6929,168.189 56.6929,168.189 56.6929,130.3937 56.6929,130.3937 56.6929,92.5984 56.6929,92.5984 56.6929,54.8031 56.6929,54.8031 94.4882,54.8031 94.4882,54.8031 132.2835,54.8031 132.2835,54.8031 132.2835,92.5984 132.2835,92.5984 132.2835,130.3937 132.2835,130.3937 170.0787,130.3937 170.0787,130.3937 170.0787,92.5984 170.0787,92.5984 170.0787,54.8031 170.0787,54.8031 207.874,54.8031 207.874,54.8031 245.6693,54.8031 245.6693,54.8031 245.6693,17.0079 245.6693,17.0079 207.874,17.0079 207.874,17.0079 170.0787,17.0079 170.0787,17.0079 132.2835,17.0079 132.2835,17.0079 94.4882,17.0079 94.4882,17.0079 56.6929,17.0079"/>
    <line x1="94.4882" x2="94.4882" y1="54.8031" y2="17.0079"/>
    <line x1="78.0906" x2="78.0906" y1="28.4055" y2="41.5305"/>
    <polyline points="170.0787,17.0079 170.0787,54.8031 170.0787,54.8031 132.2835,54.8031 132.2835,54.8031 132.2835,17.0079"/>
    <polyline points="120.2608,28.4055 120.2608,41.5305 120.2608,41.5305 111.5108,28.4055 111.5108,28.4055 111.5108,41.5305"/>
    <polyline points="135.4232,20.4897 135.4232,20.1772 135.4232,20.1772 135.7357,19.5522 135.7357,19.5522 136.0482,19.2397 136.0482,19.2397 136.6732,18.9272 136.6732,18.9272 137.9232,18.9272 137.9232,18.9272 138.5482,19.2397 138.5482,19.2397 138.8607,19.5522 138.8607,19.5522 139.1732,20.1772 139.1732,20.1772 139.1732,20.8022 139.1732,20.8022 138.8607,21.4272 138.8607,21.4272 138.2357,22.3647 138.2357,22.3647 135.1107,25.4897 135.1107,25.4897 139.4857,25.4897"/>
    <line x1="149.3061" x2="149.3061" y1="28.4055" y2="41.5305"/>
    <line x1="158.0561" x2="149.3061" y1="28.4055" y2="37.1555"/>
    <line x1="152.4311" x2="158.0561" y1="34.0305" y2="41.5305"/>
    <line x1="207.874" x2="207.874" y1="54.8031" y2="17.0079"/>
    <polyline points="195.5389,28.4055 187.4139,28.4055 187.4139,28.4055 187.4139,41.5305 187.4139,41.5305 195.5389,41.5305"/>
    <line x1="187.4139" x2="192.4139" y1="34.6555" y2="34.6555"/>
    <polyline points="224.8967,34.6555 230.5217,34.6555 230.5217,34.6555 232.3967,34.0305 232.3967,34.0305 233.0217,33.4055 233.0217,33.4055 233.6467,32.1555 233.6467,32.1555 233.6467,30.9055 233.6467,30.9055 233.0217,29.6555 233.0217,29.6555 232.3967,29.0305 232.3967,29.0305 230.5217,28.4055 230.5217,28.4055 224.8967,28.4055 224.8967,28.4055 224.8967,41.5305"/>
    <line x1="229.2717" x2="233.6467" y1="34.6555" y2="41.5305"/>
    <polyline points="245.6693,54.8031 283.4646,54.8031 283.4646,54.8031 283.4646,17.0079 283.4646,17.0079 245.6693,17.0079"/>
    <polyline points="270.8169,30.2805 269.5669,29.0305 269.5669,29.0305 267.6919,28.4055 267.6919,28.4055 265.1919,28.4055 265.1919,28.4055 263.3169,29.0305 263.3169,29.0305 262.0669,30.2805 262.0669,30.2805 262.0669,31.5305 262.0669,31.5305 262.6919,32.7805 262.6919,32.7805 263.3169,33.4055 263.3169,33.4055 264.5669,34.0305 264.5669,34.0305 268.3169,35.2805 268.3169,35.2805 269.5669,35.9055 269.5669,35.9055 270.1919,36.5305 270.1919,36.5305 270.8169,37.7805 270.8169,37.7805 270.8169,39.6555 270.8169,39.6555 269.5669,40.9055 269.5669,40.9055 267.6919,41.5305 267.6919,41.5305 265.1919,41.5305 265.1919,41.5305 263.3169,40.9055 263.3169,40.9055 262.0669,39.6555"/>
    <polygon points="585.8268,17.0079 585.8268,54.8031 585.8268,54.8031 623.622,54.8031 623.622,54.8031 623.622,17.0079 623.622,17.0079"/>
    <polyline points="589.279,18.9272 592.7165,18.9272 592.7165,18.9272 590.8415,21.4272 590.8415,21.4272 591.779,21.4272 591.779,21.4272 592.404,21.7397 592.404,21.7397 592.7165,22.0522 592.7165,22.0522 593.029,22.9897 593.029,22.9897 593.029,23.6147 593.029,23.6147 592.7165,24.5522 592.7165,24.5522 592.0915,25.1772 592.0915,25.1772 591.154,25.4897 591.154,25.4897 590.2165,25.4897 590.2165,25.4897 589.279,25.1772 589.279,25.1772 588.9665,24.8647 588.9665,24.8647 588.654,24.2397"/>
    <polyline points="609.0994,28.4055 609.0994,38.4055 609.0994,38.4055 608.4744,40.2805 608.4744,40.2805 607.8494,40.9055 607.8494,40.9055 606.5994,41.5305 606.5994,41.5305 605.3494,41.5305 605.3494,41.5305 604.0994,40.9055 604.0994,40.9055 603.4744,40.2805 603.4744,40.2805 602.8494,38.4055 602.8494,38.4055 602.8494,37.1555"/>
    <polyline points="18.8976,54.8031 18.8976,92.5984 18.8976,92.5984 56.6929,92.5984"/>
    <line x1="40.2953" x2="40.2953" y1="66.2008" y2="79.3258"/>
    <line x1="132.2835" x2="170.0787" y1="92.5984" y2="92.5984"/>
    <polyline points="149.9311,66.2008 149.9311,79.3258 149.9311,79.3258 157.4311,79.3258"/>
    <polyline points="321.2598,92.5984 321.2598,54.8031 321.2598,54.8031 283.4646,54.8031 283.4646,54.8031 283.4646,92.5984 283.4646,92.5984 321.2598,92.5984 321.2598,92.5984 359.0551,92.5984 359.0551,92.5984 396.8504,92.5984 396.8504,92.5984 396.8504,130.3937 396.8504,130.3937 396.8504,168.189 396.8504,168.189 359.0551,168.189 359.0551,168.189 321.2598,168.189 321.2598,168.189 283.4646,168.189 283.4646,168.189 245.6693,168.189 245.6693,168.189 207.874,168.189 207.874,168.189 170.0787,168.189 170.0787,168.189 170.0787,130.3937"/>
    <polyline points="289.4168,63.2849 289.4168,56.7224 289.4168,56.7224 286.2918,61.0974 286.2918,61.0974 290.9793,61.0974"/>
    <polyline points="309.8622,79.3258 309.8622,66.2008 309.8622,66.2008 304.8622,79.3258 304.8622,79.3258 299.8622,66.2008 299.8622,66.2008 299.8622,79.3258"/>
    <polyline points="359.0551,92.5984 359.0551,54.8031 359.0551,54.8031 321.2598,54.8031"/>
    <line x1="342.6575" x2="342.6575" y1="66.2008" y2="79.3258"/>
    <polyline points="396.8504,54.8031 434.6457,54.8031 434.6457,54.8031 434.6457,92.5984 434.6457,92.5984 396.8504,92.5984 396.8504,92.5984 396.8504,54.8031 396.8504,54.8031 359.0551,54.8031"/>
    <polyline points="384.2028,68.0758 382.9528,66.8258 382.9528,66.8258 381.0778,66.2008 381.0778,66.2008 378.5778,66.2008 378.5778,66.2008 376.7028,66.8258 376.7028,66.8258 375.4528,68.0758 375.4528,68.0758 375.4528,69.3258 375.4528,69.3258 376.0778,70.5758 376.0778,70.5758 376.7028,71.2008 376.7028,71.2008 377.9528,71.8258 377.9528,71.8258 381.7028,73.0758 381.7028,73.0758 382.9528,73.7008 382.9528,73.7008 383.5778,74.3258 383.5778,74.3258 384.2028,75.5758 384.2028,75.5758 384.2028,77.4508 384.2028,77.4508 382.9528,78.7008 382.9528,78.7008 381.0778,79.3258 381.0778,79.3258 378.5778,79.3258 378.5778,79.3258 376.7028,78.7008 376.7028,78.7008 375.4528,77.4508"/>
    <polyline points="403.4277,56.7224 400.3027,56.7224 400.3027,56.7224 399.9902,59.5349 399.9902,59.5349 400.3027,59.2224 400.3027,59.2224 401.2402,58.9099 401.2402,58.9099 402.1777,58.9099 402.1777,58.9099 403.1152,59.2224 403.1152,59.2224 403.7402,59.8474 403.7402,59.8474 404.0527,60.7849 404.0527,60.7849 404.0527,61.4099 404.0527,61.4099 403.7402,62.3474 403.7402,62.3474 403.1152,62.9724 403.1152,62.9724 402.1777,63.2849 402.1777,63.2849 401.2402,63.2849 401.2402,63.2849 400.3027,62.9724 400.3027,62.9724 399.9902,62.6599 399.9902,62.6599 399.6777,62.0349"/>
    <polyline points="411.373,66.2008 416.373,79.3258 416.373,79.3258 421.373,66.2008"/>
    <polyline points="396.8504,130.3937 434.6457,130.3937 434.6457,130.3937 434.6457,92.5984 434.6457,92.5984 472.4409,92.5984 472.4409,92.5984 472.4409,54.8031 472.4409,54.8031 434.6457,54.8031"/>
    <polyline points="460.1058,66.2008 451.9808,66.2008 451.9808,66.2008 451.9808,79.3258 451.9808,79.3258 460.1058,79.3258"/>
    <line x1="451.9808" x2="456.9808" y1="72.4508" y2="72.4508"/>
    <polyline points="472.4409,92.5984 510.2362,92.5984 510.2362,92.5984 510.2362,54.8031 510.2362,54.8031 472.4409,54.8031"/>
    <polyline points="489.4636,72.4508 495.0886,72.4508 495.0886,72.4508 496.9636,71.8258 496.9636,71.8258 497.5886,71.2008 497.5886,71.2008 498.2136,69.9508 498.2136,69.9508 498.2136,68.7008 498.2136,68.7008 497.5886,67.4508 497.5886,67.4508 496.9636,66.8258 496.9636,66.8258 495.0886,66.2008 495.0886,66.2008 489.4636,66.2008 489.4636,66.2008 489.4636,79.3258"/>
    <line x1="493.8386" x2="498.2136" y1="72.4508" y2="79.3258"/>
    <polyline points="510.2362,92.5984 548.0315,92.5984 548.0315,92.5984 548.0315,130.3937 548.0315,130.3937 585.8268,130.3937 585.8268,130.3937 585.8268,92.5984 585.8268,92.5984 585.8268,54.8031 585.8268,54.8031 548.0315,54.8031 548.0315,54.8031 510.2362,54.8031"/>
    <polyline points="623.622,92.5984 623.622,54.8031 623.622,54.8031 661.4173,54.8031 661.4173,54.8031 699.2126,54.8031 699.2126,54.8031 699.2126,92.5984 699.2126,92.5984 661.4173,92.5984 661.4173,92.5984 623.622,92.5984 623.622,92.5984 585.8268,92.5984 585.8268,92.5984 548.0315,92.5984 548.0315,92.5984 548.0315,54.8031"/>
    <polyline points="535.3839,68.0758 534.1339,66.8258 534.1339,66.8258 532.2589,66.2008 532.2589,66.2008 529.7589,66.2008 529.7589,66.2008 527.8839,66.8258 527.8839,66.8258 526.6339,68.0758 526.6339,68.0758 526.6339,69.3258 526.6339,69.3258 527.2589,70.5758 527.2589,70.5758 527.8839,71.2008 527.8839,71.2008 529.1339,71.8258 529.1339,71.8258 532.8839,73.0758 532.8839,73.0758 534.1339,73.7008 534.1339,73.7008 534.7589,74.3258 534.7589,74.3258 535.3839,75.5758 535.3839,75.5758 535.3839,77.4508 535.3839,77.4508 534.1339,78.7008 534.1339,78.7008 532.2589,79.3258 532.2589,79.3258 529.7589,79.3258 529.7589,79.3258 527.8839,78.7008 527.8839,78.7008 526.6339,77.4508"/>
    <polyline points="554.9213,57.6599 554.6088,57.0349 554.6088,57.0349 553.6713,56.7224 553.6713,56.7224 553.0463,56.7224 553.0463,56.7224 552.1088,57.0349 552.1088,57.0349 551.4838,57.9724 551.4838,57.9724 551.1713,59.5349 551.1713,59.5349 551.1713,61.0974 551.1713,61.0974 551.4838,62.3474 551.4838,62.3474 552.1088,62.9724 552.1088,62.9724 553.0463,63.2849 553.0463,63.2849 553.3588,63.2849 553.3588,63.2849 554.2963,62.9724 554.2963,62.9724 554.9213,62.3474 554.9213,62.3474 555.2338,61.4099 555.2338,61.4099 555.2338,61.0974 555.2338,61.0974 554.9213,60.1599 554.9213,60.1599 554.2963,59.5349 554.2963,59.5349 553.3588,59.2224 553.3588,59.2224 553.0463,59.2224 553.0463,59.2224 552.1088,59.5349 552.1088,59.5349 551.4838,60.1599 551.4838,60.1599 551.1713,61.0974"/>
    <line x1="567.5541" x2="567.5541" y1="66.2008" y2="79.3258"/>
    <line x1="563.1791" x2="571.9291" y1="66.2008" y2="66.2008"/>
    <polyline points="610.3494,79.3258 605.3494,66.2008 605.3494,66.2008 600.3494,79.3258"/>
    <line x1="602.2244" x2="608.4744" y1="74.9508" y2="74.9508"/>
    <line x1="661.4173" x2="661.4173" y1="92.5984" y2="54.8031"/>
    <polyline points="649.3947,66.2008 649.3947,79.3258 649.3947,79.3258 640.6447,66.2008 640.6447,66.2008 640.6447,79.3258"/>
    <polygon points="678.44,66.2008 678.44,79.3258 678.44,79.3258 682.815,79.3258 682.815,79.3258 684.69,78.7008 684.69,78.7008 685.94,77.4508 685.94,77.4508 686.565,76.2008 686.565,76.2008 687.19,74.3258 687.19,74.3258 687.19,71.2008 687.19,71.2008 686.565,69.3258 686.565,69.3258 685.94,68.0758 685.94,68.0758 684.69,66.8258 684.69,66.8258 682.815,66.2008 682.815,66.2008"/>
    <polyline points="18.8976,92.5984 18.8976,130.3937 18.8976,130.3937 18.8976,168.189 18.8976,168.189 56.6929,168.189 56.6929,168.189 94.4882,168.189 94.4882,168.189 132.2835,168.189 132.2835,168.189 170.0787,168.189 170.0787,168.189 170.0787,205.9843 170.0787,205.9843 132.2835,205.9843 132.2835,205.9843 132.2835,168.189 132.2835,168.189 132.2835,130.3937"/>
    <line x1="18.8976" x2="56.6929" y1="130.3937" y2="130.3937"/>
    <polyline points="35.9203,110.8711 41.5453,110.8711 41.5453,110.8711 43.4203,110.2461 43.4203,110.2461 44.0453,109.6211 44.0453,109.6211 44.6703,108.3711 44.6703,108.3711 44.6703,106.4961 44.6703,106.4961 44.0453,105.2461 44.0453,105.2461 43.4203,104.6211 43.4203,104.6211 41.5453,103.9961 41.5453,103.9961 35.9203,103.9961 35.9203,103.9961 35.9203,117.1211"/>
    <polyline points="156.8061,117.1211 151.8061,103.9961 151.8061,103.9961 146.8061,117.1211"/>
    <line x1="148.6811" x2="154.9311" y1="112.7461" y2="112.7461"/>
    <polyline points="210.7013,94.5177 215.0763,94.5177 215.0763,94.5177 211.9513,101.0802"/>
    <polyline points="224.8967,110.2461 230.5217,110.2461 230.5217,110.2461 232.3967,109.6211 232.3967,109.6211 233.0217,108.9961 233.0217,108.9961 233.6467,107.7461 233.6467,107.7461 233.6467,106.4961 233.6467,106.4961 233.0217,105.2461 233.0217,105.2461 232.3967,104.6211 232.3967,104.6211 230.5217,103.9961 230.5217,103.9961 224.8967,103.9961 224.8967,103.9961 224.8967,117.1211"/>
    <line x1="229.2717" x2="233.6467" y1="110.2461" y2="117.1211"/>
    <polyline points="422.3105,103.9961 414.1855,103.9961 414.1855,103.9961 414.1855,117.1211 414.1855,117.1211 422.3105,117.1211"/>
    <line x1="414.1855" x2="419.1855" y1="110.2461" y2="110.2461"/>
    <polyline points="573.4916,103.9961 565.3666,103.9961 565.3666,103.9961 565.3666,117.1211 565.3666,117.1211 573.4916,117.1211"/>
    <line x1="565.3666" x2="570.3666" y1="110.2461" y2="110.2461"/>
    <polygon points="699.2126,92.5984 699.2126,130.3937 699.2126,130.3937 737.0079,130.3937 737.0079,130.3937 737.0079,92.5984 737.0079,92.5984"/>
    <polygon points="703.6024,94.5177 702.6649,94.8302 702.6649,94.8302 702.3524,95.4552 702.3524,95.4552 702.3524,96.0802 702.3524,96.0802 702.6649,96.7052 702.6649,96.7052 703.2899,97.0177 703.2899,97.0177 704.5399,97.3302 704.5399,97.3302 705.4774,97.6427 705.4774,97.6427 706.1024,98.2677 706.1024,98.2677 706.4149,98.8927 706.4149,98.8927 706.4149,99.8302 706.4149,99.8302 706.1024,100.4552 706.1024,100.4552 705.7899,100.7677 705.7899,100.7677 704.8524,101.0802 704.8524,101.0802 703.6024,101.0802 703.6024,101.0802 702.6649,100.7677 702.6649,100.7677 702.3524,100.4552 702.3524,100.4552 702.0399,99.8302 702.0399,99.8302 702.0399,98.8927 702.0399,98.8927 702.3524,98.2677 702.3524,98.2677 702.9774,97.6427 702.9774,97.6427 703.9149,97.3302 703.9149,97.3302 705.1649,97.0177 705.1649,97.0177 705.7899,96.7052 705.7899,96.7052 706.1024,96.0802 706.1024,96.0802 706.1024,95.4552 706.1024,95.4552 705.7899,94.8302 705.7899,94.8302 704.8524,94.5177 704.8524,94.5177"/>
    <polygon points="716.2352,103.9961 716.2352,117.1211 716.2352,117.1211 721.8602,117.1211 721.8602,117.1211 723.7352,116.4961 723.7352,116.4961 724.3602,115.8711 724.3602,115.8711 724.9852,114.6211 724.9852,114.6211 724.9852,112.7461 724.9852,112.7461 724.3602,111.4961 724.3602,111.4961 723.7352,110.8711 723.7352,110.8711 721.8602,110.2461 721.8602,110.2461 723.7352,109.6211 723.7352,109.6211 724.3602,108.9961 724.3602,108.9961 724.9852,107.7461 724.9852,107.7461 724.9852,106.4961 724.9852,106.4961 724.3602,105.2461 724.3602,105.2461 723.7352,104.6211 723.7352,104.6211 721.8602,103.9961 721.8602,103.9961"/>
    <line x1="716.2352" x2="721.8602" y1="110.2461" y2="110.2461"/>
    <line x1="40.2953" x2="40.2953" y1="141.7913" y2="154.9163"/>
    <polyline points="146.8061,141.7913 151.8061,154.9163 151.8061,154.9163 156.8061,141.7913"/>
    <polyline points="207.874,130.3937 207.874,168.189 207.874,168.189 207.874,205.9843 207.874,205.9843 245.6693,205.9843 245.6693,205.9843 283.4646,205.9843 283.4646,205.9843 283.4646,168.189"/>
    <polyline points="233.3342,141.7913 225.2092,141.7913 225.2092,141.7913 225.2092,154.9163 225.2092,154.9163 233.3342,154.9163"/>
    <line x1="225.2092" x2="230.2092" y1="148.0413" y2="148.0413"/>
    <polyline points="510.2362,205.9843 510.2362,243.7795 510.2362,243.7795 472.4409,243.7795 472.4409,243.7795 472.4409,205.9843 472.4409,205.9843 510.2362,205.9843 510.2362,205.9843 510.2362,168.189 510.2362,168.189 472.4409,168.189 472.4409,168.189 434.6457,168.189 434.6457,168.189 434.6457,205.9843 434.6457,205.9843 396.8504,205.9843 396.8504,205.9843 396.8504,168.189 396.8504,168.189 434.6457,168.189 434.6457,168.189 434.6457,130.3937"/>
    <polyline points="414.498,141.7913 414.498,154.9163 414.498,154.9163 421.998,154.9163"/>
    <polyline points="548.0315,130.3937 548.0315,168.189 548.0315,168.189 548.0315,205.9843 548.0315,205.9843 548.0315,243.7795 548.0315,243.7795 585.8268,243.7795 585.8268,243.7795 585.8268,205.9843 585.8268,205.9843 585.8268,168.189 585.8268,168.189 585.8268,130.3937 585.8268,130.3937 623.622,130.3937 623.622,130.3937 661.4173,130.3937 661.4173,130.3937 661.4173,168.189 661.4173,168.189 699.2126,168.189 699.2126,168.189 699.2126,130.3937 699.2126,130.3937 661.4173,130.3937"/>
    <polyline points="548.0315,168.189 585.8268,168.189 585.8268,168.189 623.622,168.189 623.622,168.189 623.622,130.3937"/>
    <polyline points="554.9213,134.5005 554.6088,135.438 554.6088,135.438 553.9838,136.063 553.9838,136.063 553.0463,136.3755 553.0463,136.3755 552.7338,136.3755 552.7338,136.3755 551.7963,136.063 551.7963,136.063 551.1713,135.438 551.1713,135.438 550.8588,134.5005 550.8588,134.5005 550.8588,134.188 550.8588,134.188 551.1713,133.2505 551.1713,133.2505 551.7963,132.6255 551.7963,132.6255 552.7338,132.313 552.7338,132.313 553.0463,132.313 553.0463,132.313 553.9838,132.6255 553.9838,132.6255 554.6088,133.2505 554.6088,133.2505 554.9213,134.5005 554.9213,134.5005 554.9213,136.063 554.9213,136.063 554.6088,137.6255 554.6088,137.6255 553.9838,138.563 553.9838,138.563 553.0463,138.8755 553.0463,138.8755 552.4213,138.8755 552.4213,138.8755 551.4838,138.563 551.4838,138.563 551.1713,137.938"/>
    <polyline points="565.6791,141.7913 565.6791,154.9163 565.6791,154.9163 573.1791,154.9163"/>
    <polyline points="610.3494,154.9163 605.3494,141.7913 605.3494,141.7913 600.3494,154.9163"/>
    <line x1="602.2244" x2="608.4744" y1="150.5413" y2="150.5413"/>
    <line x1="623.622" x2="661.4173" y1="168.189" y2="168.189"/>
    <polygon points="640.6447,141.7913 640.6447,154.9163 640.6447,154.9163 645.0197,154.9163 645.0197,154.9163 646.8947,154.2913 646.8947,154.2913 648.1447,153.0413 648.1447,153.0413 648.7697,151.7913 648.7697,151.7913 649.3947,149.9163 649.3947,149.9163 649.3947,146.7913 649.3947,146.7913 648.7697,144.9163 648.7697,144.9163 648.1447,143.6663 648.1447,143.6663 646.8947,142.4163 646.8947,142.4163 645.0197,141.7913 645.0197,141.7913"/>
    <polygon points="678.44,141.7913 678.44,154.9163 678.44,154.9163 682.815,154.9163 682.815,154.9163 684.69,154.2913 684.69,154.2913 685.94,153.0413 685.94,153.0413 686.565,151.7913 686.565,151.7913 687.19,149.9163 687.19,149.9163 687.19,146.7913 687.19,146.7913 686.565,144.9163 686.565,144.9163 685.94,143.6663 685.94,143.6663 684.69,142.4163 684.69,142.4163 682.815,141.7913 682.815,141.7913"/>
    <polyline points="699.2126,205.9843 699.2126,168.189 699.2126,168.189 737.0079,168.189 737.0079,168.189 737.0079,130.3937 737.0079,130.3937 774.8031,130.3937 774.8031,130.3937 774.8031,168.189 774.8031,168.189 737.0079,168.189 737.0079,168.189 737.0079,205.9843 737.0079,205.9843 699.2126,205.9843 699.2126,205.9843 699.2126,243.7795 699.2126,243.7795 737.0079,243.7795 737.0079,243.7795 737.0079,205.9843"/>
    <polyline points="724.6727,141.7913 716.5477,141.7913 716.5477,141.7913 716.5477,154.9163 716.5477,154.9163 724.6727,154.9163"/>
    <line x1="716.5477" x2="721.5477" y1="148.0413" y2="148.0413"/>
    <polyline points="754.0305,148.0413 759.6555,148.0413 759.6555,148.0413 761.5305,147.4163 761.5305,147.4163 762.1555,146.7913 762.1555,146.7913 762.7805,145.5413 762.7805,145.5413 762.7805,144.2913 762.7805,144.2913 762.1555,143.0413 762.1555,143.0413 761.5305,142.4163 761.5305,142.4163 759.6555,141.7913 759.6555,141.7913 754.0305,141.7913 754.0305,141.7913 754.0305,154.9163"/>
    <line x1="758.4055" x2="762.7805" y1="148.0413" y2="154.9163"/>
    <line x1="94.4882" x2="94.4882" y1="205.9843" y2="168.189"/>
    <polyline points="60.4577,171.3583 61.0827,171.0458 61.0827,171.0458 62.0202,170.1083 62.0202,170.1083 62.0202,176.6708"/>
    <polygon points="67.6452,170.1083 66.7077,170.4208 66.7077,170.4208 66.0827,171.3583 66.0827,171.3583 65.7702,172.9208 65.7702,172.9208 65.7702,173.8583 65.7702,173.8583 66.0827,175.4208 66.0827,175.4208 66.7077,176.3583 66.7077,176.3583 67.6452,176.6708 67.6452,176.6708 68.2702,176.6708 68.2702,176.6708 69.2077,176.3583 69.2077,176.3583 69.8327,175.4208 69.8327,175.4208 70.1452,173.8583 70.1452,173.8583 70.1452,172.9208 70.1452,172.9208 69.8327,171.3583 69.8327,171.3583 69.2077,170.4208 69.2077,170.4208 68.2702,170.1083 68.2702,170.1083"/>
    <polyline points="82.1531,179.5866 74.0281,179.5866 74.0281,179.5866 74.0281,192.7116"/>
    <line x1="74.0281" x2="79.0281" y1="185.8366" y2="185.8366"/>
    <polyline points="112.1358,179.5866 112.1358,192.7116 112.1358,192.7116 119.6358,192.7116"/>
    <polyline points="157.7436,179.5866 149.6186,179.5866 149.6186,179.5866 149.6186,192.7116 149.6186,192.7116 157.7436,192.7116"/>
    <line x1="149.6186" x2="154.6186" y1="185.8366" y2="185.8366"/>
    <polyline points="195.2264,181.4616 193.9764,180.2116 193.9764,180.2116 192.1014,179.5866 192.1014,179.5866 189.6014,179.5866 189.6014,179.5866 187.7264,180.2116 187.7264,180.2116 186.4764,181.4616 186.4764,181.4616 186.4764,182.7116 186.4764,182.7116 187.1014,183.9616 187.1014,183.9616 187.7264,184.5866 187.7264,184.5866 188.9764,185.2116 188.9764,185.2116 192.7264,186.4616 192.7264,186.4616 193.9764,187.0866 193.9764,187.0866 194.6014,187.7116 194.6014,187.7116 195.2264,188.9616 195.2264,188.9616 195.2264,190.8366 195.2264,190.8366 193.9764,192.0866 193.9764,192.0866 192.1014,192.7116 192.1014,192.7116 189.6014,192.7116 189.6014,192.7116 187.7264,192.0866 187.7264,192.0866 186.4764,190.8366"/>
    <polyline points="233.0217,181.4616 231.7717,180.2116 231.7717,180.2116 229.8967,179.5866 229.8967,179.5866 227.3967,179.5866 227.3967,179.5866 225.5217,180.2116 225.5217,180.2116 224.2717,181.4616 224.2717,181.4616 224.2717,182.7116 224.2717,182.7116 224.8967,183.9616 224.8967,183.9616 225.5217,184.5866 225.5217,184.5866 226.7717,185.2116 226.7717,185.2116 230.5217,186.4616 230.5217,186.4616 231.7717,187.0866 231.7717,187.0866 232.3967,187.7116 232.3967,187.7116 233.0217,188.9616 233.0217,188.9616 233.0217,190.8366 233.0217,190.8366 231.7717,192.0866 231.7717,192.0866 229.8967,192.7116 229.8967,192.7116 227.3967,192.7116 227.3967,192.7116 225.5217,192.0866 225.5217,192.0866 224.2717,190.8366"/>
    <polyline points="271.1294,179.5866 263.0044,179.5866 263.0044,179.5866 263.0044,192.7116 263.0044,192.7116 271.1294,192.7116"/>
    <line x1="263.0044" x2="268.0044" y1="185.8366" y2="185.8366"/>
    <polyline points="283.4646,205.9843 321.2598,205.9843 321.2598,205.9843 359.0551,205.9843 359.0551,205.9843 359.0551,168.189"/>
    <line x1="321.2598" x2="321.2598" y1="205.9843" y2="168.189"/>
    <polyline points="309.2372,179.5866 309.2372,192.7116 309.2372,192.7116 300.4872,179.5866 300.4872,179.5866 300.4872,192.7116"/>
    <polyline points="346.72,182.7116 346.095,181.4616 346.095,181.4616 344.845,180.2116 344.845,180.2116 343.595,179.5866 343.595,179.5866 341.095,179.5866 341.095,179.5866 339.845,180.2116 339.845,180.2116 338.595,181.4616 338.595,181.4616 337.97,182.7116 337.97,182.7116 337.345,184.5866 337.345,184.5866 337.345,187.7116 337.345,187.7116 337.97,189.5866 337.97,189.5866 338.595,190.8366 338.595,190.8366 339.845,192.0866 339.845,192.0866 341.095,192.7116 341.095,192.7116 343.595,192.7116 343.595,192.7116 344.845,192.0866 344.845,192.0866 346.095,190.8366 346.095,190.8366 346.72,189.5866 346.72,189.5866 346.72,187.7116 346.72,187.7116 343.595,187.7116"/>
    <polyline points="359.0551,205.9843 396.8504,205.9843 396.8504,205.9843 396.8504,243.7795 396.8504,243.7795 434.6457,243.7795 434.6457,243.7795 434.6457,205.9843 434.6457,205.9843 472.4409,205.9843 472.4409,205.9843 472.4409,168.189"/>
    <polyline points="384.5153,179.5866 376.3903,179.5866 376.3903,179.5866 376.3903,192.7116 376.3903,192.7116 384.5153,192.7116"/>
    <line x1="376.3903" x2="381.3903" y1="185.8366" y2="185.8366"/>
    <polyline points="414.498,179.5866 414.498,192.7116 414.498,192.7116 421.998,192.7116"/>
    <polyline points="451.6683,179.5866 451.6683,188.9616 451.6683,188.9616 452.2933,190.8366 452.2933,190.8366 453.5433,192.0866 453.5433,192.0866 455.4183,192.7116 455.4183,192.7116 456.6683,192.7116 456.6683,192.7116 458.5433,192.0866 458.5433,192.0866 459.7933,190.8366 459.7933,190.8366 460.4183,188.9616 460.4183,188.9616 460.4183,179.5866"/>
    <polyline points="476.2057,171.3583 476.8307,171.0458 476.8307,171.0458 477.7682,170.1083 477.7682,170.1083 477.7682,176.6708"/>
    <polyline points="482.4557,171.3583 483.0807,171.0458 483.0807,171.0458 484.0182,170.1083 484.0182,170.1083 484.0182,176.6708"/>
    <line x1="489.4636" x2="489.4636" y1="179.5866" y2="192.7116"/>
    <line x1="498.2136" x2="489.4636" y1="179.5866" y2="188.3366"/>
    <line x1="492.5886" x2="498.2136" y1="185.2116" y2="192.7116"/>
    <line x1="548.0315" x2="585.8268" y1="205.9843" y2="205.9843"/>
    <polyline points="573.4916,179.5866 565.3666,179.5866 565.3666,179.5866 565.3666,192.7116 565.3666,192.7116 573.4916,192.7116"/>
    <line x1="565.3666" x2="570.3666" y1="185.8366" y2="185.8366"/>
    <polyline points="724.9852,179.5866 724.9852,192.7116 724.9852,192.7116 716.2352,179.5866 716.2352,179.5866 716.2352,192.7116"/>
    <polyline points="149.3061,223.6319 154.9311,223.6319 154.9311,223.6319 156.8061,223.0069 156.8061,223.0069 157.4311,222.3819 157.4311,222.3819 158.0561,221.1319 158.0561,221.1319 158.0561,219.8819 158.0561,219.8819 157.4311,218.6319 157.4311,218.6319 156.8061,218.0069 156.8061,218.0069 154.9311,217.3819 154.9311,217.3819 149.3061,217.3819 149.3061,217.3819 149.3061,230.5069"/>
    <line x1="153.6811" x2="158.0561" y1="223.6319" y2="230.5069"/>
    <line x1="227.3967" x2="227.3967" y1="217.3819" y2="230.5069"/>
    <line x1="223.0217" x2="231.7717" y1="217.3819" y2="217.3819"/>
    <polyline points="422.3105,217.3819 414.1855,217.3819 414.1855,217.3819 414.1855,230.5069 414.1855,230.5069 422.3105,230.5069"/>
    <line x1="414.1855" x2="419.1855" y1="223.6319" y2="223.6319"/>
    <polyline points="496.9636,230.5069 491.9636,217.3819 491.9636,217.3819 486.9636,230.5069"/>
    <line x1="488.8386" x2="495.0886" y1="226.1319" y2="226.1319"/>
    <polyline points="573.4916,217.3819 565.3666,217.3819 565.3666,217.3819 565.3666,230.5069"/>
    <line x1="565.3666" x2="570.3666" y1="223.6319" y2="223.6319"/>
    <polygon points="623.622,205.9843 623.622,243.7795 623.622,243.7795 661.4173,243.7795 661.4173,243.7795 661.4173,205.9843 661.4173,205.9843"/>
    <polyline points="627.3868,209.1535 628.0118,208.841 628.0118,208.841 628.9493,207.9035 628.9493,207.9035 628.9493,214.466"/>
    <polyline points="633.0118,209.466 633.0118,209.1535 633.0118,209.1535 633.3243,208.5285 633.3243,208.5285 633.6368,208.216 633.6368,208.216 634.2618,207.9035 634.2618,207.9035 635.5118,207.9035 635.5118,207.9035 636.1368,208.216 636.1368,208.216 636.4493,208.5285 636.4493,208.5285 636.7618,209.1535 636.7618,209.1535 636.7618,209.7785 636.7618,209.7785 636.4493,210.4035 636.4493,210.4035 635.8243,211.341 635.8243,211.341 632.6993,214.466 632.6993,214.466 637.0743,214.466"/>
    <polygon points="640.6447,217.3819 640.6447,230.5069 640.6447,230.5069 645.0197,230.5069 645.0197,230.5069 646.8947,229.8819 646.8947,229.8819 648.1447,228.6319 648.1447,228.6319 648.7697,227.3819 648.7697,227.3819 649.3947,225.5069 649.3947,225.5069 649.3947,222.3819 649.3947,222.3819 648.7697,220.5069 648.7697,220.5069 648.1447,219.2569 648.1447,219.2569 646.8947,218.0069 646.8947,218.0069 645.0197,217.3819 645.0197,217.3819"/>
    <polygon points="718.7352,217.3819 717.4852,218.0069 717.4852,218.0069 716.2352,219.2569 716.2352,219.2569 715.6102,220.5069 715.6102,220.5069 714.9852,222.3819 714.9852,222.3819 714.9852,225.5069 714.9852,225.5069 715.6102,227.3819 715.6102,227.3819 716.2352,228.6319 716.2352,228.6319 717.4852,229.8819 717.4852,229.8819 718.7352,230.5069 718.7352,230.5069 721.2352,230.5069 721.2352,230.5069 722.4852,229.8819 722.4852,229.8819 723.7352,228.6319 723.7352,228.6319 724.3602,227.3819 724.3602,227.3819 724.9852,225.5069 724.9852,225.5069 724.9852,222.3819 724.9852,222.3819 724.3602,220.5069 724.3602,220.5069 723.7352,219.2569 723.7352,219.2569 722.4852,218.0069 722.4852,218.0069 721.2352,217.3819 721.2352,217.3819"/>
    <polygon points="18.8976,243.7795 18.8976,281.5748 18.8976,281.5748 56.6929,281.5748 56.6929,281.5748 94.4882,281.5748 94.4882,281.5748 94.4882,243.7795 94.4882,243.7795 56.6929,243.7795 56.6929,243.7795"/>
    <line x1="56.6929" x2="56.6929" y1="281.5748" y2="243.7795"/>
    <polyline points="22.6624,246.9488 23.2874,246.6363 23.2874,246.6363 24.2249,245.6988 24.2249,245.6988 24.2249,252.2613"/>
    <polyline points="28.5999,245.6988 32.0374,245.6988 32.0374,245.6988 30.1624,248.1988 30.1624,248.1988 31.0999,248.1988 31.0999,248.1988 31.7249,248.5113 31.7249,248.5113 32.0374,248.8238 32.0374,248.8238 32.3499,249.7613 32.3499,249.7613 32.3499,250.3863 32.3499,250.3863 32.0374,251.3238 32.0374,251.3238 31.4124,251.9488 31.4124,251.9488 30.4749,252.2613 30.4749,252.2613 29.5374,252.2613 29.5374,252.2613 28.5999,251.9488 28.5999,251.9488 28.2874,251.6363 28.2874,251.6363 27.9749,251.0113"/>
    <polyline points="36.5453,255.1772 36.5453,268.3022 36.5453,268.3022 44.0453,268.3022"/>
    <line x1="78.0906" x2="78.0906" y1="255.1772" y2="268.3022"/>
    <polyline points="94.4882,281.5748 132.2835,281.5748 132.2835,281.5748 132.2835,319.3701 132.2835,319.3701 170.0787,319.3701 170.0787,319.3701 170.0787,281.5748 170.0787,281.5748 170.0787,243.7795"/>
    <polyline points="170.0787,281.5748 132.2835,281.5748 132.2835,281.5748 132.2835,243.7795 132.2835,243.7795 94.4882,243.7795"/>
    <polyline points="119.9483,255.1772 111.8233,255.1772 111.8233,255.1772 111.8233,268.3022"/>
    <line x1="111.8233" x2="116.8233" y1="261.4272" y2="261.4272"/>
    <line x1="151.8061" x2="151.8061" y1="255.1772" y2="268.3022"/>
    <line x1="147.4311" x2="156.1811" y1="255.1772" y2="255.1772"/>
    <polyline points="207.874,243.7795 207.874,281.5748 207.874,281.5748 245.6693,281.5748 245.6693,281.5748 245.6693,243.7795"/>
    <polyline points="231.1467,255.1772 231.1467,265.1772 231.1467,265.1772 230.5217,267.0522 230.5217,267.0522 229.8967,267.6772 229.8967,267.6772 228.6467,268.3022 228.6467,268.3022 227.3967,268.3022 227.3967,268.3022 226.1467,267.6772 226.1467,267.6772 225.5217,267.0522 225.5217,267.0522 224.8967,265.1772 224.8967,265.1772 224.8967,263.9272"/>
    <polyline points="396.8504,243.7795 396.8504,281.5748 396.8504,281.5748 434.6457,281.5748 434.6457,281.5748 434.6457,243.7795"/>
    <line x1="413.873" x2="413.873" y1="255.1772" y2="268.3022"/>
    <line x1="422.623" x2="413.873" y1="255.1772" y2="263.9272"/>
    <line x1="416.998" x2="422.623" y1="260.8022" y2="268.3022"/>
    <polyline points="472.4409,243.7795 472.4409,281.5748 472.4409,281.5748 510.2362,281.5748 510.2362,281.5748 510.2362,243.7795"/>
    <polyline points="497.5886,257.0522 496.3386,255.8022 496.3386,255.8022 494.4636,255.1772 494.4636,255.1772 491.9636,255.1772 491.9636,255.1772 490.0886,255.8022 490.0886,255.8022 488.8386,257.0522 488.8386,257.0522 488.8386,258.3022 488.8386,258.3022 489.4636,259.5522 489.4636,259.5522 490.0886,260.1772 490.0886,260.1772 491.3386,260.8022 491.3386,260.8022 495.0886,262.0522 495.0886,262.0522 496.3386,262.6772 496.3386,262.6772 496.9636,263.3022 496.9636,263.3022 497.5886,264.5522 497.5886,264.5522 497.5886,266.4272 497.5886,266.4272 496.3386,267.6772 496.3386,267.6772 494.4636,268.3022 494.4636,268.3022 491.9636,268.3022 491.9636,268.3022 490.0886,267.6772 490.0886,267.6772 488.8386,266.4272"/>
    <polyline points="548.0315,243.7795 548.0315,281.5748 548.0315,281.5748 510.2362,281.5748 510.2362,281.5748 510.2362,319.3701 510.2362,319.3701 548.0315,319.3701 548.0315,319.3701 548.0315,281.5748 548.0315,281.5748 585.8268,281.5748 585.8268,281.5748 585.8268,243.7795"/>
    <polygon points="567.5541,255.1772 566.3041,255.8022 566.3041,255.8022 565.0541,257.0522 565.0541,257.0522 564.4291,258.3022 564.4291,258.3022 563.8041,260.1772 563.8041,260.1772 563.8041,263.3022 563.8041,263.3022 564.4291,265.1772 564.4291,265.1772 565.0541,266.4272 565.0541,266.4272 566.3041,267.6772 566.3041,267.6772 567.5541,268.3022 567.5541,268.3022 570.0541,268.3022 570.0541,268.3022 571.3041,267.6772 571.3041,267.6772 572.5541,266.4272 572.5541,266.4272 573.1791,265.1772 573.1791,265.1772 573.8041,263.3022 573.8041,263.3022 573.8041,260.1772 573.8041,260.1772 573.1791,258.3022 573.1791,258.3022 572.5541,257.0522 572.5541,257.0522 571.3041,255.8022 571.3041,255.8022 570.0541,255.1772 570.0541,255.1772"/>
    <polyline points="623.622,243.7795 623.622,281.5748 623.622,281.5748 585.8268,281.5748 585.8268,281.5748 585.8268,319.3701 585.8268,319.3701 585.8268,357.1654 585.8268,357.1654 548.0315,357.1654 548.0315,357.1654 548.0315,319.3701 548.0315,319.3701 585.8268,319.3701 585.8268,319.3701 623.622,319.3701 623.622,319.3701 661.4173,319.3701 661.4173,319.3701 661.4173,281.5748 661.4173,281.5748 661.4173,243.7795"/>
    <polyline points="661.4173,319.3701 661.4173,357.1654 661.4173,357.1654 623.622,357.1654 623.622,357.1654 623.622,319.3701 623.622,319.3701 623.622,281.5748 623.622,281.5748 661.4173,281.5748"/>
    <polyline points="640.6447,261.4272 646.2697,261.4272 646.2697,261.4272 648.1447,260.8022 648.1447,260.8022 648.7697,260.1772 648.7697,260.1772 649.3947,258.9272 649.3947,258.9272 649.3947,257.6772 649.3947,257.6772 648.7697,256.4272 648.7697,256.4272 648.1447,255.8022 648.1447,255.8022 646.2697,255.1772 646.2697,255.1772 640.6447,255.1772 640.6447,255.1772 640.6447,268.3022"/>
    <line x1="645.0197" x2="649.3947" y1="261.4272" y2="268.3022"/>
    <polyline points="699.2126,243.7795 699.2126,281.5748 699.2126,281.5748 699.2126,319.3701 699.2126,319.3701 737.0079,319.3701 737.0079,319.3701 737.0079,281.5748 737.0079,281.5748 737.0079,243.7795"/>
    <line x1="699.2126" x2="737.0079" y1="281.5748" y2="281.5748"/>
    <line x1="720.6102" x2="720.6102" y1="255.1772" y2="268.3022"/>
    <polyline points="155.5561,292.9724 155.5561,302.9724 155.5561,302.9724 154.9311,304.8474 154.9311,304.8474 154.3061,305.4724 154.3061,305.4724 153.0561,306.0974 153.0561,306.0974 151.8061,306.0974 151.8061,306.0974 150.5561,305.4724 150.5561,305.4724 149.9311,304.8474 149.9311,304.8474 149.3061,302.9724 149.3061,302.9724 149.3061,301.7224"/>
    <polyline points="207.874,281.5748 207.874,319.3701 207.874,319.3701 170.0787,319.3701 170.0787,319.3701 170.0787,357.1654 170.0787,357.1654 207.874,357.1654 207.874,357.1654 245.6693,357.1654 245.6693,357.1654 245.6693,319.3701 245.6693,319.3701 245.6693,281.5748"/>
    <polyline points="207.874,357.1654 207.874,319.3701 207.874,319.3701 245.6693,319.3701"/>
    <polyline points="233.3342,292.9724 225.2092,292.9724 225.2092,292.9724 225.2092,306.0974 225.2092,306.0974 233.3342,306.0974"/>
    <line x1="225.2092" x2="230.2092" y1="299.2224" y2="299.2224"/>
    <polygon points="283.4646,281.5748 283.4646,319.3701 283.4646,319.3701 321.2598,319.3701 321.2598,319.3701 321.2598,281.5748 321.2598,281.5748"/>
    <polyline points="287.2293,284.7441 287.8543,284.4316 287.8543,284.4316 288.7918,283.4941 288.7918,283.4941 288.7918,290.0566"/>
    <polyline points="295.6668,290.0566 295.6668,283.4941 295.6668,283.4941 292.5418,287.8691 292.5418,287.8691 297.2293,287.8691"/>
    <polyline points="308.9247,296.0974 308.2997,294.8474 308.2997,294.8474 307.0497,293.5974 307.0497,293.5974 305.7997,292.9724 305.7997,292.9724 303.2997,292.9724 303.2997,292.9724 302.0497,293.5974 302.0497,293.5974 300.7997,294.8474 300.7997,294.8474 300.1747,296.0974 300.1747,296.0974 299.5497,297.9724 299.5497,297.9724 299.5497,301.0974 299.5497,301.0974 300.1747,302.9724 300.1747,302.9724 300.7997,304.2224 300.7997,304.2224 302.0497,305.4724 302.0497,305.4724 303.2997,306.0974 303.2997,306.0974 305.7997,306.0974 305.7997,306.0974 307.0497,305.4724 307.0497,305.4724 308.2997,304.2224 308.2997,304.2224 308.9247,302.9724 308.9247,302.9724 308.9247,301.0974 308.9247,301.0974 305.7997,301.0974"/>
    <polyline points="321.2598,319.3701 359.0551,319.3701 359.0551,319.3701 396.8504,319.3701 396.8504,319.3701 396.8504,281.5748 396.8504,281.5748 359.0551,281.5748 359.0551,281.5748 321.2598,281.5748"/>
    <line x1="359.0551" x2="359.0551" y1="319.3701" y2="281.5748"/>
    <polyline points="338.2825,299.2224 343.9075,299.2224 343.9075,299.2224 345.7825,298.5974 345.7825,298.5974 346.4075,297.9724 346.4075,297.9724 347.0325,296.7224 347.0325,296.7224 347.0325,295.4724 347.0325,295.4724 346.4075,294.2224 346.4075,294.2224 345.7825,293.5974 345.7825,293.5974 343.9075,292.9724 343.9075,292.9724 338.2825,292.9724 338.2825,292.9724 338.2825,306.0974"/>
    <line x1="342.6575" x2="347.0325" y1="299.2224" y2="306.0974"/>
    <polygon points="378.5778,292.9724 377.3278,293.5974 377.3278,293.5974 376.0778,294.8474 376.0778,294.8474 375.4528,296.0974 375.4528,296.0974 374.8278,297.9724 374.8278,297.9724 374.8278,301.0974 374.8278,301.0974 375.4528,302.9724 375.4528,302.9724 376.0778,304.2224 376.0778,304.2224 377.3278,305.4724 377.3278,305.4724 378.5778,306.0974 378.5778,306.0974 381.0778,306.0974 381.0778,306.0974 382.3278,305.4724 382.3278,305.4724 383.5778,304.2224 383.5778,304.2224 384.2028,302.9724 384.2028,302.9724 384.8278,301.0974 384.8278,301.0974 384.8278,297.9724 384.8278,297.9724 384.2028,296.0974 384.2028,296.0974 383.5778,294.8474 383.5778,294.8474 382.3278,293.5974 382.3278,293.5974 381.0778,292.9724 381.0778,292.9724"/>
    <polyline points="396.8504,319.3701 434.6457,319.3701 434.6457,319.3701 434.6457,281.5748 434.6457,281.5748 472.4409,281.5748 472.4409,281.5748 472.4409,319.3701 472.4409,319.3701 510.2362,319.3701 510.2362,319.3701 510.2362,357.1654 510.2362,357.1654 472.4409,357.1654 472.4409,357.1654 472.4409,319.3701 472.4409,319.3701 434.6457,319.3701"/>
    <polyline points="422.3105,292.9724 414.1855,292.9724 414.1855,292.9724 414.1855,306.0974 414.1855,306.0974 422.3105,306.0974"/>
    <line x1="414.1855" x2="419.1855" y1="299.2224" y2="299.2224"/>
    <polyline points="451.6683,299.8474 457.2933,299.8474 457.2933,299.8474 459.1683,299.2224 459.1683,299.2224 459.7933,298.5974 459.7933,298.5974 460.4183,297.3474 460.4183,297.3474 460.4183,295.4724 460.4183,295.4724 459.7933,294.2224 459.7933,294.2224 459.1683,293.5974 459.1683,293.5974 457.2933,292.9724 457.2933,292.9724 451.6683,292.9724 451.6683,292.9724 451.6683,306.0974"/>
    <polyline points="497.5886,294.8474 496.3386,293.5974 496.3386,293.5974 494.4636,292.9724 494.4636,292.9724 491.9636,292.9724 491.9636,292.9724 490.0886,293.5974 490.0886,293.5974 488.8386,294.8474 488.8386,294.8474 488.8386,296.0974 488.8386,296.0974 489.4636,297.3474 489.4636,297.3474 490.0886,297.9724 490.0886,297.9724 491.3386,298.5974 491.3386,298.5974 495.0886,299.8474 495.0886,299.8474 496.3386,300.4724 496.3386,300.4724 496.9636,301.0974 496.9636,301.0974 497.5886,302.3474 497.5886,302.3474 497.5886,304.2224 497.5886,304.2224 496.3386,305.4724 496.3386,305.4724 494.4636,306.0974 494.4636,306.0974 491.9636,306.0974 491.9636,306.0974 490.0886,305.4724 490.0886,305.4724 488.8386,304.2224"/>
    <polyline points="535.6964,292.9724 527.5714,292.9724 527.5714,292.9724 527.5714,306.0974"/>
    <line x1="527.5714" x2="532.5714" y1="299.2224" y2="299.2224"/>
    <polygon points="567.5541,292.9724 566.3041,293.5974 566.3041,293.5974 565.0541,294.8474 565.0541,294.8474 564.4291,296.0974 564.4291,296.0974 563.8041,297.9724 563.8041,297.9724 563.8041,301.0974 563.8041,301.0974 564.4291,302.9724 564.4291,302.9724 565.0541,304.2224 565.0541,304.2224 566.3041,305.4724 566.3041,305.4724 567.5541,306.0974 567.5541,306.0974 570.0541,306.0974 570.0541,306.0974 571.3041,305.4724 571.3041,305.4724 572.5541,304.2224 572.5541,304.2224 573.1791,302.9724 573.1791,302.9724 573.8041,301.0974 573.8041,301.0974 573.8041,297.9724 573.8041,297.9724 573.1791,296.0974 573.1791,296.0974 572.5541,294.8474 572.5541,294.8474 571.3041,293.5974 571.3041,293.5974 570.0541,292.9724 570.0541,292.9724"/>
    <line x1="605.3494" x2="605.3494" y1="292.9724" y2="306.0974"/>
    <line x1="600.9744" x2="609.7244" y1="292.9724" y2="292.9724"/>
    <polygon points="643.1447,292.9724 641.8947,293.5974 641.8947,293.5974 640.6447,294.8474 640.6447,294.8474 640.0197,296.0974 640.0197,296.0974 639.3947,297.9724 639.3947,297.9724 639.3947,301.0974 639.3947,301.0974 640.0197,302.9724 640.0197,302.9724 640.6447,304.2224 640.6447,304.2224 641.8947,305.4724 641.8947,305.4724 643.1447,306.0974 643.1447,306.0974 645.6447,306.0974 645.6447,306.0974 646.8947,305.4724 646.8947,305.4724 648.1447,304.2224 648.1447,304.2224 648.7697,302.9724 648.7697,302.9724 649.3947,301.0974 649.3947,301.0974 649.3947,297.9724 649.3947,297.9724 648.7697,296.0974 648.7697,296.0974 648.1447,294.8474 648.1447,294.8474 646.8947,293.5974 646.8947,293.5974 645.6447,292.9724 645.6447,292.9724"/>
    <line x1="718.7352" x2="718.7352" y1="292.9724" y2="306.0974"/>
    <line x1="714.3602" x2="723.1102" y1="292.9724" y2="292.9724"/>
    <polygon points="18.8976,319.3701 18.8976,357.1654 18.8976,357.1654 56.6929,357.1654 56.6929,357.1654 94.4882,357.1654 94.4882,357.1654 94.4882,319.3701 94.4882,319.3701 56.6929,319.3701 56.6929,319.3701"/>
    <line x1="56.6929" x2="56.6929" y1="357.1654" y2="319.3701"/>
    <polyline points="22.6624,322.5394 23.2874,322.2269 23.2874,322.2269 24.2249,321.2894 24.2249,321.2894 24.2249,327.8519"/>
    <polyline points="31.7249,321.2894 28.5999,321.2894 28.5999,321.2894 28.2874,324.1019 28.2874,324.1019 28.5999,323.7894 28.5999,323.7894 29.5374,323.4769 29.5374,323.4769 30.4749,323.4769 30.4749,323.4769 31.4124,323.7894 31.4124,323.7894 32.0374,324.4144 32.0374,324.4144 32.3499,325.3519 32.3499,325.3519 32.3499,325.9769 32.3499,325.9769 32.0374,326.9144 32.0374,326.9144 31.4124,327.5394 31.4124,327.5394 30.4749,327.8519 30.4749,327.8519 29.5374,327.8519 29.5374,327.8519 28.5999,327.5394 28.5999,327.5394 28.2874,327.2269 28.2874,327.2269 27.9749,326.6019"/>
    <polyline points="36.5453,330.7677 36.5453,343.8927 36.5453,343.8927 44.0453,343.8927"/>
    <polyline points="81.2156,343.8927 76.2156,330.7677 76.2156,330.7677 71.2156,343.8927"/>
    <line x1="73.0906" x2="79.3406" y1="339.5177" y2="339.5177"/>
    <polyline points="94.4882,357.1654 132.2835,357.1654 132.2835,357.1654 170.0787,357.1654"/>
    <polyline points="132.2835,357.1654 132.2835,319.3701 132.2835,319.3701 94.4882,319.3701"/>
    <line x1="111.5108" x2="111.5108" y1="330.7677" y2="343.8927"/>
    <line x1="120.2608" x2="111.5108" y1="330.7677" y2="339.5177"/>
    <line x1="114.6358" x2="120.2608" y1="336.3927" y2="343.8927"/>
    <polyline points="157.7436,330.7677 149.6186,330.7677 149.6186,330.7677 149.6186,343.8927 149.6186,343.8927 157.7436,343.8927"/>
    <line x1="149.6186" x2="154.6186" y1="337.0177" y2="337.0177"/>
    <polyline points="195.8514,330.7677 195.8514,343.8927 195.8514,343.8927 187.1014,330.7677 187.1014,330.7677 187.1014,343.8927"/>
    <polyline points="233.0217,332.6427 231.7717,331.3927 231.7717,331.3927 229.8967,330.7677 229.8967,330.7677 227.3967,330.7677 227.3967,330.7677 225.5217,331.3927 225.5217,331.3927 224.2717,332.6427 224.2717,332.6427 224.2717,333.8927 224.2717,333.8927 224.8967,335.1427 224.8967,335.1427 225.5217,335.7677 225.5217,335.7677 226.7717,336.3927 226.7717,336.3927 230.5217,337.6427 230.5217,337.6427 231.7717,338.2677 231.7717,338.2677 232.3967,338.8927 232.3967,338.8927 233.0217,340.1427 233.0217,340.1427 233.0217,342.0177 233.0217,342.0177 231.7717,343.2677 231.7717,343.2677 229.8967,343.8927 229.8967,343.8927 227.3967,343.8927 227.3967,343.8927 225.5217,343.2677 225.5217,343.2677 224.2717,342.0177"/>
    <polyline points="496.9636,343.8927 491.9636,330.7677 491.9636,330.7677 486.9636,343.8927"/>
    <line x1="488.8386" x2="495.0886" y1="339.5177" y2="339.5177"/>
    <polyline points="573.8041,330.7677 573.8041,343.8927 573.8041,343.8927 565.0541,330.7677 565.0541,330.7677 565.0541,343.8927"/>
    <polyline points="640.6447,337.6427 646.2697,337.6427 646.2697,337.6427 648.1447,337.0177 648.1447,337.0177 648.7697,336.3927 648.7697,336.3927 649.3947,335.1427 649.3947,335.1427 649.3947,333.2677 649.3947,333.2677 648.7697,332.0177 648.7697,332.0177 648.1447,331.3927 648.1447,331.3927 646.2697,330.7677 646.2697,330.7677 640.6447,330.7677 640.6447,330.7677 640.6447,343.8927"/>
  </g>
</svg>
