<?xml version="1.0" encoding="utf-8" ?>
<svg xmlns="http://www.w3.org/2000/svg" xmlns:cc="http://creativecommons.org/ns" xmlns:dc="http://purl.org/dc/elements/1.1/" xmlns:ev="http://www.w3.org/2001/xml-events" xmlns:inkscape="http://www.inkscape.org/namespaces/inkscape" xmlns:rdf="http://www.w3.org/1999/02/22-rdf-syntax-ns" xmlns:sodipodi="http://sodipodi.sourceforge.net/DTD/sodipodi-0.dtd" xmlns:xlink="http://www.w3.org/1999/xlink" baseProfile="tiny" height="9.9cm" version="1.2" viewBox="0 0 793.7007874015749 374.1732283464567" width="21.0cm">
  <metadata>
    <rdf:RDF>
      <cc:Work>
        <dc:format>image/svg+xml</dc:format>
        <dc:source>vpype eval 'cell=10;width=210;height=99' eval 'nCols=20;nRows=9' eval 'cells=[1,2,3,4,10,13,15,18,21,30,32,33,34,35,38,41,42,43,44,45,46,47,48,49,50,51,53,55,56,57,58,59,61,64,70,73,75,78,81,84,87,88,89,90,91,92,93,94,95,98,100,104,110,113,115,119,120,122,123,124,125,126,127,128,129,130,131,132,133,135,139,140,144,150,153,155,157,159,160,161,162,163,164,165,166,171,172,173,175,176,177,178,179]' eval 'chars=[&quot;S&quot;,&quot;T&quot;,&quot;E&quot;,&quot;R&quot;,&quot;H&quot;,&quot;U&quot;,&quot;R&quot;,&quot;T&quot;,&quot;I&quot;,&quot;A&quot;,&quot;F&quot;,&quot;I&quot;,&quot;L&quot;,&quot;E&quot;,&quot;R&quot;,&quot;M&quot;,&quot;I&quot;,&quot;S&quot;,&quot;V&quot;,&quot;E&quot;,&quot;R&quot;,&quot;S&quot;,&quot;T&quot;,&quot;A&quot;,&quot;N&quot;,&quot;D&quot;,&quot;T&quot;,&quot;G&quot;,&quot;R&quot;,&quot;O&quot;,&quot;E&quot;,&quot;N&quot;,&quot;O&quot;,&quot;E&quot;,&quot;D&quot;,&quot;L&quot;,&quot;E&quot;,&quot;I&quot;,&quot;N&quot;,&quot;L&quot;,&quot;M&quot;,&quot;A&quot;,&quot;N&quot;,&quot;D&quot;,&quot;A&quot;,&quot;R&quot;,&quot;I&quot;,&quot;J&quot;,&quot;N&quot;,&quot;N&quot;,&quot;D&quot;,&quot;L&quot;,&quot;O&quot;,&quot;K&quot;,&quot;B&quot;,&quot;L&quot;,&quot;R&quot;,&quot;F&quot;,&quot;L&quot;,&quot;E&quot;,&quot;S&quot;,&quot;S&quot;,&quot;E&quot;,&quot;N&quot;,&quot;G&quot;,&quot;E&quot;,&quot;L&quot;,&quot;U&quot;,&quot;K&quot;,&quot;O&quot;,&quot;I&quot;,&quot;O&quot;,&quot;K&quot;,&quot;K&quot;,&quot;E&quot;,&quot;O&quot;,&quot;J&quot;,&quot;F&quot;,&quot;P&quot;,&quot;I&quot;,&quot;N&quot;,&quot;K&quot;,&quot;E&quot;,&quot;R&quot;,&quot;S&quot;,&quot;Z&quot;,&quot;O&quot;,&quot;N&quot;,&quot;G&quot;,&quot;R&quot;,&quot;A&quot;,&quot;A&quot;,&quot;T&quot;]' eval 'numbers=[1,10,13,15,18,32,41,44,55,87,100,119,122,157,160,171,175]' eval counter=1 eval charIndex=0 begin grid -o '%cell*mm%' '%cell*mm%' %nCols% %nRows% eval '%isCell=_i in cells%' eval '%number=_i in numbers%' eval '%size=10 if isCell else 0%' rect 0 0 '%size*mm%' '%size*mm%' text -s 10 -p 0.5mm 1.5mm '%counter if number else '&quot;'&quot;''&quot;'&quot;'%' text -s 20 -p 5mm 5mm -a center '%chars[charIndex] if isCell else '&quot;'&quot;''&quot;'&quot;'%' eval '%if number: counter+=1 %' eval '%if isCell: charIndex+=1 %' end splitall deduplicate linemerge --tolerance 0.1mm write -m none --page-size '%width*mm%x%height*mm%' --center ./svgs/solution/b3bd35.svg
</dc:source>
        <dc:date>2024-01-06T16:44:06.690028</dc:date>
      </cc:Work>
    </rdf:RDF>
  </metadata>
  <defs/>
  <g fill="none" id="layer1" inkscape:groupmode="layer" inkscape:label="1" stroke="#000000" style="display:inline">
    <polygon points="56.6929,17.0079 56.6929,54.8031 56.6929,54.8031 56.6929,92.5984 56.6929,92.5984 94.4882,92.5984 94.4882,92.5984 94.4882,54.8031 94.4882,54.8031 94.4882,17.0079 94.4882,17.0079"/>
    <polyline points="56.6929,54.8031 94.4882,54.8031 94.4882,54.8031 132.2835,54.8031 132.2835,54.8031 132.2835,17.0079 132.2835,17.0079 94.4882,17.0079"/>
    <polyline points="60.4577,20.1772 61.0827,19.8647 61.0827,19.8647 62.0202,18.9272 62.0202,18.9272 62.0202,25.4897"/>
    <polyline points="81.8406,30.2805 80.5906,29.0305 80.5906,29.0305 78.7156,28.4055 78.7156,28.4055 76.2156,28.4055 76.2156,28.4055 74.3406,29.0305 74.3406,29.0305 73.0906,30.2805 73.0906,30.2805 73.0906,31.5305 73.0906,31.5305 73.7156,32.7805 73.7156,32.7805 74.3406,33.4055 74.3406,33.4055 75.5906,34.0305 75.5906,34.0305 79.3406,35.2805 79.3406,35.2805 80.5906,35.9055 80.5906,35.9055 81.2156,36.5305 81.2156,36.5305 81.8406,37.7805 81.8406,37.7805 81.8406,39.6555 81.8406,39.6555 80.5906,40.9055 80.5906,40.9055 78.7156,41.5305 78.7156,41.5305 76.2156,41.5305 76.2156,41.5305 74.3406,40.9055 74.3406,40.9055 73.0906,39.6555"/>
    <line x1="114.0108" x2="114.0108" y1="28.4055" y2="41.5305"/>
    <line x1="109.6358" x2="118.3858" y1="28.4055" y2="28.4055"/>
    <polyline points="132.2835,54.8031 170.0787,54.8031 170.0787,54.8031 207.874,54.8031 207.874,54.8031 207.874,17.0079 207.874,17.0079 170.0787,17.0079 170.0787,17.0079 132.2835,17.0079"/>
    <line x1="170.0787" x2="170.0787" y1="54.8031" y2="17.0079"/>
    <polyline points="157.7436,28.4055 149.6186,28.4055 149.6186,28.4055 149.6186,41.5305 149.6186,41.5305 157.7436,41.5305"/>
    <line x1="149.6186" x2="154.6186" y1="34.6555" y2="34.6555"/>
    <polyline points="187.1014,34.6555 192.7264,34.6555 192.7264,34.6555 194.6014,34.0305 194.6014,34.0305 195.2264,33.4055 195.2264,33.4055 195.8514,32.1555 195.8514,32.1555 195.8514,30.9055 195.8514,30.9055 195.2264,29.6555 195.2264,29.6555 194.6014,29.0305 194.6014,29.0305 192.7264,28.4055 192.7264,28.4055 187.1014,28.4055 187.1014,28.4055 187.1014,41.5305"/>
    <line x1="191.4764" x2="195.8514" y1="34.6555" y2="41.5305"/>
    <polygon points="396.8504,17.0079 396.8504,54.8031 396.8504,54.8031 396.8504,92.5984 396.8504,92.5984 434.6457,92.5984 434.6457,92.5984 434.6457,54.8031 434.6457,54.8031 434.6457,17.0079 434.6457,17.0079"/>
    <line x1="396.8504" x2="434.6457" y1="54.8031" y2="54.8031"/>
    <polyline points="399.9902,20.4897 399.9902,20.1772 399.9902,20.1772 400.3027,19.5522 400.3027,19.5522 400.6152,19.2397 400.6152,19.2397 401.2402,18.9272 401.2402,18.9272 402.4902,18.9272 402.4902,18.9272 403.1152,19.2397 403.1152,19.2397 403.4277,19.5522 403.4277,19.5522 403.7402,20.1772 403.7402,20.1772 403.7402,20.8022 403.7402,20.8022 403.4277,21.4272 403.4277,21.4272 402.8027,22.3647 402.8027,22.3647 399.6777,25.4897 399.6777,25.4897 404.0527,25.4897"/>
    <line x1="413.873" x2="413.873" y1="28.4055" y2="41.5305"/>
    <line x1="422.623" x2="422.623" y1="28.4055" y2="41.5305"/>
    <line x1="413.873" x2="422.623" y1="34.6555" y2="34.6555"/>
    <polyline points="472.4409,168.189 472.4409,205.9843 472.4409,205.9843 510.2362,205.9843 510.2362,205.9843 548.0315,205.9843 548.0315,205.9843 548.0315,168.189 548.0315,168.189 585.8268,168.189 585.8268,168.189 585.8268,205.9843 585.8268,205.9843 548.0315,205.9843 548.0315,205.9843 548.0315,243.7795 548.0315,243.7795 510.2362,243.7795 510.2362,243.7795 510.2362,205.9843 510.2362,205.9843 510.2362,168.189 510.2362,168.189 548.0315,168.189 548.0315,168.189 548.0315,130.3937 548.0315,130.3937 548.0315,92.5984 548.0315,92.5984 510.2362,92.5984 510.2362,92.5984 510.2362,54.8031 510.2362,54.8031 548.0315,54.8031 548.0315,54.8031 585.8268,54.8031 585.8268,54.8031 585.8268,92.5984 585.8268,92.5984 548.0315,92.5984 548.0315,92.5984 548.0315,54.8031 548.0315,54.8031 548.0315,17.0079 548.0315,17.0079 510.2362,17.0079 510.2362,17.0079 510.2362,54.8031 510.2362,54.8031 472.4409,54.8031 472.4409,54.8031 472.4409,92.5984 472.4409,92.5984 510.2362,92.5984 510.2362,92.5984 510.2362,130.3937 510.2362,130.3937 510.2362,168.189 510.2362,168.189 472.4409,168.189 472.4409,168.189 434.6457,168.189 434.6457,168.189 434.6457,130.3937 434.6457,130.3937 434.6457,92.5984 434.6457,92.5984 472.4409,92.5984 472.4409,92.5984 472.4409,130.3937 472.4409,130.3937 434.6457,130.3937 434.6457,130.3937 396.8504,130.3937 396.8504,130.3937 396.8504,168.189 396.8504,168.189 434.6457,168.189 434.6457,168.189 434.6457,205.9843 434.6457,205.9843 434.6457,243.7795 434.6457,243.7795 396.8504,243.7795 396.8504,243.7795 396.8504,205.9843 396.8504,205.9843 396.8504,168.189 396.8504,168.189 359.0551,168.189 359.0551,168.189 321.2598,168.189 321.2598,168.189 283.4646,168.189 283.4646,168.189 283.4646,205.9843 283.4646,205.9843 321.2598,205.9843 321.2598,205.9843 359.0551,205.9843 359.0551,205.9843 359.0551,168.189"/>
    <polyline points="513.6885,18.9272 517.126,18.9272 517.126,18.9272 515.251,21.4272 515.251,21.4272 516.1885,21.4272 516.1885,21.4272 516.8135,21.7397 516.8135,21.7397 517.126,22.0522 517.126,22.0522 517.4385,22.9897 517.4385,22.9897 517.4385,23.6147 517.4385,23.6147 517.126,24.5522 517.126,24.5522 516.501,25.1772 516.501,25.1772 515.5635,25.4897 515.5635,25.4897 514.626,25.4897 514.626,25.4897 513.6885,25.1772 513.6885,25.1772 513.376,24.8647 513.376,24.8647 513.0635,24.2397"/>
    <polyline points="527.2589,28.4055 527.2589,37.7805 527.2589,37.7805 527.8839,39.6555 527.8839,39.6555 529.1339,40.9055 529.1339,40.9055 531.0089,41.5305 531.0089,41.5305 532.2589,41.5305 532.2589,41.5305 534.1339,40.9055 534.1339,40.9055 535.3839,39.6555 535.3839,39.6555 536.0089,37.7805 536.0089,37.7805 536.0089,28.4055"/>
    <polygon points="585.8268,17.0079 585.8268,54.8031 585.8268,54.8031 623.622,54.8031 623.622,54.8031 623.622,17.0079 623.622,17.0079"/>
    <polyline points="591.779,25.4897 591.779,18.9272 591.779,18.9272 588.654,23.3022 588.654,23.3022 593.3415,23.3022"/>
    <polyline points="602.8494,34.6555 608.4744,34.6555 608.4744,34.6555 610.3494,34.0305 610.3494,34.0305 610.9744,33.4055 610.9744,33.4055 611.5994,32.1555 611.5994,32.1555 611.5994,30.9055 611.5994,30.9055 610.9744,29.6555 610.9744,29.6555 610.3494,29.0305 610.3494,29.0305 608.4744,28.4055 608.4744,28.4055 602.8494,28.4055 602.8494,28.4055 602.8494,41.5305"/>
    <line x1="607.2244" x2="611.5994" y1="34.6555" y2="41.5305"/>
    <polygon points="699.2126,17.0079 699.2126,54.8031 699.2126,54.8031 737.0079,54.8031 737.0079,54.8031 737.0079,17.0079 737.0079,17.0079"/>
    <polyline points="705.7899,18.9272 702.6649,18.9272 702.6649,18.9272 702.3524,21.7397 702.3524,21.7397 702.6649,21.4272 702.6649,21.4272 703.6024,21.1147 703.6024,21.1147 704.5399,21.1147 704.5399,21.1147 705.4774,21.4272 705.4774,21.4272 706.1024,22.0522 706.1024,22.0522 706.4149,22.9897 706.4149,22.9897 706.4149,23.6147 706.4149,23.6147 706.1024,24.5522 706.1024,24.5522 705.4774,25.1772 705.4774,25.1772 704.5399,25.4897 704.5399,25.4897 703.6024,25.4897 703.6024,25.4897 702.6649,25.1772 702.6649,25.1772 702.3524,24.8647 702.3524,24.8647 702.0399,24.2397"/>
    <line x1="718.7352" x2="718.7352" y1="28.4055" y2="41.5305"/>
    <line x1="714.3602" x2="723.1102" y1="28.4055" y2="28.4055"/>
    <line x1="78.0906" x2="78.0906" y1="66.2008" y2="79.3258"/>
    <polyline points="421.373,79.3258 416.373,66.2008 416.373,66.2008 411.373,79.3258"/>
    <line x1="413.248" x2="419.498" y1="74.9508" y2="74.9508"/>
    <polyline points="479.3307,57.6599 479.0182,57.0349 479.0182,57.0349 478.0807,56.7224 478.0807,56.7224 477.4557,56.7224 477.4557,56.7224 476.5182,57.0349 476.5182,57.0349 475.8932,57.9724 475.8932,57.9724 475.5807,59.5349 475.5807,59.5349 475.5807,61.0974 475.5807,61.0974 475.8932,62.3474 475.8932,62.3474 476.5182,62.9724 476.5182,62.9724 477.4557,63.2849 477.4557,63.2849 477.7682,63.2849 477.7682,63.2849 478.7057,62.9724 478.7057,62.9724 479.3307,62.3474 479.3307,62.3474 479.6432,61.4099 479.6432,61.4099 479.6432,61.0974 479.6432,61.0974 479.3307,60.1599 479.3307,60.1599 478.7057,59.5349 478.7057,59.5349 477.7682,59.2224 477.7682,59.2224 477.4557,59.2224 477.4557,59.2224 476.5182,59.5349 476.5182,59.5349 475.8932,60.1599 475.8932,60.1599 475.5807,61.0974"/>
    <polyline points="497.9011,66.2008 489.7761,66.2008 489.7761,66.2008 489.7761,79.3258"/>
    <line x1="489.7761" x2="494.7761" y1="72.4508" y2="72.4508"/>
    <line x1="531.6339" x2="531.6339" y1="66.2008" y2="79.3258"/>
    <polyline points="565.6791,66.2008 565.6791,79.3258 565.6791,79.3258 573.1791,79.3258"/>
    <polyline points="661.4173,92.5984 699.2126,92.5984 699.2126,92.5984 699.2126,130.3937 699.2126,130.3937 661.4173,130.3937 661.4173,130.3937 661.4173,92.5984 661.4173,92.5984 623.622,92.5984 623.622,92.5984 623.622,130.3937 623.622,130.3937 623.622,168.189 623.622,168.189 585.8268,168.189 585.8268,168.189 585.8268,130.3937 585.8268,130.3937 585.8268,92.5984 585.8268,92.5984 623.622,92.5984 623.622,92.5984 623.622,54.8031"/>
    <polyline points="611.2869,66.2008 603.1619,66.2008 603.1619,66.2008 603.1619,79.3258 603.1619,79.3258 611.2869,79.3258"/>
    <line x1="603.1619" x2="608.1619" y1="72.4508" y2="72.4508"/>
    <polyline points="699.2126,54.8031 699.2126,92.5984 699.2126,92.5984 737.0079,92.5984 737.0079,92.5984 737.0079,54.8031"/>
    <polyline points="716.2352,72.4508 721.8602,72.4508 721.8602,72.4508 723.7352,71.8258 723.7352,71.8258 724.3602,71.2008 724.3602,71.2008 724.9852,69.9508 724.9852,69.9508 724.9852,68.7008 724.9852,68.7008 724.3602,67.4508 724.3602,67.4508 723.7352,66.8258 723.7352,66.8258 721.8602,66.2008 721.8602,66.2008 716.2352,66.2008 716.2352,66.2008 716.2352,79.3258"/>
    <line x1="720.6102" x2="724.9852" y1="72.4508" y2="79.3258"/>
    <polyline points="56.6929,92.5984 56.6929,130.3937 56.6929,130.3937 56.6929,168.189 56.6929,168.189 94.4882,168.189 94.4882,168.189 94.4882,130.3937 94.4882,130.3937 132.2835,130.3937 132.2835,130.3937 132.2835,92.5984 132.2835,92.5984 94.4882,92.5984 94.4882,92.5984 94.4882,130.3937 94.4882,130.3937 56.6929,130.3937"/>
    <polyline points="59.5202,94.5177 63.8952,94.5177 63.8952,94.5177 60.7702,101.0802"/>
    <polyline points="83.0906,117.1211 83.0906,103.9961 83.0906,103.9961 78.0906,117.1211 78.0906,117.1211 73.0906,103.9961 73.0906,103.9961 73.0906,117.1211"/>
    <line x1="115.8858" x2="115.8858" y1="103.9961" y2="117.1211"/>
    <polyline points="132.2835,130.3937 170.0787,130.3937 170.0787,130.3937 170.0787,92.5984 170.0787,92.5984 132.2835,92.5984"/>
    <polyline points="157.4311,105.8711 156.1811,104.6211 156.1811,104.6211 154.3061,103.9961 154.3061,103.9961 151.8061,103.9961 151.8061,103.9961 149.9311,104.6211 149.9311,104.6211 148.6811,105.8711 148.6811,105.8711 148.6811,107.1211 148.6811,107.1211 149.3061,108.3711 149.3061,108.3711 149.9311,108.9961 149.9311,108.9961 151.1811,109.6211 151.1811,109.6211 154.9311,110.8711 154.9311,110.8711 156.1811,111.4961 156.1811,111.4961 156.8061,112.1211 156.8061,112.1211 157.4311,113.3711 157.4311,113.3711 157.4311,115.2461 157.4311,115.2461 156.1811,116.4961 156.1811,116.4961 154.3061,117.1211 154.3061,117.1211 151.8061,117.1211 151.8061,117.1211 149.9311,116.4961 149.9311,116.4961 148.6811,115.2461"/>
    <polyline points="207.874,92.5984 245.6693,92.5984 245.6693,92.5984 245.6693,130.3937 245.6693,130.3937 207.874,130.3937 207.874,130.3937 207.874,168.189 207.874,168.189 170.0787,168.189 170.0787,168.189 170.0787,130.3937 170.0787,130.3937 207.874,130.3937 207.874,130.3937 207.874,92.5984 207.874,92.5984 170.0787,92.5984"/>
    <polygon points="174.4685,94.5177 173.531,94.8302 173.531,94.8302 173.2185,95.4552 173.2185,95.4552 173.2185,96.0802 173.2185,96.0802 173.531,96.7052 173.531,96.7052 174.156,97.0177 174.156,97.0177 175.406,97.3302 175.406,97.3302 176.3435,97.6427 176.3435,97.6427 176.9685,98.2677 176.9685,98.2677 177.281,98.8927 177.281,98.8927 177.281,99.8302 177.281,99.8302 176.9685,100.4552 176.9685,100.4552 176.656,100.7677 176.656,100.7677 175.7185,101.0802 175.7185,101.0802 174.4685,101.0802 174.4685,101.0802 173.531,100.7677 173.531,100.7677 173.2185,100.4552 173.2185,100.4552 172.906,99.8302 172.906,99.8302 172.906,98.8927 172.906,98.8927 173.2185,98.2677 173.2185,98.2677 173.8435,97.6427 173.8435,97.6427 174.781,97.3302 174.781,97.3302 176.031,97.0177 176.031,97.0177 176.656,96.7052 176.656,96.7052 176.9685,96.0802 176.9685,96.0802 176.9685,95.4552 176.9685,95.4552 176.656,94.8302 176.656,94.8302 175.7185,94.5177 175.7185,94.5177"/>
    <polyline points="184.6014,103.9961 189.6014,117.1211 189.6014,117.1211 194.6014,103.9961"/>
    <polyline points="233.3342,103.9961 225.2092,103.9961 225.2092,103.9961 225.2092,117.1211 225.2092,117.1211 233.3342,117.1211"/>
    <line x1="225.2092" x2="230.2092" y1="110.2461" y2="110.2461"/>
    <polyline points="245.6693,130.3937 283.4646,130.3937 283.4646,130.3937 321.2598,130.3937 321.2598,130.3937 359.0551,130.3937 359.0551,130.3937 396.8504,130.3937 396.8504,130.3937 396.8504,92.5984 396.8504,92.5984 359.0551,92.5984 359.0551,92.5984 321.2598,92.5984 321.2598,92.5984 283.4646,92.5984 283.4646,92.5984 245.6693,92.5984"/>
    <line x1="283.4646" x2="283.4646" y1="130.3937" y2="92.5984"/>
    <polyline points="262.6919,110.2461 268.3169,110.2461 268.3169,110.2461 270.1919,109.6211 270.1919,109.6211 270.8169,108.9961 270.8169,108.9961 271.4419,107.7461 271.4419,107.7461 271.4419,106.4961 271.4419,106.4961 270.8169,105.2461 270.8169,105.2461 270.1919,104.6211 270.1919,104.6211 268.3169,103.9961 268.3169,103.9961 262.6919,103.9961 262.6919,103.9961 262.6919,117.1211"/>
    <line x1="267.0669" x2="271.4419" y1="110.2461" y2="117.1211"/>
    <line x1="321.2598" x2="321.2598" y1="130.3937" y2="92.5984"/>
    <polyline points="308.6122,105.8711 307.3622,104.6211 307.3622,104.6211 305.4872,103.9961 305.4872,103.9961 302.9872,103.9961 302.9872,103.9961 301.1122,104.6211 301.1122,104.6211 299.8622,105.8711 299.8622,105.8711 299.8622,107.1211 299.8622,107.1211 300.4872,108.3711 300.4872,108.3711 301.1122,108.9961 301.1122,108.9961 302.3622,109.6211 302.3622,109.6211 306.1122,110.8711 306.1122,110.8711 307.3622,111.4961 307.3622,111.4961 307.9872,112.1211 307.9872,112.1211 308.6122,113.3711 308.6122,113.3711 308.6122,115.2461 308.6122,115.2461 307.3622,116.4961 307.3622,116.4961 305.4872,117.1211 305.4872,117.1211 302.9872,117.1211 302.9872,117.1211 301.1122,116.4961 301.1122,116.4961 299.8622,115.2461"/>
    <line x1="359.0551" x2="359.0551" y1="130.3937" y2="92.5984"/>
    <line x1="340.7825" x2="340.7825" y1="103.9961" y2="117.1211"/>
    <line x1="336.4075" x2="345.1575" y1="103.9961" y2="103.9961"/>
    <polyline points="383.5778,117.1211 378.5778,103.9961 378.5778,103.9961 373.5778,117.1211"/>
    <line x1="375.4528" x2="381.7028" y1="112.7461" y2="112.7461"/>
    <polyline points="422.623,103.9961 422.623,117.1211 422.623,117.1211 413.873,103.9961 413.873,103.9961 413.873,117.1211"/>
    <polygon points="451.6683,103.9961 451.6683,117.1211 451.6683,117.1211 456.0433,117.1211 456.0433,117.1211 457.9183,116.4961 457.9183,116.4961 459.1683,115.2461 459.1683,115.2461 459.7933,113.9961 459.7933,113.9961 460.4183,112.1211 460.4183,112.1211 460.4183,108.9961 460.4183,108.9961 459.7933,107.1211 459.7933,107.1211 459.1683,105.8711 459.1683,105.8711 457.9183,104.6211 457.9183,104.6211 456.0433,103.9961 456.0433,103.9961"/>
    <line x1="510.2362" x2="548.0315" y1="130.3937" y2="130.3937"/>
    <line x1="529.7589" x2="529.7589" y1="103.9961" y2="117.1211"/>
    <line x1="525.3839" x2="534.1339" y1="103.9961" y2="103.9961"/>
    <polyline points="585.8268,130.3937 623.622,130.3937 623.622,130.3937 661.4173,130.3937"/>
    <polyline points="592.7165,96.7052 592.404,97.6427 592.404,97.6427 591.779,98.2677 591.779,98.2677 590.8415,98.5802 590.8415,98.5802 590.529,98.5802 590.529,98.5802 589.5915,98.2677 589.5915,98.2677 588.9665,97.6427 588.9665,97.6427 588.654,96.7052 588.654,96.7052 588.654,96.3927 588.654,96.3927 588.9665,95.4552 588.9665,95.4552 589.5915,94.8302 589.5915,94.8302 590.529,94.5177 590.529,94.5177 590.8415,94.5177 590.8415,94.5177 591.779,94.8302 591.779,94.8302 592.404,95.4552 592.404,95.4552 592.7165,96.7052 592.7165,96.7052 592.7165,98.2677 592.7165,98.2677 592.404,99.8302 592.404,99.8302 591.779,100.7677 591.779,100.7677 590.8415,101.0802 590.8415,101.0802 590.2165,101.0802 590.2165,101.0802 589.279,100.7677 589.279,100.7677 588.9665,100.1427"/>
    <polyline points="611.2869,107.1211 610.6619,105.8711 610.6619,105.8711 609.4119,104.6211 609.4119,104.6211 608.1619,103.9961 608.1619,103.9961 605.6619,103.9961 605.6619,103.9961 604.4119,104.6211 604.4119,104.6211 603.1619,105.8711 603.1619,105.8711 602.5369,107.1211 602.5369,107.1211 601.9119,108.9961 601.9119,108.9961 601.9119,112.1211 601.9119,112.1211 602.5369,113.9961 602.5369,113.9961 603.1619,115.2461 603.1619,115.2461 604.4119,116.4961 604.4119,116.4961 605.6619,117.1211 605.6619,117.1211 608.1619,117.1211 608.1619,117.1211 609.4119,116.4961 609.4119,116.4961 610.6619,115.2461 610.6619,115.2461 611.2869,113.9961 611.2869,113.9961 611.2869,112.1211 611.2869,112.1211 608.1619,112.1211"/>
    <polyline points="640.6447,110.2461 646.2697,110.2461 646.2697,110.2461 648.1447,109.6211 648.1447,109.6211 648.7697,108.9961 648.7697,108.9961 649.3947,107.7461 649.3947,107.7461 649.3947,106.4961 649.3947,106.4961 648.7697,105.2461 648.7697,105.2461 648.1447,104.6211 648.1447,104.6211 646.2697,103.9961 646.2697,103.9961 640.6447,103.9961 640.6447,103.9961 640.6447,117.1211"/>
    <line x1="645.0197" x2="649.3947" y1="110.2461" y2="117.1211"/>
    <polygon points="680.94,103.9961 679.69,104.6211 679.69,104.6211 678.44,105.8711 678.44,105.8711 677.815,107.1211 677.815,107.1211 677.19,108.9961 677.19,108.9961 677.19,112.1211 677.19,112.1211 677.815,113.9961 677.815,113.9961 678.44,115.2461 678.44,115.2461 679.69,116.4961 679.69,116.4961 680.94,117.1211 680.94,117.1211 683.44,117.1211 683.44,117.1211 684.69,116.4961 684.69,116.4961 685.94,115.2461 685.94,115.2461 686.565,113.9961 686.565,113.9961 687.19,112.1211 687.19,112.1211 687.19,108.9961 687.19,108.9961 686.565,107.1211 686.565,107.1211 685.94,105.8711 685.94,105.8711 684.69,104.6211 684.69,104.6211 683.44,103.9961 683.44,103.9961"/>
    <polyline points="699.2126,168.189 699.2126,130.3937 699.2126,130.3937 737.0079,130.3937 737.0079,130.3937 774.8031,130.3937 774.8031,130.3937 774.8031,92.5984 774.8031,92.5984 737.0079,92.5984 737.0079,92.5984 737.0079,130.3937 737.0079,130.3937 737.0079,168.189 737.0079,168.189 737.0079,205.9843 737.0079,205.9843 737.0079,243.7795 737.0079,243.7795 774.8031,243.7795 774.8031,243.7795 774.8031,205.9843 774.8031,205.9843 737.0079,205.9843 737.0079,205.9843 699.2126,205.9843 699.2126,205.9843 699.2126,168.189 699.2126,168.189 737.0079,168.189"/>
    <polyline points="724.6727,103.9961 716.5477,103.9961 716.5477,103.9961 716.5477,117.1211 716.5477,117.1211 724.6727,117.1211"/>
    <line x1="716.5477" x2="721.5477" y1="110.2461" y2="110.2461"/>
    <polyline points="762.7805,103.9961 762.7805,117.1211 762.7805,117.1211 754.0305,103.9961 754.0305,103.9961 754.0305,117.1211"/>
    <polygon points="76.2156,141.7913 74.9656,142.4163 74.9656,142.4163 73.7156,143.6663 73.7156,143.6663 73.0906,144.9163 73.0906,144.9163 72.4656,146.7913 72.4656,146.7913 72.4656,149.9163 72.4656,149.9163 73.0906,151.7913 73.0906,151.7913 73.7156,153.0413 73.7156,153.0413 74.9656,154.2913 74.9656,154.2913 76.2156,154.9163 76.2156,154.9163 78.7156,154.9163 78.7156,154.9163 79.9656,154.2913 79.9656,154.2913 81.2156,153.0413 81.2156,153.0413 81.8406,151.7913 81.8406,151.7913 82.4656,149.9163 82.4656,149.9163 82.4656,146.7913 82.4656,146.7913 81.8406,144.9163 81.8406,144.9163 81.2156,143.6663 81.2156,143.6663 79.9656,142.4163 79.9656,142.4163 78.7156,141.7913 78.7156,141.7913"/>
    <polyline points="195.5389,141.7913 187.4139,141.7913 187.4139,141.7913 187.4139,154.9163 187.4139,154.9163 195.5389,154.9163"/>
    <line x1="187.4139" x2="192.4139" y1="148.0413" y2="148.0413"/>
    <polygon points="413.873,141.7913 413.873,154.9163 413.873,154.9163 418.248,154.9163 418.248,154.9163 420.123,154.2913 420.123,154.2913 421.373,153.0413 421.373,153.0413 421.998,151.7913 421.998,151.7913 422.623,149.9163 422.623,149.9163 422.623,146.7913 422.623,146.7913 421.998,144.9163 421.998,144.9163 421.373,143.6663 421.373,143.6663 420.123,142.4163 420.123,142.4163 418.248,141.7913 418.248,141.7913"/>
    <polyline points="527.8839,141.7913 527.8839,154.9163 527.8839,154.9163 535.3839,154.9163"/>
    <polyline points="611.2869,141.7913 603.1619,141.7913 603.1619,141.7913 603.1619,154.9163 603.1619,154.9163 611.2869,154.9163"/>
    <line x1="603.1619" x2="608.1619" y1="148.0413" y2="148.0413"/>
    <line x1="720.6102" x2="720.6102" y1="141.7913" y2="154.9163"/>
    <polyline points="56.6929,168.189 56.6929,205.9843 56.6929,205.9843 94.4882,205.9843 94.4882,205.9843 94.4882,168.189"/>
    <polyline points="82.4656,179.5866 82.4656,192.7116 82.4656,192.7116 73.7156,179.5866 73.7156,179.5866 73.7156,192.7116"/>
    <polyline points="170.0787,168.189 170.0787,205.9843 170.0787,205.9843 170.0787,243.7795 170.0787,243.7795 207.874,243.7795 207.874,243.7795 207.874,205.9843 207.874,205.9843 207.874,168.189"/>
    <line x1="170.0787" x2="207.874" y1="205.9843" y2="205.9843"/>
    <polyline points="187.7264,179.5866 187.7264,192.7116 187.7264,192.7116 195.2264,192.7116"/>
    <line x1="321.2598" x2="321.2598" y1="205.9843" y2="168.189"/>
    <polyline points="287.2293,171.3583 287.8543,171.0458 287.8543,171.0458 288.7918,170.1083 288.7918,170.1083 288.7918,176.6708"/>
    <polygon points="294.4168,170.1083 293.4793,170.4208 293.4793,170.4208 292.8543,171.3583 292.8543,171.3583 292.5418,172.9208 292.5418,172.9208 292.5418,173.8583 292.5418,173.8583 292.8543,175.4208 292.8543,175.4208 293.4793,176.3583 293.4793,176.3583 294.4168,176.6708 294.4168,176.6708 295.0418,176.6708 295.0418,176.6708 295.9793,176.3583 295.9793,176.3583 296.6043,175.4208 296.6043,175.4208 296.9168,173.8583 296.9168,173.8583 296.9168,172.9208 296.9168,172.9208 296.6043,171.3583 296.6043,171.3583 295.9793,170.4208 295.9793,170.4208 295.0418,170.1083 295.0418,170.1083"/>
    <polyline points="309.8622,192.7116 309.8622,179.5866 309.8622,179.5866 304.8622,192.7116 304.8622,192.7116 299.8622,179.5866 299.8622,179.5866 299.8622,192.7116"/>
    <polyline points="345.7825,192.7116 340.7825,179.5866 340.7825,179.5866 335.7825,192.7116"/>
    <line x1="337.6575" x2="343.9075" y1="188.3366" y2="188.3366"/>
    <polyline points="359.0551,205.9843 396.8504,205.9843 396.8504,205.9843 434.6457,205.9843 434.6457,205.9843 472.4409,205.9843"/>
    <polyline points="384.8278,179.5866 384.8278,192.7116 384.8278,192.7116 376.0778,179.5866 376.0778,179.5866 376.0778,192.7116"/>
    <polygon points="413.873,179.5866 413.873,192.7116 413.873,192.7116 418.248,192.7116 418.248,192.7116 420.123,192.0866 420.123,192.0866 421.373,190.8366 421.373,190.8366 421.998,189.5866 421.998,189.5866 422.623,187.7116 422.623,187.7116 422.623,184.5866 422.623,184.5866 421.998,182.7116 421.998,182.7116 421.373,181.4616 421.373,181.4616 420.123,180.2116 420.123,180.2116 418.248,179.5866 418.248,179.5866"/>
    <polyline points="459.1683,192.7116 454.1683,179.5866 454.1683,179.5866 449.1683,192.7116"/>
    <line x1="451.0433" x2="457.2933" y1="188.3366" y2="188.3366"/>
    <polyline points="489.4636,185.8366 495.0886,185.8366 495.0886,185.8366 496.9636,185.2116 496.9636,185.2116 497.5886,184.5866 497.5886,184.5866 498.2136,183.3366 498.2136,183.3366 498.2136,182.0866 498.2136,182.0866 497.5886,180.8366 497.5886,180.8366 496.9636,180.2116 496.9636,180.2116 495.0886,179.5866 495.0886,179.5866 489.4636,179.5866 489.4636,179.5866 489.4636,192.7116"/>
    <line x1="493.8386" x2="498.2136" y1="185.8366" y2="192.7116"/>
    <line x1="531.6339" x2="531.6339" y1="179.5866" y2="192.7116"/>
    <polyline points="571.3041,179.5866 571.3041,189.5866 571.3041,189.5866 570.6791,191.4616 570.6791,191.4616 570.0541,192.0866 570.0541,192.0866 568.8041,192.7116 568.8041,192.7116 567.5541,192.7116 567.5541,192.7116 566.3041,192.0866 566.3041,192.0866 565.6791,191.4616 565.6791,191.4616 565.0541,189.5866 565.0541,189.5866 565.0541,188.3366"/>
    <polyline points="623.622,205.9843 623.622,243.7795 623.622,243.7795 585.8268,243.7795 585.8268,243.7795 585.8268,205.9843 585.8268,205.9843 623.622,205.9843 623.622,205.9843 623.622,168.189"/>
    <polyline points="611.5994,179.5866 611.5994,192.7116 611.5994,192.7116 602.8494,179.5866 602.8494,179.5866 602.8494,192.7116"/>
    <polyline points="724.9852,179.5866 724.9852,192.7116 724.9852,192.7116 716.2352,179.5866 716.2352,179.5866 716.2352,192.7116"/>
    <polygon points="18.8976,205.9843 18.8976,243.7795 18.8976,243.7795 56.6929,243.7795 56.6929,243.7795 56.6929,205.9843 56.6929,205.9843"/>
    <polyline points="22.6624,209.1535 23.2874,208.841 23.2874,208.841 24.2249,207.9035 24.2249,207.9035 24.2249,214.466"/>
    <polyline points="28.9124,209.1535 29.5374,208.841 29.5374,208.841 30.4749,207.9035 30.4749,207.9035 30.4749,214.466"/>
    <polygon points="35.9203,217.3819 35.9203,230.5069 35.9203,230.5069 40.2953,230.5069 40.2953,230.5069 42.1703,229.8819 42.1703,229.8819 43.4203,228.6319 43.4203,228.6319 44.0453,227.3819 44.0453,227.3819 44.6703,225.5069 44.6703,225.5069 44.6703,222.3819 44.6703,222.3819 44.0453,220.5069 44.0453,220.5069 43.4203,219.2569 43.4203,219.2569 42.1703,218.0069 42.1703,218.0069 40.2953,217.3819 40.2953,217.3819"/>
    <polyline points="187.7264,217.3819 187.7264,230.5069 187.7264,230.5069 195.2264,230.5069"/>
    <polygon points="416.373,217.3819 415.123,218.0069 415.123,218.0069 413.873,219.2569 413.873,219.2569 413.248,220.5069 413.248,220.5069 412.623,222.3819 412.623,222.3819 412.623,225.5069 412.623,225.5069 413.248,227.3819 413.248,227.3819 413.873,228.6319 413.873,228.6319 415.123,229.8819 415.123,229.8819 416.373,230.5069 416.373,230.5069 418.873,230.5069 418.873,230.5069 420.123,229.8819 420.123,229.8819 421.373,228.6319 421.373,228.6319 421.998,227.3819 421.998,227.3819 422.623,225.5069 422.623,225.5069 422.623,222.3819 422.623,222.3819 421.998,220.5069 421.998,220.5069 421.373,219.2569 421.373,219.2569 420.123,218.0069 420.123,218.0069 418.873,217.3819 418.873,217.3819"/>
    <line x1="527.2589" x2="527.2589" y1="217.3819" y2="230.5069"/>
    <line x1="536.0089" x2="527.2589" y1="217.3819" y2="226.1319"/>
    <line x1="530.3839" x2="536.0089" y1="223.0069" y2="230.5069"/>
    <polyline points="608.4744,223.6319 610.3494,223.0069 610.3494,223.0069 610.9744,222.3819 610.9744,222.3819 611.5994,221.1319 611.5994,221.1319 611.5994,219.8819 611.5994,219.8819 610.9744,218.6319 610.9744,218.6319 610.3494,218.0069 610.3494,218.0069 608.4744,217.3819 608.4744,217.3819 602.8494,217.3819 602.8494,217.3819 602.8494,230.5069 602.8494,230.5069 608.4744,230.5069 608.4744,230.5069 610.3494,229.8819 610.3494,229.8819 610.9744,229.2569 610.9744,229.2569 611.5994,228.0069 611.5994,228.0069 611.5994,226.1319 611.5994,226.1319 610.9744,224.8819 610.9744,224.8819 610.3494,224.2569 610.3494,224.2569 608.4744,223.6319 608.4744,223.6319 602.8494,223.6319"/>
    <polyline points="740.7726,209.1535 741.3976,208.841 741.3976,208.841 742.3351,207.9035 742.3351,207.9035 742.3351,214.466"/>
    <polyline points="746.3976,209.466 746.3976,209.1535 746.3976,209.1535 746.7101,208.5285 746.7101,208.5285 747.0226,208.216 747.0226,208.216 747.6476,207.9035 747.6476,207.9035 748.8976,207.9035 748.8976,207.9035 749.5226,208.216 749.5226,208.216 749.8351,208.5285 749.8351,208.5285 750.1476,209.1535 750.1476,209.1535 750.1476,209.7785 750.1476,209.7785 749.8351,210.4035 749.8351,210.4035 749.2101,211.341 749.2101,211.341 746.0851,214.466 746.0851,214.466 750.4601,214.466"/>
    <polyline points="754.6555,217.3819 754.6555,230.5069 754.6555,230.5069 762.1555,230.5069"/>
    <polyline points="18.8976,243.7795 18.8976,281.5748 18.8976,281.5748 18.8976,319.3701 18.8976,319.3701 18.8976,357.1654 18.8976,357.1654 56.6929,357.1654 56.6929,357.1654 94.4882,357.1654 94.4882,357.1654 94.4882,319.3701 94.4882,319.3701 56.6929,319.3701 56.6929,319.3701 56.6929,281.5748 56.6929,281.5748 56.6929,243.7795"/>
    <line x1="18.8976" x2="56.6929" y1="281.5748" y2="281.5748"/>
    <polyline points="35.9203,261.4272 41.5453,261.4272 41.5453,261.4272 43.4203,260.8022 43.4203,260.8022 44.0453,260.1772 44.0453,260.1772 44.6703,258.9272 44.6703,258.9272 44.6703,257.6772 44.6703,257.6772 44.0453,256.4272 44.0453,256.4272 43.4203,255.8022 43.4203,255.8022 41.5453,255.1772 41.5453,255.1772 35.9203,255.1772 35.9203,255.1772 35.9203,268.3022"/>
    <line x1="40.2953" x2="44.6703" y1="261.4272" y2="268.3022"/>
    <polygon points="94.4882,243.7795 94.4882,281.5748 94.4882,281.5748 132.2835,281.5748 132.2835,281.5748 170.0787,281.5748 170.0787,281.5748 170.0787,319.3701 170.0787,319.3701 207.874,319.3701 207.874,319.3701 207.874,281.5748 207.874,281.5748 207.874,243.7795 207.874,243.7795 245.6693,243.7795 245.6693,243.7795 245.6693,281.5748 245.6693,281.5748 207.874,281.5748 207.874,281.5748 170.0787,281.5748 170.0787,281.5748 170.0787,243.7795 170.0787,243.7795 132.2835,243.7795 132.2835,243.7795"/>
    <line x1="132.2835" x2="132.2835" y1="281.5748" y2="243.7795"/>
    <polyline points="98.253,246.9488 98.878,246.6363 98.878,246.6363 99.8155,245.6988 99.8155,245.6988 99.8155,252.2613"/>
    <polyline points="104.1905,245.6988 107.628,245.6988 107.628,245.6988 105.753,248.1988 105.753,248.1988 106.6905,248.1988 106.6905,248.1988 107.3155,248.5113 107.3155,248.5113 107.628,248.8238 107.628,248.8238 107.9405,249.7613 107.9405,249.7613 107.9405,250.3863 107.9405,250.3863 107.628,251.3238 107.628,251.3238 107.003,251.9488 107.003,251.9488 106.0655,252.2613 106.0655,252.2613 105.128,252.2613 105.128,252.2613 104.1905,251.9488 104.1905,251.9488 103.878,251.6363 103.878,251.6363 103.5655,251.0113"/>
    <polyline points="119.9483,255.1772 111.8233,255.1772 111.8233,255.1772 111.8233,268.3022"/>
    <line x1="111.8233" x2="116.8233" y1="261.4272" y2="261.4272"/>
    <polyline points="149.9311,255.1772 149.9311,268.3022 149.9311,268.3022 157.4311,268.3022"/>
    <polyline points="195.5389,255.1772 187.4139,255.1772 187.4139,255.1772 187.4139,268.3022 187.4139,268.3022 195.5389,268.3022"/>
    <line x1="187.4139" x2="192.4139" y1="261.4272" y2="261.4272"/>
    <polyline points="233.0217,257.0522 231.7717,255.8022 231.7717,255.8022 229.8967,255.1772 229.8967,255.1772 227.3967,255.1772 227.3967,255.1772 225.5217,255.8022 225.5217,255.8022 224.2717,257.0522 224.2717,257.0522 224.2717,258.3022 224.2717,258.3022 224.8967,259.5522 224.8967,259.5522 225.5217,260.1772 225.5217,260.1772 226.7717,260.8022 226.7717,260.8022 230.5217,262.0522 230.5217,262.0522 231.7717,262.6772 231.7717,262.6772 232.3967,263.3022 232.3967,263.3022 233.0217,264.5522 233.0217,264.5522 233.0217,266.4272 233.0217,266.4272 231.7717,267.6772 231.7717,267.6772 229.8967,268.3022 229.8967,268.3022 227.3967,268.3022 227.3967,268.3022 225.5217,267.6772 225.5217,267.6772 224.2717,266.4272"/>
    <polyline points="245.6693,281.5748 283.4646,281.5748 283.4646,281.5748 283.4646,243.7795 283.4646,243.7795 245.6693,243.7795"/>
    <polyline points="270.8169,257.0522 269.5669,255.8022 269.5669,255.8022 267.6919,255.1772 267.6919,255.1772 265.1919,255.1772 265.1919,255.1772 263.3169,255.8022 263.3169,255.8022 262.0669,257.0522 262.0669,257.0522 262.0669,258.3022 262.0669,258.3022 262.6919,259.5522 262.6919,259.5522 263.3169,260.1772 263.3169,260.1772 264.5669,260.8022 264.5669,260.8022 268.3169,262.0522 268.3169,262.0522 269.5669,262.6772 269.5669,262.6772 270.1919,263.3022 270.1919,263.3022 270.8169,264.5522 270.8169,264.5522 270.8169,266.4272 270.8169,266.4272 269.5669,267.6772 269.5669,267.6772 267.6919,268.3022 267.6919,268.3022 265.1919,268.3022 265.1919,268.3022 263.3169,267.6772 263.3169,267.6772 262.0669,266.4272"/>
    <polyline points="283.4646,281.5748 321.2598,281.5748 321.2598,281.5748 321.2598,243.7795 321.2598,243.7795 283.4646,243.7795"/>
    <polyline points="308.9247,255.1772 300.7997,255.1772 300.7997,255.1772 300.7997,268.3022 300.7997,268.3022 308.9247,268.3022"/>
    <line x1="300.7997" x2="305.7997" y1="261.4272" y2="261.4272"/>
    <polyline points="321.2598,281.5748 359.0551,281.5748 359.0551,281.5748 396.8504,281.5748 396.8504,281.5748 396.8504,243.7795 396.8504,243.7795 359.0551,243.7795 359.0551,243.7795 321.2598,243.7795"/>
    <line x1="359.0551" x2="359.0551" y1="281.5748" y2="243.7795"/>
    <polyline points="347.0325,255.1772 347.0325,268.3022 347.0325,268.3022 338.2825,255.1772 338.2825,255.1772 338.2825,268.3022"/>
    <polyline points="384.5153,258.3022 383.8903,257.0522 383.8903,257.0522 382.6403,255.8022 382.6403,255.8022 381.3903,255.1772 381.3903,255.1772 378.8903,255.1772 378.8903,255.1772 377.6403,255.8022 377.6403,255.8022 376.3903,257.0522 376.3903,257.0522 375.7653,258.3022 375.7653,258.3022 375.1403,260.1772 375.1403,260.1772 375.1403,263.3022 375.1403,263.3022 375.7653,265.1772 375.7653,265.1772 376.3903,266.4272 376.3903,266.4272 377.6403,267.6772 377.6403,267.6772 378.8903,268.3022 378.8903,268.3022 381.3903,268.3022 381.3903,268.3022 382.6403,267.6772 382.6403,267.6772 383.8903,266.4272 383.8903,266.4272 384.5153,265.1772 384.5153,265.1772 384.5153,263.3022 384.5153,263.3022 381.3903,263.3022"/>
    <polyline points="472.4409,243.7795 472.4409,281.5748 472.4409,281.5748 434.6457,281.5748 434.6457,281.5748 434.6457,319.3701 434.6457,319.3701 396.8504,319.3701 396.8504,319.3701 396.8504,281.5748 396.8504,281.5748 434.6457,281.5748 434.6457,281.5748 434.6457,243.7795 434.6457,243.7795 472.4409,243.7795 472.4409,243.7795 510.2362,243.7795 510.2362,243.7795 510.2362,281.5748 510.2362,281.5748 548.0315,281.5748 548.0315,281.5748 548.0315,243.7795"/>
    <polyline points="422.3105,255.1772 414.1855,255.1772 414.1855,255.1772 414.1855,268.3022 414.1855,268.3022 422.3105,268.3022"/>
    <line x1="414.1855" x2="419.1855" y1="261.4272" y2="261.4272"/>
    <polyline points="452.2933,255.1772 452.2933,268.3022 452.2933,268.3022 459.7933,268.3022"/>
    <polyline points="472.4409,281.5748 510.2362,281.5748 510.2362,281.5748 510.2362,319.3701 510.2362,319.3701 472.4409,319.3701 472.4409,319.3701 434.6457,319.3701 434.6457,319.3701 434.6457,357.1654 434.6457,357.1654 472.4409,357.1654 472.4409,357.1654 510.2362,357.1654 510.2362,357.1654 510.2362,319.3701 510.2362,319.3701 548.0315,319.3701 548.0315,319.3701 548.0315,281.5748"/>
    <polyline points="489.4636,255.1772 489.4636,264.5522 489.4636,264.5522 490.0886,266.4272 490.0886,266.4272 491.3386,267.6772 491.3386,267.6772 493.2136,268.3022 493.2136,268.3022 494.4636,268.3022 494.4636,268.3022 496.3386,267.6772 496.3386,267.6772 497.5886,266.4272 497.5886,266.4272 498.2136,264.5522 498.2136,264.5522 498.2136,255.1772"/>
    <line x1="527.2589" x2="527.2589" y1="255.1772" y2="268.3022"/>
    <line x1="536.0089" x2="527.2589" y1="255.1772" y2="263.9272"/>
    <line x1="530.3839" x2="536.0089" y1="260.8022" y2="268.3022"/>
    <polyline points="585.8268,243.7795 585.8268,281.5748 585.8268,281.5748 585.8268,319.3701 585.8268,319.3701 585.8268,357.1654 585.8268,357.1654 623.622,357.1654 623.622,357.1654 623.622,319.3701 623.622,319.3701 623.622,281.5748 623.622,281.5748 623.622,243.7795"/>
    <line x1="585.8268" x2="623.622" y1="281.5748" y2="281.5748"/>
    <polygon points="605.3494,255.1772 604.0994,255.8022 604.0994,255.8022 602.8494,257.0522 602.8494,257.0522 602.2244,258.3022 602.2244,258.3022 601.5994,260.1772 601.5994,260.1772 601.5994,263.3022 601.5994,263.3022 602.2244,265.1772 602.2244,265.1772 602.8494,266.4272 602.8494,266.4272 604.0994,267.6772 604.0994,267.6772 605.3494,268.3022 605.3494,268.3022 607.8494,268.3022 607.8494,268.3022 609.0994,267.6772 609.0994,267.6772 610.3494,266.4272 610.3494,266.4272 610.9744,265.1772 610.9744,265.1772 611.5994,263.3022 611.5994,263.3022 611.5994,260.1772 611.5994,260.1772 610.9744,258.3022 610.9744,258.3022 610.3494,257.0522 610.3494,257.0522 609.0994,255.8022 609.0994,255.8022 607.8494,255.1772 607.8494,255.1772"/>
    <polyline points="737.0079,243.7795 737.0079,281.5748 737.0079,281.5748 774.8031,281.5748 774.8031,281.5748 774.8031,243.7795"/>
    <line x1="758.4055" x2="758.4055" y1="255.1772" y2="268.3022"/>
    <polyline points="18.8976,319.3701 56.6929,319.3701 56.6929,319.3701 56.6929,357.1654"/>
    <polygon points="38.4203,292.9724 37.1703,293.5974 37.1703,293.5974 35.9203,294.8474 35.9203,294.8474 35.2953,296.0974 35.2953,296.0974 34.6703,297.9724 34.6703,297.9724 34.6703,301.0974 34.6703,301.0974 35.2953,302.9724 35.2953,302.9724 35.9203,304.2224 35.9203,304.2224 37.1703,305.4724 37.1703,305.4724 38.4203,306.0974 38.4203,306.0974 40.9203,306.0974 40.9203,306.0974 42.1703,305.4724 42.1703,305.4724 43.4203,304.2224 43.4203,304.2224 44.0453,302.9724 44.0453,302.9724 44.6703,301.0974 44.6703,301.0974 44.6703,297.9724 44.6703,297.9724 44.0453,296.0974 44.0453,296.0974 43.4203,294.8474 43.4203,294.8474 42.1703,293.5974 42.1703,293.5974 40.9203,292.9724 40.9203,292.9724"/>
    <line x1="187.1014" x2="187.1014" y1="292.9724" y2="306.0974"/>
    <line x1="195.8514" x2="187.1014" y1="292.9724" y2="301.7224"/>
    <line x1="190.2264" x2="195.8514" y1="298.5974" y2="306.0974"/>
    <line x1="413.873" x2="413.873" y1="292.9724" y2="306.0974"/>
    <line x1="422.623" x2="413.873" y1="292.9724" y2="301.7224"/>
    <line x1="416.998" x2="422.623" y1="298.5974" y2="306.0974"/>
    <polyline points="535.6964,292.9724 527.5714,292.9724 527.5714,292.9724 527.5714,306.0974 527.5714,306.0974 535.6964,306.0974"/>
    <line x1="527.5714" x2="532.5714" y1="299.2224" y2="299.2224"/>
    <polyline points="585.8268,319.3701 623.622,319.3701 623.622,319.3701 661.4173,319.3701 661.4173,319.3701 699.2126,319.3701 699.2126,319.3701 699.2126,281.5748 699.2126,281.5748 661.4173,281.5748 661.4173,281.5748 661.4173,319.3701 661.4173,319.3701 661.4173,357.1654 661.4173,357.1654 699.2126,357.1654 699.2126,357.1654 699.2126,319.3701 699.2126,319.3701 737.0079,319.3701 737.0079,319.3701 774.8031,319.3701 774.8031,319.3701 774.8031,281.5748"/>
    <polygon points="605.3494,292.9724 604.0994,293.5974 604.0994,293.5974 602.8494,294.8474 602.8494,294.8474 602.2244,296.0974 602.2244,296.0974 601.5994,297.9724 601.5994,297.9724 601.5994,301.0974 601.5994,301.0974 602.2244,302.9724 602.2244,302.9724 602.8494,304.2224 602.8494,304.2224 604.0994,305.4724 604.0994,305.4724 605.3494,306.0974 605.3494,306.0974 607.8494,306.0974 607.8494,306.0974 609.0994,305.4724 609.0994,305.4724 610.3494,304.2224 610.3494,304.2224 610.9744,302.9724 610.9744,302.9724 611.5994,301.0974 611.5994,301.0974 611.5994,297.9724 611.5994,297.9724 610.9744,296.0974 610.9744,296.0974 610.3494,294.8474 610.3494,294.8474 609.0994,293.5974 609.0994,293.5974 607.8494,292.9724 607.8494,292.9724"/>
    <polyline points="665.1821,284.7441 665.8071,284.4316 665.8071,284.4316 666.7446,283.4941 666.7446,283.4941 666.7446,290.0566"/>
    <polyline points="673.6196,290.0566 673.6196,283.4941 673.6196,283.4941 670.4946,287.8691 670.4946,287.8691 675.1821,287.8691"/>
    <polyline points="684.69,292.9724 684.69,302.9724 684.69,302.9724 684.065,304.8474 684.065,304.8474 683.44,305.4724 683.44,305.4724 682.19,306.0974 682.19,306.0974 680.94,306.0974 680.94,306.0974 679.69,305.4724 679.69,305.4724 679.065,304.8474 679.065,304.8474 678.44,302.9724 678.44,302.9724 678.44,301.7224"/>
    <polyline points="737.0079,281.5748 737.0079,319.3701 737.0079,319.3701 737.0079,357.1654 737.0079,357.1654 774.8031,357.1654 774.8031,357.1654 774.8031,319.3701"/>
    <polyline points="762.468,292.9724 754.343,292.9724 754.343,292.9724 754.343,306.0974"/>
    <line x1="754.343" x2="759.343" y1="299.2224" y2="299.2224"/>
    <polyline points="22.6624,322.5394 23.2874,322.2269 23.2874,322.2269 24.2249,321.2894 24.2249,321.2894 24.2249,327.8519"/>
    <polyline points="31.7249,321.2894 28.5999,321.2894 28.5999,321.2894 28.2874,324.1019 28.2874,324.1019 28.5999,323.7894 28.5999,323.7894 29.5374,323.4769 29.5374,323.4769 30.4749,323.4769 30.4749,323.4769 31.4124,323.7894 31.4124,323.7894 32.0374,324.4144 32.0374,324.4144 32.3499,325.3519 32.3499,325.3519 32.3499,325.9769 32.3499,325.9769 32.0374,326.9144 32.0374,326.9144 31.4124,327.5394 31.4124,327.5394 30.4749,327.8519 30.4749,327.8519 29.5374,327.8519 29.5374,327.8519 28.5999,327.5394 28.5999,327.5394 28.2874,327.2269 28.2874,327.2269 27.9749,326.6019"/>
    <polyline points="35.9203,337.6427 41.5453,337.6427 41.5453,337.6427 43.4203,337.0177 43.4203,337.0177 44.0453,336.3927 44.0453,336.3927 44.6703,335.1427 44.6703,335.1427 44.6703,333.2677 44.6703,333.2677 44.0453,332.0177 44.0453,332.0177 43.4203,331.3927 43.4203,331.3927 41.5453,330.7677 41.5453,330.7677 35.9203,330.7677 35.9203,330.7677 35.9203,343.8927"/>
    <line x1="78.0906" x2="78.0906" y1="330.7677" y2="343.8927"/>
    <polyline points="94.4882,357.1654 132.2835,357.1654 132.2835,357.1654 132.2835,319.3701 132.2835,319.3701 94.4882,319.3701"/>
    <polyline points="120.2608,330.7677 120.2608,343.8927 120.2608,343.8927 111.5108,330.7677 111.5108,330.7677 111.5108,343.8927"/>
    <polyline points="132.2835,357.1654 170.0787,357.1654 170.0787,357.1654 207.874,357.1654 207.874,357.1654 245.6693,357.1654 245.6693,357.1654 245.6693,319.3701 245.6693,319.3701 207.874,319.3701 207.874,319.3701 207.874,357.1654"/>
    <polyline points="170.0787,357.1654 170.0787,319.3701 170.0787,319.3701 132.2835,319.3701"/>
    <line x1="149.3061" x2="149.3061" y1="330.7677" y2="343.8927"/>
    <line x1="158.0561" x2="149.3061" y1="330.7677" y2="339.5177"/>
    <line x1="152.4311" x2="158.0561" y1="336.3927" y2="343.8927"/>
    <polyline points="195.5389,330.7677 187.4139,330.7677 187.4139,330.7677 187.4139,343.8927 187.4139,343.8927 195.5389,343.8927"/>
    <line x1="187.4139" x2="192.4139" y1="337.0177" y2="337.0177"/>
    <polyline points="224.8967,337.0177 230.5217,337.0177 230.5217,337.0177 232.3967,336.3927 232.3967,336.3927 233.0217,335.7677 233.0217,335.7677 233.6467,334.5177 233.6467,334.5177 233.6467,333.2677 233.6467,333.2677 233.0217,332.0177 233.0217,332.0177 232.3967,331.3927 232.3967,331.3927 230.5217,330.7677 230.5217,330.7677 224.8967,330.7677 224.8967,330.7677 224.8967,343.8927"/>
    <line x1="229.2717" x2="233.6467" y1="337.0177" y2="343.8927"/>
    <polyline points="245.6693,357.1654 283.4646,357.1654 283.4646,357.1654 283.4646,319.3701 283.4646,319.3701 245.6693,319.3701"/>
    <polyline points="270.8169,332.6427 269.5669,331.3927 269.5669,331.3927 267.6919,330.7677 267.6919,330.7677 265.1919,330.7677 265.1919,330.7677 263.3169,331.3927 263.3169,331.3927 262.0669,332.6427 262.0669,332.6427 262.0669,333.8927 262.0669,333.8927 262.6919,335.1427 262.6919,335.1427 263.3169,335.7677 263.3169,335.7677 264.5669,336.3927 264.5669,336.3927 268.3169,337.6427 268.3169,337.6427 269.5669,338.2677 269.5669,338.2677 270.1919,338.8927 270.1919,338.8927 270.8169,340.1427 270.8169,340.1427 270.8169,342.0177 270.8169,342.0177 269.5669,343.2677 269.5669,343.2677 267.6919,343.8927 267.6919,343.8927 265.1919,343.8927 265.1919,343.8927 263.3169,343.2677 263.3169,343.2677 262.0669,342.0177"/>
    <line x1="472.4409" x2="472.4409" y1="357.1654" y2="319.3701"/>
    <polyline points="438.4104,322.5394 439.0354,322.2269 439.0354,322.2269 439.9729,321.2894 439.9729,321.2894 439.9729,327.8519"/>
    <polyline points="447.7854,322.2269 447.4729,321.6019 447.4729,321.6019 446.5354,321.2894 446.5354,321.2894 445.9104,321.2894 445.9104,321.2894 444.9729,321.6019 444.9729,321.6019 444.3479,322.5394 444.3479,322.5394 444.0354,324.1019 444.0354,324.1019 444.0354,325.6644 444.0354,325.6644 444.3479,326.9144 444.3479,326.9144 444.9729,327.5394 444.9729,327.5394 445.9104,327.8519 445.9104,327.8519 446.2229,327.8519 446.2229,327.8519 447.1604,327.5394 447.1604,327.5394 447.7854,326.9144 447.7854,326.9144 448.0979,325.9769 448.0979,325.9769 448.0979,325.6644 448.0979,325.6644 447.7854,324.7269 447.7854,324.7269 447.1604,324.1019 447.1604,324.1019 446.2229,323.7894 446.2229,323.7894 445.9104,323.7894 445.9104,323.7894 444.9729,324.1019 444.9729,324.1019 444.3479,324.7269 444.3479,324.7269 444.0354,325.6644"/>
    <polyline points="451.0433,330.7677 459.7933,330.7677 459.7933,330.7677 451.0433,343.8927 451.0433,343.8927 459.7933,343.8927"/>
    <polygon points="491.9636,330.7677 490.7136,331.3927 490.7136,331.3927 489.4636,332.6427 489.4636,332.6427 488.8386,333.8927 488.8386,333.8927 488.2136,335.7677 488.2136,335.7677 488.2136,338.8927 488.2136,338.8927 488.8386,340.7677 488.8386,340.7677 489.4636,342.0177 489.4636,342.0177 490.7136,343.2677 490.7136,343.2677 491.9636,343.8927 491.9636,343.8927 494.4636,343.8927 494.4636,343.8927 495.7136,343.2677 495.7136,343.2677 496.9636,342.0177 496.9636,342.0177 497.5886,340.7677 497.5886,340.7677 498.2136,338.8927 498.2136,338.8927 498.2136,335.7677 498.2136,335.7677 497.5886,333.8927 497.5886,333.8927 496.9636,332.6427 496.9636,332.6427 495.7136,331.3927 495.7136,331.3927 494.4636,330.7677 494.4636,330.7677"/>
    <polyline points="510.2362,357.1654 548.0315,357.1654 548.0315,357.1654 548.0315,319.3701"/>
    <polyline points="536.0089,330.7677 536.0089,343.8927 536.0089,343.8927 527.2589,330.7677 527.2589,330.7677 527.2589,343.8927"/>
    <polyline points="589.5915,322.5394 590.2165,322.2269 590.2165,322.2269 591.154,321.2894 591.154,321.2894 591.154,327.8519"/>
    <polyline points="594.904,321.2894 599.279,321.2894 599.279,321.2894 596.154,327.8519"/>
    <polyline points="611.2869,333.8927 610.6619,332.6427 610.6619,332.6427 609.4119,331.3927 609.4119,331.3927 608.1619,330.7677 608.1619,330.7677 605.6619,330.7677 605.6619,330.7677 604.4119,331.3927 604.4119,331.3927 603.1619,332.6427 603.1619,332.6427 602.5369,333.8927 602.5369,333.8927 601.9119,335.7677 601.9119,335.7677 601.9119,338.8927 601.9119,338.8927 602.5369,340.7677 602.5369,340.7677 603.1619,342.0177 603.1619,342.0177 604.4119,343.2677 604.4119,343.2677 605.6619,343.8927 605.6619,343.8927 608.1619,343.8927 608.1619,343.8927 609.4119,343.2677 609.4119,343.2677 610.6619,342.0177 610.6619,342.0177 611.2869,340.7677 611.2869,340.7677 611.2869,338.8927 611.2869,338.8927 608.1619,338.8927"/>
    <line x1="623.622" x2="661.4173" y1="357.1654" y2="357.1654"/>
    <polyline points="640.6447,337.0177 646.2697,337.0177 646.2697,337.0177 648.1447,336.3927 648.1447,336.3927 648.7697,335.7677 648.7697,335.7677 649.3947,334.5177 649.3947,334.5177 649.3947,333.2677 649.3947,333.2677 648.7697,332.0177 648.7697,332.0177 648.1447,331.3927 648.1447,331.3927 646.2697,330.7677 646.2697,330.7677 640.6447,330.7677 640.6447,330.7677 640.6447,343.8927"/>
    <line x1="645.0197" x2="649.3947" y1="337.0177" y2="343.8927"/>
    <polyline points="685.94,343.8927 680.94,330.7677 680.94,330.7677 675.94,343.8927"/>
    <line x1="677.815" x2="684.065" y1="339.5177" y2="339.5177"/>
    <line x1="699.2126" x2="737.0079" y1="357.1654" y2="357.1654"/>
    <polyline points="723.7352,343.8927 718.7352,330.7677 718.7352,330.7677 713.7352,343.8927"/>
    <line x1="715.6102" x2="721.8602" y1="339.5177" y2="339.5177"/>
    <line x1="756.5305" x2="756.5305" y1="330.7677" y2="343.8927"/>
    <line x1="752.1555" x2="760.9055" y1="330.7677" y2="330.7677"/>
  </g>
</svg>
