<?xml version="1.0" encoding="utf-8" ?>
<svg xmlns="http://www.w3.org/2000/svg" xmlns:cc="http://creativecommons.org/ns" xmlns:dc="http://purl.org/dc/elements/1.1/" xmlns:ev="http://www.w3.org/2001/xml-events" xmlns:inkscape="http://www.inkscape.org/namespaces/inkscape" xmlns:rdf="http://www.w3.org/1999/02/22-rdf-syntax-ns" xmlns:sodipodi="http://sodipodi.sourceforge.net/DTD/sodipodi-0.dtd" xmlns:xlink="http://www.w3.org/1999/xlink" baseProfile="tiny" height="9.0cm" version="1.2" viewBox="0 0 793.7007874015749 340.15748031496065" width="21.0cm">
  <metadata>
    <rdf:RDF>
      <cc:Work>
        <dc:format>image/svg+xml</dc:format>
        <dc:source>vpype eval 'cell=10;width=210;height=99' eval 'nCols=21;nRows=9' eval 'cells=[0,1,2,3,10,14,16,22,25,26,27,28,29,30,31,32,33,34,35,36,38,41,42,43,44,50,54,56,58,62,65,70,74,76,78,81,82,83,84,85,86,87,88,89,90,91,94,96,98,102,105,110,112,113,114,115,116,117,118,119,122,125,130,134,136,138,142,144,145,146,147,148,149,150,151,152,154,156,158,160,161,162,163,165,171,173,174,175,178]' eval 'chars=[&quot;K&quot;,&quot;O&quot;,&quot;U&quot;,&quot;S&quot;,&quot;R&quot;,&quot;K&quot;,&quot;S&quot;,&quot;I&quot;,&quot;F&quot;,&quot;L&quot;,&quot;E&quot;,&quot;S&quot;,&quot;S&quot;,&quot;E&quot;,&quot;N&quot;,&quot;G&quot;,&quot;E&quot;,&quot;L&quot;,&quot;U&quot;,&quot;K&quot;,&quot;K&quot;,&quot;S&quot;,&quot;T&quot;,&quot;E&quot;,&quot;R&quot;,&quot;G&quot;,&quot;A&quot;,&quot;E&quot;,&quot;I&quot;,&quot;L&quot;,&quot;T&quot;,&quot;E&quot;,&quot;V&quot;,&quot;L&quot;,&quot;N&quot;,&quot;M&quot;,&quot;I&quot;,&quot;S&quot;,&quot;V&quot;,&quot;E&quot;,&quot;R&quot;,&quot;S&quot;,&quot;T&quot;,&quot;A&quot;,&quot;N&quot;,&quot;D&quot;,&quot;E&quot;,&quot;L&quot;,&quot;D&quot;,&quot;K&quot;,&quot;R&quot;,&quot;B&quot;,&quot;P&quot;,&quot;A&quot;,&quot;R&quot;,&quot;K&quot;,&quot;E&quot;,&quot;R&quot;,&quot;E&quot;,&quot;N&quot;,&quot;K&quot;,&quot;R&quot;,&quot;U&quot;,&quot;T&quot;,&quot;K&quot;,&quot;R&quot;,&quot;E&quot;,&quot;M&quot;,&quot;A&quot;,&quot;N&quot;,&quot;D&quot;,&quot;A&quot;,&quot;R&quot;,&quot;I&quot;,&quot;J&quot;,&quot;N&quot;,&quot;J&quot;,&quot;E&quot;,&quot;E&quot;,&quot;G&quot;,&quot;I&quot;,&quot;N&quot;,&quot;O&quot;,&quot;S&quot;,&quot;A&quot;,&quot;B&quot;,&quot;E&quot;,&quot;A&quot;,&quot;N&quot;]' eval 'numbers=[0,2,10,14,16,25,38,41,65,81,112,144,151,160,173]' eval counter=1 eval charIndex=0 begin grid -o '%cell*mm%' '%cell*mm%' %nCols% %nRows% eval '%isCell=_i in cells%' eval '%number=_i in numbers%' eval '%size=10 if isCell else 0%' rect 0 0 '%size*mm%' '%size*mm%' text -s 8 -p 0.5mm 1.5mm '%counter if number else '&quot;'&quot;''&quot;'&quot;'%' text -s 20 -p 5mm 5mm -a center '%chars[charIndex] if isCell else '&quot;'&quot;''&quot;'&quot;'%' eval '%if number: counter+=1 %' eval '%if isCell: charIndex+=1 %' end write ./svgs/solution/b62e6e.svg
</dc:source>
        <dc:date>2023-12-20T21:39:18.429762</dc:date>
      </cc:Work>
    </rdf:RDF>
  </metadata>
  <defs/>
  <g fill="none" id="layer1" inkscape:groupmode="layer" inkscape:label="1" stroke="#0000ff" style="display:inline">
    <polygon points="0.0,0.0 0.0,37.7953 37.7953,37.7953 37.7953,0.0"/>
    <polyline points="3.3898,3.6693 3.8898,3.4193 4.6398,2.6693 4.6398,7.9193"/>
    <line x1="17.0226" x2="17.0226" y1="11.3976" y2="24.5226"/>
    <line x1="25.7726" x2="17.0226" y1="11.3976" y2="20.1476"/>
    <line x1="20.1476" x2="25.7726" y1="17.0226" y2="24.5226"/>
    <polygon points="37.7953,0.0 37.7953,37.7953 75.5906,37.7953 75.5906,0.0"/>
    <polygon points="57.3179,11.3976 56.0679,12.0226 54.8179,13.2726 54.1929,14.5226 53.5679,16.3976 53.5679,19.5226 54.1929,21.3976 54.8179,22.6476 56.0679,23.8976 57.3179,24.5226 59.8179,24.5226 61.0679,23.8976 62.3179,22.6476 62.9429,21.3976 63.5679,19.5226 63.5679,16.3976 62.9429,14.5226 62.3179,13.2726 61.0679,12.0226 59.8179,11.3976"/>
    <polygon points="75.5906,0.0 75.5906,37.7953 113.3858,37.7953 113.3858,0.0"/>
    <polyline points="78.4803,3.9193 78.4803,3.6693 78.7303,3.1693 78.9803,2.9193 79.4803,2.6693 80.4803,2.6693 80.9803,2.9193 81.2303,3.1693 81.4803,3.6693 81.4803,4.1693 81.2303,4.6693 80.7303,5.4193 78.2303,7.9193 81.7303,7.9193"/>
    <polyline points="92.6132,11.3976 92.6132,20.7726 93.2382,22.6476 94.4882,23.8976 96.3632,24.5226 97.6132,24.5226 99.4882,23.8976 100.7382,22.6476 101.3632,20.7726 101.3632,11.3976"/>
    <polygon points="113.3858,0.0 113.3858,37.7953 151.1811,37.7953 151.1811,0.0"/>
    <polyline points="138.5335,13.2726 137.2835,12.0226 135.4085,11.3976 132.9085,11.3976 131.0335,12.0226 129.7835,13.2726 129.7835,14.5226 130.4085,15.7726 131.0335,16.3976 132.2835,17.0226 136.0335,18.2726 137.2835,18.8976 137.9085,19.5226 138.5335,20.7726 138.5335,22.6476 137.2835,23.8976 135.4085,24.5226 132.9085,24.5226 131.0335,23.8976 129.7835,22.6476"/>
    <polygon points="151.1811,0.0 151.1811,0.0 151.1811,0.0 151.1811,0.0"/>
    <polygon points="188.9764,0.0 188.9764,0.0 188.9764,0.0 188.9764,0.0"/>
    <polygon points="226.7717,0.0 226.7717,0.0 226.7717,0.0 226.7717,0.0"/>
    <polygon points="264.5669,0.0 264.5669,0.0 264.5669,0.0 264.5669,0.0"/>
    <polygon points="302.3622,0.0 302.3622,0.0 302.3622,0.0 302.3622,0.0"/>
    <polygon points="340.1575,0.0 340.1575,0.0 340.1575,0.0 340.1575,0.0"/>
    <polygon points="377.9528,0.0 377.9528,37.7953 415.748,37.7953 415.748,0.0"/>
    <polyline points="381.0925,2.6693 383.8425,2.6693 382.3425,4.6693 383.0925,4.6693 383.5925,4.9193 383.8425,5.1693 384.0925,5.9193 384.0925,6.4193 383.8425,7.1693 383.3425,7.6693 382.5925,7.9193 381.8425,7.9193 381.0925,7.6693 380.8425,7.4193 380.5925,6.9193"/>
    <line x1="394.9754" x2="394.9754" y1="11.3976" y2="24.5226"/>
    <polyline points="394.9754,11.3976 400.6004,11.3976 402.4754,12.0226 403.1004,12.6476 403.7254,13.8976 403.7254,15.1476 403.1004,16.3976 402.4754,17.0226 400.6004,17.6476 394.9754,17.6476"/>
    <line x1="399.3504" x2="403.7254" y1="17.6476" y2="24.5226"/>
    <polygon points="415.748,0.0 415.748,0.0 415.748,0.0 415.748,0.0"/>
    <polygon points="453.5433,0.0 453.5433,0.0 453.5433,0.0 453.5433,0.0"/>
    <polygon points="491.3386,0.0 491.3386,0.0 491.3386,0.0 491.3386,0.0"/>
    <polygon points="529.1339,0.0 529.1339,37.7953 566.9291,37.7953 566.9291,0.0"/>
    <polyline points="534.2736,2.6693 531.7736,6.1693 535.5236,6.1693"/>
    <line x1="534.2736" x2="534.2736" y1="2.6693" y2="7.9193"/>
    <line x1="546.1565" x2="546.1565" y1="11.3976" y2="24.5226"/>
    <line x1="554.9065" x2="546.1565" y1="11.3976" y2="20.1476"/>
    <line x1="549.2815" x2="554.9065" y1="17.0226" y2="24.5226"/>
    <polygon points="566.9291,0.0 566.9291,0.0 566.9291,0.0 566.9291,0.0"/>
    <polygon points="604.7244,0.0 604.7244,37.7953 642.5197,37.7953 642.5197,0.0"/>
    <polyline points="610.3642,2.6693 607.8642,2.6693 607.6142,4.9193 607.8642,4.6693 608.6142,4.4193 609.3642,4.4193 610.1142,4.6693 610.6142,5.1693 610.8642,5.9193 610.8642,6.4193 610.6142,7.1693 610.1142,7.6693 609.3642,7.9193 608.6142,7.9193 607.8642,7.6693 607.6142,7.4193 607.3642,6.9193"/>
    <polyline points="629.872,13.2726 628.622,12.0226 626.747,11.3976 624.247,11.3976 622.372,12.0226 621.122,13.2726 621.122,14.5226 621.747,15.7726 622.372,16.3976 623.622,17.0226 627.372,18.2726 628.622,18.8976 629.247,19.5226 629.872,20.7726 629.872,22.6476 628.622,23.8976 626.747,24.5226 624.247,24.5226 622.372,23.8976 621.122,22.6476"/>
    <polygon points="642.5197,0.0 642.5197,0.0 642.5197,0.0 642.5197,0.0"/>
    <polygon points="680.315,0.0 680.315,0.0 680.315,0.0 680.315,0.0"/>
    <polygon points="718.1102,0.0 718.1102,0.0 718.1102,0.0 718.1102,0.0"/>
    <polygon points="755.9055,0.0 755.9055,0.0 755.9055,0.0 755.9055,0.0"/>
    <polygon points="0.0,37.7953 0.0,37.7953 0.0,37.7953 0.0,37.7953"/>
    <polygon points="37.7953,37.7953 37.7953,75.5906 75.5906,75.5906 75.5906,37.7953"/>
    <line x1="59.1929" x2="59.1929" y1="49.1929" y2="62.3179"/>
    <polygon points="75.5906,37.7953 75.5906,37.7953 75.5906,37.7953 75.5906,37.7953"/>
    <polygon points="113.3858,37.7953 113.3858,37.7953 113.3858,37.7953 113.3858,37.7953"/>
    <polygon points="151.1811,37.7953 151.1811,75.5906 188.9764,75.5906 188.9764,37.7953"/>
    <polyline points="157.0709,41.2146 156.8209,40.7146 156.0709,40.4646 155.5709,40.4646 154.8209,40.7146 154.3209,41.4646 154.0709,42.7146 154.0709,43.9646 154.3209,44.9646 154.8209,45.4646 155.5709,45.7146 155.8209,45.7146 156.5709,45.4646 157.0709,44.9646 157.3209,44.2146 157.3209,43.9646 157.0709,43.2146 156.5709,42.7146 155.8209,42.4646 155.5709,42.4646 154.8209,42.7146 154.3209,43.2146 154.0709,43.9646"/>
    <line x1="168.5162" x2="168.5162" y1="49.1929" y2="62.3179"/>
    <line x1="168.5162" x2="176.6412" y1="49.1929" y2="49.1929"/>
    <line x1="168.5162" x2="173.5162" y1="55.4429" y2="55.4429"/>
    <polygon points="188.9764,37.7953 188.9764,75.5906 226.7717,75.5906 226.7717,37.7953"/>
    <line x1="206.624" x2="206.624" y1="49.1929" y2="62.3179"/>
    <line x1="206.624" x2="214.124" y1="62.3179" y2="62.3179"/>
    <polygon points="226.7717,37.7953 226.7717,75.5906 264.5669,75.5906 264.5669,37.7953"/>
    <line x1="244.1068" x2="244.1068" y1="49.1929" y2="62.3179"/>
    <line x1="244.1068" x2="252.2318" y1="49.1929" y2="49.1929"/>
    <line x1="244.1068" x2="249.1068" y1="55.4429" y2="55.4429"/>
    <line x1="244.1068" x2="252.2318" y1="62.3179" y2="62.3179"/>
    <polygon points="264.5669,37.7953 264.5669,75.5906 302.3622,75.5906 302.3622,37.7953"/>
    <polyline points="289.7146,51.0679 288.4646,49.8179 286.5896,49.1929 284.0896,49.1929 282.2146,49.8179 280.9646,51.0679 280.9646,52.3179 281.5896,53.5679 282.2146,54.1929 283.4646,54.8179 287.2146,56.0679 288.4646,56.6929 289.0896,57.3179 289.7146,58.5679 289.7146,60.4429 288.4646,61.6929 286.5896,62.3179 284.0896,62.3179 282.2146,61.6929 280.9646,60.4429"/>
    <polygon points="302.3622,37.7953 302.3622,75.5906 340.1575,75.5906 340.1575,37.7953"/>
    <polyline points="327.5098,51.0679 326.2598,49.8179 324.3848,49.1929 321.8848,49.1929 320.0098,49.8179 318.7598,51.0679 318.7598,52.3179 319.3848,53.5679 320.0098,54.1929 321.2598,54.8179 325.0098,56.0679 326.2598,56.6929 326.8848,57.3179 327.5098,58.5679 327.5098,60.4429 326.2598,61.6929 324.3848,62.3179 321.8848,62.3179 320.0098,61.6929 318.7598,60.4429"/>
    <polygon points="340.1575,37.7953 340.1575,75.5906 377.9528,75.5906 377.9528,37.7953"/>
    <line x1="357.4926" x2="357.4926" y1="49.1929" y2="62.3179"/>
    <line x1="357.4926" x2="365.6176" y1="49.1929" y2="49.1929"/>
    <line x1="357.4926" x2="362.4926" y1="55.4429" y2="55.4429"/>
    <line x1="357.4926" x2="365.6176" y1="62.3179" y2="62.3179"/>
    <polygon points="377.9528,37.7953 377.9528,75.5906 415.748,75.5906 415.748,37.7953"/>
    <line x1="394.9754" x2="394.9754" y1="49.1929" y2="62.3179"/>
    <line x1="394.9754" x2="403.7254" y1="49.1929" y2="62.3179"/>
    <line x1="403.7254" x2="403.7254" y1="49.1929" y2="62.3179"/>
    <polygon points="415.748,37.7953 415.748,75.5906 453.5433,75.5906 453.5433,37.7953"/>
    <polyline points="441.2082,52.3179 440.5832,51.0679 439.3332,49.8179 438.0832,49.1929 435.5832,49.1929 434.3332,49.8179 433.0832,51.0679 432.4582,52.3179 431.8332,54.1929 431.8332,57.3179 432.4582,59.1929 433.0832,60.4429 434.3332,61.6929 435.5832,62.3179 438.0832,62.3179 439.3332,61.6929 440.5832,60.4429 441.2082,59.1929 441.2082,57.3179"/>
    <line x1="438.0832" x2="441.2082" y1="57.3179" y2="57.3179"/>
    <polygon points="453.5433,37.7953 453.5433,75.5906 491.3386,75.5906 491.3386,37.7953"/>
    <line x1="470.8784" x2="470.8784" y1="49.1929" y2="62.3179"/>
    <line x1="470.8784" x2="479.0034" y1="49.1929" y2="49.1929"/>
    <line x1="470.8784" x2="475.8784" y1="55.4429" y2="55.4429"/>
    <line x1="470.8784" x2="479.0034" y1="62.3179" y2="62.3179"/>
    <polygon points="491.3386,37.7953 491.3386,75.5906 529.1339,75.5906 529.1339,37.7953"/>
    <line x1="508.9862" x2="508.9862" y1="49.1929" y2="62.3179"/>
    <line x1="508.9862" x2="516.4862" y1="62.3179" y2="62.3179"/>
    <polygon points="529.1339,37.7953 529.1339,75.5906 566.9291,75.5906 566.9291,37.7953"/>
    <polyline points="546.1565,49.1929 546.1565,58.5679 546.7815,60.4429 548.0315,61.6929 549.9065,62.3179 551.1565,62.3179 553.0315,61.6929 554.2815,60.4429 554.9065,58.5679 554.9065,49.1929"/>
    <polygon points="566.9291,37.7953 566.9291,75.5906 604.7244,75.5906 604.7244,37.7953"/>
    <line x1="583.9518" x2="583.9518" y1="49.1929" y2="62.3179"/>
    <line x1="592.7018" x2="583.9518" y1="49.1929" y2="57.9429"/>
    <line x1="587.0768" x2="592.7018" y1="54.8179" y2="62.3179"/>
    <polygon points="604.7244,37.7953 604.7244,37.7953 604.7244,37.7953 604.7244,37.7953"/>
    <polygon points="642.5197,37.7953 642.5197,75.5906 680.315,75.5906 680.315,37.7953"/>
    <line x1="648.6594" x2="646.1594" y1="40.4646" y2="45.7146"/>
    <line x1="645.1594" x2="648.6594" y1="40.4646" y2="40.4646"/>
    <line x1="659.5423" x2="659.5423" y1="49.1929" y2="62.3179"/>
    <line x1="668.2923" x2="659.5423" y1="49.1929" y2="57.9429"/>
    <line x1="662.6673" x2="668.2923" y1="54.8179" y2="62.3179"/>
    <polygon points="680.315,37.7953 680.315,37.7953 680.315,37.7953 680.315,37.7953"/>
    <polygon points="718.1102,37.7953 718.1102,37.7953 718.1102,37.7953 718.1102,37.7953"/>
    <polygon points="755.9055,37.7953 755.9055,75.5906 793.7008,75.5906 793.7008,37.7953"/>
    <polygon points="759.7953,40.4646 759.0453,40.7146 758.7953,41.2146 758.7953,41.7146 759.0453,42.2146 759.5453,42.4646 760.5453,42.7146 761.2953,42.9646 761.7953,43.4646 762.0453,43.9646 762.0453,44.7146 761.7953,45.2146 761.5453,45.4646 760.7953,45.7146 759.7953,45.7146 759.0453,45.4646 758.7953,45.2146 758.5453,44.7146 758.5453,43.9646 758.7953,43.4646 759.2953,42.9646 760.0453,42.7146 761.0453,42.4646 761.5453,42.2146 761.7953,41.7146 761.7953,41.2146 761.5453,40.7146 760.7953,40.4646"/>
    <polyline points="781.0531,51.0679 779.8031,49.8179 777.9281,49.1929 775.4281,49.1929 773.5531,49.8179 772.3031,51.0679 772.3031,52.3179 772.9281,53.5679 773.5531,54.1929 774.8031,54.8179 778.5531,56.0679 779.8031,56.6929 780.4281,57.3179 781.0531,58.5679 781.0531,60.4429 779.8031,61.6929 777.9281,62.3179 775.4281,62.3179 773.5531,61.6929 772.3031,60.4429"/>
    <polygon points="0.0,75.5906 0.0,113.3858 37.7953,113.3858 37.7953,75.5906"/>
    <line x1="19.5226" x2="19.5226" y1="86.9882" y2="100.1132"/>
    <line x1="15.1476" x2="23.8976" y1="86.9882" y2="86.9882"/>
    <polygon points="37.7953,75.5906 37.7953,113.3858 75.5906,113.3858 75.5906,75.5906"/>
    <line x1="55.1304" x2="55.1304" y1="86.9882" y2="100.1132"/>
    <line x1="55.1304" x2="63.2554" y1="86.9882" y2="86.9882"/>
    <line x1="55.1304" x2="60.1304" y1="93.2382" y2="93.2382"/>
    <line x1="55.1304" x2="63.2554" y1="100.1132" y2="100.1132"/>
    <polygon points="75.5906,75.5906 75.5906,113.3858 113.3858,113.3858 113.3858,75.5906"/>
    <line x1="92.6132" x2="92.6132" y1="86.9882" y2="100.1132"/>
    <polyline points="92.6132,86.9882 98.2382,86.9882 100.1132,87.6132 100.7382,88.2382 101.3632,89.4882 101.3632,90.7382 100.7382,91.9882 100.1132,92.6132 98.2382,93.2382 92.6132,93.2382"/>
    <line x1="96.9882" x2="101.3632" y1="93.2382" y2="100.1132"/>
    <polygon points="113.3858,75.5906 113.3858,75.5906 113.3858,75.5906 113.3858,75.5906"/>
    <polygon points="151.1811,75.5906 151.1811,75.5906 151.1811,75.5906 151.1811,75.5906"/>
    <polygon points="188.9764,75.5906 188.9764,75.5906 188.9764,75.5906 188.9764,75.5906"/>
    <polygon points="226.7717,75.5906 226.7717,75.5906 226.7717,75.5906 226.7717,75.5906"/>
    <polygon points="264.5669,75.5906 264.5669,75.5906 264.5669,75.5906 264.5669,75.5906"/>
    <polygon points="302.3622,75.5906 302.3622,113.3858 340.1575,113.3858 340.1575,75.5906"/>
    <polyline points="327.8223,90.1132 327.1973,88.8632 325.9473,87.6132 324.6973,86.9882 322.1973,86.9882 320.9473,87.6132 319.6973,88.8632 319.0723,90.1132 318.4473,91.9882 318.4473,95.1132 319.0723,96.9882 319.6973,98.2382 320.9473,99.4882 322.1973,100.1132 324.6973,100.1132 325.9473,99.4882 327.1973,98.2382 327.8223,96.9882 327.8223,95.1132"/>
    <line x1="324.6973" x2="327.8223" y1="95.1132" y2="95.1132"/>
    <polygon points="340.1575,75.5906 340.1575,75.5906 340.1575,75.5906 340.1575,75.5906"/>
    <polygon points="377.9528,75.5906 377.9528,75.5906 377.9528,75.5906 377.9528,75.5906"/>
    <polygon points="415.748,75.5906 415.748,75.5906 415.748,75.5906 415.748,75.5906"/>
    <polygon points="453.5433,75.5906 453.5433,113.3858 491.3386,113.3858 491.3386,75.5906"/>
    <line x1="473.0659" x2="468.0659" y1="86.9882" y2="100.1132"/>
    <line x1="473.0659" x2="478.0659" y1="86.9882" y2="100.1132"/>
    <line x1="469.9409" x2="476.1909" y1="95.7382" y2="95.7382"/>
    <polygon points="491.3386,75.5906 491.3386,75.5906 491.3386,75.5906 491.3386,75.5906"/>
    <polygon points="529.1339,75.5906 529.1339,113.3858 566.9291,113.3858 566.9291,75.5906"/>
    <line x1="546.469" x2="546.469" y1="86.9882" y2="100.1132"/>
    <line x1="546.469" x2="554.594" y1="86.9882" y2="86.9882"/>
    <line x1="546.469" x2="551.469" y1="93.2382" y2="93.2382"/>
    <line x1="546.469" x2="554.594" y1="100.1132" y2="100.1132"/>
    <polygon points="566.9291,75.5906 566.9291,75.5906 566.9291,75.5906 566.9291,75.5906"/>
    <polygon points="604.7244,75.5906 604.7244,113.3858 642.5197,113.3858 642.5197,75.5906"/>
    <line x1="626.122" x2="626.122" y1="86.9882" y2="100.1132"/>
    <polygon points="642.5197,75.5906 642.5197,75.5906 642.5197,75.5906 642.5197,75.5906"/>
    <polygon points="680.315,75.5906 680.315,75.5906 680.315,75.5906 680.315,75.5906"/>
    <polygon points="718.1102,75.5906 718.1102,75.5906 718.1102,75.5906 718.1102,75.5906"/>
    <polygon points="755.9055,75.5906 755.9055,113.3858 793.7008,113.3858 793.7008,75.5906"/>
    <line x1="773.5531" x2="773.5531" y1="86.9882" y2="100.1132"/>
    <line x1="773.5531" x2="781.0531" y1="100.1132" y2="100.1132"/>
    <polygon points="0.0,113.3858 0.0,113.3858 0.0,113.3858 0.0,113.3858"/>
    <polygon points="37.7953,113.3858 37.7953,113.3858 37.7953,113.3858 37.7953,113.3858"/>
    <polygon points="75.5906,113.3858 75.5906,151.1811 113.3858,151.1811 113.3858,113.3858"/>
    <polyline points="81.4803,117.8051 81.2303,118.5551 80.7303,119.0551 79.9803,119.3051 79.7303,119.3051 78.9803,119.0551 78.4803,118.5551 78.2303,117.8051 78.2303,117.5551 78.4803,116.8051 78.9803,116.3051 79.7303,116.0551 79.9803,116.0551 80.7303,116.3051 81.2303,116.8051 81.4803,117.8051 81.4803,119.0551 81.2303,120.3051 80.7303,121.0551 79.9803,121.3051 79.4803,121.3051 78.7303,121.0551 78.4803,120.5551"/>
    <line x1="95.1132" x2="95.1132" y1="124.7835" y2="137.9085"/>
    <line x1="90.7382" x2="99.4882" y1="124.7835" y2="124.7835"/>
    <polygon points="113.3858,113.3858 113.3858,113.3858 113.3858,113.3858 113.3858,113.3858"/>
    <polygon points="151.1811,113.3858 151.1811,113.3858 151.1811,113.3858 151.1811,113.3858"/>
    <polygon points="188.9764,113.3858 188.9764,113.3858 188.9764,113.3858 188.9764,113.3858"/>
    <polygon points="226.7717,113.3858 226.7717,113.3858 226.7717,113.3858 226.7717,113.3858"/>
    <polygon points="264.5669,113.3858 264.5669,151.1811 302.3622,151.1811 302.3622,113.3858"/>
    <line x1="281.9021" x2="281.9021" y1="124.7835" y2="137.9085"/>
    <line x1="281.9021" x2="290.0271" y1="124.7835" y2="124.7835"/>
    <line x1="281.9021" x2="286.9021" y1="131.0335" y2="131.0335"/>
    <line x1="281.9021" x2="290.0271" y1="137.9085" y2="137.9085"/>
    <polygon points="302.3622,113.3858 302.3622,113.3858 302.3622,113.3858 302.3622,113.3858"/>
    <polygon points="340.1575,113.3858 340.1575,113.3858 340.1575,113.3858 340.1575,113.3858"/>
    <polygon points="377.9528,113.3858 377.9528,113.3858 377.9528,113.3858 377.9528,113.3858"/>
    <polygon points="415.748,113.3858 415.748,151.1811 453.5433,151.1811 453.5433,113.3858"/>
    <line x1="430.2707" x2="435.2707" y1="124.7835" y2="137.9085"/>
    <line x1="440.2707" x2="435.2707" y1="124.7835" y2="137.9085"/>
    <polygon points="453.5433,113.3858 453.5433,113.3858 453.5433,113.3858 453.5433,113.3858"/>
    <polygon points="491.3386,113.3858 491.3386,151.1811 529.1339,151.1811 529.1339,113.3858"/>
    <line x1="508.9862" x2="508.9862" y1="124.7835" y2="137.9085"/>
    <line x1="508.9862" x2="516.4862" y1="137.9085" y2="137.9085"/>
    <polygon points="529.1339,113.3858 529.1339,113.3858 529.1339,113.3858 529.1339,113.3858"/>
    <polygon points="566.9291,113.3858 566.9291,151.1811 604.7244,151.1811 604.7244,113.3858"/>
    <line x1="583.9518" x2="583.9518" y1="124.7835" y2="137.9085"/>
    <line x1="583.9518" x2="592.7018" y1="124.7835" y2="137.9085"/>
    <line x1="592.7018" x2="592.7018" y1="124.7835" y2="137.9085"/>
    <polygon points="604.7244,113.3858 604.7244,113.3858 604.7244,113.3858 604.7244,113.3858"/>
    <polygon points="642.5197,113.3858 642.5197,113.3858 642.5197,113.3858 642.5197,113.3858"/>
    <polygon points="680.315,113.3858 680.315,151.1811 718.1102,151.1811 718.1102,113.3858"/>
    <polyline points="683.7047,117.0551 684.2047,116.8051 684.9547,116.0551 684.9547,121.3051"/>
    <polygon points="689.4547,116.0551 688.7047,116.3051 688.2047,117.0551 687.9547,118.3051 687.9547,119.0551 688.2047,120.3051 688.7047,121.0551 689.4547,121.3051 689.9547,121.3051 690.7047,121.0551 691.2047,120.3051 691.4547,119.0551 691.4547,118.3051 691.2047,117.0551 690.7047,116.3051 689.9547,116.0551"/>
    <line x1="696.7126" x2="696.7126" y1="124.7835" y2="137.9085"/>
    <line x1="696.7126" x2="701.7126" y1="124.7835" y2="137.9085"/>
    <line x1="706.7126" x2="701.7126" y1="124.7835" y2="137.9085"/>
    <line x1="706.7126" x2="706.7126" y1="124.7835" y2="137.9085"/>
    <polygon points="718.1102,113.3858 718.1102,151.1811 755.9055,151.1811 755.9055,113.3858"/>
    <line x1="739.5079" x2="739.5079" y1="124.7835" y2="137.9085"/>
    <polygon points="755.9055,113.3858 755.9055,151.1811 793.7008,151.1811 793.7008,113.3858"/>
    <polyline points="781.0531,126.6585 779.8031,125.4085 777.9281,124.7835 775.4281,124.7835 773.5531,125.4085 772.3031,126.6585 772.3031,127.9085 772.9281,129.1585 773.5531,129.7835 774.8031,130.4085 778.5531,131.6585 779.8031,132.2835 780.4281,132.9085 781.0531,134.1585 781.0531,136.0335 779.8031,137.2835 777.9281,137.9085 775.4281,137.9085 773.5531,137.2835 772.3031,136.0335"/>
    <polygon points="0.0,151.1811 0.0,188.9764 37.7953,188.9764 37.7953,151.1811"/>
    <line x1="14.5226" x2="19.5226" y1="162.5787" y2="175.7037"/>
    <line x1="24.5226" x2="19.5226" y1="162.5787" y2="175.7037"/>
    <polygon points="37.7953,151.1811 37.7953,188.9764 75.5906,188.9764 75.5906,151.1811"/>
    <line x1="55.1304" x2="55.1304" y1="162.5787" y2="175.7037"/>
    <line x1="55.1304" x2="63.2554" y1="162.5787" y2="162.5787"/>
    <line x1="55.1304" x2="60.1304" y1="168.8287" y2="168.8287"/>
    <line x1="55.1304" x2="63.2554" y1="175.7037" y2="175.7037"/>
    <polygon points="75.5906,151.1811 75.5906,188.9764 113.3858,188.9764 113.3858,151.1811"/>
    <line x1="92.6132" x2="92.6132" y1="162.5787" y2="175.7037"/>
    <polyline points="92.6132,162.5787 98.2382,162.5787 100.1132,163.2037 100.7382,163.8287 101.3632,165.0787 101.3632,166.3287 100.7382,167.5787 100.1132,168.2037 98.2382,168.8287 92.6132,168.8287"/>
    <line x1="96.9882" x2="101.3632" y1="168.8287" y2="175.7037"/>
    <polygon points="113.3858,151.1811 113.3858,188.9764 151.1811,188.9764 151.1811,151.1811"/>
    <polyline points="138.5335,164.4537 137.2835,163.2037 135.4085,162.5787 132.9085,162.5787 131.0335,163.2037 129.7835,164.4537 129.7835,165.7037 130.4085,166.9537 131.0335,167.5787 132.2835,168.2037 136.0335,169.4537 137.2835,170.0787 137.9085,170.7037 138.5335,171.9537 138.5335,173.8287 137.2835,175.0787 135.4085,175.7037 132.9085,175.7037 131.0335,175.0787 129.7835,173.8287"/>
    <polygon points="151.1811,151.1811 151.1811,188.9764 188.9764,188.9764 188.9764,151.1811"/>
    <line x1="170.7037" x2="170.7037" y1="162.5787" y2="175.7037"/>
    <line x1="166.3287" x2="175.0787" y1="162.5787" y2="162.5787"/>
    <polygon points="188.9764,151.1811 188.9764,188.9764 226.7717,188.9764 226.7717,151.1811"/>
    <line x1="208.499" x2="203.499" y1="162.5787" y2="175.7037"/>
    <line x1="208.499" x2="213.499" y1="162.5787" y2="175.7037"/>
    <line x1="205.374" x2="211.624" y1="171.3287" y2="171.3287"/>
    <polygon points="226.7717,151.1811 226.7717,188.9764 264.5669,188.9764 264.5669,151.1811"/>
    <line x1="243.7943" x2="243.7943" y1="162.5787" y2="175.7037"/>
    <line x1="243.7943" x2="252.5443" y1="162.5787" y2="175.7037"/>
    <line x1="252.5443" x2="252.5443" y1="162.5787" y2="175.7037"/>
    <polygon points="264.5669,151.1811 264.5669,188.9764 302.3622,188.9764 302.3622,151.1811"/>
    <line x1="281.5896" x2="281.5896" y1="162.5787" y2="175.7037"/>
    <polyline points="281.5896,162.5787 285.9646,162.5787 287.8396,163.2037 289.0896,164.4537 289.7146,165.7037 290.3396,167.5787 290.3396,170.7037 289.7146,172.5787 289.0896,173.8287 287.8396,175.0787 285.9646,175.7037 281.5896,175.7037"/>
    <polygon points="302.3622,151.1811 302.3622,151.1811 302.3622,151.1811 302.3622,151.1811"/>
    <polygon points="340.1575,151.1811 340.1575,151.1811 340.1575,151.1811 340.1575,151.1811"/>
    <polygon points="377.9528,151.1811 377.9528,188.9764 415.748,188.9764 415.748,151.1811"/>
    <line x1="395.2879" x2="395.2879" y1="162.5787" y2="175.7037"/>
    <line x1="395.2879" x2="403.4129" y1="162.5787" y2="162.5787"/>
    <line x1="395.2879" x2="400.2879" y1="168.8287" y2="168.8287"/>
    <line x1="395.2879" x2="403.4129" y1="175.7037" y2="175.7037"/>
    <polygon points="415.748,151.1811 415.748,151.1811 415.748,151.1811 415.748,151.1811"/>
    <polygon points="453.5433,151.1811 453.5433,188.9764 491.3386,188.9764 491.3386,151.1811"/>
    <line x1="471.1909" x2="471.1909" y1="162.5787" y2="175.7037"/>
    <line x1="471.1909" x2="478.6909" y1="175.7037" y2="175.7037"/>
    <polygon points="491.3386,151.1811 491.3386,151.1811 491.3386,151.1811 491.3386,151.1811"/>
    <polygon points="529.1339,151.1811 529.1339,188.9764 566.9291,188.9764 566.9291,151.1811"/>
    <line x1="546.1565" x2="546.1565" y1="162.5787" y2="175.7037"/>
    <polyline points="546.1565,162.5787 550.5315,162.5787 552.4065,163.2037 553.6565,164.4537 554.2815,165.7037 554.9065,167.5787 554.9065,170.7037 554.2815,172.5787 553.6565,173.8287 552.4065,175.0787 550.5315,175.7037 546.1565,175.7037"/>
    <polygon points="566.9291,151.1811 566.9291,151.1811 566.9291,151.1811 566.9291,151.1811"/>
    <polygon points="604.7244,151.1811 604.7244,151.1811 604.7244,151.1811 604.7244,151.1811"/>
    <polygon points="642.5197,151.1811 642.5197,151.1811 642.5197,151.1811 642.5197,151.1811"/>
    <polygon points="680.315,151.1811 680.315,188.9764 718.1102,188.9764 718.1102,151.1811"/>
    <line x1="697.3376" x2="697.3376" y1="162.5787" y2="175.7037"/>
    <line x1="706.0876" x2="697.3376" y1="162.5787" y2="171.3287"/>
    <line x1="700.4626" x2="706.0876" y1="168.2037" y2="175.7037"/>
    <polygon points="718.1102,151.1811 718.1102,151.1811 718.1102,151.1811 718.1102,151.1811"/>
    <polygon points="755.9055,151.1811 755.9055,151.1811 755.9055,151.1811 755.9055,151.1811"/>
    <polygon points="0.0,188.9764 0.0,226.7717 37.7953,226.7717 37.7953,188.9764"/>
    <line x1="17.0226" x2="17.0226" y1="200.374" y2="213.499"/>
    <polyline points="17.0226,200.374 22.6476,200.374 24.5226,200.999 25.1476,201.624 25.7726,202.874 25.7726,204.124 25.1476,205.374 24.5226,205.999 22.6476,206.624 17.0226,206.624"/>
    <line x1="21.3976" x2="25.7726" y1="206.624" y2="213.499"/>
    <polygon points="37.7953,188.9764 37.7953,188.9764 37.7953,188.9764 37.7953,188.9764"/>
    <polygon points="75.5906,188.9764 75.5906,188.9764 75.5906,188.9764 75.5906,188.9764"/>
    <polygon points="113.3858,188.9764 113.3858,188.9764 113.3858,188.9764 113.3858,188.9764"/>
    <polygon points="151.1811,188.9764 151.1811,188.9764 151.1811,188.9764 151.1811,188.9764"/>
    <polygon points="188.9764,188.9764 188.9764,226.7717 226.7717,226.7717 226.7717,188.9764"/>
    <line x1="205.999" x2="205.999" y1="200.374" y2="213.499"/>
    <polyline points="205.999,200.374 211.624,200.374 213.499,200.999 214.124,201.624 214.749,202.874 214.749,204.124 214.124,205.374 213.499,205.999 211.624,206.624"/>
    <polyline points="205.999,206.624 211.624,206.624 213.499,207.249 214.124,207.874 214.749,209.124 214.749,210.999 214.124,212.249 213.499,212.874 211.624,213.499 205.999,213.499"/>
    <polygon points="226.7717,188.9764 226.7717,188.9764 226.7717,188.9764 226.7717,188.9764"/>
    <polygon points="264.5669,188.9764 264.5669,226.7717 302.3622,226.7717 302.3622,188.9764"/>
    <polyline points="267.9567,192.6457 268.4567,192.3957 269.2067,191.6457 269.2067,196.8957"/>
    <polyline points="272.9567,192.6457 273.4567,192.3957 274.2067,191.6457 274.2067,196.8957"/>
    <line x1="281.5896" x2="281.5896" y1="200.374" y2="213.499"/>
    <polyline points="281.5896,200.374 287.2146,200.374 289.0896,200.999 289.7146,201.624 290.3396,202.874 290.3396,204.749 289.7146,205.999 289.0896,206.624 287.2146,207.249 281.5896,207.249"/>
    <polygon points="302.3622,188.9764 302.3622,226.7717 340.1575,226.7717 340.1575,188.9764"/>
    <line x1="321.8848" x2="316.8848" y1="200.374" y2="213.499"/>
    <line x1="321.8848" x2="326.8848" y1="200.374" y2="213.499"/>
    <line x1="318.7598" x2="325.0098" y1="209.124" y2="209.124"/>
    <polygon points="340.1575,188.9764 340.1575,226.7717 377.9528,226.7717 377.9528,188.9764"/>
    <line x1="357.1801" x2="357.1801" y1="200.374" y2="213.499"/>
    <polyline points="357.1801,200.374 362.8051,200.374 364.6801,200.999 365.3051,201.624 365.9301,202.874 365.9301,204.124 365.3051,205.374 364.6801,205.999 362.8051,206.624 357.1801,206.624"/>
    <line x1="361.5551" x2="365.9301" y1="206.624" y2="213.499"/>
    <polygon points="377.9528,188.9764 377.9528,226.7717 415.748,226.7717 415.748,188.9764"/>
    <line x1="394.9754" x2="394.9754" y1="200.374" y2="213.499"/>
    <line x1="403.7254" x2="394.9754" y1="200.374" y2="209.124"/>
    <line x1="398.1004" x2="403.7254" y1="205.999" y2="213.499"/>
    <polygon points="415.748,188.9764 415.748,226.7717 453.5433,226.7717 453.5433,188.9764"/>
    <line x1="433.0832" x2="433.0832" y1="200.374" y2="213.499"/>
    <line x1="433.0832" x2="441.2082" y1="200.374" y2="200.374"/>
    <line x1="433.0832" x2="438.0832" y1="206.624" y2="206.624"/>
    <line x1="433.0832" x2="441.2082" y1="213.499" y2="213.499"/>
    <polygon points="453.5433,188.9764 453.5433,226.7717 491.3386,226.7717 491.3386,188.9764"/>
    <line x1="470.5659" x2="470.5659" y1="200.374" y2="213.499"/>
    <polyline points="470.5659,200.374 476.1909,200.374 478.0659,200.999 478.6909,201.624 479.3159,202.874 479.3159,204.124 478.6909,205.374 478.0659,205.999 476.1909,206.624 470.5659,206.624"/>
    <line x1="474.9409" x2="479.3159" y1="206.624" y2="213.499"/>
    <polygon points="491.3386,188.9764 491.3386,226.7717 529.1339,226.7717 529.1339,188.9764"/>
    <line x1="508.6737" x2="508.6737" y1="200.374" y2="213.499"/>
    <line x1="508.6737" x2="516.7987" y1="200.374" y2="200.374"/>
    <line x1="508.6737" x2="513.6737" y1="206.624" y2="206.624"/>
    <line x1="508.6737" x2="516.7987" y1="213.499" y2="213.499"/>
    <polygon points="529.1339,188.9764 529.1339,226.7717 566.9291,226.7717 566.9291,188.9764"/>
    <line x1="546.1565" x2="546.1565" y1="200.374" y2="213.499"/>
    <line x1="546.1565" x2="554.9065" y1="200.374" y2="213.499"/>
    <line x1="554.9065" x2="554.9065" y1="200.374" y2="213.499"/>
    <polygon points="566.9291,188.9764 566.9291,188.9764 566.9291,188.9764 566.9291,188.9764"/>
    <polygon points="604.7244,188.9764 604.7244,188.9764 604.7244,188.9764 604.7244,188.9764"/>
    <polygon points="642.5197,188.9764 642.5197,226.7717 680.315,226.7717 680.315,188.9764"/>
    <line x1="659.5423" x2="659.5423" y1="200.374" y2="213.499"/>
    <line x1="668.2923" x2="659.5423" y1="200.374" y2="209.124"/>
    <line x1="662.6673" x2="668.2923" y1="205.999" y2="213.499"/>
    <polygon points="680.315,188.9764 680.315,188.9764 680.315,188.9764 680.315,188.9764"/>
    <polygon points="718.1102,188.9764 718.1102,188.9764 718.1102,188.9764 718.1102,188.9764"/>
    <polygon points="755.9055,188.9764 755.9055,226.7717 793.7008,226.7717 793.7008,188.9764"/>
    <line x1="772.9281" x2="772.9281" y1="200.374" y2="213.499"/>
    <polyline points="772.9281,200.374 778.5531,200.374 780.4281,200.999 781.0531,201.624 781.6781,202.874 781.6781,204.124 781.0531,205.374 780.4281,205.999 778.5531,206.624 772.9281,206.624"/>
    <line x1="777.3031" x2="781.6781" y1="206.624" y2="213.499"/>
    <polygon points="0.0,226.7717 0.0,226.7717 0.0,226.7717 0.0,226.7717"/>
    <polygon points="37.7953,226.7717 37.7953,226.7717 37.7953,226.7717 37.7953,226.7717"/>
    <polygon points="75.5906,226.7717 75.5906,226.7717 75.5906,226.7717 75.5906,226.7717"/>
    <polygon points="113.3858,226.7717 113.3858,226.7717 113.3858,226.7717 113.3858,226.7717"/>
    <polygon points="151.1811,226.7717 151.1811,264.5669 188.9764,264.5669 188.9764,226.7717"/>
    <polyline points="168.2037,238.1693 168.2037,247.5443 168.8287,249.4193 170.0787,250.6693 171.9537,251.2943 173.2037,251.2943 175.0787,250.6693 176.3287,249.4193 176.9537,247.5443 176.9537,238.1693"/>
    <polygon points="188.9764,226.7717 188.9764,226.7717 188.9764,226.7717 188.9764,226.7717"/>
    <polygon points="226.7717,226.7717 226.7717,226.7717 226.7717,226.7717 226.7717,226.7717"/>
    <polygon points="264.5669,226.7717 264.5669,226.7717 264.5669,226.7717 264.5669,226.7717"/>
    <polygon points="302.3622,226.7717 302.3622,264.5669 340.1575,264.5669 340.1575,226.7717"/>
    <line x1="321.8848" x2="321.8848" y1="238.1693" y2="251.2943"/>
    <line x1="317.5098" x2="326.2598" y1="238.1693" y2="238.1693"/>
    <polygon points="340.1575,226.7717 340.1575,226.7717 340.1575,226.7717 340.1575,226.7717"/>
    <polygon points="377.9528,226.7717 377.9528,264.5669 415.748,264.5669 415.748,226.7717"/>
    <line x1="394.9754" x2="394.9754" y1="238.1693" y2="251.2943"/>
    <line x1="403.7254" x2="394.9754" y1="238.1693" y2="246.9193"/>
    <line x1="398.1004" x2="403.7254" y1="243.7943" y2="251.2943"/>
    <polygon points="415.748,226.7717 415.748,226.7717 415.748,226.7717 415.748,226.7717"/>
    <polygon points="453.5433,226.7717 453.5433,264.5669 491.3386,264.5669 491.3386,226.7717"/>
    <line x1="470.5659" x2="470.5659" y1="238.1693" y2="251.2943"/>
    <polyline points="470.5659,238.1693 476.1909,238.1693 478.0659,238.7943 478.6909,239.4193 479.3159,240.6693 479.3159,241.9193 478.6909,243.1693 478.0659,243.7943 476.1909,244.4193 470.5659,244.4193"/>
    <line x1="474.9409" x2="479.3159" y1="244.4193" y2="251.2943"/>
    <polygon points="491.3386,226.7717 491.3386,226.7717 491.3386,226.7717 491.3386,226.7717"/>
    <polygon points="529.1339,226.7717 529.1339,226.7717 529.1339,226.7717 529.1339,226.7717"/>
    <polygon points="566.9291,226.7717 566.9291,226.7717 566.9291,226.7717 566.9291,226.7717"/>
    <polygon points="604.7244,226.7717 604.7244,264.5669 642.5197,264.5669 642.5197,226.7717"/>
    <line x1="622.0595" x2="622.0595" y1="238.1693" y2="251.2943"/>
    <line x1="622.0595" x2="630.1845" y1="238.1693" y2="238.1693"/>
    <line x1="622.0595" x2="627.0595" y1="244.4193" y2="244.4193"/>
    <line x1="622.0595" x2="630.1845" y1="251.2943" y2="251.2943"/>
    <polygon points="642.5197,226.7717 642.5197,226.7717 642.5197,226.7717 642.5197,226.7717"/>
    <polygon points="680.315,226.7717 680.315,264.5669 718.1102,264.5669 718.1102,226.7717"/>
    <polyline points="683.7047,230.4409 684.2047,230.1909 684.9547,229.4409 684.9547,234.6909"/>
    <polyline points="688.2047,230.6909 688.2047,230.4409 688.4547,229.9409 688.7047,229.6909 689.2047,229.4409 690.2047,229.4409 690.7047,229.6909 690.9547,229.9409 691.2047,230.4409 691.2047,230.9409 690.9547,231.4409 690.4547,232.1909 687.9547,234.6909 691.4547,234.6909"/>
    <line x1="696.7126" x2="696.7126" y1="238.1693" y2="251.2943"/>
    <line x1="696.7126" x2="701.7126" y1="238.1693" y2="251.2943"/>
    <line x1="706.7126" x2="701.7126" y1="238.1693" y2="251.2943"/>
    <line x1="706.7126" x2="706.7126" y1="238.1693" y2="251.2943"/>
    <polygon points="718.1102,226.7717 718.1102,264.5669 755.9055,264.5669 755.9055,226.7717"/>
    <line x1="737.6329" x2="732.6329" y1="238.1693" y2="251.2943"/>
    <line x1="737.6329" x2="742.6329" y1="238.1693" y2="251.2943"/>
    <line x1="734.5079" x2="740.7579" y1="246.9193" y2="246.9193"/>
    <polygon points="755.9055,226.7717 755.9055,264.5669 793.7008,264.5669 793.7008,226.7717"/>
    <line x1="772.9281" x2="772.9281" y1="238.1693" y2="251.2943"/>
    <line x1="772.9281" x2="781.6781" y1="238.1693" y2="251.2943"/>
    <line x1="781.6781" x2="781.6781" y1="238.1693" y2="251.2943"/>
    <polygon points="0.0,264.5669 0.0,302.3622 37.7953,302.3622 37.7953,264.5669"/>
    <line x1="17.0226" x2="17.0226" y1="275.9646" y2="289.0896"/>
    <polyline points="17.0226,275.9646 21.3976,275.9646 23.2726,276.5896 24.5226,277.8396 25.1476,279.0896 25.7726,280.9646 25.7726,284.0896 25.1476,285.9646 24.5226,287.2146 23.2726,288.4646 21.3976,289.0896 17.0226,289.0896"/>
    <polygon points="37.7953,264.5669 37.7953,302.3622 75.5906,302.3622 75.5906,264.5669"/>
    <line x1="57.3179" x2="52.3179" y1="275.9646" y2="289.0896"/>
    <line x1="57.3179" x2="62.3179" y1="275.9646" y2="289.0896"/>
    <line x1="54.1929" x2="60.4429" y1="284.7146" y2="284.7146"/>
    <polygon points="75.5906,264.5669 75.5906,302.3622 113.3858,302.3622 113.3858,264.5669"/>
    <line x1="92.6132" x2="92.6132" y1="275.9646" y2="289.0896"/>
    <polyline points="92.6132,275.9646 98.2382,275.9646 100.1132,276.5896 100.7382,277.2146 101.3632,278.4646 101.3632,279.7146 100.7382,280.9646 100.1132,281.5896 98.2382,282.2146 92.6132,282.2146"/>
    <line x1="96.9882" x2="101.3632" y1="282.2146" y2="289.0896"/>
    <polygon points="113.3858,264.5669 113.3858,302.3622 151.1811,302.3622 151.1811,264.5669"/>
    <line x1="134.7835" x2="134.7835" y1="275.9646" y2="289.0896"/>
    <polygon points="151.1811,264.5669 151.1811,302.3622 188.9764,302.3622 188.9764,264.5669"/>
    <polyline points="154.5709,268.2362 155.0709,267.9862 155.8209,267.2362 155.8209,272.4862"/>
    <polyline points="159.3209,267.2362 162.0709,267.2362 160.5709,269.2362 161.3209,269.2362 161.8209,269.4862 162.0709,269.7362 162.3209,270.4862 162.3209,270.9862 162.0709,271.7362 161.5709,272.2362 160.8209,272.4862 160.0709,272.4862 159.3209,272.2362 159.0709,271.9862 158.8209,271.4862"/>
    <polyline points="174.4537,275.9646 174.4537,285.9646 173.8287,287.8396 173.2037,288.4646 171.9537,289.0896 170.7037,289.0896 169.4537,288.4646 168.8287,287.8396 168.2037,285.9646 168.2037,284.7146"/>
    <polygon points="188.9764,264.5669 188.9764,302.3622 226.7717,302.3622 226.7717,264.5669"/>
    <line x1="205.999" x2="205.999" y1="275.9646" y2="289.0896"/>
    <line x1="205.999" x2="214.749" y1="275.9646" y2="289.0896"/>
    <line x1="214.749" x2="214.749" y1="275.9646" y2="289.0896"/>
    <polygon points="226.7717,264.5669 226.7717,264.5669 226.7717,264.5669 226.7717,264.5669"/>
    <polygon points="264.5669,264.5669 264.5669,302.3622 302.3622,302.3622 302.3622,264.5669"/>
    <polyline points="287.8396,275.9646 287.8396,285.9646 287.2146,287.8396 286.5896,288.4646 285.3396,289.0896 284.0896,289.0896 282.8396,288.4646 282.2146,287.8396 281.5896,285.9646 281.5896,284.7146"/>
    <polygon points="302.3622,264.5669 302.3622,264.5669 302.3622,264.5669 302.3622,264.5669"/>
    <polygon points="340.1575,264.5669 340.1575,302.3622 377.9528,302.3622 377.9528,264.5669"/>
    <line x1="357.4926" x2="357.4926" y1="275.9646" y2="289.0896"/>
    <line x1="357.4926" x2="365.6176" y1="275.9646" y2="275.9646"/>
    <line x1="357.4926" x2="362.4926" y1="282.2146" y2="282.2146"/>
    <line x1="357.4926" x2="365.6176" y1="289.0896" y2="289.0896"/>
    <polygon points="377.9528,264.5669 377.9528,264.5669 377.9528,264.5669 377.9528,264.5669"/>
    <polygon points="415.748,264.5669 415.748,302.3622 453.5433,302.3622 453.5433,264.5669"/>
    <line x1="433.0832" x2="433.0832" y1="275.9646" y2="289.0896"/>
    <line x1="433.0832" x2="441.2082" y1="275.9646" y2="275.9646"/>
    <line x1="433.0832" x2="438.0832" y1="282.2146" y2="282.2146"/>
    <line x1="433.0832" x2="441.2082" y1="289.0896" y2="289.0896"/>
    <polygon points="453.5433,264.5669 453.5433,264.5669 453.5433,264.5669 453.5433,264.5669"/>
    <polygon points="491.3386,264.5669 491.3386,302.3622 529.1339,302.3622 529.1339,264.5669"/>
    <polyline points="494.7283,268.2362 495.2283,267.9862 495.9783,267.2362 495.9783,272.4862"/>
    <polyline points="501.4783,267.2362 498.9783,270.7362 502.7283,270.7362"/>
    <line x1="501.4783" x2="501.4783" y1="267.2362" y2="272.4862"/>
    <polyline points="516.7987,279.0896 516.1737,277.8396 514.9237,276.5896 513.6737,275.9646 511.1737,275.9646 509.9237,276.5896 508.6737,277.8396 508.0487,279.0896 507.4237,280.9646 507.4237,284.0896 508.0487,285.9646 508.6737,287.2146 509.9237,288.4646 511.1737,289.0896 513.6737,289.0896 514.9237,288.4646 516.1737,287.2146 516.7987,285.9646 516.7987,284.0896"/>
    <line x1="513.6737" x2="516.7987" y1="284.0896" y2="284.0896"/>
    <polygon points="529.1339,264.5669 529.1339,302.3622 566.9291,302.3622 566.9291,264.5669"/>
    <line x1="550.5315" x2="550.5315" y1="275.9646" y2="289.0896"/>
    <polygon points="566.9291,264.5669 566.9291,302.3622 604.7244,302.3622 604.7244,264.5669"/>
    <line x1="583.9518" x2="583.9518" y1="275.9646" y2="289.0896"/>
    <line x1="583.9518" x2="592.7018" y1="275.9646" y2="289.0896"/>
    <line x1="592.7018" x2="592.7018" y1="275.9646" y2="289.0896"/>
    <polygon points="604.7244,264.5669 604.7244,302.3622 642.5197,302.3622 642.5197,264.5669"/>
    <polygon points="624.247,275.9646 622.997,276.5896 621.747,277.8396 621.122,279.0896 620.497,280.9646 620.497,284.0896 621.122,285.9646 621.747,287.2146 622.997,288.4646 624.247,289.0896 626.747,289.0896 627.997,288.4646 629.247,287.2146 629.872,285.9646 630.497,284.0896 630.497,280.9646 629.872,279.0896 629.247,277.8396 627.997,276.5896 626.747,275.9646"/>
    <polygon points="642.5197,264.5669 642.5197,264.5669 642.5197,264.5669 642.5197,264.5669"/>
    <polygon points="680.315,264.5669 680.315,302.3622 718.1102,302.3622 718.1102,264.5669"/>
    <polyline points="705.4626,277.8396 704.2126,276.5896 702.3376,275.9646 699.8376,275.9646 697.9626,276.5896 696.7126,277.8396 696.7126,279.0896 697.3376,280.3396 697.9626,280.9646 699.2126,281.5896 702.9626,282.8396 704.2126,283.4646 704.8376,284.0896 705.4626,285.3396 705.4626,287.2146 704.2126,288.4646 702.3376,289.0896 699.8376,289.0896 697.9626,288.4646 696.7126,287.2146"/>
    <polygon points="718.1102,264.5669 718.1102,264.5669 718.1102,264.5669 718.1102,264.5669"/>
    <polygon points="755.9055,264.5669 755.9055,264.5669 755.9055,264.5669 755.9055,264.5669"/>
    <polygon points="0.0,302.3622 0.0,302.3622 0.0,302.3622 0.0,302.3622"/>
    <polygon points="37.7953,302.3622 37.7953,302.3622 37.7953,302.3622 37.7953,302.3622"/>
    <polygon points="75.5906,302.3622 75.5906,302.3622 75.5906,302.3622 75.5906,302.3622"/>
    <polygon points="113.3858,302.3622 113.3858,340.1575 151.1811,340.1575 151.1811,302.3622"/>
    <line x1="132.9085" x2="127.9085" y1="313.7598" y2="326.8848"/>
    <line x1="132.9085" x2="137.9085" y1="313.7598" y2="326.8848"/>
    <line x1="129.7835" x2="136.0335" y1="322.5098" y2="322.5098"/>
    <polygon points="151.1811,302.3622 151.1811,302.3622 151.1811,302.3622 151.1811,302.3622"/>
    <polygon points="188.9764,302.3622 188.9764,340.1575 226.7717,340.1575 226.7717,302.3622"/>
    <polyline points="192.3661,306.0315 192.8661,305.7815 193.6161,305.0315 193.6161,310.2815"/>
    <polyline points="199.6161,305.0315 197.1161,305.0315 196.8661,307.2815 197.1161,307.0315 197.8661,306.7815 198.6161,306.7815 199.3661,307.0315 199.8661,307.5315 200.1161,308.2815 200.1161,308.7815 199.8661,309.5315 199.3661,310.0315 198.6161,310.2815 197.8661,310.2815 197.1161,310.0315 196.8661,309.7815 196.6161,309.2815"/>
    <line x1="205.999" x2="205.999" y1="313.7598" y2="326.8848"/>
    <polyline points="205.999,313.7598 211.624,313.7598 213.499,314.3848 214.124,315.0098 214.749,316.2598 214.749,317.5098 214.124,318.7598 213.499,319.3848 211.624,320.0098"/>
    <polyline points="205.999,320.0098 211.624,320.0098 213.499,320.6348 214.124,321.2598 214.749,322.5098 214.749,324.3848 214.124,325.6348 213.499,326.2598 211.624,326.8848 205.999,326.8848"/>
    <polygon points="226.7717,302.3622 226.7717,340.1575 264.5669,340.1575 264.5669,302.3622"/>
    <line x1="244.1068" x2="244.1068" y1="313.7598" y2="326.8848"/>
    <line x1="244.1068" x2="252.2318" y1="313.7598" y2="313.7598"/>
    <line x1="244.1068" x2="249.1068" y1="320.0098" y2="320.0098"/>
    <line x1="244.1068" x2="252.2318" y1="326.8848" y2="326.8848"/>
    <polygon points="264.5669,302.3622 264.5669,340.1575 302.3622,340.1575 302.3622,302.3622"/>
    <line x1="284.0896" x2="279.0896" y1="313.7598" y2="326.8848"/>
    <line x1="284.0896" x2="289.0896" y1="313.7598" y2="326.8848"/>
    <line x1="280.9646" x2="287.2146" y1="322.5098" y2="322.5098"/>
    <polygon points="302.3622,302.3622 302.3622,302.3622 302.3622,302.3622 302.3622,302.3622"/>
    <polygon points="340.1575,302.3622 340.1575,302.3622 340.1575,302.3622 340.1575,302.3622"/>
    <polygon points="377.9528,302.3622 377.9528,340.1575 415.748,340.1575 415.748,302.3622"/>
    <line x1="394.9754" x2="394.9754" y1="313.7598" y2="326.8848"/>
    <line x1="394.9754" x2="403.7254" y1="313.7598" y2="326.8848"/>
    <line x1="403.7254" x2="403.7254" y1="313.7598" y2="326.8848"/>
    <polygon points="415.748,302.3622 415.748,302.3622 415.748,302.3622 415.748,302.3622"/>
    <polygon points="453.5433,302.3622 453.5433,302.3622 453.5433,302.3622 453.5433,302.3622"/>
    <polygon points="491.3386,302.3622 491.3386,302.3622 491.3386,302.3622 491.3386,302.3622"/>
    <polygon points="529.1339,302.3622 529.1339,302.3622 529.1339,302.3622 529.1339,302.3622"/>
    <polygon points="566.9291,302.3622 566.9291,302.3622 566.9291,302.3622 566.9291,302.3622"/>
    <polygon points="604.7244,302.3622 604.7244,302.3622 604.7244,302.3622 604.7244,302.3622"/>
    <polygon points="642.5197,302.3622 642.5197,302.3622 642.5197,302.3622 642.5197,302.3622"/>
    <polygon points="680.315,302.3622 680.315,302.3622 680.315,302.3622 680.315,302.3622"/>
    <polygon points="718.1102,302.3622 718.1102,302.3622 718.1102,302.3622 718.1102,302.3622"/>
    <polygon points="755.9055,302.3622 755.9055,302.3622 755.9055,302.3622 755.9055,302.3622"/>
  </g>
</svg>
