<?xml version="1.0" encoding="utf-8" ?>
<svg xmlns="http://www.w3.org/2000/svg" xmlns:cc="http://creativecommons.org/ns" xmlns:dc="http://purl.org/dc/elements/1.1/" xmlns:ev="http://www.w3.org/2001/xml-events" xmlns:inkscape="http://www.inkscape.org/namespaces/inkscape" xmlns:rdf="http://www.w3.org/1999/02/22-rdf-syntax-ns" xmlns:sodipodi="http://sodipodi.sourceforge.net/DTD/sodipodi-0.dtd" xmlns:xlink="http://www.w3.org/1999/xlink" baseProfile="tiny" height="9.9cm" version="1.2" viewBox="0 0 793.7007874015749 374.1732283464567" width="21.0cm">
  <metadata>
    <rdf:RDF>
      <cc:Work>
        <dc:format>image/svg+xml</dc:format>
        <dc:source>vpype eval 'cell=10;width=210;height=99' eval 'nCols=20;nRows=9' eval 'cells=[1,8,10,13,14,15,16,17,18,19,20,21,22,23,28,30,32,35,37,41,44,45,46,47,48,49,50,51,52,53,54,55,59,61,68,70,72,75,79,80,81,82,83,84,85,86,87,88,89,90,92,93,94,95,96,97,98,99,101,104,110,112,115,119,121,124,127,128,129,130,131,132,133,134,135,136,139,140,141,142,143,144,145,146,150,155,159,161,164,171,172,173,174,175,176,177,178]' eval 'chars=[&quot;U&quot;,&quot;K&quot;,&quot;H&quot;,&quot;O&quot;,&quot;O&quot;,&quot;R&quot;,&quot;T&quot;,&quot;J&quot;,&quot;E&quot;,&quot;S&quot;,&quot;P&quot;,&quot;I&quot;,&quot;P&quot;,&quot;I&quot;,&quot;A&quot;,&quot;A&quot;,&quot;T&quot;,&quot;E&quot;,&quot;A&quot;,&quot;T&quot;,&quot;F&quot;,&quot;L&quot;,&quot;E&quot;,&quot;S&quot;,&quot;S&quot;,&quot;E&quot;,&quot;N&quot;,&quot;G&quot;,&quot;E&quot;,&quot;L&quot;,&quot;U&quot;,&quot;K&quot;,&quot;C&quot;,&quot;L&quot;,&quot;S&quot;,&quot;D&quot;,&quot;R&quot;,&quot;K&quot;,&quot;H&quot;,&quot;M&quot;,&quot;I&quot;,&quot;S&quot;,&quot;V&quot;,&quot;E&quot;,&quot;R&quot;,&quot;S&quot;,&quot;T&quot;,&quot;A&quot;,&quot;N&quot;,&quot;D&quot;,&quot;R&quot;,&quot;E&quot;,&quot;G&quot;,&quot;E&quot;,&quot;N&quot;,&quot;B&quot;,&quot;U&quot;,&quot;I&quot;,&quot;K&quot;,&quot;L&quot;,&quot;O&quot;,&quot;A&quot;,&quot;R&quot;,&quot;P&quot;,&quot;K&quot;,&quot;L&quot;,&quot;G&quot;,&quot;R&quot;,&quot;O&quot;,&quot;E&quot;,&quot;P&quot;,&quot;S&quot;,&quot;F&quot;,&quot;O&quot;,&quot;T&quot;,&quot;O&quot;,&quot;J&quot;,&quot;V&quot;,&quot;E&quot;,&quot;L&quot;,&quot;L&quot;,&quot;E&quot;,&quot;K&quot;,&quot;E&quot;,&quot;K&quot;,&quot;J&quot;,&quot;E&quot;,&quot;N&quot;,&quot;N&quot;,&quot;P&quot;,&quot;A&quot;,&quot;R&quot;,&quot;K&quot;,&quot;E&quot;,&quot;R&quot;,&quot;E&quot;,&quot;N&quot;]' eval 'numbers=[1,8,10,13,15,17,20,32,44,59,80,84,92,127,140,171]' eval counter=1 eval charIndex=0 begin grid -o '%cell*mm%' '%cell*mm%' %nCols% %nRows% eval '%isCell=_i in cells%' eval '%number=_i in numbers%' eval '%size=10 if isCell else 0%' rect 0 0 '%size*mm%' '%size*mm%' text -s 10 -p 0.5mm 1.5mm '%counter if number else '&quot;'&quot;''&quot;'&quot;'%' text -s 20 -p 5mm 5mm -a center '%chars[charIndex] if isCell else '&quot;'&quot;''&quot;'&quot;'%' eval '%if number: counter+=1 %' eval '%if isCell: charIndex+=1 %' end splitall deduplicate linemerge --tolerance 0.1mm write -m none --page-size '%width*mm%x%height*mm%' --center ./svgs/solution/b692ed.svg
</dc:source>
        <dc:date>2024-01-06T16:44:06.704975</dc:date>
      </cc:Work>
    </rdf:RDF>
  </metadata>
  <defs/>
  <g fill="none" id="layer1" inkscape:groupmode="layer" inkscape:label="1" stroke="#000000" style="display:inline">
    <polygon points="56.6929,17.0079 56.6929,54.8031 56.6929,54.8031 18.8976,54.8031 18.8976,54.8031 18.8976,92.5984 18.8976,92.5984 56.6929,92.5984 56.6929,92.5984 56.6929,130.3937 56.6929,130.3937 56.6929,168.189 56.6929,168.189 18.8976,168.189 18.8976,168.189 18.8976,205.9843 18.8976,205.9843 56.6929,205.9843 56.6929,205.9843 56.6929,168.189 56.6929,168.189 94.4882,168.189 94.4882,168.189 94.4882,130.3937 94.4882,130.3937 94.4882,92.5984 94.4882,92.5984 132.2835,92.5984 132.2835,92.5984 170.0787,92.5984 170.0787,92.5984 170.0787,54.8031 170.0787,54.8031 132.2835,54.8031 132.2835,54.8031 94.4882,54.8031 94.4882,54.8031 94.4882,17.0079 94.4882,17.0079"/>
    <polygon points="56.6929,54.8031 94.4882,54.8031 94.4882,54.8031 94.4882,92.5984 94.4882,92.5984 56.6929,92.5984 56.6929,92.5984"/>
    <polyline points="60.4577,20.1772 61.0827,19.8647 61.0827,19.8647 62.0202,18.9272 62.0202,18.9272 62.0202,25.4897"/>
    <polyline points="73.7156,28.4055 73.7156,37.7805 73.7156,37.7805 74.3406,39.6555 74.3406,39.6555 75.5906,40.9055 75.5906,40.9055 77.4656,41.5305 77.4656,41.5305 78.7156,41.5305 78.7156,41.5305 80.5906,40.9055 80.5906,40.9055 81.8406,39.6555 81.8406,39.6555 82.4656,37.7805 82.4656,37.7805 82.4656,28.4055"/>
    <polyline points="434.6457,168.189 434.6457,205.9843 434.6457,205.9843 396.8504,205.9843 396.8504,205.9843 396.8504,168.189 396.8504,168.189 434.6457,168.189 434.6457,168.189 434.6457,130.3937 434.6457,130.3937 472.4409,130.3937 472.4409,130.3937 510.2362,130.3937 510.2362,130.3937 510.2362,92.5984 510.2362,92.5984 548.0315,92.5984 548.0315,92.5984 585.8268,92.5984 585.8268,92.5984 585.8268,130.3937 585.8268,130.3937 548.0315,130.3937 548.0315,130.3937 510.2362,130.3937 510.2362,130.3937 510.2362,168.189 510.2362,168.189 472.4409,168.189 472.4409,168.189 472.4409,130.3937 472.4409,130.3937 472.4409,92.5984 472.4409,92.5984 472.4409,54.8031 472.4409,54.8031 510.2362,54.8031 510.2362,54.8031 510.2362,17.0079 510.2362,17.0079 548.0315,17.0079 548.0315,17.0079 548.0315,54.8031 548.0315,54.8031 510.2362,54.8031 510.2362,54.8031 510.2362,92.5984 510.2362,92.5984 472.4409,92.5984 472.4409,92.5984 434.6457,92.5984 434.6457,92.5984 434.6457,130.3937 434.6457,130.3937 396.8504,130.3937 396.8504,130.3937 359.0551,130.3937 359.0551,130.3937 359.0551,168.189 359.0551,168.189 396.8504,168.189 396.8504,168.189 396.8504,130.3937 396.8504,130.3937 396.8504,92.5984 396.8504,92.5984 396.8504,54.8031 396.8504,54.8031 396.8504,17.0079 396.8504,17.0079 434.6457,17.0079 434.6457,17.0079 434.6457,54.8031 434.6457,54.8031 434.6457,92.5984 434.6457,92.5984 396.8504,92.5984 396.8504,92.5984 359.0551,92.5984 359.0551,92.5984 359.0551,54.8031 359.0551,54.8031 359.0551,17.0079 359.0551,17.0079 321.2598,17.0079 321.2598,17.0079 321.2598,54.8031 321.2598,54.8031 321.2598,92.5984 321.2598,92.5984 283.4646,92.5984 283.4646,92.5984 245.6693,92.5984 245.6693,92.5984 207.874,92.5984 207.874,92.5984 170.0787,92.5984 170.0787,92.5984 170.0787,130.3937 170.0787,130.3937 207.874,130.3937 207.874,130.3937 245.6693,130.3937 245.6693,130.3937 245.6693,92.5984"/>
    <line x1="321.2598" x2="359.0551" y1="54.8031" y2="54.8031"/>
    <polyline points="324.3996,20.4897 324.3996,20.1772 324.3996,20.1772 324.7121,19.5522 324.7121,19.5522 325.0246,19.2397 325.0246,19.2397 325.6496,18.9272 325.6496,18.9272 326.8996,18.9272 326.8996,18.9272 327.5246,19.2397 327.5246,19.2397 327.8371,19.5522 327.8371,19.5522 328.1496,20.1772 328.1496,20.1772 328.1496,20.8022 328.1496,20.8022 327.8371,21.4272 327.8371,21.4272 327.2121,22.3647 327.2121,22.3647 324.0871,25.4897 324.0871,25.4897 328.4621,25.4897"/>
    <line x1="338.2825" x2="338.2825" y1="28.4055" y2="41.5305"/>
    <line x1="347.0325" x2="338.2825" y1="28.4055" y2="37.1555"/>
    <line x1="341.4075" x2="347.0325" y1="34.0305" y2="41.5305"/>
    <line x1="396.8504" x2="434.6457" y1="54.8031" y2="54.8031"/>
    <polyline points="400.3027,18.9272 403.7402,18.9272 403.7402,18.9272 401.8652,21.4272 401.8652,21.4272 402.8027,21.4272 402.8027,21.4272 403.4277,21.7397 403.4277,21.7397 403.7402,22.0522 403.7402,22.0522 404.0527,22.9897 404.0527,22.9897 404.0527,23.6147 404.0527,23.6147 403.7402,24.5522 403.7402,24.5522 403.1152,25.1772 403.1152,25.1772 402.1777,25.4897 402.1777,25.4897 401.2402,25.4897 401.2402,25.4897 400.3027,25.1772 400.3027,25.1772 399.9902,24.8647 399.9902,24.8647 399.6777,24.2397"/>
    <line x1="413.873" x2="413.873" y1="28.4055" y2="41.5305"/>
    <line x1="422.623" x2="422.623" y1="28.4055" y2="41.5305"/>
    <line x1="413.873" x2="422.623" y1="34.6555" y2="34.6555"/>
    <polyline points="516.1885,25.4897 516.1885,18.9272 516.1885,18.9272 513.0635,23.3022 513.0635,23.3022 517.751,23.3022"/>
    <polygon points="529.7589,28.4055 528.5089,29.0305 528.5089,29.0305 527.2589,30.2805 527.2589,30.2805 526.6339,31.5305 526.6339,31.5305 526.0089,33.4055 526.0089,33.4055 526.0089,36.5305 526.0089,36.5305 526.6339,38.4055 526.6339,38.4055 527.2589,39.6555 527.2589,39.6555 528.5089,40.9055 528.5089,40.9055 529.7589,41.5305 529.7589,41.5305 532.2589,41.5305 532.2589,41.5305 533.5089,40.9055 533.5089,40.9055 534.7589,39.6555 534.7589,39.6555 535.3839,38.4055 535.3839,38.4055 536.0089,36.5305 536.0089,36.5305 536.0089,33.4055 536.0089,33.4055 535.3839,31.5305 535.3839,31.5305 534.7589,30.2805 534.7589,30.2805 533.5089,29.0305 533.5089,29.0305 532.2589,28.4055 532.2589,28.4055"/>
    <polyline points="548.0315,54.8031 585.8268,54.8031 585.8268,54.8031 585.8268,17.0079 585.8268,17.0079 548.0315,17.0079"/>
    <polygon points="567.5541,28.4055 566.3041,29.0305 566.3041,29.0305 565.0541,30.2805 565.0541,30.2805 564.4291,31.5305 564.4291,31.5305 563.8041,33.4055 563.8041,33.4055 563.8041,36.5305 563.8041,36.5305 564.4291,38.4055 564.4291,38.4055 565.0541,39.6555 565.0541,39.6555 566.3041,40.9055 566.3041,40.9055 567.5541,41.5305 567.5541,41.5305 570.0541,41.5305 570.0541,41.5305 571.3041,40.9055 571.3041,40.9055 572.5541,39.6555 572.5541,39.6555 573.1791,38.4055 573.1791,38.4055 573.8041,36.5305 573.8041,36.5305 573.8041,33.4055 573.8041,33.4055 573.1791,31.5305 573.1791,31.5305 572.5541,30.2805 572.5541,30.2805 571.3041,29.0305 571.3041,29.0305 570.0541,28.4055 570.0541,28.4055"/>
    <polyline points="623.622,17.0079 623.622,54.8031 623.622,54.8031 623.622,92.5984 623.622,92.5984 585.8268,92.5984 585.8268,92.5984 585.8268,54.8031 585.8268,54.8031 623.622,54.8031 623.622,54.8031 661.4173,54.8031 661.4173,54.8031 661.4173,17.0079 661.4173,17.0079 623.622,17.0079 623.622,17.0079 585.8268,17.0079"/>
    <polyline points="592.404,18.9272 589.279,18.9272 589.279,18.9272 588.9665,21.7397 588.9665,21.7397 589.279,21.4272 589.279,21.4272 590.2165,21.1147 590.2165,21.1147 591.154,21.1147 591.154,21.1147 592.0915,21.4272 592.0915,21.4272 592.7165,22.0522 592.7165,22.0522 593.029,22.9897 593.029,22.9897 593.029,23.6147 593.029,23.6147 592.7165,24.5522 592.7165,24.5522 592.0915,25.1772 592.0915,25.1772 591.154,25.4897 591.154,25.4897 590.2165,25.4897 590.2165,25.4897 589.279,25.1772 589.279,25.1772 588.9665,24.8647 588.9665,24.8647 588.654,24.2397"/>
    <polyline points="602.8494,34.6555 608.4744,34.6555 608.4744,34.6555 610.3494,34.0305 610.3494,34.0305 610.9744,33.4055 610.9744,33.4055 611.5994,32.1555 611.5994,32.1555 611.5994,30.9055 611.5994,30.9055 610.9744,29.6555 610.9744,29.6555 610.3494,29.0305 610.3494,29.0305 608.4744,28.4055 608.4744,28.4055 602.8494,28.4055 602.8494,28.4055 602.8494,41.5305"/>
    <line x1="607.2244" x2="611.5994" y1="34.6555" y2="41.5305"/>
    <line x1="643.1447" x2="643.1447" y1="28.4055" y2="41.5305"/>
    <line x1="638.7697" x2="647.5197" y1="28.4055" y2="28.4055"/>
    <polyline points="699.2126,17.0079 737.0079,17.0079 737.0079,17.0079 774.8031,17.0079 774.8031,17.0079 774.8031,54.8031 774.8031,54.8031 737.0079,54.8031 737.0079,54.8031 699.2126,54.8031 699.2126,54.8031 699.2126,92.5984 699.2126,92.5984 661.4173,92.5984 661.4173,92.5984 661.4173,54.8031 661.4173,54.8031 699.2126,54.8031 699.2126,54.8031 699.2126,17.0079 699.2126,17.0079 661.4173,17.0079"/>
    <polyline points="668.3071,19.8647 667.9946,19.2397 667.9946,19.2397 667.0571,18.9272 667.0571,18.9272 666.4321,18.9272 666.4321,18.9272 665.4946,19.2397 665.4946,19.2397 664.8696,20.1772 664.8696,20.1772 664.5571,21.7397 664.5571,21.7397 664.5571,23.3022 664.5571,23.3022 664.8696,24.5522 664.8696,24.5522 665.4946,25.1772 665.4946,25.1772 666.4321,25.4897 666.4321,25.4897 666.7446,25.4897 666.7446,25.4897 667.6821,25.1772 667.6821,25.1772 668.3071,24.5522 668.3071,24.5522 668.6196,23.6147 668.6196,23.6147 668.6196,23.3022 668.6196,23.3022 668.3071,22.3647 668.3071,22.3647 667.6821,21.7397 667.6821,21.7397 666.7446,21.4272 666.7446,21.4272 666.4321,21.4272 666.4321,21.4272 665.4946,21.7397 665.4946,21.7397 664.8696,22.3647 664.8696,22.3647 664.5571,23.3022"/>
    <polyline points="684.69,28.4055 684.69,38.4055 684.69,38.4055 684.065,40.2805 684.065,40.2805 683.44,40.9055 683.44,40.9055 682.19,41.5305 682.19,41.5305 680.94,41.5305 680.94,41.5305 679.69,40.9055 679.69,40.9055 679.065,40.2805 679.065,40.2805 678.44,38.4055 678.44,38.4055 678.44,37.1555"/>
    <line x1="737.0079" x2="737.0079" y1="54.8031" y2="17.0079"/>
    <polyline points="724.6727,28.4055 716.5477,28.4055 716.5477,28.4055 716.5477,41.5305 716.5477,41.5305 724.6727,41.5305"/>
    <line x1="716.5477" x2="721.5477" y1="34.6555" y2="34.6555"/>
    <polyline points="762.1555,30.2805 760.9055,29.0305 760.9055,29.0305 759.0305,28.4055 759.0305,28.4055 756.5305,28.4055 756.5305,28.4055 754.6555,29.0305 754.6555,29.0305 753.4055,30.2805 753.4055,30.2805 753.4055,31.5305 753.4055,31.5305 754.0305,32.7805 754.0305,32.7805 754.6555,33.4055 754.6555,33.4055 755.9055,34.0305 755.9055,34.0305 759.6555,35.2805 759.6555,35.2805 760.9055,35.9055 760.9055,35.9055 761.5305,36.5305 761.5305,36.5305 762.1555,37.7805 762.1555,37.7805 762.1555,39.6555 762.1555,39.6555 760.9055,40.9055 760.9055,40.9055 759.0305,41.5305 759.0305,41.5305 756.5305,41.5305 756.5305,41.5305 754.6555,40.9055 754.6555,40.9055 753.4055,39.6555"/>
    <polyline points="21.7249,56.7224 26.0999,56.7224 26.0999,56.7224 22.9749,63.2849"/>
    <polyline points="35.9203,73.0758 41.5453,73.0758 41.5453,73.0758 43.4203,72.4508 43.4203,72.4508 44.0453,71.8258 44.0453,71.8258 44.6703,70.5758 44.6703,70.5758 44.6703,68.7008 44.6703,68.7008 44.0453,67.4508 44.0453,67.4508 43.4203,66.8258 43.4203,66.8258 41.5453,66.2008 41.5453,66.2008 35.9203,66.2008 35.9203,66.2008 35.9203,79.3258"/>
    <line x1="78.0906" x2="78.0906" y1="66.2008" y2="79.3258"/>
    <line x1="132.2835" x2="132.2835" y1="92.5984" y2="54.8031"/>
    <polyline points="111.5108,73.0758 117.1358,73.0758 117.1358,73.0758 119.0108,72.4508 119.0108,72.4508 119.6358,71.8258 119.6358,71.8258 120.2608,70.5758 120.2608,70.5758 120.2608,68.7008 120.2608,68.7008 119.6358,67.4508 119.6358,67.4508 119.0108,66.8258 119.0108,66.8258 117.1358,66.2008 117.1358,66.2008 111.5108,66.2008 111.5108,66.2008 111.5108,79.3258"/>
    <line x1="153.6811" x2="153.6811" y1="66.2008" y2="79.3258"/>
    <polyline points="283.4646,92.5984 283.4646,130.3937 283.4646,130.3937 321.2598,130.3937 321.2598,130.3937 321.2598,92.5984 321.2598,92.5984 359.0551,92.5984 359.0551,92.5984 359.0551,130.3937 359.0551,130.3937 321.2598,130.3937 321.2598,130.3937 321.2598,168.189 321.2598,168.189 283.4646,168.189 283.4646,168.189 245.6693,168.189 245.6693,168.189 207.874,168.189 207.874,168.189 170.0787,168.189 170.0787,168.189 132.2835,168.189 132.2835,168.189 94.4882,168.189 94.4882,168.189 94.4882,205.9843 94.4882,205.9843 132.2835,205.9843 132.2835,205.9843 170.0787,205.9843 170.0787,205.9843 170.0787,243.7795 170.0787,243.7795 207.874,243.7795 207.874,243.7795 207.874,205.9843 207.874,205.9843 245.6693,205.9843 245.6693,205.9843 245.6693,168.189"/>
    <polyline points="345.7825,79.3258 340.7825,66.2008 340.7825,66.2008 335.7825,79.3258"/>
    <line x1="337.6575" x2="343.9075" y1="74.9508" y2="74.9508"/>
    <polyline points="421.373,79.3258 416.373,66.2008 416.373,66.2008 411.373,79.3258"/>
    <line x1="413.248" x2="419.498" y1="74.9508" y2="74.9508"/>
    <polygon points="476.8307,56.7224 475.8932,57.0349 475.8932,57.0349 475.5807,57.6599 475.5807,57.6599 475.5807,58.2849 475.5807,58.2849 475.8932,58.9099 475.8932,58.9099 476.5182,59.2224 476.5182,59.2224 477.7682,59.5349 477.7682,59.5349 478.7057,59.8474 478.7057,59.8474 479.3307,60.4724 479.3307,60.4724 479.6432,61.0974 479.6432,61.0974 479.6432,62.0349 479.6432,62.0349 479.3307,62.6599 479.3307,62.6599 479.0182,62.9724 479.0182,62.9724 478.0807,63.2849 478.0807,63.2849 476.8307,63.2849 476.8307,63.2849 475.8932,62.9724 475.8932,62.9724 475.5807,62.6599 475.5807,62.6599 475.2682,62.0349 475.2682,62.0349 475.2682,61.0974 475.2682,61.0974 475.5807,60.4724 475.5807,60.4724 476.2057,59.8474 476.2057,59.8474 477.1432,59.5349 477.1432,59.5349 478.3932,59.2224 478.3932,59.2224 479.0182,58.9099 479.0182,58.9099 479.3307,58.2849 479.3307,58.2849 479.3307,57.6599 479.3307,57.6599 479.0182,57.0349 479.0182,57.0349 478.0807,56.7224 478.0807,56.7224"/>
    <line x1="491.9636" x2="491.9636" y1="66.2008" y2="79.3258"/>
    <line x1="487.5886" x2="496.3386" y1="66.2008" y2="66.2008"/>
    <polyline points="611.2869,66.2008 603.1619,66.2008 603.1619,66.2008 603.1619,79.3258 603.1619,79.3258 611.2869,79.3258"/>
    <line x1="603.1619" x2="608.1619" y1="72.4508" y2="72.4508"/>
    <polyline points="685.94,79.3258 680.94,66.2008 680.94,66.2008 675.94,79.3258"/>
    <line x1="677.815" x2="684.065" y1="74.9508" y2="74.9508"/>
    <line x1="56.6929" x2="94.4882" y1="130.3937" y2="130.3937"/>
    <line x1="76.2156" x2="76.2156" y1="103.9961" y2="117.1211"/>
    <line x1="71.8406" x2="80.5906" y1="103.9961" y2="103.9961"/>
    <line x1="207.874" x2="207.874" y1="130.3937" y2="92.5984"/>
    <polyline points="176.9685,96.7052 176.656,97.6427 176.656,97.6427 176.031,98.2677 176.031,98.2677 175.0935,98.5802 175.0935,98.5802 174.781,98.5802 174.781,98.5802 173.8435,98.2677 173.8435,98.2677 173.2185,97.6427 173.2185,97.6427 172.906,96.7052 172.906,96.7052 172.906,96.3927 172.906,96.3927 173.2185,95.4552 173.2185,95.4552 173.8435,94.8302 173.8435,94.8302 174.781,94.5177 174.781,94.5177 175.0935,94.5177 175.0935,94.5177 176.031,94.8302 176.031,94.8302 176.656,95.4552 176.656,95.4552 176.9685,96.7052 176.9685,96.7052 176.9685,98.2677 176.9685,98.2677 176.656,99.8302 176.656,99.8302 176.031,100.7677 176.031,100.7677 175.0935,101.0802 175.0935,101.0802 174.4685,101.0802 174.4685,101.0802 173.531,100.7677 173.531,100.7677 173.2185,100.1427"/>
    <polyline points="195.5389,103.9961 187.4139,103.9961 187.4139,103.9961 187.4139,117.1211"/>
    <line x1="187.4139" x2="192.4139" y1="110.2461" y2="110.2461"/>
    <polyline points="225.5217,103.9961 225.5217,117.1211 225.5217,117.1211 233.0217,117.1211"/>
    <line x1="245.6693" x2="283.4646" y1="130.3937" y2="130.3937"/>
    <polyline points="271.1294,103.9961 263.0044,103.9961 263.0044,103.9961 263.0044,117.1211 263.0044,117.1211 271.1294,117.1211"/>
    <line x1="263.0044" x2="268.0044" y1="110.2461" y2="110.2461"/>
    <polyline points="308.6122,105.8711 307.3622,104.6211 307.3622,104.6211 305.4872,103.9961 305.4872,103.9961 302.9872,103.9961 302.9872,103.9961 301.1122,104.6211 301.1122,104.6211 299.8622,105.8711 299.8622,105.8711 299.8622,107.1211 299.8622,107.1211 300.4872,108.3711 300.4872,108.3711 301.1122,108.9961 301.1122,108.9961 302.3622,109.6211 302.3622,109.6211 306.1122,110.8711 306.1122,110.8711 307.3622,111.4961 307.3622,111.4961 307.9872,112.1211 307.9872,112.1211 308.6122,113.3711 308.6122,113.3711 308.6122,115.2461 308.6122,115.2461 307.3622,116.4961 307.3622,116.4961 305.4872,117.1211 305.4872,117.1211 302.9872,117.1211 302.9872,117.1211 301.1122,116.4961 301.1122,116.4961 299.8622,115.2461"/>
    <polyline points="346.4075,105.8711 345.1575,104.6211 345.1575,104.6211 343.2825,103.9961 343.2825,103.9961 340.7825,103.9961 340.7825,103.9961 338.9075,104.6211 338.9075,104.6211 337.6575,105.8711 337.6575,105.8711 337.6575,107.1211 337.6575,107.1211 338.2825,108.3711 338.2825,108.3711 338.9075,108.9961 338.9075,108.9961 340.1575,109.6211 340.1575,109.6211 343.9075,110.8711 343.9075,110.8711 345.1575,111.4961 345.1575,111.4961 345.7825,112.1211 345.7825,112.1211 346.4075,113.3711 346.4075,113.3711 346.4075,115.2461 346.4075,115.2461 345.1575,116.4961 345.1575,116.4961 343.2825,117.1211 343.2825,117.1211 340.7825,117.1211 340.7825,117.1211 338.9075,116.4961 338.9075,116.4961 337.6575,115.2461"/>
    <polyline points="384.5153,103.9961 376.3903,103.9961 376.3903,103.9961 376.3903,117.1211 376.3903,117.1211 384.5153,117.1211"/>
    <line x1="376.3903" x2="381.3903" y1="110.2461" y2="110.2461"/>
    <polyline points="422.623,103.9961 422.623,117.1211 422.623,117.1211 413.873,103.9961 413.873,103.9961 413.873,117.1211"/>
    <polyline points="460.1058,107.1211 459.4808,105.8711 459.4808,105.8711 458.2308,104.6211 458.2308,104.6211 456.9808,103.9961 456.9808,103.9961 454.4808,103.9961 454.4808,103.9961 453.2308,104.6211 453.2308,104.6211 451.9808,105.8711 451.9808,105.8711 451.3558,107.1211 451.3558,107.1211 450.7308,108.9961 450.7308,108.9961 450.7308,112.1211 450.7308,112.1211 451.3558,113.9961 451.3558,113.9961 451.9808,115.2461 451.9808,115.2461 453.2308,116.4961 453.2308,116.4961 454.4808,117.1211 454.4808,117.1211 456.9808,117.1211 456.9808,117.1211 458.2308,116.4961 458.2308,116.4961 459.4808,115.2461 459.4808,115.2461 460.1058,113.9961 460.1058,113.9961 460.1058,112.1211 460.1058,112.1211 456.9808,112.1211"/>
    <polyline points="497.9011,103.9961 489.7761,103.9961 489.7761,103.9961 489.7761,117.1211 489.7761,117.1211 497.9011,117.1211"/>
    <line x1="489.7761" x2="494.7761" y1="110.2461" y2="110.2461"/>
    <line x1="548.0315" x2="548.0315" y1="130.3937" y2="92.5984"/>
    <polyline points="527.8839,103.9961 527.8839,117.1211 527.8839,117.1211 535.3839,117.1211"/>
    <polyline points="565.0541,103.9961 565.0541,113.3711 565.0541,113.3711 565.6791,115.2461 565.6791,115.2461 566.9291,116.4961 566.9291,116.4961 568.8041,117.1211 568.8041,117.1211 570.0541,117.1211 570.0541,117.1211 571.9291,116.4961 571.9291,116.4961 573.1791,115.2461 573.1791,115.2461 573.8041,113.3711 573.8041,113.3711 573.8041,103.9961"/>
    <polyline points="623.622,130.3937 623.622,168.189 623.622,168.189 585.8268,168.189 585.8268,168.189 585.8268,130.3937 585.8268,130.3937 623.622,130.3937 623.622,130.3937 623.622,92.5984"/>
    <line x1="602.8494" x2="602.8494" y1="103.9961" y2="117.1211"/>
    <line x1="611.5994" x2="602.8494" y1="103.9961" y2="112.7461"/>
    <line x1="605.9744" x2="611.5994" y1="109.6211" y2="117.1211"/>
    <polygon points="737.0079,92.5984 737.0079,130.3937 737.0079,130.3937 774.8031,130.3937 774.8031,130.3937 774.8031,92.5984 774.8031,92.5984"/>
    <polyline points="740.7726,95.7677 741.3976,95.4552 741.3976,95.4552 742.3351,94.5177 742.3351,94.5177 742.3351,101.0802"/>
    <polygon points="747.9601,94.5177 747.0226,94.8302 747.0226,94.8302 746.3976,95.7677 746.3976,95.7677 746.0851,97.3302 746.0851,97.3302 746.0851,98.2677 746.0851,98.2677 746.3976,99.8302 746.3976,99.8302 747.0226,100.7677 747.0226,100.7677 747.9601,101.0802 747.9601,101.0802 748.5851,101.0802 748.5851,101.0802 749.5226,100.7677 749.5226,100.7677 750.1476,99.8302 750.1476,99.8302 750.4601,98.2677 750.4601,98.2677 750.4601,97.3302 750.4601,97.3302 750.1476,95.7677 750.1476,95.7677 749.5226,94.8302 749.5226,94.8302 748.5851,94.5177 748.5851,94.5177"/>
    <polyline points="762.468,107.1211 761.843,105.8711 761.843,105.8711 760.593,104.6211 760.593,104.6211 759.343,103.9961 759.343,103.9961 756.843,103.9961 756.843,103.9961 755.593,104.6211 755.593,104.6211 754.343,105.8711 754.343,105.8711 753.718,107.1211 753.718,107.1211 753.093,108.9961 753.093,108.9961 753.093,112.1211 753.093,112.1211 753.718,113.9961 753.718,113.9961 754.343,115.2461 754.343,115.2461 755.593,116.4961 755.593,116.4961 756.843,117.1211 756.843,117.1211 759.343,117.1211 759.343,117.1211 760.593,116.4961 760.593,116.4961 761.843,115.2461 761.843,115.2461 762.468,113.9961"/>
    <polyline points="74.3406,141.7913 74.3406,154.9163 74.3406,154.9163 81.8406,154.9163"/>
    <polyline points="359.0551,205.9843 321.2598,205.9843 321.2598,205.9843 321.2598,168.189 321.2598,168.189 359.0551,168.189 359.0551,168.189 359.0551,205.9843 359.0551,205.9843 396.8504,205.9843 396.8504,205.9843 396.8504,243.7795 396.8504,243.7795 434.6457,243.7795 434.6457,243.7795 434.6457,205.9843"/>
    <polyline points="346.4075,143.6663 345.1575,142.4163 345.1575,142.4163 343.2825,141.7913 343.2825,141.7913 340.7825,141.7913 340.7825,141.7913 338.9075,142.4163 338.9075,142.4163 337.6575,143.6663 337.6575,143.6663 337.6575,144.9163 337.6575,144.9163 338.2825,146.1663 338.2825,146.1663 338.9075,146.7913 338.9075,146.7913 340.1575,147.4163 340.1575,147.4163 343.9075,148.6663 343.9075,148.6663 345.1575,149.2913 345.1575,149.2913 345.7825,149.9163 345.7825,149.9163 346.4075,151.1663 346.4075,151.1663 346.4075,153.0413 346.4075,153.0413 345.1575,154.2913 345.1575,154.2913 343.2825,154.9163 343.2825,154.9163 340.7825,154.9163 340.7825,154.9163 338.9075,154.2913 338.9075,154.2913 337.6575,153.0413"/>
    <polygon points="413.873,141.7913 413.873,154.9163 413.873,154.9163 418.248,154.9163 418.248,154.9163 420.123,154.2913 420.123,154.2913 421.373,153.0413 421.373,153.0413 421.998,151.7913 421.998,151.7913 422.623,149.9163 422.623,149.9163 422.623,146.7913 422.623,146.7913 421.998,144.9163 421.998,144.9163 421.373,143.6663 421.373,143.6663 420.123,142.4163 420.123,142.4163 418.248,141.7913 418.248,141.7913"/>
    <polyline points="489.4636,148.0413 495.0886,148.0413 495.0886,148.0413 496.9636,147.4163 496.9636,147.4163 497.5886,146.7913 497.5886,146.7913 498.2136,145.5413 498.2136,145.5413 498.2136,144.2913 498.2136,144.2913 497.5886,143.0413 497.5886,143.0413 496.9636,142.4163 496.9636,142.4163 495.0886,141.7913 495.0886,141.7913 489.4636,141.7913 489.4636,141.7913 489.4636,154.9163"/>
    <line x1="493.8386" x2="498.2136" y1="148.0413" y2="154.9163"/>
    <line x1="602.8494" x2="602.8494" y1="141.7913" y2="154.9163"/>
    <line x1="611.5994" x2="602.8494" y1="141.7913" y2="150.5413"/>
    <line x1="605.9744" x2="611.5994" y1="147.4163" y2="154.9163"/>
    <polyline points="737.0079,130.3937 737.0079,168.189 737.0079,168.189 774.8031,168.189 774.8031,168.189 774.8031,130.3937"/>
    <line x1="754.0305" x2="754.0305" y1="141.7913" y2="154.9163"/>
    <line x1="762.7805" x2="762.7805" y1="141.7913" y2="154.9163"/>
    <line x1="754.0305" x2="762.7805" y1="148.0413" y2="148.0413"/>
    <polyline points="22.6624,171.3583 23.2874,171.0458 23.2874,171.0458 24.2249,170.1083 24.2249,170.1083 24.2249,176.6708"/>
    <polyline points="28.9124,171.3583 29.5374,171.0458 29.5374,171.0458 30.4749,170.1083 30.4749,170.1083 30.4749,176.6708"/>
    <polyline points="45.2953,192.7116 45.2953,179.5866 45.2953,179.5866 40.2953,192.7116 40.2953,192.7116 35.2953,179.5866 35.2953,179.5866 35.2953,192.7116"/>
    <polygon points="56.6929,205.9843 94.4882,205.9843 94.4882,205.9843 94.4882,243.7795 94.4882,243.7795 56.6929,243.7795 56.6929,243.7795"/>
    <line x1="78.0906" x2="78.0906" y1="179.5866" y2="192.7116"/>
    <line x1="132.2835" x2="132.2835" y1="205.9843" y2="168.189"/>
    <polyline points="119.6358,181.4616 118.3858,180.2116 118.3858,180.2116 116.5108,179.5866 116.5108,179.5866 114.0108,179.5866 114.0108,179.5866 112.1358,180.2116 112.1358,180.2116 110.8858,181.4616 110.8858,181.4616 110.8858,182.7116 110.8858,182.7116 111.5108,183.9616 111.5108,183.9616 112.1358,184.5866 112.1358,184.5866 113.3858,185.2116 113.3858,185.2116 117.1358,186.4616 117.1358,186.4616 118.3858,187.0866 118.3858,187.0866 119.0108,187.7116 119.0108,187.7116 119.6358,188.9616 119.6358,188.9616 119.6358,190.8366 119.6358,190.8366 118.3858,192.0866 118.3858,192.0866 116.5108,192.7116 116.5108,192.7116 114.0108,192.7116 114.0108,192.7116 112.1358,192.0866 112.1358,192.0866 110.8858,190.8366"/>
    <polyline points="207.874,168.189 207.874,205.9843 207.874,205.9843 170.0787,205.9843 170.0787,205.9843 170.0787,168.189"/>
    <polyline points="146.8061,179.5866 151.8061,192.7116 151.8061,192.7116 156.8061,179.5866"/>
    <polyline points="173.8435,171.3583 174.4685,171.0458 174.4685,171.0458 175.406,170.1083 175.406,170.1083 175.406,176.6708"/>
    <polyline points="179.4685,171.6708 179.4685,171.3583 179.4685,171.3583 179.781,170.7333 179.781,170.7333 180.0935,170.4208 180.0935,170.4208 180.7185,170.1083 180.7185,170.1083 181.9685,170.1083 181.9685,170.1083 182.5935,170.4208 182.5935,170.4208 182.906,170.7333 182.906,170.7333 183.2185,171.3583 183.2185,171.3583 183.2185,171.9833 183.2185,171.9833 182.906,172.6083 182.906,172.6083 182.281,173.5458 182.281,173.5458 179.156,176.6708 179.156,176.6708 183.531,176.6708"/>
    <polyline points="195.5389,179.5866 187.4139,179.5866 187.4139,179.5866 187.4139,192.7116 187.4139,192.7116 195.5389,192.7116"/>
    <line x1="187.4139" x2="192.4139" y1="185.8366" y2="185.8366"/>
    <polyline points="224.8967,185.8366 230.5217,185.8366 230.5217,185.8366 232.3967,185.2116 232.3967,185.2116 233.0217,184.5866 233.0217,184.5866 233.6467,183.3366 233.6467,183.3366 233.6467,182.0866 233.6467,182.0866 233.0217,180.8366 233.0217,180.8366 232.3967,180.2116 232.3967,180.2116 230.5217,179.5866 230.5217,179.5866 224.8967,179.5866 224.8967,179.5866 224.8967,192.7116"/>
    <line x1="229.2717" x2="233.6467" y1="185.8366" y2="192.7116"/>
    <polyline points="245.6693,205.9843 283.4646,205.9843 283.4646,205.9843 321.2598,205.9843"/>
    <line x1="283.4646" x2="283.4646" y1="205.9843" y2="168.189"/>
    <polyline points="270.8169,181.4616 269.5669,180.2116 269.5669,180.2116 267.6919,179.5866 267.6919,179.5866 265.1919,179.5866 265.1919,179.5866 263.3169,180.2116 263.3169,180.2116 262.0669,181.4616 262.0669,181.4616 262.0669,182.7116 262.0669,182.7116 262.6919,183.9616 262.6919,183.9616 263.3169,184.5866 263.3169,184.5866 264.5669,185.2116 264.5669,185.2116 268.3169,186.4616 268.3169,186.4616 269.5669,187.0866 269.5669,187.0866 270.1919,187.7116 270.1919,187.7116 270.8169,188.9616 270.8169,188.9616 270.8169,190.8366 270.8169,190.8366 269.5669,192.0866 269.5669,192.0866 267.6919,192.7116 267.6919,192.7116 265.1919,192.7116 265.1919,192.7116 263.3169,192.0866 263.3169,192.0866 262.0669,190.8366"/>
    <line x1="302.9872" x2="302.9872" y1="179.5866" y2="192.7116"/>
    <line x1="298.6122" x2="307.3622" y1="179.5866" y2="179.5866"/>
    <polyline points="345.7825,192.7116 340.7825,179.5866 340.7825,179.5866 335.7825,192.7116"/>
    <line x1="337.6575" x2="343.9075" y1="188.3366" y2="188.3366"/>
    <polyline points="384.8278,179.5866 384.8278,192.7116 384.8278,192.7116 376.0778,179.5866 376.0778,179.5866 376.0778,192.7116"/>
    <polygon points="413.873,179.5866 413.873,192.7116 413.873,192.7116 418.248,192.7116 418.248,192.7116 420.123,192.0866 420.123,192.0866 421.373,190.8366 421.373,190.8366 421.998,189.5866 421.998,189.5866 422.623,187.7116 422.623,187.7116 422.623,184.5866 422.623,184.5866 421.998,182.7116 421.998,182.7116 421.373,181.4616 421.373,181.4616 420.123,180.2116 420.123,180.2116 418.248,179.5866 418.248,179.5866"/>
    <polyline points="472.4409,168.189 472.4409,205.9843 472.4409,205.9843 472.4409,243.7795 472.4409,243.7795 510.2362,243.7795 510.2362,243.7795 510.2362,205.9843 510.2362,205.9843 510.2362,168.189 510.2362,168.189 548.0315,168.189 548.0315,168.189 585.8268,168.189 585.8268,168.189 585.8268,205.9843 585.8268,205.9843 548.0315,205.9843 548.0315,205.9843 548.0315,168.189"/>
    <polyline points="472.4409,205.9843 510.2362,205.9843 510.2362,205.9843 548.0315,205.9843"/>
    <polyline points="476.2057,171.3583 476.8307,171.0458 476.8307,171.0458 477.7682,170.1083 477.7682,170.1083 477.7682,176.6708"/>
    <polyline points="482.1432,170.1083 485.5807,170.1083 485.5807,170.1083 483.7057,172.6083 483.7057,172.6083 484.6432,172.6083 484.6432,172.6083 485.2682,172.9208 485.2682,172.9208 485.5807,173.2333 485.5807,173.2333 485.8932,174.1708 485.8932,174.1708 485.8932,174.7958 485.8932,174.7958 485.5807,175.7333 485.5807,175.7333 484.9557,176.3583 484.9557,176.3583 484.0182,176.6708 484.0182,176.6708 483.0807,176.6708 483.0807,176.6708 482.1432,176.3583 482.1432,176.3583 481.8307,176.0458 481.8307,176.0458 481.5182,175.4208"/>
    <polyline points="489.4636,185.8366 495.0886,185.8366 495.0886,185.8366 496.9636,185.2116 496.9636,185.2116 497.5886,184.5866 497.5886,184.5866 498.2136,183.3366 498.2136,183.3366 498.2136,182.0866 498.2136,182.0866 497.5886,180.8366 497.5886,180.8366 496.9636,180.2116 496.9636,180.2116 495.0886,179.5866 495.0886,179.5866 489.4636,179.5866 489.4636,179.5866 489.4636,192.7116"/>
    <line x1="493.8386" x2="498.2136" y1="185.8366" y2="192.7116"/>
    <polyline points="535.6964,179.5866 527.5714,179.5866 527.5714,179.5866 527.5714,192.7116 527.5714,192.7116 535.6964,192.7116"/>
    <line x1="527.5714" x2="532.5714" y1="185.8366" y2="185.8366"/>
    <polyline points="573.4916,182.7116 572.8666,181.4616 572.8666,181.4616 571.6166,180.2116 571.6166,180.2116 570.3666,179.5866 570.3666,179.5866 567.8666,179.5866 567.8666,179.5866 566.6166,180.2116 566.6166,180.2116 565.3666,181.4616 565.3666,181.4616 564.7416,182.7116 564.7416,182.7116 564.1166,184.5866 564.1166,184.5866 564.1166,187.7116 564.1166,187.7116 564.7416,189.5866 564.7416,189.5866 565.3666,190.8366 565.3666,190.8366 566.6166,192.0866 566.6166,192.0866 567.8666,192.7116 567.8666,192.7116 570.3666,192.7116 570.3666,192.7116 571.6166,192.0866 571.6166,192.0866 572.8666,190.8366 572.8666,190.8366 573.4916,189.5866 573.4916,189.5866 573.4916,187.7116 573.4916,187.7116 570.3666,187.7116"/>
    <polygon points="585.8268,205.9843 623.622,205.9843 623.622,205.9843 661.4173,205.9843 661.4173,205.9843 699.2126,205.9843 699.2126,205.9843 699.2126,168.189 699.2126,168.189 661.4173,168.189 661.4173,168.189 623.622,168.189 623.622,168.189 623.622,205.9843 623.622,205.9843 623.622,243.7795 623.622,243.7795 585.8268,243.7795 585.8268,243.7795"/>
    <polyline points="611.2869,179.5866 603.1619,179.5866 603.1619,179.5866 603.1619,192.7116 603.1619,192.7116 611.2869,192.7116"/>
    <line x1="603.1619" x2="608.1619" y1="185.8366" y2="185.8366"/>
    <line x1="661.4173" x2="661.4173" y1="205.9843" y2="168.189"/>
    <polyline points="649.3947,179.5866 649.3947,192.7116 649.3947,192.7116 640.6447,179.5866 640.6447,179.5866 640.6447,192.7116"/>
    <polyline points="684.065,185.8366 685.94,185.2116 685.94,185.2116 686.565,184.5866 686.565,184.5866 687.19,183.3366 687.19,183.3366 687.19,182.0866 687.19,182.0866 686.565,180.8366 686.565,180.8366 685.94,180.2116 685.94,180.2116 684.065,179.5866 684.065,179.5866 678.44,179.5866 678.44,179.5866 678.44,192.7116 678.44,192.7116 684.065,192.7116 684.065,192.7116 685.94,192.0866 685.94,192.0866 686.565,191.4616 686.565,191.4616 687.19,190.2116 687.19,190.2116 687.19,188.3366 687.19,188.3366 686.565,187.0866 686.565,187.0866 685.94,186.4616 685.94,186.4616 684.065,185.8366 684.065,185.8366 678.44,185.8366"/>
    <polyline points="699.2126,205.9843 737.0079,205.9843 737.0079,205.9843 737.0079,168.189 737.0079,168.189 699.2126,168.189"/>
    <polyline points="716.2352,179.5866 716.2352,188.9616 716.2352,188.9616 716.8602,190.8366 716.8602,190.8366 718.1102,192.0866 718.1102,192.0866 719.9852,192.7116 719.9852,192.7116 721.2352,192.7116 721.2352,192.7116 723.1102,192.0866 723.1102,192.0866 724.3602,190.8366 724.3602,190.8366 724.9852,188.9616 724.9852,188.9616 724.9852,179.5866"/>
    <polyline points="774.8031,205.9843 774.8031,243.7795 774.8031,243.7795 737.0079,243.7795 737.0079,243.7795 737.0079,205.9843 737.0079,205.9843 774.8031,205.9843 774.8031,205.9843 774.8031,168.189"/>
    <line x1="758.4055" x2="758.4055" y1="179.5866" y2="192.7116"/>
    <line x1="73.7156" x2="73.7156" y1="217.3819" y2="230.5069"/>
    <line x1="82.4656" x2="73.7156" y1="217.3819" y2="226.1319"/>
    <line x1="76.8406" x2="82.4656" y1="223.0069" y2="230.5069"/>
    <polyline points="187.7264,217.3819 187.7264,230.5069 187.7264,230.5069 195.2264,230.5069"/>
    <polygon points="416.373,217.3819 415.123,218.0069 415.123,218.0069 413.873,219.2569 413.873,219.2569 413.248,220.5069 413.248,220.5069 412.623,222.3819 412.623,222.3819 412.623,225.5069 412.623,225.5069 413.248,227.3819 413.248,227.3819 413.873,228.6319 413.873,228.6319 415.123,229.8819 415.123,229.8819 416.373,230.5069 416.373,230.5069 418.873,230.5069 418.873,230.5069 420.123,229.8819 420.123,229.8819 421.373,228.6319 421.373,228.6319 421.998,227.3819 421.998,227.3819 422.623,225.5069 422.623,225.5069 422.623,222.3819 422.623,222.3819 421.998,220.5069 421.998,220.5069 421.373,219.2569 421.373,219.2569 420.123,218.0069 420.123,218.0069 418.873,217.3819 418.873,217.3819"/>
    <polyline points="496.9636,230.5069 491.9636,217.3819 491.9636,217.3819 486.9636,230.5069"/>
    <line x1="488.8386" x2="495.0886" y1="226.1319" y2="226.1319"/>
    <polyline points="602.8494,223.6319 608.4744,223.6319 608.4744,223.6319 610.3494,223.0069 610.3494,223.0069 610.9744,222.3819 610.9744,222.3819 611.5994,221.1319 611.5994,221.1319 611.5994,219.8819 611.5994,219.8819 610.9744,218.6319 610.9744,218.6319 610.3494,218.0069 610.3494,218.0069 608.4744,217.3819 608.4744,217.3819 602.8494,217.3819 602.8494,217.3819 602.8494,230.5069"/>
    <line x1="607.2244" x2="611.5994" y1="223.6319" y2="230.5069"/>
    <polyline points="754.0305,224.2569 759.6555,224.2569 759.6555,224.2569 761.5305,223.6319 761.5305,223.6319 762.1555,223.0069 762.1555,223.0069 762.7805,221.7569 762.7805,221.7569 762.7805,219.8819 762.7805,219.8819 762.1555,218.6319 762.1555,218.6319 761.5305,218.0069 761.5305,218.0069 759.6555,217.3819 759.6555,217.3819 754.0305,217.3819 754.0305,217.3819 754.0305,230.5069"/>
    <polyline points="56.6929,243.7795 56.6929,281.5748 56.6929,281.5748 18.8976,281.5748 18.8976,281.5748 18.8976,319.3701 18.8976,319.3701 56.6929,319.3701 56.6929,319.3701 56.6929,281.5748 56.6929,281.5748 94.4882,281.5748 94.4882,281.5748 94.4882,243.7795"/>
    <line x1="73.7156" x2="73.7156" y1="255.1772" y2="268.3022"/>
    <line x1="82.4656" x2="73.7156" y1="255.1772" y2="263.9272"/>
    <line x1="76.8406" x2="82.4656" y1="260.8022" y2="268.3022"/>
    <polyline points="170.0787,243.7795 170.0787,281.5748 170.0787,281.5748 207.874,281.5748 207.874,281.5748 207.874,243.7795"/>
    <polyline points="187.7264,255.1772 187.7264,268.3022 187.7264,268.3022 195.2264,268.3022"/>
    <polyline points="321.2598,243.7795 359.0551,243.7795 359.0551,243.7795 359.0551,281.5748 359.0551,281.5748 321.2598,281.5748 321.2598,281.5748 321.2598,243.7795 321.2598,243.7795 283.4646,243.7795 283.4646,243.7795 283.4646,281.5748 283.4646,281.5748 245.6693,281.5748 245.6693,281.5748 207.874,281.5748 207.874,281.5748 207.874,319.3701 207.874,319.3701 245.6693,319.3701 245.6693,319.3701 245.6693,281.5748"/>
    <polyline points="245.6693,319.3701 283.4646,319.3701 283.4646,319.3701 283.4646,281.5748 283.4646,281.5748 321.2598,281.5748"/>
    <polyline points="287.2293,246.9488 287.8543,246.6363 287.8543,246.6363 288.7918,245.6988 288.7918,245.6988 288.7918,252.2613"/>
    <polyline points="295.6668,252.2613 295.6668,245.6988 295.6668,245.6988 292.5418,250.0738 292.5418,250.0738 297.2293,250.0738"/>
    <polyline points="308.9247,258.3022 308.2997,257.0522 308.2997,257.0522 307.0497,255.8022 307.0497,255.8022 305.7997,255.1772 305.7997,255.1772 303.2997,255.1772 303.2997,255.1772 302.0497,255.8022 302.0497,255.8022 300.7997,257.0522 300.7997,257.0522 300.1747,258.3022 300.1747,258.3022 299.5497,260.1772 299.5497,260.1772 299.5497,263.3022 299.5497,263.3022 300.1747,265.1772 300.1747,265.1772 300.7997,266.4272 300.7997,266.4272 302.0497,267.6772 302.0497,267.6772 303.2997,268.3022 303.2997,268.3022 305.7997,268.3022 305.7997,268.3022 307.0497,267.6772 307.0497,267.6772 308.2997,266.4272 308.2997,266.4272 308.9247,265.1772 308.9247,265.1772 308.9247,263.3022 308.9247,263.3022 305.7997,263.3022"/>
    <polyline points="338.2825,261.4272 343.9075,261.4272 343.9075,261.4272 345.7825,260.8022 345.7825,260.8022 346.4075,260.1772 346.4075,260.1772 347.0325,258.9272 347.0325,258.9272 347.0325,257.6772 347.0325,257.6772 346.4075,256.4272 346.4075,256.4272 345.7825,255.8022 345.7825,255.8022 343.9075,255.1772 343.9075,255.1772 338.2825,255.1772 338.2825,255.1772 338.2825,268.3022"/>
    <line x1="342.6575" x2="347.0325" y1="261.4272" y2="268.3022"/>
    <polyline points="359.0551,281.5748 396.8504,281.5748 396.8504,281.5748 396.8504,319.3701 396.8504,319.3701 434.6457,319.3701 434.6457,319.3701 434.6457,281.5748 434.6457,281.5748 434.6457,243.7795 434.6457,243.7795 472.4409,243.7795 472.4409,243.7795 472.4409,281.5748 472.4409,281.5748 510.2362,281.5748 510.2362,281.5748 510.2362,243.7795 510.2362,243.7795 548.0315,243.7795 548.0315,243.7795 548.0315,281.5748 548.0315,281.5748 585.8268,281.5748 585.8268,281.5748 585.8268,243.7795 585.8268,243.7795 548.0315,243.7795"/>
    <polyline points="472.4409,281.5748 434.6457,281.5748 434.6457,281.5748 396.8504,281.5748 396.8504,281.5748 396.8504,243.7795 396.8504,243.7795 359.0551,243.7795"/>
    <polygon points="378.5778,255.1772 377.3278,255.8022 377.3278,255.8022 376.0778,257.0522 376.0778,257.0522 375.4528,258.3022 375.4528,258.3022 374.8278,260.1772 374.8278,260.1772 374.8278,263.3022 374.8278,263.3022 375.4528,265.1772 375.4528,265.1772 376.0778,266.4272 376.0778,266.4272 377.3278,267.6772 377.3278,267.6772 378.5778,268.3022 378.5778,268.3022 381.0778,268.3022 381.0778,268.3022 382.3278,267.6772 382.3278,267.6772 383.5778,266.4272 383.5778,266.4272 384.2028,265.1772 384.2028,265.1772 384.8278,263.3022 384.8278,263.3022 384.8278,260.1772 384.8278,260.1772 384.2028,258.3022 384.2028,258.3022 383.5778,257.0522 383.5778,257.0522 382.3278,255.8022 382.3278,255.8022 381.0778,255.1772 381.0778,255.1772"/>
    <polyline points="422.3105,255.1772 414.1855,255.1772 414.1855,255.1772 414.1855,268.3022 414.1855,268.3022 422.3105,268.3022"/>
    <line x1="414.1855" x2="419.1855" y1="261.4272" y2="261.4272"/>
    <polyline points="451.6683,262.0522 457.2933,262.0522 457.2933,262.0522 459.1683,261.4272 459.1683,261.4272 459.7933,260.8022 459.7933,260.8022 460.4183,259.5522 460.4183,259.5522 460.4183,257.6772 460.4183,257.6772 459.7933,256.4272 459.7933,256.4272 459.1683,255.8022 459.1683,255.8022 457.2933,255.1772 457.2933,255.1772 451.6683,255.1772 451.6683,255.1772 451.6683,268.3022"/>
    <polyline points="497.5886,257.0522 496.3386,255.8022 496.3386,255.8022 494.4636,255.1772 494.4636,255.1772 491.9636,255.1772 491.9636,255.1772 490.0886,255.8022 490.0886,255.8022 488.8386,257.0522 488.8386,257.0522 488.8386,258.3022 488.8386,258.3022 489.4636,259.5522 489.4636,259.5522 490.0886,260.1772 490.0886,260.1772 491.3386,260.8022 491.3386,260.8022 495.0886,262.0522 495.0886,262.0522 496.3386,262.6772 496.3386,262.6772 496.9636,263.3022 496.9636,263.3022 497.5886,264.5522 497.5886,264.5522 497.5886,266.4272 497.5886,266.4272 496.3386,267.6772 496.3386,267.6772 494.4636,268.3022 494.4636,268.3022 491.9636,268.3022 491.9636,268.3022 490.0886,267.6772 490.0886,267.6772 488.8386,266.4272"/>
    <line x1="510.2362" x2="548.0315" y1="281.5748" y2="281.5748"/>
    <polyline points="535.6964,255.1772 527.5714,255.1772 527.5714,255.1772 527.5714,268.3022"/>
    <line x1="527.5714" x2="532.5714" y1="261.4272" y2="261.4272"/>
    <polygon points="567.5541,255.1772 566.3041,255.8022 566.3041,255.8022 565.0541,257.0522 565.0541,257.0522 564.4291,258.3022 564.4291,258.3022 563.8041,260.1772 563.8041,260.1772 563.8041,263.3022 563.8041,263.3022 564.4291,265.1772 564.4291,265.1772 565.0541,266.4272 565.0541,266.4272 566.3041,267.6772 566.3041,267.6772 567.5541,268.3022 567.5541,268.3022 570.0541,268.3022 570.0541,268.3022 571.3041,267.6772 571.3041,267.6772 572.5541,266.4272 572.5541,266.4272 573.1791,265.1772 573.1791,265.1772 573.8041,263.3022 573.8041,263.3022 573.8041,260.1772 573.8041,260.1772 573.1791,258.3022 573.1791,258.3022 572.5541,257.0522 572.5541,257.0522 571.3041,255.8022 571.3041,255.8022 570.0541,255.1772 570.0541,255.1772"/>
    <polyline points="661.4173,357.1654 623.622,357.1654 623.622,357.1654 623.622,319.3701 623.622,319.3701 585.8268,319.3701 585.8268,319.3701 585.8268,281.5748 585.8268,281.5748 623.622,281.5748 623.622,281.5748 623.622,243.7795 623.622,243.7795 661.4173,243.7795 661.4173,243.7795 661.4173,281.5748 661.4173,281.5748 623.622,281.5748 623.622,281.5748 623.622,319.3701 623.622,319.3701 661.4173,319.3701 661.4173,319.3701 699.2126,319.3701 699.2126,319.3701 699.2126,357.1654 699.2126,357.1654 661.4173,357.1654 661.4173,357.1654 661.4173,319.3701"/>
    <line x1="605.3494" x2="605.3494" y1="255.1772" y2="268.3022"/>
    <line x1="600.9744" x2="609.7244" y1="255.1772" y2="255.1772"/>
    <polygon points="643.1447,255.1772 641.8947,255.8022 641.8947,255.8022 640.6447,257.0522 640.6447,257.0522 640.0197,258.3022 640.0197,258.3022 639.3947,260.1772 639.3947,260.1772 639.3947,263.3022 639.3947,263.3022 640.0197,265.1772 640.0197,265.1772 640.6447,266.4272 640.6447,266.4272 641.8947,267.6772 641.8947,267.6772 643.1447,268.3022 643.1447,268.3022 645.6447,268.3022 645.6447,268.3022 646.8947,267.6772 646.8947,267.6772 648.1447,266.4272 648.1447,266.4272 648.7697,265.1772 648.7697,265.1772 649.3947,263.3022 649.3947,263.3022 649.3947,260.1772 649.3947,260.1772 648.7697,258.3022 648.7697,258.3022 648.1447,257.0522 648.1447,257.0522 646.8947,255.8022 646.8947,255.8022 645.6447,255.1772 645.6447,255.1772"/>
    <polyline points="737.0079,243.7795 737.0079,281.5748 737.0079,281.5748 774.8031,281.5748 774.8031,281.5748 774.8031,243.7795"/>
    <polyline points="760.2805,255.1772 760.2805,265.1772 760.2805,265.1772 759.6555,267.0522 759.6555,267.0522 759.0305,267.6772 759.0305,267.6772 757.7805,268.3022 757.7805,268.3022 756.5305,268.3022 756.5305,268.3022 755.2805,267.6772 755.2805,267.6772 754.6555,267.0522 754.6555,267.0522 754.0305,265.1772 754.0305,265.1772 754.0305,263.9272"/>
    <polyline points="22.6624,284.7441 23.2874,284.4316 23.2874,284.4316 24.2249,283.4941 24.2249,283.4941 24.2249,290.0566"/>
    <polyline points="31.7249,283.4941 28.5999,283.4941 28.5999,283.4941 28.2874,286.3066 28.2874,286.3066 28.5999,285.9941 28.5999,285.9941 29.5374,285.6816 29.5374,285.6816 30.4749,285.6816 30.4749,285.6816 31.4124,285.9941 31.4124,285.9941 32.0374,286.6191 32.0374,286.6191 32.3499,287.5566 32.3499,287.5566 32.3499,288.1816 32.3499,288.1816 32.0374,289.1191 32.0374,289.1191 31.4124,289.7441 31.4124,289.7441 30.4749,290.0566 30.4749,290.0566 29.5374,290.0566 29.5374,290.0566 28.5999,289.7441 28.5999,289.7441 28.2874,289.4316 28.2874,289.4316 27.9749,288.8066"/>
    <polyline points="33.4203,292.9724 38.4203,306.0974 38.4203,306.0974 43.4203,292.9724"/>
    <polygon points="56.6929,319.3701 94.4882,319.3701 94.4882,319.3701 132.2835,319.3701 132.2835,319.3701 132.2835,281.5748 132.2835,281.5748 94.4882,281.5748 94.4882,281.5748 94.4882,319.3701 94.4882,319.3701 94.4882,357.1654 94.4882,357.1654 56.6929,357.1654 56.6929,357.1654"/>
    <polyline points="82.1531,292.9724 74.0281,292.9724 74.0281,292.9724 74.0281,306.0974 74.0281,306.0974 82.1531,306.0974"/>
    <line x1="74.0281" x2="79.0281" y1="299.2224" y2="299.2224"/>
    <polyline points="112.1358,292.9724 112.1358,306.0974 112.1358,306.0974 119.6358,306.0974"/>
    <polyline points="132.2835,319.3701 170.0787,319.3701 170.0787,319.3701 170.0787,281.5748 170.0787,281.5748 132.2835,281.5748"/>
    <polyline points="149.9311,292.9724 149.9311,306.0974 149.9311,306.0974 157.4311,306.0974"/>
    <polygon points="170.0787,319.3701 207.874,319.3701 207.874,319.3701 207.874,357.1654 207.874,357.1654 170.0787,357.1654 170.0787,357.1654"/>
    <polyline points="195.5389,292.9724 187.4139,292.9724 187.4139,292.9724 187.4139,306.0974 187.4139,306.0974 195.5389,306.0974"/>
    <line x1="187.4139" x2="192.4139" y1="299.2224" y2="299.2224"/>
    <line x1="224.8967" x2="224.8967" y1="292.9724" y2="306.0974"/>
    <line x1="233.6467" x2="224.8967" y1="292.9724" y2="301.7224"/>
    <line x1="228.0217" x2="233.6467" y1="298.5974" y2="306.0974"/>
    <polyline points="271.1294,292.9724 263.0044,292.9724 263.0044,292.9724 263.0044,306.0974 263.0044,306.0974 271.1294,306.0974"/>
    <line x1="263.0044" x2="268.0044" y1="299.2224" y2="299.2224"/>
    <line x1="413.873" x2="413.873" y1="292.9724" y2="306.0974"/>
    <line x1="422.623" x2="413.873" y1="292.9724" y2="301.7224"/>
    <line x1="416.998" x2="422.623" y1="298.5974" y2="306.0974"/>
    <polyline points="609.0994,292.9724 609.0994,302.9724 609.0994,302.9724 608.4744,304.8474 608.4744,304.8474 607.8494,305.4724 607.8494,305.4724 606.5994,306.0974 606.5994,306.0974 605.3494,306.0974 605.3494,306.0974 604.0994,305.4724 604.0994,305.4724 603.4744,304.8474 603.4744,304.8474 602.8494,302.9724 602.8494,302.9724 602.8494,301.7224"/>
    <polyline points="737.0079,281.5748 737.0079,319.3701 737.0079,319.3701 774.8031,319.3701 774.8031,319.3701 774.8031,281.5748"/>
    <polyline points="762.468,292.9724 754.343,292.9724 754.343,292.9724 754.343,306.0974 754.343,306.0974 762.468,306.0974"/>
    <line x1="754.343" x2="759.343" y1="299.2224" y2="299.2224"/>
    <polyline points="82.4656,330.7677 82.4656,343.8927 82.4656,343.8927 73.7156,330.7677 73.7156,330.7677 73.7156,343.8927"/>
    <polyline points="195.8514,330.7677 195.8514,343.8927 195.8514,343.8927 187.1014,330.7677 187.1014,330.7677 187.1014,343.8927"/>
    <polygon points="434.6457,319.3701 434.6457,357.1654 434.6457,357.1654 472.4409,357.1654 472.4409,357.1654 472.4409,319.3701 472.4409,319.3701"/>
    <polyline points="438.4104,322.5394 439.0354,322.2269 439.0354,322.2269 439.9729,321.2894 439.9729,321.2894 439.9729,327.8519"/>
    <polyline points="447.7854,322.2269 447.4729,321.6019 447.4729,321.6019 446.5354,321.2894 446.5354,321.2894 445.9104,321.2894 445.9104,321.2894 444.9729,321.6019 444.9729,321.6019 444.3479,322.5394 444.3479,322.5394 444.0354,324.1019 444.0354,324.1019 444.0354,325.6644 444.0354,325.6644 444.3479,326.9144 444.3479,326.9144 444.9729,327.5394 444.9729,327.5394 445.9104,327.8519 445.9104,327.8519 446.2229,327.8519 446.2229,327.8519 447.1604,327.5394 447.1604,327.5394 447.7854,326.9144 447.7854,326.9144 448.0979,325.9769 448.0979,325.9769 448.0979,325.6644 448.0979,325.6644 447.7854,324.7269 447.7854,324.7269 447.1604,324.1019 447.1604,324.1019 446.2229,323.7894 446.2229,323.7894 445.9104,323.7894 445.9104,323.7894 444.9729,324.1019 444.9729,324.1019 444.3479,324.7269 444.3479,324.7269 444.0354,325.6644"/>
    <polyline points="451.6683,337.6427 457.2933,337.6427 457.2933,337.6427 459.1683,337.0177 459.1683,337.0177 459.7933,336.3927 459.7933,336.3927 460.4183,335.1427 460.4183,335.1427 460.4183,333.2677 460.4183,333.2677 459.7933,332.0177 459.7933,332.0177 459.1683,331.3927 459.1683,331.3927 457.2933,330.7677 457.2933,330.7677 451.6683,330.7677 451.6683,330.7677 451.6683,343.8927"/>
    <polyline points="472.4409,357.1654 510.2362,357.1654 510.2362,357.1654 510.2362,319.3701 510.2362,319.3701 472.4409,319.3701"/>
    <polyline points="496.9636,343.8927 491.9636,330.7677 491.9636,330.7677 486.9636,343.8927"/>
    <line x1="488.8386" x2="495.0886" y1="339.5177" y2="339.5177"/>
    <polyline points="510.2362,357.1654 548.0315,357.1654 548.0315,357.1654 585.8268,357.1654 585.8268,357.1654 585.8268,319.3701 585.8268,319.3701 548.0315,319.3701 548.0315,319.3701 510.2362,319.3701"/>
    <line x1="548.0315" x2="548.0315" y1="357.1654" y2="319.3701"/>
    <polyline points="527.2589,337.0177 532.8839,337.0177 532.8839,337.0177 534.7589,336.3927 534.7589,336.3927 535.3839,335.7677 535.3839,335.7677 536.0089,334.5177 536.0089,334.5177 536.0089,333.2677 536.0089,333.2677 535.3839,332.0177 535.3839,332.0177 534.7589,331.3927 534.7589,331.3927 532.8839,330.7677 532.8839,330.7677 527.2589,330.7677 527.2589,330.7677 527.2589,343.8927"/>
    <line x1="531.6339" x2="536.0089" y1="337.0177" y2="343.8927"/>
    <line x1="565.0541" x2="565.0541" y1="330.7677" y2="343.8927"/>
    <line x1="573.8041" x2="565.0541" y1="330.7677" y2="339.5177"/>
    <line x1="568.1791" x2="573.8041" y1="336.3927" y2="343.8927"/>
    <line x1="585.8268" x2="623.622" y1="357.1654" y2="357.1654"/>
    <polyline points="611.2869,330.7677 603.1619,330.7677 603.1619,330.7677 603.1619,343.8927 603.1619,343.8927 611.2869,343.8927"/>
    <line x1="603.1619" x2="608.1619" y1="337.0177" y2="337.0177"/>
    <polyline points="640.6447,337.0177 646.2697,337.0177 646.2697,337.0177 648.1447,336.3927 648.1447,336.3927 648.7697,335.7677 648.7697,335.7677 649.3947,334.5177 649.3947,334.5177 649.3947,333.2677 649.3947,333.2677 648.7697,332.0177 648.7697,332.0177 648.1447,331.3927 648.1447,331.3927 646.2697,330.7677 646.2697,330.7677 640.6447,330.7677 640.6447,330.7677 640.6447,343.8927"/>
    <line x1="645.0197" x2="649.3947" y1="337.0177" y2="343.8927"/>
    <polyline points="686.8775,330.7677 678.7525,330.7677 678.7525,330.7677 678.7525,343.8927 678.7525,343.8927 686.8775,343.8927"/>
    <line x1="678.7525" x2="683.7525" y1="337.0177" y2="337.0177"/>
    <polyline points="699.2126,357.1654 737.0079,357.1654 737.0079,357.1654 737.0079,319.3701 737.0079,319.3701 699.2126,319.3701"/>
    <polyline points="724.9852,330.7677 724.9852,343.8927 724.9852,343.8927 716.2352,330.7677 716.2352,330.7677 716.2352,343.8927"/>
  </g>
</svg>
