<?xml version="1.0" encoding="utf-8" ?>
<svg xmlns="http://www.w3.org/2000/svg" xmlns:cc="http://creativecommons.org/ns" xmlns:dc="http://purl.org/dc/elements/1.1/" xmlns:ev="http://www.w3.org/2001/xml-events" xmlns:inkscape="http://www.inkscape.org/namespaces/inkscape" xmlns:rdf="http://www.w3.org/1999/02/22-rdf-syntax-ns" xmlns:sodipodi="http://sodipodi.sourceforge.net/DTD/sodipodi-0.dtd" xmlns:xlink="http://www.w3.org/1999/xlink" baseProfile="tiny" height="9.9cm" version="1.2" viewBox="0 0 793.7007874015749 374.1732283464567" width="21.0cm">
  <metadata>
    <rdf:RDF>
      <cc:Work>
        <dc:format>image/svg+xml</dc:format>
        <dc:source>vpype eval 'cell=10;width=210;height=99' eval 'nCols=20;nRows=9' eval 'cells=[4,5,6,7,9,13,15,16,17,18,19,23,26,29,33,35,39,40,41,42,43,44,46,49,51,52,53,55,59,61,63,66,69,73,75,79,81,83,85,86,87,88,89,90,91,92,93,94,95,97,98,100,101,102,103,106,109,111,113,115,117,119,121,123,124,125,126,127,128,129,130,131,133,135,137,139,143,146,149,151,153,155,156,157,158,159,163,166,169,173,177,179]' eval 'chars=[&quot;K&quot;,&quot;O&quot;,&quot;U&quot;,&quot;S&quot;,&quot;K&quot;,&quot;M&quot;,&quot;H&quot;,&quot;O&quot;,&quot;O&quot;,&quot;F&quot;,&quot;D&quot;,&quot;P&quot;,&quot;I&quot;,&quot;L&quot;,&quot;A&quot;,&quot;A&quot;,&quot;R&quot;,&quot;G&quot;,&quot;R&quot;,&quot;A&quot;,&quot;A&quot;,&quot;T&quot;,&quot;T&quot;,&quot;A&quot;,&quot;Z&quot;,&quot;O&quot;,&quot;N&quot;,&quot;N&quot;,&quot;O&quot;,&quot;A&quot;,&quot;R&quot;,&quot;L&quot;,&quot;V&quot;,&quot;D&quot;,&quot;D&quot;,&quot;P&quot;,&quot;D&quot;,&quot;K&quot;,&quot;M&quot;,&quot;I&quot;,&quot;S&quot;,&quot;V&quot;,&quot;E&quot;,&quot;R&quot;,&quot;S&quot;,&quot;T&quot;,&quot;A&quot;,&quot;N&quot;,&quot;D&quot;,&quot;J&quot;,&quot;A&quot;,&quot;F&quot;,&quot;I&quot;,&quot;L&quot;,&quot;E&quot;,&quot;K&quot;,&quot;R&quot;,&quot;T&quot;,&quot;R&quot;,&quot;O&quot;,&quot;Y&quot;,&quot;G&quot;,&quot;O&quot;,&quot;R&quot;,&quot;E&quot;,&quot;K&quot;,&quot;K&quot;,&quot;E&quot;,&quot;R&quot;,&quot;T&quot;,&quot;J&quot;,&quot;E&quot;,&quot;I&quot;,&quot;E&quot;,&quot;N&quot;,&quot;R&quot;,&quot;E&quot;,&quot;E&quot;,&quot;J&quot;,&quot;R&quot;,&quot;J&quot;,&quot;K&quot;,&quot;A&quot;,&quot;S&quot;,&quot;S&quot;,&quot;A&quot;,&quot;N&quot;,&quot;N&quot;,&quot;E&quot;,&quot;N&quot;,&quot;E&quot;,&quot;S&quot;]' eval 'numbers=[4,6,9,13,15,19,23,40,41,51,85,91,97,100,119,123,155]' eval counter=1 eval charIndex=0 begin grid -o '%cell*mm%' '%cell*mm%' %nCols% %nRows% eval '%isCell=_i in cells%' eval '%number=_i in numbers%' eval '%size=10 if isCell else 0%' rect 0 0 '%size*mm%' '%size*mm%' text -s 10 -p 0.5mm 1.5mm '%counter if number else '&quot;'&quot;''&quot;'&quot;'%' text -s 20 -p 5mm 5mm -a center '%chars[charIndex] if isCell else '&quot;'&quot;''&quot;'&quot;'%' eval '%if number: counter+=1 %' eval '%if isCell: charIndex+=1 %' end splitall deduplicate linemerge --tolerance 0.1mm write -m none --page-size '%width*mm%x%height*mm%' --center ./svgs/solution/bd8b66.svg
</dc:source>
        <dc:date>2024-01-06T16:44:06.728246</dc:date>
      </cc:Work>
    </rdf:RDF>
  </metadata>
  <defs/>
  <g fill="none" id="layer1" inkscape:groupmode="layer" inkscape:label="1" stroke="#000000" style="display:inline">
    <polygon points="170.0787,17.0079 170.0787,54.8031 170.0787,54.8031 132.2835,54.8031 132.2835,54.8031 132.2835,92.5984 132.2835,92.5984 170.0787,92.5984 170.0787,92.5984 170.0787,54.8031 170.0787,54.8031 207.874,54.8031 207.874,54.8031 207.874,17.0079 207.874,17.0079"/>
    <polyline points="173.8435,20.1772 174.4685,19.8647 174.4685,19.8647 175.406,18.9272 175.406,18.9272 175.406,25.4897"/>
    <line x1="187.1014" x2="187.1014" y1="28.4055" y2="41.5305"/>
    <line x1="195.8514" x2="187.1014" y1="28.4055" y2="37.1555"/>
    <line x1="190.2264" x2="195.8514" y1="34.0305" y2="41.5305"/>
    <polyline points="207.874,54.8031 245.6693,54.8031 245.6693,54.8031 245.6693,17.0079 245.6693,17.0079 207.874,17.0079"/>
    <polygon points="227.3967,28.4055 226.1467,29.0305 226.1467,29.0305 224.8967,30.2805 224.8967,30.2805 224.2717,31.5305 224.2717,31.5305 223.6467,33.4055 223.6467,33.4055 223.6467,36.5305 223.6467,36.5305 224.2717,38.4055 224.2717,38.4055 224.8967,39.6555 224.8967,39.6555 226.1467,40.9055 226.1467,40.9055 227.3967,41.5305 227.3967,41.5305 229.8967,41.5305 229.8967,41.5305 231.1467,40.9055 231.1467,40.9055 232.3967,39.6555 232.3967,39.6555 233.0217,38.4055 233.0217,38.4055 233.6467,36.5305 233.6467,36.5305 233.6467,33.4055 233.6467,33.4055 233.0217,31.5305 233.0217,31.5305 232.3967,30.2805 232.3967,30.2805 231.1467,29.0305 231.1467,29.0305 229.8967,28.4055 229.8967,28.4055"/>
    <polyline points="283.4646,17.0079 321.2598,17.0079 321.2598,17.0079 321.2598,54.8031 321.2598,54.8031 283.4646,54.8031 283.4646,54.8031 283.4646,92.5984 283.4646,92.5984 283.4646,130.3937 283.4646,130.3937 283.4646,168.189 283.4646,168.189 245.6693,168.189 245.6693,168.189 245.6693,130.3937 245.6693,130.3937 245.6693,92.5984 245.6693,92.5984 245.6693,54.8031 245.6693,54.8031 283.4646,54.8031 283.4646,54.8031 283.4646,17.0079 283.4646,17.0079 245.6693,17.0079"/>
    <polyline points="248.8091,20.4897 248.8091,20.1772 248.8091,20.1772 249.1216,19.5522 249.1216,19.5522 249.4341,19.2397 249.4341,19.2397 250.0591,18.9272 250.0591,18.9272 251.3091,18.9272 251.3091,18.9272 251.9341,19.2397 251.9341,19.2397 252.2466,19.5522 252.2466,19.5522 252.5591,20.1772 252.5591,20.1772 252.5591,20.8022 252.5591,20.8022 252.2466,21.4272 252.2466,21.4272 251.6216,22.3647 251.6216,22.3647 248.4966,25.4897 248.4966,25.4897 252.8716,25.4897"/>
    <polyline points="262.6919,28.4055 262.6919,37.7805 262.6919,37.7805 263.3169,39.6555 263.3169,39.6555 264.5669,40.9055 264.5669,40.9055 266.4419,41.5305 266.4419,41.5305 267.6919,41.5305 267.6919,41.5305 269.5669,40.9055 269.5669,40.9055 270.8169,39.6555 270.8169,39.6555 271.4419,37.7805 271.4419,37.7805 271.4419,28.4055"/>
    <polyline points="308.6122,30.2805 307.3622,29.0305 307.3622,29.0305 305.4872,28.4055 305.4872,28.4055 302.9872,28.4055 302.9872,28.4055 301.1122,29.0305 301.1122,29.0305 299.8622,30.2805 299.8622,30.2805 299.8622,31.5305 299.8622,31.5305 300.4872,32.7805 300.4872,32.7805 301.1122,33.4055 301.1122,33.4055 302.3622,34.0305 302.3622,34.0305 306.1122,35.2805 306.1122,35.2805 307.3622,35.9055 307.3622,35.9055 307.9872,36.5305 307.9872,36.5305 308.6122,37.7805 308.6122,37.7805 308.6122,39.6555 308.6122,39.6555 307.3622,40.9055 307.3622,40.9055 305.4872,41.5305 305.4872,41.5305 302.9872,41.5305 302.9872,41.5305 301.1122,40.9055 301.1122,40.9055 299.8622,39.6555"/>
    <polygon points="359.0551,17.0079 359.0551,54.8031 359.0551,54.8031 396.8504,54.8031 396.8504,54.8031 396.8504,17.0079 396.8504,17.0079"/>
    <polyline points="362.5074,18.9272 365.9449,18.9272 365.9449,18.9272 364.0699,21.4272 364.0699,21.4272 365.0074,21.4272 365.0074,21.4272 365.6324,21.7397 365.6324,21.7397 365.9449,22.0522 365.9449,22.0522 366.2574,22.9897 366.2574,22.9897 366.2574,23.6147 366.2574,23.6147 365.9449,24.5522 365.9449,24.5522 365.3199,25.1772 365.3199,25.1772 364.3824,25.4897 364.3824,25.4897 363.4449,25.4897 363.4449,25.4897 362.5074,25.1772 362.5074,25.1772 362.1949,24.8647 362.1949,24.8647 361.8824,24.2397"/>
    <line x1="376.0778" x2="376.0778" y1="28.4055" y2="41.5305"/>
    <line x1="384.8278" x2="376.0778" y1="28.4055" y2="37.1555"/>
    <line x1="379.2028" x2="384.8278" y1="34.0305" y2="41.5305"/>
    <polyline points="510.2362,54.8031 548.0315,54.8031 548.0315,54.8031 548.0315,17.0079 548.0315,17.0079 510.2362,17.0079 510.2362,17.0079 510.2362,54.8031 510.2362,54.8031 510.2362,92.5984 510.2362,92.5984 472.4409,92.5984 472.4409,92.5984 434.6457,92.5984 434.6457,92.5984 434.6457,130.3937 434.6457,130.3937 472.4409,130.3937 472.4409,130.3937 472.4409,92.5984"/>
    <polyline points="516.1885,25.4897 516.1885,18.9272 516.1885,18.9272 513.0635,23.3022 513.0635,23.3022 517.751,23.3022"/>
    <polyline points="536.6339,41.5305 536.6339,28.4055 536.6339,28.4055 531.6339,41.5305 531.6339,41.5305 526.6339,28.4055 526.6339,28.4055 526.6339,41.5305"/>
    <polygon points="585.8268,17.0079 585.8268,54.8031 585.8268,54.8031 623.622,54.8031 623.622,54.8031 661.4173,54.8031 661.4173,54.8031 661.4173,17.0079 661.4173,17.0079 623.622,17.0079 623.622,17.0079"/>
    <polyline points="623.622,205.9843 623.622,243.7795 623.622,243.7795 585.8268,243.7795 585.8268,243.7795 585.8268,205.9843 585.8268,205.9843 623.622,205.9843 623.622,205.9843 623.622,168.189 623.622,168.189 623.622,130.3937 623.622,130.3937 623.622,92.5984 623.622,92.5984 623.622,54.8031 623.622,54.8031 623.622,17.0079"/>
    <polyline points="592.404,18.9272 589.279,18.9272 589.279,18.9272 588.9665,21.7397 588.9665,21.7397 589.279,21.4272 589.279,21.4272 590.2165,21.1147 590.2165,21.1147 591.154,21.1147 591.154,21.1147 592.0915,21.4272 592.0915,21.4272 592.7165,22.0522 592.7165,22.0522 593.029,22.9897 593.029,22.9897 593.029,23.6147 593.029,23.6147 592.7165,24.5522 592.7165,24.5522 592.0915,25.1772 592.0915,25.1772 591.154,25.4897 591.154,25.4897 590.2165,25.4897 590.2165,25.4897 589.279,25.1772 589.279,25.1772 588.9665,24.8647 588.9665,24.8647 588.654,24.2397"/>
    <line x1="602.8494" x2="602.8494" y1="28.4055" y2="41.5305"/>
    <line x1="611.5994" x2="611.5994" y1="28.4055" y2="41.5305"/>
    <line x1="602.8494" x2="611.5994" y1="34.6555" y2="34.6555"/>
    <polygon points="643.1447,28.4055 641.8947,29.0305 641.8947,29.0305 640.6447,30.2805 640.6447,30.2805 640.0197,31.5305 640.0197,31.5305 639.3947,33.4055 639.3947,33.4055 639.3947,36.5305 639.3947,36.5305 640.0197,38.4055 640.0197,38.4055 640.6447,39.6555 640.6447,39.6555 641.8947,40.9055 641.8947,40.9055 643.1447,41.5305 643.1447,41.5305 645.6447,41.5305 645.6447,41.5305 646.8947,40.9055 646.8947,40.9055 648.1447,39.6555 648.1447,39.6555 648.7697,38.4055 648.7697,38.4055 649.3947,36.5305 649.3947,36.5305 649.3947,33.4055 649.3947,33.4055 648.7697,31.5305 648.7697,31.5305 648.1447,30.2805 648.1447,30.2805 646.8947,29.0305 646.8947,29.0305 645.6447,28.4055 645.6447,28.4055"/>
    <polyline points="661.4173,54.8031 699.2126,54.8031 699.2126,54.8031 699.2126,17.0079 699.2126,17.0079 661.4173,17.0079"/>
    <polygon points="680.94,28.4055 679.69,29.0305 679.69,29.0305 678.44,30.2805 678.44,30.2805 677.815,31.5305 677.815,31.5305 677.19,33.4055 677.19,33.4055 677.19,36.5305 677.19,36.5305 677.815,38.4055 677.815,38.4055 678.44,39.6555 678.44,39.6555 679.69,40.9055 679.69,40.9055 680.94,41.5305 680.94,41.5305 683.44,41.5305 683.44,41.5305 684.69,40.9055 684.69,40.9055 685.94,39.6555 685.94,39.6555 686.565,38.4055 686.565,38.4055 687.19,36.5305 687.19,36.5305 687.19,33.4055 687.19,33.4055 686.565,31.5305 686.565,31.5305 685.94,30.2805 685.94,30.2805 684.69,29.0305 684.69,29.0305 683.44,28.4055 683.44,28.4055"/>
    <polyline points="699.2126,54.8031 737.0079,54.8031 737.0079,54.8031 737.0079,92.5984 737.0079,92.5984 737.0079,130.3937 737.0079,130.3937 737.0079,168.189 737.0079,168.189 699.2126,168.189 699.2126,168.189 661.4173,168.189 661.4173,168.189 661.4173,205.9843 661.4173,205.9843 661.4173,243.7795 661.4173,243.7795 699.2126,243.7795 699.2126,243.7795 699.2126,205.9843 699.2126,205.9843 699.2126,168.189"/>
    <polyline points="737.0079,17.0079 774.8031,17.0079 774.8031,17.0079 774.8031,54.8031 774.8031,54.8031 737.0079,54.8031 737.0079,54.8031 737.0079,17.0079 737.0079,17.0079 699.2126,17.0079"/>
    <polyline points="724.6727,28.4055 716.5477,28.4055 716.5477,28.4055 716.5477,41.5305"/>
    <line x1="716.5477" x2="721.5477" y1="34.6555" y2="34.6555"/>
    <polyline points="743.8976,19.8647 743.5851,19.2397 743.5851,19.2397 742.6476,18.9272 742.6476,18.9272 742.0226,18.9272 742.0226,18.9272 741.0851,19.2397 741.0851,19.2397 740.4601,20.1772 740.4601,20.1772 740.1476,21.7397 740.1476,21.7397 740.1476,23.3022 740.1476,23.3022 740.4601,24.5522 740.4601,24.5522 741.0851,25.1772 741.0851,25.1772 742.0226,25.4897 742.0226,25.4897 742.3351,25.4897 742.3351,25.4897 743.2726,25.1772 743.2726,25.1772 743.8976,24.5522 743.8976,24.5522 744.2101,23.6147 744.2101,23.6147 744.2101,23.3022 744.2101,23.3022 743.8976,22.3647 743.8976,22.3647 743.2726,21.7397 743.2726,21.7397 742.3351,21.4272 742.3351,21.4272 742.0226,21.4272 742.0226,21.4272 741.0851,21.7397 741.0851,21.7397 740.4601,22.3647 740.4601,22.3647 740.1476,23.3022"/>
    <polygon points="754.0305,28.4055 754.0305,41.5305 754.0305,41.5305 758.4055,41.5305 758.4055,41.5305 760.2805,40.9055 760.2805,40.9055 761.5305,39.6555 761.5305,39.6555 762.1555,38.4055 762.1555,38.4055 762.7805,36.5305 762.7805,36.5305 762.7805,33.4055 762.7805,33.4055 762.1555,31.5305 762.1555,31.5305 761.5305,30.2805 761.5305,30.2805 760.2805,29.0305 760.2805,29.0305 758.4055,28.4055 758.4055,28.4055"/>
    <polyline points="135.1107,56.7224 139.4857,56.7224 139.4857,56.7224 136.3607,63.2849"/>
    <polyline points="149.3061,73.0758 154.9311,73.0758 154.9311,73.0758 156.8061,72.4508 156.8061,72.4508 157.4311,71.8258 157.4311,71.8258 158.0561,70.5758 158.0561,70.5758 158.0561,68.7008 158.0561,68.7008 157.4311,67.4508 157.4311,67.4508 156.8061,66.8258 156.8061,66.8258 154.9311,66.2008 154.9311,66.2008 149.3061,66.2008 149.3061,66.2008 149.3061,79.3258"/>
    <line x1="245.6693" x2="283.4646" y1="92.5984" y2="92.5984"/>
    <line x1="267.0669" x2="267.0669" y1="66.2008" y2="79.3258"/>
    <polyline points="359.0551,54.8031 359.0551,92.5984 359.0551,92.5984 359.0551,130.3937 359.0551,130.3937 396.8504,130.3937 396.8504,130.3937 396.8504,92.5984 396.8504,92.5984 396.8504,54.8031"/>
    <line x1="359.0551" x2="396.8504" y1="92.5984" y2="92.5984"/>
    <polyline points="376.7028,66.2008 376.7028,79.3258 376.7028,79.3258 384.2028,79.3258"/>
    <polyline points="548.0315,92.5984 548.0315,130.3937 548.0315,130.3937 510.2362,130.3937 510.2362,130.3937 510.2362,92.5984 510.2362,92.5984 548.0315,92.5984 548.0315,92.5984 548.0315,54.8031"/>
    <polyline points="534.7589,79.3258 529.7589,66.2008 529.7589,66.2008 524.7589,79.3258"/>
    <line x1="526.6339" x2="532.8839" y1="74.9508" y2="74.9508"/>
    <polyline points="585.8268,54.8031 585.8268,92.5984 585.8268,92.5984 623.622,92.5984"/>
    <polyline points="610.3494,79.3258 605.3494,66.2008 605.3494,66.2008 600.3494,79.3258"/>
    <line x1="602.2244" x2="608.4744" y1="74.9508" y2="74.9508"/>
    <polyline points="737.0079,92.5984 774.8031,92.5984 774.8031,92.5984 774.8031,54.8031"/>
    <polyline points="754.0305,72.4508 759.6555,72.4508 759.6555,72.4508 761.5305,71.8258 761.5305,71.8258 762.1555,71.2008 762.1555,71.2008 762.7805,69.9508 762.7805,69.9508 762.7805,68.7008 762.7805,68.7008 762.1555,67.4508 762.1555,67.4508 761.5305,66.8258 761.5305,66.8258 759.6555,66.2008 759.6555,66.2008 754.0305,66.2008 754.0305,66.2008 754.0305,79.3258"/>
    <line x1="758.4055" x2="762.7805" y1="72.4508" y2="79.3258"/>
    <polygon points="18.8976,92.5984 18.8976,130.3937 18.8976,130.3937 56.6929,130.3937 56.6929,130.3937 94.4882,130.3937 94.4882,130.3937 94.4882,92.5984 94.4882,92.5984 56.6929,92.5984 56.6929,92.5984"/>
    <polyline points="170.0787,168.189 170.0787,205.9843 170.0787,205.9843 132.2835,205.9843 132.2835,205.9843 132.2835,243.7795 132.2835,243.7795 94.4882,243.7795 94.4882,243.7795 94.4882,205.9843 94.4882,205.9843 132.2835,205.9843 132.2835,205.9843 132.2835,168.189 132.2835,168.189 170.0787,168.189 170.0787,168.189 170.0787,130.3937 170.0787,130.3937 170.0787,92.5984 170.0787,92.5984 207.874,92.5984 207.874,92.5984 207.874,130.3937 207.874,130.3937 170.0787,130.3937 170.0787,130.3937 132.2835,130.3937 132.2835,130.3937 94.4882,130.3937 94.4882,130.3937 94.4882,168.189 94.4882,168.189 94.4882,205.9843 94.4882,205.9843 56.6929,205.9843 56.6929,205.9843 56.6929,168.189 56.6929,168.189 56.6929,130.3937 56.6929,130.3937 56.6929,92.5984"/>
    <polygon points="23.2874,94.5177 22.3499,94.8302 22.3499,94.8302 22.0374,95.4552 22.0374,95.4552 22.0374,96.0802 22.0374,96.0802 22.3499,96.7052 22.3499,96.7052 22.9749,97.0177 22.9749,97.0177 24.2249,97.3302 24.2249,97.3302 25.1624,97.6427 25.1624,97.6427 25.7874,98.2677 25.7874,98.2677 26.0999,98.8927 26.0999,98.8927 26.0999,99.8302 26.0999,99.8302 25.7874,100.4552 25.7874,100.4552 25.4749,100.7677 25.4749,100.7677 24.5374,101.0802 24.5374,101.0802 23.2874,101.0802 23.2874,101.0802 22.3499,100.7677 22.3499,100.7677 22.0374,100.4552 22.0374,100.4552 21.7249,99.8302 21.7249,99.8302 21.7249,98.8927 21.7249,98.8927 22.0374,98.2677 22.0374,98.2677 22.6624,97.6427 22.6624,97.6427 23.5999,97.3302 23.5999,97.3302 24.8499,97.0177 24.8499,97.0177 25.4749,96.7052 25.4749,96.7052 25.7874,96.0802 25.7874,96.0802 25.7874,95.4552 25.7874,95.4552 25.4749,94.8302 25.4749,94.8302 24.5374,94.5177 24.5374,94.5177"/>
    <polyline points="44.3578,107.1211 43.7328,105.8711 43.7328,105.8711 42.4828,104.6211 42.4828,104.6211 41.2328,103.9961 41.2328,103.9961 38.7328,103.9961 38.7328,103.9961 37.4828,104.6211 37.4828,104.6211 36.2328,105.8711 36.2328,105.8711 35.6078,107.1211 35.6078,107.1211 34.9828,108.9961 34.9828,108.9961 34.9828,112.1211 34.9828,112.1211 35.6078,113.9961 35.6078,113.9961 36.2328,115.2461 36.2328,115.2461 37.4828,116.4961 37.4828,116.4961 38.7328,117.1211 38.7328,117.1211 41.2328,117.1211 41.2328,117.1211 42.4828,116.4961 42.4828,116.4961 43.7328,115.2461 43.7328,115.2461 44.3578,113.9961 44.3578,113.9961 44.3578,112.1211 44.3578,112.1211 41.2328,112.1211"/>
    <polyline points="63.5827,96.7052 63.2702,97.6427 63.2702,97.6427 62.6452,98.2677 62.6452,98.2677 61.7077,98.5802 61.7077,98.5802 61.3952,98.5802 61.3952,98.5802 60.4577,98.2677 60.4577,98.2677 59.8327,97.6427 59.8327,97.6427 59.5202,96.7052 59.5202,96.7052 59.5202,96.3927 59.5202,96.3927 59.8327,95.4552 59.8327,95.4552 60.4577,94.8302 60.4577,94.8302 61.3952,94.5177 61.3952,94.5177 61.7077,94.5177 61.7077,94.5177 62.6452,94.8302 62.6452,94.8302 63.2702,95.4552 63.2702,95.4552 63.5827,96.7052 63.5827,96.7052 63.5827,98.2677 63.5827,98.2677 63.2702,99.8302 63.2702,99.8302 62.6452,100.7677 62.6452,100.7677 61.7077,101.0802 61.7077,101.0802 61.0827,101.0802 61.0827,101.0802 60.1452,100.7677 60.1452,100.7677 59.8327,100.1427"/>
    <polyline points="73.7156,110.2461 79.3406,110.2461 79.3406,110.2461 81.2156,109.6211 81.2156,109.6211 81.8406,108.9961 81.8406,108.9961 82.4656,107.7461 82.4656,107.7461 82.4656,106.4961 82.4656,106.4961 81.8406,105.2461 81.8406,105.2461 81.2156,104.6211 81.2156,104.6211 79.3406,103.9961 79.3406,103.9961 73.7156,103.9961 73.7156,103.9961 73.7156,117.1211"/>
    <line x1="78.0906" x2="82.4656" y1="110.2461" y2="117.1211"/>
    <polyline points="132.2835,168.189 132.2835,130.3937 132.2835,130.3937 132.2835,92.5984 132.2835,92.5984 94.4882,92.5984"/>
    <polyline points="119.0108,117.1211 114.0108,103.9961 114.0108,103.9961 109.0108,117.1211"/>
    <line x1="110.8858" x2="117.1358" y1="112.7461" y2="112.7461"/>
    <polyline points="156.8061,117.1211 151.8061,103.9961 151.8061,103.9961 146.8061,117.1211"/>
    <line x1="148.6811" x2="154.9311" y1="112.7461" y2="112.7461"/>
    <line x1="189.6014" x2="189.6014" y1="103.9961" y2="117.1211"/>
    <line x1="185.2264" x2="193.9764" y1="103.9961" y2="103.9961"/>
    <line x1="245.6693" x2="283.4646" y1="130.3937" y2="130.3937"/>
    <line x1="265.1919" x2="265.1919" y1="103.9961" y2="117.1211"/>
    <line x1="260.8169" x2="269.5669" y1="103.9961" y2="103.9961"/>
    <polyline points="383.5778,117.1211 378.5778,103.9961 378.5778,103.9961 373.5778,117.1211"/>
    <line x1="375.4528" x2="381.7028" y1="112.7461" y2="112.7461"/>
    <polyline points="438.4104,95.7677 439.0354,95.4552 439.0354,95.4552 439.9729,94.5177 439.9729,94.5177 439.9729,101.0802"/>
    <polygon points="445.5979,94.5177 444.6604,94.8302 444.6604,94.8302 444.0354,95.7677 444.0354,95.7677 443.7229,97.3302 443.7229,97.3302 443.7229,98.2677 443.7229,98.2677 444.0354,99.8302 444.0354,99.8302 444.6604,100.7677 444.6604,100.7677 445.5979,101.0802 445.5979,101.0802 446.2229,101.0802 446.2229,101.0802 447.1604,100.7677 447.1604,100.7677 447.7854,99.8302 447.7854,99.8302 448.0979,98.2677 448.0979,98.2677 448.0979,97.3302 448.0979,97.3302 447.7854,95.7677 447.7854,95.7677 447.1604,94.8302 447.1604,94.8302 446.2229,94.5177 446.2229,94.5177"/>
    <polyline points="451.0433,103.9961 459.7933,103.9961 459.7933,103.9961 451.0433,117.1211 451.0433,117.1211 459.7933,117.1211"/>
    <polyline points="472.4409,130.3937 510.2362,130.3937 510.2362,130.3937 510.2362,168.189 510.2362,168.189 472.4409,168.189 472.4409,168.189 434.6457,168.189 434.6457,168.189 396.8504,168.189 396.8504,168.189 396.8504,130.3937"/>
    <polygon points="491.9636,103.9961 490.7136,104.6211 490.7136,104.6211 489.4636,105.8711 489.4636,105.8711 488.8386,107.1211 488.8386,107.1211 488.2136,108.9961 488.2136,108.9961 488.2136,112.1211 488.2136,112.1211 488.8386,113.9961 488.8386,113.9961 489.4636,115.2461 489.4636,115.2461 490.7136,116.4961 490.7136,116.4961 491.9636,117.1211 491.9636,117.1211 494.4636,117.1211 494.4636,117.1211 495.7136,116.4961 495.7136,116.4961 496.9636,115.2461 496.9636,115.2461 497.5886,113.9961 497.5886,113.9961 498.2136,112.1211 498.2136,112.1211 498.2136,108.9961 498.2136,108.9961 497.5886,107.1211 497.5886,107.1211 496.9636,105.8711 496.9636,105.8711 495.7136,104.6211 495.7136,104.6211 494.4636,103.9961 494.4636,103.9961"/>
    <polyline points="536.0089,103.9961 536.0089,117.1211 536.0089,117.1211 527.2589,103.9961 527.2589,103.9961 527.2589,117.1211"/>
    <polyline points="585.8268,92.5984 585.8268,130.3937 585.8268,130.3937 623.622,130.3937"/>
    <polyline points="611.5994,103.9961 611.5994,117.1211 611.5994,117.1211 602.8494,103.9961 602.8494,103.9961 602.8494,117.1211"/>
    <polyline points="737.0079,130.3937 774.8031,130.3937 774.8031,130.3937 774.8031,92.5984"/>
    <polygon points="756.5305,103.9961 755.2805,104.6211 755.2805,104.6211 754.0305,105.8711 754.0305,105.8711 753.4055,107.1211 753.4055,107.1211 752.7805,108.9961 752.7805,108.9961 752.7805,112.1211 752.7805,112.1211 753.4055,113.9961 753.4055,113.9961 754.0305,115.2461 754.0305,115.2461 755.2805,116.4961 755.2805,116.4961 756.5305,117.1211 756.5305,117.1211 759.0305,117.1211 759.0305,117.1211 760.2805,116.4961 760.2805,116.4961 761.5305,115.2461 761.5305,115.2461 762.1555,113.9961 762.1555,113.9961 762.7805,112.1211 762.7805,112.1211 762.7805,108.9961 762.7805,108.9961 762.1555,107.1211 762.1555,107.1211 761.5305,105.8711 761.5305,105.8711 760.2805,104.6211 760.2805,104.6211 759.0305,103.9961 759.0305,103.9961"/>
    <line x1="56.6929" x2="94.4882" y1="168.189" y2="168.189"/>
    <polyline points="81.2156,154.9163 76.2156,141.7913 76.2156,141.7913 71.2156,154.9163"/>
    <line x1="73.0906" x2="79.3406" y1="150.5413" y2="150.5413"/>
    <polyline points="149.3061,148.0413 154.9311,148.0413 154.9311,148.0413 156.8061,147.4163 156.8061,147.4163 157.4311,146.7913 157.4311,146.7913 158.0561,145.5413 158.0561,145.5413 158.0561,144.2913 158.0561,144.2913 157.4311,143.0413 157.4311,143.0413 156.8061,142.4163 156.8061,142.4163 154.9311,141.7913 154.9311,141.7913 149.3061,141.7913 149.3061,141.7913 149.3061,154.9163"/>
    <line x1="153.6811" x2="158.0561" y1="148.0413" y2="154.9163"/>
    <polyline points="263.3169,141.7913 263.3169,154.9163 263.3169,154.9163 270.8169,154.9163"/>
    <polyline points="359.0551,130.3937 359.0551,168.189 359.0551,168.189 321.2598,168.189 321.2598,168.189 283.4646,168.189 283.4646,168.189 283.4646,205.9843 283.4646,205.9843 321.2598,205.9843 321.2598,205.9843 321.2598,168.189"/>
    <polyline points="321.2598,205.9843 359.0551,205.9843 359.0551,205.9843 359.0551,243.7795 359.0551,243.7795 396.8504,243.7795 396.8504,243.7795 396.8504,205.9843 396.8504,205.9843 359.0551,205.9843 359.0551,205.9843 359.0551,168.189 359.0551,168.189 396.8504,168.189 396.8504,168.189 396.8504,205.9843 396.8504,205.9843 434.6457,205.9843 434.6457,205.9843 434.6457,168.189"/>
    <polyline points="373.5778,141.7913 378.5778,154.9163 378.5778,154.9163 383.5778,141.7913"/>
    <polyline points="472.4409,168.189 472.4409,205.9843 472.4409,205.9843 510.2362,205.9843 510.2362,205.9843 510.2362,243.7795 510.2362,243.7795 548.0315,243.7795 548.0315,243.7795 548.0315,205.9843 548.0315,205.9843 548.0315,168.189 548.0315,168.189 585.8268,168.189 585.8268,168.189 585.8268,205.9843 585.8268,205.9843 548.0315,205.9843 548.0315,205.9843 510.2362,205.9843 510.2362,205.9843 510.2362,168.189 510.2362,168.189 548.0315,168.189 548.0315,168.189 548.0315,130.3937"/>
    <polygon points="527.2589,141.7913 527.2589,154.9163 527.2589,154.9163 531.6339,154.9163 531.6339,154.9163 533.5089,154.2913 533.5089,154.2913 534.7589,153.0413 534.7589,153.0413 535.3839,151.7913 535.3839,151.7913 536.0089,149.9163 536.0089,149.9163 536.0089,146.7913 536.0089,146.7913 535.3839,144.9163 535.3839,144.9163 534.7589,143.6663 534.7589,143.6663 533.5089,142.4163 533.5089,142.4163 531.6339,141.7913 531.6339,141.7913"/>
    <polyline points="585.8268,130.3937 585.8268,168.189 585.8268,168.189 623.622,168.189"/>
    <polygon points="602.8494,141.7913 602.8494,154.9163 602.8494,154.9163 607.2244,154.9163 607.2244,154.9163 609.0994,154.2913 609.0994,154.2913 610.3494,153.0413 610.3494,153.0413 610.9744,151.7913 610.9744,151.7913 611.5994,149.9163 611.5994,149.9163 611.5994,146.7913 611.5994,146.7913 610.9744,144.9163 610.9744,144.9163 610.3494,143.6663 610.3494,143.6663 609.0994,142.4163 609.0994,142.4163 607.2244,141.7913 607.2244,141.7913"/>
    <polyline points="661.4173,205.9843 699.2126,205.9843 699.2126,205.9843 737.0079,205.9843 737.0079,205.9843 774.8031,205.9843 774.8031,205.9843 774.8031,243.7795 774.8031,243.7795 737.0079,243.7795 737.0079,243.7795 737.0079,205.9843 737.0079,205.9843 737.0079,168.189 737.0079,168.189 774.8031,168.189 774.8031,168.189 774.8031,130.3937"/>
    <polyline points="754.0305,148.6663 759.6555,148.6663 759.6555,148.6663 761.5305,148.0413 761.5305,148.0413 762.1555,147.4163 762.1555,147.4163 762.7805,146.1663 762.7805,146.1663 762.7805,144.2913 762.7805,144.2913 762.1555,143.0413 762.1555,143.0413 761.5305,142.4163 761.5305,142.4163 759.6555,141.7913 759.6555,141.7913 754.0305,141.7913 754.0305,141.7913 754.0305,154.9163"/>
    <polygon points="73.7156,179.5866 73.7156,192.7116 73.7156,192.7116 78.0906,192.7116 78.0906,192.7116 79.9656,192.0866 79.9656,192.0866 81.2156,190.8366 81.2156,190.8366 81.8406,189.5866 81.8406,189.5866 82.4656,187.7116 82.4656,187.7116 82.4656,184.5866 82.4656,184.5866 81.8406,182.7116 81.8406,182.7116 81.2156,181.4616 81.2156,181.4616 79.9656,180.2116 79.9656,180.2116 78.0906,179.5866 78.0906,179.5866"/>
    <line x1="149.3061" x2="149.3061" y1="179.5866" y2="192.7116"/>
    <line x1="158.0561" x2="149.3061" y1="179.5866" y2="188.3366"/>
    <line x1="152.4311" x2="158.0561" y1="185.2116" y2="192.7116"/>
    <polygon points="207.874,168.189 207.874,205.9843 207.874,205.9843 245.6693,205.9843 245.6693,205.9843 245.6693,168.189 245.6693,168.189"/>
    <polyline points="211.6388,171.3583 212.2638,171.0458 212.2638,171.0458 213.2013,170.1083 213.2013,170.1083 213.2013,176.6708"/>
    <polyline points="217.8888,171.3583 218.5138,171.0458 218.5138,171.0458 219.4513,170.1083 219.4513,170.1083 219.4513,176.6708"/>
    <polyline points="234.2717,192.7116 234.2717,179.5866 234.2717,179.5866 229.2717,192.7116 229.2717,192.7116 224.2717,179.5866 224.2717,179.5866 224.2717,192.7116"/>
    <polygon points="245.6693,205.9843 283.4646,205.9843 283.4646,205.9843 283.4646,243.7795 283.4646,243.7795 245.6693,243.7795 245.6693,243.7795"/>
    <line x1="267.0669" x2="267.0669" y1="179.5866" y2="192.7116"/>
    <polyline points="308.6122,181.4616 307.3622,180.2116 307.3622,180.2116 305.4872,179.5866 305.4872,179.5866 302.9872,179.5866 302.9872,179.5866 301.1122,180.2116 301.1122,180.2116 299.8622,181.4616 299.8622,181.4616 299.8622,182.7116 299.8622,182.7116 300.4872,183.9616 300.4872,183.9616 301.1122,184.5866 301.1122,184.5866 302.3622,185.2116 302.3622,185.2116 306.1122,186.4616 306.1122,186.4616 307.3622,187.0866 307.3622,187.0866 307.9872,187.7116 307.9872,187.7116 308.6122,188.9616 308.6122,188.9616 308.6122,190.8366 308.6122,190.8366 307.3622,192.0866 307.3622,192.0866 305.4872,192.7116 305.4872,192.7116 302.9872,192.7116 302.9872,192.7116 301.1122,192.0866 301.1122,192.0866 299.8622,190.8366"/>
    <polyline points="335.7825,179.5866 340.7825,192.7116 340.7825,192.7116 345.7825,179.5866"/>
    <polyline points="384.5153,179.5866 376.3903,179.5866 376.3903,179.5866 376.3903,192.7116 376.3903,192.7116 384.5153,192.7116"/>
    <line x1="376.3903" x2="381.3903" y1="185.8366" y2="185.8366"/>
    <polyline points="413.873,185.8366 419.498,185.8366 419.498,185.8366 421.373,185.2116 421.373,185.2116 421.998,184.5866 421.998,184.5866 422.623,183.3366 422.623,183.3366 422.623,182.0866 422.623,182.0866 421.998,180.8366 421.998,180.8366 421.373,180.2116 421.373,180.2116 419.498,179.5866 419.498,179.5866 413.873,179.5866 413.873,179.5866 413.873,192.7116"/>
    <line x1="418.248" x2="422.623" y1="185.8366" y2="192.7116"/>
    <polygon points="434.6457,205.9843 472.4409,205.9843 472.4409,205.9843 472.4409,243.7795 472.4409,243.7795 434.6457,243.7795 434.6457,243.7795"/>
    <polyline points="438.4104,171.3583 439.0354,171.0458 439.0354,171.0458 439.9729,170.1083 439.9729,170.1083 439.9729,176.6708"/>
    <polyline points="444.0354,171.6708 444.0354,171.3583 444.0354,171.3583 444.3479,170.7333 444.3479,170.7333 444.6604,170.4208 444.6604,170.4208 445.2854,170.1083 445.2854,170.1083 446.5354,170.1083 446.5354,170.1083 447.1604,170.4208 447.1604,170.4208 447.4729,170.7333 447.4729,170.7333 447.7854,171.3583 447.7854,171.3583 447.7854,171.9833 447.7854,171.9833 447.4729,172.6083 447.4729,172.6083 446.8479,173.5458 446.8479,173.5458 443.7229,176.6708 443.7229,176.6708 448.0979,176.6708"/>
    <polyline points="459.7933,181.4616 458.5433,180.2116 458.5433,180.2116 456.6683,179.5866 456.6683,179.5866 454.1683,179.5866 454.1683,179.5866 452.2933,180.2116 452.2933,180.2116 451.0433,181.4616 451.0433,181.4616 451.0433,182.7116 451.0433,182.7116 451.6683,183.9616 451.6683,183.9616 452.2933,184.5866 452.2933,184.5866 453.5433,185.2116 453.5433,185.2116 457.2933,186.4616 457.2933,186.4616 458.5433,187.0866 458.5433,187.0866 459.1683,187.7116 459.1683,187.7116 459.7933,188.9616 459.7933,188.9616 459.7933,190.8366 459.7933,190.8366 458.5433,192.0866 458.5433,192.0866 456.6683,192.7116 456.6683,192.7116 454.1683,192.7116 454.1683,192.7116 452.2933,192.0866 452.2933,192.0866 451.0433,190.8366"/>
    <line x1="491.9636" x2="491.9636" y1="179.5866" y2="192.7116"/>
    <line x1="487.5886" x2="496.3386" y1="179.5866" y2="179.5866"/>
    <polyline points="534.7589,192.7116 529.7589,179.5866 529.7589,179.5866 524.7589,192.7116"/>
    <line x1="526.6339" x2="532.8839" y1="188.3366" y2="188.3366"/>
    <polyline points="573.8041,179.5866 573.8041,192.7116 573.8041,192.7116 565.0541,179.5866 565.0541,179.5866 565.0541,192.7116"/>
    <polygon points="602.8494,179.5866 602.8494,192.7116 602.8494,192.7116 607.2244,192.7116 607.2244,192.7116 609.0994,192.0866 609.0994,192.0866 610.3494,190.8366 610.3494,190.8366 610.9744,189.5866 610.9744,189.5866 611.5994,187.7116 611.5994,187.7116 611.5994,184.5866 611.5994,184.5866 610.9744,182.7116 610.9744,182.7116 610.3494,181.4616 610.3494,181.4616 609.0994,180.2116 609.0994,180.2116 607.2244,179.5866 607.2244,179.5866"/>
    <polyline points="665.1821,171.3583 665.8071,171.0458 665.8071,171.0458 666.7446,170.1083 666.7446,170.1083 666.7446,176.6708"/>
    <polyline points="671.1196,170.1083 674.5571,170.1083 674.5571,170.1083 672.6821,172.6083 672.6821,172.6083 673.6196,172.6083 673.6196,172.6083 674.2446,172.9208 674.2446,172.9208 674.5571,173.2333 674.5571,173.2333 674.8696,174.1708 674.8696,174.1708 674.8696,174.7958 674.8696,174.7958 674.5571,175.7333 674.5571,175.7333 673.9321,176.3583 673.9321,176.3583 672.9946,176.6708 672.9946,176.6708 672.0571,176.6708 672.0571,176.6708 671.1196,176.3583 671.1196,176.3583 670.8071,176.0458 670.8071,176.0458 670.4946,175.4208"/>
    <polyline points="684.69,179.5866 684.69,189.5866 684.69,189.5866 684.065,191.4616 684.065,191.4616 683.44,192.0866 683.44,192.0866 682.19,192.7116 682.19,192.7116 680.94,192.7116 680.94,192.7116 679.69,192.0866 679.69,192.0866 679.065,191.4616 679.065,191.4616 678.44,189.5866 678.44,189.5866 678.44,188.3366"/>
    <polyline points="723.7352,192.7116 718.7352,179.5866 718.7352,179.5866 713.7352,192.7116"/>
    <line x1="715.6102" x2="721.8602" y1="188.3366" y2="188.3366"/>
    <polygon points="18.8976,205.9843 18.8976,243.7795 18.8976,243.7795 56.6929,243.7795 56.6929,243.7795 94.4882,243.7795 94.4882,243.7795 94.4882,281.5748 94.4882,281.5748 56.6929,281.5748 56.6929,281.5748 56.6929,243.7795 56.6929,243.7795 56.6929,205.9843 56.6929,205.9843"/>
    <polyline points="22.6624,209.1535 23.2874,208.841 23.2874,208.841 24.2249,207.9035 24.2249,207.9035 24.2249,214.466"/>
    <polyline points="31.0999,214.466 31.0999,207.9035 31.0999,207.9035 27.9749,212.2785 27.9749,212.2785 32.6624,212.2785"/>
    <polyline points="44.3578,217.3819 36.2328,217.3819 36.2328,217.3819 36.2328,230.5069"/>
    <line x1="36.2328" x2="41.2328" y1="223.6319" y2="223.6319"/>
    <line x1="78.0906" x2="78.0906" y1="217.3819" y2="230.5069"/>
    <polyline points="112.1358,217.3819 112.1358,230.5069 112.1358,230.5069 119.6358,230.5069"/>
    <polyline points="207.874,243.7795 245.6693,243.7795 245.6693,243.7795 245.6693,281.5748 245.6693,281.5748 207.874,281.5748 207.874,281.5748 207.874,243.7795 207.874,243.7795 170.0787,243.7795 170.0787,243.7795 170.0787,281.5748 170.0787,281.5748 170.0787,319.3701 170.0787,319.3701 132.2835,319.3701 132.2835,319.3701 132.2835,281.5748 132.2835,281.5748 132.2835,243.7795 132.2835,243.7795 170.0787,243.7795 170.0787,243.7795 170.0787,205.9843"/>
    <polyline points="157.7436,217.3819 149.6186,217.3819 149.6186,217.3819 149.6186,230.5069 149.6186,230.5069 157.7436,230.5069"/>
    <line x1="149.6186" x2="154.6186" y1="223.6319" y2="223.6319"/>
    <line x1="262.6919" x2="262.6919" y1="217.3819" y2="230.5069"/>
    <line x1="271.4419" x2="262.6919" y1="217.3819" y2="226.1319"/>
    <line x1="265.8169" x2="271.4419" y1="223.0069" y2="230.5069"/>
    <polyline points="376.0778,223.6319 381.7028,223.6319 381.7028,223.6319 383.5778,223.0069 383.5778,223.0069 384.2028,222.3819 384.2028,222.3819 384.8278,221.1319 384.8278,221.1319 384.8278,219.8819 384.8278,219.8819 384.2028,218.6319 384.2028,218.6319 383.5778,218.0069 383.5778,218.0069 381.7028,217.3819 381.7028,217.3819 376.0778,217.3819 376.0778,217.3819 376.0778,230.5069"/>
    <line x1="380.4528" x2="384.8278" y1="223.6319" y2="230.5069"/>
    <line x1="454.1683" x2="454.1683" y1="217.3819" y2="230.5069"/>
    <line x1="449.7933" x2="458.5433" y1="217.3819" y2="217.3819"/>
    <polyline points="527.2589,223.6319 532.8839,223.6319 532.8839,223.6319 534.7589,223.0069 534.7589,223.0069 535.3839,222.3819 535.3839,222.3819 536.0089,221.1319 536.0089,221.1319 536.0089,219.8819 536.0089,219.8819 535.3839,218.6319 535.3839,218.6319 534.7589,218.0069 534.7589,218.0069 532.8839,217.3819 532.8839,217.3819 527.2589,217.3819 527.2589,217.3819 527.2589,230.5069"/>
    <line x1="531.6339" x2="536.0089" y1="223.6319" y2="230.5069"/>
    <polygon points="605.3494,217.3819 604.0994,218.0069 604.0994,218.0069 602.8494,219.2569 602.8494,219.2569 602.2244,220.5069 602.2244,220.5069 601.5994,222.3819 601.5994,222.3819 601.5994,225.5069 601.5994,225.5069 602.2244,227.3819 602.2244,227.3819 602.8494,228.6319 602.8494,228.6319 604.0994,229.8819 604.0994,229.8819 605.3494,230.5069 605.3494,230.5069 607.8494,230.5069 607.8494,230.5069 609.0994,229.8819 609.0994,229.8819 610.3494,228.6319 610.3494,228.6319 610.9744,227.3819 610.9744,227.3819 611.5994,225.5069 611.5994,225.5069 611.5994,222.3819 611.5994,222.3819 610.9744,220.5069 610.9744,220.5069 610.3494,219.2569 610.3494,219.2569 609.0994,218.0069 609.0994,218.0069 607.8494,217.3819 607.8494,217.3819"/>
    <polyline points="675.94,217.3819 680.94,223.6319 680.94,223.6319 680.94,230.5069"/>
    <line x1="685.94" x2="680.94" y1="217.3819" y2="223.6319"/>
    <polyline points="740.7726,209.1535 741.3976,208.841 741.3976,208.841 742.3351,207.9035 742.3351,207.9035 742.3351,214.466"/>
    <polyline points="749.8351,207.9035 746.7101,207.9035 746.7101,207.9035 746.3976,210.716 746.3976,210.716 746.7101,210.4035 746.7101,210.4035 747.6476,210.091 747.6476,210.091 748.5851,210.091 748.5851,210.091 749.5226,210.4035 749.5226,210.4035 750.1476,211.0285 750.1476,211.0285 750.4601,211.966 750.4601,211.966 750.4601,212.591 750.4601,212.591 750.1476,213.5285 750.1476,213.5285 749.5226,214.1535 749.5226,214.1535 748.5851,214.466 748.5851,214.466 747.6476,214.466 747.6476,214.466 746.7101,214.1535 746.7101,214.1535 746.3976,213.841 746.3976,213.841 746.0851,213.216"/>
    <polyline points="762.468,220.5069 761.843,219.2569 761.843,219.2569 760.593,218.0069 760.593,218.0069 759.343,217.3819 759.343,217.3819 756.843,217.3819 756.843,217.3819 755.593,218.0069 755.593,218.0069 754.343,219.2569 754.343,219.2569 753.718,220.5069 753.718,220.5069 753.093,222.3819 753.093,222.3819 753.093,225.5069 753.093,225.5069 753.718,227.3819 753.718,227.3819 754.343,228.6319 754.343,228.6319 755.593,229.8819 755.593,229.8819 756.843,230.5069 756.843,230.5069 759.343,230.5069 759.343,230.5069 760.593,229.8819 760.593,229.8819 761.843,228.6319 761.843,228.6319 762.468,227.3819 762.468,227.3819 762.468,225.5069 762.468,225.5069 759.343,225.5069"/>
    <polygon points="76.2156,255.1772 74.9656,255.8022 74.9656,255.8022 73.7156,257.0522 73.7156,257.0522 73.0906,258.3022 73.0906,258.3022 72.4656,260.1772 72.4656,260.1772 72.4656,263.3022 72.4656,263.3022 73.0906,265.1772 73.0906,265.1772 73.7156,266.4272 73.7156,266.4272 74.9656,267.6772 74.9656,267.6772 76.2156,268.3022 76.2156,268.3022 78.7156,268.3022 78.7156,268.3022 79.9656,267.6772 79.9656,267.6772 81.2156,266.4272 81.2156,266.4272 81.8406,265.1772 81.8406,265.1772 82.4656,263.3022 82.4656,263.3022 82.4656,260.1772 82.4656,260.1772 81.8406,258.3022 81.8406,258.3022 81.2156,257.0522 81.2156,257.0522 79.9656,255.8022 79.9656,255.8022 78.7156,255.1772 78.7156,255.1772"/>
    <polyline points="132.2835,281.5748 170.0787,281.5748 170.0787,281.5748 207.874,281.5748"/>
    <polyline points="136.0482,246.9488 136.6732,246.6363 136.6732,246.6363 137.6107,245.6988 137.6107,245.6988 137.6107,252.2613"/>
    <polyline points="145.4232,246.6363 145.1107,246.0113 145.1107,246.0113 144.1732,245.6988 144.1732,245.6988 143.5482,245.6988 143.5482,245.6988 142.6107,246.0113 142.6107,246.0113 141.9857,246.9488 141.9857,246.9488 141.6732,248.5113 141.6732,248.5113 141.6732,250.0738 141.6732,250.0738 141.9857,251.3238 141.9857,251.3238 142.6107,251.9488 142.6107,251.9488 143.5482,252.2613 143.5482,252.2613 143.8607,252.2613 143.8607,252.2613 144.7982,251.9488 144.7982,251.9488 145.4232,251.3238 145.4232,251.3238 145.7357,250.3863 145.7357,250.3863 145.7357,250.0738 145.7357,250.0738 145.4232,249.1363 145.4232,249.1363 144.7982,248.5113 144.7982,248.5113 143.8607,248.1988 143.8607,248.1988 143.5482,248.1988 143.5482,248.1988 142.6107,248.5113 142.6107,248.5113 141.9857,249.1363 141.9857,249.1363 141.6732,250.0738"/>
    <polyline points="149.3061,261.4272 154.9311,261.4272 154.9311,261.4272 156.8061,260.8022 156.8061,260.8022 157.4311,260.1772 157.4311,260.1772 158.0561,258.9272 158.0561,258.9272 158.0561,257.6772 158.0561,257.6772 157.4311,256.4272 157.4311,256.4272 156.8061,255.8022 156.8061,255.8022 154.9311,255.1772 154.9311,255.1772 149.3061,255.1772 149.3061,255.1772 149.3061,268.3022"/>
    <line x1="153.6811" x2="158.0561" y1="261.4272" y2="268.3022"/>
    <polyline points="195.5389,255.1772 187.4139,255.1772 187.4139,255.1772 187.4139,268.3022 187.4139,268.3022 195.5389,268.3022"/>
    <line x1="187.4139" x2="192.4139" y1="261.4272" y2="261.4272"/>
    <line x1="224.8967" x2="224.8967" y1="255.1772" y2="268.3022"/>
    <line x1="233.6467" x2="224.8967" y1="255.1772" y2="263.9272"/>
    <line x1="228.0217" x2="233.6467" y1="260.8022" y2="268.3022"/>
    <polyline points="245.6693,319.3701 245.6693,281.5748 245.6693,281.5748 283.4646,281.5748 283.4646,281.5748 321.2598,281.5748 321.2598,281.5748 359.0551,281.5748 359.0551,281.5748 359.0551,319.3701 359.0551,319.3701 359.0551,357.1654 359.0551,357.1654 396.8504,357.1654 396.8504,357.1654 396.8504,319.3701 396.8504,319.3701 396.8504,281.5748 396.8504,281.5748 396.8504,243.7795 396.8504,243.7795 434.6457,243.7795 434.6457,243.7795 434.6457,281.5748 434.6457,281.5748 396.8504,281.5748 396.8504,281.5748 359.0551,281.5748 359.0551,281.5748 359.0551,243.7795 359.0551,243.7795 321.2598,243.7795 321.2598,243.7795 283.4646,243.7795 283.4646,243.7795 283.4646,281.5748 283.4646,281.5748 283.4646,319.3701 283.4646,319.3701 245.6693,319.3701 245.6693,319.3701 245.6693,357.1654 245.6693,357.1654 283.4646,357.1654 283.4646,357.1654 283.4646,319.3701"/>
    <line x1="262.6919" x2="262.6919" y1="255.1772" y2="268.3022"/>
    <line x1="271.4419" x2="262.6919" y1="255.1772" y2="263.9272"/>
    <line x1="265.8169" x2="271.4419" y1="260.8022" y2="268.3022"/>
    <line x1="321.2598" x2="321.2598" y1="281.5748" y2="243.7795"/>
    <polyline points="308.9247,255.1772 300.7997,255.1772 300.7997,255.1772 300.7997,268.3022 300.7997,268.3022 308.9247,268.3022"/>
    <line x1="300.7997" x2="305.7997" y1="261.4272" y2="261.4272"/>
    <polyline points="338.2825,261.4272 343.9075,261.4272 343.9075,261.4272 345.7825,260.8022 345.7825,260.8022 346.4075,260.1772 346.4075,260.1772 347.0325,258.9272 347.0325,258.9272 347.0325,257.6772 347.0325,257.6772 346.4075,256.4272 346.4075,256.4272 345.7825,255.8022 345.7825,255.8022 343.9075,255.1772 343.9075,255.1772 338.2825,255.1772 338.2825,255.1772 338.2825,268.3022"/>
    <line x1="342.6575" x2="347.0325" y1="261.4272" y2="268.3022"/>
    <line x1="378.5778" x2="378.5778" y1="255.1772" y2="268.3022"/>
    <line x1="374.2028" x2="382.9528" y1="255.1772" y2="255.1772"/>
    <polyline points="420.123,255.1772 420.123,265.1772 420.123,265.1772 419.498,267.0522 419.498,267.0522 418.873,267.6772 418.873,267.6772 417.623,268.3022 417.623,268.3022 416.373,268.3022 416.373,268.3022 415.123,267.6772 415.123,267.6772 414.498,267.0522 414.498,267.0522 413.873,265.1772 413.873,265.1772 413.873,263.9272"/>
    <polyline points="472.4409,281.5748 472.4409,319.3701 472.4409,319.3701 434.6457,319.3701 434.6457,319.3701 434.6457,281.5748 434.6457,281.5748 472.4409,281.5748 472.4409,281.5748 472.4409,243.7795"/>
    <polyline points="460.1058,255.1772 451.9808,255.1772 451.9808,255.1772 451.9808,268.3022 451.9808,268.3022 460.1058,268.3022"/>
    <line x1="451.9808" x2="456.9808" y1="261.4272" y2="261.4272"/>
    <polyline points="510.2362,243.7795 510.2362,281.5748 510.2362,281.5748 510.2362,319.3701 510.2362,319.3701 548.0315,319.3701 548.0315,319.3701 548.0315,281.5748 548.0315,281.5748 548.0315,243.7795"/>
    <line x1="510.2362" x2="548.0315" y1="281.5748" y2="281.5748"/>
    <line x1="531.6339" x2="531.6339" y1="255.1772" y2="268.3022"/>
    <polyline points="585.8268,243.7795 585.8268,281.5748 585.8268,281.5748 585.8268,319.3701 585.8268,319.3701 623.622,319.3701 623.622,319.3701 623.622,281.5748 623.622,281.5748 623.622,243.7795"/>
    <polyline points="585.8268,281.5748 623.622,281.5748 623.622,281.5748 661.4173,281.5748 661.4173,281.5748 699.2126,281.5748 699.2126,281.5748 699.2126,243.7795"/>
    <polyline points="611.2869,255.1772 603.1619,255.1772 603.1619,255.1772 603.1619,268.3022 603.1619,268.3022 611.2869,268.3022"/>
    <line x1="603.1619" x2="608.1619" y1="261.4272" y2="261.4272"/>
    <polyline points="661.4173,243.7795 661.4173,281.5748 661.4173,281.5748 661.4173,319.3701 661.4173,319.3701 699.2126,319.3701 699.2126,319.3701 699.2126,281.5748 699.2126,281.5748 737.0079,281.5748 737.0079,281.5748 774.8031,281.5748 774.8031,281.5748 774.8031,243.7795"/>
    <polyline points="687.19,255.1772 687.19,268.3022 687.19,268.3022 678.44,255.1772 678.44,255.1772 678.44,268.3022"/>
    <polyline points="737.0079,243.7795 737.0079,281.5748 737.0079,281.5748 737.0079,319.3701 737.0079,319.3701 774.8031,319.3701 774.8031,319.3701 774.8031,281.5748"/>
    <polyline points="754.0305,261.4272 759.6555,261.4272 759.6555,261.4272 761.5305,260.8022 761.5305,260.8022 762.1555,260.1772 762.1555,260.1772 762.7805,258.9272 762.7805,258.9272 762.7805,257.6772 762.7805,257.6772 762.1555,256.4272 762.1555,256.4272 761.5305,255.8022 761.5305,255.8022 759.6555,255.1772 759.6555,255.1772 754.0305,255.1772 754.0305,255.1772 754.0305,268.3022"/>
    <line x1="758.4055" x2="762.7805" y1="261.4272" y2="268.3022"/>
    <polyline points="157.7436,292.9724 149.6186,292.9724 149.6186,292.9724 149.6186,306.0974 149.6186,306.0974 157.7436,306.0974"/>
    <line x1="149.6186" x2="154.6186" y1="299.2224" y2="299.2224"/>
    <polyline points="271.1294,292.9724 263.0044,292.9724 263.0044,292.9724 263.0044,306.0974 263.0044,306.0974 271.1294,306.0974"/>
    <line x1="263.0044" x2="268.0044" y1="299.2224" y2="299.2224"/>
    <line x1="359.0551" x2="396.8504" y1="319.3701" y2="319.3701"/>
    <polyline points="382.3278,292.9724 382.3278,302.9724 382.3278,302.9724 381.7028,304.8474 381.7028,304.8474 381.0778,305.4724 381.0778,305.4724 379.8278,306.0974 379.8278,306.0974 378.5778,306.0974 378.5778,306.0974 377.3278,305.4724 377.3278,305.4724 376.7028,304.8474 376.7028,304.8474 376.0778,302.9724 376.0778,302.9724 376.0778,301.7224"/>
    <polyline points="451.6683,299.2224 457.2933,299.2224 457.2933,299.2224 459.1683,298.5974 459.1683,298.5974 459.7933,297.9724 459.7933,297.9724 460.4183,296.7224 460.4183,296.7224 460.4183,295.4724 460.4183,295.4724 459.7933,294.2224 459.7933,294.2224 459.1683,293.5974 459.1683,293.5974 457.2933,292.9724 457.2933,292.9724 451.6683,292.9724 451.6683,292.9724 451.6683,306.0974"/>
    <line x1="456.0433" x2="460.4183" y1="299.2224" y2="306.0974"/>
    <polyline points="533.5089,292.9724 533.5089,302.9724 533.5089,302.9724 532.8839,304.8474 532.8839,304.8474 532.2589,305.4724 532.2589,305.4724 531.0089,306.0974 531.0089,306.0974 529.7589,306.0974 529.7589,306.0974 528.5089,305.4724 528.5089,305.4724 527.8839,304.8474 527.8839,304.8474 527.2589,302.9724 527.2589,302.9724 527.2589,301.7224"/>
    <polyline points="589.5915,284.7441 590.2165,284.4316 590.2165,284.4316 591.154,283.4941 591.154,283.4941 591.154,290.0566"/>
    <polyline points="594.904,283.4941 599.279,283.4941 599.279,283.4941 596.154,290.0566"/>
    <line x1="602.8494" x2="602.8494" y1="292.9724" y2="306.0974"/>
    <line x1="611.5994" x2="602.8494" y1="292.9724" y2="301.7224"/>
    <line x1="605.9744" x2="611.5994" y1="298.5974" y2="306.0974"/>
    <polyline points="623.622,319.3701 661.4173,319.3701 661.4173,319.3701 661.4173,357.1654 661.4173,357.1654 699.2126,357.1654 699.2126,357.1654 699.2126,319.3701 699.2126,319.3701 737.0079,319.3701 737.0079,319.3701 737.0079,357.1654 737.0079,357.1654 774.8031,357.1654 774.8031,357.1654 774.8031,319.3701"/>
    <polyline points="648.1447,306.0974 643.1447,292.9724 643.1447,292.9724 638.1447,306.0974"/>
    <line x1="640.0197" x2="646.2697" y1="301.7224" y2="301.7224"/>
    <polyline points="686.565,294.8474 685.315,293.5974 685.315,293.5974 683.44,292.9724 683.44,292.9724 680.94,292.9724 680.94,292.9724 679.065,293.5974 679.065,293.5974 677.815,294.8474 677.815,294.8474 677.815,296.0974 677.815,296.0974 678.44,297.3474 678.44,297.3474 679.065,297.9724 679.065,297.9724 680.315,298.5974 680.315,298.5974 684.065,299.8474 684.065,299.8474 685.315,300.4724 685.315,300.4724 685.94,301.0974 685.94,301.0974 686.565,302.3474 686.565,302.3474 686.565,304.2224 686.565,304.2224 685.315,305.4724 685.315,305.4724 683.44,306.0974 683.44,306.0974 680.94,306.0974 680.94,306.0974 679.065,305.4724 679.065,305.4724 677.815,304.2224"/>
    <polyline points="724.3602,294.8474 723.1102,293.5974 723.1102,293.5974 721.2352,292.9724 721.2352,292.9724 718.7352,292.9724 718.7352,292.9724 716.8602,293.5974 716.8602,293.5974 715.6102,294.8474 715.6102,294.8474 715.6102,296.0974 715.6102,296.0974 716.2352,297.3474 716.2352,297.3474 716.8602,297.9724 716.8602,297.9724 718.1102,298.5974 718.1102,298.5974 721.8602,299.8474 721.8602,299.8474 723.1102,300.4724 723.1102,300.4724 723.7352,301.0974 723.7352,301.0974 724.3602,302.3474 724.3602,302.3474 724.3602,304.2224 724.3602,304.2224 723.1102,305.4724 723.1102,305.4724 721.2352,306.0974 721.2352,306.0974 718.7352,306.0974 718.7352,306.0974 716.8602,305.4724 716.8602,305.4724 715.6102,304.2224"/>
    <polyline points="761.5305,306.0974 756.5305,292.9724 756.5305,292.9724 751.5305,306.0974"/>
    <line x1="753.4055" x2="759.6555" y1="301.7224" y2="301.7224"/>
    <polyline points="132.2835,319.3701 132.2835,357.1654 132.2835,357.1654 170.0787,357.1654 170.0787,357.1654 170.0787,319.3701"/>
    <polyline points="158.0561,330.7677 158.0561,343.8927 158.0561,343.8927 149.3061,330.7677 149.3061,330.7677 149.3061,343.8927"/>
    <polyline points="271.4419,330.7677 271.4419,343.8927 271.4419,343.8927 262.6919,330.7677 262.6919,330.7677 262.6919,343.8927"/>
    <polyline points="384.5153,330.7677 376.3903,330.7677 376.3903,330.7677 376.3903,343.8927 376.3903,343.8927 384.5153,343.8927"/>
    <line x1="376.3903" x2="381.3903" y1="337.0177" y2="337.0177"/>
    <polyline points="510.2362,319.3701 510.2362,357.1654 510.2362,357.1654 548.0315,357.1654 548.0315,357.1654 548.0315,319.3701"/>
    <polyline points="536.0089,330.7677 536.0089,343.8927 536.0089,343.8927 527.2589,330.7677 527.2589,330.7677 527.2589,343.8927"/>
    <polyline points="686.8775,330.7677 678.7525,330.7677 678.7525,330.7677 678.7525,343.8927 678.7525,343.8927 686.8775,343.8927"/>
    <line x1="678.7525" x2="683.7525" y1="337.0177" y2="337.0177"/>
    <polyline points="762.1555,332.6427 760.9055,331.3927 760.9055,331.3927 759.0305,330.7677 759.0305,330.7677 756.5305,330.7677 756.5305,330.7677 754.6555,331.3927 754.6555,331.3927 753.4055,332.6427 753.4055,332.6427 753.4055,333.8927 753.4055,333.8927 754.0305,335.1427 754.0305,335.1427 754.6555,335.7677 754.6555,335.7677 755.9055,336.3927 755.9055,336.3927 759.6555,337.6427 759.6555,337.6427 760.9055,338.2677 760.9055,338.2677 761.5305,338.8927 761.5305,338.8927 762.1555,340.1427 762.1555,340.1427 762.1555,342.0177 762.1555,342.0177 760.9055,343.2677 760.9055,343.2677 759.0305,343.8927 759.0305,343.8927 756.5305,343.8927 756.5305,343.8927 754.6555,343.2677 754.6555,343.2677 753.4055,342.0177"/>
  </g>
</svg>
