<?xml version="1.0" encoding="utf-8" ?>
<svg xmlns="http://www.w3.org/2000/svg" xmlns:cc="http://creativecommons.org/ns" xmlns:dc="http://purl.org/dc/elements/1.1/" xmlns:ev="http://www.w3.org/2001/xml-events" xmlns:inkscape="http://www.inkscape.org/namespaces/inkscape" xmlns:rdf="http://www.w3.org/1999/02/22-rdf-syntax-ns" xmlns:sodipodi="http://sodipodi.sourceforge.net/DTD/sodipodi-0.dtd" xmlns:xlink="http://www.w3.org/1999/xlink" baseProfile="tiny" height="9.9cm" version="1.2" viewBox="0 0 793.7007874015749 374.1732283464567" width="21.0cm">
  <metadata>
    <rdf:RDF>
      <cc:Work>
        <dc:format>image/svg+xml</dc:format>
        <dc:source>vpype eval 'cell=10;width=210;height=99' eval 'nCols=20;nRows=9' eval 'cells=[0,3,4,5,6,7,8,10,11,12,13,14,15,16,17,18,20,22,28,30,40,41,42,43,44,45,46,47,48,50,51,52,53,54,55,56,57,60,62,68,70,78,82,86,87,88,89,90,91,92,93,94,96,97,98,99,101,108,110,116,121,122,123,124,125,126,127,128,130,131,132,133,134,135,136,137,141,148,150,156,161,162,163,164,165,166,167,168,170,172,173,174,175,176]' eval 'chars=[&quot;K&quot;,&quot;G&quot;,&quot;I&quot;,&quot;L&quot;,&quot;I&quot;,&quot;A&quot;,&quot;M&quot;,&quot;R&quot;,&quot;E&quot;,&quot;G&quot;,&quot;E&quot;,&quot;N&quot;,&quot;B&quot;,&quot;O&quot;,&quot;O&quot;,&quot;G&quot;,&quot;O&quot;,&quot;S&quot;,&quot;A&quot;,&quot;E&quot;,&quot;U&quot;,&quot;I&quot;,&quot;T&quot;,&quot;L&quot;,&quot;I&quot;,&quot;K&quot;,&quot;K&quot;,&quot;E&quot;,&quot;N&quot;,&quot;K&quot;,&quot;I&quot;,&quot;N&quot;,&quot;D&quot;,&quot;E&quot;,&quot;R&quot;,&quot;E&quot;,&quot;N&quot;,&quot;S&quot;,&quot;E&quot;,&quot;D&quot;,&quot;K&quot;,&quot;J&quot;,&quot;R&quot;,&quot;K&quot;,&quot;L&quot;,&quot;A&quot;,&quot;V&quot;,&quot;E&quot;,&quot;R&quot;,&quot;T&quot;,&quot;J&quot;,&quot;E&quot;,&quot;G&quot;,&quot;R&quot;,&quot;A&quot;,&quot;S&quot;,&quot;D&quot;,&quot;R&quot;,&quot;R&quot;,&quot;R&quot;,&quot;R&quot;,&quot;E&quot;,&quot;G&quot;,&quot;E&quot;,&quot;N&quot;,&quot;B&quot;,&quot;U&quot;,&quot;I&quot;,&quot;T&quot;,&quot;E&quot;,&quot;L&quot;,&quot;E&quot;,&quot;F&quot;,&quot;O&quot;,&quot;O&quot;,&quot;N&quot;,&quot;O&quot;,&quot;J&quot;,&quot;J&quot;,&quot;E&quot;,&quot;P&quot;,&quot;A&quot;,&quot;R&quot;,&quot;K&quot;,&quot;E&quot;,&quot;R&quot;,&quot;E&quot;,&quot;N&quot;,&quot;E&quot;,&quot;T&quot;,&quot;R&quot;,&quot;E&quot;,&quot;I&quot;,&quot;N&quot;]' eval 'numbers=[0,3,8,10,22,40,50,78,86,96,101,121,130,161,172]' eval counter=1 eval charIndex=0 begin grid -o '%cell*mm%' '%cell*mm%' %nCols% %nRows% eval '%isCell=_i in cells%' eval '%number=_i in numbers%' eval '%size=10 if isCell else 0%' rect 0 0 '%size*mm%' '%size*mm%' text -s 10 -p 0.5mm 1.5mm '%counter if number else '&quot;'&quot;''&quot;'&quot;'%' text -s 20 -p 5mm 5mm -a center '%chars[charIndex] if isCell else '&quot;'&quot;''&quot;'&quot;'%' eval '%if number: counter+=1 %' eval '%if isCell: charIndex+=1 %' end splitall deduplicate linemerge --tolerance 0.1mm write -m none --page-size '%width*mm%x%height*mm%' --center ./svgs/solution/bd9238.svg
</dc:source>
        <dc:date>2024-01-06T16:44:06.601298</dc:date>
      </cc:Work>
    </rdf:RDF>
  </metadata>
  <defs/>
  <g fill="none" id="layer1" inkscape:groupmode="layer" inkscape:label="1" stroke="#000000" style="display:inline">
    <polygon points="18.8976,17.0079 18.8976,54.8031 18.8976,54.8031 56.6929,54.8031 56.6929,54.8031 56.6929,17.0079 56.6929,17.0079"/>
    <polyline points="22.6624,20.1772 23.2874,19.8647 23.2874,19.8647 24.2249,18.9272 24.2249,18.9272 24.2249,25.4897"/>
    <line x1="35.9203" x2="35.9203" y1="28.4055" y2="41.5305"/>
    <line x1="44.6703" x2="35.9203" y1="28.4055" y2="37.1555"/>
    <line x1="39.0453" x2="44.6703" y1="34.0305" y2="41.5305"/>
    <polygon points="132.2835,17.0079 132.2835,54.8031 132.2835,54.8031 170.0787,54.8031 170.0787,54.8031 170.0787,17.0079 170.0787,17.0079"/>
    <polyline points="135.4232,20.4897 135.4232,20.1772 135.4232,20.1772 135.7357,19.5522 135.7357,19.5522 136.0482,19.2397 136.0482,19.2397 136.6732,18.9272 136.6732,18.9272 137.9232,18.9272 137.9232,18.9272 138.5482,19.2397 138.5482,19.2397 138.8607,19.5522 138.8607,19.5522 139.1732,20.1772 139.1732,20.1772 139.1732,20.8022 139.1732,20.8022 138.8607,21.4272 138.8607,21.4272 138.2357,22.3647 138.2357,22.3647 135.1107,25.4897 135.1107,25.4897 139.4857,25.4897"/>
    <polyline points="157.7436,31.5305 157.1186,30.2805 157.1186,30.2805 155.8686,29.0305 155.8686,29.0305 154.6186,28.4055 154.6186,28.4055 152.1186,28.4055 152.1186,28.4055 150.8686,29.0305 150.8686,29.0305 149.6186,30.2805 149.6186,30.2805 148.9936,31.5305 148.9936,31.5305 148.3686,33.4055 148.3686,33.4055 148.3686,36.5305 148.3686,36.5305 148.9936,38.4055 148.9936,38.4055 149.6186,39.6555 149.6186,39.6555 150.8686,40.9055 150.8686,40.9055 152.1186,41.5305 152.1186,41.5305 154.6186,41.5305 154.6186,41.5305 155.8686,40.9055 155.8686,40.9055 157.1186,39.6555 157.1186,39.6555 157.7436,38.4055 157.7436,38.4055 157.7436,36.5305 157.7436,36.5305 154.6186,36.5305"/>
    <polyline points="170.0787,54.8031 207.874,54.8031 207.874,54.8031 245.6693,54.8031 245.6693,54.8031 245.6693,17.0079 245.6693,17.0079 207.874,17.0079 207.874,17.0079 170.0787,17.0079"/>
    <line x1="207.874" x2="207.874" y1="54.8031" y2="17.0079"/>
    <line x1="191.4764" x2="191.4764" y1="28.4055" y2="41.5305"/>
    <polyline points="225.5217,28.4055 225.5217,41.5305 225.5217,41.5305 233.0217,41.5305"/>
    <polyline points="245.6693,54.8031 283.4646,54.8031 283.4646,54.8031 321.2598,54.8031 321.2598,54.8031 359.0551,54.8031 359.0551,54.8031 359.0551,17.0079 359.0551,17.0079 321.2598,17.0079 321.2598,17.0079 283.4646,17.0079 283.4646,17.0079 245.6693,17.0079"/>
    <line x1="283.4646" x2="283.4646" y1="54.8031" y2="17.0079"/>
    <line x1="267.0669" x2="267.0669" y1="28.4055" y2="41.5305"/>
    <polyline points="359.0551,54.8031 359.0551,92.5984 359.0551,92.5984 321.2598,92.5984 321.2598,92.5984 321.2598,54.8031 321.2598,54.8031 321.2598,17.0079"/>
    <polyline points="307.9872,41.5305 302.9872,28.4055 302.9872,28.4055 297.9872,41.5305"/>
    <line x1="299.8622" x2="306.1122" y1="37.1555" y2="37.1555"/>
    <polyline points="324.7121,18.9272 328.1496,18.9272 328.1496,18.9272 326.2746,21.4272 326.2746,21.4272 327.2121,21.4272 327.2121,21.4272 327.8371,21.7397 327.8371,21.7397 328.1496,22.0522 328.1496,22.0522 328.4621,22.9897 328.4621,22.9897 328.4621,23.6147 328.4621,23.6147 328.1496,24.5522 328.1496,24.5522 327.5246,25.1772 327.5246,25.1772 326.5871,25.4897 326.5871,25.4897 325.6496,25.4897 325.6496,25.4897 324.7121,25.1772 324.7121,25.1772 324.3996,24.8647 324.3996,24.8647 324.0871,24.2397"/>
    <polyline points="347.6575,41.5305 347.6575,28.4055 347.6575,28.4055 342.6575,41.5305 342.6575,41.5305 337.6575,28.4055 337.6575,28.4055 337.6575,41.5305"/>
    <polygon points="396.8504,17.0079 396.8504,54.8031 396.8504,54.8031 396.8504,92.5984 396.8504,92.5984 434.6457,92.5984 434.6457,92.5984 434.6457,54.8031 434.6457,54.8031 434.6457,17.0079 434.6457,17.0079"/>
    <polyline points="396.8504,54.8031 434.6457,54.8031 434.6457,54.8031 472.4409,54.8031 472.4409,54.8031 510.2362,54.8031 510.2362,54.8031 510.2362,17.0079 510.2362,17.0079 472.4409,17.0079 472.4409,17.0079 434.6457,17.0079"/>
    <polyline points="402.8027,25.4897 402.8027,18.9272 402.8027,18.9272 399.6777,23.3022 399.6777,23.3022 404.3652,23.3022"/>
    <polyline points="413.873,34.6555 419.498,34.6555 419.498,34.6555 421.373,34.0305 421.373,34.0305 421.998,33.4055 421.998,33.4055 422.623,32.1555 422.623,32.1555 422.623,30.9055 422.623,30.9055 421.998,29.6555 421.998,29.6555 421.373,29.0305 421.373,29.0305 419.498,28.4055 419.498,28.4055 413.873,28.4055 413.873,28.4055 413.873,41.5305"/>
    <line x1="418.248" x2="422.623" y1="34.6555" y2="41.5305"/>
    <line x1="472.4409" x2="472.4409" y1="54.8031" y2="17.0079"/>
    <polyline points="460.1058,28.4055 451.9808,28.4055 451.9808,28.4055 451.9808,41.5305 451.9808,41.5305 460.1058,41.5305"/>
    <line x1="451.9808" x2="456.9808" y1="34.6555" y2="34.6555"/>
    <polyline points="497.9011,31.5305 497.2761,30.2805 497.2761,30.2805 496.0261,29.0305 496.0261,29.0305 494.7761,28.4055 494.7761,28.4055 492.2761,28.4055 492.2761,28.4055 491.0261,29.0305 491.0261,29.0305 489.7761,30.2805 489.7761,30.2805 489.1511,31.5305 489.1511,31.5305 488.5261,33.4055 488.5261,33.4055 488.5261,36.5305 488.5261,36.5305 489.1511,38.4055 489.1511,38.4055 489.7761,39.6555 489.7761,39.6555 491.0261,40.9055 491.0261,40.9055 492.2761,41.5305 492.2761,41.5305 494.7761,41.5305 494.7761,41.5305 496.0261,40.9055 496.0261,40.9055 497.2761,39.6555 497.2761,39.6555 497.9011,38.4055 497.9011,38.4055 497.9011,36.5305 497.9011,36.5305 494.7761,36.5305"/>
    <polyline points="510.2362,54.8031 548.0315,54.8031 548.0315,54.8031 548.0315,17.0079 548.0315,17.0079 510.2362,17.0079"/>
    <polyline points="535.6964,28.4055 527.5714,28.4055 527.5714,28.4055 527.5714,41.5305 527.5714,41.5305 535.6964,41.5305"/>
    <line x1="527.5714" x2="532.5714" y1="34.6555" y2="34.6555"/>
    <polyline points="548.0315,54.8031 585.8268,54.8031 585.8268,54.8031 585.8268,17.0079 585.8268,17.0079 548.0315,17.0079"/>
    <polyline points="573.8041,28.4055 573.8041,41.5305 573.8041,41.5305 565.0541,28.4055 565.0541,28.4055 565.0541,41.5305"/>
    <polyline points="585.8268,54.8031 623.622,54.8031 623.622,54.8031 623.622,17.0079 623.622,17.0079 585.8268,17.0079"/>
    <polygon points="602.8494,28.4055 602.8494,41.5305 602.8494,41.5305 608.4744,41.5305 608.4744,41.5305 610.3494,40.9055 610.3494,40.9055 610.9744,40.2805 610.9744,40.2805 611.5994,39.0305 611.5994,39.0305 611.5994,37.1555 611.5994,37.1555 610.9744,35.9055 610.9744,35.9055 610.3494,35.2805 610.3494,35.2805 608.4744,34.6555 608.4744,34.6555 610.3494,34.0305 610.3494,34.0305 610.9744,33.4055 610.9744,33.4055 611.5994,32.1555 611.5994,32.1555 611.5994,30.9055 611.5994,30.9055 610.9744,29.6555 610.9744,29.6555 610.3494,29.0305 610.3494,29.0305 608.4744,28.4055 608.4744,28.4055"/>
    <line x1="602.8494" x2="608.4744" y1="34.6555" y2="34.6555"/>
    <polyline points="623.622,54.8031 661.4173,54.8031 661.4173,54.8031 699.2126,54.8031 699.2126,54.8031 699.2126,17.0079 699.2126,17.0079 661.4173,17.0079 661.4173,17.0079 623.622,17.0079"/>
    <line x1="661.4173" x2="661.4173" y1="54.8031" y2="17.0079"/>
    <polygon points="643.1447,28.4055 641.8947,29.0305 641.8947,29.0305 640.6447,30.2805 640.6447,30.2805 640.0197,31.5305 640.0197,31.5305 639.3947,33.4055 639.3947,33.4055 639.3947,36.5305 639.3947,36.5305 640.0197,38.4055 640.0197,38.4055 640.6447,39.6555 640.6447,39.6555 641.8947,40.9055 641.8947,40.9055 643.1447,41.5305 643.1447,41.5305 645.6447,41.5305 645.6447,41.5305 646.8947,40.9055 646.8947,40.9055 648.1447,39.6555 648.1447,39.6555 648.7697,38.4055 648.7697,38.4055 649.3947,36.5305 649.3947,36.5305 649.3947,33.4055 649.3947,33.4055 648.7697,31.5305 648.7697,31.5305 648.1447,30.2805 648.1447,30.2805 646.8947,29.0305 646.8947,29.0305 645.6447,28.4055 645.6447,28.4055"/>
    <polygon points="680.94,28.4055 679.69,29.0305 679.69,29.0305 678.44,30.2805 678.44,30.2805 677.815,31.5305 677.815,31.5305 677.19,33.4055 677.19,33.4055 677.19,36.5305 677.19,36.5305 677.815,38.4055 677.815,38.4055 678.44,39.6555 678.44,39.6555 679.69,40.9055 679.69,40.9055 680.94,41.5305 680.94,41.5305 683.44,41.5305 683.44,41.5305 684.69,40.9055 684.69,40.9055 685.94,39.6555 685.94,39.6555 686.565,38.4055 686.565,38.4055 687.19,36.5305 687.19,36.5305 687.19,33.4055 687.19,33.4055 686.565,31.5305 686.565,31.5305 685.94,30.2805 685.94,30.2805 684.69,29.0305 684.69,29.0305 683.44,28.4055 683.44,28.4055"/>
    <polyline points="699.2126,54.8031 737.0079,54.8031 737.0079,54.8031 737.0079,17.0079 737.0079,17.0079 699.2126,17.0079"/>
    <polyline points="724.6727,31.5305 724.0477,30.2805 724.0477,30.2805 722.7977,29.0305 722.7977,29.0305 721.5477,28.4055 721.5477,28.4055 719.0477,28.4055 719.0477,28.4055 717.7977,29.0305 717.7977,29.0305 716.5477,30.2805 716.5477,30.2805 715.9227,31.5305 715.9227,31.5305 715.2977,33.4055 715.2977,33.4055 715.2977,36.5305 715.2977,36.5305 715.9227,38.4055 715.9227,38.4055 716.5477,39.6555 716.5477,39.6555 717.7977,40.9055 717.7977,40.9055 719.0477,41.5305 719.0477,41.5305 721.5477,41.5305 721.5477,41.5305 722.7977,40.9055 722.7977,40.9055 724.0477,39.6555 724.0477,39.6555 724.6727,38.4055 724.6727,38.4055 724.6727,36.5305 724.6727,36.5305 721.5477,36.5305"/>
    <polyline points="18.8976,54.8031 18.8976,92.5984 18.8976,92.5984 18.8976,130.3937 18.8976,130.3937 56.6929,130.3937 56.6929,130.3937 94.4882,130.3937 94.4882,130.3937 94.4882,168.189 94.4882,168.189 94.4882,205.9843 94.4882,205.9843 132.2835,205.9843 132.2835,205.9843 132.2835,168.189 132.2835,168.189 132.2835,130.3937 132.2835,130.3937 170.0787,130.3937 170.0787,130.3937 207.874,130.3937 207.874,130.3937 207.874,92.5984 207.874,92.5984 170.0787,92.5984 170.0787,92.5984 132.2835,92.5984 132.2835,92.5984 132.2835,54.8031 132.2835,54.8031 94.4882,54.8031 94.4882,54.8031 94.4882,92.5984 94.4882,92.5984 56.6929,92.5984 56.6929,92.5984 56.6929,54.8031"/>
    <polyline points="18.8976,92.5984 56.6929,92.5984 56.6929,92.5984 56.6929,130.3937 56.6929,130.3937 56.6929,168.189 56.6929,168.189 18.8976,168.189 18.8976,168.189 18.8976,130.3937"/>
    <polygon points="38.4203,66.2008 37.1703,66.8258 37.1703,66.8258 35.9203,68.0758 35.9203,68.0758 35.2953,69.3258 35.2953,69.3258 34.6703,71.2008 34.6703,71.2008 34.6703,74.3258 34.6703,74.3258 35.2953,76.2008 35.2953,76.2008 35.9203,77.4508 35.9203,77.4508 37.1703,78.7008 37.1703,78.7008 38.4203,79.3258 38.4203,79.3258 40.9203,79.3258 40.9203,79.3258 42.1703,78.7008 42.1703,78.7008 43.4203,77.4508 43.4203,77.4508 44.0453,76.2008 44.0453,76.2008 44.6703,74.3258 44.6703,74.3258 44.6703,71.2008 44.6703,71.2008 44.0453,69.3258 44.0453,69.3258 43.4203,68.0758 43.4203,68.0758 42.1703,66.8258 42.1703,66.8258 40.9203,66.2008 40.9203,66.2008"/>
    <polygon points="94.4882,92.5984 132.2835,92.5984 132.2835,92.5984 132.2835,130.3937 132.2835,130.3937 94.4882,130.3937 94.4882,130.3937"/>
    <polyline points="101.0655,56.7224 97.9405,56.7224 97.9405,56.7224 97.628,59.5349 97.628,59.5349 97.9405,59.2224 97.9405,59.2224 98.878,58.9099 98.878,58.9099 99.8155,58.9099 99.8155,58.9099 100.753,59.2224 100.753,59.2224 101.378,59.8474 101.378,59.8474 101.6905,60.7849 101.6905,60.7849 101.6905,61.4099 101.6905,61.4099 101.378,62.3474 101.378,62.3474 100.753,62.9724 100.753,62.9724 99.8155,63.2849 99.8155,63.2849 98.878,63.2849 98.878,63.2849 97.9405,62.9724 97.9405,62.9724 97.628,62.6599 97.628,62.6599 97.3155,62.0349"/>
    <polyline points="119.6358,68.0758 118.3858,66.8258 118.3858,66.8258 116.5108,66.2008 116.5108,66.2008 114.0108,66.2008 114.0108,66.2008 112.1358,66.8258 112.1358,66.8258 110.8858,68.0758 110.8858,68.0758 110.8858,69.3258 110.8858,69.3258 111.5108,70.5758 111.5108,70.5758 112.1358,71.2008 112.1358,71.2008 113.3858,71.8258 113.3858,71.8258 117.1358,73.0758 117.1358,73.0758 118.3858,73.7008 118.3858,73.7008 119.0108,74.3258 119.0108,74.3258 119.6358,75.5758 119.6358,75.5758 119.6358,77.4508 119.6358,77.4508 118.3858,78.7008 118.3858,78.7008 116.5108,79.3258 116.5108,79.3258 114.0108,79.3258 114.0108,79.3258 112.1358,78.7008 112.1358,78.7008 110.8858,77.4508"/>
    <polyline points="345.7825,79.3258 340.7825,66.2008 340.7825,66.2008 335.7825,79.3258"/>
    <line x1="337.6575" x2="343.9075" y1="74.9508" y2="74.9508"/>
    <polyline points="422.3105,66.2008 414.1855,66.2008 414.1855,66.2008 414.1855,79.3258 414.1855,79.3258 422.3105,79.3258"/>
    <line x1="414.1855" x2="419.1855" y1="72.4508" y2="72.4508"/>
    <polyline points="25.7874,95.4552 25.4749,94.8302 25.4749,94.8302 24.5374,94.5177 24.5374,94.5177 23.9124,94.5177 23.9124,94.5177 22.9749,94.8302 22.9749,94.8302 22.3499,95.7677 22.3499,95.7677 22.0374,97.3302 22.0374,97.3302 22.0374,98.8927 22.0374,98.8927 22.3499,100.1427 22.3499,100.1427 22.9749,100.7677 22.9749,100.7677 23.9124,101.0802 23.9124,101.0802 24.2249,101.0802 24.2249,101.0802 25.1624,100.7677 25.1624,100.7677 25.7874,100.1427 25.7874,100.1427 26.0999,99.2052 26.0999,99.2052 26.0999,98.8927 26.0999,98.8927 25.7874,97.9552 25.7874,97.9552 25.1624,97.3302 25.1624,97.3302 24.2249,97.0177 24.2249,97.0177 23.9124,97.0177 23.9124,97.0177 22.9749,97.3302 22.9749,97.3302 22.3499,97.9552 22.3499,97.9552 22.0374,98.8927"/>
    <polyline points="35.9203,103.9961 35.9203,113.3711 35.9203,113.3711 36.5453,115.2461 36.5453,115.2461 37.7953,116.4961 37.7953,116.4961 39.6703,117.1211 39.6703,117.1211 40.9203,117.1211 40.9203,117.1211 42.7953,116.4961 42.7953,116.4961 44.0453,115.2461 44.0453,115.2461 44.6703,113.3711 44.6703,113.3711 44.6703,103.9961"/>
    <line x1="78.0906" x2="78.0906" y1="103.9961" y2="117.1211"/>
    <line x1="114.0108" x2="114.0108" y1="103.9961" y2="117.1211"/>
    <line x1="109.6358" x2="118.3858" y1="103.9961" y2="103.9961"/>
    <line x1="170.0787" x2="170.0787" y1="130.3937" y2="92.5984"/>
    <polyline points="149.9311,103.9961 149.9311,117.1211 149.9311,117.1211 157.4311,117.1211"/>
    <line x1="191.4764" x2="191.4764" y1="103.9961" y2="117.1211"/>
    <polyline points="207.874,130.3937 245.6693,130.3937 245.6693,130.3937 245.6693,92.5984 245.6693,92.5984 207.874,92.5984"/>
    <line x1="224.8967" x2="224.8967" y1="103.9961" y2="117.1211"/>
    <line x1="233.6467" x2="224.8967" y1="103.9961" y2="112.7461"/>
    <line x1="228.0217" x2="233.6467" y1="109.6211" y2="117.1211"/>
    <polyline points="245.6693,130.3937 283.4646,130.3937 283.4646,130.3937 283.4646,92.5984 283.4646,92.5984 245.6693,92.5984"/>
    <line x1="262.6919" x2="262.6919" y1="103.9961" y2="117.1211"/>
    <line x1="271.4419" x2="262.6919" y1="103.9961" y2="112.7461"/>
    <line x1="265.8169" x2="271.4419" y1="109.6211" y2="117.1211"/>
    <polyline points="283.4646,130.3937 321.2598,130.3937 321.2598,130.3937 321.2598,168.189 321.2598,168.189 283.4646,168.189 283.4646,168.189 245.6693,168.189 245.6693,168.189 245.6693,205.9843 245.6693,205.9843 283.4646,205.9843 283.4646,205.9843 321.2598,205.9843 321.2598,205.9843 321.2598,168.189 321.2598,168.189 359.0551,168.189 359.0551,168.189 359.0551,130.3937 359.0551,130.3937 359.0551,92.5984"/>
    <polyline points="359.0551,130.3937 321.2598,130.3937 321.2598,130.3937 321.2598,92.5984 321.2598,92.5984 283.4646,92.5984"/>
    <polyline points="308.9247,103.9961 300.7997,103.9961 300.7997,103.9961 300.7997,117.1211 300.7997,117.1211 308.9247,117.1211"/>
    <line x1="300.7997" x2="305.7997" y1="110.2461" y2="110.2461"/>
    <polyline points="347.0325,103.9961 347.0325,117.1211 347.0325,117.1211 338.2825,103.9961 338.2825,103.9961 338.2825,117.1211"/>
    <polyline points="396.8504,92.5984 396.8504,130.3937 396.8504,130.3937 434.6457,130.3937 434.6457,130.3937 434.6457,92.5984 434.6457,92.5984 472.4409,92.5984 472.4409,92.5984 472.4409,130.3937 472.4409,130.3937 510.2362,130.3937 510.2362,130.3937 510.2362,92.5984 510.2362,92.5984 472.4409,92.5984"/>
    <polyline points="399.6777,94.5177 404.0527,94.5177 404.0527,94.5177 400.9277,101.0802"/>
    <line x1="413.873" x2="413.873" y1="103.9961" y2="117.1211"/>
    <line x1="422.623" x2="413.873" y1="103.9961" y2="112.7461"/>
    <line x1="416.998" x2="422.623" y1="109.6211" y2="117.1211"/>
    <polyline points="396.8504,130.3937 396.8504,168.189 396.8504,168.189 396.8504,205.9843 396.8504,205.9843 359.0551,205.9843 359.0551,205.9843 359.0551,168.189 359.0551,168.189 396.8504,168.189 396.8504,168.189 434.6457,168.189 434.6457,168.189 434.6457,130.3937 434.6457,130.3937 472.4409,130.3937"/>
    <line x1="456.0433" x2="456.0433" y1="103.9961" y2="117.1211"/>
    <polyline points="498.2136,103.9961 498.2136,117.1211 498.2136,117.1211 489.4636,103.9961 489.4636,103.9961 489.4636,117.1211"/>
    <polyline points="510.2362,130.3937 548.0315,130.3937 548.0315,130.3937 548.0315,92.5984 548.0315,92.5984 510.2362,92.5984"/>
    <polygon points="527.2589,103.9961 527.2589,117.1211 527.2589,117.1211 531.6339,117.1211 531.6339,117.1211 533.5089,116.4961 533.5089,116.4961 534.7589,115.2461 534.7589,115.2461 535.3839,113.9961 535.3839,113.9961 536.0089,112.1211 536.0089,112.1211 536.0089,108.9961 536.0089,108.9961 535.3839,107.1211 535.3839,107.1211 534.7589,105.8711 534.7589,105.8711 533.5089,104.6211 533.5089,104.6211 531.6339,103.9961 531.6339,103.9961"/>
    <polyline points="548.0315,130.3937 585.8268,130.3937 585.8268,130.3937 585.8268,92.5984 585.8268,92.5984 548.0315,92.5984"/>
    <polyline points="573.4916,103.9961 565.3666,103.9961 565.3666,103.9961 565.3666,117.1211 565.3666,117.1211 573.4916,117.1211"/>
    <line x1="565.3666" x2="570.3666" y1="110.2461" y2="110.2461"/>
    <polyline points="585.8268,130.3937 623.622,130.3937 623.622,130.3937 623.622,92.5984 623.622,92.5984 585.8268,92.5984"/>
    <polyline points="602.8494,110.2461 608.4744,110.2461 608.4744,110.2461 610.3494,109.6211 610.3494,109.6211 610.9744,108.9961 610.9744,108.9961 611.5994,107.7461 611.5994,107.7461 611.5994,106.4961 611.5994,106.4961 610.9744,105.2461 610.9744,105.2461 610.3494,104.6211 610.3494,104.6211 608.4744,103.9961 608.4744,103.9961 602.8494,103.9961 602.8494,103.9961 602.8494,117.1211"/>
    <line x1="607.2244" x2="611.5994" y1="110.2461" y2="117.1211"/>
    <polyline points="623.622,130.3937 661.4173,130.3937 661.4173,130.3937 699.2126,130.3937 699.2126,130.3937 699.2126,92.5984 699.2126,92.5984 661.4173,92.5984 661.4173,92.5984 623.622,92.5984"/>
    <line x1="661.4173" x2="661.4173" y1="130.3937" y2="92.5984"/>
    <polyline points="649.0822,103.9961 640.9572,103.9961 640.9572,103.9961 640.9572,117.1211 640.9572,117.1211 649.0822,117.1211"/>
    <line x1="640.9572" x2="645.9572" y1="110.2461" y2="110.2461"/>
    <polyline points="687.19,103.9961 687.19,117.1211 687.19,117.1211 678.44,103.9961 678.44,103.9961 678.44,117.1211"/>
    <polyline points="44.0453,143.6663 42.7953,142.4163 42.7953,142.4163 40.9203,141.7913 40.9203,141.7913 38.4203,141.7913 38.4203,141.7913 36.5453,142.4163 36.5453,142.4163 35.2953,143.6663 35.2953,143.6663 35.2953,144.9163 35.2953,144.9163 35.9203,146.1663 35.9203,146.1663 36.5453,146.7913 36.5453,146.7913 37.7953,147.4163 37.7953,147.4163 41.5453,148.6663 41.5453,148.6663 42.7953,149.2913 42.7953,149.2913 43.4203,149.9163 43.4203,149.9163 44.0453,151.1663 44.0453,151.1663 44.0453,153.0413 44.0453,153.0413 42.7953,154.2913 42.7953,154.2913 40.9203,154.9163 40.9203,154.9163 38.4203,154.9163 38.4203,154.9163 36.5453,154.2913 36.5453,154.2913 35.2953,153.0413"/>
    <line x1="94.4882" x2="132.2835" y1="168.189" y2="168.189"/>
    <polyline points="119.9483,141.7913 111.8233,141.7913 111.8233,141.7913 111.8233,154.9163 111.8233,154.9163 119.9483,154.9163"/>
    <line x1="111.8233" x2="116.8233" y1="148.0413" y2="148.0413"/>
    <polygon points="338.2825,141.7913 338.2825,154.9163 338.2825,154.9163 342.6575,154.9163 342.6575,154.9163 344.5325,154.2913 344.5325,154.2913 345.7825,153.0413 345.7825,153.0413 346.4075,151.7913 346.4075,151.7913 347.0325,149.9163 347.0325,149.9163 347.0325,146.7913 347.0325,146.7913 346.4075,144.9163 346.4075,144.9163 345.7825,143.6663 345.7825,143.6663 344.5325,142.4163 344.5325,142.4163 342.6575,141.7913 342.6575,141.7913"/>
    <line x1="413.873" x2="413.873" y1="141.7913" y2="154.9163"/>
    <line x1="422.623" x2="413.873" y1="141.7913" y2="150.5413"/>
    <line x1="416.998" x2="422.623" y1="147.4163" y2="154.9163"/>
    <polygon points="699.2126,130.3937 699.2126,168.189 699.2126,168.189 737.0079,168.189 737.0079,168.189 737.0079,130.3937 737.0079,130.3937"/>
    <polygon points="703.6024,132.313 702.6649,132.6255 702.6649,132.6255 702.3524,133.2505 702.3524,133.2505 702.3524,133.8755 702.3524,133.8755 702.6649,134.5005 702.6649,134.5005 703.2899,134.813 703.2899,134.813 704.5399,135.1255 704.5399,135.1255 705.4774,135.438 705.4774,135.438 706.1024,136.063 706.1024,136.063 706.4149,136.688 706.4149,136.688 706.4149,137.6255 706.4149,137.6255 706.1024,138.2505 706.1024,138.2505 705.7899,138.563 705.7899,138.563 704.8524,138.8755 704.8524,138.8755 703.6024,138.8755 703.6024,138.8755 702.6649,138.563 702.6649,138.563 702.3524,138.2505 702.3524,138.2505 702.0399,137.6255 702.0399,137.6255 702.0399,136.688 702.0399,136.688 702.3524,136.063 702.3524,136.063 702.9774,135.438 702.9774,135.438 703.9149,135.1255 703.9149,135.1255 705.1649,134.813 705.1649,134.813 705.7899,134.5005 705.7899,134.5005 706.1024,133.8755 706.1024,133.8755 706.1024,133.2505 706.1024,133.2505 705.7899,132.6255 705.7899,132.6255 704.8524,132.313 704.8524,132.313"/>
    <polyline points="722.4852,141.7913 722.4852,151.7913 722.4852,151.7913 721.8602,153.6663 721.8602,153.6663 721.2352,154.2913 721.2352,154.2913 719.9852,154.9163 719.9852,154.9163 718.7352,154.9163 718.7352,154.9163 717.4852,154.2913 717.4852,154.2913 716.8602,153.6663 716.8602,153.6663 716.2352,151.7913 716.2352,151.7913 716.2352,150.5413"/>
    <polyline points="111.5108,185.8366 117.1358,185.8366 117.1358,185.8366 119.0108,185.2116 119.0108,185.2116 119.6358,184.5866 119.6358,184.5866 120.2608,183.3366 120.2608,183.3366 120.2608,182.0866 120.2608,182.0866 119.6358,180.8366 119.6358,180.8366 119.0108,180.2116 119.0108,180.2116 117.1358,179.5866 117.1358,179.5866 111.5108,179.5866 111.5108,179.5866 111.5108,192.7116"/>
    <line x1="115.8858" x2="120.2608" y1="185.8366" y2="192.7116"/>
    <line x1="283.4646" x2="283.4646" y1="205.9843" y2="168.189"/>
    <polyline points="252.5591,172.2958 252.2466,173.2333 252.2466,173.2333 251.6216,173.8583 251.6216,173.8583 250.6841,174.1708 250.6841,174.1708 250.3716,174.1708 250.3716,174.1708 249.4341,173.8583 249.4341,173.8583 248.8091,173.2333 248.8091,173.2333 248.4966,172.2958 248.4966,172.2958 248.4966,171.9833 248.4966,171.9833 248.8091,171.0458 248.8091,171.0458 249.4341,170.4208 249.4341,170.4208 250.3716,170.1083 250.3716,170.1083 250.6841,170.1083 250.6841,170.1083 251.6216,170.4208 251.6216,170.4208 252.2466,171.0458 252.2466,171.0458 252.5591,172.2958 252.5591,172.2958 252.5591,173.8583 252.5591,173.8583 252.2466,175.4208 252.2466,175.4208 251.6216,176.3583 251.6216,176.3583 250.6841,176.6708 250.6841,176.6708 250.0591,176.6708 250.0591,176.6708 249.1216,176.3583 249.1216,176.3583 248.8091,175.7333"/>
    <line x1="262.6919" x2="262.6919" y1="179.5866" y2="192.7116"/>
    <line x1="271.4419" x2="262.6919" y1="179.5866" y2="188.3366"/>
    <line x1="265.8169" x2="271.4419" y1="185.2116" y2="192.7116"/>
    <polyline points="301.1122,179.5866 301.1122,192.7116 301.1122,192.7116 308.6122,192.7116"/>
    <polygon points="321.2598,205.9843 359.0551,205.9843 359.0551,205.9843 359.0551,243.7795 359.0551,243.7795 321.2598,243.7795 321.2598,243.7795"/>
    <polyline points="345.7825,192.7116 340.7825,179.5866 340.7825,179.5866 335.7825,192.7116"/>
    <line x1="337.6575" x2="343.9075" y1="188.3366" y2="188.3366"/>
    <polyline points="373.5778,179.5866 378.5778,192.7116 378.5778,192.7116 383.5778,179.5866"/>
    <polyline points="510.2362,205.9843 472.4409,205.9843 472.4409,205.9843 434.6457,205.9843 434.6457,205.9843 434.6457,243.7795 434.6457,243.7795 396.8504,243.7795 396.8504,243.7795 396.8504,205.9843 396.8504,205.9843 434.6457,205.9843 434.6457,205.9843 434.6457,168.189 434.6457,168.189 472.4409,168.189 472.4409,168.189 510.2362,168.189 510.2362,168.189 510.2362,205.9843 510.2362,205.9843 548.0315,205.9843 548.0315,205.9843 548.0315,168.189 548.0315,168.189 510.2362,168.189"/>
    <polyline points="422.3105,179.5866 414.1855,179.5866 414.1855,179.5866 414.1855,192.7116 414.1855,192.7116 422.3105,192.7116"/>
    <line x1="414.1855" x2="419.1855" y1="185.8366" y2="185.8366"/>
    <line x1="472.4409" x2="472.4409" y1="205.9843" y2="168.189"/>
    <polyline points="451.6683,185.8366 457.2933,185.8366 457.2933,185.8366 459.1683,185.2116 459.1683,185.2116 459.7933,184.5866 459.7933,184.5866 460.4183,183.3366 460.4183,183.3366 460.4183,182.0866 460.4183,182.0866 459.7933,180.8366 459.7933,180.8366 459.1683,180.2116 459.1683,180.2116 457.2933,179.5866 457.2933,179.5866 451.6683,179.5866 451.6683,179.5866 451.6683,192.7116"/>
    <line x1="456.0433" x2="460.4183" y1="185.8366" y2="192.7116"/>
    <line x1="491.9636" x2="491.9636" y1="179.5866" y2="192.7116"/>
    <line x1="487.5886" x2="496.3386" y1="179.5866" y2="179.5866"/>
    <polyline points="533.5089,179.5866 533.5089,189.5866 533.5089,189.5866 532.8839,191.4616 532.8839,191.4616 532.2589,192.0866 532.2589,192.0866 531.0089,192.7116 531.0089,192.7116 529.7589,192.7116 529.7589,192.7116 528.5089,192.0866 528.5089,192.0866 527.8839,191.4616 527.8839,191.4616 527.2589,189.5866 527.2589,189.5866 527.2589,188.3366"/>
    <polyline points="548.0315,205.9843 585.8268,205.9843 585.8268,205.9843 585.8268,168.189 585.8268,168.189 548.0315,168.189"/>
    <polyline points="573.4916,179.5866 565.3666,179.5866 565.3666,179.5866 565.3666,192.7116 565.3666,192.7116 573.4916,192.7116"/>
    <line x1="565.3666" x2="570.3666" y1="185.8366" y2="185.8366"/>
    <polygon points="623.622,168.189 623.622,205.9843 623.622,205.9843 661.4173,205.9843 661.4173,205.9843 699.2126,205.9843 699.2126,205.9843 699.2126,168.189 699.2126,168.189 661.4173,168.189 661.4173,168.189"/>
    <polyline points="623.622,205.9843 623.622,243.7795 623.622,243.7795 661.4173,243.7795 661.4173,243.7795 661.4173,205.9843 661.4173,205.9843 661.4173,168.189"/>
    <polyline points="627.3868,171.3583 628.0118,171.0458 628.0118,171.0458 628.9493,170.1083 628.9493,170.1083 628.9493,176.6708"/>
    <polygon points="634.5743,170.1083 633.6368,170.4208 633.6368,170.4208 633.0118,171.3583 633.0118,171.3583 632.6993,172.9208 632.6993,172.9208 632.6993,173.8583 632.6993,173.8583 633.0118,175.4208 633.0118,175.4208 633.6368,176.3583 633.6368,176.3583 634.5743,176.6708 634.5743,176.6708 635.1993,176.6708 635.1993,176.6708 636.1368,176.3583 636.1368,176.3583 636.7618,175.4208 636.7618,175.4208 637.0743,173.8583 637.0743,173.8583 637.0743,172.9208 637.0743,172.9208 636.7618,171.3583 636.7618,171.3583 636.1368,170.4208 636.1368,170.4208 635.1993,170.1083 635.1993,170.1083"/>
    <polyline points="649.0822,182.7116 648.4572,181.4616 648.4572,181.4616 647.2072,180.2116 647.2072,180.2116 645.9572,179.5866 645.9572,179.5866 643.4572,179.5866 643.4572,179.5866 642.2072,180.2116 642.2072,180.2116 640.9572,181.4616 640.9572,181.4616 640.3322,182.7116 640.3322,182.7116 639.7072,184.5866 639.7072,184.5866 639.7072,187.7116 639.7072,187.7116 640.3322,189.5866 640.3322,189.5866 640.9572,190.8366 640.9572,190.8366 642.2072,192.0866 642.2072,192.0866 643.4572,192.7116 643.4572,192.7116 645.9572,192.7116 645.9572,192.7116 647.2072,192.0866 647.2072,192.0866 648.4572,190.8366 648.4572,190.8366 649.0822,189.5866 649.0822,189.5866 649.0822,187.7116 649.0822,187.7116 645.9572,187.7116"/>
    <polyline points="678.44,185.8366 684.065,185.8366 684.065,185.8366 685.94,185.2116 685.94,185.2116 686.565,184.5866 686.565,184.5866 687.19,183.3366 687.19,183.3366 687.19,182.0866 687.19,182.0866 686.565,180.8366 686.565,180.8366 685.94,180.2116 685.94,180.2116 684.065,179.5866 684.065,179.5866 678.44,179.5866 678.44,179.5866 678.44,192.7116"/>
    <line x1="682.815" x2="687.19" y1="185.8366" y2="192.7116"/>
    <polyline points="699.2126,205.9843 737.0079,205.9843 737.0079,205.9843 774.8031,205.9843 774.8031,205.9843 774.8031,168.189 774.8031,168.189 737.0079,168.189 737.0079,168.189 737.0079,205.9843"/>
    <polyline points="723.7352,192.7116 718.7352,179.5866 718.7352,179.5866 713.7352,192.7116"/>
    <line x1="715.6102" x2="721.8602" y1="188.3366" y2="188.3366"/>
    <polyline points="762.1555,181.4616 760.9055,180.2116 760.9055,180.2116 759.0305,179.5866 759.0305,179.5866 756.5305,179.5866 756.5305,179.5866 754.6555,180.2116 754.6555,180.2116 753.4055,181.4616 753.4055,181.4616 753.4055,182.7116 753.4055,182.7116 754.0305,183.9616 754.0305,183.9616 754.6555,184.5866 754.6555,184.5866 755.9055,185.2116 755.9055,185.2116 759.6555,186.4616 759.6555,186.4616 760.9055,187.0866 760.9055,187.0866 761.5305,187.7116 761.5305,187.7116 762.1555,188.9616 762.1555,188.9616 762.1555,190.8366 762.1555,190.8366 760.9055,192.0866 760.9055,192.0866 759.0305,192.7116 759.0305,192.7116 756.5305,192.7116 756.5305,192.7116 754.6555,192.0866 754.6555,192.0866 753.4055,190.8366"/>
    <polygon points="56.6929,205.9843 56.6929,243.7795 56.6929,243.7795 94.4882,243.7795 94.4882,243.7795 94.4882,205.9843 94.4882,205.9843"/>
    <polyline points="60.4577,209.1535 61.0827,208.841 61.0827,208.841 62.0202,207.9035 62.0202,207.9035 62.0202,214.466"/>
    <polyline points="66.7077,209.1535 67.3327,208.841 67.3327,208.841 68.2702,207.9035 68.2702,207.9035 68.2702,214.466"/>
    <polygon points="73.7156,217.3819 73.7156,230.5069 73.7156,230.5069 78.0906,230.5069 78.0906,230.5069 79.9656,229.8819 79.9656,229.8819 81.2156,228.6319 81.2156,228.6319 81.8406,227.3819 81.8406,227.3819 82.4656,225.5069 82.4656,225.5069 82.4656,222.3819 82.4656,222.3819 81.8406,220.5069 81.8406,220.5069 81.2156,219.2569 81.2156,219.2569 79.9656,218.0069 79.9656,218.0069 78.0906,217.3819 78.0906,217.3819"/>
    <polyline points="338.2825,223.6319 343.9075,223.6319 343.9075,223.6319 345.7825,223.0069 345.7825,223.0069 346.4075,222.3819 346.4075,222.3819 347.0325,221.1319 347.0325,221.1319 347.0325,219.8819 347.0325,219.8819 346.4075,218.6319 346.4075,218.6319 345.7825,218.0069 345.7825,218.0069 343.9075,217.3819 343.9075,217.3819 338.2825,217.3819 338.2825,217.3819 338.2825,230.5069"/>
    <line x1="342.6575" x2="347.0325" y1="223.6319" y2="230.5069"/>
    <polyline points="413.873,223.6319 419.498,223.6319 419.498,223.6319 421.373,223.0069 421.373,223.0069 421.998,222.3819 421.998,222.3819 422.623,221.1319 422.623,221.1319 422.623,219.8819 422.623,219.8819 421.998,218.6319 421.998,218.6319 421.373,218.0069 421.373,218.0069 419.498,217.3819 419.498,217.3819 413.873,217.3819 413.873,217.3819 413.873,230.5069"/>
    <line x1="418.248" x2="422.623" y1="223.6319" y2="230.5069"/>
    <polyline points="640.6447,223.6319 646.2697,223.6319 646.2697,223.6319 648.1447,223.0069 648.1447,223.0069 648.7697,222.3819 648.7697,222.3819 649.3947,221.1319 649.3947,221.1319 649.3947,219.8819 649.3947,219.8819 648.7697,218.6319 648.7697,218.6319 648.1447,218.0069 648.1447,218.0069 646.2697,217.3819 646.2697,217.3819 640.6447,217.3819 640.6447,217.3819 640.6447,230.5069"/>
    <line x1="645.0197" x2="649.3947" y1="223.6319" y2="230.5069"/>
    <polyline points="56.6929,243.7795 56.6929,281.5748 56.6929,281.5748 56.6929,319.3701 56.6929,319.3701 94.4882,319.3701 94.4882,319.3701 94.4882,281.5748 94.4882,281.5748 94.4882,243.7795 94.4882,243.7795 132.2835,243.7795 132.2835,243.7795 132.2835,281.5748 132.2835,281.5748 170.0787,281.5748 170.0787,281.5748 170.0787,243.7795 170.0787,243.7795 132.2835,243.7795"/>
    <polyline points="56.6929,281.5748 94.4882,281.5748 94.4882,281.5748 132.2835,281.5748"/>
    <polyline points="60.4577,246.9488 61.0827,246.6363 61.0827,246.6363 62.0202,245.6988 62.0202,245.6988 62.0202,252.2613"/>
    <polyline points="66.0827,247.2613 66.0827,246.9488 66.0827,246.9488 66.3952,246.3238 66.3952,246.3238 66.7077,246.0113 66.7077,246.0113 67.3327,245.6988 67.3327,245.6988 68.5827,245.6988 68.5827,245.6988 69.2077,246.0113 69.2077,246.0113 69.5202,246.3238 69.5202,246.3238 69.8327,246.9488 69.8327,246.9488 69.8327,247.5738 69.8327,247.5738 69.5202,248.1988 69.5202,248.1988 68.8952,249.1363 68.8952,249.1363 65.7702,252.2613 65.7702,252.2613 70.1452,252.2613"/>
    <polyline points="73.7156,261.4272 79.3406,261.4272 79.3406,261.4272 81.2156,260.8022 81.2156,260.8022 81.8406,260.1772 81.8406,260.1772 82.4656,258.9272 82.4656,258.9272 82.4656,257.6772 82.4656,257.6772 81.8406,256.4272 81.8406,256.4272 81.2156,255.8022 81.2156,255.8022 79.3406,255.1772 79.3406,255.1772 73.7156,255.1772 73.7156,255.1772 73.7156,268.3022"/>
    <line x1="78.0906" x2="82.4656" y1="261.4272" y2="268.3022"/>
    <polyline points="119.9483,255.1772 111.8233,255.1772 111.8233,255.1772 111.8233,268.3022 111.8233,268.3022 119.9483,268.3022"/>
    <line x1="111.8233" x2="116.8233" y1="261.4272" y2="261.4272"/>
    <polyline points="157.7436,258.3022 157.1186,257.0522 157.1186,257.0522 155.8686,255.8022 155.8686,255.8022 154.6186,255.1772 154.6186,255.1772 152.1186,255.1772 152.1186,255.1772 150.8686,255.8022 150.8686,255.8022 149.6186,257.0522 149.6186,257.0522 148.9936,258.3022 148.9936,258.3022 148.3686,260.1772 148.3686,260.1772 148.3686,263.3022 148.3686,263.3022 148.9936,265.1772 148.9936,265.1772 149.6186,266.4272 149.6186,266.4272 150.8686,267.6772 150.8686,267.6772 152.1186,268.3022 152.1186,268.3022 154.6186,268.3022 154.6186,268.3022 155.8686,267.6772 155.8686,267.6772 157.1186,266.4272 157.1186,266.4272 157.7436,265.1772 157.7436,265.1772 157.7436,263.3022 157.7436,263.3022 154.6186,263.3022"/>
    <polyline points="170.0787,281.5748 207.874,281.5748 207.874,281.5748 245.6693,281.5748 245.6693,281.5748 245.6693,243.7795 245.6693,243.7795 207.874,243.7795 207.874,243.7795 170.0787,243.7795"/>
    <line x1="207.874" x2="207.874" y1="281.5748" y2="243.7795"/>
    <polyline points="195.5389,255.1772 187.4139,255.1772 187.4139,255.1772 187.4139,268.3022 187.4139,268.3022 195.5389,268.3022"/>
    <line x1="187.4139" x2="192.4139" y1="261.4272" y2="261.4272"/>
    <polyline points="233.6467,255.1772 233.6467,268.3022 233.6467,268.3022 224.8967,255.1772 224.8967,255.1772 224.8967,268.3022"/>
    <polyline points="245.6693,281.5748 283.4646,281.5748 283.4646,281.5748 321.2598,281.5748 321.2598,281.5748 359.0551,281.5748 359.0551,281.5748 359.0551,243.7795"/>
    <polyline points="283.4646,281.5748 283.4646,243.7795 283.4646,243.7795 245.6693,243.7795"/>
    <polygon points="262.6919,255.1772 262.6919,268.3022 262.6919,268.3022 268.3169,268.3022 268.3169,268.3022 270.1919,267.6772 270.1919,267.6772 270.8169,267.0522 270.8169,267.0522 271.4419,265.8022 271.4419,265.8022 271.4419,263.9272 271.4419,263.9272 270.8169,262.6772 270.8169,262.6772 270.1919,262.0522 270.1919,262.0522 268.3169,261.4272 268.3169,261.4272 270.1919,260.8022 270.1919,260.8022 270.8169,260.1772 270.8169,260.1772 271.4419,258.9272 271.4419,258.9272 271.4419,257.6772 271.4419,257.6772 270.8169,256.4272 270.8169,256.4272 270.1919,255.8022 270.1919,255.8022 268.3169,255.1772 268.3169,255.1772"/>
    <line x1="262.6919" x2="268.3169" y1="261.4272" y2="261.4272"/>
    <polyline points="170.0787,319.3701 170.0787,357.1654 170.0787,357.1654 132.2835,357.1654 132.2835,357.1654 94.4882,357.1654 94.4882,357.1654 94.4882,319.3701 94.4882,319.3701 132.2835,319.3701 132.2835,319.3701 170.0787,319.3701 170.0787,319.3701 207.874,319.3701 207.874,319.3701 245.6693,319.3701 245.6693,319.3701 283.4646,319.3701 283.4646,319.3701 321.2598,319.3701 321.2598,319.3701 321.2598,281.5748 321.2598,281.5748 321.2598,243.7795 321.2598,243.7795 283.4646,243.7795"/>
    <polyline points="300.4872,255.1772 300.4872,264.5522 300.4872,264.5522 301.1122,266.4272 301.1122,266.4272 302.3622,267.6772 302.3622,267.6772 304.2372,268.3022 304.2372,268.3022 305.4872,268.3022 305.4872,268.3022 307.3622,267.6772 307.3622,267.6772 308.6122,266.4272 308.6122,266.4272 309.2372,264.5522 309.2372,264.5522 309.2372,255.1772"/>
    <line x1="342.6575" x2="342.6575" y1="255.1772" y2="268.3022"/>
    <polyline points="396.8504,243.7795 396.8504,281.5748 396.8504,281.5748 396.8504,319.3701 396.8504,319.3701 396.8504,357.1654 396.8504,357.1654 434.6457,357.1654 434.6457,357.1654 434.6457,319.3701 434.6457,319.3701 434.6457,281.5748 434.6457,281.5748 434.6457,243.7795 434.6457,243.7795 472.4409,243.7795 472.4409,243.7795 472.4409,281.5748 472.4409,281.5748 510.2362,281.5748 510.2362,281.5748 510.2362,243.7795 510.2362,243.7795 472.4409,243.7795"/>
    <polyline points="396.8504,281.5748 434.6457,281.5748 434.6457,281.5748 472.4409,281.5748"/>
    <polyline points="400.6152,246.9488 401.2402,246.6363 401.2402,246.6363 402.1777,245.6988 402.1777,245.6988 402.1777,252.2613"/>
    <polyline points="406.5527,245.6988 409.9902,245.6988 409.9902,245.6988 408.1152,248.1988 408.1152,248.1988 409.0527,248.1988 409.0527,248.1988 409.6777,248.5113 409.6777,248.5113 409.9902,248.8238 409.9902,248.8238 410.3027,249.7613 410.3027,249.7613 410.3027,250.3863 410.3027,250.3863 409.9902,251.3238 409.9902,251.3238 409.3652,251.9488 409.3652,251.9488 408.4277,252.2613 408.4277,252.2613 407.4902,252.2613 407.4902,252.2613 406.5527,251.9488 406.5527,251.9488 406.2402,251.6363 406.2402,251.6363 405.9277,251.0113"/>
    <line x1="416.373" x2="416.373" y1="255.1772" y2="268.3022"/>
    <line x1="411.998" x2="420.748" y1="255.1772" y2="255.1772"/>
    <polyline points="460.1058,255.1772 451.9808,255.1772 451.9808,255.1772 451.9808,268.3022 451.9808,268.3022 460.1058,268.3022"/>
    <line x1="451.9808" x2="456.9808" y1="261.4272" y2="261.4272"/>
    <polyline points="490.0886,255.1772 490.0886,268.3022 490.0886,268.3022 497.5886,268.3022"/>
    <polyline points="510.2362,281.5748 548.0315,281.5748 548.0315,281.5748 585.8268,281.5748 585.8268,281.5748 585.8268,243.7795 585.8268,243.7795 548.0315,243.7795 548.0315,243.7795 510.2362,243.7795"/>
    <line x1="548.0315" x2="548.0315" y1="281.5748" y2="243.7795"/>
    <polyline points="535.6964,255.1772 527.5714,255.1772 527.5714,255.1772 527.5714,268.3022 527.5714,268.3022 535.6964,268.3022"/>
    <line x1="527.5714" x2="532.5714" y1="261.4272" y2="261.4272"/>
    <polyline points="573.4916,255.1772 565.3666,255.1772 565.3666,255.1772 565.3666,268.3022"/>
    <line x1="565.3666" x2="570.3666" y1="261.4272" y2="261.4272"/>
    <polyline points="585.8268,281.5748 623.622,281.5748 623.622,281.5748 661.4173,281.5748 661.4173,281.5748 699.2126,281.5748 699.2126,281.5748 699.2126,243.7795 699.2126,243.7795 661.4173,243.7795 661.4173,243.7795 661.4173,281.5748 661.4173,281.5748 661.4173,319.3701 661.4173,319.3701 661.4173,357.1654 661.4173,357.1654 623.622,357.1654 623.622,357.1654 623.622,319.3701 623.622,319.3701 585.8268,319.3701 585.8268,319.3701 548.0315,319.3701 548.0315,319.3701 510.2362,319.3701 510.2362,319.3701 472.4409,319.3701 472.4409,319.3701 472.4409,357.1654 472.4409,357.1654 510.2362,357.1654 510.2362,357.1654 510.2362,319.3701"/>
    <polyline points="661.4173,319.3701 623.622,319.3701 623.622,319.3701 623.622,281.5748 623.622,281.5748 623.622,243.7795 623.622,243.7795 585.8268,243.7795"/>
    <polygon points="605.3494,255.1772 604.0994,255.8022 604.0994,255.8022 602.8494,257.0522 602.8494,257.0522 602.2244,258.3022 602.2244,258.3022 601.5994,260.1772 601.5994,260.1772 601.5994,263.3022 601.5994,263.3022 602.2244,265.1772 602.2244,265.1772 602.8494,266.4272 602.8494,266.4272 604.0994,267.6772 604.0994,267.6772 605.3494,268.3022 605.3494,268.3022 607.8494,268.3022 607.8494,268.3022 609.0994,267.6772 609.0994,267.6772 610.3494,266.4272 610.3494,266.4272 610.9744,265.1772 610.9744,265.1772 611.5994,263.3022 611.5994,263.3022 611.5994,260.1772 611.5994,260.1772 610.9744,258.3022 610.9744,258.3022 610.3494,257.0522 610.3494,257.0522 609.0994,255.8022 609.0994,255.8022 607.8494,255.1772 607.8494,255.1772"/>
    <polygon points="643.1447,255.1772 641.8947,255.8022 641.8947,255.8022 640.6447,257.0522 640.6447,257.0522 640.0197,258.3022 640.0197,258.3022 639.3947,260.1772 639.3947,260.1772 639.3947,263.3022 639.3947,263.3022 640.0197,265.1772 640.0197,265.1772 640.6447,266.4272 640.6447,266.4272 641.8947,267.6772 641.8947,267.6772 643.1447,268.3022 643.1447,268.3022 645.6447,268.3022 645.6447,268.3022 646.8947,267.6772 646.8947,267.6772 648.1447,266.4272 648.1447,266.4272 648.7697,265.1772 648.7697,265.1772 649.3947,263.3022 649.3947,263.3022 649.3947,260.1772 649.3947,260.1772 648.7697,258.3022 648.7697,258.3022 648.1447,257.0522 648.1447,257.0522 646.8947,255.8022 646.8947,255.8022 645.6447,255.1772 645.6447,255.1772"/>
    <polyline points="687.19,255.1772 687.19,268.3022 687.19,268.3022 678.44,255.1772 678.44,255.1772 678.44,268.3022"/>
    <polygon points="76.2156,292.9724 74.9656,293.5974 74.9656,293.5974 73.7156,294.8474 73.7156,294.8474 73.0906,296.0974 73.0906,296.0974 72.4656,297.9724 72.4656,297.9724 72.4656,301.0974 72.4656,301.0974 73.0906,302.9724 73.0906,302.9724 73.7156,304.2224 73.7156,304.2224 74.9656,305.4724 74.9656,305.4724 76.2156,306.0974 76.2156,306.0974 78.7156,306.0974 78.7156,306.0974 79.9656,305.4724 79.9656,305.4724 81.2156,304.2224 81.2156,304.2224 81.8406,302.9724 81.8406,302.9724 82.4656,301.0974 82.4656,301.0974 82.4656,297.9724 82.4656,297.9724 81.8406,296.0974 81.8406,296.0974 81.2156,294.8474 81.2156,294.8474 79.9656,293.5974 79.9656,293.5974 78.7156,292.9724 78.7156,292.9724"/>
    <polyline points="359.0551,319.3701 359.0551,357.1654 359.0551,357.1654 321.2598,357.1654 321.2598,357.1654 321.2598,319.3701 321.2598,319.3701 359.0551,319.3701 359.0551,319.3701 359.0551,281.5748"/>
    <polyline points="344.5325,292.9724 344.5325,302.9724 344.5325,302.9724 343.9075,304.8474 343.9075,304.8474 343.2825,305.4724 343.2825,305.4724 342.0325,306.0974 342.0325,306.0974 340.7825,306.0974 340.7825,306.0974 339.5325,305.4724 339.5325,305.4724 338.9075,304.8474 338.9075,304.8474 338.2825,302.9724 338.2825,302.9724 338.2825,301.7224"/>
    <line x1="396.8504" x2="434.6457" y1="319.3701" y2="319.3701"/>
    <polyline points="420.123,292.9724 420.123,302.9724 420.123,302.9724 419.498,304.8474 419.498,304.8474 418.873,305.4724 418.873,305.4724 417.623,306.0974 417.623,306.0974 416.373,306.0974 416.373,306.0974 415.123,305.4724 415.123,305.4724 414.498,304.8474 414.498,304.8474 413.873,302.9724 413.873,302.9724 413.873,301.7224"/>
    <polyline points="649.0822,292.9724 640.9572,292.9724 640.9572,292.9724 640.9572,306.0974 640.9572,306.0974 649.0822,306.0974"/>
    <line x1="640.9572" x2="645.9572" y1="299.2224" y2="299.2224"/>
    <polyline points="56.6929,319.3701 56.6929,357.1654 56.6929,357.1654 94.4882,357.1654"/>
    <polyline points="60.4577,322.5394 61.0827,322.2269 61.0827,322.2269 62.0202,321.2894 62.0202,321.2894 62.0202,327.8519"/>
    <polyline points="68.8952,327.8519 68.8952,321.2894 68.8952,321.2894 65.7702,325.6644 65.7702,325.6644 70.4577,325.6644"/>
    <polyline points="73.7156,337.6427 79.3406,337.6427 79.3406,337.6427 81.2156,337.0177 81.2156,337.0177 81.8406,336.3927 81.8406,336.3927 82.4656,335.1427 82.4656,335.1427 82.4656,333.2677 82.4656,333.2677 81.8406,332.0177 81.8406,332.0177 81.2156,331.3927 81.2156,331.3927 79.3406,330.7677 79.3406,330.7677 73.7156,330.7677 73.7156,330.7677 73.7156,343.8927"/>
    <line x1="132.2835" x2="132.2835" y1="357.1654" y2="319.3701"/>
    <polyline points="119.0108,343.8927 114.0108,330.7677 114.0108,330.7677 109.0108,343.8927"/>
    <line x1="110.8858" x2="117.1358" y1="339.5177" y2="339.5177"/>
    <polyline points="149.3061,337.0177 154.9311,337.0177 154.9311,337.0177 156.8061,336.3927 156.8061,336.3927 157.4311,335.7677 157.4311,335.7677 158.0561,334.5177 158.0561,334.5177 158.0561,333.2677 158.0561,333.2677 157.4311,332.0177 157.4311,332.0177 156.8061,331.3927 156.8061,331.3927 154.9311,330.7677 154.9311,330.7677 149.3061,330.7677 149.3061,330.7677 149.3061,343.8927"/>
    <line x1="153.6811" x2="158.0561" y1="337.0177" y2="343.8927"/>
    <polyline points="170.0787,357.1654 207.874,357.1654 207.874,357.1654 245.6693,357.1654 245.6693,357.1654 245.6693,319.3701"/>
    <line x1="207.874" x2="207.874" y1="357.1654" y2="319.3701"/>
    <line x1="187.1014" x2="187.1014" y1="330.7677" y2="343.8927"/>
    <line x1="195.8514" x2="187.1014" y1="330.7677" y2="339.5177"/>
    <line x1="190.2264" x2="195.8514" y1="336.3927" y2="343.8927"/>
    <polyline points="233.3342,330.7677 225.2092,330.7677 225.2092,330.7677 225.2092,343.8927 225.2092,343.8927 233.3342,343.8927"/>
    <line x1="225.2092" x2="230.2092" y1="337.0177" y2="337.0177"/>
    <polyline points="245.6693,357.1654 283.4646,357.1654 283.4646,357.1654 283.4646,319.3701"/>
    <polyline points="262.6919,337.0177 268.3169,337.0177 268.3169,337.0177 270.1919,336.3927 270.1919,336.3927 270.8169,335.7677 270.8169,335.7677 271.4419,334.5177 271.4419,334.5177 271.4419,333.2677 271.4419,333.2677 270.8169,332.0177 270.8169,332.0177 270.1919,331.3927 270.1919,331.3927 268.3169,330.7677 268.3169,330.7677 262.6919,330.7677 262.6919,330.7677 262.6919,343.8927"/>
    <line x1="267.0669" x2="271.4419" y1="337.0177" y2="343.8927"/>
    <line x1="283.4646" x2="321.2598" y1="357.1654" y2="357.1654"/>
    <polyline points="308.9247,330.7677 300.7997,330.7677 300.7997,330.7677 300.7997,343.8927 300.7997,343.8927 308.9247,343.8927"/>
    <line x1="300.7997" x2="305.7997" y1="337.0177" y2="337.0177"/>
    <polyline points="347.0325,330.7677 347.0325,343.8927 347.0325,343.8927 338.2825,330.7677 338.2825,330.7677 338.2825,343.8927"/>
    <polyline points="422.3105,330.7677 414.1855,330.7677 414.1855,330.7677 414.1855,343.8927 414.1855,343.8927 422.3105,343.8927"/>
    <line x1="414.1855" x2="419.1855" y1="337.0177" y2="337.0177"/>
    <polyline points="476.2057,322.5394 476.8307,322.2269 476.8307,322.2269 477.7682,321.2894 477.7682,321.2894 477.7682,327.8519"/>
    <polyline points="485.2682,321.2894 482.1432,321.2894 482.1432,321.2894 481.8307,324.1019 481.8307,324.1019 482.1432,323.7894 482.1432,323.7894 483.0807,323.4769 483.0807,323.4769 484.0182,323.4769 484.0182,323.4769 484.9557,323.7894 484.9557,323.7894 485.5807,324.4144 485.5807,324.4144 485.8932,325.3519 485.8932,325.3519 485.8932,325.9769 485.8932,325.9769 485.5807,326.9144 485.5807,326.9144 484.9557,327.5394 484.9557,327.5394 484.0182,327.8519 484.0182,327.8519 483.0807,327.8519 483.0807,327.8519 482.1432,327.5394 482.1432,327.5394 481.8307,327.2269 481.8307,327.2269 481.5182,326.6019"/>
    <line x1="491.9636" x2="491.9636" y1="330.7677" y2="343.8927"/>
    <line x1="487.5886" x2="496.3386" y1="330.7677" y2="330.7677"/>
    <polyline points="510.2362,357.1654 548.0315,357.1654 548.0315,357.1654 548.0315,319.3701"/>
    <polyline points="527.2589,337.0177 532.8839,337.0177 532.8839,337.0177 534.7589,336.3927 534.7589,336.3927 535.3839,335.7677 535.3839,335.7677 536.0089,334.5177 536.0089,334.5177 536.0089,333.2677 536.0089,333.2677 535.3839,332.0177 535.3839,332.0177 534.7589,331.3927 534.7589,331.3927 532.8839,330.7677 532.8839,330.7677 527.2589,330.7677 527.2589,330.7677 527.2589,343.8927"/>
    <line x1="531.6339" x2="536.0089" y1="337.0177" y2="343.8927"/>
    <polyline points="548.0315,357.1654 585.8268,357.1654 585.8268,357.1654 585.8268,319.3701"/>
    <polyline points="573.4916,330.7677 565.3666,330.7677 565.3666,330.7677 565.3666,343.8927 565.3666,343.8927 573.4916,343.8927"/>
    <line x1="565.3666" x2="570.3666" y1="337.0177" y2="337.0177"/>
    <line x1="585.8268" x2="623.622" y1="357.1654" y2="357.1654"/>
    <line x1="607.2244" x2="607.2244" y1="330.7677" y2="343.8927"/>
    <polyline points="649.3947,330.7677 649.3947,343.8927 649.3947,343.8927 640.6447,330.7677 640.6447,330.7677 640.6447,343.8927"/>
  </g>
</svg>
