<?xml version="1.0" encoding="utf-8" ?>
<svg xmlns="http://www.w3.org/2000/svg" xmlns:cc="http://creativecommons.org/ns" xmlns:dc="http://purl.org/dc/elements/1.1/" xmlns:ev="http://www.w3.org/2001/xml-events" xmlns:inkscape="http://www.inkscape.org/namespaces/inkscape" xmlns:rdf="http://www.w3.org/1999/02/22-rdf-syntax-ns" xmlns:sodipodi="http://sodipodi.sourceforge.net/DTD/sodipodi-0.dtd" xmlns:xlink="http://www.w3.org/1999/xlink" baseProfile="tiny" height="9.9cm" version="1.2" viewBox="0 0 793.7007874015749 374.1732283464567" width="21.0cm">
  <metadata>
    <rdf:RDF>
      <cc:Work>
        <dc:format>image/svg+xml</dc:format>
        <dc:source>vpype eval 'cell=10;width=210;height=99' eval 'nCols=20;nRows=9' eval 'cells=[2,6,7,8,9,10,11,12,13,14,15,19,20,21,22,23,24,30,37,39,42,45,46,47,48,49,50,51,52,53,54,55,57,59,62,70,77,79,80,81,82,83,84,85,86,88,89,90,91,92,93,94,95,96,97,98,99,102,110,117,119,122,123,124,125,126,127,128,129,130,132,133,134,135,136,137,139,142,150,157,159,160,161,162,163,164,165,166,167,171,172,173,174,175,176,177,178]' eval 'chars=[&quot;U&quot;,&quot;G&quot;,&quot;R&quot;,&quot;O&quot;,&quot;E&quot;,&quot;P&quot;,&quot;S&quot;,&quot;F&quot;,&quot;O&quot;,&quot;T&quot;,&quot;O&quot;,&quot;B&quot;,&quot;E&quot;,&quot;D&quot;,&quot;I&quot;,&quot;T&quot;,&quot;H&quot;,&quot;A&quot;,&quot;S&quot;,&quot;R&quot;,&quot;T&quot;,&quot;M&quot;,&quot;I&quot;,&quot;S&quot;,&quot;V&quot;,&quot;E&quot;,&quot;R&quot;,&quot;S&quot;,&quot;T&quot;,&quot;A&quot;,&quot;N&quot;,&quot;D&quot;,&quot;K&quot;,&quot;O&quot;,&quot;L&quot;,&quot;K&quot;,&quot;E&quot;,&quot;E&quot;,&quot;V&quot;,&quot;R&quot;,&quot;I&quot;,&quot;J&quot;,&quot;D&quot;,&quot;A&quot;,&quot;G&quot;,&quot;F&quot;,&quot;L&quot;,&quot;E&quot;,&quot;S&quot;,&quot;S&quot;,&quot;E&quot;,&quot;N&quot;,&quot;G&quot;,&quot;E&quot;,&quot;L&quot;,&quot;U&quot;,&quot;K&quot;,&quot;K&quot;,&quot;R&quot;,&quot;L&quot;,&quot;Z&quot;,&quot;K&quot;,&quot;L&quot;,&quot;A&quot;,&quot;V&quot;,&quot;E&quot;,&quot;R&quot;,&quot;T&quot;,&quot;J&quot;,&quot;E&quot;,&quot;C&quot;,&quot;E&quot;,&quot;N&quot;,&quot;T&quot;,&quot;J&quot;,&quot;E&quot;,&quot;A&quot;,&quot;E&quot;,&quot;N&quot;,&quot;K&quot;,&quot;K&quot;,&quot;H&quot;,&quot;A&quot;,&quot;N&quot;,&quot;D&quot;,&quot;D&quot;,&quot;O&quot;,&quot;E&quot;,&quot;K&quot;,&quot;P&quot;,&quot;A&quot;,&quot;R&quot;,&quot;K&quot;,&quot;E&quot;,&quot;R&quot;,&quot;E&quot;,&quot;N&quot;]' eval 'numbers=[2,6,10,19,20,37,45,80,88,122,132,160,171]' eval counter=1 eval charIndex=0 begin grid -o '%cell*mm%' '%cell*mm%' %nCols% %nRows% eval '%isCell=_i in cells%' eval '%number=_i in numbers%' eval '%size=10 if isCell else 0%' rect 0 0 '%size*mm%' '%size*mm%' text -s 10 -p 0.5mm 1.5mm '%counter if number else '&quot;'&quot;''&quot;'&quot;'%' text -s 20 -p 5mm 5mm -a center '%chars[charIndex] if isCell else '&quot;'&quot;''&quot;'&quot;'%' eval '%if number: counter+=1 %' eval '%if isCell: charIndex+=1 %' end splitall deduplicate linemerge --tolerance 0.1mm write -m none --page-size '%width*mm%x%height*mm%' --center ./svgs/solution/bface9.svg
</dc:source>
        <dc:date>2024-01-06T16:44:06.364435</dc:date>
      </cc:Work>
    </rdf:RDF>
  </metadata>
  <defs/>
  <g fill="none" id="layer1" inkscape:groupmode="layer" inkscape:label="1" stroke="#000000" style="display:inline">
    <polygon points="94.4882,17.0079 94.4882,54.8031 94.4882,54.8031 132.2835,54.8031 132.2835,54.8031 132.2835,17.0079 132.2835,17.0079"/>
    <polyline points="98.253,20.1772 98.878,19.8647 98.878,19.8647 99.8155,18.9272 99.8155,18.9272 99.8155,25.4897"/>
    <polyline points="111.5108,28.4055 111.5108,37.7805 111.5108,37.7805 112.1358,39.6555 112.1358,39.6555 113.3858,40.9055 113.3858,40.9055 115.2608,41.5305 115.2608,41.5305 116.5108,41.5305 116.5108,41.5305 118.3858,40.9055 118.3858,40.9055 119.6358,39.6555 119.6358,39.6555 120.2608,37.7805 120.2608,37.7805 120.2608,28.4055"/>
    <polygon points="245.6693,17.0079 245.6693,54.8031 245.6693,54.8031 283.4646,54.8031 283.4646,54.8031 283.4646,17.0079 283.4646,17.0079"/>
    <polyline points="248.8091,20.4897 248.8091,20.1772 248.8091,20.1772 249.1216,19.5522 249.1216,19.5522 249.4341,19.2397 249.4341,19.2397 250.0591,18.9272 250.0591,18.9272 251.3091,18.9272 251.3091,18.9272 251.9341,19.2397 251.9341,19.2397 252.2466,19.5522 252.2466,19.5522 252.5591,20.1772 252.5591,20.1772 252.5591,20.8022 252.5591,20.8022 252.2466,21.4272 252.2466,21.4272 251.6216,22.3647 251.6216,22.3647 248.4966,25.4897 248.4966,25.4897 252.8716,25.4897"/>
    <polyline points="271.1294,31.5305 270.5044,30.2805 270.5044,30.2805 269.2544,29.0305 269.2544,29.0305 268.0044,28.4055 268.0044,28.4055 265.5044,28.4055 265.5044,28.4055 264.2544,29.0305 264.2544,29.0305 263.0044,30.2805 263.0044,30.2805 262.3794,31.5305 262.3794,31.5305 261.7544,33.4055 261.7544,33.4055 261.7544,36.5305 261.7544,36.5305 262.3794,38.4055 262.3794,38.4055 263.0044,39.6555 263.0044,39.6555 264.2544,40.9055 264.2544,40.9055 265.5044,41.5305 265.5044,41.5305 268.0044,41.5305 268.0044,41.5305 269.2544,40.9055 269.2544,40.9055 270.5044,39.6555 270.5044,39.6555 271.1294,38.4055 271.1294,38.4055 271.1294,36.5305 271.1294,36.5305 268.0044,36.5305"/>
    <polyline points="283.4646,54.8031 321.2598,54.8031 321.2598,54.8031 321.2598,17.0079 321.2598,17.0079 283.4646,17.0079"/>
    <polyline points="300.4872,34.6555 306.1122,34.6555 306.1122,34.6555 307.9872,34.0305 307.9872,34.0305 308.6122,33.4055 308.6122,33.4055 309.2372,32.1555 309.2372,32.1555 309.2372,30.9055 309.2372,30.9055 308.6122,29.6555 308.6122,29.6555 307.9872,29.0305 307.9872,29.0305 306.1122,28.4055 306.1122,28.4055 300.4872,28.4055 300.4872,28.4055 300.4872,41.5305"/>
    <line x1="304.8622" x2="309.2372" y1="34.6555" y2="41.5305"/>
    <polyline points="321.2598,54.8031 359.0551,54.8031 359.0551,54.8031 396.8504,54.8031 396.8504,54.8031 434.6457,54.8031 434.6457,54.8031 434.6457,17.0079 434.6457,17.0079 396.8504,17.0079 396.8504,17.0079 359.0551,17.0079 359.0551,17.0079 321.2598,17.0079"/>
    <line x1="359.0551" x2="359.0551" y1="54.8031" y2="17.0079"/>
    <polygon points="340.7825,28.4055 339.5325,29.0305 339.5325,29.0305 338.2825,30.2805 338.2825,30.2805 337.6575,31.5305 337.6575,31.5305 337.0325,33.4055 337.0325,33.4055 337.0325,36.5305 337.0325,36.5305 337.6575,38.4055 337.6575,38.4055 338.2825,39.6555 338.2825,39.6555 339.5325,40.9055 339.5325,40.9055 340.7825,41.5305 340.7825,41.5305 343.2825,41.5305 343.2825,41.5305 344.5325,40.9055 344.5325,40.9055 345.7825,39.6555 345.7825,39.6555 346.4075,38.4055 346.4075,38.4055 347.0325,36.5305 347.0325,36.5305 347.0325,33.4055 347.0325,33.4055 346.4075,31.5305 346.4075,31.5305 345.7825,30.2805 345.7825,30.2805 344.5325,29.0305 344.5325,29.0305 343.2825,28.4055 343.2825,28.4055"/>
    <polyline points="245.6693,92.5984 245.6693,130.3937 245.6693,130.3937 207.874,130.3937 207.874,130.3937 207.874,92.5984 207.874,92.5984 245.6693,92.5984 245.6693,92.5984 283.4646,92.5984 283.4646,92.5984 321.2598,92.5984 321.2598,92.5984 359.0551,92.5984 359.0551,92.5984 396.8504,92.5984 396.8504,92.5984 396.8504,54.8031 396.8504,54.8031 396.8504,17.0079"/>
    <polyline points="384.5153,28.4055 376.3903,28.4055 376.3903,28.4055 376.3903,41.5305 376.3903,41.5305 384.5153,41.5305"/>
    <line x1="376.3903" x2="381.3903" y1="34.6555" y2="34.6555"/>
    <polyline points="400.3027,18.9272 403.7402,18.9272 403.7402,18.9272 401.8652,21.4272 401.8652,21.4272 402.8027,21.4272 402.8027,21.4272 403.4277,21.7397 403.4277,21.7397 403.7402,22.0522 403.7402,22.0522 404.0527,22.9897 404.0527,22.9897 404.0527,23.6147 404.0527,23.6147 403.7402,24.5522 403.7402,24.5522 403.1152,25.1772 403.1152,25.1772 402.1777,25.4897 402.1777,25.4897 401.2402,25.4897 401.2402,25.4897 400.3027,25.1772 400.3027,25.1772 399.9902,24.8647 399.9902,24.8647 399.6777,24.2397"/>
    <polyline points="413.873,35.2805 419.498,35.2805 419.498,35.2805 421.373,34.6555 421.373,34.6555 421.998,34.0305 421.998,34.0305 422.623,32.7805 422.623,32.7805 422.623,30.9055 422.623,30.9055 421.998,29.6555 421.998,29.6555 421.373,29.0305 421.373,29.0305 419.498,28.4055 419.498,28.4055 413.873,28.4055 413.873,28.4055 413.873,41.5305"/>
    <polyline points="359.0551,92.5984 359.0551,130.3937 359.0551,130.3937 396.8504,130.3937 396.8504,130.3937 396.8504,92.5984 396.8504,92.5984 434.6457,92.5984 434.6457,92.5984 472.4409,92.5984 472.4409,92.5984 510.2362,92.5984 510.2362,92.5984 548.0315,92.5984 548.0315,92.5984 585.8268,92.5984 585.8268,92.5984 585.8268,130.3937 585.8268,130.3937 548.0315,130.3937 548.0315,130.3937 510.2362,130.3937 510.2362,130.3937 472.4409,130.3937 472.4409,130.3937 434.6457,130.3937 434.6457,130.3937 434.6457,168.189 434.6457,168.189 434.6457,205.9843 434.6457,205.9843 434.6457,243.7795 434.6457,243.7795 396.8504,243.7795 396.8504,243.7795 396.8504,205.9843 396.8504,205.9843 359.0551,205.9843 359.0551,205.9843 321.2598,205.9843 321.2598,205.9843 321.2598,168.189 321.2598,168.189 359.0551,168.189 359.0551,168.189 396.8504,168.189 396.8504,168.189 396.8504,130.3937 396.8504,130.3937 434.6457,130.3937 434.6457,130.3937 434.6457,92.5984 434.6457,92.5984 434.6457,54.8031 434.6457,54.8031 472.4409,54.8031 472.4409,54.8031 472.4409,17.0079 472.4409,17.0079 434.6457,17.0079"/>
    <polyline points="459.7933,30.2805 458.5433,29.0305 458.5433,29.0305 456.6683,28.4055 456.6683,28.4055 454.1683,28.4055 454.1683,28.4055 452.2933,29.0305 452.2933,29.0305 451.0433,30.2805 451.0433,30.2805 451.0433,31.5305 451.0433,31.5305 451.6683,32.7805 451.6683,32.7805 452.2933,33.4055 452.2933,33.4055 453.5433,34.0305 453.5433,34.0305 457.2933,35.2805 457.2933,35.2805 458.5433,35.9055 458.5433,35.9055 459.1683,36.5305 459.1683,36.5305 459.7933,37.7805 459.7933,37.7805 459.7933,39.6555 459.7933,39.6555 458.5433,40.9055 458.5433,40.9055 456.6683,41.5305 456.6683,41.5305 454.1683,41.5305 454.1683,41.5305 452.2933,40.9055 452.2933,40.9055 451.0433,39.6555"/>
    <polyline points="472.4409,54.8031 510.2362,54.8031 510.2362,54.8031 510.2362,17.0079 510.2362,17.0079 472.4409,17.0079"/>
    <polyline points="497.9011,28.4055 489.7761,28.4055 489.7761,28.4055 489.7761,41.5305"/>
    <line x1="489.7761" x2="494.7761" y1="34.6555" y2="34.6555"/>
    <polyline points="510.2362,54.8031 548.0315,54.8031 548.0315,54.8031 548.0315,17.0079 548.0315,17.0079 510.2362,17.0079"/>
    <polygon points="529.7589,28.4055 528.5089,29.0305 528.5089,29.0305 527.2589,30.2805 527.2589,30.2805 526.6339,31.5305 526.6339,31.5305 526.0089,33.4055 526.0089,33.4055 526.0089,36.5305 526.0089,36.5305 526.6339,38.4055 526.6339,38.4055 527.2589,39.6555 527.2589,39.6555 528.5089,40.9055 528.5089,40.9055 529.7589,41.5305 529.7589,41.5305 532.2589,41.5305 532.2589,41.5305 533.5089,40.9055 533.5089,40.9055 534.7589,39.6555 534.7589,39.6555 535.3839,38.4055 535.3839,38.4055 536.0089,36.5305 536.0089,36.5305 536.0089,33.4055 536.0089,33.4055 535.3839,31.5305 535.3839,31.5305 534.7589,30.2805 534.7589,30.2805 533.5089,29.0305 533.5089,29.0305 532.2589,28.4055 532.2589,28.4055"/>
    <polyline points="548.0315,54.8031 585.8268,54.8031 585.8268,54.8031 585.8268,17.0079 585.8268,17.0079 548.0315,17.0079"/>
    <line x1="567.5541" x2="567.5541" y1="28.4055" y2="41.5305"/>
    <line x1="563.1791" x2="571.9291" y1="28.4055" y2="28.4055"/>
    <polyline points="585.8268,54.8031 623.622,54.8031 623.622,54.8031 623.622,17.0079 623.622,17.0079 585.8268,17.0079"/>
    <polygon points="605.3494,28.4055 604.0994,29.0305 604.0994,29.0305 602.8494,30.2805 602.8494,30.2805 602.2244,31.5305 602.2244,31.5305 601.5994,33.4055 601.5994,33.4055 601.5994,36.5305 601.5994,36.5305 602.2244,38.4055 602.2244,38.4055 602.8494,39.6555 602.8494,39.6555 604.0994,40.9055 604.0994,40.9055 605.3494,41.5305 605.3494,41.5305 607.8494,41.5305 607.8494,41.5305 609.0994,40.9055 609.0994,40.9055 610.3494,39.6555 610.3494,39.6555 610.9744,38.4055 610.9744,38.4055 611.5994,36.5305 611.5994,36.5305 611.5994,33.4055 611.5994,33.4055 610.9744,31.5305 610.9744,31.5305 610.3494,30.2805 610.3494,30.2805 609.0994,29.0305 609.0994,29.0305 607.8494,28.4055 607.8494,28.4055"/>
    <polygon points="737.0079,17.0079 737.0079,54.8031 737.0079,54.8031 774.8031,54.8031 774.8031,54.8031 774.8031,17.0079 774.8031,17.0079"/>
    <polyline points="742.9601,25.4897 742.9601,18.9272 742.9601,18.9272 739.8351,23.3022 739.8351,23.3022 744.5226,23.3022"/>
    <polyline points="759.6555,34.6555 761.5305,34.0305 761.5305,34.0305 762.1555,33.4055 762.1555,33.4055 762.7805,32.1555 762.7805,32.1555 762.7805,30.9055 762.7805,30.9055 762.1555,29.6555 762.1555,29.6555 761.5305,29.0305 761.5305,29.0305 759.6555,28.4055 759.6555,28.4055 754.0305,28.4055 754.0305,28.4055 754.0305,41.5305 754.0305,41.5305 759.6555,41.5305 759.6555,41.5305 761.5305,40.9055 761.5305,40.9055 762.1555,40.2805 762.1555,40.2805 762.7805,39.0305 762.7805,39.0305 762.7805,37.1555 762.7805,37.1555 762.1555,35.9055 762.1555,35.9055 761.5305,35.2805 761.5305,35.2805 759.6555,34.6555 759.6555,34.6555 754.0305,34.6555"/>
    <polyline points="170.0787,92.5984 132.2835,92.5984 132.2835,92.5984 94.4882,92.5984 94.4882,92.5984 94.4882,54.8031 94.4882,54.8031 56.6929,54.8031 56.6929,54.8031 18.8976,54.8031 18.8976,54.8031 18.8976,92.5984 18.8976,92.5984 56.6929,92.5984 56.6929,92.5984 94.4882,92.5984 94.4882,92.5984 94.4882,130.3937 94.4882,130.3937 94.4882,168.189 94.4882,168.189 56.6929,168.189 56.6929,168.189 18.8976,168.189 18.8976,168.189 18.8976,205.9843 18.8976,205.9843 56.6929,205.9843 56.6929,205.9843 94.4882,205.9843 94.4882,205.9843 132.2835,205.9843 132.2835,205.9843 132.2835,168.189 132.2835,168.189 132.2835,130.3937 132.2835,130.3937 132.2835,92.5984 132.2835,92.5984 132.2835,54.8031 132.2835,54.8031 170.0787,54.8031 170.0787,54.8031 170.0787,92.5984 170.0787,92.5984 207.874,92.5984 207.874,92.5984 207.874,54.8031 207.874,54.8031 170.0787,54.8031"/>
    <line x1="56.6929" x2="56.6929" y1="92.5984" y2="54.8031"/>
    <polyline points="25.4749,56.7224 22.3499,56.7224 22.3499,56.7224 22.0374,59.5349 22.0374,59.5349 22.3499,59.2224 22.3499,59.2224 23.2874,58.9099 23.2874,58.9099 24.2249,58.9099 24.2249,58.9099 25.1624,59.2224 25.1624,59.2224 25.7874,59.8474 25.7874,59.8474 26.0999,60.7849 26.0999,60.7849 26.0999,61.4099 26.0999,61.4099 25.7874,62.3474 25.7874,62.3474 25.1624,62.9724 25.1624,62.9724 24.2249,63.2849 24.2249,63.2849 23.2874,63.2849 23.2874,63.2849 22.3499,62.9724 22.3499,62.9724 22.0374,62.6599 22.0374,62.6599 21.7249,62.0349"/>
    <polyline points="44.3578,66.2008 36.2328,66.2008 36.2328,66.2008 36.2328,79.3258 36.2328,79.3258 44.3578,79.3258"/>
    <line x1="36.2328" x2="41.2328" y1="72.4508" y2="72.4508"/>
    <polygon points="73.7156,66.2008 73.7156,79.3258 73.7156,79.3258 78.0906,79.3258 78.0906,79.3258 79.9656,78.7008 79.9656,78.7008 81.2156,77.4508 81.2156,77.4508 81.8406,76.2008 81.8406,76.2008 82.4656,74.3258 82.4656,74.3258 82.4656,71.2008 82.4656,71.2008 81.8406,69.3258 81.8406,69.3258 81.2156,68.0758 81.2156,68.0758 79.9656,66.8258 79.9656,66.8258 78.0906,66.2008 78.0906,66.2008"/>
    <line x1="115.8858" x2="115.8858" y1="66.2008" y2="79.3258"/>
    <line x1="151.8061" x2="151.8061" y1="66.2008" y2="79.3258"/>
    <line x1="147.4311" x2="156.1811" y1="66.2008" y2="66.2008"/>
    <line x1="187.1014" x2="187.1014" y1="66.2008" y2="79.3258"/>
    <line x1="195.8514" x2="195.8514" y1="66.2008" y2="79.3258"/>
    <line x1="187.1014" x2="195.8514" y1="72.4508" y2="72.4508"/>
    <polyline points="421.373,79.3258 416.373,66.2008 416.373,66.2008 411.373,79.3258"/>
    <line x1="413.248" x2="419.498" y1="74.9508" y2="74.9508"/>
    <polygon points="661.4173,54.8031 661.4173,92.5984 661.4173,92.5984 699.2126,92.5984 699.2126,92.5984 699.2126,54.8031 699.2126,54.8031"/>
    <polyline points="668.3071,57.6599 667.9946,57.0349 667.9946,57.0349 667.0571,56.7224 667.0571,56.7224 666.4321,56.7224 666.4321,56.7224 665.4946,57.0349 665.4946,57.0349 664.8696,57.9724 664.8696,57.9724 664.5571,59.5349 664.5571,59.5349 664.5571,61.0974 664.5571,61.0974 664.8696,62.3474 664.8696,62.3474 665.4946,62.9724 665.4946,62.9724 666.4321,63.2849 666.4321,63.2849 666.7446,63.2849 666.7446,63.2849 667.6821,62.9724 667.6821,62.9724 668.3071,62.3474 668.3071,62.3474 668.6196,61.4099 668.6196,61.4099 668.6196,61.0974 668.6196,61.0974 668.3071,60.1599 668.3071,60.1599 667.6821,59.5349 667.6821,59.5349 666.7446,59.2224 666.7446,59.2224 666.4321,59.2224 666.4321,59.2224 665.4946,59.5349 665.4946,59.5349 664.8696,60.1599 664.8696,60.1599 664.5571,61.0974"/>
    <polyline points="686.565,68.0758 685.315,66.8258 685.315,66.8258 683.44,66.2008 683.44,66.2008 680.94,66.2008 680.94,66.2008 679.065,66.8258 679.065,66.8258 677.815,68.0758 677.815,68.0758 677.815,69.3258 677.815,69.3258 678.44,70.5758 678.44,70.5758 679.065,71.2008 679.065,71.2008 680.315,71.8258 680.315,71.8258 684.065,73.0758 684.065,73.0758 685.315,73.7008 685.315,73.7008 685.94,74.3258 685.94,74.3258 686.565,75.5758 686.565,75.5758 686.565,77.4508 686.565,77.4508 685.315,78.7008 685.315,78.7008 683.44,79.3258 683.44,79.3258 680.94,79.3258 680.94,79.3258 679.065,78.7008 679.065,78.7008 677.815,77.4508"/>
    <polyline points="737.0079,54.8031 737.0079,92.5984 737.0079,92.5984 737.0079,130.3937 737.0079,130.3937 737.0079,168.189 737.0079,168.189 774.8031,168.189 774.8031,168.189 774.8031,130.3937 774.8031,130.3937 774.8031,92.5984 774.8031,92.5984 774.8031,54.8031"/>
    <line x1="737.0079" x2="774.8031" y1="92.5984" y2="92.5984"/>
    <polyline points="754.0305,72.4508 759.6555,72.4508 759.6555,72.4508 761.5305,71.8258 761.5305,71.8258 762.1555,71.2008 762.1555,71.2008 762.7805,69.9508 762.7805,69.9508 762.7805,68.7008 762.7805,68.7008 762.1555,67.4508 762.1555,67.4508 761.5305,66.8258 761.5305,66.8258 759.6555,66.2008 759.6555,66.2008 754.0305,66.2008 754.0305,66.2008 754.0305,79.3258"/>
    <line x1="758.4055" x2="762.7805" y1="72.4508" y2="79.3258"/>
    <line x1="94.4882" x2="132.2835" y1="130.3937" y2="130.3937"/>
    <line x1="114.0108" x2="114.0108" y1="103.9961" y2="117.1211"/>
    <line x1="109.6358" x2="118.3858" y1="103.9961" y2="103.9961"/>
    <polyline points="210.7013,94.5177 215.0763,94.5177 215.0763,94.5177 211.9513,101.0802"/>
    <polyline points="234.2717,117.1211 234.2717,103.9961 234.2717,103.9961 229.2717,117.1211 229.2717,117.1211 224.2717,103.9961 224.2717,103.9961 224.2717,117.1211"/>
    <polyline points="245.6693,130.3937 283.4646,130.3937 283.4646,130.3937 321.2598,130.3937 321.2598,130.3937 321.2598,92.5984"/>
    <line x1="283.4646" x2="283.4646" y1="130.3937" y2="92.5984"/>
    <line x1="267.0669" x2="267.0669" y1="103.9961" y2="117.1211"/>
    <polyline points="308.6122,105.8711 307.3622,104.6211 307.3622,104.6211 305.4872,103.9961 305.4872,103.9961 302.9872,103.9961 302.9872,103.9961 301.1122,104.6211 301.1122,104.6211 299.8622,105.8711 299.8622,105.8711 299.8622,107.1211 299.8622,107.1211 300.4872,108.3711 300.4872,108.3711 301.1122,108.9961 301.1122,108.9961 302.3622,109.6211 302.3622,109.6211 306.1122,110.8711 306.1122,110.8711 307.3622,111.4961 307.3622,111.4961 307.9872,112.1211 307.9872,112.1211 308.6122,113.3711 308.6122,113.3711 308.6122,115.2461 308.6122,115.2461 307.3622,116.4961 307.3622,116.4961 305.4872,117.1211 305.4872,117.1211 302.9872,117.1211 302.9872,117.1211 301.1122,116.4961 301.1122,116.4961 299.8622,115.2461"/>
    <line x1="321.2598" x2="359.0551" y1="130.3937" y2="130.3937"/>
    <polyline points="335.7825,103.9961 340.7825,117.1211 340.7825,117.1211 345.7825,103.9961"/>
    <polyline points="384.5153,103.9961 376.3903,103.9961 376.3903,103.9961 376.3903,117.1211 376.3903,117.1211 384.5153,117.1211"/>
    <line x1="376.3903" x2="381.3903" y1="110.2461" y2="110.2461"/>
    <polyline points="413.873,110.2461 419.498,110.2461 419.498,110.2461 421.373,109.6211 421.373,109.6211 421.998,108.9961 421.998,108.9961 422.623,107.7461 422.623,107.7461 422.623,106.4961 422.623,106.4961 421.998,105.2461 421.998,105.2461 421.373,104.6211 421.373,104.6211 419.498,103.9961 419.498,103.9961 413.873,103.9961 413.873,103.9961 413.873,117.1211"/>
    <line x1="418.248" x2="422.623" y1="110.2461" y2="117.1211"/>
    <line x1="472.4409" x2="472.4409" y1="130.3937" y2="92.5984"/>
    <polyline points="459.7933,105.8711 458.5433,104.6211 458.5433,104.6211 456.6683,103.9961 456.6683,103.9961 454.1683,103.9961 454.1683,103.9961 452.2933,104.6211 452.2933,104.6211 451.0433,105.8711 451.0433,105.8711 451.0433,107.1211 451.0433,107.1211 451.6683,108.3711 451.6683,108.3711 452.2933,108.9961 452.2933,108.9961 453.5433,109.6211 453.5433,109.6211 457.2933,110.8711 457.2933,110.8711 458.5433,111.4961 458.5433,111.4961 459.1683,112.1211 459.1683,112.1211 459.7933,113.3711 459.7933,113.3711 459.7933,115.2461 459.7933,115.2461 458.5433,116.4961 458.5433,116.4961 456.6683,117.1211 456.6683,117.1211 454.1683,117.1211 454.1683,117.1211 452.2933,116.4961 452.2933,116.4961 451.0433,115.2461"/>
    <line x1="510.2362" x2="510.2362" y1="130.3937" y2="92.5984"/>
    <line x1="491.9636" x2="491.9636" y1="103.9961" y2="117.1211"/>
    <line x1="487.5886" x2="496.3386" y1="103.9961" y2="103.9961"/>
    <line x1="548.0315" x2="548.0315" y1="130.3937" y2="92.5984"/>
    <polyline points="534.7589,117.1211 529.7589,103.9961 529.7589,103.9961 524.7589,117.1211"/>
    <line x1="526.6339" x2="532.8839" y1="112.7461" y2="112.7461"/>
    <polyline points="573.8041,103.9961 573.8041,117.1211 573.8041,117.1211 565.0541,103.9961 565.0541,103.9961 565.0541,117.1211"/>
    <polyline points="585.8268,130.3937 623.622,130.3937 623.622,130.3937 623.622,92.5984 623.622,92.5984 585.8268,92.5984"/>
    <polygon points="602.8494,103.9961 602.8494,117.1211 602.8494,117.1211 607.2244,117.1211 607.2244,117.1211 609.0994,116.4961 609.0994,116.4961 610.3494,115.2461 610.3494,115.2461 610.9744,113.9961 610.9744,113.9961 611.5994,112.1211 611.5994,112.1211 611.5994,108.9961 611.5994,108.9961 610.9744,107.1211 610.9744,107.1211 610.3494,105.8711 610.3494,105.8711 609.0994,104.6211 609.0994,104.6211 607.2244,103.9961 607.2244,103.9961"/>
    <polyline points="661.4173,92.5984 661.4173,130.3937 661.4173,130.3937 699.2126,130.3937 699.2126,130.3937 699.2126,92.5984"/>
    <line x1="678.44" x2="678.44" y1="103.9961" y2="117.1211"/>
    <line x1="687.19" x2="678.44" y1="103.9961" y2="112.7461"/>
    <line x1="681.565" x2="687.19" y1="109.6211" y2="117.1211"/>
    <line x1="737.0079" x2="774.8031" y1="130.3937" y2="130.3937"/>
    <polygon points="756.5305,103.9961 755.2805,104.6211 755.2805,104.6211 754.0305,105.8711 754.0305,105.8711 753.4055,107.1211 753.4055,107.1211 752.7805,108.9961 752.7805,108.9961 752.7805,112.1211 752.7805,112.1211 753.4055,113.9961 753.4055,113.9961 754.0305,115.2461 754.0305,115.2461 755.2805,116.4961 755.2805,116.4961 756.5305,117.1211 756.5305,117.1211 759.0305,117.1211 759.0305,117.1211 760.2805,116.4961 760.2805,116.4961 761.5305,115.2461 761.5305,115.2461 762.1555,113.9961 762.1555,113.9961 762.7805,112.1211 762.7805,112.1211 762.7805,108.9961 762.7805,108.9961 762.1555,107.1211 762.1555,107.1211 761.5305,105.8711 761.5305,105.8711 760.2805,104.6211 760.2805,104.6211 759.0305,103.9961 759.0305,103.9961"/>
    <polyline points="170.0787,205.9843 132.2835,205.9843 132.2835,205.9843 132.2835,243.7795 132.2835,243.7795 94.4882,243.7795 94.4882,243.7795 94.4882,205.9843 94.4882,205.9843 94.4882,168.189 94.4882,168.189 132.2835,168.189 132.2835,168.189 170.0787,168.189 170.0787,168.189 170.0787,205.9843 170.0787,205.9843 207.874,205.9843 207.874,205.9843 207.874,168.189 207.874,168.189 170.0787,168.189"/>
    <polyline points="112.1358,141.7913 112.1358,154.9163 112.1358,154.9163 119.6358,154.9163"/>
    <polyline points="472.4409,168.189 472.4409,205.9843 472.4409,205.9843 434.6457,205.9843 434.6457,205.9843 396.8504,205.9843 396.8504,205.9843 396.8504,168.189 396.8504,168.189 434.6457,168.189 434.6457,168.189 472.4409,168.189 472.4409,168.189 510.2362,168.189 510.2362,168.189 510.2362,205.9843 510.2362,205.9843 548.0315,205.9843 548.0315,205.9843 548.0315,168.189 548.0315,168.189 510.2362,168.189"/>
    <line x1="413.873" x2="413.873" y1="141.7913" y2="154.9163"/>
    <line x1="422.623" x2="413.873" y1="141.7913" y2="150.5413"/>
    <line x1="416.998" x2="422.623" y1="147.4163" y2="154.9163"/>
    <polyline points="661.4173,130.3937 661.4173,168.189 661.4173,168.189 623.622,168.189 623.622,168.189 585.8268,168.189 585.8268,168.189 548.0315,168.189"/>
    <polyline points="774.8031,168.189 774.8031,205.9843 774.8031,205.9843 737.0079,205.9843 737.0079,205.9843 737.0079,168.189 737.0079,168.189 699.2126,168.189 699.2126,168.189 699.2126,205.9843 699.2126,205.9843 699.2126,243.7795 699.2126,243.7795 661.4173,243.7795 661.4173,243.7795 661.4173,205.9843 661.4173,205.9843 661.4173,168.189 661.4173,168.189 699.2126,168.189 699.2126,168.189 699.2126,130.3937"/>
    <polyline points="686.8775,141.7913 678.7525,141.7913 678.7525,141.7913 678.7525,154.9163 678.7525,154.9163 686.8775,154.9163"/>
    <line x1="678.7525" x2="683.7525" y1="148.0413" y2="148.0413"/>
    <polyline points="762.468,141.7913 754.343,141.7913 754.343,141.7913 754.343,154.9163 754.343,154.9163 762.468,154.9163"/>
    <line x1="754.343" x2="759.343" y1="148.0413" y2="148.0413"/>
    <line x1="56.6929" x2="56.6929" y1="205.9843" y2="168.189"/>
    <polygon points="23.2874,170.1083 22.3499,170.4208 22.3499,170.4208 22.0374,171.0458 22.0374,171.0458 22.0374,171.6708 22.0374,171.6708 22.3499,172.2958 22.3499,172.2958 22.9749,172.6083 22.9749,172.6083 24.2249,172.9208 24.2249,172.9208 25.1624,173.2333 25.1624,173.2333 25.7874,173.8583 25.7874,173.8583 26.0999,174.4833 26.0999,174.4833 26.0999,175.4208 26.0999,175.4208 25.7874,176.0458 25.7874,176.0458 25.4749,176.3583 25.4749,176.3583 24.5374,176.6708 24.5374,176.6708 23.2874,176.6708 23.2874,176.6708 22.3499,176.3583 22.3499,176.3583 22.0374,176.0458 22.0374,176.0458 21.7249,175.4208 21.7249,175.4208 21.7249,174.4833 21.7249,174.4833 22.0374,173.8583 22.0374,173.8583 22.6624,173.2333 22.6624,173.2333 23.5999,172.9208 23.5999,172.9208 24.8499,172.6083 24.8499,172.6083 25.4749,172.2958 25.4749,172.2958 25.7874,171.6708 25.7874,171.6708 25.7874,171.0458 25.7874,171.0458 25.4749,170.4208 25.4749,170.4208 24.5374,170.1083 24.5374,170.1083"/>
    <polyline points="33.4203,179.5866 38.4203,192.7116 38.4203,192.7116 43.4203,179.5866"/>
    <polyline points="73.7156,185.8366 79.3406,185.8366 79.3406,185.8366 81.2156,185.2116 81.2156,185.2116 81.8406,184.5866 81.8406,184.5866 82.4656,183.3366 82.4656,183.3366 82.4656,182.0866 82.4656,182.0866 81.8406,180.8366 81.8406,180.8366 81.2156,180.2116 81.2156,180.2116 79.3406,179.5866 79.3406,179.5866 73.7156,179.5866 73.7156,179.5866 73.7156,192.7116"/>
    <line x1="78.0906" x2="82.4656" y1="185.8366" y2="192.7116"/>
    <line x1="115.8858" x2="115.8858" y1="179.5866" y2="192.7116"/>
    <polyline points="155.5561,179.5866 155.5561,189.5866 155.5561,189.5866 154.9311,191.4616 154.9311,191.4616 154.3061,192.0866 154.3061,192.0866 153.0561,192.7116 153.0561,192.7116 151.8061,192.7116 151.8061,192.7116 150.5561,192.0866 150.5561,192.0866 149.9311,191.4616 149.9311,191.4616 149.3061,189.5866 149.3061,189.5866 149.3061,188.3366"/>
    <polygon points="187.1014,179.5866 187.1014,192.7116 187.1014,192.7116 191.4764,192.7116 191.4764,192.7116 193.3514,192.0866 193.3514,192.0866 194.6014,190.8366 194.6014,190.8366 195.2264,189.5866 195.2264,189.5866 195.8514,187.7116 195.8514,187.7116 195.8514,184.5866 195.8514,184.5866 195.2264,182.7116 195.2264,182.7116 194.6014,181.4616 194.6014,181.4616 193.3514,180.2116 193.3514,180.2116 191.4764,179.5866 191.4764,179.5866"/>
    <polyline points="207.874,205.9843 245.6693,205.9843 245.6693,205.9843 245.6693,168.189 245.6693,168.189 207.874,168.189"/>
    <polyline points="232.3967,192.7116 227.3967,179.5866 227.3967,179.5866 222.3967,192.7116"/>
    <line x1="224.2717" x2="230.5217" y1="188.3366" y2="188.3366"/>
    <polyline points="245.6693,205.9843 283.4646,205.9843 283.4646,205.9843 283.4646,168.189 283.4646,168.189 245.6693,168.189"/>
    <polyline points="271.1294,182.7116 270.5044,181.4616 270.5044,181.4616 269.2544,180.2116 269.2544,180.2116 268.0044,179.5866 268.0044,179.5866 265.5044,179.5866 265.5044,179.5866 264.2544,180.2116 264.2544,180.2116 263.0044,181.4616 263.0044,181.4616 262.3794,182.7116 262.3794,182.7116 261.7544,184.5866 261.7544,184.5866 261.7544,187.7116 261.7544,187.7116 262.3794,189.5866 262.3794,189.5866 263.0044,190.8366 263.0044,190.8366 264.2544,192.0866 264.2544,192.0866 265.5044,192.7116 265.5044,192.7116 268.0044,192.7116 268.0044,192.7116 269.2544,192.0866 269.2544,192.0866 270.5044,190.8366 270.5044,190.8366 271.1294,189.5866 271.1294,189.5866 271.1294,187.7116 271.1294,187.7116 268.0044,187.7116"/>
    <line x1="359.0551" x2="359.0551" y1="205.9843" y2="168.189"/>
    <polyline points="328.1496,172.2958 327.8371,173.2333 327.8371,173.2333 327.2121,173.8583 327.2121,173.8583 326.2746,174.1708 326.2746,174.1708 325.9621,174.1708 325.9621,174.1708 325.0246,173.8583 325.0246,173.8583 324.3996,173.2333 324.3996,173.2333 324.0871,172.2958 324.0871,172.2958 324.0871,171.9833 324.0871,171.9833 324.3996,171.0458 324.3996,171.0458 325.0246,170.4208 325.0246,170.4208 325.9621,170.1083 325.9621,170.1083 326.2746,170.1083 326.2746,170.1083 327.2121,170.4208 327.2121,170.4208 327.8371,171.0458 327.8371,171.0458 328.1496,172.2958 328.1496,172.2958 328.1496,173.8583 328.1496,173.8583 327.8371,175.4208 327.8371,175.4208 327.2121,176.3583 327.2121,176.3583 326.2746,176.6708 326.2746,176.6708 325.6496,176.6708 325.6496,176.6708 324.7121,176.3583 324.7121,176.3583 324.3996,175.7333"/>
    <polyline points="346.72,179.5866 338.595,179.5866 338.595,179.5866 338.595,192.7116"/>
    <line x1="338.595" x2="343.595" y1="185.8366" y2="185.8366"/>
    <polyline points="376.7028,179.5866 376.7028,192.7116 376.7028,192.7116 384.2028,192.7116"/>
    <polyline points="422.3105,179.5866 414.1855,179.5866 414.1855,179.5866 414.1855,192.7116 414.1855,192.7116 422.3105,192.7116"/>
    <line x1="414.1855" x2="419.1855" y1="185.8366" y2="185.8366"/>
    <polyline points="459.7933,181.4616 458.5433,180.2116 458.5433,180.2116 456.6683,179.5866 456.6683,179.5866 454.1683,179.5866 454.1683,179.5866 452.2933,180.2116 452.2933,180.2116 451.0433,181.4616 451.0433,181.4616 451.0433,182.7116 451.0433,182.7116 451.6683,183.9616 451.6683,183.9616 452.2933,184.5866 452.2933,184.5866 453.5433,185.2116 453.5433,185.2116 457.2933,186.4616 457.2933,186.4616 458.5433,187.0866 458.5433,187.0866 459.1683,187.7116 459.1683,187.7116 459.7933,188.9616 459.7933,188.9616 459.7933,190.8366 459.7933,190.8366 458.5433,192.0866 458.5433,192.0866 456.6683,192.7116 456.6683,192.7116 454.1683,192.7116 454.1683,192.7116 452.2933,192.0866 452.2933,192.0866 451.0433,190.8366"/>
    <line x1="472.4409" x2="510.2362" y1="205.9843" y2="205.9843"/>
    <polyline points="497.5886,181.4616 496.3386,180.2116 496.3386,180.2116 494.4636,179.5866 494.4636,179.5866 491.9636,179.5866 491.9636,179.5866 490.0886,180.2116 490.0886,180.2116 488.8386,181.4616 488.8386,181.4616 488.8386,182.7116 488.8386,182.7116 489.4636,183.9616 489.4636,183.9616 490.0886,184.5866 490.0886,184.5866 491.3386,185.2116 491.3386,185.2116 495.0886,186.4616 495.0886,186.4616 496.3386,187.0866 496.3386,187.0866 496.9636,187.7116 496.9636,187.7116 497.5886,188.9616 497.5886,188.9616 497.5886,190.8366 497.5886,190.8366 496.3386,192.0866 496.3386,192.0866 494.4636,192.7116 494.4636,192.7116 491.9636,192.7116 491.9636,192.7116 490.0886,192.0866 490.0886,192.0866 488.8386,190.8366"/>
    <polyline points="535.6964,179.5866 527.5714,179.5866 527.5714,179.5866 527.5714,192.7116 527.5714,192.7116 535.6964,192.7116"/>
    <line x1="527.5714" x2="532.5714" y1="185.8366" y2="185.8366"/>
    <polyline points="548.0315,205.9843 585.8268,205.9843 585.8268,205.9843 585.8268,168.189"/>
    <polyline points="573.8041,179.5866 573.8041,192.7116 573.8041,192.7116 565.0541,179.5866 565.0541,179.5866 565.0541,192.7116"/>
    <polyline points="585.8268,205.9843 623.622,205.9843 623.622,205.9843 623.622,168.189"/>
    <polyline points="611.2869,182.7116 610.6619,181.4616 610.6619,181.4616 609.4119,180.2116 609.4119,180.2116 608.1619,179.5866 608.1619,179.5866 605.6619,179.5866 605.6619,179.5866 604.4119,180.2116 604.4119,180.2116 603.1619,181.4616 603.1619,181.4616 602.5369,182.7116 602.5369,182.7116 601.9119,184.5866 601.9119,184.5866 601.9119,187.7116 601.9119,187.7116 602.5369,189.5866 602.5369,189.5866 603.1619,190.8366 603.1619,190.8366 604.4119,192.0866 604.4119,192.0866 605.6619,192.7116 605.6619,192.7116 608.1619,192.7116 608.1619,192.7116 609.4119,192.0866 609.4119,192.0866 610.6619,190.8366 610.6619,190.8366 611.2869,189.5866 611.2869,189.5866 611.2869,187.7116 611.2869,187.7116 608.1619,187.7116"/>
    <polyline points="623.622,205.9843 661.4173,205.9843 661.4173,205.9843 699.2126,205.9843 699.2126,205.9843 737.0079,205.9843 737.0079,205.9843 737.0079,243.7795 737.0079,243.7795 774.8031,243.7795 774.8031,243.7795 774.8031,205.9843"/>
    <polyline points="649.0822,179.5866 640.9572,179.5866 640.9572,179.5866 640.9572,192.7116 640.9572,192.7116 649.0822,192.7116"/>
    <line x1="640.9572" x2="645.9572" y1="185.8366" y2="185.8366"/>
    <polyline points="679.065,179.5866 679.065,192.7116 679.065,192.7116 686.565,192.7116"/>
    <polyline points="716.2352,179.5866 716.2352,188.9616 716.2352,188.9616 716.8602,190.8366 716.8602,190.8366 718.1102,192.0866 718.1102,192.0866 719.9852,192.7116 719.9852,192.7116 721.2352,192.7116 721.2352,192.7116 723.1102,192.0866 723.1102,192.0866 724.3602,190.8366 724.3602,190.8366 724.9852,188.9616 724.9852,188.9616 724.9852,179.5866"/>
    <line x1="754.0305" x2="754.0305" y1="179.5866" y2="192.7116"/>
    <line x1="762.7805" x2="754.0305" y1="179.5866" y2="188.3366"/>
    <line x1="757.1555" x2="762.7805" y1="185.2116" y2="192.7116"/>
    <line x1="111.5108" x2="111.5108" y1="217.3819" y2="230.5069"/>
    <line x1="120.2608" x2="111.5108" y1="217.3819" y2="226.1319"/>
    <line x1="114.6358" x2="120.2608" y1="223.0069" y2="230.5069"/>
    <polyline points="413.873,223.6319 419.498,223.6319 419.498,223.6319 421.373,223.0069 421.373,223.0069 421.998,222.3819 421.998,222.3819 422.623,221.1319 422.623,221.1319 422.623,219.8819 422.623,219.8819 421.998,218.6319 421.998,218.6319 421.373,218.0069 421.373,218.0069 419.498,217.3819 419.498,217.3819 413.873,217.3819 413.873,217.3819 413.873,230.5069"/>
    <line x1="418.248" x2="422.623" y1="223.6319" y2="230.5069"/>
    <polyline points="679.065,217.3819 679.065,230.5069 679.065,230.5069 686.565,230.5069"/>
    <polyline points="753.4055,217.3819 762.1555,217.3819 762.1555,217.3819 753.4055,230.5069 753.4055,230.5069 762.1555,230.5069"/>
    <polyline points="94.4882,243.7795 94.4882,281.5748 94.4882,281.5748 132.2835,281.5748 132.2835,281.5748 170.0787,281.5748 170.0787,281.5748 170.0787,243.7795 170.0787,243.7795 132.2835,243.7795 132.2835,243.7795 132.2835,281.5748 132.2835,281.5748 132.2835,319.3701 132.2835,319.3701 94.4882,319.3701 94.4882,319.3701 56.6929,319.3701 56.6929,319.3701 18.8976,319.3701 18.8976,319.3701 18.8976,357.1654 18.8976,357.1654 56.6929,357.1654 56.6929,357.1654 56.6929,319.3701"/>
    <polyline points="98.253,246.9488 98.878,246.6363 98.878,246.6363 99.8155,245.6988 99.8155,245.6988 99.8155,252.2613"/>
    <polygon points="105.4405,245.6988 104.503,246.0113 104.503,246.0113 103.878,246.9488 103.878,246.9488 103.5655,248.5113 103.5655,248.5113 103.5655,249.4488 103.5655,249.4488 103.878,251.0113 103.878,251.0113 104.503,251.9488 104.503,251.9488 105.4405,252.2613 105.4405,252.2613 106.0655,252.2613 106.0655,252.2613 107.003,251.9488 107.003,251.9488 107.628,251.0113 107.628,251.0113 107.9405,249.4488 107.9405,249.4488 107.9405,248.5113 107.9405,248.5113 107.628,246.9488 107.628,246.9488 107.003,246.0113 107.003,246.0113 106.0655,245.6988 106.0655,245.6988"/>
    <line x1="111.5108" x2="111.5108" y1="255.1772" y2="268.3022"/>
    <line x1="120.2608" x2="111.5108" y1="255.1772" y2="263.9272"/>
    <line x1="114.6358" x2="120.2608" y1="260.8022" y2="268.3022"/>
    <polyline points="149.9311,255.1772 149.9311,268.3022 149.9311,268.3022 157.4311,268.3022"/>
    <polyline points="170.0787,281.5748 207.874,281.5748 207.874,281.5748 245.6693,281.5748 245.6693,281.5748 245.6693,243.7795 245.6693,243.7795 207.874,243.7795 207.874,243.7795 170.0787,243.7795"/>
    <line x1="207.874" x2="207.874" y1="281.5748" y2="243.7795"/>
    <polyline points="194.6014,268.3022 189.6014,255.1772 189.6014,255.1772 184.6014,268.3022"/>
    <line x1="186.4764" x2="192.7264" y1="263.9272" y2="263.9272"/>
    <polyline points="222.3967,255.1772 227.3967,268.3022 227.3967,268.3022 232.3967,255.1772"/>
    <polyline points="245.6693,281.5748 283.4646,281.5748 283.4646,281.5748 283.4646,243.7795 283.4646,243.7795 245.6693,243.7795"/>
    <polyline points="271.1294,255.1772 263.0044,255.1772 263.0044,255.1772 263.0044,268.3022 263.0044,268.3022 271.1294,268.3022"/>
    <line x1="263.0044" x2="268.0044" y1="261.4272" y2="261.4272"/>
    <polyline points="283.4646,281.5748 321.2598,281.5748 321.2598,281.5748 321.2598,243.7795 321.2598,243.7795 283.4646,243.7795"/>
    <polyline points="300.4872,261.4272 306.1122,261.4272 306.1122,261.4272 307.9872,260.8022 307.9872,260.8022 308.6122,260.1772 308.6122,260.1772 309.2372,258.9272 309.2372,258.9272 309.2372,257.6772 309.2372,257.6772 308.6122,256.4272 308.6122,256.4272 307.9872,255.8022 307.9872,255.8022 306.1122,255.1772 306.1122,255.1772 300.4872,255.1772 300.4872,255.1772 300.4872,268.3022"/>
    <line x1="304.8622" x2="309.2372" y1="261.4272" y2="268.3022"/>
    <polyline points="321.2598,281.5748 359.0551,281.5748 359.0551,281.5748 396.8504,281.5748 396.8504,281.5748 396.8504,319.3701 396.8504,319.3701 434.6457,319.3701 434.6457,319.3701 434.6457,281.5748 434.6457,281.5748 434.6457,243.7795"/>
    <polyline points="359.0551,281.5748 359.0551,243.7795 359.0551,243.7795 321.2598,243.7795"/>
    <line x1="340.7825" x2="340.7825" y1="255.1772" y2="268.3022"/>
    <line x1="336.4075" x2="345.1575" y1="255.1772" y2="255.1772"/>
    <polyline points="434.6457,281.5748 396.8504,281.5748 396.8504,281.5748 396.8504,243.7795 396.8504,243.7795 359.0551,243.7795"/>
    <polyline points="382.3278,255.1772 382.3278,265.1772 382.3278,265.1772 381.7028,267.0522 381.7028,267.0522 381.0778,267.6772 381.0778,267.6772 379.8278,268.3022 379.8278,268.3022 378.5778,268.3022 378.5778,268.3022 377.3278,267.6772 377.3278,267.6772 376.7028,267.0522 376.7028,267.0522 376.0778,265.1772 376.0778,265.1772 376.0778,263.9272"/>
    <polyline points="422.3105,255.1772 414.1855,255.1772 414.1855,255.1772 414.1855,268.3022 414.1855,268.3022 422.3105,268.3022"/>
    <line x1="414.1855" x2="419.1855" y1="261.4272" y2="261.4272"/>
    <polygon points="472.4409,243.7795 472.4409,281.5748 472.4409,281.5748 510.2362,281.5748 510.2362,281.5748 548.0315,281.5748 548.0315,281.5748 548.0315,243.7795 548.0315,243.7795 510.2362,243.7795 510.2362,243.7795"/>
    <line x1="510.2362" x2="510.2362" y1="281.5748" y2="243.7795"/>
    <polyline points="476.2057,246.9488 476.8307,246.6363 476.8307,246.6363 477.7682,245.6988 477.7682,245.6988 477.7682,252.2613"/>
    <polyline points="482.4557,246.9488 483.0807,246.6363 483.0807,246.6363 484.0182,245.6988 484.0182,245.6988 484.0182,252.2613"/>
    <polyline points="497.9011,258.3022 497.2761,257.0522 497.2761,257.0522 496.0261,255.8022 496.0261,255.8022 494.7761,255.1772 494.7761,255.1772 492.2761,255.1772 492.2761,255.1772 491.0261,255.8022 491.0261,255.8022 489.7761,257.0522 489.7761,257.0522 489.1511,258.3022 489.1511,258.3022 488.5261,260.1772 488.5261,260.1772 488.5261,263.3022 488.5261,263.3022 489.1511,265.1772 489.1511,265.1772 489.7761,266.4272 489.7761,266.4272 491.0261,267.6772 491.0261,267.6772 492.2761,268.3022 492.2761,268.3022 494.7761,268.3022 494.7761,268.3022 496.0261,267.6772 496.0261,267.6772 497.2761,266.4272 497.2761,266.4272 497.9011,265.1772"/>
    <polyline points="535.6964,255.1772 527.5714,255.1772 527.5714,255.1772 527.5714,268.3022 527.5714,268.3022 535.6964,268.3022"/>
    <line x1="527.5714" x2="532.5714" y1="261.4272" y2="261.4272"/>
    <polyline points="548.0315,281.5748 585.8268,281.5748 585.8268,281.5748 585.8268,243.7795 585.8268,243.7795 548.0315,243.7795"/>
    <polyline points="573.8041,255.1772 573.8041,268.3022 573.8041,268.3022 565.0541,255.1772 565.0541,255.1772 565.0541,268.3022"/>
    <polyline points="585.8268,281.5748 623.622,281.5748 623.622,281.5748 661.4173,281.5748 661.4173,281.5748 699.2126,281.5748 699.2126,281.5748 699.2126,243.7795"/>
    <polyline points="623.622,281.5748 623.622,243.7795 623.622,243.7795 585.8268,243.7795"/>
    <line x1="605.3494" x2="605.3494" y1="255.1772" y2="268.3022"/>
    <line x1="600.9744" x2="609.7244" y1="255.1772" y2="255.1772"/>
    <polyline points="472.4409,319.3701 472.4409,357.1654 472.4409,357.1654 434.6457,357.1654 434.6457,357.1654 434.6457,319.3701 434.6457,319.3701 472.4409,319.3701 472.4409,319.3701 510.2362,319.3701 510.2362,319.3701 548.0315,319.3701 548.0315,319.3701 585.8268,319.3701 585.8268,319.3701 623.622,319.3701 623.622,319.3701 661.4173,319.3701 661.4173,319.3701 661.4173,281.5748 661.4173,281.5748 661.4173,243.7795 661.4173,243.7795 623.622,243.7795"/>
    <polyline points="646.8947,255.1772 646.8947,265.1772 646.8947,265.1772 646.2697,267.0522 646.2697,267.0522 645.6447,267.6772 645.6447,267.6772 644.3947,268.3022 644.3947,268.3022 643.1447,268.3022 643.1447,268.3022 641.8947,267.6772 641.8947,267.6772 641.2697,267.0522 641.2697,267.0522 640.6447,265.1772 640.6447,265.1772 640.6447,263.9272"/>
    <polyline points="686.8775,255.1772 678.7525,255.1772 678.7525,255.1772 678.7525,268.3022 678.7525,268.3022 686.8775,268.3022"/>
    <line x1="678.7525" x2="683.7525" y1="261.4272" y2="261.4272"/>
    <polyline points="737.0079,243.7795 737.0079,281.5748 737.0079,281.5748 774.8031,281.5748 774.8031,281.5748 774.8031,243.7795"/>
    <polyline points="761.5305,268.3022 756.5305,255.1772 756.5305,255.1772 751.5305,268.3022"/>
    <line x1="753.4055" x2="759.6555" y1="263.9272" y2="263.9272"/>
    <polyline points="94.4882,281.5748 94.4882,319.3701 94.4882,319.3701 94.4882,357.1654 94.4882,357.1654 132.2835,357.1654 132.2835,357.1654 132.2835,319.3701 132.2835,319.3701 170.0787,319.3701 170.0787,319.3701 170.0787,357.1654 170.0787,357.1654 207.874,357.1654 207.874,357.1654 207.874,319.3701 207.874,319.3701 170.0787,319.3701"/>
    <polyline points="119.9483,292.9724 111.8233,292.9724 111.8233,292.9724 111.8233,306.0974 111.8233,306.0974 119.9483,306.0974"/>
    <line x1="111.8233" x2="116.8233" y1="299.2224" y2="299.2224"/>
    <polyline points="422.623,292.9724 422.623,306.0974 422.623,306.0974 413.873,292.9724 413.873,292.9724 413.873,306.0974"/>
    <polyline points="774.8031,281.5748 774.8031,319.3701 774.8031,319.3701 737.0079,319.3701 737.0079,319.3701 699.2126,319.3701 699.2126,319.3701 699.2126,357.1654 699.2126,357.1654 661.4173,357.1654 661.4173,357.1654 661.4173,319.3701 661.4173,319.3701 699.2126,319.3701 699.2126,319.3701 699.2126,281.5748"/>
    <line x1="678.44" x2="678.44" y1="292.9724" y2="306.0974"/>
    <line x1="687.19" x2="678.44" y1="292.9724" y2="301.7224"/>
    <line x1="681.565" x2="687.19" y1="298.5974" y2="306.0974"/>
    <polyline points="737.0079,281.5748 737.0079,319.3701 737.0079,319.3701 737.0079,357.1654 737.0079,357.1654 699.2126,357.1654"/>
    <line x1="754.0305" x2="754.0305" y1="292.9724" y2="306.0974"/>
    <line x1="762.7805" x2="754.0305" y1="292.9724" y2="301.7224"/>
    <line x1="757.1555" x2="762.7805" y1="298.5974" y2="306.0974"/>
    <polyline points="22.6624,322.5394 23.2874,322.2269 23.2874,322.2269 24.2249,321.2894 24.2249,321.2894 24.2249,327.8519"/>
    <polyline points="28.2874,322.8519 28.2874,322.5394 28.2874,322.5394 28.5999,321.9144 28.5999,321.9144 28.9124,321.6019 28.9124,321.6019 29.5374,321.2894 29.5374,321.2894 30.7874,321.2894 30.7874,321.2894 31.4124,321.6019 31.4124,321.6019 31.7249,321.9144 31.7249,321.9144 32.0374,322.5394 32.0374,322.5394 32.0374,323.1644 32.0374,323.1644 31.7249,323.7894 31.7249,323.7894 31.0999,324.7269 31.0999,324.7269 27.9749,327.8519 27.9749,327.8519 32.3499,327.8519"/>
    <line x1="35.9203" x2="35.9203" y1="330.7677" y2="343.8927"/>
    <line x1="44.6703" x2="44.6703" y1="330.7677" y2="343.8927"/>
    <line x1="35.9203" x2="44.6703" y1="337.0177" y2="337.0177"/>
    <line x1="56.6929" x2="94.4882" y1="357.1654" y2="357.1654"/>
    <polyline points="81.2156,343.8927 76.2156,330.7677 76.2156,330.7677 71.2156,343.8927"/>
    <line x1="73.0906" x2="79.3406" y1="339.5177" y2="339.5177"/>
    <polyline points="120.2608,330.7677 120.2608,343.8927 120.2608,343.8927 111.5108,330.7677 111.5108,330.7677 111.5108,343.8927"/>
    <line x1="132.2835" x2="170.0787" y1="357.1654" y2="357.1654"/>
    <polygon points="149.3061,330.7677 149.3061,343.8927 149.3061,343.8927 153.6811,343.8927 153.6811,343.8927 155.5561,343.2677 155.5561,343.2677 156.8061,342.0177 156.8061,342.0177 157.4311,340.7677 157.4311,340.7677 158.0561,338.8927 158.0561,338.8927 158.0561,335.7677 158.0561,335.7677 157.4311,333.8927 157.4311,333.8927 156.8061,332.6427 156.8061,332.6427 155.5561,331.3927 155.5561,331.3927 153.6811,330.7677 153.6811,330.7677"/>
    <polygon points="187.1014,330.7677 187.1014,343.8927 187.1014,343.8927 191.4764,343.8927 191.4764,343.8927 193.3514,343.2677 193.3514,343.2677 194.6014,342.0177 194.6014,342.0177 195.2264,340.7677 195.2264,340.7677 195.8514,338.8927 195.8514,338.8927 195.8514,335.7677 195.8514,335.7677 195.2264,333.8927 195.2264,333.8927 194.6014,332.6427 194.6014,332.6427 193.3514,331.3927 193.3514,331.3927 191.4764,330.7677 191.4764,330.7677"/>
    <polyline points="207.874,357.1654 245.6693,357.1654 245.6693,357.1654 245.6693,319.3701 245.6693,319.3701 207.874,319.3701"/>
    <polygon points="227.3967,330.7677 226.1467,331.3927 226.1467,331.3927 224.8967,332.6427 224.8967,332.6427 224.2717,333.8927 224.2717,333.8927 223.6467,335.7677 223.6467,335.7677 223.6467,338.8927 223.6467,338.8927 224.2717,340.7677 224.2717,340.7677 224.8967,342.0177 224.8967,342.0177 226.1467,343.2677 226.1467,343.2677 227.3967,343.8927 227.3967,343.8927 229.8967,343.8927 229.8967,343.8927 231.1467,343.2677 231.1467,343.2677 232.3967,342.0177 232.3967,342.0177 233.0217,340.7677 233.0217,340.7677 233.6467,338.8927 233.6467,338.8927 233.6467,335.7677 233.6467,335.7677 233.0217,333.8927 233.0217,333.8927 232.3967,332.6427 232.3967,332.6427 231.1467,331.3927 231.1467,331.3927 229.8967,330.7677 229.8967,330.7677"/>
    <polyline points="245.6693,357.1654 283.4646,357.1654 283.4646,357.1654 283.4646,319.3701 283.4646,319.3701 245.6693,319.3701"/>
    <polyline points="271.1294,330.7677 263.0044,330.7677 263.0044,330.7677 263.0044,343.8927 263.0044,343.8927 271.1294,343.8927"/>
    <line x1="263.0044" x2="268.0044" y1="337.0177" y2="337.0177"/>
    <polyline points="283.4646,357.1654 321.2598,357.1654 321.2598,357.1654 321.2598,319.3701 321.2598,319.3701 283.4646,319.3701"/>
    <line x1="300.4872" x2="300.4872" y1="330.7677" y2="343.8927"/>
    <line x1="309.2372" x2="300.4872" y1="330.7677" y2="339.5177"/>
    <line x1="303.6122" x2="309.2372" y1="336.3927" y2="343.8927"/>
    <polyline points="438.4104,322.5394 439.0354,322.2269 439.0354,322.2269 439.9729,321.2894 439.9729,321.2894 439.9729,327.8519"/>
    <polyline points="444.3479,321.2894 447.7854,321.2894 447.7854,321.2894 445.9104,323.7894 445.9104,323.7894 446.8479,323.7894 446.8479,323.7894 447.4729,324.1019 447.4729,324.1019 447.7854,324.4144 447.7854,324.4144 448.0979,325.3519 448.0979,325.3519 448.0979,325.9769 448.0979,325.9769 447.7854,326.9144 447.7854,326.9144 447.1604,327.5394 447.1604,327.5394 446.2229,327.8519 446.2229,327.8519 445.2854,327.8519 445.2854,327.8519 444.3479,327.5394 444.3479,327.5394 444.0354,327.2269 444.0354,327.2269 443.7229,326.6019"/>
    <polyline points="451.6683,337.6427 457.2933,337.6427 457.2933,337.6427 459.1683,337.0177 459.1683,337.0177 459.7933,336.3927 459.7933,336.3927 460.4183,335.1427 460.4183,335.1427 460.4183,333.2677 460.4183,333.2677 459.7933,332.0177 459.7933,332.0177 459.1683,331.3927 459.1683,331.3927 457.2933,330.7677 457.2933,330.7677 451.6683,330.7677 451.6683,330.7677 451.6683,343.8927"/>
    <polyline points="472.4409,357.1654 510.2362,357.1654 510.2362,357.1654 548.0315,357.1654 548.0315,357.1654 548.0315,319.3701"/>
    <line x1="510.2362" x2="510.2362" y1="357.1654" y2="319.3701"/>
    <polyline points="496.9636,343.8927 491.9636,330.7677 491.9636,330.7677 486.9636,343.8927"/>
    <line x1="488.8386" x2="495.0886" y1="339.5177" y2="339.5177"/>
    <polyline points="527.2589,337.0177 532.8839,337.0177 532.8839,337.0177 534.7589,336.3927 534.7589,336.3927 535.3839,335.7677 535.3839,335.7677 536.0089,334.5177 536.0089,334.5177 536.0089,333.2677 536.0089,333.2677 535.3839,332.0177 535.3839,332.0177 534.7589,331.3927 534.7589,331.3927 532.8839,330.7677 532.8839,330.7677 527.2589,330.7677 527.2589,330.7677 527.2589,343.8927"/>
    <line x1="531.6339" x2="536.0089" y1="337.0177" y2="343.8927"/>
    <polyline points="548.0315,357.1654 585.8268,357.1654 585.8268,357.1654 585.8268,319.3701"/>
    <line x1="565.0541" x2="565.0541" y1="330.7677" y2="343.8927"/>
    <line x1="573.8041" x2="565.0541" y1="330.7677" y2="339.5177"/>
    <line x1="568.1791" x2="573.8041" y1="336.3927" y2="343.8927"/>
    <polyline points="585.8268,357.1654 623.622,357.1654 623.622,357.1654 661.4173,357.1654"/>
    <line x1="623.622" x2="623.622" y1="357.1654" y2="319.3701"/>
    <polyline points="611.2869,330.7677 603.1619,330.7677 603.1619,330.7677 603.1619,343.8927 603.1619,343.8927 611.2869,343.8927"/>
    <line x1="603.1619" x2="608.1619" y1="337.0177" y2="337.0177"/>
    <polyline points="640.6447,337.0177 646.2697,337.0177 646.2697,337.0177 648.1447,336.3927 648.1447,336.3927 648.7697,335.7677 648.7697,335.7677 649.3947,334.5177 649.3947,334.5177 649.3947,333.2677 649.3947,333.2677 648.7697,332.0177 648.7697,332.0177 648.1447,331.3927 648.1447,331.3927 646.2697,330.7677 646.2697,330.7677 640.6447,330.7677 640.6447,330.7677 640.6447,343.8927"/>
    <line x1="645.0197" x2="649.3947" y1="337.0177" y2="343.8927"/>
    <polyline points="686.8775,330.7677 678.7525,330.7677 678.7525,330.7677 678.7525,343.8927 678.7525,343.8927 686.8775,343.8927"/>
    <line x1="678.7525" x2="683.7525" y1="337.0177" y2="337.0177"/>
    <polyline points="724.9852,330.7677 724.9852,343.8927 724.9852,343.8927 716.2352,330.7677 716.2352,330.7677 716.2352,343.8927"/>
  </g>
</svg>
