<?xml version="1.0" encoding="utf-8" ?>
<svg xmlns="http://www.w3.org/2000/svg" xmlns:cc="http://creativecommons.org/ns" xmlns:dc="http://purl.org/dc/elements/1.1/" xmlns:ev="http://www.w3.org/2001/xml-events" xmlns:inkscape="http://www.inkscape.org/namespaces/inkscape" xmlns:rdf="http://www.w3.org/1999/02/22-rdf-syntax-ns" xmlns:sodipodi="http://sodipodi.sourceforge.net/DTD/sodipodi-0.dtd" xmlns:xlink="http://www.w3.org/1999/xlink" baseProfile="tiny" height="9.9cm" version="1.2" viewBox="0 0 793.7007874015749 374.1732283464567" width="21.0cm">
  <metadata>
    <rdf:RDF>
      <cc:Work>
        <dc:format>image/svg+xml</dc:format>
        <dc:source>vpype eval 'cell=10;width=210;height=99' eval 'nCols=20;nRows=9' eval 'cells=[0,1,2,3,4,5,10,12,13,14,15,16,17,18,19,20,22,27,30,32,36,40,42,46,47,48,49,50,52,56,60,62,63,64,67,70,71,72,73,76,79,82,87,90,92,96,99,100,101,102,103,104,105,106,109,110,111,113,114,115,116,117,119,120,123,126,130,136,139,140,143,145,146,147,148,149,150,151,154,155,156,157,158,159,160,163,166,179]' eval 'chars=[&quot;L&quot;,&quot;A&quot;,&quot;K&quot;,&quot;E&quot;,&quot;N&quot;,&quot;S&quot;,&quot;H&quot;,&quot;B&quot;,&quot;R&quot;,&quot;O&quot;,&quot;E&quot;,&quot;K&quot;,&quot;Z&quot;,&quot;A&quot;,&quot;K&quot;,&quot;I&quot;,&quot;I&quot;,&quot;G&quot;,&quot;A&quot;,&quot;R&quot;,&quot;A&quot;,&quot;F&quot;,&quot;E&quot;,&quot;G&quot;,&quot;R&quot;,&quot;O&quot;,&quot;E&quot;,&quot;N&quot;,&quot;O&quot;,&quot;R&quot;,&quot;T&quot;,&quot;M&quot;,&quot;O&quot;,&quot;P&quot;,&quot;A&quot;,&quot;D&quot;,&quot;R&quot;,&quot;O&quot;,&quot;P&quot;,&quot;O&quot;,&quot;A&quot;,&quot;E&quot;,&quot;S&quot;,&quot;D&quot;,&quot;D&quot;,&quot;L&quot;,&quot;U&quot;,&quot;P&quot;,&quot;I&quot;,&quot;N&quot;,&quot;K&quot;,&quot;E&quot;,&quot;R&quot;,&quot;S&quot;,&quot;Z&quot;,&quot;O&quot;,&quot;N&quot;,&quot;F&quot;,&quot;E&quot;,&quot;L&quot;,&quot;I&quot;,&quot;X&quot;,&quot;G&quot;,&quot;I&quot;,&quot;O&quot;,&quot;T&quot;,&quot;E&quot;,&quot;E&quot;,&quot;U&quot;,&quot;P&quot;,&quot;U&quot;,&quot;V&quot;,&quot;E&quot;,&quot;L&quot;,&quot;L&quot;,&quot;E&quot;,&quot;K&quot;,&quot;E&quot;,&quot;D&quot;,&quot;E&quot;,&quot;N&quot;,&quot;N&quot;,&quot;I&quot;,&quot;S&quot;,&quot;I&quot;,&quot;S&quot;,&quot;R&quot;,&quot;T&quot;]' eval 'numbers=[0,2,10,12,16,27,46,62,70,79,100,103,106,109,113,145,154]' eval counter=1 eval charIndex=0 begin grid -o '%cell*mm%' '%cell*mm%' %nCols% %nRows% eval '%isCell=_i in cells%' eval '%number=_i in numbers%' eval '%size=10 if isCell else 0%' rect 0 0 '%size*mm%' '%size*mm%' text -s 10 -p 0.5mm 1.5mm '%counter if number else '&quot;'&quot;''&quot;'&quot;'%' text -s 20 -p 5mm 5mm -a center '%chars[charIndex] if isCell else '&quot;'&quot;''&quot;'&quot;'%' eval '%if number: counter+=1 %' eval '%if isCell: charIndex+=1 %' end splitall deduplicate linemerge --tolerance 0.1mm write -m none --page-size '%width*mm%x%height*mm%' --center ./svgs/solution/c82553.svg
</dc:source>
        <dc:date>2023-12-29T10:02:45.806136</dc:date>
      </cc:Work>
    </rdf:RDF>
  </metadata>
  <defs/>
  <g fill="none" id="layer1" inkscape:groupmode="layer" inkscape:label="1" stroke="#000000" style="display:inline">
    <polygon points="18.8976,17.0079 18.8976,54.8031 18.8976,54.8031 18.8976,92.5984 18.8976,92.5984 56.6929,92.5984 56.6929,92.5984 56.6929,54.8031 56.6929,54.8031 56.6929,17.0079 56.6929,17.0079"/>
    <polyline points="18.8976,54.8031 56.6929,54.8031 56.6929,54.8031 94.4882,54.8031 94.4882,54.8031 132.2835,54.8031 132.2835,54.8031 132.2835,17.0079 132.2835,17.0079 94.4882,17.0079 94.4882,17.0079 56.6929,17.0079"/>
    <polyline points="22.6624,20.1772 23.2874,19.8647 23.2874,19.8647 24.2249,18.9272 24.2249,18.9272 24.2249,25.4897"/>
    <polyline points="36.5453,28.4055 36.5453,41.5305 36.5453,41.5305 44.0453,41.5305"/>
    <polyline points="132.2835,17.0079 170.0787,17.0079 170.0787,17.0079 207.874,17.0079 207.874,17.0079 207.874,54.8031 207.874,54.8031 170.0787,54.8031 170.0787,54.8031 132.2835,54.8031 132.2835,54.8031 132.2835,92.5984 132.2835,92.5984 94.4882,92.5984 94.4882,92.5984 94.4882,54.8031 94.4882,54.8031 94.4882,17.0079"/>
    <polyline points="81.2156,41.5305 76.2156,28.4055 76.2156,28.4055 71.2156,41.5305"/>
    <line x1="73.0906" x2="79.3406" y1="37.1555" y2="37.1555"/>
    <polyline points="97.628,20.4897 97.628,20.1772 97.628,20.1772 97.9405,19.5522 97.9405,19.5522 98.253,19.2397 98.253,19.2397 98.878,18.9272 98.878,18.9272 100.128,18.9272 100.128,18.9272 100.753,19.2397 100.753,19.2397 101.0655,19.5522 101.0655,19.5522 101.378,20.1772 101.378,20.1772 101.378,20.8022 101.378,20.8022 101.0655,21.4272 101.0655,21.4272 100.4405,22.3647 100.4405,22.3647 97.3155,25.4897 97.3155,25.4897 101.6905,25.4897"/>
    <line x1="111.5108" x2="111.5108" y1="28.4055" y2="41.5305"/>
    <line x1="120.2608" x2="111.5108" y1="28.4055" y2="37.1555"/>
    <line x1="114.6358" x2="120.2608" y1="34.0305" y2="41.5305"/>
    <line x1="170.0787" x2="170.0787" y1="54.8031" y2="17.0079"/>
    <polyline points="157.7436,28.4055 149.6186,28.4055 149.6186,28.4055 149.6186,41.5305 149.6186,41.5305 157.7436,41.5305"/>
    <line x1="149.6186" x2="154.6186" y1="34.6555" y2="34.6555"/>
    <polyline points="195.8514,28.4055 195.8514,41.5305 195.8514,41.5305 187.1014,28.4055 187.1014,28.4055 187.1014,41.5305"/>
    <polyline points="207.874,54.8031 245.6693,54.8031 245.6693,54.8031 245.6693,17.0079 245.6693,17.0079 207.874,17.0079"/>
    <polyline points="233.0217,30.2805 231.7717,29.0305 231.7717,29.0305 229.8967,28.4055 229.8967,28.4055 227.3967,28.4055 227.3967,28.4055 225.5217,29.0305 225.5217,29.0305 224.2717,30.2805 224.2717,30.2805 224.2717,31.5305 224.2717,31.5305 224.8967,32.7805 224.8967,32.7805 225.5217,33.4055 225.5217,33.4055 226.7717,34.0305 226.7717,34.0305 230.5217,35.2805 230.5217,35.2805 231.7717,35.9055 231.7717,35.9055 232.3967,36.5305 232.3967,36.5305 233.0217,37.7805 233.0217,37.7805 233.0217,39.6555 233.0217,39.6555 231.7717,40.9055 231.7717,40.9055 229.8967,41.5305 229.8967,41.5305 227.3967,41.5305 227.3967,41.5305 225.5217,40.9055 225.5217,40.9055 224.2717,39.6555"/>
    <polygon points="396.8504,17.0079 396.8504,54.8031 396.8504,54.8031 396.8504,92.5984 396.8504,92.5984 434.6457,92.5984 434.6457,92.5984 434.6457,54.8031 434.6457,54.8031 434.6457,17.0079 434.6457,17.0079"/>
    <line x1="396.8504" x2="434.6457" y1="54.8031" y2="54.8031"/>
    <polyline points="400.3027,18.9272 403.7402,18.9272 403.7402,18.9272 401.8652,21.4272 401.8652,21.4272 402.8027,21.4272 402.8027,21.4272 403.4277,21.7397 403.4277,21.7397 403.7402,22.0522 403.7402,22.0522 404.0527,22.9897 404.0527,22.9897 404.0527,23.6147 404.0527,23.6147 403.7402,24.5522 403.7402,24.5522 403.1152,25.1772 403.1152,25.1772 402.1777,25.4897 402.1777,25.4897 401.2402,25.4897 401.2402,25.4897 400.3027,25.1772 400.3027,25.1772 399.9902,24.8647 399.9902,24.8647 399.6777,24.2397"/>
    <line x1="413.873" x2="413.873" y1="28.4055" y2="41.5305"/>
    <line x1="422.623" x2="422.623" y1="28.4055" y2="41.5305"/>
    <line x1="413.873" x2="422.623" y1="34.6555" y2="34.6555"/>
    <polygon points="472.4409,17.0079 472.4409,54.8031 472.4409,54.8031 472.4409,92.5984 472.4409,92.5984 510.2362,92.5984 510.2362,92.5984 510.2362,54.8031 510.2362,54.8031 548.0315,54.8031 548.0315,54.8031 585.8268,54.8031 585.8268,54.8031 585.8268,17.0079 585.8268,17.0079 548.0315,17.0079 548.0315,17.0079 510.2362,17.0079 510.2362,17.0079"/>
    <polyline points="472.4409,54.8031 510.2362,54.8031 510.2362,54.8031 510.2362,17.0079"/>
    <polyline points="478.3932,25.4897 478.3932,18.9272 478.3932,18.9272 475.2682,23.3022 475.2682,23.3022 479.9557,23.3022"/>
    <polyline points="495.0886,34.6555 496.9636,34.0305 496.9636,34.0305 497.5886,33.4055 497.5886,33.4055 498.2136,32.1555 498.2136,32.1555 498.2136,30.9055 498.2136,30.9055 497.5886,29.6555 497.5886,29.6555 496.9636,29.0305 496.9636,29.0305 495.0886,28.4055 495.0886,28.4055 489.4636,28.4055 489.4636,28.4055 489.4636,41.5305 489.4636,41.5305 495.0886,41.5305 495.0886,41.5305 496.9636,40.9055 496.9636,40.9055 497.5886,40.2805 497.5886,40.2805 498.2136,39.0305 498.2136,39.0305 498.2136,37.1555 498.2136,37.1555 497.5886,35.9055 497.5886,35.9055 496.9636,35.2805 496.9636,35.2805 495.0886,34.6555 495.0886,34.6555 489.4636,34.6555"/>
    <line x1="548.0315" x2="548.0315" y1="54.8031" y2="17.0079"/>
    <polyline points="527.2589,34.6555 532.8839,34.6555 532.8839,34.6555 534.7589,34.0305 534.7589,34.0305 535.3839,33.4055 535.3839,33.4055 536.0089,32.1555 536.0089,32.1555 536.0089,30.9055 536.0089,30.9055 535.3839,29.6555 535.3839,29.6555 534.7589,29.0305 534.7589,29.0305 532.8839,28.4055 532.8839,28.4055 527.2589,28.4055 527.2589,28.4055 527.2589,41.5305"/>
    <line x1="531.6339" x2="536.0089" y1="34.6555" y2="41.5305"/>
    <polygon points="567.5541,28.4055 566.3041,29.0305 566.3041,29.0305 565.0541,30.2805 565.0541,30.2805 564.4291,31.5305 564.4291,31.5305 563.8041,33.4055 563.8041,33.4055 563.8041,36.5305 563.8041,36.5305 564.4291,38.4055 564.4291,38.4055 565.0541,39.6555 565.0541,39.6555 566.3041,40.9055 566.3041,40.9055 567.5541,41.5305 567.5541,41.5305 570.0541,41.5305 570.0541,41.5305 571.3041,40.9055 571.3041,40.9055 572.5541,39.6555 572.5541,39.6555 573.1791,38.4055 573.1791,38.4055 573.8041,36.5305 573.8041,36.5305 573.8041,33.4055 573.8041,33.4055 573.1791,31.5305 573.1791,31.5305 572.5541,30.2805 572.5541,30.2805 571.3041,29.0305 571.3041,29.0305 570.0541,28.4055 570.0541,28.4055"/>
    <polyline points="585.8268,54.8031 623.622,54.8031 623.622,54.8031 661.4173,54.8031 661.4173,54.8031 661.4173,17.0079 661.4173,17.0079 623.622,17.0079 623.622,17.0079 585.8268,17.0079"/>
    <polyline points="661.4173,17.0079 699.2126,17.0079 699.2126,17.0079 699.2126,54.8031 699.2126,54.8031 661.4173,54.8031 661.4173,54.8031 661.4173,92.5984 661.4173,92.5984 623.622,92.5984 623.622,92.5984 623.622,54.8031 623.622,54.8031 623.622,17.0079"/>
    <polyline points="611.2869,28.4055 603.1619,28.4055 603.1619,28.4055 603.1619,41.5305 603.1619,41.5305 611.2869,41.5305"/>
    <line x1="603.1619" x2="608.1619" y1="34.6555" y2="34.6555"/>
    <polyline points="630.1993,18.9272 627.0743,18.9272 627.0743,18.9272 626.7618,21.7397 626.7618,21.7397 627.0743,21.4272 627.0743,21.4272 628.0118,21.1147 628.0118,21.1147 628.9493,21.1147 628.9493,21.1147 629.8868,21.4272 629.8868,21.4272 630.5118,22.0522 630.5118,22.0522 630.8243,22.9897 630.8243,22.9897 630.8243,23.6147 630.8243,23.6147 630.5118,24.5522 630.5118,24.5522 629.8868,25.1772 629.8868,25.1772 628.9493,25.4897 628.9493,25.4897 628.0118,25.4897 628.0118,25.4897 627.0743,25.1772 627.0743,25.1772 626.7618,24.8647 626.7618,24.8647 626.4493,24.2397"/>
    <line x1="640.6447" x2="640.6447" y1="28.4055" y2="41.5305"/>
    <line x1="649.3947" x2="640.6447" y1="28.4055" y2="37.1555"/>
    <line x1="643.7697" x2="649.3947" y1="34.0305" y2="41.5305"/>
    <polyline points="677.815,28.4055 686.565,28.4055 686.565,28.4055 677.815,41.5305 677.815,41.5305 686.565,41.5305"/>
    <polyline points="699.2126,54.8031 737.0079,54.8031 737.0079,54.8031 737.0079,17.0079 737.0079,17.0079 699.2126,17.0079"/>
    <polyline points="723.7352,41.5305 718.7352,28.4055 718.7352,28.4055 713.7352,41.5305"/>
    <line x1="715.6102" x2="721.8602" y1="37.1555" y2="37.1555"/>
    <polyline points="737.0079,54.8031 774.8031,54.8031 774.8031,54.8031 774.8031,17.0079 774.8031,17.0079 737.0079,17.0079"/>
    <line x1="754.0305" x2="754.0305" y1="28.4055" y2="41.5305"/>
    <line x1="762.7805" x2="754.0305" y1="28.4055" y2="37.1555"/>
    <line x1="757.1555" x2="762.7805" y1="34.0305" y2="41.5305"/>
    <line x1="40.2953" x2="40.2953" y1="66.2008" y2="79.3258"/>
    <line x1="115.8858" x2="115.8858" y1="66.2008" y2="79.3258"/>
    <polygon points="283.4646,54.8031 283.4646,92.5984 283.4646,92.5984 321.2598,92.5984 321.2598,92.5984 321.2598,54.8031 321.2598,54.8031"/>
    <polyline points="290.3543,57.6599 290.0418,57.0349 290.0418,57.0349 289.1043,56.7224 289.1043,56.7224 288.4793,56.7224 288.4793,56.7224 287.5418,57.0349 287.5418,57.0349 286.9168,57.9724 286.9168,57.9724 286.6043,59.5349 286.6043,59.5349 286.6043,61.0974 286.6043,61.0974 286.9168,62.3474 286.9168,62.3474 287.5418,62.9724 287.5418,62.9724 288.4793,63.2849 288.4793,63.2849 288.7918,63.2849 288.7918,63.2849 289.7293,62.9724 289.7293,62.9724 290.3543,62.3474 290.3543,62.3474 290.6668,61.4099 290.6668,61.4099 290.6668,61.0974 290.6668,61.0974 290.3543,60.1599 290.3543,60.1599 289.7293,59.5349 289.7293,59.5349 288.7918,59.2224 288.7918,59.2224 288.4793,59.2224 288.4793,59.2224 287.5418,59.5349 287.5418,59.5349 286.9168,60.1599 286.9168,60.1599 286.6043,61.0974"/>
    <polyline points="308.9247,69.3258 308.2997,68.0758 308.2997,68.0758 307.0497,66.8258 307.0497,66.8258 305.7997,66.2008 305.7997,66.2008 303.2997,66.2008 303.2997,66.2008 302.0497,66.8258 302.0497,66.8258 300.7997,68.0758 300.7997,68.0758 300.1747,69.3258 300.1747,69.3258 299.5497,71.2008 299.5497,71.2008 299.5497,74.3258 299.5497,74.3258 300.1747,76.2008 300.1747,76.2008 300.7997,77.4508 300.7997,77.4508 302.0497,78.7008 302.0497,78.7008 303.2997,79.3258 303.2997,79.3258 305.7997,79.3258 305.7997,79.3258 307.0497,78.7008 307.0497,78.7008 308.2997,77.4508 308.2997,77.4508 308.9247,76.2008 308.9247,76.2008 308.9247,74.3258 308.9247,74.3258 305.7997,74.3258"/>
    <polyline points="421.373,79.3258 416.373,66.2008 416.373,66.2008 411.373,79.3258"/>
    <line x1="413.248" x2="419.498" y1="74.9508" y2="74.9508"/>
    <polyline points="489.4636,72.4508 495.0886,72.4508 495.0886,72.4508 496.9636,71.8258 496.9636,71.8258 497.5886,71.2008 497.5886,71.2008 498.2136,69.9508 498.2136,69.9508 498.2136,68.7008 498.2136,68.7008 497.5886,67.4508 497.5886,67.4508 496.9636,66.8258 496.9636,66.8258 495.0886,66.2008 495.0886,66.2008 489.4636,66.2008 489.4636,66.2008 489.4636,79.3258"/>
    <line x1="493.8386" x2="498.2136" y1="72.4508" y2="79.3258"/>
    <polyline points="648.1447,79.3258 643.1447,66.2008 643.1447,66.2008 638.1447,79.3258"/>
    <line x1="640.0197" x2="646.2697" y1="74.9508" y2="74.9508"/>
    <polyline points="18.8976,92.5984 18.8976,130.3937 18.8976,130.3937 56.6929,130.3937 56.6929,130.3937 56.6929,92.5984"/>
    <polyline points="44.3578,103.9961 36.2328,103.9961 36.2328,103.9961 36.2328,117.1211"/>
    <line x1="36.2328" x2="41.2328" y1="110.2461" y2="110.2461"/>
    <polyline points="94.4882,92.5984 94.4882,130.3937 94.4882,130.3937 132.2835,130.3937 132.2835,130.3937 132.2835,92.5984"/>
    <polyline points="119.9483,103.9961 111.8233,103.9961 111.8233,103.9961 111.8233,117.1211 111.8233,117.1211 119.9483,117.1211"/>
    <line x1="111.8233" x2="116.8233" y1="110.2461" y2="110.2461"/>
    <polygon points="245.6693,92.5984 245.6693,130.3937 245.6693,130.3937 283.4646,130.3937 283.4646,130.3937 283.4646,92.5984 283.4646,92.5984"/>
    <polyline points="248.4966,94.5177 252.8716,94.5177 252.8716,94.5177 249.7466,101.0802"/>
    <polyline points="271.1294,107.1211 270.5044,105.8711 270.5044,105.8711 269.2544,104.6211 269.2544,104.6211 268.0044,103.9961 268.0044,103.9961 265.5044,103.9961 265.5044,103.9961 264.2544,104.6211 264.2544,104.6211 263.0044,105.8711 263.0044,105.8711 262.3794,107.1211 262.3794,107.1211 261.7544,108.9961 261.7544,108.9961 261.7544,112.1211 261.7544,112.1211 262.3794,113.9961 262.3794,113.9961 263.0044,115.2461 263.0044,115.2461 264.2544,116.4961 264.2544,116.4961 265.5044,117.1211 265.5044,117.1211 268.0044,117.1211 268.0044,117.1211 269.2544,116.4961 269.2544,116.4961 270.5044,115.2461 270.5044,115.2461 271.1294,113.9961 271.1294,113.9961 271.1294,112.1211 271.1294,112.1211 268.0044,112.1211"/>
    <polyline points="510.2362,92.5984 510.2362,130.3937 510.2362,130.3937 472.4409,130.3937 472.4409,130.3937 434.6457,130.3937 434.6457,130.3937 434.6457,168.189 434.6457,168.189 396.8504,168.189 396.8504,168.189 396.8504,130.3937 396.8504,130.3937 359.0551,130.3937 359.0551,130.3937 321.2598,130.3937 321.2598,130.3937 321.2598,168.189 321.2598,168.189 283.4646,168.189 283.4646,168.189 283.4646,130.3937 283.4646,130.3937 321.2598,130.3937 321.2598,130.3937 321.2598,92.5984 321.2598,92.5984 359.0551,92.5984 359.0551,92.5984 396.8504,92.5984 396.8504,92.5984 396.8504,130.3937 396.8504,130.3937 434.6457,130.3937 434.6457,130.3937 434.6457,92.5984"/>
    <polyline points="300.4872,110.2461 306.1122,110.2461 306.1122,110.2461 307.9872,109.6211 307.9872,109.6211 308.6122,108.9961 308.6122,108.9961 309.2372,107.7461 309.2372,107.7461 309.2372,106.4961 309.2372,106.4961 308.6122,105.2461 308.6122,105.2461 307.9872,104.6211 307.9872,104.6211 306.1122,103.9961 306.1122,103.9961 300.4872,103.9961 300.4872,103.9961 300.4872,117.1211"/>
    <line x1="304.8622" x2="309.2372" y1="110.2461" y2="117.1211"/>
    <line x1="359.0551" x2="359.0551" y1="130.3937" y2="92.5984"/>
    <polygon points="340.7825,103.9961 339.5325,104.6211 339.5325,104.6211 338.2825,105.8711 338.2825,105.8711 337.6575,107.1211 337.6575,107.1211 337.0325,108.9961 337.0325,108.9961 337.0325,112.1211 337.0325,112.1211 337.6575,113.9961 337.6575,113.9961 338.2825,115.2461 338.2825,115.2461 339.5325,116.4961 339.5325,116.4961 340.7825,117.1211 340.7825,117.1211 343.2825,117.1211 343.2825,117.1211 344.5325,116.4961 344.5325,116.4961 345.7825,115.2461 345.7825,115.2461 346.4075,113.9961 346.4075,113.9961 347.0325,112.1211 347.0325,112.1211 347.0325,108.9961 347.0325,108.9961 346.4075,107.1211 346.4075,107.1211 345.7825,105.8711 345.7825,105.8711 344.5325,104.6211 344.5325,104.6211 343.2825,103.9961 343.2825,103.9961"/>
    <polyline points="384.5153,103.9961 376.3903,103.9961 376.3903,103.9961 376.3903,117.1211 376.3903,117.1211 384.5153,117.1211"/>
    <line x1="376.3903" x2="381.3903" y1="110.2461" y2="110.2461"/>
    <polyline points="422.623,103.9961 422.623,117.1211 422.623,117.1211 413.873,103.9961 413.873,103.9961 413.873,117.1211"/>
    <polyline points="472.4409,92.5984 472.4409,130.3937 472.4409,130.3937 472.4409,168.189 472.4409,168.189 510.2362,168.189 510.2362,168.189 548.0315,168.189 548.0315,168.189 548.0315,130.3937 548.0315,130.3937 510.2362,130.3937 510.2362,130.3937 510.2362,168.189 510.2362,168.189 510.2362,205.9843 510.2362,205.9843 510.2362,243.7795 510.2362,243.7795 548.0315,243.7795 548.0315,243.7795 585.8268,243.7795 585.8268,243.7795 585.8268,205.9843 585.8268,205.9843 548.0315,205.9843 548.0315,205.9843 510.2362,205.9843 510.2362,205.9843 472.4409,205.9843 472.4409,205.9843 434.6457,205.9843 434.6457,205.9843 434.6457,168.189 434.6457,168.189 472.4409,168.189 472.4409,168.189 472.4409,205.9843 472.4409,205.9843 472.4409,243.7795 472.4409,243.7795 434.6457,243.7795 434.6457,243.7795 434.6457,205.9843 434.6457,205.9843 396.8504,205.9843 396.8504,205.9843 359.0551,205.9843 359.0551,205.9843 359.0551,243.7795 359.0551,243.7795 396.8504,243.7795 396.8504,243.7795 434.6457,243.7795 434.6457,243.7795 434.6457,281.5748 434.6457,281.5748 396.8504,281.5748 396.8504,281.5748 359.0551,281.5748 359.0551,281.5748 321.2598,281.5748 321.2598,281.5748 283.4646,281.5748 283.4646,281.5748 283.4646,243.7795 283.4646,243.7795 283.4646,205.9843 283.4646,205.9843 321.2598,205.9843 321.2598,205.9843 321.2598,168.189"/>
    <polygon points="491.9636,103.9961 490.7136,104.6211 490.7136,104.6211 489.4636,105.8711 489.4636,105.8711 488.8386,107.1211 488.8386,107.1211 488.2136,108.9961 488.2136,108.9961 488.2136,112.1211 488.2136,112.1211 488.8386,113.9961 488.8386,113.9961 489.4636,115.2461 489.4636,115.2461 490.7136,116.4961 490.7136,116.4961 491.9636,117.1211 491.9636,117.1211 494.4636,117.1211 494.4636,117.1211 495.7136,116.4961 495.7136,116.4961 496.9636,115.2461 496.9636,115.2461 497.5886,113.9961 497.5886,113.9961 498.2136,112.1211 498.2136,112.1211 498.2136,108.9961 498.2136,108.9961 497.5886,107.1211 497.5886,107.1211 496.9636,105.8711 496.9636,105.8711 495.7136,104.6211 495.7136,104.6211 494.4636,103.9961 494.4636,103.9961"/>
    <polyline points="623.622,92.5984 623.622,130.3937 623.622,130.3937 623.622,168.189 623.622,168.189 661.4173,168.189 661.4173,168.189 661.4173,130.3937 661.4173,130.3937 661.4173,92.5984"/>
    <line x1="623.622" x2="661.4173" y1="130.3937" y2="130.3937"/>
    <polyline points="640.6447,110.2461 646.2697,110.2461 646.2697,110.2461 648.1447,109.6211 648.1447,109.6211 648.7697,108.9961 648.7697,108.9961 649.3947,107.7461 649.3947,107.7461 649.3947,106.4961 649.3947,106.4961 648.7697,105.2461 648.7697,105.2461 648.1447,104.6211 648.1447,104.6211 646.2697,103.9961 646.2697,103.9961 640.6447,103.9961 640.6447,103.9961 640.6447,117.1211"/>
    <line x1="645.0197" x2="649.3947" y1="110.2461" y2="117.1211"/>
    <polyline points="18.8976,130.3937 18.8976,168.189 18.8976,168.189 56.6929,168.189 56.6929,168.189 56.6929,130.3937"/>
    <line x1="38.4203" x2="38.4203" y1="141.7913" y2="154.9163"/>
    <line x1="34.0453" x2="42.7953" y1="141.7913" y2="141.7913"/>
    <polyline points="94.4882,130.3937 94.4882,168.189 94.4882,168.189 132.2835,168.189 132.2835,168.189 132.2835,130.3937 132.2835,130.3937 170.0787,130.3937 170.0787,130.3937 207.874,130.3937 207.874,130.3937 207.874,168.189 207.874,168.189 170.0787,168.189 170.0787,168.189 170.0787,130.3937"/>
    <polygon points="98.878,132.313 97.9405,132.6255 97.9405,132.6255 97.628,133.2505 97.628,133.2505 97.628,133.8755 97.628,133.8755 97.9405,134.5005 97.9405,134.5005 98.5655,134.813 98.5655,134.813 99.8155,135.1255 99.8155,135.1255 100.753,135.438 100.753,135.438 101.378,136.063 101.378,136.063 101.6905,136.688 101.6905,136.688 101.6905,137.6255 101.6905,137.6255 101.378,138.2505 101.378,138.2505 101.0655,138.563 101.0655,138.563 100.128,138.8755 100.128,138.8755 98.878,138.8755 98.878,138.8755 97.9405,138.563 97.9405,138.563 97.628,138.2505 97.628,138.2505 97.3155,137.6255 97.3155,137.6255 97.3155,136.688 97.3155,136.688 97.628,136.063 97.628,136.063 98.253,135.438 98.253,135.438 99.1905,135.1255 99.1905,135.1255 100.4405,134.813 100.4405,134.813 101.0655,134.5005 101.0655,134.5005 101.378,133.8755 101.378,133.8755 101.378,133.2505 101.378,133.2505 101.0655,132.6255 101.0655,132.6255 100.128,132.313 100.128,132.313"/>
    <polyline points="120.8858,154.9163 120.8858,141.7913 120.8858,141.7913 115.8858,154.9163 115.8858,154.9163 110.8858,141.7913 110.8858,141.7913 110.8858,154.9163"/>
    <polyline points="56.6929,205.9843 56.6929,243.7795 56.6929,243.7795 18.8976,243.7795 18.8976,243.7795 18.8976,205.9843 18.8976,205.9843 56.6929,205.9843 56.6929,205.9843 94.4882,205.9843 94.4882,205.9843 132.2835,205.9843 132.2835,205.9843 170.0787,205.9843 170.0787,205.9843 207.874,205.9843 207.874,205.9843 245.6693,205.9843 245.6693,205.9843 245.6693,243.7795 245.6693,243.7795 207.874,243.7795 207.874,243.7795 170.0787,243.7795 170.0787,243.7795 132.2835,243.7795 132.2835,243.7795 132.2835,205.9843 132.2835,205.9843 132.2835,168.189 132.2835,168.189 170.0787,168.189"/>
    <polygon points="151.8061,141.7913 150.5561,142.4163 150.5561,142.4163 149.3061,143.6663 149.3061,143.6663 148.6811,144.9163 148.6811,144.9163 148.0561,146.7913 148.0561,146.7913 148.0561,149.9163 148.0561,149.9163 148.6811,151.7913 148.6811,151.7913 149.3061,153.0413 149.3061,153.0413 150.5561,154.2913 150.5561,154.2913 151.8061,154.9163 151.8061,154.9163 154.3061,154.9163 154.3061,154.9163 155.5561,154.2913 155.5561,154.2913 156.8061,153.0413 156.8061,153.0413 157.4311,151.7913 157.4311,151.7913 158.0561,149.9163 158.0561,149.9163 158.0561,146.7913 158.0561,146.7913 157.4311,144.9163 157.4311,144.9163 156.8061,143.6663 156.8061,143.6663 155.5561,142.4163 155.5561,142.4163 154.3061,141.7913 154.3061,141.7913"/>
    <polyline points="187.1014,148.6663 192.7264,148.6663 192.7264,148.6663 194.6014,148.0413 194.6014,148.0413 195.2264,147.4163 195.2264,147.4163 195.8514,146.1663 195.8514,146.1663 195.8514,144.2913 195.8514,144.2913 195.2264,143.0413 195.2264,143.0413 194.6014,142.4163 194.6014,142.4163 192.7264,141.7913 192.7264,141.7913 187.1014,141.7913 187.1014,141.7913 187.1014,154.9163"/>
    <polyline points="307.9872,154.9163 302.9872,141.7913 302.9872,141.7913 297.9872,154.9163"/>
    <line x1="299.8622" x2="306.1122" y1="150.5413" y2="150.5413"/>
    <polyline points="403.7402,134.5005 403.4277,135.438 403.4277,135.438 402.8027,136.063 402.8027,136.063 401.8652,136.3755 401.8652,136.3755 401.5527,136.3755 401.5527,136.3755 400.6152,136.063 400.6152,136.063 399.9902,135.438 399.9902,135.438 399.6777,134.5005 399.6777,134.5005 399.6777,134.188 399.6777,134.188 399.9902,133.2505 399.9902,133.2505 400.6152,132.6255 400.6152,132.6255 401.5527,132.313 401.5527,132.313 401.8652,132.313 401.8652,132.313 402.8027,132.6255 402.8027,132.6255 403.4277,133.2505 403.4277,133.2505 403.7402,134.5005 403.7402,134.5005 403.7402,136.063 403.7402,136.063 403.4277,137.6255 403.4277,137.6255 402.8027,138.563 402.8027,138.563 401.8652,138.8755 401.8652,138.8755 401.2402,138.8755 401.2402,138.8755 400.3027,138.563 400.3027,138.563 399.9902,137.938"/>
    <polygon points="413.873,141.7913 413.873,154.9163 413.873,154.9163 418.248,154.9163 418.248,154.9163 420.123,154.2913 420.123,154.2913 421.373,153.0413 421.373,153.0413 421.998,151.7913 421.998,151.7913 422.623,149.9163 422.623,149.9163 422.623,146.7913 422.623,146.7913 421.998,144.9163 421.998,144.9163 421.373,143.6663 421.373,143.6663 420.123,142.4163 420.123,142.4163 418.248,141.7913 418.248,141.7913"/>
    <polyline points="451.6683,148.0413 457.2933,148.0413 457.2933,148.0413 459.1683,147.4163 459.1683,147.4163 459.7933,146.7913 459.7933,146.7913 460.4183,145.5413 460.4183,145.5413 460.4183,144.2913 460.4183,144.2913 459.7933,143.0413 459.7933,143.0413 459.1683,142.4163 459.1683,142.4163 457.2933,141.7913 457.2933,141.7913 451.6683,141.7913 451.6683,141.7913 451.6683,154.9163"/>
    <line x1="456.0433" x2="460.4183" y1="148.0413" y2="154.9163"/>
    <polygon points="491.9636,141.7913 490.7136,142.4163 490.7136,142.4163 489.4636,143.6663 489.4636,143.6663 488.8386,144.9163 488.8386,144.9163 488.2136,146.7913 488.2136,146.7913 488.2136,149.9163 488.2136,149.9163 488.8386,151.7913 488.8386,151.7913 489.4636,153.0413 489.4636,153.0413 490.7136,154.2913 490.7136,154.2913 491.9636,154.9163 491.9636,154.9163 494.4636,154.9163 494.4636,154.9163 495.7136,154.2913 495.7136,154.2913 496.9636,153.0413 496.9636,153.0413 497.5886,151.7913 497.5886,151.7913 498.2136,149.9163 498.2136,149.9163 498.2136,146.7913 498.2136,146.7913 497.5886,144.9163 497.5886,144.9163 496.9636,143.6663 496.9636,143.6663 495.7136,142.4163 495.7136,142.4163 494.4636,141.7913 494.4636,141.7913"/>
    <polyline points="527.2589,148.6663 532.8839,148.6663 532.8839,148.6663 534.7589,148.0413 534.7589,148.0413 535.3839,147.4163 535.3839,147.4163 536.0089,146.1663 536.0089,146.1663 536.0089,144.2913 536.0089,144.2913 535.3839,143.0413 535.3839,143.0413 534.7589,142.4163 534.7589,142.4163 532.8839,141.7913 532.8839,141.7913 527.2589,141.7913 527.2589,141.7913 527.2589,154.9163"/>
    <polygon points="643.1447,141.7913 641.8947,142.4163 641.8947,142.4163 640.6447,143.6663 640.6447,143.6663 640.0197,144.9163 640.0197,144.9163 639.3947,146.7913 639.3947,146.7913 639.3947,149.9163 639.3947,149.9163 640.0197,151.7913 640.0197,151.7913 640.6447,153.0413 640.6447,153.0413 641.8947,154.2913 641.8947,154.2913 643.1447,154.9163 643.1447,154.9163 645.6447,154.9163 645.6447,154.9163 646.8947,154.2913 646.8947,154.2913 648.1447,153.0413 648.1447,153.0413 648.7697,151.7913 648.7697,151.7913 649.3947,149.9163 649.3947,149.9163 649.3947,146.7913 649.3947,146.7913 648.7697,144.9163 648.7697,144.9163 648.1447,143.6663 648.1447,143.6663 646.8947,142.4163 646.8947,142.4163 645.6447,141.7913 645.6447,141.7913"/>
    <polygon points="737.0079,130.3937 737.0079,168.189 737.0079,168.189 737.0079,205.9843 737.0079,205.9843 737.0079,243.7795 737.0079,243.7795 774.8031,243.7795 774.8031,243.7795 774.8031,205.9843 774.8031,205.9843 774.8031,168.189 774.8031,168.189 774.8031,130.3937 774.8031,130.3937"/>
    <line x1="737.0079" x2="774.8031" y1="168.189" y2="168.189"/>
    <polyline points="740.7726,133.563 741.3976,133.2505 741.3976,133.2505 742.3351,132.313 742.3351,132.313 742.3351,138.8755"/>
    <polygon points="747.9601,132.313 747.0226,132.6255 747.0226,132.6255 746.3976,133.563 746.3976,133.563 746.0851,135.1255 746.0851,135.1255 746.0851,136.063 746.0851,136.063 746.3976,137.6255 746.3976,137.6255 747.0226,138.563 747.0226,138.563 747.9601,138.8755 747.9601,138.8755 748.5851,138.8755 748.5851,138.8755 749.5226,138.563 749.5226,138.563 750.1476,137.6255 750.1476,137.6255 750.4601,136.063 750.4601,136.063 750.4601,135.1255 750.4601,135.1255 750.1476,133.563 750.1476,133.563 749.5226,132.6255 749.5226,132.6255 748.5851,132.313 748.5851,132.313"/>
    <polyline points="761.5305,154.9163 756.5305,141.7913 756.5305,141.7913 751.5305,154.9163"/>
    <line x1="753.4055" x2="759.6555" y1="150.5413" y2="150.5413"/>
    <polyline points="94.4882,168.189 94.4882,205.9843 94.4882,205.9843 94.4882,243.7795 94.4882,243.7795 132.2835,243.7795 132.2835,243.7795 132.2835,281.5748 132.2835,281.5748 170.0787,281.5748 170.0787,281.5748 170.0787,243.7795 170.0787,243.7795 170.0787,205.9843"/>
    <polyline points="119.9483,179.5866 111.8233,179.5866 111.8233,179.5866 111.8233,192.7116 111.8233,192.7116 119.9483,192.7116"/>
    <line x1="111.8233" x2="116.8233" y1="185.8366" y2="185.8366"/>
    <polyline points="283.4646,168.189 283.4646,205.9843 283.4646,205.9843 245.6693,205.9843"/>
    <polyline points="308.6122,181.4616 307.3622,180.2116 307.3622,180.2116 305.4872,179.5866 305.4872,179.5866 302.9872,179.5866 302.9872,179.5866 301.1122,180.2116 301.1122,180.2116 299.8622,181.4616 299.8622,181.4616 299.8622,182.7116 299.8622,182.7116 300.4872,183.9616 300.4872,183.9616 301.1122,184.5866 301.1122,184.5866 302.3622,185.2116 302.3622,185.2116 306.1122,186.4616 306.1122,186.4616 307.3622,187.0866 307.3622,187.0866 307.9872,187.7116 307.9872,187.7116 308.6122,188.9616 308.6122,188.9616 308.6122,190.8366 308.6122,190.8366 307.3622,192.0866 307.3622,192.0866 305.4872,192.7116 305.4872,192.7116 302.9872,192.7116 302.9872,192.7116 301.1122,192.0866 301.1122,192.0866 299.8622,190.8366"/>
    <polyline points="396.8504,168.189 396.8504,205.9843 396.8504,205.9843 396.8504,243.7795 396.8504,243.7795 396.8504,281.5748 396.8504,281.5748 396.8504,319.3701 396.8504,319.3701 434.6457,319.3701 434.6457,319.3701 434.6457,281.5748 434.6457,281.5748 472.4409,281.5748 472.4409,281.5748 472.4409,319.3701 472.4409,319.3701 434.6457,319.3701"/>
    <polygon points="413.873,179.5866 413.873,192.7116 413.873,192.7116 418.248,192.7116 418.248,192.7116 420.123,192.0866 420.123,192.0866 421.373,190.8366 421.373,190.8366 421.998,189.5866 421.998,189.5866 422.623,187.7116 422.623,187.7116 422.623,184.5866 422.623,184.5866 421.998,182.7116 421.998,182.7116 421.373,181.4616 421.373,181.4616 420.123,180.2116 420.123,180.2116 418.248,179.5866 418.248,179.5866"/>
    <polygon points="489.4636,179.5866 489.4636,192.7116 489.4636,192.7116 493.8386,192.7116 493.8386,192.7116 495.7136,192.0866 495.7136,192.0866 496.9636,190.8366 496.9636,190.8366 497.5886,189.5866 497.5886,189.5866 498.2136,187.7116 498.2136,187.7116 498.2136,184.5866 498.2136,184.5866 497.5886,182.7116 497.5886,182.7116 496.9636,181.4616 496.9636,181.4616 495.7136,180.2116 495.7136,180.2116 493.8386,179.5866 493.8386,179.5866"/>
    <polyline points="623.622,168.189 623.622,205.9843 623.622,205.9843 585.8268,205.9843"/>
    <polyline points="585.8268,281.5748 585.8268,319.3701 585.8268,319.3701 548.0315,319.3701 548.0315,319.3701 548.0315,281.5748 548.0315,281.5748 585.8268,281.5748 585.8268,281.5748 623.622,281.5748 623.622,281.5748 661.4173,281.5748 661.4173,281.5748 699.2126,281.5748 699.2126,281.5748 699.2126,319.3701 699.2126,319.3701 661.4173,319.3701 661.4173,319.3701 661.4173,281.5748 661.4173,281.5748 661.4173,243.7795 661.4173,243.7795 699.2126,243.7795 699.2126,243.7795 699.2126,205.9843 699.2126,205.9843 661.4173,205.9843 661.4173,205.9843 661.4173,243.7795 661.4173,243.7795 623.622,243.7795 623.622,243.7795 623.622,205.9843 623.622,205.9843 661.4173,205.9843 661.4173,205.9843 661.4173,168.189"/>
    <polyline points="641.2697,179.5866 641.2697,192.7116 641.2697,192.7116 648.7697,192.7116"/>
    <line x1="737.0079" x2="774.8031" y1="205.9843" y2="205.9843"/>
    <polyline points="754.0305,179.5866 754.0305,188.9616 754.0305,188.9616 754.6555,190.8366 754.6555,190.8366 755.9055,192.0866 755.9055,192.0866 757.7805,192.7116 757.7805,192.7116 759.0305,192.7116 759.0305,192.7116 760.9055,192.0866 760.9055,192.0866 762.1555,190.8366 762.1555,190.8366 762.7805,188.9616 762.7805,188.9616 762.7805,179.5866"/>
    <polyline points="22.6624,209.1535 23.2874,208.841 23.2874,208.841 24.2249,207.9035 24.2249,207.9035 24.2249,214.466"/>
    <polyline points="28.9124,209.1535 29.5374,208.841 29.5374,208.841 30.4749,207.9035 30.4749,207.9035 30.4749,214.466"/>
    <polyline points="35.9203,224.2569 41.5453,224.2569 41.5453,224.2569 43.4203,223.6319 43.4203,223.6319 44.0453,223.0069 44.0453,223.0069 44.6703,221.7569 44.6703,221.7569 44.6703,219.8819 44.6703,219.8819 44.0453,218.6319 44.0453,218.6319 43.4203,218.0069 43.4203,218.0069 41.5453,217.3819 41.5453,217.3819 35.9203,217.3819 35.9203,217.3819 35.9203,230.5069"/>
    <polyline points="56.6929,281.5748 56.6929,319.3701 56.6929,319.3701 56.6929,357.1654 56.6929,357.1654 18.8976,357.1654 18.8976,357.1654 18.8976,319.3701 18.8976,319.3701 18.8976,281.5748 18.8976,281.5748 56.6929,281.5748 56.6929,281.5748 56.6929,243.7795 56.6929,243.7795 94.4882,243.7795"/>
    <line x1="78.0906" x2="78.0906" y1="217.3819" y2="230.5069"/>
    <polyline points="120.2608,217.3819 120.2608,230.5069 120.2608,230.5069 111.5108,217.3819 111.5108,217.3819 111.5108,230.5069"/>
    <polyline points="136.0482,209.1535 136.6732,208.841 136.6732,208.841 137.6107,207.9035 137.6107,207.9035 137.6107,214.466"/>
    <polyline points="141.6732,209.466 141.6732,209.1535 141.6732,209.1535 141.9857,208.5285 141.9857,208.5285 142.2982,208.216 142.2982,208.216 142.9232,207.9035 142.9232,207.9035 144.1732,207.9035 144.1732,207.9035 144.7982,208.216 144.7982,208.216 145.1107,208.5285 145.1107,208.5285 145.4232,209.1535 145.4232,209.1535 145.4232,209.7785 145.4232,209.7785 145.1107,210.4035 145.1107,210.4035 144.4857,211.341 144.4857,211.341 141.3607,214.466 141.3607,214.466 145.7357,214.466"/>
    <line x1="149.3061" x2="149.3061" y1="217.3819" y2="230.5069"/>
    <line x1="158.0561" x2="149.3061" y1="217.3819" y2="226.1319"/>
    <line x1="152.4311" x2="158.0561" y1="223.0069" y2="230.5069"/>
    <line x1="207.874" x2="207.874" y1="243.7795" y2="205.9843"/>
    <polyline points="195.5389,217.3819 187.4139,217.3819 187.4139,217.3819 187.4139,230.5069 187.4139,230.5069 195.5389,230.5069"/>
    <line x1="187.4139" x2="192.4139" y1="223.6319" y2="223.6319"/>
    <polyline points="224.8967,223.6319 230.5217,223.6319 230.5217,223.6319 232.3967,223.0069 232.3967,223.0069 233.0217,222.3819 233.0217,222.3819 233.6467,221.1319 233.6467,221.1319 233.6467,219.8819 233.6467,219.8819 233.0217,218.6319 233.0217,218.6319 232.3967,218.0069 232.3967,218.0069 230.5217,217.3819 230.5217,217.3819 224.8967,217.3819 224.8967,217.3819 224.8967,230.5069"/>
    <line x1="229.2717" x2="233.6467" y1="223.6319" y2="230.5069"/>
    <polyline points="321.2598,281.5748 321.2598,319.3701 321.2598,319.3701 283.4646,319.3701 283.4646,319.3701 283.4646,281.5748 283.4646,281.5748 245.6693,281.5748 245.6693,281.5748 245.6693,243.7795 245.6693,243.7795 283.4646,243.7795"/>
    <polyline points="249.4341,209.1535 250.0591,208.841 250.0591,208.841 250.9966,207.9035 250.9966,207.9035 250.9966,214.466"/>
    <polyline points="255.3716,207.9035 258.8091,207.9035 258.8091,207.9035 256.9341,210.4035 256.9341,210.4035 257.8716,210.4035 257.8716,210.4035 258.4966,210.716 258.4966,210.716 258.8091,211.0285 258.8091,211.0285 259.1216,211.966 259.1216,211.966 259.1216,212.591 259.1216,212.591 258.8091,213.5285 258.8091,213.5285 258.1841,214.1535 258.1841,214.1535 257.2466,214.466 257.2466,214.466 256.3091,214.466 256.3091,214.466 255.3716,214.1535 255.3716,214.1535 255.0591,213.841 255.0591,213.841 254.7466,213.216"/>
    <polyline points="270.8169,219.2569 269.5669,218.0069 269.5669,218.0069 267.6919,217.3819 267.6919,217.3819 265.1919,217.3819 265.1919,217.3819 263.3169,218.0069 263.3169,218.0069 262.0669,219.2569 262.0669,219.2569 262.0669,220.5069 262.0669,220.5069 262.6919,221.7569 262.6919,221.7569 263.3169,222.3819 263.3169,222.3819 264.5669,223.0069 264.5669,223.0069 268.3169,224.2569 268.3169,224.2569 269.5669,224.8819 269.5669,224.8819 270.1919,225.5069 270.1919,225.5069 270.8169,226.7569 270.8169,226.7569 270.8169,228.6319 270.8169,228.6319 269.5669,229.8819 269.5669,229.8819 267.6919,230.5069 267.6919,230.5069 265.1919,230.5069 265.1919,230.5069 263.3169,229.8819 263.3169,229.8819 262.0669,228.6319"/>
    <polyline points="362.8199,209.1535 363.4449,208.841 363.4449,208.841 364.3824,207.9035 364.3824,207.9035 364.3824,214.466"/>
    <polyline points="371.2574,214.466 371.2574,207.9035 371.2574,207.9035 368.1324,212.2785 368.1324,212.2785 372.8199,212.2785"/>
    <polyline points="375.4528,217.3819 384.2028,217.3819 384.2028,217.3819 375.4528,230.5069 375.4528,230.5069 384.2028,230.5069"/>
    <polygon points="416.373,217.3819 415.123,218.0069 415.123,218.0069 413.873,219.2569 413.873,219.2569 413.248,220.5069 413.248,220.5069 412.623,222.3819 412.623,222.3819 412.623,225.5069 412.623,225.5069 413.248,227.3819 413.248,227.3819 413.873,228.6319 413.873,228.6319 415.123,229.8819 415.123,229.8819 416.373,230.5069 416.373,230.5069 418.873,230.5069 418.873,230.5069 420.123,229.8819 420.123,229.8819 421.373,228.6319 421.373,228.6319 421.998,227.3819 421.998,227.3819 422.623,225.5069 422.623,225.5069 422.623,222.3819 422.623,222.3819 421.998,220.5069 421.998,220.5069 421.373,219.2569 421.373,219.2569 420.123,218.0069 420.123,218.0069 418.873,217.3819 418.873,217.3819"/>
    <polyline points="460.4183,217.3819 460.4183,230.5069 460.4183,230.5069 451.6683,217.3819 451.6683,217.3819 451.6683,230.5069"/>
    <line x1="548.0315" x2="548.0315" y1="243.7795" y2="205.9843"/>
    <polyline points="514.001,209.1535 514.626,208.841 514.626,208.841 515.5635,207.9035 515.5635,207.9035 515.5635,214.466"/>
    <polyline points="523.0635,207.9035 519.9385,207.9035 519.9385,207.9035 519.626,210.716 519.626,210.716 519.9385,210.4035 519.9385,210.4035 520.876,210.091 520.876,210.091 521.8135,210.091 521.8135,210.091 522.751,210.4035 522.751,210.4035 523.376,211.0285 523.376,211.0285 523.6885,211.966 523.6885,211.966 523.6885,212.591 523.6885,212.591 523.376,213.5285 523.376,213.5285 522.751,214.1535 522.751,214.1535 521.8135,214.466 521.8135,214.466 520.876,214.466 520.876,214.466 519.9385,214.1535 519.9385,214.1535 519.626,213.841 519.626,213.841 519.3135,213.216"/>
    <polyline points="535.6964,217.3819 527.5714,217.3819 527.5714,217.3819 527.5714,230.5069"/>
    <line x1="527.5714" x2="532.5714" y1="223.6319" y2="223.6319"/>
    <polyline points="573.4916,217.3819 565.3666,217.3819 565.3666,217.3819 565.3666,230.5069 565.3666,230.5069 573.4916,230.5069"/>
    <line x1="565.3666" x2="570.3666" y1="223.6319" y2="223.6319"/>
    <polyline points="585.8268,243.7795 623.622,243.7795 623.622,243.7795 623.622,281.5748 623.622,281.5748 623.622,319.3701 623.622,319.3701 661.4173,319.3701"/>
    <polyline points="603.4744,217.3819 603.4744,230.5069 603.4744,230.5069 610.9744,230.5069"/>
    <line x1="645.0197" x2="645.0197" y1="217.3819" y2="230.5069"/>
    <line x1="677.815" x2="686.565" y1="217.3819" y2="230.5069"/>
    <line x1="686.565" x2="677.815" y1="217.3819" y2="230.5069"/>
    <polyline points="762.468,220.5069 761.843,219.2569 761.843,219.2569 760.593,218.0069 760.593,218.0069 759.343,217.3819 759.343,217.3819 756.843,217.3819 756.843,217.3819 755.593,218.0069 755.593,218.0069 754.343,219.2569 754.343,219.2569 753.718,220.5069 753.718,220.5069 753.093,222.3819 753.093,222.3819 753.093,225.5069 753.093,225.5069 753.718,227.3819 753.718,227.3819 754.343,228.6319 754.343,228.6319 755.593,229.8819 755.593,229.8819 756.843,230.5069 756.843,230.5069 759.343,230.5069 759.343,230.5069 760.593,229.8819 760.593,229.8819 761.843,228.6319 761.843,228.6319 762.468,227.3819 762.468,227.3819 762.468,225.5069 762.468,225.5069 759.343,225.5069"/>
    <line x1="18.8976" x2="18.8976" y1="243.7795" y2="281.5748"/>
    <line x1="40.2953" x2="40.2953" y1="255.1772" y2="268.3022"/>
    <polygon points="151.8061,255.1772 150.5561,255.8022 150.5561,255.8022 149.3061,257.0522 149.3061,257.0522 148.6811,258.3022 148.6811,258.3022 148.0561,260.1772 148.0561,260.1772 148.0561,263.3022 148.0561,263.3022 148.6811,265.1772 148.6811,265.1772 149.3061,266.4272 149.3061,266.4272 150.5561,267.6772 150.5561,267.6772 151.8061,268.3022 151.8061,268.3022 154.3061,268.3022 154.3061,268.3022 155.5561,267.6772 155.5561,267.6772 156.8061,266.4272 156.8061,266.4272 157.4311,265.1772 157.4311,265.1772 158.0561,263.3022 158.0561,263.3022 158.0561,260.1772 158.0561,260.1772 157.4311,258.3022 157.4311,258.3022 156.8061,257.0522 156.8061,257.0522 155.5561,255.8022 155.5561,255.8022 154.3061,255.1772 154.3061,255.1772"/>
    <line x1="265.1919" x2="265.1919" y1="255.1772" y2="268.3022"/>
    <line x1="260.8169" x2="269.5669" y1="255.1772" y2="255.1772"/>
    <polyline points="422.3105,255.1772 414.1855,255.1772 414.1855,255.1772 414.1855,268.3022 414.1855,268.3022 422.3105,268.3022"/>
    <line x1="414.1855" x2="419.1855" y1="261.4272" y2="261.4272"/>
    <polyline points="649.0822,255.1772 640.9572,255.1772 640.9572,255.1772 640.9572,268.3022 640.9572,268.3022 649.0822,268.3022"/>
    <line x1="640.9572" x2="645.9572" y1="261.4272" y2="261.4272"/>
    <polyline points="737.0079,243.7795 737.0079,281.5748 737.0079,281.5748 699.2126,281.5748"/>
    <polyline points="774.8031,281.5748 774.8031,319.3701 774.8031,319.3701 774.8031,357.1654 774.8031,357.1654 737.0079,357.1654 737.0079,357.1654 737.0079,319.3701 737.0079,319.3701 737.0079,281.5748 737.0079,281.5748 774.8031,281.5748 774.8031,281.5748 774.8031,243.7795"/>
    <polyline points="754.0305,255.1772 754.0305,264.5522 754.0305,264.5522 754.6555,266.4272 754.6555,266.4272 755.9055,267.6772 755.9055,267.6772 757.7805,268.3022 757.7805,268.3022 759.0305,268.3022 759.0305,268.3022 760.9055,267.6772 760.9055,267.6772 762.1555,266.4272 762.1555,266.4272 762.7805,264.5522 762.7805,264.5522 762.7805,255.1772"/>
    <line x1="18.8976" x2="56.6929" y1="319.3701" y2="319.3701"/>
    <polyline points="35.9203,299.8474 41.5453,299.8474 41.5453,299.8474 43.4203,299.2224 43.4203,299.2224 44.0453,298.5974 44.0453,298.5974 44.6703,297.3474 44.6703,297.3474 44.6703,295.4724 44.6703,295.4724 44.0453,294.2224 44.0453,294.2224 43.4203,293.5974 43.4203,293.5974 41.5453,292.9724 41.5453,292.9724 35.9203,292.9724 35.9203,292.9724 35.9203,306.0974"/>
    <polyline points="132.2835,281.5748 132.2835,319.3701 132.2835,319.3701 132.2835,357.1654 132.2835,357.1654 170.0787,357.1654 170.0787,357.1654 170.0787,319.3701 170.0787,319.3701 170.0787,281.5748"/>
    <line x1="132.2835" x2="170.0787" y1="319.3701" y2="319.3701"/>
    <polyline points="149.3061,292.9724 149.3061,302.3474 149.3061,302.3474 149.9311,304.2224 149.9311,304.2224 151.1811,305.4724 151.1811,305.4724 153.0561,306.0974 153.0561,306.0974 154.3061,306.0974 154.3061,306.0974 156.1811,305.4724 156.1811,305.4724 157.4311,304.2224 157.4311,304.2224 158.0561,302.3474 158.0561,302.3474 158.0561,292.9724"/>
    <polygon points="207.874,281.5748 207.874,319.3701 207.874,319.3701 245.6693,319.3701 245.6693,319.3701 245.6693,281.5748 245.6693,281.5748"/>
    <polyline points="211.6388,284.7441 212.2638,284.4316 212.2638,284.4316 213.2013,283.4941 213.2013,283.4941 213.2013,290.0566"/>
    <polyline points="221.0138,284.4316 220.7013,283.8066 220.7013,283.8066 219.7638,283.4941 219.7638,283.4941 219.1388,283.4941 219.1388,283.4941 218.2013,283.8066 218.2013,283.8066 217.5763,284.7441 217.5763,284.7441 217.2638,286.3066 217.2638,286.3066 217.2638,287.8691 217.2638,287.8691 217.5763,289.1191 217.5763,289.1191 218.2013,289.7441 218.2013,289.7441 219.1388,290.0566 219.1388,290.0566 219.4513,290.0566 219.4513,290.0566 220.3888,289.7441 220.3888,289.7441 221.0138,289.1191 221.0138,289.1191 221.3263,288.1816 221.3263,288.1816 221.3263,287.8691 221.3263,287.8691 221.0138,286.9316 221.0138,286.9316 220.3888,286.3066 220.3888,286.3066 219.4513,285.9941 219.4513,285.9941 219.1388,285.9941 219.1388,285.9941 218.2013,286.3066 218.2013,286.3066 217.5763,286.9316 217.5763,286.9316 217.2638,287.8691"/>
    <polyline points="222.3967,292.9724 227.3967,306.0974 227.3967,306.0974 232.3967,292.9724"/>
    <polygon points="245.6693,319.3701 283.4646,319.3701 283.4646,319.3701 283.4646,357.1654 283.4646,357.1654 245.6693,357.1654 245.6693,357.1654"/>
    <polyline points="271.1294,292.9724 263.0044,292.9724 263.0044,292.9724 263.0044,306.0974 263.0044,306.0974 271.1294,306.0974"/>
    <line x1="263.0044" x2="268.0044" y1="299.2224" y2="299.2224"/>
    <polyline points="301.1122,292.9724 301.1122,306.0974 301.1122,306.0974 308.6122,306.0974"/>
    <polyline points="321.2598,319.3701 359.0551,319.3701 359.0551,319.3701 359.0551,281.5748"/>
    <polyline points="338.9075,292.9724 338.9075,306.0974 338.9075,306.0974 346.4075,306.0974"/>
    <line x1="359.0551" x2="396.8504" y1="319.3701" y2="319.3701"/>
    <polyline points="384.5153,292.9724 376.3903,292.9724 376.3903,292.9724 376.3903,306.0974 376.3903,306.0974 384.5153,306.0974"/>
    <line x1="376.3903" x2="381.3903" y1="299.2224" y2="299.2224"/>
    <line x1="413.873" x2="413.873" y1="292.9724" y2="306.0974"/>
    <line x1="422.623" x2="413.873" y1="292.9724" y2="301.7224"/>
    <line x1="416.998" x2="422.623" y1="298.5974" y2="306.0974"/>
    <polyline points="460.1058,292.9724 451.9808,292.9724 451.9808,292.9724 451.9808,306.0974 451.9808,306.0974 460.1058,306.0974"/>
    <line x1="451.9808" x2="456.9808" y1="299.2224" y2="299.2224"/>
    <polyline points="551.7963,284.7441 552.4213,284.4316 552.4213,284.4316 553.3588,283.4941 553.3588,283.4941 553.3588,290.0566"/>
    <polyline points="557.1088,283.4941 561.4838,283.4941 561.4838,283.4941 558.3588,290.0566"/>
    <polygon points="565.0541,292.9724 565.0541,306.0974 565.0541,306.0974 569.4291,306.0974 569.4291,306.0974 571.3041,305.4724 571.3041,305.4724 572.5541,304.2224 572.5541,304.2224 573.1791,302.9724 573.1791,302.9724 573.8041,301.0974 573.8041,301.0974 573.8041,297.9724 573.8041,297.9724 573.1791,296.0974 573.1791,296.0974 572.5541,294.8474 572.5541,294.8474 571.3041,293.5974 571.3041,293.5974 569.4291,292.9724 569.4291,292.9724"/>
    <line x1="585.8268" x2="623.622" y1="319.3701" y2="319.3701"/>
    <polyline points="611.2869,292.9724 603.1619,292.9724 603.1619,292.9724 603.1619,306.0974 603.1619,306.0974 611.2869,306.0974"/>
    <line x1="603.1619" x2="608.1619" y1="299.2224" y2="299.2224"/>
    <polyline points="649.3947,292.9724 649.3947,306.0974 649.3947,306.0974 640.6447,292.9724 640.6447,292.9724 640.6447,306.0974"/>
    <polyline points="687.19,292.9724 687.19,306.0974 687.19,306.0974 678.44,292.9724 678.44,292.9724 678.44,306.0974"/>
    <polyline points="699.2126,319.3701 737.0079,319.3701 737.0079,319.3701 774.8031,319.3701"/>
    <line x1="720.6102" x2="720.6102" y1="292.9724" y2="306.0974"/>
    <polyline points="762.1555,294.8474 760.9055,293.5974 760.9055,293.5974 759.0305,292.9724 759.0305,292.9724 756.5305,292.9724 756.5305,292.9724 754.6555,293.5974 754.6555,293.5974 753.4055,294.8474 753.4055,294.8474 753.4055,296.0974 753.4055,296.0974 754.0305,297.3474 754.0305,297.3474 754.6555,297.9724 754.6555,297.9724 755.9055,298.5974 755.9055,298.5974 759.6555,299.8474 759.6555,299.8474 760.9055,300.4724 760.9055,300.4724 761.5305,301.0974 761.5305,301.0974 762.1555,302.3474 762.1555,302.3474 762.1555,304.2224 762.1555,304.2224 760.9055,305.4724 760.9055,305.4724 759.0305,306.0974 759.0305,306.0974 756.5305,306.0974 756.5305,306.0974 754.6555,305.4724 754.6555,305.4724 753.4055,304.2224"/>
    <line x1="40.2953" x2="40.2953" y1="330.7677" y2="343.8927"/>
    <polyline points="157.4311,332.6427 156.1811,331.3927 156.1811,331.3927 154.3061,330.7677 154.3061,330.7677 151.8061,330.7677 151.8061,330.7677 149.9311,331.3927 149.9311,331.3927 148.6811,332.6427 148.6811,332.6427 148.6811,333.8927 148.6811,333.8927 149.3061,335.1427 149.3061,335.1427 149.9311,335.7677 149.9311,335.7677 151.1811,336.3927 151.1811,336.3927 154.9311,337.6427 154.9311,337.6427 156.1811,338.2677 156.1811,338.2677 156.8061,338.8927 156.8061,338.8927 157.4311,340.1427 157.4311,340.1427 157.4311,342.0177 157.4311,342.0177 156.1811,343.2677 156.1811,343.2677 154.3061,343.8927 154.3061,343.8927 151.8061,343.8927 151.8061,343.8927 149.9311,343.2677 149.9311,343.2677 148.6811,342.0177"/>
    <polyline points="262.6919,337.0177 268.3169,337.0177 268.3169,337.0177 270.1919,336.3927 270.1919,336.3927 270.8169,335.7677 270.8169,335.7677 271.4419,334.5177 271.4419,334.5177 271.4419,333.2677 271.4419,333.2677 270.8169,332.0177 270.8169,332.0177 270.1919,331.3927 270.1919,331.3927 268.3169,330.7677 268.3169,330.7677 262.6919,330.7677 262.6919,330.7677 262.6919,343.8927"/>
    <line x1="267.0669" x2="271.4419" y1="337.0177" y2="343.8927"/>
    <line x1="756.5305" x2="756.5305" y1="330.7677" y2="343.8927"/>
    <line x1="752.1555" x2="760.9055" y1="330.7677" y2="330.7677"/>
  </g>
</svg>
