<?xml version="1.0" encoding="utf-8" ?>
<svg xmlns="http://www.w3.org/2000/svg" xmlns:cc="http://creativecommons.org/ns" xmlns:dc="http://purl.org/dc/elements/1.1/" xmlns:ev="http://www.w3.org/2001/xml-events" xmlns:inkscape="http://www.inkscape.org/namespaces/inkscape" xmlns:rdf="http://www.w3.org/1999/02/22-rdf-syntax-ns" xmlns:sodipodi="http://sodipodi.sourceforge.net/DTD/sodipodi-0.dtd" xmlns:xlink="http://www.w3.org/1999/xlink" baseProfile="tiny" height="9.9cm" version="1.2" viewBox="0 0 793.7007874015749 374.1732283464567" width="21.0cm">
  <metadata>
    <rdf:RDF>
      <cc:Work>
        <dc:format>image/svg+xml</dc:format>
        <dc:source>vpype eval 'cell=10;width=210;height=99' eval 'nCols=20;nRows=9' eval 'cells=[4,5,6,7,12,13,14,15,16,17,18,19,27,30,36,40,41,42,43,44,45,47,50,52,53,54,55,56,57,58,59,64,66,67,68,69,70,72,74,76,81,84,90,91,92,93,94,96,97,98,99,101,104,105,106,107,108,109,110,112,114,116,119,121,124,127,130,132,136,139,140,141,142,143,144,145,147,150,151,152,153,154,155,156,157,159,167,172]' eval 'chars=[&quot;K&quot;,&quot;O&quot;,&quot;U&quot;,&quot;S&quot;,&quot;M&quot;,&quot;A&quot;,&quot;T&quot;,&quot;T&quot;,&quot;H&quot;,&quot;I&quot;,&quot;A&quot;,&quot;S&quot;,&quot;T&quot;,&quot;P&quot;,&quot;A&quot;,&quot;L&quot;,&quot;O&quot;,&quot;U&quot;,&quot;I&quot;,&quot;S&quot;,&quot;E&quot;,&quot;E&quot;,&quot;I&quot;,&quot;R&quot;,&quot;E&quot;,&quot;G&quot;,&quot;E&quot;,&quot;N&quot;,&quot;B&quot;,&quot;U&quot;,&quot;I&quot;,&quot;Y&quot;,&quot;G&quot;,&quot;R&quot;,&quot;O&quot;,&quot;E&quot;,&quot;N&quot;,&quot;E&quot;,&quot;R&quot;,&quot;D&quot;,&quot;E&quot;,&quot;L&quot;,&quot;K&quot;,&quot;A&quot;,&quot;S&quot;,&quot;S&quot;,&quot;A&quot;,&quot;D&quot;,&quot;R&quot;,&quot;O&quot;,&quot;P&quot;,&quot;M&quot;,&quot;V&quot;,&quot;E&quot;,&quot;L&quot;,&quot;L&quot;,&quot;E&quot;,&quot;K&quot;,&quot;E&quot;,&quot;T&quot;,&quot;S&quot;,&quot;O&quot;,&quot;I&quot;,&quot;M&quot;,&quot;I&quot;,&quot;I&quot;,&quot;R&quot;,&quot;J&quot;,&quot;E&quot;,&quot;P&quot;,&quot;X&quot;,&quot;A&quot;,&quot;N&quot;,&quot;D&quot;,&quot;E&quot;,&quot;R&quot;,&quot;F&quot;,&quot;S&quot;,&quot;K&quot;,&quot;E&quot;,&quot;L&quot;,&quot;L&quot;,&quot;E&quot;,&quot;K&quot;,&quot;E&quot;,&quot;I&quot;,&quot;T&quot;,&quot;S&quot;]' eval 'numbers=[4,7,12,16,30,40,44,52,54,66,81,90,96,99,104,107,140,150]' eval counter=1 eval charIndex=0 begin grid -o '%cell*mm%' '%cell*mm%' %nCols% %nRows% eval '%isCell=_i in cells%' eval '%number=_i in numbers%' eval '%size=10 if isCell else 0%' rect 0 0 '%size*mm%' '%size*mm%' text -s 10 -p 0.5mm 1.5mm '%counter if number else '&quot;'&quot;''&quot;'&quot;'%' text -s 20 -p 5mm 5mm -a center '%chars[charIndex] if isCell else '&quot;'&quot;''&quot;'&quot;'%' eval '%if number: counter+=1 %' eval '%if isCell: charIndex+=1 %' end splitall deduplicate linemerge --tolerance 0.1mm write -m none --page-size '%width*mm%x%height*mm%' --center ./svgs/solution/caace2.svg
</dc:source>
        <dc:date>2023-12-29T10:02:45.314461</dc:date>
      </cc:Work>
    </rdf:RDF>
  </metadata>
  <defs/>
  <g fill="none" id="layer1" inkscape:groupmode="layer" inkscape:label="1" stroke="#000000" style="display:inline">
    <polygon points="170.0787,17.0079 170.0787,54.8031 170.0787,54.8031 207.874,54.8031 207.874,54.8031 245.6693,54.8031 245.6693,54.8031 245.6693,17.0079 245.6693,17.0079 207.874,17.0079 207.874,17.0079"/>
    <line x1="207.874" x2="207.874" y1="54.8031" y2="17.0079"/>
    <polyline points="173.8435,20.1772 174.4685,19.8647 174.4685,19.8647 175.406,18.9272 175.406,18.9272 175.406,25.4897"/>
    <line x1="187.1014" x2="187.1014" y1="28.4055" y2="41.5305"/>
    <line x1="195.8514" x2="187.1014" y1="28.4055" y2="37.1555"/>
    <line x1="190.2264" x2="195.8514" y1="34.0305" y2="41.5305"/>
    <polygon points="227.3967,28.4055 226.1467,29.0305 226.1467,29.0305 224.8967,30.2805 224.8967,30.2805 224.2717,31.5305 224.2717,31.5305 223.6467,33.4055 223.6467,33.4055 223.6467,36.5305 223.6467,36.5305 224.2717,38.4055 224.2717,38.4055 224.8967,39.6555 224.8967,39.6555 226.1467,40.9055 226.1467,40.9055 227.3967,41.5305 227.3967,41.5305 229.8967,41.5305 229.8967,41.5305 231.1467,40.9055 231.1467,40.9055 232.3967,39.6555 232.3967,39.6555 233.0217,38.4055 233.0217,38.4055 233.6467,36.5305 233.6467,36.5305 233.6467,33.4055 233.6467,33.4055 233.0217,31.5305 233.0217,31.5305 232.3967,30.2805 232.3967,30.2805 231.1467,29.0305 231.1467,29.0305 229.8967,28.4055 229.8967,28.4055"/>
    <polyline points="245.6693,54.8031 283.4646,54.8031 283.4646,54.8031 283.4646,92.5984 283.4646,92.5984 283.4646,130.3937 283.4646,130.3937 321.2598,130.3937 321.2598,130.3937 321.2598,92.5984 321.2598,92.5984 321.2598,54.8031 321.2598,54.8031 321.2598,17.0079 321.2598,17.0079 283.4646,17.0079 283.4646,17.0079 245.6693,17.0079"/>
    <polyline points="321.2598,54.8031 283.4646,54.8031 283.4646,54.8031 283.4646,17.0079"/>
    <polyline points="262.6919,28.4055 262.6919,37.7805 262.6919,37.7805 263.3169,39.6555 263.3169,39.6555 264.5669,40.9055 264.5669,40.9055 266.4419,41.5305 266.4419,41.5305 267.6919,41.5305 267.6919,41.5305 269.5669,40.9055 269.5669,40.9055 270.8169,39.6555 270.8169,39.6555 271.4419,37.7805 271.4419,37.7805 271.4419,28.4055"/>
    <polyline points="286.6043,20.4897 286.6043,20.1772 286.6043,20.1772 286.9168,19.5522 286.9168,19.5522 287.2293,19.2397 287.2293,19.2397 287.8543,18.9272 287.8543,18.9272 289.1043,18.9272 289.1043,18.9272 289.7293,19.2397 289.7293,19.2397 290.0418,19.5522 290.0418,19.5522 290.3543,20.1772 290.3543,20.1772 290.3543,20.8022 290.3543,20.8022 290.0418,21.4272 290.0418,21.4272 289.4168,22.3647 289.4168,22.3647 286.2918,25.4897 286.2918,25.4897 290.6668,25.4897"/>
    <polyline points="308.6122,30.2805 307.3622,29.0305 307.3622,29.0305 305.4872,28.4055 305.4872,28.4055 302.9872,28.4055 302.9872,28.4055 301.1122,29.0305 301.1122,29.0305 299.8622,30.2805 299.8622,30.2805 299.8622,31.5305 299.8622,31.5305 300.4872,32.7805 300.4872,32.7805 301.1122,33.4055 301.1122,33.4055 302.3622,34.0305 302.3622,34.0305 306.1122,35.2805 306.1122,35.2805 307.3622,35.9055 307.3622,35.9055 307.9872,36.5305 307.9872,36.5305 308.6122,37.7805 308.6122,37.7805 308.6122,39.6555 308.6122,39.6555 307.3622,40.9055 307.3622,40.9055 305.4872,41.5305 305.4872,41.5305 302.9872,41.5305 302.9872,41.5305 301.1122,40.9055 301.1122,40.9055 299.8622,39.6555"/>
    <polygon points="472.4409,17.0079 472.4409,54.8031 472.4409,54.8031 510.2362,54.8031 510.2362,54.8031 510.2362,17.0079 510.2362,17.0079"/>
    <polyline points="475.8932,18.9272 479.3307,18.9272 479.3307,18.9272 477.4557,21.4272 477.4557,21.4272 478.3932,21.4272 478.3932,21.4272 479.0182,21.7397 479.0182,21.7397 479.3307,22.0522 479.3307,22.0522 479.6432,22.9897 479.6432,22.9897 479.6432,23.6147 479.6432,23.6147 479.3307,24.5522 479.3307,24.5522 478.7057,25.1772 478.7057,25.1772 477.7682,25.4897 477.7682,25.4897 476.8307,25.4897 476.8307,25.4897 475.8932,25.1772 475.8932,25.1772 475.5807,24.8647 475.5807,24.8647 475.2682,24.2397"/>
    <polyline points="498.8386,41.5305 498.8386,28.4055 498.8386,28.4055 493.8386,41.5305 493.8386,41.5305 488.8386,28.4055 488.8386,28.4055 488.8386,41.5305"/>
    <polyline points="510.2362,54.8031 548.0315,54.8031 548.0315,54.8031 585.8268,54.8031 585.8268,54.8031 585.8268,17.0079 585.8268,17.0079 548.0315,17.0079 548.0315,17.0079 510.2362,17.0079"/>
    <line x1="548.0315" x2="548.0315" y1="54.8031" y2="17.0079"/>
    <polyline points="534.7589,41.5305 529.7589,28.4055 529.7589,28.4055 524.7589,41.5305"/>
    <line x1="526.6339" x2="532.8839" y1="37.1555" y2="37.1555"/>
    <line x1="567.5541" x2="567.5541" y1="28.4055" y2="41.5305"/>
    <line x1="563.1791" x2="571.9291" y1="28.4055" y2="28.4055"/>
    <polyline points="585.8268,54.8031 623.622,54.8031 623.622,54.8031 623.622,92.5984 623.622,92.5984 661.4173,92.5984 661.4173,92.5984 661.4173,54.8031 661.4173,54.8031 661.4173,17.0079 661.4173,17.0079 623.622,17.0079 623.622,17.0079 585.8268,17.0079"/>
    <polyline points="661.4173,17.0079 699.2126,17.0079 699.2126,17.0079 699.2126,54.8031 699.2126,54.8031 661.4173,54.8031 661.4173,54.8031 623.622,54.8031 623.622,54.8031 623.622,17.0079"/>
    <line x1="605.3494" x2="605.3494" y1="28.4055" y2="41.5305"/>
    <line x1="600.9744" x2="609.7244" y1="28.4055" y2="28.4055"/>
    <polyline points="629.5743,25.4897 629.5743,18.9272 629.5743,18.9272 626.4493,23.3022 626.4493,23.3022 631.1368,23.3022"/>
    <line x1="640.6447" x2="640.6447" y1="28.4055" y2="41.5305"/>
    <line x1="649.3947" x2="649.3947" y1="28.4055" y2="41.5305"/>
    <line x1="640.6447" x2="649.3947" y1="34.6555" y2="34.6555"/>
    <line x1="682.815" x2="682.815" y1="28.4055" y2="41.5305"/>
    <polyline points="699.2126,54.8031 737.0079,54.8031 737.0079,54.8031 737.0079,17.0079 737.0079,17.0079 699.2126,17.0079"/>
    <polyline points="723.7352,41.5305 718.7352,28.4055 718.7352,28.4055 713.7352,41.5305"/>
    <line x1="715.6102" x2="721.8602" y1="37.1555" y2="37.1555"/>
    <polyline points="737.0079,54.8031 774.8031,54.8031 774.8031,54.8031 774.8031,17.0079 774.8031,17.0079 737.0079,17.0079"/>
    <polyline points="762.1555,30.2805 760.9055,29.0305 760.9055,29.0305 759.0305,28.4055 759.0305,28.4055 756.5305,28.4055 756.5305,28.4055 754.6555,29.0305 754.6555,29.0305 753.4055,30.2805 753.4055,30.2805 753.4055,31.5305 753.4055,31.5305 754.0305,32.7805 754.0305,32.7805 754.6555,33.4055 754.6555,33.4055 755.9055,34.0305 755.9055,34.0305 759.6555,35.2805 759.6555,35.2805 760.9055,35.9055 760.9055,35.9055 761.5305,36.5305 761.5305,36.5305 762.1555,37.7805 762.1555,37.7805 762.1555,39.6555 762.1555,39.6555 760.9055,40.9055 760.9055,40.9055 759.0305,41.5305 759.0305,41.5305 756.5305,41.5305 756.5305,41.5305 754.6555,40.9055 754.6555,40.9055 753.4055,39.6555"/>
    <line x1="283.4646" x2="321.2598" y1="92.5984" y2="92.5984"/>
    <line x1="302.9872" x2="302.9872" y1="66.2008" y2="79.3258"/>
    <line x1="298.6122" x2="307.3622" y1="66.2008" y2="66.2008"/>
    <polygon points="396.8504,54.8031 396.8504,92.5984 396.8504,92.5984 396.8504,130.3937 396.8504,130.3937 359.0551,130.3937 359.0551,130.3937 321.2598,130.3937 321.2598,130.3937 321.2598,168.189 321.2598,168.189 359.0551,168.189 359.0551,168.189 396.8504,168.189 396.8504,168.189 396.8504,205.9843 396.8504,205.9843 434.6457,205.9843 434.6457,205.9843 434.6457,168.189 434.6457,168.189 434.6457,130.3937 434.6457,130.3937 434.6457,92.5984 434.6457,92.5984 434.6457,54.8031 434.6457,54.8031"/>
    <line x1="396.8504" x2="434.6457" y1="92.5984" y2="92.5984"/>
    <polyline points="403.4277,56.7224 400.3027,56.7224 400.3027,56.7224 399.9902,59.5349 399.9902,59.5349 400.3027,59.2224 400.3027,59.2224 401.2402,58.9099 401.2402,58.9099 402.1777,58.9099 402.1777,58.9099 403.1152,59.2224 403.1152,59.2224 403.7402,59.8474 403.7402,59.8474 404.0527,60.7849 404.0527,60.7849 404.0527,61.4099 404.0527,61.4099 403.7402,62.3474 403.7402,62.3474 403.1152,62.9724 403.1152,62.9724 402.1777,63.2849 402.1777,63.2849 401.2402,63.2849 401.2402,63.2849 400.3027,62.9724 400.3027,62.9724 399.9902,62.6599 399.9902,62.6599 399.6777,62.0349"/>
    <polyline points="413.873,73.0758 419.498,73.0758 419.498,73.0758 421.373,72.4508 421.373,72.4508 421.998,71.8258 421.998,71.8258 422.623,70.5758 422.623,70.5758 422.623,68.7008 422.623,68.7008 421.998,67.4508 421.998,67.4508 421.373,66.8258 421.373,66.8258 419.498,66.2008 419.498,66.2008 413.873,66.2008 413.873,66.2008 413.873,79.3258"/>
    <polyline points="648.1447,79.3258 643.1447,66.2008 643.1447,66.2008 638.1447,79.3258"/>
    <line x1="640.0197" x2="646.2697" y1="74.9508" y2="74.9508"/>
    <polygon points="18.8976,92.5984 18.8976,130.3937 18.8976,130.3937 56.6929,130.3937 56.6929,130.3937 94.4882,130.3937 94.4882,130.3937 132.2835,130.3937 132.2835,130.3937 132.2835,92.5984 132.2835,92.5984 94.4882,92.5984 94.4882,92.5984 56.6929,92.5984 56.6929,92.5984"/>
    <line x1="56.6929" x2="56.6929" y1="130.3937" y2="92.5984"/>
    <polyline points="25.7874,95.4552 25.4749,94.8302 25.4749,94.8302 24.5374,94.5177 24.5374,94.5177 23.9124,94.5177 23.9124,94.5177 22.9749,94.8302 22.9749,94.8302 22.3499,95.7677 22.3499,95.7677 22.0374,97.3302 22.0374,97.3302 22.0374,98.8927 22.0374,98.8927 22.3499,100.1427 22.3499,100.1427 22.9749,100.7677 22.9749,100.7677 23.9124,101.0802 23.9124,101.0802 24.2249,101.0802 24.2249,101.0802 25.1624,100.7677 25.1624,100.7677 25.7874,100.1427 25.7874,100.1427 26.0999,99.2052 26.0999,99.2052 26.0999,98.8927 26.0999,98.8927 25.7874,97.9552 25.7874,97.9552 25.1624,97.3302 25.1624,97.3302 24.2249,97.0177 24.2249,97.0177 23.9124,97.0177 23.9124,97.0177 22.9749,97.3302 22.9749,97.3302 22.3499,97.9552 22.3499,97.9552 22.0374,98.8927"/>
    <polyline points="36.5453,103.9961 36.5453,117.1211 36.5453,117.1211 44.0453,117.1211"/>
    <line x1="94.4882" x2="94.4882" y1="130.3937" y2="92.5984"/>
    <polygon points="76.2156,103.9961 74.9656,104.6211 74.9656,104.6211 73.7156,105.8711 73.7156,105.8711 73.0906,107.1211 73.0906,107.1211 72.4656,108.9961 72.4656,108.9961 72.4656,112.1211 72.4656,112.1211 73.0906,113.9961 73.0906,113.9961 73.7156,115.2461 73.7156,115.2461 74.9656,116.4961 74.9656,116.4961 76.2156,117.1211 76.2156,117.1211 78.7156,117.1211 78.7156,117.1211 79.9656,116.4961 79.9656,116.4961 81.2156,115.2461 81.2156,115.2461 81.8406,113.9961 81.8406,113.9961 82.4656,112.1211 82.4656,112.1211 82.4656,108.9961 82.4656,108.9961 81.8406,107.1211 81.8406,107.1211 81.2156,105.8711 81.2156,105.8711 79.9656,104.6211 79.9656,104.6211 78.7156,103.9961 78.7156,103.9961"/>
    <polyline points="111.5108,103.9961 111.5108,113.3711 111.5108,113.3711 112.1358,115.2461 112.1358,115.2461 113.3858,116.4961 113.3858,116.4961 115.2608,117.1211 115.2608,117.1211 116.5108,117.1211 116.5108,117.1211 118.3858,116.4961 118.3858,116.4961 119.6358,115.2461 119.6358,115.2461 120.2608,113.3711 120.2608,113.3711 120.2608,103.9961"/>
    <polyline points="132.2835,130.3937 170.0787,130.3937 170.0787,130.3937 207.874,130.3937 207.874,130.3937 207.874,92.5984 207.874,92.5984 170.0787,92.5984 170.0787,92.5984 132.2835,92.5984"/>
    <polyline points="207.874,92.5984 245.6693,92.5984 245.6693,92.5984 245.6693,130.3937 245.6693,130.3937 207.874,130.3937 207.874,130.3937 207.874,168.189 207.874,168.189 170.0787,168.189 170.0787,168.189 170.0787,130.3937 170.0787,130.3937 170.0787,92.5984"/>
    <line x1="153.6811" x2="153.6811" y1="103.9961" y2="117.1211"/>
    <polyline points="172.906,94.5177 177.281,94.5177 177.281,94.5177 174.156,101.0802"/>
    <polyline points="195.2264,105.8711 193.9764,104.6211 193.9764,104.6211 192.1014,103.9961 192.1014,103.9961 189.6014,103.9961 189.6014,103.9961 187.7264,104.6211 187.7264,104.6211 186.4764,105.8711 186.4764,105.8711 186.4764,107.1211 186.4764,107.1211 187.1014,108.3711 187.1014,108.3711 187.7264,108.9961 187.7264,108.9961 188.9764,109.6211 188.9764,109.6211 192.7264,110.8711 192.7264,110.8711 193.9764,111.4961 193.9764,111.4961 194.6014,112.1211 194.6014,112.1211 195.2264,113.3711 195.2264,113.3711 195.2264,115.2461 195.2264,115.2461 193.9764,116.4961 193.9764,116.4961 192.1014,117.1211 192.1014,117.1211 189.6014,117.1211 189.6014,117.1211 187.7264,116.4961 187.7264,116.4961 186.4764,115.2461"/>
    <polyline points="233.3342,103.9961 225.2092,103.9961 225.2092,103.9961 225.2092,117.1211 225.2092,117.1211 233.3342,117.1211"/>
    <line x1="225.2092" x2="230.2092" y1="110.2461" y2="110.2461"/>
    <polyline points="308.9247,103.9961 300.7997,103.9961 300.7997,103.9961 300.7997,117.1211 300.7997,117.1211 308.9247,117.1211"/>
    <line x1="300.7997" x2="305.7997" y1="110.2461" y2="110.2461"/>
    <polyline points="510.2362,92.5984 510.2362,130.3937 510.2362,130.3937 472.4409,130.3937 472.4409,130.3937 472.4409,92.5984 472.4409,92.5984 510.2362,92.5984 510.2362,92.5984 548.0315,92.5984 548.0315,92.5984 585.8268,92.5984 585.8268,92.5984 585.8268,130.3937 585.8268,130.3937 585.8268,168.189 585.8268,168.189 585.8268,205.9843 585.8268,205.9843 585.8268,243.7795 585.8268,243.7795 548.0315,243.7795 548.0315,243.7795 548.0315,205.9843 548.0315,205.9843 510.2362,205.9843 510.2362,205.9843 510.2362,168.189 510.2362,168.189 548.0315,168.189 548.0315,168.189 548.0315,130.3937 548.0315,130.3937 510.2362,130.3937 510.2362,130.3937 510.2362,168.189 510.2362,168.189 472.4409,168.189 472.4409,168.189 434.6457,168.189 434.6457,168.189 396.8504,168.189 396.8504,168.189 396.8504,130.3937 396.8504,130.3937 434.6457,130.3937"/>
    <line x1="418.248" x2="418.248" y1="103.9961" y2="117.1211"/>
    <polygon points="476.8307,94.5177 475.8932,94.8302 475.8932,94.8302 475.5807,95.4552 475.5807,95.4552 475.5807,96.0802 475.5807,96.0802 475.8932,96.7052 475.8932,96.7052 476.5182,97.0177 476.5182,97.0177 477.7682,97.3302 477.7682,97.3302 478.7057,97.6427 478.7057,97.6427 479.3307,98.2677 479.3307,98.2677 479.6432,98.8927 479.6432,98.8927 479.6432,99.8302 479.6432,99.8302 479.3307,100.4552 479.3307,100.4552 479.0182,100.7677 479.0182,100.7677 478.0807,101.0802 478.0807,101.0802 476.8307,101.0802 476.8307,101.0802 475.8932,100.7677 475.8932,100.7677 475.5807,100.4552 475.5807,100.4552 475.2682,99.8302 475.2682,99.8302 475.2682,98.8927 475.2682,98.8927 475.5807,98.2677 475.5807,98.2677 476.2057,97.6427 476.2057,97.6427 477.1432,97.3302 477.1432,97.3302 478.3932,97.0177 478.3932,97.0177 479.0182,96.7052 479.0182,96.7052 479.3307,96.0802 479.3307,96.0802 479.3307,95.4552 479.3307,95.4552 479.0182,94.8302 479.0182,94.8302 478.0807,94.5177 478.0807,94.5177"/>
    <polyline points="489.4636,110.2461 495.0886,110.2461 495.0886,110.2461 496.9636,109.6211 496.9636,109.6211 497.5886,108.9961 497.5886,108.9961 498.2136,107.7461 498.2136,107.7461 498.2136,106.4961 498.2136,106.4961 497.5886,105.2461 497.5886,105.2461 496.9636,104.6211 496.9636,104.6211 495.0886,103.9961 495.0886,103.9961 489.4636,103.9961 489.4636,103.9961 489.4636,117.1211"/>
    <line x1="493.8386" x2="498.2136" y1="110.2461" y2="117.1211"/>
    <polyline points="585.8268,92.5984 623.622,92.5984 623.622,92.5984 623.622,130.3937 623.622,130.3937 585.8268,130.3937 585.8268,130.3937 548.0315,130.3937 548.0315,130.3937 548.0315,92.5984"/>
    <polyline points="535.6964,103.9961 527.5714,103.9961 527.5714,103.9961 527.5714,117.1211 527.5714,117.1211 535.6964,117.1211"/>
    <line x1="527.5714" x2="532.5714" y1="110.2461" y2="110.2461"/>
    <polyline points="554.9213,96.7052 554.6088,97.6427 554.6088,97.6427 553.9838,98.2677 553.9838,98.2677 553.0463,98.5802 553.0463,98.5802 552.7338,98.5802 552.7338,98.5802 551.7963,98.2677 551.7963,98.2677 551.1713,97.6427 551.1713,97.6427 550.8588,96.7052 550.8588,96.7052 550.8588,96.3927 550.8588,96.3927 551.1713,95.4552 551.1713,95.4552 551.7963,94.8302 551.7963,94.8302 552.7338,94.5177 552.7338,94.5177 553.0463,94.5177 553.0463,94.5177 553.9838,94.8302 553.9838,94.8302 554.6088,95.4552 554.6088,95.4552 554.9213,96.7052 554.9213,96.7052 554.9213,98.2677 554.9213,98.2677 554.6088,99.8302 554.6088,99.8302 553.9838,100.7677 553.9838,100.7677 553.0463,101.0802 553.0463,101.0802 552.4213,101.0802 552.4213,101.0802 551.4838,100.7677 551.4838,100.7677 551.1713,100.1427"/>
    <polyline points="573.4916,107.1211 572.8666,105.8711 572.8666,105.8711 571.6166,104.6211 571.6166,104.6211 570.3666,103.9961 570.3666,103.9961 567.8666,103.9961 567.8666,103.9961 566.6166,104.6211 566.6166,104.6211 565.3666,105.8711 565.3666,105.8711 564.7416,107.1211 564.7416,107.1211 564.1166,108.9961 564.1166,108.9961 564.1166,112.1211 564.1166,112.1211 564.7416,113.9961 564.7416,113.9961 565.3666,115.2461 565.3666,115.2461 566.6166,116.4961 566.6166,116.4961 567.8666,117.1211 567.8666,117.1211 570.3666,117.1211 570.3666,117.1211 571.6166,116.4961 571.6166,116.4961 572.8666,115.2461 572.8666,115.2461 573.4916,113.9961 573.4916,113.9961 573.4916,112.1211 573.4916,112.1211 570.3666,112.1211"/>
    <polyline points="611.2869,103.9961 603.1619,103.9961 603.1619,103.9961 603.1619,117.1211 603.1619,117.1211 611.2869,117.1211"/>
    <line x1="603.1619" x2="608.1619" y1="110.2461" y2="110.2461"/>
    <polyline points="623.622,168.189 623.622,130.3937 623.622,130.3937 661.4173,130.3937 661.4173,130.3937 699.2126,130.3937 699.2126,130.3937 699.2126,92.5984 699.2126,92.5984 661.4173,92.5984 661.4173,92.5984 661.4173,130.3937 661.4173,130.3937 661.4173,168.189 661.4173,168.189 661.4173,205.9843 661.4173,205.9843 699.2126,205.9843 699.2126,205.9843 699.2126,168.189 699.2126,168.189 661.4173,168.189 661.4173,168.189 623.622,168.189 623.622,168.189 623.622,205.9843 623.622,205.9843 661.4173,205.9843 661.4173,205.9843 661.4173,243.7795 661.4173,243.7795 623.622,243.7795 623.622,243.7795 623.622,205.9843"/>
    <polyline points="649.3947,103.9961 649.3947,117.1211 649.3947,117.1211 640.6447,103.9961 640.6447,103.9961 640.6447,117.1211"/>
    <polyline points="684.065,110.2461 685.94,109.6211 685.94,109.6211 686.565,108.9961 686.565,108.9961 687.19,107.7461 687.19,107.7461 687.19,106.4961 687.19,106.4961 686.565,105.2461 686.565,105.2461 685.94,104.6211 685.94,104.6211 684.065,103.9961 684.065,103.9961 678.44,103.9961 678.44,103.9961 678.44,117.1211 678.44,117.1211 684.065,117.1211 684.065,117.1211 685.94,116.4961 685.94,116.4961 686.565,115.8711 686.565,115.8711 687.19,114.6211 687.19,114.6211 687.19,112.7461 687.19,112.7461 686.565,111.4961 686.565,111.4961 685.94,110.8711 685.94,110.8711 684.065,110.2461 684.065,110.2461 678.44,110.2461"/>
    <polyline points="699.2126,130.3937 737.0079,130.3937 737.0079,130.3937 774.8031,130.3937 774.8031,130.3937 774.8031,92.5984 774.8031,92.5984 737.0079,92.5984 737.0079,92.5984 699.2126,92.5984"/>
    <line x1="737.0079" x2="737.0079" y1="130.3937" y2="92.5984"/>
    <polyline points="716.2352,103.9961 716.2352,113.3711 716.2352,113.3711 716.8602,115.2461 716.8602,115.2461 718.1102,116.4961 718.1102,116.4961 719.9852,117.1211 719.9852,117.1211 721.2352,117.1211 721.2352,117.1211 723.1102,116.4961 723.1102,116.4961 724.3602,115.2461 724.3602,115.2461 724.9852,113.3711 724.9852,113.3711 724.9852,103.9961"/>
    <line x1="758.4055" x2="758.4055" y1="103.9961" y2="117.1211"/>
    <polyline points="184.6014,141.7913 189.6014,148.0413 189.6014,148.0413 189.6014,154.9163"/>
    <line x1="194.6014" x2="189.6014" y1="141.7913" y2="148.0413"/>
    <polygon points="245.6693,130.3937 245.6693,168.189 245.6693,168.189 283.4646,168.189 283.4646,168.189 283.4646,130.3937 283.4646,130.3937"/>
    <polyline points="249.4341,133.563 250.0591,133.2505 250.0591,133.2505 250.9966,132.313 250.9966,132.313 250.9966,138.8755"/>
    <polygon points="256.6216,132.313 255.6841,132.6255 255.6841,132.6255 255.0591,133.563 255.0591,133.563 254.7466,135.1255 254.7466,135.1255 254.7466,136.063 254.7466,136.063 255.0591,137.6255 255.0591,137.6255 255.6841,138.563 255.6841,138.563 256.6216,138.8755 256.6216,138.8755 257.2466,138.8755 257.2466,138.8755 258.1841,138.563 258.1841,138.563 258.8091,137.6255 258.8091,137.6255 259.1216,136.063 259.1216,136.063 259.1216,135.1255 259.1216,135.1255 258.8091,133.563 258.8091,133.563 258.1841,132.6255 258.1841,132.6255 257.2466,132.313 257.2466,132.313"/>
    <polyline points="271.1294,144.9163 270.5044,143.6663 270.5044,143.6663 269.2544,142.4163 269.2544,142.4163 268.0044,141.7913 268.0044,141.7913 265.5044,141.7913 265.5044,141.7913 264.2544,142.4163 264.2544,142.4163 263.0044,143.6663 263.0044,143.6663 262.3794,144.9163 262.3794,144.9163 261.7544,146.7913 261.7544,146.7913 261.7544,149.9163 261.7544,149.9163 262.3794,151.7913 262.3794,151.7913 263.0044,153.0413 263.0044,153.0413 264.2544,154.2913 264.2544,154.2913 265.5044,154.9163 265.5044,154.9163 268.0044,154.9163 268.0044,154.9163 269.2544,154.2913 269.2544,154.2913 270.5044,153.0413 270.5044,153.0413 271.1294,151.7913 271.1294,151.7913 271.1294,149.9163 271.1294,149.9163 268.0044,149.9163"/>
    <line x1="283.4646" x2="321.2598" y1="168.189" y2="168.189"/>
    <polyline points="300.4872,148.0413 306.1122,148.0413 306.1122,148.0413 307.9872,147.4163 307.9872,147.4163 308.6122,146.7913 308.6122,146.7913 309.2372,145.5413 309.2372,145.5413 309.2372,144.2913 309.2372,144.2913 308.6122,143.0413 308.6122,143.0413 307.9872,142.4163 307.9872,142.4163 306.1122,141.7913 306.1122,141.7913 300.4872,141.7913 300.4872,141.7913 300.4872,154.9163"/>
    <line x1="304.8622" x2="309.2372" y1="148.0413" y2="154.9163"/>
    <line x1="359.0551" x2="359.0551" y1="168.189" y2="130.3937"/>
    <polygon points="340.7825,141.7913 339.5325,142.4163 339.5325,142.4163 338.2825,143.6663 338.2825,143.6663 337.6575,144.9163 337.6575,144.9163 337.0325,146.7913 337.0325,146.7913 337.0325,149.9163 337.0325,149.9163 337.6575,151.7913 337.6575,151.7913 338.2825,153.0413 338.2825,153.0413 339.5325,154.2913 339.5325,154.2913 340.7825,154.9163 340.7825,154.9163 343.2825,154.9163 343.2825,154.9163 344.5325,154.2913 344.5325,154.2913 345.7825,153.0413 345.7825,153.0413 346.4075,151.7913 346.4075,151.7913 347.0325,149.9163 347.0325,149.9163 347.0325,146.7913 347.0325,146.7913 346.4075,144.9163 346.4075,144.9163 345.7825,143.6663 345.7825,143.6663 344.5325,142.4163 344.5325,142.4163 343.2825,141.7913 343.2825,141.7913"/>
    <polyline points="384.5153,141.7913 376.3903,141.7913 376.3903,141.7913 376.3903,154.9163 376.3903,154.9163 384.5153,154.9163"/>
    <line x1="376.3903" x2="381.3903" y1="148.0413" y2="148.0413"/>
    <polyline points="422.623,141.7913 422.623,154.9163 422.623,154.9163 413.873,141.7913 413.873,141.7913 413.873,154.9163"/>
    <polyline points="472.4409,130.3937 472.4409,168.189 472.4409,168.189 472.4409,205.9843 472.4409,205.9843 472.4409,243.7795 472.4409,243.7795 510.2362,243.7795 510.2362,243.7795 510.2362,205.9843 510.2362,205.9843 472.4409,205.9843 472.4409,205.9843 434.6457,205.9843 434.6457,205.9843 434.6457,243.7795 434.6457,243.7795 396.8504,243.7795 396.8504,243.7795 396.8504,205.9843 396.8504,205.9843 359.0551,205.9843 359.0551,205.9843 321.2598,205.9843 321.2598,205.9843 283.4646,205.9843 283.4646,205.9843 245.6693,205.9843 245.6693,205.9843 207.874,205.9843 207.874,205.9843 207.874,168.189"/>
    <polyline points="497.9011,141.7913 489.7761,141.7913 489.7761,141.7913 489.7761,154.9163 489.7761,154.9163 497.9011,154.9163"/>
    <line x1="489.7761" x2="494.7761" y1="148.0413" y2="148.0413"/>
    <polyline points="585.8268,205.9843 548.0315,205.9843 548.0315,205.9843 548.0315,168.189 548.0315,168.189 585.8268,168.189"/>
    <polyline points="565.0541,148.0413 570.6791,148.0413 570.6791,148.0413 572.5541,147.4163 572.5541,147.4163 573.1791,146.7913 573.1791,146.7913 573.8041,145.5413 573.8041,145.5413 573.8041,144.2913 573.8041,144.2913 573.1791,143.0413 573.1791,143.0413 572.5541,142.4163 572.5541,142.4163 570.6791,141.7913 570.6791,141.7913 565.0541,141.7913 565.0541,141.7913 565.0541,154.9163"/>
    <line x1="569.4291" x2="573.8041" y1="148.0413" y2="154.9163"/>
    <polygon points="640.6447,141.7913 640.6447,154.9163 640.6447,154.9163 645.0197,154.9163 645.0197,154.9163 646.8947,154.2913 646.8947,154.2913 648.1447,153.0413 648.1447,153.0413 648.7697,151.7913 648.7697,151.7913 649.3947,149.9163 649.3947,149.9163 649.3947,146.7913 649.3947,146.7913 648.7697,144.9163 648.7697,144.9163 648.1447,143.6663 648.1447,143.6663 646.8947,142.4163 646.8947,142.4163 645.0197,141.7913 645.0197,141.7913"/>
    <polygon points="56.6929,168.189 56.6929,205.9843 56.6929,205.9843 94.4882,205.9843 94.4882,205.9843 94.4882,168.189 94.4882,168.189"/>
    <polyline points="60.4577,171.3583 61.0827,171.0458 61.0827,171.0458 62.0202,170.1083 62.0202,170.1083 62.0202,176.6708"/>
    <polyline points="66.7077,171.3583 67.3327,171.0458 67.3327,171.0458 68.2702,170.1083 68.2702,170.1083 68.2702,176.6708"/>
    <polyline points="82.1531,179.5866 74.0281,179.5866 74.0281,179.5866 74.0281,192.7116 74.0281,192.7116 82.1531,192.7116"/>
    <line x1="74.0281" x2="79.0281" y1="185.8366" y2="185.8366"/>
    <polyline points="170.0787,168.189 170.0787,205.9843 170.0787,205.9843 170.0787,243.7795 170.0787,243.7795 207.874,243.7795 207.874,243.7795 245.6693,243.7795 245.6693,243.7795 245.6693,205.9843"/>
    <polyline points="170.0787,205.9843 207.874,205.9843 207.874,205.9843 207.874,243.7795 207.874,243.7795 207.874,281.5748 207.874,281.5748 170.0787,281.5748 170.0787,281.5748 132.2835,281.5748 132.2835,281.5748 94.4882,281.5748 94.4882,281.5748 94.4882,243.7795 94.4882,243.7795 94.4882,205.9843"/>
    <polyline points="187.7264,179.5866 187.7264,192.7116 187.7264,192.7116 195.2264,192.7116"/>
    <polyline points="400.6152,171.3583 401.2402,171.0458 401.2402,171.0458 402.1777,170.1083 402.1777,170.1083 402.1777,176.6708"/>
    <polyline points="406.2402,171.6708 406.2402,171.3583 406.2402,171.3583 406.5527,170.7333 406.5527,170.7333 406.8652,170.4208 406.8652,170.4208 407.4902,170.1083 407.4902,170.1083 408.7402,170.1083 408.7402,170.1083 409.3652,170.4208 409.3652,170.4208 409.6777,170.7333 409.6777,170.7333 409.9902,171.3583 409.9902,171.3583 409.9902,171.9833 409.9902,171.9833 409.6777,172.6083 409.6777,172.6083 409.0527,173.5458 409.0527,173.5458 405.9277,176.6708 405.9277,176.6708 410.3027,176.6708"/>
    <line x1="413.873" x2="413.873" y1="179.5866" y2="192.7116"/>
    <line x1="422.623" x2="413.873" y1="179.5866" y2="188.3366"/>
    <line x1="416.998" x2="422.623" y1="185.2116" y2="192.7116"/>
    <polyline points="459.1683,192.7116 454.1683,179.5866 454.1683,179.5866 449.1683,192.7116"/>
    <line x1="451.0433" x2="457.2933" y1="188.3366" y2="188.3366"/>
    <polyline points="497.5886,181.4616 496.3386,180.2116 496.3386,180.2116 494.4636,179.5866 494.4636,179.5866 491.9636,179.5866 491.9636,179.5866 490.0886,180.2116 490.0886,180.2116 488.8386,181.4616 488.8386,181.4616 488.8386,182.7116 488.8386,182.7116 489.4636,183.9616 489.4636,183.9616 490.0886,184.5866 490.0886,184.5866 491.3386,185.2116 491.3386,185.2116 495.0886,186.4616 495.0886,186.4616 496.3386,187.0866 496.3386,187.0866 496.9636,187.7116 496.9636,187.7116 497.5886,188.9616 497.5886,188.9616 497.5886,190.8366 497.5886,190.8366 496.3386,192.0866 496.3386,192.0866 494.4636,192.7116 494.4636,192.7116 491.9636,192.7116 491.9636,192.7116 490.0886,192.0866 490.0886,192.0866 488.8386,190.8366"/>
    <polyline points="535.3839,181.4616 534.1339,180.2116 534.1339,180.2116 532.2589,179.5866 532.2589,179.5866 529.7589,179.5866 529.7589,179.5866 527.8839,180.2116 527.8839,180.2116 526.6339,181.4616 526.6339,181.4616 526.6339,182.7116 526.6339,182.7116 527.2589,183.9616 527.2589,183.9616 527.8839,184.5866 527.8839,184.5866 529.1339,185.2116 529.1339,185.2116 532.8839,186.4616 532.8839,186.4616 534.1339,187.0866 534.1339,187.0866 534.7589,187.7116 534.7589,187.7116 535.3839,188.9616 535.3839,188.9616 535.3839,190.8366 535.3839,190.8366 534.1339,192.0866 534.1339,192.0866 532.2589,192.7116 532.2589,192.7116 529.7589,192.7116 529.7589,192.7116 527.8839,192.0866 527.8839,192.0866 526.6339,190.8366"/>
    <polyline points="572.5541,192.7116 567.5541,179.5866 567.5541,179.5866 562.5541,192.7116"/>
    <line x1="564.4291" x2="570.6791" y1="188.3366" y2="188.3366"/>
    <polyline points="627.3868,171.3583 628.0118,171.0458 628.0118,171.0458 628.9493,170.1083 628.9493,170.1083 628.9493,176.6708"/>
    <polyline points="633.3243,170.1083 636.7618,170.1083 636.7618,170.1083 634.8868,172.6083 634.8868,172.6083 635.8243,172.6083 635.8243,172.6083 636.4493,172.9208 636.4493,172.9208 636.7618,173.2333 636.7618,173.2333 637.0743,174.1708 637.0743,174.1708 637.0743,174.7958 637.0743,174.7958 636.7618,175.7333 636.7618,175.7333 636.1368,176.3583 636.1368,176.3583 635.1993,176.6708 635.1993,176.6708 634.2618,176.6708 634.2618,176.6708 633.3243,176.3583 633.3243,176.3583 633.0118,176.0458 633.0118,176.0458 632.6993,175.4208"/>
    <polygon points="640.6447,179.5866 640.6447,192.7116 640.6447,192.7116 645.0197,192.7116 645.0197,192.7116 646.8947,192.0866 646.8947,192.0866 648.1447,190.8366 648.1447,190.8366 648.7697,189.5866 648.7697,189.5866 649.3947,187.7116 649.3947,187.7116 649.3947,184.5866 649.3947,184.5866 648.7697,182.7116 648.7697,182.7116 648.1447,181.4616 648.1447,181.4616 646.8947,180.2116 646.8947,180.2116 645.0197,179.5866 645.0197,179.5866"/>
    <polyline points="678.44,185.8366 684.065,185.8366 684.065,185.8366 685.94,185.2116 685.94,185.2116 686.565,184.5866 686.565,184.5866 687.19,183.3366 687.19,183.3366 687.19,182.0866 687.19,182.0866 686.565,180.8366 686.565,180.8366 685.94,180.2116 685.94,180.2116 684.065,179.5866 684.065,179.5866 678.44,179.5866 678.44,179.5866 678.44,192.7116"/>
    <line x1="682.815" x2="687.19" y1="185.8366" y2="192.7116"/>
    <polyline points="699.2126,205.9843 737.0079,205.9843 737.0079,205.9843 737.0079,243.7795 737.0079,243.7795 774.8031,243.7795 774.8031,243.7795 774.8031,205.9843 774.8031,205.9843 774.8031,168.189 774.8031,168.189 737.0079,168.189 737.0079,168.189 699.2126,168.189"/>
    <polyline points="774.8031,205.9843 737.0079,205.9843 737.0079,205.9843 737.0079,168.189"/>
    <polygon points="718.7352,179.5866 717.4852,180.2116 717.4852,180.2116 716.2352,181.4616 716.2352,181.4616 715.6102,182.7116 715.6102,182.7116 714.9852,184.5866 714.9852,184.5866 714.9852,187.7116 714.9852,187.7116 715.6102,189.5866 715.6102,189.5866 716.2352,190.8366 716.2352,190.8366 717.4852,192.0866 717.4852,192.0866 718.7352,192.7116 718.7352,192.7116 721.2352,192.7116 721.2352,192.7116 722.4852,192.0866 722.4852,192.0866 723.7352,190.8366 723.7352,190.8366 724.3602,189.5866 724.3602,189.5866 724.9852,187.7116 724.9852,187.7116 724.9852,184.5866 724.9852,184.5866 724.3602,182.7116 724.3602,182.7116 723.7352,181.4616 723.7352,181.4616 722.4852,180.2116 722.4852,180.2116 721.2352,179.5866 721.2352,179.5866"/>
    <polyline points="740.7726,171.3583 741.3976,171.0458 741.3976,171.0458 742.3351,170.1083 742.3351,170.1083 742.3351,176.6708"/>
    <polyline points="749.2101,176.6708 749.2101,170.1083 749.2101,170.1083 746.0851,174.4833 746.0851,174.4833 750.7726,174.4833"/>
    <polyline points="754.0305,186.4616 759.6555,186.4616 759.6555,186.4616 761.5305,185.8366 761.5305,185.8366 762.1555,185.2116 762.1555,185.2116 762.7805,183.9616 762.7805,183.9616 762.7805,182.0866 762.7805,182.0866 762.1555,180.8366 762.1555,180.8366 761.5305,180.2116 761.5305,180.2116 759.6555,179.5866 759.6555,179.5866 754.0305,179.5866 754.0305,179.5866 754.0305,192.7116"/>
    <polyline points="56.6929,205.9843 56.6929,243.7795 56.6929,243.7795 94.4882,243.7795"/>
    <polyline points="83.0906,230.5069 83.0906,217.3819 83.0906,217.3819 78.0906,230.5069 78.0906,230.5069 73.0906,217.3819 73.0906,217.3819 73.0906,230.5069"/>
    <polyline points="173.8435,209.1535 174.4685,208.841 174.4685,208.841 175.406,207.9035 175.406,207.9035 175.406,214.466"/>
    <polyline points="182.906,207.9035 179.781,207.9035 179.781,207.9035 179.4685,210.716 179.4685,210.716 179.781,210.4035 179.781,210.4035 180.7185,210.091 180.7185,210.091 181.656,210.091 181.656,210.091 182.5935,210.4035 182.5935,210.4035 183.2185,211.0285 183.2185,211.0285 183.531,211.966 183.531,211.966 183.531,212.591 183.531,212.591 183.2185,213.5285 183.2185,213.5285 182.5935,214.1535 182.5935,214.1535 181.656,214.466 181.656,214.466 180.7185,214.466 180.7185,214.466 179.781,214.1535 179.781,214.1535 179.4685,213.841 179.4685,213.841 179.156,213.216"/>
    <polyline points="184.6014,217.3819 189.6014,230.5069 189.6014,230.5069 194.6014,217.3819"/>
    <polyline points="233.3342,217.3819 225.2092,217.3819 225.2092,217.3819 225.2092,230.5069 225.2092,230.5069 233.3342,230.5069"/>
    <line x1="225.2092" x2="230.2092" y1="223.6319" y2="223.6319"/>
    <polyline points="245.6693,243.7795 283.4646,243.7795 283.4646,243.7795 283.4646,205.9843"/>
    <polyline points="263.3169,217.3819 263.3169,230.5069 263.3169,230.5069 270.8169,230.5069"/>
    <polyline points="321.2598,205.9843 321.2598,243.7795 321.2598,243.7795 321.2598,281.5748 321.2598,281.5748 321.2598,319.3701 321.2598,319.3701 283.4646,319.3701 283.4646,319.3701 283.4646,281.5748 283.4646,281.5748 283.4646,243.7795 283.4646,243.7795 321.2598,243.7795 321.2598,243.7795 359.0551,243.7795 359.0551,243.7795 359.0551,205.9843"/>
    <polyline points="287.2293,209.1535 287.8543,208.841 287.8543,208.841 288.7918,207.9035 288.7918,207.9035 288.7918,214.466"/>
    <polyline points="296.6043,208.841 296.2918,208.216 296.2918,208.216 295.3543,207.9035 295.3543,207.9035 294.7293,207.9035 294.7293,207.9035 293.7918,208.216 293.7918,208.216 293.1668,209.1535 293.1668,209.1535 292.8543,210.716 292.8543,210.716 292.8543,212.2785 292.8543,212.2785 293.1668,213.5285 293.1668,213.5285 293.7918,214.1535 293.7918,214.1535 294.7293,214.466 294.7293,214.466 295.0418,214.466 295.0418,214.466 295.9793,214.1535 295.9793,214.1535 296.6043,213.5285 296.6043,213.5285 296.9168,212.591 296.9168,212.591 296.9168,212.2785 296.9168,212.2785 296.6043,211.341 296.6043,211.341 295.9793,210.716 295.9793,210.716 295.0418,210.4035 295.0418,210.4035 294.7293,210.4035 294.7293,210.4035 293.7918,210.716 293.7918,210.716 293.1668,211.341 293.1668,211.341 292.8543,212.2785"/>
    <polyline points="301.1122,217.3819 301.1122,230.5069 301.1122,230.5069 308.6122,230.5069"/>
    <polyline points="346.72,217.3819 338.595,217.3819 338.595,217.3819 338.595,230.5069 338.595,230.5069 346.72,230.5069"/>
    <line x1="338.595" x2="343.595" y1="223.6319" y2="223.6319"/>
    <polyline points="359.0551,243.7795 396.8504,243.7795 396.8504,243.7795 396.8504,281.5748 396.8504,281.5748 396.8504,319.3701 396.8504,319.3701 434.6457,319.3701 434.6457,319.3701 434.6457,281.5748 434.6457,281.5748 434.6457,243.7795"/>
    <line x1="376.0778" x2="376.0778" y1="217.3819" y2="230.5069"/>
    <line x1="384.8278" x2="376.0778" y1="217.3819" y2="226.1319"/>
    <line x1="379.2028" x2="384.8278" y1="223.0069" y2="230.5069"/>
    <polyline points="422.3105,217.3819 414.1855,217.3819 414.1855,217.3819 414.1855,230.5069 414.1855,230.5069 422.3105,230.5069"/>
    <line x1="414.1855" x2="419.1855" y1="223.6319" y2="223.6319"/>
    <line x1="491.9636" x2="491.9636" y1="217.3819" y2="230.5069"/>
    <line x1="487.5886" x2="496.3386" y1="217.3819" y2="217.3819"/>
    <polyline points="573.1791,219.2569 571.9291,218.0069 571.9291,218.0069 570.0541,217.3819 570.0541,217.3819 567.5541,217.3819 567.5541,217.3819 565.6791,218.0069 565.6791,218.0069 564.4291,219.2569 564.4291,219.2569 564.4291,220.5069 564.4291,220.5069 565.0541,221.7569 565.0541,221.7569 565.6791,222.3819 565.6791,222.3819 566.9291,223.0069 566.9291,223.0069 570.6791,224.2569 570.6791,224.2569 571.9291,224.8819 571.9291,224.8819 572.5541,225.5069 572.5541,225.5069 573.1791,226.7569 573.1791,226.7569 573.1791,228.6319 573.1791,228.6319 571.9291,229.8819 571.9291,229.8819 570.0541,230.5069 570.0541,230.5069 567.5541,230.5069 567.5541,230.5069 565.6791,229.8819 565.6791,229.8819 564.4291,228.6319"/>
    <polygon points="643.1447,217.3819 641.8947,218.0069 641.8947,218.0069 640.6447,219.2569 640.6447,219.2569 640.0197,220.5069 640.0197,220.5069 639.3947,222.3819 639.3947,222.3819 639.3947,225.5069 639.3947,225.5069 640.0197,227.3819 640.0197,227.3819 640.6447,228.6319 640.6447,228.6319 641.8947,229.8819 641.8947,229.8819 643.1447,230.5069 643.1447,230.5069 645.6447,230.5069 645.6447,230.5069 646.8947,229.8819 646.8947,229.8819 648.1447,228.6319 648.1447,228.6319 648.7697,227.3819 648.7697,227.3819 649.3947,225.5069 649.3947,225.5069 649.3947,222.3819 649.3947,222.3819 648.7697,220.5069 648.7697,220.5069 648.1447,219.2569 648.1447,219.2569 646.8947,218.0069 646.8947,218.0069 645.6447,217.3819 645.6447,217.3819"/>
    <line x1="758.4055" x2="758.4055" y1="217.3819" y2="230.5069"/>
    <polyline points="56.6929,243.7795 56.6929,281.5748 56.6929,281.5748 94.4882,281.5748 94.4882,281.5748 94.4882,319.3701 94.4882,319.3701 132.2835,319.3701 132.2835,319.3701 170.0787,319.3701 170.0787,319.3701 170.0787,281.5748 170.0787,281.5748 170.0787,243.7795"/>
    <polyline points="83.0906,268.3022 83.0906,255.1772 83.0906,255.1772 78.0906,268.3022 78.0906,268.3022 73.0906,255.1772 73.0906,255.1772 73.0906,268.3022"/>
    <line x1="191.4764" x2="191.4764" y1="255.1772" y2="268.3022"/>
    <line x1="283.4646" x2="321.2598" y1="281.5748" y2="281.5748"/>
    <line x1="304.8622" x2="304.8622" y1="255.1772" y2="268.3022"/>
    <polyline points="396.8504,281.5748 434.6457,281.5748 434.6457,281.5748 472.4409,281.5748 472.4409,281.5748 510.2362,281.5748 510.2362,281.5748 510.2362,243.7795"/>
    <polyline points="413.873,261.4272 419.498,261.4272 419.498,261.4272 421.373,260.8022 421.373,260.8022 421.998,260.1772 421.998,260.1772 422.623,258.9272 422.623,258.9272 422.623,257.6772 422.623,257.6772 421.998,256.4272 421.998,256.4272 421.373,255.8022 421.373,255.8022 419.498,255.1772 419.498,255.1772 413.873,255.1772 413.873,255.1772 413.873,268.3022"/>
    <line x1="418.248" x2="422.623" y1="261.4272" y2="268.3022"/>
    <polyline points="472.4409,243.7795 472.4409,281.5748 472.4409,281.5748 472.4409,319.3701 472.4409,319.3701 510.2362,319.3701 510.2362,319.3701 548.0315,319.3701 548.0315,319.3701 548.0315,281.5748 548.0315,281.5748 510.2362,281.5748 510.2362,281.5748 510.2362,319.3701 510.2362,319.3701 510.2362,357.1654 510.2362,357.1654 472.4409,357.1654 472.4409,357.1654 472.4409,319.3701 472.4409,319.3701 434.6457,319.3701"/>
    <polyline points="495.7136,255.1772 495.7136,265.1772 495.7136,265.1772 495.0886,267.0522 495.0886,267.0522 494.4636,267.6772 494.4636,267.6772 493.2136,268.3022 493.2136,268.3022 491.9636,268.3022 491.9636,268.3022 490.7136,267.6772 490.7136,267.6772 490.0886,267.0522 490.0886,267.0522 489.4636,265.1772 489.4636,265.1772 489.4636,263.9272"/>
    <polyline points="623.622,243.7795 623.622,281.5748 623.622,281.5748 661.4173,281.5748 661.4173,281.5748 661.4173,243.7795"/>
    <polyline points="649.0822,255.1772 640.9572,255.1772 640.9572,255.1772 640.9572,268.3022 640.9572,268.3022 649.0822,268.3022"/>
    <line x1="640.9572" x2="645.9572" y1="261.4272" y2="261.4272"/>
    <polyline points="737.0079,243.7795 737.0079,281.5748 737.0079,281.5748 774.8031,281.5748 774.8031,281.5748 774.8031,243.7795"/>
    <polyline points="754.0305,262.0522 759.6555,262.0522 759.6555,262.0522 761.5305,261.4272 761.5305,261.4272 762.1555,260.8022 762.1555,260.8022 762.7805,259.5522 762.7805,259.5522 762.7805,257.6772 762.7805,257.6772 762.1555,256.4272 762.1555,256.4272 761.5305,255.8022 761.5305,255.8022 759.6555,255.1772 759.6555,255.1772 754.0305,255.1772 754.0305,255.1772 754.0305,268.3022"/>
    <polyline points="56.6929,319.3701 56.6929,281.5748 56.6929,281.5748 18.8976,281.5748 18.8976,281.5748 18.8976,319.3701 18.8976,319.3701 56.6929,319.3701 56.6929,319.3701 94.4882,319.3701"/>
    <polyline points="22.6624,284.7441 23.2874,284.4316 23.2874,284.4316 24.2249,283.4941 24.2249,283.4941 24.2249,290.0566"/>
    <polyline points="27.9749,283.4941 32.3499,283.4941 32.3499,283.4941 29.2249,290.0566"/>
    <line x1="35.2953" x2="44.0453" y1="292.9724" y2="306.0974"/>
    <line x1="44.0453" x2="35.2953" y1="292.9724" y2="306.0974"/>
    <polyline points="81.2156,306.0974 76.2156,292.9724 76.2156,292.9724 71.2156,306.0974"/>
    <line x1="73.0906" x2="79.3406" y1="301.7224" y2="301.7224"/>
    <line x1="132.2835" x2="132.2835" y1="319.3701" y2="281.5748"/>
    <polyline points="120.2608,292.9724 120.2608,306.0974 120.2608,306.0974 111.5108,292.9724 111.5108,292.9724 111.5108,306.0974"/>
    <polygon points="149.3061,292.9724 149.3061,306.0974 149.3061,306.0974 153.6811,306.0974 153.6811,306.0974 155.5561,305.4724 155.5561,305.4724 156.8061,304.2224 156.8061,304.2224 157.4311,302.9724 157.4311,302.9724 158.0561,301.0974 158.0561,301.0974 158.0561,297.9724 158.0561,297.9724 157.4311,296.0974 157.4311,296.0974 156.8061,294.8474 156.8061,294.8474 155.5561,293.5974 155.5561,293.5974 153.6811,292.9724 153.6811,292.9724"/>
    <polyline points="170.0787,319.3701 207.874,319.3701 207.874,319.3701 207.874,281.5748 207.874,281.5748 245.6693,281.5748 245.6693,281.5748 245.6693,319.3701 245.6693,319.3701 207.874,319.3701"/>
    <polyline points="195.5389,292.9724 187.4139,292.9724 187.4139,292.9724 187.4139,306.0974 187.4139,306.0974 195.5389,306.0974"/>
    <line x1="187.4139" x2="192.4139" y1="299.2224" y2="299.2224"/>
    <polyline points="224.8967,299.2224 230.5217,299.2224 230.5217,299.2224 232.3967,298.5974 232.3967,298.5974 233.0217,297.9724 233.0217,297.9724 233.6467,296.7224 233.6467,296.7224 233.6467,295.4724 233.6467,295.4724 233.0217,294.2224 233.0217,294.2224 232.3967,293.5974 232.3967,293.5974 230.5217,292.9724 230.5217,292.9724 224.8967,292.9724 224.8967,292.9724 224.8967,306.0974"/>
    <line x1="229.2717" x2="233.6467" y1="299.2224" y2="306.0974"/>
    <polyline points="308.9247,292.9724 300.7997,292.9724 300.7997,292.9724 300.7997,306.0974"/>
    <line x1="300.7997" x2="305.7997" y1="299.2224" y2="299.2224"/>
    <polyline points="400.6152,284.7441 401.2402,284.4316 401.2402,284.4316 402.1777,283.4941 402.1777,283.4941 402.1777,290.0566"/>
    <polygon points="407.4902,283.4941 406.5527,283.8066 406.5527,283.8066 406.2402,284.4316 406.2402,284.4316 406.2402,285.0566 406.2402,285.0566 406.5527,285.6816 406.5527,285.6816 407.1777,285.9941 407.1777,285.9941 408.4277,286.3066 408.4277,286.3066 409.3652,286.6191 409.3652,286.6191 409.9902,287.2441 409.9902,287.2441 410.3027,287.8691 410.3027,287.8691 410.3027,288.8066 410.3027,288.8066 409.9902,289.4316 409.9902,289.4316 409.6777,289.7441 409.6777,289.7441 408.7402,290.0566 408.7402,290.0566 407.4902,290.0566 407.4902,290.0566 406.5527,289.7441 406.5527,289.7441 406.2402,289.4316 406.2402,289.4316 405.9277,288.8066 405.9277,288.8066 405.9277,287.8691 405.9277,287.8691 406.2402,287.2441 406.2402,287.2441 406.8652,286.6191 406.8652,286.6191 407.8027,286.3066 407.8027,286.3066 409.0527,285.9941 409.0527,285.9941 409.6777,285.6816 409.6777,285.6816 409.9902,285.0566 409.9902,285.0566 409.9902,284.4316 409.9902,284.4316 409.6777,283.8066 409.6777,283.8066 408.7402,283.4941 408.7402,283.4941"/>
    <polyline points="421.998,294.8474 420.748,293.5974 420.748,293.5974 418.873,292.9724 418.873,292.9724 416.373,292.9724 416.373,292.9724 414.498,293.5974 414.498,293.5974 413.248,294.8474 413.248,294.8474 413.248,296.0974 413.248,296.0974 413.873,297.3474 413.873,297.3474 414.498,297.9724 414.498,297.9724 415.748,298.5974 415.748,298.5974 419.498,299.8474 419.498,299.8474 420.748,300.4724 420.748,300.4724 421.373,301.0974 421.373,301.0974 421.998,302.3474 421.998,302.3474 421.998,304.2224 421.998,304.2224 420.748,305.4724 420.748,305.4724 418.873,306.0974 418.873,306.0974 416.373,306.0974 416.373,306.0974 414.498,305.4724 414.498,305.4724 413.248,304.2224"/>
    <line x1="451.6683" x2="451.6683" y1="292.9724" y2="306.0974"/>
    <line x1="460.4183" x2="451.6683" y1="292.9724" y2="301.7224"/>
    <line x1="454.7933" x2="460.4183" y1="298.5974" y2="306.0974"/>
    <polyline points="497.9011,292.9724 489.7761,292.9724 489.7761,292.9724 489.7761,306.0974 489.7761,306.0974 497.9011,306.0974"/>
    <line x1="489.7761" x2="494.7761" y1="299.2224" y2="299.2224"/>
    <polyline points="527.8839,292.9724 527.8839,306.0974 527.8839,306.0974 535.3839,306.0974"/>
    <polyline points="548.0315,319.3701 585.8268,319.3701 585.8268,319.3701 585.8268,281.5748 585.8268,281.5748 548.0315,281.5748"/>
    <polyline points="565.6791,292.9724 565.6791,306.0974 565.6791,306.0974 573.1791,306.0974"/>
    <polyline points="585.8268,319.3701 623.622,319.3701 623.622,319.3701 623.622,281.5748 623.622,281.5748 585.8268,281.5748"/>
    <polyline points="611.2869,292.9724 603.1619,292.9724 603.1619,292.9724 603.1619,306.0974 603.1619,306.0974 611.2869,306.0974"/>
    <line x1="603.1619" x2="608.1619" y1="299.2224" y2="299.2224"/>
    <polyline points="623.622,319.3701 661.4173,319.3701 661.4173,319.3701 699.2126,319.3701 699.2126,319.3701 699.2126,281.5748 699.2126,281.5748 661.4173,281.5748 661.4173,281.5748 661.4173,319.3701"/>
    <line x1="640.6447" x2="640.6447" y1="292.9724" y2="306.0974"/>
    <line x1="649.3947" x2="640.6447" y1="292.9724" y2="301.7224"/>
    <line x1="643.7697" x2="649.3947" y1="298.5974" y2="306.0974"/>
    <polyline points="686.8775,292.9724 678.7525,292.9724 678.7525,292.9724 678.7525,306.0974 678.7525,306.0974 686.8775,306.0974"/>
    <line x1="678.7525" x2="683.7525" y1="299.2224" y2="299.2224"/>
    <polyline points="737.0079,281.5748 737.0079,319.3701 737.0079,319.3701 774.8031,319.3701 774.8031,319.3701 774.8031,281.5748"/>
    <line x1="758.4055" x2="758.4055" y1="292.9724" y2="306.0974"/>
    <polyline points="283.4646,319.3701 283.4646,357.1654 283.4646,357.1654 321.2598,357.1654 321.2598,357.1654 321.2598,319.3701"/>
    <line x1="302.9872" x2="302.9872" y1="330.7677" y2="343.8927"/>
    <line x1="298.6122" x2="307.3622" y1="330.7677" y2="330.7677"/>
    <polyline points="497.5886,332.6427 496.3386,331.3927 496.3386,331.3927 494.4636,330.7677 494.4636,330.7677 491.9636,330.7677 491.9636,330.7677 490.0886,331.3927 490.0886,331.3927 488.8386,332.6427 488.8386,332.6427 488.8386,333.8927 488.8386,333.8927 489.4636,335.1427 489.4636,335.1427 490.0886,335.7677 490.0886,335.7677 491.3386,336.3927 491.3386,336.3927 495.0886,337.6427 495.0886,337.6427 496.3386,338.2677 496.3386,338.2677 496.9636,338.8927 496.9636,338.8927 497.5886,340.1427 497.5886,340.1427 497.5886,342.0177 497.5886,342.0177 496.3386,343.2677 496.3386,343.2677 494.4636,343.8927 494.4636,343.8927 491.9636,343.8927 491.9636,343.8927 490.0886,343.2677 490.0886,343.2677 488.8386,342.0177"/>
  </g>
</svg>
