<?xml version="1.0" encoding="utf-8" ?>
<svg xmlns="http://www.w3.org/2000/svg" xmlns:cc="http://creativecommons.org/ns" xmlns:dc="http://purl.org/dc/elements/1.1/" xmlns:ev="http://www.w3.org/2001/xml-events" xmlns:inkscape="http://www.inkscape.org/namespaces/inkscape" xmlns:rdf="http://www.w3.org/1999/02/22-rdf-syntax-ns" xmlns:sodipodi="http://sodipodi.sourceforge.net/DTD/sodipodi-0.dtd" xmlns:xlink="http://www.w3.org/1999/xlink" baseProfile="tiny" height="9.9cm" version="1.2" viewBox="0 0 793.7007874015749 374.1732283464567" width="21.0cm">
  <metadata>
    <rdf:RDF>
      <cc:Work>
        <dc:format>image/svg+xml</dc:format>
        <dc:source>vpype eval 'cell=10;width=210;height=99' eval 'nCols=20;nRows=9' eval 'cells=[3,7,11,12,13,14,15,16,17,18,19,21,22,23,24,25,26,27,28,30,33,43,47,49,50,51,52,53,54,55,56,57,59,60,61,63,67,70,73,79,81,83,85,86,87,88,89,90,91,92,93,94,99,101,103,107,110,113,119,120,121,122,123,124,125,127,131,132,133,134,135,136,137,138,139,141,143,146,147,148,149,153,161,170,171,172,173,174,175,176,177,178]' eval 'chars=[&quot;K&quot;,&quot;R&quot;,&quot;R&quot;,&quot;E&quot;,&quot;K&quot;,&quot;K&quot;,&quot;E&quot;,&quot;R&quot;,&quot;T&quot;,&quot;J&quot;,&quot;E&quot;,&quot;F&quot;,&quot;R&quot;,&quot;I&quot;,&quot;E&quot;,&quot;T&quot;,&quot;J&quot;,&quot;E&quot;,&quot;S&quot;,&quot;R&quot;,&quot;L&quot;,&quot;N&quot;,&quot;G&quot;,&quot;M&quot;,&quot;A&quot;,&quot;N&quot;,&quot;D&quot;,&quot;A&quot;,&quot;R&quot;,&quot;I&quot;,&quot;J&quot;,&quot;N&quot;,&quot;G&quot;,&quot;J&quot;,&quot;A&quot;,&quot;D&quot;,&quot;E&quot;,&quot;D&quot;,&quot;V&quot;,&quot;R&quot;,&quot;N&quot;,&quot;E&quot;,&quot;J&quot;,&quot;A&quot;,&quot;N&quot;,&quot;-&quot;,&quot;W&quot;,&quot;I&quot;,&quot;L&quot;,&quot;L&quot;,&quot;E&quot;,&quot;M&quot;,&quot;O&quot;,&quot;N&quot;,&quot;R&quot;,&quot;B&quot;,&quot;O&quot;,&quot;R&quot;,&quot;E&quot;,&quot;L&quot;,&quot;A&quot;,&quot;K&quot;,&quot;E&quot;,&quot;N&quot;,&quot;S&quot;,&quot;U&quot;,&quot;U&quot;,&quot;I&quot;,&quot;T&quot;,&quot;L&quot;,&quot;I&quot;,&quot;K&quot;,&quot;K&quot;,&quot;E&quot;,&quot;N&quot;,&quot;E&quot;,&quot;N&quot;,&quot;P&quot;,&quot;I&quot;,&quot;P&quot;,&quot;I&quot;,&quot;J&quot;,&quot;L&quot;,&quot;R&quot;,&quot;E&quot;,&quot;G&quot;,&quot;E&quot;,&quot;N&quot;,&quot;B&quot;,&quot;O&quot;,&quot;O&quot;,&quot;G&quot;]' eval 'numbers=[3,7,11,13,21,30,49,59,60,61,85,120,131,146,170]' eval counter=1 eval charIndex=0 begin grid -o '%cell*mm%' '%cell*mm%' %nCols% %nRows% eval '%isCell=_i in cells%' eval '%number=_i in numbers%' eval '%size=10 if isCell else 0%' rect 0 0 '%size*mm%' '%size*mm%' text -s 10 -p 0.5mm 1.5mm '%counter if number else '&quot;'&quot;''&quot;'&quot;'%' text -s 20 -p 5mm 5mm -a center '%chars[charIndex] if isCell else '&quot;'&quot;''&quot;'&quot;'%' eval '%if number: counter+=1 %' eval '%if isCell: charIndex+=1 %' end splitall deduplicate linemerge --tolerance 0.1mm write -m none --page-size '%width*mm%x%height*mm%' --center ./svgs/solution/cfc7d6.svg
</dc:source>
        <dc:date>2023-12-23T22:30:06.061851</dc:date>
      </cc:Work>
    </rdf:RDF>
  </metadata>
  <defs/>
  <g fill="none" id="layer1" inkscape:groupmode="layer" inkscape:label="1" stroke="#000000" style="display:inline">
    <polygon points="132.2835,17.0079 132.2835,54.8031 132.2835,54.8031 170.0787,54.8031 170.0787,54.8031 170.0787,17.0079 170.0787,17.0079"/>
    <polyline points="136.0482,20.1772 136.6732,19.8647 136.6732,19.8647 137.6107,18.9272 137.6107,18.9272 137.6107,25.4897"/>
    <line x1="149.3061" x2="149.3061" y1="28.4055" y2="41.5305"/>
    <line x1="158.0561" x2="149.3061" y1="28.4055" y2="37.1555"/>
    <line x1="152.4311" x2="158.0561" y1="34.0305" y2="41.5305"/>
    <polygon points="283.4646,17.0079 283.4646,54.8031 283.4646,54.8031 321.2598,54.8031 321.2598,54.8031 321.2598,17.0079 321.2598,17.0079"/>
    <polyline points="286.6043,20.4897 286.6043,20.1772 286.6043,20.1772 286.9168,19.5522 286.9168,19.5522 287.2293,19.2397 287.2293,19.2397 287.8543,18.9272 287.8543,18.9272 289.1043,18.9272 289.1043,18.9272 289.7293,19.2397 289.7293,19.2397 290.0418,19.5522 290.0418,19.5522 290.3543,20.1772 290.3543,20.1772 290.3543,20.8022 290.3543,20.8022 290.0418,21.4272 290.0418,21.4272 289.4168,22.3647 289.4168,22.3647 286.2918,25.4897 286.2918,25.4897 290.6668,25.4897"/>
    <polyline points="300.4872,34.6555 306.1122,34.6555 306.1122,34.6555 307.9872,34.0305 307.9872,34.0305 308.6122,33.4055 308.6122,33.4055 309.2372,32.1555 309.2372,32.1555 309.2372,30.9055 309.2372,30.9055 308.6122,29.6555 308.6122,29.6555 307.9872,29.0305 307.9872,29.0305 306.1122,28.4055 306.1122,28.4055 300.4872,28.4055 300.4872,28.4055 300.4872,41.5305"/>
    <line x1="304.8622" x2="309.2372" y1="34.6555" y2="41.5305"/>
    <polygon points="434.6457,17.0079 434.6457,54.8031 434.6457,54.8031 472.4409,54.8031 472.4409,54.8031 510.2362,54.8031 510.2362,54.8031 510.2362,92.5984 510.2362,92.5984 548.0315,92.5984 548.0315,92.5984 548.0315,54.8031 548.0315,54.8031 548.0315,17.0079 548.0315,17.0079 510.2362,17.0079 510.2362,17.0079 472.4409,17.0079 472.4409,17.0079"/>
    <line x1="472.4409" x2="472.4409" y1="54.8031" y2="17.0079"/>
    <polyline points="438.0979,18.9272 441.5354,18.9272 441.5354,18.9272 439.6604,21.4272 439.6604,21.4272 440.5979,21.4272 440.5979,21.4272 441.2229,21.7397 441.2229,21.7397 441.5354,22.0522 441.5354,22.0522 441.8479,22.9897 441.8479,22.9897 441.8479,23.6147 441.8479,23.6147 441.5354,24.5522 441.5354,24.5522 440.9104,25.1772 440.9104,25.1772 439.9729,25.4897 439.9729,25.4897 439.0354,25.4897 439.0354,25.4897 438.0979,25.1772 438.0979,25.1772 437.7854,24.8647 437.7854,24.8647 437.4729,24.2397"/>
    <polyline points="451.6683,34.6555 457.2933,34.6555 457.2933,34.6555 459.1683,34.0305 459.1683,34.0305 459.7933,33.4055 459.7933,33.4055 460.4183,32.1555 460.4183,32.1555 460.4183,30.9055 460.4183,30.9055 459.7933,29.6555 459.7933,29.6555 459.1683,29.0305 459.1683,29.0305 457.2933,28.4055 457.2933,28.4055 451.6683,28.4055 451.6683,28.4055 451.6683,41.5305"/>
    <line x1="456.0433" x2="460.4183" y1="34.6555" y2="41.5305"/>
    <polyline points="548.0315,17.0079 585.8268,17.0079 585.8268,17.0079 585.8268,54.8031 585.8268,54.8031 548.0315,54.8031 548.0315,54.8031 510.2362,54.8031 510.2362,54.8031 510.2362,17.0079"/>
    <polyline points="497.9011,28.4055 489.7761,28.4055 489.7761,28.4055 489.7761,41.5305 489.7761,41.5305 497.9011,41.5305"/>
    <line x1="489.7761" x2="494.7761" y1="34.6555" y2="34.6555"/>
    <polyline points="516.1885,25.4897 516.1885,18.9272 516.1885,18.9272 513.0635,23.3022 513.0635,23.3022 517.751,23.3022"/>
    <line x1="527.2589" x2="527.2589" y1="28.4055" y2="41.5305"/>
    <line x1="536.0089" x2="527.2589" y1="28.4055" y2="37.1555"/>
    <line x1="530.3839" x2="536.0089" y1="34.0305" y2="41.5305"/>
    <line x1="565.0541" x2="565.0541" y1="28.4055" y2="41.5305"/>
    <line x1="573.8041" x2="565.0541" y1="28.4055" y2="37.1555"/>
    <line x1="568.1791" x2="573.8041" y1="34.0305" y2="41.5305"/>
    <polyline points="585.8268,54.8031 623.622,54.8031 623.622,54.8031 623.622,17.0079 623.622,17.0079 585.8268,17.0079"/>
    <polyline points="611.2869,28.4055 603.1619,28.4055 603.1619,28.4055 603.1619,41.5305 603.1619,41.5305 611.2869,41.5305"/>
    <line x1="603.1619" x2="608.1619" y1="34.6555" y2="34.6555"/>
    <polyline points="623.622,54.8031 661.4173,54.8031 661.4173,54.8031 699.2126,54.8031 699.2126,54.8031 699.2126,17.0079 699.2126,17.0079 661.4173,17.0079 661.4173,17.0079 623.622,17.0079"/>
    <line x1="661.4173" x2="661.4173" y1="54.8031" y2="17.0079"/>
    <polyline points="640.6447,34.6555 646.2697,34.6555 646.2697,34.6555 648.1447,34.0305 648.1447,34.0305 648.7697,33.4055 648.7697,33.4055 649.3947,32.1555 649.3947,32.1555 649.3947,30.9055 649.3947,30.9055 648.7697,29.6555 648.7697,29.6555 648.1447,29.0305 648.1447,29.0305 646.2697,28.4055 646.2697,28.4055 640.6447,28.4055 640.6447,28.4055 640.6447,41.5305"/>
    <line x1="645.0197" x2="649.3947" y1="34.6555" y2="41.5305"/>
    <line x1="680.94" x2="680.94" y1="28.4055" y2="41.5305"/>
    <line x1="676.565" x2="685.315" y1="28.4055" y2="28.4055"/>
    <polyline points="699.2126,54.8031 737.0079,54.8031 737.0079,54.8031 737.0079,17.0079 737.0079,17.0079 699.2126,17.0079"/>
    <polyline points="722.4852,28.4055 722.4852,38.4055 722.4852,38.4055 721.8602,40.2805 721.8602,40.2805 721.2352,40.9055 721.2352,40.9055 719.9852,41.5305 719.9852,41.5305 718.7352,41.5305 718.7352,41.5305 717.4852,40.9055 717.4852,40.9055 716.8602,40.2805 716.8602,40.2805 716.2352,38.4055 716.2352,38.4055 716.2352,37.1555"/>
    <polyline points="737.0079,54.8031 774.8031,54.8031 774.8031,54.8031 774.8031,17.0079 774.8031,17.0079 737.0079,17.0079"/>
    <polyline points="762.468,28.4055 754.343,28.4055 754.343,28.4055 754.343,41.5305 754.343,41.5305 762.468,41.5305"/>
    <line x1="754.343" x2="759.343" y1="34.6555" y2="34.6555"/>
    <polyline points="207.874,92.5984 170.0787,92.5984 170.0787,92.5984 170.0787,130.3937 170.0787,130.3937 132.2835,130.3937 132.2835,130.3937 132.2835,92.5984 132.2835,92.5984 132.2835,54.8031 132.2835,54.8031 94.4882,54.8031 94.4882,54.8031 56.6929,54.8031 56.6929,54.8031 56.6929,92.5984 56.6929,92.5984 94.4882,92.5984 94.4882,92.5984 132.2835,92.5984 132.2835,92.5984 170.0787,92.5984 170.0787,92.5984 170.0787,54.8031 170.0787,54.8031 207.874,54.8031 207.874,54.8031 207.874,92.5984 207.874,92.5984 245.6693,92.5984 245.6693,92.5984 245.6693,54.8031 245.6693,54.8031 207.874,54.8031"/>
    <line x1="94.4882" x2="94.4882" y1="92.5984" y2="54.8031"/>
    <polyline points="63.2702,56.7224 60.1452,56.7224 60.1452,56.7224 59.8327,59.5349 59.8327,59.5349 60.1452,59.2224 60.1452,59.2224 61.0827,58.9099 61.0827,58.9099 62.0202,58.9099 62.0202,58.9099 62.9577,59.2224 62.9577,59.2224 63.5827,59.8474 63.5827,59.8474 63.8952,60.7849 63.8952,60.7849 63.8952,61.4099 63.8952,61.4099 63.5827,62.3474 63.5827,62.3474 62.9577,62.9724 62.9577,62.9724 62.0202,63.2849 62.0202,63.2849 61.0827,63.2849 61.0827,63.2849 60.1452,62.9724 60.1452,62.9724 59.8327,62.6599 59.8327,62.6599 59.5202,62.0349"/>
    <polyline points="82.1531,66.2008 74.0281,66.2008 74.0281,66.2008 74.0281,79.3258"/>
    <line x1="74.0281" x2="79.0281" y1="72.4508" y2="72.4508"/>
    <polyline points="111.5108,72.4508 117.1358,72.4508 117.1358,72.4508 119.0108,71.8258 119.0108,71.8258 119.6358,71.2008 119.6358,71.2008 120.2608,69.9508 120.2608,69.9508 120.2608,68.7008 120.2608,68.7008 119.6358,67.4508 119.6358,67.4508 119.0108,66.8258 119.0108,66.8258 117.1358,66.2008 117.1358,66.2008 111.5108,66.2008 111.5108,66.2008 111.5108,79.3258"/>
    <line x1="115.8858" x2="120.2608" y1="72.4508" y2="79.3258"/>
    <line x1="153.6811" x2="153.6811" y1="66.2008" y2="79.3258"/>
    <polyline points="195.5389,66.2008 187.4139,66.2008 187.4139,66.2008 187.4139,79.3258 187.4139,79.3258 195.5389,79.3258"/>
    <line x1="187.4139" x2="192.4139" y1="72.4508" y2="72.4508"/>
    <line x1="227.3967" x2="227.3967" y1="66.2008" y2="79.3258"/>
    <line x1="223.0217" x2="231.7717" y1="66.2008" y2="66.2008"/>
    <polyline points="245.6693,92.5984 283.4646,92.5984 283.4646,92.5984 321.2598,92.5984 321.2598,92.5984 359.0551,92.5984 359.0551,92.5984 359.0551,54.8031 359.0551,54.8031 321.2598,54.8031 321.2598,54.8031 321.2598,92.5984 321.2598,92.5984 321.2598,130.3937 321.2598,130.3937 321.2598,168.189 321.2598,168.189 321.2598,205.9843 321.2598,205.9843 359.0551,205.9843 359.0551,205.9843 359.0551,168.189 359.0551,168.189 321.2598,168.189 321.2598,168.189 283.4646,168.189 283.4646,168.189 245.6693,168.189 245.6693,168.189 207.874,168.189 207.874,168.189 207.874,205.9843 207.874,205.9843 245.6693,205.9843 245.6693,205.9843 245.6693,168.189"/>
    <polyline points="321.2598,130.3937 283.4646,130.3937 283.4646,130.3937 283.4646,92.5984 283.4646,92.5984 283.4646,54.8031 283.4646,54.8031 245.6693,54.8031"/>
    <polyline points="268.9419,66.2008 268.9419,76.2008 268.9419,76.2008 268.3169,78.0758 268.3169,78.0758 267.6919,78.7008 267.6919,78.7008 266.4419,79.3258 266.4419,79.3258 265.1919,79.3258 265.1919,79.3258 263.9419,78.7008 263.9419,78.7008 263.3169,78.0758 263.3169,78.0758 262.6919,76.2008 262.6919,76.2008 262.6919,74.9508"/>
    <polyline points="308.9247,66.2008 300.7997,66.2008 300.7997,66.2008 300.7997,79.3258 300.7997,79.3258 308.9247,79.3258"/>
    <line x1="300.7997" x2="305.7997" y1="72.4508" y2="72.4508"/>
    <polyline points="346.4075,68.0758 345.1575,66.8258 345.1575,66.8258 343.2825,66.2008 343.2825,66.2008 340.7825,66.2008 340.7825,66.2008 338.9075,66.8258 338.9075,66.8258 337.6575,68.0758 337.6575,68.0758 337.6575,69.3258 337.6575,69.3258 338.2825,70.5758 338.2825,70.5758 338.9075,71.2008 338.9075,71.2008 340.1575,71.8258 340.1575,71.8258 343.9075,73.0758 343.9075,73.0758 345.1575,73.7008 345.1575,73.7008 345.7825,74.3258 345.7825,74.3258 346.4075,75.5758 346.4075,75.5758 346.4075,77.4508 346.4075,77.4508 345.1575,78.7008 345.1575,78.7008 343.2825,79.3258 343.2825,79.3258 340.7825,79.3258 340.7825,79.3258 338.9075,78.7008 338.9075,78.7008 337.6575,77.4508"/>
    <polygon points="396.8504,54.8031 396.8504,92.5984 396.8504,92.5984 434.6457,92.5984 434.6457,92.5984 434.6457,54.8031 434.6457,54.8031"/>
    <polyline points="403.7402,57.6599 403.4277,57.0349 403.4277,57.0349 402.4902,56.7224 402.4902,56.7224 401.8652,56.7224 401.8652,56.7224 400.9277,57.0349 400.9277,57.0349 400.3027,57.9724 400.3027,57.9724 399.9902,59.5349 399.9902,59.5349 399.9902,61.0974 399.9902,61.0974 400.3027,62.3474 400.3027,62.3474 400.9277,62.9724 400.9277,62.9724 401.8652,63.2849 401.8652,63.2849 402.1777,63.2849 402.1777,63.2849 403.1152,62.9724 403.1152,62.9724 403.7402,62.3474 403.7402,62.3474 404.0527,61.4099 404.0527,61.4099 404.0527,61.0974 404.0527,61.0974 403.7402,60.1599 403.7402,60.1599 403.1152,59.5349 403.1152,59.5349 402.1777,59.2224 402.1777,59.2224 401.8652,59.2224 401.8652,59.2224 400.9277,59.5349 400.9277,59.5349 400.3027,60.1599 400.3027,60.1599 399.9902,61.0974"/>
    <polyline points="413.873,72.4508 419.498,72.4508 419.498,72.4508 421.373,71.8258 421.373,71.8258 421.998,71.2008 421.998,71.2008 422.623,69.9508 422.623,69.9508 422.623,68.7008 422.623,68.7008 421.998,67.4508 421.998,67.4508 421.373,66.8258 421.373,66.8258 419.498,66.2008 419.498,66.2008 413.873,66.2008 413.873,66.2008 413.873,79.3258"/>
    <line x1="418.248" x2="422.623" y1="72.4508" y2="79.3258"/>
    <polyline points="527.8839,66.2008 527.8839,79.3258 527.8839,79.3258 535.3839,79.3258"/>
    <polyline points="158.0561,103.9961 158.0561,117.1211 158.0561,117.1211 149.3061,103.9961 149.3061,103.9961 149.3061,117.1211"/>
    <polyline points="308.9247,107.1211 308.2997,105.8711 308.2997,105.8711 307.0497,104.6211 307.0497,104.6211 305.7997,103.9961 305.7997,103.9961 303.2997,103.9961 303.2997,103.9961 302.0497,104.6211 302.0497,104.6211 300.7997,105.8711 300.7997,105.8711 300.1747,107.1211 300.1747,107.1211 299.5497,108.9961 299.5497,108.9961 299.5497,112.1211 299.5497,112.1211 300.1747,113.9961 300.1747,113.9961 300.7997,115.2461 300.7997,115.2461 302.0497,116.4961 302.0497,116.4961 303.2997,117.1211 303.2997,117.1211 305.7997,117.1211 305.7997,117.1211 307.0497,116.4961 307.0497,116.4961 308.2997,115.2461 308.2997,115.2461 308.9247,113.9961 308.9247,113.9961 308.9247,112.1211 308.9247,112.1211 305.7997,112.1211"/>
    <polyline points="472.4409,92.5984 510.2362,92.5984 510.2362,92.5984 510.2362,130.3937 510.2362,130.3937 472.4409,130.3937 472.4409,130.3937 472.4409,92.5984 472.4409,92.5984 434.6457,92.5984 434.6457,92.5984 434.6457,130.3937 434.6457,130.3937 396.8504,130.3937 396.8504,130.3937 396.8504,92.5984 396.8504,92.5984 359.0551,92.5984 359.0551,92.5984 359.0551,130.3937 359.0551,130.3937 396.8504,130.3937 396.8504,130.3937 396.8504,168.189 396.8504,168.189 359.0551,168.189"/>
    <polyline points="361.8824,94.5177 366.2574,94.5177 366.2574,94.5177 363.1324,101.0802"/>
    <polyline points="385.4528,117.1211 385.4528,103.9961 385.4528,103.9961 380.4528,117.1211 380.4528,117.1211 375.4528,103.9961 375.4528,103.9961 375.4528,117.1211"/>
    <polyline points="421.373,117.1211 416.373,103.9961 416.373,103.9961 411.373,117.1211"/>
    <line x1="413.248" x2="419.498" y1="112.7461" y2="112.7461"/>
    <polyline points="472.4409,168.189 510.2362,168.189 510.2362,168.189 510.2362,205.9843 510.2362,205.9843 472.4409,205.9843 472.4409,205.9843 472.4409,168.189 472.4409,168.189 434.6457,168.189 434.6457,168.189 396.8504,168.189 396.8504,168.189 396.8504,205.9843 396.8504,205.9843 396.8504,243.7795 396.8504,243.7795 434.6457,243.7795 434.6457,243.7795 434.6457,205.9843 434.6457,205.9843 434.6457,168.189 434.6457,168.189 434.6457,130.3937 434.6457,130.3937 472.4409,130.3937"/>
    <polyline points="460.4183,103.9961 460.4183,117.1211 460.4183,117.1211 451.6683,103.9961 451.6683,103.9961 451.6683,117.1211"/>
    <polygon points="489.4636,103.9961 489.4636,117.1211 489.4636,117.1211 493.8386,117.1211 493.8386,117.1211 495.7136,116.4961 495.7136,116.4961 496.9636,115.2461 496.9636,115.2461 497.5886,113.9961 497.5886,113.9961 498.2136,112.1211 498.2136,112.1211 498.2136,108.9961 498.2136,108.9961 497.5886,107.1211 497.5886,107.1211 496.9636,105.8711 496.9636,105.8711 495.7136,104.6211 495.7136,104.6211 493.8386,103.9961 493.8386,103.9961"/>
    <polygon points="510.2362,130.3937 548.0315,130.3937 548.0315,130.3937 585.8268,130.3937 585.8268,130.3937 585.8268,92.5984 585.8268,92.5984 548.0315,92.5984 548.0315,92.5984 548.0315,130.3937 548.0315,130.3937 548.0315,168.189 548.0315,168.189 548.0315,205.9843 548.0315,205.9843 585.8268,205.9843 585.8268,205.9843 585.8268,168.189 585.8268,168.189 548.0315,168.189 548.0315,168.189 510.2362,168.189 510.2362,168.189"/>
    <polyline points="534.7589,117.1211 529.7589,103.9961 529.7589,103.9961 524.7589,117.1211"/>
    <line x1="526.6339" x2="532.8839" y1="112.7461" y2="112.7461"/>
    <polyline points="565.0541,110.2461 570.6791,110.2461 570.6791,110.2461 572.5541,109.6211 572.5541,109.6211 573.1791,108.9961 573.1791,108.9961 573.8041,107.7461 573.8041,107.7461 573.8041,106.4961 573.8041,106.4961 573.1791,105.2461 573.1791,105.2461 572.5541,104.6211 572.5541,104.6211 570.6791,103.9961 570.6791,103.9961 565.0541,103.9961 565.0541,103.9961 565.0541,117.1211"/>
    <line x1="569.4291" x2="573.8041" y1="110.2461" y2="117.1211"/>
    <polyline points="585.8268,130.3937 623.622,130.3937 623.622,130.3937 623.622,92.5984 623.622,92.5984 585.8268,92.5984"/>
    <line x1="607.2244" x2="607.2244" y1="103.9961" y2="117.1211"/>
    <polyline points="623.622,130.3937 661.4173,130.3937 661.4173,130.3937 699.2126,130.3937 699.2126,130.3937 699.2126,92.5984 699.2126,92.5984 661.4173,92.5984 661.4173,92.5984 623.622,92.5984"/>
    <line x1="661.4173" x2="661.4173" y1="130.3937" y2="92.5984"/>
    <polyline points="646.8947,103.9961 646.8947,113.9961 646.8947,113.9961 646.2697,115.8711 646.2697,115.8711 645.6447,116.4961 645.6447,116.4961 644.3947,117.1211 644.3947,117.1211 643.1447,117.1211 643.1447,117.1211 641.8947,116.4961 641.8947,116.4961 641.2697,115.8711 641.2697,115.8711 640.6447,113.9961 640.6447,113.9961 640.6447,112.7461"/>
    <polyline points="687.19,103.9961 687.19,117.1211 687.19,117.1211 678.44,103.9961 678.44,103.9961 678.44,117.1211"/>
    <polygon points="737.0079,92.5984 737.0079,130.3937 737.0079,130.3937 774.8031,130.3937 774.8031,130.3937 774.8031,92.5984 774.8031,92.5984"/>
    <polygon points="741.3976,94.5177 740.4601,94.8302 740.4601,94.8302 740.1476,95.4552 740.1476,95.4552 740.1476,96.0802 740.1476,96.0802 740.4601,96.7052 740.4601,96.7052 741.0851,97.0177 741.0851,97.0177 742.3351,97.3302 742.3351,97.3302 743.2726,97.6427 743.2726,97.6427 743.8976,98.2677 743.8976,98.2677 744.2101,98.8927 744.2101,98.8927 744.2101,99.8302 744.2101,99.8302 743.8976,100.4552 743.8976,100.4552 743.5851,100.7677 743.5851,100.7677 742.6476,101.0802 742.6476,101.0802 741.3976,101.0802 741.3976,101.0802 740.4601,100.7677 740.4601,100.7677 740.1476,100.4552 740.1476,100.4552 739.8351,99.8302 739.8351,99.8302 739.8351,98.8927 739.8351,98.8927 740.1476,98.2677 740.1476,98.2677 740.7726,97.6427 740.7726,97.6427 741.7101,97.3302 741.7101,97.3302 742.9601,97.0177 742.9601,97.0177 743.5851,96.7052 743.5851,96.7052 743.8976,96.0802 743.8976,96.0802 743.8976,95.4552 743.8976,95.4552 743.5851,94.8302 743.5851,94.8302 742.6476,94.5177 742.6476,94.5177"/>
    <polyline points="762.468,107.1211 761.843,105.8711 761.843,105.8711 760.593,104.6211 760.593,104.6211 759.343,103.9961 759.343,103.9961 756.843,103.9961 756.843,103.9961 755.593,104.6211 755.593,104.6211 754.343,105.8711 754.343,105.8711 753.718,107.1211 753.718,107.1211 753.093,108.9961 753.093,108.9961 753.093,112.1211 753.093,112.1211 753.718,113.9961 753.718,113.9961 754.343,115.2461 754.343,115.2461 755.593,116.4961 755.593,116.4961 756.843,117.1211 756.843,117.1211 759.343,117.1211 759.343,117.1211 760.593,116.4961 760.593,116.4961 761.843,115.2461 761.843,115.2461 762.468,113.9961 762.468,113.9961 762.468,112.1211 762.468,112.1211 759.343,112.1211"/>
    <polygon points="18.8976,130.3937 18.8976,168.189 18.8976,168.189 56.6929,168.189 56.6929,168.189 56.6929,205.9843 56.6929,205.9843 56.6929,243.7795 56.6929,243.7795 94.4882,243.7795 94.4882,243.7795 94.4882,205.9843 94.4882,205.9843 94.4882,168.189 94.4882,168.189 94.4882,130.3937 94.4882,130.3937 56.6929,130.3937 56.6929,130.3937"/>
    <polyline points="94.4882,168.189 56.6929,168.189 56.6929,168.189 56.6929,130.3937"/>
    <polyline points="25.7874,134.5005 25.4749,135.438 25.4749,135.438 24.8499,136.063 24.8499,136.063 23.9124,136.3755 23.9124,136.3755 23.5999,136.3755 23.5999,136.3755 22.6624,136.063 22.6624,136.063 22.0374,135.438 22.0374,135.438 21.7249,134.5005 21.7249,134.5005 21.7249,134.188 21.7249,134.188 22.0374,133.2505 22.0374,133.2505 22.6624,132.6255 22.6624,132.6255 23.5999,132.313 23.5999,132.313 23.9124,132.313 23.9124,132.313 24.8499,132.6255 24.8499,132.6255 25.4749,133.2505 25.4749,133.2505 25.7874,134.5005 25.7874,134.5005 25.7874,136.063 25.7874,136.063 25.4749,137.6255 25.4749,137.6255 24.8499,138.563 24.8499,138.563 23.9124,138.8755 23.9124,138.8755 23.2874,138.8755 23.2874,138.8755 22.3499,138.563 22.3499,138.563 22.0374,137.938"/>
    <polyline points="42.1703,141.7913 42.1703,151.7913 42.1703,151.7913 41.5453,153.6663 41.5453,153.6663 40.9203,154.2913 40.9203,154.2913 39.6703,154.9163 39.6703,154.9163 38.4203,154.9163 38.4203,154.9163 37.1703,154.2913 37.1703,154.2913 36.5453,153.6663 36.5453,153.6663 35.9203,151.7913 35.9203,151.7913 35.9203,150.5413"/>
    <polyline points="60.4577,133.563 61.0827,133.2505 61.0827,133.2505 62.0202,132.313 62.0202,132.313 62.0202,138.8755"/>
    <polygon points="67.6452,132.313 66.7077,132.6255 66.7077,132.6255 66.0827,133.563 66.0827,133.563 65.7702,135.1255 65.7702,135.1255 65.7702,136.063 65.7702,136.063 66.0827,137.6255 66.0827,137.6255 66.7077,138.563 66.7077,138.563 67.6452,138.8755 67.6452,138.8755 68.2702,138.8755 68.2702,138.8755 69.2077,138.563 69.2077,138.563 69.8327,137.6255 69.8327,137.6255 70.1452,136.063 70.1452,136.063 70.1452,135.1255 70.1452,135.1255 69.8327,133.563 69.8327,133.563 69.2077,132.6255 69.2077,132.6255 68.2702,132.313 68.2702,132.313"/>
    <polyline points="81.2156,154.9163 76.2156,141.7913 76.2156,141.7913 71.2156,154.9163"/>
    <line x1="73.0906" x2="79.3406" y1="150.5413" y2="150.5413"/>
    <polyline points="132.2835,130.3937 132.2835,168.189 132.2835,168.189 132.2835,205.9843 132.2835,205.9843 132.2835,243.7795 132.2835,243.7795 170.0787,243.7795 170.0787,243.7795 170.0787,205.9843 170.0787,205.9843 170.0787,168.189 170.0787,168.189 170.0787,130.3937"/>
    <line x1="132.2835" x2="170.0787" y1="168.189" y2="168.189"/>
    <polygon points="149.3061,141.7913 149.3061,154.9163 149.3061,154.9163 153.6811,154.9163 153.6811,154.9163 155.5561,154.2913 155.5561,154.2913 156.8061,153.0413 156.8061,153.0413 157.4311,151.7913 157.4311,151.7913 158.0561,149.9163 158.0561,149.9163 158.0561,146.7913 158.0561,146.7913 157.4311,144.9163 157.4311,144.9163 156.8061,143.6663 156.8061,143.6663 155.5561,142.4163 155.5561,142.4163 153.6811,141.7913 153.6811,141.7913"/>
    <polyline points="283.4646,130.3937 283.4646,168.189 283.4646,168.189 283.4646,205.9843 283.4646,205.9843 283.4646,243.7795 283.4646,243.7795 321.2598,243.7795 321.2598,243.7795 321.2598,205.9843 321.2598,205.9843 283.4646,205.9843 283.4646,205.9843 245.6693,205.9843"/>
    <polyline points="308.9247,141.7913 300.7997,141.7913 300.7997,141.7913 300.7997,154.9163 300.7997,154.9163 308.9247,154.9163"/>
    <line x1="300.7997" x2="305.7997" y1="148.0413" y2="148.0413"/>
    <polygon points="413.873,141.7913 413.873,154.9163 413.873,154.9163 418.248,154.9163 418.248,154.9163 420.123,154.2913 420.123,154.2913 421.373,153.0413 421.373,153.0413 421.998,151.7913 421.998,151.7913 422.623,149.9163 422.623,149.9163 422.623,146.7913 422.623,146.7913 421.998,144.9163 421.998,144.9163 421.373,143.6663 421.373,143.6663 420.123,142.4163 420.123,142.4163 418.248,141.7913 418.248,141.7913"/>
    <polyline points="524.7589,141.7913 529.7589,154.9163 529.7589,154.9163 534.7589,141.7913"/>
    <polyline points="737.0079,130.3937 737.0079,168.189 737.0079,168.189 774.8031,168.189 774.8031,168.189 774.8031,130.3937"/>
    <polyline points="754.0305,148.0413 759.6555,148.0413 759.6555,148.0413 761.5305,147.4163 761.5305,147.4163 762.1555,146.7913 762.1555,146.7913 762.7805,145.5413 762.7805,145.5413 762.7805,144.2913 762.7805,144.2913 762.1555,143.0413 762.1555,143.0413 761.5305,142.4163 761.5305,142.4163 759.6555,141.7913 759.6555,141.7913 754.0305,141.7913 754.0305,141.7913 754.0305,154.9163"/>
    <line x1="758.4055" x2="762.7805" y1="148.0413" y2="154.9163"/>
    <line x1="56.6929" x2="94.4882" y1="205.9843" y2="205.9843"/>
    <polyline points="82.4656,179.5866 82.4656,192.7116 82.4656,192.7116 73.7156,179.5866 73.7156,179.5866 73.7156,192.7116"/>
    <line x1="132.2835" x2="170.0787" y1="205.9843" y2="205.9843"/>
    <polyline points="157.7436,179.5866 149.6186,179.5866 149.6186,179.5866 149.6186,192.7116 149.6186,192.7116 157.7436,192.7116"/>
    <line x1="149.6186" x2="154.6186" y1="185.8366" y2="185.8366"/>
    <polyline points="211.6388,171.3583 212.2638,171.0458 212.2638,171.0458 213.2013,170.1083 213.2013,170.1083 213.2013,176.6708"/>
    <polyline points="217.8888,171.3583 218.5138,171.0458 218.5138,171.0458 219.4513,170.1083 219.4513,170.1083 219.4513,176.6708"/>
    <polyline points="231.1467,179.5866 231.1467,189.5866 231.1467,189.5866 230.5217,191.4616 230.5217,191.4616 229.8967,192.0866 229.8967,192.0866 228.6467,192.7116 228.6467,192.7116 227.3967,192.7116 227.3967,192.7116 226.1467,192.0866 226.1467,192.0866 225.5217,191.4616 225.5217,191.4616 224.8967,189.5866 224.8967,189.5866 224.8967,188.3366"/>
    <polyline points="270.1919,192.7116 265.1919,179.5866 265.1919,179.5866 260.1919,192.7116"/>
    <line x1="262.0669" x2="268.3169" y1="188.3366" y2="188.3366"/>
    <polyline points="309.2372,179.5866 309.2372,192.7116 309.2372,192.7116 300.4872,179.5866 300.4872,179.5866 300.4872,192.7116"/>
    <line x1="337.0325" x2="348.2825" y1="187.0866" y2="187.0866"/>
    <polyline points="359.0551,205.9843 396.8504,205.9843 396.8504,205.9843 434.6457,205.9843 434.6457,205.9843 472.4409,205.9843"/>
    <polyline points="372.9528,179.5866 376.0778,192.7116 376.0778,192.7116 379.2028,179.5866 379.2028,179.5866 382.3278,192.7116 382.3278,192.7116 385.4528,179.5866"/>
    <line x1="418.248" x2="418.248" y1="179.5866" y2="192.7116"/>
    <polyline points="452.2933,179.5866 452.2933,192.7116 452.2933,192.7116 459.7933,192.7116"/>
    <polyline points="490.0886,179.5866 490.0886,192.7116 490.0886,192.7116 497.5886,192.7116"/>
    <polygon points="510.2362,205.9843 548.0315,205.9843 548.0315,205.9843 548.0315,243.7795 548.0315,243.7795 510.2362,243.7795 510.2362,243.7795"/>
    <polyline points="535.6964,179.5866 527.5714,179.5866 527.5714,179.5866 527.5714,192.7116 527.5714,192.7116 535.6964,192.7116"/>
    <line x1="527.5714" x2="532.5714" y1="185.8366" y2="185.8366"/>
    <polyline points="574.4291,192.7116 574.4291,179.5866 574.4291,179.5866 569.4291,192.7116 569.4291,192.7116 564.4291,179.5866 564.4291,179.5866 564.4291,192.7116"/>
    <polyline points="737.0079,168.189 737.0079,205.9843 737.0079,205.9843 737.0079,243.7795 737.0079,243.7795 774.8031,243.7795 774.8031,243.7795 774.8031,205.9843 774.8031,205.9843 774.8031,168.189"/>
    <line x1="737.0079" x2="774.8031" y1="205.9843" y2="205.9843"/>
    <polygon points="756.5305,179.5866 755.2805,180.2116 755.2805,180.2116 754.0305,181.4616 754.0305,181.4616 753.4055,182.7116 753.4055,182.7116 752.7805,184.5866 752.7805,184.5866 752.7805,187.7116 752.7805,187.7116 753.4055,189.5866 753.4055,189.5866 754.0305,190.8366 754.0305,190.8366 755.2805,192.0866 755.2805,192.0866 756.5305,192.7116 756.5305,192.7116 759.0305,192.7116 759.0305,192.7116 760.2805,192.0866 760.2805,192.0866 761.5305,190.8366 761.5305,190.8366 762.1555,189.5866 762.1555,189.5866 762.7805,187.7116 762.7805,187.7116 762.7805,184.5866 762.7805,184.5866 762.1555,182.7116 762.1555,182.7116 761.5305,181.4616 761.5305,181.4616 760.2805,180.2116 760.2805,180.2116 759.0305,179.5866 759.0305,179.5866"/>
    <polyline points="82.4656,217.3819 82.4656,230.5069 82.4656,230.5069 73.7156,217.3819 73.7156,217.3819 73.7156,230.5069"/>
    <polyline points="149.3061,223.6319 154.9311,223.6319 154.9311,223.6319 156.8061,223.0069 156.8061,223.0069 157.4311,222.3819 157.4311,222.3819 158.0561,221.1319 158.0561,221.1319 158.0561,219.8819 158.0561,219.8819 157.4311,218.6319 157.4311,218.6319 156.8061,218.0069 156.8061,218.0069 154.9311,217.3819 154.9311,217.3819 149.3061,217.3819 149.3061,217.3819 149.3061,230.5069"/>
    <line x1="153.6811" x2="158.0561" y1="223.6319" y2="230.5069"/>
    <polyline points="306.1122,223.6319 307.9872,223.0069 307.9872,223.0069 308.6122,222.3819 308.6122,222.3819 309.2372,221.1319 309.2372,221.1319 309.2372,219.8819 309.2372,219.8819 308.6122,218.6319 308.6122,218.6319 307.9872,218.0069 307.9872,218.0069 306.1122,217.3819 306.1122,217.3819 300.4872,217.3819 300.4872,217.3819 300.4872,230.5069 300.4872,230.5069 306.1122,230.5069 306.1122,230.5069 307.9872,229.8819 307.9872,229.8819 308.6122,229.2569 308.6122,229.2569 309.2372,228.0069 309.2372,228.0069 309.2372,226.1319 309.2372,226.1319 308.6122,224.8819 308.6122,224.8819 307.9872,224.2569 307.9872,224.2569 306.1122,223.6319 306.1122,223.6319 300.4872,223.6319"/>
    <polygon points="416.373,217.3819 415.123,218.0069 415.123,218.0069 413.873,219.2569 413.873,219.2569 413.248,220.5069 413.248,220.5069 412.623,222.3819 412.623,222.3819 412.623,225.5069 412.623,225.5069 413.248,227.3819 413.248,227.3819 413.873,228.6319 413.873,228.6319 415.123,229.8819 415.123,229.8819 416.373,230.5069 416.373,230.5069 418.873,230.5069 418.873,230.5069 420.123,229.8819 420.123,229.8819 421.373,228.6319 421.373,228.6319 421.998,227.3819 421.998,227.3819 422.623,225.5069 422.623,225.5069 422.623,222.3819 422.623,222.3819 421.998,220.5069 421.998,220.5069 421.373,219.2569 421.373,219.2569 420.123,218.0069 420.123,218.0069 418.873,217.3819 418.873,217.3819"/>
    <polyline points="527.2589,223.6319 532.8839,223.6319 532.8839,223.6319 534.7589,223.0069 534.7589,223.0069 535.3839,222.3819 535.3839,222.3819 536.0089,221.1319 536.0089,221.1319 536.0089,219.8819 536.0089,219.8819 535.3839,218.6319 535.3839,218.6319 534.7589,218.0069 534.7589,218.0069 532.8839,217.3819 532.8839,217.3819 527.2589,217.3819 527.2589,217.3819 527.2589,230.5069"/>
    <line x1="531.6339" x2="536.0089" y1="223.6319" y2="230.5069"/>
    <polyline points="762.468,217.3819 754.343,217.3819 754.343,217.3819 754.343,230.5069 754.343,230.5069 762.468,230.5069"/>
    <line x1="754.343" x2="759.343" y1="223.6319" y2="223.6319"/>
    <polyline points="207.874,281.5748 170.0787,281.5748 170.0787,281.5748 170.0787,319.3701 170.0787,319.3701 132.2835,319.3701 132.2835,319.3701 132.2835,281.5748 132.2835,281.5748 132.2835,243.7795 132.2835,243.7795 94.4882,243.7795 94.4882,243.7795 94.4882,281.5748 94.4882,281.5748 94.4882,319.3701 94.4882,319.3701 94.4882,357.1654 94.4882,357.1654 56.6929,357.1654 56.6929,357.1654 56.6929,319.3701 56.6929,319.3701 56.6929,281.5748 56.6929,281.5748 56.6929,243.7795 56.6929,243.7795 18.8976,243.7795 18.8976,243.7795 18.8976,281.5748 18.8976,281.5748 56.6929,281.5748 56.6929,281.5748 94.4882,281.5748 94.4882,281.5748 132.2835,281.5748 132.2835,281.5748 170.0787,281.5748 170.0787,281.5748 170.0787,243.7795 170.0787,243.7795 207.874,243.7795 207.874,243.7795 245.6693,243.7795 245.6693,243.7795 245.6693,281.5748 245.6693,281.5748 207.874,281.5748 207.874,281.5748 207.874,243.7795"/>
    <polyline points="22.6624,246.9488 23.2874,246.6363 23.2874,246.6363 24.2249,245.6988 24.2249,245.6988 24.2249,252.2613"/>
    <polyline points="28.2874,247.2613 28.2874,246.9488 28.2874,246.9488 28.5999,246.3238 28.5999,246.3238 28.9124,246.0113 28.9124,246.0113 29.5374,245.6988 29.5374,245.6988 30.7874,245.6988 30.7874,245.6988 31.4124,246.0113 31.4124,246.0113 31.7249,246.3238 31.7249,246.3238 32.0374,246.9488 32.0374,246.9488 32.0374,247.5738 32.0374,247.5738 31.7249,248.1988 31.7249,248.1988 31.0999,249.1363 31.0999,249.1363 27.9749,252.2613 27.9749,252.2613 32.3499,252.2613"/>
    <polyline points="36.5453,255.1772 36.5453,268.3022 36.5453,268.3022 44.0453,268.3022"/>
    <polyline points="81.2156,268.3022 76.2156,255.1772 76.2156,255.1772 71.2156,268.3022"/>
    <line x1="73.0906" x2="79.3406" y1="263.9272" y2="263.9272"/>
    <line x1="111.5108" x2="111.5108" y1="255.1772" y2="268.3022"/>
    <line x1="120.2608" x2="111.5108" y1="255.1772" y2="263.9272"/>
    <line x1="114.6358" x2="120.2608" y1="260.8022" y2="268.3022"/>
    <polyline points="157.7436,255.1772 149.6186,255.1772 149.6186,255.1772 149.6186,268.3022 149.6186,268.3022 157.7436,268.3022"/>
    <line x1="149.6186" x2="154.6186" y1="261.4272" y2="261.4272"/>
    <polyline points="195.8514,255.1772 195.8514,268.3022 195.8514,268.3022 187.1014,255.1772 187.1014,255.1772 187.1014,268.3022"/>
    <polyline points="233.0217,257.0522 231.7717,255.8022 231.7717,255.8022 229.8967,255.1772 229.8967,255.1772 227.3967,255.1772 227.3967,255.1772 225.5217,255.8022 225.5217,255.8022 224.2717,257.0522 224.2717,257.0522 224.2717,258.3022 224.2717,258.3022 224.8967,259.5522 224.8967,259.5522 225.5217,260.1772 225.5217,260.1772 226.7717,260.8022 226.7717,260.8022 230.5217,262.0522 230.5217,262.0522 231.7717,262.6772 231.7717,262.6772 232.3967,263.3022 232.3967,263.3022 233.0217,264.5522 233.0217,264.5522 233.0217,266.4272 233.0217,266.4272 231.7717,267.6772 231.7717,267.6772 229.8967,268.3022 229.8967,268.3022 227.3967,268.3022 227.3967,268.3022 225.5217,267.6772 225.5217,267.6772 224.2717,266.4272"/>
    <polyline points="283.4646,243.7795 283.4646,281.5748 283.4646,281.5748 321.2598,281.5748 321.2598,281.5748 321.2598,243.7795"/>
    <polyline points="300.4872,255.1772 300.4872,264.5522 300.4872,264.5522 301.1122,266.4272 301.1122,266.4272 302.3622,267.6772 302.3622,267.6772 304.2372,268.3022 304.2372,268.3022 305.4872,268.3022 305.4872,268.3022 307.3622,267.6772 307.3622,267.6772 308.6122,266.4272 308.6122,266.4272 309.2372,264.5522 309.2372,264.5522 309.2372,255.1772"/>
    <polygon points="434.6457,243.7795 434.6457,281.5748 434.6457,281.5748 472.4409,281.5748 472.4409,281.5748 472.4409,243.7795 472.4409,243.7795"/>
    <polyline points="438.4104,246.9488 439.0354,246.6363 439.0354,246.6363 439.9729,245.6988 439.9729,245.6988 439.9729,252.2613"/>
    <polyline points="444.3479,245.6988 447.7854,245.6988 447.7854,245.6988 445.9104,248.1988 445.9104,248.1988 446.8479,248.1988 446.8479,248.1988 447.4729,248.5113 447.4729,248.5113 447.7854,248.8238 447.7854,248.8238 448.0979,249.7613 448.0979,249.7613 448.0979,250.3863 448.0979,250.3863 447.7854,251.3238 447.7854,251.3238 447.1604,251.9488 447.1604,251.9488 446.2229,252.2613 446.2229,252.2613 445.2854,252.2613 445.2854,252.2613 444.3479,251.9488 444.3479,251.9488 444.0354,251.6363 444.0354,251.6363 443.7229,251.0113"/>
    <polyline points="451.6683,255.1772 451.6683,264.5522 451.6683,264.5522 452.2933,266.4272 452.2933,266.4272 453.5433,267.6772 453.5433,267.6772 455.4183,268.3022 455.4183,268.3022 456.6683,268.3022 456.6683,268.3022 458.5433,267.6772 458.5433,267.6772 459.7933,266.4272 459.7933,266.4272 460.4183,264.5522 460.4183,264.5522 460.4183,255.1772"/>
    <polyline points="472.4409,281.5748 510.2362,281.5748 510.2362,281.5748 548.0315,281.5748 548.0315,281.5748 585.8268,281.5748 585.8268,281.5748 585.8268,243.7795 585.8268,243.7795 548.0315,243.7795 548.0315,243.7795 548.0315,281.5748 548.0315,281.5748 548.0315,319.3701 548.0315,319.3701 585.8268,319.3701 585.8268,319.3701 585.8268,357.1654 585.8268,357.1654 548.0315,357.1654 548.0315,357.1654 548.0315,319.3701 548.0315,319.3701 510.2362,319.3701 510.2362,319.3701 472.4409,319.3701 472.4409,319.3701 434.6457,319.3701 434.6457,319.3701 396.8504,319.3701 396.8504,319.3701 396.8504,357.1654 396.8504,357.1654 434.6457,357.1654 434.6457,357.1654 434.6457,319.3701"/>
    <polyline points="548.0315,357.1654 510.2362,357.1654 510.2362,357.1654 510.2362,319.3701 510.2362,319.3701 510.2362,281.5748 510.2362,281.5748 510.2362,243.7795 510.2362,243.7795 472.4409,243.7795"/>
    <line x1="493.8386" x2="493.8386" y1="255.1772" y2="268.3022"/>
    <line x1="529.7589" x2="529.7589" y1="255.1772" y2="268.3022"/>
    <line x1="525.3839" x2="534.1339" y1="255.1772" y2="255.1772"/>
    <polyline points="565.6791,255.1772 565.6791,268.3022 565.6791,268.3022 573.1791,268.3022"/>
    <polyline points="585.8268,281.5748 623.622,281.5748 623.622,281.5748 623.622,243.7795 623.622,243.7795 585.8268,243.7795"/>
    <line x1="607.2244" x2="607.2244" y1="255.1772" y2="268.3022"/>
    <polyline points="623.622,281.5748 661.4173,281.5748 661.4173,281.5748 699.2126,281.5748 699.2126,281.5748 699.2126,243.7795 699.2126,243.7795 661.4173,243.7795 661.4173,243.7795 623.622,243.7795"/>
    <line x1="661.4173" x2="661.4173" y1="281.5748" y2="243.7795"/>
    <line x1="640.6447" x2="640.6447" y1="255.1772" y2="268.3022"/>
    <line x1="649.3947" x2="640.6447" y1="255.1772" y2="263.9272"/>
    <line x1="643.7697" x2="649.3947" y1="260.8022" y2="268.3022"/>
    <line x1="678.44" x2="678.44" y1="255.1772" y2="268.3022"/>
    <line x1="687.19" x2="678.44" y1="255.1772" y2="263.9272"/>
    <line x1="681.565" x2="687.19" y1="260.8022" y2="268.3022"/>
    <polyline points="699.2126,281.5748 737.0079,281.5748 737.0079,281.5748 737.0079,243.7795 737.0079,243.7795 699.2126,243.7795"/>
    <polyline points="724.6727,255.1772 716.5477,255.1772 716.5477,255.1772 716.5477,268.3022 716.5477,268.3022 724.6727,268.3022"/>
    <line x1="716.5477" x2="721.5477" y1="261.4272" y2="261.4272"/>
    <polyline points="737.0079,281.5748 774.8031,281.5748 774.8031,281.5748 774.8031,243.7795"/>
    <polyline points="762.7805,255.1772 762.7805,268.3022 762.7805,268.3022 754.0305,255.1772 754.0305,255.1772 754.0305,268.3022"/>
    <line x1="56.6929" x2="94.4882" y1="319.3701" y2="319.3701"/>
    <polyline points="82.1531,292.9724 74.0281,292.9724 74.0281,292.9724 74.0281,306.0974 74.0281,306.0974 82.1531,306.0974"/>
    <line x1="74.0281" x2="79.0281" y1="299.2224" y2="299.2224"/>
    <polyline points="158.0561,292.9724 158.0561,306.0974 158.0561,306.0974 149.3061,292.9724 149.3061,292.9724 149.3061,306.0974"/>
    <polygon points="245.6693,281.5748 245.6693,319.3701 245.6693,319.3701 283.4646,319.3701 283.4646,319.3701 283.4646,281.5748 283.4646,281.5748"/>
    <polyline points="249.4341,284.7441 250.0591,284.4316 250.0591,284.4316 250.9966,283.4941 250.9966,283.4941 250.9966,290.0566"/>
    <polyline points="257.8716,290.0566 257.8716,283.4941 257.8716,283.4941 254.7466,287.8691 254.7466,287.8691 259.4341,287.8691"/>
    <polyline points="262.6919,299.8474 268.3169,299.8474 268.3169,299.8474 270.1919,299.2224 270.1919,299.2224 270.8169,298.5974 270.8169,298.5974 271.4419,297.3474 271.4419,297.3474 271.4419,295.4724 271.4419,295.4724 270.8169,294.2224 270.8169,294.2224 270.1919,293.5974 270.1919,293.5974 268.3169,292.9724 268.3169,292.9724 262.6919,292.9724 262.6919,292.9724 262.6919,306.0974"/>
    <polyline points="283.4646,319.3701 321.2598,319.3701 321.2598,319.3701 359.0551,319.3701 359.0551,319.3701 359.0551,281.5748 359.0551,281.5748 321.2598,281.5748 321.2598,281.5748 321.2598,319.3701"/>
    <line x1="304.8622" x2="304.8622" y1="292.9724" y2="306.0974"/>
    <polyline points="338.2825,299.8474 343.9075,299.8474 343.9075,299.8474 345.7825,299.2224 345.7825,299.2224 346.4075,298.5974 346.4075,298.5974 347.0325,297.3474 347.0325,297.3474 347.0325,295.4724 347.0325,295.4724 346.4075,294.2224 346.4075,294.2224 345.7825,293.5974 345.7825,293.5974 343.9075,292.9724 343.9075,292.9724 338.2825,292.9724 338.2825,292.9724 338.2825,306.0974"/>
    <polyline points="359.0551,319.3701 396.8504,319.3701 396.8504,319.3701 396.8504,281.5748 396.8504,281.5748 359.0551,281.5748"/>
    <line x1="380.4528" x2="380.4528" y1="292.9724" y2="306.0974"/>
    <polyline points="533.5089,292.9724 533.5089,302.9724 533.5089,302.9724 532.8839,304.8474 532.8839,304.8474 532.2589,305.4724 532.2589,305.4724 531.0089,306.0974 531.0089,306.0974 529.7589,306.0974 529.7589,306.0974 528.5089,305.4724 528.5089,305.4724 527.8839,304.8474 527.8839,304.8474 527.2589,302.9724 527.2589,302.9724 527.2589,301.7224"/>
    <polyline points="74.3406,330.7677 74.3406,343.8927 74.3406,343.8927 81.8406,343.8927"/>
    <polyline points="400.6152,322.5394 401.2402,322.2269 401.2402,322.2269 402.1777,321.2894 402.1777,321.2894 402.1777,327.8519"/>
    <polyline points="409.6777,321.2894 406.5527,321.2894 406.5527,321.2894 406.2402,324.1019 406.2402,324.1019 406.5527,323.7894 406.5527,323.7894 407.4902,323.4769 407.4902,323.4769 408.4277,323.4769 408.4277,323.4769 409.3652,323.7894 409.3652,323.7894 409.9902,324.4144 409.9902,324.4144 410.3027,325.3519 410.3027,325.3519 410.3027,325.9769 410.3027,325.9769 409.9902,326.9144 409.9902,326.9144 409.3652,327.5394 409.3652,327.5394 408.4277,327.8519 408.4277,327.8519 407.4902,327.8519 407.4902,327.8519 406.5527,327.5394 406.5527,327.5394 406.2402,327.2269 406.2402,327.2269 405.9277,326.6019"/>
    <polyline points="413.873,337.0177 419.498,337.0177 419.498,337.0177 421.373,336.3927 421.373,336.3927 421.998,335.7677 421.998,335.7677 422.623,334.5177 422.623,334.5177 422.623,333.2677 422.623,333.2677 421.998,332.0177 421.998,332.0177 421.373,331.3927 421.373,331.3927 419.498,330.7677 419.498,330.7677 413.873,330.7677 413.873,330.7677 413.873,343.8927"/>
    <line x1="418.248" x2="422.623" y1="337.0177" y2="343.8927"/>
    <polyline points="434.6457,357.1654 472.4409,357.1654 472.4409,357.1654 510.2362,357.1654"/>
    <line x1="472.4409" x2="472.4409" y1="357.1654" y2="319.3701"/>
    <polyline points="460.1058,330.7677 451.9808,330.7677 451.9808,330.7677 451.9808,343.8927 451.9808,343.8927 460.1058,343.8927"/>
    <line x1="451.9808" x2="456.9808" y1="337.0177" y2="337.0177"/>
    <polyline points="497.9011,333.8927 497.2761,332.6427 497.2761,332.6427 496.0261,331.3927 496.0261,331.3927 494.7761,330.7677 494.7761,330.7677 492.2761,330.7677 492.2761,330.7677 491.0261,331.3927 491.0261,331.3927 489.7761,332.6427 489.7761,332.6427 489.1511,333.8927 489.1511,333.8927 488.5261,335.7677 488.5261,335.7677 488.5261,338.8927 488.5261,338.8927 489.1511,340.7677 489.1511,340.7677 489.7761,342.0177 489.7761,342.0177 491.0261,343.2677 491.0261,343.2677 492.2761,343.8927 492.2761,343.8927 494.7761,343.8927 494.7761,343.8927 496.0261,343.2677 496.0261,343.2677 497.2761,342.0177 497.2761,342.0177 497.9011,340.7677 497.9011,340.7677 497.9011,338.8927 497.9011,338.8927 494.7761,338.8927"/>
    <polyline points="535.6964,330.7677 527.5714,330.7677 527.5714,330.7677 527.5714,343.8927 527.5714,343.8927 535.6964,343.8927"/>
    <line x1="527.5714" x2="532.5714" y1="337.0177" y2="337.0177"/>
    <polyline points="573.8041,330.7677 573.8041,343.8927 573.8041,343.8927 565.0541,330.7677 565.0541,330.7677 565.0541,343.8927"/>
    <polyline points="585.8268,357.1654 623.622,357.1654 623.622,357.1654 661.4173,357.1654 661.4173,357.1654 661.4173,319.3701 661.4173,319.3701 623.622,319.3701 623.622,319.3701 585.8268,319.3701"/>
    <line x1="623.622" x2="623.622" y1="357.1654" y2="319.3701"/>
    <polygon points="602.8494,330.7677 602.8494,343.8927 602.8494,343.8927 608.4744,343.8927 608.4744,343.8927 610.3494,343.2677 610.3494,343.2677 610.9744,342.6427 610.9744,342.6427 611.5994,341.3927 611.5994,341.3927 611.5994,339.5177 611.5994,339.5177 610.9744,338.2677 610.9744,338.2677 610.3494,337.6427 610.3494,337.6427 608.4744,337.0177 608.4744,337.0177 610.3494,336.3927 610.3494,336.3927 610.9744,335.7677 610.9744,335.7677 611.5994,334.5177 611.5994,334.5177 611.5994,333.2677 611.5994,333.2677 610.9744,332.0177 610.9744,332.0177 610.3494,331.3927 610.3494,331.3927 608.4744,330.7677 608.4744,330.7677"/>
    <line x1="602.8494" x2="608.4744" y1="337.0177" y2="337.0177"/>
    <polygon points="643.1447,330.7677 641.8947,331.3927 641.8947,331.3927 640.6447,332.6427 640.6447,332.6427 640.0197,333.8927 640.0197,333.8927 639.3947,335.7677 639.3947,335.7677 639.3947,338.8927 639.3947,338.8927 640.0197,340.7677 640.0197,340.7677 640.6447,342.0177 640.6447,342.0177 641.8947,343.2677 641.8947,343.2677 643.1447,343.8927 643.1447,343.8927 645.6447,343.8927 645.6447,343.8927 646.8947,343.2677 646.8947,343.2677 648.1447,342.0177 648.1447,342.0177 648.7697,340.7677 648.7697,340.7677 649.3947,338.8927 649.3947,338.8927 649.3947,335.7677 649.3947,335.7677 648.7697,333.8927 648.7697,333.8927 648.1447,332.6427 648.1447,332.6427 646.8947,331.3927 646.8947,331.3927 645.6447,330.7677 645.6447,330.7677"/>
    <polyline points="661.4173,357.1654 699.2126,357.1654 699.2126,357.1654 699.2126,319.3701 699.2126,319.3701 661.4173,319.3701"/>
    <polygon points="680.94,330.7677 679.69,331.3927 679.69,331.3927 678.44,332.6427 678.44,332.6427 677.815,333.8927 677.815,333.8927 677.19,335.7677 677.19,335.7677 677.19,338.8927 677.19,338.8927 677.815,340.7677 677.815,340.7677 678.44,342.0177 678.44,342.0177 679.69,343.2677 679.69,343.2677 680.94,343.8927 680.94,343.8927 683.44,343.8927 683.44,343.8927 684.69,343.2677 684.69,343.2677 685.94,342.0177 685.94,342.0177 686.565,340.7677 686.565,340.7677 687.19,338.8927 687.19,338.8927 687.19,335.7677 687.19,335.7677 686.565,333.8927 686.565,333.8927 685.94,332.6427 685.94,332.6427 684.69,331.3927 684.69,331.3927 683.44,330.7677 683.44,330.7677"/>
    <polyline points="699.2126,357.1654 737.0079,357.1654 737.0079,357.1654 737.0079,319.3701 737.0079,319.3701 699.2126,319.3701"/>
    <polyline points="724.6727,333.8927 724.0477,332.6427 724.0477,332.6427 722.7977,331.3927 722.7977,331.3927 721.5477,330.7677 721.5477,330.7677 719.0477,330.7677 719.0477,330.7677 717.7977,331.3927 717.7977,331.3927 716.5477,332.6427 716.5477,332.6427 715.9227,333.8927 715.9227,333.8927 715.2977,335.7677 715.2977,335.7677 715.2977,338.8927 715.2977,338.8927 715.9227,340.7677 715.9227,340.7677 716.5477,342.0177 716.5477,342.0177 717.7977,343.2677 717.7977,343.2677 719.0477,343.8927 719.0477,343.8927 721.5477,343.8927 721.5477,343.8927 722.7977,343.2677 722.7977,343.2677 724.0477,342.0177 724.0477,342.0177 724.6727,340.7677 724.6727,340.7677 724.6727,338.8927 724.6727,338.8927 721.5477,338.8927"/>
  </g>
</svg>
