<?xml version="1.0" encoding="utf-8" ?>
<svg xmlns="http://www.w3.org/2000/svg" xmlns:cc="http://creativecommons.org/ns" xmlns:dc="http://purl.org/dc/elements/1.1/" xmlns:ev="http://www.w3.org/2001/xml-events" xmlns:inkscape="http://www.inkscape.org/namespaces/inkscape" xmlns:rdf="http://www.w3.org/1999/02/22-rdf-syntax-ns" xmlns:sodipodi="http://sodipodi.sourceforge.net/DTD/sodipodi-0.dtd" xmlns:xlink="http://www.w3.org/1999/xlink" baseProfile="tiny" height="9.9cm" version="1.2" viewBox="0 0 793.7007874015749 374.1732283464567" width="21.0cm">
  <metadata>
    <rdf:RDF>
      <cc:Work>
        <dc:format>image/svg+xml</dc:format>
        <dc:source>vpype eval 'cell=10;width=210;height=99' eval 'nCols=20;nRows=9' eval 'cells=[1,4,8,9,10,11,12,13,14,15,16,17,18,21,24,30,34,41,44,46,47,48,49,50,51,52,53,54,58,61,64,70,74,76,77,78,79,80,81,82,83,84,85,86,90,96,98,101,104,107,108,109,110,111,112,113,114,115,116,121,124,126,130,136,139,142,143,144,145,146,147,148,149,150,151,152,153,156,157,158,159,164,166,179]' eval 'chars=[&quot;G&quot;,&quot;U&quot;,&quot;M&quot;,&quot;I&quot;,&quot;S&quot;,&quot;V&quot;,&quot;E&quot;,&quot;R&quot;,&quot;S&quot;,&quot;T&quot;,&quot;A&quot;,&quot;N&quot;,&quot;D&quot;,&quot;E&quot;,&quot;I&quot;,&quot;K&quot;,&quot;T&quot;,&quot;N&quot;,&quot;T&quot;,&quot;K&quot;,&quot;L&quot;,&quot;A&quot;,&quot;V&quot;,&quot;E&quot;,&quot;R&quot;,&quot;T&quot;,&quot;J&quot;,&quot;E&quot;,&quot;C&quot;,&quot;T&quot;,&quot;L&quot;,&quot;L&quot;,&quot;R&quot;,&quot;G&quot;,&quot;R&quot;,&quot;A&quot;,&quot;S&quot;,&quot;V&quot;,&quot;I&quot;,&quot;R&quot;,&quot;G&quot;,&quot;I&quot;,&quot;N&quot;,&quot;I&quot;,&quot;L&quot;,&quot;R&quot;,&quot;S&quot;,&quot;E&quot;,&quot;K&quot;,&quot;G&quot;,&quot;R&quot;,&quot;O&quot;,&quot;E&quot;,&quot;P&quot;,&quot;S&quot;,&quot;F&quot;,&quot;O&quot;,&quot;T&quot;,&quot;O&quot;,&quot;L&quot;,&quot;K&quot;,&quot;I&quot;,&quot;K&quot;,&quot;E&quot;,&quot;Z&quot;,&quot;F&quot;,&quot;L&quot;,&quot;E&quot;,&quot;S&quot;,&quot;S&quot;,&quot;E&quot;,&quot;N&quot;,&quot;G&quot;,&quot;E&quot;,&quot;L&quot;,&quot;U&quot;,&quot;K&quot;,&quot;N&quot;,&quot;I&quot;,&quot;C&quot;,&quot;O&quot;,&quot;N&quot;,&quot;A&quot;,&quot;N&quot;]' eval 'numbers=[1,4,8,10,14,46,58,76,80,107,126,139,142,156]' eval counter=1 eval charIndex=0 begin grid -o '%cell*mm%' '%cell*mm%' %nCols% %nRows% eval '%isCell=_i in cells%' eval '%number=_i in numbers%' eval '%size=10 if isCell else 0%' rect 0 0 '%size*mm%' '%size*mm%' text -s 10 -p 0.5mm 1.5mm '%counter if number else '&quot;'&quot;''&quot;'&quot;'%' text -s 20 -p 5mm 5mm -a center '%chars[charIndex] if isCell else '&quot;'&quot;''&quot;'&quot;'%' eval '%if number: counter+=1 %' eval '%if isCell: charIndex+=1 %' end splitall deduplicate linemerge --tolerance 0.1mm write -m none --page-size '%width*mm%x%height*mm%' --center ./svgs/solution/d36447.svg
</dc:source>
        <dc:date>2023-12-23T22:30:03.373240</dc:date>
      </cc:Work>
    </rdf:RDF>
  </metadata>
  <defs/>
  <g fill="none" id="layer1" inkscape:groupmode="layer" inkscape:label="1" stroke="#000000" style="display:inline">
    <polygon points="56.6929,17.0079 56.6929,54.8031 56.6929,54.8031 94.4882,54.8031 94.4882,54.8031 94.4882,17.0079 94.4882,17.0079"/>
    <polyline points="60.4577,20.1772 61.0827,19.8647 61.0827,19.8647 62.0202,18.9272 62.0202,18.9272 62.0202,25.4897"/>
    <polyline points="82.1531,31.5305 81.5281,30.2805 81.5281,30.2805 80.2781,29.0305 80.2781,29.0305 79.0281,28.4055 79.0281,28.4055 76.5281,28.4055 76.5281,28.4055 75.2781,29.0305 75.2781,29.0305 74.0281,30.2805 74.0281,30.2805 73.4031,31.5305 73.4031,31.5305 72.7781,33.4055 72.7781,33.4055 72.7781,36.5305 72.7781,36.5305 73.4031,38.4055 73.4031,38.4055 74.0281,39.6555 74.0281,39.6555 75.2781,40.9055 75.2781,40.9055 76.5281,41.5305 76.5281,41.5305 79.0281,41.5305 79.0281,41.5305 80.2781,40.9055 80.2781,40.9055 81.5281,39.6555 81.5281,39.6555 82.1531,38.4055 82.1531,38.4055 82.1531,36.5305 82.1531,36.5305 79.0281,36.5305"/>
    <polygon points="170.0787,17.0079 170.0787,54.8031 170.0787,54.8031 207.874,54.8031 207.874,54.8031 207.874,17.0079 207.874,17.0079"/>
    <polyline points="173.2185,20.4897 173.2185,20.1772 173.2185,20.1772 173.531,19.5522 173.531,19.5522 173.8435,19.2397 173.8435,19.2397 174.4685,18.9272 174.4685,18.9272 175.7185,18.9272 175.7185,18.9272 176.3435,19.2397 176.3435,19.2397 176.656,19.5522 176.656,19.5522 176.9685,20.1772 176.9685,20.1772 176.9685,20.8022 176.9685,20.8022 176.656,21.4272 176.656,21.4272 176.031,22.3647 176.031,22.3647 172.906,25.4897 172.906,25.4897 177.281,25.4897"/>
    <polyline points="187.1014,28.4055 187.1014,37.7805 187.1014,37.7805 187.7264,39.6555 187.7264,39.6555 188.9764,40.9055 188.9764,40.9055 190.8514,41.5305 190.8514,41.5305 192.1014,41.5305 192.1014,41.5305 193.9764,40.9055 193.9764,40.9055 195.2264,39.6555 195.2264,39.6555 195.8514,37.7805 195.8514,37.7805 195.8514,28.4055"/>
    <polygon points="321.2598,17.0079 321.2598,54.8031 321.2598,54.8031 359.0551,54.8031 359.0551,54.8031 359.0551,17.0079 359.0551,17.0079"/>
    <polyline points="324.7121,18.9272 328.1496,18.9272 328.1496,18.9272 326.2746,21.4272 326.2746,21.4272 327.2121,21.4272 327.2121,21.4272 327.8371,21.7397 327.8371,21.7397 328.1496,22.0522 328.1496,22.0522 328.4621,22.9897 328.4621,22.9897 328.4621,23.6147 328.4621,23.6147 328.1496,24.5522 328.1496,24.5522 327.5246,25.1772 327.5246,25.1772 326.5871,25.4897 326.5871,25.4897 325.6496,25.4897 325.6496,25.4897 324.7121,25.1772 324.7121,25.1772 324.3996,24.8647 324.3996,24.8647 324.0871,24.2397"/>
    <polyline points="347.6575,41.5305 347.6575,28.4055 347.6575,28.4055 342.6575,41.5305 342.6575,41.5305 337.6575,28.4055 337.6575,28.4055 337.6575,41.5305"/>
    <polyline points="359.0551,54.8031 396.8504,54.8031 396.8504,54.8031 396.8504,17.0079 396.8504,17.0079 359.0551,17.0079"/>
    <line x1="380.4528" x2="380.4528" y1="28.4055" y2="41.5305"/>
    <polyline points="434.6457,17.0079 472.4409,17.0079 472.4409,17.0079 510.2362,17.0079 510.2362,17.0079 510.2362,54.8031 510.2362,54.8031 472.4409,54.8031 472.4409,54.8031 434.6457,54.8031 434.6457,54.8031 434.6457,92.5984 434.6457,92.5984 396.8504,92.5984 396.8504,92.5984 396.8504,54.8031 396.8504,54.8031 434.6457,54.8031 434.6457,54.8031 434.6457,17.0079 434.6457,17.0079 396.8504,17.0079"/>
    <polyline points="402.8027,25.4897 402.8027,18.9272 402.8027,18.9272 399.6777,23.3022 399.6777,23.3022 404.3652,23.3022"/>
    <polyline points="421.998,30.2805 420.748,29.0305 420.748,29.0305 418.873,28.4055 418.873,28.4055 416.373,28.4055 416.373,28.4055 414.498,29.0305 414.498,29.0305 413.248,30.2805 413.248,30.2805 413.248,31.5305 413.248,31.5305 413.873,32.7805 413.873,32.7805 414.498,33.4055 414.498,33.4055 415.748,34.0305 415.748,34.0305 419.498,35.2805 419.498,35.2805 420.748,35.9055 420.748,35.9055 421.373,36.5305 421.373,36.5305 421.998,37.7805 421.998,37.7805 421.998,39.6555 421.998,39.6555 420.748,40.9055 420.748,40.9055 418.873,41.5305 418.873,41.5305 416.373,41.5305 416.373,41.5305 414.498,40.9055 414.498,40.9055 413.248,39.6555"/>
    <line x1="472.4409" x2="472.4409" y1="54.8031" y2="17.0079"/>
    <polyline points="449.1683,28.4055 454.1683,41.5305 454.1683,41.5305 459.1683,28.4055"/>
    <polyline points="497.9011,28.4055 489.7761,28.4055 489.7761,28.4055 489.7761,41.5305 489.7761,41.5305 497.9011,41.5305"/>
    <line x1="489.7761" x2="494.7761" y1="34.6555" y2="34.6555"/>
    <polyline points="510.2362,54.8031 548.0315,54.8031 548.0315,54.8031 548.0315,17.0079 548.0315,17.0079 510.2362,17.0079"/>
    <polyline points="527.2589,34.6555 532.8839,34.6555 532.8839,34.6555 534.7589,34.0305 534.7589,34.0305 535.3839,33.4055 535.3839,33.4055 536.0089,32.1555 536.0089,32.1555 536.0089,30.9055 536.0089,30.9055 535.3839,29.6555 535.3839,29.6555 534.7589,29.0305 534.7589,29.0305 532.8839,28.4055 532.8839,28.4055 527.2589,28.4055 527.2589,28.4055 527.2589,41.5305"/>
    <line x1="531.6339" x2="536.0089" y1="34.6555" y2="41.5305"/>
    <polyline points="434.6457,168.189 434.6457,205.9843 434.6457,205.9843 396.8504,205.9843 396.8504,205.9843 396.8504,168.189 396.8504,168.189 434.6457,168.189 434.6457,168.189 434.6457,130.3937 434.6457,130.3937 434.6457,92.5984 434.6457,92.5984 472.4409,92.5984 472.4409,92.5984 510.2362,92.5984 510.2362,92.5984 548.0315,92.5984 548.0315,92.5984 548.0315,54.8031 548.0315,54.8031 585.8268,54.8031 585.8268,54.8031 585.8268,17.0079 585.8268,17.0079 548.0315,17.0079"/>
    <polyline points="554.6088,18.9272 551.4838,18.9272 551.4838,18.9272 551.1713,21.7397 551.1713,21.7397 551.4838,21.4272 551.4838,21.4272 552.4213,21.1147 552.4213,21.1147 553.3588,21.1147 553.3588,21.1147 554.2963,21.4272 554.2963,21.4272 554.9213,22.0522 554.9213,22.0522 555.2338,22.9897 555.2338,22.9897 555.2338,23.6147 555.2338,23.6147 554.9213,24.5522 554.9213,24.5522 554.2963,25.1772 554.2963,25.1772 553.3588,25.4897 553.3588,25.4897 552.4213,25.4897 552.4213,25.4897 551.4838,25.1772 551.4838,25.1772 551.1713,24.8647 551.1713,24.8647 550.8588,24.2397"/>
    <polyline points="573.1791,30.2805 571.9291,29.0305 571.9291,29.0305 570.0541,28.4055 570.0541,28.4055 567.5541,28.4055 567.5541,28.4055 565.6791,29.0305 565.6791,29.0305 564.4291,30.2805 564.4291,30.2805 564.4291,31.5305 564.4291,31.5305 565.0541,32.7805 565.0541,32.7805 565.6791,33.4055 565.6791,33.4055 566.9291,34.0305 566.9291,34.0305 570.6791,35.2805 570.6791,35.2805 571.9291,35.9055 571.9291,35.9055 572.5541,36.5305 572.5541,36.5305 573.1791,37.7805 573.1791,37.7805 573.1791,39.6555 573.1791,39.6555 571.9291,40.9055 571.9291,40.9055 570.0541,41.5305 570.0541,41.5305 567.5541,41.5305 567.5541,41.5305 565.6791,40.9055 565.6791,40.9055 564.4291,39.6555"/>
    <polyline points="585.8268,92.5984 585.8268,130.3937 585.8268,130.3937 548.0315,130.3937 548.0315,130.3937 548.0315,92.5984 548.0315,92.5984 585.8268,92.5984 585.8268,92.5984 585.8268,54.8031 585.8268,54.8031 623.622,54.8031 623.622,54.8031 623.622,17.0079 623.622,17.0079 585.8268,17.0079"/>
    <line x1="605.3494" x2="605.3494" y1="28.4055" y2="41.5305"/>
    <line x1="600.9744" x2="609.7244" y1="28.4055" y2="28.4055"/>
    <polyline points="623.622,54.8031 661.4173,54.8031 661.4173,54.8031 699.2126,54.8031 699.2126,54.8031 699.2126,17.0079 699.2126,17.0079 661.4173,17.0079 661.4173,17.0079 623.622,17.0079"/>
    <line x1="661.4173" x2="661.4173" y1="54.8031" y2="17.0079"/>
    <polyline points="648.1447,41.5305 643.1447,28.4055 643.1447,28.4055 638.1447,41.5305"/>
    <line x1="640.0197" x2="646.2697" y1="37.1555" y2="37.1555"/>
    <polyline points="687.19,28.4055 687.19,41.5305 687.19,41.5305 678.44,28.4055 678.44,28.4055 678.44,41.5305"/>
    <polyline points="699.2126,54.8031 737.0079,54.8031 737.0079,54.8031 737.0079,17.0079 737.0079,17.0079 699.2126,17.0079"/>
    <polygon points="716.2352,28.4055 716.2352,41.5305 716.2352,41.5305 720.6102,41.5305 720.6102,41.5305 722.4852,40.9055 722.4852,40.9055 723.7352,39.6555 723.7352,39.6555 724.3602,38.4055 724.3602,38.4055 724.9852,36.5305 724.9852,36.5305 724.9852,33.4055 724.9852,33.4055 724.3602,31.5305 724.3602,31.5305 723.7352,30.2805 723.7352,30.2805 722.4852,29.0305 722.4852,29.0305 720.6102,28.4055 720.6102,28.4055"/>
    <polyline points="56.6929,54.8031 56.6929,92.5984 56.6929,92.5984 56.6929,130.3937 56.6929,130.3937 94.4882,130.3937 94.4882,130.3937 94.4882,92.5984 94.4882,92.5984 94.4882,54.8031"/>
    <line x1="56.6929" x2="94.4882" y1="92.5984" y2="92.5984"/>
    <polyline points="82.1531,66.2008 74.0281,66.2008 74.0281,66.2008 74.0281,79.3258 74.0281,79.3258 82.1531,79.3258"/>
    <line x1="74.0281" x2="79.0281" y1="72.4508" y2="72.4508"/>
    <polyline points="170.0787,54.8031 170.0787,92.5984 170.0787,92.5984 207.874,92.5984 207.874,92.5984 207.874,54.8031"/>
    <line x1="191.4764" x2="191.4764" y1="66.2008" y2="79.3258"/>
    <line x1="413.873" x2="413.873" y1="66.2008" y2="79.3258"/>
    <line x1="422.623" x2="413.873" y1="66.2008" y2="74.9508"/>
    <line x1="416.998" x2="422.623" y1="71.8258" y2="79.3258"/>
    <line x1="567.5541" x2="567.5541" y1="66.2008" y2="79.3258"/>
    <line x1="563.1791" x2="571.9291" y1="66.2008" y2="66.2008"/>
    <polyline points="82.4656,103.9961 82.4656,117.1211 82.4656,117.1211 73.7156,103.9961 73.7156,103.9961 73.7156,117.1211"/>
    <polyline points="170.0787,92.5984 170.0787,130.3937 170.0787,130.3937 170.0787,168.189 170.0787,168.189 132.2835,168.189 132.2835,168.189 94.4882,168.189 94.4882,168.189 94.4882,130.3937"/>
    <polyline points="170.0787,130.3937 207.874,130.3937 207.874,130.3937 207.874,92.5984"/>
    <line x1="189.6014" x2="189.6014" y1="103.9961" y2="117.1211"/>
    <line x1="185.2264" x2="193.9764" y1="103.9961" y2="103.9961"/>
    <polygon points="245.6693,92.5984 245.6693,130.3937 245.6693,130.3937 283.4646,130.3937 283.4646,130.3937 283.4646,92.5984 283.4646,92.5984"/>
    <polyline points="252.5591,95.4552 252.2466,94.8302 252.2466,94.8302 251.3091,94.5177 251.3091,94.5177 250.6841,94.5177 250.6841,94.5177 249.7466,94.8302 249.7466,94.8302 249.1216,95.7677 249.1216,95.7677 248.8091,97.3302 248.8091,97.3302 248.8091,98.8927 248.8091,98.8927 249.1216,100.1427 249.1216,100.1427 249.7466,100.7677 249.7466,100.7677 250.6841,101.0802 250.6841,101.0802 250.9966,101.0802 250.9966,101.0802 251.9341,100.7677 251.9341,100.7677 252.5591,100.1427 252.5591,100.1427 252.8716,99.2052 252.8716,99.2052 252.8716,98.8927 252.8716,98.8927 252.5591,97.9552 252.5591,97.9552 251.9341,97.3302 251.9341,97.3302 250.9966,97.0177 250.9966,97.0177 250.6841,97.0177 250.6841,97.0177 249.7466,97.3302 249.7466,97.3302 249.1216,97.9552 249.1216,97.9552 248.8091,98.8927"/>
    <line x1="262.6919" x2="262.6919" y1="103.9961" y2="117.1211"/>
    <line x1="271.4419" x2="262.6919" y1="103.9961" y2="112.7461"/>
    <line x1="265.8169" x2="271.4419" y1="109.6211" y2="117.1211"/>
    <polyline points="283.4646,130.3937 321.2598,130.3937 321.2598,130.3937 359.0551,130.3937 359.0551,130.3937 396.8504,130.3937 396.8504,130.3937 434.6457,130.3937 434.6457,130.3937 472.4409,130.3937 472.4409,130.3937 472.4409,92.5984"/>
    <polyline points="321.2598,130.3937 321.2598,92.5984 321.2598,92.5984 283.4646,92.5984"/>
    <polyline points="301.1122,103.9961 301.1122,117.1211 301.1122,117.1211 308.6122,117.1211"/>
    <polyline points="359.0551,130.3937 359.0551,92.5984 359.0551,92.5984 321.2598,92.5984"/>
    <polyline points="345.7825,117.1211 340.7825,103.9961 340.7825,103.9961 335.7825,117.1211"/>
    <line x1="337.6575" x2="343.9075" y1="112.7461" y2="112.7461"/>
    <polyline points="396.8504,168.189 396.8504,130.3937 396.8504,130.3937 396.8504,92.5984 396.8504,92.5984 359.0551,92.5984"/>
    <polyline points="373.5778,103.9961 378.5778,117.1211 378.5778,117.1211 383.5778,103.9961"/>
    <polyline points="422.3105,103.9961 414.1855,103.9961 414.1855,103.9961 414.1855,117.1211 414.1855,117.1211 422.3105,117.1211"/>
    <line x1="414.1855" x2="419.1855" y1="110.2461" y2="110.2461"/>
    <polyline points="451.6683,110.2461 457.2933,110.2461 457.2933,110.2461 459.1683,109.6211 459.1683,109.6211 459.7933,108.9961 459.7933,108.9961 460.4183,107.7461 460.4183,107.7461 460.4183,106.4961 460.4183,106.4961 459.7933,105.2461 459.7933,105.2461 459.1683,104.6211 459.1683,104.6211 457.2933,103.9961 457.2933,103.9961 451.6683,103.9961 451.6683,103.9961 451.6683,117.1211"/>
    <line x1="456.0433" x2="460.4183" y1="110.2461" y2="117.1211"/>
    <polyline points="472.4409,130.3937 510.2362,130.3937 510.2362,130.3937 548.0315,130.3937 548.0315,130.3937 548.0315,168.189 548.0315,168.189 585.8268,168.189 585.8268,168.189 585.8268,130.3937"/>
    <line x1="510.2362" x2="510.2362" y1="130.3937" y2="92.5984"/>
    <line x1="491.9636" x2="491.9636" y1="103.9961" y2="117.1211"/>
    <line x1="487.5886" x2="496.3386" y1="103.9961" y2="103.9961"/>
    <polyline points="533.5089,103.9961 533.5089,113.9961 533.5089,113.9961 532.8839,115.8711 532.8839,115.8711 532.2589,116.4961 532.2589,116.4961 531.0089,117.1211 531.0089,117.1211 529.7589,117.1211 529.7589,117.1211 528.5089,116.4961 528.5089,116.4961 527.8839,115.8711 527.8839,115.8711 527.2589,113.9961 527.2589,113.9961 527.2589,112.7461"/>
    <polyline points="573.4916,103.9961 565.3666,103.9961 565.3666,103.9961 565.3666,117.1211 565.3666,117.1211 573.4916,117.1211"/>
    <line x1="565.3666" x2="570.3666" y1="110.2461" y2="110.2461"/>
    <polygon points="699.2126,92.5984 699.2126,130.3937 699.2126,130.3937 737.0079,130.3937 737.0079,130.3937 737.0079,92.5984 737.0079,92.5984"/>
    <polyline points="702.0399,94.5177 706.4149,94.5177 706.4149,94.5177 703.2899,101.0802"/>
    <polyline points="724.6727,107.1211 724.0477,105.8711 724.0477,105.8711 722.7977,104.6211 722.7977,104.6211 721.5477,103.9961 721.5477,103.9961 719.0477,103.9961 719.0477,103.9961 717.7977,104.6211 717.7977,104.6211 716.5477,105.8711 716.5477,105.8711 715.9227,107.1211 715.9227,107.1211 715.2977,108.9961 715.2977,108.9961 715.2977,112.1211 715.2977,112.1211 715.9227,113.9961 715.9227,113.9961 716.5477,115.2461 716.5477,115.2461 717.7977,116.4961 717.7977,116.4961 719.0477,117.1211 719.0477,117.1211 721.5477,117.1211 721.5477,117.1211 722.7977,116.4961 722.7977,116.4961 724.0477,115.2461 724.0477,115.2461 724.6727,113.9961"/>
    <polyline points="56.6929,130.3937 56.6929,168.189 56.6929,168.189 94.4882,168.189 94.4882,168.189 94.4882,205.9843 94.4882,205.9843 132.2835,205.9843 132.2835,205.9843 132.2835,168.189"/>
    <line x1="76.2156" x2="76.2156" y1="141.7913" y2="154.9163"/>
    <line x1="71.8406" x2="80.5906" y1="141.7913" y2="141.7913"/>
    <polyline points="132.2835,205.9843 170.0787,205.9843 170.0787,205.9843 207.874,205.9843 207.874,205.9843 207.874,168.189 207.874,168.189 245.6693,168.189 245.6693,168.189 245.6693,205.9843 245.6693,205.9843 207.874,205.9843 207.874,205.9843 207.874,243.7795 207.874,243.7795 170.0787,243.7795 170.0787,243.7795 170.0787,205.9843 170.0787,205.9843 170.0787,168.189 170.0787,168.189 207.874,168.189 207.874,168.189 207.874,130.3937"/>
    <polyline points="187.7264,141.7913 187.7264,154.9163 187.7264,154.9163 195.2264,154.9163"/>
    <polyline points="414.498,141.7913 414.498,154.9163 414.498,154.9163 421.998,154.9163"/>
    <polyline points="565.0541,148.0413 570.6791,148.0413 570.6791,148.0413 572.5541,147.4163 572.5541,147.4163 573.1791,146.7913 573.1791,146.7913 573.8041,145.5413 573.8041,145.5413 573.8041,144.2913 573.8041,144.2913 573.1791,143.0413 573.1791,143.0413 572.5541,142.4163 572.5541,142.4163 570.6791,141.7913 570.6791,141.7913 565.0541,141.7913 565.0541,141.7913 565.0541,154.9163"/>
    <line x1="569.4291" x2="573.8041" y1="148.0413" y2="154.9163"/>
    <polygon points="623.622,130.3937 623.622,168.189 623.622,168.189 661.4173,168.189 661.4173,168.189 661.4173,130.3937 661.4173,130.3937"/>
    <polygon points="628.0118,132.313 627.0743,132.6255 627.0743,132.6255 626.7618,133.2505 626.7618,133.2505 626.7618,133.8755 626.7618,133.8755 627.0743,134.5005 627.0743,134.5005 627.6993,134.813 627.6993,134.813 628.9493,135.1255 628.9493,135.1255 629.8868,135.438 629.8868,135.438 630.5118,136.063 630.5118,136.063 630.8243,136.688 630.8243,136.688 630.8243,137.6255 630.8243,137.6255 630.5118,138.2505 630.5118,138.2505 630.1993,138.563 630.1993,138.563 629.2618,138.8755 629.2618,138.8755 628.0118,138.8755 628.0118,138.8755 627.0743,138.563 627.0743,138.563 626.7618,138.2505 626.7618,138.2505 626.4493,137.6255 626.4493,137.6255 626.4493,136.688 626.4493,136.688 626.7618,136.063 626.7618,136.063 627.3868,135.438 627.3868,135.438 628.3243,135.1255 628.3243,135.1255 629.5743,134.813 629.5743,134.813 630.1993,134.5005 630.1993,134.5005 630.5118,133.8755 630.5118,133.8755 630.5118,133.2505 630.5118,133.2505 630.1993,132.6255 630.1993,132.6255 629.2618,132.313 629.2618,132.313"/>
    <polyline points="649.0822,144.9163 648.4572,143.6663 648.4572,143.6663 647.2072,142.4163 647.2072,142.4163 645.9572,141.7913 645.9572,141.7913 643.4572,141.7913 643.4572,141.7913 642.2072,142.4163 642.2072,142.4163 640.9572,143.6663 640.9572,143.6663 640.3322,144.9163 640.3322,144.9163 639.7072,146.7913 639.7072,146.7913 639.7072,149.9163 639.7072,149.9163 640.3322,151.7913 640.3322,151.7913 640.9572,153.0413 640.9572,153.0413 642.2072,154.2913 642.2072,154.2913 643.4572,154.9163 643.4572,154.9163 645.9572,154.9163 645.9572,154.9163 647.2072,154.2913 647.2072,154.2913 648.4572,153.0413 648.4572,153.0413 649.0822,151.7913 649.0822,151.7913 649.0822,149.9163 649.0822,149.9163 645.9572,149.9163"/>
    <polyline points="661.4173,205.9843 623.622,205.9843 623.622,205.9843 623.622,243.7795 623.622,243.7795 661.4173,243.7795 661.4173,243.7795 661.4173,205.9843 661.4173,205.9843 661.4173,168.189 661.4173,168.189 699.2126,168.189 699.2126,168.189 699.2126,130.3937 699.2126,130.3937 661.4173,130.3937"/>
    <polyline points="678.44,148.0413 684.065,148.0413 684.065,148.0413 685.94,147.4163 685.94,147.4163 686.565,146.7913 686.565,146.7913 687.19,145.5413 687.19,145.5413 687.19,144.2913 687.19,144.2913 686.565,143.0413 686.565,143.0413 685.94,142.4163 685.94,142.4163 684.065,141.7913 684.065,141.7913 678.44,141.7913 678.44,141.7913 678.44,154.9163"/>
    <line x1="682.815" x2="687.19" y1="148.0413" y2="154.9163"/>
    <polygon points="699.2126,168.189 737.0079,168.189 737.0079,168.189 737.0079,130.3937 737.0079,130.3937 774.8031,130.3937 774.8031,130.3937 774.8031,168.189 774.8031,168.189 737.0079,168.189 737.0079,168.189 737.0079,205.9843 737.0079,205.9843 699.2126,205.9843 699.2126,205.9843"/>
    <polyline points="723.7352,154.9163 718.7352,141.7913 718.7352,141.7913 713.7352,154.9163"/>
    <line x1="715.6102" x2="721.8602" y1="150.5413" y2="150.5413"/>
    <polyline points="762.1555,143.6663 760.9055,142.4163 760.9055,142.4163 759.0305,141.7913 759.0305,141.7913 756.5305,141.7913 756.5305,141.7913 754.6555,142.4163 754.6555,142.4163 753.4055,143.6663 753.4055,143.6663 753.4055,144.9163 753.4055,144.9163 754.0305,146.1663 754.0305,146.1663 754.6555,146.7913 754.6555,146.7913 755.9055,147.4163 755.9055,147.4163 759.6555,148.6663 759.6555,148.6663 760.9055,149.2913 760.9055,149.2913 761.5305,149.9163 761.5305,149.9163 762.1555,151.1663 762.1555,151.1663 762.1555,153.0413 762.1555,153.0413 760.9055,154.2913 760.9055,154.2913 759.0305,154.9163 759.0305,154.9163 756.5305,154.9163 756.5305,154.9163 754.6555,154.2913 754.6555,154.2913 753.4055,153.0413"/>
    <polygon points="18.8976,168.189 18.8976,205.9843 18.8976,205.9843 56.6929,205.9843 56.6929,205.9843 56.6929,243.7795 56.6929,243.7795 94.4882,243.7795 94.4882,243.7795 94.4882,205.9843 94.4882,205.9843 56.6929,205.9843 56.6929,205.9843 56.6929,168.189 56.6929,168.189"/>
    <polyline points="25.7874,172.2958 25.4749,173.2333 25.4749,173.2333 24.8499,173.8583 24.8499,173.8583 23.9124,174.1708 23.9124,174.1708 23.5999,174.1708 23.5999,174.1708 22.6624,173.8583 22.6624,173.8583 22.0374,173.2333 22.0374,173.2333 21.7249,172.2958 21.7249,172.2958 21.7249,171.9833 21.7249,171.9833 22.0374,171.0458 22.0374,171.0458 22.6624,170.4208 22.6624,170.4208 23.5999,170.1083 23.5999,170.1083 23.9124,170.1083 23.9124,170.1083 24.8499,170.4208 24.8499,170.4208 25.4749,171.0458 25.4749,171.0458 25.7874,172.2958 25.7874,172.2958 25.7874,173.8583 25.7874,173.8583 25.4749,175.4208 25.4749,175.4208 24.8499,176.3583 24.8499,176.3583 23.9124,176.6708 23.9124,176.6708 23.2874,176.6708 23.2874,176.6708 22.3499,176.3583 22.3499,176.3583 22.0374,175.7333"/>
    <polyline points="33.4203,179.5866 38.4203,192.7116 38.4203,192.7116 43.4203,179.5866"/>
    <line x1="78.0906" x2="78.0906" y1="179.5866" y2="192.7116"/>
    <polyline points="111.5108,185.8366 117.1358,185.8366 117.1358,185.8366 119.0108,185.2116 119.0108,185.2116 119.6358,184.5866 119.6358,184.5866 120.2608,183.3366 120.2608,183.3366 120.2608,182.0866 120.2608,182.0866 119.6358,180.8366 119.6358,180.8366 119.0108,180.2116 119.0108,180.2116 117.1358,179.5866 117.1358,179.5866 111.5108,179.5866 111.5108,179.5866 111.5108,192.7116"/>
    <line x1="115.8858" x2="120.2608" y1="185.8366" y2="192.7116"/>
    <polyline points="157.7436,182.7116 157.1186,181.4616 157.1186,181.4616 155.8686,180.2116 155.8686,180.2116 154.6186,179.5866 154.6186,179.5866 152.1186,179.5866 152.1186,179.5866 150.8686,180.2116 150.8686,180.2116 149.6186,181.4616 149.6186,181.4616 148.9936,182.7116 148.9936,182.7116 148.3686,184.5866 148.3686,184.5866 148.3686,187.7116 148.3686,187.7116 148.9936,189.5866 148.9936,189.5866 149.6186,190.8366 149.6186,190.8366 150.8686,192.0866 150.8686,192.0866 152.1186,192.7116 152.1186,192.7116 154.6186,192.7116 154.6186,192.7116 155.8686,192.0866 155.8686,192.0866 157.1186,190.8366 157.1186,190.8366 157.7436,189.5866 157.7436,189.5866 157.7436,187.7116 157.7436,187.7116 154.6186,187.7116"/>
    <line x1="191.4764" x2="191.4764" y1="179.5866" y2="192.7116"/>
    <polyline points="233.6467,179.5866 233.6467,192.7116 233.6467,192.7116 224.8967,179.5866 224.8967,179.5866 224.8967,192.7116"/>
    <polyline points="245.6693,205.9843 283.4646,205.9843 283.4646,205.9843 283.4646,168.189 283.4646,168.189 245.6693,168.189"/>
    <line x1="267.0669" x2="267.0669" y1="179.5866" y2="192.7116"/>
    <polyline points="414.498,179.5866 414.498,192.7116 414.498,192.7116 421.998,192.7116"/>
    <polyline points="623.622,168.189 623.622,205.9843 623.622,205.9843 585.8268,205.9843 585.8268,205.9843 548.0315,205.9843 548.0315,205.9843 510.2362,205.9843 510.2362,205.9843 472.4409,205.9843 472.4409,205.9843 434.6457,205.9843 434.6457,205.9843 434.6457,243.7795 434.6457,243.7795 396.8504,243.7795 396.8504,243.7795 396.8504,205.9843 396.8504,205.9843 359.0551,205.9843 359.0551,205.9843 321.2598,205.9843 321.2598,205.9843 283.4646,205.9843 283.4646,205.9843 283.4646,243.7795 283.4646,243.7795 321.2598,243.7795 321.2598,243.7795 321.2598,205.9843"/>
    <polyline points="640.6447,185.8366 646.2697,185.8366 646.2697,185.8366 648.1447,185.2116 648.1447,185.2116 648.7697,184.5866 648.7697,184.5866 649.3947,183.3366 649.3947,183.3366 649.3947,182.0866 649.3947,182.0866 648.7697,180.8366 648.7697,180.8366 648.1447,180.2116 648.1447,180.2116 646.2697,179.5866 646.2697,179.5866 640.6447,179.5866 640.6447,179.5866 640.6447,192.7116"/>
    <line x1="645.0197" x2="649.3947" y1="185.8366" y2="192.7116"/>
    <polyline points="724.3602,181.4616 723.1102,180.2116 723.1102,180.2116 721.2352,179.5866 721.2352,179.5866 718.7352,179.5866 718.7352,179.5866 716.8602,180.2116 716.8602,180.2116 715.6102,181.4616 715.6102,181.4616 715.6102,182.7116 715.6102,182.7116 716.2352,183.9616 716.2352,183.9616 716.8602,184.5866 716.8602,184.5866 718.1102,185.2116 718.1102,185.2116 721.8602,186.4616 721.8602,186.4616 723.1102,187.0866 723.1102,187.0866 723.7352,187.7116 723.7352,187.7116 724.3602,188.9616 724.3602,188.9616 724.3602,190.8366 724.3602,190.8366 723.1102,192.0866 723.1102,192.0866 721.2352,192.7116 721.2352,192.7116 718.7352,192.7116 718.7352,192.7116 716.8602,192.0866 716.8602,192.0866 715.6102,190.8366"/>
    <polyline points="82.1531,217.3819 74.0281,217.3819 74.0281,217.3819 74.0281,230.5069 74.0281,230.5069 82.1531,230.5069"/>
    <line x1="74.0281" x2="79.0281" y1="223.6319" y2="223.6319"/>
    <line x1="187.1014" x2="187.1014" y1="217.3819" y2="230.5069"/>
    <line x1="195.8514" x2="187.1014" y1="217.3819" y2="226.1319"/>
    <line x1="190.2264" x2="195.8514" y1="223.0069" y2="230.5069"/>
    <polyline points="287.2293,209.1535 287.8543,208.841 287.8543,208.841 288.7918,207.9035 288.7918,207.9035 288.7918,214.466"/>
    <polygon points="294.4168,207.9035 293.4793,208.216 293.4793,208.216 292.8543,209.1535 292.8543,209.1535 292.5418,210.716 292.5418,210.716 292.5418,211.6535 292.5418,211.6535 292.8543,213.216 292.8543,213.216 293.4793,214.1535 293.4793,214.1535 294.4168,214.466 294.4168,214.466 295.0418,214.466 295.0418,214.466 295.9793,214.1535 295.9793,214.1535 296.6043,213.216 296.6043,213.216 296.9168,211.6535 296.9168,211.6535 296.9168,210.716 296.9168,210.716 296.6043,209.1535 296.6043,209.1535 295.9793,208.216 295.9793,208.216 295.0418,207.9035 295.0418,207.9035"/>
    <polyline points="308.9247,220.5069 308.2997,219.2569 308.2997,219.2569 307.0497,218.0069 307.0497,218.0069 305.7997,217.3819 305.7997,217.3819 303.2997,217.3819 303.2997,217.3819 302.0497,218.0069 302.0497,218.0069 300.7997,219.2569 300.7997,219.2569 300.1747,220.5069 300.1747,220.5069 299.5497,222.3819 299.5497,222.3819 299.5497,225.5069 299.5497,225.5069 300.1747,227.3819 300.1747,227.3819 300.7997,228.6319 300.7997,228.6319 302.0497,229.8819 302.0497,229.8819 303.2997,230.5069 303.2997,230.5069 305.7997,230.5069 305.7997,230.5069 307.0497,229.8819 307.0497,229.8819 308.2997,228.6319 308.2997,228.6319 308.9247,227.3819 308.9247,227.3819 308.9247,225.5069 308.9247,225.5069 305.7997,225.5069"/>
    <polyline points="321.2598,243.7795 359.0551,243.7795 359.0551,243.7795 396.8504,243.7795 396.8504,243.7795 396.8504,281.5748 396.8504,281.5748 434.6457,281.5748 434.6457,281.5748 434.6457,243.7795 434.6457,243.7795 472.4409,243.7795 472.4409,243.7795 472.4409,205.9843"/>
    <line x1="359.0551" x2="359.0551" y1="243.7795" y2="205.9843"/>
    <polyline points="338.2825,223.6319 343.9075,223.6319 343.9075,223.6319 345.7825,223.0069 345.7825,223.0069 346.4075,222.3819 346.4075,222.3819 347.0325,221.1319 347.0325,221.1319 347.0325,219.8819 347.0325,219.8819 346.4075,218.6319 346.4075,218.6319 345.7825,218.0069 345.7825,218.0069 343.9075,217.3819 343.9075,217.3819 338.2825,217.3819 338.2825,217.3819 338.2825,230.5069"/>
    <line x1="342.6575" x2="347.0325" y1="223.6319" y2="230.5069"/>
    <polygon points="378.5778,217.3819 377.3278,218.0069 377.3278,218.0069 376.0778,219.2569 376.0778,219.2569 375.4528,220.5069 375.4528,220.5069 374.8278,222.3819 374.8278,222.3819 374.8278,225.5069 374.8278,225.5069 375.4528,227.3819 375.4528,227.3819 376.0778,228.6319 376.0778,228.6319 377.3278,229.8819 377.3278,229.8819 378.5778,230.5069 378.5778,230.5069 381.0778,230.5069 381.0778,230.5069 382.3278,229.8819 382.3278,229.8819 383.5778,228.6319 383.5778,228.6319 384.2028,227.3819 384.2028,227.3819 384.8278,225.5069 384.8278,225.5069 384.8278,222.3819 384.8278,222.3819 384.2028,220.5069 384.2028,220.5069 383.5778,219.2569 383.5778,219.2569 382.3278,218.0069 382.3278,218.0069 381.0778,217.3819 381.0778,217.3819"/>
    <polyline points="422.3105,217.3819 414.1855,217.3819 414.1855,217.3819 414.1855,230.5069 414.1855,230.5069 422.3105,230.5069"/>
    <line x1="414.1855" x2="419.1855" y1="223.6319" y2="223.6319"/>
    <polyline points="451.6683,224.2569 457.2933,224.2569 457.2933,224.2569 459.1683,223.6319 459.1683,223.6319 459.7933,223.0069 459.7933,223.0069 460.4183,221.7569 460.4183,221.7569 460.4183,219.8819 460.4183,219.8819 459.7933,218.6319 459.7933,218.6319 459.1683,218.0069 459.1683,218.0069 457.2933,217.3819 457.2933,217.3819 451.6683,217.3819 451.6683,217.3819 451.6683,230.5069"/>
    <polyline points="472.4409,243.7795 510.2362,243.7795 510.2362,243.7795 548.0315,243.7795 548.0315,243.7795 585.8268,243.7795 585.8268,243.7795 585.8268,205.9843"/>
    <line x1="510.2362" x2="510.2362" y1="243.7795" y2="205.9843"/>
    <polyline points="497.5886,219.2569 496.3386,218.0069 496.3386,218.0069 494.4636,217.3819 494.4636,217.3819 491.9636,217.3819 491.9636,217.3819 490.0886,218.0069 490.0886,218.0069 488.8386,219.2569 488.8386,219.2569 488.8386,220.5069 488.8386,220.5069 489.4636,221.7569 489.4636,221.7569 490.0886,222.3819 490.0886,222.3819 491.3386,223.0069 491.3386,223.0069 495.0886,224.2569 495.0886,224.2569 496.3386,224.8819 496.3386,224.8819 496.9636,225.5069 496.9636,225.5069 497.5886,226.7569 497.5886,226.7569 497.5886,228.6319 497.5886,228.6319 496.3386,229.8819 496.3386,229.8819 494.4636,230.5069 494.4636,230.5069 491.9636,230.5069 491.9636,230.5069 490.0886,229.8819 490.0886,229.8819 488.8386,228.6319"/>
    <line x1="548.0315" x2="548.0315" y1="243.7795" y2="205.9843"/>
    <polyline points="535.6964,217.3819 527.5714,217.3819 527.5714,217.3819 527.5714,230.5069"/>
    <line x1="527.5714" x2="532.5714" y1="223.6319" y2="223.6319"/>
    <polygon points="567.5541,217.3819 566.3041,218.0069 566.3041,218.0069 565.0541,219.2569 565.0541,219.2569 564.4291,220.5069 564.4291,220.5069 563.8041,222.3819 563.8041,222.3819 563.8041,225.5069 563.8041,225.5069 564.4291,227.3819 564.4291,227.3819 565.0541,228.6319 565.0541,228.6319 566.3041,229.8819 566.3041,229.8819 567.5541,230.5069 567.5541,230.5069 570.0541,230.5069 570.0541,230.5069 571.3041,229.8819 571.3041,229.8819 572.5541,228.6319 572.5541,228.6319 573.1791,227.3819 573.1791,227.3819 573.8041,225.5069 573.8041,225.5069 573.8041,222.3819 573.8041,222.3819 573.1791,220.5069 573.1791,220.5069 572.5541,219.2569 572.5541,219.2569 571.3041,218.0069 571.3041,218.0069 570.0541,217.3819 570.0541,217.3819"/>
    <polyline points="585.8268,243.7795 623.622,243.7795 623.622,243.7795 623.622,281.5748 623.622,281.5748 661.4173,281.5748 661.4173,281.5748 661.4173,243.7795"/>
    <line x1="605.3494" x2="605.3494" y1="217.3819" y2="230.5069"/>
    <line x1="600.9744" x2="609.7244" y1="217.3819" y2="217.3819"/>
    <polygon points="643.1447,217.3819 641.8947,218.0069 641.8947,218.0069 640.6447,219.2569 640.6447,219.2569 640.0197,220.5069 640.0197,220.5069 639.3947,222.3819 639.3947,222.3819 639.3947,225.5069 639.3947,225.5069 640.0197,227.3819 640.0197,227.3819 640.6447,228.6319 640.6447,228.6319 641.8947,229.8819 641.8947,229.8819 643.1447,230.5069 643.1447,230.5069 645.6447,230.5069 645.6447,230.5069 646.8947,229.8819 646.8947,229.8819 648.1447,228.6319 648.1447,228.6319 648.7697,227.3819 648.7697,227.3819 649.3947,225.5069 649.3947,225.5069 649.3947,222.3819 649.3947,222.3819 648.7697,220.5069 648.7697,220.5069 648.1447,219.2569 648.1447,219.2569 646.8947,218.0069 646.8947,218.0069 645.6447,217.3819 645.6447,217.3819"/>
    <polyline points="56.6929,243.7795 56.6929,281.5748 56.6929,281.5748 94.4882,281.5748 94.4882,281.5748 94.4882,319.3701 94.4882,319.3701 132.2835,319.3701 132.2835,319.3701 170.0787,319.3701 170.0787,319.3701 170.0787,281.5748 170.0787,281.5748 207.874,281.5748 207.874,281.5748 207.874,243.7795"/>
    <polyline points="170.0787,243.7795 170.0787,281.5748 170.0787,281.5748 132.2835,281.5748 132.2835,281.5748 94.4882,281.5748 94.4882,281.5748 94.4882,243.7795"/>
    <polyline points="74.3406,255.1772 74.3406,268.3022 74.3406,268.3022 81.8406,268.3022"/>
    <line x1="187.1014" x2="187.1014" y1="255.1772" y2="268.3022"/>
    <line x1="195.8514" x2="187.1014" y1="255.1772" y2="263.9272"/>
    <line x1="190.2264" x2="195.8514" y1="260.8022" y2="268.3022"/>
    <polygon points="245.6693,243.7795 245.6693,281.5748 245.6693,281.5748 283.4646,281.5748 283.4646,281.5748 283.4646,243.7795 283.4646,243.7795"/>
    <polyline points="249.4341,246.9488 250.0591,246.6363 250.0591,246.6363 250.9966,245.6988 250.9966,245.6988 250.9966,252.2613"/>
    <polyline points="255.6841,246.9488 256.3091,246.6363 256.3091,246.6363 257.2466,245.6988 257.2466,245.6988 257.2466,252.2613"/>
    <line x1="267.0669" x2="267.0669" y1="255.1772" y2="268.3022"/>
    <line x1="413.873" x2="413.873" y1="255.1772" y2="268.3022"/>
    <line x1="422.623" x2="413.873" y1="255.1772" y2="263.9272"/>
    <line x1="416.998" x2="422.623" y1="260.8022" y2="268.3022"/>
    <polyline points="649.0822,255.1772 640.9572,255.1772 640.9572,255.1772 640.9572,268.3022 640.9572,268.3022 649.0822,268.3022"/>
    <line x1="640.9572" x2="645.9572" y1="261.4272" y2="261.4272"/>
    <polyline points="774.8031,319.3701 737.0079,319.3701 737.0079,319.3701 737.0079,357.1654 737.0079,357.1654 774.8031,357.1654 774.8031,357.1654 774.8031,319.3701 774.8031,319.3701 774.8031,281.5748 774.8031,281.5748 774.8031,243.7795 774.8031,243.7795 737.0079,243.7795 737.0079,243.7795 737.0079,281.5748 737.0079,281.5748 699.2126,281.5748 699.2126,281.5748 661.4173,281.5748 661.4173,281.5748 661.4173,319.3701 661.4173,319.3701 699.2126,319.3701 699.2126,319.3701 699.2126,281.5748"/>
    <polyline points="699.2126,319.3701 737.0079,319.3701 737.0079,319.3701 737.0079,281.5748 737.0079,281.5748 774.8031,281.5748"/>
    <polyline points="740.7726,246.9488 741.3976,246.6363 741.3976,246.6363 742.3351,245.6988 742.3351,245.6988 742.3351,252.2613"/>
    <polyline points="746.3976,247.2613 746.3976,246.9488 746.3976,246.9488 746.7101,246.3238 746.7101,246.3238 747.0226,246.0113 747.0226,246.0113 747.6476,245.6988 747.6476,245.6988 748.8976,245.6988 748.8976,245.6988 749.5226,246.0113 749.5226,246.0113 749.8351,246.3238 749.8351,246.3238 750.1476,246.9488 750.1476,246.9488 750.1476,247.5738 750.1476,247.5738 749.8351,248.1988 749.8351,248.1988 749.2101,249.1363 749.2101,249.1363 746.0851,252.2613 746.0851,252.2613 750.4601,252.2613"/>
    <polyline points="753.4055,255.1772 762.1555,255.1772 762.1555,255.1772 753.4055,268.3022 753.4055,268.3022 762.1555,268.3022"/>
    <line x1="132.2835" x2="132.2835" y1="319.3701" y2="281.5748"/>
    <polyline points="98.253,284.7441 98.878,284.4316 98.878,284.4316 99.8155,283.4941 99.8155,283.4941 99.8155,290.0566"/>
    <polyline points="104.1905,283.4941 107.628,283.4941 107.628,283.4941 105.753,285.9941 105.753,285.9941 106.6905,285.9941 106.6905,285.9941 107.3155,286.3066 107.3155,286.3066 107.628,286.6191 107.628,286.6191 107.9405,287.5566 107.9405,287.5566 107.9405,288.1816 107.9405,288.1816 107.628,289.1191 107.628,289.1191 107.003,289.7441 107.003,289.7441 106.0655,290.0566 106.0655,290.0566 105.128,290.0566 105.128,290.0566 104.1905,289.7441 104.1905,289.7441 103.878,289.4316 103.878,289.4316 103.5655,288.8066"/>
    <polyline points="119.9483,292.9724 111.8233,292.9724 111.8233,292.9724 111.8233,306.0974"/>
    <line x1="111.8233" x2="116.8233" y1="299.2224" y2="299.2224"/>
    <polyline points="149.9311,292.9724 149.9311,306.0974 149.9311,306.0974 157.4311,306.0974"/>
    <polygon points="170.0787,319.3701 207.874,319.3701 207.874,319.3701 245.6693,319.3701 245.6693,319.3701 245.6693,281.5748 245.6693,281.5748 207.874,281.5748 207.874,281.5748 207.874,319.3701 207.874,319.3701 207.874,357.1654 207.874,357.1654 170.0787,357.1654 170.0787,357.1654"/>
    <polyline points="195.5389,292.9724 187.4139,292.9724 187.4139,292.9724 187.4139,306.0974 187.4139,306.0974 195.5389,306.0974"/>
    <line x1="187.4139" x2="192.4139" y1="299.2224" y2="299.2224"/>
    <polyline points="233.0217,294.8474 231.7717,293.5974 231.7717,293.5974 229.8967,292.9724 229.8967,292.9724 227.3967,292.9724 227.3967,292.9724 225.5217,293.5974 225.5217,293.5974 224.2717,294.8474 224.2717,294.8474 224.2717,296.0974 224.2717,296.0974 224.8967,297.3474 224.8967,297.3474 225.5217,297.9724 225.5217,297.9724 226.7717,298.5974 226.7717,298.5974 230.5217,299.8474 230.5217,299.8474 231.7717,300.4724 231.7717,300.4724 232.3967,301.0974 232.3967,301.0974 233.0217,302.3474 233.0217,302.3474 233.0217,304.2224 233.0217,304.2224 231.7717,305.4724 231.7717,305.4724 229.8967,306.0974 229.8967,306.0974 227.3967,306.0974 227.3967,306.0974 225.5217,305.4724 225.5217,305.4724 224.2717,304.2224"/>
    <polyline points="321.2598,319.3701 283.4646,319.3701 283.4646,319.3701 283.4646,357.1654 283.4646,357.1654 245.6693,357.1654 245.6693,357.1654 245.6693,319.3701 245.6693,319.3701 283.4646,319.3701 283.4646,319.3701 283.4646,281.5748 283.4646,281.5748 321.2598,281.5748 321.2598,281.5748 321.2598,319.3701 321.2598,319.3701 359.0551,319.3701 359.0551,319.3701 359.0551,281.5748 359.0551,281.5748 321.2598,281.5748"/>
    <polyline points="270.8169,294.8474 269.5669,293.5974 269.5669,293.5974 267.6919,292.9724 267.6919,292.9724 265.1919,292.9724 265.1919,292.9724 263.3169,293.5974 263.3169,293.5974 262.0669,294.8474 262.0669,294.8474 262.0669,296.0974 262.0669,296.0974 262.6919,297.3474 262.6919,297.3474 263.3169,297.9724 263.3169,297.9724 264.5669,298.5974 264.5669,298.5974 268.3169,299.8474 268.3169,299.8474 269.5669,300.4724 269.5669,300.4724 270.1919,301.0974 270.1919,301.0974 270.8169,302.3474 270.8169,302.3474 270.8169,304.2224 270.8169,304.2224 269.5669,305.4724 269.5669,305.4724 267.6919,306.0974 267.6919,306.0974 265.1919,306.0974 265.1919,306.0974 263.3169,305.4724 263.3169,305.4724 262.0669,304.2224"/>
    <polyline points="308.9247,292.9724 300.7997,292.9724 300.7997,292.9724 300.7997,306.0974 300.7997,306.0974 308.9247,306.0974"/>
    <line x1="300.7997" x2="305.7997" y1="299.2224" y2="299.2224"/>
    <polyline points="347.0325,292.9724 347.0325,306.0974 347.0325,306.0974 338.2825,292.9724 338.2825,292.9724 338.2825,306.0974"/>
    <polyline points="359.0551,319.3701 396.8504,319.3701 396.8504,319.3701 434.6457,319.3701 434.6457,319.3701 434.6457,281.5748 434.6457,281.5748 472.4409,281.5748 472.4409,281.5748 510.2362,281.5748 510.2362,281.5748 548.0315,281.5748 548.0315,281.5748 548.0315,319.3701 548.0315,319.3701 510.2362,319.3701 510.2362,319.3701 510.2362,281.5748"/>
    <polyline points="396.8504,319.3701 396.8504,281.5748 396.8504,281.5748 359.0551,281.5748"/>
    <polyline points="384.5153,296.0974 383.8903,294.8474 383.8903,294.8474 382.6403,293.5974 382.6403,293.5974 381.3903,292.9724 381.3903,292.9724 378.8903,292.9724 378.8903,292.9724 377.6403,293.5974 377.6403,293.5974 376.3903,294.8474 376.3903,294.8474 375.7653,296.0974 375.7653,296.0974 375.1403,297.9724 375.1403,297.9724 375.1403,301.0974 375.1403,301.0974 375.7653,302.9724 375.7653,302.9724 376.3903,304.2224 376.3903,304.2224 377.6403,305.4724 377.6403,305.4724 378.8903,306.0974 378.8903,306.0974 381.3903,306.0974 381.3903,306.0974 382.6403,305.4724 382.6403,305.4724 383.8903,304.2224 383.8903,304.2224 384.5153,302.9724 384.5153,302.9724 384.5153,301.0974 384.5153,301.0974 381.3903,301.0974"/>
    <polyline points="422.3105,292.9724 414.1855,292.9724 414.1855,292.9724 414.1855,306.0974 414.1855,306.0974 422.3105,306.0974"/>
    <line x1="414.1855" x2="419.1855" y1="299.2224" y2="299.2224"/>
    <polyline points="434.6457,319.3701 472.4409,319.3701 472.4409,319.3701 472.4409,281.5748"/>
    <polyline points="452.2933,292.9724 452.2933,306.0974 452.2933,306.0974 459.7933,306.0974"/>
    <line x1="472.4409" x2="510.2362" y1="319.3701" y2="319.3701"/>
    <polyline points="489.4636,292.9724 489.4636,302.3474 489.4636,302.3474 490.0886,304.2224 490.0886,304.2224 491.3386,305.4724 491.3386,305.4724 493.2136,306.0974 493.2136,306.0974 494.4636,306.0974 494.4636,306.0974 496.3386,305.4724 496.3386,305.4724 497.5886,304.2224 497.5886,304.2224 498.2136,302.3474 498.2136,302.3474 498.2136,292.9724"/>
    <line x1="527.2589" x2="527.2589" y1="292.9724" y2="306.0974"/>
    <line x1="536.0089" x2="527.2589" y1="292.9724" y2="301.7224"/>
    <line x1="530.3839" x2="536.0089" y1="298.5974" y2="306.0974"/>
    <polyline points="623.622,281.5748 623.622,319.3701 623.622,319.3701 661.4173,319.3701"/>
    <polyline points="627.3868,284.7441 628.0118,284.4316 628.0118,284.4316 628.9493,283.4941 628.9493,283.4941 628.9493,290.0566"/>
    <polyline points="635.8243,290.0566 635.8243,283.4941 635.8243,283.4941 632.6993,287.8691 632.6993,287.8691 637.3868,287.8691"/>
    <polyline points="649.3947,292.9724 649.3947,306.0974 649.3947,306.0974 640.6447,292.9724 640.6447,292.9724 640.6447,306.0974"/>
    <line x1="682.815" x2="682.815" y1="292.9724" y2="306.0974"/>
    <polyline points="724.6727,296.0974 724.0477,294.8474 724.0477,294.8474 722.7977,293.5974 722.7977,293.5974 721.5477,292.9724 721.5477,292.9724 719.0477,292.9724 719.0477,292.9724 717.7977,293.5974 717.7977,293.5974 716.5477,294.8474 716.5477,294.8474 715.9227,296.0974 715.9227,296.0974 715.2977,297.9724 715.2977,297.9724 715.2977,301.0974 715.2977,301.0974 715.9227,302.9724 715.9227,302.9724 716.5477,304.2224 716.5477,304.2224 717.7977,305.4724 717.7977,305.4724 719.0477,306.0974 719.0477,306.0974 721.5477,306.0974 721.5477,306.0974 722.7977,305.4724 722.7977,305.4724 724.0477,304.2224 724.0477,304.2224 724.6727,302.9724"/>
    <polygon points="756.5305,292.9724 755.2805,293.5974 755.2805,293.5974 754.0305,294.8474 754.0305,294.8474 753.4055,296.0974 753.4055,296.0974 752.7805,297.9724 752.7805,297.9724 752.7805,301.0974 752.7805,301.0974 753.4055,302.9724 753.4055,302.9724 754.0305,304.2224 754.0305,304.2224 755.2805,305.4724 755.2805,305.4724 756.5305,306.0974 756.5305,306.0974 759.0305,306.0974 759.0305,306.0974 760.2805,305.4724 760.2805,305.4724 761.5305,304.2224 761.5305,304.2224 762.1555,302.9724 762.1555,302.9724 762.7805,301.0974 762.7805,301.0974 762.7805,297.9724 762.7805,297.9724 762.1555,296.0974 762.1555,296.0974 761.5305,294.8474 761.5305,294.8474 760.2805,293.5974 760.2805,293.5974 759.0305,292.9724 759.0305,292.9724"/>
    <polyline points="195.8514,330.7677 195.8514,343.8927 195.8514,343.8927 187.1014,330.7677 187.1014,330.7677 187.1014,343.8927"/>
    <polyline points="270.1919,343.8927 265.1919,330.7677 265.1919,330.7677 260.1919,343.8927"/>
    <line x1="262.0669" x2="268.3169" y1="339.5177" y2="339.5177"/>
    <polyline points="762.7805,330.7677 762.7805,343.8927 762.7805,343.8927 754.0305,330.7677 754.0305,330.7677 754.0305,343.8927"/>
  </g>
</svg>
