<?xml version="1.0" encoding="utf-8" ?>
<svg xmlns="http://www.w3.org/2000/svg" xmlns:cc="http://creativecommons.org/ns" xmlns:dc="http://purl.org/dc/elements/1.1/" xmlns:ev="http://www.w3.org/2001/xml-events" xmlns:inkscape="http://www.inkscape.org/namespaces/inkscape" xmlns:rdf="http://www.w3.org/1999/02/22-rdf-syntax-ns" xmlns:sodipodi="http://sodipodi.sourceforge.net/DTD/sodipodi-0.dtd" xmlns:xlink="http://www.w3.org/1999/xlink" baseProfile="tiny" height="9.9cm" version="1.2" viewBox="0 0 793.7007874015749 374.1732283464567" width="21.0cm">
  <metadata>
    <rdf:RDF>
      <cc:Work>
        <dc:format>image/svg+xml</dc:format>
        <dc:source>vpype eval 'cell=10;width=210;height=99' eval 'nCols=20;nRows=9' eval 'cells=[9,20,21,22,23,27,28,29,30,32,35,37,40,42,49,51,52,53,54,55,56,57,58,60,62,64,65,66,67,69,72,75,77,80,82,86,88,89,90,91,92,95,96,97,98,99,102,103,104,105,106,112,115,117,126,127,128,129,130,131,132,133,135,137,142,143,144,145,146,152,154,157,166,168,169,170,171,172,173,174,175,177]' eval 'chars=[&quot;R&quot;,&quot;S&quot;,&quot;T&quot;,&quot;E&quot;,&quot;R&quot;,&quot;G&quot;,&quot;R&quot;,&quot;A&quot;,&quot;S&quot;,&quot;H&quot;,&quot;C&quot;,&quot;R&quot;,&quot;I&quot;,&quot;M&quot;,&quot;D&quot;,&quot;P&quot;,&quot;A&quot;,&quot;R&quot;,&quot;K&quot;,&quot;E&quot;,&quot;R&quot;,&quot;E&quot;,&quot;N&quot;,&quot;E&quot;,&quot;I&quot;,&quot;P&quot;,&quot;I&quot;,&quot;P&quot;,&quot;I&quot;,&quot;I&quot;,&quot;N&quot;,&quot;N&quot;,&quot;G&quot;,&quot;N&quot;,&quot;E&quot;,&quot;I&quot;,&quot;H&quot;,&quot;O&quot;,&quot;O&quot;,&quot;F&quot;,&quot;D&quot;,&quot;T&quot;,&quot;R&quot;,&quot;E&quot;,&quot;I&quot;,&quot;N&quot;,&quot;L&quot;,&quot;O&quot;,&quot;W&quot;,&quot;I&quot;,&quot;E&quot;,&quot;D&quot;,&quot;J&quot;,&quot;N&quot;,&quot;T&quot;,&quot;E&quot;,&quot;L&quot;,&quot;E&quot;,&quot;F&quot;,&quot;O&quot;,&quot;O&quot;,&quot;N&quot;,&quot;E&quot;,&quot;B&quot;,&quot;M&quot;,&quot;A&quot;,&quot;R&quot;,&quot;I&quot;,&quot;E&quot;,&quot;E&quot;,&quot;J&quot;,&quot;U&quot;,&quot;R&quot;,&quot;B&quot;,&quot;R&quot;,&quot;O&quot;,&quot;E&quot;,&quot;K&quot;,&quot;Z&quot;,&quot;A&quot;,&quot;K&quot;,&quot;I&quot;]' eval 'numbers=[9,20,22,27,32,35,37,51,64,66,88,95,102,126,142,154,168]' eval counter=1 eval charIndex=0 begin grid -o '%cell*mm%' '%cell*mm%' %nCols% %nRows% eval '%isCell=_i in cells%' eval '%number=_i in numbers%' eval '%size=10 if isCell else 0%' rect 0 0 '%size*mm%' '%size*mm%' text -s 10 -p 0.5mm 1.5mm '%counter if number else '&quot;'&quot;''&quot;'&quot;'%' text -s 20 -p 5mm 5mm -a center '%chars[charIndex] if isCell else '&quot;'&quot;''&quot;'&quot;'%' eval '%if number: counter+=1 %' eval '%if isCell: charIndex+=1 %' end splitall deduplicate linemerge --tolerance 0.1mm write -m none --page-size '%width*mm%x%height*mm%' --center ./svgs/solution/d7c62c.svg
</dc:source>
        <dc:date>2023-12-23T22:30:06.290603</dc:date>
      </cc:Work>
    </rdf:RDF>
  </metadata>
  <defs/>
  <g fill="none" id="layer1" inkscape:groupmode="layer" inkscape:label="1" stroke="#000000" style="display:inline">
    <polygon points="359.0551,17.0079 359.0551,54.8031 359.0551,54.8031 396.8504,54.8031 396.8504,54.8031 396.8504,17.0079 396.8504,17.0079"/>
    <polyline points="362.8199,20.1772 363.4449,19.8647 363.4449,19.8647 364.3824,18.9272 364.3824,18.9272 364.3824,25.4897"/>
    <polyline points="376.0778,34.6555 381.7028,34.6555 381.7028,34.6555 383.5778,34.0305 383.5778,34.0305 384.2028,33.4055 384.2028,33.4055 384.8278,32.1555 384.8278,32.1555 384.8278,30.9055 384.8278,30.9055 384.2028,29.6555 384.2028,29.6555 383.5778,29.0305 383.5778,29.0305 381.7028,28.4055 381.7028,28.4055 376.0778,28.4055 376.0778,28.4055 376.0778,41.5305"/>
    <line x1="380.4528" x2="384.8278" y1="34.6555" y2="41.5305"/>
    <polygon points="18.8976,54.8031 18.8976,92.5984 18.8976,92.5984 18.8976,130.3937 18.8976,130.3937 18.8976,168.189 18.8976,168.189 56.6929,168.189 56.6929,168.189 56.6929,130.3937 56.6929,130.3937 56.6929,92.5984 56.6929,92.5984 94.4882,92.5984 94.4882,92.5984 132.2835,92.5984 132.2835,92.5984 132.2835,54.8031 132.2835,54.8031 94.4882,54.8031 94.4882,54.8031 56.6929,54.8031 56.6929,54.8031"/>
    <polyline points="18.8976,92.5984 56.6929,92.5984 56.6929,92.5984 56.6929,54.8031"/>
    <polyline points="22.0374,58.2849 22.0374,57.9724 22.0374,57.9724 22.3499,57.3474 22.3499,57.3474 22.6624,57.0349 22.6624,57.0349 23.2874,56.7224 23.2874,56.7224 24.5374,56.7224 24.5374,56.7224 25.1624,57.0349 25.1624,57.0349 25.4749,57.3474 25.4749,57.3474 25.7874,57.9724 25.7874,57.9724 25.7874,58.5974 25.7874,58.5974 25.4749,59.2224 25.4749,59.2224 24.8499,60.1599 24.8499,60.1599 21.7249,63.2849 21.7249,63.2849 26.0999,63.2849"/>
    <polyline points="44.0453,68.0758 42.7953,66.8258 42.7953,66.8258 40.9203,66.2008 40.9203,66.2008 38.4203,66.2008 38.4203,66.2008 36.5453,66.8258 36.5453,66.8258 35.2953,68.0758 35.2953,68.0758 35.2953,69.3258 35.2953,69.3258 35.9203,70.5758 35.9203,70.5758 36.5453,71.2008 36.5453,71.2008 37.7953,71.8258 37.7953,71.8258 41.5453,73.0758 41.5453,73.0758 42.7953,73.7008 42.7953,73.7008 43.4203,74.3258 43.4203,74.3258 44.0453,75.5758 44.0453,75.5758 44.0453,77.4508 44.0453,77.4508 42.7953,78.7008 42.7953,78.7008 40.9203,79.3258 40.9203,79.3258 38.4203,79.3258 38.4203,79.3258 36.5453,78.7008 36.5453,78.7008 35.2953,77.4508"/>
    <polyline points="132.2835,54.8031 170.0787,54.8031 170.0787,54.8031 170.0787,92.5984 170.0787,92.5984 132.2835,92.5984 132.2835,92.5984 132.2835,130.3937 132.2835,130.3937 132.2835,168.189 132.2835,168.189 94.4882,168.189 94.4882,168.189 94.4882,130.3937 94.4882,130.3937 94.4882,92.5984 94.4882,92.5984 94.4882,54.8031"/>
    <line x1="76.2156" x2="76.2156" y1="66.2008" y2="79.3258"/>
    <line x1="71.8406" x2="80.5906" y1="66.2008" y2="66.2008"/>
    <polyline points="97.9405,56.7224 101.378,56.7224 101.378,56.7224 99.503,59.2224 99.503,59.2224 100.4405,59.2224 100.4405,59.2224 101.0655,59.5349 101.0655,59.5349 101.378,59.8474 101.378,59.8474 101.6905,60.7849 101.6905,60.7849 101.6905,61.4099 101.6905,61.4099 101.378,62.3474 101.378,62.3474 100.753,62.9724 100.753,62.9724 99.8155,63.2849 99.8155,63.2849 98.878,63.2849 98.878,63.2849 97.9405,62.9724 97.9405,62.9724 97.628,62.6599 97.628,62.6599 97.3155,62.0349"/>
    <polyline points="119.9483,66.2008 111.8233,66.2008 111.8233,66.2008 111.8233,79.3258 111.8233,79.3258 119.9483,79.3258"/>
    <line x1="111.8233" x2="116.8233" y1="72.4508" y2="72.4508"/>
    <polyline points="149.3061,72.4508 154.9311,72.4508 154.9311,72.4508 156.8061,71.8258 156.8061,71.8258 157.4311,71.2008 157.4311,71.2008 158.0561,69.9508 158.0561,69.9508 158.0561,68.7008 158.0561,68.7008 157.4311,67.4508 157.4311,67.4508 156.8061,66.8258 156.8061,66.8258 154.9311,66.2008 154.9311,66.2008 149.3061,66.2008 149.3061,66.2008 149.3061,79.3258"/>
    <line x1="153.6811" x2="158.0561" y1="72.4508" y2="79.3258"/>
    <polygon points="283.4646,54.8031 283.4646,92.5984 283.4646,92.5984 321.2598,92.5984 321.2598,92.5984 321.2598,54.8031 321.2598,54.8031"/>
    <polyline points="289.4168,63.2849 289.4168,56.7224 289.4168,56.7224 286.2918,61.0974 286.2918,61.0974 290.9793,61.0974"/>
    <polyline points="308.9247,69.3258 308.2997,68.0758 308.2997,68.0758 307.0497,66.8258 307.0497,66.8258 305.7997,66.2008 305.7997,66.2008 303.2997,66.2008 303.2997,66.2008 302.0497,66.8258 302.0497,66.8258 300.7997,68.0758 300.7997,68.0758 300.1747,69.3258 300.1747,69.3258 299.5497,71.2008 299.5497,71.2008 299.5497,74.3258 299.5497,74.3258 300.1747,76.2008 300.1747,76.2008 300.7997,77.4508 300.7997,77.4508 302.0497,78.7008 302.0497,78.7008 303.2997,79.3258 303.2997,79.3258 305.7997,79.3258 305.7997,79.3258 307.0497,78.7008 307.0497,78.7008 308.2997,77.4508 308.2997,77.4508 308.9247,76.2008 308.9247,76.2008 308.9247,74.3258 308.9247,74.3258 305.7997,74.3258"/>
    <polyline points="321.2598,92.5984 359.0551,92.5984 359.0551,92.5984 359.0551,54.8031 359.0551,54.8031 321.2598,54.8031"/>
    <polyline points="338.2825,72.4508 343.9075,72.4508 343.9075,72.4508 345.7825,71.8258 345.7825,71.8258 346.4075,71.2008 346.4075,71.2008 347.0325,69.9508 347.0325,69.9508 347.0325,68.7008 347.0325,68.7008 346.4075,67.4508 346.4075,67.4508 345.7825,66.8258 345.7825,66.8258 343.9075,66.2008 343.9075,66.2008 338.2825,66.2008 338.2825,66.2008 338.2825,79.3258"/>
    <line x1="342.6575" x2="347.0325" y1="72.4508" y2="79.3258"/>
    <polyline points="359.0551,130.3937 359.0551,92.5984 359.0551,92.5984 396.8504,92.5984 396.8504,92.5984 396.8504,54.8031 396.8504,54.8031 434.6457,54.8031 434.6457,54.8031 434.6457,92.5984 434.6457,92.5984 396.8504,92.5984 396.8504,92.5984 396.8504,130.3937 396.8504,130.3937 396.8504,168.189 396.8504,168.189 359.0551,168.189 359.0551,168.189 321.2598,168.189 321.2598,168.189 321.2598,205.9843 321.2598,205.9843 359.0551,205.9843 359.0551,205.9843 359.0551,168.189 359.0551,168.189 359.0551,130.3937 359.0551,130.3937 396.8504,130.3937"/>
    <polyline points="383.5778,79.3258 378.5778,66.2008 378.5778,66.2008 373.5778,79.3258"/>
    <line x1="375.4528" x2="381.7028" y1="74.9508" y2="74.9508"/>
    <polyline points="421.998,68.0758 420.748,66.8258 420.748,66.8258 418.873,66.2008 418.873,66.2008 416.373,66.2008 416.373,66.2008 414.498,66.8258 414.498,66.8258 413.248,68.0758 413.248,68.0758 413.248,69.3258 413.248,69.3258 413.873,70.5758 413.873,70.5758 414.498,71.2008 414.498,71.2008 415.748,71.8258 415.748,71.8258 419.498,73.0758 419.498,73.0758 420.748,73.7008 420.748,73.7008 421.373,74.3258 421.373,74.3258 421.998,75.5758 421.998,75.5758 421.998,77.4508 421.998,77.4508 420.748,78.7008 420.748,78.7008 418.873,79.3258 418.873,79.3258 416.373,79.3258 416.373,79.3258 414.498,78.7008 414.498,78.7008 413.248,77.4508"/>
    <polygon points="472.4409,54.8031 472.4409,92.5984 472.4409,92.5984 510.2362,92.5984 510.2362,92.5984 510.2362,54.8031 510.2362,54.8031"/>
    <polyline points="479.0182,56.7224 475.8932,56.7224 475.8932,56.7224 475.5807,59.5349 475.5807,59.5349 475.8932,59.2224 475.8932,59.2224 476.8307,58.9099 476.8307,58.9099 477.7682,58.9099 477.7682,58.9099 478.7057,59.2224 478.7057,59.2224 479.3307,59.8474 479.3307,59.8474 479.6432,60.7849 479.6432,60.7849 479.6432,61.4099 479.6432,61.4099 479.3307,62.3474 479.3307,62.3474 478.7057,62.9724 478.7057,62.9724 477.7682,63.2849 477.7682,63.2849 476.8307,63.2849 476.8307,63.2849 475.8932,62.9724 475.8932,62.9724 475.5807,62.6599 475.5807,62.6599 475.2682,62.0349"/>
    <line x1="489.4636" x2="489.4636" y1="66.2008" y2="79.3258"/>
    <line x1="498.2136" x2="498.2136" y1="66.2008" y2="79.3258"/>
    <line x1="489.4636" x2="498.2136" y1="72.4508" y2="72.4508"/>
    <polygon points="585.8268,54.8031 585.8268,92.5984 585.8268,92.5984 623.622,92.5984 623.622,92.5984 623.622,54.8031 623.622,54.8031"/>
    <polyline points="592.7165,57.6599 592.404,57.0349 592.404,57.0349 591.4665,56.7224 591.4665,56.7224 590.8415,56.7224 590.8415,56.7224 589.904,57.0349 589.904,57.0349 589.279,57.9724 589.279,57.9724 588.9665,59.5349 588.9665,59.5349 588.9665,61.0974 588.9665,61.0974 589.279,62.3474 589.279,62.3474 589.904,62.9724 589.904,62.9724 590.8415,63.2849 590.8415,63.2849 591.154,63.2849 591.154,63.2849 592.0915,62.9724 592.0915,62.9724 592.7165,62.3474 592.7165,62.3474 593.029,61.4099 593.029,61.4099 593.029,61.0974 593.029,61.0974 592.7165,60.1599 592.7165,60.1599 592.0915,59.5349 592.0915,59.5349 591.154,59.2224 591.154,59.2224 590.8415,59.2224 590.8415,59.2224 589.904,59.5349 589.904,59.5349 589.279,60.1599 589.279,60.1599 588.9665,61.0974"/>
    <polyline points="611.2869,69.3258 610.6619,68.0758 610.6619,68.0758 609.4119,66.8258 609.4119,66.8258 608.1619,66.2008 608.1619,66.2008 605.6619,66.2008 605.6619,66.2008 604.4119,66.8258 604.4119,66.8258 603.1619,68.0758 603.1619,68.0758 602.5369,69.3258 602.5369,69.3258 601.9119,71.2008 601.9119,71.2008 601.9119,74.3258 601.9119,74.3258 602.5369,76.2008 602.5369,76.2008 603.1619,77.4508 603.1619,77.4508 604.4119,78.7008 604.4119,78.7008 605.6619,79.3258 605.6619,79.3258 608.1619,79.3258 608.1619,79.3258 609.4119,78.7008 609.4119,78.7008 610.6619,77.4508 610.6619,77.4508 611.2869,76.2008"/>
    <polygon points="661.4173,54.8031 661.4173,92.5984 661.4173,92.5984 699.2126,92.5984 699.2126,92.5984 699.2126,54.8031 699.2126,54.8031"/>
    <polyline points="664.2446,56.7224 668.6196,56.7224 668.6196,56.7224 665.4946,63.2849"/>
    <polyline points="678.44,72.4508 684.065,72.4508 684.065,72.4508 685.94,71.8258 685.94,71.8258 686.565,71.2008 686.565,71.2008 687.19,69.9508 687.19,69.9508 687.19,68.7008 687.19,68.7008 686.565,67.4508 686.565,67.4508 685.94,66.8258 685.94,66.8258 684.065,66.2008 684.065,66.2008 678.44,66.2008 678.44,66.2008 678.44,79.3258"/>
    <line x1="682.815" x2="687.19" y1="72.4508" y2="79.3258"/>
    <line x1="18.8976" x2="56.6929" y1="130.3937" y2="130.3937"/>
    <line x1="40.2953" x2="40.2953" y1="103.9961" y2="117.1211"/>
    <line x1="94.4882" x2="132.2835" y1="130.3937" y2="130.3937"/>
    <polyline points="120.8858,117.1211 120.8858,103.9961 120.8858,103.9961 115.8858,117.1211 115.8858,117.1211 110.8858,103.9961 110.8858,103.9961 110.8858,117.1211"/>
    <polygon points="376.0778,103.9961 376.0778,117.1211 376.0778,117.1211 380.4528,117.1211 380.4528,117.1211 382.3278,116.4961 382.3278,116.4961 383.5778,115.2461 383.5778,115.2461 384.2028,113.9961 384.2028,113.9961 384.8278,112.1211 384.8278,112.1211 384.8278,108.9961 384.8278,108.9961 384.2028,107.1211 384.2028,107.1211 383.5778,105.8711 383.5778,105.8711 382.3278,104.6211 382.3278,104.6211 380.4528,103.9961 380.4528,103.9961"/>
    <polyline points="510.2362,168.189 510.2362,205.9843 510.2362,205.9843 472.4409,205.9843 472.4409,205.9843 472.4409,168.189 472.4409,168.189 472.4409,130.3937 472.4409,130.3937 472.4409,92.5984 472.4409,92.5984 434.6457,92.5984 434.6457,92.5984 434.6457,130.3937 434.6457,130.3937 472.4409,130.3937 472.4409,130.3937 510.2362,130.3937 510.2362,130.3937 548.0315,130.3937 548.0315,130.3937 548.0315,92.5984 548.0315,92.5984 510.2362,92.5984 510.2362,92.5984 510.2362,130.3937 510.2362,130.3937 510.2362,168.189 510.2362,168.189 472.4409,168.189 472.4409,168.189 434.6457,168.189 434.6457,168.189 396.8504,168.189 396.8504,168.189 396.8504,205.9843 396.8504,205.9843 434.6457,205.9843 434.6457,205.9843 434.6457,168.189"/>
    <polygon points="439.0354,94.5177 438.0979,94.8302 438.0979,94.8302 437.7854,95.4552 437.7854,95.4552 437.7854,96.0802 437.7854,96.0802 438.0979,96.7052 438.0979,96.7052 438.7229,97.0177 438.7229,97.0177 439.9729,97.3302 439.9729,97.3302 440.9104,97.6427 440.9104,97.6427 441.5354,98.2677 441.5354,98.2677 441.8479,98.8927 441.8479,98.8927 441.8479,99.8302 441.8479,99.8302 441.5354,100.4552 441.5354,100.4552 441.2229,100.7677 441.2229,100.7677 440.2854,101.0802 440.2854,101.0802 439.0354,101.0802 439.0354,101.0802 438.0979,100.7677 438.0979,100.7677 437.7854,100.4552 437.7854,100.4552 437.4729,99.8302 437.4729,99.8302 437.4729,98.8927 437.4729,98.8927 437.7854,98.2677 437.7854,98.2677 438.4104,97.6427 438.4104,97.6427 439.3479,97.3302 439.3479,97.3302 440.5979,97.0177 440.5979,97.0177 441.2229,96.7052 441.2229,96.7052 441.5354,96.0802 441.5354,96.0802 441.5354,95.4552 441.5354,95.4552 441.2229,94.8302 441.2229,94.8302 440.2854,94.5177 440.2854,94.5177"/>
    <polyline points="451.6683,110.8711 457.2933,110.8711 457.2933,110.8711 459.1683,110.2461 459.1683,110.2461 459.7933,109.6211 459.7933,109.6211 460.4183,108.3711 460.4183,108.3711 460.4183,106.4961 460.4183,106.4961 459.7933,105.2461 459.7933,105.2461 459.1683,104.6211 459.1683,104.6211 457.2933,103.9961 457.2933,103.9961 451.6683,103.9961 451.6683,103.9961 451.6683,117.1211"/>
    <polyline points="496.9636,117.1211 491.9636,103.9961 491.9636,103.9961 486.9636,117.1211"/>
    <line x1="488.8386" x2="495.0886" y1="112.7461" y2="112.7461"/>
    <polyline points="527.2589,110.2461 532.8839,110.2461 532.8839,110.2461 534.7589,109.6211 534.7589,109.6211 535.3839,108.9961 535.3839,108.9961 536.0089,107.7461 536.0089,107.7461 536.0089,106.4961 536.0089,106.4961 535.3839,105.2461 535.3839,105.2461 534.7589,104.6211 534.7589,104.6211 532.8839,103.9961 532.8839,103.9961 527.2589,103.9961 527.2589,103.9961 527.2589,117.1211"/>
    <line x1="531.6339" x2="536.0089" y1="110.2461" y2="117.1211"/>
    <polyline points="548.0315,130.3937 585.8268,130.3937 585.8268,130.3937 585.8268,92.5984 585.8268,92.5984 548.0315,92.5984"/>
    <line x1="565.0541" x2="565.0541" y1="103.9961" y2="117.1211"/>
    <line x1="573.8041" x2="565.0541" y1="103.9961" y2="112.7461"/>
    <line x1="568.1791" x2="573.8041" y1="109.6211" y2="117.1211"/>
    <polyline points="737.0079,205.9843 699.2126,205.9843 699.2126,205.9843 661.4173,205.9843 661.4173,205.9843 661.4173,168.189 661.4173,168.189 623.622,168.189 623.622,168.189 585.8268,168.189 585.8268,168.189 585.8268,130.3937 585.8268,130.3937 623.622,130.3937 623.622,130.3937 623.622,92.5984 623.622,92.5984 661.4173,92.5984 661.4173,92.5984 661.4173,130.3937 661.4173,130.3937 661.4173,168.189 661.4173,168.189 699.2126,168.189 699.2126,168.189 699.2126,130.3937 699.2126,130.3937 699.2126,92.5984 699.2126,92.5984 737.0079,92.5984 737.0079,92.5984 737.0079,130.3937 737.0079,130.3937 699.2126,130.3937 699.2126,130.3937 661.4173,130.3937 661.4173,130.3937 623.622,130.3937 623.622,130.3937 623.622,168.189 623.622,168.189 623.622,205.9843 623.622,205.9843 661.4173,205.9843 661.4173,205.9843 661.4173,243.7795 661.4173,243.7795 699.2126,243.7795 699.2126,243.7795 699.2126,205.9843 699.2126,205.9843 699.2126,168.189 699.2126,168.189 737.0079,168.189 737.0079,168.189 737.0079,205.9843 737.0079,205.9843 774.8031,205.9843 774.8031,205.9843 774.8031,168.189 774.8031,168.189 737.0079,168.189"/>
    <polyline points="611.2869,103.9961 603.1619,103.9961 603.1619,103.9961 603.1619,117.1211 603.1619,117.1211 611.2869,117.1211"/>
    <line x1="603.1619" x2="608.1619" y1="110.2461" y2="110.2461"/>
    <polyline points="640.6447,110.2461 646.2697,110.2461 646.2697,110.2461 648.1447,109.6211 648.1447,109.6211 648.7697,108.9961 648.7697,108.9961 649.3947,107.7461 649.3947,107.7461 649.3947,106.4961 649.3947,106.4961 648.7697,105.2461 648.7697,105.2461 648.1447,104.6211 648.1447,104.6211 646.2697,103.9961 646.2697,103.9961 640.6447,103.9961 640.6447,103.9961 640.6447,117.1211"/>
    <line x1="645.0197" x2="649.3947" y1="110.2461" y2="117.1211"/>
    <polyline points="686.8775,103.9961 678.7525,103.9961 678.7525,103.9961 678.7525,117.1211 678.7525,117.1211 686.8775,117.1211"/>
    <line x1="678.7525" x2="683.7525" y1="110.2461" y2="110.2461"/>
    <polyline points="724.9852,103.9961 724.9852,117.1211 724.9852,117.1211 716.2352,103.9961 716.2352,103.9961 716.2352,117.1211"/>
    <polyline points="44.3578,141.7913 36.2328,141.7913 36.2328,141.7913 36.2328,154.9163 36.2328,154.9163 44.3578,154.9163"/>
    <line x1="36.2328" x2="41.2328" y1="148.0413" y2="148.0413"/>
    <line x1="115.8858" x2="115.8858" y1="141.7913" y2="154.9163"/>
    <polygon points="170.0787,130.3937 170.0787,168.189 170.0787,168.189 207.874,168.189 207.874,168.189 245.6693,168.189 245.6693,168.189 245.6693,130.3937 245.6693,130.3937 207.874,130.3937 207.874,130.3937"/>
    <line x1="207.874" x2="207.874" y1="168.189" y2="130.3937"/>
    <polyline points="176.9685,134.5005 176.656,135.438 176.656,135.438 176.031,136.063 176.031,136.063 175.0935,136.3755 175.0935,136.3755 174.781,136.3755 174.781,136.3755 173.8435,136.063 173.8435,136.063 173.2185,135.438 173.2185,135.438 172.906,134.5005 172.906,134.5005 172.906,134.188 172.906,134.188 173.2185,133.2505 173.2185,133.2505 173.8435,132.6255 173.8435,132.6255 174.781,132.313 174.781,132.313 175.0935,132.313 175.0935,132.313 176.031,132.6255 176.031,132.6255 176.656,133.2505 176.656,133.2505 176.9685,134.5005 176.9685,134.5005 176.9685,136.063 176.9685,136.063 176.656,137.6255 176.656,137.6255 176.031,138.563 176.031,138.563 175.0935,138.8755 175.0935,138.8755 174.4685,138.8755 174.4685,138.8755 173.531,138.563 173.531,138.563 173.2185,137.938"/>
    <polyline points="187.1014,148.6663 192.7264,148.6663 192.7264,148.6663 194.6014,148.0413 194.6014,148.0413 195.2264,147.4163 195.2264,147.4163 195.8514,146.1663 195.8514,146.1663 195.8514,144.2913 195.8514,144.2913 195.2264,143.0413 195.2264,143.0413 194.6014,142.4163 194.6014,142.4163 192.7264,141.7913 192.7264,141.7913 187.1014,141.7913 187.1014,141.7913 187.1014,154.9163"/>
    <line x1="229.2717" x2="229.2717" y1="141.7913" y2="154.9163"/>
    <polyline points="283.4646,130.3937 283.4646,168.189 283.4646,168.189 283.4646,205.9843 283.4646,205.9843 245.6693,205.9843 245.6693,205.9843 245.6693,168.189 245.6693,168.189 283.4646,168.189 283.4646,168.189 321.2598,168.189 321.2598,168.189 321.2598,130.3937 321.2598,130.3937 283.4646,130.3937 283.4646,130.3937 245.6693,130.3937"/>
    <polyline points="249.4341,133.563 250.0591,133.2505 250.0591,133.2505 250.9966,132.313 250.9966,132.313 250.9966,138.8755"/>
    <polygon points="256.6216,132.313 255.6841,132.6255 255.6841,132.6255 255.0591,133.563 255.0591,133.563 254.7466,135.1255 254.7466,135.1255 254.7466,136.063 254.7466,136.063 255.0591,137.6255 255.0591,137.6255 255.6841,138.563 255.6841,138.563 256.6216,138.8755 256.6216,138.8755 257.2466,138.8755 257.2466,138.8755 258.1841,138.563 258.1841,138.563 258.8091,137.6255 258.8091,137.6255 259.1216,136.063 259.1216,136.063 259.1216,135.1255 259.1216,135.1255 258.8091,133.563 258.8091,133.563 258.1841,132.6255 258.1841,132.6255 257.2466,132.313 257.2466,132.313"/>
    <polyline points="262.6919,148.6663 268.3169,148.6663 268.3169,148.6663 270.1919,148.0413 270.1919,148.0413 270.8169,147.4163 270.8169,147.4163 271.4419,146.1663 271.4419,146.1663 271.4419,144.2913 271.4419,144.2913 270.8169,143.0413 270.8169,143.0413 270.1919,142.4163 270.1919,142.4163 268.3169,141.7913 268.3169,141.7913 262.6919,141.7913 262.6919,141.7913 262.6919,154.9163"/>
    <line x1="304.8622" x2="304.8622" y1="141.7913" y2="154.9163"/>
    <line x1="380.4528" x2="380.4528" y1="141.7913" y2="154.9163"/>
    <polyline points="498.2136,141.7913 498.2136,154.9163 498.2136,154.9163 489.4636,141.7913 489.4636,141.7913 489.4636,154.9163"/>
    <polyline points="611.5994,141.7913 611.5994,154.9163 611.5994,154.9163 602.8494,141.7913 602.8494,141.7913 602.8494,154.9163"/>
    <polyline points="686.8775,144.9163 686.2525,143.6663 686.2525,143.6663 685.0025,142.4163 685.0025,142.4163 683.7525,141.7913 683.7525,141.7913 681.2525,141.7913 681.2525,141.7913 680.0025,142.4163 680.0025,142.4163 678.7525,143.6663 678.7525,143.6663 678.1275,144.9163 678.1275,144.9163 677.5025,146.7913 677.5025,146.7913 677.5025,149.9163 677.5025,149.9163 678.1275,151.7913 678.1275,151.7913 678.7525,153.0413 678.7525,153.0413 680.0025,154.2913 680.0025,154.2913 681.2525,154.9163 681.2525,154.9163 683.7525,154.9163 683.7525,154.9163 685.0025,154.2913 685.0025,154.2913 686.2525,153.0413 686.2525,153.0413 686.8775,151.7913 686.8775,151.7913 686.8775,149.9163 686.8775,149.9163 683.7525,149.9163"/>
    <polyline points="18.8976,168.189 18.8976,205.9843 18.8976,205.9843 56.6929,205.9843 56.6929,205.9843 56.6929,168.189"/>
    <polyline points="44.6703,179.5866 44.6703,192.7116 44.6703,192.7116 35.9203,179.5866 35.9203,179.5866 35.9203,192.7116"/>
    <polyline points="94.4882,168.189 94.4882,205.9843 94.4882,205.9843 132.2835,205.9843 132.2835,205.9843 132.2835,168.189"/>
    <polyline points="119.9483,179.5866 111.8233,179.5866 111.8233,179.5866 111.8233,192.7116 111.8233,192.7116 119.9483,192.7116"/>
    <line x1="111.8233" x2="116.8233" y1="185.8366" y2="185.8366"/>
    <line x1="267.0669" x2="267.0669" y1="179.5866" y2="192.7116"/>
    <polyline points="325.0246,171.3583 325.6496,171.0458 325.6496,171.0458 326.5871,170.1083 326.5871,170.1083 326.5871,176.6708"/>
    <polyline points="331.2746,171.3583 331.8996,171.0458 331.8996,171.0458 332.8371,170.1083 332.8371,170.1083 332.8371,176.6708"/>
    <line x1="338.2825" x2="338.2825" y1="179.5866" y2="192.7116"/>
    <line x1="347.0325" x2="347.0325" y1="179.5866" y2="192.7116"/>
    <line x1="338.2825" x2="347.0325" y1="185.8366" y2="185.8366"/>
    <line x1="359.0551" x2="396.8504" y1="205.9843" y2="205.9843"/>
    <polygon points="378.5778,179.5866 377.3278,180.2116 377.3278,180.2116 376.0778,181.4616 376.0778,181.4616 375.4528,182.7116 375.4528,182.7116 374.8278,184.5866 374.8278,184.5866 374.8278,187.7116 374.8278,187.7116 375.4528,189.5866 375.4528,189.5866 376.0778,190.8366 376.0778,190.8366 377.3278,192.0866 377.3278,192.0866 378.5778,192.7116 378.5778,192.7116 381.0778,192.7116 381.0778,192.7116 382.3278,192.0866 382.3278,192.0866 383.5778,190.8366 383.5778,190.8366 384.2028,189.5866 384.2028,189.5866 384.8278,187.7116 384.8278,187.7116 384.8278,184.5866 384.8278,184.5866 384.2028,182.7116 384.2028,182.7116 383.5778,181.4616 383.5778,181.4616 382.3278,180.2116 382.3278,180.2116 381.0778,179.5866 381.0778,179.5866"/>
    <polygon points="416.373,179.5866 415.123,180.2116 415.123,180.2116 413.873,181.4616 413.873,181.4616 413.248,182.7116 413.248,182.7116 412.623,184.5866 412.623,184.5866 412.623,187.7116 412.623,187.7116 413.248,189.5866 413.248,189.5866 413.873,190.8366 413.873,190.8366 415.123,192.0866 415.123,192.0866 416.373,192.7116 416.373,192.7116 418.873,192.7116 418.873,192.7116 420.123,192.0866 420.123,192.0866 421.373,190.8366 421.373,190.8366 421.998,189.5866 421.998,189.5866 422.623,187.7116 422.623,187.7116 422.623,184.5866 422.623,184.5866 421.998,182.7116 421.998,182.7116 421.373,181.4616 421.373,181.4616 420.123,180.2116 420.123,180.2116 418.873,179.5866 418.873,179.5866"/>
    <polyline points="434.6457,205.9843 472.4409,205.9843 472.4409,205.9843 472.4409,243.7795 472.4409,243.7795 510.2362,243.7795 510.2362,243.7795 510.2362,205.9843"/>
    <polyline points="460.1058,179.5866 451.9808,179.5866 451.9808,179.5866 451.9808,192.7116"/>
    <line x1="451.9808" x2="456.9808" y1="185.8366" y2="185.8366"/>
    <polygon points="489.4636,179.5866 489.4636,192.7116 489.4636,192.7116 493.8386,192.7116 493.8386,192.7116 495.7136,192.0866 495.7136,192.0866 496.9636,190.8366 496.9636,190.8366 497.5886,189.5866 497.5886,189.5866 498.2136,187.7116 498.2136,187.7116 498.2136,184.5866 498.2136,184.5866 497.5886,182.7116 497.5886,182.7116 496.9636,181.4616 496.9636,181.4616 495.7136,180.2116 495.7136,180.2116 493.8386,179.5866 493.8386,179.5866"/>
    <polyline points="585.8268,168.189 585.8268,205.9843 585.8268,205.9843 623.622,205.9843 623.622,205.9843 623.622,243.7795 623.622,243.7795 585.8268,243.7795 585.8268,243.7795 585.8268,205.9843"/>
    <polyline points="589.5915,171.3583 590.2165,171.0458 590.2165,171.0458 591.154,170.1083 591.154,170.1083 591.154,176.6708"/>
    <polyline points="595.2165,171.6708 595.2165,171.3583 595.2165,171.3583 595.529,170.7333 595.529,170.7333 595.8415,170.4208 595.8415,170.4208 596.4665,170.1083 596.4665,170.1083 597.7165,170.1083 597.7165,170.1083 598.3415,170.4208 598.3415,170.4208 598.654,170.7333 598.654,170.7333 598.9665,171.3583 598.9665,171.3583 598.9665,171.9833 598.9665,171.9833 598.654,172.6083 598.654,172.6083 598.029,173.5458 598.029,173.5458 594.904,176.6708 594.904,176.6708 599.279,176.6708"/>
    <line x1="605.3494" x2="605.3494" y1="179.5866" y2="192.7116"/>
    <line x1="600.9744" x2="609.7244" y1="179.5866" y2="179.5866"/>
    <polyline points="640.6447,185.8366 646.2697,185.8366 646.2697,185.8366 648.1447,185.2116 648.1447,185.2116 648.7697,184.5866 648.7697,184.5866 649.3947,183.3366 649.3947,183.3366 649.3947,182.0866 649.3947,182.0866 648.7697,180.8366 648.7697,180.8366 648.1447,180.2116 648.1447,180.2116 646.2697,179.5866 646.2697,179.5866 640.6447,179.5866 640.6447,179.5866 640.6447,192.7116"/>
    <line x1="645.0197" x2="649.3947" y1="185.8366" y2="192.7116"/>
    <polyline points="686.8775,179.5866 678.7525,179.5866 678.7525,179.5866 678.7525,192.7116 678.7525,192.7116 686.8775,192.7116"/>
    <line x1="678.7525" x2="683.7525" y1="185.8366" y2="185.8366"/>
    <line x1="720.6102" x2="720.6102" y1="179.5866" y2="192.7116"/>
    <polyline points="762.7805,179.5866 762.7805,192.7116 762.7805,192.7116 754.0305,179.5866 754.0305,179.5866 754.0305,192.7116"/>
    <polyline points="94.4882,205.9843 94.4882,243.7795 94.4882,243.7795 132.2835,243.7795 132.2835,243.7795 170.0787,243.7795 170.0787,243.7795 207.874,243.7795 207.874,243.7795 207.874,205.9843 207.874,205.9843 170.0787,205.9843 170.0787,205.9843 132.2835,205.9843 132.2835,205.9843 132.2835,243.7795"/>
    <polyline points="98.253,209.1535 98.878,208.841 98.878,208.841 99.8155,207.9035 99.8155,207.9035 99.8155,214.466"/>
    <polyline points="104.1905,207.9035 107.628,207.9035 107.628,207.9035 105.753,210.4035 105.753,210.4035 106.6905,210.4035 106.6905,210.4035 107.3155,210.716 107.3155,210.716 107.628,211.0285 107.628,211.0285 107.9405,211.966 107.9405,211.966 107.9405,212.591 107.9405,212.591 107.628,213.5285 107.628,213.5285 107.003,214.1535 107.003,214.1535 106.0655,214.466 106.0655,214.466 105.128,214.466 105.128,214.466 104.1905,214.1535 104.1905,214.1535 103.878,213.841 103.878,213.841 103.5655,213.216"/>
    <polyline points="112.1358,217.3819 112.1358,230.5069 112.1358,230.5069 119.6358,230.5069"/>
    <line x1="170.0787" x2="170.0787" y1="243.7795" y2="205.9843"/>
    <polygon points="151.8061,217.3819 150.5561,218.0069 150.5561,218.0069 149.3061,219.2569 149.3061,219.2569 148.6811,220.5069 148.6811,220.5069 148.0561,222.3819 148.0561,222.3819 148.0561,225.5069 148.0561,225.5069 148.6811,227.3819 148.6811,227.3819 149.3061,228.6319 149.3061,228.6319 150.5561,229.8819 150.5561,229.8819 151.8061,230.5069 151.8061,230.5069 154.3061,230.5069 154.3061,230.5069 155.5561,229.8819 155.5561,229.8819 156.8061,228.6319 156.8061,228.6319 157.4311,227.3819 157.4311,227.3819 158.0561,225.5069 158.0561,225.5069 158.0561,222.3819 158.0561,222.3819 157.4311,220.5069 157.4311,220.5069 156.8061,219.2569 156.8061,219.2569 155.5561,218.0069 155.5561,218.0069 154.3061,217.3819 154.3061,217.3819"/>
    <polyline points="183.9764,217.3819 187.1014,230.5069 187.1014,230.5069 190.2264,217.3819 190.2264,217.3819 193.3514,230.5069 193.3514,230.5069 196.4764,217.3819"/>
    <polyline points="207.874,243.7795 245.6693,243.7795 245.6693,243.7795 245.6693,205.9843 245.6693,205.9843 207.874,205.9843"/>
    <line x1="229.2717" x2="229.2717" y1="217.3819" y2="230.5069"/>
    <polyline points="283.4646,319.3701 283.4646,357.1654 283.4646,357.1654 245.6693,357.1654 245.6693,357.1654 245.6693,319.3701 245.6693,319.3701 283.4646,319.3701 283.4646,319.3701 283.4646,281.5748 283.4646,281.5748 283.4646,243.7795 283.4646,243.7795 321.2598,243.7795 321.2598,243.7795 359.0551,243.7795 359.0551,243.7795 359.0551,281.5748 359.0551,281.5748 321.2598,281.5748 321.2598,281.5748 283.4646,281.5748 283.4646,281.5748 245.6693,281.5748 245.6693,281.5748 245.6693,243.7795 245.6693,243.7795 283.4646,243.7795 283.4646,243.7795 283.4646,205.9843"/>
    <polyline points="271.1294,217.3819 263.0044,217.3819 263.0044,217.3819 263.0044,230.5069 263.0044,230.5069 271.1294,230.5069"/>
    <line x1="263.0044" x2="268.0044" y1="223.6319" y2="223.6319"/>
    <polygon points="489.4636,217.3819 489.4636,230.5069 489.4636,230.5069 493.8386,230.5069 493.8386,230.5069 495.7136,229.8819 495.7136,229.8819 496.9636,228.6319 496.9636,228.6319 497.5886,227.3819 497.5886,227.3819 498.2136,225.5069 498.2136,225.5069 498.2136,222.3819 498.2136,222.3819 497.5886,220.5069 497.5886,220.5069 496.9636,219.2569 496.9636,219.2569 495.7136,218.0069 495.7136,218.0069 493.8386,217.3819 493.8386,217.3819"/>
    <polyline points="609.0994,217.3819 609.0994,227.3819 609.0994,227.3819 608.4744,229.2569 608.4744,229.2569 607.8494,229.8819 607.8494,229.8819 606.5994,230.5069 606.5994,230.5069 605.3494,230.5069 605.3494,230.5069 604.0994,229.8819 604.0994,229.8819 603.4744,229.2569 603.4744,229.2569 602.8494,227.3819 602.8494,227.3819 602.8494,226.1319"/>
    <polyline points="687.19,217.3819 687.19,230.5069 687.19,230.5069 678.44,217.3819 678.44,217.3819 678.44,230.5069"/>
    <polyline points="249.4341,246.9488 250.0591,246.6363 250.0591,246.6363 250.9966,245.6988 250.9966,245.6988 250.9966,252.2613"/>
    <polyline points="257.8716,252.2613 257.8716,245.6988 257.8716,245.6988 254.7466,250.0738 254.7466,250.0738 259.4341,250.0738"/>
    <line x1="265.1919" x2="265.1919" y1="255.1772" y2="268.3022"/>
    <line x1="260.8169" x2="269.5669" y1="255.1772" y2="255.1772"/>
    <line x1="321.2598" x2="321.2598" y1="281.5748" y2="243.7795"/>
    <polyline points="308.9247,255.1772 300.7997,255.1772 300.7997,255.1772 300.7997,268.3022 300.7997,268.3022 308.9247,268.3022"/>
    <line x1="300.7997" x2="305.7997" y1="261.4272" y2="261.4272"/>
    <polyline points="338.9075,255.1772 338.9075,268.3022 338.9075,268.3022 346.4075,268.3022"/>
    <polyline points="359.0551,281.5748 396.8504,281.5748 396.8504,281.5748 396.8504,243.7795 396.8504,243.7795 359.0551,243.7795"/>
    <polyline points="384.5153,255.1772 376.3903,255.1772 376.3903,255.1772 376.3903,268.3022 376.3903,268.3022 384.5153,268.3022"/>
    <line x1="376.3903" x2="381.3903" y1="261.4272" y2="261.4272"/>
    <polyline points="396.8504,281.5748 434.6457,281.5748 434.6457,281.5748 434.6457,243.7795 434.6457,243.7795 396.8504,243.7795"/>
    <polyline points="422.3105,255.1772 414.1855,255.1772 414.1855,255.1772 414.1855,268.3022"/>
    <line x1="414.1855" x2="419.1855" y1="261.4272" y2="261.4272"/>
    <polyline points="434.6457,281.5748 472.4409,281.5748 472.4409,281.5748 472.4409,243.7795 472.4409,243.7795 434.6457,243.7795"/>
    <polygon points="454.1683,255.1772 452.9183,255.8022 452.9183,255.8022 451.6683,257.0522 451.6683,257.0522 451.0433,258.3022 451.0433,258.3022 450.4183,260.1772 450.4183,260.1772 450.4183,263.3022 450.4183,263.3022 451.0433,265.1772 451.0433,265.1772 451.6683,266.4272 451.6683,266.4272 452.9183,267.6772 452.9183,267.6772 454.1683,268.3022 454.1683,268.3022 456.6683,268.3022 456.6683,268.3022 457.9183,267.6772 457.9183,267.6772 459.1683,266.4272 459.1683,266.4272 459.7933,265.1772 459.7933,265.1772 460.4183,263.3022 460.4183,263.3022 460.4183,260.1772 460.4183,260.1772 459.7933,258.3022 459.7933,258.3022 459.1683,257.0522 459.1683,257.0522 457.9183,255.8022 457.9183,255.8022 456.6683,255.1772 456.6683,255.1772"/>
    <polyline points="359.0551,319.3701 359.0551,357.1654 359.0551,357.1654 321.2598,357.1654 321.2598,357.1654 321.2598,319.3701 321.2598,319.3701 359.0551,319.3701 359.0551,319.3701 396.8504,319.3701 396.8504,319.3701 434.6457,319.3701 434.6457,319.3701 472.4409,319.3701 472.4409,319.3701 472.4409,281.5748 472.4409,281.5748 510.2362,281.5748 510.2362,281.5748 548.0315,281.5748 548.0315,281.5748 548.0315,243.7795 548.0315,243.7795 510.2362,243.7795 510.2362,243.7795 510.2362,281.5748 510.2362,281.5748 510.2362,319.3701 510.2362,319.3701 548.0315,319.3701 548.0315,319.3701 585.8268,319.3701 585.8268,319.3701 585.8268,281.5748 585.8268,281.5748 548.0315,281.5748 548.0315,281.5748 548.0315,319.3701 548.0315,319.3701 548.0315,357.1654 548.0315,357.1654 585.8268,357.1654 585.8268,357.1654 585.8268,319.3701 585.8268,319.3701 623.622,319.3701 623.622,319.3701 623.622,357.1654 623.622,357.1654 585.8268,357.1654"/>
    <polygon points="491.9636,255.1772 490.7136,255.8022 490.7136,255.8022 489.4636,257.0522 489.4636,257.0522 488.8386,258.3022 488.8386,258.3022 488.2136,260.1772 488.2136,260.1772 488.2136,263.3022 488.2136,263.3022 488.8386,265.1772 488.8386,265.1772 489.4636,266.4272 489.4636,266.4272 490.7136,267.6772 490.7136,267.6772 491.9636,268.3022 491.9636,268.3022 494.4636,268.3022 494.4636,268.3022 495.7136,267.6772 495.7136,267.6772 496.9636,266.4272 496.9636,266.4272 497.5886,265.1772 497.5886,265.1772 498.2136,263.3022 498.2136,263.3022 498.2136,260.1772 498.2136,260.1772 497.5886,258.3022 497.5886,258.3022 496.9636,257.0522 496.9636,257.0522 495.7136,255.8022 495.7136,255.8022 494.4636,255.1772 494.4636,255.1772"/>
    <polyline points="536.0089,255.1772 536.0089,268.3022 536.0089,268.3022 527.2589,255.1772 527.2589,255.1772 527.2589,268.3022"/>
    <polyline points="585.8268,243.7795 585.8268,281.5748 585.8268,281.5748 623.622,281.5748 623.622,281.5748 623.622,243.7795"/>
    <polyline points="611.2869,255.1772 603.1619,255.1772 603.1619,255.1772 603.1619,268.3022 603.1619,268.3022 611.2869,268.3022"/>
    <line x1="603.1619" x2="608.1619" y1="261.4272" y2="261.4272"/>
    <polyline points="661.4173,243.7795 661.4173,281.5748 661.4173,281.5748 699.2126,281.5748 699.2126,281.5748 699.2126,243.7795"/>
    <polyline points="684.065,261.4272 685.94,260.8022 685.94,260.8022 686.565,260.1772 686.565,260.1772 687.19,258.9272 687.19,258.9272 687.19,257.6772 687.19,257.6772 686.565,256.4272 686.565,256.4272 685.94,255.8022 685.94,255.8022 684.065,255.1772 684.065,255.1772 678.44,255.1772 678.44,255.1772 678.44,268.3022 678.44,268.3022 684.065,268.3022 684.065,268.3022 685.94,267.6772 685.94,267.6772 686.565,267.0522 686.565,267.0522 687.19,265.8022 687.19,265.8022 687.19,263.9272 687.19,263.9272 686.565,262.6772 686.565,262.6772 685.94,262.0522 685.94,262.0522 684.065,261.4272 684.065,261.4272 678.44,261.4272"/>
    <polygon points="94.4882,281.5748 94.4882,319.3701 94.4882,319.3701 132.2835,319.3701 132.2835,319.3701 132.2835,281.5748 132.2835,281.5748"/>
    <polyline points="98.253,284.7441 98.878,284.4316 98.878,284.4316 99.8155,283.4941 99.8155,283.4941 99.8155,290.0566"/>
    <polyline points="107.3155,283.4941 104.1905,283.4941 104.1905,283.4941 103.878,286.3066 103.878,286.3066 104.1905,285.9941 104.1905,285.9941 105.128,285.6816 105.128,285.6816 106.0655,285.6816 106.0655,285.6816 107.003,285.9941 107.003,285.9941 107.628,286.6191 107.628,286.6191 107.9405,287.5566 107.9405,287.5566 107.9405,288.1816 107.9405,288.1816 107.628,289.1191 107.628,289.1191 107.003,289.7441 107.003,289.7441 106.0655,290.0566 106.0655,290.0566 105.128,290.0566 105.128,290.0566 104.1905,289.7441 104.1905,289.7441 103.878,289.4316 103.878,289.4316 103.5655,288.8066"/>
    <polyline points="120.8858,306.0974 120.8858,292.9724 120.8858,292.9724 115.8858,306.0974 115.8858,306.0974 110.8858,292.9724 110.8858,292.9724 110.8858,306.0974"/>
    <polyline points="132.2835,319.3701 170.0787,319.3701 170.0787,319.3701 170.0787,281.5748 170.0787,281.5748 132.2835,281.5748"/>
    <polyline points="156.8061,306.0974 151.8061,292.9724 151.8061,292.9724 146.8061,306.0974"/>
    <line x1="148.6811" x2="154.9311" y1="301.7224" y2="301.7224"/>
    <polyline points="170.0787,319.3701 207.874,319.3701 207.874,319.3701 245.6693,319.3701 245.6693,319.3701 245.6693,281.5748 245.6693,281.5748 207.874,281.5748 207.874,281.5748 170.0787,281.5748"/>
    <line x1="207.874" x2="207.874" y1="319.3701" y2="281.5748"/>
    <polyline points="187.1014,299.2224 192.7264,299.2224 192.7264,299.2224 194.6014,298.5974 194.6014,298.5974 195.2264,297.9724 195.2264,297.9724 195.8514,296.7224 195.8514,296.7224 195.8514,295.4724 195.8514,295.4724 195.2264,294.2224 195.2264,294.2224 194.6014,293.5974 194.6014,293.5974 192.7264,292.9724 192.7264,292.9724 187.1014,292.9724 187.1014,292.9724 187.1014,306.0974"/>
    <line x1="191.4764" x2="195.8514" y1="299.2224" y2="306.0974"/>
    <line x1="229.2717" x2="229.2717" y1="292.9724" y2="306.0974"/>
    <polyline points="271.1294,292.9724 263.0044,292.9724 263.0044,292.9724 263.0044,306.0974 263.0044,306.0974 271.1294,306.0974"/>
    <line x1="263.0044" x2="268.0044" y1="299.2224" y2="299.2224"/>
    <polyline points="510.2362,357.1654 472.4409,357.1654 472.4409,357.1654 472.4409,319.3701 472.4409,319.3701 510.2362,319.3701 510.2362,319.3701 510.2362,357.1654 510.2362,357.1654 548.0315,357.1654"/>
    <polyline points="497.9011,292.9724 489.7761,292.9724 489.7761,292.9724 489.7761,306.0974 489.7761,306.0974 497.9011,306.0974"/>
    <line x1="489.7761" x2="494.7761" y1="299.2224" y2="299.2224"/>
    <polyline points="551.7963,284.7441 552.4213,284.4316 552.4213,284.4316 553.3588,283.4941 553.3588,283.4941 553.3588,290.0566"/>
    <polyline points="561.1713,284.4316 560.8588,283.8066 560.8588,283.8066 559.9213,283.4941 559.9213,283.4941 559.2963,283.4941 559.2963,283.4941 558.3588,283.8066 558.3588,283.8066 557.7338,284.7441 557.7338,284.7441 557.4213,286.3066 557.4213,286.3066 557.4213,287.8691 557.4213,287.8691 557.7338,289.1191 557.7338,289.1191 558.3588,289.7441 558.3588,289.7441 559.2963,290.0566 559.2963,290.0566 559.6088,290.0566 559.6088,290.0566 560.5463,289.7441 560.5463,289.7441 561.1713,289.1191 561.1713,289.1191 561.4838,288.1816 561.4838,288.1816 561.4838,287.8691 561.4838,287.8691 561.1713,286.9316 561.1713,286.9316 560.5463,286.3066 560.5463,286.3066 559.6088,285.9941 559.6088,285.9941 559.2963,285.9941 559.2963,285.9941 558.3588,286.3066 558.3588,286.3066 557.7338,286.9316 557.7338,286.9316 557.4213,287.8691"/>
    <polyline points="571.3041,292.9724 571.3041,302.9724 571.3041,302.9724 570.6791,304.8474 570.6791,304.8474 570.0541,305.4724 570.0541,305.4724 568.8041,306.0974 568.8041,306.0974 567.5541,306.0974 567.5541,306.0974 566.3041,305.4724 566.3041,305.4724 565.6791,304.8474 565.6791,304.8474 565.0541,302.9724 565.0541,302.9724 565.0541,301.7224"/>
    <polyline points="661.4173,281.5748 661.4173,319.3701 661.4173,319.3701 661.4173,357.1654 661.4173,357.1654 699.2126,357.1654 699.2126,357.1654 699.2126,319.3701 699.2126,319.3701 699.2126,281.5748"/>
    <line x1="661.4173" x2="699.2126" y1="319.3701" y2="319.3701"/>
    <polyline points="678.44,292.9724 678.44,302.3474 678.44,302.3474 679.065,304.2224 679.065,304.2224 680.315,305.4724 680.315,305.4724 682.19,306.0974 682.19,306.0974 683.44,306.0974 683.44,306.0974 685.315,305.4724 685.315,305.4724 686.565,304.2224 686.565,304.2224 687.19,302.3474 687.19,302.3474 687.19,292.9724"/>
    <polyline points="262.6919,337.0177 268.3169,337.0177 268.3169,337.0177 270.1919,336.3927 270.1919,336.3927 270.8169,335.7677 270.8169,335.7677 271.4419,334.5177 271.4419,334.5177 271.4419,333.2677 271.4419,333.2677 270.8169,332.0177 270.8169,332.0177 270.1919,331.3927 270.1919,331.3927 268.3169,330.7677 268.3169,330.7677 262.6919,330.7677 262.6919,330.7677 262.6919,343.8927"/>
    <line x1="267.0669" x2="271.4419" y1="337.0177" y2="343.8927"/>
    <polyline points="325.0246,322.5394 325.6496,322.2269 325.6496,322.2269 326.5871,321.2894 326.5871,321.2894 326.5871,327.8519"/>
    <polyline points="330.3371,321.2894 334.7121,321.2894 334.7121,321.2894 331.5871,327.8519"/>
    <polyline points="343.9075,337.0177 345.7825,336.3927 345.7825,336.3927 346.4075,335.7677 346.4075,335.7677 347.0325,334.5177 347.0325,334.5177 347.0325,333.2677 347.0325,333.2677 346.4075,332.0177 346.4075,332.0177 345.7825,331.3927 345.7825,331.3927 343.9075,330.7677 343.9075,330.7677 338.2825,330.7677 338.2825,330.7677 338.2825,343.8927 338.2825,343.8927 343.9075,343.8927 343.9075,343.8927 345.7825,343.2677 345.7825,343.2677 346.4075,342.6427 346.4075,342.6427 347.0325,341.3927 347.0325,341.3927 347.0325,339.5177 347.0325,339.5177 346.4075,338.2677 346.4075,338.2677 345.7825,337.6427 345.7825,337.6427 343.9075,337.0177 343.9075,337.0177 338.2825,337.0177"/>
    <polyline points="359.0551,357.1654 396.8504,357.1654 396.8504,357.1654 434.6457,357.1654 434.6457,357.1654 434.6457,319.3701"/>
    <line x1="396.8504" x2="396.8504" y1="357.1654" y2="319.3701"/>
    <polyline points="376.0778,337.0177 381.7028,337.0177 381.7028,337.0177 383.5778,336.3927 383.5778,336.3927 384.2028,335.7677 384.2028,335.7677 384.8278,334.5177 384.8278,334.5177 384.8278,333.2677 384.8278,333.2677 384.2028,332.0177 384.2028,332.0177 383.5778,331.3927 383.5778,331.3927 381.7028,330.7677 381.7028,330.7677 376.0778,330.7677 376.0778,330.7677 376.0778,343.8927"/>
    <line x1="380.4528" x2="384.8278" y1="337.0177" y2="343.8927"/>
    <polygon points="416.373,330.7677 415.123,331.3927 415.123,331.3927 413.873,332.6427 413.873,332.6427 413.248,333.8927 413.248,333.8927 412.623,335.7677 412.623,335.7677 412.623,338.8927 412.623,338.8927 413.248,340.7677 413.248,340.7677 413.873,342.0177 413.873,342.0177 415.123,343.2677 415.123,343.2677 416.373,343.8927 416.373,343.8927 418.873,343.8927 418.873,343.8927 420.123,343.2677 420.123,343.2677 421.373,342.0177 421.373,342.0177 421.998,340.7677 421.998,340.7677 422.623,338.8927 422.623,338.8927 422.623,335.7677 422.623,335.7677 421.998,333.8927 421.998,333.8927 421.373,332.6427 421.373,332.6427 420.123,331.3927 420.123,331.3927 418.873,330.7677 418.873,330.7677"/>
    <line x1="434.6457" x2="472.4409" y1="357.1654" y2="357.1654"/>
    <polyline points="460.1058,330.7677 451.9808,330.7677 451.9808,330.7677 451.9808,343.8927 451.9808,343.8927 460.1058,343.8927"/>
    <line x1="451.9808" x2="456.9808" y1="337.0177" y2="337.0177"/>
    <line x1="489.4636" x2="489.4636" y1="330.7677" y2="343.8927"/>
    <line x1="498.2136" x2="489.4636" y1="330.7677" y2="339.5177"/>
    <line x1="492.5886" x2="498.2136" y1="336.3927" y2="343.8927"/>
    <polyline points="526.6339,330.7677 535.3839,330.7677 535.3839,330.7677 526.6339,343.8927 526.6339,343.8927 535.3839,343.8927"/>
    <polyline points="572.5541,343.8927 567.5541,330.7677 567.5541,330.7677 562.5541,343.8927"/>
    <line x1="564.4291" x2="570.6791" y1="339.5177" y2="339.5177"/>
    <line x1="602.8494" x2="602.8494" y1="330.7677" y2="343.8927"/>
    <line x1="611.5994" x2="602.8494" y1="330.7677" y2="339.5177"/>
    <line x1="605.9744" x2="611.5994" y1="336.3927" y2="343.8927"/>
    <line x1="682.815" x2="682.815" y1="330.7677" y2="343.8927"/>
  </g>
</svg>
