<?xml version="1.0" encoding="utf-8" ?>
<svg xmlns="http://www.w3.org/2000/svg" xmlns:cc="http://creativecommons.org/ns" xmlns:dc="http://purl.org/dc/elements/1.1/" xmlns:ev="http://www.w3.org/2001/xml-events" xmlns:inkscape="http://www.inkscape.org/namespaces/inkscape" xmlns:rdf="http://www.w3.org/1999/02/22-rdf-syntax-ns" xmlns:sodipodi="http://sodipodi.sourceforge.net/DTD/sodipodi-0.dtd" xmlns:xlink="http://www.w3.org/1999/xlink" baseProfile="tiny" height="9.9cm" version="1.2" viewBox="0 0 793.7007874015749 374.1732283464567" width="21.0cm">
  <metadata>
    <rdf:RDF>
      <cc:Work>
        <dc:format>image/svg+xml</dc:format>
        <dc:source>vpype eval 'cell=10;width=210;height=99' eval 'nCols=20;nRows=9' eval 'cells=[1,2,3,4,5,6,7,8,13,16,20,25,30,32,33,35,36,37,38,39,40,43,44,45,46,47,48,49,50,53,56,60,65,70,72,73,74,75,76,77,78,80,81,82,83,84,85,86,88,89,90,91,93,96,98,102,105,110,113,116,118,121,122,123,124,125,126,127,129,130,131,132,133,134,135,136,138,142,145,150,156,158,166,167,168,169,170,171,172,173]' eval 'chars=[&quot;B&quot;,&quot;R&quot;,&quot;O&quot;,&quot;E&quot;,&quot;K&quot;,&quot;Z&quot;,&quot;A&quot;,&quot;K&quot;,&quot;K&quot;,&quot;F&quot;,&quot;T&quot;,&quot;I&quot;,&quot;S&quot;,&quot;J&quot;,&quot;A&quot;,&quot;G&quot;,&quot;R&quot;,&quot;O&quot;,&quot;E&quot;,&quot;N&quot;,&quot;H&quot;,&quot;H&quot;,&quot;A&quot;,&quot;N&quot;,&quot;D&quot;,&quot;D&quot;,&quot;O&quot;,&quot;E&quot;,&quot;K&quot;,&quot;T&quot;,&quot;E&quot;,&quot;O&quot;,&quot;D&quot;,&quot;E&quot;,&quot;V&quot;,&quot;R&quot;,&quot;I&quot;,&quot;J&quot;,&quot;D&quot;,&quot;A&quot;,&quot;G&quot;,&quot;R&quot;,&quot;E&quot;,&quot;S&quot;,&quot;T&quot;,&quot;J&quot;,&quot;E&quot;,&quot;S&quot;,&quot;W&quot;,&quot;O&quot;,&quot;L&quot;,&quot;F&quot;,&quot;I&quot;,&quot;E&quot;,&quot;R&quot;,&quot;T&quot;,&quot;R&quot;,&quot;L&quot;,&quot;J&quot;,&quot;R&quot;,&quot;A&quot;,&quot;V&quot;,&quot;E&quot;,&quot;L&quot;,&quot;L&quot;,&quot;E&quot;,&quot;K&quot;,&quot;E&quot;,&quot;R&quot;,&quot;E&quot;,&quot;G&quot;,&quot;E&quot;,&quot;N&quot;,&quot;B&quot;,&quot;U&quot;,&quot;I&quot;,&quot;A&quot;,&quot;R&quot;,&quot;N&quot;,&quot;K&quot;,&quot;C&quot;,&quot;T&quot;,&quot;P&quot;,&quot;A&quot;,&quot;R&quot;,&quot;K&quot;,&quot;E&quot;,&quot;R&quot;,&quot;E&quot;,&quot;N&quot;]' eval 'numbers=[1,5,13,16,20,30,32,35,43,72,78,80,82,88,121,129,166]' eval counter=1 eval charIndex=0 begin grid -o '%cell*mm%' '%cell*mm%' %nCols% %nRows% eval '%isCell=_i in cells%' eval '%number=_i in numbers%' eval '%size=10 if isCell else 0%' rect 0 0 '%size*mm%' '%size*mm%' text -s 10 -p 0.5mm 1.5mm '%counter if number else '&quot;'&quot;''&quot;'&quot;'%' text -s 20 -p 5mm 5mm -a center '%chars[charIndex] if isCell else '&quot;'&quot;''&quot;'&quot;'%' eval '%if number: counter+=1 %' eval '%if isCell: charIndex+=1 %' end splitall deduplicate linemerge --tolerance 0.1mm write -m none --page-size '%width*mm%x%height*mm%' --center ./svgs/solution/dce37a.svg
</dc:source>
        <dc:date>2023-12-23T22:30:06.685918</dc:date>
      </cc:Work>
    </rdf:RDF>
  </metadata>
  <defs/>
  <g fill="none" id="layer1" inkscape:groupmode="layer" inkscape:label="1" stroke="#000000" style="display:inline">
    <polygon points="56.6929,17.0079 56.6929,54.8031 56.6929,54.8031 94.4882,54.8031 94.4882,54.8031 132.2835,54.8031 132.2835,54.8031 132.2835,17.0079 132.2835,17.0079 94.4882,17.0079 94.4882,17.0079"/>
    <line x1="94.4882" x2="94.4882" y1="54.8031" y2="17.0079"/>
    <polyline points="60.4577,20.1772 61.0827,19.8647 61.0827,19.8647 62.0202,18.9272 62.0202,18.9272 62.0202,25.4897"/>
    <polygon points="73.7156,28.4055 73.7156,41.5305 73.7156,41.5305 79.3406,41.5305 79.3406,41.5305 81.2156,40.9055 81.2156,40.9055 81.8406,40.2805 81.8406,40.2805 82.4656,39.0305 82.4656,39.0305 82.4656,37.1555 82.4656,37.1555 81.8406,35.9055 81.8406,35.9055 81.2156,35.2805 81.2156,35.2805 79.3406,34.6555 79.3406,34.6555 81.2156,34.0305 81.2156,34.0305 81.8406,33.4055 81.8406,33.4055 82.4656,32.1555 82.4656,32.1555 82.4656,30.9055 82.4656,30.9055 81.8406,29.6555 81.8406,29.6555 81.2156,29.0305 81.2156,29.0305 79.3406,28.4055 79.3406,28.4055"/>
    <line x1="73.7156" x2="79.3406" y1="34.6555" y2="34.6555"/>
    <polyline points="111.5108,34.6555 117.1358,34.6555 117.1358,34.6555 119.0108,34.0305 119.0108,34.0305 119.6358,33.4055 119.6358,33.4055 120.2608,32.1555 120.2608,32.1555 120.2608,30.9055 120.2608,30.9055 119.6358,29.6555 119.6358,29.6555 119.0108,29.0305 119.0108,29.0305 117.1358,28.4055 117.1358,28.4055 111.5108,28.4055 111.5108,28.4055 111.5108,41.5305"/>
    <line x1="115.8858" x2="120.2608" y1="34.6555" y2="41.5305"/>
    <polyline points="132.2835,54.8031 170.0787,54.8031 170.0787,54.8031 207.874,54.8031 207.874,54.8031 245.6693,54.8031 245.6693,54.8031 245.6693,17.0079 245.6693,17.0079 207.874,17.0079 207.874,17.0079 170.0787,17.0079 170.0787,17.0079 132.2835,17.0079"/>
    <line x1="170.0787" x2="170.0787" y1="54.8031" y2="17.0079"/>
    <polygon points="151.8061,28.4055 150.5561,29.0305 150.5561,29.0305 149.3061,30.2805 149.3061,30.2805 148.6811,31.5305 148.6811,31.5305 148.0561,33.4055 148.0561,33.4055 148.0561,36.5305 148.0561,36.5305 148.6811,38.4055 148.6811,38.4055 149.3061,39.6555 149.3061,39.6555 150.5561,40.9055 150.5561,40.9055 151.8061,41.5305 151.8061,41.5305 154.3061,41.5305 154.3061,41.5305 155.5561,40.9055 155.5561,40.9055 156.8061,39.6555 156.8061,39.6555 157.4311,38.4055 157.4311,38.4055 158.0561,36.5305 158.0561,36.5305 158.0561,33.4055 158.0561,33.4055 157.4311,31.5305 157.4311,31.5305 156.8061,30.2805 156.8061,30.2805 155.5561,29.0305 155.5561,29.0305 154.3061,28.4055 154.3061,28.4055"/>
    <polyline points="245.6693,17.0079 283.4646,17.0079 283.4646,17.0079 321.2598,17.0079 321.2598,17.0079 321.2598,54.8031 321.2598,54.8031 283.4646,54.8031 283.4646,54.8031 245.6693,54.8031 245.6693,54.8031 245.6693,92.5984 245.6693,92.5984 245.6693,130.3937 245.6693,130.3937 207.874,130.3937 207.874,130.3937 170.0787,130.3937 170.0787,130.3937 132.2835,130.3937 132.2835,130.3937 132.2835,92.5984 132.2835,92.5984 170.0787,92.5984 170.0787,92.5984 207.874,92.5984 207.874,92.5984 207.874,54.8031 207.874,54.8031 207.874,17.0079"/>
    <polyline points="195.5389,28.4055 187.4139,28.4055 187.4139,28.4055 187.4139,41.5305 187.4139,41.5305 195.5389,41.5305"/>
    <line x1="187.4139" x2="192.4139" y1="34.6555" y2="34.6555"/>
    <polyline points="211.0138,20.4897 211.0138,20.1772 211.0138,20.1772 211.3263,19.5522 211.3263,19.5522 211.6388,19.2397 211.6388,19.2397 212.2638,18.9272 212.2638,18.9272 213.5138,18.9272 213.5138,18.9272 214.1388,19.2397 214.1388,19.2397 214.4513,19.5522 214.4513,19.5522 214.7638,20.1772 214.7638,20.1772 214.7638,20.8022 214.7638,20.8022 214.4513,21.4272 214.4513,21.4272 213.8263,22.3647 213.8263,22.3647 210.7013,25.4897 210.7013,25.4897 215.0763,25.4897"/>
    <line x1="224.8967" x2="224.8967" y1="28.4055" y2="41.5305"/>
    <line x1="233.6467" x2="224.8967" y1="28.4055" y2="37.1555"/>
    <line x1="228.0217" x2="233.6467" y1="34.0305" y2="41.5305"/>
    <line x1="283.4646" x2="283.4646" y1="54.8031" y2="17.0079"/>
    <polyline points="262.0669,28.4055 270.8169,28.4055 270.8169,28.4055 262.0669,41.5305 262.0669,41.5305 270.8169,41.5305"/>
    <polyline points="307.9872,41.5305 302.9872,28.4055 302.9872,28.4055 297.9872,41.5305"/>
    <line x1="299.8622" x2="306.1122" y1="37.1555" y2="37.1555"/>
    <polyline points="321.2598,54.8031 359.0551,54.8031 359.0551,54.8031 359.0551,17.0079 359.0551,17.0079 321.2598,17.0079"/>
    <line x1="338.2825" x2="338.2825" y1="28.4055" y2="41.5305"/>
    <line x1="347.0325" x2="338.2825" y1="28.4055" y2="37.1555"/>
    <line x1="341.4075" x2="347.0325" y1="34.0305" y2="41.5305"/>
    <polygon points="510.2362,17.0079 510.2362,54.8031 510.2362,54.8031 472.4409,54.8031 472.4409,54.8031 472.4409,92.5984 472.4409,92.5984 510.2362,92.5984 510.2362,92.5984 510.2362,54.8031 510.2362,54.8031 548.0315,54.8031 548.0315,54.8031 548.0315,17.0079 548.0315,17.0079"/>
    <polyline points="513.6885,18.9272 517.126,18.9272 517.126,18.9272 515.251,21.4272 515.251,21.4272 516.1885,21.4272 516.1885,21.4272 516.8135,21.7397 516.8135,21.7397 517.126,22.0522 517.126,22.0522 517.4385,22.9897 517.4385,22.9897 517.4385,23.6147 517.4385,23.6147 517.126,24.5522 517.126,24.5522 516.501,25.1772 516.501,25.1772 515.5635,25.4897 515.5635,25.4897 514.626,25.4897 514.626,25.4897 513.6885,25.1772 513.6885,25.1772 513.376,24.8647 513.376,24.8647 513.0635,24.2397"/>
    <line x1="527.2589" x2="527.2589" y1="28.4055" y2="41.5305"/>
    <line x1="536.0089" x2="527.2589" y1="28.4055" y2="37.1555"/>
    <line x1="530.3839" x2="536.0089" y1="34.0305" y2="41.5305"/>
    <polygon points="623.622,17.0079 623.622,54.8031 623.622,54.8031 661.4173,54.8031 661.4173,54.8031 661.4173,17.0079 661.4173,17.0079"/>
    <polyline points="629.5743,25.4897 629.5743,18.9272 629.5743,18.9272 626.4493,23.3022 626.4493,23.3022 631.1368,23.3022"/>
    <polyline points="649.0822,28.4055 640.9572,28.4055 640.9572,28.4055 640.9572,41.5305"/>
    <line x1="640.9572" x2="645.9572" y1="34.6555" y2="34.6555"/>
    <polygon points="18.8976,54.8031 18.8976,92.5984 18.8976,92.5984 18.8976,130.3937 18.8976,130.3937 56.6929,130.3937 56.6929,130.3937 56.6929,92.5984 56.6929,92.5984 56.6929,54.8031 56.6929,54.8031"/>
    <line x1="18.8976" x2="56.6929" y1="92.5984" y2="92.5984"/>
    <polyline points="25.4749,56.7224 22.3499,56.7224 22.3499,56.7224 22.0374,59.5349 22.0374,59.5349 22.3499,59.2224 22.3499,59.2224 23.2874,58.9099 23.2874,58.9099 24.2249,58.9099 24.2249,58.9099 25.1624,59.2224 25.1624,59.2224 25.7874,59.8474 25.7874,59.8474 26.0999,60.7849 26.0999,60.7849 26.0999,61.4099 26.0999,61.4099 25.7874,62.3474 25.7874,62.3474 25.1624,62.9724 25.1624,62.9724 24.2249,63.2849 24.2249,63.2849 23.2874,63.2849 23.2874,63.2849 22.3499,62.9724 22.3499,62.9724 22.0374,62.6599 22.0374,62.6599 21.7249,62.0349"/>
    <line x1="38.4203" x2="38.4203" y1="66.2008" y2="79.3258"/>
    <line x1="34.0453" x2="42.7953" y1="66.2008" y2="66.2008"/>
    <polyline points="56.6929,130.3937 56.6929,168.189 56.6929,168.189 94.4882,168.189 94.4882,168.189 132.2835,168.189 132.2835,168.189 170.0787,168.189 170.0787,168.189 207.874,168.189 207.874,168.189 207.874,130.3937 207.874,130.3937 207.874,92.5984 207.874,92.5984 245.6693,92.5984 245.6693,92.5984 283.4646,92.5984 283.4646,92.5984 321.2598,92.5984 321.2598,92.5984 321.2598,130.3937 321.2598,130.3937 359.0551,130.3937 359.0551,130.3937 396.8504,130.3937 396.8504,130.3937 396.8504,168.189 396.8504,168.189 359.0551,168.189 359.0551,168.189 321.2598,168.189 321.2598,168.189 321.2598,205.9843 321.2598,205.9843 359.0551,205.9843 359.0551,205.9843 359.0551,168.189"/>
    <line x1="229.2717" x2="229.2717" y1="66.2008" y2="79.3258"/>
    <polyline points="548.0315,54.8031 548.0315,92.5984 548.0315,92.5984 548.0315,130.3937 548.0315,130.3937 510.2362,130.3937 510.2362,130.3937 510.2362,168.189 510.2362,168.189 472.4409,168.189 472.4409,168.189 434.6457,168.189 434.6457,168.189 434.6457,205.9843 434.6457,205.9843 434.6457,243.7795 434.6457,243.7795 396.8504,243.7795 396.8504,243.7795 396.8504,205.9843 396.8504,205.9843 396.8504,168.189 396.8504,168.189 434.6457,168.189 434.6457,168.189 434.6457,130.3937 434.6457,130.3937 434.6457,92.5984 434.6457,92.5984 434.6457,54.8031 434.6457,54.8031 396.8504,54.8031 396.8504,54.8031 396.8504,92.5984 396.8504,92.5984 359.0551,92.5984 359.0551,92.5984 321.2598,92.5984"/>
    <polyline points="434.6457,130.3937 396.8504,130.3937 396.8504,130.3937 396.8504,92.5984 396.8504,92.5984 434.6457,92.5984"/>
    <polyline points="403.7402,57.6599 403.4277,57.0349 403.4277,57.0349 402.4902,56.7224 402.4902,56.7224 401.8652,56.7224 401.8652,56.7224 400.9277,57.0349 400.9277,57.0349 400.3027,57.9724 400.3027,57.9724 399.9902,59.5349 399.9902,59.5349 399.9902,61.0974 399.9902,61.0974 400.3027,62.3474 400.3027,62.3474 400.9277,62.9724 400.9277,62.9724 401.8652,63.2849 401.8652,63.2849 402.1777,63.2849 402.1777,63.2849 403.1152,62.9724 403.1152,62.9724 403.7402,62.3474 403.7402,62.3474 404.0527,61.4099 404.0527,61.4099 404.0527,61.0974 404.0527,61.0974 403.7402,60.1599 403.7402,60.1599 403.1152,59.5349 403.1152,59.5349 402.1777,59.2224 402.1777,59.2224 401.8652,59.2224 401.8652,59.2224 400.9277,59.5349 400.9277,59.5349 400.3027,60.1599 400.3027,60.1599 399.9902,61.0974"/>
    <polyline points="421.998,68.0758 420.748,66.8258 420.748,66.8258 418.873,66.2008 418.873,66.2008 416.373,66.2008 416.373,66.2008 414.498,66.8258 414.498,66.8258 413.248,68.0758 413.248,68.0758 413.248,69.3258 413.248,69.3258 413.873,70.5758 413.873,70.5758 414.498,71.2008 414.498,71.2008 415.748,71.8258 415.748,71.8258 419.498,73.0758 419.498,73.0758 420.748,73.7008 420.748,73.7008 421.373,74.3258 421.373,74.3258 421.998,75.5758 421.998,75.5758 421.998,77.4508 421.998,77.4508 420.748,78.7008 420.748,78.7008 418.873,79.3258 418.873,79.3258 416.373,79.3258 416.373,79.3258 414.498,78.7008 414.498,78.7008 413.248,77.4508"/>
    <polyline points="475.2682,56.7224 479.6432,56.7224 479.6432,56.7224 476.5182,63.2849"/>
    <polyline points="495.7136,66.2008 495.7136,76.2008 495.7136,76.2008 495.0886,78.0758 495.0886,78.0758 494.4636,78.7008 494.4636,78.7008 493.2136,79.3258 493.2136,79.3258 491.9636,79.3258 491.9636,79.3258 490.7136,78.7008 490.7136,78.7008 490.0886,78.0758 490.0886,78.0758 489.4636,76.2008 489.4636,76.2008 489.4636,74.9508"/>
    <polyline points="359.0551,205.9843 396.8504,205.9843 396.8504,205.9843 434.6457,205.9843 434.6457,205.9843 472.4409,205.9843 472.4409,205.9843 472.4409,168.189 472.4409,168.189 472.4409,130.3937 472.4409,130.3937 510.2362,130.3937 510.2362,130.3937 510.2362,92.5984 510.2362,92.5984 548.0315,92.5984"/>
    <polyline points="534.7589,79.3258 529.7589,66.2008 529.7589,66.2008 524.7589,79.3258"/>
    <line x1="526.6339" x2="532.8839" y1="74.9508" y2="74.9508"/>
    <polyline points="661.4173,205.9843 623.622,205.9843 623.622,205.9843 623.622,243.7795 623.622,243.7795 661.4173,243.7795 661.4173,243.7795 661.4173,205.9843 661.4173,205.9843 661.4173,168.189 661.4173,168.189 623.622,168.189 623.622,168.189 623.622,130.3937 623.622,130.3937 661.4173,130.3937 661.4173,130.3937 661.4173,168.189 661.4173,168.189 699.2126,168.189 699.2126,168.189 699.2126,130.3937 699.2126,130.3937 661.4173,130.3937 661.4173,130.3937 661.4173,92.5984 661.4173,92.5984 661.4173,54.8031 661.4173,54.8031 699.2126,54.8031 699.2126,54.8031 699.2126,92.5984 699.2126,92.5984 661.4173,92.5984 661.4173,92.5984 623.622,92.5984 623.622,92.5984 623.622,54.8031 623.622,54.8031 585.8268,54.8031 585.8268,54.8031 585.8268,92.5984 585.8268,92.5984 623.622,92.5984 623.622,92.5984 623.622,130.3937 623.622,130.3937 585.8268,130.3937 585.8268,130.3937 548.0315,130.3937 548.0315,130.3937 548.0315,168.189 548.0315,168.189 585.8268,168.189 585.8268,168.189 585.8268,130.3937"/>
    <polygon points="590.2165,56.7224 589.279,57.0349 589.279,57.0349 588.9665,57.6599 588.9665,57.6599 588.9665,58.2849 588.9665,58.2849 589.279,58.9099 589.279,58.9099 589.904,59.2224 589.904,59.2224 591.154,59.5349 591.154,59.5349 592.0915,59.8474 592.0915,59.8474 592.7165,60.4724 592.7165,60.4724 593.029,61.0974 593.029,61.0974 593.029,62.0349 593.029,62.0349 592.7165,62.6599 592.7165,62.6599 592.404,62.9724 592.404,62.9724 591.4665,63.2849 591.4665,63.2849 590.2165,63.2849 590.2165,63.2849 589.279,62.9724 589.279,62.9724 588.9665,62.6599 588.9665,62.6599 588.654,62.0349 588.654,62.0349 588.654,61.0974 588.654,61.0974 588.9665,60.4724 588.9665,60.4724 589.5915,59.8474 589.5915,59.8474 590.529,59.5349 590.529,59.5349 591.779,59.2224 591.779,59.2224 592.404,58.9099 592.404,58.9099 592.7165,58.2849 592.7165,58.2849 592.7165,57.6599 592.7165,57.6599 592.404,57.0349 592.404,57.0349 591.4665,56.7224 591.4665,56.7224"/>
    <polyline points="611.2869,69.3258 610.6619,68.0758 610.6619,68.0758 609.4119,66.8258 609.4119,66.8258 608.1619,66.2008 608.1619,66.2008 605.6619,66.2008 605.6619,66.2008 604.4119,66.8258 604.4119,66.8258 603.1619,68.0758 603.1619,68.0758 602.5369,69.3258 602.5369,69.3258 601.9119,71.2008 601.9119,71.2008 601.9119,74.3258 601.9119,74.3258 602.5369,76.2008 602.5369,76.2008 603.1619,77.4508 603.1619,77.4508 604.4119,78.7008 604.4119,78.7008 605.6619,79.3258 605.6619,79.3258 608.1619,79.3258 608.1619,79.3258 609.4119,78.7008 609.4119,78.7008 610.6619,77.4508 610.6619,77.4508 611.2869,76.2008 611.2869,76.2008 611.2869,74.3258 611.2869,74.3258 608.1619,74.3258"/>
    <polyline points="640.6447,72.4508 646.2697,72.4508 646.2697,72.4508 648.1447,71.8258 648.1447,71.8258 648.7697,71.2008 648.7697,71.2008 649.3947,69.9508 649.3947,69.9508 649.3947,68.7008 649.3947,68.7008 648.7697,67.4508 648.7697,67.4508 648.1447,66.8258 648.1447,66.8258 646.2697,66.2008 646.2697,66.2008 640.6447,66.2008 640.6447,66.2008 640.6447,79.3258"/>
    <line x1="645.0197" x2="649.3947" y1="72.4508" y2="79.3258"/>
    <polygon points="680.94,66.2008 679.69,66.8258 679.69,66.8258 678.44,68.0758 678.44,68.0758 677.815,69.3258 677.815,69.3258 677.19,71.2008 677.19,71.2008 677.19,74.3258 677.19,74.3258 677.815,76.2008 677.815,76.2008 678.44,77.4508 678.44,77.4508 679.69,78.7008 679.69,78.7008 680.94,79.3258 680.94,79.3258 683.44,79.3258 683.44,79.3258 684.69,78.7008 684.69,78.7008 685.94,77.4508 685.94,77.4508 686.565,76.2008 686.565,76.2008 687.19,74.3258 687.19,74.3258 687.19,71.2008 687.19,71.2008 686.565,69.3258 686.565,69.3258 685.94,68.0758 685.94,68.0758 684.69,66.8258 684.69,66.8258 683.44,66.2008 683.44,66.2008"/>
    <polyline points="699.2126,92.5984 737.0079,92.5984 737.0079,92.5984 774.8031,92.5984 774.8031,92.5984 774.8031,54.8031 774.8031,54.8031 737.0079,54.8031 737.0079,54.8031 699.2126,54.8031"/>
    <line x1="737.0079" x2="737.0079" y1="92.5984" y2="54.8031"/>
    <polyline points="724.6727,66.2008 716.5477,66.2008 716.5477,66.2008 716.5477,79.3258 716.5477,79.3258 724.6727,79.3258"/>
    <line x1="716.5477" x2="721.5477" y1="72.4508" y2="72.4508"/>
    <polyline points="762.7805,66.2008 762.7805,79.3258 762.7805,79.3258 754.0305,66.2008 754.0305,66.2008 754.0305,79.3258"/>
    <line x1="35.9203" x2="35.9203" y1="103.9961" y2="117.1211"/>
    <line x1="44.6703" x2="44.6703" y1="103.9961" y2="117.1211"/>
    <line x1="35.9203" x2="44.6703" y1="110.2461" y2="110.2461"/>
    <line x1="170.0787" x2="170.0787" y1="130.3937" y2="92.5984"/>
    <polyline points="139.1732,96.7052 138.8607,97.6427 138.8607,97.6427 138.2357,98.2677 138.2357,98.2677 137.2982,98.5802 137.2982,98.5802 136.9857,98.5802 136.9857,98.5802 136.0482,98.2677 136.0482,98.2677 135.4232,97.6427 135.4232,97.6427 135.1107,96.7052 135.1107,96.7052 135.1107,96.3927 135.1107,96.3927 135.4232,95.4552 135.4232,95.4552 136.0482,94.8302 136.0482,94.8302 136.9857,94.5177 136.9857,94.5177 137.2982,94.5177 137.2982,94.5177 138.2357,94.8302 138.2357,94.8302 138.8607,95.4552 138.8607,95.4552 139.1732,96.7052 139.1732,96.7052 139.1732,98.2677 139.1732,98.2677 138.8607,99.8302 138.8607,99.8302 138.2357,100.7677 138.2357,100.7677 137.2982,101.0802 137.2982,101.0802 136.6732,101.0802 136.6732,101.0802 135.7357,100.7677 135.7357,100.7677 135.4232,100.1427"/>
    <line x1="149.3061" x2="149.3061" y1="103.9961" y2="117.1211"/>
    <line x1="158.0561" x2="158.0561" y1="103.9961" y2="117.1211"/>
    <line x1="149.3061" x2="158.0561" y1="110.2461" y2="110.2461"/>
    <polyline points="194.6014,117.1211 189.6014,103.9961 189.6014,103.9961 184.6014,117.1211"/>
    <line x1="186.4764" x2="192.7264" y1="112.7461" y2="112.7461"/>
    <polyline points="233.6467,103.9961 233.6467,117.1211 233.6467,117.1211 224.8967,103.9961 224.8967,103.9961 224.8967,117.1211"/>
    <polyline points="170.0787,168.189 170.0787,205.9843 170.0787,205.9843 207.874,205.9843 207.874,205.9843 245.6693,205.9843 245.6693,205.9843 283.4646,205.9843 283.4646,205.9843 283.4646,168.189 283.4646,168.189 245.6693,168.189 245.6693,168.189 245.6693,205.9843 245.6693,205.9843 245.6693,243.7795 245.6693,243.7795 207.874,243.7795 207.874,243.7795 207.874,205.9843 207.874,205.9843 207.874,168.189 207.874,168.189 245.6693,168.189 245.6693,168.189 245.6693,130.3937 245.6693,130.3937 283.4646,130.3937 283.4646,130.3937 283.4646,92.5984"/>
    <polygon points="262.6919,103.9961 262.6919,117.1211 262.6919,117.1211 267.0669,117.1211 267.0669,117.1211 268.9419,116.4961 268.9419,116.4961 270.1919,115.2461 270.1919,115.2461 270.8169,113.9961 270.8169,113.9961 271.4419,112.1211 271.4419,112.1211 271.4419,108.9961 271.4419,108.9961 270.8169,107.1211 270.8169,107.1211 270.1919,105.8711 270.1919,105.8711 268.9419,104.6211 268.9419,104.6211 267.0669,103.9961 267.0669,103.9961"/>
    <line x1="283.4646" x2="321.2598" y1="130.3937" y2="130.3937"/>
    <polygon points="300.4872,103.9961 300.4872,117.1211 300.4872,117.1211 304.8622,117.1211 304.8622,117.1211 306.7372,116.4961 306.7372,116.4961 307.9872,115.2461 307.9872,115.2461 308.6122,113.9961 308.6122,113.9961 309.2372,112.1211 309.2372,112.1211 309.2372,108.9961 309.2372,108.9961 308.6122,107.1211 308.6122,107.1211 307.9872,105.8711 307.9872,105.8711 306.7372,104.6211 306.7372,104.6211 304.8622,103.9961 304.8622,103.9961"/>
    <line x1="359.0551" x2="359.0551" y1="130.3937" y2="92.5984"/>
    <polygon points="340.7825,103.9961 339.5325,104.6211 339.5325,104.6211 338.2825,105.8711 338.2825,105.8711 337.6575,107.1211 337.6575,107.1211 337.0325,108.9961 337.0325,108.9961 337.0325,112.1211 337.0325,112.1211 337.6575,113.9961 337.6575,113.9961 338.2825,115.2461 338.2825,115.2461 339.5325,116.4961 339.5325,116.4961 340.7825,117.1211 340.7825,117.1211 343.2825,117.1211 343.2825,117.1211 344.5325,116.4961 344.5325,116.4961 345.7825,115.2461 345.7825,115.2461 346.4075,113.9961 346.4075,113.9961 347.0325,112.1211 347.0325,112.1211 347.0325,108.9961 347.0325,108.9961 346.4075,107.1211 346.4075,107.1211 345.7825,105.8711 345.7825,105.8711 344.5325,104.6211 344.5325,104.6211 343.2825,103.9961 343.2825,103.9961"/>
    <polyline points="384.5153,103.9961 376.3903,103.9961 376.3903,103.9961 376.3903,117.1211 376.3903,117.1211 384.5153,117.1211"/>
    <line x1="376.3903" x2="381.3903" y1="110.2461" y2="110.2461"/>
    <line x1="413.873" x2="413.873" y1="103.9961" y2="117.1211"/>
    <line x1="422.623" x2="413.873" y1="103.9961" y2="112.7461"/>
    <line x1="416.998" x2="422.623" y1="109.6211" y2="117.1211"/>
    <line x1="529.7589" x2="529.7589" y1="103.9961" y2="117.1211"/>
    <line x1="525.3839" x2="534.1339" y1="103.9961" y2="103.9961"/>
    <polyline points="649.0822,103.9961 640.9572,103.9961 640.9572,103.9961 640.9572,117.1211 640.9572,117.1211 649.0822,117.1211"/>
    <line x1="640.9572" x2="645.9572" y1="110.2461" y2="110.2461"/>
    <polyline points="18.8976,130.3937 18.8976,168.189 18.8976,168.189 56.6929,168.189 56.6929,168.189 56.6929,205.9843 56.6929,205.9843 94.4882,205.9843 94.4882,205.9843 94.4882,168.189"/>
    <polygon points="38.4203,141.7913 37.1703,142.4163 37.1703,142.4163 35.9203,143.6663 35.9203,143.6663 35.2953,144.9163 35.2953,144.9163 34.6703,146.7913 34.6703,146.7913 34.6703,149.9163 34.6703,149.9163 35.2953,151.7913 35.2953,151.7913 35.9203,153.0413 35.9203,153.0413 37.1703,154.2913 37.1703,154.2913 38.4203,154.9163 38.4203,154.9163 40.9203,154.9163 40.9203,154.9163 42.1703,154.2913 42.1703,154.2913 43.4203,153.0413 43.4203,153.0413 44.0453,151.7913 44.0453,151.7913 44.6703,149.9163 44.6703,149.9163 44.6703,146.7913 44.6703,146.7913 44.0453,144.9163 44.0453,144.9163 43.4203,143.6663 43.4203,143.6663 42.1703,142.4163 42.1703,142.4163 40.9203,141.7913 40.9203,141.7913"/>
    <polygon points="224.8967,141.7913 224.8967,154.9163 224.8967,154.9163 229.2717,154.9163 229.2717,154.9163 231.1467,154.2913 231.1467,154.2913 232.3967,153.0413 232.3967,153.0413 233.0217,151.7913 233.0217,151.7913 233.6467,149.9163 233.6467,149.9163 233.6467,146.7913 233.6467,146.7913 233.0217,144.9163 233.0217,144.9163 232.3967,143.6663 232.3967,143.6663 231.1467,142.4163 231.1467,142.4163 229.2717,141.7913 229.2717,141.7913"/>
    <polyline points="422.3105,141.7913 414.1855,141.7913 414.1855,141.7913 414.1855,154.9163 414.1855,154.9163 422.3105,154.9163"/>
    <line x1="414.1855" x2="419.1855" y1="148.0413" y2="148.0413"/>
    <polyline points="476.2057,133.563 476.8307,133.2505 476.8307,133.2505 477.7682,132.313 477.7682,132.313 477.7682,138.8755"/>
    <polygon points="483.3932,132.313 482.4557,132.6255 482.4557,132.6255 481.8307,133.563 481.8307,133.563 481.5182,135.1255 481.5182,135.1255 481.5182,136.063 481.5182,136.063 481.8307,137.6255 481.8307,137.6255 482.4557,138.563 482.4557,138.563 483.3932,138.8755 483.3932,138.8755 484.0182,138.8755 484.0182,138.8755 484.9557,138.563 484.9557,138.563 485.5807,137.6255 485.5807,137.6255 485.8932,136.063 485.8932,136.063 485.8932,135.1255 485.8932,135.1255 485.5807,133.563 485.5807,133.563 484.9557,132.6255 484.9557,132.6255 484.0182,132.313 484.0182,132.313"/>
    <polyline points="486.9636,141.7913 491.9636,154.9163 491.9636,154.9163 496.9636,141.7913"/>
    <polyline points="510.2362,205.9843 510.2362,168.189 510.2362,168.189 548.0315,168.189 548.0315,168.189 548.0315,205.9843 548.0315,205.9843 510.2362,205.9843 510.2362,205.9843 510.2362,243.7795 510.2362,243.7795 548.0315,243.7795 548.0315,243.7795 548.0315,205.9843"/>
    <polyline points="527.2589,148.0413 532.8839,148.0413 532.8839,148.0413 534.7589,147.4163 534.7589,147.4163 535.3839,146.7913 535.3839,146.7913 536.0089,145.5413 536.0089,145.5413 536.0089,144.2913 536.0089,144.2913 535.3839,143.0413 535.3839,143.0413 534.7589,142.4163 534.7589,142.4163 532.8839,141.7913 532.8839,141.7913 527.2589,141.7913 527.2589,141.7913 527.2589,154.9163"/>
    <line x1="531.6339" x2="536.0089" y1="148.0413" y2="154.9163"/>
    <line x1="569.4291" x2="569.4291" y1="141.7913" y2="154.9163"/>
    <polyline points="585.8268,168.189 623.622,168.189 623.622,168.189 623.622,205.9843"/>
    <polyline points="609.0994,141.7913 609.0994,151.7913 609.0994,151.7913 608.4744,153.6663 608.4744,153.6663 607.8494,154.2913 607.8494,154.2913 606.5994,154.9163 606.5994,154.9163 605.3494,154.9163 605.3494,154.9163 604.0994,154.2913 604.0994,154.2913 603.4744,153.6663 603.4744,153.6663 602.8494,151.7913 602.8494,151.7913 602.8494,150.5413"/>
    <polygon points="640.6447,141.7913 640.6447,154.9163 640.6447,154.9163 645.0197,154.9163 645.0197,154.9163 646.8947,154.2913 646.8947,154.2913 648.1447,153.0413 648.1447,153.0413 648.7697,151.7913 648.7697,151.7913 649.3947,149.9163 649.3947,149.9163 649.3947,146.7913 649.3947,146.7913 648.7697,144.9163 648.7697,144.9163 648.1447,143.6663 648.1447,143.6663 646.8947,142.4163 646.8947,142.4163 645.0197,141.7913 645.0197,141.7913"/>
    <polyline points="685.94,154.9163 680.94,141.7913 680.94,141.7913 675.94,154.9163"/>
    <line x1="677.815" x2="684.065" y1="150.5413" y2="150.5413"/>
    <polyline points="737.0079,168.189 737.0079,205.9843 737.0079,205.9843 737.0079,243.7795 737.0079,243.7795 699.2126,243.7795 699.2126,243.7795 699.2126,205.9843 699.2126,205.9843 699.2126,168.189 699.2126,168.189 737.0079,168.189 737.0079,168.189 737.0079,130.3937 737.0079,130.3937 699.2126,130.3937"/>
    <polyline points="702.9774,133.563 703.6024,133.2505 703.6024,133.2505 704.5399,132.313 704.5399,132.313 704.5399,138.8755"/>
    <polyline points="709.2274,133.563 709.8524,133.2505 709.8524,133.2505 710.7899,132.313 710.7899,132.313 710.7899,138.8755"/>
    <polyline points="724.6727,144.9163 724.0477,143.6663 724.0477,143.6663 722.7977,142.4163 722.7977,142.4163 721.5477,141.7913 721.5477,141.7913 719.0477,141.7913 719.0477,141.7913 717.7977,142.4163 717.7977,142.4163 716.5477,143.6663 716.5477,143.6663 715.9227,144.9163 715.9227,144.9163 715.2977,146.7913 715.2977,146.7913 715.2977,149.9163 715.2977,149.9163 715.9227,151.7913 715.9227,151.7913 716.5477,153.0413 716.5477,153.0413 717.7977,154.2913 717.7977,154.2913 719.0477,154.9163 719.0477,154.9163 721.5477,154.9163 721.5477,154.9163 722.7977,154.2913 722.7977,154.2913 724.0477,153.0413 724.0477,153.0413 724.6727,151.7913 724.6727,151.7913 724.6727,149.9163 724.6727,149.9163 721.5477,149.9163"/>
    <polyline points="18.8976,168.189 18.8976,205.9843 18.8976,205.9843 56.6929,205.9843"/>
    <polyline points="22.6624,171.3583 23.2874,171.0458 23.2874,171.0458 24.2249,170.1083 24.2249,170.1083 24.2249,176.6708"/>
    <polyline points="28.2874,171.6708 28.2874,171.3583 28.2874,171.3583 28.5999,170.7333 28.5999,170.7333 28.9124,170.4208 28.9124,170.4208 29.5374,170.1083 29.5374,170.1083 30.7874,170.1083 30.7874,170.1083 31.4124,170.4208 31.4124,170.4208 31.7249,170.7333 31.7249,170.7333 32.0374,171.3583 32.0374,171.3583 32.0374,171.9833 32.0374,171.9833 31.7249,172.6083 31.7249,172.6083 31.0999,173.5458 31.0999,173.5458 27.9749,176.6708 27.9749,176.6708 32.3499,176.6708"/>
    <polyline points="35.9203,185.8366 41.5453,185.8366 41.5453,185.8366 43.4203,185.2116 43.4203,185.2116 44.0453,184.5866 44.0453,184.5866 44.6703,183.3366 44.6703,183.3366 44.6703,182.0866 44.6703,182.0866 44.0453,180.8366 44.0453,180.8366 43.4203,180.2116 43.4203,180.2116 41.5453,179.5866 41.5453,179.5866 35.9203,179.5866 35.9203,179.5866 35.9203,192.7116"/>
    <line x1="40.2953" x2="44.6703" y1="185.8366" y2="192.7116"/>
    <polyline points="82.1531,179.5866 74.0281,179.5866 74.0281,179.5866 74.0281,192.7116 74.0281,192.7116 82.1531,192.7116"/>
    <line x1="74.0281" x2="79.0281" y1="185.8366" y2="185.8366"/>
    <polyline points="170.0787,205.9843 132.2835,205.9843 132.2835,205.9843 132.2835,243.7795 132.2835,243.7795 94.4882,243.7795 94.4882,243.7795 94.4882,205.9843 94.4882,205.9843 132.2835,205.9843 132.2835,205.9843 132.2835,168.189"/>
    <polyline points="98.253,171.3583 98.878,171.0458 98.878,171.0458 99.8155,170.1083 99.8155,170.1083 99.8155,176.6708"/>
    <polyline points="104.1905,170.1083 107.628,170.1083 107.628,170.1083 105.753,172.6083 105.753,172.6083 106.6905,172.6083 106.6905,172.6083 107.3155,172.9208 107.3155,172.9208 107.628,173.2333 107.628,173.2333 107.9405,174.1708 107.9405,174.1708 107.9405,174.7958 107.9405,174.7958 107.628,175.7333 107.628,175.7333 107.003,176.3583 107.003,176.3583 106.0655,176.6708 106.0655,176.6708 105.128,176.6708 105.128,176.6708 104.1905,176.3583 104.1905,176.3583 103.878,176.0458 103.878,176.0458 103.5655,175.4208"/>
    <polyline points="119.6358,181.4616 118.3858,180.2116 118.3858,180.2116 116.5108,179.5866 116.5108,179.5866 114.0108,179.5866 114.0108,179.5866 112.1358,180.2116 112.1358,180.2116 110.8858,181.4616 110.8858,181.4616 110.8858,182.7116 110.8858,182.7116 111.5108,183.9616 111.5108,183.9616 112.1358,184.5866 112.1358,184.5866 113.3858,185.2116 113.3858,185.2116 117.1358,186.4616 117.1358,186.4616 118.3858,187.0866 118.3858,187.0866 119.0108,187.7116 119.0108,187.7116 119.6358,188.9616 119.6358,188.9616 119.6358,190.8366 119.6358,190.8366 118.3858,192.0866 118.3858,192.0866 116.5108,192.7116 116.5108,192.7116 114.0108,192.7116 114.0108,192.7116 112.1358,192.0866 112.1358,192.0866 110.8858,190.8366"/>
    <line x1="151.8061" x2="151.8061" y1="179.5866" y2="192.7116"/>
    <line x1="147.4311" x2="156.1811" y1="179.5866" y2="179.5866"/>
    <polyline points="193.3514,179.5866 193.3514,189.5866 193.3514,189.5866 192.7264,191.4616 192.7264,191.4616 192.1014,192.0866 192.1014,192.0866 190.8514,192.7116 190.8514,192.7116 189.6014,192.7116 189.6014,192.7116 188.3514,192.0866 188.3514,192.0866 187.7264,191.4616 187.7264,191.4616 187.1014,189.5866 187.1014,189.5866 187.1014,188.3366"/>
    <polyline points="233.3342,179.5866 225.2092,179.5866 225.2092,179.5866 225.2092,192.7116 225.2092,192.7116 233.3342,192.7116"/>
    <line x1="225.2092" x2="230.2092" y1="185.8366" y2="185.8366"/>
    <polyline points="270.8169,181.4616 269.5669,180.2116 269.5669,180.2116 267.6919,179.5866 267.6919,179.5866 265.1919,179.5866 265.1919,179.5866 263.3169,180.2116 263.3169,180.2116 262.0669,181.4616 262.0669,181.4616 262.0669,182.7116 262.0669,182.7116 262.6919,183.9616 262.6919,183.9616 263.3169,184.5866 263.3169,184.5866 264.5669,185.2116 264.5669,185.2116 268.3169,186.4616 268.3169,186.4616 269.5669,187.0866 269.5669,187.0866 270.1919,187.7116 270.1919,187.7116 270.8169,188.9616 270.8169,188.9616 270.8169,190.8366 270.8169,190.8366 269.5669,192.0866 269.5669,192.0866 267.6919,192.7116 267.6919,192.7116 265.1919,192.7116 265.1919,192.7116 263.3169,192.0866 263.3169,192.0866 262.0669,190.8366"/>
    <polyline points="325.0246,171.3583 325.6496,171.0458 325.6496,171.0458 326.5871,170.1083 326.5871,170.1083 326.5871,176.6708"/>
    <polyline points="333.4621,176.6708 333.4621,170.1083 333.4621,170.1083 330.3371,174.4833 330.3371,174.4833 335.0246,174.4833"/>
    <polyline points="335.1575,179.5866 338.2825,192.7116 338.2825,192.7116 341.4075,179.5866 341.4075,179.5866 344.5325,192.7116 344.5325,192.7116 347.6575,179.5866"/>
    <polygon points="378.5778,179.5866 377.3278,180.2116 377.3278,180.2116 376.0778,181.4616 376.0778,181.4616 375.4528,182.7116 375.4528,182.7116 374.8278,184.5866 374.8278,184.5866 374.8278,187.7116 374.8278,187.7116 375.4528,189.5866 375.4528,189.5866 376.0778,190.8366 376.0778,190.8366 377.3278,192.0866 377.3278,192.0866 378.5778,192.7116 378.5778,192.7116 381.0778,192.7116 381.0778,192.7116 382.3278,192.0866 382.3278,192.0866 383.5778,190.8366 383.5778,190.8366 384.2028,189.5866 384.2028,189.5866 384.8278,187.7116 384.8278,187.7116 384.8278,184.5866 384.8278,184.5866 384.2028,182.7116 384.2028,182.7116 383.5778,181.4616 383.5778,181.4616 382.3278,180.2116 382.3278,180.2116 381.0778,179.5866 381.0778,179.5866"/>
    <polyline points="414.498,179.5866 414.498,192.7116 414.498,192.7116 421.998,192.7116"/>
    <polyline points="460.1058,179.5866 451.9808,179.5866 451.9808,179.5866 451.9808,192.7116"/>
    <line x1="451.9808" x2="456.9808" y1="185.8366" y2="185.8366"/>
    <line x1="531.6339" x2="531.6339" y1="179.5866" y2="192.7116"/>
    <polyline points="649.0822,179.5866 640.9572,179.5866 640.9572,179.5866 640.9572,192.7116 640.9572,192.7116 649.0822,192.7116"/>
    <line x1="640.9572" x2="645.9572" y1="185.8366" y2="185.8366"/>
    <line x1="699.2126" x2="737.0079" y1="205.9843" y2="205.9843"/>
    <polyline points="716.2352,185.8366 721.8602,185.8366 721.8602,185.8366 723.7352,185.2116 723.7352,185.2116 724.3602,184.5866 724.3602,184.5866 724.9852,183.3366 724.9852,183.3366 724.9852,182.0866 724.9852,182.0866 724.3602,180.8366 724.3602,180.8366 723.7352,180.2116 723.7352,180.2116 721.8602,179.5866 721.8602,179.5866 716.2352,179.5866 716.2352,179.5866 716.2352,192.7116"/>
    <line x1="720.6102" x2="724.9852" y1="185.8366" y2="192.7116"/>
    <line x1="114.0108" x2="114.0108" y1="217.3819" y2="230.5069"/>
    <line x1="109.6358" x2="118.3858" y1="217.3819" y2="217.3819"/>
    <polyline points="224.8967,223.6319 230.5217,223.6319 230.5217,223.6319 232.3967,223.0069 232.3967,223.0069 233.0217,222.3819 233.0217,222.3819 233.6467,221.1319 233.6467,221.1319 233.6467,219.8819 233.6467,219.8819 233.0217,218.6319 233.0217,218.6319 232.3967,218.0069 232.3967,218.0069 230.5217,217.3819 230.5217,217.3819 224.8967,217.3819 224.8967,217.3819 224.8967,230.5069"/>
    <line x1="229.2717" x2="233.6467" y1="223.6319" y2="230.5069"/>
    <polyline points="414.498,217.3819 414.498,230.5069 414.498,230.5069 421.998,230.5069"/>
    <polyline points="533.5089,217.3819 533.5089,227.3819 533.5089,227.3819 532.8839,229.2569 532.8839,229.2569 532.2589,229.8819 532.2589,229.8819 531.0089,230.5069 531.0089,230.5069 529.7589,230.5069 529.7589,230.5069 528.5089,229.8819 528.5089,229.8819 527.8839,229.2569 527.8839,229.2569 527.2589,227.3819 527.2589,227.3819 527.2589,226.1319"/>
    <polyline points="640.6447,223.6319 646.2697,223.6319 646.2697,223.6319 648.1447,223.0069 648.1447,223.0069 648.7697,222.3819 648.7697,222.3819 649.3947,221.1319 649.3947,221.1319 649.3947,219.8819 649.3947,219.8819 648.7697,218.6319 648.7697,218.6319 648.1447,218.0069 648.1447,218.0069 646.2697,217.3819 646.2697,217.3819 640.6447,217.3819 640.6447,217.3819 640.6447,230.5069"/>
    <line x1="645.0197" x2="649.3947" y1="223.6319" y2="230.5069"/>
    <polyline points="723.7352,230.5069 718.7352,217.3819 718.7352,217.3819 713.7352,230.5069"/>
    <line x1="715.6102" x2="721.8602" y1="226.1319" y2="226.1319"/>
    <polygon points="56.6929,243.7795 56.6929,281.5748 56.6929,281.5748 94.4882,281.5748 94.4882,281.5748 94.4882,243.7795 94.4882,243.7795"/>
    <polyline points="60.4577,246.9488 61.0827,246.6363 61.0827,246.6363 62.0202,245.6988 62.0202,245.6988 62.0202,252.2613"/>
    <polyline points="69.5202,245.6988 66.3952,245.6988 66.3952,245.6988 66.0827,248.5113 66.0827,248.5113 66.3952,248.1988 66.3952,248.1988 67.3327,247.8863 67.3327,247.8863 68.2702,247.8863 68.2702,247.8863 69.2077,248.1988 69.2077,248.1988 69.8327,248.8238 69.8327,248.8238 70.1452,249.7613 70.1452,249.7613 70.1452,250.3863 70.1452,250.3863 69.8327,251.3238 69.8327,251.3238 69.2077,251.9488 69.2077,251.9488 68.2702,252.2613 68.2702,252.2613 67.3327,252.2613 67.3327,252.2613 66.3952,251.9488 66.3952,251.9488 66.0827,251.6363 66.0827,251.6363 65.7702,251.0113"/>
    <polyline points="71.2156,255.1772 76.2156,268.3022 76.2156,268.3022 81.2156,255.1772"/>
    <polygon points="94.4882,281.5748 132.2835,281.5748 132.2835,281.5748 170.0787,281.5748 170.0787,281.5748 170.0787,243.7795 170.0787,243.7795 132.2835,243.7795 132.2835,243.7795 132.2835,281.5748 132.2835,281.5748 132.2835,319.3701 132.2835,319.3701 94.4882,319.3701 94.4882,319.3701"/>
    <polyline points="119.9483,255.1772 111.8233,255.1772 111.8233,255.1772 111.8233,268.3022 111.8233,268.3022 119.9483,268.3022"/>
    <line x1="111.8233" x2="116.8233" y1="261.4272" y2="261.4272"/>
    <polyline points="149.9311,255.1772 149.9311,268.3022 149.9311,268.3022 157.4311,268.3022"/>
    <polyline points="170.0787,281.5748 207.874,281.5748 207.874,281.5748 245.6693,281.5748 245.6693,281.5748 245.6693,243.7795 245.6693,243.7795 283.4646,243.7795 283.4646,243.7795 283.4646,281.5748 283.4646,281.5748 321.2598,281.5748 321.2598,281.5748 321.2598,243.7795 321.2598,243.7795 283.4646,243.7795"/>
    <polyline points="283.4646,281.5748 245.6693,281.5748 245.6693,281.5748 245.6693,319.3701 245.6693,319.3701 207.874,319.3701 207.874,319.3701 207.874,281.5748 207.874,281.5748 207.874,243.7795 207.874,243.7795 170.0787,243.7795"/>
    <polyline points="187.7264,255.1772 187.7264,268.3022 187.7264,268.3022 195.2264,268.3022"/>
    <polyline points="233.3342,255.1772 225.2092,255.1772 225.2092,255.1772 225.2092,268.3022 225.2092,268.3022 233.3342,268.3022"/>
    <line x1="225.2092" x2="230.2092" y1="261.4272" y2="261.4272"/>
    <line x1="262.6919" x2="262.6919" y1="255.1772" y2="268.3022"/>
    <line x1="271.4419" x2="262.6919" y1="255.1772" y2="263.9272"/>
    <line x1="265.8169" x2="271.4419" y1="260.8022" y2="268.3022"/>
    <polyline points="308.9247,255.1772 300.7997,255.1772 300.7997,255.1772 300.7997,268.3022 300.7997,268.3022 308.9247,268.3022"/>
    <line x1="300.7997" x2="305.7997" y1="261.4272" y2="261.4272"/>
    <polyline points="472.4409,281.5748 434.6457,281.5748 434.6457,281.5748 396.8504,281.5748 396.8504,281.5748 396.8504,243.7795 396.8504,243.7795 359.0551,243.7795 359.0551,243.7795 359.0551,281.5748 359.0551,281.5748 396.8504,281.5748 396.8504,281.5748 396.8504,319.3701 396.8504,319.3701 434.6457,319.3701 434.6457,319.3701 434.6457,281.5748 434.6457,281.5748 434.6457,243.7795 434.6457,243.7795 472.4409,243.7795 472.4409,243.7795 472.4409,281.5748 472.4409,281.5748 510.2362,281.5748 510.2362,281.5748 510.2362,243.7795 510.2362,243.7795 472.4409,243.7795"/>
    <polyline points="362.8199,246.9488 363.4449,246.6363 363.4449,246.6363 364.3824,245.6988 364.3824,245.6988 364.3824,252.2613"/>
    <polyline points="372.1949,246.6363 371.8824,246.0113 371.8824,246.0113 370.9449,245.6988 370.9449,245.6988 370.3199,245.6988 370.3199,245.6988 369.3824,246.0113 369.3824,246.0113 368.7574,246.9488 368.7574,246.9488 368.4449,248.5113 368.4449,248.5113 368.4449,250.0738 368.4449,250.0738 368.7574,251.3238 368.7574,251.3238 369.3824,251.9488 369.3824,251.9488 370.3199,252.2613 370.3199,252.2613 370.6324,252.2613 370.6324,252.2613 371.5699,251.9488 371.5699,251.9488 372.1949,251.3238 372.1949,251.3238 372.5074,250.3863 372.5074,250.3863 372.5074,250.0738 372.5074,250.0738 372.1949,249.1363 372.1949,249.1363 371.5699,248.5113 371.5699,248.5113 370.6324,248.1988 370.6324,248.1988 370.3199,248.1988 370.3199,248.1988 369.3824,248.5113 369.3824,248.5113 368.7574,249.1363 368.7574,249.1363 368.4449,250.0738"/>
    <polyline points="376.0778,261.4272 381.7028,261.4272 381.7028,261.4272 383.5778,260.8022 383.5778,260.8022 384.2028,260.1772 384.2028,260.1772 384.8278,258.9272 384.8278,258.9272 384.8278,257.6772 384.8278,257.6772 384.2028,256.4272 384.2028,256.4272 383.5778,255.8022 383.5778,255.8022 381.7028,255.1772 381.7028,255.1772 376.0778,255.1772 376.0778,255.1772 376.0778,268.3022"/>
    <line x1="380.4528" x2="384.8278" y1="261.4272" y2="268.3022"/>
    <polyline points="422.3105,255.1772 414.1855,255.1772 414.1855,255.1772 414.1855,268.3022 414.1855,268.3022 422.3105,268.3022"/>
    <line x1="414.1855" x2="419.1855" y1="261.4272" y2="261.4272"/>
    <polyline points="460.1058,258.3022 459.4808,257.0522 459.4808,257.0522 458.2308,255.8022 458.2308,255.8022 456.9808,255.1772 456.9808,255.1772 454.4808,255.1772 454.4808,255.1772 453.2308,255.8022 453.2308,255.8022 451.9808,257.0522 451.9808,257.0522 451.3558,258.3022 451.3558,258.3022 450.7308,260.1772 450.7308,260.1772 450.7308,263.3022 450.7308,263.3022 451.3558,265.1772 451.3558,265.1772 451.9808,266.4272 451.9808,266.4272 453.2308,267.6772 453.2308,267.6772 454.4808,268.3022 454.4808,268.3022 456.9808,268.3022 456.9808,268.3022 458.2308,267.6772 458.2308,267.6772 459.4808,266.4272 459.4808,266.4272 460.1058,265.1772 460.1058,265.1772 460.1058,263.3022 460.1058,263.3022 456.9808,263.3022"/>
    <polyline points="497.9011,255.1772 489.7761,255.1772 489.7761,255.1772 489.7761,268.3022 489.7761,268.3022 497.9011,268.3022"/>
    <line x1="489.7761" x2="494.7761" y1="261.4272" y2="261.4272"/>
    <polyline points="510.2362,281.5748 548.0315,281.5748 548.0315,281.5748 585.8268,281.5748 585.8268,281.5748 585.8268,243.7795 585.8268,243.7795 548.0315,243.7795 548.0315,243.7795 548.0315,281.5748"/>
    <polyline points="536.0089,255.1772 536.0089,268.3022 536.0089,268.3022 527.2589,255.1772 527.2589,255.1772 527.2589,268.3022"/>
    <polyline points="570.6791,261.4272 572.5541,260.8022 572.5541,260.8022 573.1791,260.1772 573.1791,260.1772 573.8041,258.9272 573.8041,258.9272 573.8041,257.6772 573.8041,257.6772 573.1791,256.4272 573.1791,256.4272 572.5541,255.8022 572.5541,255.8022 570.6791,255.1772 570.6791,255.1772 565.0541,255.1772 565.0541,255.1772 565.0541,268.3022 565.0541,268.3022 570.6791,268.3022 570.6791,268.3022 572.5541,267.6772 572.5541,267.6772 573.1791,267.0522 573.1791,267.0522 573.8041,265.8022 573.8041,265.8022 573.8041,263.9272 573.8041,263.9272 573.1791,262.6772 573.1791,262.6772 572.5541,262.0522 572.5541,262.0522 570.6791,261.4272 570.6791,261.4272 565.0541,261.4272"/>
    <polyline points="585.8268,281.5748 623.622,281.5748 623.622,281.5748 623.622,243.7795 623.622,243.7795 585.8268,243.7795"/>
    <polyline points="602.8494,255.1772 602.8494,264.5522 602.8494,264.5522 603.4744,266.4272 603.4744,266.4272 604.7244,267.6772 604.7244,267.6772 606.5994,268.3022 606.5994,268.3022 607.8494,268.3022 607.8494,268.3022 609.7244,267.6772 609.7244,267.6772 610.9744,266.4272 610.9744,266.4272 611.5994,264.5522 611.5994,264.5522 611.5994,255.1772"/>
    <polyline points="661.4173,281.5748 661.4173,319.3701 661.4173,319.3701 623.622,319.3701 623.622,319.3701 623.622,281.5748 623.622,281.5748 661.4173,281.5748 661.4173,281.5748 661.4173,243.7795"/>
    <line x1="645.0197" x2="645.0197" y1="255.1772" y2="268.3022"/>
    <polyline points="699.2126,243.7795 699.2126,281.5748 699.2126,281.5748 737.0079,281.5748 737.0079,281.5748 737.0079,243.7795"/>
    <polyline points="723.7352,268.3022 718.7352,255.1772 718.7352,255.1772 713.7352,268.3022"/>
    <line x1="715.6102" x2="721.8602" y1="263.9272" y2="263.9272"/>
    <polyline points="111.5108,299.2224 117.1358,299.2224 117.1358,299.2224 119.0108,298.5974 119.0108,298.5974 119.6358,297.9724 119.6358,297.9724 120.2608,296.7224 120.2608,296.7224 120.2608,295.4724 120.2608,295.4724 119.6358,294.2224 119.6358,294.2224 119.0108,293.5974 119.0108,293.5974 117.1358,292.9724 117.1358,292.9724 111.5108,292.9724 111.5108,292.9724 111.5108,306.0974"/>
    <line x1="115.8858" x2="120.2608" y1="299.2224" y2="306.0974"/>
    <polyline points="233.6467,292.9724 233.6467,306.0974 233.6467,306.0974 224.8967,292.9724 224.8967,292.9724 224.8967,306.0974"/>
    <line x1="413.873" x2="413.873" y1="292.9724" y2="306.0974"/>
    <line x1="422.623" x2="413.873" y1="292.9724" y2="301.7224"/>
    <line x1="416.998" x2="422.623" y1="298.5974" y2="306.0974"/>
    <polyline points="649.0822,296.0974 648.4572,294.8474 648.4572,294.8474 647.2072,293.5974 647.2072,293.5974 645.9572,292.9724 645.9572,292.9724 643.4572,292.9724 643.4572,292.9724 642.2072,293.5974 642.2072,293.5974 640.9572,294.8474 640.9572,294.8474 640.3322,296.0974 640.3322,296.0974 639.7072,297.9724 639.7072,297.9724 639.7072,301.0974 639.7072,301.0974 640.3322,302.9724 640.3322,302.9724 640.9572,304.2224 640.9572,304.2224 642.2072,305.4724 642.2072,305.4724 643.4572,306.0974 643.4572,306.0974 645.9572,306.0974 645.9572,306.0974 647.2072,305.4724 647.2072,305.4724 648.4572,304.2224 648.4572,304.2224 649.0822,302.9724"/>
    <polyline points="699.2126,281.5748 699.2126,319.3701 699.2126,319.3701 737.0079,319.3701 737.0079,319.3701 737.0079,281.5748"/>
    <line x1="718.7352" x2="718.7352" y1="292.9724" y2="306.0974"/>
    <line x1="714.3602" x2="723.1102" y1="292.9724" y2="292.9724"/>
    <polygon points="245.6693,319.3701 245.6693,357.1654 245.6693,357.1654 283.4646,357.1654 283.4646,357.1654 283.4646,319.3701 283.4646,319.3701"/>
    <polyline points="249.4341,322.5394 250.0591,322.2269 250.0591,322.2269 250.9966,321.2894 250.9966,321.2894 250.9966,327.8519"/>
    <polyline points="254.7466,321.2894 259.1216,321.2894 259.1216,321.2894 255.9966,327.8519"/>
    <polyline points="262.6919,337.6427 268.3169,337.6427 268.3169,337.6427 270.1919,337.0177 270.1919,337.0177 270.8169,336.3927 270.8169,336.3927 271.4419,335.1427 271.4419,335.1427 271.4419,333.2677 271.4419,333.2677 270.8169,332.0177 270.8169,332.0177 270.1919,331.3927 270.1919,331.3927 268.3169,330.7677 268.3169,330.7677 262.6919,330.7677 262.6919,330.7677 262.6919,343.8927"/>
    <polyline points="283.4646,357.1654 321.2598,357.1654 321.2598,357.1654 321.2598,319.3701 321.2598,319.3701 283.4646,319.3701"/>
    <polyline points="307.9872,343.8927 302.9872,330.7677 302.9872,330.7677 297.9872,343.8927"/>
    <line x1="299.8622" x2="306.1122" y1="339.5177" y2="339.5177"/>
    <polyline points="321.2598,357.1654 359.0551,357.1654 359.0551,357.1654 359.0551,319.3701 359.0551,319.3701 321.2598,319.3701"/>
    <polyline points="338.2825,337.0177 343.9075,337.0177 343.9075,337.0177 345.7825,336.3927 345.7825,336.3927 346.4075,335.7677 346.4075,335.7677 347.0325,334.5177 347.0325,334.5177 347.0325,333.2677 347.0325,333.2677 346.4075,332.0177 346.4075,332.0177 345.7825,331.3927 345.7825,331.3927 343.9075,330.7677 343.9075,330.7677 338.2825,330.7677 338.2825,330.7677 338.2825,343.8927"/>
    <line x1="342.6575" x2="347.0325" y1="337.0177" y2="343.8927"/>
    <polyline points="359.0551,357.1654 396.8504,357.1654 396.8504,357.1654 434.6457,357.1654 434.6457,357.1654 434.6457,319.3701 434.6457,319.3701 472.4409,319.3701 472.4409,319.3701 472.4409,357.1654 472.4409,357.1654 510.2362,357.1654 510.2362,357.1654 510.2362,319.3701 510.2362,319.3701 472.4409,319.3701"/>
    <polyline points="396.8504,357.1654 396.8504,319.3701 396.8504,319.3701 359.0551,319.3701"/>
    <line x1="376.0778" x2="376.0778" y1="330.7677" y2="343.8927"/>
    <line x1="384.8278" x2="376.0778" y1="330.7677" y2="339.5177"/>
    <line x1="379.2028" x2="384.8278" y1="336.3927" y2="343.8927"/>
    <polyline points="422.3105,330.7677 414.1855,330.7677 414.1855,330.7677 414.1855,343.8927 414.1855,343.8927 422.3105,343.8927"/>
    <line x1="414.1855" x2="419.1855" y1="337.0177" y2="337.0177"/>
    <line x1="434.6457" x2="472.4409" y1="357.1654" y2="357.1654"/>
    <polyline points="451.6683,337.0177 457.2933,337.0177 457.2933,337.0177 459.1683,336.3927 459.1683,336.3927 459.7933,335.7677 459.7933,335.7677 460.4183,334.5177 460.4183,334.5177 460.4183,333.2677 460.4183,333.2677 459.7933,332.0177 459.7933,332.0177 459.1683,331.3927 459.1683,331.3927 457.2933,330.7677 457.2933,330.7677 451.6683,330.7677 451.6683,330.7677 451.6683,343.8927"/>
    <line x1="456.0433" x2="460.4183" y1="337.0177" y2="343.8927"/>
    <polyline points="497.9011,330.7677 489.7761,330.7677 489.7761,330.7677 489.7761,343.8927 489.7761,343.8927 497.9011,343.8927"/>
    <line x1="489.7761" x2="494.7761" y1="337.0177" y2="337.0177"/>
    <polyline points="510.2362,357.1654 548.0315,357.1654 548.0315,357.1654 548.0315,319.3701 548.0315,319.3701 510.2362,319.3701"/>
    <polyline points="536.0089,330.7677 536.0089,343.8927 536.0089,343.8927 527.2589,330.7677 527.2589,330.7677 527.2589,343.8927"/>
  </g>
</svg>
