<?xml version="1.0" encoding="utf-8" ?>
<svg xmlns="http://www.w3.org/2000/svg" xmlns:cc="http://creativecommons.org/ns" xmlns:dc="http://purl.org/dc/elements/1.1/" xmlns:ev="http://www.w3.org/2001/xml-events" xmlns:inkscape="http://www.inkscape.org/namespaces/inkscape" xmlns:rdf="http://www.w3.org/1999/02/22-rdf-syntax-ns" xmlns:sodipodi="http://sodipodi.sourceforge.net/DTD/sodipodi-0.dtd" xmlns:xlink="http://www.w3.org/1999/xlink" baseProfile="tiny" height="9.9cm" version="1.2" viewBox="0 0 793.7007874015749 374.1732283464567" width="21.0cm">
  <metadata>
    <rdf:RDF>
      <cc:Work>
        <dc:format>image/svg+xml</dc:format>
        <dc:source>vpype eval 'cell=10;width=210;height=99' eval 'nCols=20;nRows=9' eval 'cells=[4,10,13,14,15,16,17,18,19,21,22,23,24,25,30,34,36,44,46,47,48,49,50,51,52,53,54,57,59,60,62,64,70,74,77,79,80,82,84,86,87,88,89,90,91,92,93,94,97,99,100,101,102,103,104,105,110,114,117,119,120,122,124,130,134,137,139,140,143,144,145,146,147,148,149,150,151,153,154,155,156,157,158,159,164,170,177]' eval 'chars=[&quot;U&quot;,&quot;M&quot;,&quot;V&quot;,&quot;R&quot;,&quot;I&quot;,&quot;J&quot;,&quot;D&quot;,&quot;A&quot;,&quot;G&quot;,&quot;T&quot;,&quot;R&quot;,&quot;E&quot;,&quot;I&quot;,&quot;N&quot;,&quot;A&quot;,&quot;E&quot;,&quot;A&quot;,&quot;T&quot;,&quot;R&quot;,&quot;E&quot;,&quot;G&quot;,&quot;E&quot;,&quot;N&quot;,&quot;B&quot;,&quot;O&quot;,&quot;O&quot;,&quot;G&quot;,&quot;R&quot;,&quot;L&quot;,&quot;K&quot;,&quot;G&quot;,&quot;L&quot;,&quot;D&quot;,&quot;E&quot;,&quot;E&quot;,&quot;A&quot;,&quot;A&quot;,&quot;R&quot;,&quot;I&quot;,&quot;M&quot;,&quot;A&quot;,&quot;N&quot;,&quot;D&quot;,&quot;A&quot;,&quot;R&quot;,&quot;I&quot;,&quot;J&quot;,&quot;N&quot;,&quot;S&quot;,&quot;K&quot;,&quot;S&quot;,&quot;T&quot;,&quot;A&quot;,&quot;N&quot;,&quot;K&quot;,&quot;A&quot;,&quot;R&quot;,&quot;B&quot;,&quot;T&quot;,&quot;E&quot;,&quot;S&quot;,&quot;S&quot;,&quot;K&quot;,&quot;I&quot;,&quot;U&quot;,&quot;J&quot;,&quot;N&quot;,&quot;A&quot;,&quot;R&quot;,&quot;E&quot;,&quot;K&quot;,&quot;K&quot;,&quot;E&quot;,&quot;R&quot;,&quot;T&quot;,&quot;J&quot;,&quot;E&quot;,&quot;P&quot;,&quot;I&quot;,&quot;N&quot;,&quot;K&quot;,&quot;E&quot;,&quot;R&quot;,&quot;S&quot;,&quot;N&quot;,&quot;N&quot;,&quot;S&quot;]' eval 'numbers=[4,10,13,14,16,21,46,57,59,60,62,86,100,143,153]' eval counter=1 eval charIndex=0 begin grid -o '%cell*mm%' '%cell*mm%' %nCols% %nRows% eval '%isCell=_i in cells%' eval '%number=_i in numbers%' eval '%size=10 if isCell else 0%' rect 0 0 '%size*mm%' '%size*mm%' text -s 10 -p 0.5mm 1.5mm '%counter if number else '&quot;'&quot;''&quot;'&quot;'%' text -s 20 -p 5mm 5mm -a center '%chars[charIndex] if isCell else '&quot;'&quot;''&quot;'&quot;'%' eval '%if number: counter+=1 %' eval '%if isCell: charIndex+=1 %' end splitall deduplicate linemerge --tolerance 0.1mm write -m none --page-size '%width*mm%x%height*mm%' --center ./svgs/solution/dd2f79.svg
</dc:source>
        <dc:date>2024-01-06T16:44:06.457158</dc:date>
      </cc:Work>
    </rdf:RDF>
  </metadata>
  <defs/>
  <g fill="none" id="layer1" inkscape:groupmode="layer" inkscape:label="1" stroke="#000000" style="display:inline">
    <polygon points="170.0787,17.0079 170.0787,54.8031 170.0787,54.8031 207.874,54.8031 207.874,54.8031 207.874,17.0079 207.874,17.0079"/>
    <polyline points="173.8435,20.1772 174.4685,19.8647 174.4685,19.8647 175.406,18.9272 175.406,18.9272 175.406,25.4897"/>
    <polyline points="187.1014,28.4055 187.1014,37.7805 187.1014,37.7805 187.7264,39.6555 187.7264,39.6555 188.9764,40.9055 188.9764,40.9055 190.8514,41.5305 190.8514,41.5305 192.1014,41.5305 192.1014,41.5305 193.9764,40.9055 193.9764,40.9055 195.2264,39.6555 195.2264,39.6555 195.8514,37.7805 195.8514,37.7805 195.8514,28.4055"/>
    <polygon points="396.8504,17.0079 396.8504,54.8031 396.8504,54.8031 396.8504,92.5984 396.8504,92.5984 434.6457,92.5984 434.6457,92.5984 434.6457,54.8031 434.6457,54.8031 434.6457,17.0079 434.6457,17.0079"/>
    <line x1="396.8504" x2="434.6457" y1="54.8031" y2="54.8031"/>
    <polyline points="399.9902,20.4897 399.9902,20.1772 399.9902,20.1772 400.3027,19.5522 400.3027,19.5522 400.6152,19.2397 400.6152,19.2397 401.2402,18.9272 401.2402,18.9272 402.4902,18.9272 402.4902,18.9272 403.1152,19.2397 403.1152,19.2397 403.4277,19.5522 403.4277,19.5522 403.7402,20.1772 403.7402,20.1772 403.7402,20.8022 403.7402,20.8022 403.4277,21.4272 403.4277,21.4272 402.8027,22.3647 402.8027,22.3647 399.6777,25.4897 399.6777,25.4897 404.0527,25.4897"/>
    <polyline points="423.248,41.5305 423.248,28.4055 423.248,28.4055 418.248,41.5305 418.248,41.5305 413.248,28.4055 413.248,28.4055 413.248,41.5305"/>
    <polygon points="510.2362,17.0079 510.2362,54.8031 510.2362,54.8031 548.0315,54.8031 548.0315,54.8031 548.0315,17.0079 548.0315,17.0079"/>
    <polyline points="513.6885,18.9272 517.126,18.9272 517.126,18.9272 515.251,21.4272 515.251,21.4272 516.1885,21.4272 516.1885,21.4272 516.8135,21.7397 516.8135,21.7397 517.126,22.0522 517.126,22.0522 517.4385,22.9897 517.4385,22.9897 517.4385,23.6147 517.4385,23.6147 517.126,24.5522 517.126,24.5522 516.501,25.1772 516.501,25.1772 515.5635,25.4897 515.5635,25.4897 514.626,25.4897 514.626,25.4897 513.6885,25.1772 513.6885,25.1772 513.376,24.8647 513.376,24.8647 513.0635,24.2397"/>
    <polyline points="524.7589,28.4055 529.7589,41.5305 529.7589,41.5305 534.7589,28.4055"/>
    <polyline points="585.8268,17.0079 623.622,17.0079 623.622,17.0079 661.4173,17.0079 661.4173,17.0079 661.4173,54.8031 661.4173,54.8031 661.4173,92.5984 661.4173,92.5984 699.2126,92.5984 699.2126,92.5984 699.2126,130.3937 699.2126,130.3937 661.4173,130.3937 661.4173,130.3937 661.4173,92.5984 661.4173,92.5984 623.622,92.5984 623.622,92.5984 623.622,54.8031 623.622,54.8031 585.8268,54.8031 585.8268,54.8031 585.8268,92.5984 585.8268,92.5984 548.0315,92.5984 548.0315,92.5984 548.0315,54.8031 548.0315,54.8031 585.8268,54.8031 585.8268,54.8031 585.8268,17.0079 585.8268,17.0079 548.0315,17.0079"/>
    <polyline points="553.9838,25.4897 553.9838,18.9272 553.9838,18.9272 550.8588,23.3022 550.8588,23.3022 555.5463,23.3022"/>
    <polyline points="565.0541,34.6555 570.6791,34.6555 570.6791,34.6555 572.5541,34.0305 572.5541,34.0305 573.1791,33.4055 573.1791,33.4055 573.8041,32.1555 573.8041,32.1555 573.8041,30.9055 573.8041,30.9055 573.1791,29.6555 573.1791,29.6555 572.5541,29.0305 572.5541,29.0305 570.6791,28.4055 570.6791,28.4055 565.0541,28.4055 565.0541,28.4055 565.0541,41.5305"/>
    <line x1="569.4291" x2="573.8041" y1="34.6555" y2="41.5305"/>
    <polyline points="661.4173,17.0079 699.2126,17.0079 699.2126,17.0079 699.2126,54.8031 699.2126,54.8031 661.4173,54.8031 661.4173,54.8031 623.622,54.8031 623.622,54.8031 623.622,17.0079"/>
    <line x1="607.2244" x2="607.2244" y1="28.4055" y2="41.5305"/>
    <polyline points="630.1993,18.9272 627.0743,18.9272 627.0743,18.9272 626.7618,21.7397 626.7618,21.7397 627.0743,21.4272 627.0743,21.4272 628.0118,21.1147 628.0118,21.1147 628.9493,21.1147 628.9493,21.1147 629.8868,21.4272 629.8868,21.4272 630.5118,22.0522 630.5118,22.0522 630.8243,22.9897 630.8243,22.9897 630.8243,23.6147 630.8243,23.6147 630.5118,24.5522 630.5118,24.5522 629.8868,25.1772 629.8868,25.1772 628.9493,25.4897 628.9493,25.4897 628.0118,25.4897 628.0118,25.4897 627.0743,25.1772 627.0743,25.1772 626.7618,24.8647 626.7618,24.8647 626.4493,24.2397"/>
    <polyline points="646.8947,28.4055 646.8947,38.4055 646.8947,38.4055 646.2697,40.2805 646.2697,40.2805 645.6447,40.9055 645.6447,40.9055 644.3947,41.5305 644.3947,41.5305 643.1447,41.5305 643.1447,41.5305 641.8947,40.9055 641.8947,40.9055 641.2697,40.2805 641.2697,40.2805 640.6447,38.4055 640.6447,38.4055 640.6447,37.1555"/>
    <polygon points="678.44,28.4055 678.44,41.5305 678.44,41.5305 682.815,41.5305 682.815,41.5305 684.69,40.9055 684.69,40.9055 685.94,39.6555 685.94,39.6555 686.565,38.4055 686.565,38.4055 687.19,36.5305 687.19,36.5305 687.19,33.4055 687.19,33.4055 686.565,31.5305 686.565,31.5305 685.94,30.2805 685.94,30.2805 684.69,29.0305 684.69,29.0305 682.815,28.4055 682.815,28.4055"/>
    <polyline points="699.2126,54.8031 737.0079,54.8031 737.0079,54.8031 774.8031,54.8031 774.8031,54.8031 774.8031,17.0079 774.8031,17.0079 737.0079,17.0079 737.0079,17.0079 699.2126,17.0079"/>
    <line x1="737.0079" x2="737.0079" y1="54.8031" y2="17.0079"/>
    <polyline points="723.7352,41.5305 718.7352,28.4055 718.7352,28.4055 713.7352,41.5305"/>
    <line x1="715.6102" x2="721.8602" y1="37.1555" y2="37.1555"/>
    <polyline points="762.468,31.5305 761.843,30.2805 761.843,30.2805 760.593,29.0305 760.593,29.0305 759.343,28.4055 759.343,28.4055 756.843,28.4055 756.843,28.4055 755.593,29.0305 755.593,29.0305 754.343,30.2805 754.343,30.2805 753.718,31.5305 753.718,31.5305 753.093,33.4055 753.093,33.4055 753.093,36.5305 753.093,36.5305 753.718,38.4055 753.718,38.4055 754.343,39.6555 754.343,39.6555 755.593,40.9055 755.593,40.9055 756.843,41.5305 756.843,41.5305 759.343,41.5305 759.343,41.5305 760.593,40.9055 760.593,40.9055 761.843,39.6555 761.843,39.6555 762.468,38.4055 762.468,38.4055 762.468,36.5305 762.468,36.5305 759.343,36.5305"/>
    <polygon points="56.6929,54.8031 56.6929,92.5984 56.6929,92.5984 94.4882,92.5984 94.4882,92.5984 132.2835,92.5984 132.2835,92.5984 132.2835,54.8031 132.2835,54.8031 94.4882,54.8031 94.4882,54.8031"/>
    <line x1="94.4882" x2="94.4882" y1="92.5984" y2="54.8031"/>
    <polyline points="63.5827,57.6599 63.2702,57.0349 63.2702,57.0349 62.3327,56.7224 62.3327,56.7224 61.7077,56.7224 61.7077,56.7224 60.7702,57.0349 60.7702,57.0349 60.1452,57.9724 60.1452,57.9724 59.8327,59.5349 59.8327,59.5349 59.8327,61.0974 59.8327,61.0974 60.1452,62.3474 60.1452,62.3474 60.7702,62.9724 60.7702,62.9724 61.7077,63.2849 61.7077,63.2849 62.0202,63.2849 62.0202,63.2849 62.9577,62.9724 62.9577,62.9724 63.5827,62.3474 63.5827,62.3474 63.8952,61.4099 63.8952,61.4099 63.8952,61.0974 63.8952,61.0974 63.5827,60.1599 63.5827,60.1599 62.9577,59.5349 62.9577,59.5349 62.0202,59.2224 62.0202,59.2224 61.7077,59.2224 61.7077,59.2224 60.7702,59.5349 60.7702,59.5349 60.1452,60.1599 60.1452,60.1599 59.8327,61.0974"/>
    <line x1="76.2156" x2="76.2156" y1="66.2008" y2="79.3258"/>
    <line x1="71.8406" x2="80.5906" y1="66.2008" y2="66.2008"/>
    <polyline points="111.5108,72.4508 117.1358,72.4508 117.1358,72.4508 119.0108,71.8258 119.0108,71.8258 119.6358,71.2008 119.6358,71.2008 120.2608,69.9508 120.2608,69.9508 120.2608,68.7008 120.2608,68.7008 119.6358,67.4508 119.6358,67.4508 119.0108,66.8258 119.0108,66.8258 117.1358,66.2008 117.1358,66.2008 111.5108,66.2008 111.5108,66.2008 111.5108,79.3258"/>
    <line x1="115.8858" x2="120.2608" y1="72.4508" y2="79.3258"/>
    <polyline points="132.2835,92.5984 170.0787,92.5984 170.0787,92.5984 170.0787,54.8031 170.0787,54.8031 132.2835,54.8031"/>
    <polyline points="157.7436,66.2008 149.6186,66.2008 149.6186,66.2008 149.6186,79.3258 149.6186,79.3258 157.7436,79.3258"/>
    <line x1="149.6186" x2="154.6186" y1="72.4508" y2="72.4508"/>
    <polyline points="170.0787,130.3937 170.0787,92.5984 170.0787,92.5984 207.874,92.5984 207.874,92.5984 245.6693,92.5984 245.6693,92.5984 245.6693,54.8031 245.6693,54.8031 207.874,54.8031 207.874,54.8031 207.874,92.5984 207.874,92.5984 207.874,130.3937 207.874,130.3937 170.0787,130.3937 170.0787,130.3937 170.0787,168.189 170.0787,168.189 207.874,168.189 207.874,168.189 207.874,130.3937"/>
    <line x1="191.4764" x2="191.4764" y1="66.2008" y2="79.3258"/>
    <polyline points="233.6467,66.2008 233.6467,79.3258 233.6467,79.3258 224.8967,66.2008 224.8967,66.2008 224.8967,79.3258"/>
    <polyline points="421.373,79.3258 416.373,66.2008 416.373,66.2008 411.373,79.3258"/>
    <line x1="413.248" x2="419.498" y1="74.9508" y2="74.9508"/>
    <polyline points="573.4916,66.2008 565.3666,66.2008 565.3666,66.2008 565.3666,79.3258 565.3666,79.3258 573.4916,79.3258"/>
    <line x1="565.3666" x2="570.3666" y1="72.4508" y2="72.4508"/>
    <polyline points="648.1447,79.3258 643.1447,66.2008 643.1447,66.2008 638.1447,79.3258"/>
    <line x1="640.0197" x2="646.2697" y1="74.9508" y2="74.9508"/>
    <line x1="189.6014" x2="189.6014" y1="103.9961" y2="117.1211"/>
    <line x1="185.2264" x2="193.9764" y1="103.9961" y2="103.9961"/>
    <polygon points="245.6693,92.5984 245.6693,130.3937 245.6693,130.3937 283.4646,130.3937 283.4646,130.3937 283.4646,92.5984 283.4646,92.5984"/>
    <polyline points="248.4966,94.5177 252.8716,94.5177 252.8716,94.5177 249.7466,101.0802"/>
    <polyline points="262.6919,110.2461 268.3169,110.2461 268.3169,110.2461 270.1919,109.6211 270.1919,109.6211 270.8169,108.9961 270.8169,108.9961 271.4419,107.7461 271.4419,107.7461 271.4419,106.4961 271.4419,106.4961 270.8169,105.2461 270.8169,105.2461 270.1919,104.6211 270.1919,104.6211 268.3169,103.9961 268.3169,103.9961 262.6919,103.9961 262.6919,103.9961 262.6919,117.1211"/>
    <line x1="267.0669" x2="271.4419" y1="110.2461" y2="117.1211"/>
    <polyline points="283.4646,130.3937 321.2598,130.3937 321.2598,130.3937 321.2598,92.5984 321.2598,92.5984 283.4646,92.5984"/>
    <polyline points="308.9247,103.9961 300.7997,103.9961 300.7997,103.9961 300.7997,117.1211 300.7997,117.1211 308.9247,117.1211"/>
    <line x1="300.7997" x2="305.7997" y1="110.2461" y2="110.2461"/>
    <polyline points="321.2598,130.3937 359.0551,130.3937 359.0551,130.3937 359.0551,92.5984 359.0551,92.5984 321.2598,92.5984"/>
    <polyline points="346.72,107.1211 346.095,105.8711 346.095,105.8711 344.845,104.6211 344.845,104.6211 343.595,103.9961 343.595,103.9961 341.095,103.9961 341.095,103.9961 339.845,104.6211 339.845,104.6211 338.595,105.8711 338.595,105.8711 337.97,107.1211 337.97,107.1211 337.345,108.9961 337.345,108.9961 337.345,112.1211 337.345,112.1211 337.97,113.9961 337.97,113.9961 338.595,115.2461 338.595,115.2461 339.845,116.4961 339.845,116.4961 341.095,117.1211 341.095,117.1211 343.595,117.1211 343.595,117.1211 344.845,116.4961 344.845,116.4961 346.095,115.2461 346.095,115.2461 346.72,113.9961 346.72,113.9961 346.72,112.1211 346.72,112.1211 343.595,112.1211"/>
    <polyline points="359.0551,130.3937 396.8504,130.3937 396.8504,130.3937 396.8504,168.189 396.8504,168.189 359.0551,168.189 359.0551,168.189 321.2598,168.189 321.2598,168.189 283.4646,168.189 283.4646,168.189 245.6693,168.189 245.6693,168.189 245.6693,205.9843 245.6693,205.9843 283.4646,205.9843 283.4646,205.9843 283.4646,168.189"/>
    <polyline points="585.8268,92.5984 585.8268,130.3937 585.8268,130.3937 548.0315,130.3937 548.0315,130.3937 510.2362,130.3937 510.2362,130.3937 472.4409,130.3937 472.4409,130.3937 434.6457,130.3937 434.6457,130.3937 434.6457,168.189 434.6457,168.189 472.4409,168.189 472.4409,168.189 510.2362,168.189 510.2362,168.189 548.0315,168.189 548.0315,168.189 548.0315,130.3937 548.0315,130.3937 548.0315,92.5984 548.0315,92.5984 510.2362,92.5984 510.2362,92.5984 472.4409,92.5984 472.4409,92.5984 434.6457,92.5984 434.6457,92.5984 434.6457,130.3937 434.6457,130.3937 396.8504,130.3937 396.8504,130.3937 396.8504,92.5984 396.8504,92.5984 359.0551,92.5984"/>
    <polyline points="384.5153,103.9961 376.3903,103.9961 376.3903,103.9961 376.3903,117.1211 376.3903,117.1211 384.5153,117.1211"/>
    <line x1="376.3903" x2="381.3903" y1="110.2461" y2="110.2461"/>
    <polyline points="422.623,103.9961 422.623,117.1211 422.623,117.1211 413.873,103.9961 413.873,103.9961 413.873,117.1211"/>
    <line x1="472.4409" x2="472.4409" y1="130.3937" y2="92.5984"/>
    <polyline points="457.2933,110.2461 459.1683,109.6211 459.1683,109.6211 459.7933,108.9961 459.7933,108.9961 460.4183,107.7461 460.4183,107.7461 460.4183,106.4961 460.4183,106.4961 459.7933,105.2461 459.7933,105.2461 459.1683,104.6211 459.1683,104.6211 457.2933,103.9961 457.2933,103.9961 451.6683,103.9961 451.6683,103.9961 451.6683,117.1211 451.6683,117.1211 457.2933,117.1211 457.2933,117.1211 459.1683,116.4961 459.1683,116.4961 459.7933,115.8711 459.7933,115.8711 460.4183,114.6211 460.4183,114.6211 460.4183,112.7461 460.4183,112.7461 459.7933,111.4961 459.7933,111.4961 459.1683,110.8711 459.1683,110.8711 457.2933,110.2461 457.2933,110.2461 451.6683,110.2461"/>
    <line x1="510.2362" x2="510.2362" y1="130.3937" y2="92.5984"/>
    <polygon points="491.9636,103.9961 490.7136,104.6211 490.7136,104.6211 489.4636,105.8711 489.4636,105.8711 488.8386,107.1211 488.8386,107.1211 488.2136,108.9961 488.2136,108.9961 488.2136,112.1211 488.2136,112.1211 488.8386,113.9961 488.8386,113.9961 489.4636,115.2461 489.4636,115.2461 490.7136,116.4961 490.7136,116.4961 491.9636,117.1211 491.9636,117.1211 494.4636,117.1211 494.4636,117.1211 495.7136,116.4961 495.7136,116.4961 496.9636,115.2461 496.9636,115.2461 497.5886,113.9961 497.5886,113.9961 498.2136,112.1211 498.2136,112.1211 498.2136,108.9961 498.2136,108.9961 497.5886,107.1211 497.5886,107.1211 496.9636,105.8711 496.9636,105.8711 495.7136,104.6211 495.7136,104.6211 494.4636,103.9961 494.4636,103.9961"/>
    <polygon points="529.7589,103.9961 528.5089,104.6211 528.5089,104.6211 527.2589,105.8711 527.2589,105.8711 526.6339,107.1211 526.6339,107.1211 526.0089,108.9961 526.0089,108.9961 526.0089,112.1211 526.0089,112.1211 526.6339,113.9961 526.6339,113.9961 527.2589,115.2461 527.2589,115.2461 528.5089,116.4961 528.5089,116.4961 529.7589,117.1211 529.7589,117.1211 532.2589,117.1211 532.2589,117.1211 533.5089,116.4961 533.5089,116.4961 534.7589,115.2461 534.7589,115.2461 535.3839,113.9961 535.3839,113.9961 536.0089,112.1211 536.0089,112.1211 536.0089,108.9961 536.0089,108.9961 535.3839,107.1211 535.3839,107.1211 534.7589,105.8711 534.7589,105.8711 533.5089,104.6211 533.5089,104.6211 532.2589,103.9961 532.2589,103.9961"/>
    <polyline points="573.4916,107.1211 572.8666,105.8711 572.8666,105.8711 571.6166,104.6211 571.6166,104.6211 570.3666,103.9961 570.3666,103.9961 567.8666,103.9961 567.8666,103.9961 566.6166,104.6211 566.6166,104.6211 565.3666,105.8711 565.3666,105.8711 564.7416,107.1211 564.7416,107.1211 564.1166,108.9961 564.1166,108.9961 564.1166,112.1211 564.1166,112.1211 564.7416,113.9961 564.7416,113.9961 565.3666,115.2461 565.3666,115.2461 566.6166,116.4961 566.6166,116.4961 567.8666,117.1211 567.8666,117.1211 570.3666,117.1211 570.3666,117.1211 571.6166,116.4961 571.6166,116.4961 572.8666,115.2461 572.8666,115.2461 573.4916,113.9961 573.4916,113.9961 573.4916,112.1211 573.4916,112.1211 570.3666,112.1211"/>
    <polygon points="665.8071,94.5177 664.8696,94.8302 664.8696,94.8302 664.5571,95.4552 664.5571,95.4552 664.5571,96.0802 664.5571,96.0802 664.8696,96.7052 664.8696,96.7052 665.4946,97.0177 665.4946,97.0177 666.7446,97.3302 666.7446,97.3302 667.6821,97.6427 667.6821,97.6427 668.3071,98.2677 668.3071,98.2677 668.6196,98.8927 668.6196,98.8927 668.6196,99.8302 668.6196,99.8302 668.3071,100.4552 668.3071,100.4552 667.9946,100.7677 667.9946,100.7677 667.0571,101.0802 667.0571,101.0802 665.8071,101.0802 665.8071,101.0802 664.8696,100.7677 664.8696,100.7677 664.5571,100.4552 664.5571,100.4552 664.2446,99.8302 664.2446,99.8302 664.2446,98.8927 664.2446,98.8927 664.5571,98.2677 664.5571,98.2677 665.1821,97.6427 665.1821,97.6427 666.1196,97.3302 666.1196,97.3302 667.3696,97.0177 667.3696,97.0177 667.9946,96.7052 667.9946,96.7052 668.3071,96.0802 668.3071,96.0802 668.3071,95.4552 668.3071,95.4552 667.9946,94.8302 667.9946,94.8302 667.0571,94.5177 667.0571,94.5177"/>
    <polyline points="678.44,110.2461 684.065,110.2461 684.065,110.2461 685.94,109.6211 685.94,109.6211 686.565,108.9961 686.565,108.9961 687.19,107.7461 687.19,107.7461 687.19,106.4961 687.19,106.4961 686.565,105.2461 686.565,105.2461 685.94,104.6211 685.94,104.6211 684.065,103.9961 684.065,103.9961 678.44,103.9961 678.44,103.9961 678.44,117.1211"/>
    <line x1="682.815" x2="687.19" y1="110.2461" y2="117.1211"/>
    <polygon points="737.0079,92.5984 737.0079,130.3937 737.0079,130.3937 737.0079,168.189 737.0079,168.189 774.8031,168.189 774.8031,168.189 774.8031,130.3937 774.8031,130.3937 774.8031,92.5984 774.8031,92.5984"/>
    <line x1="737.0079" x2="774.8031" y1="130.3937" y2="130.3937"/>
    <polyline points="743.8976,96.7052 743.5851,97.6427 743.5851,97.6427 742.9601,98.2677 742.9601,98.2677 742.0226,98.5802 742.0226,98.5802 741.7101,98.5802 741.7101,98.5802 740.7726,98.2677 740.7726,98.2677 740.1476,97.6427 740.1476,97.6427 739.8351,96.7052 739.8351,96.7052 739.8351,96.3927 739.8351,96.3927 740.1476,95.4552 740.1476,95.4552 740.7726,94.8302 740.7726,94.8302 741.7101,94.5177 741.7101,94.5177 742.0226,94.5177 742.0226,94.5177 742.9601,94.8302 742.9601,94.8302 743.5851,95.4552 743.5851,95.4552 743.8976,96.7052 743.8976,96.7052 743.8976,98.2677 743.8976,98.2677 743.5851,99.8302 743.5851,99.8302 742.9601,100.7677 742.9601,100.7677 742.0226,101.0802 742.0226,101.0802 741.3976,101.0802 741.3976,101.0802 740.4601,100.7677 740.4601,100.7677 740.1476,100.1427"/>
    <polyline points="754.6555,103.9961 754.6555,117.1211 754.6555,117.1211 762.1555,117.1211"/>
    <polygon points="18.8976,130.3937 18.8976,168.189 18.8976,168.189 56.6929,168.189 56.6929,168.189 56.6929,130.3937 56.6929,130.3937"/>
    <polyline points="22.6624,133.563 23.2874,133.2505 23.2874,133.2505 24.2249,132.313 24.2249,132.313 24.2249,138.8755"/>
    <polygon points="29.8499,132.313 28.9124,132.6255 28.9124,132.6255 28.2874,133.563 28.2874,133.563 27.9749,135.1255 27.9749,135.1255 27.9749,136.063 27.9749,136.063 28.2874,137.6255 28.2874,137.6255 28.9124,138.563 28.9124,138.563 29.8499,138.8755 29.8499,138.8755 30.4749,138.8755 30.4749,138.8755 31.4124,138.563 31.4124,138.563 32.0374,137.6255 32.0374,137.6255 32.3499,136.063 32.3499,136.063 32.3499,135.1255 32.3499,135.1255 32.0374,133.563 32.0374,133.563 31.4124,132.6255 31.4124,132.6255 30.4749,132.313 30.4749,132.313"/>
    <line x1="35.9203" x2="35.9203" y1="141.7913" y2="154.9163"/>
    <line x1="44.6703" x2="35.9203" y1="141.7913" y2="150.5413"/>
    <line x1="39.0453" x2="44.6703" y1="147.4163" y2="154.9163"/>
    <polygon points="94.4882,130.3937 94.4882,168.189 94.4882,168.189 132.2835,168.189 132.2835,168.189 132.2835,130.3937 132.2835,130.3937"/>
    <polyline points="98.253,133.563 98.878,133.2505 98.878,133.2505 99.8155,132.313 99.8155,132.313 99.8155,138.8755"/>
    <polyline points="104.503,133.563 105.128,133.2505 105.128,133.2505 106.0655,132.313 106.0655,132.313 106.0655,138.8755"/>
    <polyline points="119.9483,144.9163 119.3233,143.6663 119.3233,143.6663 118.0733,142.4163 118.0733,142.4163 116.8233,141.7913 116.8233,141.7913 114.3233,141.7913 114.3233,141.7913 113.0733,142.4163 113.0733,142.4163 111.8233,143.6663 111.8233,143.6663 111.1983,144.9163 111.1983,144.9163 110.5733,146.7913 110.5733,146.7913 110.5733,149.9163 110.5733,149.9163 111.1983,151.7913 111.1983,151.7913 111.8233,153.0413 111.8233,153.0413 113.0733,154.2913 113.0733,154.2913 114.3233,154.9163 114.3233,154.9163 116.8233,154.9163 116.8233,154.9163 118.0733,154.2913 118.0733,154.2913 119.3233,153.0413 119.3233,153.0413 119.9483,151.7913 119.9483,151.7913 119.9483,149.9163 119.9483,149.9163 116.8233,149.9163"/>
    <polyline points="187.7264,141.7913 187.7264,154.9163 187.7264,154.9163 195.2264,154.9163"/>
    <polyline points="359.0551,168.189 359.0551,205.9843 359.0551,205.9843 396.8504,205.9843 396.8504,205.9843 396.8504,168.189 396.8504,168.189 434.6457,168.189 434.6457,168.189 434.6457,205.9843 434.6457,205.9843 434.6457,243.7795 434.6457,243.7795 396.8504,243.7795 396.8504,243.7795 396.8504,205.9843 396.8504,205.9843 434.6457,205.9843 434.6457,205.9843 472.4409,205.9843 472.4409,205.9843 472.4409,168.189"/>
    <polygon points="413.873,141.7913 413.873,154.9163 413.873,154.9163 418.248,154.9163 418.248,154.9163 420.123,154.2913 420.123,154.2913 421.373,153.0413 421.373,153.0413 421.998,151.7913 421.998,151.7913 422.623,149.9163 422.623,149.9163 422.623,146.7913 422.623,146.7913 421.998,144.9163 421.998,144.9163 421.373,143.6663 421.373,143.6663 420.123,142.4163 420.123,142.4163 418.248,141.7913 418.248,141.7913"/>
    <polyline points="585.8268,168.189 585.8268,205.9843 585.8268,205.9843 585.8268,243.7795 585.8268,243.7795 548.0315,243.7795 548.0315,243.7795 548.0315,205.9843 548.0315,205.9843 548.0315,168.189 548.0315,168.189 585.8268,168.189 585.8268,168.189 585.8268,130.3937"/>
    <polyline points="573.4916,141.7913 565.3666,141.7913 565.3666,141.7913 565.3666,154.9163 565.3666,154.9163 573.4916,154.9163"/>
    <line x1="565.3666" x2="570.3666" y1="148.0413" y2="148.0413"/>
    <polyline points="661.4173,130.3937 661.4173,168.189 661.4173,168.189 661.4173,205.9843 661.4173,205.9843 699.2126,205.9843 699.2126,205.9843 699.2126,168.189 699.2126,168.189 699.2126,130.3937"/>
    <line x1="661.4173" x2="699.2126" y1="168.189" y2="168.189"/>
    <polyline points="686.8775,141.7913 678.7525,141.7913 678.7525,141.7913 678.7525,154.9163 678.7525,154.9163 686.8775,154.9163"/>
    <line x1="678.7525" x2="683.7525" y1="148.0413" y2="148.0413"/>
    <polyline points="761.5305,154.9163 756.5305,141.7913 756.5305,141.7913 751.5305,154.9163"/>
    <line x1="753.4055" x2="759.6555" y1="150.5413" y2="150.5413"/>
    <polyline points="18.8976,168.189 18.8976,205.9843 18.8976,205.9843 56.6929,205.9843 56.6929,205.9843 56.6929,168.189"/>
    <polyline points="43.4203,192.7116 38.4203,179.5866 38.4203,179.5866 33.4203,192.7116"/>
    <line x1="35.2953" x2="41.5453" y1="188.3366" y2="188.3366"/>
    <polyline points="94.4882,168.189 94.4882,205.9843 94.4882,205.9843 56.6929,205.9843 56.6929,205.9843 56.6929,243.7795 56.6929,243.7795 94.4882,243.7795 94.4882,243.7795 94.4882,205.9843 94.4882,205.9843 132.2835,205.9843 132.2835,205.9843 132.2835,168.189"/>
    <polyline points="111.5108,185.8366 117.1358,185.8366 117.1358,185.8366 119.0108,185.2116 119.0108,185.2116 119.6358,184.5866 119.6358,184.5866 120.2608,183.3366 120.2608,183.3366 120.2608,182.0866 120.2608,182.0866 119.6358,180.8366 119.6358,180.8366 119.0108,180.2116 119.0108,180.2116 117.1358,179.5866 117.1358,179.5866 111.5108,179.5866 111.5108,179.5866 111.5108,192.7116"/>
    <line x1="115.8858" x2="120.2608" y1="185.8366" y2="192.7116"/>
    <polyline points="170.0787,168.189 170.0787,205.9843 170.0787,205.9843 132.2835,205.9843 132.2835,205.9843 132.2835,243.7795 132.2835,243.7795 170.0787,243.7795 170.0787,243.7795 170.0787,205.9843 170.0787,205.9843 207.874,205.9843 207.874,205.9843 207.874,168.189"/>
    <line x1="191.4764" x2="191.4764" y1="179.5866" y2="192.7116"/>
    <polyline points="249.4341,171.3583 250.0591,171.0458 250.0591,171.0458 250.9966,170.1083 250.9966,170.1083 250.9966,176.6708"/>
    <polyline points="255.0591,171.6708 255.0591,171.3583 255.0591,171.3583 255.3716,170.7333 255.3716,170.7333 255.6841,170.4208 255.6841,170.4208 256.3091,170.1083 256.3091,170.1083 257.5591,170.1083 257.5591,170.1083 258.1841,170.4208 258.1841,170.4208 258.4966,170.7333 258.4966,170.7333 258.8091,171.3583 258.8091,171.3583 258.8091,171.9833 258.8091,171.9833 258.4966,172.6083 258.4966,172.6083 257.8716,173.5458 257.8716,173.5458 254.7466,176.6708 254.7466,176.6708 259.1216,176.6708"/>
    <polyline points="272.0669,192.7116 272.0669,179.5866 272.0669,179.5866 267.0669,192.7116 267.0669,192.7116 262.0669,179.5866 262.0669,179.5866 262.0669,192.7116"/>
    <polyline points="283.4646,205.9843 321.2598,205.9843 321.2598,205.9843 359.0551,205.9843"/>
    <line x1="321.2598" x2="321.2598" y1="205.9843" y2="168.189"/>
    <polyline points="307.9872,192.7116 302.9872,179.5866 302.9872,179.5866 297.9872,192.7116"/>
    <line x1="299.8622" x2="306.1122" y1="188.3366" y2="188.3366"/>
    <polyline points="347.0325,179.5866 347.0325,192.7116 347.0325,192.7116 338.2825,179.5866 338.2825,179.5866 338.2825,192.7116"/>
    <polygon points="376.0778,179.5866 376.0778,192.7116 376.0778,192.7116 380.4528,192.7116 380.4528,192.7116 382.3278,192.0866 382.3278,192.0866 383.5778,190.8366 383.5778,190.8366 384.2028,189.5866 384.2028,189.5866 384.8278,187.7116 384.8278,187.7116 384.8278,184.5866 384.8278,184.5866 384.2028,182.7116 384.2028,182.7116 383.5778,181.4616 383.5778,181.4616 382.3278,180.2116 382.3278,180.2116 380.4528,179.5866 380.4528,179.5866"/>
    <polyline points="421.373,192.7116 416.373,179.5866 416.373,179.5866 411.373,192.7116"/>
    <line x1="413.248" x2="419.498" y1="188.3366" y2="188.3366"/>
    <polyline points="451.6683,185.8366 457.2933,185.8366 457.2933,185.8366 459.1683,185.2116 459.1683,185.2116 459.7933,184.5866 459.7933,184.5866 460.4183,183.3366 460.4183,183.3366 460.4183,182.0866 460.4183,182.0866 459.7933,180.8366 459.7933,180.8366 459.1683,180.2116 459.1683,180.2116 457.2933,179.5866 457.2933,179.5866 451.6683,179.5866 451.6683,179.5866 451.6683,192.7116"/>
    <line x1="456.0433" x2="460.4183" y1="185.8366" y2="192.7116"/>
    <polyline points="472.4409,205.9843 510.2362,205.9843 510.2362,205.9843 510.2362,168.189"/>
    <line x1="493.8386" x2="493.8386" y1="179.5866" y2="192.7116"/>
    <polyline points="510.2362,205.9843 548.0315,205.9843 548.0315,205.9843 585.8268,205.9843"/>
    <polyline points="533.5089,179.5866 533.5089,189.5866 533.5089,189.5866 532.8839,191.4616 532.8839,191.4616 532.2589,192.0866 532.2589,192.0866 531.0089,192.7116 531.0089,192.7116 529.7589,192.7116 529.7589,192.7116 528.5089,192.0866 528.5089,192.0866 527.8839,191.4616 527.8839,191.4616 527.2589,189.5866 527.2589,189.5866 527.2589,188.3366"/>
    <polyline points="573.8041,179.5866 573.8041,192.7116 573.8041,192.7116 565.0541,179.5866 565.0541,179.5866 565.0541,192.7116"/>
    <polyline points="686.565,181.4616 685.315,180.2116 685.315,180.2116 683.44,179.5866 683.44,179.5866 680.94,179.5866 680.94,179.5866 679.065,180.2116 679.065,180.2116 677.815,181.4616 677.815,181.4616 677.815,182.7116 677.815,182.7116 678.44,183.9616 678.44,183.9616 679.065,184.5866 679.065,184.5866 680.315,185.2116 680.315,185.2116 684.065,186.4616 684.065,186.4616 685.315,187.0866 685.315,187.0866 685.94,187.7116 685.94,187.7116 686.565,188.9616 686.565,188.9616 686.565,190.8366 686.565,190.8366 685.315,192.0866 685.315,192.0866 683.44,192.7116 683.44,192.7116 680.94,192.7116 680.94,192.7116 679.065,192.0866 679.065,192.0866 677.815,190.8366"/>
    <polyline points="737.0079,168.189 737.0079,205.9843 737.0079,205.9843 737.0079,243.7795 737.0079,243.7795 774.8031,243.7795 774.8031,243.7795 774.8031,205.9843 774.8031,205.9843 774.8031,168.189"/>
    <line x1="737.0079" x2="774.8031" y1="205.9843" y2="205.9843"/>
    <line x1="754.0305" x2="754.0305" y1="179.5866" y2="192.7116"/>
    <line x1="762.7805" x2="754.0305" y1="179.5866" y2="188.3366"/>
    <line x1="757.1555" x2="762.7805" y1="185.2116" y2="192.7116"/>
    <polyline points="18.8976,205.9843 18.8976,243.7795 18.8976,243.7795 56.6929,243.7795 56.6929,243.7795 56.6929,281.5748 56.6929,281.5748 18.8976,281.5748 18.8976,281.5748 18.8976,319.3701 18.8976,319.3701 56.6929,319.3701 56.6929,319.3701 56.6929,281.5748"/>
    <polyline points="22.6624,209.1535 23.2874,208.841 23.2874,208.841 24.2249,207.9035 24.2249,207.9035 24.2249,214.466"/>
    <polyline points="28.5999,207.9035 32.0374,207.9035 32.0374,207.9035 30.1624,210.4035 30.1624,210.4035 31.0999,210.4035 31.0999,210.4035 31.7249,210.716 31.7249,210.716 32.0374,211.0285 32.0374,211.0285 32.3499,211.966 32.3499,211.966 32.3499,212.591 32.3499,212.591 32.0374,213.5285 32.0374,213.5285 31.4124,214.1535 31.4124,214.1535 30.4749,214.466 30.4749,214.466 29.5374,214.466 29.5374,214.466 28.5999,214.1535 28.5999,214.1535 28.2874,213.841 28.2874,213.841 27.9749,213.216"/>
    <polyline points="44.0453,219.2569 42.7953,218.0069 42.7953,218.0069 40.9203,217.3819 40.9203,217.3819 38.4203,217.3819 38.4203,217.3819 36.5453,218.0069 36.5453,218.0069 35.2953,219.2569 35.2953,219.2569 35.2953,220.5069 35.2953,220.5069 35.9203,221.7569 35.9203,221.7569 36.5453,222.3819 36.5453,222.3819 37.7953,223.0069 37.7953,223.0069 41.5453,224.2569 41.5453,224.2569 42.7953,224.8819 42.7953,224.8819 43.4203,225.5069 43.4203,225.5069 44.0453,226.7569 44.0453,226.7569 44.0453,228.6319 44.0453,228.6319 42.7953,229.8819 42.7953,229.8819 40.9203,230.5069 40.9203,230.5069 38.4203,230.5069 38.4203,230.5069 36.5453,229.8819 36.5453,229.8819 35.2953,228.6319"/>
    <line x1="76.2156" x2="76.2156" y1="217.3819" y2="230.5069"/>
    <line x1="71.8406" x2="80.5906" y1="217.3819" y2="217.3819"/>
    <polyline points="94.4882,243.7795 132.2835,243.7795 132.2835,243.7795 132.2835,281.5748 132.2835,281.5748 132.2835,319.3701 132.2835,319.3701 170.0787,319.3701 170.0787,319.3701 170.0787,281.5748 170.0787,281.5748 207.874,281.5748 207.874,281.5748 207.874,243.7795 207.874,243.7795 245.6693,243.7795 245.6693,243.7795 245.6693,205.9843 245.6693,205.9843 207.874,205.9843 207.874,205.9843 207.874,243.7795 207.874,243.7795 170.0787,243.7795 170.0787,243.7795 170.0787,281.5748 170.0787,281.5748 132.2835,281.5748 132.2835,281.5748 94.4882,281.5748 94.4882,281.5748 94.4882,243.7795"/>
    <polyline points="119.0108,230.5069 114.0108,217.3819 114.0108,217.3819 109.0108,230.5069"/>
    <line x1="110.8858" x2="117.1358" y1="226.1319" y2="226.1319"/>
    <polyline points="158.0561,217.3819 158.0561,230.5069 158.0561,230.5069 149.3061,217.3819 149.3061,217.3819 149.3061,230.5069"/>
    <line x1="187.1014" x2="187.1014" y1="217.3819" y2="230.5069"/>
    <line x1="195.8514" x2="187.1014" y1="217.3819" y2="226.1319"/>
    <line x1="190.2264" x2="195.8514" y1="223.0069" y2="230.5069"/>
    <polyline points="232.3967,230.5069 227.3967,217.3819 227.3967,217.3819 222.3967,230.5069"/>
    <line x1="224.2717" x2="230.5217" y1="226.1319" y2="226.1319"/>
    <polyline points="413.873,223.6319 419.498,223.6319 419.498,223.6319 421.373,223.0069 421.373,223.0069 421.998,222.3819 421.998,222.3819 422.623,221.1319 422.623,221.1319 422.623,219.8819 422.623,219.8819 421.998,218.6319 421.998,218.6319 421.373,218.0069 421.373,218.0069 419.498,217.3819 419.498,217.3819 413.873,217.3819 413.873,217.3819 413.873,230.5069"/>
    <line x1="418.248" x2="422.623" y1="223.6319" y2="230.5069"/>
    <polyline points="570.6791,223.6319 572.5541,223.0069 572.5541,223.0069 573.1791,222.3819 573.1791,222.3819 573.8041,221.1319 573.8041,221.1319 573.8041,219.8819 573.8041,219.8819 573.1791,218.6319 573.1791,218.6319 572.5541,218.0069 572.5541,218.0069 570.6791,217.3819 570.6791,217.3819 565.0541,217.3819 565.0541,217.3819 565.0541,230.5069 565.0541,230.5069 570.6791,230.5069 570.6791,230.5069 572.5541,229.8819 572.5541,229.8819 573.1791,229.2569 573.1791,229.2569 573.8041,228.0069 573.8041,228.0069 573.8041,226.1319 573.8041,226.1319 573.1791,224.8819 573.1791,224.8819 572.5541,224.2569 572.5541,224.2569 570.6791,223.6319 570.6791,223.6319 565.0541,223.6319"/>
    <polyline points="661.4173,205.9843 661.4173,243.7795 661.4173,243.7795 699.2126,243.7795 699.2126,243.7795 699.2126,205.9843"/>
    <line x1="680.94" x2="680.94" y1="217.3819" y2="230.5069"/>
    <line x1="676.565" x2="685.315" y1="217.3819" y2="217.3819"/>
    <polyline points="762.468,217.3819 754.343,217.3819 754.343,217.3819 754.343,230.5069 754.343,230.5069 762.468,230.5069"/>
    <line x1="754.343" x2="759.343" y1="223.6319" y2="223.6319"/>
    <line x1="18.8976" x2="18.8976" y1="243.7795" y2="281.5748"/>
    <polyline points="44.0453,257.0522 42.7953,255.8022 42.7953,255.8022 40.9203,255.1772 40.9203,255.1772 38.4203,255.1772 38.4203,255.1772 36.5453,255.8022 36.5453,255.8022 35.2953,257.0522 35.2953,257.0522 35.2953,258.3022 35.2953,258.3022 35.9203,259.5522 35.9203,259.5522 36.5453,260.1772 36.5453,260.1772 37.7953,260.8022 37.7953,260.8022 41.5453,262.0522 41.5453,262.0522 42.7953,262.6772 42.7953,262.6772 43.4203,263.3022 43.4203,263.3022 44.0453,264.5522 44.0453,264.5522 44.0453,266.4272 44.0453,266.4272 42.7953,267.6772 42.7953,267.6772 40.9203,268.3022 40.9203,268.3022 38.4203,268.3022 38.4203,268.3022 36.5453,267.6772 36.5453,267.6772 35.2953,266.4272"/>
    <polyline points="119.6358,257.0522 118.3858,255.8022 118.3858,255.8022 116.5108,255.1772 116.5108,255.1772 114.0108,255.1772 114.0108,255.1772 112.1358,255.8022 112.1358,255.8022 110.8858,257.0522 110.8858,257.0522 110.8858,258.3022 110.8858,258.3022 111.5108,259.5522 111.5108,259.5522 112.1358,260.1772 112.1358,260.1772 113.3858,260.8022 113.3858,260.8022 117.1358,262.0522 117.1358,262.0522 118.3858,262.6772 118.3858,262.6772 119.0108,263.3022 119.0108,263.3022 119.6358,264.5522 119.6358,264.5522 119.6358,266.4272 119.6358,266.4272 118.3858,267.6772 118.3858,267.6772 116.5108,268.3022 116.5108,268.3022 114.0108,268.3022 114.0108,268.3022 112.1358,267.6772 112.1358,267.6772 110.8858,266.4272"/>
    <line x1="187.1014" x2="187.1014" y1="255.1772" y2="268.3022"/>
    <line x1="195.8514" x2="187.1014" y1="255.1772" y2="263.9272"/>
    <line x1="190.2264" x2="195.8514" y1="260.8022" y2="268.3022"/>
    <polyline points="396.8504,243.7795 396.8504,281.5748 396.8504,281.5748 359.0551,281.5748 359.0551,281.5748 321.2598,281.5748 321.2598,281.5748 283.4646,281.5748 283.4646,281.5748 245.6693,281.5748 245.6693,281.5748 207.874,281.5748 207.874,281.5748 207.874,319.3701 207.874,319.3701 245.6693,319.3701 245.6693,319.3701 245.6693,281.5748"/>
    <polyline points="359.0551,281.5748 359.0551,319.3701 359.0551,319.3701 396.8504,319.3701 396.8504,319.3701 396.8504,357.1654 396.8504,357.1654 434.6457,357.1654 434.6457,357.1654 434.6457,319.3701 434.6457,319.3701 472.4409,319.3701 472.4409,319.3701 472.4409,281.5748 472.4409,281.5748 434.6457,281.5748 434.6457,281.5748 434.6457,319.3701 434.6457,319.3701 396.8504,319.3701 396.8504,319.3701 396.8504,281.5748 396.8504,281.5748 434.6457,281.5748 434.6457,281.5748 434.6457,243.7795"/>
    <line x1="418.248" x2="418.248" y1="255.1772" y2="268.3022"/>
    <polyline points="548.0315,243.7795 548.0315,281.5748 548.0315,281.5748 585.8268,281.5748 585.8268,281.5748 585.8268,243.7795"/>
    <polyline points="565.0541,255.1772 565.0541,264.5522 565.0541,264.5522 565.6791,266.4272 565.6791,266.4272 566.9291,267.6772 566.9291,267.6772 568.8041,268.3022 568.8041,268.3022 570.0541,268.3022 570.0541,268.3022 571.9291,267.6772 571.9291,267.6772 573.1791,266.4272 573.1791,266.4272 573.8041,264.5522 573.8041,264.5522 573.8041,255.1772"/>
    <polyline points="661.4173,243.7795 661.4173,281.5748 661.4173,281.5748 699.2126,281.5748 699.2126,281.5748 699.2126,243.7795"/>
    <polyline points="684.69,255.1772 684.69,265.1772 684.69,265.1772 684.065,267.0522 684.065,267.0522 683.44,267.6772 683.44,267.6772 682.19,268.3022 682.19,268.3022 680.94,268.3022 680.94,268.3022 679.69,267.6772 679.69,267.6772 679.065,267.0522 679.065,267.0522 678.44,265.1772 678.44,265.1772 678.44,263.9272"/>
    <polyline points="737.0079,243.7795 737.0079,281.5748 737.0079,281.5748 699.2126,281.5748 699.2126,281.5748 699.2126,319.3701 699.2126,319.3701 661.4173,319.3701 661.4173,319.3701 661.4173,357.1654 661.4173,357.1654 699.2126,357.1654 699.2126,357.1654 699.2126,319.3701 699.2126,319.3701 737.0079,319.3701 737.0079,319.3701 737.0079,281.5748 737.0079,281.5748 774.8031,281.5748 774.8031,281.5748 774.8031,243.7795"/>
    <polyline points="762.7805,255.1772 762.7805,268.3022 762.7805,268.3022 754.0305,255.1772 754.0305,255.1772 754.0305,268.3022"/>
    <polyline points="43.4203,306.0974 38.4203,292.9724 38.4203,292.9724 33.4203,306.0974"/>
    <line x1="35.2953" x2="41.5453" y1="301.7224" y2="301.7224"/>
    <polyline points="136.0482,284.7441 136.6732,284.4316 136.6732,284.4316 137.6107,283.4941 137.6107,283.4941 137.6107,290.0566"/>
    <polyline points="144.4857,290.0566 144.4857,283.4941 144.4857,283.4941 141.3607,287.8691 141.3607,287.8691 146.0482,287.8691"/>
    <polyline points="149.3061,299.2224 154.9311,299.2224 154.9311,299.2224 156.8061,298.5974 156.8061,298.5974 157.4311,297.9724 157.4311,297.9724 158.0561,296.7224 158.0561,296.7224 158.0561,295.4724 158.0561,295.4724 157.4311,294.2224 157.4311,294.2224 156.8061,293.5974 156.8061,293.5974 154.9311,292.9724 154.9311,292.9724 149.3061,292.9724 149.3061,292.9724 149.3061,306.0974"/>
    <line x1="153.6811" x2="158.0561" y1="299.2224" y2="306.0974"/>
    <polygon points="170.0787,319.3701 207.874,319.3701 207.874,319.3701 207.874,357.1654 207.874,357.1654 170.0787,357.1654 170.0787,357.1654"/>
    <polyline points="195.5389,292.9724 187.4139,292.9724 187.4139,292.9724 187.4139,306.0974 187.4139,306.0974 195.5389,306.0974"/>
    <line x1="187.4139" x2="192.4139" y1="299.2224" y2="299.2224"/>
    <line x1="224.8967" x2="224.8967" y1="292.9724" y2="306.0974"/>
    <line x1="233.6467" x2="224.8967" y1="292.9724" y2="301.7224"/>
    <line x1="228.0217" x2="233.6467" y1="298.5974" y2="306.0974"/>
    <polyline points="245.6693,319.3701 283.4646,319.3701 283.4646,319.3701 321.2598,319.3701 321.2598,319.3701 321.2598,281.5748"/>
    <line x1="283.4646" x2="283.4646" y1="319.3701" y2="281.5748"/>
    <line x1="262.6919" x2="262.6919" y1="292.9724" y2="306.0974"/>
    <line x1="271.4419" x2="262.6919" y1="292.9724" y2="301.7224"/>
    <line x1="265.8169" x2="271.4419" y1="298.5974" y2="306.0974"/>
    <polyline points="308.9247,292.9724 300.7997,292.9724 300.7997,292.9724 300.7997,306.0974 300.7997,306.0974 308.9247,306.0974"/>
    <line x1="300.7997" x2="305.7997" y1="299.2224" y2="299.2224"/>
    <line x1="321.2598" x2="359.0551" y1="319.3701" y2="319.3701"/>
    <polyline points="338.2825,299.2224 343.9075,299.2224 343.9075,299.2224 345.7825,298.5974 345.7825,298.5974 346.4075,297.9724 346.4075,297.9724 347.0325,296.7224 347.0325,296.7224 347.0325,295.4724 347.0325,295.4724 346.4075,294.2224 346.4075,294.2224 345.7825,293.5974 345.7825,293.5974 343.9075,292.9724 343.9075,292.9724 338.2825,292.9724 338.2825,292.9724 338.2825,306.0974"/>
    <line x1="342.6575" x2="347.0325" y1="299.2224" y2="306.0974"/>
    <line x1="378.5778" x2="378.5778" y1="292.9724" y2="306.0974"/>
    <line x1="374.2028" x2="382.9528" y1="292.9724" y2="292.9724"/>
    <polyline points="420.123,292.9724 420.123,302.9724 420.123,302.9724 419.498,304.8474 419.498,304.8474 418.873,305.4724 418.873,305.4724 417.623,306.0974 417.623,306.0974 416.373,306.0974 416.373,306.0974 415.123,305.4724 415.123,305.4724 414.498,304.8474 414.498,304.8474 413.873,302.9724 413.873,302.9724 413.873,301.7224"/>
    <polyline points="460.1058,292.9724 451.9808,292.9724 451.9808,292.9724 451.9808,306.0974 451.9808,306.0974 460.1058,306.0974"/>
    <line x1="451.9808" x2="456.9808" y1="299.2224" y2="299.2224"/>
    <polygon points="510.2362,281.5748 510.2362,319.3701 510.2362,319.3701 548.0315,319.3701 548.0315,319.3701 548.0315,281.5748 548.0315,281.5748"/>
    <polyline points="514.001,284.7441 514.626,284.4316 514.626,284.4316 515.5635,283.4941 515.5635,283.4941 515.5635,290.0566"/>
    <polyline points="523.0635,283.4941 519.9385,283.4941 519.9385,283.4941 519.626,286.3066 519.626,286.3066 519.9385,285.9941 519.9385,285.9941 520.876,285.6816 520.876,285.6816 521.8135,285.6816 521.8135,285.6816 522.751,285.9941 522.751,285.9941 523.376,286.6191 523.376,286.6191 523.6885,287.5566 523.6885,287.5566 523.6885,288.1816 523.6885,288.1816 523.376,289.1191 523.376,289.1191 522.751,289.7441 522.751,289.7441 521.8135,290.0566 521.8135,290.0566 520.876,290.0566 520.876,290.0566 519.9385,289.7441 519.9385,289.7441 519.626,289.4316 519.626,289.4316 519.3135,288.8066"/>
    <polyline points="527.2589,299.8474 532.8839,299.8474 532.8839,299.8474 534.7589,299.2224 534.7589,299.2224 535.3839,298.5974 535.3839,298.5974 536.0089,297.3474 536.0089,297.3474 536.0089,295.4724 536.0089,295.4724 535.3839,294.2224 535.3839,294.2224 534.7589,293.5974 534.7589,293.5974 532.8839,292.9724 532.8839,292.9724 527.2589,292.9724 527.2589,292.9724 527.2589,306.0974"/>
    <polyline points="548.0315,319.3701 585.8268,319.3701 585.8268,319.3701 585.8268,281.5748 585.8268,281.5748 623.622,281.5748 623.622,281.5748 623.622,319.3701 623.622,319.3701 661.4173,319.3701 661.4173,319.3701 661.4173,281.5748 661.4173,281.5748 623.622,281.5748"/>
    <line x1="569.4291" x2="569.4291" y1="292.9724" y2="306.0974"/>
    <line x1="585.8268" x2="623.622" y1="319.3701" y2="319.3701"/>
    <polyline points="611.5994,292.9724 611.5994,306.0974 611.5994,306.0974 602.8494,292.9724 602.8494,292.9724 602.8494,306.0974"/>
    <line x1="640.6447" x2="640.6447" y1="292.9724" y2="306.0974"/>
    <line x1="649.3947" x2="640.6447" y1="292.9724" y2="301.7224"/>
    <line x1="643.7697" x2="649.3947" y1="298.5974" y2="306.0974"/>
    <polyline points="686.8775,292.9724 678.7525,292.9724 678.7525,292.9724 678.7525,306.0974 678.7525,306.0974 686.8775,306.0974"/>
    <line x1="678.7525" x2="683.7525" y1="299.2224" y2="299.2224"/>
    <polyline points="716.2352,299.2224 721.8602,299.2224 721.8602,299.2224 723.7352,298.5974 723.7352,298.5974 724.3602,297.9724 724.3602,297.9724 724.9852,296.7224 724.9852,296.7224 724.9852,295.4724 724.9852,295.4724 724.3602,294.2224 724.3602,294.2224 723.7352,293.5974 723.7352,293.5974 721.8602,292.9724 721.8602,292.9724 716.2352,292.9724 716.2352,292.9724 716.2352,306.0974"/>
    <line x1="720.6102" x2="724.9852" y1="299.2224" y2="306.0974"/>
    <polyline points="737.0079,319.3701 774.8031,319.3701 774.8031,319.3701 774.8031,281.5748"/>
    <polyline points="762.1555,294.8474 760.9055,293.5974 760.9055,293.5974 759.0305,292.9724 759.0305,292.9724 756.5305,292.9724 756.5305,292.9724 754.6555,293.5974 754.6555,293.5974 753.4055,294.8474 753.4055,294.8474 753.4055,296.0974 753.4055,296.0974 754.0305,297.3474 754.0305,297.3474 754.6555,297.9724 754.6555,297.9724 755.9055,298.5974 755.9055,298.5974 759.6555,299.8474 759.6555,299.8474 760.9055,300.4724 760.9055,300.4724 761.5305,301.0974 761.5305,301.0974 762.1555,302.3474 762.1555,302.3474 762.1555,304.2224 762.1555,304.2224 760.9055,305.4724 760.9055,305.4724 759.0305,306.0974 759.0305,306.0974 756.5305,306.0974 756.5305,306.0974 754.6555,305.4724 754.6555,305.4724 753.4055,304.2224"/>
    <polyline points="195.8514,330.7677 195.8514,343.8927 195.8514,343.8927 187.1014,330.7677 187.1014,330.7677 187.1014,343.8927"/>
    <polyline points="422.623,330.7677 422.623,343.8927 422.623,343.8927 413.873,330.7677 413.873,330.7677 413.873,343.8927"/>
    <polyline points="686.565,332.6427 685.315,331.3927 685.315,331.3927 683.44,330.7677 683.44,330.7677 680.94,330.7677 680.94,330.7677 679.065,331.3927 679.065,331.3927 677.815,332.6427 677.815,332.6427 677.815,333.8927 677.815,333.8927 678.44,335.1427 678.44,335.1427 679.065,335.7677 679.065,335.7677 680.315,336.3927 680.315,336.3927 684.065,337.6427 684.065,337.6427 685.315,338.2677 685.315,338.2677 685.94,338.8927 685.94,338.8927 686.565,340.1427 686.565,340.1427 686.565,342.0177 686.565,342.0177 685.315,343.2677 685.315,343.2677 683.44,343.8927 683.44,343.8927 680.94,343.8927 680.94,343.8927 679.065,343.2677 679.065,343.2677 677.815,342.0177"/>
  </g>
</svg>
