<?xml version="1.0" encoding="utf-8" ?>
<svg xmlns="http://www.w3.org/2000/svg" xmlns:cc="http://creativecommons.org/ns" xmlns:dc="http://purl.org/dc/elements/1.1/" xmlns:ev="http://www.w3.org/2001/xml-events" xmlns:inkscape="http://www.inkscape.org/namespaces/inkscape" xmlns:rdf="http://www.w3.org/1999/02/22-rdf-syntax-ns" xmlns:sodipodi="http://sodipodi.sourceforge.net/DTD/sodipodi-0.dtd" xmlns:xlink="http://www.w3.org/1999/xlink" baseProfile="tiny" height="9.9cm" version="1.2" viewBox="0 0 793.7007874015749 374.1732283464567" width="21.0cm">
  <metadata>
    <rdf:RDF>
      <cc:Work>
        <dc:format>image/svg+xml</dc:format>
        <dc:source>vpype eval 'cell=10;width=210;height=99' eval 'nCols=20;nRows=9' eval 'cells=[0,1,2,3,4,9,10,11,12,13,14,15,16,17,21,25,31,34,40,41,42,43,44,45,46,47,49,50,51,52,54,58,61,65,68,71,73,74,75,76,77,78,79,81,85,87,88,89,90,91,92,94,96,98,100,101,102,103,104,105,106,108,111,114,116,118,121,125,128,131,134,136,138,139,144,145,146,147,148,149,150,151,152,154,156,158,165,171,174,176]' eval 'chars=[&quot;H&quot;,&quot;O&quot;,&quot;O&quot;,&quot;F&quot;,&quot;D&quot;,&quot;R&quot;,&quot;E&quot;,&quot;K&quot;,&quot;K&quot;,&quot;E&quot;,&quot;R&quot;,&quot;T&quot;,&quot;J&quot;,&quot;E&quot;,&quot;O&quot;,&quot;B&quot;,&quot;L&quot;,&quot;E&quot;,&quot;F&quot;,&quot;R&quot;,&quot;E&quot;,&quot;D&quot;,&quot;E&quot;,&quot;R&quot;,&quot;I&quot;,&quot;C&quot;,&quot;G&quot;,&quot;R&quot;,&quot;A&quot;,&quot;S&quot;,&quot;G&quot;,&quot;C&quot;,&quot;T&quot;,&quot;O&quot;,&quot;K&quot;,&quot;V&quot;,&quot;R&quot;,&quot;E&quot;,&quot;S&quot;,&quot;T&quot;,&quot;J&quot;,&quot;E&quot;,&quot;S&quot;,&quot;J&quot;,&quot;E&quot;,&quot;L&quot;,&quot;A&quot;,&quot;D&quot;,&quot;D&quot;,&quot;E&quot;,&quot;R&quot;,&quot;N&quot;,&quot;E&quot;,&quot;N&quot;,&quot;V&quot;,&quot;E&quot;,&quot;L&quot;,&quot;L&quot;,&quot;E&quot;,&quot;K&quot;,&quot;E&quot;,&quot;S&quot;,&quot;R&quot;,&quot;B&quot;,&quot;R&quot;,&quot;T&quot;,&quot;S&quot;,&quot;Z&quot;,&quot;S&quot;,&quot;T&quot;,&quot;O&quot;,&quot;R&quot;,&quot;J&quot;,&quot;A&quot;,&quot;M&quot;,&quot;A&quot;,&quot;N&quot;,&quot;D&quot;,&quot;A&quot;,&quot;R&quot;,&quot;I&quot;,&quot;J&quot;,&quot;N&quot;,&quot;O&quot;,&quot;A&quot;,&quot;E&quot;,&quot;K&quot;,&quot;E&quot;,&quot;G&quot;,&quot;S&quot;]' eval 'numbers=[0,1,9,11,14,25,40,49,58,68,73,76,87,100,138,144]' eval counter=1 eval charIndex=0 begin grid -o '%cell*mm%' '%cell*mm%' %nCols% %nRows% eval '%isCell=_i in cells%' eval '%number=_i in numbers%' eval '%size=10 if isCell else 0%' rect 0 0 '%size*mm%' '%size*mm%' text -s 10 -p 0.5mm 1.5mm '%counter if number else '&quot;'&quot;''&quot;'&quot;'%' text -s 20 -p 5mm 5mm -a center '%chars[charIndex] if isCell else '&quot;'&quot;''&quot;'&quot;'%' eval '%if number: counter+=1 %' eval '%if isCell: charIndex+=1 %' end splitall deduplicate linemerge --tolerance 0.1mm write -m none --page-size '%width*mm%x%height*mm%' --center ./svgs/solution/df3299.svg
</dc:source>
        <dc:date>2024-01-06T16:44:06.752922</dc:date>
      </cc:Work>
    </rdf:RDF>
  </metadata>
  <defs/>
  <g fill="none" id="layer1" inkscape:groupmode="layer" inkscape:label="1" stroke="#000000" style="display:inline">
    <polygon points="18.8976,17.0079 18.8976,54.8031 18.8976,54.8031 56.6929,54.8031 56.6929,54.8031 94.4882,54.8031 94.4882,54.8031 132.2835,54.8031 132.2835,54.8031 132.2835,17.0079 132.2835,17.0079 94.4882,17.0079 94.4882,17.0079 56.6929,17.0079 56.6929,17.0079"/>
    <polyline points="94.4882,17.0079 94.4882,54.8031 94.4882,54.8031 94.4882,92.5984 94.4882,92.5984 56.6929,92.5984 56.6929,92.5984 56.6929,54.8031 56.6929,54.8031 56.6929,17.0079"/>
    <polyline points="22.6624,20.1772 23.2874,19.8647 23.2874,19.8647 24.2249,18.9272 24.2249,18.9272 24.2249,25.4897"/>
    <line x1="35.9203" x2="35.9203" y1="28.4055" y2="41.5305"/>
    <line x1="44.6703" x2="44.6703" y1="28.4055" y2="41.5305"/>
    <line x1="35.9203" x2="44.6703" y1="34.6555" y2="34.6555"/>
    <polyline points="59.8327,20.4897 59.8327,20.1772 59.8327,20.1772 60.1452,19.5522 60.1452,19.5522 60.4577,19.2397 60.4577,19.2397 61.0827,18.9272 61.0827,18.9272 62.3327,18.9272 62.3327,18.9272 62.9577,19.2397 62.9577,19.2397 63.2702,19.5522 63.2702,19.5522 63.5827,20.1772 63.5827,20.1772 63.5827,20.8022 63.5827,20.8022 63.2702,21.4272 63.2702,21.4272 62.6452,22.3647 62.6452,22.3647 59.5202,25.4897 59.5202,25.4897 63.8952,25.4897"/>
    <polygon points="76.2156,28.4055 74.9656,29.0305 74.9656,29.0305 73.7156,30.2805 73.7156,30.2805 73.0906,31.5305 73.0906,31.5305 72.4656,33.4055 72.4656,33.4055 72.4656,36.5305 72.4656,36.5305 73.0906,38.4055 73.0906,38.4055 73.7156,39.6555 73.7156,39.6555 74.9656,40.9055 74.9656,40.9055 76.2156,41.5305 76.2156,41.5305 78.7156,41.5305 78.7156,41.5305 79.9656,40.9055 79.9656,40.9055 81.2156,39.6555 81.2156,39.6555 81.8406,38.4055 81.8406,38.4055 82.4656,36.5305 82.4656,36.5305 82.4656,33.4055 82.4656,33.4055 81.8406,31.5305 81.8406,31.5305 81.2156,30.2805 81.2156,30.2805 79.9656,29.0305 79.9656,29.0305 78.7156,28.4055 78.7156,28.4055"/>
    <polygon points="114.0108,28.4055 112.7608,29.0305 112.7608,29.0305 111.5108,30.2805 111.5108,30.2805 110.8858,31.5305 110.8858,31.5305 110.2608,33.4055 110.2608,33.4055 110.2608,36.5305 110.2608,36.5305 110.8858,38.4055 110.8858,38.4055 111.5108,39.6555 111.5108,39.6555 112.7608,40.9055 112.7608,40.9055 114.0108,41.5305 114.0108,41.5305 116.5108,41.5305 116.5108,41.5305 117.7608,40.9055 117.7608,40.9055 119.0108,39.6555 119.0108,39.6555 119.6358,38.4055 119.6358,38.4055 120.2608,36.5305 120.2608,36.5305 120.2608,33.4055 120.2608,33.4055 119.6358,31.5305 119.6358,31.5305 119.0108,30.2805 119.0108,30.2805 117.7608,29.0305 117.7608,29.0305 116.5108,28.4055 116.5108,28.4055"/>
    <polyline points="132.2835,54.8031 170.0787,54.8031 170.0787,54.8031 207.874,54.8031 207.874,54.8031 207.874,92.5984 207.874,92.5984 170.0787,92.5984 170.0787,92.5984 132.2835,92.5984 132.2835,92.5984 94.4882,92.5984 94.4882,92.5984 94.4882,130.3937 94.4882,130.3937 132.2835,130.3937 132.2835,130.3937 132.2835,92.5984"/>
    <polyline points="170.0787,54.8031 170.0787,17.0079 170.0787,17.0079 132.2835,17.0079"/>
    <polyline points="157.7436,28.4055 149.6186,28.4055 149.6186,28.4055 149.6186,41.5305"/>
    <line x1="149.6186" x2="154.6186" y1="34.6555" y2="34.6555"/>
    <polyline points="283.4646,130.3937 245.6693,130.3937 245.6693,130.3937 245.6693,168.189 245.6693,168.189 245.6693,205.9843 245.6693,205.9843 283.4646,205.9843 283.4646,205.9843 283.4646,168.189 283.4646,168.189 321.2598,168.189 321.2598,168.189 321.2598,130.3937 321.2598,130.3937 283.4646,130.3937 283.4646,130.3937 283.4646,92.5984 283.4646,92.5984 245.6693,92.5984 245.6693,92.5984 245.6693,130.3937 245.6693,130.3937 207.874,130.3937 207.874,130.3937 207.874,92.5984 207.874,92.5984 245.6693,92.5984 245.6693,92.5984 245.6693,54.8031 245.6693,54.8031 207.874,54.8031 207.874,54.8031 207.874,17.0079 207.874,17.0079 170.0787,17.0079"/>
    <polygon points="187.1014,28.4055 187.1014,41.5305 187.1014,41.5305 191.4764,41.5305 191.4764,41.5305 193.3514,40.9055 193.3514,40.9055 194.6014,39.6555 194.6014,39.6555 195.2264,38.4055 195.2264,38.4055 195.8514,36.5305 195.8514,36.5305 195.8514,33.4055 195.8514,33.4055 195.2264,31.5305 195.2264,31.5305 194.6014,30.2805 194.6014,30.2805 193.3514,29.0305 193.3514,29.0305 191.4764,28.4055 191.4764,28.4055"/>
    <polygon points="359.0551,17.0079 359.0551,54.8031 359.0551,54.8031 396.8504,54.8031 396.8504,54.8031 396.8504,17.0079 396.8504,17.0079"/>
    <polyline points="362.5074,18.9272 365.9449,18.9272 365.9449,18.9272 364.0699,21.4272 364.0699,21.4272 365.0074,21.4272 365.0074,21.4272 365.6324,21.7397 365.6324,21.7397 365.9449,22.0522 365.9449,22.0522 366.2574,22.9897 366.2574,22.9897 366.2574,23.6147 366.2574,23.6147 365.9449,24.5522 365.9449,24.5522 365.3199,25.1772 365.3199,25.1772 364.3824,25.4897 364.3824,25.4897 363.4449,25.4897 363.4449,25.4897 362.5074,25.1772 362.5074,25.1772 362.1949,24.8647 362.1949,24.8647 361.8824,24.2397"/>
    <polyline points="376.0778,34.6555 381.7028,34.6555 381.7028,34.6555 383.5778,34.0305 383.5778,34.0305 384.2028,33.4055 384.2028,33.4055 384.8278,32.1555 384.8278,32.1555 384.8278,30.9055 384.8278,30.9055 384.2028,29.6555 384.2028,29.6555 383.5778,29.0305 383.5778,29.0305 381.7028,28.4055 381.7028,28.4055 376.0778,28.4055 376.0778,28.4055 376.0778,41.5305"/>
    <line x1="380.4528" x2="384.8278" y1="34.6555" y2="41.5305"/>
    <polyline points="396.8504,54.8031 434.6457,54.8031 434.6457,54.8031 434.6457,17.0079 434.6457,17.0079 396.8504,17.0079"/>
    <polyline points="422.3105,28.4055 414.1855,28.4055 414.1855,28.4055 414.1855,41.5305 414.1855,41.5305 422.3105,41.5305"/>
    <line x1="414.1855" x2="419.1855" y1="34.6555" y2="34.6555"/>
    <polyline points="472.4409,17.0079 510.2362,17.0079 510.2362,17.0079 548.0315,17.0079 548.0315,17.0079 585.8268,17.0079 585.8268,17.0079 585.8268,54.8031 585.8268,54.8031 585.8268,92.5984 585.8268,92.5984 585.8268,130.3937 585.8268,130.3937 548.0315,130.3937 548.0315,130.3937 548.0315,92.5984 548.0315,92.5984 548.0315,54.8031 548.0315,54.8031 510.2362,54.8031 510.2362,54.8031 472.4409,54.8031 472.4409,54.8031 472.4409,92.5984 472.4409,92.5984 434.6457,92.5984 434.6457,92.5984 434.6457,54.8031 434.6457,54.8031 472.4409,54.8031 472.4409,54.8031 472.4409,17.0079 472.4409,17.0079 434.6457,17.0079"/>
    <polyline points="440.5979,25.4897 440.5979,18.9272 440.5979,18.9272 437.4729,23.3022 437.4729,23.3022 442.1604,23.3022"/>
    <line x1="451.6683" x2="451.6683" y1="28.4055" y2="41.5305"/>
    <line x1="460.4183" x2="451.6683" y1="28.4055" y2="37.1555"/>
    <line x1="454.7933" x2="460.4183" y1="34.0305" y2="41.5305"/>
    <line x1="510.2362" x2="510.2362" y1="54.8031" y2="17.0079"/>
    <line x1="489.4636" x2="489.4636" y1="28.4055" y2="41.5305"/>
    <line x1="498.2136" x2="489.4636" y1="28.4055" y2="37.1555"/>
    <line x1="492.5886" x2="498.2136" y1="34.0305" y2="41.5305"/>
    <polyline points="585.8268,17.0079 623.622,17.0079 623.622,17.0079 623.622,54.8031 623.622,54.8031 585.8268,54.8031 585.8268,54.8031 548.0315,54.8031 548.0315,54.8031 548.0315,17.0079"/>
    <polyline points="535.6964,28.4055 527.5714,28.4055 527.5714,28.4055 527.5714,41.5305 527.5714,41.5305 535.6964,41.5305"/>
    <line x1="527.5714" x2="532.5714" y1="34.6555" y2="34.6555"/>
    <polyline points="554.6088,18.9272 551.4838,18.9272 551.4838,18.9272 551.1713,21.7397 551.1713,21.7397 551.4838,21.4272 551.4838,21.4272 552.4213,21.1147 552.4213,21.1147 553.3588,21.1147 553.3588,21.1147 554.2963,21.4272 554.2963,21.4272 554.9213,22.0522 554.9213,22.0522 555.2338,22.9897 555.2338,22.9897 555.2338,23.6147 555.2338,23.6147 554.9213,24.5522 554.9213,24.5522 554.2963,25.1772 554.2963,25.1772 553.3588,25.4897 553.3588,25.4897 552.4213,25.4897 552.4213,25.4897 551.4838,25.1772 551.4838,25.1772 551.1713,24.8647 551.1713,24.8647 550.8588,24.2397"/>
    <polyline points="565.0541,34.6555 570.6791,34.6555 570.6791,34.6555 572.5541,34.0305 572.5541,34.0305 573.1791,33.4055 573.1791,33.4055 573.8041,32.1555 573.8041,32.1555 573.8041,30.9055 573.8041,30.9055 573.1791,29.6555 573.1791,29.6555 572.5541,29.0305 572.5541,29.0305 570.6791,28.4055 570.6791,28.4055 565.0541,28.4055 565.0541,28.4055 565.0541,41.5305"/>
    <line x1="569.4291" x2="573.8041" y1="34.6555" y2="41.5305"/>
    <line x1="605.3494" x2="605.3494" y1="28.4055" y2="41.5305"/>
    <line x1="600.9744" x2="609.7244" y1="28.4055" y2="28.4055"/>
    <polyline points="623.622,54.8031 661.4173,54.8031 661.4173,54.8031 661.4173,17.0079 661.4173,17.0079 623.622,17.0079"/>
    <polyline points="646.8947,28.4055 646.8947,38.4055 646.8947,38.4055 646.2697,40.2805 646.2697,40.2805 645.6447,40.9055 645.6447,40.9055 644.3947,41.5305 644.3947,41.5305 643.1447,41.5305 643.1447,41.5305 641.8947,40.9055 641.8947,40.9055 641.2697,40.2805 641.2697,40.2805 640.6447,38.4055 640.6447,38.4055 640.6447,37.1555"/>
    <polyline points="661.4173,54.8031 699.2126,54.8031 699.2126,54.8031 699.2126,17.0079 699.2126,17.0079 661.4173,17.0079"/>
    <polyline points="686.8775,28.4055 678.7525,28.4055 678.7525,28.4055 678.7525,41.5305 678.7525,41.5305 686.8775,41.5305"/>
    <line x1="678.7525" x2="683.7525" y1="34.6555" y2="34.6555"/>
    <polygon points="76.2156,66.2008 74.9656,66.8258 74.9656,66.8258 73.7156,68.0758 73.7156,68.0758 73.0906,69.3258 73.0906,69.3258 72.4656,71.2008 72.4656,71.2008 72.4656,74.3258 72.4656,74.3258 73.0906,76.2008 73.0906,76.2008 73.7156,77.4508 73.7156,77.4508 74.9656,78.7008 74.9656,78.7008 76.2156,79.3258 76.2156,79.3258 78.7156,79.3258 78.7156,79.3258 79.9656,78.7008 79.9656,78.7008 81.2156,77.4508 81.2156,77.4508 81.8406,76.2008 81.8406,76.2008 82.4656,74.3258 82.4656,74.3258 82.4656,71.2008 82.4656,71.2008 81.8406,69.3258 81.8406,69.3258 81.2156,68.0758 81.2156,68.0758 79.9656,66.8258 79.9656,66.8258 78.7156,66.2008 78.7156,66.2008"/>
    <polyline points="214.7638,57.6599 214.4513,57.0349 214.4513,57.0349 213.5138,56.7224 213.5138,56.7224 212.8888,56.7224 212.8888,56.7224 211.9513,57.0349 211.9513,57.0349 211.3263,57.9724 211.3263,57.9724 211.0138,59.5349 211.0138,59.5349 211.0138,61.0974 211.0138,61.0974 211.3263,62.3474 211.3263,62.3474 211.9513,62.9724 211.9513,62.9724 212.8888,63.2849 212.8888,63.2849 213.2013,63.2849 213.2013,63.2849 214.1388,62.9724 214.1388,62.9724 214.7638,62.3474 214.7638,62.3474 215.0763,61.4099 215.0763,61.4099 215.0763,61.0974 215.0763,61.0974 214.7638,60.1599 214.7638,60.1599 214.1388,59.5349 214.1388,59.5349 213.2013,59.2224 213.2013,59.2224 212.8888,59.2224 212.8888,59.2224 211.9513,59.5349 211.9513,59.5349 211.3263,60.1599 211.3263,60.1599 211.0138,61.0974"/>
    <polygon points="224.8967,66.2008 224.8967,79.3258 224.8967,79.3258 230.5217,79.3258 230.5217,79.3258 232.3967,78.7008 232.3967,78.7008 233.0217,78.0758 233.0217,78.0758 233.6467,76.8258 233.6467,76.8258 233.6467,74.9508 233.6467,74.9508 233.0217,73.7008 233.0217,73.7008 232.3967,73.0758 232.3967,73.0758 230.5217,72.4508 230.5217,72.4508 232.3967,71.8258 232.3967,71.8258 233.0217,71.2008 233.0217,71.2008 233.6467,69.9508 233.6467,69.9508 233.6467,68.7008 233.6467,68.7008 233.0217,67.4508 233.0217,67.4508 232.3967,66.8258 232.3967,66.8258 230.5217,66.2008 230.5217,66.2008"/>
    <line x1="224.8967" x2="230.5217" y1="72.4508" y2="72.4508"/>
    <polyline points="452.2933,66.2008 452.2933,79.3258 452.2933,79.3258 459.7933,79.3258"/>
    <line x1="548.0315" x2="585.8268" y1="92.5984" y2="92.5984"/>
    <polyline points="573.4916,66.2008 565.3666,66.2008 565.3666,66.2008 565.3666,79.3258 565.3666,79.3258 573.4916,79.3258"/>
    <line x1="565.3666" x2="570.3666" y1="72.4508" y2="72.4508"/>
    <polyline points="56.6929,168.189 56.6929,130.3937 56.6929,130.3937 56.6929,92.5984 56.6929,92.5984 18.8976,92.5984 18.8976,92.5984 18.8976,130.3937 18.8976,130.3937 56.6929,130.3937 56.6929,130.3937 94.4882,130.3937 94.4882,130.3937 94.4882,168.189 94.4882,168.189 56.6929,168.189 56.6929,168.189 56.6929,205.9843 56.6929,205.9843 94.4882,205.9843 94.4882,205.9843 94.4882,168.189"/>
    <polyline points="21.7249,94.5177 26.0999,94.5177 26.0999,94.5177 22.9749,101.0802"/>
    <polyline points="44.3578,103.9961 36.2328,103.9961 36.2328,103.9961 36.2328,117.1211"/>
    <line x1="36.2328" x2="41.2328" y1="110.2461" y2="110.2461"/>
    <polyline points="73.7156,110.2461 79.3406,110.2461 79.3406,110.2461 81.2156,109.6211 81.2156,109.6211 81.8406,108.9961 81.8406,108.9961 82.4656,107.7461 82.4656,107.7461 82.4656,106.4961 82.4656,106.4961 81.8406,105.2461 81.8406,105.2461 81.2156,104.6211 81.2156,104.6211 79.3406,103.9961 79.3406,103.9961 73.7156,103.9961 73.7156,103.9961 73.7156,117.1211"/>
    <line x1="78.0906" x2="82.4656" y1="110.2461" y2="117.1211"/>
    <polyline points="119.9483,103.9961 111.8233,103.9961 111.8233,103.9961 111.8233,117.1211 111.8233,117.1211 119.9483,117.1211"/>
    <line x1="111.8233" x2="116.8233" y1="110.2461" y2="110.2461"/>
    <polyline points="132.2835,130.3937 170.0787,130.3937 170.0787,130.3937 170.0787,92.5984"/>
    <polygon points="149.3061,103.9961 149.3061,117.1211 149.3061,117.1211 153.6811,117.1211 153.6811,117.1211 155.5561,116.4961 155.5561,116.4961 156.8061,115.2461 156.8061,115.2461 157.4311,113.9961 157.4311,113.9961 158.0561,112.1211 158.0561,112.1211 158.0561,108.9961 158.0561,108.9961 157.4311,107.1211 157.4311,107.1211 156.8061,105.8711 156.8061,105.8711 155.5561,104.6211 155.5561,104.6211 153.6811,103.9961 153.6811,103.9961"/>
    <polyline points="170.0787,130.3937 207.874,130.3937 207.874,130.3937 207.874,168.189 207.874,168.189 245.6693,168.189"/>
    <polyline points="195.5389,103.9961 187.4139,103.9961 187.4139,103.9961 187.4139,117.1211 187.4139,117.1211 195.5389,117.1211"/>
    <line x1="187.4139" x2="192.4139" y1="110.2461" y2="110.2461"/>
    <polyline points="224.8967,110.2461 230.5217,110.2461 230.5217,110.2461 232.3967,109.6211 232.3967,109.6211 233.0217,108.9961 233.0217,108.9961 233.6467,107.7461 233.6467,107.7461 233.6467,106.4961 233.6467,106.4961 233.0217,105.2461 233.0217,105.2461 232.3967,104.6211 232.3967,104.6211 230.5217,103.9961 230.5217,103.9961 224.8967,103.9961 224.8967,103.9961 224.8967,117.1211"/>
    <line x1="229.2717" x2="233.6467" y1="110.2461" y2="117.1211"/>
    <line x1="267.0669" x2="267.0669" y1="103.9961" y2="117.1211"/>
    <polyline points="396.8504,168.189 434.6457,168.189 434.6457,168.189 434.6457,205.9843 434.6457,205.9843 396.8504,205.9843 396.8504,205.9843 396.8504,168.189 396.8504,168.189 359.0551,168.189 359.0551,168.189 359.0551,205.9843 359.0551,205.9843 321.2598,205.9843 321.2598,205.9843 321.2598,168.189 321.2598,168.189 359.0551,168.189 359.0551,168.189 359.0551,130.3937 359.0551,130.3937 359.0551,92.5984 359.0551,92.5984 396.8504,92.5984 396.8504,92.5984 434.6457,92.5984 434.6457,92.5984 434.6457,130.3937 434.6457,130.3937 396.8504,130.3937 396.8504,130.3937 359.0551,130.3937 359.0551,130.3937 321.2598,130.3937 321.2598,130.3937 321.2598,92.5984 321.2598,92.5984 283.4646,92.5984"/>
    <polyline points="308.9247,107.1211 308.2997,105.8711 308.2997,105.8711 307.0497,104.6211 307.0497,104.6211 305.7997,103.9961 305.7997,103.9961 303.2997,103.9961 303.2997,103.9961 302.0497,104.6211 302.0497,104.6211 300.7997,105.8711 300.7997,105.8711 300.1747,107.1211 300.1747,107.1211 299.5497,108.9961 299.5497,108.9961 299.5497,112.1211 299.5497,112.1211 300.1747,113.9961 300.1747,113.9961 300.7997,115.2461 300.7997,115.2461 302.0497,116.4961 302.0497,116.4961 303.2997,117.1211 303.2997,117.1211 305.7997,117.1211 305.7997,117.1211 307.0497,116.4961 307.0497,116.4961 308.2997,115.2461 308.2997,115.2461 308.9247,113.9961"/>
    <line x1="396.8504" x2="396.8504" y1="130.3937" y2="92.5984"/>
    <polygon points="363.4449,94.5177 362.5074,94.8302 362.5074,94.8302 362.1949,95.4552 362.1949,95.4552 362.1949,96.0802 362.1949,96.0802 362.5074,96.7052 362.5074,96.7052 363.1324,97.0177 363.1324,97.0177 364.3824,97.3302 364.3824,97.3302 365.3199,97.6427 365.3199,97.6427 365.9449,98.2677 365.9449,98.2677 366.2574,98.8927 366.2574,98.8927 366.2574,99.8302 366.2574,99.8302 365.9449,100.4552 365.9449,100.4552 365.6324,100.7677 365.6324,100.7677 364.6949,101.0802 364.6949,101.0802 363.4449,101.0802 363.4449,101.0802 362.5074,100.7677 362.5074,100.7677 362.1949,100.4552 362.1949,100.4552 361.8824,99.8302 361.8824,99.8302 361.8824,98.8927 361.8824,98.8927 362.1949,98.2677 362.1949,98.2677 362.8199,97.6427 362.8199,97.6427 363.7574,97.3302 363.7574,97.3302 365.0074,97.0177 365.0074,97.0177 365.6324,96.7052 365.6324,96.7052 365.9449,96.0802 365.9449,96.0802 365.9449,95.4552 365.9449,95.4552 365.6324,94.8302 365.6324,94.8302 364.6949,94.5177 364.6949,94.5177"/>
    <polyline points="384.5153,107.1211 383.8903,105.8711 383.8903,105.8711 382.6403,104.6211 382.6403,104.6211 381.3903,103.9961 381.3903,103.9961 378.8903,103.9961 378.8903,103.9961 377.6403,104.6211 377.6403,104.6211 376.3903,105.8711 376.3903,105.8711 375.7653,107.1211 375.7653,107.1211 375.1403,108.9961 375.1403,108.9961 375.1403,112.1211 375.1403,112.1211 375.7653,113.9961 375.7653,113.9961 376.3903,115.2461 376.3903,115.2461 377.6403,116.4961 377.6403,116.4961 378.8903,117.1211 378.8903,117.1211 381.3903,117.1211 381.3903,117.1211 382.6403,116.4961 382.6403,116.4961 383.8903,115.2461 383.8903,115.2461 384.5153,113.9961 384.5153,113.9961 384.5153,112.1211 384.5153,112.1211 381.3903,112.1211"/>
    <polyline points="413.873,110.2461 419.498,110.2461 419.498,110.2461 421.373,109.6211 421.373,109.6211 421.998,108.9961 421.998,108.9961 422.623,107.7461 422.623,107.7461 422.623,106.4961 422.623,106.4961 421.998,105.2461 421.998,105.2461 421.373,104.6211 421.373,104.6211 419.498,103.9961 419.498,103.9961 413.873,103.9961 413.873,103.9961 413.873,117.1211"/>
    <line x1="418.248" x2="422.623" y1="110.2461" y2="117.1211"/>
    <polyline points="661.4173,130.3937 699.2126,130.3937 699.2126,130.3937 699.2126,168.189 699.2126,168.189 661.4173,168.189 661.4173,168.189 661.4173,205.9843 661.4173,205.9843 623.622,205.9843 623.622,205.9843 623.622,168.189 623.622,168.189 585.8268,168.189 585.8268,168.189 548.0315,168.189 548.0315,168.189 510.2362,168.189 510.2362,168.189 510.2362,205.9843 510.2362,205.9843 472.4409,205.9843 472.4409,205.9843 472.4409,168.189 472.4409,168.189 434.6457,168.189 434.6457,168.189 434.6457,130.3937 434.6457,130.3937 472.4409,130.3937 472.4409,130.3937 510.2362,130.3937 510.2362,130.3937 510.2362,168.189 510.2362,168.189 472.4409,168.189 472.4409,168.189 472.4409,130.3937 472.4409,130.3937 472.4409,92.5984 472.4409,92.5984 510.2362,92.5984 510.2362,92.5984 510.2362,130.3937 510.2362,130.3937 548.0315,130.3937 548.0315,130.3937 548.0315,168.189 548.0315,168.189 548.0315,205.9843 548.0315,205.9843 585.8268,205.9843 585.8268,205.9843 585.8268,168.189 585.8268,168.189 585.8268,130.3937 585.8268,130.3937 623.622,130.3937 623.622,130.3937 623.622,168.189 623.622,168.189 661.4173,168.189 661.4173,168.189 661.4173,130.3937 661.4173,130.3937 623.622,130.3937"/>
    <polyline points="459.1683,117.1211 454.1683,103.9961 454.1683,103.9961 449.1683,117.1211"/>
    <line x1="451.0433" x2="457.2933" y1="112.7461" y2="112.7461"/>
    <polyline points="497.5886,105.8711 496.3386,104.6211 496.3386,104.6211 494.4636,103.9961 494.4636,103.9961 491.9636,103.9961 491.9636,103.9961 490.0886,104.6211 490.0886,104.6211 488.8386,105.8711 488.8386,105.8711 488.8386,107.1211 488.8386,107.1211 489.4636,108.3711 489.4636,108.3711 490.0886,108.9961 490.0886,108.9961 491.3386,109.6211 491.3386,109.6211 495.0886,110.8711 495.0886,110.8711 496.3386,111.4961 496.3386,111.4961 496.9636,112.1211 496.9636,112.1211 497.5886,113.3711 497.5886,113.3711 497.5886,115.2461 497.5886,115.2461 496.3386,116.4961 496.3386,116.4961 494.4636,117.1211 494.4636,117.1211 491.9636,117.1211 491.9636,117.1211 490.0886,116.4961 490.0886,116.4961 488.8386,115.2461"/>
    <polyline points="573.4916,107.1211 572.8666,105.8711 572.8666,105.8711 571.6166,104.6211 571.6166,104.6211 570.3666,103.9961 570.3666,103.9961 567.8666,103.9961 567.8666,103.9961 566.6166,104.6211 566.6166,104.6211 565.3666,105.8711 565.3666,105.8711 564.7416,107.1211 564.7416,107.1211 564.1166,108.9961 564.1166,108.9961 564.1166,112.1211 564.1166,112.1211 564.7416,113.9961 564.7416,113.9961 565.3666,115.2461 565.3666,115.2461 566.6166,116.4961 566.6166,116.4961 567.8666,117.1211 567.8666,117.1211 570.3666,117.1211 570.3666,117.1211 571.6166,116.4961 571.6166,116.4961 572.8666,115.2461 572.8666,115.2461 573.4916,113.9961 573.4916,113.9961 573.4916,112.1211 573.4916,112.1211 570.3666,112.1211"/>
    <polygon points="699.2126,92.5984 699.2126,130.3937 699.2126,130.3937 737.0079,130.3937 737.0079,130.3937 737.0079,92.5984 737.0079,92.5984"/>
    <polyline points="706.1024,96.7052 705.7899,97.6427 705.7899,97.6427 705.1649,98.2677 705.1649,98.2677 704.2274,98.5802 704.2274,98.5802 703.9149,98.5802 703.9149,98.5802 702.9774,98.2677 702.9774,98.2677 702.3524,97.6427 702.3524,97.6427 702.0399,96.7052 702.0399,96.7052 702.0399,96.3927 702.0399,96.3927 702.3524,95.4552 702.3524,95.4552 702.9774,94.8302 702.9774,94.8302 703.9149,94.5177 703.9149,94.5177 704.2274,94.5177 704.2274,94.5177 705.1649,94.8302 705.1649,94.8302 705.7899,95.4552 705.7899,95.4552 706.1024,96.7052 706.1024,96.7052 706.1024,98.2677 706.1024,98.2677 705.7899,99.8302 705.7899,99.8302 705.1649,100.7677 705.1649,100.7677 704.2274,101.0802 704.2274,101.0802 703.6024,101.0802 703.6024,101.0802 702.6649,100.7677 702.6649,100.7677 702.3524,100.1427"/>
    <polyline points="724.6727,107.1211 724.0477,105.8711 724.0477,105.8711 722.7977,104.6211 722.7977,104.6211 721.5477,103.9961 721.5477,103.9961 719.0477,103.9961 719.0477,103.9961 717.7977,104.6211 717.7977,104.6211 716.5477,105.8711 716.5477,105.8711 715.9227,107.1211 715.9227,107.1211 715.2977,108.9961 715.2977,108.9961 715.2977,112.1211 715.2977,112.1211 715.9227,113.9961 715.9227,113.9961 716.5477,115.2461 716.5477,115.2461 717.7977,116.4961 717.7977,116.4961 719.0477,117.1211 719.0477,117.1211 721.5477,117.1211 721.5477,117.1211 722.7977,116.4961 722.7977,116.4961 724.0477,115.2461 724.0477,115.2461 724.6727,113.9961"/>
    <line x1="76.2156" x2="76.2156" y1="141.7913" y2="154.9163"/>
    <line x1="71.8406" x2="80.5906" y1="141.7913" y2="141.7913"/>
    <polygon points="227.3967,141.7913 226.1467,142.4163 226.1467,142.4163 224.8967,143.6663 224.8967,143.6663 224.2717,144.9163 224.2717,144.9163 223.6467,146.7913 223.6467,146.7913 223.6467,149.9163 223.6467,149.9163 224.2717,151.7913 224.2717,151.7913 224.8967,153.0413 224.8967,153.0413 226.1467,154.2913 226.1467,154.2913 227.3967,154.9163 227.3967,154.9163 229.8967,154.9163 229.8967,154.9163 231.1467,154.2913 231.1467,154.2913 232.3967,153.0413 232.3967,153.0413 233.0217,151.7913 233.0217,151.7913 233.6467,149.9163 233.6467,149.9163 233.6467,146.7913 233.6467,146.7913 233.0217,144.9163 233.0217,144.9163 232.3967,143.6663 232.3967,143.6663 231.1467,142.4163 231.1467,142.4163 229.8967,141.7913 229.8967,141.7913"/>
    <polyline points="325.0246,133.563 325.6496,133.2505 325.6496,133.2505 326.5871,132.313 326.5871,132.313 326.5871,138.8755"/>
    <polygon points="332.2121,132.313 331.2746,132.6255 331.2746,132.6255 330.6496,133.563 330.6496,133.563 330.3371,135.1255 330.3371,135.1255 330.3371,136.063 330.3371,136.063 330.6496,137.6255 330.6496,137.6255 331.2746,138.563 331.2746,138.563 332.2121,138.8755 332.2121,138.8755 332.8371,138.8755 332.8371,138.8755 333.7746,138.563 333.7746,138.563 334.3996,137.6255 334.3996,137.6255 334.7121,136.063 334.7121,136.063 334.7121,135.1255 334.7121,135.1255 334.3996,133.563 334.3996,133.563 333.7746,132.6255 333.7746,132.6255 332.8371,132.313 332.8371,132.313"/>
    <line x1="338.2825" x2="338.2825" y1="141.7913" y2="154.9163"/>
    <line x1="347.0325" x2="338.2825" y1="141.7913" y2="150.5413"/>
    <line x1="341.4075" x2="347.0325" y1="147.4163" y2="154.9163"/>
    <polyline points="449.1683,141.7913 454.1683,154.9163 454.1683,154.9163 459.1683,141.7913"/>
    <polyline points="514.001,133.563 514.626,133.2505 514.626,133.2505 515.5635,132.313 515.5635,132.313 515.5635,138.8755"/>
    <polyline points="520.251,133.563 520.876,133.2505 520.876,133.2505 521.8135,132.313 521.8135,132.313 521.8135,138.8755"/>
    <polyline points="527.2589,148.0413 532.8839,148.0413 532.8839,148.0413 534.7589,147.4163 534.7589,147.4163 535.3839,146.7913 535.3839,146.7913 536.0089,145.5413 536.0089,145.5413 536.0089,144.2913 536.0089,144.2913 535.3839,143.0413 535.3839,143.0413 534.7589,142.4163 534.7589,142.4163 532.8839,141.7913 532.8839,141.7913 527.2589,141.7913 527.2589,141.7913 527.2589,154.9163"/>
    <line x1="531.6339" x2="536.0089" y1="148.0413" y2="154.9163"/>
    <polyline points="573.4916,141.7913 565.3666,141.7913 565.3666,141.7913 565.3666,154.9163 565.3666,154.9163 573.4916,154.9163"/>
    <line x1="565.3666" x2="570.3666" y1="148.0413" y2="148.0413"/>
    <polyline points="610.9744,143.6663 609.7244,142.4163 609.7244,142.4163 607.8494,141.7913 607.8494,141.7913 605.3494,141.7913 605.3494,141.7913 603.4744,142.4163 603.4744,142.4163 602.2244,143.6663 602.2244,143.6663 602.2244,144.9163 602.2244,144.9163 602.8494,146.1663 602.8494,146.1663 603.4744,146.7913 603.4744,146.7913 604.7244,147.4163 604.7244,147.4163 608.4744,148.6663 608.4744,148.6663 609.7244,149.2913 609.7244,149.2913 610.3494,149.9163 610.3494,149.9163 610.9744,151.1663 610.9744,151.1663 610.9744,153.0413 610.9744,153.0413 609.7244,154.2913 609.7244,154.2913 607.8494,154.9163 607.8494,154.9163 605.3494,154.9163 605.3494,154.9163 603.4744,154.2913 603.4744,154.2913 602.2244,153.0413"/>
    <polyline points="627.3868,133.563 628.0118,133.2505 628.0118,133.2505 628.9493,132.313 628.9493,132.313 628.9493,138.8755"/>
    <polyline points="633.0118,133.8755 633.0118,133.563 633.0118,133.563 633.3243,132.938 633.3243,132.938 633.6368,132.6255 633.6368,132.6255 634.2618,132.313 634.2618,132.313 635.5118,132.313 635.5118,132.313 636.1368,132.6255 636.1368,132.6255 636.4493,132.938 636.4493,132.938 636.7618,133.563 636.7618,133.563 636.7618,134.188 636.7618,134.188 636.4493,134.813 636.4493,134.813 635.8243,135.7505 635.8243,135.7505 632.6993,138.8755 632.6993,138.8755 637.0743,138.8755"/>
    <line x1="643.1447" x2="643.1447" y1="141.7913" y2="154.9163"/>
    <line x1="638.7697" x2="647.5197" y1="141.7913" y2="141.7913"/>
    <polyline points="684.69,141.7913 684.69,151.7913 684.69,151.7913 684.065,153.6663 684.065,153.6663 683.44,154.2913 683.44,154.2913 682.19,154.9163 682.19,154.9163 680.94,154.9163 680.94,154.9163 679.69,154.2913 679.69,154.2913 679.065,153.6663 679.065,153.6663 678.44,151.7913 678.44,151.7913 678.44,150.5413"/>
    <polyline points="699.2126,205.9843 699.2126,168.189 699.2126,168.189 737.0079,168.189 737.0079,168.189 774.8031,168.189 774.8031,168.189 774.8031,130.3937 774.8031,130.3937 737.0079,130.3937 737.0079,130.3937 737.0079,168.189 737.0079,168.189 737.0079,205.9843 737.0079,205.9843 699.2126,205.9843 699.2126,205.9843 699.2126,243.7795 699.2126,243.7795 737.0079,243.7795 737.0079,243.7795 737.0079,205.9843"/>
    <polyline points="724.6727,141.7913 716.5477,141.7913 716.5477,141.7913 716.5477,154.9163 716.5477,154.9163 724.6727,154.9163"/>
    <line x1="716.5477" x2="721.5477" y1="148.0413" y2="148.0413"/>
    <polyline points="762.1555,143.6663 760.9055,142.4163 760.9055,142.4163 759.0305,141.7913 759.0305,141.7913 756.5305,141.7913 756.5305,141.7913 754.6555,142.4163 754.6555,142.4163 753.4055,143.6663 753.4055,143.6663 753.4055,144.9163 753.4055,144.9163 754.0305,146.1663 754.0305,146.1663 754.6555,146.7913 754.6555,146.7913 755.9055,147.4163 755.9055,147.4163 759.6555,148.6663 759.6555,148.6663 760.9055,149.2913 760.9055,149.2913 761.5305,149.9163 761.5305,149.9163 762.1555,151.1663 762.1555,151.1663 762.1555,153.0413 762.1555,153.0413 760.9055,154.2913 760.9055,154.2913 759.0305,154.9163 759.0305,154.9163 756.5305,154.9163 756.5305,154.9163 754.6555,154.2913 754.6555,154.2913 753.4055,153.0413"/>
    <polyline points="79.9656,179.5866 79.9656,189.5866 79.9656,189.5866 79.3406,191.4616 79.3406,191.4616 78.7156,192.0866 78.7156,192.0866 77.4656,192.7116 77.4656,192.7116 76.2156,192.7116 76.2156,192.7116 74.9656,192.0866 74.9656,192.0866 74.3406,191.4616 74.3406,191.4616 73.7156,189.5866 73.7156,189.5866 73.7156,188.3366"/>
    <polyline points="207.874,168.189 207.874,205.9843 207.874,205.9843 170.0787,205.9843 170.0787,205.9843 132.2835,205.9843 132.2835,205.9843 94.4882,205.9843 94.4882,205.9843 94.4882,243.7795 94.4882,243.7795 132.2835,243.7795 132.2835,243.7795 132.2835,205.9843"/>
    <polygon points="207.874,205.9843 245.6693,205.9843 245.6693,205.9843 245.6693,243.7795 245.6693,243.7795 207.874,243.7795 207.874,243.7795"/>
    <polyline points="233.3342,179.5866 225.2092,179.5866 225.2092,179.5866 225.2092,192.7116 225.2092,192.7116 233.3342,192.7116"/>
    <line x1="225.2092" x2="230.2092" y1="185.8366" y2="185.8366"/>
    <polyline points="359.0551,243.7795 359.0551,281.5748 359.0551,281.5748 321.2598,281.5748 321.2598,281.5748 283.4646,281.5748 283.4646,281.5748 245.6693,281.5748 245.6693,281.5748 245.6693,319.3701 245.6693,319.3701 245.6693,357.1654 245.6693,357.1654 207.874,357.1654 207.874,357.1654 207.874,319.3701 207.874,319.3701 170.0787,319.3701 170.0787,319.3701 170.0787,281.5748 170.0787,281.5748 207.874,281.5748 207.874,281.5748 245.6693,281.5748 245.6693,281.5748 245.6693,243.7795 245.6693,243.7795 283.4646,243.7795 283.4646,243.7795 283.4646,205.9843 283.4646,205.9843 321.2598,205.9843 321.2598,205.9843 321.2598,243.7795 321.2598,243.7795 359.0551,243.7795 359.0551,243.7795 359.0551,205.9843 359.0551,205.9843 396.8504,205.9843"/>
    <polyline points="287.2293,171.3583 287.8543,171.0458 287.8543,171.0458 288.7918,170.1083 288.7918,170.1083 288.7918,176.6708"/>
    <polyline points="293.1668,170.1083 296.6043,170.1083 296.6043,170.1083 294.7293,172.6083 294.7293,172.6083 295.6668,172.6083 295.6668,172.6083 296.2918,172.9208 296.2918,172.9208 296.6043,173.2333 296.6043,173.2333 296.9168,174.1708 296.9168,174.1708 296.9168,174.7958 296.9168,174.7958 296.6043,175.7333 296.6043,175.7333 295.9793,176.3583 295.9793,176.3583 295.0418,176.6708 295.0418,176.6708 294.1043,176.6708 294.1043,176.6708 293.1668,176.3583 293.1668,176.3583 292.8543,176.0458 292.8543,176.0458 292.5418,175.4208"/>
    <polyline points="301.1122,179.5866 301.1122,192.7116 301.1122,192.7116 308.6122,192.7116"/>
    <polyline points="345.7825,192.7116 340.7825,179.5866 340.7825,179.5866 335.7825,192.7116"/>
    <line x1="337.6575" x2="343.9075" y1="188.3366" y2="188.3366"/>
    <polygon points="376.0778,179.5866 376.0778,192.7116 376.0778,192.7116 380.4528,192.7116 380.4528,192.7116 382.3278,192.0866 382.3278,192.0866 383.5778,190.8366 383.5778,190.8366 384.2028,189.5866 384.2028,189.5866 384.8278,187.7116 384.8278,187.7116 384.8278,184.5866 384.8278,184.5866 384.2028,182.7116 384.2028,182.7116 383.5778,181.4616 383.5778,181.4616 382.3278,180.2116 382.3278,180.2116 380.4528,179.5866 380.4528,179.5866"/>
    <polygon points="413.873,179.5866 413.873,192.7116 413.873,192.7116 418.248,192.7116 418.248,192.7116 420.123,192.0866 420.123,192.0866 421.373,190.8366 421.373,190.8366 421.998,189.5866 421.998,189.5866 422.623,187.7116 422.623,187.7116 422.623,184.5866 422.623,184.5866 421.998,182.7116 421.998,182.7116 421.373,181.4616 421.373,181.4616 420.123,180.2116 420.123,180.2116 418.248,179.5866 418.248,179.5866"/>
    <polygon points="434.6457,205.9843 472.4409,205.9843 472.4409,205.9843 472.4409,243.7795 472.4409,243.7795 434.6457,243.7795 434.6457,243.7795"/>
    <polyline points="460.1058,179.5866 451.9808,179.5866 451.9808,179.5866 451.9808,192.7116 451.9808,192.7116 460.1058,192.7116"/>
    <line x1="451.9808" x2="456.9808" y1="185.8366" y2="185.8366"/>
    <polyline points="489.4636,185.8366 495.0886,185.8366 495.0886,185.8366 496.9636,185.2116 496.9636,185.2116 497.5886,184.5866 497.5886,184.5866 498.2136,183.3366 498.2136,183.3366 498.2136,182.0866 498.2136,182.0866 497.5886,180.8366 497.5886,180.8366 496.9636,180.2116 496.9636,180.2116 495.0886,179.5866 495.0886,179.5866 489.4636,179.5866 489.4636,179.5866 489.4636,192.7116"/>
    <line x1="493.8386" x2="498.2136" y1="185.8366" y2="192.7116"/>
    <polyline points="573.8041,179.5866 573.8041,192.7116 573.8041,192.7116 565.0541,179.5866 565.0541,179.5866 565.0541,192.7116"/>
    <polyline points="649.0822,179.5866 640.9572,179.5866 640.9572,179.5866 640.9572,192.7116 640.9572,192.7116 649.0822,192.7116"/>
    <line x1="640.9572" x2="645.9572" y1="185.8366" y2="185.8366"/>
    <polyline points="724.9852,179.5866 724.9852,192.7116 724.9852,192.7116 716.2352,179.5866 716.2352,179.5866 716.2352,192.7116"/>
    <polygon points="18.8976,205.9843 18.8976,243.7795 18.8976,243.7795 56.6929,243.7795 56.6929,243.7795 56.6929,205.9843 56.6929,205.9843"/>
    <polyline points="22.6624,209.1535 23.2874,208.841 23.2874,208.841 24.2249,207.9035 24.2249,207.9035 24.2249,214.466"/>
    <polyline points="31.0999,214.466 31.0999,207.9035 31.0999,207.9035 27.9749,212.2785 27.9749,212.2785 32.6624,212.2785"/>
    <polyline points="33.4203,217.3819 38.4203,230.5069 38.4203,230.5069 43.4203,217.3819"/>
    <polyline points="56.6929,243.7795 94.4882,243.7795 94.4882,243.7795 94.4882,281.5748 94.4882,281.5748 56.6929,281.5748 56.6929,281.5748 56.6929,243.7795"/>
    <polyline points="82.1531,217.3819 74.0281,217.3819 74.0281,217.3819 74.0281,230.5069 74.0281,230.5069 82.1531,230.5069"/>
    <line x1="74.0281" x2="79.0281" y1="223.6319" y2="223.6319"/>
    <polyline points="112.1358,217.3819 112.1358,230.5069 112.1358,230.5069 119.6358,230.5069"/>
    <polyline points="132.2835,243.7795 170.0787,243.7795 170.0787,243.7795 170.0787,205.9843"/>
    <polyline points="149.9311,217.3819 149.9311,230.5069 149.9311,230.5069 157.4311,230.5069"/>
    <polyline points="170.0787,243.7795 207.874,243.7795 207.874,243.7795 207.874,281.5748 207.874,281.5748 207.874,319.3701 207.874,319.3701 245.6693,319.3701 245.6693,319.3701 283.4646,319.3701 283.4646,319.3701 321.2598,319.3701 321.2598,319.3701 359.0551,319.3701 359.0551,319.3701 359.0551,281.5748 359.0551,281.5748 396.8504,281.5748 396.8504,281.5748 396.8504,319.3701 396.8504,319.3701 434.6457,319.3701 434.6457,319.3701 434.6457,281.5748 434.6457,281.5748 396.8504,281.5748"/>
    <polyline points="195.5389,217.3819 187.4139,217.3819 187.4139,217.3819 187.4139,230.5069 187.4139,230.5069 195.5389,230.5069"/>
    <line x1="187.4139" x2="192.4139" y1="223.6319" y2="223.6319"/>
    <line x1="224.8967" x2="224.8967" y1="217.3819" y2="230.5069"/>
    <line x1="233.6467" x2="224.8967" y1="217.3819" y2="226.1319"/>
    <line x1="228.0217" x2="233.6467" y1="223.0069" y2="230.5069"/>
    <polyline points="271.1294,217.3819 263.0044,217.3819 263.0044,217.3819 263.0044,230.5069 263.0044,230.5069 271.1294,230.5069"/>
    <line x1="263.0044" x2="268.0044" y1="223.6319" y2="223.6319"/>
    <polyline points="346.4075,219.2569 345.1575,218.0069 345.1575,218.0069 343.2825,217.3819 343.2825,217.3819 340.7825,217.3819 340.7825,217.3819 338.9075,218.0069 338.9075,218.0069 337.6575,219.2569 337.6575,219.2569 337.6575,220.5069 337.6575,220.5069 338.2825,221.7569 338.2825,221.7569 338.9075,222.3819 338.9075,222.3819 340.1575,223.0069 340.1575,223.0069 343.9075,224.2569 343.9075,224.2569 345.1575,224.8819 345.1575,224.8819 345.7825,225.5069 345.7825,225.5069 346.4075,226.7569 346.4075,226.7569 346.4075,228.6319 346.4075,228.6319 345.1575,229.8819 345.1575,229.8819 343.2825,230.5069 343.2825,230.5069 340.7825,230.5069 340.7825,230.5069 338.9075,229.8819 338.9075,229.8819 337.6575,228.6319"/>
    <polyline points="451.6683,223.6319 457.2933,223.6319 457.2933,223.6319 459.1683,223.0069 459.1683,223.0069 459.7933,222.3819 459.7933,222.3819 460.4183,221.1319 460.4183,221.1319 460.4183,219.8819 460.4183,219.8819 459.7933,218.6319 459.7933,218.6319 459.1683,218.0069 459.1683,218.0069 457.2933,217.3819 457.2933,217.3819 451.6683,217.3819 451.6683,217.3819 451.6683,230.5069"/>
    <line x1="456.0433" x2="460.4183" y1="223.6319" y2="230.5069"/>
    <polyline points="548.0315,205.9843 548.0315,243.7795 548.0315,243.7795 585.8268,243.7795 585.8268,243.7795 585.8268,205.9843"/>
    <polyline points="570.6791,223.6319 572.5541,223.0069 572.5541,223.0069 573.1791,222.3819 573.1791,222.3819 573.8041,221.1319 573.8041,221.1319 573.8041,219.8819 573.8041,219.8819 573.1791,218.6319 573.1791,218.6319 572.5541,218.0069 572.5541,218.0069 570.6791,217.3819 570.6791,217.3819 565.0541,217.3819 565.0541,217.3819 565.0541,230.5069 565.0541,230.5069 570.6791,230.5069 570.6791,230.5069 572.5541,229.8819 572.5541,229.8819 573.1791,229.2569 573.1791,229.2569 573.8041,228.0069 573.8041,228.0069 573.8041,226.1319 573.8041,226.1319 573.1791,224.8819 573.1791,224.8819 572.5541,224.2569 572.5541,224.2569 570.6791,223.6319 570.6791,223.6319 565.0541,223.6319"/>
    <polyline points="623.622,205.9843 623.622,243.7795 623.622,243.7795 661.4173,243.7795 661.4173,243.7795 661.4173,205.9843"/>
    <polyline points="640.6447,223.6319 646.2697,223.6319 646.2697,223.6319 648.1447,223.0069 648.1447,223.0069 648.7697,222.3819 648.7697,222.3819 649.3947,221.1319 649.3947,221.1319 649.3947,219.8819 649.3947,219.8819 648.7697,218.6319 648.7697,218.6319 648.1447,218.0069 648.1447,218.0069 646.2697,217.3819 646.2697,217.3819 640.6447,217.3819 640.6447,217.3819 640.6447,230.5069"/>
    <line x1="645.0197" x2="649.3947" y1="223.6319" y2="230.5069"/>
    <line x1="718.7352" x2="718.7352" y1="217.3819" y2="230.5069"/>
    <line x1="714.3602" x2="723.1102" y1="217.3819" y2="217.3819"/>
    <polyline points="81.8406,257.0522 80.5906,255.8022 80.5906,255.8022 78.7156,255.1772 78.7156,255.1772 76.2156,255.1772 76.2156,255.1772 74.3406,255.8022 74.3406,255.8022 73.0906,257.0522 73.0906,257.0522 73.0906,258.3022 73.0906,258.3022 73.7156,259.5522 73.7156,259.5522 74.3406,260.1772 74.3406,260.1772 75.5906,260.8022 75.5906,260.8022 79.3406,262.0522 79.3406,262.0522 80.5906,262.6772 80.5906,262.6772 81.2156,263.3022 81.2156,263.3022 81.8406,264.5522 81.8406,264.5522 81.8406,266.4272 81.8406,266.4272 80.5906,267.6772 80.5906,267.6772 78.7156,268.3022 78.7156,268.3022 76.2156,268.3022 76.2156,268.3022 74.3406,267.6772 74.3406,267.6772 73.0906,266.4272"/>
    <polyline points="224.2717,255.1772 233.0217,255.1772 233.0217,255.1772 224.2717,268.3022 224.2717,268.3022 233.0217,268.3022"/>
    <polyline points="321.2598,243.7795 321.2598,281.5748 321.2598,281.5748 321.2598,319.3701"/>
    <polyline points="346.4075,257.0522 345.1575,255.8022 345.1575,255.8022 343.2825,255.1772 343.2825,255.1772 340.7825,255.1772 340.7825,255.1772 338.9075,255.8022 338.9075,255.8022 337.6575,257.0522 337.6575,257.0522 337.6575,258.3022 337.6575,258.3022 338.2825,259.5522 338.2825,259.5522 338.9075,260.1772 338.9075,260.1772 340.1575,260.8022 340.1575,260.8022 343.9075,262.0522 343.9075,262.0522 345.1575,262.6772 345.1575,262.6772 345.7825,263.3022 345.7825,263.3022 346.4075,264.5522 346.4075,264.5522 346.4075,266.4272 346.4075,266.4272 345.1575,267.6772 345.1575,267.6772 343.2825,268.3022 343.2825,268.3022 340.7825,268.3022 340.7825,268.3022 338.9075,267.6772 338.9075,267.6772 337.6575,266.4272"/>
    <polyline points="434.6457,243.7795 434.6457,281.5748 434.6457,281.5748 472.4409,281.5748 472.4409,281.5748 472.4409,243.7795"/>
    <line x1="454.1683" x2="454.1683" y1="255.1772" y2="268.3022"/>
    <line x1="449.7933" x2="458.5433" y1="255.1772" y2="255.1772"/>
    <polyline points="548.0315,243.7795 548.0315,281.5748 548.0315,281.5748 585.8268,281.5748 585.8268,281.5748 585.8268,243.7795"/>
    <polygon points="567.5541,255.1772 566.3041,255.8022 566.3041,255.8022 565.0541,257.0522 565.0541,257.0522 564.4291,258.3022 564.4291,258.3022 563.8041,260.1772 563.8041,260.1772 563.8041,263.3022 563.8041,263.3022 564.4291,265.1772 564.4291,265.1772 565.0541,266.4272 565.0541,266.4272 566.3041,267.6772 566.3041,267.6772 567.5541,268.3022 567.5541,268.3022 570.0541,268.3022 570.0541,268.3022 571.3041,267.6772 571.3041,267.6772 572.5541,266.4272 572.5541,266.4272 573.1791,265.1772 573.1791,265.1772 573.8041,263.3022 573.8041,263.3022 573.8041,260.1772 573.8041,260.1772 573.1791,258.3022 573.1791,258.3022 572.5541,257.0522 572.5541,257.0522 571.3041,255.8022 571.3041,255.8022 570.0541,255.1772 570.0541,255.1772"/>
    <polyline points="623.622,243.7795 623.622,281.5748 623.622,281.5748 623.622,319.3701 623.622,319.3701 661.4173,319.3701 661.4173,319.3701 661.4173,281.5748 661.4173,281.5748 661.4173,243.7795"/>
    <line x1="623.622" x2="661.4173" y1="281.5748" y2="281.5748"/>
    <polyline points="640.6447,261.4272 646.2697,261.4272 646.2697,261.4272 648.1447,260.8022 648.1447,260.8022 648.7697,260.1772 648.7697,260.1772 649.3947,258.9272 649.3947,258.9272 649.3947,257.6772 649.3947,257.6772 648.7697,256.4272 648.7697,256.4272 648.1447,255.8022 648.1447,255.8022 646.2697,255.1772 646.2697,255.1772 640.6447,255.1772 640.6447,255.1772 640.6447,268.3022"/>
    <line x1="645.0197" x2="649.3947" y1="261.4272" y2="268.3022"/>
    <polyline points="699.2126,243.7795 699.2126,281.5748 699.2126,281.5748 699.2126,319.3701 699.2126,319.3701 737.0079,319.3701 737.0079,319.3701 737.0079,281.5748 737.0079,281.5748 737.0079,243.7795 737.0079,243.7795 774.8031,243.7795 774.8031,243.7795 774.8031,281.5748 774.8031,281.5748 737.0079,281.5748 737.0079,281.5748 699.2126,281.5748"/>
    <polyline points="702.9774,246.9488 703.6024,246.6363 703.6024,246.6363 704.5399,245.6988 704.5399,245.6988 704.5399,252.2613"/>
    <polyline points="712.0399,245.6988 708.9149,245.6988 708.9149,245.6988 708.6024,248.5113 708.6024,248.5113 708.9149,248.1988 708.9149,248.1988 709.8524,247.8863 709.8524,247.8863 710.7899,247.8863 710.7899,247.8863 711.7274,248.1988 711.7274,248.1988 712.3524,248.8238 712.3524,248.8238 712.6649,249.7613 712.6649,249.7613 712.6649,250.3863 712.6649,250.3863 712.3524,251.3238 712.3524,251.3238 711.7274,251.9488 711.7274,251.9488 710.7899,252.2613 710.7899,252.2613 709.8524,252.2613 709.8524,252.2613 708.9149,251.9488 708.9149,251.9488 708.6024,251.6363 708.6024,251.6363 708.2899,251.0113"/>
    <polyline points="722.4852,255.1772 722.4852,265.1772 722.4852,265.1772 721.8602,267.0522 721.8602,267.0522 721.2352,267.6772 721.2352,267.6772 719.9852,268.3022 719.9852,268.3022 718.7352,268.3022 718.7352,268.3022 717.4852,267.6772 717.4852,267.6772 716.8602,267.0522 716.8602,267.0522 716.2352,265.1772 716.2352,265.1772 716.2352,263.9272"/>
    <polyline points="761.5305,268.3022 756.5305,255.1772 756.5305,255.1772 751.5305,268.3022"/>
    <line x1="753.4055" x2="759.6555" y1="263.9272" y2="263.9272"/>
    <polyline points="173.8435,284.7441 174.4685,284.4316 174.4685,284.4316 175.406,283.4941 175.406,283.4941 175.406,290.0566"/>
    <polyline points="183.2185,284.4316 182.906,283.8066 182.906,283.8066 181.9685,283.4941 181.9685,283.4941 181.3435,283.4941 181.3435,283.4941 180.406,283.8066 180.406,283.8066 179.781,284.7441 179.781,284.7441 179.4685,286.3066 179.4685,286.3066 179.4685,287.8691 179.4685,287.8691 179.781,289.1191 179.781,289.1191 180.406,289.7441 180.406,289.7441 181.3435,290.0566 181.3435,290.0566 181.656,290.0566 181.656,290.0566 182.5935,289.7441 182.5935,289.7441 183.2185,289.1191 183.2185,289.1191 183.531,288.1816 183.531,288.1816 183.531,287.8691 183.531,287.8691 183.2185,286.9316 183.2185,286.9316 182.5935,286.3066 182.5935,286.3066 181.656,285.9941 181.656,285.9941 181.3435,285.9941 181.3435,285.9941 180.406,286.3066 180.406,286.3066 179.781,286.9316 179.781,286.9316 179.4685,287.8691"/>
    <polyline points="196.4764,306.0974 196.4764,292.9724 196.4764,292.9724 191.4764,306.0974 191.4764,306.0974 186.4764,292.9724 186.4764,292.9724 186.4764,306.0974"/>
    <polyline points="232.3967,306.0974 227.3967,292.9724 227.3967,292.9724 222.3967,306.0974"/>
    <line x1="224.2717" x2="230.5217" y1="301.7224" y2="301.7224"/>
    <line x1="283.4646" x2="283.4646" y1="319.3701" y2="281.5748"/>
    <polyline points="271.4419,292.9724 271.4419,306.0974 271.4419,306.0974 262.6919,292.9724 262.6919,292.9724 262.6919,306.0974"/>
    <polygon points="300.4872,292.9724 300.4872,306.0974 300.4872,306.0974 304.8622,306.0974 304.8622,306.0974 306.7372,305.4724 306.7372,305.4724 307.9872,304.2224 307.9872,304.2224 308.6122,302.9724 308.6122,302.9724 309.2372,301.0974 309.2372,301.0974 309.2372,297.9724 309.2372,297.9724 308.6122,296.0974 308.6122,296.0974 307.9872,294.8474 307.9872,294.8474 306.7372,293.5974 306.7372,293.5974 304.8622,292.9724 304.8622,292.9724"/>
    <polyline points="345.7825,306.0974 340.7825,292.9724 340.7825,292.9724 335.7825,306.0974"/>
    <line x1="337.6575" x2="343.9075" y1="301.7224" y2="301.7224"/>
    <line x1="359.0551" x2="396.8504" y1="319.3701" y2="319.3701"/>
    <polyline points="376.0778,299.2224 381.7028,299.2224 381.7028,299.2224 383.5778,298.5974 383.5778,298.5974 384.2028,297.9724 384.2028,297.9724 384.8278,296.7224 384.8278,296.7224 384.8278,295.4724 384.8278,295.4724 384.2028,294.2224 384.2028,294.2224 383.5778,293.5974 383.5778,293.5974 381.7028,292.9724 381.7028,292.9724 376.0778,292.9724 376.0778,292.9724 376.0778,306.0974"/>
    <line x1="380.4528" x2="384.8278" y1="299.2224" y2="306.0974"/>
    <line x1="418.248" x2="418.248" y1="292.9724" y2="306.0974"/>
    <polygon points="434.6457,319.3701 472.4409,319.3701 472.4409,319.3701 510.2362,319.3701 510.2362,319.3701 510.2362,281.5748 510.2362,281.5748 472.4409,281.5748 472.4409,281.5748 472.4409,319.3701 472.4409,319.3701 472.4409,357.1654 472.4409,357.1654 434.6457,357.1654 434.6457,357.1654"/>
    <polyline points="457.9183,292.9724 457.9183,302.9724 457.9183,302.9724 457.2933,304.8474 457.2933,304.8474 456.6683,305.4724 456.6683,305.4724 455.4183,306.0974 455.4183,306.0974 454.1683,306.0974 454.1683,306.0974 452.9183,305.4724 452.9183,305.4724 452.2933,304.8474 452.2933,304.8474 451.6683,302.9724 451.6683,302.9724 451.6683,301.7224"/>
    <polyline points="498.2136,292.9724 498.2136,306.0974 498.2136,306.0974 489.4636,292.9724 489.4636,292.9724 489.4636,306.0974"/>
    <polyline points="548.0315,281.5748 548.0315,319.3701 548.0315,319.3701 548.0315,357.1654 548.0315,357.1654 585.8268,357.1654 585.8268,357.1654 585.8268,319.3701 585.8268,319.3701 585.8268,281.5748"/>
    <line x1="548.0315" x2="585.8268" y1="319.3701" y2="319.3701"/>
    <polygon points="567.5541,292.9724 566.3041,293.5974 566.3041,293.5974 565.0541,294.8474 565.0541,294.8474 564.4291,296.0974 564.4291,296.0974 563.8041,297.9724 563.8041,297.9724 563.8041,301.0974 563.8041,301.0974 564.4291,302.9724 564.4291,302.9724 565.0541,304.2224 565.0541,304.2224 566.3041,305.4724 566.3041,305.4724 567.5541,306.0974 567.5541,306.0974 570.0541,306.0974 570.0541,306.0974 571.3041,305.4724 571.3041,305.4724 572.5541,304.2224 572.5541,304.2224 573.1791,302.9724 573.1791,302.9724 573.8041,301.0974 573.8041,301.0974 573.8041,297.9724 573.8041,297.9724 573.1791,296.0974 573.1791,296.0974 572.5541,294.8474 572.5541,294.8474 571.3041,293.5974 571.3041,293.5974 570.0541,292.9724 570.0541,292.9724"/>
    <polyline points="648.1447,306.0974 643.1447,292.9724 643.1447,292.9724 638.1447,306.0974"/>
    <line x1="640.0197" x2="646.2697" y1="301.7224" y2="301.7224"/>
    <polyline points="724.6727,292.9724 716.5477,292.9724 716.5477,292.9724 716.5477,306.0974 716.5477,306.0974 724.6727,306.0974"/>
    <line x1="716.5477" x2="721.5477" y1="299.2224" y2="299.2224"/>
    <line x1="224.8967" x2="224.8967" y1="330.7677" y2="343.8927"/>
    <line x1="233.6467" x2="224.8967" y1="330.7677" y2="339.5177"/>
    <line x1="228.0217" x2="233.6467" y1="336.3927" y2="343.8927"/>
    <polyline points="460.1058,330.7677 451.9808,330.7677 451.9808,330.7677 451.9808,343.8927 451.9808,343.8927 460.1058,343.8927"/>
    <line x1="451.9808" x2="456.9808" y1="337.0177" y2="337.0177"/>
    <polyline points="573.4916,333.8927 572.8666,332.6427 572.8666,332.6427 571.6166,331.3927 571.6166,331.3927 570.3666,330.7677 570.3666,330.7677 567.8666,330.7677 567.8666,330.7677 566.6166,331.3927 566.6166,331.3927 565.3666,332.6427 565.3666,332.6427 564.7416,333.8927 564.7416,333.8927 564.1166,335.7677 564.1166,335.7677 564.1166,338.8927 564.1166,338.8927 564.7416,340.7677 564.7416,340.7677 565.3666,342.0177 565.3666,342.0177 566.6166,343.2677 566.6166,343.2677 567.8666,343.8927 567.8666,343.8927 570.3666,343.8927 570.3666,343.8927 571.6166,343.2677 571.6166,343.2677 572.8666,342.0177 572.8666,342.0177 573.4916,340.7677 573.4916,340.7677 573.4916,338.8927 573.4916,338.8927 570.3666,338.8927"/>
    <polyline points="623.622,319.3701 623.622,357.1654 623.622,357.1654 661.4173,357.1654 661.4173,357.1654 661.4173,319.3701"/>
    <polyline points="648.7697,332.6427 647.5197,331.3927 647.5197,331.3927 645.6447,330.7677 645.6447,330.7677 643.1447,330.7677 643.1447,330.7677 641.2697,331.3927 641.2697,331.3927 640.0197,332.6427 640.0197,332.6427 640.0197,333.8927 640.0197,333.8927 640.6447,335.1427 640.6447,335.1427 641.2697,335.7677 641.2697,335.7677 642.5197,336.3927 642.5197,336.3927 646.2697,337.6427 646.2697,337.6427 647.5197,338.2677 647.5197,338.2677 648.1447,338.8927 648.1447,338.8927 648.7697,340.1427 648.7697,340.1427 648.7697,342.0177 648.7697,342.0177 647.5197,343.2677 647.5197,343.2677 645.6447,343.8927 645.6447,343.8927 643.1447,343.8927 643.1447,343.8927 641.2697,343.2677 641.2697,343.2677 640.0197,342.0177"/>
  </g>
</svg>
