<?xml version="1.0" encoding="utf-8" ?>
<svg xmlns="http://www.w3.org/2000/svg" xmlns:cc="http://creativecommons.org/ns" xmlns:dc="http://purl.org/dc/elements/1.1/" xmlns:ev="http://www.w3.org/2001/xml-events" xmlns:inkscape="http://www.inkscape.org/namespaces/inkscape" xmlns:rdf="http://www.w3.org/1999/02/22-rdf-syntax-ns" xmlns:sodipodi="http://sodipodi.sourceforge.net/DTD/sodipodi-0.dtd" xmlns:xlink="http://www.w3.org/1999/xlink" baseProfile="tiny" height="9.9cm" version="1.2" viewBox="0 0 793.7007874015749 374.1732283464567" width="21.0cm">
  <metadata>
    <rdf:RDF>
      <cc:Work>
        <dc:format>image/svg+xml</dc:format>
        <dc:source>vpype eval 'cell=10;width=210;height=99' eval 'nCols=20;nRows=9' eval 'cells=[3,5,10,11,12,13,14,15,16,17,21,22,23,24,25,26,28,31,41,43,45,47,48,49,50,51,52,53,54,55,61,63,65,71,74,81,85,88,89,90,91,92,94,96,100,101,102,103,104,105,106,108,111,113,114,115,116,118,121,125,128,131,134,136,138,141,144,145,146,147,148,149,150,151,152,156,157,158,159,165,168,171]' eval 'chars=[&quot;P&quot;,&quot;U&quot;,&quot;S&quot;,&quot;K&quot;,&quot;E&quot;,&quot;L&quot;,&quot;L&quot;,&quot;E&quot;,&quot;K&quot;,&quot;E&quot;,&quot;P&quot;,&quot;H&quot;,&quot;I&quot;,&quot;L&quot;,&quot;I&quot;,&quot;P&quot;,&quot;J&quot;,&quot;L&quot;,&quot;I&quot;,&quot;P&quot;,&quot;T&quot;,&quot;M&quot;,&quot;A&quot;,&quot;N&quot;,&quot;D&quot;,&quot;A&quot;,&quot;R&quot;,&quot;I&quot;,&quot;J&quot;,&quot;N&quot;,&quot;N&quot;,&quot;I&quot;,&quot;L&quot;,&quot;V&quot;,&quot;U&quot;,&quot;K&quot;,&quot;I&quot;,&quot;G&quot;,&quot;R&quot;,&quot;I&quot;,&quot;E&quot;,&quot;T&quot;,&quot;L&quot;,&quot;S&quot;,&quot;V&quot;,&quot;E&quot;,&quot;L&quot;,&quot;L&quot;,&quot;E&quot;,&quot;K&quot;,&quot;E&quot;,&quot;R&quot;,&quot;R&quot;,&quot;L&quot;,&quot;I&quot;,&quot;F&quot;,&quot;T&quot;,&quot;Z&quot;,&quot;R&quot;,&quot;K&quot;,&quot;O&quot;,&quot;T&quot;,&quot;A&quot;,&quot;A&quot;,&quot;O&quot;,&quot;S&quot;,&quot;R&quot;,&quot;E&quot;,&quot;K&quot;,&quot;K&quot;,&quot;E&quot;,&quot;R&quot;,&quot;T&quot;,&quot;J&quot;,&quot;E&quot;,&quot;F&quot;,&quot;O&quot;,&quot;N&quot;,&quot;S&quot;,&quot;N&quot;,&quot;N&quot;,&quot;E&quot;]' eval 'numbers=[3,5,10,11,21,28,47,54,88,96,100,113,118,144,156]' eval counter=1 eval charIndex=0 begin grid -o '%cell*mm%' '%cell*mm%' %nCols% %nRows% eval '%isCell=_i in cells%' eval '%number=_i in numbers%' eval '%size=10 if isCell else 0%' rect 0 0 '%size*mm%' '%size*mm%' text -s 10 -p 0.5mm 1.5mm '%counter if number else '&quot;'&quot;''&quot;'&quot;'%' text -s 20 -p 5mm 5mm -a center '%chars[charIndex] if isCell else '&quot;'&quot;''&quot;'&quot;'%' eval '%if number: counter+=1 %' eval '%if isCell: charIndex+=1 %' end splitall deduplicate linemerge --tolerance 0.1mm write -m none --page-size '%width*mm%x%height*mm%' --center ./svgs/solution/e864eb.svg
</dc:source>
        <dc:date>2023-12-23T22:30:04.678657</dc:date>
      </cc:Work>
    </rdf:RDF>
  </metadata>
  <defs/>
  <g fill="none" id="layer1" inkscape:groupmode="layer" inkscape:label="1" stroke="#000000" style="display:inline">
    <polygon points="132.2835,17.0079 132.2835,54.8031 132.2835,54.8031 94.4882,54.8031 94.4882,54.8031 56.6929,54.8031 56.6929,54.8031 56.6929,92.5984 56.6929,92.5984 94.4882,92.5984 94.4882,92.5984 132.2835,92.5984 132.2835,92.5984 170.0787,92.5984 170.0787,92.5984 170.0787,54.8031 170.0787,54.8031 170.0787,17.0079 170.0787,17.0079"/>
    <polyline points="321.2598,130.3937 321.2598,92.5984 321.2598,92.5984 283.4646,92.5984 283.4646,92.5984 245.6693,92.5984 245.6693,92.5984 207.874,92.5984 207.874,92.5984 170.0787,92.5984 170.0787,92.5984 170.0787,130.3937 170.0787,130.3937 170.0787,168.189 170.0787,168.189 132.2835,168.189 132.2835,168.189 132.2835,130.3937 132.2835,130.3937 132.2835,92.5984 132.2835,92.5984 132.2835,54.8031 132.2835,54.8031 170.0787,54.8031 170.0787,54.8031 207.874,54.8031 207.874,54.8031 245.6693,54.8031 245.6693,54.8031 245.6693,17.0079 245.6693,17.0079 207.874,17.0079 207.874,17.0079 207.874,54.8031 207.874,54.8031 207.874,92.5984 207.874,92.5984 207.874,130.3937 207.874,130.3937 207.874,168.189 207.874,168.189 245.6693,168.189 245.6693,168.189 245.6693,130.3937 245.6693,130.3937 245.6693,92.5984 245.6693,92.5984 245.6693,54.8031 245.6693,54.8031 283.4646,54.8031 283.4646,54.8031 283.4646,92.5984 283.4646,92.5984 283.4646,130.3937 283.4646,130.3937 321.2598,130.3937 321.2598,130.3937 359.0551,130.3937 359.0551,130.3937 396.8504,130.3937 396.8504,130.3937 396.8504,92.5984 396.8504,92.5984 359.0551,92.5984 359.0551,92.5984 359.0551,54.8031 359.0551,54.8031 321.2598,54.8031 321.2598,54.8031 321.2598,92.5984 321.2598,92.5984 359.0551,92.5984 359.0551,92.5984 359.0551,130.3937"/>
    <polyline points="136.0482,20.1772 136.6732,19.8647 136.6732,19.8647 137.6107,18.9272 137.6107,18.9272 137.6107,25.4897"/>
    <polyline points="149.3061,35.2805 154.9311,35.2805 154.9311,35.2805 156.8061,34.6555 156.8061,34.6555 157.4311,34.0305 157.4311,34.0305 158.0561,32.7805 158.0561,32.7805 158.0561,30.9055 158.0561,30.9055 157.4311,29.6555 157.4311,29.6555 156.8061,29.0305 156.8061,29.0305 154.9311,28.4055 154.9311,28.4055 149.3061,28.4055 149.3061,28.4055 149.3061,41.5305"/>
    <polyline points="211.0138,20.4897 211.0138,20.1772 211.0138,20.1772 211.3263,19.5522 211.3263,19.5522 211.6388,19.2397 211.6388,19.2397 212.2638,18.9272 212.2638,18.9272 213.5138,18.9272 213.5138,18.9272 214.1388,19.2397 214.1388,19.2397 214.4513,19.5522 214.4513,19.5522 214.7638,20.1772 214.7638,20.1772 214.7638,20.8022 214.7638,20.8022 214.4513,21.4272 214.4513,21.4272 213.8263,22.3647 213.8263,22.3647 210.7013,25.4897 210.7013,25.4897 215.0763,25.4897"/>
    <polyline points="224.8967,28.4055 224.8967,37.7805 224.8967,37.7805 225.5217,39.6555 225.5217,39.6555 226.7717,40.9055 226.7717,40.9055 228.6467,41.5305 228.6467,41.5305 229.8967,41.5305 229.8967,41.5305 231.7717,40.9055 231.7717,40.9055 233.0217,39.6555 233.0217,39.6555 233.6467,37.7805 233.6467,37.7805 233.6467,28.4055"/>
    <polygon points="396.8504,17.0079 396.8504,54.8031 396.8504,54.8031 434.6457,54.8031 434.6457,54.8031 434.6457,17.0079 434.6457,17.0079"/>
    <polyline points="400.3027,18.9272 403.7402,18.9272 403.7402,18.9272 401.8652,21.4272 401.8652,21.4272 402.8027,21.4272 402.8027,21.4272 403.4277,21.7397 403.4277,21.7397 403.7402,22.0522 403.7402,22.0522 404.0527,22.9897 404.0527,22.9897 404.0527,23.6147 404.0527,23.6147 403.7402,24.5522 403.7402,24.5522 403.1152,25.1772 403.1152,25.1772 402.1777,25.4897 402.1777,25.4897 401.2402,25.4897 401.2402,25.4897 400.3027,25.1772 400.3027,25.1772 399.9902,24.8647 399.9902,24.8647 399.6777,24.2397"/>
    <polyline points="421.998,30.2805 420.748,29.0305 420.748,29.0305 418.873,28.4055 418.873,28.4055 416.373,28.4055 416.373,28.4055 414.498,29.0305 414.498,29.0305 413.248,30.2805 413.248,30.2805 413.248,31.5305 413.248,31.5305 413.873,32.7805 413.873,32.7805 414.498,33.4055 414.498,33.4055 415.748,34.0305 415.748,34.0305 419.498,35.2805 419.498,35.2805 420.748,35.9055 420.748,35.9055 421.373,36.5305 421.373,36.5305 421.998,37.7805 421.998,37.7805 421.998,39.6555 421.998,39.6555 420.748,40.9055 420.748,40.9055 418.873,41.5305 418.873,41.5305 416.373,41.5305 416.373,41.5305 414.498,40.9055 414.498,40.9055 413.248,39.6555"/>
    <polyline points="472.4409,17.0079 472.4409,54.8031 472.4409,54.8031 472.4409,92.5984 472.4409,92.5984 434.6457,92.5984 434.6457,92.5984 434.6457,54.8031 434.6457,54.8031 472.4409,54.8031 472.4409,54.8031 510.2362,54.8031 510.2362,54.8031 548.0315,54.8031 548.0315,54.8031 585.8268,54.8031 585.8268,54.8031 585.8268,17.0079 585.8268,17.0079 548.0315,17.0079 548.0315,17.0079 510.2362,17.0079 510.2362,17.0079 472.4409,17.0079 472.4409,17.0079 434.6457,17.0079"/>
    <polyline points="440.5979,25.4897 440.5979,18.9272 440.5979,18.9272 437.4729,23.3022 437.4729,23.3022 442.1604,23.3022"/>
    <line x1="451.6683" x2="451.6683" y1="28.4055" y2="41.5305"/>
    <line x1="460.4183" x2="451.6683" y1="28.4055" y2="37.1555"/>
    <line x1="454.7933" x2="460.4183" y1="34.0305" y2="41.5305"/>
    <line x1="510.2362" x2="510.2362" y1="54.8031" y2="17.0079"/>
    <polyline points="497.9011,28.4055 489.7761,28.4055 489.7761,28.4055 489.7761,41.5305 489.7761,41.5305 497.9011,41.5305"/>
    <line x1="489.7761" x2="494.7761" y1="34.6555" y2="34.6555"/>
    <line x1="548.0315" x2="548.0315" y1="54.8031" y2="17.0079"/>
    <polyline points="527.8839,28.4055 527.8839,41.5305 527.8839,41.5305 535.3839,41.5305"/>
    <polyline points="565.6791,28.4055 565.6791,41.5305 565.6791,41.5305 573.1791,41.5305"/>
    <polyline points="585.8268,54.8031 623.622,54.8031 623.622,54.8031 623.622,17.0079 623.622,17.0079 585.8268,17.0079"/>
    <polyline points="611.2869,28.4055 603.1619,28.4055 603.1619,28.4055 603.1619,41.5305 603.1619,41.5305 611.2869,41.5305"/>
    <line x1="603.1619" x2="608.1619" y1="34.6555" y2="34.6555"/>
    <polyline points="623.622,54.8031 661.4173,54.8031 661.4173,54.8031 699.2126,54.8031 699.2126,54.8031 699.2126,17.0079 699.2126,17.0079 661.4173,17.0079 661.4173,17.0079 623.622,17.0079"/>
    <line x1="661.4173" x2="661.4173" y1="54.8031" y2="17.0079"/>
    <line x1="640.6447" x2="640.6447" y1="28.4055" y2="41.5305"/>
    <line x1="649.3947" x2="640.6447" y1="28.4055" y2="37.1555"/>
    <line x1="643.7697" x2="649.3947" y1="34.0305" y2="41.5305"/>
    <polyline points="686.8775,28.4055 678.7525,28.4055 678.7525,28.4055 678.7525,41.5305 678.7525,41.5305 686.8775,41.5305"/>
    <line x1="678.7525" x2="683.7525" y1="34.6555" y2="34.6555"/>
    <polyline points="94.4882,130.3937 94.4882,168.189 94.4882,168.189 56.6929,168.189 56.6929,168.189 56.6929,130.3937 56.6929,130.3937 94.4882,130.3937 94.4882,130.3937 94.4882,92.5984 94.4882,92.5984 94.4882,54.8031"/>
    <polyline points="63.2702,56.7224 60.1452,56.7224 60.1452,56.7224 59.8327,59.5349 59.8327,59.5349 60.1452,59.2224 60.1452,59.2224 61.0827,58.9099 61.0827,58.9099 62.0202,58.9099 62.0202,58.9099 62.9577,59.2224 62.9577,59.2224 63.5827,59.8474 63.5827,59.8474 63.8952,60.7849 63.8952,60.7849 63.8952,61.4099 63.8952,61.4099 63.5827,62.3474 63.5827,62.3474 62.9577,62.9724 62.9577,62.9724 62.0202,63.2849 62.0202,63.2849 61.0827,63.2849 61.0827,63.2849 60.1452,62.9724 60.1452,62.9724 59.8327,62.6599 59.8327,62.6599 59.5202,62.0349"/>
    <polyline points="73.7156,73.0758 79.3406,73.0758 79.3406,73.0758 81.2156,72.4508 81.2156,72.4508 81.8406,71.8258 81.8406,71.8258 82.4656,70.5758 82.4656,70.5758 82.4656,68.7008 82.4656,68.7008 81.8406,67.4508 81.8406,67.4508 81.2156,66.8258 81.2156,66.8258 79.3406,66.2008 79.3406,66.2008 73.7156,66.2008 73.7156,66.2008 73.7156,79.3258"/>
    <line x1="111.5108" x2="111.5108" y1="66.2008" y2="79.3258"/>
    <line x1="120.2608" x2="120.2608" y1="66.2008" y2="79.3258"/>
    <line x1="111.5108" x2="120.2608" y1="72.4508" y2="72.4508"/>
    <line x1="153.6811" x2="153.6811" y1="66.2008" y2="79.3258"/>
    <polyline points="187.7264,66.2008 187.7264,79.3258 187.7264,79.3258 195.2264,79.3258"/>
    <line x1="229.2717" x2="229.2717" y1="66.2008" y2="79.3258"/>
    <polyline points="262.6919,73.0758 268.3169,73.0758 268.3169,73.0758 270.1919,72.4508 270.1919,72.4508 270.8169,71.8258 270.8169,71.8258 271.4419,70.5758 271.4419,70.5758 271.4419,68.7008 271.4419,68.7008 270.8169,67.4508 270.8169,67.4508 270.1919,66.8258 270.1919,66.8258 268.3169,66.2008 268.3169,66.2008 262.6919,66.2008 262.6919,66.2008 262.6919,79.3258"/>
    <polyline points="328.1496,57.6599 327.8371,57.0349 327.8371,57.0349 326.8996,56.7224 326.8996,56.7224 326.2746,56.7224 326.2746,56.7224 325.3371,57.0349 325.3371,57.0349 324.7121,57.9724 324.7121,57.9724 324.3996,59.5349 324.3996,59.5349 324.3996,61.0974 324.3996,61.0974 324.7121,62.3474 324.7121,62.3474 325.3371,62.9724 325.3371,62.9724 326.2746,63.2849 326.2746,63.2849 326.5871,63.2849 326.5871,63.2849 327.5246,62.9724 327.5246,62.9724 328.1496,62.3474 328.1496,62.3474 328.4621,61.4099 328.4621,61.4099 328.4621,61.0974 328.4621,61.0974 328.1496,60.1599 328.1496,60.1599 327.5246,59.5349 327.5246,59.5349 326.5871,59.2224 326.5871,59.2224 326.2746,59.2224 326.2746,59.2224 325.3371,59.5349 325.3371,59.5349 324.7121,60.1599 324.7121,60.1599 324.3996,61.0974"/>
    <polyline points="344.5325,66.2008 344.5325,76.2008 344.5325,76.2008 343.9075,78.0758 343.9075,78.0758 343.2825,78.7008 343.2825,78.7008 342.0325,79.3258 342.0325,79.3258 340.7825,79.3258 340.7825,79.3258 339.5325,78.7008 339.5325,78.7008 338.9075,78.0758 338.9075,78.0758 338.2825,76.2008 338.2825,76.2008 338.2825,74.9508"/>
    <polyline points="452.2933,66.2008 452.2933,79.3258 452.2933,79.3258 459.7933,79.3258"/>
    <line x1="56.6929" x2="56.6929" y1="92.5984" y2="130.3937"/>
    <line x1="78.0906" x2="78.0906" y1="103.9961" y2="117.1211"/>
    <line x1="132.2835" x2="170.0787" y1="130.3937" y2="130.3937"/>
    <polyline points="149.3061,110.8711 154.9311,110.8711 154.9311,110.8711 156.8061,110.2461 156.8061,110.2461 157.4311,109.6211 157.4311,109.6211 158.0561,108.3711 158.0561,108.3711 158.0561,106.4961 158.0561,106.4961 157.4311,105.2461 157.4311,105.2461 156.8061,104.6211 156.8061,104.6211 154.9311,103.9961 154.9311,103.9961 149.3061,103.9961 149.3061,103.9961 149.3061,117.1211"/>
    <line x1="207.874" x2="245.6693" y1="130.3937" y2="130.3937"/>
    <line x1="227.3967" x2="227.3967" y1="103.9961" y2="117.1211"/>
    <line x1="223.0217" x2="231.7717" y1="103.9961" y2="103.9961"/>
    <polyline points="286.2918,94.5177 290.6668,94.5177 290.6668,94.5177 287.5418,101.0802"/>
    <polyline points="309.8622,117.1211 309.8622,103.9961 309.8622,103.9961 304.8622,117.1211 304.8622,117.1211 299.8622,103.9961 299.8622,103.9961 299.8622,117.1211"/>
    <polyline points="345.7825,117.1211 340.7825,103.9961 340.7825,103.9961 335.7825,117.1211"/>
    <line x1="337.6575" x2="343.9075" y1="112.7461" y2="112.7461"/>
    <polyline points="384.8278,103.9961 384.8278,117.1211 384.8278,117.1211 376.0778,103.9961 376.0778,103.9961 376.0778,117.1211"/>
    <polyline points="396.8504,130.3937 434.6457,130.3937 434.6457,130.3937 434.6457,92.5984 434.6457,92.5984 396.8504,92.5984"/>
    <polygon points="413.873,103.9961 413.873,117.1211 413.873,117.1211 418.248,117.1211 418.248,117.1211 420.123,116.4961 420.123,116.4961 421.373,115.2461 421.373,115.2461 421.998,113.9961 421.998,113.9961 422.623,112.1211 422.623,112.1211 422.623,108.9961 422.623,108.9961 421.998,107.1211 421.998,107.1211 421.373,105.8711 421.373,105.8711 420.123,104.6211 420.123,104.6211 418.248,103.9961 418.248,103.9961"/>
    <polygon points="434.6457,130.3937 472.4409,130.3937 472.4409,130.3937 510.2362,130.3937 510.2362,130.3937 510.2362,92.5984 510.2362,92.5984 472.4409,92.5984 472.4409,92.5984 472.4409,130.3937 472.4409,130.3937 472.4409,168.189 472.4409,168.189 472.4409,205.9843 472.4409,205.9843 510.2362,205.9843 510.2362,205.9843 510.2362,168.189 510.2362,168.189 472.4409,168.189 472.4409,168.189 434.6457,168.189 434.6457,168.189"/>
    <polyline points="459.1683,117.1211 454.1683,103.9961 454.1683,103.9961 449.1683,117.1211"/>
    <line x1="451.0433" x2="457.2933" y1="112.7461" y2="112.7461"/>
    <polyline points="489.4636,110.2461 495.0886,110.2461 495.0886,110.2461 496.9636,109.6211 496.9636,109.6211 497.5886,108.9961 497.5886,108.9961 498.2136,107.7461 498.2136,107.7461 498.2136,106.4961 498.2136,106.4961 497.5886,105.2461 497.5886,105.2461 496.9636,104.6211 496.9636,104.6211 495.0886,103.9961 495.0886,103.9961 489.4636,103.9961 489.4636,103.9961 489.4636,117.1211"/>
    <line x1="493.8386" x2="498.2136" y1="110.2461" y2="117.1211"/>
    <polyline points="510.2362,130.3937 548.0315,130.3937 548.0315,130.3937 548.0315,168.189 548.0315,168.189 548.0315,205.9843 548.0315,205.9843 585.8268,205.9843 585.8268,205.9843 585.8268,168.189 585.8268,168.189 585.8268,130.3937 585.8268,130.3937 585.8268,92.5984 585.8268,92.5984 548.0315,92.5984 548.0315,92.5984 510.2362,92.5984"/>
    <polyline points="585.8268,92.5984 623.622,92.5984 623.622,92.5984 623.622,130.3937 623.622,130.3937 585.8268,130.3937 585.8268,130.3937 548.0315,130.3937 548.0315,130.3937 548.0315,92.5984"/>
    <line x1="531.6339" x2="531.6339" y1="103.9961" y2="117.1211"/>
    <polygon points="552.4213,94.5177 551.4838,94.8302 551.4838,94.8302 551.1713,95.4552 551.1713,95.4552 551.1713,96.0802 551.1713,96.0802 551.4838,96.7052 551.4838,96.7052 552.1088,97.0177 552.1088,97.0177 553.3588,97.3302 553.3588,97.3302 554.2963,97.6427 554.2963,97.6427 554.9213,98.2677 554.9213,98.2677 555.2338,98.8927 555.2338,98.8927 555.2338,99.8302 555.2338,99.8302 554.9213,100.4552 554.9213,100.4552 554.6088,100.7677 554.6088,100.7677 553.6713,101.0802 553.6713,101.0802 552.4213,101.0802 552.4213,101.0802 551.4838,100.7677 551.4838,100.7677 551.1713,100.4552 551.1713,100.4552 550.8588,99.8302 550.8588,99.8302 550.8588,98.8927 550.8588,98.8927 551.1713,98.2677 551.1713,98.2677 551.7963,97.6427 551.7963,97.6427 552.7338,97.3302 552.7338,97.3302 553.9838,97.0177 553.9838,97.0177 554.6088,96.7052 554.6088,96.7052 554.9213,96.0802 554.9213,96.0802 554.9213,95.4552 554.9213,95.4552 554.6088,94.8302 554.6088,94.8302 553.6713,94.5177 553.6713,94.5177"/>
    <polyline points="571.3041,103.9961 571.3041,113.9961 571.3041,113.9961 570.6791,115.8711 570.6791,115.8711 570.0541,116.4961 570.0541,116.4961 568.8041,117.1211 568.8041,117.1211 567.5541,117.1211 567.5541,117.1211 566.3041,116.4961 566.3041,116.4961 565.6791,115.8711 565.6791,115.8711 565.0541,113.9961 565.0541,113.9961 565.0541,112.7461"/>
    <polyline points="611.5994,103.9961 611.5994,117.1211 611.5994,117.1211 602.8494,103.9961 602.8494,103.9961 602.8494,117.1211"/>
    <polyline points="82.4656,141.7913 82.4656,154.9163 82.4656,154.9163 73.7156,141.7913 73.7156,141.7913 73.7156,154.9163"/>
    <line x1="153.6811" x2="153.6811" y1="141.7913" y2="154.9163"/>
    <polyline points="225.5217,141.7913 225.5217,154.9163 225.5217,154.9163 233.0217,154.9163"/>
    <polyline points="449.1683,141.7913 454.1683,154.9163 454.1683,154.9163 459.1683,141.7913"/>
    <line x1="548.0315" x2="585.8268" y1="168.189" y2="168.189"/>
    <polyline points="565.0541,141.7913 565.0541,151.1663 565.0541,151.1663 565.6791,153.0413 565.6791,153.0413 566.9291,154.2913 566.9291,154.2913 568.8041,154.9163 568.8041,154.9163 570.0541,154.9163 570.0541,154.9163 571.9291,154.2913 571.9291,154.2913 573.1791,153.0413 573.1791,153.0413 573.8041,151.1663 573.8041,151.1663 573.8041,141.7913"/>
    <polyline points="56.6929,168.189 56.6929,205.9843 56.6929,205.9843 94.4882,205.9843 94.4882,205.9843 94.4882,168.189"/>
    <line x1="73.7156" x2="73.7156" y1="179.5866" y2="192.7116"/>
    <line x1="82.4656" x2="73.7156" y1="179.5866" y2="188.3366"/>
    <line x1="76.8406" x2="82.4656" y1="185.2116" y2="192.7116"/>
    <polyline points="207.874,168.189 207.874,205.9843 207.874,205.9843 170.0787,205.9843 170.0787,205.9843 132.2835,205.9843 132.2835,205.9843 94.4882,205.9843 94.4882,205.9843 94.4882,243.7795 94.4882,243.7795 132.2835,243.7795 132.2835,243.7795 132.2835,205.9843"/>
    <polyline points="170.0787,205.9843 170.0787,243.7795 170.0787,243.7795 207.874,243.7795 207.874,243.7795 207.874,281.5748 207.874,281.5748 245.6693,281.5748 245.6693,281.5748 283.4646,281.5748 283.4646,281.5748 283.4646,319.3701 283.4646,319.3701 245.6693,319.3701 245.6693,319.3701 207.874,319.3701 207.874,319.3701 170.0787,319.3701 170.0787,319.3701 170.0787,281.5748 170.0787,281.5748 207.874,281.5748 207.874,281.5748 207.874,319.3701 207.874,319.3701 207.874,357.1654 207.874,357.1654 245.6693,357.1654 245.6693,357.1654 245.6693,319.3701 245.6693,319.3701 245.6693,281.5748 245.6693,281.5748 245.6693,243.7795 245.6693,243.7795 283.4646,243.7795 283.4646,243.7795 283.4646,205.9843 283.4646,205.9843 245.6693,205.9843 245.6693,205.9843 245.6693,243.7795 245.6693,243.7795 207.874,243.7795 207.874,243.7795 207.874,205.9843 207.874,205.9843 245.6693,205.9843 245.6693,205.9843 245.6693,168.189"/>
    <line x1="229.2717" x2="229.2717" y1="179.5866" y2="192.7116"/>
    <polygon points="321.2598,168.189 321.2598,205.9843 321.2598,205.9843 359.0551,205.9843 359.0551,205.9843 396.8504,205.9843 396.8504,205.9843 396.8504,168.189 396.8504,168.189 359.0551,168.189 359.0551,168.189"/>
    <polyline points="321.2598,205.9843 321.2598,243.7795 321.2598,243.7795 359.0551,243.7795 359.0551,243.7795 359.0551,205.9843 359.0551,205.9843 359.0551,168.189"/>
    <polyline points="328.1496,172.2958 327.8371,173.2333 327.8371,173.2333 327.2121,173.8583 327.2121,173.8583 326.2746,174.1708 326.2746,174.1708 325.9621,174.1708 325.9621,174.1708 325.0246,173.8583 325.0246,173.8583 324.3996,173.2333 324.3996,173.2333 324.0871,172.2958 324.0871,172.2958 324.0871,171.9833 324.0871,171.9833 324.3996,171.0458 324.3996,171.0458 325.0246,170.4208 325.0246,170.4208 325.9621,170.1083 325.9621,170.1083 326.2746,170.1083 326.2746,170.1083 327.2121,170.4208 327.2121,170.4208 327.8371,171.0458 327.8371,171.0458 328.1496,172.2958 328.1496,172.2958 328.1496,173.8583 328.1496,173.8583 327.8371,175.4208 327.8371,175.4208 327.2121,176.3583 327.2121,176.3583 326.2746,176.6708 326.2746,176.6708 325.6496,176.6708 325.6496,176.6708 324.7121,176.3583 324.7121,176.3583 324.3996,175.7333"/>
    <polyline points="346.72,182.7116 346.095,181.4616 346.095,181.4616 344.845,180.2116 344.845,180.2116 343.595,179.5866 343.595,179.5866 341.095,179.5866 341.095,179.5866 339.845,180.2116 339.845,180.2116 338.595,181.4616 338.595,181.4616 337.97,182.7116 337.97,182.7116 337.345,184.5866 337.345,184.5866 337.345,187.7116 337.345,187.7116 337.97,189.5866 337.97,189.5866 338.595,190.8366 338.595,190.8366 339.845,192.0866 339.845,192.0866 341.095,192.7116 341.095,192.7116 343.595,192.7116 343.595,192.7116 344.845,192.0866 344.845,192.0866 346.095,190.8366 346.095,190.8366 346.72,189.5866 346.72,189.5866 346.72,187.7116 346.72,187.7116 343.595,187.7116"/>
    <polyline points="376.0778,185.8366 381.7028,185.8366 381.7028,185.8366 383.5778,185.2116 383.5778,185.2116 384.2028,184.5866 384.2028,184.5866 384.8278,183.3366 384.8278,183.3366 384.8278,182.0866 384.8278,182.0866 384.2028,180.8366 384.2028,180.8366 383.5778,180.2116 383.5778,180.2116 381.7028,179.5866 381.7028,179.5866 376.0778,179.5866 376.0778,179.5866 376.0778,192.7116"/>
    <line x1="380.4528" x2="384.8278" y1="185.8366" y2="192.7116"/>
    <polyline points="396.8504,205.9843 434.6457,205.9843 434.6457,205.9843 434.6457,168.189 434.6457,168.189 396.8504,168.189"/>
    <line x1="418.248" x2="418.248" y1="179.5866" y2="192.7116"/>
    <polygon points="434.6457,205.9843 472.4409,205.9843 472.4409,205.9843 472.4409,243.7795 472.4409,243.7795 434.6457,243.7795 434.6457,243.7795"/>
    <polyline points="460.1058,179.5866 451.9808,179.5866 451.9808,179.5866 451.9808,192.7116 451.9808,192.7116 460.1058,192.7116"/>
    <line x1="451.9808" x2="456.9808" y1="185.8366" y2="185.8366"/>
    <line x1="491.9636" x2="491.9636" y1="179.5866" y2="192.7116"/>
    <line x1="487.5886" x2="496.3386" y1="179.5866" y2="179.5866"/>
    <polyline points="565.6791,179.5866 565.6791,192.7116 565.6791,192.7116 573.1791,192.7116"/>
    <polygon points="623.622,168.189 623.622,205.9843 623.622,205.9843 661.4173,205.9843 661.4173,205.9843 661.4173,168.189 661.4173,168.189"/>
    <polyline points="627.3868,171.3583 628.0118,171.0458 628.0118,171.0458 628.9493,170.1083 628.9493,170.1083 628.9493,176.6708"/>
    <polygon points="634.5743,170.1083 633.6368,170.4208 633.6368,170.4208 633.0118,171.3583 633.0118,171.3583 632.6993,172.9208 632.6993,172.9208 632.6993,173.8583 632.6993,173.8583 633.0118,175.4208 633.0118,175.4208 633.6368,176.3583 633.6368,176.3583 634.5743,176.6708 634.5743,176.6708 635.1993,176.6708 635.1993,176.6708 636.1368,176.3583 636.1368,176.3583 636.7618,175.4208 636.7618,175.4208 637.0743,173.8583 637.0743,173.8583 637.0743,172.9208 637.0743,172.9208 636.7618,171.3583 636.7618,171.3583 636.1368,170.4208 636.1368,170.4208 635.1993,170.1083 635.1993,170.1083"/>
    <polyline points="648.7697,181.4616 647.5197,180.2116 647.5197,180.2116 645.6447,179.5866 645.6447,179.5866 643.1447,179.5866 643.1447,179.5866 641.2697,180.2116 641.2697,180.2116 640.0197,181.4616 640.0197,181.4616 640.0197,182.7116 640.0197,182.7116 640.6447,183.9616 640.6447,183.9616 641.2697,184.5866 641.2697,184.5866 642.5197,185.2116 642.5197,185.2116 646.2697,186.4616 646.2697,186.4616 647.5197,187.0866 647.5197,187.0866 648.1447,187.7116 648.1447,187.7116 648.7697,188.9616 648.7697,188.9616 648.7697,190.8366 648.7697,190.8366 647.5197,192.0866 647.5197,192.0866 645.6447,192.7116 645.6447,192.7116 643.1447,192.7116 643.1447,192.7116 641.2697,192.0866 641.2697,192.0866 640.0197,190.8366"/>
    <polygon points="18.8976,205.9843 18.8976,243.7795 18.8976,243.7795 56.6929,243.7795 56.6929,243.7795 56.6929,205.9843 56.6929,205.9843"/>
    <polyline points="22.6624,209.1535 23.2874,208.841 23.2874,208.841 24.2249,207.9035 24.2249,207.9035 24.2249,214.466"/>
    <polyline points="28.9124,209.1535 29.5374,208.841 29.5374,208.841 30.4749,207.9035 30.4749,207.9035 30.4749,214.466"/>
    <polyline points="33.4203,217.3819 38.4203,230.5069 38.4203,230.5069 43.4203,217.3819"/>
    <polyline points="56.6929,281.5748 56.6929,243.7795 56.6929,243.7795 94.4882,243.7795 94.4882,243.7795 94.4882,281.5748 94.4882,281.5748 94.4882,319.3701 94.4882,319.3701 56.6929,319.3701 56.6929,319.3701 56.6929,281.5748 56.6929,281.5748 94.4882,281.5748"/>
    <polyline points="82.1531,217.3819 74.0281,217.3819 74.0281,217.3819 74.0281,230.5069 74.0281,230.5069 82.1531,230.5069"/>
    <line x1="74.0281" x2="79.0281" y1="223.6319" y2="223.6319"/>
    <polyline points="112.1358,217.3819 112.1358,230.5069 112.1358,230.5069 119.6358,230.5069"/>
    <line x1="132.2835" x2="170.0787" y1="243.7795" y2="243.7795"/>
    <polyline points="149.9311,217.3819 149.9311,230.5069 149.9311,230.5069 157.4311,230.5069"/>
    <polyline points="195.5389,217.3819 187.4139,217.3819 187.4139,217.3819 187.4139,230.5069 187.4139,230.5069 195.5389,230.5069"/>
    <line x1="187.4139" x2="192.4139" y1="223.6319" y2="223.6319"/>
    <line x1="224.8967" x2="224.8967" y1="217.3819" y2="230.5069"/>
    <line x1="233.6467" x2="224.8967" y1="217.3819" y2="226.1319"/>
    <line x1="228.0217" x2="233.6467" y1="223.0069" y2="230.5069"/>
    <polyline points="271.1294,217.3819 263.0044,217.3819 263.0044,217.3819 263.0044,230.5069 263.0044,230.5069 271.1294,230.5069"/>
    <line x1="263.0044" x2="268.0044" y1="223.6319" y2="223.6319"/>
    <polyline points="338.2825,223.6319 343.9075,223.6319 343.9075,223.6319 345.7825,223.0069 345.7825,223.0069 346.4075,222.3819 346.4075,222.3819 347.0325,221.1319 347.0325,221.1319 347.0325,219.8819 347.0325,219.8819 346.4075,218.6319 346.4075,218.6319 345.7825,218.0069 345.7825,218.0069 343.9075,217.3819 343.9075,217.3819 338.2825,217.3819 338.2825,217.3819 338.2825,230.5069"/>
    <line x1="342.6575" x2="347.0325" y1="223.6319" y2="230.5069"/>
    <polyline points="451.6683,223.6319 457.2933,223.6319 457.2933,223.6319 459.1683,223.0069 459.1683,223.0069 459.7933,222.3819 459.7933,222.3819 460.4183,221.1319 460.4183,221.1319 460.4183,219.8819 460.4183,219.8819 459.7933,218.6319 459.7933,218.6319 459.1683,218.0069 459.1683,218.0069 457.2933,217.3819 457.2933,217.3819 451.6683,217.3819 451.6683,217.3819 451.6683,230.5069"/>
    <line x1="456.0433" x2="460.4183" y1="223.6319" y2="230.5069"/>
    <polygon points="510.2362,205.9843 510.2362,243.7795 510.2362,243.7795 548.0315,243.7795 548.0315,243.7795 548.0315,205.9843 548.0315,205.9843"/>
    <polyline points="514.001,209.1535 514.626,208.841 514.626,208.841 515.5635,207.9035 515.5635,207.9035 515.5635,214.466"/>
    <polyline points="519.626,209.466 519.626,209.1535 519.626,209.1535 519.9385,208.5285 519.9385,208.5285 520.251,208.216 520.251,208.216 520.876,207.9035 520.876,207.9035 522.126,207.9035 522.126,207.9035 522.751,208.216 522.751,208.216 523.0635,208.5285 523.0635,208.5285 523.376,209.1535 523.376,209.1535 523.376,209.7785 523.376,209.7785 523.0635,210.4035 523.0635,210.4035 522.4385,211.341 522.4385,211.341 519.3135,214.466 519.3135,214.466 523.6885,214.466"/>
    <polyline points="527.8839,217.3819 527.8839,230.5069 527.8839,230.5069 535.3839,230.5069"/>
    <polyline points="661.4173,243.7795 661.4173,281.5748 661.4173,281.5748 623.622,281.5748 623.622,281.5748 623.622,243.7795 623.622,243.7795 585.8268,243.7795 585.8268,243.7795 585.8268,281.5748 585.8268,281.5748 548.0315,281.5748 548.0315,281.5748 548.0315,243.7795 548.0315,243.7795 585.8268,243.7795 585.8268,243.7795 585.8268,205.9843 585.8268,205.9843 623.622,205.9843 623.622,205.9843 623.622,243.7795 623.622,243.7795 661.4173,243.7795 661.4173,243.7795 661.4173,205.9843"/>
    <line x1="569.4291" x2="569.4291" y1="217.3819" y2="230.5069"/>
    <polyline points="611.2869,217.3819 603.1619,217.3819 603.1619,217.3819 603.1619,230.5069"/>
    <line x1="603.1619" x2="608.1619" y1="223.6319" y2="223.6319"/>
    <line x1="643.1447" x2="643.1447" y1="217.3819" y2="230.5069"/>
    <line x1="638.7697" x2="647.5197" y1="217.3819" y2="217.3819"/>
    <polygon points="699.2126,205.9843 699.2126,243.7795 699.2126,243.7795 737.0079,243.7795 737.0079,243.7795 737.0079,205.9843 737.0079,205.9843"/>
    <polyline points="702.9774,209.1535 703.6024,208.841 703.6024,208.841 704.5399,207.9035 704.5399,207.9035 704.5399,214.466"/>
    <polyline points="708.9149,207.9035 712.3524,207.9035 712.3524,207.9035 710.4774,210.4035 710.4774,210.4035 711.4149,210.4035 711.4149,210.4035 712.0399,210.716 712.0399,210.716 712.3524,211.0285 712.3524,211.0285 712.6649,211.966 712.6649,211.966 712.6649,212.591 712.6649,212.591 712.3524,213.5285 712.3524,213.5285 711.7274,214.1535 711.7274,214.1535 710.7899,214.466 710.7899,214.466 709.8524,214.466 709.8524,214.466 708.9149,214.1535 708.9149,214.1535 708.6024,213.841 708.6024,213.841 708.2899,213.216"/>
    <polyline points="715.6102,217.3819 724.3602,217.3819 724.3602,217.3819 715.6102,230.5069 715.6102,230.5069 724.3602,230.5069"/>
    <polyline points="73.7156,261.4272 79.3406,261.4272 79.3406,261.4272 81.2156,260.8022 81.2156,260.8022 81.8406,260.1772 81.8406,260.1772 82.4656,258.9272 82.4656,258.9272 82.4656,257.6772 82.4656,257.6772 81.8406,256.4272 81.8406,256.4272 81.2156,255.8022 81.2156,255.8022 79.3406,255.1772 79.3406,255.1772 73.7156,255.1772 73.7156,255.1772 73.7156,268.3022"/>
    <line x1="78.0906" x2="82.4656" y1="261.4272" y2="268.3022"/>
    <line x1="224.8967" x2="224.8967" y1="255.1772" y2="268.3022"/>
    <line x1="233.6467" x2="224.8967" y1="255.1772" y2="263.9272"/>
    <line x1="228.0217" x2="233.6467" y1="260.8022" y2="268.3022"/>
    <polyline points="321.2598,243.7795 321.2598,281.5748 321.2598,281.5748 283.4646,281.5748"/>
    <polyline points="396.8504,281.5748 434.6457,281.5748 434.6457,281.5748 434.6457,319.3701 434.6457,319.3701 396.8504,319.3701 396.8504,319.3701 396.8504,281.5748 396.8504,281.5748 359.0551,281.5748 359.0551,281.5748 359.0551,319.3701 359.0551,319.3701 321.2598,319.3701 321.2598,319.3701 321.2598,281.5748 321.2598,281.5748 359.0551,281.5748 359.0551,281.5748 359.0551,243.7795"/>
    <polygon points="340.7825,255.1772 339.5325,255.8022 339.5325,255.8022 338.2825,257.0522 338.2825,257.0522 337.6575,258.3022 337.6575,258.3022 337.0325,260.1772 337.0325,260.1772 337.0325,263.3022 337.0325,263.3022 337.6575,265.1772 337.6575,265.1772 338.2825,266.4272 338.2825,266.4272 339.5325,267.6772 339.5325,267.6772 340.7825,268.3022 340.7825,268.3022 343.2825,268.3022 343.2825,268.3022 344.5325,267.6772 344.5325,267.6772 345.7825,266.4272 345.7825,266.4272 346.4075,265.1772 346.4075,265.1772 347.0325,263.3022 347.0325,263.3022 347.0325,260.1772 347.0325,260.1772 346.4075,258.3022 346.4075,258.3022 345.7825,257.0522 345.7825,257.0522 344.5325,255.8022 344.5325,255.8022 343.2825,255.1772 343.2825,255.1772"/>
    <polyline points="434.6457,243.7795 434.6457,281.5748 434.6457,281.5748 472.4409,281.5748 472.4409,281.5748 472.4409,243.7795"/>
    <line x1="454.1683" x2="454.1683" y1="255.1772" y2="268.3022"/>
    <line x1="449.7933" x2="458.5433" y1="255.1772" y2="255.1772"/>
    <polyline points="572.5541,268.3022 567.5541,255.1772 567.5541,255.1772 562.5541,268.3022"/>
    <line x1="564.4291" x2="570.6791" y1="263.9272" y2="263.9272"/>
    <polyline points="648.1447,268.3022 643.1447,255.1772 643.1447,255.1772 638.1447,268.3022"/>
    <line x1="640.0197" x2="646.2697" y1="263.9272" y2="263.9272"/>
    <polyline points="699.2126,243.7795 699.2126,281.5748 699.2126,281.5748 737.0079,281.5748 737.0079,281.5748 737.0079,243.7795"/>
    <polygon points="718.7352,255.1772 717.4852,255.8022 717.4852,255.8022 716.2352,257.0522 716.2352,257.0522 715.6102,258.3022 715.6102,258.3022 714.9852,260.1772 714.9852,260.1772 714.9852,263.3022 714.9852,263.3022 715.6102,265.1772 715.6102,265.1772 716.2352,266.4272 716.2352,266.4272 717.4852,267.6772 717.4852,267.6772 718.7352,268.3022 718.7352,268.3022 721.2352,268.3022 721.2352,268.3022 722.4852,267.6772 722.4852,267.6772 723.7352,266.4272 723.7352,266.4272 724.3602,265.1772 724.3602,265.1772 724.9852,263.3022 724.9852,263.3022 724.9852,260.1772 724.9852,260.1772 724.3602,258.3022 724.3602,258.3022 723.7352,257.0522 723.7352,257.0522 722.4852,255.8022 722.4852,255.8022 721.2352,255.1772 721.2352,255.1772"/>
    <polyline points="81.8406,294.8474 80.5906,293.5974 80.5906,293.5974 78.7156,292.9724 78.7156,292.9724 76.2156,292.9724 76.2156,292.9724 74.3406,293.5974 74.3406,293.5974 73.0906,294.8474 73.0906,294.8474 73.0906,296.0974 73.0906,296.0974 73.7156,297.3474 73.7156,297.3474 74.3406,297.9724 74.3406,297.9724 75.5906,298.5974 75.5906,298.5974 79.3406,299.8474 79.3406,299.8474 80.5906,300.4724 80.5906,300.4724 81.2156,301.0974 81.2156,301.0974 81.8406,302.3474 81.8406,302.3474 81.8406,304.2224 81.8406,304.2224 80.5906,305.4724 80.5906,305.4724 78.7156,306.0974 78.7156,306.0974 76.2156,306.0974 76.2156,306.0974 74.3406,305.4724 74.3406,305.4724 73.0906,304.2224"/>
    <polyline points="173.8435,284.7441 174.4685,284.4316 174.4685,284.4316 175.406,283.4941 175.406,283.4941 175.406,290.0566"/>
    <polyline points="182.281,290.0566 182.281,283.4941 182.281,283.4941 179.156,287.8691 179.156,287.8691 183.8435,287.8691"/>
    <polyline points="187.1014,299.2224 192.7264,299.2224 192.7264,299.2224 194.6014,298.5974 194.6014,298.5974 195.2264,297.9724 195.2264,297.9724 195.8514,296.7224 195.8514,296.7224 195.8514,295.4724 195.8514,295.4724 195.2264,294.2224 195.2264,294.2224 194.6014,293.5974 194.6014,293.5974 192.7264,292.9724 192.7264,292.9724 187.1014,292.9724 187.1014,292.9724 187.1014,306.0974"/>
    <line x1="191.4764" x2="195.8514" y1="299.2224" y2="306.0974"/>
    <polyline points="233.3342,292.9724 225.2092,292.9724 225.2092,292.9724 225.2092,306.0974 225.2092,306.0974 233.3342,306.0974"/>
    <line x1="225.2092" x2="230.2092" y1="299.2224" y2="299.2224"/>
    <line x1="262.6919" x2="262.6919" y1="292.9724" y2="306.0974"/>
    <line x1="271.4419" x2="262.6919" y1="292.9724" y2="301.7224"/>
    <line x1="265.8169" x2="271.4419" y1="298.5974" y2="306.0974"/>
    <polyline points="283.4646,319.3701 321.2598,319.3701 321.2598,319.3701 321.2598,357.1654 321.2598,357.1654 359.0551,357.1654 359.0551,357.1654 359.0551,319.3701 359.0551,319.3701 396.8504,319.3701"/>
    <line x1="300.4872" x2="300.4872" y1="292.9724" y2="306.0974"/>
    <line x1="309.2372" x2="300.4872" y1="292.9724" y2="301.7224"/>
    <line x1="303.6122" x2="309.2372" y1="298.5974" y2="306.0974"/>
    <polyline points="346.72,292.9724 338.595,292.9724 338.595,292.9724 338.595,306.0974 338.595,306.0974 346.72,306.0974"/>
    <line x1="338.595" x2="343.595" y1="299.2224" y2="299.2224"/>
    <polyline points="376.0778,299.2224 381.7028,299.2224 381.7028,299.2224 383.5778,298.5974 383.5778,298.5974 384.2028,297.9724 384.2028,297.9724 384.8278,296.7224 384.8278,296.7224 384.8278,295.4724 384.8278,295.4724 384.2028,294.2224 384.2028,294.2224 383.5778,293.5974 383.5778,293.5974 381.7028,292.9724 381.7028,292.9724 376.0778,292.9724 376.0778,292.9724 376.0778,306.0974"/>
    <line x1="380.4528" x2="384.8278" y1="299.2224" y2="306.0974"/>
    <line x1="416.373" x2="416.373" y1="292.9724" y2="306.0974"/>
    <line x1="411.998" x2="420.748" y1="292.9724" y2="292.9724"/>
    <polygon points="434.6457,319.3701 472.4409,319.3701 472.4409,319.3701 510.2362,319.3701 510.2362,319.3701 510.2362,281.5748 510.2362,281.5748 472.4409,281.5748 472.4409,281.5748 472.4409,319.3701 472.4409,319.3701 472.4409,357.1654 472.4409,357.1654 434.6457,357.1654 434.6457,357.1654"/>
    <polyline points="457.9183,292.9724 457.9183,302.9724 457.9183,302.9724 457.2933,304.8474 457.2933,304.8474 456.6683,305.4724 456.6683,305.4724 455.4183,306.0974 455.4183,306.0974 454.1683,306.0974 454.1683,306.0974 452.9183,305.4724 452.9183,305.4724 452.2933,304.8474 452.2933,304.8474 451.6683,302.9724 451.6683,302.9724 451.6683,301.7224"/>
    <polyline points="497.9011,292.9724 489.7761,292.9724 489.7761,292.9724 489.7761,306.0974 489.7761,306.0974 497.9011,306.0974"/>
    <line x1="489.7761" x2="494.7761" y1="299.2224" y2="299.2224"/>
    <polyline points="623.622,281.5748 623.622,319.3701 623.622,319.3701 661.4173,319.3701 661.4173,319.3701 699.2126,319.3701 699.2126,319.3701 699.2126,281.5748 699.2126,281.5748 661.4173,281.5748 661.4173,281.5748 661.4173,319.3701"/>
    <polyline points="627.3868,284.7441 628.0118,284.4316 628.0118,284.4316 628.9493,283.4941 628.9493,283.4941 628.9493,290.0566"/>
    <polyline points="636.4493,283.4941 633.3243,283.4941 633.3243,283.4941 633.0118,286.3066 633.0118,286.3066 633.3243,285.9941 633.3243,285.9941 634.2618,285.6816 634.2618,285.6816 635.1993,285.6816 635.1993,285.6816 636.1368,285.9941 636.1368,285.9941 636.7618,286.6191 636.7618,286.6191 637.0743,287.5566 637.0743,287.5566 637.0743,288.1816 637.0743,288.1816 636.7618,289.1191 636.7618,289.1191 636.1368,289.7441 636.1368,289.7441 635.1993,290.0566 635.1993,290.0566 634.2618,290.0566 634.2618,290.0566 633.3243,289.7441 633.3243,289.7441 633.0118,289.4316 633.0118,289.4316 632.6993,288.8066"/>
    <polyline points="649.0822,292.9724 640.9572,292.9724 640.9572,292.9724 640.9572,306.0974"/>
    <line x1="640.9572" x2="645.9572" y1="299.2224" y2="299.2224"/>
    <polygon points="680.94,292.9724 679.69,293.5974 679.69,293.5974 678.44,294.8474 678.44,294.8474 677.815,296.0974 677.815,296.0974 677.19,297.9724 677.19,297.9724 677.19,301.0974 677.19,301.0974 677.815,302.9724 677.815,302.9724 678.44,304.2224 678.44,304.2224 679.69,305.4724 679.69,305.4724 680.94,306.0974 680.94,306.0974 683.44,306.0974 683.44,306.0974 684.69,305.4724 684.69,305.4724 685.94,304.2224 685.94,304.2224 686.565,302.9724 686.565,302.9724 687.19,301.0974 687.19,301.0974 687.19,297.9724 687.19,297.9724 686.565,296.0974 686.565,296.0974 685.94,294.8474 685.94,294.8474 684.69,293.5974 684.69,293.5974 683.44,292.9724 683.44,292.9724"/>
    <polyline points="699.2126,319.3701 737.0079,319.3701 737.0079,319.3701 737.0079,281.5748 737.0079,281.5748 774.8031,281.5748 774.8031,281.5748 774.8031,319.3701 774.8031,319.3701 737.0079,319.3701"/>
    <polyline points="724.9852,292.9724 724.9852,306.0974 724.9852,306.0974 716.2352,292.9724 716.2352,292.9724 716.2352,306.0974"/>
    <polyline points="762.1555,294.8474 760.9055,293.5974 760.9055,293.5974 759.0305,292.9724 759.0305,292.9724 756.5305,292.9724 756.5305,292.9724 754.6555,293.5974 754.6555,293.5974 753.4055,294.8474 753.4055,294.8474 753.4055,296.0974 753.4055,296.0974 754.0305,297.3474 754.0305,297.3474 754.6555,297.9724 754.6555,297.9724 755.9055,298.5974 755.9055,298.5974 759.6555,299.8474 759.6555,299.8474 760.9055,300.4724 760.9055,300.4724 761.5305,301.0974 761.5305,301.0974 762.1555,302.3474 762.1555,302.3474 762.1555,304.2224 762.1555,304.2224 760.9055,305.4724 760.9055,305.4724 759.0305,306.0974 759.0305,306.0974 756.5305,306.0974 756.5305,306.0974 754.6555,305.4724 754.6555,305.4724 753.4055,304.2224"/>
    <polyline points="233.6467,330.7677 233.6467,343.8927 233.6467,343.8927 224.8967,330.7677 224.8967,330.7677 224.8967,343.8927"/>
    <polyline points="347.0325,330.7677 347.0325,343.8927 347.0325,343.8927 338.2825,330.7677 338.2825,330.7677 338.2825,343.8927"/>
    <polyline points="460.1058,330.7677 451.9808,330.7677 451.9808,330.7677 451.9808,343.8927 451.9808,343.8927 460.1058,343.8927"/>
    <line x1="451.9808" x2="456.9808" y1="337.0177" y2="337.0177"/>
  </g>
</svg>
