<?xml version="1.0" encoding="utf-8" ?>
<svg xmlns="http://www.w3.org/2000/svg" xmlns:cc="http://creativecommons.org/ns" xmlns:dc="http://purl.org/dc/elements/1.1/" xmlns:ev="http://www.w3.org/2001/xml-events" xmlns:inkscape="http://www.inkscape.org/namespaces/inkscape" xmlns:rdf="http://www.w3.org/1999/02/22-rdf-syntax-ns" xmlns:sodipodi="http://sodipodi.sourceforge.net/DTD/sodipodi-0.dtd" xmlns:xlink="http://www.w3.org/1999/xlink" baseProfile="tiny" height="9.9cm" version="1.2" viewBox="0 0 793.7007874015749 374.1732283464567" width="21.0cm">
  <metadata>
    <rdf:RDF>
      <cc:Work>
        <dc:format>image/svg+xml</dc:format>
        <dc:source>vpype eval 'cell=10;width=210;height=99' eval 'nCols=20;nRows=9' eval 'cells=[0,5,6,7,8,9,10,14,17,20,22,24,28,31,32,33,34,35,36,37,38,39,40,41,42,43,44,45,46,47,48,54,57,60,62,64,68,74,77,79,80,82,84,86,87,88,89,90,91,92,93,94,97,99,100,108,114,117,119,121,122,123,124,125,126,127,128,130,131,132,133,134,135,136,137,139,148,149,154,159,161,162,163,164,165,166,167,168,172,173,174,175,176,177,178,179]' eval 'chars=[&quot;W&quot;,&quot;K&quot;,&quot;I&quot;,&quot;E&quot;,&quot;M&quot;,&quot;E&quot;,&quot;N&quot;,&quot;R&quot;,&quot;O&quot;,&quot;O&quot;,&quot;S&quot;,&quot;P&quot;,&quot;A&quot;,&quot;R&quot;,&quot;E&quot;,&quot;G&quot;,&quot;E&quot;,&quot;N&quot;,&quot;B&quot;,&quot;O&quot;,&quot;O&quot;,&quot;G&quot;,&quot;U&quot;,&quot;I&quot;,&quot;T&quot;,&quot;L&quot;,&quot;I&quot;,&quot;K&quot;,&quot;K&quot;,&quot;E&quot;,&quot;N&quot;,&quot;K&quot;,&quot;R&quot;,&quot;T&quot;,&quot;E&quot;,&quot;P&quot;,&quot;D&quot;,&quot;K&quot;,&quot;T&quot;,&quot;C&quot;,&quot;E&quot;,&quot;R&quot;,&quot;I&quot;,&quot;K&quot;,&quot;L&quot;,&quot;A&quot;,&quot;V&quot;,&quot;E&quot;,&quot;R&quot;,&quot;T&quot;,&quot;J&quot;,&quot;E&quot;,&quot;J&quot;,&quot;E&quot;,&quot;R&quot;,&quot;R&quot;,&quot;R&quot;,&quot;E&quot;,&quot;N&quot;,&quot;R&quot;,&quot;E&quot;,&quot;G&quot;,&quot;E&quot;,&quot;N&quot;,&quot;B&quot;,&quot;U&quot;,&quot;I&quot;,&quot;F&quot;,&quot;R&quot;,&quot;I&quot;,&quot;E&quot;,&quot;T&quot;,&quot;J&quot;,&quot;E&quot;,&quot;S&quot;,&quot;T&quot;,&quot;J&quot;,&quot;A&quot;,&quot;J&quot;,&quot;J&quot;,&quot;P&quot;,&quot;A&quot;,&quot;R&quot;,&quot;K&quot;,&quot;E&quot;,&quot;R&quot;,&quot;E&quot;,&quot;N&quot;,&quot;S&quot;,&quot;K&quot;,&quot;E&quot;,&quot;L&quot;,&quot;L&quot;,&quot;E&quot;,&quot;K&quot;,&quot;E&quot;]' eval 'numbers=[0,5,8,14,17,22,24,31,40,79,86,121,130,148,161,172]' eval counter=1 eval charIndex=0 begin grid -o '%cell*mm%' '%cell*mm%' %nCols% %nRows% eval '%isCell=_i in cells%' eval '%number=_i in numbers%' eval '%size=10 if isCell else 0%' rect 0 0 '%size*mm%' '%size*mm%' text -s 10 -p 0.5mm 1.5mm '%counter if number else '&quot;'&quot;''&quot;'&quot;'%' text -s 20 -p 5mm 5mm -a center '%chars[charIndex] if isCell else '&quot;'&quot;''&quot;'&quot;'%' eval '%if number: counter+=1 %' eval '%if isCell: charIndex+=1 %' end splitall deduplicate linemerge --tolerance 0.1mm write -m none --page-size '%width*mm%x%height*mm%' --center ./svgs/solution/ec6bc2.svg
</dc:source>
        <dc:date>2024-01-06T16:44:06.568631</dc:date>
      </cc:Work>
    </rdf:RDF>
  </metadata>
  <defs/>
  <g fill="none" id="layer1" inkscape:groupmode="layer" inkscape:label="1" stroke="#000000" style="display:inline">
    <polygon points="18.8976,17.0079 18.8976,54.8031 18.8976,54.8031 18.8976,92.5984 18.8976,92.5984 56.6929,92.5984 56.6929,92.5984 56.6929,54.8031 56.6929,54.8031 56.6929,17.0079 56.6929,17.0079"/>
    <line x1="18.8976" x2="56.6929" y1="54.8031" y2="54.8031"/>
    <polyline points="22.6624,20.1772 23.2874,19.8647 23.2874,19.8647 24.2249,18.9272 24.2249,18.9272 24.2249,25.4897"/>
    <polyline points="32.7953,28.4055 35.9203,41.5305 35.9203,41.5305 39.0453,28.4055 39.0453,28.4055 42.1703,41.5305 42.1703,41.5305 45.2953,28.4055"/>
    <polygon points="207.874,17.0079 207.874,54.8031 207.874,54.8031 170.0787,54.8031 170.0787,54.8031 170.0787,92.5984 170.0787,92.5984 207.874,92.5984 207.874,92.5984 207.874,54.8031 207.874,54.8031 245.6693,54.8031 245.6693,54.8031 245.6693,17.0079 245.6693,17.0079"/>
    <polyline points="211.0138,20.4897 211.0138,20.1772 211.0138,20.1772 211.3263,19.5522 211.3263,19.5522 211.6388,19.2397 211.6388,19.2397 212.2638,18.9272 212.2638,18.9272 213.5138,18.9272 213.5138,18.9272 214.1388,19.2397 214.1388,19.2397 214.4513,19.5522 214.4513,19.5522 214.7638,20.1772 214.7638,20.1772 214.7638,20.8022 214.7638,20.8022 214.4513,21.4272 214.4513,21.4272 213.8263,22.3647 213.8263,22.3647 210.7013,25.4897 210.7013,25.4897 215.0763,25.4897"/>
    <line x1="224.8967" x2="224.8967" y1="28.4055" y2="41.5305"/>
    <line x1="233.6467" x2="224.8967" y1="28.4055" y2="37.1555"/>
    <line x1="228.0217" x2="233.6467" y1="34.0305" y2="41.5305"/>
    <polyline points="245.6693,54.8031 283.4646,54.8031 283.4646,54.8031 283.4646,17.0079 283.4646,17.0079 245.6693,17.0079"/>
    <line x1="267.0669" x2="267.0669" y1="28.4055" y2="41.5305"/>
    <polyline points="283.4646,54.8031 321.2598,54.8031 321.2598,54.8031 359.0551,54.8031 359.0551,54.8031 359.0551,17.0079 359.0551,17.0079 321.2598,17.0079 321.2598,17.0079 283.4646,17.0079"/>
    <polyline points="359.0551,17.0079 396.8504,17.0079 396.8504,17.0079 396.8504,54.8031 396.8504,54.8031 359.0551,54.8031 359.0551,54.8031 359.0551,92.5984 359.0551,92.5984 321.2598,92.5984 321.2598,92.5984 321.2598,54.8031 321.2598,54.8031 321.2598,17.0079"/>
    <polyline points="308.9247,28.4055 300.7997,28.4055 300.7997,28.4055 300.7997,41.5305 300.7997,41.5305 308.9247,41.5305"/>
    <line x1="300.7997" x2="305.7997" y1="34.6555" y2="34.6555"/>
    <polyline points="324.7121,18.9272 328.1496,18.9272 328.1496,18.9272 326.2746,21.4272 326.2746,21.4272 327.2121,21.4272 327.2121,21.4272 327.8371,21.7397 327.8371,21.7397 328.1496,22.0522 328.1496,22.0522 328.4621,22.9897 328.4621,22.9897 328.4621,23.6147 328.4621,23.6147 328.1496,24.5522 328.1496,24.5522 327.5246,25.1772 327.5246,25.1772 326.5871,25.4897 326.5871,25.4897 325.6496,25.4897 325.6496,25.4897 324.7121,25.1772 324.7121,25.1772 324.3996,24.8647 324.3996,24.8647 324.0871,24.2397"/>
    <polyline points="347.6575,41.5305 347.6575,28.4055 347.6575,28.4055 342.6575,41.5305 342.6575,41.5305 337.6575,28.4055 337.6575,28.4055 337.6575,41.5305"/>
    <polyline points="384.5153,28.4055 376.3903,28.4055 376.3903,28.4055 376.3903,41.5305 376.3903,41.5305 384.5153,41.5305"/>
    <line x1="376.3903" x2="381.3903" y1="34.6555" y2="34.6555"/>
    <polyline points="396.8504,54.8031 434.6457,54.8031 434.6457,54.8031 434.6457,17.0079 434.6457,17.0079 396.8504,17.0079"/>
    <polyline points="422.623,28.4055 422.623,41.5305 422.623,41.5305 413.873,28.4055 413.873,28.4055 413.873,41.5305"/>
    <polygon points="548.0315,17.0079 548.0315,54.8031 548.0315,54.8031 585.8268,54.8031 585.8268,54.8031 585.8268,17.0079 585.8268,17.0079"/>
    <polyline points="553.9838,25.4897 553.9838,18.9272 553.9838,18.9272 550.8588,23.3022 550.8588,23.3022 555.5463,23.3022"/>
    <polyline points="565.0541,34.6555 570.6791,34.6555 570.6791,34.6555 572.5541,34.0305 572.5541,34.0305 573.1791,33.4055 573.1791,33.4055 573.8041,32.1555 573.8041,32.1555 573.8041,30.9055 573.8041,30.9055 573.1791,29.6555 573.1791,29.6555 572.5541,29.0305 572.5541,29.0305 570.6791,28.4055 570.6791,28.4055 565.0541,28.4055 565.0541,28.4055 565.0541,41.5305"/>
    <line x1="569.4291" x2="573.8041" y1="34.6555" y2="41.5305"/>
    <polyline points="737.0079,54.8031 737.0079,92.5984 737.0079,92.5984 774.8031,92.5984 774.8031,92.5984 774.8031,54.8031 774.8031,54.8031 737.0079,54.8031 737.0079,54.8031 699.2126,54.8031 699.2126,54.8031 699.2126,92.5984 699.2126,92.5984 699.2126,130.3937 699.2126,130.3937 699.2126,168.189 699.2126,168.189 699.2126,205.9843 699.2126,205.9843 699.2126,243.7795 699.2126,243.7795 661.4173,243.7795 661.4173,243.7795 661.4173,205.9843 661.4173,205.9843 661.4173,168.189 661.4173,168.189 661.4173,130.3937 661.4173,130.3937 661.4173,92.5984 661.4173,92.5984 661.4173,54.8031 661.4173,54.8031 699.2126,54.8031 699.2126,54.8031 699.2126,17.0079 699.2126,17.0079 661.4173,17.0079 661.4173,17.0079 661.4173,54.8031 661.4173,54.8031 623.622,54.8031 623.622,54.8031 585.8268,54.8031 585.8268,54.8031 585.8268,92.5984 585.8268,92.5984 548.0315,92.5984 548.0315,92.5984 548.0315,54.8031 548.0315,54.8031 510.2362,54.8031 510.2362,54.8031 472.4409,54.8031 472.4409,54.8031 434.6457,54.8031 434.6457,54.8031 434.6457,92.5984 434.6457,92.5984 472.4409,92.5984 472.4409,92.5984 472.4409,54.8031"/>
    <polyline points="667.9946,18.9272 664.8696,18.9272 664.8696,18.9272 664.5571,21.7397 664.5571,21.7397 664.8696,21.4272 664.8696,21.4272 665.8071,21.1147 665.8071,21.1147 666.7446,21.1147 666.7446,21.1147 667.6821,21.4272 667.6821,21.4272 668.3071,22.0522 668.3071,22.0522 668.6196,22.9897 668.6196,22.9897 668.6196,23.6147 668.6196,23.6147 668.3071,24.5522 668.3071,24.5522 667.6821,25.1772 667.6821,25.1772 666.7446,25.4897 666.7446,25.4897 665.8071,25.4897 665.8071,25.4897 664.8696,25.1772 664.8696,25.1772 664.5571,24.8647 664.5571,24.8647 664.2446,24.2397"/>
    <polygon points="680.94,28.4055 679.69,29.0305 679.69,29.0305 678.44,30.2805 678.44,30.2805 677.815,31.5305 677.815,31.5305 677.19,33.4055 677.19,33.4055 677.19,36.5305 677.19,36.5305 677.815,38.4055 677.815,38.4055 678.44,39.6555 678.44,39.6555 679.69,40.9055 679.69,40.9055 680.94,41.5305 680.94,41.5305 683.44,41.5305 683.44,41.5305 684.69,40.9055 684.69,40.9055 685.94,39.6555 685.94,39.6555 686.565,38.4055 686.565,38.4055 687.19,36.5305 687.19,36.5305 687.19,33.4055 687.19,33.4055 686.565,31.5305 686.565,31.5305 685.94,30.2805 685.94,30.2805 684.69,29.0305 684.69,29.0305 683.44,28.4055 683.44,28.4055"/>
    <polygon points="38.4203,66.2008 37.1703,66.8258 37.1703,66.8258 35.9203,68.0758 35.9203,68.0758 35.2953,69.3258 35.2953,69.3258 34.6703,71.2008 34.6703,71.2008 34.6703,74.3258 34.6703,74.3258 35.2953,76.2008 35.2953,76.2008 35.9203,77.4508 35.9203,77.4508 37.1703,78.7008 37.1703,78.7008 38.4203,79.3258 38.4203,79.3258 40.9203,79.3258 40.9203,79.3258 42.1703,78.7008 42.1703,78.7008 43.4203,77.4508 43.4203,77.4508 44.0453,76.2008 44.0453,76.2008 44.6703,74.3258 44.6703,74.3258 44.6703,71.2008 44.6703,71.2008 44.0453,69.3258 44.0453,69.3258 43.4203,68.0758 43.4203,68.0758 42.1703,66.8258 42.1703,66.8258 40.9203,66.2008 40.9203,66.2008"/>
    <polygon points="94.4882,54.8031 94.4882,92.5984 94.4882,92.5984 132.2835,92.5984 132.2835,92.5984 132.2835,54.8031 132.2835,54.8031"/>
    <polyline points="101.378,57.6599 101.0655,57.0349 101.0655,57.0349 100.128,56.7224 100.128,56.7224 99.503,56.7224 99.503,56.7224 98.5655,57.0349 98.5655,57.0349 97.9405,57.9724 97.9405,57.9724 97.628,59.5349 97.628,59.5349 97.628,61.0974 97.628,61.0974 97.9405,62.3474 97.9405,62.3474 98.5655,62.9724 98.5655,62.9724 99.503,63.2849 99.503,63.2849 99.8155,63.2849 99.8155,63.2849 100.753,62.9724 100.753,62.9724 101.378,62.3474 101.378,62.3474 101.6905,61.4099 101.6905,61.4099 101.6905,61.0974 101.6905,61.0974 101.378,60.1599 101.378,60.1599 100.753,59.5349 100.753,59.5349 99.8155,59.2224 99.8155,59.2224 99.503,59.2224 99.503,59.2224 98.5655,59.5349 98.5655,59.5349 97.9405,60.1599 97.9405,60.1599 97.628,61.0974"/>
    <polyline points="119.6358,68.0758 118.3858,66.8258 118.3858,66.8258 116.5108,66.2008 116.5108,66.2008 114.0108,66.2008 114.0108,66.2008 112.1358,66.8258 112.1358,66.8258 110.8858,68.0758 110.8858,68.0758 110.8858,69.3258 110.8858,69.3258 111.5108,70.5758 111.5108,70.5758 112.1358,71.2008 112.1358,71.2008 113.3858,71.8258 113.3858,71.8258 117.1358,73.0758 117.1358,73.0758 118.3858,73.7008 118.3858,73.7008 119.0108,74.3258 119.0108,74.3258 119.6358,75.5758 119.6358,75.5758 119.6358,77.4508 119.6358,77.4508 118.3858,78.7008 118.3858,78.7008 116.5108,79.3258 116.5108,79.3258 114.0108,79.3258 114.0108,79.3258 112.1358,78.7008 112.1358,78.7008 110.8858,77.4508"/>
    <polyline points="172.906,56.7224 177.281,56.7224 177.281,56.7224 174.156,63.2849"/>
    <polyline points="187.1014,73.0758 192.7264,73.0758 192.7264,73.0758 194.6014,72.4508 194.6014,72.4508 195.2264,71.8258 195.2264,71.8258 195.8514,70.5758 195.8514,70.5758 195.8514,68.7008 195.8514,68.7008 195.2264,67.4508 195.2264,67.4508 194.6014,66.8258 194.6014,66.8258 192.7264,66.2008 192.7264,66.2008 187.1014,66.2008 187.1014,66.2008 187.1014,79.3258"/>
    <polyline points="345.7825,79.3258 340.7825,66.2008 340.7825,66.2008 335.7825,79.3258"/>
    <line x1="337.6575" x2="343.9075" y1="74.9508" y2="74.9508"/>
    <polygon points="439.0354,56.7224 438.0979,57.0349 438.0979,57.0349 437.7854,57.6599 437.7854,57.6599 437.7854,58.2849 437.7854,58.2849 438.0979,58.9099 438.0979,58.9099 438.7229,59.2224 438.7229,59.2224 439.9729,59.5349 439.9729,59.5349 440.9104,59.8474 440.9104,59.8474 441.5354,60.4724 441.5354,60.4724 441.8479,61.0974 441.8479,61.0974 441.8479,62.0349 441.8479,62.0349 441.5354,62.6599 441.5354,62.6599 441.2229,62.9724 441.2229,62.9724 440.2854,63.2849 440.2854,63.2849 439.0354,63.2849 439.0354,63.2849 438.0979,62.9724 438.0979,62.9724 437.7854,62.6599 437.7854,62.6599 437.4729,62.0349 437.4729,62.0349 437.4729,61.0974 437.4729,61.0974 437.7854,60.4724 437.7854,60.4724 438.4104,59.8474 438.4104,59.8474 439.3479,59.5349 439.3479,59.5349 440.5979,59.2224 440.5979,59.2224 441.2229,58.9099 441.2229,58.9099 441.5354,58.2849 441.5354,58.2849 441.5354,57.6599 441.5354,57.6599 441.2229,57.0349 441.2229,57.0349 440.2854,56.7224 440.2854,56.7224"/>
    <polyline points="451.6683,72.4508 457.2933,72.4508 457.2933,72.4508 459.1683,71.8258 459.1683,71.8258 459.7933,71.2008 459.7933,71.2008 460.4183,69.9508 460.4183,69.9508 460.4183,68.7008 460.4183,68.7008 459.7933,67.4508 459.7933,67.4508 459.1683,66.8258 459.1683,66.8258 457.2933,66.2008 457.2933,66.2008 451.6683,66.2008 451.6683,66.2008 451.6683,79.3258"/>
    <line x1="456.0433" x2="460.4183" y1="72.4508" y2="79.3258"/>
    <polyline points="472.4409,92.5984 510.2362,92.5984 510.2362,92.5984 510.2362,54.8031"/>
    <polyline points="497.9011,66.2008 489.7761,66.2008 489.7761,66.2008 489.7761,79.3258 489.7761,79.3258 497.9011,79.3258"/>
    <line x1="489.7761" x2="494.7761" y1="72.4508" y2="72.4508"/>
    <polyline points="510.2362,92.5984 548.0315,92.5984 548.0315,92.5984 548.0315,130.3937 548.0315,130.3937 585.8268,130.3937 585.8268,130.3937 585.8268,92.5984 585.8268,92.5984 623.622,92.5984 623.622,92.5984 661.4173,92.5984 661.4173,92.5984 699.2126,92.5984 699.2126,92.5984 737.0079,92.5984"/>
    <polyline points="535.6964,69.3258 535.0714,68.0758 535.0714,68.0758 533.8214,66.8258 533.8214,66.8258 532.5714,66.2008 532.5714,66.2008 530.0714,66.2008 530.0714,66.2008 528.8214,66.8258 528.8214,66.8258 527.5714,68.0758 527.5714,68.0758 526.9464,69.3258 526.9464,69.3258 526.3214,71.2008 526.3214,71.2008 526.3214,74.3258 526.3214,74.3258 526.9464,76.2008 526.9464,76.2008 527.5714,77.4508 527.5714,77.4508 528.8214,78.7008 528.8214,78.7008 530.0714,79.3258 530.0714,79.3258 532.5714,79.3258 532.5714,79.3258 533.8214,78.7008 533.8214,78.7008 535.0714,77.4508 535.0714,77.4508 535.6964,76.2008 535.6964,76.2008 535.6964,74.3258 535.6964,74.3258 532.5714,74.3258"/>
    <polyline points="573.4916,66.2008 565.3666,66.2008 565.3666,66.2008 565.3666,79.3258 565.3666,79.3258 573.4916,79.3258"/>
    <line x1="565.3666" x2="570.3666" y1="72.4508" y2="72.4508"/>
    <line x1="623.622" x2="623.622" y1="92.5984" y2="54.8031"/>
    <polyline points="611.5994,66.2008 611.5994,79.3258 611.5994,79.3258 602.8494,66.2008 602.8494,66.2008 602.8494,79.3258"/>
    <polygon points="640.6447,66.2008 640.6447,79.3258 640.6447,79.3258 646.2697,79.3258 646.2697,79.3258 648.1447,78.7008 648.1447,78.7008 648.7697,78.0758 648.7697,78.0758 649.3947,76.8258 649.3947,76.8258 649.3947,74.9508 649.3947,74.9508 648.7697,73.7008 648.7697,73.7008 648.1447,73.0758 648.1447,73.0758 646.2697,72.4508 646.2697,72.4508 648.1447,71.8258 648.1447,71.8258 648.7697,71.2008 648.7697,71.2008 649.3947,69.9508 649.3947,69.9508 649.3947,68.7008 649.3947,68.7008 648.7697,67.4508 648.7697,67.4508 648.1447,66.8258 648.1447,66.8258 646.2697,66.2008 646.2697,66.2008"/>
    <line x1="640.6447" x2="646.2697" y1="72.4508" y2="72.4508"/>
    <polygon points="680.94,66.2008 679.69,66.8258 679.69,66.8258 678.44,68.0758 678.44,68.0758 677.815,69.3258 677.815,69.3258 677.19,71.2008 677.19,71.2008 677.19,74.3258 677.19,74.3258 677.815,76.2008 677.815,76.2008 678.44,77.4508 678.44,77.4508 679.69,78.7008 679.69,78.7008 680.94,79.3258 680.94,79.3258 683.44,79.3258 683.44,79.3258 684.69,78.7008 684.69,78.7008 685.94,77.4508 685.94,77.4508 686.565,76.2008 686.565,76.2008 687.19,74.3258 687.19,74.3258 687.19,71.2008 687.19,71.2008 686.565,69.3258 686.565,69.3258 685.94,68.0758 685.94,68.0758 684.69,66.8258 684.69,66.8258 683.44,66.2008 683.44,66.2008"/>
    <polygon points="718.7352,66.2008 717.4852,66.8258 717.4852,66.8258 716.2352,68.0758 716.2352,68.0758 715.6102,69.3258 715.6102,69.3258 714.9852,71.2008 714.9852,71.2008 714.9852,74.3258 714.9852,74.3258 715.6102,76.2008 715.6102,76.2008 716.2352,77.4508 716.2352,77.4508 717.4852,78.7008 717.4852,78.7008 718.7352,79.3258 718.7352,79.3258 721.2352,79.3258 721.2352,79.3258 722.4852,78.7008 722.4852,78.7008 723.7352,77.4508 723.7352,77.4508 724.3602,76.2008 724.3602,76.2008 724.9852,74.3258 724.9852,74.3258 724.9852,71.2008 724.9852,71.2008 724.3602,69.3258 724.3602,69.3258 723.7352,68.0758 723.7352,68.0758 722.4852,66.8258 722.4852,66.8258 721.2352,66.2008 721.2352,66.2008"/>
    <polyline points="762.468,69.3258 761.843,68.0758 761.843,68.0758 760.593,66.8258 760.593,66.8258 759.343,66.2008 759.343,66.2008 756.843,66.2008 756.843,66.2008 755.593,66.8258 755.593,66.8258 754.343,68.0758 754.343,68.0758 753.718,69.3258 753.718,69.3258 753.093,71.2008 753.093,71.2008 753.093,74.3258 753.093,74.3258 753.718,76.2008 753.718,76.2008 754.343,77.4508 754.343,77.4508 755.593,78.7008 755.593,78.7008 756.843,79.3258 756.843,79.3258 759.343,79.3258 759.343,79.3258 760.593,78.7008 760.593,78.7008 761.843,77.4508 761.843,77.4508 762.468,76.2008 762.468,76.2008 762.468,74.3258 762.468,74.3258 759.343,74.3258"/>
    <polyline points="18.8976,92.5984 18.8976,130.3937 18.8976,130.3937 18.8976,168.189 18.8976,168.189 56.6929,168.189 56.6929,168.189 56.6929,130.3937 56.6929,130.3937 56.6929,92.5984 56.6929,92.5984 94.4882,92.5984 94.4882,92.5984 94.4882,130.3937 94.4882,130.3937 94.4882,168.189 94.4882,168.189 94.4882,205.9843 94.4882,205.9843 132.2835,205.9843 132.2835,205.9843 132.2835,168.189 132.2835,168.189 132.2835,130.3937 132.2835,130.3937 132.2835,92.5984 132.2835,92.5984 170.0787,92.5984 170.0787,92.5984 170.0787,130.3937 170.0787,130.3937 207.874,130.3937 207.874,130.3937 245.6693,130.3937 245.6693,130.3937 245.6693,92.5984 245.6693,92.5984 207.874,92.5984 207.874,92.5984 207.874,130.3937 207.874,130.3937 207.874,168.189 207.874,168.189 170.0787,168.189 170.0787,168.189 170.0787,205.9843 170.0787,205.9843 207.874,205.9843 207.874,205.9843 207.874,168.189"/>
    <polyline points="18.8976,130.3937 56.6929,130.3937 56.6929,130.3937 94.4882,130.3937 94.4882,130.3937 132.2835,130.3937 132.2835,130.3937 170.0787,130.3937 170.0787,130.3937 170.0787,168.189"/>
    <polyline points="25.7874,96.7052 25.4749,97.6427 25.4749,97.6427 24.8499,98.2677 24.8499,98.2677 23.9124,98.5802 23.9124,98.5802 23.5999,98.5802 23.5999,98.5802 22.6624,98.2677 22.6624,98.2677 22.0374,97.6427 22.0374,97.6427 21.7249,96.7052 21.7249,96.7052 21.7249,96.3927 21.7249,96.3927 22.0374,95.4552 22.0374,95.4552 22.6624,94.8302 22.6624,94.8302 23.5999,94.5177 23.5999,94.5177 23.9124,94.5177 23.9124,94.5177 24.8499,94.8302 24.8499,94.8302 25.4749,95.4552 25.4749,95.4552 25.7874,96.7052 25.7874,96.7052 25.7874,98.2677 25.7874,98.2677 25.4749,99.8302 25.4749,99.8302 24.8499,100.7677 24.8499,100.7677 23.9124,101.0802 23.9124,101.0802 23.2874,101.0802 23.2874,101.0802 22.3499,100.7677 22.3499,100.7677 22.0374,100.1427"/>
    <polyline points="35.9203,103.9961 35.9203,113.3711 35.9203,113.3711 36.5453,115.2461 36.5453,115.2461 37.7953,116.4961 37.7953,116.4961 39.6703,117.1211 39.6703,117.1211 40.9203,117.1211 40.9203,117.1211 42.7953,116.4961 42.7953,116.4961 44.0453,115.2461 44.0453,115.2461 44.6703,113.3711 44.6703,113.3711 44.6703,103.9961"/>
    <line x1="78.0906" x2="78.0906" y1="103.9961" y2="117.1211"/>
    <line x1="114.0108" x2="114.0108" y1="103.9961" y2="117.1211"/>
    <line x1="109.6358" x2="118.3858" y1="103.9961" y2="103.9961"/>
    <polyline points="149.9311,103.9961 149.9311,117.1211 149.9311,117.1211 157.4311,117.1211"/>
    <line x1="191.4764" x2="191.4764" y1="103.9961" y2="117.1211"/>
    <line x1="224.8967" x2="224.8967" y1="103.9961" y2="117.1211"/>
    <line x1="233.6467" x2="224.8967" y1="103.9961" y2="112.7461"/>
    <line x1="228.0217" x2="233.6467" y1="109.6211" y2="117.1211"/>
    <polyline points="245.6693,130.3937 283.4646,130.3937 283.4646,130.3937 321.2598,130.3937 321.2598,130.3937 321.2598,168.189 321.2598,168.189 359.0551,168.189 359.0551,168.189 359.0551,130.3937 359.0551,130.3937 359.0551,92.5984"/>
    <polyline points="283.4646,130.3937 283.4646,92.5984 283.4646,92.5984 245.6693,92.5984"/>
    <line x1="262.6919" x2="262.6919" y1="103.9961" y2="117.1211"/>
    <line x1="271.4419" x2="262.6919" y1="103.9961" y2="112.7461"/>
    <line x1="265.8169" x2="271.4419" y1="109.6211" y2="117.1211"/>
    <polyline points="359.0551,130.3937 321.2598,130.3937 321.2598,130.3937 321.2598,92.5984 321.2598,92.5984 283.4646,92.5984"/>
    <polyline points="308.9247,103.9961 300.7997,103.9961 300.7997,103.9961 300.7997,117.1211 300.7997,117.1211 308.9247,117.1211"/>
    <line x1="300.7997" x2="305.7997" y1="110.2461" y2="110.2461"/>
    <polyline points="347.0325,103.9961 347.0325,117.1211 347.0325,117.1211 338.2825,103.9961 338.2825,103.9961 338.2825,117.1211"/>
    <line x1="565.0541" x2="565.0541" y1="103.9961" y2="117.1211"/>
    <line x1="573.8041" x2="565.0541" y1="103.9961" y2="112.7461"/>
    <line x1="568.1791" x2="573.8041" y1="109.6211" y2="117.1211"/>
    <line x1="661.4173" x2="699.2126" y1="130.3937" y2="130.3937"/>
    <polyline points="678.44,110.2461 684.065,110.2461 684.065,110.2461 685.94,109.6211 685.94,109.6211 686.565,108.9961 686.565,108.9961 687.19,107.7461 687.19,107.7461 687.19,106.4961 687.19,106.4961 686.565,105.2461 686.565,105.2461 685.94,104.6211 685.94,104.6211 684.065,103.9961 684.065,103.9961 678.44,103.9961 678.44,103.9961 678.44,117.1211"/>
    <line x1="682.815" x2="687.19" y1="110.2461" y2="117.1211"/>
    <line x1="38.4203" x2="38.4203" y1="141.7913" y2="154.9163"/>
    <line x1="34.0453" x2="42.7953" y1="141.7913" y2="141.7913"/>
    <line x1="94.4882" x2="132.2835" y1="168.189" y2="168.189"/>
    <polyline points="119.9483,141.7913 111.8233,141.7913 111.8233,141.7913 111.8233,154.9163 111.8233,154.9163 119.9483,154.9163"/>
    <line x1="111.8233" x2="116.8233" y1="148.0413" y2="148.0413"/>
    <polyline points="187.1014,148.6663 192.7264,148.6663 192.7264,148.6663 194.6014,148.0413 194.6014,148.0413 195.2264,147.4163 195.2264,147.4163 195.8514,146.1663 195.8514,146.1663 195.8514,144.2913 195.8514,144.2913 195.2264,143.0413 195.2264,143.0413 194.6014,142.4163 194.6014,142.4163 192.7264,141.7913 192.7264,141.7913 187.1014,141.7913 187.1014,141.7913 187.1014,154.9163"/>
    <polygon points="338.2825,141.7913 338.2825,154.9163 338.2825,154.9163 342.6575,154.9163 342.6575,154.9163 344.5325,154.2913 344.5325,154.2913 345.7825,153.0413 345.7825,153.0413 346.4075,151.7913 346.4075,151.7913 347.0325,149.9163 347.0325,149.9163 347.0325,146.7913 347.0325,146.7913 346.4075,144.9163 346.4075,144.9163 345.7825,143.6663 345.7825,143.6663 344.5325,142.4163 344.5325,142.4163 342.6575,141.7913 342.6575,141.7913"/>
    <polyline points="548.0315,130.3937 548.0315,168.189 548.0315,168.189 510.2362,168.189 510.2362,168.189 472.4409,168.189 472.4409,168.189 434.6457,168.189 434.6457,168.189 396.8504,168.189 396.8504,168.189 359.0551,168.189 359.0551,168.189 359.0551,205.9843 359.0551,205.9843 396.8504,205.9843 396.8504,205.9843 396.8504,168.189"/>
    <polyline points="585.8268,168.189 585.8268,205.9843 585.8268,205.9843 548.0315,205.9843 548.0315,205.9843 548.0315,168.189 548.0315,168.189 585.8268,168.189 585.8268,168.189 585.8268,130.3937"/>
    <line x1="565.0541" x2="565.0541" y1="141.7913" y2="154.9163"/>
    <line x1="573.8041" x2="565.0541" y1="141.7913" y2="150.5413"/>
    <line x1="568.1791" x2="573.8041" y1="147.4163" y2="154.9163"/>
    <line x1="661.4173" x2="699.2126" y1="168.189" y2="168.189"/>
    <line x1="680.94" x2="680.94" y1="141.7913" y2="154.9163"/>
    <line x1="676.565" x2="685.315" y1="141.7913" y2="141.7913"/>
    <polygon points="737.0079,130.3937 737.0079,168.189 737.0079,168.189 774.8031,168.189 774.8031,168.189 774.8031,130.3937 774.8031,130.3937"/>
    <polyline points="740.7726,133.563 741.3976,133.2505 741.3976,133.2505 742.3351,132.313 742.3351,132.313 742.3351,138.8755"/>
    <polygon points="747.9601,132.313 747.0226,132.6255 747.0226,132.6255 746.3976,133.563 746.3976,133.563 746.0851,135.1255 746.0851,135.1255 746.0851,136.063 746.0851,136.063 746.3976,137.6255 746.3976,137.6255 747.0226,138.563 747.0226,138.563 747.9601,138.8755 747.9601,138.8755 748.5851,138.8755 748.5851,138.8755 749.5226,138.563 749.5226,138.563 750.1476,137.6255 750.1476,137.6255 750.4601,136.063 750.4601,136.063 750.4601,135.1255 750.4601,135.1255 750.1476,133.563 750.1476,133.563 749.5226,132.6255 749.5226,132.6255 748.5851,132.313 748.5851,132.313"/>
    <polyline points="762.468,144.9163 761.843,143.6663 761.843,143.6663 760.593,142.4163 760.593,142.4163 759.343,141.7913 759.343,141.7913 756.843,141.7913 756.843,141.7913 755.593,142.4163 755.593,142.4163 754.343,143.6663 754.343,143.6663 753.718,144.9163 753.718,144.9163 753.093,146.7913 753.093,146.7913 753.093,149.9163 753.093,149.9163 753.718,151.7913 753.718,151.7913 754.343,153.0413 754.343,153.0413 755.593,154.2913 755.593,154.2913 756.843,154.9163 756.843,154.9163 759.343,154.9163 759.343,154.9163 760.593,154.2913 760.593,154.2913 761.843,153.0413 761.843,153.0413 762.468,151.7913"/>
    <polyline points="18.8976,168.189 18.8976,205.9843 18.8976,205.9843 56.6929,205.9843 56.6929,205.9843 56.6929,168.189"/>
    <polyline points="44.3578,179.5866 36.2328,179.5866 36.2328,179.5866 36.2328,192.7116 36.2328,192.7116 44.3578,192.7116"/>
    <line x1="36.2328" x2="41.2328" y1="185.8366" y2="185.8366"/>
    <polyline points="111.5108,185.8366 117.1358,185.8366 117.1358,185.8366 119.0108,185.2116 119.0108,185.2116 119.6358,184.5866 119.6358,184.5866 120.2608,183.3366 120.2608,183.3366 120.2608,182.0866 120.2608,182.0866 119.6358,180.8366 119.6358,180.8366 119.0108,180.2116 119.0108,180.2116 117.1358,179.5866 117.1358,179.5866 111.5108,179.5866 111.5108,179.5866 111.5108,192.7116"/>
    <line x1="115.8858" x2="120.2608" y1="185.8366" y2="192.7116"/>
    <line x1="191.4764" x2="191.4764" y1="179.5866" y2="192.7116"/>
    <polygon points="245.6693,168.189 245.6693,205.9843 245.6693,205.9843 283.4646,205.9843 283.4646,205.9843 283.4646,168.189 283.4646,168.189"/>
    <polyline points="249.4341,171.3583 250.0591,171.0458 250.0591,171.0458 250.9966,170.1083 250.9966,170.1083 250.9966,176.6708"/>
    <polyline points="255.6841,171.3583 256.3091,171.0458 256.3091,171.0458 257.2466,170.1083 257.2466,170.1083 257.2466,176.6708"/>
    <line x1="262.6919" x2="262.6919" y1="179.5866" y2="192.7116"/>
    <line x1="271.4419" x2="262.6919" y1="179.5866" y2="188.3366"/>
    <line x1="265.8169" x2="271.4419" y1="185.2116" y2="192.7116"/>
    <polyline points="283.4646,205.9843 321.2598,205.9843 321.2598,205.9843 359.0551,205.9843 359.0551,205.9843 359.0551,243.7795 359.0551,243.7795 321.2598,243.7795 321.2598,243.7795 321.2598,205.9843 321.2598,205.9843 321.2598,168.189 321.2598,168.189 283.4646,168.189"/>
    <polyline points="301.1122,179.5866 301.1122,192.7116 301.1122,192.7116 308.6122,192.7116"/>
    <polyline points="345.7825,192.7116 340.7825,179.5866 340.7825,179.5866 335.7825,192.7116"/>
    <line x1="337.6575" x2="343.9075" y1="188.3366" y2="188.3366"/>
    <polyline points="373.5778,179.5866 378.5778,192.7116 378.5778,192.7116 383.5778,179.5866"/>
    <polyline points="396.8504,205.9843 434.6457,205.9843 434.6457,205.9843 434.6457,168.189"/>
    <polyline points="422.3105,179.5866 414.1855,179.5866 414.1855,179.5866 414.1855,192.7116 414.1855,192.7116 422.3105,192.7116"/>
    <line x1="414.1855" x2="419.1855" y1="185.8366" y2="185.8366"/>
    <polyline points="434.6457,205.9843 472.4409,205.9843 472.4409,205.9843 472.4409,168.189"/>
    <polyline points="451.6683,185.8366 457.2933,185.8366 457.2933,185.8366 459.1683,185.2116 459.1683,185.2116 459.7933,184.5866 459.7933,184.5866 460.4183,183.3366 460.4183,183.3366 460.4183,182.0866 460.4183,182.0866 459.7933,180.8366 459.7933,180.8366 459.1683,180.2116 459.1683,180.2116 457.2933,179.5866 457.2933,179.5866 451.6683,179.5866 451.6683,179.5866 451.6683,192.7116"/>
    <line x1="456.0433" x2="460.4183" y1="185.8366" y2="192.7116"/>
    <polyline points="472.4409,205.9843 510.2362,205.9843 510.2362,205.9843 548.0315,205.9843 548.0315,205.9843 548.0315,243.7795 548.0315,243.7795 585.8268,243.7795 585.8268,243.7795 585.8268,205.9843"/>
    <line x1="510.2362" x2="510.2362" y1="205.9843" y2="168.189"/>
    <line x1="491.9636" x2="491.9636" y1="179.5866" y2="192.7116"/>
    <line x1="487.5886" x2="496.3386" y1="179.5866" y2="179.5866"/>
    <polyline points="533.5089,179.5866 533.5089,189.5866 533.5089,189.5866 532.8839,191.4616 532.8839,191.4616 532.2589,192.0866 532.2589,192.0866 531.0089,192.7116 531.0089,192.7116 529.7589,192.7116 529.7589,192.7116 528.5089,192.0866 528.5089,192.0866 527.8839,191.4616 527.8839,191.4616 527.2589,189.5866 527.2589,189.5866 527.2589,188.3366"/>
    <polyline points="573.4916,179.5866 565.3666,179.5866 565.3666,179.5866 565.3666,192.7116 565.3666,192.7116 573.4916,192.7116"/>
    <line x1="565.3666" x2="570.3666" y1="185.8366" y2="185.8366"/>
    <line x1="661.4173" x2="699.2126" y1="205.9843" y2="205.9843"/>
    <polyline points="684.69,179.5866 684.69,189.5866 684.69,189.5866 684.065,191.4616 684.065,191.4616 683.44,192.0866 683.44,192.0866 682.19,192.7116 682.19,192.7116 680.94,192.7116 680.94,192.7116 679.69,192.0866 679.69,192.0866 679.065,191.4616 679.065,191.4616 678.44,189.5866 678.44,189.5866 678.44,188.3366"/>
    <polyline points="737.0079,168.189 737.0079,205.9843 737.0079,205.9843 774.8031,205.9843 774.8031,205.9843 774.8031,168.189"/>
    <polyline points="762.468,179.5866 754.343,179.5866 754.343,179.5866 754.343,192.7116 754.343,192.7116 762.468,192.7116"/>
    <line x1="754.343" x2="759.343" y1="185.8366" y2="185.8366"/>
    <polyline points="18.8976,205.9843 18.8976,243.7795 18.8976,243.7795 56.6929,243.7795 56.6929,243.7795 56.6929,205.9843"/>
    <polyline points="35.9203,223.6319 41.5453,223.6319 41.5453,223.6319 43.4203,223.0069 43.4203,223.0069 44.0453,222.3819 44.0453,222.3819 44.6703,221.1319 44.6703,221.1319 44.6703,219.8819 44.6703,219.8819 44.0453,218.6319 44.0453,218.6319 43.4203,218.0069 43.4203,218.0069 41.5453,217.3819 41.5453,217.3819 35.9203,217.3819 35.9203,217.3819 35.9203,230.5069"/>
    <line x1="40.2953" x2="44.6703" y1="223.6319" y2="230.5069"/>
    <polyline points="338.2825,223.6319 343.9075,223.6319 343.9075,223.6319 345.7825,223.0069 345.7825,223.0069 346.4075,222.3819 346.4075,222.3819 347.0325,221.1319 347.0325,221.1319 347.0325,219.8819 347.0325,219.8819 346.4075,218.6319 346.4075,218.6319 345.7825,218.0069 345.7825,218.0069 343.9075,217.3819 343.9075,217.3819 338.2825,217.3819 338.2825,217.3819 338.2825,230.5069"/>
    <line x1="342.6575" x2="347.0325" y1="223.6319" y2="230.5069"/>
    <polyline points="565.0541,223.6319 570.6791,223.6319 570.6791,223.6319 572.5541,223.0069 572.5541,223.0069 573.1791,222.3819 573.1791,222.3819 573.8041,221.1319 573.8041,221.1319 573.8041,219.8819 573.8041,219.8819 573.1791,218.6319 573.1791,218.6319 572.5541,218.0069 572.5541,218.0069 570.6791,217.3819 570.6791,217.3819 565.0541,217.3819 565.0541,217.3819 565.0541,230.5069"/>
    <line x1="569.4291" x2="573.8041" y1="223.6319" y2="230.5069"/>
    <polyline points="686.8775,217.3819 678.7525,217.3819 678.7525,217.3819 678.7525,230.5069 678.7525,230.5069 686.8775,230.5069"/>
    <line x1="678.7525" x2="683.7525" y1="223.6319" y2="223.6319"/>
    <polyline points="737.0079,205.9843 737.0079,243.7795 737.0079,243.7795 774.8031,243.7795 774.8031,243.7795 774.8031,205.9843"/>
    <polyline points="762.7805,217.3819 762.7805,230.5069 762.7805,230.5069 754.0305,217.3819 754.0305,217.3819 754.0305,230.5069"/>
    <polygon points="56.6929,243.7795 56.6929,281.5748 56.6929,281.5748 94.4882,281.5748 94.4882,281.5748 94.4882,243.7795 94.4882,243.7795"/>
    <polyline points="60.4577,246.9488 61.0827,246.6363 61.0827,246.6363 62.0202,245.6988 62.0202,245.6988 62.0202,252.2613"/>
    <polyline points="66.0827,247.2613 66.0827,246.9488 66.0827,246.9488 66.3952,246.3238 66.3952,246.3238 66.7077,246.0113 66.7077,246.0113 67.3327,245.6988 67.3327,245.6988 68.5827,245.6988 68.5827,245.6988 69.2077,246.0113 69.2077,246.0113 69.5202,246.3238 69.5202,246.3238 69.8327,246.9488 69.8327,246.9488 69.8327,247.5738 69.8327,247.5738 69.5202,248.1988 69.5202,248.1988 68.8952,249.1363 68.8952,249.1363 65.7702,252.2613 65.7702,252.2613 70.1452,252.2613"/>
    <polyline points="73.7156,261.4272 79.3406,261.4272 79.3406,261.4272 81.2156,260.8022 81.2156,260.8022 81.8406,260.1772 81.8406,260.1772 82.4656,258.9272 82.4656,258.9272 82.4656,257.6772 82.4656,257.6772 81.8406,256.4272 81.8406,256.4272 81.2156,255.8022 81.2156,255.8022 79.3406,255.1772 79.3406,255.1772 73.7156,255.1772 73.7156,255.1772 73.7156,268.3022"/>
    <line x1="78.0906" x2="82.4656" y1="261.4272" y2="268.3022"/>
    <polyline points="94.4882,281.5748 132.2835,281.5748 132.2835,281.5748 132.2835,243.7795 132.2835,243.7795 94.4882,243.7795"/>
    <polyline points="119.9483,255.1772 111.8233,255.1772 111.8233,255.1772 111.8233,268.3022 111.8233,268.3022 119.9483,268.3022"/>
    <line x1="111.8233" x2="116.8233" y1="261.4272" y2="261.4272"/>
    <polyline points="132.2835,281.5748 170.0787,281.5748 170.0787,281.5748 170.0787,243.7795 170.0787,243.7795 132.2835,243.7795"/>
    <polyline points="157.7436,258.3022 157.1186,257.0522 157.1186,257.0522 155.8686,255.8022 155.8686,255.8022 154.6186,255.1772 154.6186,255.1772 152.1186,255.1772 152.1186,255.1772 150.8686,255.8022 150.8686,255.8022 149.6186,257.0522 149.6186,257.0522 148.9936,258.3022 148.9936,258.3022 148.3686,260.1772 148.3686,260.1772 148.3686,263.3022 148.3686,263.3022 148.9936,265.1772 148.9936,265.1772 149.6186,266.4272 149.6186,266.4272 150.8686,267.6772 150.8686,267.6772 152.1186,268.3022 152.1186,268.3022 154.6186,268.3022 154.6186,268.3022 155.8686,267.6772 155.8686,267.6772 157.1186,266.4272 157.1186,266.4272 157.7436,265.1772 157.7436,265.1772 157.7436,263.3022 157.7436,263.3022 154.6186,263.3022"/>
    <polyline points="170.0787,281.5748 207.874,281.5748 207.874,281.5748 207.874,243.7795 207.874,243.7795 170.0787,243.7795"/>
    <polyline points="195.5389,255.1772 187.4139,255.1772 187.4139,255.1772 187.4139,268.3022 187.4139,268.3022 195.5389,268.3022"/>
    <line x1="187.4139" x2="192.4139" y1="261.4272" y2="261.4272"/>
    <polyline points="207.874,281.5748 245.6693,281.5748 245.6693,281.5748 245.6693,243.7795 245.6693,243.7795 207.874,243.7795"/>
    <polyline points="233.6467,255.1772 233.6467,268.3022 233.6467,268.3022 224.8967,255.1772 224.8967,255.1772 224.8967,268.3022"/>
    <polyline points="245.6693,281.5748 283.4646,281.5748 283.4646,281.5748 321.2598,281.5748 321.2598,281.5748 321.2598,243.7795 321.2598,243.7795 283.4646,243.7795 283.4646,243.7795 245.6693,243.7795"/>
    <line x1="283.4646" x2="283.4646" y1="281.5748" y2="243.7795"/>
    <polygon points="262.6919,255.1772 262.6919,268.3022 262.6919,268.3022 268.3169,268.3022 268.3169,268.3022 270.1919,267.6772 270.1919,267.6772 270.8169,267.0522 270.8169,267.0522 271.4419,265.8022 271.4419,265.8022 271.4419,263.9272 271.4419,263.9272 270.8169,262.6772 270.8169,262.6772 270.1919,262.0522 270.1919,262.0522 268.3169,261.4272 268.3169,261.4272 270.1919,260.8022 270.1919,260.8022 270.8169,260.1772 270.8169,260.1772 271.4419,258.9272 271.4419,258.9272 271.4419,257.6772 271.4419,257.6772 270.8169,256.4272 270.8169,256.4272 270.1919,255.8022 270.1919,255.8022 268.3169,255.1772 268.3169,255.1772"/>
    <line x1="262.6919" x2="268.3169" y1="261.4272" y2="261.4272"/>
    <polyline points="300.4872,255.1772 300.4872,264.5522 300.4872,264.5522 301.1122,266.4272 301.1122,266.4272 302.3622,267.6772 302.3622,267.6772 304.2372,268.3022 304.2372,268.3022 305.4872,268.3022 305.4872,268.3022 307.3622,267.6772 307.3622,267.6772 308.6122,266.4272 308.6122,266.4272 309.2372,264.5522 309.2372,264.5522 309.2372,255.1772"/>
    <polyline points="170.0787,319.3701 170.0787,357.1654 170.0787,357.1654 132.2835,357.1654 132.2835,357.1654 94.4882,357.1654 94.4882,357.1654 56.6929,357.1654 56.6929,357.1654 56.6929,319.3701 56.6929,319.3701 94.4882,319.3701 94.4882,319.3701 132.2835,319.3701 132.2835,319.3701 170.0787,319.3701 170.0787,319.3701 207.874,319.3701 207.874,319.3701 245.6693,319.3701 245.6693,319.3701 283.4646,319.3701 283.4646,319.3701 321.2598,319.3701 321.2598,319.3701 321.2598,281.5748 321.2598,281.5748 359.0551,281.5748 359.0551,281.5748 359.0551,243.7795"/>
    <line x1="342.6575" x2="342.6575" y1="255.1772" y2="268.3022"/>
    <polygon points="396.8504,243.7795 396.8504,281.5748 396.8504,281.5748 434.6457,281.5748 434.6457,281.5748 434.6457,243.7795 434.6457,243.7795"/>
    <polyline points="400.6152,246.9488 401.2402,246.6363 401.2402,246.6363 402.1777,245.6988 402.1777,245.6988 402.1777,252.2613"/>
    <polyline points="406.5527,245.6988 409.9902,245.6988 409.9902,245.6988 408.1152,248.1988 408.1152,248.1988 409.0527,248.1988 409.0527,248.1988 409.6777,248.5113 409.6777,248.5113 409.9902,248.8238 409.9902,248.8238 410.3027,249.7613 410.3027,249.7613 410.3027,250.3863 410.3027,250.3863 409.9902,251.3238 409.9902,251.3238 409.3652,251.9488 409.3652,251.9488 408.4277,252.2613 408.4277,252.2613 407.4902,252.2613 407.4902,252.2613 406.5527,251.9488 406.5527,251.9488 406.2402,251.6363 406.2402,251.6363 405.9277,251.0113"/>
    <polyline points="422.3105,255.1772 414.1855,255.1772 414.1855,255.1772 414.1855,268.3022"/>
    <line x1="414.1855" x2="419.1855" y1="261.4272" y2="261.4272"/>
    <polyline points="434.6457,281.5748 472.4409,281.5748 472.4409,281.5748 510.2362,281.5748 510.2362,281.5748 548.0315,281.5748 548.0315,281.5748 548.0315,319.3701 548.0315,319.3701 510.2362,319.3701 510.2362,319.3701 472.4409,319.3701 472.4409,319.3701 472.4409,357.1654 472.4409,357.1654 510.2362,357.1654 510.2362,357.1654 548.0315,357.1654 548.0315,357.1654 585.8268,357.1654 585.8268,357.1654 585.8268,319.3701 585.8268,319.3701 585.8268,281.5748 585.8268,281.5748 585.8268,243.7795 585.8268,243.7795 623.622,243.7795 623.622,243.7795 623.622,281.5748 623.622,281.5748 661.4173,281.5748 661.4173,281.5748 661.4173,243.7795 661.4173,243.7795 623.622,243.7795"/>
    <polyline points="472.4409,281.5748 472.4409,243.7795 472.4409,243.7795 434.6457,243.7795"/>
    <polyline points="451.6683,261.4272 457.2933,261.4272 457.2933,261.4272 459.1683,260.8022 459.1683,260.8022 459.7933,260.1772 459.7933,260.1772 460.4183,258.9272 460.4183,258.9272 460.4183,257.6772 460.4183,257.6772 459.7933,256.4272 459.7933,256.4272 459.1683,255.8022 459.1683,255.8022 457.2933,255.1772 457.2933,255.1772 451.6683,255.1772 451.6683,255.1772 451.6683,268.3022"/>
    <line x1="456.0433" x2="460.4183" y1="261.4272" y2="268.3022"/>
    <polyline points="510.2362,281.5748 510.2362,243.7795 510.2362,243.7795 472.4409,243.7795"/>
    <line x1="493.8386" x2="493.8386" y1="255.1772" y2="268.3022"/>
    <polyline points="623.622,281.5748 585.8268,281.5748 585.8268,281.5748 548.0315,281.5748 548.0315,281.5748 548.0315,243.7795 548.0315,243.7795 510.2362,243.7795"/>
    <polyline points="535.6964,255.1772 527.5714,255.1772 527.5714,255.1772 527.5714,268.3022 527.5714,268.3022 535.6964,268.3022"/>
    <line x1="527.5714" x2="532.5714" y1="261.4272" y2="261.4272"/>
    <line x1="567.5541" x2="567.5541" y1="255.1772" y2="268.3022"/>
    <line x1="563.1791" x2="571.9291" y1="255.1772" y2="255.1772"/>
    <polyline points="609.0994,255.1772 609.0994,265.1772 609.0994,265.1772 608.4744,267.0522 608.4744,267.0522 607.8494,267.6772 607.8494,267.6772 606.5994,268.3022 606.5994,268.3022 605.3494,268.3022 605.3494,268.3022 604.0994,267.6772 604.0994,267.6772 603.4744,267.0522 603.4744,267.0522 602.8494,265.1772 602.8494,265.1772 602.8494,263.9272"/>
    <polyline points="649.0822,255.1772 640.9572,255.1772 640.9572,255.1772 640.9572,268.3022 640.9572,268.3022 649.0822,268.3022"/>
    <line x1="640.9572" x2="645.9572" y1="261.4272" y2="261.4272"/>
    <polyline points="661.4173,281.5748 699.2126,281.5748 699.2126,281.5748 699.2126,243.7795"/>
    <polyline points="686.565,257.0522 685.315,255.8022 685.315,255.8022 683.44,255.1772 683.44,255.1772 680.94,255.1772 680.94,255.1772 679.065,255.8022 679.065,255.8022 677.815,257.0522 677.815,257.0522 677.815,258.3022 677.815,258.3022 678.44,259.5522 678.44,259.5522 679.065,260.1772 679.065,260.1772 680.315,260.8022 680.315,260.8022 684.065,262.0522 684.065,262.0522 685.315,262.6772 685.315,262.6772 685.94,263.3022 685.94,263.3022 686.565,264.5522 686.565,264.5522 686.565,266.4272 686.565,266.4272 685.315,267.6772 685.315,267.6772 683.44,268.3022 683.44,268.3022 680.94,268.3022 680.94,268.3022 679.065,267.6772 679.065,267.6772 677.815,266.4272"/>
    <polyline points="737.0079,243.7795 737.0079,281.5748 737.0079,281.5748 737.0079,319.3701 737.0079,319.3701 774.8031,319.3701 774.8031,319.3701 774.8031,281.5748 774.8031,281.5748 774.8031,243.7795"/>
    <line x1="737.0079" x2="774.8031" y1="281.5748" y2="281.5748"/>
    <line x1="756.5305" x2="756.5305" y1="255.1772" y2="268.3022"/>
    <line x1="752.1555" x2="760.9055" y1="255.1772" y2="255.1772"/>
    <polygon points="321.2598,319.3701 359.0551,319.3701 359.0551,319.3701 359.0551,281.5748 359.0551,281.5748 396.8504,281.5748 396.8504,281.5748 396.8504,319.3701 396.8504,319.3701 359.0551,319.3701 359.0551,319.3701 359.0551,357.1654 359.0551,357.1654 321.2598,357.1654 321.2598,357.1654"/>
    <polyline points="325.0246,284.7441 325.6496,284.4316 325.6496,284.4316 326.5871,283.4941 326.5871,283.4941 326.5871,290.0566"/>
    <polyline points="333.4621,290.0566 333.4621,283.4941 333.4621,283.4941 330.3371,287.8691 330.3371,287.8691 335.0246,287.8691"/>
    <polyline points="344.5325,292.9724 344.5325,302.9724 344.5325,302.9724 343.9075,304.8474 343.9075,304.8474 343.2825,305.4724 343.2825,305.4724 342.0325,306.0974 342.0325,306.0974 340.7825,306.0974 340.7825,306.0974 339.5325,305.4724 339.5325,305.4724 338.9075,304.8474 338.9075,304.8474 338.2825,302.9724 338.2825,302.9724 338.2825,301.7224"/>
    <polyline points="383.5778,306.0974 378.5778,292.9724 378.5778,292.9724 373.5778,306.0974"/>
    <line x1="375.4528" x2="381.7028" y1="301.7224" y2="301.7224"/>
    <polyline points="548.0315,357.1654 548.0315,319.3701 548.0315,319.3701 585.8268,319.3701 585.8268,319.3701 623.622,319.3701 623.622,319.3701 623.622,357.1654 623.622,357.1654 661.4173,357.1654 661.4173,357.1654 699.2126,357.1654 699.2126,357.1654 699.2126,319.3701 699.2126,319.3701 661.4173,319.3701 661.4173,319.3701 623.622,319.3701"/>
    <polyline points="571.3041,292.9724 571.3041,302.9724 571.3041,302.9724 570.6791,304.8474 570.6791,304.8474 570.0541,305.4724 570.0541,305.4724 568.8041,306.0974 568.8041,306.0974 567.5541,306.0974 567.5541,306.0974 566.3041,305.4724 566.3041,305.4724 565.6791,304.8474 565.6791,304.8474 565.0541,302.9724 565.0541,302.9724 565.0541,301.7224"/>
    <polyline points="760.2805,292.9724 760.2805,302.9724 760.2805,302.9724 759.6555,304.8474 759.6555,304.8474 759.0305,305.4724 759.0305,305.4724 757.7805,306.0974 757.7805,306.0974 756.5305,306.0974 756.5305,306.0974 755.2805,305.4724 755.2805,305.4724 754.6555,304.8474 754.6555,304.8474 754.0305,302.9724 754.0305,302.9724 754.0305,301.7224"/>
    <line x1="94.4882" x2="94.4882" y1="357.1654" y2="319.3701"/>
    <polyline points="60.4577,322.5394 61.0827,322.2269 61.0827,322.2269 62.0202,321.2894 62.0202,321.2894 62.0202,327.8519"/>
    <polyline points="69.5202,321.2894 66.3952,321.2894 66.3952,321.2894 66.0827,324.1019 66.0827,324.1019 66.3952,323.7894 66.3952,323.7894 67.3327,323.4769 67.3327,323.4769 68.2702,323.4769 68.2702,323.4769 69.2077,323.7894 69.2077,323.7894 69.8327,324.4144 69.8327,324.4144 70.1452,325.3519 70.1452,325.3519 70.1452,325.9769 70.1452,325.9769 69.8327,326.9144 69.8327,326.9144 69.2077,327.5394 69.2077,327.5394 68.2702,327.8519 68.2702,327.8519 67.3327,327.8519 67.3327,327.8519 66.3952,327.5394 66.3952,327.5394 66.0827,327.2269 66.0827,327.2269 65.7702,326.6019"/>
    <polyline points="73.7156,337.6427 79.3406,337.6427 79.3406,337.6427 81.2156,337.0177 81.2156,337.0177 81.8406,336.3927 81.8406,336.3927 82.4656,335.1427 82.4656,335.1427 82.4656,333.2677 82.4656,333.2677 81.8406,332.0177 81.8406,332.0177 81.2156,331.3927 81.2156,331.3927 79.3406,330.7677 79.3406,330.7677 73.7156,330.7677 73.7156,330.7677 73.7156,343.8927"/>
    <line x1="132.2835" x2="132.2835" y1="357.1654" y2="319.3701"/>
    <polyline points="119.0108,343.8927 114.0108,330.7677 114.0108,330.7677 109.0108,343.8927"/>
    <line x1="110.8858" x2="117.1358" y1="339.5177" y2="339.5177"/>
    <polyline points="149.3061,337.0177 154.9311,337.0177 154.9311,337.0177 156.8061,336.3927 156.8061,336.3927 157.4311,335.7677 157.4311,335.7677 158.0561,334.5177 158.0561,334.5177 158.0561,333.2677 158.0561,333.2677 157.4311,332.0177 157.4311,332.0177 156.8061,331.3927 156.8061,331.3927 154.9311,330.7677 154.9311,330.7677 149.3061,330.7677 149.3061,330.7677 149.3061,343.8927"/>
    <line x1="153.6811" x2="158.0561" y1="337.0177" y2="343.8927"/>
    <polyline points="170.0787,357.1654 207.874,357.1654 207.874,357.1654 245.6693,357.1654 245.6693,357.1654 245.6693,319.3701"/>
    <line x1="207.874" x2="207.874" y1="357.1654" y2="319.3701"/>
    <line x1="187.1014" x2="187.1014" y1="330.7677" y2="343.8927"/>
    <line x1="195.8514" x2="187.1014" y1="330.7677" y2="339.5177"/>
    <line x1="190.2264" x2="195.8514" y1="336.3927" y2="343.8927"/>
    <polyline points="233.3342,330.7677 225.2092,330.7677 225.2092,330.7677 225.2092,343.8927 225.2092,343.8927 233.3342,343.8927"/>
    <line x1="225.2092" x2="230.2092" y1="337.0177" y2="337.0177"/>
    <polyline points="245.6693,357.1654 283.4646,357.1654 283.4646,357.1654 321.2598,357.1654"/>
    <line x1="283.4646" x2="283.4646" y1="357.1654" y2="319.3701"/>
    <polyline points="262.6919,337.0177 268.3169,337.0177 268.3169,337.0177 270.1919,336.3927 270.1919,336.3927 270.8169,335.7677 270.8169,335.7677 271.4419,334.5177 271.4419,334.5177 271.4419,333.2677 271.4419,333.2677 270.8169,332.0177 270.8169,332.0177 270.1919,331.3927 270.1919,331.3927 268.3169,330.7677 268.3169,330.7677 262.6919,330.7677 262.6919,330.7677 262.6919,343.8927"/>
    <line x1="267.0669" x2="271.4419" y1="337.0177" y2="343.8927"/>
    <polyline points="308.9247,330.7677 300.7997,330.7677 300.7997,330.7677 300.7997,343.8927 300.7997,343.8927 308.9247,343.8927"/>
    <line x1="300.7997" x2="305.7997" y1="337.0177" y2="337.0177"/>
    <polyline points="347.0325,330.7677 347.0325,343.8927 347.0325,343.8927 338.2825,330.7677 338.2825,330.7677 338.2825,343.8927"/>
    <line x1="510.2362" x2="510.2362" y1="357.1654" y2="319.3701"/>
    <polyline points="476.2057,322.5394 476.8307,322.2269 476.8307,322.2269 477.7682,321.2894 477.7682,321.2894 477.7682,327.8519"/>
    <polyline points="485.5807,322.2269 485.2682,321.6019 485.2682,321.6019 484.3307,321.2894 484.3307,321.2894 483.7057,321.2894 483.7057,321.2894 482.7682,321.6019 482.7682,321.6019 482.1432,322.5394 482.1432,322.5394 481.8307,324.1019 481.8307,324.1019 481.8307,325.6644 481.8307,325.6644 482.1432,326.9144 482.1432,326.9144 482.7682,327.5394 482.7682,327.5394 483.7057,327.8519 483.7057,327.8519 484.0182,327.8519 484.0182,327.8519 484.9557,327.5394 484.9557,327.5394 485.5807,326.9144 485.5807,326.9144 485.8932,325.9769 485.8932,325.9769 485.8932,325.6644 485.8932,325.6644 485.5807,324.7269 485.5807,324.7269 484.9557,324.1019 484.9557,324.1019 484.0182,323.7894 484.0182,323.7894 483.7057,323.7894 483.7057,323.7894 482.7682,324.1019 482.7682,324.1019 482.1432,324.7269 482.1432,324.7269 481.8307,325.6644"/>
    <polyline points="497.5886,332.6427 496.3386,331.3927 496.3386,331.3927 494.4636,330.7677 494.4636,330.7677 491.9636,330.7677 491.9636,330.7677 490.0886,331.3927 490.0886,331.3927 488.8386,332.6427 488.8386,332.6427 488.8386,333.8927 488.8386,333.8927 489.4636,335.1427 489.4636,335.1427 490.0886,335.7677 490.0886,335.7677 491.3386,336.3927 491.3386,336.3927 495.0886,337.6427 495.0886,337.6427 496.3386,338.2677 496.3386,338.2677 496.9636,338.8927 496.9636,338.8927 497.5886,340.1427 497.5886,340.1427 497.5886,342.0177 497.5886,342.0177 496.3386,343.2677 496.3386,343.2677 494.4636,343.8927 494.4636,343.8927 491.9636,343.8927 491.9636,343.8927 490.0886,343.2677 490.0886,343.2677 488.8386,342.0177"/>
    <line x1="527.2589" x2="527.2589" y1="330.7677" y2="343.8927"/>
    <line x1="536.0089" x2="527.2589" y1="330.7677" y2="339.5177"/>
    <line x1="530.3839" x2="536.0089" y1="336.3927" y2="343.8927"/>
    <polyline points="573.4916,330.7677 565.3666,330.7677 565.3666,330.7677 565.3666,343.8927 565.3666,343.8927 573.4916,343.8927"/>
    <line x1="565.3666" x2="570.3666" y1="337.0177" y2="337.0177"/>
    <line x1="585.8268" x2="623.622" y1="357.1654" y2="357.1654"/>
    <polyline points="603.4744,330.7677 603.4744,343.8927 603.4744,343.8927 610.9744,343.8927"/>
    <line x1="661.4173" x2="661.4173" y1="357.1654" y2="319.3701"/>
    <polyline points="641.2697,330.7677 641.2697,343.8927 641.2697,343.8927 648.7697,343.8927"/>
    <polyline points="686.8775,330.7677 678.7525,330.7677 678.7525,330.7677 678.7525,343.8927 678.7525,343.8927 686.8775,343.8927"/>
    <line x1="678.7525" x2="683.7525" y1="337.0177" y2="337.0177"/>
    <polyline points="699.2126,357.1654 737.0079,357.1654 737.0079,357.1654 774.8031,357.1654 774.8031,357.1654 774.8031,319.3701"/>
    <polyline points="737.0079,357.1654 737.0079,319.3701 737.0079,319.3701 699.2126,319.3701"/>
    <line x1="716.2352" x2="716.2352" y1="330.7677" y2="343.8927"/>
    <line x1="724.9852" x2="716.2352" y1="330.7677" y2="339.5177"/>
    <line x1="719.3602" x2="724.9852" y1="336.3927" y2="343.8927"/>
    <polyline points="762.468,330.7677 754.343,330.7677 754.343,330.7677 754.343,343.8927 754.343,343.8927 762.468,343.8927"/>
    <line x1="754.343" x2="759.343" y1="337.0177" y2="337.0177"/>
  </g>
</svg>
