<?xml version="1.0" encoding="utf-8" ?>
<svg xmlns="http://www.w3.org/2000/svg" xmlns:cc="http://creativecommons.org/ns" xmlns:dc="http://purl.org/dc/elements/1.1/" xmlns:ev="http://www.w3.org/2001/xml-events" xmlns:inkscape="http://www.inkscape.org/namespaces/inkscape" xmlns:rdf="http://www.w3.org/1999/02/22-rdf-syntax-ns" xmlns:sodipodi="http://sodipodi.sourceforge.net/DTD/sodipodi-0.dtd" xmlns:xlink="http://www.w3.org/1999/xlink" baseProfile="tiny" height="9.9cm" version="1.2" viewBox="0 0 793.7007874015749 374.1732283464567" width="21.0cm">
  <metadata>
    <rdf:RDF>
      <cc:Work>
        <dc:format>image/svg+xml</dc:format>
        <dc:source>vpype eval 'cell=10;width=210;height=99' eval 'nCols=20;nRows=9' eval 'cells=[4,7,8,9,10,11,12,13,14,15,22,23,24,25,26,30,37,38,39,41,44,48,49,50,51,52,53,54,55,56,59,60,61,62,63,64,65,66,67,70,79,81,84,88,89,90,91,92,93,94,95,96,97,98,99,101,104,110,115,117,119,121,123,124,125,126,127,128,129,130,131,132,133,135,137,139,141,144,150,155,157,159,162,163,164,167,168,169,170,171,172,173,174,175,176,179]' eval 'chars=[&quot;M&quot;,&quot;R&quot;,&quot;E&quot;,&quot;K&quot;,&quot;K&quot;,&quot;E&quot;,&quot;R&quot;,&quot;T&quot;,&quot;J&quot;,&quot;E&quot;,&quot;G&quot;,&quot;R&quot;,&quot;A&quot;,&quot;A&quot;,&quot;T&quot;,&quot;L&quot;,&quot;M&quot;,&quot;O&quot;,&quot;P&quot;,&quot;L&quot;,&quot;N&quot;,&quot;K&quot;,&quot;L&quot;,&quot;A&quot;,&quot;V&quot;,&quot;E&quot;,&quot;R&quot;,&quot;T&quot;,&quot;J&quot;,&quot;E&quot;,&quot;A&quot;,&quot;H&quot;,&quot;A&quot;,&quot;N&quot;,&quot;D&quot;,&quot;D&quot;,&quot;O&quot;,&quot;E&quot;,&quot;K&quot;,&quot;V&quot;,&quot;R&quot;,&quot;K&quot;,&quot;A&quot;,&quot;F&quot;,&quot;L&quot;,&quot;E&quot;,&quot;S&quot;,&quot;S&quot;,&quot;E&quot;,&quot;N&quot;,&quot;G&quot;,&quot;E&quot;,&quot;L&quot;,&quot;U&quot;,&quot;K&quot;,&quot;E&quot;,&quot;R&quot;,&quot;R&quot;,&quot;R&quot;,&quot;I&quot;,&quot;E&quot;,&quot;N&quot;,&quot;M&quot;,&quot;I&quot;,&quot;S&quot;,&quot;V&quot;,&quot;E&quot;,&quot;R&quot;,&quot;S&quot;,&quot;T&quot;,&quot;A&quot;,&quot;N&quot;,&quot;D&quot;,&quot;I&quot;,&quot;F&quot;,&quot;R&quot;,&quot;S&quot;,&quot;J&quot;,&quot;J&quot;,&quot;E&quot;,&quot;T&quot;,&quot;E&quot;,&quot;Z&quot;,&quot;O&quot;,&quot;N&quot;,&quot;G&quot;,&quot;R&quot;,&quot;O&quot;,&quot;E&quot;,&quot;P&quot;,&quot;S&quot;,&quot;F&quot;,&quot;O&quot;,&quot;T&quot;,&quot;O&quot;,&quot;N&quot;]' eval 'numbers=[4,7,10,22,37,39,41,48,60,88,95,97,123,162,167]' eval counter=1 eval charIndex=0 begin grid -o '%cell*mm%' '%cell*mm%' %nCols% %nRows% eval '%isCell=_i in cells%' eval '%number=_i in numbers%' eval '%size=10 if isCell else 0%' rect 0 0 '%size*mm%' '%size*mm%' text -s 10 -p 0.5mm 1.5mm '%counter if number else '&quot;'&quot;''&quot;'&quot;'%' text -s 20 -p 5mm 5mm -a center '%chars[charIndex] if isCell else '&quot;'&quot;''&quot;'&quot;'%' eval '%if number: counter+=1 %' eval '%if isCell: charIndex+=1 %' end splitall deduplicate linemerge --tolerance 0.1mm write -m none --page-size '%width*mm%x%height*mm%' --center ./svgs/solution/ed7c42.svg
</dc:source>
        <dc:date>2024-01-06T16:44:06.549305</dc:date>
      </cc:Work>
    </rdf:RDF>
  </metadata>
  <defs/>
  <g fill="none" id="layer1" inkscape:groupmode="layer" inkscape:label="1" stroke="#000000" style="display:inline">
    <polygon points="170.0787,17.0079 170.0787,54.8031 170.0787,54.8031 207.874,54.8031 207.874,54.8031 207.874,17.0079 207.874,17.0079"/>
    <polyline points="173.8435,20.1772 174.4685,19.8647 174.4685,19.8647 175.406,18.9272 175.406,18.9272 175.406,25.4897"/>
    <polyline points="196.4764,41.5305 196.4764,28.4055 196.4764,28.4055 191.4764,41.5305 191.4764,41.5305 186.4764,28.4055 186.4764,28.4055 186.4764,41.5305"/>
    <polygon points="283.4646,17.0079 283.4646,54.8031 283.4646,54.8031 321.2598,54.8031 321.2598,54.8031 359.0551,54.8031 359.0551,54.8031 396.8504,54.8031 396.8504,54.8031 396.8504,17.0079 396.8504,17.0079 359.0551,17.0079 359.0551,17.0079 321.2598,17.0079 321.2598,17.0079"/>
    <line x1="321.2598" x2="321.2598" y1="54.8031" y2="17.0079"/>
    <polyline points="286.6043,20.4897 286.6043,20.1772 286.6043,20.1772 286.9168,19.5522 286.9168,19.5522 287.2293,19.2397 287.2293,19.2397 287.8543,18.9272 287.8543,18.9272 289.1043,18.9272 289.1043,18.9272 289.7293,19.2397 289.7293,19.2397 290.0418,19.5522 290.0418,19.5522 290.3543,20.1772 290.3543,20.1772 290.3543,20.8022 290.3543,20.8022 290.0418,21.4272 290.0418,21.4272 289.4168,22.3647 289.4168,22.3647 286.2918,25.4897 286.2918,25.4897 290.6668,25.4897"/>
    <polyline points="300.4872,34.6555 306.1122,34.6555 306.1122,34.6555 307.9872,34.0305 307.9872,34.0305 308.6122,33.4055 308.6122,33.4055 309.2372,32.1555 309.2372,32.1555 309.2372,30.9055 309.2372,30.9055 308.6122,29.6555 308.6122,29.6555 307.9872,29.0305 307.9872,29.0305 306.1122,28.4055 306.1122,28.4055 300.4872,28.4055 300.4872,28.4055 300.4872,41.5305"/>
    <line x1="304.8622" x2="309.2372" y1="34.6555" y2="41.5305"/>
    <line x1="359.0551" x2="359.0551" y1="54.8031" y2="17.0079"/>
    <polyline points="346.72,28.4055 338.595,28.4055 338.595,28.4055 338.595,41.5305 338.595,41.5305 346.72,41.5305"/>
    <line x1="338.595" x2="343.595" y1="34.6555" y2="34.6555"/>
    <line x1="376.0778" x2="376.0778" y1="28.4055" y2="41.5305"/>
    <line x1="384.8278" x2="376.0778" y1="28.4055" y2="37.1555"/>
    <line x1="379.2028" x2="384.8278" y1="34.0305" y2="41.5305"/>
    <polyline points="434.6457,17.0079 472.4409,17.0079 472.4409,17.0079 510.2362,17.0079 510.2362,17.0079 510.2362,54.8031 510.2362,54.8031 472.4409,54.8031 472.4409,54.8031 434.6457,54.8031 434.6457,54.8031 434.6457,92.5984 434.6457,92.5984 396.8504,92.5984 396.8504,92.5984 396.8504,54.8031 396.8504,54.8031 434.6457,54.8031 434.6457,54.8031 434.6457,17.0079 434.6457,17.0079 396.8504,17.0079"/>
    <polyline points="400.3027,18.9272 403.7402,18.9272 403.7402,18.9272 401.8652,21.4272 401.8652,21.4272 402.8027,21.4272 402.8027,21.4272 403.4277,21.7397 403.4277,21.7397 403.7402,22.0522 403.7402,22.0522 404.0527,22.9897 404.0527,22.9897 404.0527,23.6147 404.0527,23.6147 403.7402,24.5522 403.7402,24.5522 403.1152,25.1772 403.1152,25.1772 402.1777,25.4897 402.1777,25.4897 401.2402,25.4897 401.2402,25.4897 400.3027,25.1772 400.3027,25.1772 399.9902,24.8647 399.9902,24.8647 399.6777,24.2397"/>
    <line x1="413.873" x2="413.873" y1="28.4055" y2="41.5305"/>
    <line x1="422.623" x2="413.873" y1="28.4055" y2="37.1555"/>
    <line x1="416.998" x2="422.623" y1="34.0305" y2="41.5305"/>
    <line x1="472.4409" x2="472.4409" y1="54.8031" y2="17.0079"/>
    <polyline points="460.1058,28.4055 451.9808,28.4055 451.9808,28.4055 451.9808,41.5305 451.9808,41.5305 460.1058,41.5305"/>
    <line x1="451.9808" x2="456.9808" y1="34.6555" y2="34.6555"/>
    <polyline points="489.4636,34.6555 495.0886,34.6555 495.0886,34.6555 496.9636,34.0305 496.9636,34.0305 497.5886,33.4055 497.5886,33.4055 498.2136,32.1555 498.2136,32.1555 498.2136,30.9055 498.2136,30.9055 497.5886,29.6555 497.5886,29.6555 496.9636,29.0305 496.9636,29.0305 495.0886,28.4055 495.0886,28.4055 489.4636,28.4055 489.4636,28.4055 489.4636,41.5305"/>
    <line x1="493.8386" x2="498.2136" y1="34.6555" y2="41.5305"/>
    <polyline points="510.2362,54.8031 548.0315,54.8031 548.0315,54.8031 548.0315,17.0079 548.0315,17.0079 510.2362,17.0079"/>
    <line x1="529.7589" x2="529.7589" y1="28.4055" y2="41.5305"/>
    <line x1="525.3839" x2="534.1339" y1="28.4055" y2="28.4055"/>
    <polyline points="548.0315,54.8031 585.8268,54.8031 585.8268,54.8031 585.8268,17.0079 585.8268,17.0079 548.0315,17.0079"/>
    <polyline points="571.3041,28.4055 571.3041,38.4055 571.3041,38.4055 570.6791,40.2805 570.6791,40.2805 570.0541,40.9055 570.0541,40.9055 568.8041,41.5305 568.8041,41.5305 567.5541,41.5305 567.5541,41.5305 566.3041,40.9055 566.3041,40.9055 565.6791,40.2805 565.6791,40.2805 565.0541,38.4055 565.0541,38.4055 565.0541,37.1555"/>
    <polyline points="585.8268,54.8031 623.622,54.8031 623.622,54.8031 623.622,17.0079 623.622,17.0079 585.8268,17.0079"/>
    <polyline points="611.2869,28.4055 603.1619,28.4055 603.1619,28.4055 603.1619,41.5305 603.1619,41.5305 611.2869,41.5305"/>
    <line x1="603.1619" x2="608.1619" y1="34.6555" y2="34.6555"/>
    <polygon points="94.4882,54.8031 94.4882,92.5984 94.4882,92.5984 56.6929,92.5984 56.6929,92.5984 56.6929,130.3937 56.6929,130.3937 18.8976,130.3937 18.8976,130.3937 18.8976,168.189 18.8976,168.189 56.6929,168.189 56.6929,168.189 94.4882,168.189 94.4882,168.189 94.4882,130.3937 94.4882,130.3937 94.4882,92.5984 94.4882,92.5984 132.2835,92.5984 132.2835,92.5984 170.0787,92.5984 170.0787,92.5984 207.874,92.5984 207.874,92.5984 207.874,54.8031 207.874,54.8031 245.6693,54.8031 245.6693,54.8031 245.6693,92.5984 245.6693,92.5984 207.874,92.5984 207.874,92.5984 207.874,130.3937 207.874,130.3937 170.0787,130.3937 170.0787,130.3937 132.2835,130.3937 132.2835,130.3937 94.4882,130.3937 94.4882,130.3937 56.6929,130.3937 56.6929,130.3937 56.6929,168.189 56.6929,168.189 56.6929,205.9843 56.6929,205.9843 94.4882,205.9843 94.4882,205.9843 94.4882,168.189 94.4882,168.189 132.2835,168.189 132.2835,168.189 170.0787,168.189 170.0787,168.189 170.0787,205.9843 170.0787,205.9843 170.0787,243.7795 170.0787,243.7795 207.874,243.7795 207.874,243.7795 207.874,205.9843 207.874,205.9843 207.874,168.189 207.874,168.189 245.6693,168.189 245.6693,168.189 245.6693,130.3937 245.6693,130.3937 207.874,130.3937 207.874,130.3937 207.874,168.189 207.874,168.189 170.0787,168.189 170.0787,168.189 170.0787,130.3937 170.0787,130.3937 170.0787,92.5984 170.0787,92.5984 170.0787,54.8031 170.0787,54.8031 132.2835,54.8031 132.2835,54.8031"/>
    <line x1="132.2835" x2="132.2835" y1="92.5984" y2="54.8031"/>
    <polyline points="100.4405,63.2849 100.4405,56.7224 100.4405,56.7224 97.3155,61.0974 97.3155,61.0974 102.003,61.0974"/>
    <polyline points="119.9483,69.3258 119.3233,68.0758 119.3233,68.0758 118.0733,66.8258 118.0733,66.8258 116.8233,66.2008 116.8233,66.2008 114.3233,66.2008 114.3233,66.2008 113.0733,66.8258 113.0733,66.8258 111.8233,68.0758 111.8233,68.0758 111.1983,69.3258 111.1983,69.3258 110.5733,71.2008 110.5733,71.2008 110.5733,74.3258 110.5733,74.3258 111.1983,76.2008 111.1983,76.2008 111.8233,77.4508 111.8233,77.4508 113.0733,78.7008 113.0733,78.7008 114.3233,79.3258 114.3233,79.3258 116.8233,79.3258 116.8233,79.3258 118.0733,78.7008 118.0733,78.7008 119.3233,77.4508 119.3233,77.4508 119.9483,76.2008 119.9483,76.2008 119.9483,74.3258 119.9483,74.3258 116.8233,74.3258"/>
    <polyline points="149.3061,72.4508 154.9311,72.4508 154.9311,72.4508 156.8061,71.8258 156.8061,71.8258 157.4311,71.2008 157.4311,71.2008 158.0561,69.9508 158.0561,69.9508 158.0561,68.7008 158.0561,68.7008 157.4311,67.4508 157.4311,67.4508 156.8061,66.8258 156.8061,66.8258 154.9311,66.2008 154.9311,66.2008 149.3061,66.2008 149.3061,66.2008 149.3061,79.3258"/>
    <line x1="153.6811" x2="158.0561" y1="72.4508" y2="79.3258"/>
    <polyline points="194.6014,79.3258 189.6014,66.2008 189.6014,66.2008 184.6014,79.3258"/>
    <line x1="186.4764" x2="192.7264" y1="74.9508" y2="74.9508"/>
    <polyline points="232.3967,79.3258 227.3967,66.2008 227.3967,66.2008 222.3967,79.3258"/>
    <line x1="224.2717" x2="230.5217" y1="74.9508" y2="74.9508"/>
    <polyline points="245.6693,92.5984 283.4646,92.5984 283.4646,92.5984 283.4646,54.8031 283.4646,54.8031 245.6693,54.8031"/>
    <line x1="265.1919" x2="265.1919" y1="66.2008" y2="79.3258"/>
    <line x1="260.8169" x2="269.5669" y1="66.2008" y2="66.2008"/>
    <polyline points="414.498,66.2008 414.498,79.3258 414.498,79.3258 421.998,79.3258"/>
    <polyline points="623.622,92.5984 623.622,130.3937 623.622,130.3937 661.4173,130.3937 661.4173,130.3937 661.4173,92.5984 661.4173,92.5984 699.2126,92.5984 699.2126,92.5984 699.2126,54.8031 699.2126,54.8031 661.4173,54.8031 661.4173,54.8031 661.4173,92.5984 661.4173,92.5984 623.622,92.5984 623.622,92.5984 585.8268,92.5984 585.8268,92.5984 548.0315,92.5984 548.0315,92.5984 510.2362,92.5984 510.2362,92.5984 472.4409,92.5984 472.4409,92.5984 434.6457,92.5984 434.6457,92.5984 434.6457,130.3937 434.6457,130.3937 396.8504,130.3937 396.8504,130.3937 396.8504,168.189 396.8504,168.189 359.0551,168.189 359.0551,168.189 321.2598,168.189 321.2598,168.189 321.2598,205.9843 321.2598,205.9843 359.0551,205.9843 359.0551,205.9843 396.8504,205.9843 396.8504,205.9843 434.6457,205.9843 434.6457,205.9843 434.6457,168.189 434.6457,168.189 434.6457,130.3937 434.6457,130.3937 472.4409,130.3937 472.4409,130.3937 510.2362,130.3937 510.2362,130.3937 510.2362,92.5984"/>
    <polyline points="667.9946,56.7224 664.8696,56.7224 664.8696,56.7224 664.5571,59.5349 664.5571,59.5349 664.8696,59.2224 664.8696,59.2224 665.8071,58.9099 665.8071,58.9099 666.7446,58.9099 666.7446,58.9099 667.6821,59.2224 667.6821,59.2224 668.3071,59.8474 668.3071,59.8474 668.6196,60.7849 668.6196,60.7849 668.6196,61.4099 668.6196,61.4099 668.3071,62.3474 668.3071,62.3474 667.6821,62.9724 667.6821,62.9724 666.7446,63.2849 666.7446,63.2849 665.8071,63.2849 665.8071,63.2849 664.8696,62.9724 664.8696,62.9724 664.5571,62.6599 664.5571,62.6599 664.2446,62.0349"/>
    <polyline points="687.815,79.3258 687.815,66.2008 687.815,66.2008 682.815,79.3258 682.815,79.3258 677.815,66.2008 677.815,66.2008 677.815,79.3258"/>
    <polyline points="699.2126,92.5984 737.0079,92.5984 737.0079,92.5984 737.0079,54.8031 737.0079,54.8031 699.2126,54.8031"/>
    <polygon points="718.7352,66.2008 717.4852,66.8258 717.4852,66.8258 716.2352,68.0758 716.2352,68.0758 715.6102,69.3258 715.6102,69.3258 714.9852,71.2008 714.9852,71.2008 714.9852,74.3258 714.9852,74.3258 715.6102,76.2008 715.6102,76.2008 716.2352,77.4508 716.2352,77.4508 717.4852,78.7008 717.4852,78.7008 718.7352,79.3258 718.7352,79.3258 721.2352,79.3258 721.2352,79.3258 722.4852,78.7008 722.4852,78.7008 723.7352,77.4508 723.7352,77.4508 724.3602,76.2008 724.3602,76.2008 724.9852,74.3258 724.9852,74.3258 724.9852,71.2008 724.9852,71.2008 724.3602,69.3258 724.3602,69.3258 723.7352,68.0758 723.7352,68.0758 722.4852,66.8258 722.4852,66.8258 721.2352,66.2008 721.2352,66.2008"/>
    <polyline points="774.8031,92.5984 774.8031,130.3937 774.8031,130.3937 774.8031,168.189 774.8031,168.189 737.0079,168.189 737.0079,168.189 737.0079,130.3937 737.0079,130.3937 737.0079,92.5984 737.0079,92.5984 774.8031,92.5984 774.8031,92.5984 774.8031,54.8031 774.8031,54.8031 737.0079,54.8031"/>
    <polyline points="743.8976,57.6599 743.5851,57.0349 743.5851,57.0349 742.6476,56.7224 742.6476,56.7224 742.0226,56.7224 742.0226,56.7224 741.0851,57.0349 741.0851,57.0349 740.4601,57.9724 740.4601,57.9724 740.1476,59.5349 740.1476,59.5349 740.1476,61.0974 740.1476,61.0974 740.4601,62.3474 740.4601,62.3474 741.0851,62.9724 741.0851,62.9724 742.0226,63.2849 742.0226,63.2849 742.3351,63.2849 742.3351,63.2849 743.2726,62.9724 743.2726,62.9724 743.8976,62.3474 743.8976,62.3474 744.2101,61.4099 744.2101,61.4099 744.2101,61.0974 744.2101,61.0974 743.8976,60.1599 743.8976,60.1599 743.2726,59.5349 743.2726,59.5349 742.3351,59.2224 742.3351,59.2224 742.0226,59.2224 742.0226,59.2224 741.0851,59.5349 741.0851,59.5349 740.4601,60.1599 740.4601,60.1599 740.1476,61.0974"/>
    <polyline points="754.0305,73.0758 759.6555,73.0758 759.6555,73.0758 761.5305,72.4508 761.5305,72.4508 762.1555,71.8258 762.1555,71.8258 762.7805,70.5758 762.7805,70.5758 762.7805,68.7008 762.7805,68.7008 762.1555,67.4508 762.1555,67.4508 761.5305,66.8258 761.5305,66.8258 759.6555,66.2008 759.6555,66.2008 754.0305,66.2008 754.0305,66.2008 754.0305,79.3258"/>
    <polyline points="59.5202,94.5177 63.8952,94.5177 63.8952,94.5177 60.7702,101.0802"/>
    <polyline points="74.3406,103.9961 74.3406,117.1211 74.3406,117.1211 81.8406,117.1211"/>
    <polyline points="195.8514,103.9961 195.8514,117.1211 195.8514,117.1211 187.1014,103.9961 187.1014,103.9961 187.1014,117.1211"/>
    <polygon points="321.2598,92.5984 321.2598,130.3937 321.2598,130.3937 359.0551,130.3937 359.0551,130.3937 396.8504,130.3937 396.8504,130.3937 396.8504,92.5984 396.8504,92.5984 359.0551,92.5984 359.0551,92.5984"/>
    <line x1="359.0551" x2="359.0551" y1="130.3937" y2="92.5984"/>
    <polygon points="325.6496,94.5177 324.7121,94.8302 324.7121,94.8302 324.3996,95.4552 324.3996,95.4552 324.3996,96.0802 324.3996,96.0802 324.7121,96.7052 324.7121,96.7052 325.3371,97.0177 325.3371,97.0177 326.5871,97.3302 326.5871,97.3302 327.5246,97.6427 327.5246,97.6427 328.1496,98.2677 328.1496,98.2677 328.4621,98.8927 328.4621,98.8927 328.4621,99.8302 328.4621,99.8302 328.1496,100.4552 328.1496,100.4552 327.8371,100.7677 327.8371,100.7677 326.8996,101.0802 326.8996,101.0802 325.6496,101.0802 325.6496,101.0802 324.7121,100.7677 324.7121,100.7677 324.3996,100.4552 324.3996,100.4552 324.0871,99.8302 324.0871,99.8302 324.0871,98.8927 324.0871,98.8927 324.3996,98.2677 324.3996,98.2677 325.0246,97.6427 325.0246,97.6427 325.9621,97.3302 325.9621,97.3302 327.2121,97.0177 327.2121,97.0177 327.8371,96.7052 327.8371,96.7052 328.1496,96.0802 328.1496,96.0802 328.1496,95.4552 328.1496,95.4552 327.8371,94.8302 327.8371,94.8302 326.8996,94.5177 326.8996,94.5177"/>
    <line x1="338.2825" x2="338.2825" y1="103.9961" y2="117.1211"/>
    <line x1="347.0325" x2="338.2825" y1="103.9961" y2="112.7461"/>
    <line x1="341.4075" x2="347.0325" y1="109.6211" y2="117.1211"/>
    <polyline points="376.7028,103.9961 376.7028,117.1211 376.7028,117.1211 384.2028,117.1211"/>
    <polyline points="421.373,117.1211 416.373,103.9961 416.373,103.9961 411.373,117.1211"/>
    <line x1="413.248" x2="419.498" y1="112.7461" y2="112.7461"/>
    <line x1="472.4409" x2="472.4409" y1="130.3937" y2="92.5984"/>
    <polyline points="449.1683,103.9961 454.1683,117.1211 454.1683,117.1211 459.1683,103.9961"/>
    <polyline points="497.9011,103.9961 489.7761,103.9961 489.7761,103.9961 489.7761,117.1211 489.7761,117.1211 497.9011,117.1211"/>
    <line x1="489.7761" x2="494.7761" y1="110.2461" y2="110.2461"/>
    <polyline points="510.2362,130.3937 548.0315,130.3937 548.0315,130.3937 585.8268,130.3937 585.8268,130.3937 585.8268,92.5984"/>
    <line x1="548.0315" x2="548.0315" y1="130.3937" y2="92.5984"/>
    <polyline points="527.2589,110.2461 532.8839,110.2461 532.8839,110.2461 534.7589,109.6211 534.7589,109.6211 535.3839,108.9961 535.3839,108.9961 536.0089,107.7461 536.0089,107.7461 536.0089,106.4961 536.0089,106.4961 535.3839,105.2461 535.3839,105.2461 534.7589,104.6211 534.7589,104.6211 532.8839,103.9961 532.8839,103.9961 527.2589,103.9961 527.2589,103.9961 527.2589,117.1211"/>
    <line x1="531.6339" x2="536.0089" y1="110.2461" y2="117.1211"/>
    <line x1="567.5541" x2="567.5541" y1="103.9961" y2="117.1211"/>
    <line x1="563.1791" x2="571.9291" y1="103.9961" y2="103.9961"/>
    <line x1="585.8268" x2="623.622" y1="130.3937" y2="130.3937"/>
    <polyline points="609.0994,103.9961 609.0994,113.9961 609.0994,113.9961 608.4744,115.8711 608.4744,115.8711 607.8494,116.4961 607.8494,116.4961 606.5994,117.1211 606.5994,117.1211 605.3494,117.1211 605.3494,117.1211 604.0994,116.4961 604.0994,116.4961 603.4744,115.8711 603.4744,115.8711 602.8494,113.9961 602.8494,113.9961 602.8494,112.7461"/>
    <polyline points="649.0822,103.9961 640.9572,103.9961 640.9572,103.9961 640.9572,117.1211 640.9572,117.1211 649.0822,117.1211"/>
    <line x1="640.9572" x2="645.9572" y1="110.2461" y2="110.2461"/>
    <line x1="737.0079" x2="774.8031" y1="130.3937" y2="130.3937"/>
    <polyline points="761.5305,117.1211 756.5305,103.9961 756.5305,103.9961 751.5305,117.1211"/>
    <line x1="753.4055" x2="759.6555" y1="112.7461" y2="112.7461"/>
    <polyline points="25.7874,134.5005 25.4749,135.438 25.4749,135.438 24.8499,136.063 24.8499,136.063 23.9124,136.3755 23.9124,136.3755 23.5999,136.3755 23.5999,136.3755 22.6624,136.063 22.6624,136.063 22.0374,135.438 22.0374,135.438 21.7249,134.5005 21.7249,134.5005 21.7249,134.188 21.7249,134.188 22.0374,133.2505 22.0374,133.2505 22.6624,132.6255 22.6624,132.6255 23.5999,132.313 23.5999,132.313 23.9124,132.313 23.9124,132.313 24.8499,132.6255 24.8499,132.6255 25.4749,133.2505 25.4749,133.2505 25.7874,134.5005 25.7874,134.5005 25.7874,136.063 25.7874,136.063 25.4749,137.6255 25.4749,137.6255 24.8499,138.563 24.8499,138.563 23.9124,138.8755 23.9124,138.8755 23.2874,138.8755 23.2874,138.8755 22.3499,138.563 22.3499,138.563 22.0374,137.938"/>
    <line x1="35.9203" x2="35.9203" y1="141.7913" y2="154.9163"/>
    <line x1="44.6703" x2="44.6703" y1="141.7913" y2="154.9163"/>
    <line x1="35.9203" x2="44.6703" y1="148.0413" y2="148.0413"/>
    <polyline points="81.2156,154.9163 76.2156,141.7913 76.2156,141.7913 71.2156,154.9163"/>
    <line x1="73.0906" x2="79.3406" y1="150.5413" y2="150.5413"/>
    <line x1="132.2835" x2="132.2835" y1="168.189" y2="130.3937"/>
    <polyline points="120.2608,141.7913 120.2608,154.9163 120.2608,154.9163 111.5108,141.7913 111.5108,141.7913 111.5108,154.9163"/>
    <polygon points="149.3061,141.7913 149.3061,154.9163 149.3061,154.9163 153.6811,154.9163 153.6811,154.9163 155.5561,154.2913 155.5561,154.2913 156.8061,153.0413 156.8061,153.0413 157.4311,151.7913 157.4311,151.7913 158.0561,149.9163 158.0561,149.9163 158.0561,146.7913 158.0561,146.7913 157.4311,144.9163 157.4311,144.9163 156.8061,143.6663 156.8061,143.6663 155.5561,142.4163 155.5561,142.4163 153.6811,141.7913 153.6811,141.7913"/>
    <polygon points="187.1014,141.7913 187.1014,154.9163 187.1014,154.9163 191.4764,154.9163 191.4764,154.9163 193.3514,154.2913 193.3514,154.2913 194.6014,153.0413 194.6014,153.0413 195.2264,151.7913 195.2264,151.7913 195.8514,149.9163 195.8514,149.9163 195.8514,146.7913 195.8514,146.7913 195.2264,144.9163 195.2264,144.9163 194.6014,143.6663 194.6014,143.6663 193.3514,142.4163 193.3514,142.4163 191.4764,141.7913 191.4764,141.7913"/>
    <polygon points="227.3967,141.7913 226.1467,142.4163 226.1467,142.4163 224.8967,143.6663 224.8967,143.6663 224.2717,144.9163 224.2717,144.9163 223.6467,146.7913 223.6467,146.7913 223.6467,149.9163 223.6467,149.9163 224.2717,151.7913 224.2717,151.7913 224.8967,153.0413 224.8967,153.0413 226.1467,154.2913 226.1467,154.2913 227.3967,154.9163 227.3967,154.9163 229.8967,154.9163 229.8967,154.9163 231.1467,154.2913 231.1467,154.2913 232.3967,153.0413 232.3967,153.0413 233.0217,151.7913 233.0217,151.7913 233.6467,149.9163 233.6467,149.9163 233.6467,146.7913 233.6467,146.7913 233.0217,144.9163 233.0217,144.9163 232.3967,143.6663 232.3967,143.6663 231.1467,142.4163 231.1467,142.4163 229.8967,141.7913 229.8967,141.7913"/>
    <polyline points="245.6693,168.189 283.4646,168.189 283.4646,168.189 283.4646,130.3937 283.4646,130.3937 245.6693,130.3937"/>
    <polyline points="271.1294,141.7913 263.0044,141.7913 263.0044,141.7913 263.0044,154.9163 263.0044,154.9163 271.1294,154.9163"/>
    <line x1="263.0044" x2="268.0044" y1="148.0413" y2="148.0413"/>
    <polyline points="283.4646,168.189 321.2598,168.189 321.2598,168.189 321.2598,130.3937 321.2598,130.3937 283.4646,130.3937"/>
    <line x1="300.4872" x2="300.4872" y1="141.7913" y2="154.9163"/>
    <line x1="309.2372" x2="300.4872" y1="141.7913" y2="150.5413"/>
    <line x1="303.6122" x2="309.2372" y1="147.4163" y2="154.9163"/>
    <polyline points="472.4409,168.189 472.4409,205.9843 472.4409,205.9843 434.6457,205.9843 434.6457,205.9843 434.6457,243.7795 434.6457,243.7795 396.8504,243.7795 396.8504,243.7795 396.8504,205.9843 396.8504,205.9843 396.8504,168.189 396.8504,168.189 434.6457,168.189 434.6457,168.189 472.4409,168.189 472.4409,168.189 510.2362,168.189 510.2362,168.189 548.0315,168.189 548.0315,168.189 548.0315,205.9843 548.0315,205.9843 585.8268,205.9843 585.8268,205.9843 585.8268,168.189 585.8268,168.189 548.0315,168.189"/>
    <polyline points="411.373,141.7913 416.373,154.9163 416.373,154.9163 421.373,141.7913"/>
    <polyline points="754.0305,148.0413 759.6555,148.0413 759.6555,148.0413 761.5305,147.4163 761.5305,147.4163 762.1555,146.7913 762.1555,146.7913 762.7805,145.5413 762.7805,145.5413 762.7805,144.2913 762.7805,144.2913 762.1555,143.0413 762.1555,143.0413 761.5305,142.4163 761.5305,142.4163 759.6555,141.7913 759.6555,141.7913 754.0305,141.7913 754.0305,141.7913 754.0305,154.9163"/>
    <line x1="758.4055" x2="762.7805" y1="148.0413" y2="154.9163"/>
    <line x1="73.7156" x2="73.7156" y1="179.5866" y2="192.7116"/>
    <line x1="82.4656" x2="73.7156" y1="179.5866" y2="188.3366"/>
    <line x1="76.8406" x2="82.4656" y1="185.2116" y2="192.7116"/>
    <line x1="170.0787" x2="207.874" y1="205.9843" y2="205.9843"/>
    <polyline points="194.6014,192.7116 189.6014,179.5866 189.6014,179.5866 184.6014,192.7116"/>
    <line x1="186.4764" x2="192.7264" y1="188.3366" y2="188.3366"/>
    <line x1="359.0551" x2="359.0551" y1="205.9843" y2="168.189"/>
    <polyline points="325.0246,171.3583 325.6496,171.0458 325.6496,171.0458 326.5871,170.1083 326.5871,170.1083 326.5871,176.6708"/>
    <polygon points="332.2121,170.1083 331.2746,170.4208 331.2746,170.4208 330.6496,171.3583 330.6496,171.3583 330.3371,172.9208 330.3371,172.9208 330.3371,173.8583 330.3371,173.8583 330.6496,175.4208 330.6496,175.4208 331.2746,176.3583 331.2746,176.3583 332.2121,176.6708 332.2121,176.6708 332.8371,176.6708 332.8371,176.6708 333.7746,176.3583 333.7746,176.3583 334.3996,175.4208 334.3996,175.4208 334.7121,173.8583 334.7121,173.8583 334.7121,172.9208 334.7121,172.9208 334.3996,171.3583 334.3996,171.3583 333.7746,170.4208 333.7746,170.4208 332.8371,170.1083 332.8371,170.1083"/>
    <polyline points="346.72,179.5866 338.595,179.5866 338.595,179.5866 338.595,192.7116"/>
    <line x1="338.595" x2="343.595" y1="185.8366" y2="185.8366"/>
    <polyline points="376.7028,179.5866 376.7028,192.7116 376.7028,192.7116 384.2028,192.7116"/>
    <polyline points="422.3105,179.5866 414.1855,179.5866 414.1855,179.5866 414.1855,192.7116 414.1855,192.7116 422.3105,192.7116"/>
    <line x1="414.1855" x2="419.1855" y1="185.8366" y2="185.8366"/>
    <polyline points="459.7933,181.4616 458.5433,180.2116 458.5433,180.2116 456.6683,179.5866 456.6683,179.5866 454.1683,179.5866 454.1683,179.5866 452.2933,180.2116 452.2933,180.2116 451.0433,181.4616 451.0433,181.4616 451.0433,182.7116 451.0433,182.7116 451.6683,183.9616 451.6683,183.9616 452.2933,184.5866 452.2933,184.5866 453.5433,185.2116 453.5433,185.2116 457.2933,186.4616 457.2933,186.4616 458.5433,187.0866 458.5433,187.0866 459.1683,187.7116 459.1683,187.7116 459.7933,188.9616 459.7933,188.9616 459.7933,190.8366 459.7933,190.8366 458.5433,192.0866 458.5433,192.0866 456.6683,192.7116 456.6683,192.7116 454.1683,192.7116 454.1683,192.7116 452.2933,192.0866 452.2933,192.0866 451.0433,190.8366"/>
    <polyline points="472.4409,205.9843 510.2362,205.9843 510.2362,205.9843 548.0315,205.9843"/>
    <line x1="510.2362" x2="510.2362" y1="205.9843" y2="168.189"/>
    <polyline points="497.5886,181.4616 496.3386,180.2116 496.3386,180.2116 494.4636,179.5866 494.4636,179.5866 491.9636,179.5866 491.9636,179.5866 490.0886,180.2116 490.0886,180.2116 488.8386,181.4616 488.8386,181.4616 488.8386,182.7116 488.8386,182.7116 489.4636,183.9616 489.4636,183.9616 490.0886,184.5866 490.0886,184.5866 491.3386,185.2116 491.3386,185.2116 495.0886,186.4616 495.0886,186.4616 496.3386,187.0866 496.3386,187.0866 496.9636,187.7116 496.9636,187.7116 497.5886,188.9616 497.5886,188.9616 497.5886,190.8366 497.5886,190.8366 496.3386,192.0866 496.3386,192.0866 494.4636,192.7116 494.4636,192.7116 491.9636,192.7116 491.9636,192.7116 490.0886,192.0866 490.0886,192.0866 488.8386,190.8366"/>
    <polyline points="535.6964,179.5866 527.5714,179.5866 527.5714,179.5866 527.5714,192.7116 527.5714,192.7116 535.6964,192.7116"/>
    <line x1="527.5714" x2="532.5714" y1="185.8366" y2="185.8366"/>
    <polyline points="573.8041,179.5866 573.8041,192.7116 573.8041,192.7116 565.0541,179.5866 565.0541,179.5866 565.0541,192.7116"/>
    <polyline points="623.622,168.189 623.622,205.9843 623.622,205.9843 623.622,243.7795 623.622,243.7795 585.8268,243.7795 585.8268,243.7795 585.8268,205.9843 585.8268,205.9843 623.622,205.9843 623.622,205.9843 661.4173,205.9843 661.4173,205.9843 661.4173,243.7795 661.4173,243.7795 699.2126,243.7795 699.2126,243.7795 699.2126,205.9843 699.2126,205.9843 699.2126,168.189 699.2126,168.189 661.4173,168.189 661.4173,168.189 623.622,168.189 623.622,168.189 585.8268,168.189"/>
    <polyline points="589.5915,171.3583 590.2165,171.0458 590.2165,171.0458 591.154,170.1083 591.154,170.1083 591.154,176.6708"/>
    <polyline points="595.8415,171.3583 596.4665,171.0458 596.4665,171.0458 597.404,170.1083 597.404,170.1083 597.404,176.6708"/>
    <polyline points="611.2869,182.7116 610.6619,181.4616 610.6619,181.4616 609.4119,180.2116 609.4119,180.2116 608.1619,179.5866 608.1619,179.5866 605.6619,179.5866 605.6619,179.5866 604.4119,180.2116 604.4119,180.2116 603.1619,181.4616 603.1619,181.4616 602.5369,182.7116 602.5369,182.7116 601.9119,184.5866 601.9119,184.5866 601.9119,187.7116 601.9119,187.7116 602.5369,189.5866 602.5369,189.5866 603.1619,190.8366 603.1619,190.8366 604.4119,192.0866 604.4119,192.0866 605.6619,192.7116 605.6619,192.7116 608.1619,192.7116 608.1619,192.7116 609.4119,192.0866 609.4119,192.0866 610.6619,190.8366 610.6619,190.8366 611.2869,189.5866 611.2869,189.5866 611.2869,187.7116 611.2869,187.7116 608.1619,187.7116"/>
    <polyline points="774.8031,168.189 774.8031,205.9843 774.8031,205.9843 737.0079,205.9843 737.0079,205.9843 699.2126,205.9843 699.2126,205.9843 661.4173,205.9843 661.4173,205.9843 661.4173,168.189"/>
    <polyline points="649.0822,179.5866 640.9572,179.5866 640.9572,179.5866 640.9572,192.7116 640.9572,192.7116 649.0822,192.7116"/>
    <line x1="640.9572" x2="645.9572" y1="185.8366" y2="185.8366"/>
    <polyline points="665.1821,171.3583 665.8071,171.0458 665.8071,171.0458 666.7446,170.1083 666.7446,170.1083 666.7446,176.6708"/>
    <polyline points="670.8071,171.6708 670.8071,171.3583 670.8071,171.3583 671.1196,170.7333 671.1196,170.7333 671.4321,170.4208 671.4321,170.4208 672.0571,170.1083 672.0571,170.1083 673.3071,170.1083 673.3071,170.1083 673.9321,170.4208 673.9321,170.4208 674.2446,170.7333 674.2446,170.7333 674.5571,171.3583 674.5571,171.3583 674.5571,171.9833 674.5571,171.9833 674.2446,172.6083 674.2446,172.6083 673.6196,173.5458 673.6196,173.5458 670.4946,176.6708 670.4946,176.6708 674.8696,176.6708"/>
    <polyline points="679.065,179.5866 679.065,192.7116 679.065,192.7116 686.565,192.7116"/>
    <polyline points="774.8031,205.9843 774.8031,243.7795 774.8031,243.7795 737.0079,243.7795 737.0079,243.7795 737.0079,205.9843 737.0079,205.9843 737.0079,168.189 737.0079,168.189 699.2126,168.189"/>
    <polyline points="716.2352,179.5866 716.2352,188.9616 716.2352,188.9616 716.8602,190.8366 716.8602,190.8366 718.1102,192.0866 718.1102,192.0866 719.9852,192.7116 719.9852,192.7116 721.2352,192.7116 721.2352,192.7116 723.1102,192.0866 723.1102,192.0866 724.3602,190.8366 724.3602,190.8366 724.9852,188.9616 724.9852,188.9616 724.9852,179.5866"/>
    <line x1="754.0305" x2="754.0305" y1="179.5866" y2="192.7116"/>
    <line x1="762.7805" x2="754.0305" y1="179.5866" y2="188.3366"/>
    <line x1="757.1555" x2="762.7805" y1="185.2116" y2="192.7116"/>
    <polyline points="56.6929,205.9843 56.6929,243.7795 56.6929,243.7795 94.4882,243.7795 94.4882,243.7795 94.4882,205.9843"/>
    <polyline points="82.1531,217.3819 74.0281,217.3819 74.0281,217.3819 74.0281,230.5069 74.0281,230.5069 82.1531,230.5069"/>
    <line x1="74.0281" x2="79.0281" y1="223.6319" y2="223.6319"/>
    <polyline points="187.1014,223.6319 192.7264,223.6319 192.7264,223.6319 194.6014,223.0069 194.6014,223.0069 195.2264,222.3819 195.2264,222.3819 195.8514,221.1319 195.8514,221.1319 195.8514,219.8819 195.8514,219.8819 195.2264,218.6319 195.2264,218.6319 194.6014,218.0069 194.6014,218.0069 192.7264,217.3819 192.7264,217.3819 187.1014,217.3819 187.1014,217.3819 187.1014,230.5069"/>
    <line x1="191.4764" x2="195.8514" y1="223.6319" y2="230.5069"/>
    <polyline points="413.873,223.6319 419.498,223.6319 419.498,223.6319 421.373,223.0069 421.373,223.0069 421.998,222.3819 421.998,222.3819 422.623,221.1319 422.623,221.1319 422.623,219.8819 422.623,219.8819 421.998,218.6319 421.998,218.6319 421.373,218.0069 421.373,218.0069 419.498,217.3819 419.498,217.3819 413.873,217.3819 413.873,217.3819 413.873,230.5069"/>
    <line x1="418.248" x2="422.623" y1="223.6319" y2="230.5069"/>
    <polyline points="602.8494,223.6319 608.4744,223.6319 608.4744,223.6319 610.3494,223.0069 610.3494,223.0069 610.9744,222.3819 610.9744,222.3819 611.5994,221.1319 611.5994,221.1319 611.5994,219.8819 611.5994,219.8819 610.9744,218.6319 610.9744,218.6319 610.3494,218.0069 610.3494,218.0069 608.4744,217.3819 608.4744,217.3819 602.8494,217.3819 602.8494,217.3819 602.8494,230.5069"/>
    <line x1="607.2244" x2="611.5994" y1="223.6319" y2="230.5069"/>
    <line x1="682.815" x2="682.815" y1="217.3819" y2="230.5069"/>
    <polyline points="762.468,217.3819 754.343,217.3819 754.343,217.3819 754.343,230.5069 754.343,230.5069 762.468,230.5069"/>
    <line x1="754.343" x2="759.343" y1="223.6319" y2="223.6319"/>
    <polyline points="56.6929,243.7795 56.6929,281.5748 56.6929,281.5748 56.6929,319.3701 56.6929,319.3701 94.4882,319.3701 94.4882,319.3701 94.4882,357.1654 94.4882,357.1654 132.2835,357.1654 132.2835,357.1654 170.0787,357.1654 170.0787,357.1654 170.0787,319.3701 170.0787,319.3701 132.2835,319.3701 132.2835,319.3701 94.4882,319.3701 94.4882,319.3701 94.4882,281.5748 94.4882,281.5748 94.4882,243.7795"/>
    <line x1="56.6929" x2="94.4882" y1="281.5748" y2="281.5748"/>
    <polyline points="82.4656,255.1772 82.4656,268.3022 82.4656,268.3022 73.7156,255.1772 73.7156,255.1772 73.7156,268.3022"/>
    <polygon points="132.2835,243.7795 132.2835,281.5748 132.2835,281.5748 170.0787,281.5748 170.0787,281.5748 170.0787,243.7795 170.0787,243.7795"/>
    <polyline points="136.0482,246.9488 136.6732,246.6363 136.6732,246.6363 137.6107,245.6988 137.6107,245.6988 137.6107,252.2613"/>
    <polyline points="141.9857,245.6988 145.4232,245.6988 145.4232,245.6988 143.5482,248.1988 143.5482,248.1988 144.4857,248.1988 144.4857,248.1988 145.1107,248.5113 145.1107,248.5113 145.4232,248.8238 145.4232,248.8238 145.7357,249.7613 145.7357,249.7613 145.7357,250.3863 145.7357,250.3863 145.4232,251.3238 145.4232,251.3238 144.7982,251.9488 144.7982,251.9488 143.8607,252.2613 143.8607,252.2613 142.9232,252.2613 142.9232,252.2613 141.9857,251.9488 141.9857,251.9488 141.6732,251.6363 141.6732,251.6363 141.3607,251.0113"/>
    <polyline points="158.6811,268.3022 158.6811,255.1772 158.6811,255.1772 153.6811,268.3022 153.6811,268.3022 148.6811,255.1772 148.6811,255.1772 148.6811,268.3022"/>
    <polygon points="170.0787,281.5748 207.874,281.5748 207.874,281.5748 207.874,243.7795 207.874,243.7795 245.6693,243.7795 245.6693,243.7795 245.6693,281.5748 245.6693,281.5748 207.874,281.5748 207.874,281.5748 207.874,319.3701 207.874,319.3701 170.0787,319.3701 170.0787,319.3701"/>
    <line x1="191.4764" x2="191.4764" y1="255.1772" y2="268.3022"/>
    <polyline points="233.0217,257.0522 231.7717,255.8022 231.7717,255.8022 229.8967,255.1772 229.8967,255.1772 227.3967,255.1772 227.3967,255.1772 225.5217,255.8022 225.5217,255.8022 224.2717,257.0522 224.2717,257.0522 224.2717,258.3022 224.2717,258.3022 224.8967,259.5522 224.8967,259.5522 225.5217,260.1772 225.5217,260.1772 226.7717,260.8022 226.7717,260.8022 230.5217,262.0522 230.5217,262.0522 231.7717,262.6772 231.7717,262.6772 232.3967,263.3022 232.3967,263.3022 233.0217,264.5522 233.0217,264.5522 233.0217,266.4272 233.0217,266.4272 231.7717,267.6772 231.7717,267.6772 229.8967,268.3022 229.8967,268.3022 227.3967,268.3022 227.3967,268.3022 225.5217,267.6772 225.5217,267.6772 224.2717,266.4272"/>
    <polyline points="245.6693,281.5748 283.4646,281.5748 283.4646,281.5748 283.4646,243.7795 283.4646,243.7795 245.6693,243.7795"/>
    <polyline points="260.1919,255.1772 265.1919,268.3022 265.1919,268.3022 270.1919,255.1772"/>
    <polyline points="283.4646,281.5748 321.2598,281.5748 321.2598,281.5748 359.0551,281.5748 359.0551,281.5748 359.0551,243.7795 359.0551,243.7795 321.2598,243.7795 321.2598,243.7795 283.4646,243.7795"/>
    <line x1="321.2598" x2="321.2598" y1="281.5748" y2="243.7795"/>
    <polyline points="308.9247,255.1772 300.7997,255.1772 300.7997,255.1772 300.7997,268.3022 300.7997,268.3022 308.9247,268.3022"/>
    <line x1="300.7997" x2="305.7997" y1="261.4272" y2="261.4272"/>
    <polyline points="338.2825,261.4272 343.9075,261.4272 343.9075,261.4272 345.7825,260.8022 345.7825,260.8022 346.4075,260.1772 346.4075,260.1772 347.0325,258.9272 347.0325,258.9272 347.0325,257.6772 347.0325,257.6772 346.4075,256.4272 346.4075,256.4272 345.7825,255.8022 345.7825,255.8022 343.9075,255.1772 343.9075,255.1772 338.2825,255.1772 338.2825,255.1772 338.2825,268.3022"/>
    <line x1="342.6575" x2="347.0325" y1="261.4272" y2="268.3022"/>
    <polyline points="359.0551,281.5748 396.8504,281.5748 396.8504,281.5748 396.8504,243.7795 396.8504,243.7795 359.0551,243.7795"/>
    <polyline points="384.2028,257.0522 382.9528,255.8022 382.9528,255.8022 381.0778,255.1772 381.0778,255.1772 378.5778,255.1772 378.5778,255.1772 376.7028,255.8022 376.7028,255.8022 375.4528,257.0522 375.4528,257.0522 375.4528,258.3022 375.4528,258.3022 376.0778,259.5522 376.0778,259.5522 376.7028,260.1772 376.7028,260.1772 377.9528,260.8022 377.9528,260.8022 381.7028,262.0522 381.7028,262.0522 382.9528,262.6772 382.9528,262.6772 383.5778,263.3022 383.5778,263.3022 384.2028,264.5522 384.2028,264.5522 384.2028,266.4272 384.2028,266.4272 382.9528,267.6772 382.9528,267.6772 381.0778,268.3022 381.0778,268.3022 378.5778,268.3022 378.5778,268.3022 376.7028,267.6772 376.7028,267.6772 375.4528,266.4272"/>
    <polyline points="321.2598,319.3701 321.2598,357.1654 321.2598,357.1654 283.4646,357.1654 283.4646,357.1654 283.4646,319.3701 283.4646,319.3701 321.2598,319.3701 321.2598,319.3701 359.0551,319.3701 359.0551,319.3701 396.8504,319.3701 396.8504,319.3701 396.8504,281.5748 396.8504,281.5748 434.6457,281.5748 434.6457,281.5748 434.6457,243.7795 434.6457,243.7795 472.4409,243.7795 472.4409,243.7795 510.2362,243.7795 510.2362,243.7795 510.2362,281.5748 510.2362,281.5748 548.0315,281.5748 548.0315,281.5748 548.0315,243.7795 548.0315,243.7795 510.2362,243.7795"/>
    <line x1="416.373" x2="416.373" y1="255.1772" y2="268.3022"/>
    <line x1="411.998" x2="420.748" y1="255.1772" y2="255.1772"/>
    <polyline points="472.4409,319.3701 510.2362,319.3701 510.2362,319.3701 510.2362,357.1654 510.2362,357.1654 472.4409,357.1654 472.4409,357.1654 472.4409,319.3701 472.4409,319.3701 434.6457,319.3701 434.6457,319.3701 434.6457,357.1654 434.6457,357.1654 396.8504,357.1654 396.8504,357.1654 396.8504,319.3701 396.8504,319.3701 434.6457,319.3701 434.6457,319.3701 434.6457,281.5748 434.6457,281.5748 472.4409,281.5748 472.4409,281.5748 472.4409,243.7795"/>
    <polyline points="459.1683,268.3022 454.1683,255.1772 454.1683,255.1772 449.1683,268.3022"/>
    <line x1="451.0433" x2="457.2933" y1="263.9272" y2="263.9272"/>
    <line x1="472.4409" x2="510.2362" y1="281.5748" y2="281.5748"/>
    <polyline points="498.2136,255.1772 498.2136,268.3022 498.2136,268.3022 489.4636,255.1772 489.4636,255.1772 489.4636,268.3022"/>
    <polygon points="527.2589,255.1772 527.2589,268.3022 527.2589,268.3022 531.6339,268.3022 531.6339,268.3022 533.5089,267.6772 533.5089,267.6772 534.7589,266.4272 534.7589,266.4272 535.3839,265.1772 535.3839,265.1772 536.0089,263.3022 536.0089,263.3022 536.0089,260.1772 536.0089,260.1772 535.3839,258.3022 535.3839,258.3022 534.7589,257.0522 534.7589,257.0522 533.5089,255.8022 533.5089,255.8022 531.6339,255.1772 531.6339,255.1772"/>
    <polyline points="585.8268,243.7795 585.8268,281.5748 585.8268,281.5748 585.8268,319.3701 585.8268,319.3701 623.622,319.3701 623.622,319.3701 623.622,281.5748 623.622,281.5748 623.622,243.7795"/>
    <line x1="585.8268" x2="623.622" y1="281.5748" y2="281.5748"/>
    <line x1="607.2244" x2="607.2244" y1="255.1772" y2="268.3022"/>
    <polyline points="661.4173,243.7795 661.4173,281.5748 661.4173,281.5748 699.2126,281.5748 699.2126,281.5748 699.2126,243.7795"/>
    <polyline points="686.8775,255.1772 678.7525,255.1772 678.7525,255.1772 678.7525,268.3022"/>
    <line x1="678.7525" x2="683.7525" y1="261.4272" y2="261.4272"/>
    <polyline points="737.0079,243.7795 737.0079,281.5748 737.0079,281.5748 774.8031,281.5748 774.8031,281.5748 774.8031,243.7795"/>
    <polyline points="754.0305,261.4272 759.6555,261.4272 759.6555,261.4272 761.5305,260.8022 761.5305,260.8022 762.1555,260.1772 762.1555,260.1772 762.7805,258.9272 762.7805,258.9272 762.7805,257.6772 762.7805,257.6772 762.1555,256.4272 762.1555,256.4272 761.5305,255.8022 761.5305,255.8022 759.6555,255.1772 759.6555,255.1772 754.0305,255.1772 754.0305,255.1772 754.0305,268.3022"/>
    <line x1="758.4055" x2="762.7805" y1="261.4272" y2="268.3022"/>
    <polyline points="81.8406,294.8474 80.5906,293.5974 80.5906,293.5974 78.7156,292.9724 78.7156,292.9724 76.2156,292.9724 76.2156,292.9724 74.3406,293.5974 74.3406,293.5974 73.0906,294.8474 73.0906,294.8474 73.0906,296.0974 73.0906,296.0974 73.7156,297.3474 73.7156,297.3474 74.3406,297.9724 74.3406,297.9724 75.5906,298.5974 75.5906,298.5974 79.3406,299.8474 79.3406,299.8474 80.5906,300.4724 80.5906,300.4724 81.2156,301.0974 81.2156,301.0974 81.8406,302.3474 81.8406,302.3474 81.8406,304.2224 81.8406,304.2224 80.5906,305.4724 80.5906,305.4724 78.7156,306.0974 78.7156,306.0974 76.2156,306.0974 76.2156,306.0974 74.3406,305.4724 74.3406,305.4724 73.0906,304.2224"/>
    <polyline points="193.3514,292.9724 193.3514,302.9724 193.3514,302.9724 192.7264,304.8474 192.7264,304.8474 192.1014,305.4724 192.1014,305.4724 190.8514,306.0974 190.8514,306.0974 189.6014,306.0974 189.6014,306.0974 188.3514,305.4724 188.3514,305.4724 187.7264,304.8474 187.7264,304.8474 187.1014,302.9724 187.1014,302.9724 187.1014,301.7224"/>
    <polyline points="420.123,292.9724 420.123,302.9724 420.123,302.9724 419.498,304.8474 419.498,304.8474 418.873,305.4724 418.873,305.4724 417.623,306.0974 417.623,306.0974 416.373,306.0974 416.373,306.0974 415.123,305.4724 415.123,305.4724 414.498,304.8474 414.498,304.8474 413.873,302.9724 413.873,302.9724 413.873,301.7224"/>
    <polyline points="611.2869,292.9724 603.1619,292.9724 603.1619,292.9724 603.1619,306.0974 603.1619,306.0974 611.2869,306.0974"/>
    <line x1="603.1619" x2="608.1619" y1="299.2224" y2="299.2224"/>
    <polyline points="661.4173,281.5748 661.4173,319.3701 661.4173,319.3701 699.2126,319.3701 699.2126,319.3701 699.2126,281.5748"/>
    <line x1="680.94" x2="680.94" y1="292.9724" y2="306.0974"/>
    <line x1="676.565" x2="685.315" y1="292.9724" y2="292.9724"/>
    <polyline points="737.0079,281.5748 737.0079,319.3701 737.0079,319.3701 737.0079,357.1654 737.0079,357.1654 774.8031,357.1654 774.8031,357.1654 774.8031,319.3701 774.8031,319.3701 774.8031,281.5748"/>
    <line x1="737.0079" x2="774.8031" y1="319.3701" y2="319.3701"/>
    <polyline points="762.468,292.9724 754.343,292.9724 754.343,292.9724 754.343,306.0974 754.343,306.0974 762.468,306.0974"/>
    <line x1="754.343" x2="759.343" y1="299.2224" y2="299.2224"/>
    <line x1="132.2835" x2="132.2835" y1="357.1654" y2="319.3701"/>
    <polyline points="98.253,322.5394 98.878,322.2269 98.878,322.2269 99.8155,321.2894 99.8155,321.2894 99.8155,327.8519"/>
    <polyline points="106.6905,327.8519 106.6905,321.2894 106.6905,321.2894 103.5655,325.6644 103.5655,325.6644 108.253,325.6644"/>
    <polyline points="110.8858,330.7677 119.6358,330.7677 119.6358,330.7677 110.8858,343.8927 110.8858,343.8927 119.6358,343.8927"/>
    <polygon points="151.8061,330.7677 150.5561,331.3927 150.5561,331.3927 149.3061,332.6427 149.3061,332.6427 148.6811,333.8927 148.6811,333.8927 148.0561,335.7677 148.0561,335.7677 148.0561,338.8927 148.0561,338.8927 148.6811,340.7677 148.6811,340.7677 149.3061,342.0177 149.3061,342.0177 150.5561,343.2677 150.5561,343.2677 151.8061,343.8927 151.8061,343.8927 154.3061,343.8927 154.3061,343.8927 155.5561,343.2677 155.5561,343.2677 156.8061,342.0177 156.8061,342.0177 157.4311,340.7677 157.4311,340.7677 158.0561,338.8927 158.0561,338.8927 158.0561,335.7677 158.0561,335.7677 157.4311,333.8927 157.4311,333.8927 156.8061,332.6427 156.8061,332.6427 155.5561,331.3927 155.5561,331.3927 154.3061,330.7677 154.3061,330.7677"/>
    <polyline points="170.0787,357.1654 207.874,357.1654 207.874,357.1654 207.874,319.3701"/>
    <polyline points="195.8514,330.7677 195.8514,343.8927 195.8514,343.8927 187.1014,330.7677 187.1014,330.7677 187.1014,343.8927"/>
    <polyline points="287.2293,322.5394 287.8543,322.2269 287.8543,322.2269 288.7918,321.2894 288.7918,321.2894 288.7918,327.8519"/>
    <polyline points="296.2918,321.2894 293.1668,321.2894 293.1668,321.2894 292.8543,324.1019 292.8543,324.1019 293.1668,323.7894 293.1668,323.7894 294.1043,323.4769 294.1043,323.4769 295.0418,323.4769 295.0418,323.4769 295.9793,323.7894 295.9793,323.7894 296.6043,324.4144 296.6043,324.4144 296.9168,325.3519 296.9168,325.3519 296.9168,325.9769 296.9168,325.9769 296.6043,326.9144 296.6043,326.9144 295.9793,327.5394 295.9793,327.5394 295.0418,327.8519 295.0418,327.8519 294.1043,327.8519 294.1043,327.8519 293.1668,327.5394 293.1668,327.5394 292.8543,327.2269 292.8543,327.2269 292.5418,326.6019"/>
    <polyline points="308.9247,333.8927 308.2997,332.6427 308.2997,332.6427 307.0497,331.3927 307.0497,331.3927 305.7997,330.7677 305.7997,330.7677 303.2997,330.7677 303.2997,330.7677 302.0497,331.3927 302.0497,331.3927 300.7997,332.6427 300.7997,332.6427 300.1747,333.8927 300.1747,333.8927 299.5497,335.7677 299.5497,335.7677 299.5497,338.8927 299.5497,338.8927 300.1747,340.7677 300.1747,340.7677 300.7997,342.0177 300.7997,342.0177 302.0497,343.2677 302.0497,343.2677 303.2997,343.8927 303.2997,343.8927 305.7997,343.8927 305.7997,343.8927 307.0497,343.2677 307.0497,343.2677 308.2997,342.0177 308.2997,342.0177 308.9247,340.7677 308.9247,340.7677 308.9247,338.8927 308.9247,338.8927 305.7997,338.8927"/>
    <polyline points="321.2598,357.1654 359.0551,357.1654 359.0551,357.1654 396.8504,357.1654"/>
    <line x1="359.0551" x2="359.0551" y1="357.1654" y2="319.3701"/>
    <polyline points="338.2825,337.0177 343.9075,337.0177 343.9075,337.0177 345.7825,336.3927 345.7825,336.3927 346.4075,335.7677 346.4075,335.7677 347.0325,334.5177 347.0325,334.5177 347.0325,333.2677 347.0325,333.2677 346.4075,332.0177 346.4075,332.0177 345.7825,331.3927 345.7825,331.3927 343.9075,330.7677 343.9075,330.7677 338.2825,330.7677 338.2825,330.7677 338.2825,343.8927"/>
    <line x1="342.6575" x2="347.0325" y1="337.0177" y2="343.8927"/>
    <polygon points="378.5778,330.7677 377.3278,331.3927 377.3278,331.3927 376.0778,332.6427 376.0778,332.6427 375.4528,333.8927 375.4528,333.8927 374.8278,335.7677 374.8278,335.7677 374.8278,338.8927 374.8278,338.8927 375.4528,340.7677 375.4528,340.7677 376.0778,342.0177 376.0778,342.0177 377.3278,343.2677 377.3278,343.2677 378.5778,343.8927 378.5778,343.8927 381.0778,343.8927 381.0778,343.8927 382.3278,343.2677 382.3278,343.2677 383.5778,342.0177 383.5778,342.0177 384.2028,340.7677 384.2028,340.7677 384.8278,338.8927 384.8278,338.8927 384.8278,335.7677 384.8278,335.7677 384.2028,333.8927 384.2028,333.8927 383.5778,332.6427 383.5778,332.6427 382.3278,331.3927 382.3278,331.3927 381.0778,330.7677 381.0778,330.7677"/>
    <polyline points="422.3105,330.7677 414.1855,330.7677 414.1855,330.7677 414.1855,343.8927 414.1855,343.8927 422.3105,343.8927"/>
    <line x1="414.1855" x2="419.1855" y1="337.0177" y2="337.0177"/>
    <line x1="434.6457" x2="472.4409" y1="357.1654" y2="357.1654"/>
    <polyline points="451.6683,337.6427 457.2933,337.6427 457.2933,337.6427 459.1683,337.0177 459.1683,337.0177 459.7933,336.3927 459.7933,336.3927 460.4183,335.1427 460.4183,335.1427 460.4183,333.2677 460.4183,333.2677 459.7933,332.0177 459.7933,332.0177 459.1683,331.3927 459.1683,331.3927 457.2933,330.7677 457.2933,330.7677 451.6683,330.7677 451.6683,330.7677 451.6683,343.8927"/>
    <polyline points="497.5886,332.6427 496.3386,331.3927 496.3386,331.3927 494.4636,330.7677 494.4636,330.7677 491.9636,330.7677 491.9636,330.7677 490.0886,331.3927 490.0886,331.3927 488.8386,332.6427 488.8386,332.6427 488.8386,333.8927 488.8386,333.8927 489.4636,335.1427 489.4636,335.1427 490.0886,335.7677 490.0886,335.7677 491.3386,336.3927 491.3386,336.3927 495.0886,337.6427 495.0886,337.6427 496.3386,338.2677 496.3386,338.2677 496.9636,338.8927 496.9636,338.8927 497.5886,340.1427 497.5886,340.1427 497.5886,342.0177 497.5886,342.0177 496.3386,343.2677 496.3386,343.2677 494.4636,343.8927 494.4636,343.8927 491.9636,343.8927 491.9636,343.8927 490.0886,343.2677 490.0886,343.2677 488.8386,342.0177"/>
    <polyline points="510.2362,357.1654 548.0315,357.1654 548.0315,357.1654 548.0315,319.3701 548.0315,319.3701 510.2362,319.3701"/>
    <polyline points="535.6964,330.7677 527.5714,330.7677 527.5714,330.7677 527.5714,343.8927"/>
    <line x1="527.5714" x2="532.5714" y1="337.0177" y2="337.0177"/>
    <polyline points="548.0315,357.1654 585.8268,357.1654 585.8268,357.1654 585.8268,319.3701 585.8268,319.3701 548.0315,319.3701"/>
    <polygon points="567.5541,330.7677 566.3041,331.3927 566.3041,331.3927 565.0541,332.6427 565.0541,332.6427 564.4291,333.8927 564.4291,333.8927 563.8041,335.7677 563.8041,335.7677 563.8041,338.8927 563.8041,338.8927 564.4291,340.7677 564.4291,340.7677 565.0541,342.0177 565.0541,342.0177 566.3041,343.2677 566.3041,343.2677 567.5541,343.8927 567.5541,343.8927 570.0541,343.8927 570.0541,343.8927 571.3041,343.2677 571.3041,343.2677 572.5541,342.0177 572.5541,342.0177 573.1791,340.7677 573.1791,340.7677 573.8041,338.8927 573.8041,338.8927 573.8041,335.7677 573.8041,335.7677 573.1791,333.8927 573.1791,333.8927 572.5541,332.6427 572.5541,332.6427 571.3041,331.3927 571.3041,331.3927 570.0541,330.7677 570.0541,330.7677"/>
    <polyline points="585.8268,357.1654 623.622,357.1654 623.622,357.1654 623.622,319.3701 623.622,319.3701 661.4173,319.3701 661.4173,319.3701 661.4173,357.1654 661.4173,357.1654 623.622,357.1654"/>
    <line x1="605.3494" x2="605.3494" y1="330.7677" y2="343.8927"/>
    <line x1="600.9744" x2="609.7244" y1="330.7677" y2="330.7677"/>
    <polygon points="643.1447,330.7677 641.8947,331.3927 641.8947,331.3927 640.6447,332.6427 640.6447,332.6427 640.0197,333.8927 640.0197,333.8927 639.3947,335.7677 639.3947,335.7677 639.3947,338.8927 639.3947,338.8927 640.0197,340.7677 640.0197,340.7677 640.6447,342.0177 640.6447,342.0177 641.8947,343.2677 641.8947,343.2677 643.1447,343.8927 643.1447,343.8927 645.6447,343.8927 645.6447,343.8927 646.8947,343.2677 646.8947,343.2677 648.1447,342.0177 648.1447,342.0177 648.7697,340.7677 648.7697,340.7677 649.3947,338.8927 649.3947,338.8927 649.3947,335.7677 649.3947,335.7677 648.7697,333.8927 648.7697,333.8927 648.1447,332.6427 648.1447,332.6427 646.8947,331.3927 646.8947,331.3927 645.6447,330.7677 645.6447,330.7677"/>
    <polyline points="762.7805,330.7677 762.7805,343.8927 762.7805,343.8927 754.0305,330.7677 754.0305,330.7677 754.0305,343.8927"/>
  </g>
</svg>
