<?xml version="1.0" encoding="utf-8" ?>
<svg xmlns="http://www.w3.org/2000/svg" xmlns:cc="http://creativecommons.org/ns" xmlns:dc="http://purl.org/dc/elements/1.1/" xmlns:ev="http://www.w3.org/2001/xml-events" xmlns:inkscape="http://www.inkscape.org/namespaces/inkscape" xmlns:rdf="http://www.w3.org/1999/02/22-rdf-syntax-ns" xmlns:sodipodi="http://sodipodi.sourceforge.net/DTD/sodipodi-0.dtd" xmlns:xlink="http://www.w3.org/1999/xlink" baseProfile="tiny" height="9.9cm" version="1.2" viewBox="0 0 793.7007874015749 374.1732283464567" width="21.0cm">
  <metadata>
    <rdf:RDF>
      <cc:Work>
        <dc:format>image/svg+xml</dc:format>
        <dc:source>vpype eval 'cell=10;width=210;height=99' eval 'nCols=20;nRows=9' eval 'cells=[0,1,2,3,4,5,6,7,8,10,11,12,13,14,15,16,17,19,26,30,37,39,42,43,44,45,46,48,49,50,51,52,53,54,55,57,59,60,66,70,77,79,80,82,83,84,85,86,87,88,89,90,91,92,94,95,96,97,98,99,100,106,110,117,119,120,121,122,123,124,125,126,127,128,130,140,146,150,160,164,165,166,167,168,169,170,171,172,173,174,175]' eval 'chars=[&quot;U&quot;,&quot;I&quot;,&quot;T&quot;,&quot;L&quot;,&quot;I&quot;,&quot;K&quot;,&quot;K&quot;,&quot;E&quot;,&quot;N&quot;,&quot;M&quot;,&quot;A&quot;,&quot;T&quot;,&quot;T&quot;,&quot;H&quot;,&quot;I&quot;,&quot;A&quot;,&quot;S&quot;,&quot;X&quot;,&quot;L&quot;,&quot;A&quot;,&quot;Y&quot;,&quot;A&quot;,&quot;K&quot;,&quot;A&quot;,&quot;S&quot;,&quot;S&quot;,&quot;A&quot;,&quot;H&quot;,&quot;A&quot;,&quot;N&quot;,&quot;D&quot;,&quot;D&quot;,&quot;O&quot;,&quot;E&quot;,&quot;K&quot;,&quot;L&quot;,&quot;N&quot;,&quot;T&quot;,&quot;V&quot;,&quot;D&quot;,&quot;V&quot;,&quot;D&quot;,&quot;E&quot;,&quot;M&quot;,&quot;I&quot;,&quot;S&quot;,&quot;V&quot;,&quot;E&quot;,&quot;R&quot;,&quot;S&quot;,&quot;T&quot;,&quot;A&quot;,&quot;N&quot;,&quot;D&quot;,&quot;L&quot;,&quot;O&quot;,&quot;U&quot;,&quot;I&quot;,&quot;S&quot;,&quot;E&quot;,&quot;R&quot;,&quot;R&quot;,&quot;R&quot;,&quot;E&quot;,&quot;R&quot;,&quot;R&quot;,&quot;E&quot;,&quot;K&quot;,&quot;K&quot;,&quot;E&quot;,&quot;R&quot;,&quot;T&quot;,&quot;J&quot;,&quot;E&quot;,&quot;I&quot;,&quot;A&quot;,&quot;J&quot;,&quot;J&quot;,&quot;S&quot;,&quot;F&quot;,&quot;L&quot;,&quot;E&quot;,&quot;S&quot;,&quot;S&quot;,&quot;E&quot;,&quot;N&quot;,&quot;G&quot;,&quot;E&quot;,&quot;L&quot;,&quot;U&quot;,&quot;K&quot;]' eval 'numbers=[0,6,10,17,19,42,48,60,82,94,120,164]' eval counter=1 eval charIndex=0 begin grid -o '%cell*mm%' '%cell*mm%' %nCols% %nRows% eval '%isCell=_i in cells%' eval '%number=_i in numbers%' eval '%size=10 if isCell else 0%' rect 0 0 '%size*mm%' '%size*mm%' text -s 10 -p 0.5mm 1.5mm '%counter if number else '&quot;'&quot;''&quot;'&quot;'%' text -s 20 -p 5mm 5mm -a center '%chars[charIndex] if isCell else '&quot;'&quot;''&quot;'&quot;'%' eval '%if number: counter+=1 %' eval '%if isCell: charIndex+=1 %' end splitall deduplicate linemerge --tolerance 0.1mm write -m none --page-size '%width*mm%x%height*mm%' --center ./svgs/solution/ef23f4.svg
</dc:source>
        <dc:date>2023-12-24T14:36:20.973234</dc:date>
      </cc:Work>
    </rdf:RDF>
  </metadata>
  <defs/>
  <g fill="none" id="layer1" inkscape:groupmode="layer" inkscape:label="1" stroke="#000000" style="display:inline">
    <polygon points="18.8976,17.0079 18.8976,54.8031 18.8976,54.8031 56.6929,54.8031 56.6929,54.8031 56.6929,17.0079 56.6929,17.0079"/>
    <polyline points="22.6624,20.1772 23.2874,19.8647 23.2874,19.8647 24.2249,18.9272 24.2249,18.9272 24.2249,25.4897"/>
    <polyline points="35.9203,28.4055 35.9203,37.7805 35.9203,37.7805 36.5453,39.6555 36.5453,39.6555 37.7953,40.9055 37.7953,40.9055 39.6703,41.5305 39.6703,41.5305 40.9203,41.5305 40.9203,41.5305 42.7953,40.9055 42.7953,40.9055 44.0453,39.6555 44.0453,39.6555 44.6703,37.7805 44.6703,37.7805 44.6703,28.4055"/>
    <polyline points="56.6929,54.8031 94.4882,54.8031 94.4882,54.8031 132.2835,54.8031 132.2835,54.8031 170.0787,54.8031 170.0787,54.8031 170.0787,17.0079 170.0787,17.0079 132.2835,17.0079 132.2835,17.0079 94.4882,17.0079 94.4882,17.0079 56.6929,17.0079"/>
    <line x1="94.4882" x2="94.4882" y1="54.8031" y2="17.0079"/>
    <line x1="78.0906" x2="78.0906" y1="28.4055" y2="41.5305"/>
    <line x1="132.2835" x2="132.2835" y1="54.8031" y2="17.0079"/>
    <line x1="114.0108" x2="114.0108" y1="28.4055" y2="41.5305"/>
    <line x1="109.6358" x2="118.3858" y1="28.4055" y2="28.4055"/>
    <polyline points="149.9311,28.4055 149.9311,41.5305 149.9311,41.5305 157.4311,41.5305"/>
    <polyline points="170.0787,54.8031 207.874,54.8031 207.874,54.8031 207.874,17.0079 207.874,17.0079 170.0787,17.0079"/>
    <line x1="191.4764" x2="191.4764" y1="28.4055" y2="41.5305"/>
    <polyline points="207.874,54.8031 245.6693,54.8031 245.6693,54.8031 245.6693,17.0079 245.6693,17.0079 207.874,17.0079"/>
    <line x1="224.8967" x2="224.8967" y1="28.4055" y2="41.5305"/>
    <line x1="233.6467" x2="224.8967" y1="28.4055" y2="37.1555"/>
    <line x1="228.0217" x2="233.6467" y1="34.0305" y2="41.5305"/>
    <polyline points="283.4646,17.0079 321.2598,17.0079 321.2598,17.0079 321.2598,54.8031 321.2598,54.8031 283.4646,54.8031 283.4646,54.8031 283.4646,92.5984 283.4646,92.5984 245.6693,92.5984 245.6693,92.5984 245.6693,54.8031 245.6693,54.8031 283.4646,54.8031 283.4646,54.8031 283.4646,17.0079 283.4646,17.0079 245.6693,17.0079"/>
    <polyline points="248.8091,20.4897 248.8091,20.1772 248.8091,20.1772 249.1216,19.5522 249.1216,19.5522 249.4341,19.2397 249.4341,19.2397 250.0591,18.9272 250.0591,18.9272 251.3091,18.9272 251.3091,18.9272 251.9341,19.2397 251.9341,19.2397 252.2466,19.5522 252.2466,19.5522 252.5591,20.1772 252.5591,20.1772 252.5591,20.8022 252.5591,20.8022 252.2466,21.4272 252.2466,21.4272 251.6216,22.3647 251.6216,22.3647 248.4966,25.4897 248.4966,25.4897 252.8716,25.4897"/>
    <line x1="262.6919" x2="262.6919" y1="28.4055" y2="41.5305"/>
    <line x1="271.4419" x2="262.6919" y1="28.4055" y2="37.1555"/>
    <line x1="265.8169" x2="271.4419" y1="34.0305" y2="41.5305"/>
    <polyline points="308.9247,28.4055 300.7997,28.4055 300.7997,28.4055 300.7997,41.5305 300.7997,41.5305 308.9247,41.5305"/>
    <line x1="300.7997" x2="305.7997" y1="34.6555" y2="34.6555"/>
    <polyline points="321.2598,54.8031 359.0551,54.8031 359.0551,54.8031 359.0551,17.0079 359.0551,17.0079 321.2598,17.0079"/>
    <polyline points="347.0325,28.4055 347.0325,41.5305 347.0325,41.5305 338.2825,28.4055 338.2825,28.4055 338.2825,41.5305"/>
    <polygon points="396.8504,17.0079 396.8504,54.8031 396.8504,54.8031 396.8504,92.5984 396.8504,92.5984 434.6457,92.5984 434.6457,92.5984 434.6457,54.8031 434.6457,54.8031 434.6457,17.0079 434.6457,17.0079"/>
    <polyline points="396.8504,54.8031 434.6457,54.8031 434.6457,54.8031 472.4409,54.8031 472.4409,54.8031 472.4409,17.0079 472.4409,17.0079 434.6457,17.0079"/>
    <polyline points="400.3027,18.9272 403.7402,18.9272 403.7402,18.9272 401.8652,21.4272 401.8652,21.4272 402.8027,21.4272 402.8027,21.4272 403.4277,21.7397 403.4277,21.7397 403.7402,22.0522 403.7402,22.0522 404.0527,22.9897 404.0527,22.9897 404.0527,23.6147 404.0527,23.6147 403.7402,24.5522 403.7402,24.5522 403.1152,25.1772 403.1152,25.1772 402.1777,25.4897 402.1777,25.4897 401.2402,25.4897 401.2402,25.4897 400.3027,25.1772 400.3027,25.1772 399.9902,24.8647 399.9902,24.8647 399.6777,24.2397"/>
    <polyline points="423.248,41.5305 423.248,28.4055 423.248,28.4055 418.248,41.5305 418.248,41.5305 413.248,28.4055 413.248,28.4055 413.248,41.5305"/>
    <polyline points="459.1683,41.5305 454.1683,28.4055 454.1683,28.4055 449.1683,41.5305"/>
    <line x1="451.0433" x2="457.2933" y1="37.1555" y2="37.1555"/>
    <polyline points="472.4409,54.8031 510.2362,54.8031 510.2362,54.8031 510.2362,17.0079 510.2362,17.0079 472.4409,17.0079"/>
    <line x1="491.9636" x2="491.9636" y1="28.4055" y2="41.5305"/>
    <line x1="487.5886" x2="496.3386" y1="28.4055" y2="28.4055"/>
    <polyline points="510.2362,54.8031 548.0315,54.8031 548.0315,54.8031 548.0315,17.0079 548.0315,17.0079 510.2362,17.0079"/>
    <line x1="529.7589" x2="529.7589" y1="28.4055" y2="41.5305"/>
    <line x1="525.3839" x2="534.1339" y1="28.4055" y2="28.4055"/>
    <polyline points="548.0315,54.8031 585.8268,54.8031 585.8268,54.8031 585.8268,17.0079 585.8268,17.0079 548.0315,17.0079"/>
    <line x1="565.0541" x2="565.0541" y1="28.4055" y2="41.5305"/>
    <line x1="573.8041" x2="573.8041" y1="28.4055" y2="41.5305"/>
    <line x1="565.0541" x2="573.8041" y1="34.6555" y2="34.6555"/>
    <polyline points="585.8268,54.8031 623.622,54.8031 623.622,54.8031 623.622,17.0079 623.622,17.0079 585.8268,17.0079"/>
    <line x1="607.2244" x2="607.2244" y1="28.4055" y2="41.5305"/>
    <polyline points="623.622,54.8031 661.4173,54.8031 661.4173,54.8031 699.2126,54.8031 699.2126,54.8031 699.2126,17.0079 699.2126,17.0079 661.4173,17.0079 661.4173,17.0079 623.622,17.0079"/>
    <polyline points="699.2126,54.8031 699.2126,92.5984 699.2126,92.5984 699.2126,130.3937 699.2126,130.3937 661.4173,130.3937 661.4173,130.3937 661.4173,92.5984 661.4173,92.5984 661.4173,54.8031 661.4173,54.8031 661.4173,17.0079"/>
    <polyline points="648.1447,41.5305 643.1447,28.4055 643.1447,28.4055 638.1447,41.5305"/>
    <line x1="640.0197" x2="646.2697" y1="37.1555" y2="37.1555"/>
    <polyline points="667.3696,25.4897 667.3696,18.9272 667.3696,18.9272 664.2446,23.3022 664.2446,23.3022 668.9321,23.3022"/>
    <polyline points="686.565,30.2805 685.315,29.0305 685.315,29.0305 683.44,28.4055 683.44,28.4055 680.94,28.4055 680.94,28.4055 679.065,29.0305 679.065,29.0305 677.815,30.2805 677.815,30.2805 677.815,31.5305 677.815,31.5305 678.44,32.7805 678.44,32.7805 679.065,33.4055 679.065,33.4055 680.315,34.0305 680.315,34.0305 684.065,35.2805 684.065,35.2805 685.315,35.9055 685.315,35.9055 685.94,36.5305 685.94,36.5305 686.565,37.7805 686.565,37.7805 686.565,39.6555 686.565,39.6555 685.315,40.9055 685.315,40.9055 683.44,41.5305 683.44,41.5305 680.94,41.5305 680.94,41.5305 679.065,40.9055 679.065,40.9055 677.815,39.6555"/>
    <polygon points="737.0079,17.0079 737.0079,54.8031 737.0079,54.8031 737.0079,92.5984 737.0079,92.5984 774.8031,92.5984 774.8031,92.5984 774.8031,54.8031 774.8031,54.8031 774.8031,17.0079 774.8031,17.0079"/>
    <line x1="737.0079" x2="774.8031" y1="54.8031" y2="54.8031"/>
    <polyline points="743.5851,18.9272 740.4601,18.9272 740.4601,18.9272 740.1476,21.7397 740.1476,21.7397 740.4601,21.4272 740.4601,21.4272 741.3976,21.1147 741.3976,21.1147 742.3351,21.1147 742.3351,21.1147 743.2726,21.4272 743.2726,21.4272 743.8976,22.0522 743.8976,22.0522 744.2101,22.9897 744.2101,22.9897 744.2101,23.6147 744.2101,23.6147 743.8976,24.5522 743.8976,24.5522 743.2726,25.1772 743.2726,25.1772 742.3351,25.4897 742.3351,25.4897 741.3976,25.4897 741.3976,25.4897 740.4601,25.1772 740.4601,25.1772 740.1476,24.8647 740.1476,24.8647 739.8351,24.2397"/>
    <line x1="753.4055" x2="762.1555" y1="28.4055" y2="41.5305"/>
    <line x1="762.1555" x2="753.4055" y1="28.4055" y2="41.5305"/>
    <polyline points="263.3169,66.2008 263.3169,79.3258 263.3169,79.3258 270.8169,79.3258"/>
    <polyline points="421.373,79.3258 416.373,66.2008 416.373,66.2008 411.373,79.3258"/>
    <line x1="413.248" x2="419.498" y1="74.9508" y2="74.9508"/>
    <line x1="661.4173" x2="699.2126" y1="92.5984" y2="92.5984"/>
    <polyline points="675.94,66.2008 680.94,72.4508 680.94,72.4508 680.94,79.3258"/>
    <line x1="685.94" x2="680.94" y1="66.2008" y2="72.4508"/>
    <polyline points="761.5305,79.3258 756.5305,66.2008 756.5305,66.2008 751.5305,79.3258"/>
    <line x1="753.4055" x2="759.6555" y1="74.9508" y2="74.9508"/>
    <polygon points="94.4882,92.5984 94.4882,130.3937 94.4882,130.3937 132.2835,130.3937 132.2835,130.3937 170.0787,130.3937 170.0787,130.3937 170.0787,92.5984 170.0787,92.5984 132.2835,92.5984 132.2835,92.5984"/>
    <line x1="132.2835" x2="132.2835" y1="130.3937" y2="92.5984"/>
    <polyline points="101.378,95.4552 101.0655,94.8302 101.0655,94.8302 100.128,94.5177 100.128,94.5177 99.503,94.5177 99.503,94.5177 98.5655,94.8302 98.5655,94.8302 97.9405,95.7677 97.9405,95.7677 97.628,97.3302 97.628,97.3302 97.628,98.8927 97.628,98.8927 97.9405,100.1427 97.9405,100.1427 98.5655,100.7677 98.5655,100.7677 99.503,101.0802 99.503,101.0802 99.8155,101.0802 99.8155,101.0802 100.753,100.7677 100.753,100.7677 101.378,100.1427 101.378,100.1427 101.6905,99.2052 101.6905,99.2052 101.6905,98.8927 101.6905,98.8927 101.378,97.9552 101.378,97.9552 100.753,97.3302 100.753,97.3302 99.8155,97.0177 99.8155,97.0177 99.503,97.0177 99.503,97.0177 98.5655,97.3302 98.5655,97.3302 97.9405,97.9552 97.9405,97.9552 97.628,98.8927"/>
    <line x1="111.5108" x2="111.5108" y1="103.9961" y2="117.1211"/>
    <line x1="120.2608" x2="111.5108" y1="103.9961" y2="112.7461"/>
    <line x1="114.6358" x2="120.2608" y1="109.6211" y2="117.1211"/>
    <polyline points="156.8061,117.1211 151.8061,103.9961 151.8061,103.9961 146.8061,117.1211"/>
    <line x1="148.6811" x2="154.9311" y1="112.7461" y2="112.7461"/>
    <polyline points="170.0787,130.3937 207.874,130.3937 207.874,130.3937 207.874,92.5984 207.874,92.5984 170.0787,92.5984"/>
    <polyline points="195.2264,105.8711 193.9764,104.6211 193.9764,104.6211 192.1014,103.9961 192.1014,103.9961 189.6014,103.9961 189.6014,103.9961 187.7264,104.6211 187.7264,104.6211 186.4764,105.8711 186.4764,105.8711 186.4764,107.1211 186.4764,107.1211 187.1014,108.3711 187.1014,108.3711 187.7264,108.9961 187.7264,108.9961 188.9764,109.6211 188.9764,109.6211 192.7264,110.8711 192.7264,110.8711 193.9764,111.4961 193.9764,111.4961 194.6014,112.1211 194.6014,112.1211 195.2264,113.3711 195.2264,113.3711 195.2264,115.2461 195.2264,115.2461 193.9764,116.4961 193.9764,116.4961 192.1014,117.1211 192.1014,117.1211 189.6014,117.1211 189.6014,117.1211 187.7264,116.4961 187.7264,116.4961 186.4764,115.2461"/>
    <polyline points="207.874,130.3937 245.6693,130.3937 245.6693,130.3937 245.6693,92.5984 245.6693,92.5984 207.874,92.5984"/>
    <polyline points="233.0217,105.8711 231.7717,104.6211 231.7717,104.6211 229.8967,103.9961 229.8967,103.9961 227.3967,103.9961 227.3967,103.9961 225.5217,104.6211 225.5217,104.6211 224.2717,105.8711 224.2717,105.8711 224.2717,107.1211 224.2717,107.1211 224.8967,108.3711 224.8967,108.3711 225.5217,108.9961 225.5217,108.9961 226.7717,109.6211 226.7717,109.6211 230.5217,110.8711 230.5217,110.8711 231.7717,111.4961 231.7717,111.4961 232.3967,112.1211 232.3967,112.1211 233.0217,113.3711 233.0217,113.3711 233.0217,115.2461 233.0217,115.2461 231.7717,116.4961 231.7717,116.4961 229.8967,117.1211 229.8967,117.1211 227.3967,117.1211 227.3967,117.1211 225.5217,116.4961 225.5217,116.4961 224.2717,115.2461"/>
    <polyline points="283.4646,130.3937 283.4646,168.189 283.4646,168.189 245.6693,168.189 245.6693,168.189 245.6693,130.3937 245.6693,130.3937 283.4646,130.3937 283.4646,130.3937 283.4646,92.5984"/>
    <polyline points="270.1919,117.1211 265.1919,103.9961 265.1919,103.9961 260.1919,117.1211"/>
    <line x1="262.0669" x2="268.3169" y1="112.7461" y2="112.7461"/>
    <polygon points="321.2598,92.5984 321.2598,130.3937 321.2598,130.3937 359.0551,130.3937 359.0551,130.3937 359.0551,92.5984 359.0551,92.5984"/>
    <polyline points="324.0871,94.5177 328.4621,94.5177 328.4621,94.5177 325.3371,101.0802"/>
    <line x1="338.2825" x2="338.2825" y1="103.9961" y2="117.1211"/>
    <line x1="347.0325" x2="347.0325" y1="103.9961" y2="117.1211"/>
    <line x1="338.2825" x2="347.0325" y1="110.2461" y2="110.2461"/>
    <polyline points="359.0551,130.3937 396.8504,130.3937 396.8504,130.3937 434.6457,130.3937 434.6457,130.3937 434.6457,92.5984 434.6457,92.5984 472.4409,92.5984 472.4409,92.5984 472.4409,130.3937 472.4409,130.3937 510.2362,130.3937 510.2362,130.3937 510.2362,92.5984 510.2362,92.5984 472.4409,92.5984"/>
    <polyline points="472.4409,130.3937 434.6457,130.3937 434.6457,130.3937 434.6457,168.189 434.6457,168.189 434.6457,205.9843 434.6457,205.9843 396.8504,205.9843 396.8504,205.9843 359.0551,205.9843 359.0551,205.9843 321.2598,205.9843 321.2598,205.9843 283.4646,205.9843 283.4646,205.9843 283.4646,168.189 283.4646,168.189 321.2598,168.189 321.2598,168.189 359.0551,168.189 359.0551,168.189 396.8504,168.189 396.8504,168.189 396.8504,130.3937 396.8504,130.3937 396.8504,92.5984 396.8504,92.5984 359.0551,92.5984"/>
    <polyline points="383.5778,117.1211 378.5778,103.9961 378.5778,103.9961 373.5778,117.1211"/>
    <line x1="375.4528" x2="381.7028" y1="112.7461" y2="112.7461"/>
    <polyline points="422.623,103.9961 422.623,117.1211 422.623,117.1211 413.873,103.9961 413.873,103.9961 413.873,117.1211"/>
    <polygon points="451.6683,103.9961 451.6683,117.1211 451.6683,117.1211 456.0433,117.1211 456.0433,117.1211 457.9183,116.4961 457.9183,116.4961 459.1683,115.2461 459.1683,115.2461 459.7933,113.9961 459.7933,113.9961 460.4183,112.1211 460.4183,112.1211 460.4183,108.9961 460.4183,108.9961 459.7933,107.1211 459.7933,107.1211 459.1683,105.8711 459.1683,105.8711 457.9183,104.6211 457.9183,104.6211 456.0433,103.9961 456.0433,103.9961"/>
    <polygon points="489.4636,103.9961 489.4636,117.1211 489.4636,117.1211 493.8386,117.1211 493.8386,117.1211 495.7136,116.4961 495.7136,116.4961 496.9636,115.2461 496.9636,115.2461 497.5886,113.9961 497.5886,113.9961 498.2136,112.1211 498.2136,112.1211 498.2136,108.9961 498.2136,108.9961 497.5886,107.1211 497.5886,107.1211 496.9636,105.8711 496.9636,105.8711 495.7136,104.6211 495.7136,104.6211 493.8386,103.9961 493.8386,103.9961"/>
    <polyline points="510.2362,130.3937 548.0315,130.3937 548.0315,130.3937 585.8268,130.3937 585.8268,130.3937 585.8268,92.5984 585.8268,92.5984 548.0315,92.5984 548.0315,92.5984 510.2362,92.5984"/>
    <line x1="548.0315" x2="548.0315" y1="130.3937" y2="92.5984"/>
    <polygon points="529.7589,103.9961 528.5089,104.6211 528.5089,104.6211 527.2589,105.8711 527.2589,105.8711 526.6339,107.1211 526.6339,107.1211 526.0089,108.9961 526.0089,108.9961 526.0089,112.1211 526.0089,112.1211 526.6339,113.9961 526.6339,113.9961 527.2589,115.2461 527.2589,115.2461 528.5089,116.4961 528.5089,116.4961 529.7589,117.1211 529.7589,117.1211 532.2589,117.1211 532.2589,117.1211 533.5089,116.4961 533.5089,116.4961 534.7589,115.2461 534.7589,115.2461 535.3839,113.9961 535.3839,113.9961 536.0089,112.1211 536.0089,112.1211 536.0089,108.9961 536.0089,108.9961 535.3839,107.1211 535.3839,107.1211 534.7589,105.8711 534.7589,105.8711 533.5089,104.6211 533.5089,104.6211 532.2589,103.9961 532.2589,103.9961"/>
    <polyline points="573.4916,103.9961 565.3666,103.9961 565.3666,103.9961 565.3666,117.1211 565.3666,117.1211 573.4916,117.1211"/>
    <line x1="565.3666" x2="570.3666" y1="110.2461" y2="110.2461"/>
    <polyline points="585.8268,130.3937 623.622,130.3937 623.622,130.3937 623.622,92.5984 623.622,92.5984 585.8268,92.5984"/>
    <line x1="602.8494" x2="602.8494" y1="103.9961" y2="117.1211"/>
    <line x1="611.5994" x2="602.8494" y1="103.9961" y2="112.7461"/>
    <line x1="605.9744" x2="611.5994" y1="109.6211" y2="117.1211"/>
    <polyline points="679.065,103.9961 679.065,117.1211 679.065,117.1211 686.565,117.1211"/>
    <polyline points="737.0079,92.5984 737.0079,130.3937 737.0079,130.3937 774.8031,130.3937 774.8031,130.3937 774.8031,92.5984"/>
    <polyline points="762.7805,103.9961 762.7805,117.1211 762.7805,117.1211 754.0305,103.9961 754.0305,103.9961 754.0305,117.1211"/>
    <polygon points="18.8976,130.3937 18.8976,168.189 18.8976,168.189 56.6929,168.189 56.6929,168.189 56.6929,130.3937 56.6929,130.3937"/>
    <polygon points="23.2874,132.313 22.3499,132.6255 22.3499,132.6255 22.0374,133.2505 22.0374,133.2505 22.0374,133.8755 22.0374,133.8755 22.3499,134.5005 22.3499,134.5005 22.9749,134.813 22.9749,134.813 24.2249,135.1255 24.2249,135.1255 25.1624,135.438 25.1624,135.438 25.7874,136.063 25.7874,136.063 26.0999,136.688 26.0999,136.688 26.0999,137.6255 26.0999,137.6255 25.7874,138.2505 25.7874,138.2505 25.4749,138.563 25.4749,138.563 24.5374,138.8755 24.5374,138.8755 23.2874,138.8755 23.2874,138.8755 22.3499,138.563 22.3499,138.563 22.0374,138.2505 22.0374,138.2505 21.7249,137.6255 21.7249,137.6255 21.7249,136.688 21.7249,136.688 22.0374,136.063 22.0374,136.063 22.6624,135.438 22.6624,135.438 23.5999,135.1255 23.5999,135.1255 24.8499,134.813 24.8499,134.813 25.4749,134.5005 25.4749,134.5005 25.7874,133.8755 25.7874,133.8755 25.7874,133.2505 25.7874,133.2505 25.4749,132.6255 25.4749,132.6255 24.5374,132.313 24.5374,132.313"/>
    <line x1="38.4203" x2="38.4203" y1="141.7913" y2="154.9163"/>
    <line x1="34.0453" x2="42.7953" y1="141.7913" y2="141.7913"/>
    <polyline points="260.1919,141.7913 265.1919,154.9163 265.1919,154.9163 270.1919,141.7913"/>
    <polyline points="472.4409,205.9843 434.6457,205.9843 434.6457,205.9843 434.6457,243.7795 434.6457,243.7795 396.8504,243.7795 396.8504,243.7795 396.8504,205.9843 396.8504,205.9843 396.8504,168.189 396.8504,168.189 434.6457,168.189 434.6457,168.189 472.4409,168.189 472.4409,168.189 472.4409,205.9843 472.4409,205.9843 510.2362,205.9843 510.2362,205.9843 510.2362,168.189 510.2362,168.189 472.4409,168.189"/>
    <polygon points="413.873,141.7913 413.873,154.9163 413.873,154.9163 418.248,154.9163 418.248,154.9163 420.123,154.2913 420.123,154.2913 421.373,153.0413 421.373,153.0413 421.998,151.7913 421.998,151.7913 422.623,149.9163 422.623,149.9163 422.623,146.7913 422.623,146.7913 421.998,144.9163 421.998,144.9163 421.373,143.6663 421.373,143.6663 420.123,142.4163 420.123,142.4163 418.248,141.7913 418.248,141.7913"/>
    <polyline points="661.4173,130.3937 661.4173,168.189 661.4173,168.189 623.622,168.189 623.622,168.189 585.8268,168.189 585.8268,168.189 548.0315,168.189 548.0315,168.189 548.0315,205.9843 548.0315,205.9843 585.8268,205.9843 585.8268,205.9843 585.8268,168.189"/>
    <polyline points="774.8031,130.3937 774.8031,168.189 774.8031,168.189 737.0079,168.189 737.0079,168.189 699.2126,168.189 699.2126,168.189 699.2126,205.9843 699.2126,205.9843 661.4173,205.9843 661.4173,205.9843 661.4173,168.189 661.4173,168.189 699.2126,168.189 699.2126,168.189 699.2126,130.3937"/>
    <polyline points="675.94,141.7913 680.94,154.9163 680.94,154.9163 685.94,141.7913"/>
    <polyline points="737.0079,130.3937 737.0079,168.189 737.0079,168.189 737.0079,205.9843 737.0079,205.9843 737.0079,243.7795 737.0079,243.7795 774.8031,243.7795 774.8031,243.7795 774.8031,205.9843 774.8031,205.9843 774.8031,168.189"/>
    <polygon points="754.0305,141.7913 754.0305,154.9163 754.0305,154.9163 758.4055,154.9163 758.4055,154.9163 760.2805,154.2913 760.2805,154.2913 761.5305,153.0413 761.5305,153.0413 762.1555,151.7913 762.1555,151.7913 762.7805,149.9163 762.7805,149.9163 762.7805,146.7913 762.7805,146.7913 762.1555,144.9163 762.1555,144.9163 761.5305,143.6663 761.5305,143.6663 760.2805,142.4163 760.2805,142.4163 758.4055,141.7913 758.4055,141.7913"/>
    <polyline points="18.8976,168.189 18.8976,205.9843 18.8976,205.9843 56.6929,205.9843 56.6929,205.9843 56.6929,168.189"/>
    <polyline points="44.3578,179.5866 36.2328,179.5866 36.2328,179.5866 36.2328,192.7116 36.2328,192.7116 44.3578,192.7116"/>
    <line x1="36.2328" x2="41.2328" y1="185.8366" y2="185.8366"/>
    <polygon points="94.4882,168.189 94.4882,205.9843 94.4882,205.9843 132.2835,205.9843 132.2835,205.9843 132.2835,168.189 132.2835,168.189"/>
    <polyline points="101.378,172.2958 101.0655,173.2333 101.0655,173.2333 100.4405,173.8583 100.4405,173.8583 99.503,174.1708 99.503,174.1708 99.1905,174.1708 99.1905,174.1708 98.253,173.8583 98.253,173.8583 97.628,173.2333 97.628,173.2333 97.3155,172.2958 97.3155,172.2958 97.3155,171.9833 97.3155,171.9833 97.628,171.0458 97.628,171.0458 98.253,170.4208 98.253,170.4208 99.1905,170.1083 99.1905,170.1083 99.503,170.1083 99.503,170.1083 100.4405,170.4208 100.4405,170.4208 101.0655,171.0458 101.0655,171.0458 101.378,172.2958 101.378,172.2958 101.378,173.8583 101.378,173.8583 101.0655,175.4208 101.0655,175.4208 100.4405,176.3583 100.4405,176.3583 99.503,176.6708 99.503,176.6708 98.878,176.6708 98.878,176.6708 97.9405,176.3583 97.9405,176.3583 97.628,175.7333"/>
    <polyline points="120.8858,192.7116 120.8858,179.5866 120.8858,179.5866 115.8858,192.7116 115.8858,192.7116 110.8858,179.5866 110.8858,179.5866 110.8858,192.7116"/>
    <polyline points="132.2835,205.9843 170.0787,205.9843 170.0787,205.9843 207.874,205.9843 207.874,205.9843 207.874,168.189 207.874,168.189 170.0787,168.189 170.0787,168.189 132.2835,168.189"/>
    <line x1="170.0787" x2="170.0787" y1="205.9843" y2="168.189"/>
    <line x1="153.6811" x2="153.6811" y1="179.5866" y2="192.7116"/>
    <polyline points="195.2264,181.4616 193.9764,180.2116 193.9764,180.2116 192.1014,179.5866 192.1014,179.5866 189.6014,179.5866 189.6014,179.5866 187.7264,180.2116 187.7264,180.2116 186.4764,181.4616 186.4764,181.4616 186.4764,182.7116 186.4764,182.7116 187.1014,183.9616 187.1014,183.9616 187.7264,184.5866 187.7264,184.5866 188.9764,185.2116 188.9764,185.2116 192.7264,186.4616 192.7264,186.4616 193.9764,187.0866 193.9764,187.0866 194.6014,187.7116 194.6014,187.7116 195.2264,188.9616 195.2264,188.9616 195.2264,190.8366 195.2264,190.8366 193.9764,192.0866 193.9764,192.0866 192.1014,192.7116 192.1014,192.7116 189.6014,192.7116 189.6014,192.7116 187.7264,192.0866 187.7264,192.0866 186.4764,190.8366"/>
    <polyline points="207.874,205.9843 245.6693,205.9843 245.6693,205.9843 245.6693,168.189 245.6693,168.189 207.874,168.189"/>
    <polyline points="222.3967,179.5866 227.3967,192.7116 227.3967,192.7116 232.3967,179.5866"/>
    <polygon points="245.6693,205.9843 283.4646,205.9843 283.4646,205.9843 283.4646,243.7795 283.4646,243.7795 245.6693,243.7795 245.6693,243.7795"/>
    <polyline points="271.1294,179.5866 263.0044,179.5866 263.0044,179.5866 263.0044,192.7116 263.0044,192.7116 271.1294,192.7116"/>
    <line x1="263.0044" x2="268.0044" y1="185.8366" y2="185.8366"/>
    <line x1="321.2598" x2="321.2598" y1="205.9843" y2="168.189"/>
    <polyline points="300.4872,185.8366 306.1122,185.8366 306.1122,185.8366 307.9872,185.2116 307.9872,185.2116 308.6122,184.5866 308.6122,184.5866 309.2372,183.3366 309.2372,183.3366 309.2372,182.0866 309.2372,182.0866 308.6122,180.8366 308.6122,180.8366 307.9872,180.2116 307.9872,180.2116 306.1122,179.5866 306.1122,179.5866 300.4872,179.5866 300.4872,179.5866 300.4872,192.7116"/>
    <line x1="304.8622" x2="309.2372" y1="185.8366" y2="192.7116"/>
    <line x1="359.0551" x2="359.0551" y1="205.9843" y2="168.189"/>
    <polyline points="346.4075,181.4616 345.1575,180.2116 345.1575,180.2116 343.2825,179.5866 343.2825,179.5866 340.7825,179.5866 340.7825,179.5866 338.9075,180.2116 338.9075,180.2116 337.6575,181.4616 337.6575,181.4616 337.6575,182.7116 337.6575,182.7116 338.2825,183.9616 338.2825,183.9616 338.9075,184.5866 338.9075,184.5866 340.1575,185.2116 340.1575,185.2116 343.9075,186.4616 343.9075,186.4616 345.1575,187.0866 345.1575,187.0866 345.7825,187.7116 345.7825,187.7116 346.4075,188.9616 346.4075,188.9616 346.4075,190.8366 346.4075,190.8366 345.1575,192.0866 345.1575,192.0866 343.2825,192.7116 343.2825,192.7116 340.7825,192.7116 340.7825,192.7116 338.9075,192.0866 338.9075,192.0866 337.6575,190.8366"/>
    <line x1="378.5778" x2="378.5778" y1="179.5866" y2="192.7116"/>
    <line x1="374.2028" x2="382.9528" y1="179.5866" y2="179.5866"/>
    <polyline points="421.373,192.7116 416.373,179.5866 416.373,179.5866 411.373,192.7116"/>
    <line x1="413.248" x2="419.498" y1="188.3366" y2="188.3366"/>
    <polyline points="460.4183,179.5866 460.4183,192.7116 460.4183,192.7116 451.6683,179.5866 451.6683,179.5866 451.6683,192.7116"/>
    <polygon points="489.4636,179.5866 489.4636,192.7116 489.4636,192.7116 493.8386,192.7116 493.8386,192.7116 495.7136,192.0866 495.7136,192.0866 496.9636,190.8366 496.9636,190.8366 497.5886,189.5866 497.5886,189.5866 498.2136,187.7116 498.2136,187.7116 498.2136,184.5866 498.2136,184.5866 497.5886,182.7116 497.5886,182.7116 496.9636,181.4616 496.9636,181.4616 495.7136,180.2116 495.7136,180.2116 493.8386,179.5866 493.8386,179.5866"/>
    <polyline points="551.7963,171.3583 552.4213,171.0458 552.4213,171.0458 553.3588,170.1083 553.3588,170.1083 553.3588,176.6708"/>
    <polygon points="558.9838,170.1083 558.0463,170.4208 558.0463,170.4208 557.4213,171.3583 557.4213,171.3583 557.1088,172.9208 557.1088,172.9208 557.1088,173.8583 557.1088,173.8583 557.4213,175.4208 557.4213,175.4208 558.0463,176.3583 558.0463,176.3583 558.9838,176.6708 558.9838,176.6708 559.6088,176.6708 559.6088,176.6708 560.5463,176.3583 560.5463,176.3583 561.1713,175.4208 561.1713,175.4208 561.4838,173.8583 561.4838,173.8583 561.4838,172.9208 561.4838,172.9208 561.1713,171.3583 561.1713,171.3583 560.5463,170.4208 560.5463,170.4208 559.6088,170.1083 559.6088,170.1083"/>
    <polyline points="565.6791,179.5866 565.6791,192.7116 565.6791,192.7116 573.1791,192.7116"/>
    <polyline points="585.8268,205.9843 623.622,205.9843 623.622,205.9843 661.4173,205.9843 661.4173,205.9843 661.4173,243.7795 661.4173,243.7795 699.2126,243.7795 699.2126,243.7795 699.2126,205.9843 699.2126,205.9843 737.0079,205.9843 737.0079,205.9843 774.8031,205.9843"/>
    <line x1="623.622" x2="623.622" y1="205.9843" y2="168.189"/>
    <polygon points="605.3494,179.5866 604.0994,180.2116 604.0994,180.2116 602.8494,181.4616 602.8494,181.4616 602.2244,182.7116 602.2244,182.7116 601.5994,184.5866 601.5994,184.5866 601.5994,187.7116 601.5994,187.7116 602.2244,189.5866 602.2244,189.5866 602.8494,190.8366 602.8494,190.8366 604.0994,192.0866 604.0994,192.0866 605.3494,192.7116 605.3494,192.7116 607.8494,192.7116 607.8494,192.7116 609.0994,192.0866 609.0994,192.0866 610.3494,190.8366 610.3494,190.8366 610.9744,189.5866 610.9744,189.5866 611.5994,187.7116 611.5994,187.7116 611.5994,184.5866 611.5994,184.5866 610.9744,182.7116 610.9744,182.7116 610.3494,181.4616 610.3494,181.4616 609.0994,180.2116 609.0994,180.2116 607.8494,179.5866 607.8494,179.5866"/>
    <polyline points="640.6447,179.5866 640.6447,188.9616 640.6447,188.9616 641.2697,190.8366 641.2697,190.8366 642.5197,192.0866 642.5197,192.0866 644.3947,192.7116 644.3947,192.7116 645.6447,192.7116 645.6447,192.7116 647.5197,192.0866 647.5197,192.0866 648.7697,190.8366 648.7697,190.8366 649.3947,188.9616 649.3947,188.9616 649.3947,179.5866"/>
    <line x1="682.815" x2="682.815" y1="179.5866" y2="192.7116"/>
    <polyline points="724.3602,181.4616 723.1102,180.2116 723.1102,180.2116 721.2352,179.5866 721.2352,179.5866 718.7352,179.5866 718.7352,179.5866 716.8602,180.2116 716.8602,180.2116 715.6102,181.4616 715.6102,181.4616 715.6102,182.7116 715.6102,182.7116 716.2352,183.9616 716.2352,183.9616 716.8602,184.5866 716.8602,184.5866 718.1102,185.2116 718.1102,185.2116 721.8602,186.4616 721.8602,186.4616 723.1102,187.0866 723.1102,187.0866 723.7352,187.7116 723.7352,187.7116 724.3602,188.9616 724.3602,188.9616 724.3602,190.8366 724.3602,190.8366 723.1102,192.0866 723.1102,192.0866 721.2352,192.7116 721.2352,192.7116 718.7352,192.7116 718.7352,192.7116 716.8602,192.0866 716.8602,192.0866 715.6102,190.8366"/>
    <polyline points="762.468,179.5866 754.343,179.5866 754.343,179.5866 754.343,192.7116 754.343,192.7116 762.468,192.7116"/>
    <line x1="754.343" x2="759.343" y1="185.8366" y2="185.8366"/>
    <polyline points="18.8976,205.9843 18.8976,243.7795 18.8976,243.7795 56.6929,243.7795 56.6929,243.7795 56.6929,205.9843"/>
    <polyline points="35.9203,223.6319 41.5453,223.6319 41.5453,223.6319 43.4203,223.0069 43.4203,223.0069 44.0453,222.3819 44.0453,222.3819 44.6703,221.1319 44.6703,221.1319 44.6703,219.8819 44.6703,219.8819 44.0453,218.6319 44.0453,218.6319 43.4203,218.0069 43.4203,218.0069 41.5453,217.3819 41.5453,217.3819 35.9203,217.3819 35.9203,217.3819 35.9203,230.5069"/>
    <line x1="40.2953" x2="44.6703" y1="223.6319" y2="230.5069"/>
    <polyline points="262.6919,223.6319 268.3169,223.6319 268.3169,223.6319 270.1919,223.0069 270.1919,223.0069 270.8169,222.3819 270.8169,222.3819 271.4419,221.1319 271.4419,221.1319 271.4419,219.8819 271.4419,219.8819 270.8169,218.6319 270.8169,218.6319 270.1919,218.0069 270.1919,218.0069 268.3169,217.3819 268.3169,217.3819 262.6919,217.3819 262.6919,217.3819 262.6919,230.5069"/>
    <line x1="267.0669" x2="271.4419" y1="223.6319" y2="230.5069"/>
    <polyline points="413.873,223.6319 419.498,223.6319 419.498,223.6319 421.373,223.0069 421.373,223.0069 421.998,222.3819 421.998,222.3819 422.623,221.1319 422.623,221.1319 422.623,219.8819 422.623,219.8819 421.998,218.6319 421.998,218.6319 421.373,218.0069 421.373,218.0069 419.498,217.3819 419.498,217.3819 413.873,217.3819 413.873,217.3819 413.873,230.5069"/>
    <line x1="418.248" x2="422.623" y1="223.6319" y2="230.5069"/>
    <polyline points="686.8775,217.3819 678.7525,217.3819 678.7525,217.3819 678.7525,230.5069 678.7525,230.5069 686.8775,230.5069"/>
    <line x1="678.7525" x2="683.7525" y1="223.6319" y2="223.6319"/>
    <polyline points="754.0305,223.6319 759.6555,223.6319 759.6555,223.6319 761.5305,223.0069 761.5305,223.0069 762.1555,222.3819 762.1555,222.3819 762.7805,221.1319 762.7805,221.1319 762.7805,219.8819 762.7805,219.8819 762.1555,218.6319 762.1555,218.6319 761.5305,218.0069 761.5305,218.0069 759.6555,217.3819 759.6555,217.3819 754.0305,217.3819 754.0305,217.3819 754.0305,230.5069"/>
    <line x1="758.4055" x2="762.7805" y1="223.6319" y2="230.5069"/>
    <polyline points="18.8976,243.7795 18.8976,281.5748 18.8976,281.5748 56.6929,281.5748 56.6929,281.5748 94.4882,281.5748 94.4882,281.5748 132.2835,281.5748 132.2835,281.5748 132.2835,243.7795 132.2835,243.7795 94.4882,243.7795 94.4882,243.7795 56.6929,243.7795 56.6929,243.7795 56.6929,281.5748 56.6929,281.5748 56.6929,319.3701 56.6929,319.3701 18.8976,319.3701 18.8976,319.3701 18.8976,357.1654 18.8976,357.1654 56.6929,357.1654 56.6929,357.1654 56.6929,319.3701"/>
    <polyline points="22.6624,246.9488 23.2874,246.6363 23.2874,246.6363 24.2249,245.6988 24.2249,245.6988 24.2249,252.2613"/>
    <polyline points="28.9124,246.9488 29.5374,246.6363 29.5374,246.6363 30.4749,245.6988 30.4749,245.6988 30.4749,252.2613"/>
    <polyline points="35.9203,261.4272 41.5453,261.4272 41.5453,261.4272 43.4203,260.8022 43.4203,260.8022 44.0453,260.1772 44.0453,260.1772 44.6703,258.9272 44.6703,258.9272 44.6703,257.6772 44.6703,257.6772 44.0453,256.4272 44.0453,256.4272 43.4203,255.8022 43.4203,255.8022 41.5453,255.1772 41.5453,255.1772 35.9203,255.1772 35.9203,255.1772 35.9203,268.3022"/>
    <line x1="40.2953" x2="44.6703" y1="261.4272" y2="268.3022"/>
    <line x1="94.4882" x2="94.4882" y1="281.5748" y2="243.7795"/>
    <polyline points="82.1531,255.1772 74.0281,255.1772 74.0281,255.1772 74.0281,268.3022 74.0281,268.3022 82.1531,268.3022"/>
    <line x1="74.0281" x2="79.0281" y1="261.4272" y2="261.4272"/>
    <line x1="111.5108" x2="111.5108" y1="255.1772" y2="268.3022"/>
    <line x1="120.2608" x2="111.5108" y1="255.1772" y2="263.9272"/>
    <line x1="114.6358" x2="120.2608" y1="260.8022" y2="268.3022"/>
    <polyline points="132.2835,281.5748 170.0787,281.5748 170.0787,281.5748 207.874,281.5748 207.874,281.5748 245.6693,281.5748 245.6693,281.5748 245.6693,243.7795 245.6693,243.7795 207.874,243.7795 207.874,243.7795 170.0787,243.7795 170.0787,243.7795 132.2835,243.7795"/>
    <line x1="170.0787" x2="170.0787" y1="281.5748" y2="243.7795"/>
    <line x1="149.3061" x2="149.3061" y1="255.1772" y2="268.3022"/>
    <line x1="158.0561" x2="149.3061" y1="255.1772" y2="263.9272"/>
    <line x1="152.4311" x2="158.0561" y1="260.8022" y2="268.3022"/>
    <line x1="207.874" x2="207.874" y1="281.5748" y2="243.7795"/>
    <polyline points="195.5389,255.1772 187.4139,255.1772 187.4139,255.1772 187.4139,268.3022 187.4139,268.3022 195.5389,268.3022"/>
    <line x1="187.4139" x2="192.4139" y1="261.4272" y2="261.4272"/>
    <polyline points="224.8967,261.4272 230.5217,261.4272 230.5217,261.4272 232.3967,260.8022 232.3967,260.8022 233.0217,260.1772 233.0217,260.1772 233.6467,258.9272 233.6467,258.9272 233.6467,257.6772 233.6467,257.6772 233.0217,256.4272 233.0217,256.4272 232.3967,255.8022 232.3967,255.8022 230.5217,255.1772 230.5217,255.1772 224.8967,255.1772 224.8967,255.1772 224.8967,268.3022"/>
    <line x1="229.2717" x2="233.6467" y1="261.4272" y2="268.3022"/>
    <polygon points="245.6693,281.5748 283.4646,281.5748 283.4646,281.5748 321.2598,281.5748 321.2598,281.5748 321.2598,243.7795 321.2598,243.7795 283.4646,243.7795 283.4646,243.7795 283.4646,281.5748 283.4646,281.5748 283.4646,319.3701 283.4646,319.3701 245.6693,319.3701 245.6693,319.3701"/>
    <line x1="265.1919" x2="265.1919" y1="255.1772" y2="268.3022"/>
    <line x1="260.8169" x2="269.5669" y1="255.1772" y2="255.1772"/>
    <polyline points="306.7372,255.1772 306.7372,265.1772 306.7372,265.1772 306.1122,267.0522 306.1122,267.0522 305.4872,267.6772 305.4872,267.6772 304.2372,268.3022 304.2372,268.3022 302.9872,268.3022 302.9872,268.3022 301.7372,267.6772 301.7372,267.6772 301.1122,267.0522 301.1122,267.0522 300.4872,265.1772 300.4872,265.1772 300.4872,263.9272"/>
    <polyline points="321.2598,281.5748 359.0551,281.5748 359.0551,281.5748 359.0551,243.7795 359.0551,243.7795 321.2598,243.7795"/>
    <polyline points="346.72,255.1772 338.595,255.1772 338.595,255.1772 338.595,268.3022 338.595,268.3022 346.72,268.3022"/>
    <line x1="338.595" x2="343.595" y1="261.4272" y2="261.4272"/>
    <polyline points="396.8504,243.7795 396.8504,281.5748 396.8504,281.5748 434.6457,281.5748 434.6457,281.5748 434.6457,243.7795"/>
    <line x1="418.248" x2="418.248" y1="255.1772" y2="268.3022"/>
    <line x1="18.8976" x2="18.8976" y1="281.5748" y2="319.3701"/>
    <polyline points="43.4203,306.0974 38.4203,292.9724 38.4203,292.9724 33.4203,306.0974"/>
    <line x1="35.2953" x2="41.5453" y1="301.7224" y2="301.7224"/>
    <polyline points="268.9419,292.9724 268.9419,302.9724 268.9419,302.9724 268.3169,304.8474 268.3169,304.8474 267.6919,305.4724 267.6919,305.4724 266.4419,306.0974 266.4419,306.0974 265.1919,306.0974 265.1919,306.0974 263.9419,305.4724 263.9419,305.4724 263.3169,304.8474 263.3169,304.8474 262.6919,302.9724 262.6919,302.9724 262.6919,301.7224"/>
    <polyline points="396.8504,281.5748 396.8504,319.3701 396.8504,319.3701 434.6457,319.3701 434.6457,319.3701 434.6457,281.5748"/>
    <polyline points="420.123,292.9724 420.123,302.9724 420.123,302.9724 419.498,304.8474 419.498,304.8474 418.873,305.4724 418.873,305.4724 417.623,306.0974 417.623,306.0974 416.373,306.0974 416.373,306.0974 415.123,305.4724 415.123,305.4724 414.498,304.8474 414.498,304.8474 413.873,302.9724 413.873,302.9724 413.873,301.7224"/>
    <polyline points="44.0453,332.6427 42.7953,331.3927 42.7953,331.3927 40.9203,330.7677 40.9203,330.7677 38.4203,330.7677 38.4203,330.7677 36.5453,331.3927 36.5453,331.3927 35.2953,332.6427 35.2953,332.6427 35.2953,333.8927 35.2953,333.8927 35.9203,335.1427 35.9203,335.1427 36.5453,335.7677 36.5453,335.7677 37.7953,336.3927 37.7953,336.3927 41.5453,337.6427 41.5453,337.6427 42.7953,338.2677 42.7953,338.2677 43.4203,338.8927 43.4203,338.8927 44.0453,340.1427 44.0453,340.1427 44.0453,342.0177 44.0453,342.0177 42.7953,343.2677 42.7953,343.2677 40.9203,343.8927 40.9203,343.8927 38.4203,343.8927 38.4203,343.8927 36.5453,343.2677 36.5453,343.2677 35.2953,342.0177"/>
    <polygon points="170.0787,319.3701 170.0787,357.1654 170.0787,357.1654 207.874,357.1654 207.874,357.1654 245.6693,357.1654 245.6693,357.1654 245.6693,319.3701 245.6693,319.3701 207.874,319.3701 207.874,319.3701"/>
    <line x1="207.874" x2="207.874" y1="357.1654" y2="319.3701"/>
    <polyline points="173.8435,322.5394 174.4685,322.2269 174.4685,322.2269 175.406,321.2894 175.406,321.2894 175.406,327.8519"/>
    <polyline points="179.4685,322.8519 179.4685,322.5394 179.4685,322.5394 179.781,321.9144 179.781,321.9144 180.0935,321.6019 180.0935,321.6019 180.7185,321.2894 180.7185,321.2894 181.9685,321.2894 181.9685,321.2894 182.5935,321.6019 182.5935,321.6019 182.906,321.9144 182.906,321.9144 183.2185,322.5394 183.2185,322.5394 183.2185,323.1644 183.2185,323.1644 182.906,323.7894 182.906,323.7894 182.281,324.7269 182.281,324.7269 179.156,327.8519 179.156,327.8519 183.531,327.8519"/>
    <polyline points="195.5389,330.7677 187.4139,330.7677 187.4139,330.7677 187.4139,343.8927"/>
    <line x1="187.4139" x2="192.4139" y1="337.0177" y2="337.0177"/>
    <polyline points="225.5217,330.7677 225.5217,343.8927 225.5217,343.8927 233.0217,343.8927"/>
    <polyline points="245.6693,357.1654 283.4646,357.1654 283.4646,357.1654 321.2598,357.1654 321.2598,357.1654 321.2598,319.3701 321.2598,319.3701 283.4646,319.3701 283.4646,319.3701 283.4646,357.1654"/>
    <polyline points="271.1294,330.7677 263.0044,330.7677 263.0044,330.7677 263.0044,343.8927 263.0044,343.8927 271.1294,343.8927"/>
    <line x1="263.0044" x2="268.0044" y1="337.0177" y2="337.0177"/>
    <polyline points="308.6122,332.6427 307.3622,331.3927 307.3622,331.3927 305.4872,330.7677 305.4872,330.7677 302.9872,330.7677 302.9872,330.7677 301.1122,331.3927 301.1122,331.3927 299.8622,332.6427 299.8622,332.6427 299.8622,333.8927 299.8622,333.8927 300.4872,335.1427 300.4872,335.1427 301.1122,335.7677 301.1122,335.7677 302.3622,336.3927 302.3622,336.3927 306.1122,337.6427 306.1122,337.6427 307.3622,338.2677 307.3622,338.2677 307.9872,338.8927 307.9872,338.8927 308.6122,340.1427 308.6122,340.1427 308.6122,342.0177 308.6122,342.0177 307.3622,343.2677 307.3622,343.2677 305.4872,343.8927 305.4872,343.8927 302.9872,343.8927 302.9872,343.8927 301.1122,343.2677 301.1122,343.2677 299.8622,342.0177"/>
    <polyline points="321.2598,357.1654 359.0551,357.1654 359.0551,357.1654 359.0551,319.3701 359.0551,319.3701 321.2598,319.3701"/>
    <polyline points="346.4075,332.6427 345.1575,331.3927 345.1575,331.3927 343.2825,330.7677 343.2825,330.7677 340.7825,330.7677 340.7825,330.7677 338.9075,331.3927 338.9075,331.3927 337.6575,332.6427 337.6575,332.6427 337.6575,333.8927 337.6575,333.8927 338.2825,335.1427 338.2825,335.1427 338.9075,335.7677 338.9075,335.7677 340.1575,336.3927 340.1575,336.3927 343.9075,337.6427 343.9075,337.6427 345.1575,338.2677 345.1575,338.2677 345.7825,338.8927 345.7825,338.8927 346.4075,340.1427 346.4075,340.1427 346.4075,342.0177 346.4075,342.0177 345.1575,343.2677 345.1575,343.2677 343.2825,343.8927 343.2825,343.8927 340.7825,343.8927 340.7825,343.8927 338.9075,343.2677 338.9075,343.2677 337.6575,342.0177"/>
    <polyline points="359.0551,357.1654 396.8504,357.1654 396.8504,357.1654 396.8504,319.3701 396.8504,319.3701 359.0551,319.3701"/>
    <polyline points="384.5153,330.7677 376.3903,330.7677 376.3903,330.7677 376.3903,343.8927 376.3903,343.8927 384.5153,343.8927"/>
    <line x1="376.3903" x2="381.3903" y1="337.0177" y2="337.0177"/>
    <polyline points="396.8504,357.1654 434.6457,357.1654 434.6457,357.1654 434.6457,319.3701 434.6457,319.3701 472.4409,319.3701 472.4409,319.3701 472.4409,357.1654 472.4409,357.1654 510.2362,357.1654 510.2362,357.1654 548.0315,357.1654 548.0315,357.1654 585.8268,357.1654 585.8268,357.1654 585.8268,319.3701 585.8268,319.3701 548.0315,319.3701 548.0315,319.3701 510.2362,319.3701 510.2362,319.3701 472.4409,319.3701"/>
    <polyline points="422.623,330.7677 422.623,343.8927 422.623,343.8927 413.873,330.7677 413.873,330.7677 413.873,343.8927"/>
    <line x1="434.6457" x2="472.4409" y1="357.1654" y2="357.1654"/>
    <polyline points="460.1058,333.8927 459.4808,332.6427 459.4808,332.6427 458.2308,331.3927 458.2308,331.3927 456.9808,330.7677 456.9808,330.7677 454.4808,330.7677 454.4808,330.7677 453.2308,331.3927 453.2308,331.3927 451.9808,332.6427 451.9808,332.6427 451.3558,333.8927 451.3558,333.8927 450.7308,335.7677 450.7308,335.7677 450.7308,338.8927 450.7308,338.8927 451.3558,340.7677 451.3558,340.7677 451.9808,342.0177 451.9808,342.0177 453.2308,343.2677 453.2308,343.2677 454.4808,343.8927 454.4808,343.8927 456.9808,343.8927 456.9808,343.8927 458.2308,343.2677 458.2308,343.2677 459.4808,342.0177 459.4808,342.0177 460.1058,340.7677 460.1058,340.7677 460.1058,338.8927 460.1058,338.8927 456.9808,338.8927"/>
    <line x1="510.2362" x2="510.2362" y1="357.1654" y2="319.3701"/>
    <polyline points="497.9011,330.7677 489.7761,330.7677 489.7761,330.7677 489.7761,343.8927 489.7761,343.8927 497.9011,343.8927"/>
    <line x1="489.7761" x2="494.7761" y1="337.0177" y2="337.0177"/>
    <line x1="548.0315" x2="548.0315" y1="357.1654" y2="319.3701"/>
    <polyline points="527.8839,330.7677 527.8839,343.8927 527.8839,343.8927 535.3839,343.8927"/>
    <polyline points="565.0541,330.7677 565.0541,340.1427 565.0541,340.1427 565.6791,342.0177 565.6791,342.0177 566.9291,343.2677 566.9291,343.2677 568.8041,343.8927 568.8041,343.8927 570.0541,343.8927 570.0541,343.8927 571.9291,343.2677 571.9291,343.2677 573.1791,342.0177 573.1791,342.0177 573.8041,340.1427 573.8041,340.1427 573.8041,330.7677"/>
    <polyline points="585.8268,357.1654 623.622,357.1654 623.622,357.1654 623.622,319.3701 623.622,319.3701 585.8268,319.3701"/>
    <line x1="602.8494" x2="602.8494" y1="330.7677" y2="343.8927"/>
    <line x1="611.5994" x2="602.8494" y1="330.7677" y2="339.5177"/>
    <line x1="605.9744" x2="611.5994" y1="336.3927" y2="343.8927"/>
  </g>
</svg>
