<?xml version="1.0" encoding="utf-8" ?>
<svg xmlns="http://www.w3.org/2000/svg" xmlns:cc="http://creativecommons.org/ns" xmlns:dc="http://purl.org/dc/elements/1.1/" xmlns:ev="http://www.w3.org/2001/xml-events" xmlns:inkscape="http://www.inkscape.org/namespaces/inkscape" xmlns:rdf="http://www.w3.org/1999/02/22-rdf-syntax-ns" xmlns:sodipodi="http://sodipodi.sourceforge.net/DTD/sodipodi-0.dtd" xmlns:xlink="http://www.w3.org/1999/xlink" baseProfile="tiny" height="9.9cm" version="1.2" viewBox="0 0 793.7007874015749 374.1732283464567" width="21.0cm">
  <metadata>
    <rdf:RDF>
      <cc:Work>
        <dc:format>image/svg+xml</dc:format>
        <dc:source>vpype eval 'cell=10;width=210;height=99' eval 'nCols=20;nRows=9' eval 'cells=[3,6,7,8,9,10,11,12,13,14,15,17,20,23,30,37,39,40,43,45,46,47,48,49,50,51,52,53,54,55,57,59,60,63,67,70,76,77,78,79,80,82,83,84,85,86,87,88,89,90,91,92,93,97,99,100,103,107,110,117,120,121,122,123,124,125,126,128,129,130,131,132,133,134,135,136,137,143,150,155,157,161,162,163,164,165,166,167,168]' eval 'chars=[&quot;C&quot;,&quot;G&quot;,&quot;R&quot;,&quot;O&quot;,&quot;E&quot;,&quot;P&quot;,&quot;S&quot;,&quot;F&quot;,&quot;O&quot;,&quot;T&quot;,&quot;O&quot;,&quot;C&quot;,&quot;L&quot;,&quot;H&quot;,&quot;A&quot;,&quot;A&quot;,&quot;G&quot;,&quot;A&quot;,&quot;A&quot;,&quot;M&quot;,&quot;I&quot;,&quot;S&quot;,&quot;V&quot;,&quot;E&quot;,&quot;R&quot;,&quot;S&quot;,&quot;T&quot;,&quot;A&quot;,&quot;N&quot;,&quot;D&quot;,&quot;R&quot;,&quot;U&quot;,&quot;D&quot;,&quot;R&quot;,&quot;T&quot;,&quot;K&quot;,&quot;K&quot;,&quot;O&quot;,&quot;U&quot;,&quot;S&quot;,&quot;D&quot;,&quot;F&quot;,&quot;L&quot;,&quot;E&quot;,&quot;S&quot;,&quot;S&quot;,&quot;E&quot;,&quot;N&quot;,&quot;G&quot;,&quot;E&quot;,&quot;L&quot;,&quot;U&quot;,&quot;K&quot;,&quot;L&quot;,&quot;T&quot;,&quot;E&quot;,&quot;O&quot;,&quot;R&quot;,&quot;R&quot;,&quot;I&quot;,&quot;R&quot;,&quot;E&quot;,&quot;S&quot;,&quot;T&quot;,&quot;J&quot;,&quot;E&quot;,&quot;S&quot;,&quot;P&quot;,&quot;I&quot;,&quot;E&quot;,&quot;T&quot;,&quot;E&quot;,&quot;R&quot;,&quot;-&quot;,&quot;J&quot;,&quot;A&quot;,&quot;N&quot;,&quot;T&quot;,&quot;N&quot;,&quot;A&quot;,&quot;E&quot;,&quot;S&quot;,&quot;K&quot;,&quot;E&quot;,&quot;L&quot;,&quot;L&quot;,&quot;E&quot;,&quot;K&quot;,&quot;E&quot;]' eval 'numbers=[3,6,10,17,20,39,45,47,76,82,120,128,135,161]' eval counter=1 eval charIndex=0 begin grid -o '%cell*mm%' '%cell*mm%' %nCols% %nRows% eval '%isCell=_i in cells%' eval '%number=_i in numbers%' eval '%size=10 if isCell else 0%' rect 0 0 '%size*mm%' '%size*mm%' text -s 10 -p 0.5mm 1.5mm '%counter if number else '&quot;'&quot;''&quot;'&quot;'%' text -s 20 -p 5mm 5mm -a center '%chars[charIndex] if isCell else '&quot;'&quot;''&quot;'&quot;'%' eval '%if number: counter+=1 %' eval '%if isCell: charIndex+=1 %' end splitall deduplicate linemerge --tolerance 0.1mm write -m none --page-size '%width*mm%x%height*mm%' --center ./svgs/solution/f38852.svg
</dc:source>
        <dc:date>2023-12-29T10:02:44.877801</dc:date>
      </cc:Work>
    </rdf:RDF>
  </metadata>
  <defs/>
  <g fill="none" id="layer1" inkscape:groupmode="layer" inkscape:label="1" stroke="#000000" style="display:inline">
    <polygon points="132.2835,17.0079 132.2835,54.8031 132.2835,54.8031 170.0787,54.8031 170.0787,54.8031 170.0787,17.0079 170.0787,17.0079"/>
    <polyline points="136.0482,20.1772 136.6732,19.8647 136.6732,19.8647 137.6107,18.9272 137.6107,18.9272 137.6107,25.4897"/>
    <polyline points="157.7436,31.5305 157.1186,30.2805 157.1186,30.2805 155.8686,29.0305 155.8686,29.0305 154.6186,28.4055 154.6186,28.4055 152.1186,28.4055 152.1186,28.4055 150.8686,29.0305 150.8686,29.0305 149.6186,30.2805 149.6186,30.2805 148.9936,31.5305 148.9936,31.5305 148.3686,33.4055 148.3686,33.4055 148.3686,36.5305 148.3686,36.5305 148.9936,38.4055 148.9936,38.4055 149.6186,39.6555 149.6186,39.6555 150.8686,40.9055 150.8686,40.9055 152.1186,41.5305 152.1186,41.5305 154.6186,41.5305 154.6186,41.5305 155.8686,40.9055 155.8686,40.9055 157.1186,39.6555 157.1186,39.6555 157.7436,38.4055"/>
    <polygon points="245.6693,17.0079 245.6693,54.8031 245.6693,54.8031 283.4646,54.8031 283.4646,54.8031 283.4646,17.0079 283.4646,17.0079"/>
    <polyline points="248.8091,20.4897 248.8091,20.1772 248.8091,20.1772 249.1216,19.5522 249.1216,19.5522 249.4341,19.2397 249.4341,19.2397 250.0591,18.9272 250.0591,18.9272 251.3091,18.9272 251.3091,18.9272 251.9341,19.2397 251.9341,19.2397 252.2466,19.5522 252.2466,19.5522 252.5591,20.1772 252.5591,20.1772 252.5591,20.8022 252.5591,20.8022 252.2466,21.4272 252.2466,21.4272 251.6216,22.3647 251.6216,22.3647 248.4966,25.4897 248.4966,25.4897 252.8716,25.4897"/>
    <polyline points="271.1294,31.5305 270.5044,30.2805 270.5044,30.2805 269.2544,29.0305 269.2544,29.0305 268.0044,28.4055 268.0044,28.4055 265.5044,28.4055 265.5044,28.4055 264.2544,29.0305 264.2544,29.0305 263.0044,30.2805 263.0044,30.2805 262.3794,31.5305 262.3794,31.5305 261.7544,33.4055 261.7544,33.4055 261.7544,36.5305 261.7544,36.5305 262.3794,38.4055 262.3794,38.4055 263.0044,39.6555 263.0044,39.6555 264.2544,40.9055 264.2544,40.9055 265.5044,41.5305 265.5044,41.5305 268.0044,41.5305 268.0044,41.5305 269.2544,40.9055 269.2544,40.9055 270.5044,39.6555 270.5044,39.6555 271.1294,38.4055 271.1294,38.4055 271.1294,36.5305 271.1294,36.5305 268.0044,36.5305"/>
    <polyline points="283.4646,54.8031 321.2598,54.8031 321.2598,54.8031 321.2598,17.0079 321.2598,17.0079 283.4646,17.0079"/>
    <polyline points="300.4872,34.6555 306.1122,34.6555 306.1122,34.6555 307.9872,34.0305 307.9872,34.0305 308.6122,33.4055 308.6122,33.4055 309.2372,32.1555 309.2372,32.1555 309.2372,30.9055 309.2372,30.9055 308.6122,29.6555 308.6122,29.6555 307.9872,29.0305 307.9872,29.0305 306.1122,28.4055 306.1122,28.4055 300.4872,28.4055 300.4872,28.4055 300.4872,41.5305"/>
    <line x1="304.8622" x2="309.2372" y1="34.6555" y2="41.5305"/>
    <polyline points="321.2598,54.8031 359.0551,54.8031 359.0551,54.8031 359.0551,17.0079 359.0551,17.0079 321.2598,17.0079"/>
    <polygon points="340.7825,28.4055 339.5325,29.0305 339.5325,29.0305 338.2825,30.2805 338.2825,30.2805 337.6575,31.5305 337.6575,31.5305 337.0325,33.4055 337.0325,33.4055 337.0325,36.5305 337.0325,36.5305 337.6575,38.4055 337.6575,38.4055 338.2825,39.6555 338.2825,39.6555 339.5325,40.9055 339.5325,40.9055 340.7825,41.5305 340.7825,41.5305 343.2825,41.5305 343.2825,41.5305 344.5325,40.9055 344.5325,40.9055 345.7825,39.6555 345.7825,39.6555 346.4075,38.4055 346.4075,38.4055 347.0325,36.5305 347.0325,36.5305 347.0325,33.4055 347.0325,33.4055 346.4075,31.5305 346.4075,31.5305 345.7825,30.2805 345.7825,30.2805 344.5325,29.0305 344.5325,29.0305 343.2825,28.4055 343.2825,28.4055"/>
    <polyline points="359.0551,54.8031 396.8504,54.8031 396.8504,54.8031 434.6457,54.8031 434.6457,54.8031 434.6457,17.0079 434.6457,17.0079 396.8504,17.0079 396.8504,17.0079 359.0551,17.0079"/>
    <polyline points="245.6693,92.5984 245.6693,130.3937 245.6693,130.3937 207.874,130.3937 207.874,130.3937 207.874,92.5984 207.874,92.5984 245.6693,92.5984 245.6693,92.5984 283.4646,92.5984 283.4646,92.5984 321.2598,92.5984 321.2598,92.5984 359.0551,92.5984 359.0551,92.5984 396.8504,92.5984 396.8504,92.5984 396.8504,54.8031 396.8504,54.8031 396.8504,17.0079"/>
    <polyline points="384.5153,28.4055 376.3903,28.4055 376.3903,28.4055 376.3903,41.5305 376.3903,41.5305 384.5153,41.5305"/>
    <line x1="376.3903" x2="381.3903" y1="34.6555" y2="34.6555"/>
    <polyline points="400.3027,18.9272 403.7402,18.9272 403.7402,18.9272 401.8652,21.4272 401.8652,21.4272 402.8027,21.4272 402.8027,21.4272 403.4277,21.7397 403.4277,21.7397 403.7402,22.0522 403.7402,22.0522 404.0527,22.9897 404.0527,22.9897 404.0527,23.6147 404.0527,23.6147 403.7402,24.5522 403.7402,24.5522 403.1152,25.1772 403.1152,25.1772 402.1777,25.4897 402.1777,25.4897 401.2402,25.4897 401.2402,25.4897 400.3027,25.1772 400.3027,25.1772 399.9902,24.8647 399.9902,24.8647 399.6777,24.2397"/>
    <polyline points="413.873,35.2805 419.498,35.2805 419.498,35.2805 421.373,34.6555 421.373,34.6555 421.998,34.0305 421.998,34.0305 422.623,32.7805 422.623,32.7805 422.623,30.9055 422.623,30.9055 421.998,29.6555 421.998,29.6555 421.373,29.0305 421.373,29.0305 419.498,28.4055 419.498,28.4055 413.873,28.4055 413.873,28.4055 413.873,41.5305"/>
    <polyline points="359.0551,92.5984 359.0551,130.3937 359.0551,130.3937 396.8504,130.3937 396.8504,130.3937 396.8504,92.5984 396.8504,92.5984 434.6457,92.5984 434.6457,92.5984 472.4409,92.5984 472.4409,92.5984 510.2362,92.5984 510.2362,92.5984 548.0315,92.5984 548.0315,92.5984 585.8268,92.5984 585.8268,92.5984 585.8268,130.3937 585.8268,130.3937 548.0315,130.3937 548.0315,130.3937 510.2362,130.3937 510.2362,130.3937 472.4409,130.3937 472.4409,130.3937 434.6457,130.3937 434.6457,130.3937 434.6457,168.189 434.6457,168.189 396.8504,168.189 396.8504,168.189 396.8504,130.3937 396.8504,130.3937 434.6457,130.3937 434.6457,130.3937 434.6457,92.5984 434.6457,92.5984 434.6457,54.8031 434.6457,54.8031 472.4409,54.8031 472.4409,54.8031 510.2362,54.8031 510.2362,54.8031 548.0315,54.8031 548.0315,54.8031 548.0315,17.0079 548.0315,17.0079 510.2362,17.0079 510.2362,17.0079 472.4409,17.0079 472.4409,17.0079 434.6457,17.0079"/>
    <line x1="472.4409" x2="472.4409" y1="54.8031" y2="17.0079"/>
    <polyline points="459.7933,30.2805 458.5433,29.0305 458.5433,29.0305 456.6683,28.4055 456.6683,28.4055 454.1683,28.4055 454.1683,28.4055 452.2933,29.0305 452.2933,29.0305 451.0433,30.2805 451.0433,30.2805 451.0433,31.5305 451.0433,31.5305 451.6683,32.7805 451.6683,32.7805 452.2933,33.4055 452.2933,33.4055 453.5433,34.0305 453.5433,34.0305 457.2933,35.2805 457.2933,35.2805 458.5433,35.9055 458.5433,35.9055 459.1683,36.5305 459.1683,36.5305 459.7933,37.7805 459.7933,37.7805 459.7933,39.6555 459.7933,39.6555 458.5433,40.9055 458.5433,40.9055 456.6683,41.5305 456.6683,41.5305 454.1683,41.5305 454.1683,41.5305 452.2933,40.9055 452.2933,40.9055 451.0433,39.6555"/>
    <line x1="510.2362" x2="510.2362" y1="54.8031" y2="17.0079"/>
    <polyline points="497.9011,28.4055 489.7761,28.4055 489.7761,28.4055 489.7761,41.5305"/>
    <line x1="489.7761" x2="494.7761" y1="34.6555" y2="34.6555"/>
    <polygon points="529.7589,28.4055 528.5089,29.0305 528.5089,29.0305 527.2589,30.2805 527.2589,30.2805 526.6339,31.5305 526.6339,31.5305 526.0089,33.4055 526.0089,33.4055 526.0089,36.5305 526.0089,36.5305 526.6339,38.4055 526.6339,38.4055 527.2589,39.6555 527.2589,39.6555 528.5089,40.9055 528.5089,40.9055 529.7589,41.5305 529.7589,41.5305 532.2589,41.5305 532.2589,41.5305 533.5089,40.9055 533.5089,40.9055 534.7589,39.6555 534.7589,39.6555 535.3839,38.4055 535.3839,38.4055 536.0089,36.5305 536.0089,36.5305 536.0089,33.4055 536.0089,33.4055 535.3839,31.5305 535.3839,31.5305 534.7589,30.2805 534.7589,30.2805 533.5089,29.0305 533.5089,29.0305 532.2589,28.4055 532.2589,28.4055"/>
    <polyline points="548.0315,54.8031 585.8268,54.8031 585.8268,54.8031 585.8268,17.0079 585.8268,17.0079 548.0315,17.0079"/>
    <line x1="567.5541" x2="567.5541" y1="28.4055" y2="41.5305"/>
    <line x1="563.1791" x2="571.9291" y1="28.4055" y2="28.4055"/>
    <polyline points="585.8268,54.8031 623.622,54.8031 623.622,54.8031 623.622,17.0079 623.622,17.0079 585.8268,17.0079"/>
    <polygon points="605.3494,28.4055 604.0994,29.0305 604.0994,29.0305 602.8494,30.2805 602.8494,30.2805 602.2244,31.5305 602.2244,31.5305 601.5994,33.4055 601.5994,33.4055 601.5994,36.5305 601.5994,36.5305 602.2244,38.4055 602.2244,38.4055 602.8494,39.6555 602.8494,39.6555 604.0994,40.9055 604.0994,40.9055 605.3494,41.5305 605.3494,41.5305 607.8494,41.5305 607.8494,41.5305 609.0994,40.9055 609.0994,40.9055 610.3494,39.6555 610.3494,39.6555 610.9744,38.4055 610.9744,38.4055 611.5994,36.5305 611.5994,36.5305 611.5994,33.4055 611.5994,33.4055 610.9744,31.5305 610.9744,31.5305 610.3494,30.2805 610.3494,30.2805 609.0994,29.0305 609.0994,29.0305 607.8494,28.4055 607.8494,28.4055"/>
    <polygon points="661.4173,17.0079 661.4173,54.8031 661.4173,54.8031 699.2126,54.8031 699.2126,54.8031 699.2126,17.0079 699.2126,17.0079"/>
    <polyline points="667.3696,25.4897 667.3696,18.9272 667.3696,18.9272 664.2446,23.3022 664.2446,23.3022 668.9321,23.3022"/>
    <polyline points="686.8775,31.5305 686.2525,30.2805 686.2525,30.2805 685.0025,29.0305 685.0025,29.0305 683.7525,28.4055 683.7525,28.4055 681.2525,28.4055 681.2525,28.4055 680.0025,29.0305 680.0025,29.0305 678.7525,30.2805 678.7525,30.2805 678.1275,31.5305 678.1275,31.5305 677.5025,33.4055 677.5025,33.4055 677.5025,36.5305 677.5025,36.5305 678.1275,38.4055 678.1275,38.4055 678.7525,39.6555 678.7525,39.6555 680.0025,40.9055 680.0025,40.9055 681.2525,41.5305 681.2525,41.5305 683.7525,41.5305 683.7525,41.5305 685.0025,40.9055 685.0025,40.9055 686.2525,39.6555 686.2525,39.6555 686.8775,38.4055"/>
    <polygon points="18.8976,54.8031 18.8976,92.5984 18.8976,92.5984 56.6929,92.5984 56.6929,92.5984 56.6929,54.8031 56.6929,54.8031"/>
    <polyline points="25.4749,56.7224 22.3499,56.7224 22.3499,56.7224 22.0374,59.5349 22.0374,59.5349 22.3499,59.2224 22.3499,59.2224 23.2874,58.9099 23.2874,58.9099 24.2249,58.9099 24.2249,58.9099 25.1624,59.2224 25.1624,59.2224 25.7874,59.8474 25.7874,59.8474 26.0999,60.7849 26.0999,60.7849 26.0999,61.4099 26.0999,61.4099 25.7874,62.3474 25.7874,62.3474 25.1624,62.9724 25.1624,62.9724 24.2249,63.2849 24.2249,63.2849 23.2874,63.2849 23.2874,63.2849 22.3499,62.9724 22.3499,62.9724 22.0374,62.6599 22.0374,62.6599 21.7249,62.0349"/>
    <polyline points="36.5453,66.2008 36.5453,79.3258 36.5453,79.3258 44.0453,79.3258"/>
    <polyline points="132.2835,54.8031 132.2835,92.5984 132.2835,92.5984 170.0787,92.5984 170.0787,92.5984 170.0787,54.8031"/>
    <line x1="149.3061" x2="149.3061" y1="66.2008" y2="79.3258"/>
    <line x1="158.0561" x2="158.0561" y1="66.2008" y2="79.3258"/>
    <line x1="149.3061" x2="158.0561" y1="72.4508" y2="72.4508"/>
    <polyline points="421.373,79.3258 416.373,66.2008 416.373,66.2008 411.373,79.3258"/>
    <line x1="413.248" x2="419.498" y1="74.9508" y2="74.9508"/>
    <polyline points="661.4173,54.8031 661.4173,92.5984 661.4173,92.5984 699.2126,92.5984 699.2126,92.5984 699.2126,54.8031"/>
    <polyline points="685.94,79.3258 680.94,66.2008 680.94,66.2008 675.94,79.3258"/>
    <line x1="677.815" x2="684.065" y1="74.9508" y2="74.9508"/>
    <polyline points="774.8031,168.189 774.8031,205.9843 774.8031,205.9843 737.0079,205.9843 737.0079,205.9843 737.0079,168.189 737.0079,168.189 774.8031,168.189 774.8031,168.189 774.8031,130.3937 774.8031,130.3937 774.8031,92.5984 774.8031,92.5984 774.8031,54.8031 774.8031,54.8031 737.0079,54.8031 737.0079,54.8031 737.0079,92.5984 737.0079,92.5984 737.0079,130.3937 737.0079,130.3937 699.2126,130.3937 699.2126,130.3937 699.2126,92.5984"/>
    <line x1="737.0079" x2="774.8031" y1="92.5984" y2="92.5984"/>
    <polyline points="743.8976,57.6599 743.5851,57.0349 743.5851,57.0349 742.6476,56.7224 742.6476,56.7224 742.0226,56.7224 742.0226,56.7224 741.0851,57.0349 741.0851,57.0349 740.4601,57.9724 740.4601,57.9724 740.1476,59.5349 740.1476,59.5349 740.1476,61.0974 740.1476,61.0974 740.4601,62.3474 740.4601,62.3474 741.0851,62.9724 741.0851,62.9724 742.0226,63.2849 742.0226,63.2849 742.3351,63.2849 742.3351,63.2849 743.2726,62.9724 743.2726,62.9724 743.8976,62.3474 743.8976,62.3474 744.2101,61.4099 744.2101,61.4099 744.2101,61.0974 744.2101,61.0974 743.8976,60.1599 743.8976,60.1599 743.2726,59.5349 743.2726,59.5349 742.3351,59.2224 742.3351,59.2224 742.0226,59.2224 742.0226,59.2224 741.0851,59.5349 741.0851,59.5349 740.4601,60.1599 740.4601,60.1599 740.1476,61.0974"/>
    <polyline points="762.468,69.3258 761.843,68.0758 761.843,68.0758 760.593,66.8258 760.593,66.8258 759.343,66.2008 759.343,66.2008 756.843,66.2008 756.843,66.2008 755.593,66.8258 755.593,66.8258 754.343,68.0758 754.343,68.0758 753.718,69.3258 753.718,69.3258 753.093,71.2008 753.093,71.2008 753.093,74.3258 753.093,74.3258 753.718,76.2008 753.718,76.2008 754.343,77.4508 754.343,77.4508 755.593,78.7008 755.593,78.7008 756.843,79.3258 756.843,79.3258 759.343,79.3258 759.343,79.3258 760.593,78.7008 760.593,78.7008 761.843,77.4508 761.843,77.4508 762.468,76.2008 762.468,76.2008 762.468,74.3258 762.468,74.3258 759.343,74.3258"/>
    <polyline points="18.8976,92.5984 18.8976,130.3937 18.8976,130.3937 18.8976,168.189 18.8976,168.189 18.8976,205.9843 18.8976,205.9843 56.6929,205.9843 56.6929,205.9843 56.6929,168.189 56.6929,168.189 56.6929,130.3937 56.6929,130.3937 56.6929,92.5984"/>
    <line x1="18.8976" x2="56.6929" y1="130.3937" y2="130.3937"/>
    <polyline points="43.4203,117.1211 38.4203,103.9961 38.4203,103.9961 33.4203,117.1211"/>
    <line x1="35.2953" x2="41.5453" y1="112.7461" y2="112.7461"/>
    <polyline points="132.2835,92.5984 132.2835,130.3937 132.2835,130.3937 170.0787,130.3937 170.0787,130.3937 170.0787,92.5984"/>
    <polyline points="156.8061,117.1211 151.8061,103.9961 151.8061,103.9961 146.8061,117.1211"/>
    <line x1="148.6811" x2="154.9311" y1="112.7461" y2="112.7461"/>
    <polyline points="210.7013,94.5177 215.0763,94.5177 215.0763,94.5177 211.9513,101.0802"/>
    <polyline points="234.2717,117.1211 234.2717,103.9961 234.2717,103.9961 229.2717,117.1211 229.2717,117.1211 224.2717,103.9961 224.2717,103.9961 224.2717,117.1211"/>
    <polyline points="245.6693,130.3937 283.4646,130.3937 283.4646,130.3937 283.4646,92.5984"/>
    <line x1="267.0669" x2="267.0669" y1="103.9961" y2="117.1211"/>
    <polyline points="321.2598,92.5984 321.2598,130.3937 321.2598,130.3937 321.2598,168.189 321.2598,168.189 283.4646,168.189 283.4646,168.189 283.4646,130.3937 283.4646,130.3937 321.2598,130.3937 321.2598,130.3937 359.0551,130.3937"/>
    <polygon points="287.8543,94.5177 286.9168,94.8302 286.9168,94.8302 286.6043,95.4552 286.6043,95.4552 286.6043,96.0802 286.6043,96.0802 286.9168,96.7052 286.9168,96.7052 287.5418,97.0177 287.5418,97.0177 288.7918,97.3302 288.7918,97.3302 289.7293,97.6427 289.7293,97.6427 290.3543,98.2677 290.3543,98.2677 290.6668,98.8927 290.6668,98.8927 290.6668,99.8302 290.6668,99.8302 290.3543,100.4552 290.3543,100.4552 290.0418,100.7677 290.0418,100.7677 289.1043,101.0802 289.1043,101.0802 287.8543,101.0802 287.8543,101.0802 286.9168,100.7677 286.9168,100.7677 286.6043,100.4552 286.6043,100.4552 286.2918,99.8302 286.2918,99.8302 286.2918,98.8927 286.2918,98.8927 286.6043,98.2677 286.6043,98.2677 287.2293,97.6427 287.2293,97.6427 288.1668,97.3302 288.1668,97.3302 289.4168,97.0177 289.4168,97.0177 290.0418,96.7052 290.0418,96.7052 290.3543,96.0802 290.3543,96.0802 290.3543,95.4552 290.3543,95.4552 290.0418,94.8302 290.0418,94.8302 289.1043,94.5177 289.1043,94.5177"/>
    <polyline points="308.6122,105.8711 307.3622,104.6211 307.3622,104.6211 305.4872,103.9961 305.4872,103.9961 302.9872,103.9961 302.9872,103.9961 301.1122,104.6211 301.1122,104.6211 299.8622,105.8711 299.8622,105.8711 299.8622,107.1211 299.8622,107.1211 300.4872,108.3711 300.4872,108.3711 301.1122,108.9961 301.1122,108.9961 302.3622,109.6211 302.3622,109.6211 306.1122,110.8711 306.1122,110.8711 307.3622,111.4961 307.3622,111.4961 307.9872,112.1211 307.9872,112.1211 308.6122,113.3711 308.6122,113.3711 308.6122,115.2461 308.6122,115.2461 307.3622,116.4961 307.3622,116.4961 305.4872,117.1211 305.4872,117.1211 302.9872,117.1211 302.9872,117.1211 301.1122,116.4961 301.1122,116.4961 299.8622,115.2461"/>
    <polyline points="335.7825,103.9961 340.7825,117.1211 340.7825,117.1211 345.7825,103.9961"/>
    <polyline points="384.5153,103.9961 376.3903,103.9961 376.3903,103.9961 376.3903,117.1211 376.3903,117.1211 384.5153,117.1211"/>
    <line x1="376.3903" x2="381.3903" y1="110.2461" y2="110.2461"/>
    <polyline points="413.873,110.2461 419.498,110.2461 419.498,110.2461 421.373,109.6211 421.373,109.6211 421.998,108.9961 421.998,108.9961 422.623,107.7461 422.623,107.7461 422.623,106.4961 422.623,106.4961 421.998,105.2461 421.998,105.2461 421.373,104.6211 421.373,104.6211 419.498,103.9961 419.498,103.9961 413.873,103.9961 413.873,103.9961 413.873,117.1211"/>
    <line x1="418.248" x2="422.623" y1="110.2461" y2="117.1211"/>
    <line x1="472.4409" x2="472.4409" y1="130.3937" y2="92.5984"/>
    <polyline points="459.7933,105.8711 458.5433,104.6211 458.5433,104.6211 456.6683,103.9961 456.6683,103.9961 454.1683,103.9961 454.1683,103.9961 452.2933,104.6211 452.2933,104.6211 451.0433,105.8711 451.0433,105.8711 451.0433,107.1211 451.0433,107.1211 451.6683,108.3711 451.6683,108.3711 452.2933,108.9961 452.2933,108.9961 453.5433,109.6211 453.5433,109.6211 457.2933,110.8711 457.2933,110.8711 458.5433,111.4961 458.5433,111.4961 459.1683,112.1211 459.1683,112.1211 459.7933,113.3711 459.7933,113.3711 459.7933,115.2461 459.7933,115.2461 458.5433,116.4961 458.5433,116.4961 456.6683,117.1211 456.6683,117.1211 454.1683,117.1211 454.1683,117.1211 452.2933,116.4961 452.2933,116.4961 451.0433,115.2461"/>
    <line x1="510.2362" x2="510.2362" y1="130.3937" y2="92.5984"/>
    <line x1="491.9636" x2="491.9636" y1="103.9961" y2="117.1211"/>
    <line x1="487.5886" x2="496.3386" y1="103.9961" y2="103.9961"/>
    <line x1="548.0315" x2="548.0315" y1="130.3937" y2="92.5984"/>
    <polyline points="534.7589,117.1211 529.7589,103.9961 529.7589,103.9961 524.7589,117.1211"/>
    <line x1="526.6339" x2="532.8839" y1="112.7461" y2="112.7461"/>
    <polyline points="573.8041,103.9961 573.8041,117.1211 573.8041,117.1211 565.0541,103.9961 565.0541,103.9961 565.0541,117.1211"/>
    <polyline points="585.8268,130.3937 623.622,130.3937 623.622,130.3937 623.622,92.5984 623.622,92.5984 585.8268,92.5984"/>
    <polygon points="602.8494,103.9961 602.8494,117.1211 602.8494,117.1211 607.2244,117.1211 607.2244,117.1211 609.0994,116.4961 609.0994,116.4961 610.3494,115.2461 610.3494,115.2461 610.9744,113.9961 610.9744,113.9961 611.5994,112.1211 611.5994,112.1211 611.5994,108.9961 611.5994,108.9961 610.9744,107.1211 610.9744,107.1211 610.3494,105.8711 610.3494,105.8711 609.0994,104.6211 609.0994,104.6211 607.2244,103.9961 607.2244,103.9961"/>
    <polyline points="661.4173,92.5984 661.4173,130.3937 661.4173,130.3937 699.2126,130.3937 699.2126,130.3937 699.2126,168.189 699.2126,168.189 699.2126,205.9843 699.2126,205.9843 699.2126,243.7795 699.2126,243.7795 661.4173,243.7795 661.4173,243.7795 661.4173,205.9843 661.4173,205.9843 699.2126,205.9843"/>
    <polyline points="678.44,110.2461 684.065,110.2461 684.065,110.2461 685.94,109.6211 685.94,109.6211 686.565,108.9961 686.565,108.9961 687.19,107.7461 687.19,107.7461 687.19,106.4961 687.19,106.4961 686.565,105.2461 686.565,105.2461 685.94,104.6211 685.94,104.6211 684.065,103.9961 684.065,103.9961 678.44,103.9961 678.44,103.9961 678.44,117.1211"/>
    <line x1="682.815" x2="687.19" y1="110.2461" y2="117.1211"/>
    <polyline points="661.4173,205.9843 661.4173,168.189 661.4173,168.189 623.622,168.189 623.622,168.189 623.622,130.3937 623.622,130.3937 661.4173,130.3937 661.4173,130.3937 661.4173,168.189 661.4173,168.189 699.2126,168.189 699.2126,168.189 737.0079,168.189 737.0079,168.189 737.0079,130.3937 737.0079,130.3937 774.8031,130.3937"/>
    <polyline points="754.0305,103.9961 754.0305,113.3711 754.0305,113.3711 754.6555,115.2461 754.6555,115.2461 755.9055,116.4961 755.9055,116.4961 757.7805,117.1211 757.7805,117.1211 759.0305,117.1211 759.0305,117.1211 760.9055,116.4961 760.9055,116.4961 762.1555,115.2461 762.1555,115.2461 762.7805,113.3711 762.7805,113.3711 762.7805,103.9961"/>
    <line x1="18.8976" x2="56.6929" y1="168.189" y2="168.189"/>
    <polygon points="35.9203,141.7913 35.9203,154.9163 35.9203,154.9163 40.2953,154.9163 40.2953,154.9163 42.1703,154.2913 42.1703,154.2913 43.4203,153.0413 43.4203,153.0413 44.0453,151.7913 44.0453,151.7913 44.6703,149.9163 44.6703,149.9163 44.6703,146.7913 44.6703,146.7913 44.0453,144.9163 44.0453,144.9163 43.4203,143.6663 43.4203,143.6663 42.1703,142.4163 42.1703,142.4163 40.2953,141.7913 40.2953,141.7913"/>
    <polyline points="132.2835,130.3937 132.2835,168.189 132.2835,168.189 94.4882,168.189 94.4882,168.189 94.4882,205.9843 94.4882,205.9843 132.2835,205.9843 132.2835,205.9843 132.2835,168.189 132.2835,168.189 170.0787,168.189 170.0787,168.189 170.0787,130.3937"/>
    <polyline points="149.3061,148.0413 154.9311,148.0413 154.9311,148.0413 156.8061,147.4163 156.8061,147.4163 157.4311,146.7913 157.4311,146.7913 158.0561,145.5413 158.0561,145.5413 158.0561,144.2913 158.0561,144.2913 157.4311,143.0413 157.4311,143.0413 156.8061,142.4163 156.8061,142.4163 154.9311,141.7913 154.9311,141.7913 149.3061,141.7913 149.3061,141.7913 149.3061,154.9163"/>
    <line x1="153.6811" x2="158.0561" y1="148.0413" y2="154.9163"/>
    <line x1="302.9872" x2="302.9872" y1="141.7913" y2="154.9163"/>
    <line x1="298.6122" x2="307.3622" y1="141.7913" y2="141.7913"/>
    <line x1="413.873" x2="413.873" y1="141.7913" y2="154.9163"/>
    <line x1="422.623" x2="413.873" y1="141.7913" y2="150.5413"/>
    <line x1="416.998" x2="422.623" y1="147.4163" y2="154.9163"/>
    <polyline points="630.5118,134.5005 630.1993,135.438 630.1993,135.438 629.5743,136.063 629.5743,136.063 628.6368,136.3755 628.6368,136.3755 628.3243,136.3755 628.3243,136.3755 627.3868,136.063 627.3868,136.063 626.7618,135.438 626.7618,135.438 626.4493,134.5005 626.4493,134.5005 626.4493,134.188 626.4493,134.188 626.7618,133.2505 626.7618,133.2505 627.3868,132.6255 627.3868,132.6255 628.3243,132.313 628.3243,132.313 628.6368,132.313 628.6368,132.313 629.5743,132.6255 629.5743,132.6255 630.1993,133.2505 630.1993,133.2505 630.5118,134.5005 630.5118,134.5005 630.5118,136.063 630.5118,136.063 630.1993,137.6255 630.1993,137.6255 629.5743,138.563 629.5743,138.563 628.6368,138.8755 628.6368,138.8755 628.0118,138.8755 628.0118,138.8755 627.0743,138.563 627.0743,138.563 626.7618,137.938"/>
    <line x1="640.6447" x2="640.6447" y1="141.7913" y2="154.9163"/>
    <line x1="649.3947" x2="640.6447" y1="141.7913" y2="150.5413"/>
    <line x1="643.7697" x2="649.3947" y1="147.4163" y2="154.9163"/>
    <polygon points="680.94,141.7913 679.69,142.4163 679.69,142.4163 678.44,143.6663 678.44,143.6663 677.815,144.9163 677.815,144.9163 677.19,146.7913 677.19,146.7913 677.19,149.9163 677.19,149.9163 677.815,151.7913 677.815,151.7913 678.44,153.0413 678.44,153.0413 679.69,154.2913 679.69,154.2913 680.94,154.9163 680.94,154.9163 683.44,154.9163 683.44,154.9163 684.69,154.2913 684.69,154.2913 685.94,153.0413 685.94,153.0413 686.565,151.7913 686.565,151.7913 687.19,149.9163 687.19,149.9163 687.19,146.7913 687.19,146.7913 686.565,144.9163 686.565,144.9163 685.94,143.6663 685.94,143.6663 684.69,142.4163 684.69,142.4163 683.44,141.7913 683.44,141.7913"/>
    <polyline points="716.2352,141.7913 716.2352,151.1663 716.2352,151.1663 716.8602,153.0413 716.8602,153.0413 718.1102,154.2913 718.1102,154.2913 719.9852,154.9163 719.9852,154.9163 721.2352,154.9163 721.2352,154.9163 723.1102,154.2913 723.1102,154.2913 724.3602,153.0413 724.3602,153.0413 724.9852,151.1663 724.9852,151.1663 724.9852,141.7913"/>
    <polyline points="762.1555,143.6663 760.9055,142.4163 760.9055,142.4163 759.0305,141.7913 759.0305,141.7913 756.5305,141.7913 756.5305,141.7913 754.6555,142.4163 754.6555,142.4163 753.4055,143.6663 753.4055,143.6663 753.4055,144.9163 753.4055,144.9163 754.0305,146.1663 754.0305,146.1663 754.6555,146.7913 754.6555,146.7913 755.9055,147.4163 755.9055,147.4163 759.6555,148.6663 759.6555,148.6663 760.9055,149.2913 760.9055,149.2913 761.5305,149.9163 761.5305,149.9163 762.1555,151.1663 762.1555,151.1663 762.1555,153.0413 762.1555,153.0413 760.9055,154.2913 760.9055,154.2913 759.0305,154.9163 759.0305,154.9163 756.5305,154.9163 756.5305,154.9163 754.6555,154.2913 754.6555,154.2913 753.4055,153.0413"/>
    <polygon points="35.9203,179.5866 35.9203,192.7116 35.9203,192.7116 40.2953,192.7116 40.2953,192.7116 42.1703,192.0866 42.1703,192.0866 43.4203,190.8366 43.4203,190.8366 44.0453,189.5866 44.0453,189.5866 44.6703,187.7116 44.6703,187.7116 44.6703,184.5866 44.6703,184.5866 44.0453,182.7116 44.0453,182.7116 43.4203,181.4616 43.4203,181.4616 42.1703,180.2116 42.1703,180.2116 40.2953,179.5866 40.2953,179.5866"/>
    <polyline points="98.253,171.3583 98.878,171.0458 98.878,171.0458 99.8155,170.1083 99.8155,170.1083 99.8155,176.6708"/>
    <polygon points="105.4405,170.1083 104.503,170.4208 104.503,170.4208 103.878,171.3583 103.878,171.3583 103.5655,172.9208 103.5655,172.9208 103.5655,173.8583 103.5655,173.8583 103.878,175.4208 103.878,175.4208 104.503,176.3583 104.503,176.3583 105.4405,176.6708 105.4405,176.6708 106.0655,176.6708 106.0655,176.6708 107.003,176.3583 107.003,176.3583 107.628,175.4208 107.628,175.4208 107.9405,173.8583 107.9405,173.8583 107.9405,172.9208 107.9405,172.9208 107.628,171.3583 107.628,171.3583 107.003,170.4208 107.003,170.4208 106.0655,170.1083 106.0655,170.1083"/>
    <polyline points="119.9483,179.5866 111.8233,179.5866 111.8233,179.5866 111.8233,192.7116"/>
    <line x1="111.8233" x2="116.8233" y1="185.8366" y2="185.8366"/>
    <polyline points="207.874,205.9843 170.0787,205.9843 170.0787,205.9843 170.0787,243.7795 170.0787,243.7795 132.2835,243.7795 132.2835,243.7795 132.2835,205.9843 132.2835,205.9843 170.0787,205.9843 170.0787,205.9843 170.0787,168.189 170.0787,168.189 207.874,168.189 207.874,168.189 207.874,205.9843 207.874,205.9843 245.6693,205.9843 245.6693,205.9843 245.6693,168.189 245.6693,168.189 207.874,168.189"/>
    <polyline points="149.9311,179.5866 149.9311,192.7116 149.9311,192.7116 157.4311,192.7116"/>
    <polyline points="195.5389,179.5866 187.4139,179.5866 187.4139,179.5866 187.4139,192.7116 187.4139,192.7116 195.5389,192.7116"/>
    <line x1="187.4139" x2="192.4139" y1="185.8366" y2="185.8366"/>
    <polyline points="233.0217,181.4616 231.7717,180.2116 231.7717,180.2116 229.8967,179.5866 229.8967,179.5866 227.3967,179.5866 227.3967,179.5866 225.5217,180.2116 225.5217,180.2116 224.2717,181.4616 224.2717,181.4616 224.2717,182.7116 224.2717,182.7116 224.8967,183.9616 224.8967,183.9616 225.5217,184.5866 225.5217,184.5866 226.7717,185.2116 226.7717,185.2116 230.5217,186.4616 230.5217,186.4616 231.7717,187.0866 231.7717,187.0866 232.3967,187.7116 232.3967,187.7116 233.0217,188.9616 233.0217,188.9616 233.0217,190.8366 233.0217,190.8366 231.7717,192.0866 231.7717,192.0866 229.8967,192.7116 229.8967,192.7116 227.3967,192.7116 227.3967,192.7116 225.5217,192.0866 225.5217,192.0866 224.2717,190.8366"/>
    <polyline points="245.6693,205.9843 283.4646,205.9843 283.4646,205.9843 321.2598,205.9843 321.2598,205.9843 359.0551,205.9843 359.0551,205.9843 359.0551,168.189 359.0551,168.189 321.2598,168.189 321.2598,168.189 321.2598,205.9843 321.2598,205.9843 321.2598,243.7795 321.2598,243.7795 283.4646,243.7795 283.4646,243.7795 283.4646,205.9843 283.4646,205.9843 283.4646,168.189 283.4646,168.189 245.6693,168.189"/>
    <polyline points="270.8169,181.4616 269.5669,180.2116 269.5669,180.2116 267.6919,179.5866 267.6919,179.5866 265.1919,179.5866 265.1919,179.5866 263.3169,180.2116 263.3169,180.2116 262.0669,181.4616 262.0669,181.4616 262.0669,182.7116 262.0669,182.7116 262.6919,183.9616 262.6919,183.9616 263.3169,184.5866 263.3169,184.5866 264.5669,185.2116 264.5669,185.2116 268.3169,186.4616 268.3169,186.4616 269.5669,187.0866 269.5669,187.0866 270.1919,187.7116 270.1919,187.7116 270.8169,188.9616 270.8169,188.9616 270.8169,190.8366 270.8169,190.8366 269.5669,192.0866 269.5669,192.0866 267.6919,192.7116 267.6919,192.7116 265.1919,192.7116 265.1919,192.7116 263.3169,192.0866 263.3169,192.0866 262.0669,190.8366"/>
    <polyline points="308.9247,179.5866 300.7997,179.5866 300.7997,179.5866 300.7997,192.7116 300.7997,192.7116 308.9247,192.7116"/>
    <line x1="300.7997" x2="305.7997" y1="185.8366" y2="185.8366"/>
    <polyline points="347.0325,179.5866 347.0325,192.7116 347.0325,192.7116 338.2825,179.5866 338.2825,179.5866 338.2825,192.7116"/>
    <polyline points="359.0551,205.9843 396.8504,205.9843 396.8504,205.9843 396.8504,243.7795 396.8504,243.7795 434.6457,243.7795 434.6457,243.7795 434.6457,205.9843 434.6457,205.9843 434.6457,168.189 434.6457,168.189 472.4409,168.189 472.4409,168.189 510.2362,168.189 510.2362,168.189 548.0315,168.189 548.0315,168.189 548.0315,205.9843 548.0315,205.9843 510.2362,205.9843 510.2362,205.9843 510.2362,168.189"/>
    <polyline points="472.4409,168.189 472.4409,205.9843 472.4409,205.9843 434.6457,205.9843 434.6457,205.9843 396.8504,205.9843 396.8504,205.9843 396.8504,168.189 396.8504,168.189 359.0551,168.189"/>
    <polyline points="384.5153,182.7116 383.8903,181.4616 383.8903,181.4616 382.6403,180.2116 382.6403,180.2116 381.3903,179.5866 381.3903,179.5866 378.8903,179.5866 378.8903,179.5866 377.6403,180.2116 377.6403,180.2116 376.3903,181.4616 376.3903,181.4616 375.7653,182.7116 375.7653,182.7116 375.1403,184.5866 375.1403,184.5866 375.1403,187.7116 375.1403,187.7116 375.7653,189.5866 375.7653,189.5866 376.3903,190.8366 376.3903,190.8366 377.6403,192.0866 377.6403,192.0866 378.8903,192.7116 378.8903,192.7116 381.3903,192.7116 381.3903,192.7116 382.6403,192.0866 382.6403,192.0866 383.8903,190.8366 383.8903,190.8366 384.5153,189.5866 384.5153,189.5866 384.5153,187.7116 384.5153,187.7116 381.3903,187.7116"/>
    <polyline points="422.3105,179.5866 414.1855,179.5866 414.1855,179.5866 414.1855,192.7116 414.1855,192.7116 422.3105,192.7116"/>
    <line x1="414.1855" x2="419.1855" y1="185.8366" y2="185.8366"/>
    <polyline points="452.2933,179.5866 452.2933,192.7116 452.2933,192.7116 459.7933,192.7116"/>
    <line x1="472.4409" x2="510.2362" y1="205.9843" y2="205.9843"/>
    <polyline points="489.4636,179.5866 489.4636,188.9616 489.4636,188.9616 490.0886,190.8366 490.0886,190.8366 491.3386,192.0866 491.3386,192.0866 493.2136,192.7116 493.2136,192.7116 494.4636,192.7116 494.4636,192.7116 496.3386,192.0866 496.3386,192.0866 497.5886,190.8366 497.5886,190.8366 498.2136,188.9616 498.2136,188.9616 498.2136,179.5866"/>
    <line x1="527.2589" x2="527.2589" y1="179.5866" y2="192.7116"/>
    <line x1="536.0089" x2="527.2589" y1="179.5866" y2="188.3366"/>
    <line x1="530.3839" x2="536.0089" y1="185.2116" y2="192.7116"/>
    <polyline points="679.065,179.5866 679.065,192.7116 679.065,192.7116 686.565,192.7116"/>
    <line x1="756.5305" x2="756.5305" y1="179.5866" y2="192.7116"/>
    <line x1="752.1555" x2="760.9055" y1="179.5866" y2="179.5866"/>
    <polyline points="18.8976,205.9843 18.8976,243.7795 18.8976,243.7795 56.6929,243.7795 56.6929,243.7795 56.6929,205.9843"/>
    <polyline points="44.3578,217.3819 36.2328,217.3819 36.2328,217.3819 36.2328,230.5069 36.2328,230.5069 44.3578,230.5069"/>
    <line x1="36.2328" x2="41.2328" y1="223.6319" y2="223.6319"/>
    <polygon points="151.8061,217.3819 150.5561,218.0069 150.5561,218.0069 149.3061,219.2569 149.3061,219.2569 148.6811,220.5069 148.6811,220.5069 148.0561,222.3819 148.0561,222.3819 148.0561,225.5069 148.0561,225.5069 148.6811,227.3819 148.6811,227.3819 149.3061,228.6319 149.3061,228.6319 150.5561,229.8819 150.5561,229.8819 151.8061,230.5069 151.8061,230.5069 154.3061,230.5069 154.3061,230.5069 155.5561,229.8819 155.5561,229.8819 156.8061,228.6319 156.8061,228.6319 157.4311,227.3819 157.4311,227.3819 158.0561,225.5069 158.0561,225.5069 158.0561,222.3819 158.0561,222.3819 157.4311,220.5069 157.4311,220.5069 156.8061,219.2569 156.8061,219.2569 155.5561,218.0069 155.5561,218.0069 154.3061,217.3819 154.3061,217.3819"/>
    <polyline points="300.4872,223.6319 306.1122,223.6319 306.1122,223.6319 307.9872,223.0069 307.9872,223.0069 308.6122,222.3819 308.6122,222.3819 309.2372,221.1319 309.2372,221.1319 309.2372,219.8819 309.2372,219.8819 308.6122,218.6319 308.6122,218.6319 307.9872,218.0069 307.9872,218.0069 306.1122,217.3819 306.1122,217.3819 300.4872,217.3819 300.4872,217.3819 300.4872,230.5069"/>
    <line x1="304.8622" x2="309.2372" y1="223.6319" y2="230.5069"/>
    <polyline points="413.873,223.6319 419.498,223.6319 419.498,223.6319 421.373,223.0069 421.373,223.0069 421.998,222.3819 421.998,222.3819 422.623,221.1319 422.623,221.1319 422.623,219.8819 422.623,219.8819 421.998,218.6319 421.998,218.6319 421.373,218.0069 421.373,218.0069 419.498,217.3819 419.498,217.3819 413.873,217.3819 413.873,217.3819 413.873,230.5069"/>
    <line x1="418.248" x2="422.623" y1="223.6319" y2="230.5069"/>
    <line x1="682.815" x2="682.815" y1="217.3819" y2="230.5069"/>
    <polyline points="18.8976,243.7795 18.8976,281.5748 18.8976,281.5748 56.6929,281.5748 56.6929,281.5748 94.4882,281.5748 94.4882,281.5748 94.4882,243.7795 94.4882,243.7795 56.6929,243.7795 56.6929,243.7795 56.6929,281.5748"/>
    <polyline points="22.6624,246.9488 23.2874,246.6363 23.2874,246.6363 24.2249,245.6988 24.2249,245.6988 24.2249,252.2613"/>
    <polyline points="28.9124,246.9488 29.5374,246.6363 29.5374,246.6363 30.4749,245.6988 30.4749,245.6988 30.4749,252.2613"/>
    <polyline points="35.9203,261.4272 41.5453,261.4272 41.5453,261.4272 43.4203,260.8022 43.4203,260.8022 44.0453,260.1772 44.0453,260.1772 44.6703,258.9272 44.6703,258.9272 44.6703,257.6772 44.6703,257.6772 44.0453,256.4272 44.0453,256.4272 43.4203,255.8022 43.4203,255.8022 41.5453,255.1772 41.5453,255.1772 35.9203,255.1772 35.9203,255.1772 35.9203,268.3022"/>
    <line x1="40.2953" x2="44.6703" y1="261.4272" y2="268.3022"/>
    <polyline points="82.1531,255.1772 74.0281,255.1772 74.0281,255.1772 74.0281,268.3022 74.0281,268.3022 82.1531,268.3022"/>
    <line x1="74.0281" x2="79.0281" y1="261.4272" y2="261.4272"/>
    <polyline points="94.4882,281.5748 132.2835,281.5748 132.2835,281.5748 170.0787,281.5748 170.0787,281.5748 207.874,281.5748 207.874,281.5748 245.6693,281.5748 245.6693,281.5748 245.6693,243.7795 245.6693,243.7795 207.874,243.7795 207.874,243.7795 170.0787,243.7795 170.0787,243.7795 170.0787,281.5748 170.0787,281.5748 170.0787,319.3701 170.0787,319.3701 132.2835,319.3701 132.2835,319.3701 94.4882,319.3701 94.4882,319.3701 56.6929,319.3701 56.6929,319.3701 56.6929,357.1654 56.6929,357.1654 94.4882,357.1654 94.4882,357.1654 132.2835,357.1654 132.2835,357.1654 132.2835,319.3701 132.2835,319.3701 132.2835,281.5748 132.2835,281.5748 132.2835,243.7795 132.2835,243.7795 94.4882,243.7795"/>
    <polyline points="119.6358,257.0522 118.3858,255.8022 118.3858,255.8022 116.5108,255.1772 116.5108,255.1772 114.0108,255.1772 114.0108,255.1772 112.1358,255.8022 112.1358,255.8022 110.8858,257.0522 110.8858,257.0522 110.8858,258.3022 110.8858,258.3022 111.5108,259.5522 111.5108,259.5522 112.1358,260.1772 112.1358,260.1772 113.3858,260.8022 113.3858,260.8022 117.1358,262.0522 117.1358,262.0522 118.3858,262.6772 118.3858,262.6772 119.0108,263.3022 119.0108,263.3022 119.6358,264.5522 119.6358,264.5522 119.6358,266.4272 119.6358,266.4272 118.3858,267.6772 118.3858,267.6772 116.5108,268.3022 116.5108,268.3022 114.0108,268.3022 114.0108,268.3022 112.1358,267.6772 112.1358,267.6772 110.8858,266.4272"/>
    <line x1="151.8061" x2="151.8061" y1="255.1772" y2="268.3022"/>
    <line x1="147.4311" x2="156.1811" y1="255.1772" y2="255.1772"/>
    <line x1="207.874" x2="207.874" y1="281.5748" y2="243.7795"/>
    <polyline points="193.3514,255.1772 193.3514,265.1772 193.3514,265.1772 192.7264,267.0522 192.7264,267.0522 192.1014,267.6772 192.1014,267.6772 190.8514,268.3022 190.8514,268.3022 189.6014,268.3022 189.6014,268.3022 188.3514,267.6772 188.3514,267.6772 187.7264,267.0522 187.7264,267.0522 187.1014,265.1772 187.1014,265.1772 187.1014,263.9272"/>
    <polyline points="233.3342,255.1772 225.2092,255.1772 225.2092,255.1772 225.2092,268.3022 225.2092,268.3022 233.3342,268.3022"/>
    <line x1="225.2092" x2="230.2092" y1="261.4272" y2="261.4272"/>
    <polyline points="245.6693,281.5748 283.4646,281.5748 283.4646,281.5748 283.4646,243.7795 283.4646,243.7795 245.6693,243.7795"/>
    <polyline points="270.8169,257.0522 269.5669,255.8022 269.5669,255.8022 267.6919,255.1772 267.6919,255.1772 265.1919,255.1772 265.1919,255.1772 263.3169,255.8022 263.3169,255.8022 262.0669,257.0522 262.0669,257.0522 262.0669,258.3022 262.0669,258.3022 262.6919,259.5522 262.6919,259.5522 263.3169,260.1772 263.3169,260.1772 264.5669,260.8022 264.5669,260.8022 268.3169,262.0522 268.3169,262.0522 269.5669,262.6772 269.5669,262.6772 270.1919,263.3022 270.1919,263.3022 270.8169,264.5522 270.8169,264.5522 270.8169,266.4272 270.8169,266.4272 269.5669,267.6772 269.5669,267.6772 267.6919,268.3022 267.6919,268.3022 265.1919,268.3022 265.1919,268.3022 263.3169,267.6772 263.3169,267.6772 262.0669,266.4272"/>
    <polyline points="359.0551,281.5748 359.0551,243.7795 359.0551,243.7795 321.2598,243.7795 321.2598,243.7795 321.2598,281.5748 321.2598,281.5748 359.0551,281.5748 359.0551,281.5748 396.8504,281.5748 396.8504,281.5748 396.8504,319.3701 396.8504,319.3701 434.6457,319.3701 434.6457,319.3701 434.6457,281.5748 434.6457,281.5748 434.6457,243.7795 434.6457,243.7795 472.4409,243.7795 472.4409,243.7795 510.2362,243.7795 510.2362,243.7795 510.2362,281.5748 510.2362,281.5748 548.0315,281.5748 548.0315,281.5748 548.0315,243.7795 548.0315,243.7795 510.2362,243.7795"/>
    <polyline points="325.0246,246.9488 325.6496,246.6363 325.6496,246.6363 326.5871,245.6988 326.5871,245.6988 326.5871,252.2613"/>
    <polyline points="330.6496,247.2613 330.6496,246.9488 330.6496,246.9488 330.9621,246.3238 330.9621,246.3238 331.2746,246.0113 331.2746,246.0113 331.8996,245.6988 331.8996,245.6988 333.1496,245.6988 333.1496,245.6988 333.7746,246.0113 333.7746,246.0113 334.0871,246.3238 334.0871,246.3238 334.3996,246.9488 334.3996,246.9488 334.3996,247.5738 334.3996,247.5738 334.0871,248.1988 334.0871,248.1988 333.4621,249.1363 333.4621,249.1363 330.3371,252.2613 330.3371,252.2613 334.7121,252.2613"/>
    <polyline points="338.2825,262.0522 343.9075,262.0522 343.9075,262.0522 345.7825,261.4272 345.7825,261.4272 346.4075,260.8022 346.4075,260.8022 347.0325,259.5522 347.0325,259.5522 347.0325,257.6772 347.0325,257.6772 346.4075,256.4272 346.4075,256.4272 345.7825,255.8022 345.7825,255.8022 343.9075,255.1772 343.9075,255.1772 338.2825,255.1772 338.2825,255.1772 338.2825,268.3022"/>
    <polyline points="510.2362,281.5748 472.4409,281.5748 472.4409,281.5748 434.6457,281.5748 434.6457,281.5748 396.8504,281.5748 396.8504,281.5748 396.8504,243.7795 396.8504,243.7795 359.0551,243.7795"/>
    <line x1="380.4528" x2="380.4528" y1="255.1772" y2="268.3022"/>
    <polyline points="422.3105,255.1772 414.1855,255.1772 414.1855,255.1772 414.1855,268.3022 414.1855,268.3022 422.3105,268.3022"/>
    <line x1="414.1855" x2="419.1855" y1="261.4272" y2="261.4272"/>
    <line x1="472.4409" x2="472.4409" y1="281.5748" y2="243.7795"/>
    <line x1="454.1683" x2="454.1683" y1="255.1772" y2="268.3022"/>
    <line x1="449.7933" x2="458.5433" y1="255.1772" y2="255.1772"/>
    <polyline points="497.9011,255.1772 489.7761,255.1772 489.7761,255.1772 489.7761,268.3022 489.7761,268.3022 497.9011,268.3022"/>
    <line x1="489.7761" x2="494.7761" y1="261.4272" y2="261.4272"/>
    <polyline points="527.2589,261.4272 532.8839,261.4272 532.8839,261.4272 534.7589,260.8022 534.7589,260.8022 535.3839,260.1772 535.3839,260.1772 536.0089,258.9272 536.0089,258.9272 536.0089,257.6772 536.0089,257.6772 535.3839,256.4272 535.3839,256.4272 534.7589,255.8022 534.7589,255.8022 532.8839,255.1772 532.8839,255.1772 527.2589,255.1772 527.2589,255.1772 527.2589,268.3022"/>
    <line x1="531.6339" x2="536.0089" y1="261.4272" y2="268.3022"/>
    <polyline points="548.0315,281.5748 585.8268,281.5748 585.8268,281.5748 585.8268,243.7795 585.8268,243.7795 548.0315,243.7795"/>
    <line x1="563.8041" x2="575.0541" y1="262.6772" y2="262.6772"/>
    <polyline points="585.8268,243.7795 623.622,243.7795 623.622,243.7795 623.622,281.5748 623.622,281.5748 623.622,319.3701 623.622,319.3701 585.8268,319.3701 585.8268,319.3701 585.8268,281.5748 585.8268,281.5748 623.622,281.5748 623.622,281.5748 661.4173,281.5748 661.4173,281.5748 699.2126,281.5748 699.2126,281.5748 699.2126,243.7795"/>
    <polyline points="589.5915,246.9488 590.2165,246.6363 590.2165,246.6363 591.154,245.6988 591.154,245.6988 591.154,252.2613"/>
    <polyline points="595.529,245.6988 598.9665,245.6988 598.9665,245.6988 597.0915,248.1988 597.0915,248.1988 598.029,248.1988 598.029,248.1988 598.654,248.5113 598.654,248.5113 598.9665,248.8238 598.9665,248.8238 599.279,249.7613 599.279,249.7613 599.279,250.3863 599.279,250.3863 598.9665,251.3238 598.9665,251.3238 598.3415,251.9488 598.3415,251.9488 597.404,252.2613 597.404,252.2613 596.4665,252.2613 596.4665,252.2613 595.529,251.9488 595.529,251.9488 595.2165,251.6363 595.2165,251.6363 594.904,251.0113"/>
    <polyline points="609.0994,255.1772 609.0994,265.1772 609.0994,265.1772 608.4744,267.0522 608.4744,267.0522 607.8494,267.6772 607.8494,267.6772 606.5994,268.3022 606.5994,268.3022 605.3494,268.3022 605.3494,268.3022 604.0994,267.6772 604.0994,267.6772 603.4744,267.0522 603.4744,267.0522 602.8494,265.1772 602.8494,265.1772 602.8494,263.9272"/>
    <polyline points="699.2126,281.5748 699.2126,319.3701 699.2126,319.3701 661.4173,319.3701 661.4173,319.3701 661.4173,281.5748 661.4173,281.5748 661.4173,243.7795 661.4173,243.7795 623.622,243.7795"/>
    <polyline points="648.1447,268.3022 643.1447,255.1772 643.1447,255.1772 638.1447,268.3022"/>
    <line x1="640.0197" x2="646.2697" y1="263.9272" y2="263.9272"/>
    <polyline points="687.19,255.1772 687.19,268.3022 687.19,268.3022 678.44,255.1772 678.44,255.1772 678.44,268.3022"/>
    <line x1="151.8061" x2="151.8061" y1="292.9724" y2="306.0974"/>
    <line x1="147.4311" x2="156.1811" y1="292.9724" y2="292.9724"/>
    <polyline points="422.623,292.9724 422.623,306.0974 422.623,306.0974 413.873,292.9724 413.873,292.9724 413.873,306.0974"/>
    <polyline points="610.3494,306.0974 605.3494,292.9724 605.3494,292.9724 600.3494,306.0974"/>
    <line x1="602.2244" x2="608.4744" y1="301.7224" y2="301.7224"/>
    <polyline points="686.8775,292.9724 678.7525,292.9724 678.7525,292.9724 678.7525,306.0974 678.7525,306.0974 686.8775,306.0974"/>
    <line x1="678.7525" x2="683.7525" y1="299.2224" y2="299.2224"/>
    <line x1="94.4882" x2="94.4882" y1="357.1654" y2="319.3701"/>
    <polyline points="60.4577,322.5394 61.0827,322.2269 61.0827,322.2269 62.0202,321.2894 62.0202,321.2894 62.0202,327.8519"/>
    <polyline points="68.8952,327.8519 68.8952,321.2894 68.8952,321.2894 65.7702,325.6644 65.7702,325.6644 70.4577,325.6644"/>
    <polyline points="81.8406,332.6427 80.5906,331.3927 80.5906,331.3927 78.7156,330.7677 78.7156,330.7677 76.2156,330.7677 76.2156,330.7677 74.3406,331.3927 74.3406,331.3927 73.0906,332.6427 73.0906,332.6427 73.0906,333.8927 73.0906,333.8927 73.7156,335.1427 73.7156,335.1427 74.3406,335.7677 74.3406,335.7677 75.5906,336.3927 75.5906,336.3927 79.3406,337.6427 79.3406,337.6427 80.5906,338.2677 80.5906,338.2677 81.2156,338.8927 81.2156,338.8927 81.8406,340.1427 81.8406,340.1427 81.8406,342.0177 81.8406,342.0177 80.5906,343.2677 80.5906,343.2677 78.7156,343.8927 78.7156,343.8927 76.2156,343.8927 76.2156,343.8927 74.3406,343.2677 74.3406,343.2677 73.0906,342.0177"/>
    <line x1="111.5108" x2="111.5108" y1="330.7677" y2="343.8927"/>
    <line x1="120.2608" x2="111.5108" y1="330.7677" y2="339.5177"/>
    <line x1="114.6358" x2="120.2608" y1="336.3927" y2="343.8927"/>
    <polyline points="132.2835,357.1654 170.0787,357.1654 170.0787,357.1654 207.874,357.1654 207.874,357.1654 207.874,319.3701 207.874,319.3701 170.0787,319.3701 170.0787,319.3701 170.0787,357.1654"/>
    <polyline points="157.7436,330.7677 149.6186,330.7677 149.6186,330.7677 149.6186,343.8927 149.6186,343.8927 157.7436,343.8927"/>
    <line x1="149.6186" x2="154.6186" y1="337.0177" y2="337.0177"/>
    <polyline points="187.7264,330.7677 187.7264,343.8927 187.7264,343.8927 195.2264,343.8927"/>
    <polyline points="207.874,357.1654 245.6693,357.1654 245.6693,357.1654 245.6693,319.3701 245.6693,319.3701 207.874,319.3701"/>
    <polyline points="225.5217,330.7677 225.5217,343.8927 225.5217,343.8927 233.0217,343.8927"/>
    <polyline points="245.6693,357.1654 283.4646,357.1654 283.4646,357.1654 321.2598,357.1654 321.2598,357.1654 321.2598,319.3701 321.2598,319.3701 283.4646,319.3701 283.4646,319.3701 245.6693,319.3701"/>
    <line x1="283.4646" x2="283.4646" y1="357.1654" y2="319.3701"/>
    <polyline points="271.1294,330.7677 263.0044,330.7677 263.0044,330.7677 263.0044,343.8927 263.0044,343.8927 271.1294,343.8927"/>
    <line x1="263.0044" x2="268.0044" y1="337.0177" y2="337.0177"/>
    <line x1="300.4872" x2="300.4872" y1="330.7677" y2="343.8927"/>
    <line x1="309.2372" x2="300.4872" y1="330.7677" y2="339.5177"/>
    <line x1="303.6122" x2="309.2372" y1="336.3927" y2="343.8927"/>
    <polyline points="321.2598,357.1654 359.0551,357.1654 359.0551,357.1654 359.0551,319.3701 359.0551,319.3701 321.2598,319.3701"/>
    <polyline points="346.72,330.7677 338.595,330.7677 338.595,330.7677 338.595,343.8927 338.595,343.8927 346.72,343.8927"/>
    <line x1="338.595" x2="343.595" y1="337.0177" y2="337.0177"/>
  </g>
</svg>
