<?xml version="1.0" encoding="utf-8" ?>
<svg xmlns="http://www.w3.org/2000/svg" xmlns:cc="http://creativecommons.org/ns" xmlns:dc="http://purl.org/dc/elements/1.1/" xmlns:ev="http://www.w3.org/2001/xml-events" xmlns:inkscape="http://www.inkscape.org/namespaces/inkscape" xmlns:rdf="http://www.w3.org/1999/02/22-rdf-syntax-ns" xmlns:sodipodi="http://sodipodi.sourceforge.net/DTD/sodipodi-0.dtd" xmlns:xlink="http://www.w3.org/1999/xlink" baseProfile="tiny" height="9.9cm" version="1.2" viewBox="0 0 793.7007874015749 374.1732283464567" width="21.0cm">
  <metadata>
    <rdf:RDF>
      <cc:Work>
        <dc:format>image/svg+xml</dc:format>
        <dc:source>vpype eval 'cell=10;width=210;height=99' eval 'nCols=20;nRows=9' eval 'cells=[6,7,8,9,10,11,12,13,15,17,19,22,23,24,25,32,35,37,39,44,46,48,51,52,53,54,55,56,57,58,59,62,64,66,68,72,75,77,79,80,81,82,83,84,86,87,88,89,90,91,92,93,97,99,102,106,108,112,117,119,122,126,130,131,132,133,134,135,136,137,138,141,142,143,144,145,146,152,157,162,168,169,170,171,172,173,174,175,176]' eval 'chars=[&quot;S&quot;,&quot;K&quot;,&quot;E&quot;,&quot;L&quot;,&quot;L&quot;,&quot;E&quot;,&quot;K&quot;,&quot;E&quot;,&quot;G&quot;,&quot;F&quot;,&quot;C&quot;,&quot;F&quot;,&quot;I&quot;,&quot;L&quot;,&quot;E&quot;,&quot;L&quot;,&quot;R&quot;,&quot;R&quot;,&quot;E&quot;,&quot;I&quot;,&quot;L&quot;,&quot;M&quot;,&quot;M&quot;,&quot;A&quot;,&quot;N&quot;,&quot;D&quot;,&quot;A&quot;,&quot;R&quot;,&quot;I&quot;,&quot;J&quot;,&quot;N&quot;,&quot;L&quot;,&quot;F&quot;,&quot;A&quot;,&quot;A&quot;,&quot;V&quot;,&quot;S&quot;,&quot;E&quot;,&quot;T&quot;,&quot;G&quot;,&quot;R&quot;,&quot;A&quot;,&quot;A&quot;,&quot;T&quot;,&quot;K&quot;,&quot;I&quot;,&quot;N&quot;,&quot;D&quot;,&quot;E&quot;,&quot;R&quot;,&quot;E&quot;,&quot;N&quot;,&quot;T&quot;,&quot;J&quot;,&quot;D&quot;,&quot;E&quot;,&quot;U&quot;,&quot;R&quot;,&quot;J&quot;,&quot;E&quot;,&quot;D&quot;,&quot;N&quot;,&quot;U&quot;,&quot;I&quot;,&quot;T&quot;,&quot;L&quot;,&quot;I&quot;,&quot;K&quot;,&quot;K&quot;,&quot;E&quot;,&quot;N&quot;,&quot;T&quot;,&quot;E&quot;,&quot;R&quot;,&quot;R&quot;,&quot;A&quot;,&quot;S&quot;,&quot;J&quot;,&quot;S&quot;,&quot;R&quot;,&quot;R&quot;,&quot;E&quot;,&quot;K&quot;,&quot;K&quot;,&quot;E&quot;,&quot;R&quot;,&quot;T&quot;,&quot;J&quot;,&quot;E&quot;]' eval 'numbers=[6,12,15,17,19,22,24,46,48,51,62,80,86,130,141,168]' eval counter=1 eval charIndex=0 begin grid -o '%cell*mm%' '%cell*mm%' %nCols% %nRows% eval '%isCell=_i in cells%' eval '%number=_i in numbers%' eval '%size=10 if isCell else 0%' rect 0 0 '%size*mm%' '%size*mm%' text -s 10 -p 0.5mm 1.5mm '%counter if number else '&quot;'&quot;''&quot;'&quot;'%' text -s 20 -p 5mm 5mm -a center '%chars[charIndex] if isCell else '&quot;'&quot;''&quot;'&quot;'%' eval '%if number: counter+=1 %' eval '%if isCell: charIndex+=1 %' end splitall deduplicate linemerge --tolerance 0.1mm write -m none --page-size '%width*mm%x%height*mm%' --center ./svgs/solution/f3bbbe.svg
</dc:source>
        <dc:date>2023-12-24T14:36:21.834855</dc:date>
      </cc:Work>
    </rdf:RDF>
  </metadata>
  <defs/>
  <g fill="none" id="layer1" inkscape:groupmode="layer" inkscape:label="1" stroke="#000000" style="display:inline">
    <polygon points="245.6693,17.0079 245.6693,54.8031 245.6693,54.8031 283.4646,54.8031 283.4646,54.8031 321.2598,54.8031 321.2598,54.8031 359.0551,54.8031 359.0551,54.8031 396.8504,54.8031 396.8504,54.8031 396.8504,17.0079 396.8504,17.0079 359.0551,17.0079 359.0551,17.0079 321.2598,17.0079 321.2598,17.0079 283.4646,17.0079 283.4646,17.0079"/>
    <line x1="283.4646" x2="283.4646" y1="54.8031" y2="17.0079"/>
    <polyline points="249.4341,20.1772 250.0591,19.8647 250.0591,19.8647 250.9966,18.9272 250.9966,18.9272 250.9966,25.4897"/>
    <polyline points="270.8169,30.2805 269.5669,29.0305 269.5669,29.0305 267.6919,28.4055 267.6919,28.4055 265.1919,28.4055 265.1919,28.4055 263.3169,29.0305 263.3169,29.0305 262.0669,30.2805 262.0669,30.2805 262.0669,31.5305 262.0669,31.5305 262.6919,32.7805 262.6919,32.7805 263.3169,33.4055 263.3169,33.4055 264.5669,34.0305 264.5669,34.0305 268.3169,35.2805 268.3169,35.2805 269.5669,35.9055 269.5669,35.9055 270.1919,36.5305 270.1919,36.5305 270.8169,37.7805 270.8169,37.7805 270.8169,39.6555 270.8169,39.6555 269.5669,40.9055 269.5669,40.9055 267.6919,41.5305 267.6919,41.5305 265.1919,41.5305 265.1919,41.5305 263.3169,40.9055 263.3169,40.9055 262.0669,39.6555"/>
    <line x1="321.2598" x2="321.2598" y1="54.8031" y2="17.0079"/>
    <line x1="300.4872" x2="300.4872" y1="28.4055" y2="41.5305"/>
    <line x1="309.2372" x2="300.4872" y1="28.4055" y2="37.1555"/>
    <line x1="303.6122" x2="309.2372" y1="34.0305" y2="41.5305"/>
    <line x1="359.0551" x2="359.0551" y1="54.8031" y2="17.0079"/>
    <polyline points="346.72,28.4055 338.595,28.4055 338.595,28.4055 338.595,41.5305 338.595,41.5305 346.72,41.5305"/>
    <line x1="338.595" x2="343.595" y1="34.6555" y2="34.6555"/>
    <polyline points="376.7028,28.4055 376.7028,41.5305 376.7028,41.5305 384.2028,41.5305"/>
    <polyline points="396.8504,54.8031 434.6457,54.8031 434.6457,54.8031 434.6457,17.0079 434.6457,17.0079 396.8504,17.0079"/>
    <polyline points="414.498,28.4055 414.498,41.5305 414.498,41.5305 421.998,41.5305"/>
    <polyline points="434.6457,54.8031 472.4409,54.8031 472.4409,54.8031 472.4409,17.0079 472.4409,17.0079 434.6457,17.0079"/>
    <polyline points="460.1058,28.4055 451.9808,28.4055 451.9808,28.4055 451.9808,41.5305 451.9808,41.5305 460.1058,41.5305"/>
    <line x1="451.9808" x2="456.9808" y1="34.6555" y2="34.6555"/>
    <polyline points="510.2362,17.0079 510.2362,54.8031 510.2362,54.8031 510.2362,92.5984 510.2362,92.5984 472.4409,92.5984 472.4409,92.5984 472.4409,54.8031 472.4409,54.8031 510.2362,54.8031 510.2362,54.8031 548.0315,54.8031 548.0315,54.8031 548.0315,17.0079 548.0315,17.0079 510.2362,17.0079 510.2362,17.0079 472.4409,17.0079"/>
    <polyline points="475.5807,20.4897 475.5807,20.1772 475.5807,20.1772 475.8932,19.5522 475.8932,19.5522 476.2057,19.2397 476.2057,19.2397 476.8307,18.9272 476.8307,18.9272 478.0807,18.9272 478.0807,18.9272 478.7057,19.2397 478.7057,19.2397 479.0182,19.5522 479.0182,19.5522 479.3307,20.1772 479.3307,20.1772 479.3307,20.8022 479.3307,20.8022 479.0182,21.4272 479.0182,21.4272 478.3932,22.3647 478.3932,22.3647 475.2682,25.4897 475.2682,25.4897 479.6432,25.4897"/>
    <line x1="489.4636" x2="489.4636" y1="28.4055" y2="41.5305"/>
    <line x1="498.2136" x2="489.4636" y1="28.4055" y2="37.1555"/>
    <line x1="492.5886" x2="498.2136" y1="34.0305" y2="41.5305"/>
    <polyline points="535.6964,28.4055 527.5714,28.4055 527.5714,28.4055 527.5714,41.5305 527.5714,41.5305 535.6964,41.5305"/>
    <line x1="527.5714" x2="532.5714" y1="34.6555" y2="34.6555"/>
    <polygon points="585.8268,17.0079 585.8268,54.8031 585.8268,54.8031 585.8268,92.5984 585.8268,92.5984 623.622,92.5984 623.622,92.5984 623.622,54.8031 623.622,54.8031 623.622,17.0079 623.622,17.0079"/>
    <line x1="585.8268" x2="623.622" y1="54.8031" y2="54.8031"/>
    <polyline points="589.279,18.9272 592.7165,18.9272 592.7165,18.9272 590.8415,21.4272 590.8415,21.4272 591.779,21.4272 591.779,21.4272 592.404,21.7397 592.404,21.7397 592.7165,22.0522 592.7165,22.0522 593.029,22.9897 593.029,22.9897 593.029,23.6147 593.029,23.6147 592.7165,24.5522 592.7165,24.5522 592.0915,25.1772 592.0915,25.1772 591.154,25.4897 591.154,25.4897 590.2165,25.4897 590.2165,25.4897 589.279,25.1772 589.279,25.1772 588.9665,24.8647 588.9665,24.8647 588.654,24.2397"/>
    <polyline points="611.2869,31.5305 610.6619,30.2805 610.6619,30.2805 609.4119,29.0305 609.4119,29.0305 608.1619,28.4055 608.1619,28.4055 605.6619,28.4055 605.6619,28.4055 604.4119,29.0305 604.4119,29.0305 603.1619,30.2805 603.1619,30.2805 602.5369,31.5305 602.5369,31.5305 601.9119,33.4055 601.9119,33.4055 601.9119,36.5305 601.9119,36.5305 602.5369,38.4055 602.5369,38.4055 603.1619,39.6555 603.1619,39.6555 604.4119,40.9055 604.4119,40.9055 605.6619,41.5305 605.6619,41.5305 608.1619,41.5305 608.1619,41.5305 609.4119,40.9055 609.4119,40.9055 610.6619,39.6555 610.6619,39.6555 611.2869,38.4055 611.2869,38.4055 611.2869,36.5305 611.2869,36.5305 608.1619,36.5305"/>
    <polygon points="661.4173,17.0079 661.4173,54.8031 661.4173,54.8031 661.4173,92.5984 661.4173,92.5984 699.2126,92.5984 699.2126,92.5984 699.2126,54.8031 699.2126,54.8031 699.2126,17.0079 699.2126,17.0079"/>
    <line x1="661.4173" x2="699.2126" y1="54.8031" y2="54.8031"/>
    <polyline points="667.3696,25.4897 667.3696,18.9272 667.3696,18.9272 664.2446,23.3022 664.2446,23.3022 668.9321,23.3022"/>
    <polyline points="686.8775,28.4055 678.7525,28.4055 678.7525,28.4055 678.7525,41.5305"/>
    <line x1="678.7525" x2="683.7525" y1="34.6555" y2="34.6555"/>
    <polygon points="737.0079,17.0079 737.0079,54.8031 737.0079,54.8031 774.8031,54.8031 774.8031,54.8031 774.8031,17.0079 774.8031,17.0079"/>
    <polyline points="743.5851,18.9272 740.4601,18.9272 740.4601,18.9272 740.1476,21.7397 740.1476,21.7397 740.4601,21.4272 740.4601,21.4272 741.3976,21.1147 741.3976,21.1147 742.3351,21.1147 742.3351,21.1147 743.2726,21.4272 743.2726,21.4272 743.8976,22.0522 743.8976,22.0522 744.2101,22.9897 744.2101,22.9897 744.2101,23.6147 744.2101,23.6147 743.8976,24.5522 743.8976,24.5522 743.2726,25.1772 743.2726,25.1772 742.3351,25.4897 742.3351,25.4897 741.3976,25.4897 741.3976,25.4897 740.4601,25.1772 740.4601,25.1772 740.1476,24.8647 740.1476,24.8647 739.8351,24.2397"/>
    <polyline points="762.468,31.5305 761.843,30.2805 761.843,30.2805 760.593,29.0305 760.593,29.0305 759.343,28.4055 759.343,28.4055 756.843,28.4055 756.843,28.4055 755.593,29.0305 755.593,29.0305 754.343,30.2805 754.343,30.2805 753.718,31.5305 753.718,31.5305 753.093,33.4055 753.093,33.4055 753.093,36.5305 753.093,36.5305 753.718,38.4055 753.718,38.4055 754.343,39.6555 754.343,39.6555 755.593,40.9055 755.593,40.9055 756.843,41.5305 756.843,41.5305 759.343,41.5305 759.343,41.5305 760.593,40.9055 760.593,40.9055 761.843,39.6555 761.843,39.6555 762.468,38.4055"/>
    <polygon points="94.4882,54.8031 94.4882,92.5984 94.4882,92.5984 132.2835,92.5984 132.2835,92.5984 132.2835,54.8031 132.2835,54.8031"/>
    <polyline points="101.378,57.6599 101.0655,57.0349 101.0655,57.0349 100.128,56.7224 100.128,56.7224 99.503,56.7224 99.503,56.7224 98.5655,57.0349 98.5655,57.0349 97.9405,57.9724 97.9405,57.9724 97.628,59.5349 97.628,59.5349 97.628,61.0974 97.628,61.0974 97.9405,62.3474 97.9405,62.3474 98.5655,62.9724 98.5655,62.9724 99.503,63.2849 99.503,63.2849 99.8155,63.2849 99.8155,63.2849 100.753,62.9724 100.753,62.9724 101.378,62.3474 101.378,62.3474 101.6905,61.4099 101.6905,61.4099 101.6905,61.0974 101.6905,61.0974 101.378,60.1599 101.378,60.1599 100.753,59.5349 100.753,59.5349 99.8155,59.2224 99.8155,59.2224 99.503,59.2224 99.503,59.2224 98.5655,59.5349 98.5655,59.5349 97.9405,60.1599 97.9405,60.1599 97.628,61.0974"/>
    <polyline points="119.9483,66.2008 111.8233,66.2008 111.8233,66.2008 111.8233,79.3258"/>
    <line x1="111.8233" x2="116.8233" y1="72.4508" y2="72.4508"/>
    <polyline points="132.2835,92.5984 170.0787,92.5984 170.0787,92.5984 170.0787,54.8031 170.0787,54.8031 132.2835,54.8031"/>
    <line x1="153.6811" x2="153.6811" y1="66.2008" y2="79.3258"/>
    <polyline points="207.874,54.8031 207.874,92.5984 207.874,92.5984 207.874,130.3937 207.874,130.3937 170.0787,130.3937 170.0787,130.3937 170.0787,92.5984 170.0787,92.5984 207.874,92.5984 207.874,92.5984 245.6693,92.5984 245.6693,92.5984 245.6693,54.8031 245.6693,54.8031 207.874,54.8031 207.874,54.8031 170.0787,54.8031"/>
    <polyline points="172.906,56.7224 177.281,56.7224 177.281,56.7224 174.156,63.2849"/>
    <polyline points="187.7264,66.2008 187.7264,79.3258 187.7264,79.3258 195.2264,79.3258"/>
    <polyline points="233.3342,66.2008 225.2092,66.2008 225.2092,66.2008 225.2092,79.3258 225.2092,79.3258 233.3342,79.3258"/>
    <line x1="225.2092" x2="230.2092" y1="72.4508" y2="72.4508"/>
    <polyline points="490.0886,66.2008 490.0886,79.3258 490.0886,79.3258 497.5886,79.3258"/>
    <polyline points="602.8494,72.4508 608.4744,72.4508 608.4744,72.4508 610.3494,71.8258 610.3494,71.8258 610.9744,71.2008 610.9744,71.2008 611.5994,69.9508 611.5994,69.9508 611.5994,68.7008 611.5994,68.7008 610.9744,67.4508 610.9744,67.4508 610.3494,66.8258 610.3494,66.8258 608.4744,66.2008 608.4744,66.2008 602.8494,66.2008 602.8494,66.2008 602.8494,79.3258"/>
    <line x1="607.2244" x2="611.5994" y1="72.4508" y2="79.3258"/>
    <polyline points="678.44,72.4508 684.065,72.4508 684.065,72.4508 685.94,71.8258 685.94,71.8258 686.565,71.2008 686.565,71.2008 687.19,69.9508 687.19,69.9508 687.19,68.7008 687.19,68.7008 686.565,67.4508 686.565,67.4508 685.94,66.8258 685.94,66.8258 684.065,66.2008 684.065,66.2008 678.44,66.2008 678.44,66.2008 678.44,79.3258"/>
    <line x1="682.815" x2="687.19" y1="72.4508" y2="79.3258"/>
    <polyline points="737.0079,54.8031 737.0079,92.5984 737.0079,92.5984 774.8031,92.5984 774.8031,92.5984 774.8031,54.8031"/>
    <polyline points="762.468,66.2008 754.343,66.2008 754.343,66.2008 754.343,79.3258 754.343,79.3258 762.468,79.3258"/>
    <line x1="754.343" x2="759.343" y1="72.4508" y2="72.4508"/>
    <line x1="191.4764" x2="191.4764" y1="103.9961" y2="117.1211"/>
    <polygon points="245.6693,92.5984 245.6693,130.3937 245.6693,130.3937 283.4646,130.3937 283.4646,130.3937 283.4646,92.5984 283.4646,92.5984"/>
    <polygon points="250.0591,94.5177 249.1216,94.8302 249.1216,94.8302 248.8091,95.4552 248.8091,95.4552 248.8091,96.0802 248.8091,96.0802 249.1216,96.7052 249.1216,96.7052 249.7466,97.0177 249.7466,97.0177 250.9966,97.3302 250.9966,97.3302 251.9341,97.6427 251.9341,97.6427 252.5591,98.2677 252.5591,98.2677 252.8716,98.8927 252.8716,98.8927 252.8716,99.8302 252.8716,99.8302 252.5591,100.4552 252.5591,100.4552 252.2466,100.7677 252.2466,100.7677 251.3091,101.0802 251.3091,101.0802 250.0591,101.0802 250.0591,101.0802 249.1216,100.7677 249.1216,100.7677 248.8091,100.4552 248.8091,100.4552 248.4966,99.8302 248.4966,99.8302 248.4966,98.8927 248.4966,98.8927 248.8091,98.2677 248.8091,98.2677 249.4341,97.6427 249.4341,97.6427 250.3716,97.3302 250.3716,97.3302 251.6216,97.0177 251.6216,97.0177 252.2466,96.7052 252.2466,96.7052 252.5591,96.0802 252.5591,96.0802 252.5591,95.4552 252.5591,95.4552 252.2466,94.8302 252.2466,94.8302 251.3091,94.5177 251.3091,94.5177"/>
    <polyline points="263.3169,103.9961 263.3169,117.1211 263.3169,117.1211 270.8169,117.1211"/>
    <polygon points="321.2598,92.5984 321.2598,130.3937 321.2598,130.3937 321.2598,168.189 321.2598,168.189 359.0551,168.189 359.0551,168.189 359.0551,130.3937 359.0551,130.3937 359.0551,92.5984 359.0551,92.5984"/>
    <line x1="321.2598" x2="359.0551" y1="130.3937" y2="130.3937"/>
    <polyline points="328.1496,96.7052 327.8371,97.6427 327.8371,97.6427 327.2121,98.2677 327.2121,98.2677 326.2746,98.5802 326.2746,98.5802 325.9621,98.5802 325.9621,98.5802 325.0246,98.2677 325.0246,98.2677 324.3996,97.6427 324.3996,97.6427 324.0871,96.7052 324.0871,96.7052 324.0871,96.3927 324.0871,96.3927 324.3996,95.4552 324.3996,95.4552 325.0246,94.8302 325.0246,94.8302 325.9621,94.5177 325.9621,94.5177 326.2746,94.5177 326.2746,94.5177 327.2121,94.8302 327.2121,94.8302 327.8371,95.4552 327.8371,95.4552 328.1496,96.7052 328.1496,96.7052 328.1496,98.2677 328.1496,98.2677 327.8371,99.8302 327.8371,99.8302 327.2121,100.7677 327.2121,100.7677 326.2746,101.0802 326.2746,101.0802 325.6496,101.0802 325.6496,101.0802 324.7121,100.7677 324.7121,100.7677 324.3996,100.1427"/>
    <polyline points="347.6575,117.1211 347.6575,103.9961 347.6575,103.9961 342.6575,117.1211 342.6575,117.1211 337.6575,103.9961 337.6575,103.9961 337.6575,117.1211"/>
    <polyline points="434.6457,168.189 434.6457,205.9843 434.6457,205.9843 472.4409,205.9843 472.4409,205.9843 510.2362,205.9843 510.2362,205.9843 510.2362,243.7795 510.2362,243.7795 472.4409,243.7795 472.4409,243.7795 472.4409,205.9843 472.4409,205.9843 472.4409,168.189 472.4409,168.189 472.4409,130.3937 472.4409,130.3937 472.4409,92.5984 472.4409,92.5984 434.6457,92.5984 434.6457,92.5984 434.6457,130.3937 434.6457,130.3937 472.4409,130.3937 472.4409,130.3937 510.2362,130.3937 510.2362,130.3937 548.0315,130.3937 548.0315,130.3937 585.8268,130.3937 585.8268,130.3937 585.8268,92.5984 585.8268,92.5984 548.0315,92.5984 548.0315,92.5984 510.2362,92.5984 510.2362,92.5984 510.2362,130.3937 510.2362,130.3937 510.2362,168.189 510.2362,168.189 548.0315,168.189 548.0315,168.189 548.0315,205.9843 548.0315,205.9843 510.2362,205.9843 510.2362,205.9843 510.2362,168.189 510.2362,168.189 472.4409,168.189 472.4409,168.189 434.6457,168.189 434.6457,168.189 396.8504,168.189 396.8504,168.189 359.0551,168.189 359.0551,168.189 359.0551,205.9843 359.0551,205.9843 396.8504,205.9843 396.8504,205.9843 396.8504,168.189"/>
    <polyline points="438.4104,95.7677 439.0354,95.4552 439.0354,95.4552 439.9729,94.5177 439.9729,94.5177 439.9729,101.0802"/>
    <polygon points="445.5979,94.5177 444.6604,94.8302 444.6604,94.8302 444.0354,95.7677 444.0354,95.7677 443.7229,97.3302 443.7229,97.3302 443.7229,98.2677 443.7229,98.2677 444.0354,99.8302 444.0354,99.8302 444.6604,100.7677 444.6604,100.7677 445.5979,101.0802 445.5979,101.0802 446.2229,101.0802 446.2229,101.0802 447.1604,100.7677 447.1604,100.7677 447.7854,99.8302 447.7854,99.8302 448.0979,98.2677 448.0979,98.2677 448.0979,97.3302 448.0979,97.3302 447.7854,95.7677 447.7854,95.7677 447.1604,94.8302 447.1604,94.8302 446.2229,94.5177 446.2229,94.5177"/>
    <polyline points="461.0433,117.1211 461.0433,103.9961 461.0433,103.9961 456.0433,117.1211 456.0433,117.1211 451.0433,103.9961 451.0433,103.9961 451.0433,117.1211"/>
    <polyline points="496.9636,117.1211 491.9636,103.9961 491.9636,103.9961 486.9636,117.1211"/>
    <line x1="488.8386" x2="495.0886" y1="112.7461" y2="112.7461"/>
    <line x1="548.0315" x2="548.0315" y1="130.3937" y2="92.5984"/>
    <polyline points="536.0089,103.9961 536.0089,117.1211 536.0089,117.1211 527.2589,103.9961 527.2589,103.9961 527.2589,117.1211"/>
    <polygon points="565.0541,103.9961 565.0541,117.1211 565.0541,117.1211 569.4291,117.1211 569.4291,117.1211 571.3041,116.4961 571.3041,116.4961 572.5541,115.2461 572.5541,115.2461 573.1791,113.9961 573.1791,113.9961 573.8041,112.1211 573.8041,112.1211 573.8041,108.9961 573.8041,108.9961 573.1791,107.1211 573.1791,107.1211 572.5541,105.8711 572.5541,105.8711 571.3041,104.6211 571.3041,104.6211 569.4291,103.9961 569.4291,103.9961"/>
    <polyline points="774.8031,130.3937 737.0079,130.3937 737.0079,130.3937 699.2126,130.3937 699.2126,130.3937 699.2126,168.189 699.2126,168.189 699.2126,205.9843 699.2126,205.9843 661.4173,205.9843 661.4173,205.9843 661.4173,168.189 661.4173,168.189 661.4173,130.3937 661.4173,130.3937 623.622,130.3937 623.622,130.3937 623.622,168.189 623.622,168.189 585.8268,168.189 585.8268,168.189 585.8268,130.3937 585.8268,130.3937 623.622,130.3937 623.622,130.3937 623.622,92.5984 623.622,92.5984 661.4173,92.5984 661.4173,92.5984 661.4173,130.3937 661.4173,130.3937 699.2126,130.3937 699.2126,130.3937 699.2126,92.5984 699.2126,92.5984 737.0079,92.5984 737.0079,92.5984 737.0079,130.3937 737.0079,130.3937 737.0079,168.189 737.0079,168.189 774.8031,168.189 774.8031,168.189 774.8031,130.3937 774.8031,130.3937 774.8031,92.5984"/>
    <polyline points="610.3494,117.1211 605.3494,103.9961 605.3494,103.9961 600.3494,117.1211"/>
    <line x1="602.2244" x2="608.4744" y1="112.7461" y2="112.7461"/>
    <polyline points="640.6447,110.2461 646.2697,110.2461 646.2697,110.2461 648.1447,109.6211 648.1447,109.6211 648.7697,108.9961 648.7697,108.9961 649.3947,107.7461 649.3947,107.7461 649.3947,106.4961 649.3947,106.4961 648.7697,105.2461 648.7697,105.2461 648.1447,104.6211 648.1447,104.6211 646.2697,103.9961 646.2697,103.9961 640.6447,103.9961 640.6447,103.9961 640.6447,117.1211"/>
    <line x1="645.0197" x2="649.3947" y1="110.2461" y2="117.1211"/>
    <line x1="682.815" x2="682.815" y1="103.9961" y2="117.1211"/>
    <polyline points="722.4852,103.9961 722.4852,113.9961 722.4852,113.9961 721.8602,115.8711 721.8602,115.8711 721.2352,116.4961 721.2352,116.4961 719.9852,117.1211 719.9852,117.1211 718.7352,117.1211 718.7352,117.1211 717.4852,116.4961 717.4852,116.4961 716.8602,115.8711 716.8602,115.8711 716.2352,113.9961 716.2352,113.9961 716.2352,112.7461"/>
    <polyline points="762.7805,103.9961 762.7805,117.1211 762.7805,117.1211 754.0305,103.9961 754.0305,103.9961 754.0305,117.1211"/>
    <polygon points="94.4882,130.3937 94.4882,168.189 94.4882,168.189 56.6929,168.189 56.6929,168.189 18.8976,168.189 18.8976,168.189 18.8976,205.9843 18.8976,205.9843 56.6929,205.9843 56.6929,205.9843 94.4882,205.9843 94.4882,205.9843 94.4882,168.189 94.4882,168.189 132.2835,168.189 132.2835,168.189 132.2835,130.3937 132.2835,130.3937"/>
    <polyline points="98.253,133.563 98.878,133.2505 98.878,133.2505 99.8155,132.313 99.8155,132.313 99.8155,138.8755"/>
    <polyline points="104.503,133.563 105.128,133.2505 105.128,133.2505 106.0655,132.313 106.0655,132.313 106.0655,138.8755"/>
    <polyline points="112.1358,141.7913 112.1358,154.9163 112.1358,154.9163 119.6358,154.9163"/>
    <polyline points="170.0787,130.3937 170.0787,168.189 170.0787,168.189 207.874,168.189 207.874,168.189 207.874,130.3937"/>
    <polyline points="195.5389,141.7913 187.4139,141.7913 187.4139,141.7913 187.4139,154.9163"/>
    <line x1="187.4139" x2="192.4139" y1="148.0413" y2="148.0413"/>
    <polyline points="245.6693,130.3937 245.6693,168.189 245.6693,168.189 245.6693,205.9843 245.6693,205.9843 283.4646,205.9843 283.4646,205.9843 283.4646,168.189 283.4646,168.189 283.4646,130.3937"/>
    <polyline points="245.6693,168.189 283.4646,168.189 283.4646,168.189 321.2598,168.189 321.2598,168.189 321.2598,205.9843 321.2598,205.9843 321.2598,243.7795 321.2598,243.7795 359.0551,243.7795 359.0551,243.7795 359.0551,205.9843 359.0551,205.9843 321.2598,205.9843 321.2598,205.9843 283.4646,205.9843 283.4646,205.9843 283.4646,243.7795 283.4646,243.7795 245.6693,243.7795 245.6693,243.7795 245.6693,205.9843"/>
    <polyline points="270.1919,154.9163 265.1919,141.7913 265.1919,141.7913 260.1919,154.9163"/>
    <line x1="262.0669" x2="268.3169" y1="150.5413" y2="150.5413"/>
    <polyline points="345.7825,154.9163 340.7825,141.7913 340.7825,141.7913 335.7825,154.9163"/>
    <line x1="337.6575" x2="343.9075" y1="150.5413" y2="150.5413"/>
    <polyline points="486.9636,141.7913 491.9636,154.9163 491.9636,154.9163 496.9636,141.7913"/>
    <polyline points="610.9744,143.6663 609.7244,142.4163 609.7244,142.4163 607.8494,141.7913 607.8494,141.7913 605.3494,141.7913 605.3494,141.7913 603.4744,142.4163 603.4744,142.4163 602.2244,143.6663 602.2244,143.6663 602.2244,144.9163 602.2244,144.9163 602.8494,146.1663 602.8494,146.1663 603.4744,146.7913 603.4744,146.7913 604.7244,147.4163 604.7244,147.4163 608.4744,148.6663 608.4744,148.6663 609.7244,149.2913 609.7244,149.2913 610.3494,149.9163 610.3494,149.9163 610.9744,151.1663 610.9744,151.1663 610.9744,153.0413 610.9744,153.0413 609.7244,154.2913 609.7244,154.2913 607.8494,154.9163 607.8494,154.9163 605.3494,154.9163 605.3494,154.9163 603.4744,154.2913 603.4744,154.2913 602.2244,153.0413"/>
    <line x1="661.4173" x2="699.2126" y1="168.189" y2="168.189"/>
    <polyline points="686.8775,141.7913 678.7525,141.7913 678.7525,141.7913 678.7525,154.9163 678.7525,154.9163 686.8775,154.9163"/>
    <line x1="678.7525" x2="683.7525" y1="148.0413" y2="148.0413"/>
    <line x1="756.5305" x2="756.5305" y1="141.7913" y2="154.9163"/>
    <line x1="752.1555" x2="760.9055" y1="141.7913" y2="141.7913"/>
    <line x1="56.6929" x2="56.6929" y1="205.9843" y2="168.189"/>
    <polyline points="22.6624,171.3583 23.2874,171.0458 23.2874,171.0458 24.2249,170.1083 24.2249,170.1083 24.2249,176.6708"/>
    <polyline points="28.2874,171.6708 28.2874,171.3583 28.2874,171.3583 28.5999,170.7333 28.5999,170.7333 28.9124,170.4208 28.9124,170.4208 29.5374,170.1083 29.5374,170.1083 30.7874,170.1083 30.7874,170.1083 31.4124,170.4208 31.4124,170.4208 31.7249,170.7333 31.7249,170.7333 32.0374,171.3583 32.0374,171.3583 32.0374,171.9833 32.0374,171.9833 31.7249,172.6083 31.7249,172.6083 31.0999,173.5458 31.0999,173.5458 27.9749,176.6708 27.9749,176.6708 32.3499,176.6708"/>
    <polyline points="44.3578,182.7116 43.7328,181.4616 43.7328,181.4616 42.4828,180.2116 42.4828,180.2116 41.2328,179.5866 41.2328,179.5866 38.7328,179.5866 38.7328,179.5866 37.4828,180.2116 37.4828,180.2116 36.2328,181.4616 36.2328,181.4616 35.6078,182.7116 35.6078,182.7116 34.9828,184.5866 34.9828,184.5866 34.9828,187.7116 34.9828,187.7116 35.6078,189.5866 35.6078,189.5866 36.2328,190.8366 36.2328,190.8366 37.4828,192.0866 37.4828,192.0866 38.7328,192.7116 38.7328,192.7116 41.2328,192.7116 41.2328,192.7116 42.4828,192.0866 42.4828,192.0866 43.7328,190.8366 43.7328,190.8366 44.3578,189.5866 44.3578,189.5866 44.3578,187.7116 44.3578,187.7116 41.2328,187.7116"/>
    <polyline points="73.7156,185.8366 79.3406,185.8366 79.3406,185.8366 81.2156,185.2116 81.2156,185.2116 81.8406,184.5866 81.8406,184.5866 82.4656,183.3366 82.4656,183.3366 82.4656,182.0866 82.4656,182.0866 81.8406,180.8366 81.8406,180.8366 81.2156,180.2116 81.2156,180.2116 79.3406,179.5866 79.3406,179.5866 73.7156,179.5866 73.7156,179.5866 73.7156,192.7116"/>
    <line x1="78.0906" x2="82.4656" y1="185.8366" y2="192.7116"/>
    <polyline points="170.0787,205.9843 170.0787,168.189 170.0787,168.189 132.2835,168.189 132.2835,168.189 132.2835,205.9843 132.2835,205.9843 132.2835,243.7795 132.2835,243.7795 94.4882,243.7795 94.4882,243.7795 94.4882,205.9843 94.4882,205.9843 132.2835,205.9843 132.2835,205.9843 170.0787,205.9843 170.0787,205.9843 207.874,205.9843 207.874,205.9843 207.874,168.189"/>
    <polyline points="119.0108,192.7116 114.0108,179.5866 114.0108,179.5866 109.0108,192.7116"/>
    <line x1="110.8858" x2="117.1358" y1="188.3366" y2="188.3366"/>
    <polyline points="156.8061,192.7116 151.8061,179.5866 151.8061,179.5866 146.8061,192.7116"/>
    <line x1="148.6811" x2="154.9311" y1="188.3366" y2="188.3366"/>
    <line x1="189.6014" x2="189.6014" y1="179.5866" y2="192.7116"/>
    <line x1="185.2264" x2="193.9764" y1="179.5866" y2="179.5866"/>
    <polyline points="249.4341,171.3583 250.0591,171.0458 250.0591,171.0458 250.9966,170.1083 250.9966,170.1083 250.9966,176.6708"/>
    <polyline points="255.3716,170.1083 258.8091,170.1083 258.8091,170.1083 256.9341,172.6083 256.9341,172.6083 257.8716,172.6083 257.8716,172.6083 258.4966,172.9208 258.4966,172.9208 258.8091,173.2333 258.8091,173.2333 259.1216,174.1708 259.1216,174.1708 259.1216,174.7958 259.1216,174.7958 258.8091,175.7333 258.8091,175.7333 258.1841,176.3583 258.1841,176.3583 257.2466,176.6708 257.2466,176.6708 256.3091,176.6708 256.3091,176.6708 255.3716,176.3583 255.3716,176.3583 255.0591,176.0458 255.0591,176.0458 254.7466,175.4208"/>
    <line x1="262.6919" x2="262.6919" y1="179.5866" y2="192.7116"/>
    <line x1="271.4419" x2="262.6919" y1="179.5866" y2="188.3366"/>
    <line x1="265.8169" x2="271.4419" y1="185.2116" y2="192.7116"/>
    <line x1="304.8622" x2="304.8622" y1="179.5866" y2="192.7116"/>
    <polyline points="347.0325,179.5866 347.0325,192.7116 347.0325,192.7116 338.2825,179.5866 338.2825,179.5866 338.2825,192.7116"/>
    <polygon points="376.0778,179.5866 376.0778,192.7116 376.0778,192.7116 380.4528,192.7116 380.4528,192.7116 382.3278,192.0866 382.3278,192.0866 383.5778,190.8366 383.5778,190.8366 384.2028,189.5866 384.2028,189.5866 384.8278,187.7116 384.8278,187.7116 384.8278,184.5866 384.8278,184.5866 384.2028,182.7116 384.2028,182.7116 383.5778,181.4616 383.5778,181.4616 382.3278,180.2116 382.3278,180.2116 380.4528,179.5866 380.4528,179.5866"/>
    <line x1="396.8504" x2="434.6457" y1="205.9843" y2="205.9843"/>
    <polyline points="422.3105,179.5866 414.1855,179.5866 414.1855,179.5866 414.1855,192.7116 414.1855,192.7116 422.3105,192.7116"/>
    <line x1="414.1855" x2="419.1855" y1="185.8366" y2="185.8366"/>
    <polyline points="451.6683,185.8366 457.2933,185.8366 457.2933,185.8366 459.1683,185.2116 459.1683,185.2116 459.7933,184.5866 459.7933,184.5866 460.4183,183.3366 460.4183,183.3366 460.4183,182.0866 460.4183,182.0866 459.7933,180.8366 459.7933,180.8366 459.1683,180.2116 459.1683,180.2116 457.2933,179.5866 457.2933,179.5866 451.6683,179.5866 451.6683,179.5866 451.6683,192.7116"/>
    <line x1="456.0433" x2="460.4183" y1="185.8366" y2="192.7116"/>
    <polyline points="497.9011,179.5866 489.7761,179.5866 489.7761,179.5866 489.7761,192.7116 489.7761,192.7116 497.9011,192.7116"/>
    <line x1="489.7761" x2="494.7761" y1="185.8366" y2="185.8366"/>
    <polyline points="536.0089,179.5866 536.0089,192.7116 536.0089,192.7116 527.2589,179.5866 527.2589,179.5866 527.2589,192.7116"/>
    <line x1="680.94" x2="680.94" y1="179.5866" y2="192.7116"/>
    <line x1="676.565" x2="685.315" y1="179.5866" y2="179.5866"/>
    <polyline points="737.0079,168.189 737.0079,205.9843 737.0079,205.9843 737.0079,243.7795 737.0079,243.7795 774.8031,243.7795 774.8031,243.7795 774.8031,205.9843 774.8031,205.9843 774.8031,168.189"/>
    <line x1="737.0079" x2="774.8031" y1="205.9843" y2="205.9843"/>
    <polyline points="760.2805,179.5866 760.2805,189.5866 760.2805,189.5866 759.6555,191.4616 759.6555,191.4616 759.0305,192.0866 759.0305,192.0866 757.7805,192.7116 757.7805,192.7116 756.5305,192.7116 756.5305,192.7116 755.2805,192.0866 755.2805,192.0866 754.6555,191.4616 754.6555,191.4616 754.0305,189.5866 754.0305,189.5866 754.0305,188.3366"/>
    <polygon points="111.5108,217.3819 111.5108,230.5069 111.5108,230.5069 115.8858,230.5069 115.8858,230.5069 117.7608,229.8819 117.7608,229.8819 119.0108,228.6319 119.0108,228.6319 119.6358,227.3819 119.6358,227.3819 120.2608,225.5069 120.2608,225.5069 120.2608,222.3819 120.2608,222.3819 119.6358,220.5069 119.6358,220.5069 119.0108,219.2569 119.0108,219.2569 117.7608,218.0069 117.7608,218.0069 115.8858,217.3819 115.8858,217.3819"/>
    <polyline points="271.1294,217.3819 263.0044,217.3819 263.0044,217.3819 263.0044,230.5069 263.0044,230.5069 271.1294,230.5069"/>
    <line x1="263.0044" x2="268.0044" y1="223.6319" y2="223.6319"/>
    <polyline points="338.2825,217.3819 338.2825,226.7569 338.2825,226.7569 338.9075,228.6319 338.9075,228.6319 340.1575,229.8819 340.1575,229.8819 342.0325,230.5069 342.0325,230.5069 343.2825,230.5069 343.2825,230.5069 345.1575,229.8819 345.1575,229.8819 346.4075,228.6319 346.4075,228.6319 347.0325,226.7569 347.0325,226.7569 347.0325,217.3819"/>
    <polyline points="489.4636,223.6319 495.0886,223.6319 495.0886,223.6319 496.9636,223.0069 496.9636,223.0069 497.5886,222.3819 497.5886,222.3819 498.2136,221.1319 498.2136,221.1319 498.2136,219.8819 498.2136,219.8819 497.5886,218.6319 497.5886,218.6319 496.9636,218.0069 496.9636,218.0069 495.0886,217.3819 495.0886,217.3819 489.4636,217.3819 489.4636,217.3819 489.4636,230.5069"/>
    <line x1="493.8386" x2="498.2136" y1="223.6319" y2="230.5069"/>
    <polyline points="661.4173,205.9843 661.4173,243.7795 661.4173,243.7795 699.2126,243.7795 699.2126,243.7795 699.2126,205.9843"/>
    <polyline points="684.69,217.3819 684.69,227.3819 684.69,227.3819 684.065,229.2569 684.065,229.2569 683.44,229.8819 683.44,229.8819 682.19,230.5069 682.19,230.5069 680.94,230.5069 680.94,230.5069 679.69,229.8819 679.69,229.8819 679.065,229.2569 679.065,229.2569 678.44,227.3819 678.44,227.3819 678.44,226.1319"/>
    <polyline points="762.468,217.3819 754.343,217.3819 754.343,217.3819 754.343,230.5069 754.343,230.5069 762.468,230.5069"/>
    <line x1="754.343" x2="759.343" y1="223.6319" y2="223.6319"/>
    <polyline points="94.4882,243.7795 94.4882,281.5748 94.4882,281.5748 56.6929,281.5748 56.6929,281.5748 56.6929,319.3701 56.6929,319.3701 94.4882,319.3701 94.4882,319.3701 132.2835,319.3701 132.2835,319.3701 132.2835,281.5748 132.2835,281.5748 132.2835,243.7795"/>
    <polyline points="170.0787,319.3701 132.2835,319.3701 132.2835,319.3701 132.2835,357.1654 132.2835,357.1654 94.4882,357.1654 94.4882,357.1654 94.4882,319.3701 94.4882,319.3701 94.4882,281.5748 94.4882,281.5748 132.2835,281.5748 132.2835,281.5748 170.0787,281.5748 170.0787,281.5748 170.0787,319.3701 170.0787,319.3701 207.874,319.3701 207.874,319.3701 207.874,281.5748 207.874,281.5748 170.0787,281.5748"/>
    <polygon points="111.5108,255.1772 111.5108,268.3022 111.5108,268.3022 115.8858,268.3022 115.8858,268.3022 117.7608,267.6772 117.7608,267.6772 119.0108,266.4272 119.0108,266.4272 119.6358,265.1772 119.6358,265.1772 120.2608,263.3022 120.2608,263.3022 120.2608,260.1772 120.2608,260.1772 119.6358,258.3022 119.6358,258.3022 119.0108,257.0522 119.0108,257.0522 117.7608,255.8022 117.7608,255.8022 115.8858,255.1772 115.8858,255.1772"/>
    <polyline points="245.6693,243.7795 245.6693,281.5748 245.6693,281.5748 283.4646,281.5748 283.4646,281.5748 283.4646,243.7795"/>
    <polyline points="271.4419,255.1772 271.4419,268.3022 271.4419,268.3022 262.6919,255.1772 262.6919,255.1772 262.6919,268.3022"/>
    <polygon points="396.8504,243.7795 396.8504,281.5748 396.8504,281.5748 434.6457,281.5748 434.6457,281.5748 434.6457,243.7795 434.6457,243.7795"/>
    <polyline points="400.6152,246.9488 401.2402,246.6363 401.2402,246.6363 402.1777,245.6988 402.1777,245.6988 402.1777,252.2613"/>
    <polyline points="409.0527,252.2613 409.0527,245.6988 409.0527,245.6988 405.9277,250.0738 405.9277,250.0738 410.6152,250.0738"/>
    <polyline points="413.873,255.1772 413.873,264.5522 413.873,264.5522 414.498,266.4272 414.498,266.4272 415.748,267.6772 415.748,267.6772 417.623,268.3022 417.623,268.3022 418.873,268.3022 418.873,268.3022 420.748,267.6772 420.748,267.6772 421.998,266.4272 421.998,266.4272 422.623,264.5522 422.623,264.5522 422.623,255.1772"/>
    <polyline points="434.6457,281.5748 472.4409,281.5748 472.4409,281.5748 510.2362,281.5748 510.2362,281.5748 548.0315,281.5748 548.0315,281.5748 585.8268,281.5748 585.8268,281.5748 585.8268,243.7795 585.8268,243.7795 548.0315,243.7795 548.0315,243.7795 510.2362,243.7795 510.2362,243.7795 510.2362,281.5748 510.2362,281.5748 510.2362,319.3701 510.2362,319.3701 510.2362,357.1654 510.2362,357.1654 548.0315,357.1654 548.0315,357.1654 548.0315,319.3701 548.0315,319.3701 510.2362,319.3701 510.2362,319.3701 472.4409,319.3701 472.4409,319.3701 434.6457,319.3701 434.6457,319.3701 396.8504,319.3701 396.8504,319.3701 359.0551,319.3701 359.0551,319.3701 321.2598,319.3701 321.2598,319.3701 321.2598,357.1654 321.2598,357.1654 359.0551,357.1654 359.0551,357.1654 396.8504,357.1654 396.8504,357.1654 396.8504,319.3701"/>
    <polyline points="510.2362,357.1654 472.4409,357.1654 472.4409,357.1654 472.4409,319.3701 472.4409,319.3701 472.4409,281.5748 472.4409,281.5748 472.4409,243.7795 472.4409,243.7795 434.6457,243.7795"/>
    <line x1="456.0433" x2="456.0433" y1="255.1772" y2="268.3022"/>
    <line x1="491.9636" x2="491.9636" y1="255.1772" y2="268.3022"/>
    <line x1="487.5886" x2="496.3386" y1="255.1772" y2="255.1772"/>
    <line x1="548.0315" x2="548.0315" y1="281.5748" y2="243.7795"/>
    <polyline points="527.8839,255.1772 527.8839,268.3022 527.8839,268.3022 535.3839,268.3022"/>
    <line x1="569.4291" x2="569.4291" y1="255.1772" y2="268.3022"/>
    <polyline points="585.8268,281.5748 623.622,281.5748 623.622,281.5748 661.4173,281.5748 661.4173,281.5748 699.2126,281.5748 699.2126,281.5748 699.2126,243.7795 699.2126,243.7795 737.0079,243.7795 737.0079,243.7795 737.0079,281.5748 737.0079,281.5748 699.2126,281.5748 699.2126,281.5748 699.2126,319.3701 699.2126,319.3701 661.4173,319.3701 661.4173,319.3701 623.622,319.3701 623.622,319.3701 585.8268,319.3701 585.8268,319.3701 548.0315,319.3701"/>
    <polyline points="623.622,281.5748 623.622,243.7795 623.622,243.7795 585.8268,243.7795"/>
    <line x1="602.8494" x2="602.8494" y1="255.1772" y2="268.3022"/>
    <line x1="611.5994" x2="602.8494" y1="255.1772" y2="263.9272"/>
    <line x1="605.9744" x2="611.5994" y1="260.8022" y2="268.3022"/>
    <polyline points="623.622,319.3701 623.622,357.1654 623.622,357.1654 661.4173,357.1654 661.4173,357.1654 661.4173,319.3701 661.4173,319.3701 661.4173,281.5748 661.4173,281.5748 661.4173,243.7795 661.4173,243.7795 623.622,243.7795"/>
    <line x1="640.6447" x2="640.6447" y1="255.1772" y2="268.3022"/>
    <line x1="649.3947" x2="640.6447" y1="255.1772" y2="263.9272"/>
    <line x1="643.7697" x2="649.3947" y1="260.8022" y2="268.3022"/>
    <polyline points="686.8775,255.1772 678.7525,255.1772 678.7525,255.1772 678.7525,268.3022 678.7525,268.3022 686.8775,268.3022"/>
    <line x1="678.7525" x2="683.7525" y1="261.4272" y2="261.4272"/>
    <polyline points="724.9852,255.1772 724.9852,268.3022 724.9852,268.3022 716.2352,255.1772 716.2352,255.1772 716.2352,268.3022"/>
    <polyline points="60.4577,284.7441 61.0827,284.4316 61.0827,284.4316 62.0202,283.4941 62.0202,283.4941 62.0202,290.0566"/>
    <polyline points="69.5202,283.4941 66.3952,283.4941 66.3952,283.4941 66.0827,286.3066 66.0827,286.3066 66.3952,285.9941 66.3952,285.9941 67.3327,285.6816 67.3327,285.6816 68.2702,285.6816 68.2702,285.6816 69.2077,285.9941 69.2077,285.9941 69.8327,286.6191 69.8327,286.6191 70.1452,287.5566 70.1452,287.5566 70.1452,288.1816 70.1452,288.1816 69.8327,289.1191 69.8327,289.1191 69.2077,289.7441 69.2077,289.7441 68.2702,290.0566 68.2702,290.0566 67.3327,290.0566 67.3327,290.0566 66.3952,289.7441 66.3952,289.7441 66.0827,289.4316 66.0827,289.4316 65.7702,288.8066"/>
    <line x1="76.2156" x2="76.2156" y1="292.9724" y2="306.0974"/>
    <line x1="71.8406" x2="80.5906" y1="292.9724" y2="292.9724"/>
    <polyline points="119.9483,292.9724 111.8233,292.9724 111.8233,292.9724 111.8233,306.0974 111.8233,306.0974 119.9483,306.0974"/>
    <line x1="111.8233" x2="116.8233" y1="299.2224" y2="299.2224"/>
    <polyline points="149.3061,299.2224 154.9311,299.2224 154.9311,299.2224 156.8061,298.5974 156.8061,298.5974 157.4311,297.9724 157.4311,297.9724 158.0561,296.7224 158.0561,296.7224 158.0561,295.4724 158.0561,295.4724 157.4311,294.2224 157.4311,294.2224 156.8061,293.5974 156.8061,293.5974 154.9311,292.9724 154.9311,292.9724 149.3061,292.9724 149.3061,292.9724 149.3061,306.0974"/>
    <line x1="153.6811" x2="158.0561" y1="299.2224" y2="306.0974"/>
    <polyline points="187.1014,299.2224 192.7264,299.2224 192.7264,299.2224 194.6014,298.5974 194.6014,298.5974 195.2264,297.9724 195.2264,297.9724 195.8514,296.7224 195.8514,296.7224 195.8514,295.4724 195.8514,295.4724 195.2264,294.2224 195.2264,294.2224 194.6014,293.5974 194.6014,293.5974 192.7264,292.9724 192.7264,292.9724 187.1014,292.9724 187.1014,292.9724 187.1014,306.0974"/>
    <line x1="191.4764" x2="195.8514" y1="299.2224" y2="306.0974"/>
    <polyline points="207.874,319.3701 245.6693,319.3701 245.6693,319.3701 245.6693,281.5748 245.6693,281.5748 207.874,281.5748"/>
    <polyline points="232.3967,306.0974 227.3967,292.9724 227.3967,292.9724 222.3967,306.0974"/>
    <line x1="224.2717" x2="230.5217" y1="301.7224" y2="301.7224"/>
    <polyline points="245.6693,319.3701 283.4646,319.3701 283.4646,319.3701 283.4646,281.5748"/>
    <polyline points="270.8169,294.8474 269.5669,293.5974 269.5669,293.5974 267.6919,292.9724 267.6919,292.9724 265.1919,292.9724 265.1919,292.9724 263.3169,293.5974 263.3169,293.5974 262.0669,294.8474 262.0669,294.8474 262.0669,296.0974 262.0669,296.0974 262.6919,297.3474 262.6919,297.3474 263.3169,297.9724 263.3169,297.9724 264.5669,298.5974 264.5669,298.5974 268.3169,299.8474 268.3169,299.8474 269.5669,300.4724 269.5669,300.4724 270.1919,301.0974 270.1919,301.0974 270.8169,302.3474 270.8169,302.3474 270.8169,304.2224 270.8169,304.2224 269.5669,305.4724 269.5669,305.4724 267.6919,306.0974 267.6919,306.0974 265.1919,306.0974 265.1919,306.0974 263.3169,305.4724 263.3169,305.4724 262.0669,304.2224"/>
    <polyline points="495.7136,292.9724 495.7136,302.9724 495.7136,302.9724 495.0886,304.8474 495.0886,304.8474 494.4636,305.4724 494.4636,305.4724 493.2136,306.0974 493.2136,306.0974 491.9636,306.0974 491.9636,306.0974 490.7136,305.4724 490.7136,305.4724 490.0886,304.8474 490.0886,304.8474 489.4636,302.9724 489.4636,302.9724 489.4636,301.7224"/>
    <polyline points="686.565,294.8474 685.315,293.5974 685.315,293.5974 683.44,292.9724 683.44,292.9724 680.94,292.9724 680.94,292.9724 679.065,293.5974 679.065,293.5974 677.815,294.8474 677.815,294.8474 677.815,296.0974 677.815,296.0974 678.44,297.3474 678.44,297.3474 679.065,297.9724 679.065,297.9724 680.315,298.5974 680.315,298.5974 684.065,299.8474 684.065,299.8474 685.315,300.4724 685.315,300.4724 685.94,301.0974 685.94,301.0974 686.565,302.3474 686.565,302.3474 686.565,304.2224 686.565,304.2224 685.315,305.4724 685.315,305.4724 683.44,306.0974 683.44,306.0974 680.94,306.0974 680.94,306.0974 679.065,305.4724 679.065,305.4724 677.815,304.2224"/>
    <polyline points="111.5108,337.0177 117.1358,337.0177 117.1358,337.0177 119.0108,336.3927 119.0108,336.3927 119.6358,335.7677 119.6358,335.7677 120.2608,334.5177 120.2608,334.5177 120.2608,333.2677 120.2608,333.2677 119.6358,332.0177 119.6358,332.0177 119.0108,331.3927 119.0108,331.3927 117.1358,330.7677 117.1358,330.7677 111.5108,330.7677 111.5108,330.7677 111.5108,343.8927"/>
    <line x1="115.8858" x2="120.2608" y1="337.0177" y2="343.8927"/>
    <line x1="359.0551" x2="359.0551" y1="357.1654" y2="319.3701"/>
    <polyline points="325.0246,322.5394 325.6496,322.2269 325.6496,322.2269 326.5871,321.2894 326.5871,321.2894 326.5871,327.8519"/>
    <polyline points="334.3996,322.2269 334.0871,321.6019 334.0871,321.6019 333.1496,321.2894 333.1496,321.2894 332.5246,321.2894 332.5246,321.2894 331.5871,321.6019 331.5871,321.6019 330.9621,322.5394 330.9621,322.5394 330.6496,324.1019 330.6496,324.1019 330.6496,325.6644 330.6496,325.6644 330.9621,326.9144 330.9621,326.9144 331.5871,327.5394 331.5871,327.5394 332.5246,327.8519 332.5246,327.8519 332.8371,327.8519 332.8371,327.8519 333.7746,327.5394 333.7746,327.5394 334.3996,326.9144 334.3996,326.9144 334.7121,325.9769 334.7121,325.9769 334.7121,325.6644 334.7121,325.6644 334.3996,324.7269 334.3996,324.7269 333.7746,324.1019 333.7746,324.1019 332.8371,323.7894 332.8371,323.7894 332.5246,323.7894 332.5246,323.7894 331.5871,324.1019 331.5871,324.1019 330.9621,324.7269 330.9621,324.7269 330.6496,325.6644"/>
    <polyline points="338.2825,337.0177 343.9075,337.0177 343.9075,337.0177 345.7825,336.3927 345.7825,336.3927 346.4075,335.7677 346.4075,335.7677 347.0325,334.5177 347.0325,334.5177 347.0325,333.2677 347.0325,333.2677 346.4075,332.0177 346.4075,332.0177 345.7825,331.3927 345.7825,331.3927 343.9075,330.7677 343.9075,330.7677 338.2825,330.7677 338.2825,330.7677 338.2825,343.8927"/>
    <line x1="342.6575" x2="347.0325" y1="337.0177" y2="343.8927"/>
    <polyline points="384.5153,330.7677 376.3903,330.7677 376.3903,330.7677 376.3903,343.8927 376.3903,343.8927 384.5153,343.8927"/>
    <line x1="376.3903" x2="381.3903" y1="337.0177" y2="337.0177"/>
    <polyline points="396.8504,357.1654 434.6457,357.1654 434.6457,357.1654 434.6457,319.3701"/>
    <line x1="413.873" x2="413.873" y1="330.7677" y2="343.8927"/>
    <line x1="422.623" x2="413.873" y1="330.7677" y2="339.5177"/>
    <line x1="416.998" x2="422.623" y1="336.3927" y2="343.8927"/>
    <line x1="434.6457" x2="472.4409" y1="357.1654" y2="357.1654"/>
    <line x1="451.6683" x2="451.6683" y1="330.7677" y2="343.8927"/>
    <line x1="460.4183" x2="451.6683" y1="330.7677" y2="339.5177"/>
    <line x1="454.7933" x2="460.4183" y1="336.3927" y2="343.8927"/>
    <polyline points="497.9011,330.7677 489.7761,330.7677 489.7761,330.7677 489.7761,343.8927 489.7761,343.8927 497.9011,343.8927"/>
    <line x1="489.7761" x2="494.7761" y1="337.0177" y2="337.0177"/>
    <polyline points="527.2589,337.0177 532.8839,337.0177 532.8839,337.0177 534.7589,336.3927 534.7589,336.3927 535.3839,335.7677 535.3839,335.7677 536.0089,334.5177 536.0089,334.5177 536.0089,333.2677 536.0089,333.2677 535.3839,332.0177 535.3839,332.0177 534.7589,331.3927 534.7589,331.3927 532.8839,330.7677 532.8839,330.7677 527.2589,330.7677 527.2589,330.7677 527.2589,343.8927"/>
    <line x1="531.6339" x2="536.0089" y1="337.0177" y2="343.8927"/>
    <polyline points="548.0315,357.1654 585.8268,357.1654 585.8268,357.1654 585.8268,319.3701"/>
    <line x1="567.5541" x2="567.5541" y1="330.7677" y2="343.8927"/>
    <line x1="563.1791" x2="571.9291" y1="330.7677" y2="330.7677"/>
    <line x1="585.8268" x2="623.622" y1="357.1654" y2="357.1654"/>
    <polyline points="609.0994,330.7677 609.0994,340.7677 609.0994,340.7677 608.4744,342.6427 608.4744,342.6427 607.8494,343.2677 607.8494,343.2677 606.5994,343.8927 606.5994,343.8927 605.3494,343.8927 605.3494,343.8927 604.0994,343.2677 604.0994,343.2677 603.4744,342.6427 603.4744,342.6427 602.8494,340.7677 602.8494,340.7677 602.8494,339.5177"/>
    <polyline points="649.0822,330.7677 640.9572,330.7677 640.9572,330.7677 640.9572,343.8927 640.9572,343.8927 649.0822,343.8927"/>
    <line x1="640.9572" x2="645.9572" y1="337.0177" y2="337.0177"/>
  </g>
</svg>
