<?xml version="1.0" encoding="utf-8" ?>
<svg xmlns="http://www.w3.org/2000/svg" xmlns:cc="http://creativecommons.org/ns" xmlns:dc="http://purl.org/dc/elements/1.1/" xmlns:ev="http://www.w3.org/2001/xml-events" xmlns:inkscape="http://www.inkscape.org/namespaces/inkscape" xmlns:rdf="http://www.w3.org/1999/02/22-rdf-syntax-ns" xmlns:sodipodi="http://sodipodi.sourceforge.net/DTD/sodipodi-0.dtd" xmlns:xlink="http://www.w3.org/1999/xlink" baseProfile="tiny" height="9.0cm" version="1.2" viewBox="0 0 793.7007874015749 340.15748031496065" width="21.0cm">
  <metadata>
    <rdf:RDF>
      <cc:Work>
        <dc:format>image/svg+xml</dc:format>
        <dc:source>vpype eval 'cell=10;width=210;height=99' eval 'nCols=21;nRows=9' eval 'cells=[0,1,2,3,6,8,9,10,11,12,13,14,15,18,22,24,26,31,38,40,41,42,43,44,45,46,47,50,51,52,53,54,55,56,57,58,62,64,66,71,77,82,84,87,88,89,90,91,92,94,95,96,97,98,99,102,104,111,117,120,121,122,123,124,125,126,127,129,130,131,132,133,134,135,136,137,144,151,157,163,164,165,166,167,168,169,170,171,173,174,175,176,177,178]' eval 'chars=[&quot;L&quot;,&quot;I&quot;,&quot;F&quot;,&quot;T&quot;,&quot;G&quot;,&quot;P&quot;,&quot;A&quot;,&quot;R&quot;,&quot;K&quot;,&quot;E&quot;,&quot;R&quot;,&quot;E&quot;,&quot;N&quot;,&quot;Z&quot;,&quot;L&quot;,&quot;S&quot;,&quot;R&quot;,&quot;L&quot;,&quot;O&quot;,&quot;B&quot;,&quot;R&quot;,&quot;O&quot;,&quot;E&quot;,&quot;K&quot;,&quot;Z&quot;,&quot;A&quot;,&quot;K&quot;,&quot;M&quot;,&quot;A&quot;,&quot;N&quot;,&quot;D&quot;,&quot;A&quot;,&quot;R&quot;,&quot;I&quot;,&quot;J&quot;,&quot;N&quot;,&quot;R&quot;,&quot;E&quot;,&quot;S&quot;,&quot;V&quot;,&quot;O&quot;,&quot;I&quot;,&quot;L&quot;,&quot;J&quot;,&quot;E&quot;,&quot;R&quot;,&quot;O&quot;,&quot;E&quot;,&quot;N&quot;,&quot;I&quot;,&quot;S&quot;,&quot;O&quot;,&quot;L&quot;,&quot;D&quot;,&quot;E&quot;,&quot;A&quot;,&quot;L&quot;,&quot;R&quot;,&quot;E&quot;,&quot;K&quot;,&quot;I&quot;,&quot;N&quot;,&quot;D&quot;,&quot;E&quot;,&quot;R&quot;,&quot;E&quot;,&quot;N&quot;,&quot;U&quot;,&quot;I&quot;,&quot;T&quot;,&quot;L&quot;,&quot;I&quot;,&quot;K&quot;,&quot;K&quot;,&quot;E&quot;,&quot;N&quot;,&quot;K&quot;,&quot;J&quot;,&quot;T&quot;,&quot;R&quot;,&quot;E&quot;,&quot;K&quot;,&quot;K&quot;,&quot;E&quot;,&quot;R&quot;,&quot;T&quot;,&quot;J&quot;,&quot;E&quot;,&quot;K&quot;,&quot;I&quot;,&quot;E&quot;,&quot;M&quot;,&quot;E&quot;,&quot;N&quot;]' eval 'numbers=[0,2,6,8,11,18,24,40,50,57,87,94,120,129,163,173]' eval counter=1 eval charIndex=0 begin grid -o '%cell*mm%' '%cell*mm%' %nCols% %nRows% eval '%isCell=_i in cells%' eval '%number=_i in numbers%' eval '%size=10 if isCell else 0%' rect 0 0 '%size*mm%' '%size*mm%' text -s 8 -p 0.5mm 1.5mm '%counter if number else '&quot;'&quot;''&quot;'&quot;'%' text -s 20 -p 5mm 5mm -a center '%chars[charIndex] if isCell else '&quot;'&quot;''&quot;'&quot;'%' eval '%if number: counter+=1 %' eval '%if isCell: charIndex+=1 %' end write ./svgs/solution/f6257a.svg
</dc:source>
        <dc:date>2023-12-20T21:39:18.383940</dc:date>
      </cc:Work>
    </rdf:RDF>
  </metadata>
  <defs/>
  <g fill="none" id="layer1" inkscape:groupmode="layer" inkscape:label="1" stroke="#0000ff" style="display:inline">
    <polygon points="0.0,0.0 0.0,37.7953 37.7953,37.7953 37.7953,0.0"/>
    <polyline points="3.3898,3.6693 3.8898,3.4193 4.6398,2.6693 4.6398,7.9193"/>
    <line x1="17.6476" x2="17.6476" y1="11.3976" y2="24.5226"/>
    <line x1="17.6476" x2="25.1476" y1="24.5226" y2="24.5226"/>
    <polygon points="37.7953,0.0 37.7953,37.7953 75.5906,37.7953 75.5906,0.0"/>
    <line x1="59.1929" x2="59.1929" y1="11.3976" y2="24.5226"/>
    <polygon points="75.5906,0.0 75.5906,37.7953 113.3858,37.7953 113.3858,0.0"/>
    <polyline points="78.4803,3.9193 78.4803,3.6693 78.7303,3.1693 78.9803,2.9193 79.4803,2.6693 80.4803,2.6693 80.9803,2.9193 81.2303,3.1693 81.4803,3.6693 81.4803,4.1693 81.2303,4.6693 80.7303,5.4193 78.2303,7.9193 81.7303,7.9193"/>
    <line x1="92.9257" x2="92.9257" y1="11.3976" y2="24.5226"/>
    <line x1="92.9257" x2="101.0507" y1="11.3976" y2="11.3976"/>
    <line x1="92.9257" x2="97.9257" y1="17.6476" y2="17.6476"/>
    <polygon points="113.3858,0.0 113.3858,37.7953 151.1811,37.7953 151.1811,0.0"/>
    <line x1="132.9085" x2="132.9085" y1="11.3976" y2="24.5226"/>
    <line x1="128.5335" x2="137.2835" y1="11.3976" y2="11.3976"/>
    <polygon points="151.1811,0.0 151.1811,0.0 151.1811,0.0 151.1811,0.0"/>
    <polygon points="188.9764,0.0 188.9764,0.0 188.9764,0.0 188.9764,0.0"/>
    <polygon points="226.7717,0.0 226.7717,37.7953 264.5669,37.7953 264.5669,0.0"/>
    <polyline points="229.9114,2.6693 232.6614,2.6693 231.1614,4.6693 231.9114,4.6693 232.4114,4.9193 232.6614,5.1693 232.9114,5.9193 232.9114,6.4193 232.6614,7.1693 232.1614,7.6693 231.4114,7.9193 230.6614,7.9193 229.9114,7.6693 229.6614,7.4193 229.4114,6.9193"/>
    <polyline points="252.2318,14.5226 251.6068,13.2726 250.3568,12.0226 249.1068,11.3976 246.6068,11.3976 245.3568,12.0226 244.1068,13.2726 243.4818,14.5226 242.8568,16.3976 242.8568,19.5226 243.4818,21.3976 244.1068,22.6476 245.3568,23.8976 246.6068,24.5226 249.1068,24.5226 250.3568,23.8976 251.6068,22.6476 252.2318,21.3976 252.2318,19.5226"/>
    <line x1="249.1068" x2="252.2318" y1="19.5226" y2="19.5226"/>
    <polygon points="264.5669,0.0 264.5669,0.0 264.5669,0.0 264.5669,0.0"/>
    <polygon points="302.3622,0.0 302.3622,37.7953 340.1575,37.7953 340.1575,0.0"/>
    <polyline points="307.502,2.6693 305.002,6.1693 308.752,6.1693"/>
    <line x1="307.502" x2="307.502" y1="2.6693" y2="7.9193"/>
    <line x1="319.3848" x2="319.3848" y1="11.3976" y2="24.5226"/>
    <polyline points="319.3848,11.3976 325.0098,11.3976 326.8848,12.0226 327.5098,12.6476 328.1348,13.8976 328.1348,15.7726 327.5098,17.0226 326.8848,17.6476 325.0098,18.2726 319.3848,18.2726"/>
    <polygon points="340.1575,0.0 340.1575,37.7953 377.9528,37.7953 377.9528,0.0"/>
    <line x1="359.6801" x2="354.6801" y1="11.3976" y2="24.5226"/>
    <line x1="359.6801" x2="364.6801" y1="11.3976" y2="24.5226"/>
    <line x1="356.5551" x2="362.8051" y1="20.1476" y2="20.1476"/>
    <polygon points="377.9528,0.0 377.9528,37.7953 415.748,37.7953 415.748,0.0"/>
    <line x1="394.9754" x2="394.9754" y1="11.3976" y2="24.5226"/>
    <polyline points="394.9754,11.3976 400.6004,11.3976 402.4754,12.0226 403.1004,12.6476 403.7254,13.8976 403.7254,15.1476 403.1004,16.3976 402.4754,17.0226 400.6004,17.6476 394.9754,17.6476"/>
    <line x1="399.3504" x2="403.7254" y1="17.6476" y2="24.5226"/>
    <polygon points="415.748,0.0 415.748,37.7953 453.5433,37.7953 453.5433,0.0"/>
    <polyline points="421.3878,2.6693 418.8878,2.6693 418.6378,4.9193 418.8878,4.6693 419.6378,4.4193 420.3878,4.4193 421.1378,4.6693 421.6378,5.1693 421.8878,5.9193 421.8878,6.4193 421.6378,7.1693 421.1378,7.6693 420.3878,7.9193 419.6378,7.9193 418.8878,7.6693 418.6378,7.4193 418.3878,6.9193"/>
    <line x1="432.7707" x2="432.7707" y1="11.3976" y2="24.5226"/>
    <line x1="441.5207" x2="432.7707" y1="11.3976" y2="20.1476"/>
    <line x1="435.8957" x2="441.5207" y1="17.0226" y2="24.5226"/>
    <polygon points="453.5433,0.0 453.5433,37.7953 491.3386,37.7953 491.3386,0.0"/>
    <line x1="470.8784" x2="470.8784" y1="11.3976" y2="24.5226"/>
    <line x1="470.8784" x2="479.0034" y1="11.3976" y2="11.3976"/>
    <line x1="470.8784" x2="475.8784" y1="17.6476" y2="17.6476"/>
    <line x1="470.8784" x2="479.0034" y1="24.5226" y2="24.5226"/>
    <polygon points="491.3386,0.0 491.3386,37.7953 529.1339,37.7953 529.1339,0.0"/>
    <line x1="508.3612" x2="508.3612" y1="11.3976" y2="24.5226"/>
    <polyline points="508.3612,11.3976 513.9862,11.3976 515.8612,12.0226 516.4862,12.6476 517.1112,13.8976 517.1112,15.1476 516.4862,16.3976 515.8612,17.0226 513.9862,17.6476 508.3612,17.6476"/>
    <line x1="512.7362" x2="517.1112" y1="17.6476" y2="24.5226"/>
    <polygon points="529.1339,0.0 529.1339,37.7953 566.9291,37.7953 566.9291,0.0"/>
    <line x1="546.469" x2="546.469" y1="11.3976" y2="24.5226"/>
    <line x1="546.469" x2="554.594" y1="11.3976" y2="11.3976"/>
    <line x1="546.469" x2="551.469" y1="17.6476" y2="17.6476"/>
    <line x1="546.469" x2="554.594" y1="24.5226" y2="24.5226"/>
    <polygon points="566.9291,0.0 566.9291,37.7953 604.7244,37.7953 604.7244,0.0"/>
    <line x1="583.9518" x2="583.9518" y1="11.3976" y2="24.5226"/>
    <line x1="583.9518" x2="592.7018" y1="11.3976" y2="24.5226"/>
    <line x1="592.7018" x2="592.7018" y1="11.3976" y2="24.5226"/>
    <polygon points="604.7244,0.0 604.7244,0.0 604.7244,0.0 604.7244,0.0"/>
    <polygon points="642.5197,0.0 642.5197,0.0 642.5197,0.0 642.5197,0.0"/>
    <polygon points="680.315,0.0 680.315,37.7953 718.1102,37.7953 718.1102,0.0"/>
    <polyline points="686.2047,3.4193 685.9547,2.9193 685.2047,2.6693 684.7047,2.6693 683.9547,2.9193 683.4547,3.6693 683.2047,4.9193 683.2047,6.1693 683.4547,7.1693 683.9547,7.6693 684.7047,7.9193 684.9547,7.9193 685.7047,7.6693 686.2047,7.1693 686.4547,6.4193 686.4547,6.1693 686.2047,5.4193 685.7047,4.9193 684.9547,4.6693 684.7047,4.6693 683.9547,4.9193 683.4547,5.4193 683.2047,6.1693"/>
    <line x1="705.4626" x2="696.7126" y1="11.3976" y2="24.5226"/>
    <line x1="696.7126" x2="705.4626" y1="11.3976" y2="11.3976"/>
    <line x1="696.7126" x2="705.4626" y1="24.5226" y2="24.5226"/>
    <polygon points="718.1102,0.0 718.1102,0.0 718.1102,0.0 718.1102,0.0"/>
    <polygon points="755.9055,0.0 755.9055,0.0 755.9055,0.0 755.9055,0.0"/>
    <polygon points="0.0,37.7953 0.0,37.7953 0.0,37.7953 0.0,37.7953"/>
    <polygon points="37.7953,37.7953 37.7953,75.5906 75.5906,75.5906 75.5906,37.7953"/>
    <line x1="55.4429" x2="55.4429" y1="49.1929" y2="62.3179"/>
    <line x1="55.4429" x2="62.9429" y1="62.3179" y2="62.3179"/>
    <polygon points="75.5906,37.7953 75.5906,37.7953 75.5906,37.7953 75.5906,37.7953"/>
    <polygon points="113.3858,37.7953 113.3858,75.5906 151.1811,75.5906 151.1811,37.7953"/>
    <line x1="119.5256" x2="117.0256" y1="40.4646" y2="45.7146"/>
    <line x1="116.0256" x2="119.5256" y1="40.4646" y2="40.4646"/>
    <polyline points="138.5335,51.0679 137.2835,49.8179 135.4085,49.1929 132.9085,49.1929 131.0335,49.8179 129.7835,51.0679 129.7835,52.3179 130.4085,53.5679 131.0335,54.1929 132.2835,54.8179 136.0335,56.0679 137.2835,56.6929 137.9085,57.3179 138.5335,58.5679 138.5335,60.4429 137.2835,61.6929 135.4085,62.3179 132.9085,62.3179 131.0335,61.6929 129.7835,60.4429"/>
    <polygon points="151.1811,37.7953 151.1811,37.7953 151.1811,37.7953 151.1811,37.7953"/>
    <polygon points="188.9764,37.7953 188.9764,75.5906 226.7717,75.5906 226.7717,37.7953"/>
    <line x1="205.999" x2="205.999" y1="49.1929" y2="62.3179"/>
    <polyline points="205.999,49.1929 211.624,49.1929 213.499,49.8179 214.124,50.4429 214.749,51.6929 214.749,52.9429 214.124,54.1929 213.499,54.8179 211.624,55.4429 205.999,55.4429"/>
    <line x1="210.374" x2="214.749" y1="55.4429" y2="62.3179"/>
    <polygon points="226.7717,37.7953 226.7717,37.7953 226.7717,37.7953 226.7717,37.7953"/>
    <polygon points="264.5669,37.7953 264.5669,37.7953 264.5669,37.7953 264.5669,37.7953"/>
    <polygon points="302.3622,37.7953 302.3622,37.7953 302.3622,37.7953 302.3622,37.7953"/>
    <polygon points="340.1575,37.7953 340.1575,37.7953 340.1575,37.7953 340.1575,37.7953"/>
    <polygon points="377.9528,37.7953 377.9528,75.5906 415.748,75.5906 415.748,37.7953"/>
    <line x1="395.6004" x2="395.6004" y1="49.1929" y2="62.3179"/>
    <line x1="395.6004" x2="403.1004" y1="62.3179" y2="62.3179"/>
    <polygon points="415.748,37.7953 415.748,37.7953 415.748,37.7953 415.748,37.7953"/>
    <polygon points="453.5433,37.7953 453.5433,37.7953 453.5433,37.7953 453.5433,37.7953"/>
    <polygon points="491.3386,37.7953 491.3386,37.7953 491.3386,37.7953 491.3386,37.7953"/>
    <polygon points="529.1339,37.7953 529.1339,37.7953 529.1339,37.7953 529.1339,37.7953"/>
    <polygon points="566.9291,37.7953 566.9291,37.7953 566.9291,37.7953 566.9291,37.7953"/>
    <polygon points="604.7244,37.7953 604.7244,37.7953 604.7244,37.7953 604.7244,37.7953"/>
    <polygon points="642.5197,37.7953 642.5197,75.5906 680.315,75.5906 680.315,37.7953"/>
    <polygon points="662.0423,49.1929 660.7923,49.8179 659.5423,51.0679 658.9173,52.3179 658.2923,54.1929 658.2923,57.3179 658.9173,59.1929 659.5423,60.4429 660.7923,61.6929 662.0423,62.3179 664.5423,62.3179 665.7923,61.6929 667.0423,60.4429 667.6673,59.1929 668.2923,57.3179 668.2923,54.1929 667.6673,52.3179 667.0423,51.0679 665.7923,49.8179 664.5423,49.1929"/>
    <polygon points="680.315,37.7953 680.315,37.7953 680.315,37.7953 680.315,37.7953"/>
    <polygon points="718.1102,37.7953 718.1102,75.5906 755.9055,75.5906 755.9055,37.7953"/>
    <polygon points="722.0,40.4646 721.25,40.7146 721.0,41.2146 721.0,41.7146 721.25,42.2146 721.75,42.4646 722.75,42.7146 723.5,42.9646 724.0,43.4646 724.25,43.9646 724.25,44.7146 724.0,45.2146 723.75,45.4646 723.0,45.7146 722.0,45.7146 721.25,45.4646 721.0,45.2146 720.75,44.7146 720.75,43.9646 721.0,43.4646 721.5,42.9646 722.25,42.7146 723.25,42.4646 723.75,42.2146 724.0,41.7146 724.0,41.2146 723.75,40.7146 723.0,40.4646"/>
    <line x1="735.1329" x2="735.1329" y1="49.1929" y2="62.3179"/>
    <polyline points="735.1329,49.1929 740.7579,49.1929 742.6329,49.8179 743.2579,50.4429 743.8829,51.6929 743.8829,52.9429 743.2579,54.1929 742.6329,54.8179 740.7579,55.4429"/>
    <polyline points="735.1329,55.4429 740.7579,55.4429 742.6329,56.0679 743.2579,56.6929 743.8829,57.9429 743.8829,59.8179 743.2579,61.0679 742.6329,61.6929 740.7579,62.3179 735.1329,62.3179"/>
    <polygon points="755.9055,37.7953 755.9055,75.5906 793.7008,75.5906 793.7008,37.7953"/>
    <line x1="772.9281" x2="772.9281" y1="49.1929" y2="62.3179"/>
    <polyline points="772.9281,49.1929 778.5531,49.1929 780.4281,49.8179 781.0531,50.4429 781.6781,51.6929 781.6781,52.9429 781.0531,54.1929 780.4281,54.8179 778.5531,55.4429 772.9281,55.4429"/>
    <line x1="777.3031" x2="781.6781" y1="55.4429" y2="62.3179"/>
    <polygon points="0.0,75.5906 0.0,113.3858 37.7953,113.3858 37.7953,75.5906"/>
    <polygon points="19.5226,86.9882 18.2726,87.6132 17.0226,88.8632 16.3976,90.1132 15.7726,91.9882 15.7726,95.1132 16.3976,96.9882 17.0226,98.2382 18.2726,99.4882 19.5226,100.1132 22.0226,100.1132 23.2726,99.4882 24.5226,98.2382 25.1476,96.9882 25.7726,95.1132 25.7726,91.9882 25.1476,90.1132 24.5226,88.8632 23.2726,87.6132 22.0226,86.9882"/>
    <polygon points="37.7953,75.5906 37.7953,113.3858 75.5906,113.3858 75.5906,75.5906"/>
    <line x1="55.1304" x2="55.1304" y1="86.9882" y2="100.1132"/>
    <line x1="55.1304" x2="63.2554" y1="86.9882" y2="86.9882"/>
    <line x1="55.1304" x2="60.1304" y1="93.2382" y2="93.2382"/>
    <line x1="55.1304" x2="63.2554" y1="100.1132" y2="100.1132"/>
    <polygon points="75.5906,75.5906 75.5906,113.3858 113.3858,113.3858 113.3858,75.5906"/>
    <line x1="92.6132" x2="92.6132" y1="86.9882" y2="100.1132"/>
    <line x1="101.3632" x2="92.6132" y1="86.9882" y2="95.7382"/>
    <line x1="95.7382" x2="101.3632" y1="92.6132" y2="100.1132"/>
    <polygon points="113.3858,75.5906 113.3858,113.3858 151.1811,113.3858 151.1811,75.5906"/>
    <line x1="138.5335" x2="129.7835" y1="86.9882" y2="100.1132"/>
    <line x1="129.7835" x2="138.5335" y1="86.9882" y2="86.9882"/>
    <line x1="129.7835" x2="138.5335" y1="100.1132" y2="100.1132"/>
    <polygon points="151.1811,75.5906 151.1811,113.3858 188.9764,113.3858 188.9764,75.5906"/>
    <line x1="170.7037" x2="165.7037" y1="86.9882" y2="100.1132"/>
    <line x1="170.7037" x2="175.7037" y1="86.9882" y2="100.1132"/>
    <line x1="167.5787" x2="173.8287" y1="95.7382" y2="95.7382"/>
    <polygon points="188.9764,75.5906 188.9764,113.3858 226.7717,113.3858 226.7717,75.5906"/>
    <line x1="205.999" x2="205.999" y1="86.9882" y2="100.1132"/>
    <line x1="214.749" x2="205.999" y1="86.9882" y2="95.7382"/>
    <line x1="209.124" x2="214.749" y1="92.6132" y2="100.1132"/>
    <polygon points="226.7717,75.5906 226.7717,75.5906 226.7717,75.5906 226.7717,75.5906"/>
    <polygon points="264.5669,75.5906 264.5669,75.5906 264.5669,75.5906 264.5669,75.5906"/>
    <polygon points="302.3622,75.5906 302.3622,113.3858 340.1575,113.3858 340.1575,75.5906"/>
    <polyline points="308.252,80.0098 308.002,80.7598 307.502,81.2598 306.752,81.5098 306.502,81.5098 305.752,81.2598 305.252,80.7598 305.002,80.0098 305.002,79.7598 305.252,79.0098 305.752,78.5098 306.502,78.2598 306.752,78.2598 307.502,78.5098 308.002,79.0098 308.252,80.0098 308.252,81.2598 308.002,82.5098 307.502,83.2598 306.752,83.5098 306.252,83.5098 305.502,83.2598 305.252,82.7598"/>
    <line x1="318.7598" x2="318.7598" y1="86.9882" y2="100.1132"/>
    <line x1="318.7598" x2="323.7598" y1="86.9882" y2="100.1132"/>
    <line x1="328.7598" x2="323.7598" y1="86.9882" y2="100.1132"/>
    <line x1="328.7598" x2="328.7598" y1="86.9882" y2="100.1132"/>
    <polygon points="340.1575,75.5906 340.1575,113.3858 377.9528,113.3858 377.9528,75.5906"/>
    <line x1="359.6801" x2="354.6801" y1="86.9882" y2="100.1132"/>
    <line x1="359.6801" x2="364.6801" y1="86.9882" y2="100.1132"/>
    <line x1="356.5551" x2="362.8051" y1="95.7382" y2="95.7382"/>
    <polygon points="377.9528,75.5906 377.9528,113.3858 415.748,113.3858 415.748,75.5906"/>
    <line x1="394.9754" x2="394.9754" y1="86.9882" y2="100.1132"/>
    <line x1="394.9754" x2="403.7254" y1="86.9882" y2="100.1132"/>
    <line x1="403.7254" x2="403.7254" y1="86.9882" y2="100.1132"/>
    <polygon points="415.748,75.5906 415.748,113.3858 453.5433,113.3858 453.5433,75.5906"/>
    <line x1="432.7707" x2="432.7707" y1="86.9882" y2="100.1132"/>
    <polyline points="432.7707,86.9882 437.1457,86.9882 439.0207,87.6132 440.2707,88.8632 440.8957,90.1132 441.5207,91.9882 441.5207,95.1132 440.8957,96.9882 440.2707,98.2382 439.0207,99.4882 437.1457,100.1132 432.7707,100.1132"/>
    <polygon points="453.5433,75.5906 453.5433,113.3858 491.3386,113.3858 491.3386,75.5906"/>
    <line x1="473.0659" x2="468.0659" y1="86.9882" y2="100.1132"/>
    <line x1="473.0659" x2="478.0659" y1="86.9882" y2="100.1132"/>
    <line x1="469.9409" x2="476.1909" y1="95.7382" y2="95.7382"/>
    <polygon points="491.3386,75.5906 491.3386,113.3858 529.1339,113.3858 529.1339,75.5906"/>
    <line x1="508.3612" x2="508.3612" y1="86.9882" y2="100.1132"/>
    <polyline points="508.3612,86.9882 513.9862,86.9882 515.8612,87.6132 516.4862,88.2382 517.1112,89.4882 517.1112,90.7382 516.4862,91.9882 515.8612,92.6132 513.9862,93.2382 508.3612,93.2382"/>
    <line x1="512.7362" x2="517.1112" y1="93.2382" y2="100.1132"/>
    <polygon points="529.1339,75.5906 529.1339,113.3858 566.9291,113.3858 566.9291,75.5906"/>
    <line x1="550.5315" x2="550.5315" y1="86.9882" y2="100.1132"/>
    <polygon points="566.9291,75.5906 566.9291,113.3858 604.7244,113.3858 604.7244,75.5906"/>
    <polyline points="570.3189,79.2598 570.8189,79.0098 571.5689,78.2598 571.5689,83.5098"/>
    <polygon points="576.0689,78.2598 575.3189,78.5098 574.8189,79.2598 574.5689,80.5098 574.5689,81.2598 574.8189,82.5098 575.3189,83.2598 576.0689,83.5098 576.5689,83.5098 577.3189,83.2598 577.8189,82.5098 578.0689,81.2598 578.0689,80.5098 577.8189,79.2598 577.3189,78.5098 576.5689,78.2598"/>
    <polyline points="590.2018,86.9882 590.2018,96.9882 589.5768,98.8632 588.9518,99.4882 587.7018,100.1132 586.4518,100.1132 585.2018,99.4882 584.5768,98.8632 583.9518,96.9882 583.9518,95.7382"/>
    <polygon points="604.7244,75.5906 604.7244,113.3858 642.5197,113.3858 642.5197,75.5906"/>
    <line x1="621.747" x2="621.747" y1="86.9882" y2="100.1132"/>
    <line x1="621.747" x2="630.497" y1="86.9882" y2="100.1132"/>
    <line x1="630.497" x2="630.497" y1="86.9882" y2="100.1132"/>
    <polygon points="642.5197,75.5906 642.5197,75.5906 642.5197,75.5906 642.5197,75.5906"/>
    <polygon points="680.315,75.5906 680.315,75.5906 680.315,75.5906 680.315,75.5906"/>
    <polygon points="718.1102,75.5906 718.1102,75.5906 718.1102,75.5906 718.1102,75.5906"/>
    <polygon points="755.9055,75.5906 755.9055,113.3858 793.7008,113.3858 793.7008,75.5906"/>
    <line x1="772.9281" x2="772.9281" y1="86.9882" y2="100.1132"/>
    <polyline points="772.9281,86.9882 778.5531,86.9882 780.4281,87.6132 781.0531,88.2382 781.6781,89.4882 781.6781,90.7382 781.0531,91.9882 780.4281,92.6132 778.5531,93.2382 772.9281,93.2382"/>
    <line x1="777.3031" x2="781.6781" y1="93.2382" y2="100.1132"/>
    <polygon points="0.0,113.3858 0.0,113.3858 0.0,113.3858 0.0,113.3858"/>
    <polygon points="37.7953,113.3858 37.7953,151.1811 75.5906,151.1811 75.5906,113.3858"/>
    <line x1="55.1304" x2="55.1304" y1="124.7835" y2="137.9085"/>
    <line x1="55.1304" x2="63.2554" y1="124.7835" y2="124.7835"/>
    <line x1="55.1304" x2="60.1304" y1="131.0335" y2="131.0335"/>
    <line x1="55.1304" x2="63.2554" y1="137.9085" y2="137.9085"/>
    <polygon points="75.5906,113.3858 75.5906,113.3858 75.5906,113.3858 75.5906,113.3858"/>
    <polygon points="113.3858,113.3858 113.3858,151.1811 151.1811,151.1811 151.1811,113.3858"/>
    <polyline points="138.5335,126.6585 137.2835,125.4085 135.4085,124.7835 132.9085,124.7835 131.0335,125.4085 129.7835,126.6585 129.7835,127.9085 130.4085,129.1585 131.0335,129.7835 132.2835,130.4085 136.0335,131.6585 137.2835,132.2835 137.9085,132.9085 138.5335,134.1585 138.5335,136.0335 137.2835,137.2835 135.4085,137.9085 132.9085,137.9085 131.0335,137.2835 129.7835,136.0335"/>
    <polygon points="151.1811,113.3858 151.1811,113.3858 151.1811,113.3858 151.1811,113.3858"/>
    <polygon points="188.9764,113.3858 188.9764,113.3858 188.9764,113.3858 188.9764,113.3858"/>
    <polygon points="226.7717,113.3858 226.7717,113.3858 226.7717,113.3858 226.7717,113.3858"/>
    <polygon points="264.5669,113.3858 264.5669,113.3858 264.5669,113.3858 264.5669,113.3858"/>
    <polygon points="302.3622,113.3858 302.3622,151.1811 340.1575,151.1811 340.1575,113.3858"/>
    <line x1="316.8848" x2="321.8848" y1="124.7835" y2="137.9085"/>
    <line x1="326.8848" x2="321.8848" y1="124.7835" y2="137.9085"/>
    <polygon points="340.1575,113.3858 340.1575,113.3858 340.1575,113.3858 340.1575,113.3858"/>
    <polygon points="377.9528,113.3858 377.9528,113.3858 377.9528,113.3858 377.9528,113.3858"/>
    <polygon points="415.748,113.3858 415.748,113.3858 415.748,113.3858 415.748,113.3858"/>
    <polygon points="453.5433,113.3858 453.5433,113.3858 453.5433,113.3858 453.5433,113.3858"/>
    <polygon points="491.3386,113.3858 491.3386,113.3858 491.3386,113.3858 491.3386,113.3858"/>
    <polygon points="529.1339,113.3858 529.1339,151.1811 566.9291,151.1811 566.9291,113.3858"/>
    <polygon points="548.6565,124.7835 547.4065,125.4085 546.1565,126.6585 545.5315,127.9085 544.9065,129.7835 544.9065,132.9085 545.5315,134.7835 546.1565,136.0335 547.4065,137.2835 548.6565,137.9085 551.1565,137.9085 552.4065,137.2835 553.6565,136.0335 554.2815,134.7835 554.9065,132.9085 554.9065,129.7835 554.2815,127.9085 553.6565,126.6585 552.4065,125.4085 551.1565,124.7835"/>
    <polygon points="566.9291,113.3858 566.9291,113.3858 566.9291,113.3858 566.9291,113.3858"/>
    <polygon points="604.7244,113.3858 604.7244,113.3858 604.7244,113.3858 604.7244,113.3858"/>
    <polygon points="642.5197,113.3858 642.5197,113.3858 642.5197,113.3858 642.5197,113.3858"/>
    <polygon points="680.315,113.3858 680.315,113.3858 680.315,113.3858 680.315,113.3858"/>
    <polygon points="718.1102,113.3858 718.1102,151.1811 755.9055,151.1811 755.9055,113.3858"/>
    <line x1="739.5079" x2="739.5079" y1="124.7835" y2="137.9085"/>
    <polygon points="755.9055,113.3858 755.9055,113.3858 755.9055,113.3858 755.9055,113.3858"/>
    <polygon points="0.0,151.1811 0.0,188.9764 37.7953,188.9764 37.7953,151.1811"/>
    <line x1="17.6476" x2="17.6476" y1="162.5787" y2="175.7037"/>
    <line x1="17.6476" x2="25.1476" y1="175.7037" y2="175.7037"/>
    <polygon points="37.7953,151.1811 37.7953,151.1811 37.7953,151.1811 37.7953,151.1811"/>
    <polygon points="75.5906,151.1811 75.5906,151.1811 75.5906,151.1811 75.5906,151.1811"/>
    <polygon points="113.3858,151.1811 113.3858,188.9764 151.1811,188.9764 151.1811,151.1811"/>
    <polyline points="116.7756,154.8504 117.2756,154.6004 118.0256,153.8504 118.0256,159.1004"/>
    <polyline points="121.7756,154.8504 122.2756,154.6004 123.0256,153.8504 123.0256,159.1004"/>
    <polyline points="136.6585,162.5787 136.6585,172.5787 136.0335,174.4537 135.4085,175.0787 134.1585,175.7037 132.9085,175.7037 131.6585,175.0787 131.0335,174.4537 130.4085,172.5787 130.4085,171.3287"/>
    <polygon points="151.1811,151.1811 151.1811,188.9764 188.9764,188.9764 188.9764,151.1811"/>
    <line x1="168.5162" x2="168.5162" y1="162.5787" y2="175.7037"/>
    <line x1="168.5162" x2="176.6412" y1="162.5787" y2="162.5787"/>
    <line x1="168.5162" x2="173.5162" y1="168.8287" y2="168.8287"/>
    <line x1="168.5162" x2="176.6412" y1="175.7037" y2="175.7037"/>
    <polygon points="188.9764,151.1811 188.9764,188.9764 226.7717,188.9764 226.7717,151.1811"/>
    <line x1="205.999" x2="205.999" y1="162.5787" y2="175.7037"/>
    <polyline points="205.999,162.5787 211.624,162.5787 213.499,163.2037 214.124,163.8287 214.749,165.0787 214.749,166.3287 214.124,167.5787 213.499,168.2037 211.624,168.8287 205.999,168.8287"/>
    <line x1="210.374" x2="214.749" y1="168.8287" y2="175.7037"/>
    <polygon points="226.7717,151.1811 226.7717,188.9764 264.5669,188.9764 264.5669,151.1811"/>
    <polygon points="246.2943,162.5787 245.0443,163.2037 243.7943,164.4537 243.1693,165.7037 242.5443,167.5787 242.5443,170.7037 243.1693,172.5787 243.7943,173.8287 245.0443,175.0787 246.2943,175.7037 248.7943,175.7037 250.0443,175.0787 251.2943,173.8287 251.9193,172.5787 252.5443,170.7037 252.5443,167.5787 251.9193,165.7037 251.2943,164.4537 250.0443,163.2037 248.7943,162.5787"/>
    <polygon points="264.5669,151.1811 264.5669,188.9764 302.3622,188.9764 302.3622,151.1811"/>
    <line x1="281.9021" x2="281.9021" y1="162.5787" y2="175.7037"/>
    <line x1="281.9021" x2="290.0271" y1="162.5787" y2="162.5787"/>
    <line x1="281.9021" x2="286.9021" y1="168.8287" y2="168.8287"/>
    <line x1="281.9021" x2="290.0271" y1="175.7037" y2="175.7037"/>
    <polygon points="302.3622,151.1811 302.3622,188.9764 340.1575,188.9764 340.1575,151.1811"/>
    <line x1="319.3848" x2="319.3848" y1="162.5787" y2="175.7037"/>
    <line x1="319.3848" x2="328.1348" y1="162.5787" y2="175.7037"/>
    <line x1="328.1348" x2="328.1348" y1="162.5787" y2="175.7037"/>
    <polygon points="340.1575,151.1811 340.1575,151.1811 340.1575,151.1811 340.1575,151.1811"/>
    <polygon points="377.9528,151.1811 377.9528,188.9764 415.748,188.9764 415.748,151.1811"/>
    <polyline points="381.3425,154.8504 381.8425,154.6004 382.5925,153.8504 382.5925,159.1004"/>
    <polyline points="385.8425,155.1004 385.8425,154.8504 386.0925,154.3504 386.3425,154.1004 386.8425,153.8504 387.8425,153.8504 388.3425,154.1004 388.5925,154.3504 388.8425,154.8504 388.8425,155.3504 388.5925,155.8504 388.0925,156.6004 385.5925,159.1004 389.0925,159.1004"/>
    <line x1="399.3504" x2="399.3504" y1="162.5787" y2="175.7037"/>
    <polygon points="415.748,151.1811 415.748,188.9764 453.5433,188.9764 453.5433,151.1811"/>
    <polyline points="440.8957,164.4537 439.6457,163.2037 437.7707,162.5787 435.2707,162.5787 433.3957,163.2037 432.1457,164.4537 432.1457,165.7037 432.7707,166.9537 433.3957,167.5787 434.6457,168.2037 438.3957,169.4537 439.6457,170.0787 440.2707,170.7037 440.8957,171.9537 440.8957,173.8287 439.6457,175.0787 437.7707,175.7037 435.2707,175.7037 433.3957,175.0787 432.1457,173.8287"/>
    <polygon points="453.5433,151.1811 453.5433,188.9764 491.3386,188.9764 491.3386,151.1811"/>
    <polygon points="473.0659,162.5787 471.8159,163.2037 470.5659,164.4537 469.9409,165.7037 469.3159,167.5787 469.3159,170.7037 469.9409,172.5787 470.5659,173.8287 471.8159,175.0787 473.0659,175.7037 475.5659,175.7037 476.8159,175.0787 478.0659,173.8287 478.6909,172.5787 479.3159,170.7037 479.3159,167.5787 478.6909,165.7037 478.0659,164.4537 476.8159,163.2037 475.5659,162.5787"/>
    <polygon points="491.3386,151.1811 491.3386,188.9764 529.1339,188.9764 529.1339,151.1811"/>
    <line x1="508.9862" x2="508.9862" y1="162.5787" y2="175.7037"/>
    <line x1="508.9862" x2="516.4862" y1="175.7037" y2="175.7037"/>
    <polygon points="529.1339,151.1811 529.1339,188.9764 566.9291,188.9764 566.9291,151.1811"/>
    <line x1="546.1565" x2="546.1565" y1="162.5787" y2="175.7037"/>
    <polyline points="546.1565,162.5787 550.5315,162.5787 552.4065,163.2037 553.6565,164.4537 554.2815,165.7037 554.9065,167.5787 554.9065,170.7037 554.2815,172.5787 553.6565,173.8287 552.4065,175.0787 550.5315,175.7037 546.1565,175.7037"/>
    <polygon points="566.9291,151.1811 566.9291,188.9764 604.7244,188.9764 604.7244,151.1811"/>
    <line x1="584.2643" x2="584.2643" y1="162.5787" y2="175.7037"/>
    <line x1="584.2643" x2="592.3893" y1="162.5787" y2="162.5787"/>
    <line x1="584.2643" x2="589.2643" y1="168.8287" y2="168.8287"/>
    <line x1="584.2643" x2="592.3893" y1="175.7037" y2="175.7037"/>
    <polygon points="604.7244,151.1811 604.7244,151.1811 604.7244,151.1811 604.7244,151.1811"/>
    <polygon points="642.5197,151.1811 642.5197,151.1811 642.5197,151.1811 642.5197,151.1811"/>
    <polygon points="680.315,151.1811 680.315,188.9764 718.1102,188.9764 718.1102,151.1811"/>
    <line x1="699.8376" x2="694.8376" y1="162.5787" y2="175.7037"/>
    <line x1="699.8376" x2="704.8376" y1="162.5787" y2="175.7037"/>
    <line x1="696.7126" x2="702.9626" y1="171.3287" y2="171.3287"/>
    <polygon points="718.1102,151.1811 718.1102,151.1811 718.1102,151.1811 718.1102,151.1811"/>
    <polygon points="755.9055,151.1811 755.9055,188.9764 793.7008,188.9764 793.7008,151.1811"/>
    <line x1="773.5531" x2="773.5531" y1="162.5787" y2="175.7037"/>
    <line x1="773.5531" x2="781.0531" y1="175.7037" y2="175.7037"/>
    <polygon points="0.0,188.9764 0.0,188.9764 0.0,188.9764 0.0,188.9764"/>
    <polygon points="37.7953,188.9764 37.7953,188.9764 37.7953,188.9764 37.7953,188.9764"/>
    <polygon points="75.5906,188.9764 75.5906,188.9764 75.5906,188.9764 75.5906,188.9764"/>
    <polygon points="113.3858,188.9764 113.3858,188.9764 113.3858,188.9764 113.3858,188.9764"/>
    <polygon points="151.1811,188.9764 151.1811,188.9764 151.1811,188.9764 151.1811,188.9764"/>
    <polygon points="188.9764,188.9764 188.9764,188.9764 188.9764,188.9764 188.9764,188.9764"/>
    <polygon points="226.7717,188.9764 226.7717,226.7717 264.5669,226.7717 264.5669,188.9764"/>
    <line x1="243.7943" x2="243.7943" y1="200.374" y2="213.499"/>
    <polyline points="243.7943,200.374 249.4193,200.374 251.2943,200.999 251.9193,201.624 252.5443,202.874 252.5443,204.124 251.9193,205.374 251.2943,205.999 249.4193,206.624 243.7943,206.624"/>
    <line x1="248.1693" x2="252.5443" y1="206.624" y2="213.499"/>
    <polygon points="264.5669,188.9764 264.5669,188.9764 264.5669,188.9764 264.5669,188.9764"/>
    <polygon points="302.3622,188.9764 302.3622,188.9764 302.3622,188.9764 302.3622,188.9764"/>
    <polygon points="340.1575,188.9764 340.1575,188.9764 340.1575,188.9764 340.1575,188.9764"/>
    <polygon points="377.9528,188.9764 377.9528,188.9764 377.9528,188.9764 377.9528,188.9764"/>
    <polygon points="415.748,188.9764 415.748,188.9764 415.748,188.9764 415.748,188.9764"/>
    <polygon points="453.5433,188.9764 453.5433,226.7717 491.3386,226.7717 491.3386,188.9764"/>
    <line x1="470.8784" x2="470.8784" y1="200.374" y2="213.499"/>
    <line x1="470.8784" x2="479.0034" y1="200.374" y2="200.374"/>
    <line x1="470.8784" x2="475.8784" y1="206.624" y2="206.624"/>
    <line x1="470.8784" x2="479.0034" y1="213.499" y2="213.499"/>
    <polygon points="491.3386,188.9764 491.3386,188.9764 491.3386,188.9764 491.3386,188.9764"/>
    <polygon points="529.1339,188.9764 529.1339,188.9764 529.1339,188.9764 529.1339,188.9764"/>
    <polygon points="566.9291,188.9764 566.9291,226.7717 604.7244,226.7717 604.7244,188.9764"/>
    <polyline points="570.3189,192.6457 570.8189,192.3957 571.5689,191.6457 571.5689,196.8957"/>
    <polyline points="575.0689,191.6457 577.8189,191.6457 576.3189,193.6457 577.0689,193.6457 577.5689,193.8957 577.8189,194.1457 578.0689,194.8957 578.0689,195.3957 577.8189,196.1457 577.3189,196.6457 576.5689,196.8957 575.8189,196.8957 575.0689,196.6457 574.8189,196.3957 574.5689,195.8957"/>
    <line x1="583.9518" x2="583.9518" y1="200.374" y2="213.499"/>
    <line x1="592.7018" x2="583.9518" y1="200.374" y2="209.124"/>
    <line x1="587.0768" x2="592.7018" y1="205.999" y2="213.499"/>
    <polygon points="604.7244,188.9764 604.7244,226.7717 642.5197,226.7717 642.5197,188.9764"/>
    <line x1="626.122" x2="626.122" y1="200.374" y2="213.499"/>
    <polygon points="642.5197,188.9764 642.5197,226.7717 680.315,226.7717 680.315,188.9764"/>
    <line x1="659.5423" x2="659.5423" y1="200.374" y2="213.499"/>
    <line x1="659.5423" x2="668.2923" y1="200.374" y2="213.499"/>
    <line x1="668.2923" x2="668.2923" y1="200.374" y2="213.499"/>
    <polygon points="680.315,188.9764 680.315,226.7717 718.1102,226.7717 718.1102,188.9764"/>
    <line x1="697.3376" x2="697.3376" y1="200.374" y2="213.499"/>
    <polyline points="697.3376,200.374 701.7126,200.374 703.5876,200.999 704.8376,202.249 705.4626,203.499 706.0876,205.374 706.0876,208.499 705.4626,210.374 704.8376,211.624 703.5876,212.874 701.7126,213.499 697.3376,213.499"/>
    <polygon points="718.1102,188.9764 718.1102,226.7717 755.9055,226.7717 755.9055,188.9764"/>
    <line x1="735.4454" x2="735.4454" y1="200.374" y2="213.499"/>
    <line x1="735.4454" x2="743.5704" y1="200.374" y2="200.374"/>
    <line x1="735.4454" x2="740.4454" y1="206.624" y2="206.624"/>
    <line x1="735.4454" x2="743.5704" y1="213.499" y2="213.499"/>
    <polygon points="755.9055,188.9764 755.9055,226.7717 793.7008,226.7717 793.7008,188.9764"/>
    <line x1="772.9281" x2="772.9281" y1="200.374" y2="213.499"/>
    <polyline points="772.9281,200.374 778.5531,200.374 780.4281,200.999 781.0531,201.624 781.6781,202.874 781.6781,204.124 781.0531,205.374 780.4281,205.999 778.5531,206.624 772.9281,206.624"/>
    <line x1="777.3031" x2="781.6781" y1="206.624" y2="213.499"/>
    <polygon points="0.0,226.7717 0.0,264.5669 37.7953,264.5669 37.7953,226.7717"/>
    <line x1="17.3351" x2="17.3351" y1="238.1693" y2="251.2943"/>
    <line x1="17.3351" x2="25.4601" y1="238.1693" y2="238.1693"/>
    <line x1="17.3351" x2="22.3351" y1="244.4193" y2="244.4193"/>
    <line x1="17.3351" x2="25.4601" y1="251.2943" y2="251.2943"/>
    <polygon points="37.7953,226.7717 37.7953,264.5669 75.5906,264.5669 75.5906,226.7717"/>
    <line x1="54.8179" x2="54.8179" y1="238.1693" y2="251.2943"/>
    <line x1="54.8179" x2="63.5679" y1="238.1693" y2="251.2943"/>
    <line x1="63.5679" x2="63.5679" y1="238.1693" y2="251.2943"/>
    <polygon points="75.5906,226.7717 75.5906,226.7717 75.5906,226.7717 75.5906,226.7717"/>
    <polygon points="113.3858,226.7717 113.3858,264.5669 151.1811,264.5669 151.1811,226.7717"/>
    <polyline points="116.7756,230.4409 117.2756,230.1909 118.0256,229.4409 118.0256,234.6909"/>
    <polyline points="123.5256,229.4409 121.0256,232.9409 124.7756,232.9409"/>
    <line x1="123.5256" x2="123.5256" y1="229.4409" y2="234.6909"/>
    <polyline points="130.4085,238.1693 130.4085,247.5443 131.0335,249.4193 132.2835,250.6693 134.1585,251.2943 135.4085,251.2943 137.2835,250.6693 138.5335,249.4193 139.1585,247.5443 139.1585,238.1693"/>
    <polygon points="151.1811,226.7717 151.1811,264.5669 188.9764,264.5669 188.9764,226.7717"/>
    <line x1="172.5787" x2="172.5787" y1="238.1693" y2="251.2943"/>
    <polygon points="188.9764,226.7717 188.9764,264.5669 226.7717,264.5669 226.7717,226.7717"/>
    <line x1="208.499" x2="208.499" y1="238.1693" y2="251.2943"/>
    <line x1="204.124" x2="212.874" y1="238.1693" y2="238.1693"/>
    <polygon points="226.7717,226.7717 226.7717,264.5669 264.5669,264.5669 264.5669,226.7717"/>
    <line x1="244.4193" x2="244.4193" y1="238.1693" y2="251.2943"/>
    <line x1="244.4193" x2="251.9193" y1="251.2943" y2="251.2943"/>
    <polygon points="264.5669,226.7717 264.5669,264.5669 302.3622,264.5669 302.3622,226.7717"/>
    <line x1="285.9646" x2="285.9646" y1="238.1693" y2="251.2943"/>
    <polygon points="302.3622,226.7717 302.3622,264.5669 340.1575,264.5669 340.1575,226.7717"/>
    <line x1="319.3848" x2="319.3848" y1="238.1693" y2="251.2943"/>
    <line x1="328.1348" x2="319.3848" y1="238.1693" y2="246.9193"/>
    <line x1="322.5098" x2="328.1348" y1="243.7943" y2="251.2943"/>
    <polygon points="340.1575,226.7717 340.1575,264.5669 377.9528,264.5669 377.9528,226.7717"/>
    <line x1="357.1801" x2="357.1801" y1="238.1693" y2="251.2943"/>
    <line x1="365.9301" x2="357.1801" y1="238.1693" y2="246.9193"/>
    <line x1="360.3051" x2="365.9301" y1="243.7943" y2="251.2943"/>
    <polygon points="377.9528,226.7717 377.9528,264.5669 415.748,264.5669 415.748,226.7717"/>
    <line x1="395.2879" x2="395.2879" y1="238.1693" y2="251.2943"/>
    <line x1="395.2879" x2="403.4129" y1="238.1693" y2="238.1693"/>
    <line x1="395.2879" x2="400.2879" y1="244.4193" y2="244.4193"/>
    <line x1="395.2879" x2="403.4129" y1="251.2943" y2="251.2943"/>
    <polygon points="415.748,226.7717 415.748,264.5669 453.5433,264.5669 453.5433,226.7717"/>
    <line x1="432.7707" x2="432.7707" y1="238.1693" y2="251.2943"/>
    <line x1="432.7707" x2="441.5207" y1="238.1693" y2="251.2943"/>
    <line x1="441.5207" x2="441.5207" y1="238.1693" y2="251.2943"/>
    <polygon points="453.5433,226.7717 453.5433,226.7717 453.5433,226.7717 453.5433,226.7717"/>
    <polygon points="491.3386,226.7717 491.3386,226.7717 491.3386,226.7717 491.3386,226.7717"/>
    <polygon points="529.1339,226.7717 529.1339,226.7717 529.1339,226.7717 529.1339,226.7717"/>
    <polygon points="566.9291,226.7717 566.9291,226.7717 566.9291,226.7717 566.9291,226.7717"/>
    <polygon points="604.7244,226.7717 604.7244,226.7717 604.7244,226.7717 604.7244,226.7717"/>
    <polygon points="642.5197,226.7717 642.5197,226.7717 642.5197,226.7717 642.5197,226.7717"/>
    <polygon points="680.315,226.7717 680.315,264.5669 718.1102,264.5669 718.1102,226.7717"/>
    <line x1="697.3376" x2="697.3376" y1="238.1693" y2="251.2943"/>
    <line x1="706.0876" x2="697.3376" y1="238.1693" y2="246.9193"/>
    <line x1="700.4626" x2="706.0876" y1="243.7943" y2="251.2943"/>
    <polygon points="718.1102,226.7717 718.1102,226.7717 718.1102,226.7717 718.1102,226.7717"/>
    <polygon points="755.9055,226.7717 755.9055,226.7717 755.9055,226.7717 755.9055,226.7717"/>
    <polygon points="0.0,264.5669 0.0,264.5669 0.0,264.5669 0.0,264.5669"/>
    <polygon points="37.7953,264.5669 37.7953,264.5669 37.7953,264.5669 37.7953,264.5669"/>
    <polygon points="75.5906,264.5669 75.5906,264.5669 75.5906,264.5669 75.5906,264.5669"/>
    <polygon points="113.3858,264.5669 113.3858,264.5669 113.3858,264.5669 113.3858,264.5669"/>
    <polygon points="151.1811,264.5669 151.1811,302.3622 188.9764,302.3622 188.9764,264.5669"/>
    <polyline points="174.4537,275.9646 174.4537,285.9646 173.8287,287.8396 173.2037,288.4646 171.9537,289.0896 170.7037,289.0896 169.4537,288.4646 168.8287,287.8396 168.2037,285.9646 168.2037,284.7146"/>
    <polygon points="188.9764,264.5669 188.9764,264.5669 188.9764,264.5669 188.9764,264.5669"/>
    <polygon points="226.7717,264.5669 226.7717,264.5669 226.7717,264.5669 226.7717,264.5669"/>
    <polygon points="264.5669,264.5669 264.5669,264.5669 264.5669,264.5669 264.5669,264.5669"/>
    <polygon points="302.3622,264.5669 302.3622,264.5669 302.3622,264.5669 302.3622,264.5669"/>
    <polygon points="340.1575,264.5669 340.1575,264.5669 340.1575,264.5669 340.1575,264.5669"/>
    <polygon points="377.9528,264.5669 377.9528,302.3622 415.748,302.3622 415.748,264.5669"/>
    <line x1="397.4754" x2="397.4754" y1="275.9646" y2="289.0896"/>
    <line x1="393.1004" x2="401.8504" y1="275.9646" y2="275.9646"/>
    <polygon points="415.748,264.5669 415.748,264.5669 415.748,264.5669 415.748,264.5669"/>
    <polygon points="453.5433,264.5669 453.5433,264.5669 453.5433,264.5669 453.5433,264.5669"/>
    <polygon points="491.3386,264.5669 491.3386,264.5669 491.3386,264.5669 491.3386,264.5669"/>
    <polygon points="529.1339,264.5669 529.1339,264.5669 529.1339,264.5669 529.1339,264.5669"/>
    <polygon points="566.9291,264.5669 566.9291,264.5669 566.9291,264.5669 566.9291,264.5669"/>
    <polygon points="604.7244,264.5669 604.7244,302.3622 642.5197,302.3622 642.5197,264.5669"/>
    <polyline points="608.1142,268.2362 608.6142,267.9862 609.3642,267.2362 609.3642,272.4862"/>
    <polyline points="615.3642,267.2362 612.8642,267.2362 612.6142,269.4862 612.8642,269.2362 613.6142,268.9862 614.3642,268.9862 615.1142,269.2362 615.6142,269.7362 615.8642,270.4862 615.8642,270.9862 615.6142,271.7362 615.1142,272.2362 614.3642,272.4862 613.6142,272.4862 612.8642,272.2362 612.6142,271.9862 612.3642,271.4862"/>
    <line x1="621.747" x2="621.747" y1="275.9646" y2="289.0896"/>
    <polyline points="621.747,275.9646 627.372,275.9646 629.247,276.5896 629.872,277.2146 630.497,278.4646 630.497,279.7146 629.872,280.9646 629.247,281.5896 627.372,282.2146 621.747,282.2146"/>
    <line x1="626.122" x2="630.497" y1="282.2146" y2="289.0896"/>
    <polygon points="642.5197,264.5669 642.5197,302.3622 680.315,302.3622 680.315,264.5669"/>
    <line x1="659.8548" x2="659.8548" y1="275.9646" y2="289.0896"/>
    <line x1="659.8548" x2="667.9798" y1="275.9646" y2="275.9646"/>
    <line x1="659.8548" x2="664.8548" y1="282.2146" y2="282.2146"/>
    <line x1="659.8548" x2="667.9798" y1="289.0896" y2="289.0896"/>
    <polygon points="680.315,264.5669 680.315,302.3622 718.1102,302.3622 718.1102,264.5669"/>
    <line x1="697.3376" x2="697.3376" y1="275.9646" y2="289.0896"/>
    <line x1="706.0876" x2="697.3376" y1="275.9646" y2="284.7146"/>
    <line x1="700.4626" x2="706.0876" y1="281.5896" y2="289.0896"/>
    <polygon points="718.1102,264.5669 718.1102,302.3622 755.9055,302.3622 755.9055,264.5669"/>
    <line x1="735.1329" x2="735.1329" y1="275.9646" y2="289.0896"/>
    <line x1="743.8829" x2="735.1329" y1="275.9646" y2="284.7146"/>
    <line x1="738.2579" x2="743.8829" y1="281.5896" y2="289.0896"/>
    <polygon points="755.9055,264.5669 755.9055,302.3622 793.7008,302.3622 793.7008,264.5669"/>
    <line x1="773.2406" x2="773.2406" y1="275.9646" y2="289.0896"/>
    <line x1="773.2406" x2="781.3656" y1="275.9646" y2="275.9646"/>
    <line x1="773.2406" x2="778.2406" y1="282.2146" y2="282.2146"/>
    <line x1="773.2406" x2="781.3656" y1="289.0896" y2="289.0896"/>
    <polygon points="0.0,302.3622 0.0,340.1575 37.7953,340.1575 37.7953,302.3622"/>
    <line x1="17.0226" x2="17.0226" y1="313.7598" y2="326.8848"/>
    <polyline points="17.0226,313.7598 22.6476,313.7598 24.5226,314.3848 25.1476,315.0098 25.7726,316.2598 25.7726,317.5098 25.1476,318.7598 24.5226,319.3848 22.6476,320.0098 17.0226,320.0098"/>
    <line x1="21.3976" x2="25.7726" y1="320.0098" y2="326.8848"/>
    <polygon points="37.7953,302.3622 37.7953,340.1575 75.5906,340.1575 75.5906,302.3622"/>
    <line x1="57.3179" x2="57.3179" y1="313.7598" y2="326.8848"/>
    <line x1="52.9429" x2="61.6929" y1="313.7598" y2="313.7598"/>
    <polygon points="75.5906,302.3622 75.5906,340.1575 113.3858,340.1575 113.3858,302.3622"/>
    <polyline points="98.8632,313.7598 98.8632,323.7598 98.2382,325.6348 97.6132,326.2598 96.3632,326.8848 95.1132,326.8848 93.8632,326.2598 93.2382,325.6348 92.6132,323.7598 92.6132,322.5098"/>
    <polygon points="113.3858,302.3622 113.3858,340.1575 151.1811,340.1575 151.1811,302.3622"/>
    <line x1="130.721" x2="130.721" y1="313.7598" y2="326.8848"/>
    <line x1="130.721" x2="138.846" y1="313.7598" y2="313.7598"/>
    <line x1="130.721" x2="135.721" y1="320.0098" y2="320.0098"/>
    <line x1="130.721" x2="138.846" y1="326.8848" y2="326.8848"/>
    <polygon points="151.1811,302.3622 151.1811,302.3622 151.1811,302.3622 151.1811,302.3622"/>
    <polygon points="188.9764,302.3622 188.9764,340.1575 226.7717,340.1575 226.7717,302.3622"/>
    <polyline points="192.3661,306.0315 192.8661,305.7815 193.6161,305.0315 193.6161,310.2815"/>
    <polyline points="199.8661,305.7815 199.6161,305.2815 198.8661,305.0315 198.3661,305.0315 197.6161,305.2815 197.1161,306.0315 196.8661,307.2815 196.8661,308.5315 197.1161,309.5315 197.6161,310.0315 198.3661,310.2815 198.6161,310.2815 199.3661,310.0315 199.8661,309.5315 200.1161,308.7815 200.1161,308.5315 199.8661,307.7815 199.3661,307.2815 198.6161,307.0315 198.3661,307.0315 197.6161,307.2815 197.1161,307.7815 196.8661,308.5315"/>
    <line x1="205.999" x2="205.999" y1="313.7598" y2="326.8848"/>
    <line x1="214.749" x2="205.999" y1="313.7598" y2="322.5098"/>
    <line x1="209.124" x2="214.749" y1="319.3848" y2="326.8848"/>
    <polygon points="226.7717,302.3622 226.7717,340.1575 264.5669,340.1575 264.5669,302.3622"/>
    <line x1="248.1693" x2="248.1693" y1="313.7598" y2="326.8848"/>
    <polygon points="264.5669,302.3622 264.5669,340.1575 302.3622,340.1575 302.3622,302.3622"/>
    <line x1="281.9021" x2="281.9021" y1="313.7598" y2="326.8848"/>
    <line x1="281.9021" x2="290.0271" y1="313.7598" y2="313.7598"/>
    <line x1="281.9021" x2="286.9021" y1="320.0098" y2="320.0098"/>
    <line x1="281.9021" x2="290.0271" y1="326.8848" y2="326.8848"/>
    <polygon points="302.3622,302.3622 302.3622,340.1575 340.1575,340.1575 340.1575,302.3622"/>
    <line x1="318.7598" x2="318.7598" y1="313.7598" y2="326.8848"/>
    <line x1="318.7598" x2="323.7598" y1="313.7598" y2="326.8848"/>
    <line x1="328.7598" x2="323.7598" y1="313.7598" y2="326.8848"/>
    <line x1="328.7598" x2="328.7598" y1="313.7598" y2="326.8848"/>
    <polygon points="340.1575,302.3622 340.1575,340.1575 377.9528,340.1575 377.9528,302.3622"/>
    <line x1="357.4926" x2="357.4926" y1="313.7598" y2="326.8848"/>
    <line x1="357.4926" x2="365.6176" y1="313.7598" y2="313.7598"/>
    <line x1="357.4926" x2="362.4926" y1="320.0098" y2="320.0098"/>
    <line x1="357.4926" x2="365.6176" y1="326.8848" y2="326.8848"/>
    <polygon points="377.9528,302.3622 377.9528,340.1575 415.748,340.1575 415.748,302.3622"/>
    <line x1="394.9754" x2="394.9754" y1="313.7598" y2="326.8848"/>
    <line x1="394.9754" x2="403.7254" y1="313.7598" y2="326.8848"/>
    <line x1="403.7254" x2="403.7254" y1="313.7598" y2="326.8848"/>
    <polygon points="415.748,302.3622 415.748,302.3622 415.748,302.3622 415.748,302.3622"/>
    <polygon points="453.5433,302.3622 453.5433,302.3622 453.5433,302.3622 453.5433,302.3622"/>
    <polygon points="491.3386,302.3622 491.3386,302.3622 491.3386,302.3622 491.3386,302.3622"/>
    <polygon points="529.1339,302.3622 529.1339,302.3622 529.1339,302.3622 529.1339,302.3622"/>
    <polygon points="566.9291,302.3622 566.9291,302.3622 566.9291,302.3622 566.9291,302.3622"/>
    <polygon points="604.7244,302.3622 604.7244,302.3622 604.7244,302.3622 604.7244,302.3622"/>
    <polygon points="642.5197,302.3622 642.5197,302.3622 642.5197,302.3622 642.5197,302.3622"/>
    <polygon points="680.315,302.3622 680.315,302.3622 680.315,302.3622 680.315,302.3622"/>
    <polygon points="718.1102,302.3622 718.1102,302.3622 718.1102,302.3622 718.1102,302.3622"/>
    <polygon points="755.9055,302.3622 755.9055,302.3622 755.9055,302.3622 755.9055,302.3622"/>
  </g>
</svg>
