<?xml version="1.0" encoding="utf-8" ?>
<svg xmlns="http://www.w3.org/2000/svg" xmlns:cc="http://creativecommons.org/ns" xmlns:dc="http://purl.org/dc/elements/1.1/" xmlns:ev="http://www.w3.org/2001/xml-events" xmlns:inkscape="http://www.inkscape.org/namespaces/inkscape" xmlns:rdf="http://www.w3.org/1999/02/22-rdf-syntax-ns" xmlns:sodipodi="http://sodipodi.sourceforge.net/DTD/sodipodi-0.dtd" xmlns:xlink="http://www.w3.org/1999/xlink" baseProfile="tiny" height="9.9cm" version="1.2" viewBox="0 0 793.7007874015749 374.1732283464567" width="21.0cm">
  <metadata>
    <rdf:RDF>
      <cc:Work>
        <dc:format>image/svg+xml</dc:format>
        <dc:source>vpype eval 'cell=10;width=210;height=99' eval 'nCols=20;nRows=9' eval 'cells=[2,4,7,8,9,10,11,12,13,14,15,20,21,22,23,24,25,32,39,42,45,48,49,50,51,52,53,54,55,56,59,61,62,63,64,65,66,72,75,79,82,85,87,88,89,90,91,92,95,99,102,105,112,113,114,115,116,117,118,119,121,122,123,124,125,126,127,128,132,135,139,142,145,152,155,156,157,158,159,164,165,166,167,168,169,170,171,172,175]' eval 'chars=[&quot;B&quot;,&quot;J&quot;,&quot;U&quot;,&quot;I&quot;,&quot;T&quot;,&quot;L&quot;,&quot;I&quot;,&quot;K&quot;,&quot;K&quot;,&quot;E&quot;,&quot;N&quot;,&quot;T&quot;,&quot;E&quot;,&quot;R&quot;,&quot;R&quot;,&quot;A&quot;,&quot;S&quot;,&quot;L&quot;,&quot;F&quot;,&quot;O&quot;,&quot;K&quot;,&quot;M&quot;,&quot;A&quot;,&quot;N&quot;,&quot;D&quot;,&quot;A&quot;,&quot;R&quot;,&quot;I&quot;,&quot;J&quot;,&quot;N&quot;,&quot;L&quot;,&quot;J&quot;,&quot;E&quot;,&quot;R&quot;,&quot;O&quot;,&quot;E&quot;,&quot;N&quot;,&quot;V&quot;,&quot;O&quot;,&quot;O&quot;,&quot;K&quot;,&quot;L&quot;,&quot;I&quot;,&quot;S&quot;,&quot;O&quot;,&quot;L&quot;,&quot;D&quot;,&quot;E&quot;,&quot;L&quot;,&quot;R&quot;,&quot;Z&quot;,&quot;L&quot;,&quot;R&quot;,&quot;E&quot;,&quot;G&quot;,&quot;E&quot;,&quot;N&quot;,&quot;B&quot;,&quot;U&quot;,&quot;I&quot;,&quot;P&quot;,&quot;A&quot;,&quot;R&quot;,&quot;K&quot;,&quot;E&quot;,&quot;R&quot;,&quot;E&quot;,&quot;N&quot;,&quot;T&quot;,&quot;N&quot;,&quot;A&quot;,&quot;K&quot;,&quot;K&quot;,&quot;J&quot;,&quot;T&quot;,&quot;R&quot;,&quot;E&quot;,&quot;I&quot;,&quot;N&quot;,&quot;R&quot;,&quot;E&quot;,&quot;K&quot;,&quot;K&quot;,&quot;E&quot;,&quot;R&quot;,&quot;T&quot;,&quot;J&quot;,&quot;E&quot;,&quot;E&quot;]' eval 'numbers=[2,4,7,12,20,25,39,48,55,61,87,112,121,155,164]' eval counter=1 eval charIndex=0 begin grid -o '%cell*mm%' '%cell*mm%' %nCols% %nRows% eval '%isCell=_i in cells%' eval '%number=_i in numbers%' eval '%size=10 if isCell else 0%' rect 0 0 '%size*mm%' '%size*mm%' text -s 10 -p 0.5mm 1.5mm '%counter if number else '&quot;'&quot;''&quot;'&quot;'%' text -s 20 -p 5mm 5mm -a center '%chars[charIndex] if isCell else '&quot;'&quot;''&quot;'&quot;'%' eval '%if number: counter+=1 %' eval '%if isCell: charIndex+=1 %' end splitall deduplicate linemerge --tolerance 0.1mm write -m none --page-size '%width*mm%x%height*mm%' --center ./svgs/solution/f6257a.svg
</dc:source>
        <dc:date>2023-12-23T07:44:50.919208</dc:date>
      </cc:Work>
    </rdf:RDF>
  </metadata>
  <defs/>
  <g fill="none" id="layer1" inkscape:groupmode="layer" inkscape:label="1" stroke="#000000" style="display:inline">
    <polygon points="94.4882,17.0079 94.4882,54.8031 94.4882,54.8031 132.2835,54.8031 132.2835,54.8031 132.2835,17.0079 132.2835,17.0079"/>
    <polyline points="98.253,20.1772 98.878,19.8647 98.878,19.8647 99.8155,18.9272 99.8155,18.9272 99.8155,25.4897"/>
    <polyline points="117.1358,34.6555 119.0108,34.0305 119.0108,34.0305 119.6358,33.4055 119.6358,33.4055 120.2608,32.1555 120.2608,32.1555 120.2608,30.9055 120.2608,30.9055 119.6358,29.6555 119.6358,29.6555 119.0108,29.0305 119.0108,29.0305 117.1358,28.4055 117.1358,28.4055 111.5108,28.4055 111.5108,28.4055 111.5108,41.5305 111.5108,41.5305 117.1358,41.5305 117.1358,41.5305 119.0108,40.9055 119.0108,40.9055 119.6358,40.2805 119.6358,40.2805 120.2608,39.0305 120.2608,39.0305 120.2608,37.1555 120.2608,37.1555 119.6358,35.9055 119.6358,35.9055 119.0108,35.2805 119.0108,35.2805 117.1358,34.6555 117.1358,34.6555 111.5108,34.6555"/>
    <polygon points="170.0787,17.0079 170.0787,54.8031 170.0787,54.8031 132.2835,54.8031 132.2835,54.8031 132.2835,92.5984 132.2835,92.5984 170.0787,92.5984 170.0787,92.5984 207.874,92.5984 207.874,92.5984 207.874,54.8031 207.874,54.8031 207.874,17.0079 207.874,17.0079"/>
    <polyline points="170.0787,92.5984 170.0787,54.8031 170.0787,54.8031 207.874,54.8031 207.874,54.8031 245.6693,54.8031 245.6693,54.8031 245.6693,92.5984 245.6693,92.5984 245.6693,130.3937 245.6693,130.3937 207.874,130.3937 207.874,130.3937 170.0787,130.3937 170.0787,130.3937 132.2835,130.3937 132.2835,130.3937 132.2835,92.5984 132.2835,92.5984 94.4882,92.5984 94.4882,92.5984 94.4882,54.8031 94.4882,54.8031 56.6929,54.8031 56.6929,54.8031 18.8976,54.8031 18.8976,54.8031 18.8976,92.5984 18.8976,92.5984 56.6929,92.5984 56.6929,92.5984 94.4882,92.5984 94.4882,92.5984 94.4882,130.3937 94.4882,130.3937 56.6929,130.3937 56.6929,130.3937 56.6929,168.189 56.6929,168.189 94.4882,168.189 94.4882,168.189 94.4882,205.9843 94.4882,205.9843 94.4882,243.7795 94.4882,243.7795 132.2835,243.7795 132.2835,243.7795 132.2835,205.9843 132.2835,205.9843 132.2835,168.189 132.2835,168.189 170.0787,168.189 170.0787,168.189 207.874,168.189 207.874,168.189 207.874,130.3937 207.874,130.3937 207.874,92.5984 207.874,92.5984 245.6693,92.5984"/>
    <polyline points="173.2185,20.4897 173.2185,20.1772 173.2185,20.1772 173.531,19.5522 173.531,19.5522 173.8435,19.2397 173.8435,19.2397 174.4685,18.9272 174.4685,18.9272 175.7185,18.9272 175.7185,18.9272 176.3435,19.2397 176.3435,19.2397 176.656,19.5522 176.656,19.5522 176.9685,20.1772 176.9685,20.1772 176.9685,20.8022 176.9685,20.8022 176.656,21.4272 176.656,21.4272 176.031,22.3647 176.031,22.3647 172.906,25.4897 172.906,25.4897 177.281,25.4897"/>
    <polyline points="193.3514,28.4055 193.3514,38.4055 193.3514,38.4055 192.7264,40.2805 192.7264,40.2805 192.1014,40.9055 192.1014,40.9055 190.8514,41.5305 190.8514,41.5305 189.6014,41.5305 189.6014,41.5305 188.3514,40.9055 188.3514,40.9055 187.7264,40.2805 187.7264,40.2805 187.1014,38.4055 187.1014,38.4055 187.1014,37.1555"/>
    <polygon points="283.4646,17.0079 283.4646,54.8031 283.4646,54.8031 321.2598,54.8031 321.2598,54.8031 321.2598,17.0079 321.2598,17.0079"/>
    <polyline points="286.9168,18.9272 290.3543,18.9272 290.3543,18.9272 288.4793,21.4272 288.4793,21.4272 289.4168,21.4272 289.4168,21.4272 290.0418,21.7397 290.0418,21.7397 290.3543,22.0522 290.3543,22.0522 290.6668,22.9897 290.6668,22.9897 290.6668,23.6147 290.6668,23.6147 290.3543,24.5522 290.3543,24.5522 289.7293,25.1772 289.7293,25.1772 288.7918,25.4897 288.7918,25.4897 287.8543,25.4897 287.8543,25.4897 286.9168,25.1772 286.9168,25.1772 286.6043,24.8647 286.6043,24.8647 286.2918,24.2397"/>
    <polyline points="300.4872,28.4055 300.4872,37.7805 300.4872,37.7805 301.1122,39.6555 301.1122,39.6555 302.3622,40.9055 302.3622,40.9055 304.2372,41.5305 304.2372,41.5305 305.4872,41.5305 305.4872,41.5305 307.3622,40.9055 307.3622,40.9055 308.6122,39.6555 308.6122,39.6555 309.2372,37.7805 309.2372,37.7805 309.2372,28.4055"/>
    <polyline points="321.2598,54.8031 359.0551,54.8031 359.0551,54.8031 359.0551,17.0079 359.0551,17.0079 321.2598,17.0079"/>
    <line x1="342.6575" x2="342.6575" y1="28.4055" y2="41.5305"/>
    <polyline points="359.0551,54.8031 396.8504,54.8031 396.8504,54.8031 396.8504,17.0079 396.8504,17.0079 359.0551,17.0079"/>
    <line x1="378.5778" x2="378.5778" y1="28.4055" y2="41.5305"/>
    <line x1="374.2028" x2="382.9528" y1="28.4055" y2="28.4055"/>
    <polyline points="396.8504,54.8031 434.6457,54.8031 434.6457,54.8031 434.6457,17.0079 434.6457,17.0079 396.8504,17.0079"/>
    <polyline points="414.498,28.4055 414.498,41.5305 414.498,41.5305 421.998,41.5305"/>
    <polyline points="434.6457,54.8031 472.4409,54.8031 472.4409,54.8031 472.4409,17.0079 472.4409,17.0079 434.6457,17.0079"/>
    <line x1="456.0433" x2="456.0433" y1="28.4055" y2="41.5305"/>
    <polyline points="510.2362,17.0079 510.2362,54.8031 510.2362,54.8031 510.2362,92.5984 510.2362,92.5984 472.4409,92.5984 472.4409,92.5984 472.4409,54.8031 472.4409,54.8031 510.2362,54.8031 510.2362,54.8031 548.0315,54.8031 548.0315,54.8031 548.0315,17.0079 548.0315,17.0079 510.2362,17.0079 510.2362,17.0079 472.4409,17.0079"/>
    <polyline points="478.3932,25.4897 478.3932,18.9272 478.3932,18.9272 475.2682,23.3022 475.2682,23.3022 479.9557,23.3022"/>
    <line x1="489.4636" x2="489.4636" y1="28.4055" y2="41.5305"/>
    <line x1="498.2136" x2="489.4636" y1="28.4055" y2="37.1555"/>
    <line x1="492.5886" x2="498.2136" y1="34.0305" y2="41.5305"/>
    <line x1="527.2589" x2="527.2589" y1="28.4055" y2="41.5305"/>
    <line x1="536.0089" x2="527.2589" y1="28.4055" y2="37.1555"/>
    <line x1="530.3839" x2="536.0089" y1="34.0305" y2="41.5305"/>
    <polyline points="548.0315,54.8031 585.8268,54.8031 585.8268,54.8031 585.8268,17.0079 585.8268,17.0079 548.0315,17.0079"/>
    <polyline points="573.4916,28.4055 565.3666,28.4055 565.3666,28.4055 565.3666,41.5305 565.3666,41.5305 573.4916,41.5305"/>
    <line x1="565.3666" x2="570.3666" y1="34.6555" y2="34.6555"/>
    <polyline points="585.8268,54.8031 623.622,54.8031 623.622,54.8031 623.622,17.0079 623.622,17.0079 585.8268,17.0079"/>
    <polyline points="611.5994,28.4055 611.5994,41.5305 611.5994,41.5305 602.8494,28.4055 602.8494,28.4055 602.8494,41.5305"/>
    <line x1="56.6929" x2="56.6929" y1="92.5984" y2="54.8031"/>
    <polyline points="25.4749,56.7224 22.3499,56.7224 22.3499,56.7224 22.0374,59.5349 22.0374,59.5349 22.3499,59.2224 22.3499,59.2224 23.2874,58.9099 23.2874,58.9099 24.2249,58.9099 24.2249,58.9099 25.1624,59.2224 25.1624,59.2224 25.7874,59.8474 25.7874,59.8474 26.0999,60.7849 26.0999,60.7849 26.0999,61.4099 26.0999,61.4099 25.7874,62.3474 25.7874,62.3474 25.1624,62.9724 25.1624,62.9724 24.2249,63.2849 24.2249,63.2849 23.2874,63.2849 23.2874,63.2849 22.3499,62.9724 22.3499,62.9724 22.0374,62.6599 22.0374,62.6599 21.7249,62.0349"/>
    <line x1="38.4203" x2="38.4203" y1="66.2008" y2="79.3258"/>
    <line x1="34.0453" x2="42.7953" y1="66.2008" y2="66.2008"/>
    <polyline points="82.1531,66.2008 74.0281,66.2008 74.0281,66.2008 74.0281,79.3258 74.0281,79.3258 82.1531,79.3258"/>
    <line x1="74.0281" x2="79.0281" y1="72.4508" y2="72.4508"/>
    <polyline points="111.5108,72.4508 117.1358,72.4508 117.1358,72.4508 119.0108,71.8258 119.0108,71.8258 119.6358,71.2008 119.6358,71.2008 120.2608,69.9508 120.2608,69.9508 120.2608,68.7008 120.2608,68.7008 119.6358,67.4508 119.6358,67.4508 119.0108,66.8258 119.0108,66.8258 117.1358,66.2008 117.1358,66.2008 111.5108,66.2008 111.5108,66.2008 111.5108,79.3258"/>
    <line x1="115.8858" x2="120.2608" y1="72.4508" y2="79.3258"/>
    <polyline points="149.3061,72.4508 154.9311,72.4508 154.9311,72.4508 156.8061,71.8258 156.8061,71.8258 157.4311,71.2008 157.4311,71.2008 158.0561,69.9508 158.0561,69.9508 158.0561,68.7008 158.0561,68.7008 157.4311,67.4508 157.4311,67.4508 156.8061,66.8258 156.8061,66.8258 154.9311,66.2008 154.9311,66.2008 149.3061,66.2008 149.3061,66.2008 149.3061,79.3258"/>
    <line x1="153.6811" x2="158.0561" y1="72.4508" y2="79.3258"/>
    <polyline points="194.6014,79.3258 189.6014,66.2008 189.6014,66.2008 184.6014,79.3258"/>
    <line x1="186.4764" x2="192.7264" y1="74.9508" y2="74.9508"/>
    <polyline points="214.7638,57.6599 214.4513,57.0349 214.4513,57.0349 213.5138,56.7224 213.5138,56.7224 212.8888,56.7224 212.8888,56.7224 211.9513,57.0349 211.9513,57.0349 211.3263,57.9724 211.3263,57.9724 211.0138,59.5349 211.0138,59.5349 211.0138,61.0974 211.0138,61.0974 211.3263,62.3474 211.3263,62.3474 211.9513,62.9724 211.9513,62.9724 212.8888,63.2849 212.8888,63.2849 213.2013,63.2849 213.2013,63.2849 214.1388,62.9724 214.1388,62.9724 214.7638,62.3474 214.7638,62.3474 215.0763,61.4099 215.0763,61.4099 215.0763,61.0974 215.0763,61.0974 214.7638,60.1599 214.7638,60.1599 214.1388,59.5349 214.1388,59.5349 213.2013,59.2224 213.2013,59.2224 212.8888,59.2224 212.8888,59.2224 211.9513,59.5349 211.9513,59.5349 211.3263,60.1599 211.3263,60.1599 211.0138,61.0974"/>
    <polyline points="233.0217,68.0758 231.7717,66.8258 231.7717,66.8258 229.8967,66.2008 229.8967,66.2008 227.3967,66.2008 227.3967,66.2008 225.5217,66.8258 225.5217,66.8258 224.2717,68.0758 224.2717,68.0758 224.2717,69.3258 224.2717,69.3258 224.8967,70.5758 224.8967,70.5758 225.5217,71.2008 225.5217,71.2008 226.7717,71.8258 226.7717,71.8258 230.5217,73.0758 230.5217,73.0758 231.7717,73.7008 231.7717,73.7008 232.3967,74.3258 232.3967,74.3258 233.0217,75.5758 233.0217,75.5758 233.0217,77.4508 233.0217,77.4508 231.7717,78.7008 231.7717,78.7008 229.8967,79.3258 229.8967,79.3258 227.3967,79.3258 227.3967,79.3258 225.5217,78.7008 225.5217,78.7008 224.2717,77.4508"/>
    <polyline points="490.0886,66.2008 490.0886,79.3258 490.0886,79.3258 497.5886,79.3258"/>
    <polygon points="737.0079,54.8031 737.0079,92.5984 737.0079,92.5984 737.0079,130.3937 737.0079,130.3937 774.8031,130.3937 774.8031,130.3937 774.8031,92.5984 774.8031,92.5984 774.8031,54.8031 774.8031,54.8031"/>
    <line x1="737.0079" x2="774.8031" y1="92.5984" y2="92.5984"/>
    <polyline points="739.8351,56.7224 744.2101,56.7224 744.2101,56.7224 741.0851,63.2849"/>
    <polyline points="762.468,66.2008 754.343,66.2008 754.343,66.2008 754.343,79.3258"/>
    <line x1="754.343" x2="759.343" y1="72.4508" y2="72.4508"/>
    <polygon points="94.4882,130.3937 132.2835,130.3937 132.2835,130.3937 132.2835,168.189 132.2835,168.189 94.4882,168.189 94.4882,168.189"/>
    <polygon points="114.0108,103.9961 112.7608,104.6211 112.7608,104.6211 111.5108,105.8711 111.5108,105.8711 110.8858,107.1211 110.8858,107.1211 110.2608,108.9961 110.2608,108.9961 110.2608,112.1211 110.2608,112.1211 110.8858,113.9961 110.8858,113.9961 111.5108,115.2461 111.5108,115.2461 112.7608,116.4961 112.7608,116.4961 114.0108,117.1211 114.0108,117.1211 116.5108,117.1211 116.5108,117.1211 117.7608,116.4961 117.7608,116.4961 119.0108,115.2461 119.0108,115.2461 119.6358,113.9961 119.6358,113.9961 120.2608,112.1211 120.2608,112.1211 120.2608,108.9961 120.2608,108.9961 119.6358,107.1211 119.6358,107.1211 119.0108,105.8711 119.0108,105.8711 117.7608,104.6211 117.7608,104.6211 116.5108,103.9961 116.5108,103.9961"/>
    <line x1="224.8967" x2="224.8967" y1="103.9961" y2="117.1211"/>
    <line x1="233.6467" x2="224.8967" y1="103.9961" y2="112.7461"/>
    <line x1="228.0217" x2="233.6467" y1="109.6211" y2="117.1211"/>
    <polygon points="321.2598,92.5984 321.2598,130.3937 321.2598,130.3937 359.0551,130.3937 359.0551,130.3937 396.8504,130.3937 396.8504,130.3937 434.6457,130.3937 434.6457,130.3937 434.6457,92.5984 434.6457,92.5984 396.8504,92.5984 396.8504,92.5984 359.0551,92.5984 359.0551,92.5984"/>
    <line x1="359.0551" x2="359.0551" y1="130.3937" y2="92.5984"/>
    <polygon points="325.6496,94.5177 324.7121,94.8302 324.7121,94.8302 324.3996,95.4552 324.3996,95.4552 324.3996,96.0802 324.3996,96.0802 324.7121,96.7052 324.7121,96.7052 325.3371,97.0177 325.3371,97.0177 326.5871,97.3302 326.5871,97.3302 327.5246,97.6427 327.5246,97.6427 328.1496,98.2677 328.1496,98.2677 328.4621,98.8927 328.4621,98.8927 328.4621,99.8302 328.4621,99.8302 328.1496,100.4552 328.1496,100.4552 327.8371,100.7677 327.8371,100.7677 326.8996,101.0802 326.8996,101.0802 325.6496,101.0802 325.6496,101.0802 324.7121,100.7677 324.7121,100.7677 324.3996,100.4552 324.3996,100.4552 324.0871,99.8302 324.0871,99.8302 324.0871,98.8927 324.0871,98.8927 324.3996,98.2677 324.3996,98.2677 325.0246,97.6427 325.0246,97.6427 325.9621,97.3302 325.9621,97.3302 327.2121,97.0177 327.2121,97.0177 327.8371,96.7052 327.8371,96.7052 328.1496,96.0802 328.1496,96.0802 328.1496,95.4552 328.1496,95.4552 327.8371,94.8302 327.8371,94.8302 326.8996,94.5177 326.8996,94.5177"/>
    <polyline points="347.6575,117.1211 347.6575,103.9961 347.6575,103.9961 342.6575,117.1211 342.6575,117.1211 337.6575,103.9961 337.6575,103.9961 337.6575,117.1211"/>
    <line x1="396.8504" x2="396.8504" y1="130.3937" y2="92.5984"/>
    <polyline points="383.5778,117.1211 378.5778,103.9961 378.5778,103.9961 373.5778,117.1211"/>
    <line x1="375.4528" x2="381.7028" y1="112.7461" y2="112.7461"/>
    <polyline points="422.623,103.9961 422.623,117.1211 422.623,117.1211 413.873,103.9961 413.873,103.9961 413.873,117.1211"/>
    <polyline points="434.6457,130.3937 472.4409,130.3937 472.4409,130.3937 472.4409,92.5984 472.4409,92.5984 434.6457,92.5984"/>
    <polygon points="451.6683,103.9961 451.6683,117.1211 451.6683,117.1211 456.0433,117.1211 456.0433,117.1211 457.9183,116.4961 457.9183,116.4961 459.1683,115.2461 459.1683,115.2461 459.7933,113.9961 459.7933,113.9961 460.4183,112.1211 460.4183,112.1211 460.4183,108.9961 460.4183,108.9961 459.7933,107.1211 459.7933,107.1211 459.1683,105.8711 459.1683,105.8711 457.9183,104.6211 457.9183,104.6211 456.0433,103.9961 456.0433,103.9961"/>
    <polyline points="510.2362,168.189 510.2362,205.9843 510.2362,205.9843 510.2362,243.7795 510.2362,243.7795 472.4409,243.7795 472.4409,243.7795 472.4409,205.9843 472.4409,205.9843 472.4409,168.189 472.4409,168.189 472.4409,130.3937 472.4409,130.3937 510.2362,130.3937 510.2362,130.3937 548.0315,130.3937 548.0315,130.3937 548.0315,92.5984 548.0315,92.5984 510.2362,92.5984 510.2362,92.5984 510.2362,130.3937 510.2362,130.3937 510.2362,168.189 510.2362,168.189 472.4409,168.189 472.4409,168.189 434.6457,168.189 434.6457,168.189 396.8504,168.189 396.8504,168.189 359.0551,168.189 359.0551,168.189 321.2598,168.189 321.2598,168.189 283.4646,168.189 283.4646,168.189 283.4646,205.9843 283.4646,205.9843 321.2598,205.9843 321.2598,205.9843 359.0551,205.9843 359.0551,205.9843 359.0551,168.189"/>
    <polyline points="496.9636,117.1211 491.9636,103.9961 491.9636,103.9961 486.9636,117.1211"/>
    <line x1="488.8386" x2="495.0886" y1="112.7461" y2="112.7461"/>
    <polyline points="527.2589,110.2461 532.8839,110.2461 532.8839,110.2461 534.7589,109.6211 534.7589,109.6211 535.3839,108.9961 535.3839,108.9961 536.0089,107.7461 536.0089,107.7461 536.0089,106.4961 536.0089,106.4961 535.3839,105.2461 535.3839,105.2461 534.7589,104.6211 534.7589,104.6211 532.8839,103.9961 532.8839,103.9961 527.2589,103.9961 527.2589,103.9961 527.2589,117.1211"/>
    <line x1="531.6339" x2="536.0089" y1="110.2461" y2="117.1211"/>
    <polyline points="548.0315,130.3937 585.8268,130.3937 585.8268,130.3937 585.8268,92.5984 585.8268,92.5984 548.0315,92.5984"/>
    <line x1="569.4291" x2="569.4291" y1="103.9961" y2="117.1211"/>
    <polyline points="623.622,92.5984 623.622,130.3937 623.622,130.3937 623.622,168.189 623.622,168.189 585.8268,168.189 585.8268,168.189 585.8268,130.3937 585.8268,130.3937 623.622,130.3937 623.622,130.3937 661.4173,130.3937 661.4173,130.3937 661.4173,92.5984 661.4173,92.5984 623.622,92.5984 623.622,92.5984 585.8268,92.5984"/>
    <polyline points="592.7165,96.7052 592.404,97.6427 592.404,97.6427 591.779,98.2677 591.779,98.2677 590.8415,98.5802 590.8415,98.5802 590.529,98.5802 590.529,98.5802 589.5915,98.2677 589.5915,98.2677 588.9665,97.6427 588.9665,97.6427 588.654,96.7052 588.654,96.7052 588.654,96.3927 588.654,96.3927 588.9665,95.4552 588.9665,95.4552 589.5915,94.8302 589.5915,94.8302 590.529,94.5177 590.529,94.5177 590.8415,94.5177 590.8415,94.5177 591.779,94.8302 591.779,94.8302 592.404,95.4552 592.404,95.4552 592.7165,96.7052 592.7165,96.7052 592.7165,98.2677 592.7165,98.2677 592.404,99.8302 592.404,99.8302 591.779,100.7677 591.779,100.7677 590.8415,101.0802 590.8415,101.0802 590.2165,101.0802 590.2165,101.0802 589.279,100.7677 589.279,100.7677 588.9665,100.1427"/>
    <polyline points="609.0994,103.9961 609.0994,113.9961 609.0994,113.9961 608.4744,115.8711 608.4744,115.8711 607.8494,116.4961 607.8494,116.4961 606.5994,117.1211 606.5994,117.1211 605.3494,117.1211 605.3494,117.1211 604.0994,116.4961 604.0994,116.4961 603.4744,115.8711 603.4744,115.8711 602.8494,113.9961 602.8494,113.9961 602.8494,112.7461"/>
    <polyline points="649.3947,103.9961 649.3947,117.1211 649.3947,117.1211 640.6447,103.9961 640.6447,103.9961 640.6447,117.1211"/>
    <polyline points="754.6555,103.9961 754.6555,117.1211 754.6555,117.1211 762.1555,117.1211"/>
    <polyline points="60.4577,133.563 61.0827,133.2505 61.0827,133.2505 62.0202,132.313 62.0202,132.313 62.0202,138.8755"/>
    <polygon points="67.6452,132.313 66.7077,132.6255 66.7077,132.6255 66.0827,133.563 66.0827,133.563 65.7702,135.1255 65.7702,135.1255 65.7702,136.063 65.7702,136.063 66.0827,137.6255 66.0827,137.6255 66.7077,138.563 66.7077,138.563 67.6452,138.8755 67.6452,138.8755 68.2702,138.8755 68.2702,138.8755 69.2077,138.563 69.2077,138.563 69.8327,137.6255 69.8327,137.6255 70.1452,136.063 70.1452,136.063 70.1452,135.1255 70.1452,135.1255 69.8327,133.563 69.8327,133.563 69.2077,132.6255 69.2077,132.6255 68.2702,132.313 68.2702,132.313"/>
    <polyline points="79.9656,141.7913 79.9656,151.7913 79.9656,151.7913 79.3406,153.6663 79.3406,153.6663 78.7156,154.2913 78.7156,154.2913 77.4656,154.9163 77.4656,154.9163 76.2156,154.9163 76.2156,154.9163 74.9656,154.2913 74.9656,154.2913 74.3406,153.6663 74.3406,153.6663 73.7156,151.7913 73.7156,151.7913 73.7156,150.5413"/>
    <polyline points="119.9483,141.7913 111.8233,141.7913 111.8233,141.7913 111.8233,154.9163 111.8233,154.9163 119.9483,154.9163"/>
    <line x1="111.8233" x2="116.8233" y1="148.0413" y2="148.0413"/>
    <line x1="170.0787" x2="170.0787" y1="168.189" y2="130.3937"/>
    <polyline points="149.3061,148.0413 154.9311,148.0413 154.9311,148.0413 156.8061,147.4163 156.8061,147.4163 157.4311,146.7913 157.4311,146.7913 158.0561,145.5413 158.0561,145.5413 158.0561,144.2913 158.0561,144.2913 157.4311,143.0413 157.4311,143.0413 156.8061,142.4163 156.8061,142.4163 154.9311,141.7913 154.9311,141.7913 149.3061,141.7913 149.3061,141.7913 149.3061,154.9163"/>
    <line x1="153.6811" x2="158.0561" y1="148.0413" y2="154.9163"/>
    <polygon points="189.6014,141.7913 188.3514,142.4163 188.3514,142.4163 187.1014,143.6663 187.1014,143.6663 186.4764,144.9163 186.4764,144.9163 185.8514,146.7913 185.8514,146.7913 185.8514,149.9163 185.8514,149.9163 186.4764,151.7913 186.4764,151.7913 187.1014,153.0413 187.1014,153.0413 188.3514,154.2913 188.3514,154.2913 189.6014,154.9163 189.6014,154.9163 192.1014,154.9163 192.1014,154.9163 193.3514,154.2913 193.3514,154.2913 194.6014,153.0413 194.6014,153.0413 195.2264,151.7913 195.2264,151.7913 195.8514,149.9163 195.8514,149.9163 195.8514,146.7913 195.8514,146.7913 195.2264,144.9163 195.2264,144.9163 194.6014,143.6663 194.6014,143.6663 193.3514,142.4163 193.3514,142.4163 192.1014,141.7913 192.1014,141.7913"/>
    <polyline points="207.874,205.9843 207.874,168.189 207.874,168.189 245.6693,168.189 245.6693,168.189 245.6693,130.3937 245.6693,130.3937 283.4646,130.3937 283.4646,130.3937 283.4646,168.189 283.4646,168.189 245.6693,168.189 245.6693,168.189 245.6693,205.9843 245.6693,205.9843 207.874,205.9843 207.874,205.9843 207.874,243.7795 207.874,243.7795 245.6693,243.7795 245.6693,243.7795 245.6693,205.9843"/>
    <polyline points="233.3342,141.7913 225.2092,141.7913 225.2092,141.7913 225.2092,154.9163 225.2092,154.9163 233.3342,154.9163"/>
    <line x1="225.2092" x2="230.2092" y1="148.0413" y2="148.0413"/>
    <polyline points="271.4419,141.7913 271.4419,154.9163 271.4419,154.9163 262.6919,141.7913 262.6919,141.7913 262.6919,154.9163"/>
    <polyline points="486.9636,141.7913 491.9636,154.9163 491.9636,154.9163 496.9636,141.7913"/>
    <polygon points="605.3494,141.7913 604.0994,142.4163 604.0994,142.4163 602.8494,143.6663 602.8494,143.6663 602.2244,144.9163 602.2244,144.9163 601.5994,146.7913 601.5994,146.7913 601.5994,149.9163 601.5994,149.9163 602.2244,151.7913 602.2244,151.7913 602.8494,153.0413 602.8494,153.0413 604.0994,154.2913 604.0994,154.2913 605.3494,154.9163 605.3494,154.9163 607.8494,154.9163 607.8494,154.9163 609.0994,154.2913 609.0994,154.2913 610.3494,153.0413 610.3494,153.0413 610.9744,151.7913 610.9744,151.7913 611.5994,149.9163 611.5994,149.9163 611.5994,146.7913 611.5994,146.7913 610.9744,144.9163 610.9744,144.9163 610.3494,143.6663 610.3494,143.6663 609.0994,142.4163 609.0994,142.4163 607.8494,141.7913 607.8494,141.7913"/>
    <polyline points="737.0079,130.3937 737.0079,168.189 737.0079,168.189 737.0079,205.9843 737.0079,205.9843 774.8031,205.9843 774.8031,205.9843 774.8031,168.189 774.8031,168.189 774.8031,130.3937"/>
    <line x1="737.0079" x2="774.8031" y1="168.189" y2="168.189"/>
    <polygon points="756.5305,141.7913 755.2805,142.4163 755.2805,142.4163 754.0305,143.6663 754.0305,143.6663 753.4055,144.9163 753.4055,144.9163 752.7805,146.7913 752.7805,146.7913 752.7805,149.9163 752.7805,149.9163 753.4055,151.7913 753.4055,151.7913 754.0305,153.0413 754.0305,153.0413 755.2805,154.2913 755.2805,154.2913 756.5305,154.9163 756.5305,154.9163 759.0305,154.9163 759.0305,154.9163 760.2805,154.2913 760.2805,154.2913 761.5305,153.0413 761.5305,153.0413 762.1555,151.7913 762.1555,151.7913 762.7805,149.9163 762.7805,149.9163 762.7805,146.7913 762.7805,146.7913 762.1555,144.9163 762.1555,144.9163 761.5305,143.6663 761.5305,143.6663 760.2805,142.4163 760.2805,142.4163 759.0305,141.7913 759.0305,141.7913"/>
    <line x1="94.4882" x2="132.2835" y1="205.9843" y2="205.9843"/>
    <line x1="111.5108" x2="111.5108" y1="179.5866" y2="192.7116"/>
    <line x1="120.2608" x2="111.5108" y1="179.5866" y2="188.3366"/>
    <line x1="114.6358" x2="120.2608" y1="185.2116" y2="192.7116"/>
    <polyline points="225.5217,179.5866 225.5217,192.7116 225.5217,192.7116 233.0217,192.7116"/>
    <line x1="321.2598" x2="321.2598" y1="205.9843" y2="168.189"/>
    <polyline points="287.2293,171.3583 287.8543,171.0458 287.8543,171.0458 288.7918,170.1083 288.7918,170.1083 288.7918,176.6708"/>
    <polyline points="293.4793,171.3583 294.1043,171.0458 294.1043,171.0458 295.0418,170.1083 295.0418,170.1083 295.0418,176.6708"/>
    <line x1="304.8622" x2="304.8622" y1="179.5866" y2="192.7116"/>
    <polyline points="346.4075,181.4616 345.1575,180.2116 345.1575,180.2116 343.2825,179.5866 343.2825,179.5866 340.7825,179.5866 340.7825,179.5866 338.9075,180.2116 338.9075,180.2116 337.6575,181.4616 337.6575,181.4616 337.6575,182.7116 337.6575,182.7116 338.2825,183.9616 338.2825,183.9616 338.9075,184.5866 338.9075,184.5866 340.1575,185.2116 340.1575,185.2116 343.9075,186.4616 343.9075,186.4616 345.1575,187.0866 345.1575,187.0866 345.7825,187.7116 345.7825,187.7116 346.4075,188.9616 346.4075,188.9616 346.4075,190.8366 346.4075,190.8366 345.1575,192.0866 345.1575,192.0866 343.2825,192.7116 343.2825,192.7116 340.7825,192.7116 340.7825,192.7116 338.9075,192.0866 338.9075,192.0866 337.6575,190.8366"/>
    <polyline points="359.0551,205.9843 396.8504,205.9843 396.8504,205.9843 434.6457,205.9843 434.6457,205.9843 434.6457,168.189"/>
    <line x1="396.8504" x2="396.8504" y1="205.9843" y2="168.189"/>
    <polygon points="378.5778,179.5866 377.3278,180.2116 377.3278,180.2116 376.0778,181.4616 376.0778,181.4616 375.4528,182.7116 375.4528,182.7116 374.8278,184.5866 374.8278,184.5866 374.8278,187.7116 374.8278,187.7116 375.4528,189.5866 375.4528,189.5866 376.0778,190.8366 376.0778,190.8366 377.3278,192.0866 377.3278,192.0866 378.5778,192.7116 378.5778,192.7116 381.0778,192.7116 381.0778,192.7116 382.3278,192.0866 382.3278,192.0866 383.5778,190.8366 383.5778,190.8366 384.2028,189.5866 384.2028,189.5866 384.8278,187.7116 384.8278,187.7116 384.8278,184.5866 384.8278,184.5866 384.2028,182.7116 384.2028,182.7116 383.5778,181.4616 383.5778,181.4616 382.3278,180.2116 382.3278,180.2116 381.0778,179.5866 381.0778,179.5866"/>
    <polyline points="414.498,179.5866 414.498,192.7116 414.498,192.7116 421.998,192.7116"/>
    <polyline points="434.6457,205.9843 472.4409,205.9843 472.4409,205.9843 510.2362,205.9843 510.2362,205.9843 548.0315,205.9843 548.0315,205.9843 585.8268,205.9843 585.8268,205.9843 585.8268,243.7795 585.8268,243.7795 548.0315,243.7795 548.0315,243.7795 548.0315,205.9843"/>
    <polygon points="451.6683,179.5866 451.6683,192.7116 451.6683,192.7116 456.0433,192.7116 456.0433,192.7116 457.9183,192.0866 457.9183,192.0866 459.1683,190.8366 459.1683,190.8366 459.7933,189.5866 459.7933,189.5866 460.4183,187.7116 460.4183,187.7116 460.4183,184.5866 460.4183,184.5866 459.7933,182.7116 459.7933,182.7116 459.1683,181.4616 459.1683,181.4616 457.9183,180.2116 457.9183,180.2116 456.0433,179.5866 456.0433,179.5866"/>
    <polyline points="497.9011,179.5866 489.7761,179.5866 489.7761,179.5866 489.7761,192.7116 489.7761,192.7116 497.9011,192.7116"/>
    <line x1="489.7761" x2="494.7761" y1="185.8366" y2="185.8366"/>
    <polyline points="585.8268,168.189 585.8268,205.9843 585.8268,205.9843 623.622,205.9843 623.622,205.9843 623.622,168.189"/>
    <polyline points="603.4744,179.5866 603.4744,192.7116 603.4744,192.7116 610.9744,192.7116"/>
    <polyline points="754.0305,185.8366 759.6555,185.8366 759.6555,185.8366 761.5305,185.2116 761.5305,185.2116 762.1555,184.5866 762.1555,184.5866 762.7805,183.3366 762.7805,183.3366 762.7805,182.0866 762.7805,182.0866 762.1555,180.8366 762.1555,180.8366 761.5305,180.2116 761.5305,180.2116 759.6555,179.5866 759.6555,179.5866 754.0305,179.5866 754.0305,179.5866 754.0305,192.7116"/>
    <line x1="758.4055" x2="762.7805" y1="185.8366" y2="192.7116"/>
    <polyline points="110.8858,217.3819 119.6358,217.3819 119.6358,217.3819 110.8858,230.5069 110.8858,230.5069 119.6358,230.5069"/>
    <polyline points="225.5217,217.3819 225.5217,230.5069 225.5217,230.5069 233.0217,230.5069"/>
    <polyline points="476.2057,209.1535 476.8307,208.841 476.8307,208.841 477.7682,207.9035 477.7682,207.9035 477.7682,214.466"/>
    <polyline points="481.8307,209.466 481.8307,209.1535 481.8307,209.1535 482.1432,208.5285 482.1432,208.5285 482.4557,208.216 482.4557,208.216 483.0807,207.9035 483.0807,207.9035 484.3307,207.9035 484.3307,207.9035 484.9557,208.216 484.9557,208.216 485.2682,208.5285 485.2682,208.5285 485.5807,209.1535 485.5807,209.1535 485.5807,209.7785 485.5807,209.7785 485.2682,210.4035 485.2682,210.4035 484.6432,211.341 484.6432,211.341 481.5182,214.466 481.5182,214.466 485.8932,214.466"/>
    <polyline points="489.4636,223.6319 495.0886,223.6319 495.0886,223.6319 496.9636,223.0069 496.9636,223.0069 497.5886,222.3819 497.5886,222.3819 498.2136,221.1319 498.2136,221.1319 498.2136,219.8819 498.2136,219.8819 497.5886,218.6319 497.5886,218.6319 496.9636,218.0069 496.9636,218.0069 495.0886,217.3819 495.0886,217.3819 489.4636,217.3819 489.4636,217.3819 489.4636,230.5069"/>
    <line x1="493.8386" x2="498.2136" y1="223.6319" y2="230.5069"/>
    <polyline points="321.2598,243.7795 321.2598,281.5748 321.2598,281.5748 359.0551,281.5748 359.0551,281.5748 359.0551,243.7795 359.0551,243.7795 321.2598,243.7795 321.2598,243.7795 283.4646,243.7795 283.4646,243.7795 245.6693,243.7795 245.6693,243.7795 245.6693,281.5748 245.6693,281.5748 245.6693,319.3701 245.6693,319.3701 283.4646,319.3701 283.4646,319.3701 321.2598,319.3701 321.2598,319.3701 359.0551,319.3701 359.0551,319.3701 396.8504,319.3701 396.8504,319.3701 434.6457,319.3701 434.6457,319.3701 472.4409,319.3701 472.4409,319.3701 510.2362,319.3701 510.2362,319.3701 510.2362,281.5748 510.2362,281.5748 510.2362,243.7795 510.2362,243.7795 548.0315,243.7795"/>
    <polyline points="535.6964,217.3819 527.5714,217.3819 527.5714,217.3819 527.5714,230.5069 527.5714,230.5069 535.6964,230.5069"/>
    <line x1="527.5714" x2="532.5714" y1="223.6319" y2="223.6319"/>
    <polyline points="573.4916,220.5069 572.8666,219.2569 572.8666,219.2569 571.6166,218.0069 571.6166,218.0069 570.3666,217.3819 570.3666,217.3819 567.8666,217.3819 567.8666,217.3819 566.6166,218.0069 566.6166,218.0069 565.3666,219.2569 565.3666,219.2569 564.7416,220.5069 564.7416,220.5069 564.1166,222.3819 564.1166,222.3819 564.1166,225.5069 564.1166,225.5069 564.7416,227.3819 564.7416,227.3819 565.3666,228.6319 565.3666,228.6319 566.6166,229.8819 566.6166,229.8819 567.8666,230.5069 567.8666,230.5069 570.3666,230.5069 570.3666,230.5069 571.6166,229.8819 571.6166,229.8819 572.8666,228.6319 572.8666,228.6319 573.4916,227.3819 573.4916,227.3819 573.4916,225.5069 573.4916,225.5069 570.3666,225.5069"/>
    <polyline points="585.8268,281.5748 585.8268,243.7795 585.8268,243.7795 623.622,243.7795 623.622,243.7795 661.4173,243.7795 661.4173,243.7795 699.2126,243.7795 699.2126,243.7795 699.2126,205.9843 699.2126,205.9843 661.4173,205.9843 661.4173,205.9843 623.622,205.9843 623.622,205.9843 623.622,243.7795 623.622,243.7795 623.622,281.5748 623.622,281.5748 585.8268,281.5748 585.8268,281.5748 585.8268,319.3701 585.8268,319.3701 585.8268,357.1654 585.8268,357.1654 623.622,357.1654 623.622,357.1654 623.622,319.3701 623.622,319.3701 623.622,281.5748 623.622,281.5748 661.4173,281.5748 661.4173,281.5748 699.2126,281.5748 699.2126,281.5748 699.2126,319.3701 699.2126,319.3701 661.4173,319.3701 661.4173,319.3701 661.4173,281.5748"/>
    <polyline points="611.2869,217.3819 603.1619,217.3819 603.1619,217.3819 603.1619,230.5069 603.1619,230.5069 611.2869,230.5069"/>
    <line x1="603.1619" x2="608.1619" y1="223.6319" y2="223.6319"/>
    <line x1="661.4173" x2="661.4173" y1="243.7795" y2="205.9843"/>
    <polyline points="649.3947,217.3819 649.3947,230.5069 649.3947,230.5069 640.6447,217.3819 640.6447,217.3819 640.6447,230.5069"/>
    <polygon points="678.44,217.3819 678.44,230.5069 678.44,230.5069 684.065,230.5069 684.065,230.5069 685.94,229.8819 685.94,229.8819 686.565,229.2569 686.565,229.2569 687.19,228.0069 687.19,228.0069 687.19,226.1319 687.19,226.1319 686.565,224.8819 686.565,224.8819 685.94,224.2569 685.94,224.2569 684.065,223.6319 684.065,223.6319 685.94,223.0069 685.94,223.0069 686.565,222.3819 686.565,222.3819 687.19,221.1319 687.19,221.1319 687.19,219.8819 687.19,219.8819 686.565,218.6319 686.565,218.6319 685.94,218.0069 685.94,218.0069 684.065,217.3819 684.065,217.3819"/>
    <line x1="678.44" x2="684.065" y1="223.6319" y2="223.6319"/>
    <polyline points="699.2126,243.7795 737.0079,243.7795 737.0079,243.7795 774.8031,243.7795 774.8031,243.7795 774.8031,205.9843"/>
    <polyline points="699.2126,281.5748 737.0079,281.5748 737.0079,281.5748 737.0079,243.7795 737.0079,243.7795 737.0079,205.9843 737.0079,205.9843 699.2126,205.9843"/>
    <polyline points="716.2352,217.3819 716.2352,226.7569 716.2352,226.7569 716.8602,228.6319 716.8602,228.6319 718.1102,229.8819 718.1102,229.8819 719.9852,230.5069 719.9852,230.5069 721.2352,230.5069 721.2352,230.5069 723.1102,229.8819 723.1102,229.8819 724.3602,228.6319 724.3602,228.6319 724.9852,226.7569 724.9852,226.7569 724.9852,217.3819"/>
    <line x1="758.4055" x2="758.4055" y1="217.3819" y2="230.5069"/>
    <polyline points="170.0787,281.5748 170.0787,243.7795 170.0787,243.7795 132.2835,243.7795 132.2835,243.7795 132.2835,281.5748 132.2835,281.5748 94.4882,281.5748 94.4882,281.5748 94.4882,243.7795 94.4882,243.7795 56.6929,243.7795 56.6929,243.7795 56.6929,281.5748 56.6929,281.5748 94.4882,281.5748 94.4882,281.5748 94.4882,319.3701 94.4882,319.3701 132.2835,319.3701 132.2835,319.3701 132.2835,281.5748 132.2835,281.5748 170.0787,281.5748 170.0787,281.5748 207.874,281.5748 207.874,281.5748 245.6693,281.5748 245.6693,281.5748 283.4646,281.5748 283.4646,281.5748 321.2598,281.5748"/>
    <polyline points="60.4577,246.9488 61.0827,246.6363 61.0827,246.6363 62.0202,245.6988 62.0202,245.6988 62.0202,252.2613"/>
    <polyline points="66.3952,245.6988 69.8327,245.6988 69.8327,245.6988 67.9577,248.1988 67.9577,248.1988 68.8952,248.1988 68.8952,248.1988 69.5202,248.5113 69.5202,248.5113 69.8327,248.8238 69.8327,248.8238 70.1452,249.7613 70.1452,249.7613 70.1452,250.3863 70.1452,250.3863 69.8327,251.3238 69.8327,251.3238 69.2077,251.9488 69.2077,251.9488 68.2702,252.2613 68.2702,252.2613 67.3327,252.2613 67.3327,252.2613 66.3952,251.9488 66.3952,251.9488 66.0827,251.6363 66.0827,251.6363 65.7702,251.0113"/>
    <polyline points="73.7156,262.0522 79.3406,262.0522 79.3406,262.0522 81.2156,261.4272 81.2156,261.4272 81.8406,260.8022 81.8406,260.8022 82.4656,259.5522 82.4656,259.5522 82.4656,257.6772 82.4656,257.6772 81.8406,256.4272 81.8406,256.4272 81.2156,255.8022 81.2156,255.8022 79.3406,255.1772 79.3406,255.1772 73.7156,255.1772 73.7156,255.1772 73.7156,268.3022"/>
    <polyline points="119.0108,268.3022 114.0108,255.1772 114.0108,255.1772 109.0108,268.3022"/>
    <line x1="110.8858" x2="117.1358" y1="263.9272" y2="263.9272"/>
    <polyline points="149.3061,261.4272 154.9311,261.4272 154.9311,261.4272 156.8061,260.8022 156.8061,260.8022 157.4311,260.1772 157.4311,260.1772 158.0561,258.9272 158.0561,258.9272 158.0561,257.6772 158.0561,257.6772 157.4311,256.4272 157.4311,256.4272 156.8061,255.8022 156.8061,255.8022 154.9311,255.1772 154.9311,255.1772 149.3061,255.1772 149.3061,255.1772 149.3061,268.3022"/>
    <line x1="153.6811" x2="158.0561" y1="261.4272" y2="268.3022"/>
    <polyline points="207.874,357.1654 170.0787,357.1654 170.0787,357.1654 170.0787,319.3701 170.0787,319.3701 207.874,319.3701 207.874,319.3701 207.874,357.1654 207.874,357.1654 245.6693,357.1654 245.6693,357.1654 245.6693,319.3701 245.6693,319.3701 207.874,319.3701 207.874,319.3701 207.874,281.5748 207.874,281.5748 207.874,243.7795 207.874,243.7795 170.0787,243.7795"/>
    <line x1="187.1014" x2="187.1014" y1="255.1772" y2="268.3022"/>
    <line x1="195.8514" x2="187.1014" y1="255.1772" y2="263.9272"/>
    <line x1="190.2264" x2="195.8514" y1="260.8022" y2="268.3022"/>
    <polyline points="233.3342,255.1772 225.2092,255.1772 225.2092,255.1772 225.2092,268.3022 225.2092,268.3022 233.3342,268.3022"/>
    <line x1="225.2092" x2="230.2092" y1="261.4272" y2="261.4272"/>
    <line x1="283.4646" x2="283.4646" y1="281.5748" y2="243.7795"/>
    <polyline points="262.6919,261.4272 268.3169,261.4272 268.3169,261.4272 270.1919,260.8022 270.1919,260.8022 270.8169,260.1772 270.8169,260.1772 271.4419,258.9272 271.4419,258.9272 271.4419,257.6772 271.4419,257.6772 270.8169,256.4272 270.8169,256.4272 270.1919,255.8022 270.1919,255.8022 268.3169,255.1772 268.3169,255.1772 262.6919,255.1772 262.6919,255.1772 262.6919,268.3022"/>
    <line x1="267.0669" x2="271.4419" y1="261.4272" y2="268.3022"/>
    <polyline points="308.9247,255.1772 300.7997,255.1772 300.7997,255.1772 300.7997,268.3022 300.7997,268.3022 308.9247,268.3022"/>
    <line x1="300.7997" x2="305.7997" y1="261.4272" y2="261.4272"/>
    <polyline points="347.0325,255.1772 347.0325,268.3022 347.0325,268.3022 338.2825,255.1772 338.2825,255.1772 338.2825,268.3022"/>
    <polyline points="472.4409,243.7795 472.4409,281.5748 472.4409,281.5748 510.2362,281.5748"/>
    <line x1="491.9636" x2="491.9636" y1="255.1772" y2="268.3022"/>
    <line x1="487.5886" x2="496.3386" y1="255.1772" y2="255.1772"/>
    <polyline points="611.5994,255.1772 611.5994,268.3022 611.5994,268.3022 602.8494,255.1772 602.8494,255.1772 602.8494,268.3022"/>
    <polyline points="774.8031,281.5748 774.8031,319.3701 774.8031,319.3701 737.0079,319.3701 737.0079,319.3701 737.0079,281.5748 737.0079,281.5748 774.8031,281.5748 774.8031,281.5748 774.8031,243.7795"/>
    <polyline points="761.5305,268.3022 756.5305,255.1772 756.5305,255.1772 751.5305,268.3022"/>
    <line x1="753.4055" x2="759.6555" y1="263.9272" y2="263.9272"/>
    <line x1="111.5108" x2="111.5108" y1="292.9724" y2="306.0974"/>
    <line x1="120.2608" x2="111.5108" y1="292.9724" y2="301.7224"/>
    <line x1="114.6358" x2="120.2608" y1="298.5974" y2="306.0974"/>
    <line x1="224.8967" x2="224.8967" y1="292.9724" y2="306.0974"/>
    <line x1="233.6467" x2="224.8967" y1="292.9724" y2="301.7224"/>
    <line x1="228.0217" x2="233.6467" y1="298.5974" y2="306.0974"/>
    <polyline points="472.4409,281.5748 472.4409,319.3701 472.4409,319.3701 472.4409,357.1654 472.4409,357.1654 510.2362,357.1654 510.2362,357.1654 510.2362,319.3701"/>
    <polyline points="495.7136,292.9724 495.7136,302.9724 495.7136,302.9724 495.0886,304.8474 495.0886,304.8474 494.4636,305.4724 494.4636,305.4724 493.2136,306.0974 493.2136,306.0974 491.9636,306.0974 491.9636,306.0974 490.7136,305.4724 490.7136,305.4724 490.0886,304.8474 490.0886,304.8474 489.4636,302.9724 489.4636,302.9724 489.4636,301.7224"/>
    <polyline points="585.8268,319.3701 623.622,319.3701 623.622,319.3701 661.4173,319.3701"/>
    <polyline points="589.5915,284.7441 590.2165,284.4316 590.2165,284.4316 591.154,283.4941 591.154,283.4941 591.154,290.0566"/>
    <polyline points="598.029,290.0566 598.029,283.4941 598.029,283.4941 594.904,287.8691 594.904,287.8691 599.5915,287.8691"/>
    <line x1="605.3494" x2="605.3494" y1="292.9724" y2="306.0974"/>
    <line x1="600.9744" x2="609.7244" y1="292.9724" y2="292.9724"/>
    <polyline points="640.6447,299.2224 646.2697,299.2224 646.2697,299.2224 648.1447,298.5974 648.1447,298.5974 648.7697,297.9724 648.7697,297.9724 649.3947,296.7224 649.3947,296.7224 649.3947,295.4724 649.3947,295.4724 648.7697,294.2224 648.7697,294.2224 648.1447,293.5974 648.1447,293.5974 646.2697,292.9724 646.2697,292.9724 640.6447,292.9724 640.6447,292.9724 640.6447,306.0974"/>
    <line x1="645.0197" x2="649.3947" y1="299.2224" y2="306.0974"/>
    <polyline points="686.8775,292.9724 678.7525,292.9724 678.7525,292.9724 678.7525,306.0974 678.7525,306.0974 686.8775,306.0974"/>
    <line x1="678.7525" x2="683.7525" y1="299.2224" y2="299.2224"/>
    <line x1="699.2126" x2="737.0079" y1="319.3701" y2="319.3701"/>
    <line x1="720.6102" x2="720.6102" y1="292.9724" y2="306.0974"/>
    <polyline points="762.7805,292.9724 762.7805,306.0974 762.7805,306.0974 754.0305,292.9724 754.0305,292.9724 754.0305,306.0974"/>
    <polyline points="173.8435,322.5394 174.4685,322.2269 174.4685,322.2269 175.406,321.2894 175.406,321.2894 175.406,327.8519"/>
    <polyline points="182.906,321.2894 179.781,321.2894 179.781,321.2894 179.4685,324.1019 179.4685,324.1019 179.781,323.7894 179.781,323.7894 180.7185,323.4769 180.7185,323.4769 181.656,323.4769 181.656,323.4769 182.5935,323.7894 182.5935,323.7894 183.2185,324.4144 183.2185,324.4144 183.531,325.3519 183.531,325.3519 183.531,325.9769 183.531,325.9769 183.2185,326.9144 183.2185,326.9144 182.5935,327.5394 182.5935,327.5394 181.656,327.8519 181.656,327.8519 180.7185,327.8519 180.7185,327.8519 179.781,327.5394 179.781,327.5394 179.4685,327.2269 179.4685,327.2269 179.156,326.6019"/>
    <polyline points="187.1014,337.0177 192.7264,337.0177 192.7264,337.0177 194.6014,336.3927 194.6014,336.3927 195.2264,335.7677 195.2264,335.7677 195.8514,334.5177 195.8514,334.5177 195.8514,333.2677 195.8514,333.2677 195.2264,332.0177 195.2264,332.0177 194.6014,331.3927 194.6014,331.3927 192.7264,330.7677 192.7264,330.7677 187.1014,330.7677 187.1014,330.7677 187.1014,343.8927"/>
    <line x1="191.4764" x2="195.8514" y1="337.0177" y2="343.8927"/>
    <polyline points="233.3342,330.7677 225.2092,330.7677 225.2092,330.7677 225.2092,343.8927 225.2092,343.8927 233.3342,343.8927"/>
    <line x1="225.2092" x2="230.2092" y1="337.0177" y2="337.0177"/>
    <polyline points="245.6693,357.1654 283.4646,357.1654 283.4646,357.1654 321.2598,357.1654 321.2598,357.1654 359.0551,357.1654 359.0551,357.1654 359.0551,319.3701"/>
    <line x1="283.4646" x2="283.4646" y1="357.1654" y2="319.3701"/>
    <line x1="262.6919" x2="262.6919" y1="330.7677" y2="343.8927"/>
    <line x1="271.4419" x2="262.6919" y1="330.7677" y2="339.5177"/>
    <line x1="265.8169" x2="271.4419" y1="336.3927" y2="343.8927"/>
    <line x1="321.2598" x2="321.2598" y1="357.1654" y2="319.3701"/>
    <line x1="300.4872" x2="300.4872" y1="330.7677" y2="343.8927"/>
    <line x1="309.2372" x2="300.4872" y1="330.7677" y2="339.5177"/>
    <line x1="303.6122" x2="309.2372" y1="336.3927" y2="343.8927"/>
    <polyline points="346.72,330.7677 338.595,330.7677 338.595,330.7677 338.595,343.8927 338.595,343.8927 346.72,343.8927"/>
    <line x1="338.595" x2="343.595" y1="337.0177" y2="337.0177"/>
    <polyline points="359.0551,357.1654 396.8504,357.1654 396.8504,357.1654 434.6457,357.1654 434.6457,357.1654 434.6457,319.3701"/>
    <line x1="396.8504" x2="396.8504" y1="357.1654" y2="319.3701"/>
    <polyline points="376.0778,337.0177 381.7028,337.0177 381.7028,337.0177 383.5778,336.3927 383.5778,336.3927 384.2028,335.7677 384.2028,335.7677 384.8278,334.5177 384.8278,334.5177 384.8278,333.2677 384.8278,333.2677 384.2028,332.0177 384.2028,332.0177 383.5778,331.3927 383.5778,331.3927 381.7028,330.7677 381.7028,330.7677 376.0778,330.7677 376.0778,330.7677 376.0778,343.8927"/>
    <line x1="380.4528" x2="384.8278" y1="337.0177" y2="343.8927"/>
    <line x1="416.373" x2="416.373" y1="330.7677" y2="343.8927"/>
    <line x1="411.998" x2="420.748" y1="330.7677" y2="330.7677"/>
    <line x1="434.6457" x2="472.4409" y1="357.1654" y2="357.1654"/>
    <polyline points="457.9183,330.7677 457.9183,340.7677 457.9183,340.7677 457.2933,342.6427 457.2933,342.6427 456.6683,343.2677 456.6683,343.2677 455.4183,343.8927 455.4183,343.8927 454.1683,343.8927 454.1683,343.8927 452.9183,343.2677 452.9183,343.2677 452.2933,342.6427 452.2933,342.6427 451.6683,340.7677 451.6683,340.7677 451.6683,339.5177"/>
    <polyline points="497.9011,330.7677 489.7761,330.7677 489.7761,330.7677 489.7761,343.8927 489.7761,343.8927 497.9011,343.8927"/>
    <line x1="489.7761" x2="494.7761" y1="337.0177" y2="337.0177"/>
    <polyline points="611.2869,330.7677 603.1619,330.7677 603.1619,330.7677 603.1619,343.8927 603.1619,343.8927 611.2869,343.8927"/>
    <line x1="603.1619" x2="608.1619" y1="337.0177" y2="337.0177"/>
  </g>
</svg>
