<?xml version="1.0" encoding="utf-8" ?>
<svg xmlns="http://www.w3.org/2000/svg" xmlns:cc="http://creativecommons.org/ns" xmlns:dc="http://purl.org/dc/elements/1.1/" xmlns:ev="http://www.w3.org/2001/xml-events" xmlns:inkscape="http://www.inkscape.org/namespaces/inkscape" xmlns:rdf="http://www.w3.org/1999/02/22-rdf-syntax-ns" xmlns:sodipodi="http://sodipodi.sourceforge.net/DTD/sodipodi-0.dtd" xmlns:xlink="http://www.w3.org/1999/xlink" baseProfile="tiny" height="9.9cm" version="1.2" viewBox="0 0 793.7007874015749 374.1732283464567" width="21.0cm">
  <metadata>
    <rdf:RDF>
      <cc:Work>
        <dc:format>image/svg+xml</dc:format>
        <dc:source>vpype eval 'cell=10;width=210;height=99' eval 'nCols=20;nRows=9' eval 'cells=[0,1,2,3,4,5,6,7,15,19,20,24,30,32,33,34,35,36,37,38,39,40,42,43,44,45,46,47,48,49,50,51,55,59,60,64,70,75,77,79,80,82,83,84,85,86,87,88,89,90,91,92,93,95,97,99,102,104,106,110,115,117,119,120,121,122,123,124,125,126,128,129,130,131,132,133,134,135,136,137,138,142,144,146,155,167,168,169,170,171,172,173,174,175]' eval 'chars=[&quot;B&quot;,&quot;R&quot;,&quot;O&quot;,&quot;E&quot;,&quot;K&quot;,&quot;Z&quot;,&quot;A&quot;,&quot;K&quot;,&quot;K&quot;,&quot;C&quot;,&quot;R&quot;,&quot;I&quot;,&quot;L&quot;,&quot;S&quot;,&quot;K&quot;,&quot;E&quot;,&quot;L&quot;,&quot;L&quot;,&quot;E&quot;,&quot;K&quot;,&quot;E&quot;,&quot;O&quot;,&quot;A&quot;,&quot;N&quot;,&quot;N&quot;,&quot;A&quot;,&quot;-&quot;,&quot;N&quot;,&quot;O&quot;,&quot;R&quot;,&quot;A&quot;,&quot;H&quot;,&quot;A&quot;,&quot;N&quot;,&quot;O&quot;,&quot;D&quot;,&quot;K&quot;,&quot;V&quot;,&quot;K&quot;,&quot;T&quot;,&quot;D&quot;,&quot;F&quot;,&quot;L&quot;,&quot;E&quot;,&quot;S&quot;,&quot;S&quot;,&quot;E&quot;,&quot;N&quot;,&quot;G&quot;,&quot;E&quot;,&quot;L&quot;,&quot;U&quot;,&quot;K&quot;,&quot;E&quot;,&quot;O&quot;,&quot;J&quot;,&quot;I&quot;,&quot;R&quot;,&quot;T&quot;,&quot;N&quot;,&quot;R&quot;,&quot;E&quot;,&quot;E&quot;,&quot;V&quot;,&quot;E&quot;,&quot;L&quot;,&quot;L&quot;,&quot;E&quot;,&quot;K&quot;,&quot;E&quot;,&quot;M&quot;,&quot;I&quot;,&quot;S&quot;,&quot;V&quot;,&quot;E&quot;,&quot;R&quot;,&quot;S&quot;,&quot;T&quot;,&quot;A&quot;,&quot;N&quot;,&quot;D&quot;,&quot;E&quot;,&quot;N&quot;,&quot;R&quot;,&quot;J&quot;,&quot;R&quot;,&quot;E&quot;,&quot;K&quot;,&quot;K&quot;,&quot;E&quot;,&quot;R&quot;,&quot;T&quot;,&quot;J&quot;,&quot;E&quot;]' eval 'numbers=[0,4,15,19,30,32,42,77,82,86,120,128,167]' eval counter=1 eval charIndex=0 begin grid -o '%cell*mm%' '%cell*mm%' %nCols% %nRows% eval '%isCell=_i in cells%' eval '%number=_i in numbers%' eval '%size=10 if isCell else 0%' rect 0 0 '%size*mm%' '%size*mm%' text -s 10 -p 0.5mm 1.5mm '%counter if number else '&quot;'&quot;''&quot;'&quot;'%' text -s 20 -p 5mm 5mm -a center '%chars[charIndex] if isCell else '&quot;'&quot;''&quot;'&quot;'%' eval '%if number: counter+=1 %' eval '%if isCell: charIndex+=1 %' end splitall deduplicate linemerge --tolerance 0.1mm write -m none --page-size '%width*mm%x%height*mm%' --center ./svgs/solution/f7e9fd.svg
</dc:source>
        <dc:date>2023-12-23T22:30:05.365841</dc:date>
      </cc:Work>
    </rdf:RDF>
  </metadata>
  <defs/>
  <g fill="none" id="layer1" inkscape:groupmode="layer" inkscape:label="1" stroke="#000000" style="display:inline">
    <polygon points="18.8976,17.0079 18.8976,54.8031 18.8976,54.8031 18.8976,92.5984 18.8976,92.5984 56.6929,92.5984 56.6929,92.5984 56.6929,54.8031 56.6929,54.8031 56.6929,17.0079 56.6929,17.0079"/>
    <polyline points="18.8976,54.8031 56.6929,54.8031 56.6929,54.8031 94.4882,54.8031 94.4882,54.8031 132.2835,54.8031 132.2835,54.8031 132.2835,17.0079 132.2835,17.0079 94.4882,17.0079 94.4882,17.0079 56.6929,17.0079"/>
    <polyline points="22.6624,20.1772 23.2874,19.8647 23.2874,19.8647 24.2249,18.9272 24.2249,18.9272 24.2249,25.4897"/>
    <polyline points="41.5453,34.6555 43.4203,34.0305 43.4203,34.0305 44.0453,33.4055 44.0453,33.4055 44.6703,32.1555 44.6703,32.1555 44.6703,30.9055 44.6703,30.9055 44.0453,29.6555 44.0453,29.6555 43.4203,29.0305 43.4203,29.0305 41.5453,28.4055 41.5453,28.4055 35.9203,28.4055 35.9203,28.4055 35.9203,41.5305 35.9203,41.5305 41.5453,41.5305 41.5453,41.5305 43.4203,40.9055 43.4203,40.9055 44.0453,40.2805 44.0453,40.2805 44.6703,39.0305 44.6703,39.0305 44.6703,37.1555 44.6703,37.1555 44.0453,35.9055 44.0453,35.9055 43.4203,35.2805 43.4203,35.2805 41.5453,34.6555 41.5453,34.6555 35.9203,34.6555"/>
    <line x1="94.4882" x2="94.4882" y1="54.8031" y2="17.0079"/>
    <polyline points="73.7156,34.6555 79.3406,34.6555 79.3406,34.6555 81.2156,34.0305 81.2156,34.0305 81.8406,33.4055 81.8406,33.4055 82.4656,32.1555 82.4656,32.1555 82.4656,30.9055 82.4656,30.9055 81.8406,29.6555 81.8406,29.6555 81.2156,29.0305 81.2156,29.0305 79.3406,28.4055 79.3406,28.4055 73.7156,28.4055 73.7156,28.4055 73.7156,41.5305"/>
    <line x1="78.0906" x2="82.4656" y1="34.6555" y2="41.5305"/>
    <polygon points="114.0108,28.4055 112.7608,29.0305 112.7608,29.0305 111.5108,30.2805 111.5108,30.2805 110.8858,31.5305 110.8858,31.5305 110.2608,33.4055 110.2608,33.4055 110.2608,36.5305 110.2608,36.5305 110.8858,38.4055 110.8858,38.4055 111.5108,39.6555 111.5108,39.6555 112.7608,40.9055 112.7608,40.9055 114.0108,41.5305 114.0108,41.5305 116.5108,41.5305 116.5108,41.5305 117.7608,40.9055 117.7608,40.9055 119.0108,39.6555 119.0108,39.6555 119.6358,38.4055 119.6358,38.4055 120.2608,36.5305 120.2608,36.5305 120.2608,33.4055 120.2608,33.4055 119.6358,31.5305 119.6358,31.5305 119.0108,30.2805 119.0108,30.2805 117.7608,29.0305 117.7608,29.0305 116.5108,28.4055 116.5108,28.4055"/>
    <polyline points="132.2835,54.8031 170.0787,54.8031 170.0787,54.8031 170.0787,92.5984 170.0787,92.5984 132.2835,92.5984 132.2835,92.5984 94.4882,92.5984 94.4882,92.5984 94.4882,130.3937 94.4882,130.3937 132.2835,130.3937 132.2835,130.3937 170.0787,130.3937 170.0787,130.3937 207.874,130.3937 207.874,130.3937 245.6693,130.3937 245.6693,130.3937 245.6693,92.5984 245.6693,92.5984 207.874,92.5984 207.874,92.5984 207.874,54.8031 207.874,54.8031 245.6693,54.8031 245.6693,54.8031 245.6693,17.0079 245.6693,17.0079 207.874,17.0079 207.874,17.0079 170.0787,17.0079 170.0787,17.0079 132.2835,17.0079"/>
    <polyline points="207.874,17.0079 207.874,54.8031 207.874,54.8031 170.0787,54.8031 170.0787,54.8031 170.0787,17.0079"/>
    <polyline points="157.7436,28.4055 149.6186,28.4055 149.6186,28.4055 149.6186,41.5305 149.6186,41.5305 157.7436,41.5305"/>
    <line x1="149.6186" x2="154.6186" y1="34.6555" y2="34.6555"/>
    <polyline points="173.2185,20.4897 173.2185,20.1772 173.2185,20.1772 173.531,19.5522 173.531,19.5522 173.8435,19.2397 173.8435,19.2397 174.4685,18.9272 174.4685,18.9272 175.7185,18.9272 175.7185,18.9272 176.3435,19.2397 176.3435,19.2397 176.656,19.5522 176.656,19.5522 176.9685,20.1772 176.9685,20.1772 176.9685,20.8022 176.9685,20.8022 176.656,21.4272 176.656,21.4272 176.031,22.3647 176.031,22.3647 172.906,25.4897 172.906,25.4897 177.281,25.4897"/>
    <line x1="187.1014" x2="187.1014" y1="28.4055" y2="41.5305"/>
    <line x1="195.8514" x2="187.1014" y1="28.4055" y2="37.1555"/>
    <line x1="190.2264" x2="195.8514" y1="34.0305" y2="41.5305"/>
    <polyline points="224.2717,28.4055 233.0217,28.4055 233.0217,28.4055 224.2717,41.5305 224.2717,41.5305 233.0217,41.5305"/>
    <polyline points="245.6693,54.8031 283.4646,54.8031 283.4646,54.8031 283.4646,17.0079 283.4646,17.0079 245.6693,17.0079"/>
    <polyline points="270.1919,41.5305 265.1919,28.4055 265.1919,28.4055 260.1919,41.5305"/>
    <line x1="262.0669" x2="268.3169" y1="37.1555" y2="37.1555"/>
    <polyline points="283.4646,54.8031 321.2598,54.8031 321.2598,54.8031 321.2598,17.0079 321.2598,17.0079 283.4646,17.0079"/>
    <line x1="300.4872" x2="300.4872" y1="28.4055" y2="41.5305"/>
    <line x1="309.2372" x2="300.4872" y1="28.4055" y2="37.1555"/>
    <line x1="303.6122" x2="309.2372" y1="34.0305" y2="41.5305"/>
    <polygon points="585.8268,17.0079 585.8268,54.8031 585.8268,54.8031 623.622,54.8031 623.622,54.8031 623.622,17.0079 623.622,17.0079"/>
    <polyline points="589.279,18.9272 592.7165,18.9272 592.7165,18.9272 590.8415,21.4272 590.8415,21.4272 591.779,21.4272 591.779,21.4272 592.404,21.7397 592.404,21.7397 592.7165,22.0522 592.7165,22.0522 593.029,22.9897 593.029,22.9897 593.029,23.6147 593.029,23.6147 592.7165,24.5522 592.7165,24.5522 592.0915,25.1772 592.0915,25.1772 591.154,25.4897 591.154,25.4897 590.2165,25.4897 590.2165,25.4897 589.279,25.1772 589.279,25.1772 588.9665,24.8647 588.9665,24.8647 588.654,24.2397"/>
    <line x1="602.8494" x2="602.8494" y1="28.4055" y2="41.5305"/>
    <line x1="611.5994" x2="602.8494" y1="28.4055" y2="37.1555"/>
    <line x1="605.9744" x2="611.5994" y1="34.0305" y2="41.5305"/>
    <polygon points="737.0079,17.0079 737.0079,54.8031 737.0079,54.8031 774.8031,54.8031 774.8031,54.8031 774.8031,17.0079 774.8031,17.0079"/>
    <polyline points="742.9601,25.4897 742.9601,18.9272 742.9601,18.9272 739.8351,23.3022 739.8351,23.3022 744.5226,23.3022"/>
    <polyline points="762.468,31.5305 761.843,30.2805 761.843,30.2805 760.593,29.0305 760.593,29.0305 759.343,28.4055 759.343,28.4055 756.843,28.4055 756.843,28.4055 755.593,29.0305 755.593,29.0305 754.343,30.2805 754.343,30.2805 753.718,31.5305 753.718,31.5305 753.093,33.4055 753.093,33.4055 753.093,36.5305 753.093,36.5305 753.718,38.4055 753.718,38.4055 754.343,39.6555 754.343,39.6555 755.593,40.9055 755.593,40.9055 756.843,41.5305 756.843,41.5305 759.343,41.5305 759.343,41.5305 760.593,40.9055 760.593,40.9055 761.843,39.6555 761.843,39.6555 762.468,38.4055"/>
    <polyline points="35.9203,72.4508 41.5453,72.4508 41.5453,72.4508 43.4203,71.8258 43.4203,71.8258 44.0453,71.2008 44.0453,71.2008 44.6703,69.9508 44.6703,69.9508 44.6703,68.7008 44.6703,68.7008 44.0453,67.4508 44.0453,67.4508 43.4203,66.8258 43.4203,66.8258 41.5453,66.2008 41.5453,66.2008 35.9203,66.2008 35.9203,66.2008 35.9203,79.3258"/>
    <line x1="40.2953" x2="44.6703" y1="72.4508" y2="79.3258"/>
    <polyline points="94.4882,205.9843 132.2835,205.9843 132.2835,205.9843 170.0787,205.9843 170.0787,205.9843 207.874,205.9843 207.874,205.9843 207.874,243.7795 207.874,243.7795 170.0787,243.7795 170.0787,243.7795 170.0787,205.9843 170.0787,205.9843 170.0787,168.189 170.0787,168.189 170.0787,130.3937 170.0787,130.3937 170.0787,92.5984 170.0787,92.5984 207.874,92.5984 207.874,92.5984 207.874,130.3937 207.874,130.3937 207.874,168.189 207.874,168.189 207.874,205.9843 207.874,205.9843 245.6693,205.9843 245.6693,205.9843 245.6693,168.189 245.6693,168.189 207.874,168.189 207.874,168.189 170.0787,168.189 170.0787,168.189 132.2835,168.189 132.2835,168.189 94.4882,168.189 94.4882,168.189 94.4882,205.9843 94.4882,205.9843 94.4882,243.7795 94.4882,243.7795 132.2835,243.7795 132.2835,243.7795 132.2835,205.9843 132.2835,205.9843 132.2835,168.189"/>
    <line x1="191.4764" x2="191.4764" y1="66.2008" y2="79.3258"/>
    <polygon points="396.8504,54.8031 396.8504,92.5984 396.8504,92.5984 434.6457,92.5984 434.6457,92.5984 434.6457,54.8031 434.6457,54.8031"/>
    <polyline points="403.4277,56.7224 400.3027,56.7224 400.3027,56.7224 399.9902,59.5349 399.9902,59.5349 400.3027,59.2224 400.3027,59.2224 401.2402,58.9099 401.2402,58.9099 402.1777,58.9099 402.1777,58.9099 403.1152,59.2224 403.1152,59.2224 403.7402,59.8474 403.7402,59.8474 404.0527,60.7849 404.0527,60.7849 404.0527,61.4099 404.0527,61.4099 403.7402,62.3474 403.7402,62.3474 403.1152,62.9724 403.1152,62.9724 402.1777,63.2849 402.1777,63.2849 401.2402,63.2849 401.2402,63.2849 400.3027,62.9724 400.3027,62.9724 399.9902,62.6599 399.9902,62.6599 399.6777,62.0349"/>
    <polyline points="414.498,66.2008 414.498,79.3258 414.498,79.3258 421.998,79.3258"/>
    <polyline points="548.0315,54.8031 585.8268,54.8031 585.8268,54.8031 585.8268,92.5984 585.8268,92.5984 548.0315,92.5984 548.0315,92.5984 548.0315,54.8031 548.0315,54.8031 510.2362,54.8031 510.2362,54.8031 472.4409,54.8031 472.4409,54.8031 472.4409,92.5984 472.4409,92.5984 434.6457,92.5984 434.6457,92.5984 434.6457,130.3937 434.6457,130.3937 396.8504,130.3937 396.8504,130.3937 396.8504,168.189 396.8504,168.189 359.0551,168.189 359.0551,168.189 321.2598,168.189 321.2598,168.189 283.4646,168.189 283.4646,168.189 245.6693,168.189"/>
    <polyline points="359.0551,168.189 359.0551,205.9843 359.0551,205.9843 396.8504,205.9843 396.8504,205.9843 396.8504,168.189 396.8504,168.189 434.6457,168.189 434.6457,168.189 472.4409,168.189 472.4409,168.189 510.2362,168.189 510.2362,168.189 510.2362,205.9843 510.2362,205.9843 472.4409,205.9843 472.4409,205.9843 434.6457,205.9843 434.6457,205.9843 396.8504,205.9843 396.8504,205.9843 396.8504,243.7795 396.8504,243.7795 434.6457,243.7795 434.6457,243.7795 434.6457,205.9843 434.6457,205.9843 434.6457,168.189 434.6457,168.189 434.6457,130.3937 434.6457,130.3937 472.4409,130.3937 472.4409,130.3937 472.4409,92.5984 472.4409,92.5984 510.2362,92.5984 510.2362,92.5984 548.0315,92.5984"/>
    <line x1="510.2362" x2="510.2362" y1="92.5984" y2="54.8031"/>
    <polyline points="479.3307,57.6599 479.0182,57.0349 479.0182,57.0349 478.0807,56.7224 478.0807,56.7224 477.4557,56.7224 477.4557,56.7224 476.5182,57.0349 476.5182,57.0349 475.8932,57.9724 475.8932,57.9724 475.5807,59.5349 475.5807,59.5349 475.5807,61.0974 475.5807,61.0974 475.8932,62.3474 475.8932,62.3474 476.5182,62.9724 476.5182,62.9724 477.4557,63.2849 477.4557,63.2849 477.7682,63.2849 477.7682,63.2849 478.7057,62.9724 478.7057,62.9724 479.3307,62.3474 479.3307,62.3474 479.6432,61.4099 479.6432,61.4099 479.6432,61.0974 479.6432,61.0974 479.3307,60.1599 479.3307,60.1599 478.7057,59.5349 478.7057,59.5349 477.7682,59.2224 477.7682,59.2224 477.4557,59.2224 477.4557,59.2224 476.5182,59.5349 476.5182,59.5349 475.8932,60.1599 475.8932,60.1599 475.5807,61.0974"/>
    <polyline points="497.5886,68.0758 496.3386,66.8258 496.3386,66.8258 494.4636,66.2008 494.4636,66.2008 491.9636,66.2008 491.9636,66.2008 490.0886,66.8258 490.0886,66.8258 488.8386,68.0758 488.8386,68.0758 488.8386,69.3258 488.8386,69.3258 489.4636,70.5758 489.4636,70.5758 490.0886,71.2008 490.0886,71.2008 491.3386,71.8258 491.3386,71.8258 495.0886,73.0758 495.0886,73.0758 496.3386,73.7008 496.3386,73.7008 496.9636,74.3258 496.9636,74.3258 497.5886,75.5758 497.5886,75.5758 497.5886,77.4508 497.5886,77.4508 496.3386,78.7008 496.3386,78.7008 494.4636,79.3258 494.4636,79.3258 491.9636,79.3258 491.9636,79.3258 490.0886,78.7008 490.0886,78.7008 488.8386,77.4508"/>
    <line x1="527.2589" x2="527.2589" y1="66.2008" y2="79.3258"/>
    <line x1="536.0089" x2="527.2589" y1="66.2008" y2="74.9508"/>
    <line x1="530.3839" x2="536.0089" y1="71.8258" y2="79.3258"/>
    <polyline points="573.4916,66.2008 565.3666,66.2008 565.3666,66.2008 565.3666,79.3258 565.3666,79.3258 573.4916,79.3258"/>
    <line x1="565.3666" x2="570.3666" y1="72.4508" y2="72.4508"/>
    <polyline points="661.4173,92.5984 623.622,92.5984 623.622,92.5984 623.622,130.3937 623.622,130.3937 623.622,168.189 623.622,168.189 585.8268,168.189 585.8268,168.189 585.8268,130.3937 585.8268,130.3937 585.8268,92.5984 585.8268,92.5984 623.622,92.5984 623.622,92.5984 623.622,54.8031 623.622,54.8031 661.4173,54.8031 661.4173,54.8031 699.2126,54.8031 699.2126,54.8031 699.2126,92.5984 699.2126,92.5984 661.4173,92.5984 661.4173,92.5984 661.4173,54.8031"/>
    <polyline points="603.4744,66.2008 603.4744,79.3258 603.4744,79.3258 610.9744,79.3258"/>
    <polyline points="641.2697,66.2008 641.2697,79.3258 641.2697,79.3258 648.7697,79.3258"/>
    <polyline points="686.8775,66.2008 678.7525,66.2008 678.7525,66.2008 678.7525,79.3258 678.7525,79.3258 686.8775,79.3258"/>
    <line x1="678.7525" x2="683.7525" y1="72.4508" y2="72.4508"/>
    <polyline points="699.2126,92.5984 737.0079,92.5984 737.0079,92.5984 737.0079,54.8031 737.0079,54.8031 699.2126,54.8031"/>
    <line x1="716.2352" x2="716.2352" y1="66.2008" y2="79.3258"/>
    <line x1="724.9852" x2="716.2352" y1="66.2008" y2="74.9508"/>
    <line x1="719.3602" x2="724.9852" y1="71.8258" y2="79.3258"/>
    <polyline points="774.8031,92.5984 774.8031,130.3937 774.8031,130.3937 737.0079,130.3937 737.0079,130.3937 737.0079,92.5984 737.0079,92.5984 774.8031,92.5984 774.8031,92.5984 774.8031,54.8031"/>
    <polyline points="762.468,66.2008 754.343,66.2008 754.343,66.2008 754.343,79.3258 754.343,79.3258 762.468,79.3258"/>
    <line x1="754.343" x2="759.343" y1="72.4508" y2="72.4508"/>
    <polyline points="18.8976,92.5984 18.8976,130.3937 18.8976,130.3937 56.6929,130.3937 56.6929,130.3937 56.6929,92.5984"/>
    <polygon points="38.4203,103.9961 37.1703,104.6211 37.1703,104.6211 35.9203,105.8711 35.9203,105.8711 35.2953,107.1211 35.2953,107.1211 34.6703,108.9961 34.6703,108.9961 34.6703,112.1211 34.6703,112.1211 35.2953,113.9961 35.2953,113.9961 35.9203,115.2461 35.9203,115.2461 37.1703,116.4961 37.1703,116.4961 38.4203,117.1211 38.4203,117.1211 40.9203,117.1211 40.9203,117.1211 42.1703,116.4961 42.1703,116.4961 43.4203,115.2461 43.4203,115.2461 44.0453,113.9961 44.0453,113.9961 44.6703,112.1211 44.6703,112.1211 44.6703,108.9961 44.6703,108.9961 44.0453,107.1211 44.0453,107.1211 43.4203,105.8711 43.4203,105.8711 42.1703,104.6211 42.1703,104.6211 40.9203,103.9961 40.9203,103.9961"/>
    <line x1="132.2835" x2="132.2835" y1="130.3937" y2="92.5984"/>
    <polyline points="97.3155,94.5177 101.6905,94.5177 101.6905,94.5177 98.5655,101.0802"/>
    <polyline points="119.0108,117.1211 114.0108,103.9961 114.0108,103.9961 109.0108,117.1211"/>
    <line x1="110.8858" x2="117.1358" y1="112.7461" y2="112.7461"/>
    <polyline points="158.0561,103.9961 158.0561,117.1211 158.0561,117.1211 149.3061,103.9961 149.3061,103.9961 149.3061,117.1211"/>
    <polyline points="195.8514,103.9961 195.8514,117.1211 195.8514,117.1211 187.1014,103.9961 187.1014,103.9961 187.1014,117.1211"/>
    <polyline points="232.3967,117.1211 227.3967,103.9961 227.3967,103.9961 222.3967,117.1211"/>
    <line x1="224.2717" x2="230.5217" y1="112.7461" y2="112.7461"/>
    <polyline points="245.6693,130.3937 283.4646,130.3937 283.4646,130.3937 283.4646,92.5984 283.4646,92.5984 245.6693,92.5984"/>
    <line x1="261.4419" x2="272.6919" y1="111.4961" y2="111.4961"/>
    <polyline points="283.4646,130.3937 321.2598,130.3937 321.2598,130.3937 359.0551,130.3937 359.0551,130.3937 396.8504,130.3937 396.8504,130.3937 396.8504,92.5984 396.8504,92.5984 359.0551,92.5984 359.0551,92.5984 321.2598,92.5984 321.2598,92.5984 283.4646,92.5984"/>
    <line x1="321.2598" x2="321.2598" y1="130.3937" y2="92.5984"/>
    <polyline points="309.2372,103.9961 309.2372,117.1211 309.2372,117.1211 300.4872,103.9961 300.4872,103.9961 300.4872,117.1211"/>
    <line x1="359.0551" x2="359.0551" y1="130.3937" y2="92.5984"/>
    <polygon points="340.7825,103.9961 339.5325,104.6211 339.5325,104.6211 338.2825,105.8711 338.2825,105.8711 337.6575,107.1211 337.6575,107.1211 337.0325,108.9961 337.0325,108.9961 337.0325,112.1211 337.0325,112.1211 337.6575,113.9961 337.6575,113.9961 338.2825,115.2461 338.2825,115.2461 339.5325,116.4961 339.5325,116.4961 340.7825,117.1211 340.7825,117.1211 343.2825,117.1211 343.2825,117.1211 344.5325,116.4961 344.5325,116.4961 345.7825,115.2461 345.7825,115.2461 346.4075,113.9961 346.4075,113.9961 347.0325,112.1211 347.0325,112.1211 347.0325,108.9961 347.0325,108.9961 346.4075,107.1211 346.4075,107.1211 345.7825,105.8711 345.7825,105.8711 344.5325,104.6211 344.5325,104.6211 343.2825,103.9961 343.2825,103.9961"/>
    <polyline points="376.0778,110.2461 381.7028,110.2461 381.7028,110.2461 383.5778,109.6211 383.5778,109.6211 384.2028,108.9961 384.2028,108.9961 384.8278,107.7461 384.8278,107.7461 384.8278,106.4961 384.8278,106.4961 384.2028,105.2461 384.2028,105.2461 383.5778,104.6211 383.5778,104.6211 381.7028,103.9961 381.7028,103.9961 376.0778,103.9961 376.0778,103.9961 376.0778,117.1211"/>
    <line x1="380.4528" x2="384.8278" y1="110.2461" y2="117.1211"/>
    <polyline points="421.373,117.1211 416.373,103.9961 416.373,103.9961 411.373,117.1211"/>
    <line x1="413.248" x2="419.498" y1="112.7461" y2="112.7461"/>
    <line x1="451.6683" x2="451.6683" y1="103.9961" y2="117.1211"/>
    <line x1="460.4183" x2="460.4183" y1="103.9961" y2="117.1211"/>
    <line x1="451.6683" x2="460.4183" y1="110.2461" y2="110.2461"/>
    <line x1="585.8268" x2="623.622" y1="130.3937" y2="130.3937"/>
    <polyline points="610.3494,117.1211 605.3494,103.9961 605.3494,103.9961 600.3494,117.1211"/>
    <line x1="602.2244" x2="608.4744" y1="112.7461" y2="112.7461"/>
    <polyline points="762.7805,103.9961 762.7805,117.1211 762.7805,117.1211 754.0305,103.9961 754.0305,103.9961 754.0305,117.1211"/>
    <polyline points="18.8976,130.3937 18.8976,168.189 18.8976,168.189 56.6929,168.189 56.6929,168.189 56.6929,130.3937"/>
    <polygon points="38.4203,141.7913 37.1703,142.4163 37.1703,142.4163 35.9203,143.6663 35.9203,143.6663 35.2953,144.9163 35.2953,144.9163 34.6703,146.7913 34.6703,146.7913 34.6703,149.9163 34.6703,149.9163 35.2953,151.7913 35.2953,151.7913 35.9203,153.0413 35.9203,153.0413 37.1703,154.2913 37.1703,154.2913 38.4203,154.9163 38.4203,154.9163 40.9203,154.9163 40.9203,154.9163 42.1703,154.2913 42.1703,154.2913 43.4203,153.0413 43.4203,153.0413 44.0453,151.7913 44.0453,151.7913 44.6703,149.9163 44.6703,149.9163 44.6703,146.7913 44.6703,146.7913 44.0453,144.9163 44.0453,144.9163 43.4203,143.6663 43.4203,143.6663 42.1703,142.4163 42.1703,142.4163 40.9203,141.7913 40.9203,141.7913"/>
    <polygon points="187.1014,141.7913 187.1014,154.9163 187.1014,154.9163 191.4764,154.9163 191.4764,154.9163 193.3514,154.2913 193.3514,154.2913 194.6014,153.0413 194.6014,153.0413 195.2264,151.7913 195.2264,151.7913 195.8514,149.9163 195.8514,149.9163 195.8514,146.7913 195.8514,146.7913 195.2264,144.9163 195.2264,144.9163 194.6014,143.6663 194.6014,143.6663 193.3514,142.4163 193.3514,142.4163 191.4764,141.7913 191.4764,141.7913"/>
    <line x1="413.873" x2="413.873" y1="141.7913" y2="154.9163"/>
    <line x1="422.623" x2="413.873" y1="141.7913" y2="150.5413"/>
    <line x1="416.998" x2="422.623" y1="147.4163" y2="154.9163"/>
    <polyline points="600.3494,141.7913 605.3494,154.9163 605.3494,154.9163 610.3494,141.7913"/>
    <polygon points="661.4173,130.3937 661.4173,168.189 661.4173,168.189 699.2126,168.189 699.2126,168.189 699.2126,130.3937 699.2126,130.3937"/>
    <polygon points="665.8071,132.313 664.8696,132.6255 664.8696,132.6255 664.5571,133.2505 664.5571,133.2505 664.5571,133.8755 664.5571,133.8755 664.8696,134.5005 664.8696,134.5005 665.4946,134.813 665.4946,134.813 666.7446,135.1255 666.7446,135.1255 667.6821,135.438 667.6821,135.438 668.3071,136.063 668.3071,136.063 668.6196,136.688 668.6196,136.688 668.6196,137.6255 668.6196,137.6255 668.3071,138.2505 668.3071,138.2505 667.9946,138.563 667.9946,138.563 667.0571,138.8755 667.0571,138.8755 665.8071,138.8755 665.8071,138.8755 664.8696,138.563 664.8696,138.563 664.5571,138.2505 664.5571,138.2505 664.2446,137.6255 664.2446,137.6255 664.2446,136.688 664.2446,136.688 664.5571,136.063 664.5571,136.063 665.1821,135.438 665.1821,135.438 666.1196,135.1255 666.1196,135.1255 667.3696,134.813 667.3696,134.813 667.9946,134.5005 667.9946,134.5005 668.3071,133.8755 668.3071,133.8755 668.3071,133.2505 668.3071,133.2505 667.9946,132.6255 667.9946,132.6255 667.0571,132.313 667.0571,132.313"/>
    <line x1="678.44" x2="678.44" y1="141.7913" y2="154.9163"/>
    <line x1="687.19" x2="678.44" y1="141.7913" y2="150.5413"/>
    <line x1="681.565" x2="687.19" y1="147.4163" y2="154.9163"/>
    <polyline points="737.0079,130.3937 737.0079,168.189 737.0079,168.189 737.0079,205.9843 737.0079,205.9843 774.8031,205.9843 774.8031,205.9843 774.8031,168.189 774.8031,168.189 774.8031,130.3937"/>
    <line x1="737.0079" x2="774.8031" y1="168.189" y2="168.189"/>
    <line x1="756.5305" x2="756.5305" y1="141.7913" y2="154.9163"/>
    <line x1="752.1555" x2="760.9055" y1="141.7913" y2="141.7913"/>
    <polyline points="18.8976,168.189 18.8976,205.9843 18.8976,205.9843 56.6929,205.9843 56.6929,205.9843 56.6929,168.189"/>
    <polygon points="35.9203,179.5866 35.9203,192.7116 35.9203,192.7116 40.2953,192.7116 40.2953,192.7116 42.1703,192.0866 42.1703,192.0866 43.4203,190.8366 43.4203,190.8366 44.0453,189.5866 44.0453,189.5866 44.6703,187.7116 44.6703,187.7116 44.6703,184.5866 44.6703,184.5866 44.0453,182.7116 44.0453,182.7116 43.4203,181.4616 43.4203,181.4616 42.1703,180.2116 42.1703,180.2116 40.2953,179.5866 40.2953,179.5866"/>
    <polyline points="101.378,172.2958 101.0655,173.2333 101.0655,173.2333 100.4405,173.8583 100.4405,173.8583 99.503,174.1708 99.503,174.1708 99.1905,174.1708 99.1905,174.1708 98.253,173.8583 98.253,173.8583 97.628,173.2333 97.628,173.2333 97.3155,172.2958 97.3155,172.2958 97.3155,171.9833 97.3155,171.9833 97.628,171.0458 97.628,171.0458 98.253,170.4208 98.253,170.4208 99.1905,170.1083 99.1905,170.1083 99.503,170.1083 99.503,170.1083 100.4405,170.4208 100.4405,170.4208 101.0655,171.0458 101.0655,171.0458 101.378,172.2958 101.378,172.2958 101.378,173.8583 101.378,173.8583 101.0655,175.4208 101.0655,175.4208 100.4405,176.3583 100.4405,176.3583 99.503,176.6708 99.503,176.6708 98.878,176.6708 98.878,176.6708 97.9405,176.3583 97.9405,176.3583 97.628,175.7333"/>
    <polyline points="119.9483,179.5866 111.8233,179.5866 111.8233,179.5866 111.8233,192.7116"/>
    <line x1="111.8233" x2="116.8233" y1="185.8366" y2="185.8366"/>
    <polyline points="149.9311,179.5866 149.9311,192.7116 149.9311,192.7116 157.4311,192.7116"/>
    <polyline points="195.5389,179.5866 187.4139,179.5866 187.4139,179.5866 187.4139,192.7116 187.4139,192.7116 195.5389,192.7116"/>
    <line x1="187.4139" x2="192.4139" y1="185.8366" y2="185.8366"/>
    <polyline points="233.0217,181.4616 231.7717,180.2116 231.7717,180.2116 229.8967,179.5866 229.8967,179.5866 227.3967,179.5866 227.3967,179.5866 225.5217,180.2116 225.5217,180.2116 224.2717,181.4616 224.2717,181.4616 224.2717,182.7116 224.2717,182.7116 224.8967,183.9616 224.8967,183.9616 225.5217,184.5866 225.5217,184.5866 226.7717,185.2116 226.7717,185.2116 230.5217,186.4616 230.5217,186.4616 231.7717,187.0866 231.7717,187.0866 232.3967,187.7116 232.3967,187.7116 233.0217,188.9616 233.0217,188.9616 233.0217,190.8366 233.0217,190.8366 231.7717,192.0866 231.7717,192.0866 229.8967,192.7116 229.8967,192.7116 227.3967,192.7116 227.3967,192.7116 225.5217,192.0866 225.5217,192.0866 224.2717,190.8366"/>
    <polyline points="283.4646,168.189 283.4646,205.9843 283.4646,205.9843 283.4646,243.7795 283.4646,243.7795 245.6693,243.7795 245.6693,243.7795 245.6693,205.9843 245.6693,205.9843 283.4646,205.9843 283.4646,205.9843 321.2598,205.9843 321.2598,205.9843 359.0551,205.9843"/>
    <polyline points="249.4341,171.3583 250.0591,171.0458 250.0591,171.0458 250.9966,170.1083 250.9966,170.1083 250.9966,176.6708"/>
    <polygon points="256.6216,170.1083 255.6841,170.4208 255.6841,170.4208 255.0591,171.3583 255.0591,171.3583 254.7466,172.9208 254.7466,172.9208 254.7466,173.8583 254.7466,173.8583 255.0591,175.4208 255.0591,175.4208 255.6841,176.3583 255.6841,176.3583 256.6216,176.6708 256.6216,176.6708 257.2466,176.6708 257.2466,176.6708 258.1841,176.3583 258.1841,176.3583 258.8091,175.4208 258.8091,175.4208 259.1216,173.8583 259.1216,173.8583 259.1216,172.9208 259.1216,172.9208 258.8091,171.3583 258.8091,171.3583 258.1841,170.4208 258.1841,170.4208 257.2466,170.1083 257.2466,170.1083"/>
    <polyline points="270.8169,181.4616 269.5669,180.2116 269.5669,180.2116 267.6919,179.5866 267.6919,179.5866 265.1919,179.5866 265.1919,179.5866 263.3169,180.2116 263.3169,180.2116 262.0669,181.4616 262.0669,181.4616 262.0669,182.7116 262.0669,182.7116 262.6919,183.9616 262.6919,183.9616 263.3169,184.5866 263.3169,184.5866 264.5669,185.2116 264.5669,185.2116 268.3169,186.4616 268.3169,186.4616 269.5669,187.0866 269.5669,187.0866 270.1919,187.7116 270.1919,187.7116 270.8169,188.9616 270.8169,188.9616 270.8169,190.8366 270.8169,190.8366 269.5669,192.0866 269.5669,192.0866 267.6919,192.7116 267.6919,192.7116 265.1919,192.7116 265.1919,192.7116 263.3169,192.0866 263.3169,192.0866 262.0669,190.8366"/>
    <line x1="321.2598" x2="321.2598" y1="205.9843" y2="168.189"/>
    <polyline points="308.9247,179.5866 300.7997,179.5866 300.7997,179.5866 300.7997,192.7116 300.7997,192.7116 308.9247,192.7116"/>
    <line x1="300.7997" x2="305.7997" y1="185.8366" y2="185.8366"/>
    <polyline points="347.0325,179.5866 347.0325,192.7116 347.0325,192.7116 338.2825,179.5866 338.2825,179.5866 338.2825,192.7116"/>
    <polyline points="384.5153,182.7116 383.8903,181.4616 383.8903,181.4616 382.6403,180.2116 382.6403,180.2116 381.3903,179.5866 381.3903,179.5866 378.8903,179.5866 378.8903,179.5866 377.6403,180.2116 377.6403,180.2116 376.3903,181.4616 376.3903,181.4616 375.7653,182.7116 375.7653,182.7116 375.1403,184.5866 375.1403,184.5866 375.1403,187.7116 375.1403,187.7116 375.7653,189.5866 375.7653,189.5866 376.3903,190.8366 376.3903,190.8366 377.6403,192.0866 377.6403,192.0866 378.8903,192.7116 378.8903,192.7116 381.3903,192.7116 381.3903,192.7116 382.6403,192.0866 382.6403,192.0866 383.8903,190.8366 383.8903,190.8366 384.5153,189.5866 384.5153,189.5866 384.5153,187.7116 384.5153,187.7116 381.3903,187.7116"/>
    <polyline points="422.3105,179.5866 414.1855,179.5866 414.1855,179.5866 414.1855,192.7116 414.1855,192.7116 422.3105,192.7116"/>
    <line x1="414.1855" x2="419.1855" y1="185.8366" y2="185.8366"/>
    <line x1="472.4409" x2="472.4409" y1="205.9843" y2="168.189"/>
    <polyline points="452.2933,179.5866 452.2933,192.7116 452.2933,192.7116 459.7933,192.7116"/>
    <polyline points="489.4636,179.5866 489.4636,188.9616 489.4636,188.9616 490.0886,190.8366 490.0886,190.8366 491.3386,192.0866 491.3386,192.0866 493.2136,192.7116 493.2136,192.7116 494.4636,192.7116 494.4636,192.7116 496.3386,192.0866 496.3386,192.0866 497.5886,190.8366 497.5886,190.8366 498.2136,188.9616 498.2136,188.9616 498.2136,179.5866"/>
    <polyline points="510.2362,205.9843 548.0315,205.9843 548.0315,205.9843 548.0315,168.189 548.0315,168.189 510.2362,168.189"/>
    <line x1="527.2589" x2="527.2589" y1="179.5866" y2="192.7116"/>
    <line x1="536.0089" x2="527.2589" y1="179.5866" y2="188.3366"/>
    <line x1="530.3839" x2="536.0089" y1="185.2116" y2="192.7116"/>
    <polyline points="585.8268,168.189 585.8268,205.9843 585.8268,205.9843 585.8268,243.7795 585.8268,243.7795 623.622,243.7795 623.622,243.7795 623.622,205.9843 623.622,205.9843 623.622,168.189"/>
    <line x1="585.8268" x2="623.622" y1="205.9843" y2="205.9843"/>
    <polyline points="611.2869,179.5866 603.1619,179.5866 603.1619,179.5866 603.1619,192.7116 603.1619,192.7116 611.2869,192.7116"/>
    <line x1="603.1619" x2="608.1619" y1="185.8366" y2="185.8366"/>
    <polyline points="661.4173,168.189 661.4173,205.9843 661.4173,205.9843 661.4173,243.7795 661.4173,243.7795 699.2126,243.7795 699.2126,243.7795 699.2126,205.9843 699.2126,205.9843 699.2126,168.189"/>
    <line x1="661.4173" x2="699.2126" y1="205.9843" y2="205.9843"/>
    <polygon points="680.94,179.5866 679.69,180.2116 679.69,180.2116 678.44,181.4616 678.44,181.4616 677.815,182.7116 677.815,182.7116 677.19,184.5866 677.19,184.5866 677.19,187.7116 677.19,187.7116 677.815,189.5866 677.815,189.5866 678.44,190.8366 678.44,190.8366 679.69,192.0866 679.69,192.0866 680.94,192.7116 680.94,192.7116 683.44,192.7116 683.44,192.7116 684.69,192.0866 684.69,192.0866 685.94,190.8366 685.94,190.8366 686.565,189.5866 686.565,189.5866 687.19,187.7116 687.19,187.7116 687.19,184.5866 687.19,184.5866 686.565,182.7116 686.565,182.7116 685.94,181.4616 685.94,181.4616 684.69,180.2116 684.69,180.2116 683.44,179.5866 683.44,179.5866"/>
    <polyline points="760.2805,179.5866 760.2805,189.5866 760.2805,189.5866 759.6555,191.4616 759.6555,191.4616 759.0305,192.0866 759.0305,192.0866 757.7805,192.7116 757.7805,192.7116 756.5305,192.7116 756.5305,192.7116 755.2805,192.0866 755.2805,192.0866 754.6555,191.4616 754.6555,191.4616 754.0305,189.5866 754.0305,189.5866 754.0305,188.3366"/>
    <line x1="115.8858" x2="115.8858" y1="217.3819" y2="230.5069"/>
    <polyline points="187.1014,223.6319 192.7264,223.6319 192.7264,223.6319 194.6014,223.0069 194.6014,223.0069 195.2264,222.3819 195.2264,222.3819 195.8514,221.1319 195.8514,221.1319 195.8514,219.8819 195.8514,219.8819 195.2264,218.6319 195.2264,218.6319 194.6014,218.0069 194.6014,218.0069 192.7264,217.3819 192.7264,217.3819 187.1014,217.3819 187.1014,217.3819 187.1014,230.5069"/>
    <line x1="191.4764" x2="195.8514" y1="223.6319" y2="230.5069"/>
    <line x1="265.1919" x2="265.1919" y1="217.3819" y2="230.5069"/>
    <line x1="260.8169" x2="269.5669" y1="217.3819" y2="217.3819"/>
    <polyline points="422.623,217.3819 422.623,230.5069 422.623,230.5069 413.873,217.3819 413.873,217.3819 413.873,230.5069"/>
    <polyline points="602.8494,223.6319 608.4744,223.6319 608.4744,223.6319 610.3494,223.0069 610.3494,223.0069 610.9744,222.3819 610.9744,222.3819 611.5994,221.1319 611.5994,221.1319 611.5994,219.8819 611.5994,219.8819 610.9744,218.6319 610.9744,218.6319 610.3494,218.0069 610.3494,218.0069 608.4744,217.3819 608.4744,217.3819 602.8494,217.3819 602.8494,217.3819 602.8494,230.5069"/>
    <line x1="607.2244" x2="611.5994" y1="223.6319" y2="230.5069"/>
    <polyline points="686.8775,217.3819 678.7525,217.3819 678.7525,217.3819 678.7525,230.5069 678.7525,230.5069 686.8775,230.5069"/>
    <line x1="678.7525" x2="683.7525" y1="223.6319" y2="223.6319"/>
    <polyline points="737.0079,205.9843 737.0079,243.7795 737.0079,243.7795 774.8031,243.7795 774.8031,243.7795 774.8031,205.9843"/>
    <polyline points="762.468,217.3819 754.343,217.3819 754.343,217.3819 754.343,230.5069 754.343,230.5069 762.468,230.5069"/>
    <line x1="754.343" x2="759.343" y1="223.6319" y2="223.6319"/>
    <polygon points="18.8976,243.7795 18.8976,281.5748 18.8976,281.5748 56.6929,281.5748 56.6929,281.5748 94.4882,281.5748 94.4882,281.5748 94.4882,243.7795 94.4882,243.7795 56.6929,243.7795 56.6929,243.7795"/>
    <line x1="56.6929" x2="56.6929" y1="281.5748" y2="243.7795"/>
    <polyline points="22.6624,246.9488 23.2874,246.6363 23.2874,246.6363 24.2249,245.6988 24.2249,245.6988 24.2249,252.2613"/>
    <polyline points="28.9124,246.9488 29.5374,246.6363 29.5374,246.6363 30.4749,245.6988 30.4749,245.6988 30.4749,252.2613"/>
    <polyline points="33.4203,255.1772 38.4203,268.3022 38.4203,268.3022 43.4203,255.1772"/>
    <polyline points="82.1531,255.1772 74.0281,255.1772 74.0281,255.1772 74.0281,268.3022 74.0281,268.3022 82.1531,268.3022"/>
    <line x1="74.0281" x2="79.0281" y1="261.4272" y2="261.4272"/>
    <polygon points="94.4882,281.5748 132.2835,281.5748 132.2835,281.5748 170.0787,281.5748 170.0787,281.5748 170.0787,319.3701 170.0787,319.3701 207.874,319.3701 207.874,319.3701 207.874,281.5748 207.874,281.5748 245.6693,281.5748 245.6693,281.5748 245.6693,243.7795 245.6693,243.7795 207.874,243.7795 207.874,243.7795 207.874,281.5748 207.874,281.5748 170.0787,281.5748 170.0787,281.5748 170.0787,243.7795 170.0787,243.7795 132.2835,243.7795 132.2835,243.7795 132.2835,281.5748 132.2835,281.5748 132.2835,319.3701 132.2835,319.3701 94.4882,319.3701 94.4882,319.3701"/>
    <polyline points="112.1358,255.1772 112.1358,268.3022 112.1358,268.3022 119.6358,268.3022"/>
    <polyline points="149.9311,255.1772 149.9311,268.3022 149.9311,268.3022 157.4311,268.3022"/>
    <polyline points="195.5389,255.1772 187.4139,255.1772 187.4139,255.1772 187.4139,268.3022 187.4139,268.3022 195.5389,268.3022"/>
    <line x1="187.4139" x2="192.4139" y1="261.4272" y2="261.4272"/>
    <line x1="224.8967" x2="224.8967" y1="255.1772" y2="268.3022"/>
    <line x1="233.6467" x2="224.8967" y1="255.1772" y2="263.9272"/>
    <line x1="228.0217" x2="233.6467" y1="260.8022" y2="268.3022"/>
    <polyline points="283.4646,281.5748 283.4646,319.3701 283.4646,319.3701 245.6693,319.3701 245.6693,319.3701 245.6693,281.5748 245.6693,281.5748 283.4646,281.5748 283.4646,281.5748 283.4646,243.7795"/>
    <polyline points="271.1294,255.1772 263.0044,255.1772 263.0044,255.1772 263.0044,268.3022 263.0044,268.3022 271.1294,268.3022"/>
    <line x1="263.0044" x2="268.0044" y1="261.4272" y2="261.4272"/>
    <polygon points="321.2598,243.7795 321.2598,281.5748 321.2598,281.5748 359.0551,281.5748 359.0551,281.5748 359.0551,243.7795 359.0551,243.7795"/>
    <polyline points="325.0246,246.9488 325.6496,246.6363 325.6496,246.6363 326.5871,245.6988 326.5871,245.6988 326.5871,252.2613"/>
    <polyline points="330.6496,247.2613 330.6496,246.9488 330.6496,246.9488 330.9621,246.3238 330.9621,246.3238 331.2746,246.0113 331.2746,246.0113 331.8996,245.6988 331.8996,245.6988 333.1496,245.6988 333.1496,245.6988 333.7746,246.0113 333.7746,246.0113 334.0871,246.3238 334.0871,246.3238 334.3996,246.9488 334.3996,246.9488 334.3996,247.5738 334.3996,247.5738 334.0871,248.1988 334.0871,248.1988 333.4621,249.1363 333.4621,249.1363 330.3371,252.2613 330.3371,252.2613 334.7121,252.2613"/>
    <polyline points="347.6575,268.3022 347.6575,255.1772 347.6575,255.1772 342.6575,268.3022 342.6575,268.3022 337.6575,255.1772 337.6575,255.1772 337.6575,268.3022"/>
    <polyline points="359.0551,281.5748 396.8504,281.5748 396.8504,281.5748 396.8504,243.7795 396.8504,243.7795 359.0551,243.7795"/>
    <line x1="380.4528" x2="380.4528" y1="255.1772" y2="268.3022"/>
    <polyline points="396.8504,281.5748 434.6457,281.5748 434.6457,281.5748 434.6457,243.7795 434.6457,243.7795 472.4409,243.7795 472.4409,243.7795 472.4409,281.5748 472.4409,281.5748 510.2362,281.5748 510.2362,281.5748 548.0315,281.5748 548.0315,281.5748 548.0315,243.7795 548.0315,243.7795 510.2362,243.7795 510.2362,243.7795 472.4409,243.7795"/>
    <polyline points="421.998,257.0522 420.748,255.8022 420.748,255.8022 418.873,255.1772 418.873,255.1772 416.373,255.1772 416.373,255.1772 414.498,255.8022 414.498,255.8022 413.248,257.0522 413.248,257.0522 413.248,258.3022 413.248,258.3022 413.873,259.5522 413.873,259.5522 414.498,260.1772 414.498,260.1772 415.748,260.8022 415.748,260.8022 419.498,262.0522 419.498,262.0522 420.748,262.6772 420.748,262.6772 421.373,263.3022 421.373,263.3022 421.998,264.5522 421.998,264.5522 421.998,266.4272 421.998,266.4272 420.748,267.6772 420.748,267.6772 418.873,268.3022 418.873,268.3022 416.373,268.3022 416.373,268.3022 414.498,267.6772 414.498,267.6772 413.248,266.4272"/>
    <line x1="434.6457" x2="472.4409" y1="281.5748" y2="281.5748"/>
    <polyline points="449.1683,255.1772 454.1683,268.3022 454.1683,268.3022 459.1683,255.1772"/>
    <line x1="510.2362" x2="510.2362" y1="281.5748" y2="243.7795"/>
    <polyline points="497.9011,255.1772 489.7761,255.1772 489.7761,255.1772 489.7761,268.3022 489.7761,268.3022 497.9011,268.3022"/>
    <line x1="489.7761" x2="494.7761" y1="261.4272" y2="261.4272"/>
    <polyline points="527.2589,261.4272 532.8839,261.4272 532.8839,261.4272 534.7589,260.8022 534.7589,260.8022 535.3839,260.1772 535.3839,260.1772 536.0089,258.9272 536.0089,258.9272 536.0089,257.6772 536.0089,257.6772 535.3839,256.4272 535.3839,256.4272 534.7589,255.8022 534.7589,255.8022 532.8839,255.1772 532.8839,255.1772 527.2589,255.1772 527.2589,255.1772 527.2589,268.3022"/>
    <line x1="531.6339" x2="536.0089" y1="261.4272" y2="268.3022"/>
    <polyline points="548.0315,281.5748 585.8268,281.5748 585.8268,281.5748 585.8268,243.7795 585.8268,243.7795 548.0315,243.7795"/>
    <polyline points="573.1791,257.0522 571.9291,255.8022 571.9291,255.8022 570.0541,255.1772 570.0541,255.1772 567.5541,255.1772 567.5541,255.1772 565.6791,255.8022 565.6791,255.8022 564.4291,257.0522 564.4291,257.0522 564.4291,258.3022 564.4291,258.3022 565.0541,259.5522 565.0541,259.5522 565.6791,260.1772 565.6791,260.1772 566.9291,260.8022 566.9291,260.8022 570.6791,262.0522 570.6791,262.0522 571.9291,262.6772 571.9291,262.6772 572.5541,263.3022 572.5541,263.3022 573.1791,264.5522 573.1791,264.5522 573.1791,266.4272 573.1791,266.4272 571.9291,267.6772 571.9291,267.6772 570.0541,268.3022 570.0541,268.3022 567.5541,268.3022 567.5541,268.3022 565.6791,267.6772 565.6791,267.6772 564.4291,266.4272"/>
    <polyline points="661.4173,281.5748 623.622,281.5748 623.622,281.5748 623.622,319.3701 623.622,319.3701 585.8268,319.3701 585.8268,319.3701 585.8268,281.5748 585.8268,281.5748 623.622,281.5748 623.622,281.5748 623.622,243.7795 623.622,243.7795 661.4173,243.7795 661.4173,243.7795 661.4173,281.5748 661.4173,281.5748 699.2126,281.5748 699.2126,281.5748 699.2126,243.7795 699.2126,243.7795 737.0079,243.7795 737.0079,243.7795 737.0079,281.5748 737.0079,281.5748 699.2126,281.5748"/>
    <line x1="605.3494" x2="605.3494" y1="255.1772" y2="268.3022"/>
    <line x1="600.9744" x2="609.7244" y1="255.1772" y2="255.1772"/>
    <polyline points="648.1447,268.3022 643.1447,255.1772 643.1447,255.1772 638.1447,268.3022"/>
    <line x1="640.0197" x2="646.2697" y1="263.9272" y2="263.9272"/>
    <polyline points="687.19,255.1772 687.19,268.3022 687.19,268.3022 678.44,255.1772 678.44,255.1772 678.44,268.3022"/>
    <polygon points="716.2352,255.1772 716.2352,268.3022 716.2352,268.3022 720.6102,268.3022 720.6102,268.3022 722.4852,267.6772 722.4852,267.6772 723.7352,266.4272 723.7352,266.4272 724.3602,265.1772 724.3602,265.1772 724.9852,263.3022 724.9852,263.3022 724.9852,260.1772 724.9852,260.1772 724.3602,258.3022 724.3602,258.3022 723.7352,257.0522 723.7352,257.0522 722.4852,255.8022 722.4852,255.8022 720.6102,255.1772 720.6102,255.1772"/>
    <polyline points="119.9483,292.9724 111.8233,292.9724 111.8233,292.9724 111.8233,306.0974 111.8233,306.0974 119.9483,306.0974"/>
    <line x1="111.8233" x2="116.8233" y1="299.2224" y2="299.2224"/>
    <polyline points="195.8514,292.9724 195.8514,306.0974 195.8514,306.0974 187.1014,292.9724 187.1014,292.9724 187.1014,306.0974"/>
    <polyline points="262.6919,299.2224 268.3169,299.2224 268.3169,299.2224 270.1919,298.5974 270.1919,298.5974 270.8169,297.9724 270.8169,297.9724 271.4419,296.7224 271.4419,296.7224 271.4419,295.4724 271.4419,295.4724 270.8169,294.2224 270.8169,294.2224 270.1919,293.5974 270.1919,293.5974 268.3169,292.9724 268.3169,292.9724 262.6919,292.9724 262.6919,292.9724 262.6919,306.0974"/>
    <line x1="267.0669" x2="271.4419" y1="299.2224" y2="306.0974"/>
    <polyline points="609.0994,292.9724 609.0994,302.9724 609.0994,302.9724 608.4744,304.8474 608.4744,304.8474 607.8494,305.4724 607.8494,305.4724 606.5994,306.0974 606.5994,306.0974 605.3494,306.0974 605.3494,306.0974 604.0994,305.4724 604.0994,305.4724 603.4744,304.8474 603.4744,304.8474 602.8494,302.9724 602.8494,302.9724 602.8494,301.7224"/>
    <polygon points="283.4646,319.3701 283.4646,357.1654 283.4646,357.1654 321.2598,357.1654 321.2598,357.1654 321.2598,319.3701 321.2598,319.3701"/>
    <polyline points="287.2293,322.5394 287.8543,322.2269 287.8543,322.2269 288.7918,321.2894 288.7918,321.2894 288.7918,327.8519"/>
    <polyline points="293.1668,321.2894 296.6043,321.2894 296.6043,321.2894 294.7293,323.7894 294.7293,323.7894 295.6668,323.7894 295.6668,323.7894 296.2918,324.1019 296.2918,324.1019 296.6043,324.4144 296.6043,324.4144 296.9168,325.3519 296.9168,325.3519 296.9168,325.9769 296.9168,325.9769 296.6043,326.9144 296.6043,326.9144 295.9793,327.5394 295.9793,327.5394 295.0418,327.8519 295.0418,327.8519 294.1043,327.8519 294.1043,327.8519 293.1668,327.5394 293.1668,327.5394 292.8543,327.2269 292.8543,327.2269 292.5418,326.6019"/>
    <polyline points="300.4872,337.0177 306.1122,337.0177 306.1122,337.0177 307.9872,336.3927 307.9872,336.3927 308.6122,335.7677 308.6122,335.7677 309.2372,334.5177 309.2372,334.5177 309.2372,333.2677 309.2372,333.2677 308.6122,332.0177 308.6122,332.0177 307.9872,331.3927 307.9872,331.3927 306.1122,330.7677 306.1122,330.7677 300.4872,330.7677 300.4872,330.7677 300.4872,343.8927"/>
    <line x1="304.8622" x2="309.2372" y1="337.0177" y2="343.8927"/>
    <polyline points="321.2598,357.1654 359.0551,357.1654 359.0551,357.1654 359.0551,319.3701 359.0551,319.3701 321.2598,319.3701"/>
    <polyline points="346.72,330.7677 338.595,330.7677 338.595,330.7677 338.595,343.8927 338.595,343.8927 346.72,343.8927"/>
    <line x1="338.595" x2="343.595" y1="337.0177" y2="337.0177"/>
    <polyline points="359.0551,357.1654 396.8504,357.1654 396.8504,357.1654 396.8504,319.3701 396.8504,319.3701 359.0551,319.3701"/>
    <line x1="376.0778" x2="376.0778" y1="330.7677" y2="343.8927"/>
    <line x1="384.8278" x2="376.0778" y1="330.7677" y2="339.5177"/>
    <line x1="379.2028" x2="384.8278" y1="336.3927" y2="343.8927"/>
    <polyline points="396.8504,357.1654 434.6457,357.1654 434.6457,357.1654 434.6457,319.3701 434.6457,319.3701 396.8504,319.3701"/>
    <line x1="413.873" x2="413.873" y1="330.7677" y2="343.8927"/>
    <line x1="422.623" x2="413.873" y1="330.7677" y2="339.5177"/>
    <line x1="416.998" x2="422.623" y1="336.3927" y2="343.8927"/>
    <polyline points="434.6457,357.1654 472.4409,357.1654 472.4409,357.1654 472.4409,319.3701 472.4409,319.3701 434.6457,319.3701"/>
    <polyline points="460.1058,330.7677 451.9808,330.7677 451.9808,330.7677 451.9808,343.8927 451.9808,343.8927 460.1058,343.8927"/>
    <line x1="451.9808" x2="456.9808" y1="337.0177" y2="337.0177"/>
    <polyline points="472.4409,357.1654 510.2362,357.1654 510.2362,357.1654 510.2362,319.3701 510.2362,319.3701 472.4409,319.3701"/>
    <polyline points="489.4636,337.0177 495.0886,337.0177 495.0886,337.0177 496.9636,336.3927 496.9636,336.3927 497.5886,335.7677 497.5886,335.7677 498.2136,334.5177 498.2136,334.5177 498.2136,333.2677 498.2136,333.2677 497.5886,332.0177 497.5886,332.0177 496.9636,331.3927 496.9636,331.3927 495.0886,330.7677 495.0886,330.7677 489.4636,330.7677 489.4636,330.7677 489.4636,343.8927"/>
    <line x1="493.8386" x2="498.2136" y1="337.0177" y2="343.8927"/>
    <polyline points="510.2362,357.1654 548.0315,357.1654 548.0315,357.1654 585.8268,357.1654 585.8268,357.1654 585.8268,319.3701 585.8268,319.3701 548.0315,319.3701 548.0315,319.3701 510.2362,319.3701"/>
    <line x1="548.0315" x2="548.0315" y1="357.1654" y2="319.3701"/>
    <line x1="529.7589" x2="529.7589" y1="330.7677" y2="343.8927"/>
    <line x1="525.3839" x2="534.1339" y1="330.7677" y2="330.7677"/>
    <polyline points="571.3041,330.7677 571.3041,340.7677 571.3041,340.7677 570.6791,342.6427 570.6791,342.6427 570.0541,343.2677 570.0541,343.2677 568.8041,343.8927 568.8041,343.8927 567.5541,343.8927 567.5541,343.8927 566.3041,343.2677 566.3041,343.2677 565.6791,342.6427 565.6791,342.6427 565.0541,340.7677 565.0541,340.7677 565.0541,339.5177"/>
    <polyline points="585.8268,357.1654 623.622,357.1654 623.622,357.1654 623.622,319.3701"/>
    <polyline points="611.2869,330.7677 603.1619,330.7677 603.1619,330.7677 603.1619,343.8927 603.1619,343.8927 611.2869,343.8927"/>
    <line x1="603.1619" x2="608.1619" y1="337.0177" y2="337.0177"/>
  </g>
</svg>
