<?xml version="1.0" encoding="utf-8" ?>
<svg xmlns="http://www.w3.org/2000/svg" xmlns:cc="http://creativecommons.org/ns" xmlns:dc="http://purl.org/dc/elements/1.1/" xmlns:ev="http://www.w3.org/2001/xml-events" xmlns:inkscape="http://www.inkscape.org/namespaces/inkscape" xmlns:rdf="http://www.w3.org/1999/02/22-rdf-syntax-ns" xmlns:sodipodi="http://sodipodi.sourceforge.net/DTD/sodipodi-0.dtd" xmlns:xlink="http://www.w3.org/1999/xlink" baseProfile="tiny" height="9.9cm" version="1.2" viewBox="0 0 793.7007874015749 374.1732283464567" width="21.0cm">
  <metadata>
    <rdf:RDF>
      <cc:Work>
        <dc:format>image/svg+xml</dc:format>
        <dc:source>vpype eval 'cell=10;width=210;height=99' eval 'nCols=20;nRows=9' eval 'cells=[8,12,21,23,26,27,28,29,31,32,33,34,35,36,37,38,39,41,43,45,48,50,52,58,60,61,62,63,64,65,66,68,70,72,75,76,77,78,81,83,85,87,88,89,90,91,92,93,98,101,102,103,104,105,106,108,110,112,118,121,123,125,128,131,132,133,134,135,136,137,138,139,141,143,148,149,152,158,160,161,162,163,164,165,166,167,168,170,171,172,173,174,175,176,177]' eval 'chars=[&quot;K&quot;,&quot;M&quot;,&quot;S&quot;,&quot;H&quot;,&quot;F&quot;,&quot;I&quot;,&quot;L&quot;,&quot;E&quot;,&quot;M&quot;,&quot;A&quot;,&quot;R&quot;,&quot;I&quot;,&quot;E&quot;,&quot;-&quot;,&quot;L&quot;,&quot;O&quot;,&quot;U&quot;,&quot;K&quot;,&quot;A&quot;,&quot;J&quot;,&quot;A&quot;,&quot;D&quot;,&quot;N&quot;,&quot;O&quot;,&quot;R&quot;,&quot;E&quot;,&quot;I&quot;,&quot;N&quot;,&quot;O&quot;,&quot;U&quot;,&quot;T&quot;,&quot;V&quot;,&quot;R&quot;,&quot;D&quot;,&quot;S&quot;,&quot;T&quot;,&quot;E&quot;,&quot;R&quot;,&quot;L&quot;,&quot;D&quot;,&quot;L&quot;,&quot;D&quot;,&quot;E&quot;,&quot;B&quot;,&quot;O&quot;,&quot;R&quot;,&quot;A&quot;,&quot;H&quot;,&quot;T&quot;,&quot;L&quot;,&quot;A&quot;,&quot;D&quot;,&quot;D&quot;,&quot;E&quot;,&quot;R&quot;,&quot;R&quot;,&quot;P&quot;,&quot;R&quot;,&quot;J&quot;,&quot;E&quot;,&quot;O&quot;,&quot;S&quot;,&quot;T&quot;,&quot;U&quot;,&quot;I&quot;,&quot;T&quot;,&quot;L&quot;,&quot;I&quot;,&quot;K&quot;,&quot;K&quot;,&quot;E&quot;,&quot;N&quot;,&quot;K&quot;,&quot;E&quot;,&quot;J&quot;,&quot;A&quot;,&quot;J&quot;,&quot;S&quot;,&quot;R&quot;,&quot;E&quot;,&quot;K&quot;,&quot;K&quot;,&quot;E&quot;,&quot;R&quot;,&quot;T&quot;,&quot;J&quot;,&quot;E&quot;,&quot;K&quot;,&quot;I&quot;,&quot;N&quot;,&quot;D&quot;,&quot;E&quot;,&quot;R&quot;,&quot;E&quot;,&quot;N&quot;]' eval 'numbers=[8,12,21,23,26,31,38,45,50,60,75,87,101,131,148,160,170]' eval counter=1 eval charIndex=0 begin grid -o '%cell*mm%' '%cell*mm%' %nCols% %nRows% eval '%isCell=_i in cells%' eval '%number=_i in numbers%' eval '%size=10 if isCell else 0%' rect 0 0 '%size*mm%' '%size*mm%' text -s 10 -p 0.5mm 1.5mm '%counter if number else '&quot;'&quot;''&quot;'&quot;'%' text -s 20 -p 5mm 5mm -a center '%chars[charIndex] if isCell else '&quot;'&quot;''&quot;'&quot;'%' eval '%if number: counter+=1 %' eval '%if isCell: charIndex+=1 %' end splitall deduplicate linemerge --tolerance 0.1mm write -m none --page-size '%width*mm%x%height*mm%' --center ./svgs/solution/fd2ea3.svg
</dc:source>
        <dc:date>2023-12-29T10:02:45.621673</dc:date>
      </cc:Work>
    </rdf:RDF>
  </metadata>
  <defs/>
  <g fill="none" id="layer1" inkscape:groupmode="layer" inkscape:label="1" stroke="#000000" style="display:inline">
    <polyline points="510.2362,130.3937 472.4409,130.3937 472.4409,130.3937 472.4409,92.5984 472.4409,92.5984 434.6457,92.5984 434.6457,92.5984 434.6457,54.8031 434.6457,54.8031 472.4409,54.8031 472.4409,54.8031 472.4409,92.5984 472.4409,92.5984 510.2362,92.5984 510.2362,92.5984 510.2362,54.8031 510.2362,54.8031 472.4409,54.8031 472.4409,54.8031 472.4409,17.0079 472.4409,17.0079 510.2362,17.0079 510.2362,17.0079 510.2362,54.8031 510.2362,54.8031 548.0315,54.8031 548.0315,54.8031 548.0315,92.5984 548.0315,92.5984 510.2362,92.5984 510.2362,92.5984 510.2362,130.3937 510.2362,130.3937 510.2362,168.189 510.2362,168.189 472.4409,168.189 472.4409,168.189 434.6457,168.189 434.6457,168.189 434.6457,205.9843 434.6457,205.9843 434.6457,243.7795 434.6457,243.7795 396.8504,243.7795 396.8504,243.7795 396.8504,205.9843 396.8504,205.9843 396.8504,168.189 396.8504,168.189 396.8504,130.3937 396.8504,130.3937 396.8504,92.5984 396.8504,92.5984 434.6457,92.5984 434.6457,92.5984 434.6457,130.3937 434.6457,130.3937 434.6457,168.189 434.6457,168.189 396.8504,168.189 396.8504,168.189 359.0551,168.189 359.0551,168.189 359.0551,130.3937 359.0551,130.3937 359.0551,92.5984 359.0551,92.5984 359.0551,54.8031 359.0551,54.8031 396.8504,54.8031 396.8504,54.8031 396.8504,92.5984 396.8504,92.5984 359.0551,92.5984 359.0551,92.5984 321.2598,92.5984 321.2598,92.5984 321.2598,54.8031 321.2598,54.8031 359.0551,54.8031 359.0551,54.8031 359.0551,17.0079 359.0551,17.0079 321.2598,17.0079 321.2598,17.0079 321.2598,54.8031 321.2598,54.8031 283.4646,54.8031 283.4646,54.8031 245.6693,54.8031 245.6693,54.8031 245.6693,92.5984 245.6693,92.5984 283.4646,92.5984 283.4646,92.5984 283.4646,54.8031"/>
    <polyline points="325.0246,20.1772 325.6496,19.8647 325.6496,19.8647 326.5871,18.9272 326.5871,18.9272 326.5871,25.4897"/>
    <line x1="338.2825" x2="338.2825" y1="28.4055" y2="41.5305"/>
    <line x1="347.0325" x2="338.2825" y1="28.4055" y2="37.1555"/>
    <line x1="341.4075" x2="347.0325" y1="34.0305" y2="41.5305"/>
    <polyline points="475.5807,20.4897 475.5807,20.1772 475.5807,20.1772 475.8932,19.5522 475.8932,19.5522 476.2057,19.2397 476.2057,19.2397 476.8307,18.9272 476.8307,18.9272 478.0807,18.9272 478.0807,18.9272 478.7057,19.2397 478.7057,19.2397 479.0182,19.5522 479.0182,19.5522 479.3307,20.1772 479.3307,20.1772 479.3307,20.8022 479.3307,20.8022 479.0182,21.4272 479.0182,21.4272 478.3932,22.3647 478.3932,22.3647 475.2682,25.4897 475.2682,25.4897 479.6432,25.4897"/>
    <polyline points="498.8386,41.5305 498.8386,28.4055 498.8386,28.4055 493.8386,41.5305 493.8386,41.5305 488.8386,28.4055 488.8386,28.4055 488.8386,41.5305"/>
    <polygon points="56.6929,54.8031 56.6929,92.5984 56.6929,92.5984 94.4882,92.5984 94.4882,92.5984 94.4882,54.8031 94.4882,54.8031"/>
    <polyline points="60.1452,56.7224 63.5827,56.7224 63.5827,56.7224 61.7077,59.2224 61.7077,59.2224 62.6452,59.2224 62.6452,59.2224 63.2702,59.5349 63.2702,59.5349 63.5827,59.8474 63.5827,59.8474 63.8952,60.7849 63.8952,60.7849 63.8952,61.4099 63.8952,61.4099 63.5827,62.3474 63.5827,62.3474 62.9577,62.9724 62.9577,62.9724 62.0202,63.2849 62.0202,63.2849 61.0827,63.2849 61.0827,63.2849 60.1452,62.9724 60.1452,62.9724 59.8327,62.6599 59.8327,62.6599 59.5202,62.0349"/>
    <polyline points="81.8406,68.0758 80.5906,66.8258 80.5906,66.8258 78.7156,66.2008 78.7156,66.2008 76.2156,66.2008 76.2156,66.2008 74.3406,66.8258 74.3406,66.8258 73.0906,68.0758 73.0906,68.0758 73.0906,69.3258 73.0906,69.3258 73.7156,70.5758 73.7156,70.5758 74.3406,71.2008 74.3406,71.2008 75.5906,71.8258 75.5906,71.8258 79.3406,73.0758 79.3406,73.0758 80.5906,73.7008 80.5906,73.7008 81.2156,74.3258 81.2156,74.3258 81.8406,75.5758 81.8406,75.5758 81.8406,77.4508 81.8406,77.4508 80.5906,78.7008 80.5906,78.7008 78.7156,79.3258 78.7156,79.3258 76.2156,79.3258 76.2156,79.3258 74.3406,78.7008 74.3406,78.7008 73.0906,77.4508"/>
    <polygon points="132.2835,54.8031 132.2835,92.5984 132.2835,92.5984 132.2835,130.3937 132.2835,130.3937 170.0787,130.3937 170.0787,130.3937 170.0787,92.5984 170.0787,92.5984 170.0787,54.8031 170.0787,54.8031"/>
    <line x1="132.2835" x2="170.0787" y1="92.5984" y2="92.5984"/>
    <polyline points="138.2357,63.2849 138.2357,56.7224 138.2357,56.7224 135.1107,61.0974 135.1107,61.0974 139.7982,61.0974"/>
    <line x1="149.3061" x2="149.3061" y1="66.2008" y2="79.3258"/>
    <line x1="158.0561" x2="158.0561" y1="66.2008" y2="79.3258"/>
    <line x1="149.3061" x2="158.0561" y1="72.4508" y2="72.4508"/>
    <polyline points="252.2466,56.7224 249.1216,56.7224 249.1216,56.7224 248.8091,59.5349 248.8091,59.5349 249.1216,59.2224 249.1216,59.2224 250.0591,58.9099 250.0591,58.9099 250.9966,58.9099 250.9966,58.9099 251.9341,59.2224 251.9341,59.2224 252.5591,59.8474 252.5591,59.8474 252.8716,60.7849 252.8716,60.7849 252.8716,61.4099 252.8716,61.4099 252.5591,62.3474 252.5591,62.3474 251.9341,62.9724 251.9341,62.9724 250.9966,63.2849 250.9966,63.2849 250.0591,63.2849 250.0591,63.2849 249.1216,62.9724 249.1216,62.9724 248.8091,62.6599 248.8091,62.6599 248.4966,62.0349"/>
    <polyline points="271.1294,66.2008 263.0044,66.2008 263.0044,66.2008 263.0044,79.3258"/>
    <line x1="263.0044" x2="268.0044" y1="72.4508" y2="72.4508"/>
    <polyline points="283.4646,92.5984 321.2598,92.5984 321.2598,92.5984 321.2598,130.3937 321.2598,130.3937 321.2598,168.189 321.2598,168.189 359.0551,168.189 359.0551,168.189 359.0551,205.9843 359.0551,205.9843 396.8504,205.9843 396.8504,205.9843 434.6457,205.9843 434.6457,205.9843 472.4409,205.9843 472.4409,205.9843 472.4409,168.189 472.4409,168.189 472.4409,130.3937"/>
    <line x1="304.8622" x2="304.8622" y1="66.2008" y2="79.3258"/>
    <polyline points="338.9075,66.2008 338.9075,79.3258 338.9075,79.3258 346.4075,79.3258"/>
    <polyline points="384.5153,66.2008 376.3903,66.2008 376.3903,66.2008 376.3903,79.3258 376.3903,79.3258 384.5153,79.3258"/>
    <line x1="376.3903" x2="381.3903" y1="72.4508" y2="72.4508"/>
    <polyline points="441.5354,57.6599 441.2229,57.0349 441.2229,57.0349 440.2854,56.7224 440.2854,56.7224 439.6604,56.7224 439.6604,56.7224 438.7229,57.0349 438.7229,57.0349 438.0979,57.9724 438.0979,57.9724 437.7854,59.5349 437.7854,59.5349 437.7854,61.0974 437.7854,61.0974 438.0979,62.3474 438.0979,62.3474 438.7229,62.9724 438.7229,62.9724 439.6604,63.2849 439.6604,63.2849 439.9729,63.2849 439.9729,63.2849 440.9104,62.9724 440.9104,62.9724 441.5354,62.3474 441.5354,62.3474 441.8479,61.4099 441.8479,61.4099 441.8479,61.0974 441.8479,61.0974 441.5354,60.1599 441.5354,60.1599 440.9104,59.5349 440.9104,59.5349 439.9729,59.2224 439.9729,59.2224 439.6604,59.2224 439.6604,59.2224 438.7229,59.5349 438.7229,59.5349 438.0979,60.1599 438.0979,60.1599 437.7854,61.0974"/>
    <polyline points="461.0433,79.3258 461.0433,66.2008 461.0433,66.2008 456.0433,79.3258 456.0433,79.3258 451.0433,66.2008 451.0433,66.2008 451.0433,79.3258"/>
    <polyline points="496.9636,79.3258 491.9636,66.2008 491.9636,66.2008 486.9636,79.3258"/>
    <line x1="488.8386" x2="495.0886" y1="74.9508" y2="74.9508"/>
    <polyline points="527.2589,72.4508 532.8839,72.4508 532.8839,72.4508 534.7589,71.8258 534.7589,71.8258 535.3839,71.2008 535.3839,71.2008 536.0089,69.9508 536.0089,69.9508 536.0089,68.7008 536.0089,68.7008 535.3839,67.4508 535.3839,67.4508 534.7589,66.8258 534.7589,66.8258 532.8839,66.2008 532.8839,66.2008 527.2589,66.2008 527.2589,66.2008 527.2589,79.3258"/>
    <line x1="531.6339" x2="536.0089" y1="72.4508" y2="79.3258"/>
    <polyline points="548.0315,92.5984 585.8268,92.5984 585.8268,92.5984 585.8268,54.8031 585.8268,54.8031 548.0315,54.8031"/>
    <line x1="569.4291" x2="569.4291" y1="66.2008" y2="79.3258"/>
    <polyline points="585.8268,92.5984 623.622,92.5984 623.622,92.5984 661.4173,92.5984 661.4173,92.5984 699.2126,92.5984 699.2126,92.5984 699.2126,54.8031 699.2126,54.8031 661.4173,54.8031 661.4173,54.8031 623.622,54.8031 623.622,54.8031 585.8268,54.8031"/>
    <line x1="623.622" x2="623.622" y1="92.5984" y2="54.8031"/>
    <polyline points="611.2869,66.2008 603.1619,66.2008 603.1619,66.2008 603.1619,79.3258 603.1619,79.3258 611.2869,79.3258"/>
    <line x1="603.1619" x2="608.1619" y1="72.4508" y2="72.4508"/>
    <line x1="661.4173" x2="661.4173" y1="92.5984" y2="54.8031"/>
    <line x1="639.3947" x2="650.6447" y1="73.7008" y2="73.7008"/>
    <polyline points="679.065,66.2008 679.065,79.3258 679.065,79.3258 686.565,79.3258"/>
    <polyline points="737.0079,54.8031 774.8031,54.8031 774.8031,54.8031 774.8031,92.5984 774.8031,92.5984 737.0079,92.5984 737.0079,92.5984 737.0079,130.3937 737.0079,130.3937 699.2126,130.3937 699.2126,130.3937 699.2126,92.5984 699.2126,92.5984 737.0079,92.5984 737.0079,92.5984 737.0079,54.8031 737.0079,54.8031 699.2126,54.8031"/>
    <polyline points="702.0399,56.7224 706.4149,56.7224 706.4149,56.7224 703.2899,63.2849"/>
    <polygon points="718.7352,66.2008 717.4852,66.8258 717.4852,66.8258 716.2352,68.0758 716.2352,68.0758 715.6102,69.3258 715.6102,69.3258 714.9852,71.2008 714.9852,71.2008 714.9852,74.3258 714.9852,74.3258 715.6102,76.2008 715.6102,76.2008 716.2352,77.4508 716.2352,77.4508 717.4852,78.7008 717.4852,78.7008 718.7352,79.3258 718.7352,79.3258 721.2352,79.3258 721.2352,79.3258 722.4852,78.7008 722.4852,78.7008 723.7352,77.4508 723.7352,77.4508 724.3602,76.2008 724.3602,76.2008 724.9852,74.3258 724.9852,74.3258 724.9852,71.2008 724.9852,71.2008 724.3602,69.3258 724.3602,69.3258 723.7352,68.0758 723.7352,68.0758 722.4852,66.8258 722.4852,66.8258 721.2352,66.2008 721.2352,66.2008"/>
    <polyline points="754.0305,66.2008 754.0305,75.5758 754.0305,75.5758 754.6555,77.4508 754.6555,77.4508 755.9055,78.7008 755.9055,78.7008 757.7805,79.3258 757.7805,79.3258 759.0305,79.3258 759.0305,79.3258 760.9055,78.7008 760.9055,78.7008 762.1555,77.4508 762.1555,77.4508 762.7805,75.5758 762.7805,75.5758 762.7805,66.2008"/>
    <polyline points="56.6929,92.5984 56.6929,130.3937 56.6929,130.3937 18.8976,130.3937 18.8976,130.3937 18.8976,168.189 18.8976,168.189 56.6929,168.189 56.6929,168.189 56.6929,205.9843 56.6929,205.9843 94.4882,205.9843 94.4882,205.9843 94.4882,168.189 94.4882,168.189 94.4882,130.3937 94.4882,130.3937 94.4882,92.5984"/>
    <polygon points="56.6929,130.3937 94.4882,130.3937 94.4882,130.3937 132.2835,130.3937 132.2835,130.3937 132.2835,168.189 132.2835,168.189 132.2835,205.9843 132.2835,205.9843 94.4882,205.9843 94.4882,205.9843 94.4882,243.7795 94.4882,243.7795 132.2835,243.7795 132.2835,243.7795 132.2835,205.9843 132.2835,205.9843 170.0787,205.9843 170.0787,205.9843 170.0787,168.189 170.0787,168.189 170.0787,130.3937 170.0787,130.3937 207.874,130.3937 207.874,130.3937 245.6693,130.3937 245.6693,130.3937 245.6693,92.5984 245.6693,92.5984 207.874,92.5984 207.874,92.5984 207.874,130.3937 207.874,130.3937 207.874,168.189 207.874,168.189 245.6693,168.189 245.6693,168.189 245.6693,130.3937 245.6693,130.3937 283.4646,130.3937 283.4646,130.3937 283.4646,168.189 283.4646,168.189 283.4646,205.9843 283.4646,205.9843 321.2598,205.9843 321.2598,205.9843 321.2598,243.7795 321.2598,243.7795 359.0551,243.7795 359.0551,243.7795 359.0551,205.9843 359.0551,205.9843 321.2598,205.9843 321.2598,205.9843 321.2598,168.189 321.2598,168.189 283.4646,168.189 283.4646,168.189 245.6693,168.189 245.6693,168.189 245.6693,205.9843 245.6693,205.9843 207.874,205.9843 207.874,205.9843 170.0787,205.9843 170.0787,205.9843 170.0787,243.7795 170.0787,243.7795 207.874,243.7795 207.874,243.7795 245.6693,243.7795 245.6693,243.7795 245.6693,205.9843 245.6693,205.9843 283.4646,205.9843 283.4646,205.9843 283.4646,243.7795 283.4646,243.7795 245.6693,243.7795 245.6693,243.7795 245.6693,281.5748 245.6693,281.5748 207.874,281.5748 207.874,281.5748 207.874,243.7795 207.874,243.7795 207.874,205.9843 207.874,205.9843 207.874,168.189 207.874,168.189 170.0787,168.189 170.0787,168.189 132.2835,168.189 132.2835,168.189 94.4882,168.189 94.4882,168.189 56.6929,168.189 56.6929,168.189"/>
    <line x1="73.7156" x2="73.7156" y1="103.9961" y2="117.1211"/>
    <line x1="82.4656" x2="73.7156" y1="103.9961" y2="112.7461"/>
    <line x1="76.8406" x2="82.4656" y1="109.6211" y2="117.1211"/>
    <polyline points="156.8061,117.1211 151.8061,103.9961 151.8061,103.9961 146.8061,117.1211"/>
    <line x1="148.6811" x2="154.9311" y1="112.7461" y2="112.7461"/>
    <polygon points="212.2638,94.5177 211.3263,94.8302 211.3263,94.8302 211.0138,95.4552 211.0138,95.4552 211.0138,96.0802 211.0138,96.0802 211.3263,96.7052 211.3263,96.7052 211.9513,97.0177 211.9513,97.0177 213.2013,97.3302 213.2013,97.3302 214.1388,97.6427 214.1388,97.6427 214.7638,98.2677 214.7638,98.2677 215.0763,98.8927 215.0763,98.8927 215.0763,99.8302 215.0763,99.8302 214.7638,100.4552 214.7638,100.4552 214.4513,100.7677 214.4513,100.7677 213.5138,101.0802 213.5138,101.0802 212.2638,101.0802 212.2638,101.0802 211.3263,100.7677 211.3263,100.7677 211.0138,100.4552 211.0138,100.4552 210.7013,99.8302 210.7013,99.8302 210.7013,98.8927 210.7013,98.8927 211.0138,98.2677 211.0138,98.2677 211.6388,97.6427 211.6388,97.6427 212.5763,97.3302 212.5763,97.3302 213.8263,97.0177 213.8263,97.0177 214.4513,96.7052 214.4513,96.7052 214.7638,96.0802 214.7638,96.0802 214.7638,95.4552 214.7638,95.4552 214.4513,94.8302 214.4513,94.8302 213.5138,94.5177 213.5138,94.5177"/>
    <polyline points="231.1467,103.9961 231.1467,113.9961 231.1467,113.9961 230.5217,115.8711 230.5217,115.8711 229.8967,116.4961 229.8967,116.4961 228.6467,117.1211 228.6467,117.1211 227.3967,117.1211 227.3967,117.1211 226.1467,116.4961 226.1467,116.4961 225.5217,115.8711 225.5217,115.8711 224.8967,113.9961 224.8967,113.9961 224.8967,112.7461"/>
    <line x1="321.2598" x2="359.0551" y1="130.3937" y2="130.3937"/>
    <polyline points="345.7825,117.1211 340.7825,103.9961 340.7825,103.9961 335.7825,117.1211"/>
    <line x1="337.6575" x2="343.9075" y1="112.7461" y2="112.7461"/>
    <line x1="396.8504" x2="434.6457" y1="130.3937" y2="130.3937"/>
    <polyline points="403.7402,96.7052 403.4277,97.6427 403.4277,97.6427 402.8027,98.2677 402.8027,98.2677 401.8652,98.5802 401.8652,98.5802 401.5527,98.5802 401.5527,98.5802 400.6152,98.2677 400.6152,98.2677 399.9902,97.6427 399.9902,97.6427 399.6777,96.7052 399.6777,96.7052 399.6777,96.3927 399.6777,96.3927 399.9902,95.4552 399.9902,95.4552 400.6152,94.8302 400.6152,94.8302 401.5527,94.5177 401.5527,94.5177 401.8652,94.5177 401.8652,94.5177 402.8027,94.8302 402.8027,94.8302 403.4277,95.4552 403.4277,95.4552 403.7402,96.7052 403.7402,96.7052 403.7402,98.2677 403.7402,98.2677 403.4277,99.8302 403.4277,99.8302 402.8027,100.7677 402.8027,100.7677 401.8652,101.0802 401.8652,101.0802 401.2402,101.0802 401.2402,101.0802 400.3027,100.7677 400.3027,100.7677 399.9902,100.1427"/>
    <polygon points="413.873,103.9961 413.873,117.1211 413.873,117.1211 418.248,117.1211 418.248,117.1211 420.123,116.4961 420.123,116.4961 421.373,115.2461 421.373,115.2461 421.998,113.9961 421.998,113.9961 422.623,112.1211 422.623,112.1211 422.623,108.9961 422.623,108.9961 421.998,107.1211 421.998,107.1211 421.373,105.8711 421.373,105.8711 420.123,104.6211 420.123,104.6211 418.248,103.9961 418.248,103.9961"/>
    <polyline points="498.2136,103.9961 498.2136,117.1211 498.2136,117.1211 489.4636,103.9961 489.4636,103.9961 489.4636,117.1211"/>
    <polygon points="718.7352,103.9961 717.4852,104.6211 717.4852,104.6211 716.2352,105.8711 716.2352,105.8711 715.6102,107.1211 715.6102,107.1211 714.9852,108.9961 714.9852,108.9961 714.9852,112.1211 714.9852,112.1211 715.6102,113.9961 715.6102,113.9961 716.2352,115.2461 716.2352,115.2461 717.4852,116.4961 717.4852,116.4961 718.7352,117.1211 718.7352,117.1211 721.2352,117.1211 721.2352,117.1211 722.4852,116.4961 722.4852,116.4961 723.7352,115.2461 723.7352,115.2461 724.3602,113.9961 724.3602,113.9961 724.9852,112.1211 724.9852,112.1211 724.9852,108.9961 724.9852,108.9961 724.3602,107.1211 724.3602,107.1211 723.7352,105.8711 723.7352,105.8711 722.4852,104.6211 722.4852,104.6211 721.2352,103.9961 721.2352,103.9961"/>
    <polyline points="22.6624,133.563 23.2874,133.2505 23.2874,133.2505 24.2249,132.313 24.2249,132.313 24.2249,138.8755"/>
    <polygon points="29.8499,132.313 28.9124,132.6255 28.9124,132.6255 28.2874,133.563 28.2874,133.563 27.9749,135.1255 27.9749,135.1255 27.9749,136.063 27.9749,136.063 28.2874,137.6255 28.2874,137.6255 28.9124,138.563 28.9124,138.563 29.8499,138.8755 29.8499,138.8755 30.4749,138.8755 30.4749,138.8755 31.4124,138.563 31.4124,138.563 32.0374,137.6255 32.0374,137.6255 32.3499,136.063 32.3499,136.063 32.3499,135.1255 32.3499,135.1255 32.0374,133.563 32.0374,133.563 31.4124,132.6255 31.4124,132.6255 30.4749,132.313 30.4749,132.313"/>
    <polyline points="35.9203,148.0413 41.5453,148.0413 41.5453,148.0413 43.4203,147.4163 43.4203,147.4163 44.0453,146.7913 44.0453,146.7913 44.6703,145.5413 44.6703,145.5413 44.6703,144.2913 44.6703,144.2913 44.0453,143.0413 44.0453,143.0413 43.4203,142.4163 43.4203,142.4163 41.5453,141.7913 41.5453,141.7913 35.9203,141.7913 35.9203,141.7913 35.9203,154.9163"/>
    <line x1="40.2953" x2="44.6703" y1="148.0413" y2="154.9163"/>
    <polyline points="82.1531,141.7913 74.0281,141.7913 74.0281,141.7913 74.0281,154.9163 74.0281,154.9163 82.1531,154.9163"/>
    <line x1="74.0281" x2="79.0281" y1="148.0413" y2="148.0413"/>
    <line x1="115.8858" x2="115.8858" y1="141.7913" y2="154.9163"/>
    <polyline points="158.0561,141.7913 158.0561,154.9163 158.0561,154.9163 149.3061,141.7913 149.3061,141.7913 149.3061,154.9163"/>
    <polygon points="189.6014,141.7913 188.3514,142.4163 188.3514,142.4163 187.1014,143.6663 187.1014,143.6663 186.4764,144.9163 186.4764,144.9163 185.8514,146.7913 185.8514,146.7913 185.8514,149.9163 185.8514,149.9163 186.4764,151.7913 186.4764,151.7913 187.1014,153.0413 187.1014,153.0413 188.3514,154.2913 188.3514,154.2913 189.6014,154.9163 189.6014,154.9163 192.1014,154.9163 192.1014,154.9163 193.3514,154.2913 193.3514,154.2913 194.6014,153.0413 194.6014,153.0413 195.2264,151.7913 195.2264,151.7913 195.8514,149.9163 195.8514,149.9163 195.8514,146.7913 195.8514,146.7913 195.2264,144.9163 195.2264,144.9163 194.6014,143.6663 194.6014,143.6663 193.3514,142.4163 193.3514,142.4163 192.1014,141.7913 192.1014,141.7913"/>
    <polyline points="224.8967,141.7913 224.8967,151.1663 224.8967,151.1663 225.5217,153.0413 225.5217,153.0413 226.7717,154.2913 226.7717,154.2913 228.6467,154.9163 228.6467,154.9163 229.8967,154.9163 229.8967,154.9163 231.7717,154.2913 231.7717,154.2913 233.0217,153.0413 233.0217,153.0413 233.6467,151.1663 233.6467,151.1663 233.6467,141.7913"/>
    <line x1="265.1919" x2="265.1919" y1="141.7913" y2="154.9163"/>
    <line x1="260.8169" x2="269.5669" y1="141.7913" y2="141.7913"/>
    <polyline points="335.7825,141.7913 340.7825,154.9163 340.7825,154.9163 345.7825,141.7913"/>
    <polyline points="413.873,148.0413 419.498,148.0413 419.498,148.0413 421.373,147.4163 421.373,147.4163 421.998,146.7913 421.998,146.7913 422.623,145.5413 422.623,145.5413 422.623,144.2913 422.623,144.2913 421.998,143.0413 421.998,143.0413 421.373,142.4163 421.373,142.4163 419.498,141.7913 419.498,141.7913 413.873,141.7913 413.873,141.7913 413.873,154.9163"/>
    <line x1="418.248" x2="422.623" y1="148.0413" y2="154.9163"/>
    <polygon points="489.4636,141.7913 489.4636,154.9163 489.4636,154.9163 493.8386,154.9163 493.8386,154.9163 495.7136,154.2913 495.7136,154.2913 496.9636,153.0413 496.9636,153.0413 497.5886,151.7913 497.5886,151.7913 498.2136,149.9163 498.2136,149.9163 498.2136,146.7913 498.2136,146.7913 497.5886,144.9163 497.5886,144.9163 496.9636,143.6663 496.9636,143.6663 495.7136,142.4163 495.7136,142.4163 493.8386,141.7913 493.8386,141.7913"/>
    <polygon points="585.8268,130.3937 585.8268,168.189 585.8268,168.189 623.622,168.189 623.622,168.189 661.4173,168.189 661.4173,168.189 661.4173,130.3937 661.4173,130.3937 623.622,130.3937 623.622,130.3937"/>
    <line x1="623.622" x2="623.622" y1="168.189" y2="130.3937"/>
    <polyline points="589.5915,133.563 590.2165,133.2505 590.2165,133.2505 591.154,132.313 591.154,132.313 591.154,138.8755"/>
    <polyline points="595.8415,133.563 596.4665,133.2505 596.4665,133.2505 597.404,132.313 597.404,132.313 597.404,138.8755"/>
    <polyline points="610.9744,143.6663 609.7244,142.4163 609.7244,142.4163 607.8494,141.7913 607.8494,141.7913 605.3494,141.7913 605.3494,141.7913 603.4744,142.4163 603.4744,142.4163 602.2244,143.6663 602.2244,143.6663 602.2244,144.9163 602.2244,144.9163 602.8494,146.1663 602.8494,146.1663 603.4744,146.7913 603.4744,146.7913 604.7244,147.4163 604.7244,147.4163 608.4744,148.6663 608.4744,148.6663 609.7244,149.2913 609.7244,149.2913 610.3494,149.9163 610.3494,149.9163 610.9744,151.1663 610.9744,151.1663 610.9744,153.0413 610.9744,153.0413 609.7244,154.2913 609.7244,154.2913 607.8494,154.9163 607.8494,154.9163 605.3494,154.9163 605.3494,154.9163 603.4744,154.2913 603.4744,154.2913 602.2244,153.0413"/>
    <line x1="643.1447" x2="643.1447" y1="141.7913" y2="154.9163"/>
    <line x1="638.7697" x2="647.5197" y1="141.7913" y2="141.7913"/>
    <polyline points="661.4173,168.189 699.2126,168.189 699.2126,168.189 699.2126,130.3937 699.2126,130.3937 661.4173,130.3937"/>
    <polyline points="686.8775,141.7913 678.7525,141.7913 678.7525,141.7913 678.7525,154.9163 678.7525,154.9163 686.8775,154.9163"/>
    <line x1="678.7525" x2="683.7525" y1="148.0413" y2="148.0413"/>
    <polyline points="737.0079,168.189 737.0079,205.9843 737.0079,205.9843 699.2126,205.9843 699.2126,205.9843 699.2126,168.189 699.2126,168.189 737.0079,168.189 737.0079,168.189 737.0079,130.3937"/>
    <polyline points="716.2352,148.0413 721.8602,148.0413 721.8602,148.0413 723.7352,147.4163 723.7352,147.4163 724.3602,146.7913 724.3602,146.7913 724.9852,145.5413 724.9852,145.5413 724.9852,144.2913 724.9852,144.2913 724.3602,143.0413 724.3602,143.0413 723.7352,142.4163 723.7352,142.4163 721.8602,141.7913 721.8602,141.7913 716.2352,141.7913 716.2352,141.7913 716.2352,154.9163"/>
    <line x1="720.6102" x2="724.9852" y1="148.0413" y2="154.9163"/>
    <polyline points="74.3406,179.5866 74.3406,192.7116 74.3406,192.7116 81.8406,192.7116"/>
    <polygon points="149.3061,179.5866 149.3061,192.7116 149.3061,192.7116 153.6811,192.7116 153.6811,192.7116 155.5561,192.0866 155.5561,192.0866 156.8061,190.8366 156.8061,190.8366 157.4311,189.5866 157.4311,189.5866 158.0561,187.7116 158.0561,187.7116 158.0561,184.5866 158.0561,184.5866 157.4311,182.7116 157.4311,182.7116 156.8061,181.4616 156.8061,181.4616 155.5561,180.2116 155.5561,180.2116 153.6811,179.5866 153.6811,179.5866"/>
    <polyline points="225.5217,179.5866 225.5217,192.7116 225.5217,192.7116 233.0217,192.7116"/>
    <polyline points="287.2293,171.3583 287.8543,171.0458 287.8543,171.0458 288.7918,170.1083 288.7918,170.1083 288.7918,176.6708"/>
    <polyline points="292.8543,171.6708 292.8543,171.3583 292.8543,171.3583 293.1668,170.7333 293.1668,170.7333 293.4793,170.4208 293.4793,170.4208 294.1043,170.1083 294.1043,170.1083 295.3543,170.1083 295.3543,170.1083 295.9793,170.4208 295.9793,170.4208 296.2918,170.7333 296.2918,170.7333 296.6043,171.3583 296.6043,171.3583 296.6043,171.9833 296.6043,171.9833 296.2918,172.6083 296.2918,172.6083 295.6668,173.5458 295.6668,173.5458 292.5418,176.6708 292.5418,176.6708 296.9168,176.6708"/>
    <polygon points="300.4872,179.5866 300.4872,192.7116 300.4872,192.7116 304.8622,192.7116 304.8622,192.7116 306.7372,192.0866 306.7372,192.0866 307.9872,190.8366 307.9872,190.8366 308.6122,189.5866 308.6122,189.5866 309.2372,187.7116 309.2372,187.7116 309.2372,184.5866 309.2372,184.5866 308.6122,182.7116 308.6122,182.7116 307.9872,181.4616 307.9872,181.4616 306.7372,180.2116 306.7372,180.2116 304.8622,179.5866 304.8622,179.5866"/>
    <polyline points="346.72,179.5866 338.595,179.5866 338.595,179.5866 338.595,192.7116 338.595,192.7116 346.72,192.7116"/>
    <line x1="338.595" x2="343.595" y1="185.8366" y2="185.8366"/>
    <polyline points="381.7028,185.8366 383.5778,185.2116 383.5778,185.2116 384.2028,184.5866 384.2028,184.5866 384.8278,183.3366 384.8278,183.3366 384.8278,182.0866 384.8278,182.0866 384.2028,180.8366 384.2028,180.8366 383.5778,180.2116 383.5778,180.2116 381.7028,179.5866 381.7028,179.5866 376.0778,179.5866 376.0778,179.5866 376.0778,192.7116 376.0778,192.7116 381.7028,192.7116 381.7028,192.7116 383.5778,192.0866 383.5778,192.0866 384.2028,191.4616 384.2028,191.4616 384.8278,190.2116 384.8278,190.2116 384.8278,188.3366 384.8278,188.3366 384.2028,187.0866 384.2028,187.0866 383.5778,186.4616 383.5778,186.4616 381.7028,185.8366 381.7028,185.8366 376.0778,185.8366"/>
    <polygon points="416.373,179.5866 415.123,180.2116 415.123,180.2116 413.873,181.4616 413.873,181.4616 413.248,182.7116 413.248,182.7116 412.623,184.5866 412.623,184.5866 412.623,187.7116 412.623,187.7116 413.248,189.5866 413.248,189.5866 413.873,190.8366 413.873,190.8366 415.123,192.0866 415.123,192.0866 416.373,192.7116 416.373,192.7116 418.873,192.7116 418.873,192.7116 420.123,192.0866 420.123,192.0866 421.373,190.8366 421.373,190.8366 421.998,189.5866 421.998,189.5866 422.623,187.7116 422.623,187.7116 422.623,184.5866 422.623,184.5866 421.998,182.7116 421.998,182.7116 421.373,181.4616 421.373,181.4616 420.123,180.2116 420.123,180.2116 418.873,179.5866 418.873,179.5866"/>
    <polyline points="451.6683,185.8366 457.2933,185.8366 457.2933,185.8366 459.1683,185.2116 459.1683,185.2116 459.7933,184.5866 459.7933,184.5866 460.4183,183.3366 460.4183,183.3366 460.4183,182.0866 460.4183,182.0866 459.7933,180.8366 459.7933,180.8366 459.1683,180.2116 459.1683,180.2116 457.2933,179.5866 457.2933,179.5866 451.6683,179.5866 451.6683,179.5866 451.6683,192.7116"/>
    <line x1="456.0433" x2="460.4183" y1="185.8366" y2="192.7116"/>
    <polygon points="472.4409,205.9843 510.2362,205.9843 510.2362,205.9843 510.2362,168.189 510.2362,168.189 548.0315,168.189 548.0315,168.189 548.0315,205.9843 548.0315,205.9843 510.2362,205.9843 510.2362,205.9843 510.2362,243.7795 510.2362,243.7795 472.4409,243.7795 472.4409,243.7795"/>
    <polyline points="496.9636,192.7116 491.9636,179.5866 491.9636,179.5866 486.9636,192.7116"/>
    <line x1="488.8386" x2="495.0886" y1="188.3366" y2="188.3366"/>
    <line x1="527.2589" x2="527.2589" y1="179.5866" y2="192.7116"/>
    <line x1="536.0089" x2="536.0089" y1="179.5866" y2="192.7116"/>
    <line x1="527.2589" x2="536.0089" y1="185.8366" y2="185.8366"/>
    <line x1="718.7352" x2="718.7352" y1="179.5866" y2="192.7116"/>
    <line x1="714.3602" x2="723.1102" y1="179.5866" y2="179.5866"/>
    <polyline points="56.6929,205.9843 56.6929,243.7795 56.6929,243.7795 94.4882,243.7795 94.4882,243.7795 94.4882,281.5748 94.4882,281.5748 94.4882,319.3701 94.4882,319.3701 56.6929,319.3701 56.6929,319.3701 18.8976,319.3701 18.8976,319.3701 18.8976,357.1654 18.8976,357.1654 56.6929,357.1654 56.6929,357.1654 94.4882,357.1654 94.4882,357.1654 94.4882,319.3701 94.4882,319.3701 132.2835,319.3701 132.2835,319.3701 170.0787,319.3701 170.0787,319.3701 170.0787,281.5748 170.0787,281.5748 170.0787,243.7795 170.0787,243.7795 132.2835,243.7795 132.2835,243.7795 132.2835,281.5748 132.2835,281.5748 132.2835,319.3701 132.2835,319.3701 132.2835,357.1654 132.2835,357.1654 170.0787,357.1654 170.0787,357.1654 207.874,357.1654 207.874,357.1654 245.6693,357.1654 245.6693,357.1654 245.6693,319.3701 245.6693,319.3701 207.874,319.3701 207.874,319.3701 170.0787,319.3701 170.0787,319.3701 170.0787,357.1654"/>
    <polyline points="60.4577,209.1535 61.0827,208.841 61.0827,208.841 62.0202,207.9035 62.0202,207.9035 62.0202,214.466"/>
    <polyline points="66.3952,207.9035 69.8327,207.9035 69.8327,207.9035 67.9577,210.4035 67.9577,210.4035 68.8952,210.4035 68.8952,210.4035 69.5202,210.716 69.5202,210.716 69.8327,211.0285 69.8327,211.0285 70.1452,211.966 70.1452,211.966 70.1452,212.591 70.1452,212.591 69.8327,213.5285 69.8327,213.5285 69.2077,214.1535 69.2077,214.1535 68.2702,214.466 68.2702,214.466 67.3327,214.466 67.3327,214.466 66.3952,214.1535 66.3952,214.1535 66.0827,213.841 66.0827,213.841 65.7702,213.216"/>
    <polyline points="74.3406,217.3819 74.3406,230.5069 74.3406,230.5069 81.8406,230.5069"/>
    <polyline points="119.0108,230.5069 114.0108,217.3819 114.0108,217.3819 109.0108,230.5069"/>
    <line x1="110.8858" x2="117.1358" y1="226.1319" y2="226.1319"/>
    <polygon points="149.3061,217.3819 149.3061,230.5069 149.3061,230.5069 153.6811,230.5069 153.6811,230.5069 155.5561,229.8819 155.5561,229.8819 156.8061,228.6319 156.8061,228.6319 157.4311,227.3819 157.4311,227.3819 158.0561,225.5069 158.0561,225.5069 158.0561,222.3819 158.0561,222.3819 157.4311,220.5069 157.4311,220.5069 156.8061,219.2569 156.8061,219.2569 155.5561,218.0069 155.5561,218.0069 153.6811,217.3819 153.6811,217.3819"/>
    <polygon points="187.1014,217.3819 187.1014,230.5069 187.1014,230.5069 191.4764,230.5069 191.4764,230.5069 193.3514,229.8819 193.3514,229.8819 194.6014,228.6319 194.6014,228.6319 195.2264,227.3819 195.2264,227.3819 195.8514,225.5069 195.8514,225.5069 195.8514,222.3819 195.8514,222.3819 195.2264,220.5069 195.2264,220.5069 194.6014,219.2569 194.6014,219.2569 193.3514,218.0069 193.3514,218.0069 191.4764,217.3819 191.4764,217.3819"/>
    <polyline points="233.3342,217.3819 225.2092,217.3819 225.2092,217.3819 225.2092,230.5069 225.2092,230.5069 233.3342,230.5069"/>
    <line x1="225.2092" x2="230.2092" y1="223.6319" y2="223.6319"/>
    <polyline points="262.6919,223.6319 268.3169,223.6319 268.3169,223.6319 270.1919,223.0069 270.1919,223.0069 270.8169,222.3819 270.8169,222.3819 271.4419,221.1319 271.4419,221.1319 271.4419,219.8819 271.4419,219.8819 270.8169,218.6319 270.8169,218.6319 270.1919,218.0069 270.1919,218.0069 268.3169,217.3819 268.3169,217.3819 262.6919,217.3819 262.6919,217.3819 262.6919,230.5069"/>
    <line x1="267.0669" x2="271.4419" y1="223.6319" y2="230.5069"/>
    <polyline points="338.2825,223.6319 343.9075,223.6319 343.9075,223.6319 345.7825,223.0069 345.7825,223.0069 346.4075,222.3819 346.4075,222.3819 347.0325,221.1319 347.0325,221.1319 347.0325,219.8819 347.0325,219.8819 346.4075,218.6319 346.4075,218.6319 345.7825,218.0069 345.7825,218.0069 343.9075,217.3819 343.9075,217.3819 338.2825,217.3819 338.2825,217.3819 338.2825,230.5069"/>
    <line x1="342.6575" x2="347.0325" y1="223.6319" y2="230.5069"/>
    <polyline points="413.873,224.2569 419.498,224.2569 419.498,224.2569 421.373,223.6319 421.373,223.6319 421.998,223.0069 421.998,223.0069 422.623,221.7569 422.623,221.7569 422.623,219.8819 422.623,219.8819 421.998,218.6319 421.998,218.6319 421.373,218.0069 421.373,218.0069 419.498,217.3819 419.498,217.3819 413.873,217.3819 413.873,217.3819 413.873,230.5069"/>
    <polyline points="489.4636,223.6319 495.0886,223.6319 495.0886,223.6319 496.9636,223.0069 496.9636,223.0069 497.5886,222.3819 497.5886,222.3819 498.2136,221.1319 498.2136,221.1319 498.2136,219.8819 498.2136,219.8819 497.5886,218.6319 497.5886,218.6319 496.9636,218.0069 496.9636,218.0069 495.0886,217.3819 495.0886,217.3819 489.4636,217.3819 489.4636,217.3819 489.4636,230.5069"/>
    <line x1="493.8386" x2="498.2136" y1="223.6319" y2="230.5069"/>
    <polyline points="699.2126,205.9843 699.2126,243.7795 699.2126,243.7795 737.0079,243.7795 737.0079,243.7795 737.0079,205.9843"/>
    <polyline points="722.4852,217.3819 722.4852,227.3819 722.4852,227.3819 721.8602,229.2569 721.8602,229.2569 721.2352,229.8819 721.2352,229.8819 719.9852,230.5069 719.9852,230.5069 718.7352,230.5069 718.7352,230.5069 717.4852,229.8819 717.4852,229.8819 716.8602,229.2569 716.8602,229.2569 716.2352,227.3819 716.2352,227.3819 716.2352,226.1319"/>
    <polyline points="56.6929,243.7795 56.6929,281.5748 56.6929,281.5748 56.6929,319.3701 56.6929,319.3701 56.6929,357.1654"/>
    <line x1="56.6929" x2="94.4882" y1="281.5748" y2="281.5748"/>
    <polyline points="82.1531,255.1772 74.0281,255.1772 74.0281,255.1772 74.0281,268.3022 74.0281,268.3022 82.1531,268.3022"/>
    <line x1="74.0281" x2="79.0281" y1="261.4272" y2="261.4272"/>
    <line x1="132.2835" x2="170.0787" y1="281.5748" y2="281.5748"/>
    <polygon points="151.8061,255.1772 150.5561,255.8022 150.5561,255.8022 149.3061,257.0522 149.3061,257.0522 148.6811,258.3022 148.6811,258.3022 148.0561,260.1772 148.0561,260.1772 148.0561,263.3022 148.0561,263.3022 148.6811,265.1772 148.6811,265.1772 149.3061,266.4272 149.3061,266.4272 150.5561,267.6772 150.5561,267.6772 151.8061,268.3022 151.8061,268.3022 154.3061,268.3022 154.3061,268.3022 155.5561,267.6772 155.5561,267.6772 156.8061,266.4272 156.8061,266.4272 157.4311,265.1772 157.4311,265.1772 158.0561,263.3022 158.0561,263.3022 158.0561,260.1772 158.0561,260.1772 157.4311,258.3022 157.4311,258.3022 156.8061,257.0522 156.8061,257.0522 155.5561,255.8022 155.5561,255.8022 154.3061,255.1772 154.3061,255.1772"/>
    <polyline points="233.0217,257.0522 231.7717,255.8022 231.7717,255.8022 229.8967,255.1772 229.8967,255.1772 227.3967,255.1772 227.3967,255.1772 225.5217,255.8022 225.5217,255.8022 224.2717,257.0522 224.2717,257.0522 224.2717,258.3022 224.2717,258.3022 224.8967,259.5522 224.8967,259.5522 225.5217,260.1772 225.5217,260.1772 226.7717,260.8022 226.7717,260.8022 230.5217,262.0522 230.5217,262.0522 231.7717,262.6772 231.7717,262.6772 232.3967,263.3022 232.3967,263.3022 233.0217,264.5522 233.0217,264.5522 233.0217,266.4272 233.0217,266.4272 231.7717,267.6772 231.7717,267.6772 229.8967,268.3022 229.8967,268.3022 227.3967,268.3022 227.3967,268.3022 225.5217,267.6772 225.5217,267.6772 224.2717,266.4272"/>
    <polyline points="321.2598,243.7795 321.2598,281.5748 321.2598,281.5748 321.2598,319.3701 321.2598,319.3701 283.4646,319.3701 283.4646,319.3701 245.6693,319.3701"/>
    <polyline points="321.2598,281.5748 359.0551,281.5748 359.0551,281.5748 359.0551,243.7795"/>
    <line x1="340.7825" x2="340.7825" y1="255.1772" y2="268.3022"/>
    <line x1="336.4075" x2="345.1575" y1="255.1772" y2="255.1772"/>
    <polyline points="548.0315,319.3701 548.0315,357.1654 548.0315,357.1654 585.8268,357.1654 585.8268,357.1654 585.8268,319.3701 585.8268,319.3701 548.0315,319.3701 548.0315,319.3701 510.2362,319.3701 510.2362,319.3701 510.2362,357.1654 510.2362,357.1654 472.4409,357.1654 472.4409,357.1654 472.4409,319.3701 472.4409,319.3701 472.4409,281.5748 472.4409,281.5748 472.4409,243.7795 472.4409,243.7795 434.6457,243.7795 434.6457,243.7795 434.6457,281.5748 434.6457,281.5748 472.4409,281.5748 472.4409,281.5748 510.2362,281.5748 510.2362,281.5748 548.0315,281.5748 548.0315,281.5748 548.0315,243.7795 548.0315,243.7795 510.2362,243.7795 510.2362,243.7795 510.2362,281.5748 510.2362,281.5748 510.2362,319.3701 510.2362,319.3701 472.4409,319.3701 472.4409,319.3701 434.6457,319.3701 434.6457,319.3701 396.8504,319.3701 396.8504,319.3701 396.8504,357.1654 396.8504,357.1654 434.6457,357.1654 434.6457,357.1654 434.6457,319.3701"/>
    <polyline points="438.4104,246.9488 439.0354,246.6363 439.0354,246.6363 439.9729,245.6988 439.9729,245.6988 439.9729,252.2613"/>
    <polyline points="446.8479,252.2613 446.8479,245.6988 446.8479,245.6988 443.7229,250.0738 443.7229,250.0738 448.4104,250.0738"/>
    <polyline points="451.6683,255.1772 451.6683,264.5522 451.6683,264.5522 452.2933,266.4272 452.2933,266.4272 453.5433,267.6772 453.5433,267.6772 455.4183,268.3022 455.4183,268.3022 456.6683,268.3022 456.6683,268.3022 458.5433,267.6772 458.5433,267.6772 459.7933,266.4272 459.7933,266.4272 460.4183,264.5522 460.4183,264.5522 460.4183,255.1772"/>
    <line x1="493.8386" x2="493.8386" y1="255.1772" y2="268.3022"/>
    <line x1="529.7589" x2="529.7589" y1="255.1772" y2="268.3022"/>
    <line x1="525.3839" x2="534.1339" y1="255.1772" y2="255.1772"/>
    <polyline points="548.0315,281.5748 585.8268,281.5748 585.8268,281.5748 585.8268,243.7795 585.8268,243.7795 548.0315,243.7795"/>
    <polyline points="565.6791,255.1772 565.6791,268.3022 565.6791,268.3022 573.1791,268.3022"/>
    <polyline points="585.8268,281.5748 623.622,281.5748 623.622,281.5748 623.622,243.7795 623.622,243.7795 585.8268,243.7795"/>
    <line x1="607.2244" x2="607.2244" y1="255.1772" y2="268.3022"/>
    <polyline points="623.622,281.5748 661.4173,281.5748 661.4173,281.5748 699.2126,281.5748 699.2126,281.5748 699.2126,243.7795 699.2126,243.7795 661.4173,243.7795 661.4173,243.7795 623.622,243.7795"/>
    <line x1="661.4173" x2="661.4173" y1="281.5748" y2="243.7795"/>
    <line x1="640.6447" x2="640.6447" y1="255.1772" y2="268.3022"/>
    <line x1="649.3947" x2="640.6447" y1="255.1772" y2="263.9272"/>
    <line x1="643.7697" x2="649.3947" y1="260.8022" y2="268.3022"/>
    <line x1="678.44" x2="678.44" y1="255.1772" y2="268.3022"/>
    <line x1="687.19" x2="678.44" y1="255.1772" y2="263.9272"/>
    <line x1="681.565" x2="687.19" y1="260.8022" y2="268.3022"/>
    <polygon points="699.2126,281.5748 737.0079,281.5748 737.0079,281.5748 774.8031,281.5748 774.8031,281.5748 774.8031,243.7795 774.8031,243.7795 737.0079,243.7795 737.0079,243.7795 737.0079,281.5748 737.0079,281.5748 737.0079,319.3701 737.0079,319.3701 699.2126,319.3701 699.2126,319.3701"/>
    <polyline points="724.6727,255.1772 716.5477,255.1772 716.5477,255.1772 716.5477,268.3022 716.5477,268.3022 724.6727,268.3022"/>
    <line x1="716.5477" x2="721.5477" y1="261.4272" y2="261.4272"/>
    <polyline points="762.7805,255.1772 762.7805,268.3022 762.7805,268.3022 754.0305,255.1772 754.0305,255.1772 754.0305,268.3022"/>
    <line x1="73.7156" x2="73.7156" y1="292.9724" y2="306.0974"/>
    <line x1="82.4656" x2="73.7156" y1="292.9724" y2="301.7224"/>
    <line x1="76.8406" x2="82.4656" y1="298.5974" y2="306.0974"/>
    <polyline points="157.7436,292.9724 149.6186,292.9724 149.6186,292.9724 149.6186,306.0974 149.6186,306.0974 157.7436,306.0974"/>
    <line x1="149.6186" x2="154.6186" y1="299.2224" y2="299.2224"/>
    <polygon points="321.2598,319.3701 359.0551,319.3701 359.0551,319.3701 396.8504,319.3701 396.8504,319.3701 396.8504,281.5748 396.8504,281.5748 359.0551,281.5748 359.0551,281.5748 359.0551,319.3701 359.0551,319.3701 359.0551,357.1654 359.0551,357.1654 321.2598,357.1654 321.2598,357.1654"/>
    <polyline points="325.0246,284.7441 325.6496,284.4316 325.6496,284.4316 326.5871,283.4941 326.5871,283.4941 326.5871,290.0566"/>
    <polyline points="334.0871,283.4941 330.9621,283.4941 330.9621,283.4941 330.6496,286.3066 330.6496,286.3066 330.9621,285.9941 330.9621,285.9941 331.8996,285.6816 331.8996,285.6816 332.8371,285.6816 332.8371,285.6816 333.7746,285.9941 333.7746,285.9941 334.3996,286.6191 334.3996,286.6191 334.7121,287.5566 334.7121,287.5566 334.7121,288.1816 334.7121,288.1816 334.3996,289.1191 334.3996,289.1191 333.7746,289.7441 333.7746,289.7441 332.8371,290.0566 332.8371,290.0566 331.8996,290.0566 331.8996,290.0566 330.9621,289.7441 330.9621,289.7441 330.6496,289.4316 330.6496,289.4316 330.3371,288.8066"/>
    <polyline points="344.5325,292.9724 344.5325,302.9724 344.5325,302.9724 343.9075,304.8474 343.9075,304.8474 343.2825,305.4724 343.2825,305.4724 342.0325,306.0974 342.0325,306.0974 340.7825,306.0974 340.7825,306.0974 339.5325,305.4724 339.5325,305.4724 338.9075,304.8474 338.9075,304.8474 338.2825,302.9724 338.2825,302.9724 338.2825,301.7224"/>
    <polyline points="383.5778,306.0974 378.5778,292.9724 378.5778,292.9724 373.5778,306.0974"/>
    <line x1="375.4528" x2="381.7028" y1="301.7224" y2="301.7224"/>
    <polyline points="495.7136,292.9724 495.7136,302.9724 495.7136,302.9724 495.0886,304.8474 495.0886,304.8474 494.4636,305.4724 494.4636,305.4724 493.2136,306.0974 493.2136,306.0974 491.9636,306.0974 491.9636,306.0974 490.7136,305.4724 490.7136,305.4724 490.0886,304.8474 490.0886,304.8474 489.4636,302.9724 489.4636,302.9724 489.4636,301.7224"/>
    <polyline points="724.3602,294.8474 723.1102,293.5974 723.1102,293.5974 721.2352,292.9724 721.2352,292.9724 718.7352,292.9724 718.7352,292.9724 716.8602,293.5974 716.8602,293.5974 715.6102,294.8474 715.6102,294.8474 715.6102,296.0974 715.6102,296.0974 716.2352,297.3474 716.2352,297.3474 716.8602,297.9724 716.8602,297.9724 718.1102,298.5974 718.1102,298.5974 721.8602,299.8474 721.8602,299.8474 723.1102,300.4724 723.1102,300.4724 723.7352,301.0974 723.7352,301.0974 724.3602,302.3474 724.3602,302.3474 724.3602,304.2224 724.3602,304.2224 723.1102,305.4724 723.1102,305.4724 721.2352,306.0974 721.2352,306.0974 718.7352,306.0974 718.7352,306.0974 716.8602,305.4724 716.8602,305.4724 715.6102,304.2224"/>
    <polyline points="22.6624,322.5394 23.2874,322.2269 23.2874,322.2269 24.2249,321.2894 24.2249,321.2894 24.2249,327.8519"/>
    <polyline points="32.0374,322.2269 31.7249,321.6019 31.7249,321.6019 30.7874,321.2894 30.7874,321.2894 30.1624,321.2894 30.1624,321.2894 29.2249,321.6019 29.2249,321.6019 28.5999,322.5394 28.5999,322.5394 28.2874,324.1019 28.2874,324.1019 28.2874,325.6644 28.2874,325.6644 28.5999,326.9144 28.5999,326.9144 29.2249,327.5394 29.2249,327.5394 30.1624,327.8519 30.1624,327.8519 30.4749,327.8519 30.4749,327.8519 31.4124,327.5394 31.4124,327.5394 32.0374,326.9144 32.0374,326.9144 32.3499,325.9769 32.3499,325.9769 32.3499,325.6644 32.3499,325.6644 32.0374,324.7269 32.0374,324.7269 31.4124,324.1019 31.4124,324.1019 30.4749,323.7894 30.4749,323.7894 30.1624,323.7894 30.1624,323.7894 29.2249,324.1019 29.2249,324.1019 28.5999,324.7269 28.5999,324.7269 28.2874,325.6644"/>
    <polyline points="35.9203,337.0177 41.5453,337.0177 41.5453,337.0177 43.4203,336.3927 43.4203,336.3927 44.0453,335.7677 44.0453,335.7677 44.6703,334.5177 44.6703,334.5177 44.6703,333.2677 44.6703,333.2677 44.0453,332.0177 44.0453,332.0177 43.4203,331.3927 43.4203,331.3927 41.5453,330.7677 41.5453,330.7677 35.9203,330.7677 35.9203,330.7677 35.9203,343.8927"/>
    <line x1="40.2953" x2="44.6703" y1="337.0177" y2="343.8927"/>
    <polyline points="82.1531,330.7677 74.0281,330.7677 74.0281,330.7677 74.0281,343.8927 74.0281,343.8927 82.1531,343.8927"/>
    <line x1="74.0281" x2="79.0281" y1="337.0177" y2="337.0177"/>
    <line x1="94.4882" x2="132.2835" y1="357.1654" y2="357.1654"/>
    <line x1="111.5108" x2="111.5108" y1="330.7677" y2="343.8927"/>
    <line x1="120.2608" x2="111.5108" y1="330.7677" y2="339.5177"/>
    <line x1="114.6358" x2="120.2608" y1="336.3927" y2="343.8927"/>
    <line x1="149.3061" x2="149.3061" y1="330.7677" y2="343.8927"/>
    <line x1="158.0561" x2="149.3061" y1="330.7677" y2="339.5177"/>
    <line x1="152.4311" x2="158.0561" y1="336.3927" y2="343.8927"/>
    <line x1="207.874" x2="207.874" y1="357.1654" y2="319.3701"/>
    <polyline points="195.5389,330.7677 187.4139,330.7677 187.4139,330.7677 187.4139,343.8927 187.4139,343.8927 195.5389,343.8927"/>
    <line x1="187.4139" x2="192.4139" y1="337.0177" y2="337.0177"/>
    <polyline points="224.8967,337.0177 230.5217,337.0177 230.5217,337.0177 232.3967,336.3927 232.3967,336.3927 233.0217,335.7677 233.0217,335.7677 233.6467,334.5177 233.6467,334.5177 233.6467,333.2677 233.6467,333.2677 233.0217,332.0177 233.0217,332.0177 232.3967,331.3927 232.3967,331.3927 230.5217,330.7677 230.5217,330.7677 224.8967,330.7677 224.8967,330.7677 224.8967,343.8927"/>
    <line x1="229.2717" x2="233.6467" y1="337.0177" y2="343.8927"/>
    <polyline points="245.6693,357.1654 283.4646,357.1654 283.4646,357.1654 283.4646,319.3701"/>
    <line x1="265.1919" x2="265.1919" y1="330.7677" y2="343.8927"/>
    <line x1="260.8169" x2="269.5669" y1="330.7677" y2="330.7677"/>
    <line x1="283.4646" x2="321.2598" y1="357.1654" y2="357.1654"/>
    <polyline points="306.7372,330.7677 306.7372,340.7677 306.7372,340.7677 306.1122,342.6427 306.1122,342.6427 305.4872,343.2677 305.4872,343.2677 304.2372,343.8927 304.2372,343.8927 302.9872,343.8927 302.9872,343.8927 301.7372,343.2677 301.7372,343.2677 301.1122,342.6427 301.1122,342.6427 300.4872,340.7677 300.4872,340.7677 300.4872,339.5177"/>
    <polyline points="346.72,330.7677 338.595,330.7677 338.595,330.7677 338.595,343.8927 338.595,343.8927 346.72,343.8927"/>
    <line x1="338.595" x2="343.595" y1="337.0177" y2="337.0177"/>
    <polyline points="400.6152,322.5394 401.2402,322.2269 401.2402,322.2269 402.1777,321.2894 402.1777,321.2894 402.1777,327.8519"/>
    <polyline points="405.9277,321.2894 410.3027,321.2894 410.3027,321.2894 407.1777,327.8519"/>
    <line x1="413.873" x2="413.873" y1="330.7677" y2="343.8927"/>
    <line x1="422.623" x2="413.873" y1="330.7677" y2="339.5177"/>
    <line x1="416.998" x2="422.623" y1="336.3927" y2="343.8927"/>
    <line x1="434.6457" x2="472.4409" y1="357.1654" y2="357.1654"/>
    <line x1="456.0433" x2="456.0433" y1="330.7677" y2="343.8927"/>
    <polyline points="498.2136,330.7677 498.2136,343.8927 498.2136,343.8927 489.4636,330.7677 489.4636,330.7677 489.4636,343.8927"/>
    <line x1="510.2362" x2="548.0315" y1="357.1654" y2="357.1654"/>
    <polygon points="527.2589,330.7677 527.2589,343.8927 527.2589,343.8927 531.6339,343.8927 531.6339,343.8927 533.5089,343.2677 533.5089,343.2677 534.7589,342.0177 534.7589,342.0177 535.3839,340.7677 535.3839,340.7677 536.0089,338.8927 536.0089,338.8927 536.0089,335.7677 536.0089,335.7677 535.3839,333.8927 535.3839,333.8927 534.7589,332.6427 534.7589,332.6427 533.5089,331.3927 533.5089,331.3927 531.6339,330.7677 531.6339,330.7677"/>
    <polyline points="573.4916,330.7677 565.3666,330.7677 565.3666,330.7677 565.3666,343.8927 565.3666,343.8927 573.4916,343.8927"/>
    <line x1="565.3666" x2="570.3666" y1="337.0177" y2="337.0177"/>
    <polyline points="585.8268,357.1654 623.622,357.1654 623.622,357.1654 661.4173,357.1654 661.4173,357.1654 661.4173,319.3701 661.4173,319.3701 623.622,319.3701 623.622,319.3701 585.8268,319.3701"/>
    <line x1="623.622" x2="623.622" y1="357.1654" y2="319.3701"/>
    <polyline points="602.8494,337.0177 608.4744,337.0177 608.4744,337.0177 610.3494,336.3927 610.3494,336.3927 610.9744,335.7677 610.9744,335.7677 611.5994,334.5177 611.5994,334.5177 611.5994,333.2677 611.5994,333.2677 610.9744,332.0177 610.9744,332.0177 610.3494,331.3927 610.3494,331.3927 608.4744,330.7677 608.4744,330.7677 602.8494,330.7677 602.8494,330.7677 602.8494,343.8927"/>
    <line x1="607.2244" x2="611.5994" y1="337.0177" y2="343.8927"/>
    <polyline points="649.0822,330.7677 640.9572,330.7677 640.9572,330.7677 640.9572,343.8927 640.9572,343.8927 649.0822,343.8927"/>
    <line x1="640.9572" x2="645.9572" y1="337.0177" y2="337.0177"/>
    <polyline points="661.4173,357.1654 699.2126,357.1654 699.2126,357.1654 699.2126,319.3701 699.2126,319.3701 661.4173,319.3701"/>
    <polyline points="687.19,330.7677 687.19,343.8927 687.19,343.8927 678.44,330.7677 678.44,330.7677 678.44,343.8927"/>
  </g>
</svg>
