<?xml version="1.0" encoding="utf-8" ?>
<svg xmlns="http://www.w3.org/2000/svg" xmlns:cc="http://creativecommons.org/ns" xmlns:dc="http://purl.org/dc/elements/1.1/" xmlns:ev="http://www.w3.org/2001/xml-events" xmlns:inkscape="http://www.inkscape.org/namespaces/inkscape" xmlns:rdf="http://www.w3.org/1999/02/22-rdf-syntax-ns" xmlns:sodipodi="http://sodipodi.sourceforge.net/DTD/sodipodi-0.dtd" xmlns:xlink="http://www.w3.org/1999/xlink" baseProfile="tiny" height="9.9cm" version="1.2" viewBox="0 0 793.7007874015749 374.1732283464567" width="21.0cm">
  <metadata>
    <rdf:RDF>
      <cc:Work>
        <dc:format>image/svg+xml</dc:format>
        <dc:source>vpype eval 'cell=10;width=210;height=99' eval 'nCols=20;nRows=9' eval 'cells=[1,3,4,5,7,8,9,10,12,15,16,17,18,19,21,25,29,32,35,39,40,41,42,43,44,45,46,47,49,50,51,52,53,54,55,56,59,61,65,69,72,75,79,81,83,84,85,86,88,89,90,91,93,94,95,96,97,98,100,101,103,105,109,115,119,121,123,124,125,126,127,128,129,130,134,135,136,137,138,139,143,145,149,155,159,160,161,162,163,164,167,168,169,170,171,172,173,174,179]' eval 'chars=[&quot;V&quot;,&quot;M&quot;,&quot;O&quot;,&quot;P&quot;,&quot;K&quot;,&quot;O&quot;,&quot;U&quot;,&quot;S&quot;,&quot;S&quot;,&quot;B&quot;,&quot;R&quot;,&quot;O&quot;,&quot;O&quot;,&quot;D&quot;,&quot;R&quot;,&quot;A&quot;,&quot;I&quot;,&quot;T&quot;,&quot;R&quot;,&quot;R&quot;,&quot;K&quot;,&quot;I&quot;,&quot;N&quot;,&quot;D&quot;,&quot;E&quot;,&quot;R&quot;,&quot;E&quot;,&quot;N&quot;,&quot;T&quot;,&quot;E&quot;,&quot;L&quot;,&quot;E&quot;,&quot;F&quot;,&quot;O&quot;,&quot;O&quot;,&quot;N&quot;,&quot;O&quot;,&quot;J&quot;,&quot;K&quot;,&quot;L&quot;,&quot;R&quot;,&quot;E&quot;,&quot;P&quot;,&quot;D&quot;,&quot;K&quot;,&quot;O&quot;,&quot;E&quot;,&quot;N&quot;,&quot;L&quot;,&quot;I&quot;,&quot;F&quot;,&quot;T&quot;,&quot;L&quot;,&quot;A&quot;,&quot;K&quot;,&quot;E&quot;,&quot;N&quot;,&quot;S&quot;,&quot;J&quot;,&quot;A&quot;,&quot;A&quot;,&quot;R&quot;,&quot;K&quot;,&quot;Z&quot;,&quot;G&quot;,&quot;G&quot;,&quot;S&quot;,&quot;K&quot;,&quot;E&quot;,&quot;L&quot;,&quot;L&quot;,&quot;E&quot;,&quot;K&quot;,&quot;E&quot;,&quot;L&quot;,&quot;A&quot;,&quot;D&quot;,&quot;D&quot;,&quot;E&quot;,&quot;R&quot;,&quot;S&quot;,&quot;N&quot;,&quot;E&quot;,&quot;K&quot;,&quot;A&quot;,&quot;G&quot;,&quot;R&quot;,&quot;A&quot;,&quot;A&quot;,&quot;T&quot;,&quot;H&quot;,&quot;A&quot;,&quot;N&quot;,&quot;D&quot;,&quot;D&quot;,&quot;O&quot;,&quot;E&quot;,&quot;K&quot;,&quot;S&quot;]' eval 'numbers=[1,3,5,7,9,12,15,19,40,49,83,88,93,100,119,123,134,160,167]' eval counter=1 eval charIndex=0 begin grid -o '%cell*mm%' '%cell*mm%' %nCols% %nRows% eval '%isCell=_i in cells%' eval '%number=_i in numbers%' eval '%size=10 if isCell else 0%' rect 0 0 '%size*mm%' '%size*mm%' text -s 10 -p 0.5mm 1.5mm '%counter if number else '&quot;'&quot;''&quot;'&quot;'%' text -s 20 -p 5mm 5mm -a center '%chars[charIndex] if isCell else '&quot;'&quot;''&quot;'&quot;'%' eval '%if number: counter+=1 %' eval '%if isCell: charIndex+=1 %' end splitall deduplicate linemerge --tolerance 0.1mm write -m none --page-size '%width*mm%x%height*mm%' --center ./svgs/solution/ff32e5.svg
</dc:source>
        <dc:date>2024-01-06T16:44:07.033965</dc:date>
      </cc:Work>
    </rdf:RDF>
  </metadata>
  <defs/>
  <g fill="none" id="layer1" inkscape:groupmode="layer" inkscape:label="1" stroke="#000000" style="display:inline">
    <polygon points="56.6929,17.0079 56.6929,54.8031 56.6929,54.8031 94.4882,54.8031 94.4882,54.8031 94.4882,17.0079 94.4882,17.0079"/>
    <polyline points="60.4577,20.1772 61.0827,19.8647 61.0827,19.8647 62.0202,18.9272 62.0202,18.9272 62.0202,25.4897"/>
    <polyline points="71.2156,28.4055 76.2156,41.5305 76.2156,41.5305 81.2156,28.4055"/>
    <polyline points="170.0787,54.8031 170.0787,17.0079 170.0787,17.0079 132.2835,17.0079 132.2835,17.0079 132.2835,54.8031 132.2835,54.8031 170.0787,54.8031 170.0787,54.8031 207.874,54.8031 207.874,54.8031 207.874,92.5984 207.874,92.5984 170.0787,92.5984 170.0787,92.5984 132.2835,92.5984 132.2835,92.5984 94.4882,92.5984 94.4882,92.5984 94.4882,54.8031"/>
    <polyline points="135.4232,20.4897 135.4232,20.1772 135.4232,20.1772 135.7357,19.5522 135.7357,19.5522 136.0482,19.2397 136.0482,19.2397 136.6732,18.9272 136.6732,18.9272 137.9232,18.9272 137.9232,18.9272 138.5482,19.2397 138.5482,19.2397 138.8607,19.5522 138.8607,19.5522 139.1732,20.1772 139.1732,20.1772 139.1732,20.8022 139.1732,20.8022 138.8607,21.4272 138.8607,21.4272 138.2357,22.3647 138.2357,22.3647 135.1107,25.4897 135.1107,25.4897 139.4857,25.4897"/>
    <polyline points="158.6811,41.5305 158.6811,28.4055 158.6811,28.4055 153.6811,41.5305 153.6811,41.5305 148.6811,28.4055 148.6811,28.4055 148.6811,41.5305"/>
    <polyline points="207.874,17.0079 245.6693,17.0079 245.6693,17.0079 245.6693,54.8031 245.6693,54.8031 207.874,54.8031 207.874,54.8031 207.874,17.0079 207.874,17.0079 170.0787,17.0079"/>
    <polygon points="189.6014,28.4055 188.3514,29.0305 188.3514,29.0305 187.1014,30.2805 187.1014,30.2805 186.4764,31.5305 186.4764,31.5305 185.8514,33.4055 185.8514,33.4055 185.8514,36.5305 185.8514,36.5305 186.4764,38.4055 186.4764,38.4055 187.1014,39.6555 187.1014,39.6555 188.3514,40.9055 188.3514,40.9055 189.6014,41.5305 189.6014,41.5305 192.1014,41.5305 192.1014,41.5305 193.3514,40.9055 193.3514,40.9055 194.6014,39.6555 194.6014,39.6555 195.2264,38.4055 195.2264,38.4055 195.8514,36.5305 195.8514,36.5305 195.8514,33.4055 195.8514,33.4055 195.2264,31.5305 195.2264,31.5305 194.6014,30.2805 194.6014,30.2805 193.3514,29.0305 193.3514,29.0305 192.1014,28.4055 192.1014,28.4055"/>
    <polyline points="211.3263,18.9272 214.7638,18.9272 214.7638,18.9272 212.8888,21.4272 212.8888,21.4272 213.8263,21.4272 213.8263,21.4272 214.4513,21.7397 214.4513,21.7397 214.7638,22.0522 214.7638,22.0522 215.0763,22.9897 215.0763,22.9897 215.0763,23.6147 215.0763,23.6147 214.7638,24.5522 214.7638,24.5522 214.1388,25.1772 214.1388,25.1772 213.2013,25.4897 213.2013,25.4897 212.2638,25.4897 212.2638,25.4897 211.3263,25.1772 211.3263,25.1772 211.0138,24.8647 211.0138,24.8647 210.7013,24.2397"/>
    <polyline points="224.8967,35.2805 230.5217,35.2805 230.5217,35.2805 232.3967,34.6555 232.3967,34.6555 233.0217,34.0305 233.0217,34.0305 233.6467,32.7805 233.6467,32.7805 233.6467,30.9055 233.6467,30.9055 233.0217,29.6555 233.0217,29.6555 232.3967,29.0305 232.3967,29.0305 230.5217,28.4055 230.5217,28.4055 224.8967,28.4055 224.8967,28.4055 224.8967,41.5305"/>
    <polygon points="283.4646,17.0079 283.4646,54.8031 283.4646,54.8031 321.2598,54.8031 321.2598,54.8031 359.0551,54.8031 359.0551,54.8031 359.0551,17.0079 359.0551,17.0079 321.2598,17.0079 321.2598,17.0079"/>
    <line x1="321.2598" x2="321.2598" y1="54.8031" y2="17.0079"/>
    <polyline points="289.4168,25.4897 289.4168,18.9272 289.4168,18.9272 286.2918,23.3022 286.2918,23.3022 290.9793,23.3022"/>
    <line x1="300.4872" x2="300.4872" y1="28.4055" y2="41.5305"/>
    <line x1="309.2372" x2="300.4872" y1="28.4055" y2="37.1555"/>
    <line x1="303.6122" x2="309.2372" y1="34.0305" y2="41.5305"/>
    <polygon points="340.7825,28.4055 339.5325,29.0305 339.5325,29.0305 338.2825,30.2805 338.2825,30.2805 337.6575,31.5305 337.6575,31.5305 337.0325,33.4055 337.0325,33.4055 337.0325,36.5305 337.0325,36.5305 337.6575,38.4055 337.6575,38.4055 338.2825,39.6555 338.2825,39.6555 339.5325,40.9055 339.5325,40.9055 340.7825,41.5305 340.7825,41.5305 343.2825,41.5305 343.2825,41.5305 344.5325,40.9055 344.5325,40.9055 345.7825,39.6555 345.7825,39.6555 346.4075,38.4055 346.4075,38.4055 347.0325,36.5305 347.0325,36.5305 347.0325,33.4055 347.0325,33.4055 346.4075,31.5305 346.4075,31.5305 345.7825,30.2805 345.7825,30.2805 344.5325,29.0305 344.5325,29.0305 343.2825,28.4055 343.2825,28.4055"/>
    <polyline points="396.8504,17.0079 396.8504,54.8031 396.8504,54.8031 396.8504,92.5984 396.8504,92.5984 359.0551,92.5984 359.0551,92.5984 359.0551,54.8031 359.0551,54.8031 396.8504,54.8031 396.8504,54.8031 434.6457,54.8031 434.6457,54.8031 434.6457,17.0079 434.6457,17.0079 396.8504,17.0079 396.8504,17.0079 359.0551,17.0079"/>
    <polyline points="365.6324,18.9272 362.5074,18.9272 362.5074,18.9272 362.1949,21.7397 362.1949,21.7397 362.5074,21.4272 362.5074,21.4272 363.4449,21.1147 363.4449,21.1147 364.3824,21.1147 364.3824,21.1147 365.3199,21.4272 365.3199,21.4272 365.9449,22.0522 365.9449,22.0522 366.2574,22.9897 366.2574,22.9897 366.2574,23.6147 366.2574,23.6147 365.9449,24.5522 365.9449,24.5522 365.3199,25.1772 365.3199,25.1772 364.3824,25.4897 364.3824,25.4897 363.4449,25.4897 363.4449,25.4897 362.5074,25.1772 362.5074,25.1772 362.1949,24.8647 362.1949,24.8647 361.8824,24.2397"/>
    <polyline points="376.0778,28.4055 376.0778,37.7805 376.0778,37.7805 376.7028,39.6555 376.7028,39.6555 377.9528,40.9055 377.9528,40.9055 379.8278,41.5305 379.8278,41.5305 381.0778,41.5305 381.0778,41.5305 382.9528,40.9055 382.9528,40.9055 384.2028,39.6555 384.2028,39.6555 384.8278,37.7805 384.8278,37.7805 384.8278,28.4055"/>
    <polyline points="421.998,30.2805 420.748,29.0305 420.748,29.0305 418.873,28.4055 418.873,28.4055 416.373,28.4055 416.373,28.4055 414.498,29.0305 414.498,29.0305 413.248,30.2805 413.248,30.2805 413.248,31.5305 413.248,31.5305 413.873,32.7805 413.873,32.7805 414.498,33.4055 414.498,33.4055 415.748,34.0305 415.748,34.0305 419.498,35.2805 419.498,35.2805 420.748,35.9055 420.748,35.9055 421.373,36.5305 421.373,36.5305 421.998,37.7805 421.998,37.7805 421.998,39.6555 421.998,39.6555 420.748,40.9055 420.748,40.9055 418.873,41.5305 418.873,41.5305 416.373,41.5305 416.373,41.5305 414.498,40.9055 414.498,40.9055 413.248,39.6555"/>
    <polyline points="548.0315,92.5984 585.8268,92.5984 585.8268,92.5984 585.8268,130.3937 585.8268,130.3937 548.0315,130.3937 548.0315,130.3937 548.0315,92.5984 548.0315,92.5984 510.2362,92.5984 510.2362,92.5984 510.2362,130.3937 510.2362,130.3937 510.2362,168.189 510.2362,168.189 472.4409,168.189 472.4409,168.189 472.4409,130.3937 472.4409,130.3937 472.4409,92.5984 472.4409,92.5984 510.2362,92.5984 510.2362,92.5984 510.2362,54.8031 510.2362,54.8031 510.2362,17.0079 510.2362,17.0079 472.4409,17.0079 472.4409,17.0079 472.4409,54.8031 472.4409,54.8031 472.4409,92.5984 472.4409,92.5984 434.6457,92.5984 434.6457,92.5984 396.8504,92.5984 396.8504,92.5984 396.8504,130.3937 396.8504,130.3937 434.6457,130.3937 434.6457,130.3937 434.6457,92.5984"/>
    <line x1="472.4409" x2="510.2362" y1="54.8031" y2="54.8031"/>
    <polyline points="479.3307,19.8647 479.0182,19.2397 479.0182,19.2397 478.0807,18.9272 478.0807,18.9272 477.4557,18.9272 477.4557,18.9272 476.5182,19.2397 476.5182,19.2397 475.8932,20.1772 475.8932,20.1772 475.5807,21.7397 475.5807,21.7397 475.5807,23.3022 475.5807,23.3022 475.8932,24.5522 475.8932,24.5522 476.5182,25.1772 476.5182,25.1772 477.4557,25.4897 477.4557,25.4897 477.7682,25.4897 477.7682,25.4897 478.7057,25.1772 478.7057,25.1772 479.3307,24.5522 479.3307,24.5522 479.6432,23.6147 479.6432,23.6147 479.6432,23.3022 479.6432,23.3022 479.3307,22.3647 479.3307,22.3647 478.7057,21.7397 478.7057,21.7397 477.7682,21.4272 477.7682,21.4272 477.4557,21.4272 477.4557,21.4272 476.5182,21.7397 476.5182,21.7397 475.8932,22.3647 475.8932,22.3647 475.5807,23.3022"/>
    <polyline points="497.5886,30.2805 496.3386,29.0305 496.3386,29.0305 494.4636,28.4055 494.4636,28.4055 491.9636,28.4055 491.9636,28.4055 490.0886,29.0305 490.0886,29.0305 488.8386,30.2805 488.8386,30.2805 488.8386,31.5305 488.8386,31.5305 489.4636,32.7805 489.4636,32.7805 490.0886,33.4055 490.0886,33.4055 491.3386,34.0305 491.3386,34.0305 495.0886,35.2805 495.0886,35.2805 496.3386,35.9055 496.3386,35.9055 496.9636,36.5305 496.9636,36.5305 497.5886,37.7805 497.5886,37.7805 497.5886,39.6555 497.5886,39.6555 496.3386,40.9055 496.3386,40.9055 494.4636,41.5305 494.4636,41.5305 491.9636,41.5305 491.9636,41.5305 490.0886,40.9055 490.0886,40.9055 488.8386,39.6555"/>
    <polygon points="585.8268,17.0079 585.8268,54.8031 585.8268,54.8031 585.8268,92.5984 585.8268,92.5984 623.622,92.5984 623.622,92.5984 623.622,54.8031 623.622,54.8031 623.622,17.0079 623.622,17.0079"/>
    <polyline points="585.8268,54.8031 623.622,54.8031 623.622,54.8031 661.4173,54.8031 661.4173,54.8031 699.2126,54.8031 699.2126,54.8031 699.2126,17.0079 699.2126,17.0079 661.4173,17.0079 661.4173,17.0079 623.622,17.0079"/>
    <polyline points="588.654,18.9272 593.029,18.9272 593.029,18.9272 589.904,25.4897"/>
    <polyline points="608.4744,34.6555 610.3494,34.0305 610.3494,34.0305 610.9744,33.4055 610.9744,33.4055 611.5994,32.1555 611.5994,32.1555 611.5994,30.9055 611.5994,30.9055 610.9744,29.6555 610.9744,29.6555 610.3494,29.0305 610.3494,29.0305 608.4744,28.4055 608.4744,28.4055 602.8494,28.4055 602.8494,28.4055 602.8494,41.5305 602.8494,41.5305 608.4744,41.5305 608.4744,41.5305 610.3494,40.9055 610.3494,40.9055 610.9744,40.2805 610.9744,40.2805 611.5994,39.0305 611.5994,39.0305 611.5994,37.1555 611.5994,37.1555 610.9744,35.9055 610.9744,35.9055 610.3494,35.2805 610.3494,35.2805 608.4744,34.6555 608.4744,34.6555 602.8494,34.6555"/>
    <line x1="661.4173" x2="661.4173" y1="54.8031" y2="17.0079"/>
    <polyline points="640.6447,34.6555 646.2697,34.6555 646.2697,34.6555 648.1447,34.0305 648.1447,34.0305 648.7697,33.4055 648.7697,33.4055 649.3947,32.1555 649.3947,32.1555 649.3947,30.9055 649.3947,30.9055 648.7697,29.6555 648.7697,29.6555 648.1447,29.0305 648.1447,29.0305 646.2697,28.4055 646.2697,28.4055 640.6447,28.4055 640.6447,28.4055 640.6447,41.5305"/>
    <line x1="645.0197" x2="649.3947" y1="34.6555" y2="41.5305"/>
    <polygon points="680.94,28.4055 679.69,29.0305 679.69,29.0305 678.44,30.2805 678.44,30.2805 677.815,31.5305 677.815,31.5305 677.19,33.4055 677.19,33.4055 677.19,36.5305 677.19,36.5305 677.815,38.4055 677.815,38.4055 678.44,39.6555 678.44,39.6555 679.69,40.9055 679.69,40.9055 680.94,41.5305 680.94,41.5305 683.44,41.5305 683.44,41.5305 684.69,40.9055 684.69,40.9055 685.94,39.6555 685.94,39.6555 686.565,38.4055 686.565,38.4055 687.19,36.5305 687.19,36.5305 687.19,33.4055 687.19,33.4055 686.565,31.5305 686.565,31.5305 685.94,30.2805 685.94,30.2805 684.69,29.0305 684.69,29.0305 683.44,28.4055 683.44,28.4055"/>
    <polyline points="699.2126,54.8031 737.0079,54.8031 737.0079,54.8031 737.0079,17.0079 737.0079,17.0079 699.2126,17.0079"/>
    <polygon points="718.7352,28.4055 717.4852,29.0305 717.4852,29.0305 716.2352,30.2805 716.2352,30.2805 715.6102,31.5305 715.6102,31.5305 714.9852,33.4055 714.9852,33.4055 714.9852,36.5305 714.9852,36.5305 715.6102,38.4055 715.6102,38.4055 716.2352,39.6555 716.2352,39.6555 717.4852,40.9055 717.4852,40.9055 718.7352,41.5305 718.7352,41.5305 721.2352,41.5305 721.2352,41.5305 722.4852,40.9055 722.4852,40.9055 723.7352,39.6555 723.7352,39.6555 724.3602,38.4055 724.3602,38.4055 724.9852,36.5305 724.9852,36.5305 724.9852,33.4055 724.9852,33.4055 724.3602,31.5305 724.3602,31.5305 723.7352,30.2805 723.7352,30.2805 722.4852,29.0305 722.4852,29.0305 721.2352,28.4055 721.2352,28.4055"/>
    <polyline points="774.8031,54.8031 774.8031,92.5984 774.8031,92.5984 774.8031,130.3937 774.8031,130.3937 737.0079,130.3937 737.0079,130.3937 737.0079,92.5984 737.0079,92.5984 737.0079,54.8031 737.0079,54.8031 774.8031,54.8031 774.8031,54.8031 774.8031,17.0079 774.8031,17.0079 737.0079,17.0079"/>
    <polygon points="741.3976,18.9272 740.4601,19.2397 740.4601,19.2397 740.1476,19.8647 740.1476,19.8647 740.1476,20.4897 740.1476,20.4897 740.4601,21.1147 740.4601,21.1147 741.0851,21.4272 741.0851,21.4272 742.3351,21.7397 742.3351,21.7397 743.2726,22.0522 743.2726,22.0522 743.8976,22.6772 743.8976,22.6772 744.2101,23.3022 744.2101,23.3022 744.2101,24.2397 744.2101,24.2397 743.8976,24.8647 743.8976,24.8647 743.5851,25.1772 743.5851,25.1772 742.6476,25.4897 742.6476,25.4897 741.3976,25.4897 741.3976,25.4897 740.4601,25.1772 740.4601,25.1772 740.1476,24.8647 740.1476,24.8647 739.8351,24.2397 739.8351,24.2397 739.8351,23.3022 739.8351,23.3022 740.1476,22.6772 740.1476,22.6772 740.7726,22.0522 740.7726,22.0522 741.7101,21.7397 741.7101,21.7397 742.9601,21.4272 742.9601,21.4272 743.5851,21.1147 743.5851,21.1147 743.8976,20.4897 743.8976,20.4897 743.8976,19.8647 743.8976,19.8647 743.5851,19.2397 743.5851,19.2397 742.6476,18.9272 742.6476,18.9272"/>
    <polygon points="754.0305,28.4055 754.0305,41.5305 754.0305,41.5305 758.4055,41.5305 758.4055,41.5305 760.2805,40.9055 760.2805,40.9055 761.5305,39.6555 761.5305,39.6555 762.1555,38.4055 762.1555,38.4055 762.7805,36.5305 762.7805,36.5305 762.7805,33.4055 762.7805,33.4055 762.1555,31.5305 762.1555,31.5305 761.5305,30.2805 761.5305,30.2805 760.2805,29.0305 760.2805,29.0305 758.4055,28.4055 758.4055,28.4055"/>
    <polyline points="56.6929,54.8031 56.6929,92.5984 56.6929,92.5984 94.4882,92.5984 94.4882,92.5984 94.4882,130.3937 94.4882,130.3937 132.2835,130.3937 132.2835,130.3937 170.0787,130.3937 170.0787,130.3937 170.0787,92.5984"/>
    <polyline points="73.7156,72.4508 79.3406,72.4508 79.3406,72.4508 81.2156,71.8258 81.2156,71.8258 81.8406,71.2008 81.8406,71.2008 82.4656,69.9508 82.4656,69.9508 82.4656,68.7008 82.4656,68.7008 81.8406,67.4508 81.8406,67.4508 81.2156,66.8258 81.2156,66.8258 79.3406,66.2008 79.3406,66.2008 73.7156,66.2008 73.7156,66.2008 73.7156,79.3258"/>
    <line x1="78.0906" x2="82.4656" y1="72.4508" y2="79.3258"/>
    <polyline points="283.4646,92.5984 321.2598,92.5984 321.2598,92.5984 321.2598,130.3937 321.2598,130.3937 283.4646,130.3937 283.4646,130.3937 283.4646,92.5984 283.4646,92.5984 245.6693,92.5984 245.6693,92.5984 245.6693,130.3937 245.6693,130.3937 207.874,130.3937 207.874,130.3937 207.874,92.5984 207.874,92.5984 245.6693,92.5984 245.6693,92.5984 245.6693,54.8031"/>
    <polyline points="232.3967,79.3258 227.3967,66.2008 227.3967,66.2008 222.3967,79.3258"/>
    <line x1="224.2717" x2="230.5217" y1="74.9508" y2="74.9508"/>
    <line x1="380.4528" x2="380.4528" y1="66.2008" y2="79.3258"/>
    <line x1="491.9636" x2="491.9636" y1="66.2008" y2="79.3258"/>
    <line x1="487.5886" x2="496.3386" y1="66.2008" y2="66.2008"/>
    <polyline points="602.8494,72.4508 608.4744,72.4508 608.4744,72.4508 610.3494,71.8258 610.3494,71.8258 610.9744,71.2008 610.9744,71.2008 611.5994,69.9508 611.5994,69.9508 611.5994,68.7008 611.5994,68.7008 610.9744,67.4508 610.9744,67.4508 610.3494,66.8258 610.3494,66.8258 608.4744,66.2008 608.4744,66.2008 602.8494,66.2008 602.8494,66.2008 602.8494,79.3258"/>
    <line x1="607.2244" x2="611.5994" y1="72.4508" y2="79.3258"/>
    <line x1="737.0079" x2="774.8031" y1="92.5984" y2="92.5984"/>
    <polyline points="754.0305,72.4508 759.6555,72.4508 759.6555,72.4508 761.5305,71.8258 761.5305,71.8258 762.1555,71.2008 762.1555,71.2008 762.7805,69.9508 762.7805,69.9508 762.7805,68.7008 762.7805,68.7008 762.1555,67.4508 762.1555,67.4508 761.5305,66.8258 761.5305,66.8258 759.6555,66.2008 759.6555,66.2008 754.0305,66.2008 754.0305,66.2008 754.0305,79.3258"/>
    <line x1="758.4055" x2="762.7805" y1="72.4508" y2="79.3258"/>
    <polygon points="18.8976,92.5984 18.8976,130.3937 18.8976,130.3937 56.6929,130.3937 56.6929,130.3937 56.6929,92.5984 56.6929,92.5984"/>
    <polyline points="25.7874,96.7052 25.4749,97.6427 25.4749,97.6427 24.8499,98.2677 24.8499,98.2677 23.9124,98.5802 23.9124,98.5802 23.5999,98.5802 23.5999,98.5802 22.6624,98.2677 22.6624,98.2677 22.0374,97.6427 22.0374,97.6427 21.7249,96.7052 21.7249,96.7052 21.7249,96.3927 21.7249,96.3927 22.0374,95.4552 22.0374,95.4552 22.6624,94.8302 22.6624,94.8302 23.5999,94.5177 23.5999,94.5177 23.9124,94.5177 23.9124,94.5177 24.8499,94.8302 24.8499,94.8302 25.4749,95.4552 25.4749,95.4552 25.7874,96.7052 25.7874,96.7052 25.7874,98.2677 25.7874,98.2677 25.4749,99.8302 25.4749,99.8302 24.8499,100.7677 24.8499,100.7677 23.9124,101.0802 23.9124,101.0802 23.2874,101.0802 23.2874,101.0802 22.3499,100.7677 22.3499,100.7677 22.0374,100.1427"/>
    <line x1="35.9203" x2="35.9203" y1="103.9961" y2="117.1211"/>
    <line x1="44.6703" x2="35.9203" y1="103.9961" y2="112.7461"/>
    <line x1="39.0453" x2="44.6703" y1="109.6211" y2="117.1211"/>
    <polyline points="56.6929,168.189 56.6929,130.3937 56.6929,130.3937 94.4882,130.3937 94.4882,130.3937 94.4882,168.189 94.4882,168.189 56.6929,168.189 56.6929,168.189 56.6929,205.9843 56.6929,205.9843 18.8976,205.9843 18.8976,205.9843 18.8976,243.7795 18.8976,243.7795 56.6929,243.7795 56.6929,243.7795 94.4882,243.7795 94.4882,243.7795 94.4882,205.9843 94.4882,205.9843 94.4882,168.189"/>
    <line x1="78.0906" x2="78.0906" y1="103.9961" y2="117.1211"/>
    <line x1="132.2835" x2="132.2835" y1="130.3937" y2="92.5984"/>
    <polyline points="120.2608,103.9961 120.2608,117.1211 120.2608,117.1211 111.5108,103.9961 111.5108,103.9961 111.5108,117.1211"/>
    <polygon points="149.3061,103.9961 149.3061,117.1211 149.3061,117.1211 153.6811,117.1211 153.6811,117.1211 155.5561,116.4961 155.5561,116.4961 156.8061,115.2461 156.8061,115.2461 157.4311,113.9961 157.4311,113.9961 158.0561,112.1211 158.0561,112.1211 158.0561,108.9961 158.0561,108.9961 157.4311,107.1211 157.4311,107.1211 156.8061,105.8711 156.8061,105.8711 155.5561,104.6211 155.5561,104.6211 153.6811,103.9961 153.6811,103.9961"/>
    <polyline points="170.0787,130.3937 207.874,130.3937 207.874,130.3937 207.874,168.189 207.874,168.189 170.0787,168.189 170.0787,168.189 132.2835,168.189 132.2835,168.189 132.2835,205.9843 132.2835,205.9843 132.2835,243.7795 132.2835,243.7795 170.0787,243.7795 170.0787,243.7795 170.0787,205.9843 170.0787,205.9843 170.0787,168.189"/>
    <polyline points="195.5389,103.9961 187.4139,103.9961 187.4139,103.9961 187.4139,117.1211 187.4139,117.1211 195.5389,117.1211"/>
    <line x1="187.4139" x2="192.4139" y1="110.2461" y2="110.2461"/>
    <polyline points="224.8967,110.2461 230.5217,110.2461 230.5217,110.2461 232.3967,109.6211 232.3967,109.6211 233.0217,108.9961 233.0217,108.9961 233.6467,107.7461 233.6467,107.7461 233.6467,106.4961 233.6467,106.4961 233.0217,105.2461 233.0217,105.2461 232.3967,104.6211 232.3967,104.6211 230.5217,103.9961 230.5217,103.9961 224.8967,103.9961 224.8967,103.9961 224.8967,117.1211"/>
    <line x1="229.2717" x2="233.6467" y1="110.2461" y2="117.1211"/>
    <polyline points="132.2835,205.9843 170.0787,205.9843 170.0787,205.9843 207.874,205.9843 207.874,205.9843 245.6693,205.9843 245.6693,205.9843 283.4646,205.9843 283.4646,205.9843 283.4646,168.189 283.4646,168.189 245.6693,168.189 245.6693,168.189 245.6693,205.9843 245.6693,205.9843 245.6693,243.7795 245.6693,243.7795 207.874,243.7795 207.874,243.7795 207.874,205.9843 207.874,205.9843 207.874,168.189 207.874,168.189 245.6693,168.189 245.6693,168.189 245.6693,130.3937 245.6693,130.3937 283.4646,130.3937"/>
    <polyline points="271.1294,103.9961 263.0044,103.9961 263.0044,103.9961 263.0044,117.1211 263.0044,117.1211 271.1294,117.1211"/>
    <line x1="263.0044" x2="268.0044" y1="110.2461" y2="110.2461"/>
    <polyline points="309.2372,103.9961 309.2372,117.1211 309.2372,117.1211 300.4872,103.9961 300.4872,103.9961 300.4872,117.1211"/>
    <polyline points="359.0551,92.5984 359.0551,130.3937 359.0551,130.3937 396.8504,130.3937 396.8504,130.3937 396.8504,168.189 396.8504,168.189 396.8504,205.9843 396.8504,205.9843 434.6457,205.9843 434.6457,205.9843 434.6457,168.189 434.6457,168.189 396.8504,168.189 396.8504,168.189 359.0551,168.189 359.0551,168.189 321.2598,168.189 321.2598,168.189 321.2598,205.9843 321.2598,205.9843 359.0551,205.9843 359.0551,205.9843 359.0551,243.7795 359.0551,243.7795 396.8504,243.7795 396.8504,243.7795 396.8504,205.9843 396.8504,205.9843 359.0551,205.9843 359.0551,205.9843 359.0551,168.189 359.0551,168.189 359.0551,130.3937"/>
    <polyline points="362.8199,95.7677 363.4449,95.4552 363.4449,95.4552 364.3824,94.5177 364.3824,94.5177 364.3824,101.0802"/>
    <polygon points="370.0074,94.5177 369.0699,94.8302 369.0699,94.8302 368.4449,95.7677 368.4449,95.7677 368.1324,97.3302 368.1324,97.3302 368.1324,98.2677 368.1324,98.2677 368.4449,99.8302 368.4449,99.8302 369.0699,100.7677 369.0699,100.7677 370.0074,101.0802 370.0074,101.0802 370.6324,101.0802 370.6324,101.0802 371.5699,100.7677 371.5699,100.7677 372.1949,99.8302 372.1949,99.8302 372.5074,98.2677 372.5074,98.2677 372.5074,97.3302 372.5074,97.3302 372.1949,95.7677 372.1949,95.7677 371.5699,94.8302 371.5699,94.8302 370.6324,94.5177 370.6324,94.5177"/>
    <line x1="378.5778" x2="378.5778" y1="103.9961" y2="117.1211"/>
    <line x1="374.2028" x2="382.9528" y1="103.9961" y2="103.9961"/>
    <polyline points="422.3105,103.9961 414.1855,103.9961 414.1855,103.9961 414.1855,117.1211 414.1855,117.1211 422.3105,117.1211"/>
    <line x1="414.1855" x2="419.1855" y1="110.2461" y2="110.2461"/>
    <polyline points="434.6457,130.3937 472.4409,130.3937 472.4409,130.3937 510.2362,130.3937 510.2362,130.3937 548.0315,130.3937"/>
    <polyline points="452.2933,103.9961 452.2933,117.1211 452.2933,117.1211 459.7933,117.1211"/>
    <polyline points="497.9011,103.9961 489.7761,103.9961 489.7761,103.9961 489.7761,117.1211 489.7761,117.1211 497.9011,117.1211"/>
    <line x1="489.7761" x2="494.7761" y1="110.2461" y2="110.2461"/>
    <polyline points="535.6964,103.9961 527.5714,103.9961 527.5714,103.9961 527.5714,117.1211"/>
    <line x1="527.5714" x2="532.5714" y1="110.2461" y2="110.2461"/>
    <polygon points="567.5541,103.9961 566.3041,104.6211 566.3041,104.6211 565.0541,105.8711 565.0541,105.8711 564.4291,107.1211 564.4291,107.1211 563.8041,108.9961 563.8041,108.9961 563.8041,112.1211 563.8041,112.1211 564.4291,113.9961 564.4291,113.9961 565.0541,115.2461 565.0541,115.2461 566.3041,116.4961 566.3041,116.4961 567.5541,117.1211 567.5541,117.1211 570.0541,117.1211 570.0541,117.1211 571.3041,116.4961 571.3041,116.4961 572.5541,115.2461 572.5541,115.2461 573.1791,113.9961 573.1791,113.9961 573.8041,112.1211 573.8041,112.1211 573.8041,108.9961 573.8041,108.9961 573.1791,107.1211 573.1791,107.1211 572.5541,105.8711 572.5541,105.8711 571.3041,104.6211 571.3041,104.6211 570.0541,103.9961 570.0541,103.9961"/>
    <polyline points="661.4173,205.9843 623.622,205.9843 623.622,205.9843 623.622,168.189 623.622,168.189 585.8268,168.189 585.8268,168.189 585.8268,130.3937 585.8268,130.3937 623.622,130.3937 623.622,130.3937 623.622,92.5984 623.622,92.5984 661.4173,92.5984 661.4173,92.5984 661.4173,130.3937 661.4173,130.3937 623.622,130.3937 623.622,130.3937 623.622,168.189 623.622,168.189 661.4173,168.189 661.4173,168.189 661.4173,205.9843 661.4173,205.9843 699.2126,205.9843 699.2126,205.9843 699.2126,168.189 699.2126,168.189 661.4173,168.189"/>
    <polygon points="605.3494,103.9961 604.0994,104.6211 604.0994,104.6211 602.8494,105.8711 602.8494,105.8711 602.2244,107.1211 602.2244,107.1211 601.5994,108.9961 601.5994,108.9961 601.5994,112.1211 601.5994,112.1211 602.2244,113.9961 602.2244,113.9961 602.8494,115.2461 602.8494,115.2461 604.0994,116.4961 604.0994,116.4961 605.3494,117.1211 605.3494,117.1211 607.8494,117.1211 607.8494,117.1211 609.0994,116.4961 609.0994,116.4961 610.3494,115.2461 610.3494,115.2461 610.9744,113.9961 610.9744,113.9961 611.5994,112.1211 611.5994,112.1211 611.5994,108.9961 611.5994,108.9961 610.9744,107.1211 610.9744,107.1211 610.3494,105.8711 610.3494,105.8711 609.0994,104.6211 609.0994,104.6211 607.8494,103.9961 607.8494,103.9961"/>
    <polyline points="649.3947,103.9961 649.3947,117.1211 649.3947,117.1211 640.6447,103.9961 640.6447,103.9961 640.6447,117.1211"/>
    <polygon points="756.5305,103.9961 755.2805,104.6211 755.2805,104.6211 754.0305,105.8711 754.0305,105.8711 753.4055,107.1211 753.4055,107.1211 752.7805,108.9961 752.7805,108.9961 752.7805,112.1211 752.7805,112.1211 753.4055,113.9961 753.4055,113.9961 754.0305,115.2461 754.0305,115.2461 755.2805,116.4961 755.2805,116.4961 756.5305,117.1211 756.5305,117.1211 759.0305,117.1211 759.0305,117.1211 760.2805,116.4961 760.2805,116.4961 761.5305,115.2461 761.5305,115.2461 762.1555,113.9961 762.1555,113.9961 762.7805,112.1211 762.7805,112.1211 762.7805,108.9961 762.7805,108.9961 762.1555,107.1211 762.1555,107.1211 761.5305,105.8711 761.5305,105.8711 760.2805,104.6211 760.2805,104.6211 759.0305,103.9961 759.0305,103.9961"/>
    <polyline points="79.9656,141.7913 79.9656,151.7913 79.9656,151.7913 79.3406,153.6663 79.3406,153.6663 78.7156,154.2913 78.7156,154.2913 77.4656,154.9163 77.4656,154.9163 76.2156,154.9163 76.2156,154.9163 74.9656,154.2913 74.9656,154.2913 74.3406,153.6663 74.3406,153.6663 73.7156,151.7913 73.7156,151.7913 73.7156,150.5413"/>
    <line x1="224.8967" x2="224.8967" y1="141.7913" y2="154.9163"/>
    <line x1="233.6467" x2="224.8967" y1="141.7913" y2="150.5413"/>
    <line x1="228.0217" x2="233.6467" y1="147.4163" y2="154.9163"/>
    <polyline points="376.7028,141.7913 376.7028,154.9163 376.7028,154.9163 384.2028,154.9163"/>
    <polyline points="489.4636,148.0413 495.0886,148.0413 495.0886,148.0413 496.9636,147.4163 496.9636,147.4163 497.5886,146.7913 497.5886,146.7913 498.2136,145.5413 498.2136,145.5413 498.2136,144.2913 498.2136,144.2913 497.5886,143.0413 497.5886,143.0413 496.9636,142.4163 496.9636,142.4163 495.0886,141.7913 495.0886,141.7913 489.4636,141.7913 489.4636,141.7913 489.4636,154.9163"/>
    <line x1="493.8386" x2="498.2136" y1="148.0413" y2="154.9163"/>
    <polyline points="611.2869,141.7913 603.1619,141.7913 603.1619,141.7913 603.1619,154.9163 603.1619,154.9163 611.2869,154.9163"/>
    <line x1="603.1619" x2="608.1619" y1="148.0413" y2="148.0413"/>
    <polyline points="737.0079,130.3937 737.0079,168.189 737.0079,168.189 699.2126,168.189"/>
    <polyline points="699.2126,205.9843 737.0079,205.9843 737.0079,205.9843 774.8031,205.9843 774.8031,205.9843 774.8031,243.7795 774.8031,243.7795 737.0079,243.7795 737.0079,243.7795 737.0079,205.9843 737.0079,205.9843 737.0079,168.189 737.0079,168.189 774.8031,168.189 774.8031,168.189 774.8031,130.3937"/>
    <polyline points="754.0305,148.6663 759.6555,148.6663 759.6555,148.6663 761.5305,148.0413 761.5305,148.0413 762.1555,147.4163 762.1555,147.4163 762.7805,146.1663 762.7805,146.1663 762.7805,144.2913 762.7805,144.2913 762.1555,143.0413 762.1555,143.0413 761.5305,142.4163 761.5305,142.4163 759.6555,141.7913 759.6555,141.7913 754.0305,141.7913 754.0305,141.7913 754.0305,154.9163"/>
    <polyline points="94.4882,243.7795 94.4882,281.5748 94.4882,281.5748 56.6929,281.5748 56.6929,281.5748 56.6929,243.7795 56.6929,243.7795 56.6929,205.9843 56.6929,205.9843 94.4882,205.9843"/>
    <polygon points="73.7156,179.5866 73.7156,192.7116 73.7156,192.7116 78.0906,192.7116 78.0906,192.7116 79.9656,192.0866 79.9656,192.0866 81.2156,190.8366 81.2156,190.8366 81.8406,189.5866 81.8406,189.5866 82.4656,187.7116 82.4656,187.7116 82.4656,184.5866 82.4656,184.5866 81.8406,182.7116 81.8406,182.7116 81.2156,181.4616 81.2156,181.4616 79.9656,180.2116 79.9656,180.2116 78.0906,179.5866 78.0906,179.5866"/>
    <polyline points="136.0482,171.3583 136.6732,171.0458 136.6732,171.0458 137.6107,170.1083 137.6107,170.1083 137.6107,176.6708"/>
    <polyline points="142.2982,171.3583 142.9232,171.0458 142.9232,171.0458 143.8607,170.1083 143.8607,170.1083 143.8607,176.6708"/>
    <line x1="149.3061" x2="149.3061" y1="179.5866" y2="192.7116"/>
    <line x1="158.0561" x2="149.3061" y1="179.5866" y2="188.3366"/>
    <line x1="152.4311" x2="158.0561" y1="185.2116" y2="192.7116"/>
    <polygon points="189.6014,179.5866 188.3514,180.2116 188.3514,180.2116 187.1014,181.4616 187.1014,181.4616 186.4764,182.7116 186.4764,182.7116 185.8514,184.5866 185.8514,184.5866 185.8514,187.7116 185.8514,187.7116 186.4764,189.5866 186.4764,189.5866 187.1014,190.8366 187.1014,190.8366 188.3514,192.0866 188.3514,192.0866 189.6014,192.7116 189.6014,192.7116 192.1014,192.7116 192.1014,192.7116 193.3514,192.0866 193.3514,192.0866 194.6014,190.8366 194.6014,190.8366 195.2264,189.5866 195.2264,189.5866 195.8514,187.7116 195.8514,187.7116 195.8514,184.5866 195.8514,184.5866 195.2264,182.7116 195.2264,182.7116 194.6014,181.4616 194.6014,181.4616 193.3514,180.2116 193.3514,180.2116 192.1014,179.5866 192.1014,179.5866"/>
    <polyline points="233.3342,179.5866 225.2092,179.5866 225.2092,179.5866 225.2092,192.7116 225.2092,192.7116 233.3342,192.7116"/>
    <line x1="225.2092" x2="230.2092" y1="185.8366" y2="185.8366"/>
    <polyline points="271.4419,179.5866 271.4419,192.7116 271.4419,192.7116 262.6919,179.5866 262.6919,179.5866 262.6919,192.7116"/>
    <polyline points="325.0246,171.3583 325.6496,171.0458 325.6496,171.0458 326.5871,170.1083 326.5871,170.1083 326.5871,176.6708"/>
    <polyline points="330.6496,171.6708 330.6496,171.3583 330.6496,171.3583 330.9621,170.7333 330.9621,170.7333 331.2746,170.4208 331.2746,170.4208 331.8996,170.1083 331.8996,170.1083 333.1496,170.1083 333.1496,170.1083 333.7746,170.4208 333.7746,170.4208 334.0871,170.7333 334.0871,170.7333 334.3996,171.3583 334.3996,171.3583 334.3996,171.9833 334.3996,171.9833 334.0871,172.6083 334.0871,172.6083 333.4621,173.5458 333.4621,173.5458 330.3371,176.6708 330.3371,176.6708 334.7121,176.6708"/>
    <polyline points="338.9075,179.5866 338.9075,192.7116 338.9075,192.7116 346.4075,192.7116"/>
    <line x1="380.4528" x2="380.4528" y1="179.5866" y2="192.7116"/>
    <polyline points="422.3105,179.5866 414.1855,179.5866 414.1855,179.5866 414.1855,192.7116"/>
    <line x1="414.1855" x2="419.1855" y1="185.8366" y2="185.8366"/>
    <polyline points="434.6457,205.9843 472.4409,205.9843 472.4409,205.9843 472.4409,168.189 472.4409,168.189 434.6457,168.189"/>
    <line x1="454.1683" x2="454.1683" y1="179.5866" y2="192.7116"/>
    <line x1="449.7933" x2="458.5433" y1="179.5866" y2="179.5866"/>
    <polygon points="510.2362,168.189 510.2362,205.9843 510.2362,205.9843 548.0315,205.9843 548.0315,205.9843 585.8268,205.9843 585.8268,205.9843 585.8268,168.189 585.8268,168.189 548.0315,168.189 548.0315,168.189"/>
    <line x1="548.0315" x2="548.0315" y1="205.9843" y2="168.189"/>
    <polyline points="514.001,171.3583 514.626,171.0458 514.626,171.0458 515.5635,170.1083 515.5635,170.1083 515.5635,176.6708"/>
    <polyline points="519.9385,170.1083 523.376,170.1083 523.376,170.1083 521.501,172.6083 521.501,172.6083 522.4385,172.6083 522.4385,172.6083 523.0635,172.9208 523.0635,172.9208 523.376,173.2333 523.376,173.2333 523.6885,174.1708 523.6885,174.1708 523.6885,174.7958 523.6885,174.7958 523.376,175.7333 523.376,175.7333 522.751,176.3583 522.751,176.3583 521.8135,176.6708 521.8135,176.6708 520.876,176.6708 520.876,176.6708 519.9385,176.3583 519.9385,176.3583 519.626,176.0458 519.626,176.0458 519.3135,175.4208"/>
    <polyline points="527.8839,179.5866 527.8839,192.7116 527.8839,192.7116 535.3839,192.7116"/>
    <polyline points="572.5541,192.7116 567.5541,179.5866 567.5541,179.5866 562.5541,192.7116"/>
    <line x1="564.4291" x2="570.6791" y1="188.3366" y2="188.3366"/>
    <polygon points="585.8268,205.9843 623.622,205.9843 623.622,205.9843 623.622,243.7795 623.622,243.7795 585.8268,243.7795 585.8268,243.7795"/>
    <line x1="602.8494" x2="602.8494" y1="179.5866" y2="192.7116"/>
    <line x1="611.5994" x2="602.8494" y1="179.5866" y2="188.3366"/>
    <line x1="605.9744" x2="611.5994" y1="185.2116" y2="192.7116"/>
    <polyline points="649.0822,179.5866 640.9572,179.5866 640.9572,179.5866 640.9572,192.7116 640.9572,192.7116 649.0822,192.7116"/>
    <line x1="640.9572" x2="645.9572" y1="185.8366" y2="185.8366"/>
    <polyline points="687.19,179.5866 687.19,192.7116 687.19,192.7116 678.44,179.5866 678.44,179.5866 678.44,192.7116"/>
    <polyline points="724.3602,181.4616 723.1102,180.2116 723.1102,180.2116 721.2352,179.5866 721.2352,179.5866 718.7352,179.5866 718.7352,179.5866 716.8602,180.2116 716.8602,180.2116 715.6102,181.4616 715.6102,181.4616 715.6102,182.7116 715.6102,182.7116 716.2352,183.9616 716.2352,183.9616 716.8602,184.5866 716.8602,184.5866 718.1102,185.2116 718.1102,185.2116 721.8602,186.4616 721.8602,186.4616 723.1102,187.0866 723.1102,187.0866 723.7352,187.7116 723.7352,187.7116 724.3602,188.9616 724.3602,188.9616 724.3602,190.8366 724.3602,190.8366 723.1102,192.0866 723.1102,192.0866 721.2352,192.7116 721.2352,192.7116 718.7352,192.7116 718.7352,192.7116 716.8602,192.0866 716.8602,192.0866 715.6102,190.8366"/>
    <polyline points="22.6624,209.1535 23.2874,208.841 23.2874,208.841 24.2249,207.9035 24.2249,207.9035 24.2249,214.466"/>
    <polyline points="31.0999,214.466 31.0999,207.9035 31.0999,207.9035 27.9749,212.2785 27.9749,212.2785 32.6624,212.2785"/>
    <polyline points="42.1703,217.3819 42.1703,227.3819 42.1703,227.3819 41.5453,229.2569 41.5453,229.2569 40.9203,229.8819 40.9203,229.8819 39.6703,230.5069 39.6703,230.5069 38.4203,230.5069 38.4203,230.5069 37.1703,229.8819 37.1703,229.8819 36.5453,229.2569 36.5453,229.2569 35.9203,227.3819 35.9203,227.3819 35.9203,226.1319"/>
    <polyline points="81.2156,230.5069 76.2156,217.3819 76.2156,217.3819 71.2156,230.5069"/>
    <line x1="73.0906" x2="79.3406" y1="226.1319" y2="226.1319"/>
    <polyline points="156.8061,230.5069 151.8061,217.3819 151.8061,217.3819 146.8061,230.5069"/>
    <line x1="148.6811" x2="154.9311" y1="226.1319" y2="226.1319"/>
    <polyline points="224.8967,223.6319 230.5217,223.6319 230.5217,223.6319 232.3967,223.0069 232.3967,223.0069 233.0217,222.3819 233.0217,222.3819 233.6467,221.1319 233.6467,221.1319 233.6467,219.8819 233.6467,219.8819 233.0217,218.6319 233.0217,218.6319 232.3967,218.0069 232.3967,218.0069 230.5217,217.3819 230.5217,217.3819 224.8967,217.3819 224.8967,217.3819 224.8967,230.5069"/>
    <line x1="229.2717" x2="233.6467" y1="223.6319" y2="230.5069"/>
    <line x1="376.0778" x2="376.0778" y1="217.3819" y2="230.5069"/>
    <line x1="384.8278" x2="376.0778" y1="217.3819" y2="226.1319"/>
    <line x1="379.2028" x2="384.8278" y1="223.0069" y2="230.5069"/>
    <polyline points="602.2244,217.3819 610.9744,217.3819 610.9744,217.3819 602.2244,230.5069 602.2244,230.5069 610.9744,230.5069"/>
    <polyline points="740.7726,209.1535 741.3976,208.841 741.3976,208.841 742.3351,207.9035 742.3351,207.9035 742.3351,214.466"/>
    <polyline points="749.8351,207.9035 746.7101,207.9035 746.7101,207.9035 746.3976,210.716 746.3976,210.716 746.7101,210.4035 746.7101,210.4035 747.6476,210.091 747.6476,210.091 748.5851,210.091 748.5851,210.091 749.5226,210.4035 749.5226,210.4035 750.1476,211.0285 750.1476,211.0285 750.4601,211.966 750.4601,211.966 750.4601,212.591 750.4601,212.591 750.1476,213.5285 750.1476,213.5285 749.5226,214.1535 749.5226,214.1535 748.5851,214.466 748.5851,214.466 747.6476,214.466 747.6476,214.466 746.7101,214.1535 746.7101,214.1535 746.3976,213.841 746.3976,213.841 746.0851,213.216"/>
    <polyline points="762.468,220.5069 761.843,219.2569 761.843,219.2569 760.593,218.0069 760.593,218.0069 759.343,217.3819 759.343,217.3819 756.843,217.3819 756.843,217.3819 755.593,218.0069 755.593,218.0069 754.343,219.2569 754.343,219.2569 753.718,220.5069 753.718,220.5069 753.093,222.3819 753.093,222.3819 753.093,225.5069 753.093,225.5069 753.718,227.3819 753.718,227.3819 754.343,228.6319 754.343,228.6319 755.593,229.8819 755.593,229.8819 756.843,230.5069 756.843,230.5069 759.343,230.5069 759.343,230.5069 760.593,229.8819 760.593,229.8819 761.843,228.6319 761.843,228.6319 762.468,227.3819 762.468,227.3819 762.468,225.5069 762.468,225.5069 759.343,225.5069"/>
    <polyline points="82.1531,258.3022 81.5281,257.0522 81.5281,257.0522 80.2781,255.8022 80.2781,255.8022 79.0281,255.1772 79.0281,255.1772 76.5281,255.1772 76.5281,255.1772 75.2781,255.8022 75.2781,255.8022 74.0281,257.0522 74.0281,257.0522 73.4031,258.3022 73.4031,258.3022 72.7781,260.1772 72.7781,260.1772 72.7781,263.3022 72.7781,263.3022 73.4031,265.1772 73.4031,265.1772 74.0281,266.4272 74.0281,266.4272 75.2781,267.6772 75.2781,267.6772 76.5281,268.3022 76.5281,268.3022 79.0281,268.3022 79.0281,268.3022 80.2781,267.6772 80.2781,267.6772 81.5281,266.4272 81.5281,266.4272 82.1531,265.1772 82.1531,265.1772 82.1531,263.3022 82.1531,263.3022 79.0281,263.3022"/>
    <polyline points="132.2835,243.7795 132.2835,281.5748 132.2835,281.5748 170.0787,281.5748 170.0787,281.5748 170.0787,243.7795 170.0787,243.7795 207.874,243.7795 207.874,243.7795 207.874,281.5748 207.874,281.5748 207.874,319.3701 207.874,319.3701 170.0787,319.3701 170.0787,319.3701 170.0787,281.5748 170.0787,281.5748 207.874,281.5748 207.874,281.5748 245.6693,281.5748 245.6693,281.5748 245.6693,243.7795 245.6693,243.7795 283.4646,243.7795 283.4646,243.7795 321.2598,243.7795 321.2598,243.7795 321.2598,281.5748 321.2598,281.5748 359.0551,281.5748 359.0551,281.5748 359.0551,319.3701 359.0551,319.3701 396.8504,319.3701 396.8504,319.3701 396.8504,281.5748 396.8504,281.5748 396.8504,243.7795 396.8504,243.7795 434.6457,243.7795 434.6457,243.7795 434.6457,281.5748 434.6457,281.5748 396.8504,281.5748 396.8504,281.5748 359.0551,281.5748 359.0551,281.5748 359.0551,243.7795 359.0551,243.7795 321.2598,243.7795"/>
    <polyline points="136.0482,246.9488 136.6732,246.6363 136.6732,246.6363 137.6107,245.6988 137.6107,245.6988 137.6107,252.2613"/>
    <polyline points="145.4232,246.6363 145.1107,246.0113 145.1107,246.0113 144.1732,245.6988 144.1732,245.6988 143.5482,245.6988 143.5482,245.6988 142.6107,246.0113 142.6107,246.0113 141.9857,246.9488 141.9857,246.9488 141.6732,248.5113 141.6732,248.5113 141.6732,250.0738 141.6732,250.0738 141.9857,251.3238 141.9857,251.3238 142.6107,251.9488 142.6107,251.9488 143.5482,252.2613 143.5482,252.2613 143.8607,252.2613 143.8607,252.2613 144.7982,251.9488 144.7982,251.9488 145.4232,251.3238 145.4232,251.3238 145.7357,250.3863 145.7357,250.3863 145.7357,250.0738 145.7357,250.0738 145.4232,249.1363 145.4232,249.1363 144.7982,248.5113 144.7982,248.5113 143.8607,248.1988 143.8607,248.1988 143.5482,248.1988 143.5482,248.1988 142.6107,248.5113 142.6107,248.5113 141.9857,249.1363 141.9857,249.1363 141.6732,250.0738"/>
    <polyline points="157.4311,257.0522 156.1811,255.8022 156.1811,255.8022 154.3061,255.1772 154.3061,255.1772 151.8061,255.1772 151.8061,255.1772 149.9311,255.8022 149.9311,255.8022 148.6811,257.0522 148.6811,257.0522 148.6811,258.3022 148.6811,258.3022 149.3061,259.5522 149.3061,259.5522 149.9311,260.1772 149.9311,260.1772 151.1811,260.8022 151.1811,260.8022 154.9311,262.0522 154.9311,262.0522 156.1811,262.6772 156.1811,262.6772 156.8061,263.3022 156.8061,263.3022 157.4311,264.5522 157.4311,264.5522 157.4311,266.4272 157.4311,266.4272 156.1811,267.6772 156.1811,267.6772 154.3061,268.3022 154.3061,268.3022 151.8061,268.3022 151.8061,268.3022 149.9311,267.6772 149.9311,267.6772 148.6811,266.4272"/>
    <line x1="187.1014" x2="187.1014" y1="255.1772" y2="268.3022"/>
    <line x1="195.8514" x2="187.1014" y1="255.1772" y2="263.9272"/>
    <line x1="190.2264" x2="195.8514" y1="260.8022" y2="268.3022"/>
    <polyline points="233.3342,255.1772 225.2092,255.1772 225.2092,255.1772 225.2092,268.3022 225.2092,268.3022 233.3342,268.3022"/>
    <line x1="225.2092" x2="230.2092" y1="261.4272" y2="261.4272"/>
    <polyline points="56.6929,319.3701 56.6929,357.1654 56.6929,357.1654 18.8976,357.1654 18.8976,357.1654 18.8976,319.3701 18.8976,319.3701 56.6929,319.3701 56.6929,319.3701 94.4882,319.3701 94.4882,319.3701 132.2835,319.3701 132.2835,319.3701 170.0787,319.3701 170.0787,319.3701 170.0787,357.1654 170.0787,357.1654 207.874,357.1654 207.874,357.1654 207.874,319.3701 207.874,319.3701 245.6693,319.3701 245.6693,319.3701 245.6693,281.5748 245.6693,281.5748 283.4646,281.5748 283.4646,281.5748 283.4646,243.7795"/>
    <polyline points="263.3169,255.1772 263.3169,268.3022 263.3169,268.3022 270.8169,268.3022"/>
    <line x1="283.4646" x2="321.2598" y1="281.5748" y2="281.5748"/>
    <polyline points="301.1122,255.1772 301.1122,268.3022 301.1122,268.3022 308.6122,268.3022"/>
    <polyline points="346.72,255.1772 338.595,255.1772 338.595,255.1772 338.595,268.3022 338.595,268.3022 346.72,268.3022"/>
    <line x1="338.595" x2="343.595" y1="261.4272" y2="261.4272"/>
    <line x1="376.0778" x2="376.0778" y1="255.1772" y2="268.3022"/>
    <line x1="384.8278" x2="376.0778" y1="255.1772" y2="263.9272"/>
    <line x1="379.2028" x2="384.8278" y1="260.8022" y2="268.3022"/>
    <polyline points="422.3105,255.1772 414.1855,255.1772 414.1855,255.1772 414.1855,268.3022 414.1855,268.3022 422.3105,268.3022"/>
    <line x1="414.1855" x2="419.1855" y1="261.4272" y2="261.4272"/>
    <polygon points="548.0315,243.7795 548.0315,281.5748 548.0315,281.5748 585.8268,281.5748 585.8268,281.5748 585.8268,243.7795 585.8268,243.7795"/>
    <polyline points="551.7963,246.9488 552.4213,246.6363 552.4213,246.6363 553.3588,245.6988 553.3588,245.6988 553.3588,252.2613"/>
    <polyline points="557.1088,245.6988 561.4838,245.6988 561.4838,245.6988 558.3588,252.2613"/>
    <polyline points="565.6791,255.1772 565.6791,268.3022 565.6791,268.3022 573.1791,268.3022"/>
    <polyline points="661.4173,281.5748 623.622,281.5748 623.622,281.5748 623.622,319.3701 623.622,319.3701 585.8268,319.3701 585.8268,319.3701 585.8268,281.5748 585.8268,281.5748 623.622,281.5748 623.622,281.5748 623.622,243.7795 623.622,243.7795 661.4173,243.7795 661.4173,243.7795 661.4173,281.5748 661.4173,281.5748 699.2126,281.5748 699.2126,281.5748 699.2126,243.7795 699.2126,243.7795 661.4173,243.7795"/>
    <polyline points="610.3494,268.3022 605.3494,255.1772 605.3494,255.1772 600.3494,268.3022"/>
    <line x1="602.2244" x2="608.4744" y1="263.9272" y2="263.9272"/>
    <polygon points="640.6447,255.1772 640.6447,268.3022 640.6447,268.3022 645.0197,268.3022 645.0197,268.3022 646.8947,267.6772 646.8947,267.6772 648.1447,266.4272 648.1447,266.4272 648.7697,265.1772 648.7697,265.1772 649.3947,263.3022 649.3947,263.3022 649.3947,260.1772 649.3947,260.1772 648.7697,258.3022 648.7697,258.3022 648.1447,257.0522 648.1447,257.0522 646.8947,255.8022 646.8947,255.8022 645.0197,255.1772 645.0197,255.1772"/>
    <polygon points="678.44,255.1772 678.44,268.3022 678.44,268.3022 682.815,268.3022 682.815,268.3022 684.69,267.6772 684.69,267.6772 685.94,266.4272 685.94,266.4272 686.565,265.1772 686.565,265.1772 687.19,263.3022 687.19,263.3022 687.19,260.1772 687.19,260.1772 686.565,258.3022 686.565,258.3022 685.94,257.0522 685.94,257.0522 684.69,255.8022 684.69,255.8022 682.815,255.1772 682.815,255.1772"/>
    <polyline points="699.2126,281.5748 737.0079,281.5748 737.0079,281.5748 737.0079,319.3701 737.0079,319.3701 737.0079,357.1654 737.0079,357.1654 774.8031,357.1654 774.8031,357.1654 774.8031,319.3701 774.8031,319.3701 774.8031,281.5748 774.8031,281.5748 774.8031,243.7795"/>
    <polyline points="774.8031,281.5748 737.0079,281.5748 737.0079,281.5748 737.0079,243.7795 737.0079,243.7795 699.2126,243.7795"/>
    <polyline points="724.6727,255.1772 716.5477,255.1772 716.5477,255.1772 716.5477,268.3022 716.5477,268.3022 724.6727,268.3022"/>
    <line x1="716.5477" x2="721.5477" y1="261.4272" y2="261.4272"/>
    <polyline points="754.0305,261.4272 759.6555,261.4272 759.6555,261.4272 761.5305,260.8022 761.5305,260.8022 762.1555,260.1772 762.1555,260.1772 762.7805,258.9272 762.7805,258.9272 762.7805,257.6772 762.7805,257.6772 762.1555,256.4272 762.1555,256.4272 761.5305,255.8022 761.5305,255.8022 759.6555,255.1772 759.6555,255.1772 754.0305,255.1772 754.0305,255.1772 754.0305,268.3022"/>
    <line x1="758.4055" x2="762.7805" y1="261.4272" y2="268.3022"/>
    <polyline points="132.2835,281.5748 132.2835,319.3701 132.2835,319.3701 132.2835,357.1654 132.2835,357.1654 170.0787,357.1654"/>
    <polyline points="157.4311,294.8474 156.1811,293.5974 156.1811,293.5974 154.3061,292.9724 154.3061,292.9724 151.8061,292.9724 151.8061,292.9724 149.9311,293.5974 149.9311,293.5974 148.6811,294.8474 148.6811,294.8474 148.6811,296.0974 148.6811,296.0974 149.3061,297.3474 149.3061,297.3474 149.9311,297.9724 149.9311,297.9724 151.1811,298.5974 151.1811,298.5974 154.9311,299.8474 154.9311,299.8474 156.1811,300.4724 156.1811,300.4724 156.8061,301.0974 156.8061,301.0974 157.4311,302.3474 157.4311,302.3474 157.4311,304.2224 157.4311,304.2224 156.1811,305.4724 156.1811,305.4724 154.3061,306.0974 154.3061,306.0974 151.8061,306.0974 151.8061,306.0974 149.9311,305.4724 149.9311,305.4724 148.6811,304.2224"/>
    <polyline points="233.6467,292.9724 233.6467,306.0974 233.6467,306.0974 224.8967,292.9724 224.8967,292.9724 224.8967,306.0974"/>
    <polyline points="384.5153,292.9724 376.3903,292.9724 376.3903,292.9724 376.3903,306.0974 376.3903,306.0974 384.5153,306.0974"/>
    <line x1="376.3903" x2="381.3903" y1="299.2224" y2="299.2224"/>
    <line x1="602.8494" x2="602.8494" y1="292.9724" y2="306.0974"/>
    <line x1="611.5994" x2="602.8494" y1="292.9724" y2="301.7224"/>
    <line x1="605.9744" x2="611.5994" y1="298.5974" y2="306.0974"/>
    <line x1="737.0079" x2="774.8031" y1="319.3701" y2="319.3701"/>
    <polyline points="761.5305,306.0974 756.5305,292.9724 756.5305,292.9724 751.5305,306.0974"/>
    <line x1="753.4055" x2="759.6555" y1="301.7224" y2="301.7224"/>
    <polyline points="22.6624,322.5394 23.2874,322.2269 23.2874,322.2269 24.2249,321.2894 24.2249,321.2894 24.2249,327.8519"/>
    <polygon points="29.5374,321.2894 28.5999,321.6019 28.5999,321.6019 28.2874,322.2269 28.2874,322.2269 28.2874,322.8519 28.2874,322.8519 28.5999,323.4769 28.5999,323.4769 29.2249,323.7894 29.2249,323.7894 30.4749,324.1019 30.4749,324.1019 31.4124,324.4144 31.4124,324.4144 32.0374,325.0394 32.0374,325.0394 32.3499,325.6644 32.3499,325.6644 32.3499,326.6019 32.3499,326.6019 32.0374,327.2269 32.0374,327.2269 31.7249,327.5394 31.7249,327.5394 30.7874,327.8519 30.7874,327.8519 29.5374,327.8519 29.5374,327.8519 28.5999,327.5394 28.5999,327.5394 28.2874,327.2269 28.2874,327.2269 27.9749,326.6019 27.9749,326.6019 27.9749,325.6644 27.9749,325.6644 28.2874,325.0394 28.2874,325.0394 28.9124,324.4144 28.9124,324.4144 29.8499,324.1019 29.8499,324.1019 31.0999,323.7894 31.0999,323.7894 31.7249,323.4769 31.7249,323.4769 32.0374,322.8519 32.0374,322.8519 32.0374,322.2269 32.0374,322.2269 31.7249,321.6019 31.7249,321.6019 30.7874,321.2894 30.7874,321.2894"/>
    <polyline points="44.3578,333.8927 43.7328,332.6427 43.7328,332.6427 42.4828,331.3927 42.4828,331.3927 41.2328,330.7677 41.2328,330.7677 38.7328,330.7677 38.7328,330.7677 37.4828,331.3927 37.4828,331.3927 36.2328,332.6427 36.2328,332.6427 35.6078,333.8927 35.6078,333.8927 34.9828,335.7677 34.9828,335.7677 34.9828,338.8927 34.9828,338.8927 35.6078,340.7677 35.6078,340.7677 36.2328,342.0177 36.2328,342.0177 37.4828,343.2677 37.4828,343.2677 38.7328,343.8927 38.7328,343.8927 41.2328,343.8927 41.2328,343.8927 42.4828,343.2677 42.4828,343.2677 43.7328,342.0177 43.7328,342.0177 44.3578,340.7677 44.3578,340.7677 44.3578,338.8927 44.3578,338.8927 41.2328,338.8927"/>
    <polyline points="56.6929,357.1654 94.4882,357.1654 94.4882,357.1654 94.4882,319.3701"/>
    <polyline points="73.7156,337.0177 79.3406,337.0177 79.3406,337.0177 81.2156,336.3927 81.2156,336.3927 81.8406,335.7677 81.8406,335.7677 82.4656,334.5177 82.4656,334.5177 82.4656,333.2677 82.4656,333.2677 81.8406,332.0177 81.8406,332.0177 81.2156,331.3927 81.2156,331.3927 79.3406,330.7677 79.3406,330.7677 73.7156,330.7677 73.7156,330.7677 73.7156,343.8927"/>
    <line x1="78.0906" x2="82.4656" y1="337.0177" y2="343.8927"/>
    <line x1="94.4882" x2="132.2835" y1="357.1654" y2="357.1654"/>
    <polyline points="119.0108,343.8927 114.0108,330.7677 114.0108,330.7677 109.0108,343.8927"/>
    <line x1="110.8858" x2="117.1358" y1="339.5177" y2="339.5177"/>
    <polyline points="156.8061,343.8927 151.8061,330.7677 151.8061,330.7677 146.8061,343.8927"/>
    <line x1="148.6811" x2="154.9311" y1="339.5177" y2="339.5177"/>
    <line x1="189.6014" x2="189.6014" y1="330.7677" y2="343.8927"/>
    <line x1="185.2264" x2="193.9764" y1="330.7677" y2="330.7677"/>
    <polygon points="283.4646,319.3701 283.4646,357.1654 283.4646,357.1654 321.2598,357.1654 321.2598,357.1654 321.2598,319.3701 321.2598,319.3701"/>
    <polyline points="287.2293,322.5394 287.8543,322.2269 287.8543,322.2269 288.7918,321.2894 288.7918,321.2894 288.7918,327.8519"/>
    <polyline points="296.6043,323.4769 296.2918,324.4144 296.2918,324.4144 295.6668,325.0394 295.6668,325.0394 294.7293,325.3519 294.7293,325.3519 294.4168,325.3519 294.4168,325.3519 293.4793,325.0394 293.4793,325.0394 292.8543,324.4144 292.8543,324.4144 292.5418,323.4769 292.5418,323.4769 292.5418,323.1644 292.5418,323.1644 292.8543,322.2269 292.8543,322.2269 293.4793,321.6019 293.4793,321.6019 294.4168,321.2894 294.4168,321.2894 294.7293,321.2894 294.7293,321.2894 295.6668,321.6019 295.6668,321.6019 296.2918,322.2269 296.2918,322.2269 296.6043,323.4769 296.6043,323.4769 296.6043,325.0394 296.6043,325.0394 296.2918,326.6019 296.2918,326.6019 295.6668,327.5394 295.6668,327.5394 294.7293,327.8519 294.7293,327.8519 294.1043,327.8519 294.1043,327.8519 293.1668,327.5394 293.1668,327.5394 292.8543,326.9144"/>
    <line x1="300.4872" x2="300.4872" y1="330.7677" y2="343.8927"/>
    <line x1="309.2372" x2="309.2372" y1="330.7677" y2="343.8927"/>
    <line x1="300.4872" x2="309.2372" y1="337.0177" y2="337.0177"/>
    <polyline points="321.2598,357.1654 359.0551,357.1654 359.0551,357.1654 359.0551,319.3701 359.0551,319.3701 321.2598,319.3701"/>
    <polyline points="345.7825,343.8927 340.7825,330.7677 340.7825,330.7677 335.7825,343.8927"/>
    <line x1="337.6575" x2="343.9075" y1="339.5177" y2="339.5177"/>
    <polyline points="359.0551,357.1654 396.8504,357.1654 396.8504,357.1654 396.8504,319.3701 396.8504,319.3701 434.6457,319.3701 434.6457,319.3701 434.6457,357.1654 434.6457,357.1654 396.8504,357.1654"/>
    <polyline points="384.8278,330.7677 384.8278,343.8927 384.8278,343.8927 376.0778,330.7677 376.0778,330.7677 376.0778,343.8927"/>
    <polygon points="413.873,330.7677 413.873,343.8927 413.873,343.8927 418.248,343.8927 418.248,343.8927 420.123,343.2677 420.123,343.2677 421.373,342.0177 421.373,342.0177 421.998,340.7677 421.998,340.7677 422.623,338.8927 422.623,338.8927 422.623,335.7677 422.623,335.7677 421.998,333.8927 421.998,333.8927 421.373,332.6427 421.373,332.6427 420.123,331.3927 420.123,331.3927 418.248,330.7677 418.248,330.7677"/>
    <polyline points="434.6457,357.1654 472.4409,357.1654 472.4409,357.1654 472.4409,319.3701 472.4409,319.3701 434.6457,319.3701"/>
    <polygon points="451.6683,330.7677 451.6683,343.8927 451.6683,343.8927 456.0433,343.8927 456.0433,343.8927 457.9183,343.2677 457.9183,343.2677 459.1683,342.0177 459.1683,342.0177 459.7933,340.7677 459.7933,340.7677 460.4183,338.8927 460.4183,338.8927 460.4183,335.7677 460.4183,335.7677 459.7933,333.8927 459.7933,333.8927 459.1683,332.6427 459.1683,332.6427 457.9183,331.3927 457.9183,331.3927 456.0433,330.7677 456.0433,330.7677"/>
    <polyline points="472.4409,357.1654 510.2362,357.1654 510.2362,357.1654 510.2362,319.3701 510.2362,319.3701 472.4409,319.3701"/>
    <polygon points="491.9636,330.7677 490.7136,331.3927 490.7136,331.3927 489.4636,332.6427 489.4636,332.6427 488.8386,333.8927 488.8386,333.8927 488.2136,335.7677 488.2136,335.7677 488.2136,338.8927 488.2136,338.8927 488.8386,340.7677 488.8386,340.7677 489.4636,342.0177 489.4636,342.0177 490.7136,343.2677 490.7136,343.2677 491.9636,343.8927 491.9636,343.8927 494.4636,343.8927 494.4636,343.8927 495.7136,343.2677 495.7136,343.2677 496.9636,342.0177 496.9636,342.0177 497.5886,340.7677 497.5886,340.7677 498.2136,338.8927 498.2136,338.8927 498.2136,335.7677 498.2136,335.7677 497.5886,333.8927 497.5886,333.8927 496.9636,332.6427 496.9636,332.6427 495.7136,331.3927 495.7136,331.3927 494.4636,330.7677 494.4636,330.7677"/>
    <polyline points="510.2362,357.1654 548.0315,357.1654 548.0315,357.1654 548.0315,319.3701 548.0315,319.3701 510.2362,319.3701"/>
    <polyline points="535.6964,330.7677 527.5714,330.7677 527.5714,330.7677 527.5714,343.8927 527.5714,343.8927 535.6964,343.8927"/>
    <line x1="527.5714" x2="532.5714" y1="337.0177" y2="337.0177"/>
    <polyline points="548.0315,357.1654 585.8268,357.1654 585.8268,357.1654 585.8268,319.3701 585.8268,319.3701 548.0315,319.3701"/>
    <line x1="565.0541" x2="565.0541" y1="330.7677" y2="343.8927"/>
    <line x1="573.8041" x2="565.0541" y1="330.7677" y2="339.5177"/>
    <line x1="568.1791" x2="573.8041" y1="336.3927" y2="343.8927"/>
    <polyline points="762.1555,332.6427 760.9055,331.3927 760.9055,331.3927 759.0305,330.7677 759.0305,330.7677 756.5305,330.7677 756.5305,330.7677 754.6555,331.3927 754.6555,331.3927 753.4055,332.6427 753.4055,332.6427 753.4055,333.8927 753.4055,333.8927 754.0305,335.1427 754.0305,335.1427 754.6555,335.7677 754.6555,335.7677 755.9055,336.3927 755.9055,336.3927 759.6555,337.6427 759.6555,337.6427 760.9055,338.2677 760.9055,338.2677 761.5305,338.8927 761.5305,338.8927 762.1555,340.1427 762.1555,340.1427 762.1555,342.0177 762.1555,342.0177 760.9055,343.2677 760.9055,343.2677 759.0305,343.8927 759.0305,343.8927 756.5305,343.8927 756.5305,343.8927 754.6555,343.2677 754.6555,343.2677 753.4055,342.0177"/>
  </g>
</svg>
