<?xml version="1.0" encoding="utf-8" ?>
<svg xmlns="http://www.w3.org/2000/svg" xmlns:cc="http://creativecommons.org/ns" xmlns:dc="http://purl.org/dc/elements/1.1/" xmlns:ev="http://www.w3.org/2001/xml-events" xmlns:inkscape="http://www.inkscape.org/namespaces/inkscape" xmlns:rdf="http://www.w3.org/1999/02/22-rdf-syntax-ns" xmlns:sodipodi="http://sodipodi.sourceforge.net/DTD/sodipodi-0.dtd" xmlns:xlink="http://www.w3.org/1999/xlink" baseProfile="tiny" height="9.9cm" version="1.2" viewBox="0 0 793.7007874015749 374.1732283464567" width="21.0cm">
  <metadata>
    <rdf:RDF>
      <cc:Work>
        <dc:format>image/svg+xml</dc:format>
        <dc:source>vpype eval 'cell=10;width=210;height=99' eval 'nCols=20;nRows=9' eval 'cells=[2,3,4,5,6,7,10,12,16,19,21,24,28,29,30,31,32,33,34,35,36,39,41,44,47,50,52,56,57,58,59,60,61,62,63,64,65,66,67,68,69,70,72,74,76,79,81,84,87,90,92,94,96,99,101,104,107,110,112,114,116,119,120,121,122,123,124,126,128,129,130,131,132,133,134,135,136,137,138,139,141,144,146,150,159,162,163,164,165,166,167,168,169,172,173,174,175,176,177,178,179]' eval 'chars=[&quot;T&quot;,&quot;E&quot;,&quot;R&quot;,&quot;R&quot;,&quot;A&quot;,&quot;S&quot;,&quot;H&quot;,&quot;R&quot;,&quot;V&quot;,&quot;U&quot;,&quot;V&quot;,&quot;E&quot;,&quot;K&quot;,&quot;L&quot;,&quot;A&quot;,&quot;V&quot;,&quot;E&quot;,&quot;R&quot;,&quot;T&quot;,&quot;J&quot;,&quot;E&quot;,&quot;I&quot;,&quot;R&quot;,&quot;G&quot;,&quot;S&quot;,&quot;N&quot;,&quot;S&quot;,&quot;L&quot;,&quot;I&quot;,&quot;F&quot;,&quot;T&quot;,&quot;M&quot;,&quot;I&quot;,&quot;S&quot;,&quot;V&quot;,&quot;E&quot;,&quot;R&quot;,&quot;S&quot;,&quot;T&quot;,&quot;A&quot;,&quot;N&quot;,&quot;D&quot;,&quot;T&quot;,&quot;K&quot;,&quot;L&quot;,&quot;L&quot;,&quot;J&quot;,&quot;N&quot;,&quot;E&quot;,&quot;D&quot;,&quot;J&quot;,&quot;O&quot;,&quot;E&quot;,&quot;I&quot;,&quot;D&quot;,&quot;B&quot;,&quot;R&quot;,&quot;O&quot;,&quot;E&quot;,&quot;E&quot;,&quot;K&quot;,&quot;K&quot;,&quot;R&quot;,&quot;A&quot;,&quot;D&quot;,&quot;I&quot;,&quot;O&quot;,&quot;Z&quot;,&quot;F&quot;,&quot;L&quot;,&quot;E&quot;,&quot;S&quot;,&quot;S&quot;,&quot;E&quot;,&quot;N&quot;,&quot;G&quot;,&quot;E&quot;,&quot;L&quot;,&quot;U&quot;,&quot;K&quot;,&quot;G&quot;,&quot;O&quot;,&quot;O&quot;,&quot;K&quot;,&quot;E&quot;,&quot;R&quot;,&quot;E&quot;,&quot;G&quot;,&quot;E&quot;,&quot;N&quot;,&quot;B&quot;,&quot;U&quot;,&quot;I&quot;,&quot;P&quot;,&quot;A&quot;,&quot;R&quot;,&quot;K&quot;,&quot;E&quot;,&quot;R&quot;,&quot;E&quot;,&quot;N&quot;]' eval 'numbers=[2,4,10,12,16,19,21,28,47,56,60,74,120,126,128,162,172]' eval counter=1 eval charIndex=0 begin grid -o '%cell*mm%' '%cell*mm%' %nCols% %nRows% eval '%isCell=_i in cells%' eval '%number=_i in numbers%' eval '%size=10 if isCell else 0%' rect 0 0 '%size*mm%' '%size*mm%' text -s 10 -p 0.5mm 1.5mm '%counter if number else '&quot;'&quot;''&quot;'&quot;'%' text -s 20 -p 5mm 5mm -a center '%chars[charIndex] if isCell else '&quot;'&quot;''&quot;'&quot;'%' eval '%if number: counter+=1 %' eval '%if isCell: charIndex+=1 %' end splitall deduplicate linemerge --tolerance 0.1mm write -m none --page-size '%width*mm%x%height*mm%' --center ./svgs/solution/ff32e5.svg
</dc:source>
        <dc:date>2024-01-07T16:17:08.146439</dc:date>
      </cc:Work>
    </rdf:RDF>
  </metadata>
  <defs/>
  <g fill="none" id="layer1" inkscape:groupmode="layer" inkscape:label="1" stroke="#000000" style="display:inline">
    <polygon points="94.4882,17.0079 94.4882,54.8031 94.4882,54.8031 132.2835,54.8031 132.2835,54.8031 132.2835,17.0079 132.2835,17.0079"/>
    <polyline points="98.253,20.1772 98.878,19.8647 98.878,19.8647 99.8155,18.9272 99.8155,18.9272 99.8155,25.4897"/>
    <line x1="114.0108" x2="114.0108" y1="28.4055" y2="41.5305"/>
    <line x1="109.6358" x2="118.3858" y1="28.4055" y2="28.4055"/>
    <polyline points="132.2835,54.8031 170.0787,54.8031 170.0787,54.8031 170.0787,17.0079 170.0787,17.0079 132.2835,17.0079"/>
    <polyline points="157.7436,28.4055 149.6186,28.4055 149.6186,28.4055 149.6186,41.5305 149.6186,41.5305 157.7436,41.5305"/>
    <line x1="149.6186" x2="154.6186" y1="34.6555" y2="34.6555"/>
    <polyline points="207.874,17.0079 245.6693,17.0079 245.6693,17.0079 245.6693,54.8031 245.6693,54.8031 207.874,54.8031 207.874,54.8031 207.874,92.5984 207.874,92.5984 170.0787,92.5984 170.0787,92.5984 170.0787,54.8031 170.0787,54.8031 207.874,54.8031 207.874,54.8031 207.874,17.0079 207.874,17.0079 170.0787,17.0079"/>
    <polyline points="173.2185,20.4897 173.2185,20.1772 173.2185,20.1772 173.531,19.5522 173.531,19.5522 173.8435,19.2397 173.8435,19.2397 174.4685,18.9272 174.4685,18.9272 175.7185,18.9272 175.7185,18.9272 176.3435,19.2397 176.3435,19.2397 176.656,19.5522 176.656,19.5522 176.9685,20.1772 176.9685,20.1772 176.9685,20.8022 176.9685,20.8022 176.656,21.4272 176.656,21.4272 176.031,22.3647 176.031,22.3647 172.906,25.4897 172.906,25.4897 177.281,25.4897"/>
    <polyline points="187.1014,34.6555 192.7264,34.6555 192.7264,34.6555 194.6014,34.0305 194.6014,34.0305 195.2264,33.4055 195.2264,33.4055 195.8514,32.1555 195.8514,32.1555 195.8514,30.9055 195.8514,30.9055 195.2264,29.6555 195.2264,29.6555 194.6014,29.0305 194.6014,29.0305 192.7264,28.4055 192.7264,28.4055 187.1014,28.4055 187.1014,28.4055 187.1014,41.5305"/>
    <line x1="191.4764" x2="195.8514" y1="34.6555" y2="41.5305"/>
    <polyline points="224.8967,34.6555 230.5217,34.6555 230.5217,34.6555 232.3967,34.0305 232.3967,34.0305 233.0217,33.4055 233.0217,33.4055 233.6467,32.1555 233.6467,32.1555 233.6467,30.9055 233.6467,30.9055 233.0217,29.6555 233.0217,29.6555 232.3967,29.0305 232.3967,29.0305 230.5217,28.4055 230.5217,28.4055 224.8967,28.4055 224.8967,28.4055 224.8967,41.5305"/>
    <line x1="229.2717" x2="233.6467" y1="34.6555" y2="41.5305"/>
    <polyline points="245.6693,54.8031 283.4646,54.8031 283.4646,54.8031 321.2598,54.8031 321.2598,54.8031 321.2598,17.0079 321.2598,17.0079 283.4646,17.0079 283.4646,17.0079 245.6693,17.0079"/>
    <line x1="283.4646" x2="283.4646" y1="54.8031" y2="17.0079"/>
    <polyline points="270.1919,41.5305 265.1919,28.4055 265.1919,28.4055 260.1919,41.5305"/>
    <line x1="262.0669" x2="268.3169" y1="37.1555" y2="37.1555"/>
    <polyline points="308.6122,30.2805 307.3622,29.0305 307.3622,29.0305 305.4872,28.4055 305.4872,28.4055 302.9872,28.4055 302.9872,28.4055 301.1122,29.0305 301.1122,29.0305 299.8622,30.2805 299.8622,30.2805 299.8622,31.5305 299.8622,31.5305 300.4872,32.7805 300.4872,32.7805 301.1122,33.4055 301.1122,33.4055 302.3622,34.0305 302.3622,34.0305 306.1122,35.2805 306.1122,35.2805 307.3622,35.9055 307.3622,35.9055 307.9872,36.5305 307.9872,36.5305 308.6122,37.7805 308.6122,37.7805 308.6122,39.6555 308.6122,39.6555 307.3622,40.9055 307.3622,40.9055 305.4872,41.5305 305.4872,41.5305 302.9872,41.5305 302.9872,41.5305 301.1122,40.9055 301.1122,40.9055 299.8622,39.6555"/>
    <polygon points="396.8504,17.0079 396.8504,54.8031 396.8504,54.8031 434.6457,54.8031 434.6457,54.8031 434.6457,17.0079 434.6457,17.0079"/>
    <polyline points="400.3027,18.9272 403.7402,18.9272 403.7402,18.9272 401.8652,21.4272 401.8652,21.4272 402.8027,21.4272 402.8027,21.4272 403.4277,21.7397 403.4277,21.7397 403.7402,22.0522 403.7402,22.0522 404.0527,22.9897 404.0527,22.9897 404.0527,23.6147 404.0527,23.6147 403.7402,24.5522 403.7402,24.5522 403.1152,25.1772 403.1152,25.1772 402.1777,25.4897 402.1777,25.4897 401.2402,25.4897 401.2402,25.4897 400.3027,25.1772 400.3027,25.1772 399.9902,24.8647 399.9902,24.8647 399.6777,24.2397"/>
    <line x1="413.873" x2="413.873" y1="28.4055" y2="41.5305"/>
    <line x1="422.623" x2="422.623" y1="28.4055" y2="41.5305"/>
    <line x1="413.873" x2="422.623" y1="34.6555" y2="34.6555"/>
    <polygon points="472.4409,17.0079 472.4409,54.8031 472.4409,54.8031 510.2362,54.8031 510.2362,54.8031 510.2362,17.0079 510.2362,17.0079"/>
    <polyline points="478.3932,25.4897 478.3932,18.9272 478.3932,18.9272 475.2682,23.3022 475.2682,23.3022 479.9557,23.3022"/>
    <polyline points="489.4636,34.6555 495.0886,34.6555 495.0886,34.6555 496.9636,34.0305 496.9636,34.0305 497.5886,33.4055 497.5886,33.4055 498.2136,32.1555 498.2136,32.1555 498.2136,30.9055 498.2136,30.9055 497.5886,29.6555 497.5886,29.6555 496.9636,29.0305 496.9636,29.0305 495.0886,28.4055 495.0886,28.4055 489.4636,28.4055 489.4636,28.4055 489.4636,41.5305"/>
    <line x1="493.8386" x2="498.2136" y1="34.6555" y2="41.5305"/>
    <polyline points="661.4173,54.8031 661.4173,92.5984 661.4173,92.5984 699.2126,92.5984 699.2126,92.5984 699.2126,130.3937 699.2126,130.3937 661.4173,130.3937 661.4173,130.3937 623.622,130.3937 623.622,130.3937 623.622,92.5984 623.622,92.5984 623.622,54.8031 623.622,54.8031 661.4173,54.8031 661.4173,54.8031 661.4173,17.0079 661.4173,17.0079 623.622,17.0079 623.622,17.0079 623.622,54.8031 623.622,54.8031 585.8268,54.8031 585.8268,54.8031 548.0315,54.8031 548.0315,54.8031 510.2362,54.8031 510.2362,54.8031 510.2362,92.5984 510.2362,92.5984 548.0315,92.5984 548.0315,92.5984 548.0315,54.8031"/>
    <polyline points="630.1993,18.9272 627.0743,18.9272 627.0743,18.9272 626.7618,21.7397 626.7618,21.7397 627.0743,21.4272 627.0743,21.4272 628.0118,21.1147 628.0118,21.1147 628.9493,21.1147 628.9493,21.1147 629.8868,21.4272 629.8868,21.4272 630.5118,22.0522 630.5118,22.0522 630.8243,22.9897 630.8243,22.9897 630.8243,23.6147 630.8243,23.6147 630.5118,24.5522 630.5118,24.5522 629.8868,25.1772 629.8868,25.1772 628.9493,25.4897 628.9493,25.4897 628.0118,25.4897 628.0118,25.4897 627.0743,25.1772 627.0743,25.1772 626.7618,24.8647 626.7618,24.8647 626.4493,24.2397"/>
    <polyline points="638.1447,28.4055 643.1447,41.5305 643.1447,41.5305 648.1447,28.4055"/>
    <polygon points="737.0079,17.0079 737.0079,54.8031 737.0079,54.8031 774.8031,54.8031 774.8031,54.8031 774.8031,17.0079 774.8031,17.0079"/>
    <polyline points="743.8976,19.8647 743.5851,19.2397 743.5851,19.2397 742.6476,18.9272 742.6476,18.9272 742.0226,18.9272 742.0226,18.9272 741.0851,19.2397 741.0851,19.2397 740.4601,20.1772 740.4601,20.1772 740.1476,21.7397 740.1476,21.7397 740.1476,23.3022 740.1476,23.3022 740.4601,24.5522 740.4601,24.5522 741.0851,25.1772 741.0851,25.1772 742.0226,25.4897 742.0226,25.4897 742.3351,25.4897 742.3351,25.4897 743.2726,25.1772 743.2726,25.1772 743.8976,24.5522 743.8976,24.5522 744.2101,23.6147 744.2101,23.6147 744.2101,23.3022 744.2101,23.3022 743.8976,22.3647 743.8976,22.3647 743.2726,21.7397 743.2726,21.7397 742.3351,21.4272 742.3351,21.4272 742.0226,21.4272 742.0226,21.4272 741.0851,21.7397 741.0851,21.7397 740.4601,22.3647 740.4601,22.3647 740.1476,23.3022"/>
    <polyline points="754.0305,28.4055 754.0305,37.7805 754.0305,37.7805 754.6555,39.6555 754.6555,39.6555 755.9055,40.9055 755.9055,40.9055 757.7805,41.5305 757.7805,41.5305 759.0305,41.5305 759.0305,41.5305 760.9055,40.9055 760.9055,40.9055 762.1555,39.6555 762.1555,39.6555 762.7805,37.7805 762.7805,37.7805 762.7805,28.4055"/>
    <polygon points="56.6929,54.8031 56.6929,92.5984 56.6929,92.5984 94.4882,92.5984 94.4882,92.5984 94.4882,54.8031 94.4882,54.8031"/>
    <polyline points="59.5202,56.7224 63.8952,56.7224 63.8952,56.7224 60.7702,63.2849"/>
    <polyline points="71.2156,66.2008 76.2156,79.3258 76.2156,79.3258 81.2156,66.2008"/>
    <polyline points="195.5389,66.2008 187.4139,66.2008 187.4139,66.2008 187.4139,79.3258 187.4139,79.3258 195.5389,79.3258"/>
    <line x1="187.4139" x2="192.4139" y1="72.4508" y2="72.4508"/>
    <polygon points="321.2598,54.8031 321.2598,92.5984 321.2598,92.5984 359.0551,92.5984 359.0551,92.5984 396.8504,92.5984 396.8504,92.5984 434.6457,92.5984 434.6457,92.5984 434.6457,54.8031 434.6457,54.8031 472.4409,54.8031 472.4409,54.8031 472.4409,92.5984 472.4409,92.5984 472.4409,130.3937 472.4409,130.3937 472.4409,168.189 472.4409,168.189 510.2362,168.189 510.2362,168.189 510.2362,130.3937 510.2362,130.3937 510.2362,92.5984 510.2362,92.5984 472.4409,92.5984 472.4409,92.5984 434.6457,92.5984 434.6457,92.5984 434.6457,130.3937 434.6457,130.3937 396.8504,130.3937 396.8504,130.3937 359.0551,130.3937 359.0551,130.3937 321.2598,130.3937 321.2598,130.3937 321.2598,92.5984 321.2598,92.5984 283.4646,92.5984 283.4646,92.5984 283.4646,130.3937 283.4646,130.3937 321.2598,130.3937 321.2598,130.3937 321.2598,168.189 321.2598,168.189 359.0551,168.189 359.0551,168.189 396.8504,168.189 396.8504,168.189 396.8504,130.3937 396.8504,130.3937 396.8504,92.5984 396.8504,92.5984 396.8504,54.8031 396.8504,54.8031 359.0551,54.8031 359.0551,54.8031"/>
    <line x1="359.0551" x2="359.0551" y1="92.5984" y2="54.8031"/>
    <polygon points="325.6496,56.7224 324.7121,57.0349 324.7121,57.0349 324.3996,57.6599 324.3996,57.6599 324.3996,58.2849 324.3996,58.2849 324.7121,58.9099 324.7121,58.9099 325.3371,59.2224 325.3371,59.2224 326.5871,59.5349 326.5871,59.5349 327.5246,59.8474 327.5246,59.8474 328.1496,60.4724 328.1496,60.4724 328.4621,61.0974 328.4621,61.0974 328.4621,62.0349 328.4621,62.0349 328.1496,62.6599 328.1496,62.6599 327.8371,62.9724 327.8371,62.9724 326.8996,63.2849 326.8996,63.2849 325.6496,63.2849 325.6496,63.2849 324.7121,62.9724 324.7121,62.9724 324.3996,62.6599 324.3996,62.6599 324.0871,62.0349 324.0871,62.0349 324.0871,61.0974 324.0871,61.0974 324.3996,60.4724 324.3996,60.4724 325.0246,59.8474 325.0246,59.8474 325.9621,59.5349 325.9621,59.5349 327.2121,59.2224 327.2121,59.2224 327.8371,58.9099 327.8371,58.9099 328.1496,58.2849 328.1496,58.2849 328.1496,57.6599 328.1496,57.6599 327.8371,57.0349 327.8371,57.0349 326.8996,56.7224 326.8996,56.7224"/>
    <line x1="338.2825" x2="338.2825" y1="66.2008" y2="79.3258"/>
    <line x1="347.0325" x2="338.2825" y1="66.2008" y2="74.9508"/>
    <line x1="341.4075" x2="347.0325" y1="71.8258" y2="79.3258"/>
    <polyline points="376.7028,66.2008 376.7028,79.3258 376.7028,79.3258 384.2028,79.3258"/>
    <polyline points="421.373,79.3258 416.373,66.2008 416.373,66.2008 411.373,79.3258"/>
    <line x1="413.248" x2="419.498" y1="74.9508" y2="74.9508"/>
    <polyline points="449.1683,66.2008 454.1683,79.3258 454.1683,79.3258 459.1683,66.2008"/>
    <polyline points="497.9011,66.2008 489.7761,66.2008 489.7761,66.2008 489.7761,79.3258 489.7761,79.3258 497.9011,79.3258"/>
    <line x1="489.7761" x2="494.7761" y1="72.4508" y2="72.4508"/>
    <polyline points="527.2589,72.4508 532.8839,72.4508 532.8839,72.4508 534.7589,71.8258 534.7589,71.8258 535.3839,71.2008 535.3839,71.2008 536.0089,69.9508 536.0089,69.9508 536.0089,68.7008 536.0089,68.7008 535.3839,67.4508 535.3839,67.4508 534.7589,66.8258 534.7589,66.8258 532.8839,66.2008 532.8839,66.2008 527.2589,66.2008 527.2589,66.2008 527.2589,79.3258"/>
    <line x1="531.6339" x2="536.0089" y1="72.4508" y2="79.3258"/>
    <polyline points="548.0315,92.5984 585.8268,92.5984 585.8268,92.5984 585.8268,54.8031"/>
    <line x1="567.5541" x2="567.5541" y1="66.2008" y2="79.3258"/>
    <line x1="563.1791" x2="571.9291" y1="66.2008" y2="66.2008"/>
    <polyline points="585.8268,92.5984 623.622,92.5984 623.622,92.5984 661.4173,92.5984 661.4173,92.5984 661.4173,130.3937 661.4173,130.3937 661.4173,168.189 661.4173,168.189 661.4173,205.9843 661.4173,205.9843 661.4173,243.7795 661.4173,243.7795 623.622,243.7795 623.622,243.7795 623.622,205.9843 623.622,205.9843 661.4173,205.9843"/>
    <polyline points="609.0994,66.2008 609.0994,76.2008 609.0994,76.2008 608.4744,78.0758 608.4744,78.0758 607.8494,78.7008 607.8494,78.7008 606.5994,79.3258 606.5994,79.3258 605.3494,79.3258 605.3494,79.3258 604.0994,78.7008 604.0994,78.7008 603.4744,78.0758 603.4744,78.0758 602.8494,76.2008 602.8494,76.2008 602.8494,74.9508"/>
    <polyline points="649.0822,66.2008 640.9572,66.2008 640.9572,66.2008 640.9572,79.3258 640.9572,79.3258 649.0822,79.3258"/>
    <line x1="640.9572" x2="645.9572" y1="72.4508" y2="72.4508"/>
    <polyline points="737.0079,54.8031 737.0079,92.5984 737.0079,92.5984 699.2126,92.5984"/>
    <polyline points="774.8031,92.5984 774.8031,130.3937 774.8031,130.3937 774.8031,168.189 774.8031,168.189 737.0079,168.189 737.0079,168.189 737.0079,130.3937 737.0079,130.3937 737.0079,92.5984 737.0079,92.5984 774.8031,92.5984 774.8031,92.5984 774.8031,54.8031"/>
    <line x1="758.4055" x2="758.4055" y1="66.2008" y2="79.3258"/>
    <polyline points="56.6929,92.5984 56.6929,130.3937 56.6929,130.3937 94.4882,130.3937 94.4882,130.3937 94.4882,92.5984"/>
    <polyline points="73.7156,110.2461 79.3406,110.2461 79.3406,110.2461 81.2156,109.6211 81.2156,109.6211 81.8406,108.9961 81.8406,108.9961 82.4656,107.7461 82.4656,107.7461 82.4656,106.4961 82.4656,106.4961 81.8406,105.2461 81.8406,105.2461 81.2156,104.6211 81.2156,104.6211 79.3406,103.9961 79.3406,103.9961 73.7156,103.9961 73.7156,103.9961 73.7156,117.1211"/>
    <line x1="78.0906" x2="82.4656" y1="110.2461" y2="117.1211"/>
    <polyline points="170.0787,92.5984 170.0787,130.3937 170.0787,130.3937 132.2835,130.3937 132.2835,130.3937 94.4882,130.3937 94.4882,130.3937 94.4882,168.189 94.4882,168.189 132.2835,168.189 132.2835,168.189 170.0787,168.189 170.0787,168.189 207.874,168.189 207.874,168.189 245.6693,168.189 245.6693,168.189 245.6693,130.3937 245.6693,130.3937 207.874,130.3937 207.874,130.3937 207.874,92.5984"/>
    <polyline points="170.0787,205.9843 170.0787,168.189 170.0787,168.189 170.0787,130.3937 170.0787,130.3937 207.874,130.3937 207.874,130.3937 207.874,168.189 207.874,168.189 207.874,205.9843 207.874,205.9843 170.0787,205.9843 170.0787,205.9843 170.0787,243.7795 170.0787,243.7795 207.874,243.7795 207.874,243.7795 207.874,205.9843"/>
    <polyline points="195.5389,107.1211 194.9139,105.8711 194.9139,105.8711 193.6639,104.6211 193.6639,104.6211 192.4139,103.9961 192.4139,103.9961 189.9139,103.9961 189.9139,103.9961 188.6639,104.6211 188.6639,104.6211 187.4139,105.8711 187.4139,105.8711 186.7889,107.1211 186.7889,107.1211 186.1639,108.9961 186.1639,108.9961 186.1639,112.1211 186.1639,112.1211 186.7889,113.9961 186.7889,113.9961 187.4139,115.2461 187.4139,115.2461 188.6639,116.4961 188.6639,116.4961 189.9139,117.1211 189.9139,117.1211 192.4139,117.1211 192.4139,117.1211 193.6639,116.4961 193.6639,116.4961 194.9139,115.2461 194.9139,115.2461 195.5389,113.9961 195.5389,113.9961 195.5389,112.1211 195.5389,112.1211 192.4139,112.1211"/>
    <polyline points="290.3543,96.7052 290.0418,97.6427 290.0418,97.6427 289.4168,98.2677 289.4168,98.2677 288.4793,98.5802 288.4793,98.5802 288.1668,98.5802 288.1668,98.5802 287.2293,98.2677 287.2293,98.2677 286.6043,97.6427 286.6043,97.6427 286.2918,96.7052 286.2918,96.7052 286.2918,96.3927 286.2918,96.3927 286.6043,95.4552 286.6043,95.4552 287.2293,94.8302 287.2293,94.8302 288.1668,94.5177 288.1668,94.5177 288.4793,94.5177 288.4793,94.5177 289.4168,94.8302 289.4168,94.8302 290.0418,95.4552 290.0418,95.4552 290.3543,96.7052 290.3543,96.7052 290.3543,98.2677 290.3543,98.2677 290.0418,99.8302 290.0418,99.8302 289.4168,100.7677 289.4168,100.7677 288.4793,101.0802 288.4793,101.0802 287.8543,101.0802 287.8543,101.0802 286.9168,100.7677 286.9168,100.7677 286.6043,100.1427"/>
    <polyline points="308.6122,105.8711 307.3622,104.6211 307.3622,104.6211 305.4872,103.9961 305.4872,103.9961 302.9872,103.9961 302.9872,103.9961 301.1122,104.6211 301.1122,104.6211 299.8622,105.8711 299.8622,105.8711 299.8622,107.1211 299.8622,107.1211 300.4872,108.3711 300.4872,108.3711 301.1122,108.9961 301.1122,108.9961 302.3622,109.6211 302.3622,109.6211 306.1122,110.8711 306.1122,110.8711 307.3622,111.4961 307.3622,111.4961 307.9872,112.1211 307.9872,112.1211 308.6122,113.3711 308.6122,113.3711 308.6122,115.2461 308.6122,115.2461 307.3622,116.4961 307.3622,116.4961 305.4872,117.1211 305.4872,117.1211 302.9872,117.1211 302.9872,117.1211 301.1122,116.4961 301.1122,116.4961 299.8622,115.2461"/>
    <polyline points="422.623,103.9961 422.623,117.1211 422.623,117.1211 413.873,103.9961 413.873,103.9961 413.873,117.1211"/>
    <line x1="472.4409" x2="510.2362" y1="130.3937" y2="130.3937"/>
    <polyline points="497.5886,105.8711 496.3386,104.6211 496.3386,104.6211 494.4636,103.9961 494.4636,103.9961 491.9636,103.9961 491.9636,103.9961 490.0886,104.6211 490.0886,104.6211 488.8386,105.8711 488.8386,105.8711 488.8386,107.1211 488.8386,107.1211 489.4636,108.3711 489.4636,108.3711 490.0886,108.9961 490.0886,108.9961 491.3386,109.6211 491.3386,109.6211 495.0886,110.8711 495.0886,110.8711 496.3386,111.4961 496.3386,111.4961 496.9636,112.1211 496.9636,112.1211 497.5886,113.3711 497.5886,113.3711 497.5886,115.2461 497.5886,115.2461 496.3386,116.4961 496.3386,116.4961 494.4636,117.1211 494.4636,117.1211 491.9636,117.1211 491.9636,117.1211 490.0886,116.4961 490.0886,116.4961 488.8386,115.2461"/>
    <polyline points="627.3868,95.7677 628.0118,95.4552 628.0118,95.4552 628.9493,94.5177 628.9493,94.5177 628.9493,101.0802"/>
    <polygon points="634.5743,94.5177 633.6368,94.8302 633.6368,94.8302 633.0118,95.7677 633.0118,95.7677 632.6993,97.3302 632.6993,97.3302 632.6993,98.2677 632.6993,98.2677 633.0118,99.8302 633.0118,99.8302 633.6368,100.7677 633.6368,100.7677 634.5743,101.0802 634.5743,101.0802 635.1993,101.0802 635.1993,101.0802 636.1368,100.7677 636.1368,100.7677 636.7618,99.8302 636.7618,99.8302 637.0743,98.2677 637.0743,98.2677 637.0743,97.3302 637.0743,97.3302 636.7618,95.7677 636.7618,95.7677 636.1368,94.8302 636.1368,94.8302 635.1993,94.5177 635.1993,94.5177"/>
    <polyline points="641.2697,103.9961 641.2697,117.1211 641.2697,117.1211 648.7697,117.1211"/>
    <line x1="682.815" x2="682.815" y1="103.9961" y2="117.1211"/>
    <polyline points="699.2126,130.3937 737.0079,130.3937 737.0079,130.3937 774.8031,130.3937"/>
    <polyline points="724.6727,103.9961 716.5477,103.9961 716.5477,103.9961 716.5477,117.1211"/>
    <line x1="716.5477" x2="721.5477" y1="110.2461" y2="110.2461"/>
    <line x1="756.5305" x2="756.5305" y1="103.9961" y2="117.1211"/>
    <line x1="752.1555" x2="760.9055" y1="103.9961" y2="103.9961"/>
    <polygon points="18.8976,130.3937 18.8976,168.189 18.8976,168.189 56.6929,168.189 56.6929,168.189 56.6929,205.9843 56.6929,205.9843 94.4882,205.9843 94.4882,205.9843 94.4882,168.189 94.4882,168.189 56.6929,168.189 56.6929,168.189 56.6929,130.3937 56.6929,130.3937"/>
    <polyline points="22.6624,133.563 23.2874,133.2505 23.2874,133.2505 24.2249,132.313 24.2249,132.313 24.2249,138.8755"/>
    <polyline points="28.9124,133.563 29.5374,133.2505 29.5374,133.2505 30.4749,132.313 30.4749,132.313 30.4749,138.8755"/>
    <polyline points="45.2953,154.9163 45.2953,141.7913 45.2953,141.7913 40.2953,154.9163 40.2953,154.9163 35.2953,141.7913 35.2953,141.7913 35.2953,154.9163"/>
    <line x1="78.0906" x2="78.0906" y1="141.7913" y2="154.9163"/>
    <line x1="132.2835" x2="132.2835" y1="168.189" y2="130.3937"/>
    <polyline points="119.6358,143.6663 118.3858,142.4163 118.3858,142.4163 116.5108,141.7913 116.5108,141.7913 114.0108,141.7913 114.0108,141.7913 112.1358,142.4163 112.1358,142.4163 110.8858,143.6663 110.8858,143.6663 110.8858,144.9163 110.8858,144.9163 111.5108,146.1663 111.5108,146.1663 112.1358,146.7913 112.1358,146.7913 113.3858,147.4163 113.3858,147.4163 117.1358,148.6663 117.1358,148.6663 118.3858,149.2913 118.3858,149.2913 119.0108,149.9163 119.0108,149.9163 119.6358,151.1663 119.6358,151.1663 119.6358,153.0413 119.6358,153.0413 118.3858,154.2913 118.3858,154.2913 116.5108,154.9163 116.5108,154.9163 114.0108,154.9163 114.0108,154.9163 112.1358,154.2913 112.1358,154.2913 110.8858,153.0413"/>
    <polyline points="146.8061,141.7913 151.8061,154.9163 151.8061,154.9163 156.8061,141.7913"/>
    <polyline points="195.5389,141.7913 187.4139,141.7913 187.4139,141.7913 187.4139,154.9163 187.4139,154.9163 195.5389,154.9163"/>
    <line x1="187.4139" x2="192.4139" y1="148.0413" y2="148.0413"/>
    <polyline points="224.8967,148.0413 230.5217,148.0413 230.5217,148.0413 232.3967,147.4163 232.3967,147.4163 233.0217,146.7913 233.0217,146.7913 233.6467,145.5413 233.6467,145.5413 233.6467,144.2913 233.6467,144.2913 233.0217,143.0413 233.0217,143.0413 232.3967,142.4163 232.3967,142.4163 230.5217,141.7913 230.5217,141.7913 224.8967,141.7913 224.8967,141.7913 224.8967,154.9163"/>
    <line x1="229.2717" x2="233.6467" y1="148.0413" y2="154.9163"/>
    <polyline points="245.6693,168.189 283.4646,168.189 283.4646,168.189 321.2598,168.189 321.2598,168.189 321.2598,205.9843 321.2598,205.9843 321.2598,243.7795 321.2598,243.7795 283.4646,243.7795 283.4646,243.7795 283.4646,205.9843 283.4646,205.9843 321.2598,205.9843"/>
    <polyline points="283.4646,205.9843 283.4646,168.189 283.4646,168.189 283.4646,130.3937 283.4646,130.3937 245.6693,130.3937"/>
    <polyline points="270.8169,143.6663 269.5669,142.4163 269.5669,142.4163 267.6919,141.7913 267.6919,141.7913 265.1919,141.7913 265.1919,141.7913 263.3169,142.4163 263.3169,142.4163 262.0669,143.6663 262.0669,143.6663 262.0669,144.9163 262.0669,144.9163 262.6919,146.1663 262.6919,146.1663 263.3169,146.7913 263.3169,146.7913 264.5669,147.4163 264.5669,147.4163 268.3169,148.6663 268.3169,148.6663 269.5669,149.2913 269.5669,149.2913 270.1919,149.9163 270.1919,149.9163 270.8169,151.1663 270.8169,151.1663 270.8169,153.0413 270.8169,153.0413 269.5669,154.2913 269.5669,154.2913 267.6919,154.9163 267.6919,154.9163 265.1919,154.9163 265.1919,154.9163 263.3169,154.2913 263.3169,154.2913 262.0669,153.0413"/>
    <line x1="302.9872" x2="302.9872" y1="141.7913" y2="154.9163"/>
    <line x1="298.6122" x2="307.3622" y1="141.7913" y2="141.7913"/>
    <line x1="359.0551" x2="359.0551" y1="168.189" y2="130.3937"/>
    <polyline points="345.7825,154.9163 340.7825,141.7913 340.7825,141.7913 335.7825,154.9163"/>
    <line x1="337.6575" x2="343.9075" y1="150.5413" y2="150.5413"/>
    <polyline points="384.8278,141.7913 384.8278,154.9163 384.8278,154.9163 376.0778,141.7913 376.0778,141.7913 376.0778,154.9163"/>
    <polyline points="434.6457,168.189 434.6457,205.9843 434.6457,205.9843 396.8504,205.9843 396.8504,205.9843 396.8504,168.189 396.8504,168.189 434.6457,168.189 434.6457,168.189 434.6457,130.3937"/>
    <polygon points="413.873,141.7913 413.873,154.9163 413.873,154.9163 418.248,154.9163 418.248,154.9163 420.123,154.2913 420.123,154.2913 421.373,153.0413 421.373,153.0413 421.998,151.7913 421.998,151.7913 422.623,149.9163 422.623,149.9163 422.623,146.7913 422.623,146.7913 421.998,144.9163 421.998,144.9163 421.373,143.6663 421.373,143.6663 420.123,142.4163 420.123,142.4163 418.248,141.7913 418.248,141.7913"/>
    <line x1="491.9636" x2="491.9636" y1="141.7913" y2="154.9163"/>
    <line x1="487.5886" x2="496.3386" y1="141.7913" y2="141.7913"/>
    <polygon points="548.0315,130.3937 548.0315,168.189 548.0315,168.189 585.8268,168.189 585.8268,168.189 585.8268,130.3937 585.8268,130.3937"/>
    <polyline points="551.7963,133.563 552.4213,133.2505 552.4213,133.2505 553.3588,132.313 553.3588,132.313 553.3588,138.8755"/>
    <polyline points="557.4213,133.8755 557.4213,133.563 557.4213,133.563 557.7338,132.938 557.7338,132.938 558.0463,132.6255 558.0463,132.6255 558.6713,132.313 558.6713,132.313 559.9213,132.313 559.9213,132.313 560.5463,132.6255 560.5463,132.6255 560.8588,132.938 560.8588,132.938 561.1713,133.563 561.1713,133.563 561.1713,134.188 561.1713,134.188 560.8588,134.813 560.8588,134.813 560.2338,135.7505 560.2338,135.7505 557.1088,138.8755 557.1088,138.8755 561.4838,138.8755"/>
    <line x1="565.0541" x2="565.0541" y1="141.7913" y2="154.9163"/>
    <line x1="573.8041" x2="565.0541" y1="141.7913" y2="150.5413"/>
    <line x1="568.1791" x2="573.8041" y1="147.4163" y2="154.9163"/>
    <polyline points="623.622,130.3937 623.622,168.189 623.622,168.189 623.622,205.9843"/>
    <line x1="623.622" x2="661.4173" y1="168.189" y2="168.189"/>
    <polyline points="641.2697,141.7913 641.2697,154.9163 641.2697,154.9163 648.7697,154.9163"/>
    <polyline points="754.6555,141.7913 754.6555,154.9163 754.6555,154.9163 762.1555,154.9163"/>
    <polyline points="79.9656,179.5866 79.9656,189.5866 79.9656,189.5866 79.3406,191.4616 79.3406,191.4616 78.7156,192.0866 78.7156,192.0866 77.4656,192.7116 77.4656,192.7116 76.2156,192.7116 76.2156,192.7116 74.9656,192.0866 74.9656,192.0866 74.3406,191.4616 74.3406,191.4616 73.7156,189.5866 73.7156,189.5866 73.7156,188.3366"/>
    <polyline points="195.8514,179.5866 195.8514,192.7116 195.8514,192.7116 187.1014,179.5866 187.1014,179.5866 187.1014,192.7116"/>
    <polyline points="308.9247,179.5866 300.7997,179.5866 300.7997,179.5866 300.7997,192.7116 300.7997,192.7116 308.9247,192.7116"/>
    <line x1="300.7997" x2="305.7997" y1="185.8366" y2="185.8366"/>
    <polygon points="413.873,179.5866 413.873,192.7116 413.873,192.7116 418.248,192.7116 418.248,192.7116 420.123,192.0866 420.123,192.0866 421.373,190.8366 421.373,190.8366 421.998,189.5866 421.998,189.5866 422.623,187.7116 422.623,187.7116 422.623,184.5866 422.623,184.5866 421.998,182.7116 421.998,182.7116 421.373,181.4616 421.373,181.4616 420.123,180.2116 420.123,180.2116 418.248,179.5866 418.248,179.5866"/>
    <polyline points="472.4409,168.189 472.4409,205.9843 472.4409,205.9843 510.2362,205.9843 510.2362,205.9843 510.2362,168.189"/>
    <polyline points="495.7136,179.5866 495.7136,189.5866 495.7136,189.5866 495.0886,191.4616 495.0886,191.4616 494.4636,192.0866 494.4636,192.0866 493.2136,192.7116 493.2136,192.7116 491.9636,192.7116 491.9636,192.7116 490.7136,192.0866 490.7136,192.0866 490.0886,191.4616 490.0886,191.4616 489.4636,189.5866 489.4636,189.5866 489.4636,188.3366"/>
    <polyline points="548.0315,168.189 548.0315,205.9843 548.0315,205.9843 585.8268,205.9843 585.8268,205.9843 585.8268,168.189"/>
    <polygon points="567.5541,179.5866 566.3041,180.2116 566.3041,180.2116 565.0541,181.4616 565.0541,181.4616 564.4291,182.7116 564.4291,182.7116 563.8041,184.5866 563.8041,184.5866 563.8041,187.7116 563.8041,187.7116 564.4291,189.5866 564.4291,189.5866 565.0541,190.8366 565.0541,190.8366 566.3041,192.0866 566.3041,192.0866 567.5541,192.7116 567.5541,192.7116 570.0541,192.7116 570.0541,192.7116 571.3041,192.0866 571.3041,192.0866 572.5541,190.8366 572.5541,190.8366 573.1791,189.5866 573.1791,189.5866 573.8041,187.7116 573.8041,187.7116 573.8041,184.5866 573.8041,184.5866 573.1791,182.7116 573.1791,182.7116 572.5541,181.4616 572.5541,181.4616 571.3041,180.2116 571.3041,180.2116 570.0541,179.5866 570.0541,179.5866"/>
    <polyline points="649.0822,179.5866 640.9572,179.5866 640.9572,179.5866 640.9572,192.7116 640.9572,192.7116 649.0822,192.7116"/>
    <line x1="640.9572" x2="645.9572" y1="185.8366" y2="185.8366"/>
    <polyline points="737.0079,168.189 737.0079,205.9843 737.0079,205.9843 737.0079,243.7795 737.0079,243.7795 774.8031,243.7795 774.8031,243.7795 774.8031,205.9843 774.8031,205.9843 774.8031,168.189"/>
    <line x1="737.0079" x2="774.8031" y1="205.9843" y2="205.9843"/>
    <line x1="758.4055" x2="758.4055" y1="179.5866" y2="192.7116"/>
    <polyline points="56.6929,205.9843 56.6929,243.7795 56.6929,243.7795 94.4882,243.7795 94.4882,243.7795 94.4882,205.9843"/>
    <polygon points="73.7156,217.3819 73.7156,230.5069 73.7156,230.5069 78.0906,230.5069 78.0906,230.5069 79.9656,229.8819 79.9656,229.8819 81.2156,228.6319 81.2156,228.6319 81.8406,227.3819 81.8406,227.3819 82.4656,225.5069 82.4656,225.5069 82.4656,222.3819 82.4656,222.3819 81.8406,220.5069 81.8406,220.5069 81.2156,219.2569 81.2156,219.2569 79.9656,218.0069 79.9656,218.0069 78.0906,217.3819 78.0906,217.3819"/>
    <polygon points="187.1014,217.3819 187.1014,230.5069 187.1014,230.5069 192.7264,230.5069 192.7264,230.5069 194.6014,229.8819 194.6014,229.8819 195.2264,229.2569 195.2264,229.2569 195.8514,228.0069 195.8514,228.0069 195.8514,226.1319 195.8514,226.1319 195.2264,224.8819 195.2264,224.8819 194.6014,224.2569 194.6014,224.2569 192.7264,223.6319 192.7264,223.6319 194.6014,223.0069 194.6014,223.0069 195.2264,222.3819 195.2264,222.3819 195.8514,221.1319 195.8514,221.1319 195.8514,219.8819 195.8514,219.8819 195.2264,218.6319 195.2264,218.6319 194.6014,218.0069 194.6014,218.0069 192.7264,217.3819 192.7264,217.3819"/>
    <line x1="187.1014" x2="192.7264" y1="223.6319" y2="223.6319"/>
    <polyline points="300.4872,223.6319 306.1122,223.6319 306.1122,223.6319 307.9872,223.0069 307.9872,223.0069 308.6122,222.3819 308.6122,222.3819 309.2372,221.1319 309.2372,221.1319 309.2372,219.8819 309.2372,219.8819 308.6122,218.6319 308.6122,218.6319 307.9872,218.0069 307.9872,218.0069 306.1122,217.3819 306.1122,217.3819 300.4872,217.3819 300.4872,217.3819 300.4872,230.5069"/>
    <line x1="304.8622" x2="309.2372" y1="223.6319" y2="230.5069"/>
    <polyline points="396.8504,205.9843 396.8504,243.7795 396.8504,243.7795 434.6457,243.7795 434.6457,243.7795 434.6457,205.9843"/>
    <polygon points="416.373,217.3819 415.123,218.0069 415.123,218.0069 413.873,219.2569 413.873,219.2569 413.248,220.5069 413.248,220.5069 412.623,222.3819 412.623,222.3819 412.623,225.5069 412.623,225.5069 413.248,227.3819 413.248,227.3819 413.873,228.6319 413.873,228.6319 415.123,229.8819 415.123,229.8819 416.373,230.5069 416.373,230.5069 418.873,230.5069 418.873,230.5069 420.123,229.8819 420.123,229.8819 421.373,228.6319 421.373,228.6319 421.998,227.3819 421.998,227.3819 422.623,225.5069 422.623,225.5069 422.623,222.3819 422.623,222.3819 421.998,220.5069 421.998,220.5069 421.373,219.2569 421.373,219.2569 420.123,218.0069 420.123,218.0069 418.873,217.3819 418.873,217.3819"/>
    <polyline points="472.4409,205.9843 472.4409,243.7795 472.4409,243.7795 510.2362,243.7795 510.2362,243.7795 510.2362,205.9843"/>
    <polyline points="497.9011,217.3819 489.7761,217.3819 489.7761,217.3819 489.7761,230.5069 489.7761,230.5069 497.9011,230.5069"/>
    <line x1="489.7761" x2="494.7761" y1="223.6319" y2="223.6319"/>
    <polyline points="548.0315,205.9843 548.0315,243.7795 548.0315,243.7795 585.8268,243.7795 585.8268,243.7795 585.8268,205.9843"/>
    <polyline points="573.4916,217.3819 565.3666,217.3819 565.3666,217.3819 565.3666,230.5069 565.3666,230.5069 573.4916,230.5069"/>
    <line x1="565.3666" x2="570.3666" y1="223.6319" y2="223.6319"/>
    <line x1="640.6447" x2="640.6447" y1="217.3819" y2="230.5069"/>
    <line x1="649.3947" x2="640.6447" y1="217.3819" y2="226.1319"/>
    <line x1="643.7697" x2="649.3947" y1="223.0069" y2="230.5069"/>
    <line x1="754.0305" x2="754.0305" y1="217.3819" y2="230.5069"/>
    <line x1="762.7805" x2="754.0305" y1="217.3819" y2="226.1319"/>
    <line x1="757.1555" x2="762.7805" y1="223.0069" y2="230.5069"/>
    <polyline points="132.2835,281.5748 94.4882,281.5748 94.4882,281.5748 56.6929,281.5748 56.6929,281.5748 56.6929,243.7795 56.6929,243.7795 18.8976,243.7795 18.8976,243.7795 18.8976,281.5748 18.8976,281.5748 56.6929,281.5748 56.6929,281.5748 56.6929,319.3701 56.6929,319.3701 94.4882,319.3701 94.4882,319.3701 94.4882,357.1654 94.4882,357.1654 132.2835,357.1654 132.2835,357.1654 132.2835,319.3701 132.2835,319.3701 94.4882,319.3701 94.4882,319.3701 94.4882,281.5748 94.4882,281.5748 94.4882,243.7795 94.4882,243.7795 132.2835,243.7795 132.2835,243.7795 132.2835,281.5748 132.2835,281.5748 170.0787,281.5748 170.0787,281.5748 170.0787,243.7795 170.0787,243.7795 132.2835,243.7795"/>
    <polyline points="22.6624,246.9488 23.2874,246.6363 23.2874,246.6363 24.2249,245.6988 24.2249,245.6988 24.2249,252.2613"/>
    <polyline points="28.5999,245.6988 32.0374,245.6988 32.0374,245.6988 30.1624,248.1988 30.1624,248.1988 31.0999,248.1988 31.0999,248.1988 31.7249,248.5113 31.7249,248.5113 32.0374,248.8238 32.0374,248.8238 32.3499,249.7613 32.3499,249.7613 32.3499,250.3863 32.3499,250.3863 32.0374,251.3238 32.0374,251.3238 31.4124,251.9488 31.4124,251.9488 30.4749,252.2613 30.4749,252.2613 29.5374,252.2613 29.5374,252.2613 28.5999,251.9488 28.5999,251.9488 28.2874,251.6363 28.2874,251.6363 27.9749,251.0113"/>
    <polyline points="35.9203,261.4272 41.5453,261.4272 41.5453,261.4272 43.4203,260.8022 43.4203,260.8022 44.0453,260.1772 44.0453,260.1772 44.6703,258.9272 44.6703,258.9272 44.6703,257.6772 44.6703,257.6772 44.0453,256.4272 44.0453,256.4272 43.4203,255.8022 43.4203,255.8022 41.5453,255.1772 41.5453,255.1772 35.9203,255.1772 35.9203,255.1772 35.9203,268.3022"/>
    <line x1="40.2953" x2="44.6703" y1="261.4272" y2="268.3022"/>
    <polyline points="81.2156,268.3022 76.2156,255.1772 76.2156,255.1772 71.2156,268.3022"/>
    <line x1="73.0906" x2="79.3406" y1="263.9272" y2="263.9272"/>
    <polygon points="111.5108,255.1772 111.5108,268.3022 111.5108,268.3022 115.8858,268.3022 115.8858,268.3022 117.7608,267.6772 117.7608,267.6772 119.0108,266.4272 119.0108,266.4272 119.6358,265.1772 119.6358,265.1772 120.2608,263.3022 120.2608,263.3022 120.2608,260.1772 120.2608,260.1772 119.6358,258.3022 119.6358,258.3022 119.0108,257.0522 119.0108,257.0522 117.7608,255.8022 117.7608,255.8022 115.8858,255.1772 115.8858,255.1772"/>
    <line x1="153.6811" x2="153.6811" y1="255.1772" y2="268.3022"/>
    <polyline points="207.874,281.5748 207.874,319.3701 207.874,319.3701 170.0787,319.3701 170.0787,319.3701 170.0787,281.5748 170.0787,281.5748 207.874,281.5748 207.874,281.5748 207.874,243.7795"/>
    <polygon points="189.6014,255.1772 188.3514,255.8022 188.3514,255.8022 187.1014,257.0522 187.1014,257.0522 186.4764,258.3022 186.4764,258.3022 185.8514,260.1772 185.8514,260.1772 185.8514,263.3022 185.8514,263.3022 186.4764,265.1772 186.4764,265.1772 187.1014,266.4272 187.1014,266.4272 188.3514,267.6772 188.3514,267.6772 189.6014,268.3022 189.6014,268.3022 192.1014,268.3022 192.1014,268.3022 193.3514,267.6772 193.3514,267.6772 194.6014,266.4272 194.6014,266.4272 195.2264,265.1772 195.2264,265.1772 195.8514,263.3022 195.8514,263.3022 195.8514,260.1772 195.8514,260.1772 195.2264,258.3022 195.2264,258.3022 194.6014,257.0522 194.6014,257.0522 193.3514,255.8022 193.3514,255.8022 192.1014,255.1772 192.1014,255.1772"/>
    <polygon points="245.6693,243.7795 245.6693,281.5748 245.6693,281.5748 283.4646,281.5748 283.4646,281.5748 283.4646,243.7795 283.4646,243.7795"/>
    <polyline points="249.4341,246.9488 250.0591,246.6363 250.0591,246.6363 250.9966,245.6988 250.9966,245.6988 250.9966,252.2613"/>
    <polyline points="257.8716,252.2613 257.8716,245.6988 257.8716,245.6988 254.7466,250.0738 254.7466,250.0738 259.4341,250.0738"/>
    <polyline points="262.0669,255.1772 270.8169,255.1772 270.8169,255.1772 262.0669,268.3022 262.0669,268.3022 270.8169,268.3022"/>
    <polygon points="321.2598,243.7795 321.2598,281.5748 321.2598,281.5748 359.0551,281.5748 359.0551,281.5748 359.0551,243.7795 359.0551,243.7795"/>
    <polyline points="325.0246,246.9488 325.6496,246.6363 325.6496,246.6363 326.5871,245.6988 326.5871,245.6988 326.5871,252.2613"/>
    <polyline points="334.0871,245.6988 330.9621,245.6988 330.9621,245.6988 330.6496,248.5113 330.6496,248.5113 330.9621,248.1988 330.9621,248.1988 331.8996,247.8863 331.8996,247.8863 332.8371,247.8863 332.8371,247.8863 333.7746,248.1988 333.7746,248.1988 334.3996,248.8238 334.3996,248.8238 334.7121,249.7613 334.7121,249.7613 334.7121,250.3863 334.7121,250.3863 334.3996,251.3238 334.3996,251.3238 333.7746,251.9488 333.7746,251.9488 332.8371,252.2613 332.8371,252.2613 331.8996,252.2613 331.8996,252.2613 330.9621,251.9488 330.9621,251.9488 330.6496,251.6363 330.6496,251.6363 330.3371,251.0113"/>
    <polyline points="346.72,255.1772 338.595,255.1772 338.595,255.1772 338.595,268.3022"/>
    <line x1="338.595" x2="343.595" y1="261.4272" y2="261.4272"/>
    <polyline points="359.0551,281.5748 396.8504,281.5748 396.8504,281.5748 396.8504,243.7795 396.8504,243.7795 359.0551,243.7795"/>
    <polyline points="376.7028,255.1772 376.7028,268.3022 376.7028,268.3022 384.2028,268.3022"/>
    <polyline points="472.4409,281.5748 434.6457,281.5748 434.6457,281.5748 434.6457,319.3701 434.6457,319.3701 396.8504,319.3701 396.8504,319.3701 396.8504,281.5748 396.8504,281.5748 434.6457,281.5748 434.6457,281.5748 434.6457,243.7795 434.6457,243.7795 472.4409,243.7795 472.4409,243.7795 472.4409,281.5748 472.4409,281.5748 510.2362,281.5748 510.2362,281.5748 510.2362,243.7795 510.2362,243.7795 548.0315,243.7795 548.0315,243.7795 548.0315,281.5748 548.0315,281.5748 585.8268,281.5748 585.8268,281.5748 585.8268,243.7795 585.8268,243.7795 623.622,243.7795 623.622,243.7795 623.622,281.5748 623.622,281.5748 661.4173,281.5748 661.4173,281.5748 661.4173,243.7795 661.4173,243.7795 699.2126,243.7795 699.2126,243.7795 699.2126,281.5748 699.2126,281.5748 661.4173,281.5748"/>
    <polyline points="422.3105,255.1772 414.1855,255.1772 414.1855,255.1772 414.1855,268.3022 414.1855,268.3022 422.3105,268.3022"/>
    <line x1="414.1855" x2="419.1855" y1="261.4272" y2="261.4272"/>
    <polyline points="459.7933,257.0522 458.5433,255.8022 458.5433,255.8022 456.6683,255.1772 456.6683,255.1772 454.1683,255.1772 454.1683,255.1772 452.2933,255.8022 452.2933,255.8022 451.0433,257.0522 451.0433,257.0522 451.0433,258.3022 451.0433,258.3022 451.6683,259.5522 451.6683,259.5522 452.2933,260.1772 452.2933,260.1772 453.5433,260.8022 453.5433,260.8022 457.2933,262.0522 457.2933,262.0522 458.5433,262.6772 458.5433,262.6772 459.1683,263.3022 459.1683,263.3022 459.7933,264.5522 459.7933,264.5522 459.7933,266.4272 459.7933,266.4272 458.5433,267.6772 458.5433,267.6772 456.6683,268.3022 456.6683,268.3022 454.1683,268.3022 454.1683,268.3022 452.2933,267.6772 452.2933,267.6772 451.0433,266.4272"/>
    <polyline points="497.5886,257.0522 496.3386,255.8022 496.3386,255.8022 494.4636,255.1772 494.4636,255.1772 491.9636,255.1772 491.9636,255.1772 490.0886,255.8022 490.0886,255.8022 488.8386,257.0522 488.8386,257.0522 488.8386,258.3022 488.8386,258.3022 489.4636,259.5522 489.4636,259.5522 490.0886,260.1772 490.0886,260.1772 491.3386,260.8022 491.3386,260.8022 495.0886,262.0522 495.0886,262.0522 496.3386,262.6772 496.3386,262.6772 496.9636,263.3022 496.9636,263.3022 497.5886,264.5522 497.5886,264.5522 497.5886,266.4272 497.5886,266.4272 496.3386,267.6772 496.3386,267.6772 494.4636,268.3022 494.4636,268.3022 491.9636,268.3022 491.9636,268.3022 490.0886,267.6772 490.0886,267.6772 488.8386,266.4272"/>
    <line x1="510.2362" x2="548.0315" y1="281.5748" y2="281.5748"/>
    <polyline points="535.6964,255.1772 527.5714,255.1772 527.5714,255.1772 527.5714,268.3022 527.5714,268.3022 535.6964,268.3022"/>
    <line x1="527.5714" x2="532.5714" y1="261.4272" y2="261.4272"/>
    <polyline points="573.8041,255.1772 573.8041,268.3022 573.8041,268.3022 565.0541,255.1772 565.0541,255.1772 565.0541,268.3022"/>
    <line x1="585.8268" x2="623.622" y1="281.5748" y2="281.5748"/>
    <polyline points="611.2869,258.3022 610.6619,257.0522 610.6619,257.0522 609.4119,255.8022 609.4119,255.8022 608.1619,255.1772 608.1619,255.1772 605.6619,255.1772 605.6619,255.1772 604.4119,255.8022 604.4119,255.8022 603.1619,257.0522 603.1619,257.0522 602.5369,258.3022 602.5369,258.3022 601.9119,260.1772 601.9119,260.1772 601.9119,263.3022 601.9119,263.3022 602.5369,265.1772 602.5369,265.1772 603.1619,266.4272 603.1619,266.4272 604.4119,267.6772 604.4119,267.6772 605.6619,268.3022 605.6619,268.3022 608.1619,268.3022 608.1619,268.3022 609.4119,267.6772 609.4119,267.6772 610.6619,266.4272 610.6619,266.4272 611.2869,265.1772 611.2869,265.1772 611.2869,263.3022 611.2869,263.3022 608.1619,263.3022"/>
    <polyline points="649.0822,255.1772 640.9572,255.1772 640.9572,255.1772 640.9572,268.3022 640.9572,268.3022 649.0822,268.3022"/>
    <line x1="640.9572" x2="645.9572" y1="261.4272" y2="261.4272"/>
    <polyline points="679.065,255.1772 679.065,268.3022 679.065,268.3022 686.565,268.3022"/>
    <polyline points="699.2126,281.5748 737.0079,281.5748 737.0079,281.5748 774.8031,281.5748 774.8031,281.5748 774.8031,243.7795"/>
    <polyline points="774.8031,281.5748 774.8031,319.3701 774.8031,319.3701 737.0079,319.3701 737.0079,319.3701 737.0079,281.5748 737.0079,281.5748 737.0079,243.7795 737.0079,243.7795 699.2126,243.7795"/>
    <polyline points="716.2352,255.1772 716.2352,264.5522 716.2352,264.5522 716.8602,266.4272 716.8602,266.4272 718.1102,267.6772 718.1102,267.6772 719.9852,268.3022 719.9852,268.3022 721.2352,268.3022 721.2352,268.3022 723.1102,267.6772 723.1102,267.6772 724.3602,266.4272 724.3602,266.4272 724.9852,264.5522 724.9852,264.5522 724.9852,255.1772"/>
    <line x1="754.0305" x2="754.0305" y1="255.1772" y2="268.3022"/>
    <line x1="762.7805" x2="754.0305" y1="255.1772" y2="263.9272"/>
    <line x1="757.1555" x2="762.7805" y1="260.8022" y2="268.3022"/>
    <polyline points="82.1531,296.0974 81.5281,294.8474 81.5281,294.8474 80.2781,293.5974 80.2781,293.5974 79.0281,292.9724 79.0281,292.9724 76.5281,292.9724 76.5281,292.9724 75.2781,293.5974 75.2781,293.5974 74.0281,294.8474 74.0281,294.8474 73.4031,296.0974 73.4031,296.0974 72.7781,297.9724 72.7781,297.9724 72.7781,301.0974 72.7781,301.0974 73.4031,302.9724 73.4031,302.9724 74.0281,304.2224 74.0281,304.2224 75.2781,305.4724 75.2781,305.4724 76.5281,306.0974 76.5281,306.0974 79.0281,306.0974 79.0281,306.0974 80.2781,305.4724 80.2781,305.4724 81.5281,304.2224 81.5281,304.2224 82.1531,302.9724 82.1531,302.9724 82.1531,301.0974 82.1531,301.0974 79.0281,301.0974"/>
    <polygon points="189.6014,292.9724 188.3514,293.5974 188.3514,293.5974 187.1014,294.8474 187.1014,294.8474 186.4764,296.0974 186.4764,296.0974 185.8514,297.9724 185.8514,297.9724 185.8514,301.0974 185.8514,301.0974 186.4764,302.9724 186.4764,302.9724 187.1014,304.2224 187.1014,304.2224 188.3514,305.4724 188.3514,305.4724 189.6014,306.0974 189.6014,306.0974 192.1014,306.0974 192.1014,306.0974 193.3514,305.4724 193.3514,305.4724 194.6014,304.2224 194.6014,304.2224 195.2264,302.9724 195.2264,302.9724 195.8514,301.0974 195.8514,301.0974 195.8514,297.9724 195.8514,297.9724 195.2264,296.0974 195.2264,296.0974 194.6014,294.8474 194.6014,294.8474 193.3514,293.5974 193.3514,293.5974 192.1014,292.9724 192.1014,292.9724"/>
    <polyline points="245.6693,281.5748 245.6693,319.3701 245.6693,319.3701 283.4646,319.3701 283.4646,319.3701 283.4646,281.5748"/>
    <polygon points="265.1919,292.9724 263.9419,293.5974 263.9419,293.5974 262.6919,294.8474 262.6919,294.8474 262.0669,296.0974 262.0669,296.0974 261.4419,297.9724 261.4419,297.9724 261.4419,301.0974 261.4419,301.0974 262.0669,302.9724 262.0669,302.9724 262.6919,304.2224 262.6919,304.2224 263.9419,305.4724 263.9419,305.4724 265.1919,306.0974 265.1919,306.0974 267.6919,306.0974 267.6919,306.0974 268.9419,305.4724 268.9419,305.4724 270.1919,304.2224 270.1919,304.2224 270.8169,302.9724 270.8169,302.9724 271.4419,301.0974 271.4419,301.0974 271.4419,297.9724 271.4419,297.9724 270.8169,296.0974 270.8169,296.0974 270.1919,294.8474 270.1919,294.8474 268.9419,293.5974 268.9419,293.5974 267.6919,292.9724 267.6919,292.9724"/>
    <line x1="413.873" x2="413.873" y1="292.9724" y2="306.0974"/>
    <line x1="422.623" x2="413.873" y1="292.9724" y2="301.7224"/>
    <line x1="416.998" x2="422.623" y1="298.5974" y2="306.0974"/>
    <polyline points="762.468,292.9724 754.343,292.9724 754.343,292.9724 754.343,306.0974 754.343,306.0974 762.468,306.0974"/>
    <line x1="754.343" x2="759.343" y1="299.2224" y2="299.2224"/>
    <polyline points="98.253,322.5394 98.878,322.2269 98.878,322.2269 99.8155,321.2894 99.8155,321.2894 99.8155,327.8519"/>
    <polyline points="107.628,322.2269 107.3155,321.6019 107.3155,321.6019 106.378,321.2894 106.378,321.2894 105.753,321.2894 105.753,321.2894 104.8155,321.6019 104.8155,321.6019 104.1905,322.5394 104.1905,322.5394 103.878,324.1019 103.878,324.1019 103.878,325.6644 103.878,325.6644 104.1905,326.9144 104.1905,326.9144 104.8155,327.5394 104.8155,327.5394 105.753,327.8519 105.753,327.8519 106.0655,327.8519 106.0655,327.8519 107.003,327.5394 107.003,327.5394 107.628,326.9144 107.628,326.9144 107.9405,325.9769 107.9405,325.9769 107.9405,325.6644 107.9405,325.6644 107.628,324.7269 107.628,324.7269 107.003,324.1019 107.003,324.1019 106.0655,323.7894 106.0655,323.7894 105.753,323.7894 105.753,323.7894 104.8155,324.1019 104.8155,324.1019 104.1905,324.7269 104.1905,324.7269 103.878,325.6644"/>
    <polyline points="111.5108,337.0177 117.1358,337.0177 117.1358,337.0177 119.0108,336.3927 119.0108,336.3927 119.6358,335.7677 119.6358,335.7677 120.2608,334.5177 120.2608,334.5177 120.2608,333.2677 120.2608,333.2677 119.6358,332.0177 119.6358,332.0177 119.0108,331.3927 119.0108,331.3927 117.1358,330.7677 117.1358,330.7677 111.5108,330.7677 111.5108,330.7677 111.5108,343.8927"/>
    <line x1="115.8858" x2="120.2608" y1="337.0177" y2="343.8927"/>
    <polyline points="132.2835,357.1654 170.0787,357.1654 170.0787,357.1654 207.874,357.1654 207.874,357.1654 207.874,319.3701 207.874,319.3701 245.6693,319.3701 245.6693,319.3701 245.6693,357.1654 245.6693,357.1654 207.874,357.1654"/>
    <polyline points="170.0787,357.1654 170.0787,319.3701 170.0787,319.3701 132.2835,319.3701"/>
    <polyline points="157.7436,330.7677 149.6186,330.7677 149.6186,330.7677 149.6186,343.8927 149.6186,343.8927 157.7436,343.8927"/>
    <line x1="149.6186" x2="154.6186" y1="337.0177" y2="337.0177"/>
    <polyline points="195.5389,333.8927 194.9139,332.6427 194.9139,332.6427 193.6639,331.3927 193.6639,331.3927 192.4139,330.7677 192.4139,330.7677 189.9139,330.7677 189.9139,330.7677 188.6639,331.3927 188.6639,331.3927 187.4139,332.6427 187.4139,332.6427 186.7889,333.8927 186.7889,333.8927 186.1639,335.7677 186.1639,335.7677 186.1639,338.8927 186.1639,338.8927 186.7889,340.7677 186.7889,340.7677 187.4139,342.0177 187.4139,342.0177 188.6639,343.2677 188.6639,343.2677 189.9139,343.8927 189.9139,343.8927 192.4139,343.8927 192.4139,343.8927 193.6639,343.2677 193.6639,343.2677 194.9139,342.0177 194.9139,342.0177 195.5389,340.7677 195.5389,340.7677 195.5389,338.8927 195.5389,338.8927 192.4139,338.8927"/>
    <polyline points="233.3342,330.7677 225.2092,330.7677 225.2092,330.7677 225.2092,343.8927 225.2092,343.8927 233.3342,343.8927"/>
    <line x1="225.2092" x2="230.2092" y1="337.0177" y2="337.0177"/>
    <polyline points="245.6693,357.1654 283.4646,357.1654 283.4646,357.1654 283.4646,319.3701 283.4646,319.3701 321.2598,319.3701 321.2598,319.3701 321.2598,357.1654 321.2598,357.1654 359.0551,357.1654 359.0551,357.1654 396.8504,357.1654 396.8504,357.1654 396.8504,319.3701 396.8504,319.3701 359.0551,319.3701 359.0551,319.3701 321.2598,319.3701"/>
    <polyline points="271.4419,330.7677 271.4419,343.8927 271.4419,343.8927 262.6919,330.7677 262.6919,330.7677 262.6919,343.8927"/>
    <line x1="283.4646" x2="321.2598" y1="357.1654" y2="357.1654"/>
    <polygon points="300.4872,330.7677 300.4872,343.8927 300.4872,343.8927 306.1122,343.8927 306.1122,343.8927 307.9872,343.2677 307.9872,343.2677 308.6122,342.6427 308.6122,342.6427 309.2372,341.3927 309.2372,341.3927 309.2372,339.5177 309.2372,339.5177 308.6122,338.2677 308.6122,338.2677 307.9872,337.6427 307.9872,337.6427 306.1122,337.0177 306.1122,337.0177 307.9872,336.3927 307.9872,336.3927 308.6122,335.7677 308.6122,335.7677 309.2372,334.5177 309.2372,334.5177 309.2372,333.2677 309.2372,333.2677 308.6122,332.0177 308.6122,332.0177 307.9872,331.3927 307.9872,331.3927 306.1122,330.7677 306.1122,330.7677"/>
    <line x1="300.4872" x2="306.1122" y1="337.0177" y2="337.0177"/>
    <line x1="359.0551" x2="359.0551" y1="357.1654" y2="319.3701"/>
    <polyline points="338.2825,330.7677 338.2825,340.1427 338.2825,340.1427 338.9075,342.0177 338.9075,342.0177 340.1575,343.2677 340.1575,343.2677 342.0325,343.8927 342.0325,343.8927 343.2825,343.8927 343.2825,343.8927 345.1575,343.2677 345.1575,343.2677 346.4075,342.0177 346.4075,342.0177 347.0325,340.1427 347.0325,340.1427 347.0325,330.7677"/>
    <line x1="380.4528" x2="380.4528" y1="330.7677" y2="343.8927"/>
    <polygon points="472.4409,319.3701 472.4409,357.1654 472.4409,357.1654 510.2362,357.1654 510.2362,357.1654 510.2362,319.3701 510.2362,319.3701"/>
    <polyline points="476.2057,322.5394 476.8307,322.2269 476.8307,322.2269 477.7682,321.2894 477.7682,321.2894 477.7682,327.8519"/>
    <polyline points="481.5182,321.2894 485.8932,321.2894 485.8932,321.2894 482.7682,327.8519"/>
    <polyline points="489.4636,337.6427 495.0886,337.6427 495.0886,337.6427 496.9636,337.0177 496.9636,337.0177 497.5886,336.3927 497.5886,336.3927 498.2136,335.1427 498.2136,335.1427 498.2136,333.2677 498.2136,333.2677 497.5886,332.0177 497.5886,332.0177 496.9636,331.3927 496.9636,331.3927 495.0886,330.7677 495.0886,330.7677 489.4636,330.7677 489.4636,330.7677 489.4636,343.8927"/>
    <polyline points="510.2362,357.1654 548.0315,357.1654 548.0315,357.1654 585.8268,357.1654 585.8268,357.1654 585.8268,319.3701 585.8268,319.3701 548.0315,319.3701 548.0315,319.3701 510.2362,319.3701"/>
    <line x1="548.0315" x2="548.0315" y1="357.1654" y2="319.3701"/>
    <polyline points="534.7589,343.8927 529.7589,330.7677 529.7589,330.7677 524.7589,343.8927"/>
    <line x1="526.6339" x2="532.8839" y1="339.5177" y2="339.5177"/>
    <polyline points="565.0541,337.0177 570.6791,337.0177 570.6791,337.0177 572.5541,336.3927 572.5541,336.3927 573.1791,335.7677 573.1791,335.7677 573.8041,334.5177 573.8041,334.5177 573.8041,333.2677 573.8041,333.2677 573.1791,332.0177 573.1791,332.0177 572.5541,331.3927 572.5541,331.3927 570.6791,330.7677 570.6791,330.7677 565.0541,330.7677 565.0541,330.7677 565.0541,343.8927"/>
    <line x1="569.4291" x2="573.8041" y1="337.0177" y2="343.8927"/>
    <polyline points="585.8268,357.1654 623.622,357.1654 623.622,357.1654 661.4173,357.1654 661.4173,357.1654 699.2126,357.1654 699.2126,357.1654 699.2126,319.3701 699.2126,319.3701 661.4173,319.3701 661.4173,319.3701 623.622,319.3701 623.622,319.3701 585.8268,319.3701"/>
    <line x1="623.622" x2="623.622" y1="357.1654" y2="319.3701"/>
    <line x1="602.8494" x2="602.8494" y1="330.7677" y2="343.8927"/>
    <line x1="611.5994" x2="602.8494" y1="330.7677" y2="339.5177"/>
    <line x1="605.9744" x2="611.5994" y1="336.3927" y2="343.8927"/>
    <line x1="661.4173" x2="661.4173" y1="357.1654" y2="319.3701"/>
    <polyline points="649.0822,330.7677 640.9572,330.7677 640.9572,330.7677 640.9572,343.8927 640.9572,343.8927 649.0822,343.8927"/>
    <line x1="640.9572" x2="645.9572" y1="337.0177" y2="337.0177"/>
    <polyline points="678.44,337.0177 684.065,337.0177 684.065,337.0177 685.94,336.3927 685.94,336.3927 686.565,335.7677 686.565,335.7677 687.19,334.5177 687.19,334.5177 687.19,333.2677 687.19,333.2677 686.565,332.0177 686.565,332.0177 685.94,331.3927 685.94,331.3927 684.065,330.7677 684.065,330.7677 678.44,330.7677 678.44,330.7677 678.44,343.8927"/>
    <line x1="682.815" x2="687.19" y1="337.0177" y2="343.8927"/>
    <polyline points="699.2126,357.1654 737.0079,357.1654 737.0079,357.1654 774.8031,357.1654 774.8031,357.1654 774.8031,319.3701"/>
    <polyline points="737.0079,357.1654 737.0079,319.3701 737.0079,319.3701 699.2126,319.3701"/>
    <polyline points="724.6727,330.7677 716.5477,330.7677 716.5477,330.7677 716.5477,343.8927 716.5477,343.8927 724.6727,343.8927"/>
    <line x1="716.5477" x2="721.5477" y1="337.0177" y2="337.0177"/>
    <polyline points="762.7805,330.7677 762.7805,343.8927 762.7805,343.8927 754.0305,330.7677 754.0305,330.7677 754.0305,343.8927"/>
  </g>
</svg>
